<svg width="36" height="36" viewBox="0 0 36 36" fill="none" xmlns="http://www.w3.org/2000/svg">
<mask id="mask0_1234_36201" style="mask-type:alpha" maskUnits="userSpaceOnUse" x="0" y="0" width="36" height="36">
<rect width="36" height="36" fill="#D9D9D9"/>
</mask>
<g mask="url(#mask0_1234_36201)">
<path d="M14.9727 24.75H16.4727V19.2893L21.4632 22.1655L22.1843 20.8759L17.2227 18L22.1843 15.1241L21.4632 13.8345L16.4727 16.7108V11.25H14.9727V16.7108L10.011 13.8345L9.26103 15.1241L14.2227 18L9.26103 20.8759L10.011 22.1655L14.9727 19.2893V24.75ZM7.64591 28.5C6.95541 28.5 6.37891 28.2688 5.91641 27.8063C5.45391 27.3438 5.22266 26.7673 5.22266 26.0768V9.92325C5.22266 9.23275 5.45391 8.65625 5.91641 8.19375C6.37891 7.73125 6.95541 7.5 7.64591 7.5H23.7998C24.49 7.5 25.0664 7.73125 25.5289 8.19375C25.9914 8.65625 26.2227 9.23275 26.2227 9.92325V16.9039L30.7804 12.3461V23.6539L26.2227 19.0961V26.0768C26.2227 26.7673 25.9914 27.3438 25.5289 27.8063C25.0664 28.2688 24.49 28.5 23.7998 28.5H7.64591ZM7.64591 27H23.7998C24.0688 27 24.2899 26.9135 24.4632 26.7405C24.6362 26.5673 24.7227 26.346 24.7227 26.0768V9.92325C24.7227 9.654 24.6362 9.43275 24.4632 9.2595C24.2899 9.0865 24.0688 9 23.7998 9H7.64591C7.37666 9 7.15541 9.0865 6.98216 9.2595C6.80916 9.43275 6.72266 9.654 6.72266 9.92325V26.0768C6.72266 26.346 6.80916 26.5673 6.98216 26.7405C7.15541 26.9135 7.37666 27 7.64591 27Z" fill="white"/>
</g>
</svg>
