<svg width="36" height="36" viewBox="0 0 36 36" fill="none" xmlns="http://www.w3.org/2000/svg">
<mask id="mask0_1234_36210" style="mask-type:alpha" maskUnits="userSpaceOnUse" x="0" y="0" width="36" height="36">
<rect width="36" height="36" fill="#D9D9D9"/>
</mask>
<g mask="url(#mask0_1234_36210)">
<path d="M7.5 30V26.25L27.3202 6.43838C27.4855 6.27313 27.6595 6.15875 27.8423 6.09525C28.025 6.03175 28.2078 6 28.3905 6C28.579 6 28.7679 6.03175 28.9571 6.09525C29.1466 6.15875 29.3115 6.27313 29.4518 6.43838L31.0616 8.04825C31.2269 8.1885 31.3413 8.35337 31.4048 8.54287C31.4683 8.73212 31.5 8.921 31.5 9.1095C31.5 9.29225 31.4683 9.475 31.4048 9.65775C31.3413 9.8405 31.2269 10.0145 31.0616 10.1798L11.25 30H7.5ZM9 28.5H10.6095L26.4431 12.675L25.653 11.847L24.825 11.0569L9 26.8905V28.5ZM25.653 11.847L24.825 11.0569L26.4431 12.675L25.653 11.847ZM21.4039 30C23.0616 30 24.601 29.6047 26.022 28.8143C27.4432 28.024 28.1539 26.9193 28.1539 25.5C28.1539 24.6385 27.8635 23.8731 27.2827 23.2039C26.702 22.5346 25.8577 21.9818 24.75 21.5453L23.6048 22.6905C24.5645 23.0173 25.3126 23.422 25.8491 23.9047C26.3856 24.3875 26.6539 24.9193 26.6539 25.5C26.6539 26.3442 26.1351 27.0553 25.0976 27.633C24.0601 28.211 22.8289 28.5 21.4039 28.5C21.1904 28.5 21.012 28.5716 20.8688 28.7149C20.7255 28.8581 20.6539 29.0365 20.6539 29.25C20.6539 29.4635 20.7255 29.6419 20.8688 29.7851C21.012 29.9284 21.1904 30 21.4039 30ZM8.42025 20.2845L9.51638 19.1595C8.84338 18.8635 8.339 18.5564 8.00325 18.2381C7.66775 17.9199 7.5 17.5905 7.5 17.25C7.5 16.7963 7.77787 16.352 8.33362 15.9173C8.88937 15.4828 9.94037 14.9337 11.4866 14.2702C13.4559 13.4355 14.7838 12.6835 15.4703 12.0142C16.1568 11.3453 16.5 10.5905 16.5 9.75C16.5 8.6635 16.0125 7.76688 15.0375 7.06013C14.0625 6.35338 12.8 6 11.25 6C10.3173 6 9.43125 6.17113 8.592 6.51338C7.7525 6.85563 7.14325 7.27587 6.76425 7.77412C6.624 7.94512 6.5645 8.12975 6.58575 8.328C6.60675 8.526 6.70287 8.69225 6.87412 8.82675C7.04512 8.948 7.22488 8.998 7.41338 8.97675C7.60188 8.95575 7.76638 8.875 7.90688 8.7345C8.31438 8.327 8.798 8.01937 9.35775 7.81163C9.91725 7.60387 10.548 7.5 11.25 7.5C12.4288 7.5 13.3485 7.72213 14.0092 8.16638C14.6698 8.61063 15 9.1385 15 9.75C15 10.273 14.7235 10.7456 14.1705 11.1679C13.6178 11.5899 12.525 12.1634 10.8923 12.8884C9.027 13.7056 7.74525 14.4272 7.047 15.0532C6.349 15.6792 6 16.4115 6 17.25C6 17.8577 6.20775 18.414 6.62325 18.9188C7.0385 19.4235 7.6375 19.8788 8.42025 20.2845Z" fill="white"/>
</g>
</svg>
