<svg width="36" height="36" viewBox="0 0 36 36" fill="none" xmlns="http://www.w3.org/2000/svg">
<mask id="mask0_1234_36207" style="mask-type:alpha" maskUnits="userSpaceOnUse" x="0" y="0" width="36" height="36">
<rect width="36" height="36" fill="#D9D9D9"/>
</mask>
<g mask="url(#mask0_1234_36207)">
<path d="M7.5 11.7116V27.5768C7.5 27.846 7.5865 28.0673 7.7595 28.2405C7.93275 28.4135 8.154 28.5 8.42325 28.5H27.5768C27.846 28.5 28.0673 28.4135 28.2405 28.2405C28.4135 28.0673 28.5 27.846 28.5 27.5768V11.7116H22.5V21.8944L18 19.6444L13.5 21.8944V11.7116H7.5ZM8.42325 30C7.752 30 7.18025 29.764 6.708 29.292C6.236 28.8197 6 28.248 6 27.5768V11.2298C6 10.9375 6.04662 10.6625 6.13987 10.4048C6.23312 10.147 6.373 9.9095 6.5595 9.69225L8.89612 6.88575C9.11337 6.59325 9.385 6.3725 9.711 6.2235C10.037 6.0745 10.3865 6 10.7595 6H25.1828C25.5557 6 25.91 6.0745 26.2455 6.2235C26.5813 6.3725 26.8577 6.59325 27.075 6.88575L29.4405 9.75C29.627 9.96725 29.7669 10.2095 29.8601 10.4768C29.9534 10.7443 30 11.0241 30 11.3164V27.5768C30 28.248 29.764 28.8197 29.292 29.292C28.8197 29.764 28.248 30 27.5768 30H8.42325ZM8.07113 10.2116H27.9L25.9039 7.81725C25.8076 7.72125 25.697 7.64437 25.572 7.58662C25.447 7.52887 25.3172 7.5 25.1828 7.5H10.7884C10.6539 7.5 10.5241 7.52887 10.3991 7.58662C10.2741 7.64437 10.1635 7.72125 10.0672 7.81725L8.07113 10.2116ZM15 11.7116V19.4423L18 17.9422L21 19.4423V11.7116H15Z" fill="white"/>
</g>
</svg>
