<svg width="36" height="36" viewBox="0 0 36 36" fill="none" xmlns="http://www.w3.org/2000/svg">
<mask id="mask0_1234_36288" style="mask-type:alpha" maskUnits="userSpaceOnUse" x="0" y="0" width="36" height="36">
<rect width="36" height="36" fill="#D9D9D9"/>
</mask>
<g mask="url(#mask0_1234_36288)">
<path d="M17.25 20.3655L25.6155 15L17.25 9.6345V20.3655ZM12.1733 25.5C11.4827 25.5 10.9062 25.2688 10.4438 24.8063C9.98125 24.3438 9.75 23.7673 9.75 23.0768V6.92325C9.75 6.23275 9.98125 5.65625 10.4438 5.19375C10.9062 4.73125 11.4827 4.5 12.1733 4.5H28.3268C29.0173 4.5 29.5938 4.73125 30.0563 5.19375C30.5188 5.65625 30.75 6.23275 30.75 6.92325V23.0768C30.75 23.7673 30.5188 24.3438 30.0563 24.8063C29.5938 25.2688 29.0173 25.5 28.3268 25.5H12.1733ZM12.1733 24H28.3268C28.5578 24 28.7694 23.9039 28.9616 23.7116C29.1539 23.5194 29.25 23.3078 29.25 23.0768V6.92325C29.25 6.69225 29.1539 6.48063 28.9616 6.28838C28.7694 6.09613 28.5578 6 28.3268 6H12.1733C11.9422 6 11.7306 6.09613 11.5384 6.28838C11.3461 6.48063 11.25 6.69225 11.25 6.92325V23.0768C11.25 23.3078 11.3461 23.5194 11.5384 23.7116C11.7306 23.9039 11.9422 24 12.1733 24ZM7.67325 30C6.98275 30 6.40625 29.7688 5.94375 29.3063C5.48125 28.8438 5.25 28.2674 5.25 27.5771V9.92325H6.75V27.5771C6.75 27.8079 6.84613 28.0194 7.03838 28.2116C7.23063 28.4039 7.44225 28.5 7.67325 28.5H25.3268V30H7.67325Z" fill="white"/>
</g>
</svg>
