<svg width="36" height="36" viewBox="0 0 36 36" fill="none" xmlns="http://www.w3.org/2000/svg">
<mask id="mask0_1234_36213" style="mask-type:alpha" maskUnits="userSpaceOnUse" x="0" y="0" width="36" height="36">
<rect width="36" height="36" fill="#D9D9D9"/>
</mask>
<g mask="url(#mask0_1234_36213)">
<path d="M15.5483 26.4233C14.877 26.4233 14.3053 26.1871 13.833 25.7149C13.361 25.2429 13.125 24.6712 13.125 24V21.0866C11.8345 20.2461 10.8244 19.1595 10.0946 17.8268C9.36488 16.4943 9 15.0616 9 13.5289C9 11.0269 9.8745 8.89662 11.6235 7.13812C13.3725 5.37937 15.498 4.5 18 4.5C20.502 4.5 22.6275 5.3745 24.3765 7.1235C26.1255 8.8725 27 10.998 27 13.5C27 15.052 26.6351 16.4929 25.9054 17.8226C25.1756 19.1524 24.1655 20.2404 22.875 21.0866V24C22.875 24.6712 22.639 25.2429 22.167 25.7149C21.6947 26.1871 21.123 26.4233 20.4517 26.4233H15.5483ZM15.5483 24.9233H20.4517C20.721 24.9233 20.9423 24.8366 21.1155 24.6634C21.2885 24.4904 21.375 24.2693 21.375 24V20.2905L22.275 19.65C23.2808 18.9308 24.0698 18.0323 24.642 16.9545C25.214 15.8765 25.5 14.725 25.5 13.5C25.5 11.425 24.7688 9.65625 23.3063 8.19375C21.8438 6.73125 20.075 6 18 6C15.925 6 14.1562 6.73125 12.6938 8.19375C11.2313 9.65625 10.5 11.425 10.5 13.5C10.5 14.725 10.786 15.8765 11.358 16.9545C11.9303 18.0323 12.7193 18.9308 13.725 19.65L14.625 20.2905V24C14.625 24.2693 14.7115 24.4904 14.8845 24.6634C15.0578 24.8366 15.279 24.9233 15.5483 24.9233ZM15.2595 31.5C15.046 31.5 14.8676 31.4284 14.7244 31.2851C14.5811 31.1419 14.5095 30.9635 14.5095 30.75V30H21.4905V30.75C21.4905 30.9635 21.4189 31.1419 21.2756 31.2851C21.1324 31.4284 20.954 31.5 20.7405 31.5H15.2595Z" fill="white"/>
</g>
</svg>
