<svg width="36" height="36" viewBox="0 0 36 36" fill="none" xmlns="http://www.w3.org/2000/svg">
<mask id="mask0_1234_36285" style="mask-type:alpha" maskUnits="userSpaceOnUse" x="0" y="0" width="36" height="36">
<rect width="36" height="36" fill="#D9D9D9"/>
</mask>
<g mask="url(#mask0_1234_36285)">
<path d="M30.675 31.7453L25.5 26.5702V30.975H24V24H30.975V25.5H26.5327L31.7077 30.675L30.675 31.7453ZM18 31.5C16.1325 31.5 14.3775 31.1458 12.735 30.4373C11.0925 29.7288 9.66375 28.7673 8.44875 27.5527C7.23375 26.3382 6.27188 24.91 5.56313 23.268C4.85438 21.6262 4.5 19.8719 4.5 18.0049C4.5 16.1381 4.85425 14.383 5.56275 12.7395C6.27125 11.0962 7.23275 9.66675 8.44725 8.451C9.66175 7.23525 11.09 6.27287 12.732 5.56387C14.3737 4.85462 16.1281 4.5 17.9951 4.5C19.8619 4.5 21.617 4.85437 23.2605 5.56312C24.9037 6.27187 26.3332 7.23375 27.549 8.44875C28.7647 9.66375 29.7271 11.0925 30.4361 12.735C31.1454 14.3775 31.5 16.1325 31.5 18C31.5 18.4038 31.4822 18.8076 31.4467 19.2116C31.411 19.6154 31.3576 20.0193 31.2866 20.4233H29.7405C29.827 20.0193 29.8919 19.6154 29.9351 19.2116C29.9784 18.8076 30 18.4038 30 18C30 17.4102 29.9591 16.8205 29.8774 16.2308C29.7956 15.641 29.6634 15.0576 29.4806 14.4806H23.4289C23.5424 15.0576 23.6226 15.641 23.6696 16.2308C23.7169 16.8205 23.7405 17.4102 23.7405 18C23.7405 18.4038 23.7289 18.8076 23.7056 19.2116C23.6826 19.6154 23.648 20.0193 23.6017 20.4233H22.1017C22.148 20.0193 22.1826 19.6154 22.2056 19.2116C22.2289 18.8076 22.2405 18.4038 22.2405 18C22.2405 17.4102 22.2169 16.8205 22.1696 16.2308C22.1226 15.641 22.0424 15.0576 21.9289 14.4806H14.0711C13.9576 15.0576 13.8774 15.6418 13.8304 16.233C13.7831 16.8245 13.7595 17.4159 13.7595 18.0071C13.7595 18.5986 13.7831 19.1876 13.8304 19.7741C13.8774 20.3606 13.9576 20.9424 14.0711 21.5194H20.0767V23.0194H14.4289C14.7934 24.3044 15.2644 25.5371 15.8419 26.7176C16.4191 27.8981 17.1385 28.9961 18 30.0116C18.4037 30.0116 18.8076 29.99 19.2116 29.9468C19.6154 29.9035 20.0192 29.8569 20.4232 29.8069V31.2952C20.0192 31.3453 19.6154 31.3919 19.2116 31.4351C18.8076 31.4784 18.4037 31.5 18 31.5ZM6.51937 21.5194H12.5711C12.4576 20.9424 12.3774 20.3583 12.3304 19.767C12.2831 19.1755 12.2595 18.5841 12.2595 17.9929C12.2595 17.4014 12.2831 16.8124 12.3304 16.2259C12.3774 15.6394 12.4576 15.0576 12.5711 14.4806H6.51937C6.33662 15.0576 6.20437 15.6418 6.12262 16.233C6.04087 16.8245 6 17.4159 6 18.0071C6 18.5986 6.04087 19.1876 6.12262 19.7741C6.20437 20.3606 6.33662 20.9424 6.51937 21.5194ZM7.13062 12.9806H12.8689C13.1609 11.7289 13.5669 10.5294 14.0869 9.38212C14.6071 8.23513 15.275 7.15963 16.0905 6.15563C14.1 6.45188 12.3192 7.20525 10.7482 8.41575C9.177 9.6265 7.97112 11.1481 7.13062 12.9806ZM16.0905 29.8444C15.3327 28.8211 14.689 27.736 14.1592 26.589C13.6292 25.4417 13.2037 24.2519 12.8827 23.0194H7.13062C7.97112 24.8326 9.18175 26.3446 10.7625 27.5554C12.3432 28.7659 14.1192 29.5289 16.0905 29.8444ZM14.4289 12.9806H21.5711C21.2326 11.6941 20.7602 10.4713 20.154 9.312C19.5477 8.15275 18.8297 7.04488 18 5.98838C17.1577 7.00388 16.4366 8.1015 15.8366 9.28125C15.2366 10.461 14.7674 11.6941 14.4289 12.9806ZM23.1172 12.9806H28.8694C28.0289 11.1481 26.823 9.62175 25.2517 8.4015C23.6807 7.18125 21.9 6.43263 19.9095 6.15563C20.6672 7.17888 21.2966 8.26887 21.7976 9.42562C22.2986 10.5824 22.7385 11.7674 23.1172 12.9806Z" fill="#1C1B1F"/>
</g>
</svg>
