<svg width="36" height="36" viewBox="0 0 36 36" fill="none" xmlns="http://www.w3.org/2000/svg">
<mask id="mask0_1234_36204" style="mask-type:alpha" maskUnits="userSpaceOnUse" x="0" y="0" width="36" height="36">
<rect width="36" height="36" fill="#D9D9D9"/>
</mask>
<g mask="url(#mask0_1234_36204)">
<path d="M13.5 31.5C12.2422 31.5 11.072 31.2635 9.98925 30.7905C8.90675 30.3173 7.95775 29.673 7.14225 28.8577C6.327 28.0423 5.68275 27.0933 5.2095 26.0107C4.7365 24.928 4.5 23.7577 4.5 22.5C4.5 20.725 4.97213 19.0914 5.91638 17.5991C6.86063 16.1069 8.15388 15.0001 9.79613 14.2789C10.2576 13.2461 10.8668 12.3514 11.6235 11.5946C12.3802 10.8379 13.2654 10.2384 14.2789 9.79612C14.9884 8.19237 16.073 6.90875 17.5328 5.94525C18.9923 4.98175 20.648 4.5 22.5 4.5C23.7577 4.5 24.928 4.7365 26.0107 5.2095C27.0933 5.68275 28.0423 6.327 28.8577 7.14225C29.673 7.95775 30.3173 8.90675 30.7905 9.98925C31.2635 11.072 31.5 12.2422 31.5 13.5C31.5 15.3558 31.0328 17 30.0983 18.4328C29.1635 19.8655 27.8654 20.9616 26.2039 21.7211C25.7424 22.7539 25.138 23.6438 24.3908 24.3908C23.6437 25.138 22.7539 25.7424 21.7211 26.2039C20.9999 27.8076 19.9124 29.0913 18.4586 30.0548C17.0049 31.0183 15.352 31.5 13.5 31.5ZM13.5578 30C14.6713 30 15.7871 29.7308 16.9054 29.1922C18.0236 28.6537 18.9078 27.8653 19.5577 26.8268C18.0307 27.096 16.5865 26.9894 15.225 26.5069C13.8635 26.0241 12.6885 25.2981 11.7 24.3289C10.7115 23.3404 9.97587 22.1701 9.49312 20.8181C9.01062 19.4664 8.904 18.027 9.17325 16.5C8.154 17.1692 7.37025 18.0486 6.822 19.1381C6.274 20.2274 6 21.348 6 22.5C6 23.55 6.2 24.5298 6.6 25.4393C7 26.349 7.5375 27.1414 8.2125 27.8164C8.90675 28.4914 9.70863 29.024 10.6181 29.4143C11.5279 29.8048 12.5078 30 13.5578 30ZM18 25.5C19.4405 25.5 20.6795 25.1731 21.717 24.5194C22.7545 23.8654 23.5405 23.1345 24.075 22.3268C22.5422 22.596 21.0951 22.4879 19.7336 22.0024C18.3721 21.5169 17.1971 20.7895 16.2086 19.8202C15.2201 18.8317 14.4831 17.6615 13.9976 16.3095C13.5121 14.9577 13.404 13.5155 13.6733 11.9827C12.8077 12.575 12.0721 13.3947 11.4664 14.442C10.8606 15.489 10.5578 16.675 10.5578 18C10.5578 19.05 10.7515 20.025 11.139 20.925C11.5265 21.825 12.0606 22.6125 12.7414 23.2875C13.4164 23.9875 14.199 24.5312 15.0893 24.9188C15.9798 25.3062 16.95 25.5 18 25.5ZM22.5578 21C23.0077 21 23.439 20.9625 23.8515 20.8875C24.264 20.8125 24.6827 20.7 25.1077 20.55C25.6577 19.05 25.739 17.6062 25.3515 16.2188C24.964 14.8313 24.2952 13.6625 23.3452 12.7125C22.3952 11.7625 21.2265 11.0938 19.839 10.7063C18.4515 10.3188 17.0078 10.4 15.5078 10.95C15.3578 11.375 15.2452 11.7938 15.1702 12.2063C15.0953 12.6188 15.0578 13.05 15.0578 13.5C15.0578 14.55 15.2515 15.525 15.639 16.425C16.0265 17.325 16.5703 18.1125 17.2703 18.7875C17.9453 19.4875 18.7327 20.0312 19.6327 20.4188C20.5327 20.8062 21.5077 21 22.5578 21ZM26.8845 19.5173C27.846 18.8673 28.6056 18.0524 29.1634 17.0726C29.7211 16.0929 30 14.902 30 13.5C30 12.45 29.8063 11.475 29.4188 10.575C29.0313 9.675 28.4875 8.8875 27.7875 8.2125C27.1125 7.5125 26.325 6.96875 25.425 6.58125C24.525 6.19375 23.55 6 22.5 6C21.2213 6 20.0756 6.28363 19.0631 6.85088C18.0506 7.41813 17.1905 8.19225 16.4827 9.17325C18.0155 8.904 19.4626 9.01213 20.8241 9.49763C22.1856 9.98313 23.3606 10.7105 24.3491 11.6798C25.3376 12.6683 26.0746 13.8385 26.5601 15.1905C27.0456 16.5423 27.1537 17.9845 26.8845 19.5173Z" fill="white"/>
</g>
</svg>
