<svg width="36" height="36" viewBox="0 0 36 36" fill="none" xmlns="http://www.w3.org/2000/svg">
<mask id="mask0_1234_36279" style="mask-type:alpha" maskUnits="userSpaceOnUse" x="0" y="0" width="36" height="36">
<rect width="36" height="36" fill="#D9D9D9"/>
</mask>
<g mask="url(#mask0_1234_36279)">
<path d="M12.1732 25.5C11.4827 25.5 10.9062 25.2688 10.4437 24.8063C9.98125 24.3438 9.75 23.7673 9.75 23.0768V6.92325C9.75 6.23275 9.98125 5.65625 10.4437 5.19375C10.9062 4.73125 11.4827 4.5 12.1732 4.5H28.3267C29.0172 4.5 29.5937 4.73125 30.0562 5.19375C30.5187 5.65625 30.75 6.23275 30.75 6.92325V23.0768C30.75 23.7673 30.5187 24.3438 30.0562 24.8063C29.5937 25.2688 29.0172 25.5 28.3267 25.5H12.1732ZM12.1732 24H28.3267C28.5577 24 28.7694 23.9039 28.9616 23.7116C29.1539 23.5194 29.25 23.3078 29.25 23.0768V10.5577H19.9039V6H12.1732C11.9422 6 11.7306 6.09613 11.5384 6.28838C11.3461 6.48063 11.25 6.69225 11.25 6.92325V23.0768C11.25 23.3078 11.3461 23.5194 11.5384 23.7116C11.7306 23.9039 11.9422 24 12.1732 24ZM7.67325 30C6.98275 30 6.40625 29.7688 5.94375 29.3063C5.48125 28.8438 5.25 28.2674 5.25 27.5771V9.92325H6.75V27.5771C6.75 27.8079 6.84613 28.0194 7.03838 28.2116C7.23063 28.4039 7.44225 28.5 7.67325 28.5H25.3267V30H7.67325Z" fill="#1C1B1F"/>
</g>
</svg>
