<svg width="156" height="28" viewBox="0 0 156 28" fill="none" xmlns="http://www.w3.org/2000/svg">
<path d="M14.5222 6.86827H16.8588V20.3643H14.5222V6.86827ZM17.4009 2.81821C17.4009 3.27306 17.2202 3.67807 16.8588 4.027C16.4974 4.37593 16.0737 4.55039 15.5939 4.55039C15.1141 4.55039 14.7029 4.37593 14.3602 4.027C14.0237 3.67807 13.8555 3.27306 13.8555 2.81821C13.8555 2.33844 14.0237 1.93343 14.3602 1.60943C14.6966 1.27919 15.1079 1.11719 15.5939 1.11719C16.0799 1.11719 16.4974 1.27919 16.8588 1.60943C17.2202 1.93343 17.4009 2.33844 17.4009 2.81821Z" fill="#D10D22"/>
<path d="M33.7353 12.2705H31.2679C30.732 10.501 28.9375 9.2174 26.9934 9.2174C24.6132 9.2174 22.6879 11.149 22.6879 13.5292C22.6879 15.9093 24.6008 17.8222 26.9685 17.8347C26.9685 17.8347 27.0246 17.8347 27.0558 17.8347C31.623 17.9095 35.5111 12.3017 35.5111 12.3017C39.5675 6.7126 43.3995 6.77491 43.7796 6.79983C43.7796 6.79983 43.8232 6.79983 43.8481 6.79983C47.568 6.79983 50.5838 9.81557 50.5838 13.5354C50.5838 17.2552 47.568 20.2647 43.8481 20.2647C42.3589 20.2647 40.6641 19.7787 39.5488 18.9625V27.1249H37.1125V15.5729C37.1125 15.5729 37.1125 15.5729 37.1125 15.5666H39.5488H39.7295C40.4523 16.9187 42.2032 17.8409 43.8481 17.8409C46.2283 17.8409 48.1599 15.9156 48.1599 13.5354C48.1599 11.1552 46.2283 9.22364 43.8481 9.22364C43.8232 9.22364 43.8045 9.22364 43.7796 9.22364C40.6579 9.14886 36.7698 14.4264 36.7698 14.4264C32.3894 20.2024 27.5106 20.2709 27.0184 20.2647C27.0059 20.2647 26.9997 20.2647 26.9872 20.2647C23.2674 20.2647 20.2578 17.249 20.2578 13.5354C20.2578 9.8218 23.2736 6.79983 26.9872 6.79983C28.5574 6.79983 30.1463 7.33568 31.2928 8.23293V0.132812H33.7291V12.2705H33.7353Z" fill="#D10D22"/>
<path d="M11.8201 20.3714L3.61394 13.5548L11.6394 6.88781H7.98805L2.32414 11.5921V3.42969H0V20.3776H2.32414V15.5238L8.16875 20.3714H11.8201Z" fill="#D10D22"/>
<path d="M59.8129 12.6873C59.439 13.055 58.9904 13.2419 58.467 13.2419C57.9436 13.2419 57.495 13.055 57.1211 12.6873C56.7473 12.3197 56.5603 11.8711 56.5603 11.3477C56.5603 10.8243 56.7473 10.3757 57.1211 10.0018C57.495 9.62799 57.9436 9.43483 58.467 9.43483C58.9904 9.43483 59.439 9.62176 59.8129 10.0018C60.1867 10.3757 60.3737 10.8243 60.3737 11.3477C60.3737 11.8711 60.1867 12.3135 59.8129 12.6873ZM63.4143 16.4259H65.0157V10.1701H66.2557V8.86159H65.0157V6.8241H63.4143V16.4259ZM58.467 15.9897H56.8656V20.208H65.0095V18.8995H58.467V15.9897ZM55.5883 9.87099C55.3266 10.3383 55.1957 10.8555 55.1957 11.4162C55.1957 12.3197 55.5135 13.0923 56.1553 13.7341C56.7971 14.3697 57.5697 14.6937 58.467 14.6937C59.3642 14.6937 60.1369 14.3759 60.7787 13.7341C61.4204 13.0923 61.7382 12.3197 61.7382 11.4162C61.7382 10.8555 61.6074 10.3383 61.3519 9.87099C61.084 9.39745 60.7413 9.01736 60.3051 8.71828H62.1059V7.40357H59.2832V6.53125H57.6819V7.40357H54.8281V8.71828H56.6351C56.1989 9.01736 55.85 9.40368 55.5883 9.87099Z" fill="white"/>
<path d="M77.732 11.8115H78.3115V13.1262H74.0931V14.7275H77.732V20.0362H76.1306V16.036H68.5663V14.7275H72.4918V13.1262H68.2734V11.8115H76.1306V7.96082H68.2734V6.65234H77.732V11.8115Z" fill="white"/>
<path d="M90.7143 20.2042H89.1192V15.5435H81.3555V6.82031H87.7546V8.12879H82.9568V14.2413H89.1192V6.82031H90.7143V20.2042Z" fill="white"/>
<path d="M93.6883 6.82031H100.966V8.12879H98.1995L101.72 15.0388L100.424 15.6931L97.3209 9.6242L94.2054 15.7055L92.9219 15.0388L96.4486 8.12879H93.682V6.82031H93.6883ZM102.275 6.82031H103.876V8.8578H105.11V10.1663H103.876V20.2104H102.275V6.82031Z" fill="white"/>
<path d="M112.274 11.7016C111.863 12.1128 111.358 12.3184 110.766 12.3184C110.175 12.3184 109.67 12.1128 109.259 11.7016C108.847 11.2903 108.642 10.7856 108.642 10.1937C108.642 9.60177 108.847 9.1033 109.259 8.68583C109.67 8.28083 110.175 8.06898 110.766 8.06898C111.358 8.06898 111.857 8.28083 112.274 8.68583C112.686 9.1033 112.891 9.60177 112.891 10.1937C112.891 10.7856 112.686 11.2903 112.274 11.7016ZM113.278 7.65774C112.586 6.95988 111.751 6.61719 110.766 6.61719C109.782 6.61719 108.953 6.96611 108.255 7.65774C107.564 8.34936 107.215 9.19053 107.215 10.1688C107.215 11.147 107.558 11.9882 108.255 12.6736C108.953 13.3652 109.788 13.7204 110.766 13.7204C111.745 13.7204 112.586 13.3714 113.278 12.6736C113.969 11.982 114.318 11.1408 114.318 10.1688C114.318 9.19676 113.969 8.34936 113.278 7.65774ZM117.427 6.81657H115.832V16.4246H117.427V6.81657ZM117.415 18.8982H110.723V15.2594H109.122V20.2067H117.415V18.8982Z" fill="white"/>
<path d="M130.889 16.4353H129.288V6.82106H130.889V16.4353ZM123.911 15.2576H122.309V20.2049H130.889V18.8902H123.904V15.2576H123.911ZM128.696 13.4943L127.475 14.2482L124.347 9.10778L121.213 14.2295L119.973 13.4881L123.269 8.11707H120.702V6.80859H127.83V8.11707H125.4L128.69 13.4881L128.696 13.4943Z" fill="white"/>
<path d="M139.481 18.9707C139.206 19.2387 138.882 19.3757 138.49 19.3757C138.097 19.3757 137.773 19.2324 137.505 18.9707C137.231 18.6966 137.1 18.3663 137.1 17.98C137.1 17.5937 137.231 17.2635 137.505 16.9893C137.773 16.7152 138.104 16.5843 138.49 16.5843C138.876 16.5843 139.206 16.7214 139.481 16.9893C139.755 17.2635 139.892 17.5937 139.892 17.98C139.892 18.3663 139.755 18.6966 139.481 18.9707ZM140.509 15.9488C139.948 15.388 139.281 15.1076 138.496 15.1076C137.711 15.1076 137.038 15.388 136.477 15.9488C135.916 16.5033 135.642 17.1762 135.642 17.9613C135.642 18.7464 135.923 19.4193 136.477 19.9739C137.038 20.5284 137.711 20.8088 138.496 20.8088C139.281 20.8088 139.954 20.5284 140.509 19.9739C141.069 19.4131 141.35 18.7464 141.35 17.9613C141.35 17.1762 141.069 16.5033 140.509 15.9488ZM139.549 11.2008C139.262 11.4875 138.92 11.6308 138.521 11.6308C138.122 11.6308 137.779 11.4875 137.499 11.2008C137.206 10.9142 137.069 10.5715 137.069 10.179C137.069 9.78644 137.212 9.43751 137.499 9.15089C137.779 8.86427 138.122 8.72096 138.521 8.72096C138.92 8.72096 139.262 8.86427 139.549 9.15089C139.836 9.43751 139.973 9.78021 139.973 10.179C139.973 10.5778 139.829 10.9142 139.549 11.2008ZM143.88 13.4253H133.125V14.7337H143.88V13.4253ZM135.761 9.44374C135.686 9.70544 135.642 9.9796 135.642 10.26C135.642 11.0451 135.923 11.718 136.477 12.2726C137.038 12.8333 137.711 13.1137 138.496 13.1137C139.281 13.1137 139.954 12.8333 140.509 12.2726C141.069 11.718 141.35 11.0451 141.35 10.26C141.35 9.9796 141.312 9.70544 141.231 9.44374C141.15 9.18828 141.045 8.94528 140.895 8.72096H142.714V7.40625H139.312V6.39062H137.711V7.40625H134.278V8.72096H136.097C135.948 8.94528 135.835 9.18828 135.761 9.44374Z" fill="white"/>
<path d="M150.992 10.827C150.649 11.1697 150.238 11.3442 149.758 11.3442C149.278 11.3442 148.873 11.1697 148.524 10.827C148.181 10.4843 148.013 10.0731 148.013 9.59329C148.013 9.11351 148.188 8.69604 148.524 8.35958C148.873 8.01688 149.284 7.84864 149.758 7.84864C150.231 7.84864 150.655 8.01688 150.992 8.35958C151.334 8.69604 151.503 9.11351 151.503 9.59329C151.503 10.0731 151.334 10.4781 150.992 10.827ZM152.063 7.33148C151.434 6.7084 150.68 6.39062 149.789 6.39062C148.898 6.39062 148.144 6.70217 147.515 7.33148C146.885 7.95457 146.568 8.71474 146.568 9.60575C146.568 10.4968 146.885 11.2445 147.515 11.8738C148.144 12.5031 148.904 12.8209 149.789 12.8209C150.674 12.8209 151.44 12.5031 152.063 11.8738C152.686 11.2445 152.998 10.4905 152.998 9.60575C152.998 8.72097 152.686 7.95457 152.063 7.33148ZM156.001 6.82678H154.4V13.0203H145.957V14.3287H149.291V16.7214H150.892V14.3287H154.4V15.0453H152.219V16.2105H154.4V17.008H156.001V6.82055V6.82678ZM156.001 18.9022H148.867V15.5562H147.266V20.2169H156.001V18.9022Z" fill="white"/>
</svg>
