<svg width="188" height="55" viewBox="0 0 188 55" fill="none" xmlns="http://www.w3.org/2000/svg">
<path d="M73.1796 42.0818H74.808L75.0023 37.3008H68.4883V38.6902H73.314L73.1796 42.0818Z" fill="#C2C2C2"/>
<path d="M76.1225 36.8984V44.7423H73.8516V46.057H76.1225V48.2085H77.8556V36.8984H76.1225Z" fill="#C2C2C2"/>
<path d="M70.8172 44.7695H69.1289V50.4022H77.869V48.9678H70.8172V44.7695Z" fill="#C2C2C2"/>
<path d="M71.584 47.2125H73.1677V44.0301H75.7374V42.6406H68.1328V44.0301H71.584V47.2125Z" fill="#C2C2C2"/>
<path d="M66.9186 42.6406H56.7891V43.9853H66.9186V42.6406Z" fill="#C2C2C2"/>
<path d="M41.0195 36.8984V43.9952H42.7675V41.1416H44.2317V39.6923H42.7675V36.8984H41.0195Z" fill="#C2C2C2"/>
<path d="M34.5391 44.5742H42.7562V50.3861H34.5391V44.5742ZM41.068 45.9936H36.2124V48.9668H41.068V45.9936Z" fill="#C2C2C2"/>
<path d="M54.577 36.8984V43.9952H52.8589V41.1416H50.6328V39.6923H52.829V36.8984H54.577Z" fill="#C2C2C2"/>
<path d="M50.2716 50.7653C47.7616 50.7653 45.7148 49.3011 45.7148 47.4783C45.7148 45.6556 47.7467 44.1914 50.2716 44.1914C52.7965 44.1914 54.8135 45.6705 54.8135 47.4783C54.8135 49.2862 52.7816 50.7653 50.2716 50.7653ZM53.0954 47.4783C53.0954 46.4624 51.8254 45.6406 50.2716 45.6406C48.7178 45.6406 47.4479 46.4624 47.4479 47.4783C47.4479 48.4943 48.7178 49.316 50.2716 49.316C51.8254 49.316 53.0954 48.4943 53.0954 47.4783Z" fill="#C2C2C2"/>
<path d="M36.8877 37.1602C36.8877 37.1602 36.6636 40.9999 39.7711 42.5985L38.8747 43.8386C38.8747 43.8386 36.5889 42.3296 36.0809 40.6861C35.558 42.3446 33.2871 43.8386 33.2871 43.8386L32.3906 42.5985C35.5131 41.0148 35.2741 37.1602 35.2741 37.1602H36.8877Z" fill="#C2C2C2"/>
<path d="M47.6913 40.6627C47.1834 42.3211 45.0917 43.6807 45.0917 43.6807L44.1953 42.4406C47.1236 40.9764 46.8845 37.1367 46.8845 37.1367H48.4981C48.4981 37.1367 48.274 40.9764 51.2023 42.4406L50.3059 43.6807C50.3059 43.6807 48.2142 42.3062 47.7062 40.6627" fill="#C2C2C2"/>
<path d="M61.8649 50.7567C59.3848 50.7567 57.3828 49.3374 57.3828 47.5893C57.3828 45.8413 59.3998 44.4219 61.8649 44.4219C64.3301 44.4219 66.347 45.8413 66.347 47.5893C66.347 49.3374 64.345 50.7567 61.8649 50.7567ZM64.6587 47.5893C64.6587 46.6182 63.4038 45.8263 61.8649 45.8263C60.3261 45.8263 59.0711 46.6182 59.0711 47.5893C59.0711 48.5604 60.3261 49.3672 61.8649 49.3672C63.4038 49.3672 64.6587 48.5754 64.6587 47.5893Z" fill="#C2C2C2"/>
<path d="M57.33 37.3398V38.7742H60.7961C60.7961 38.7742 60.3927 40.2682 57.2852 40.7463L57.5989 42.1209C57.5989 42.1209 61.1846 41.4933 61.8569 39.8349C62.5292 41.4933 66.0999 42.1209 66.0999 42.1209L66.4137 40.7463C63.2911 40.2682 62.9027 38.7742 62.9027 38.7742H66.3688V37.3398H57.33Z" fill="#C2C2C2"/>
<path d="M157.916 38.2329C157.019 33.0635 141.482 31.4499 123.224 34.6322C115.56 35.9619 108.643 37.9341 103.234 40.1602C104.056 40.1752 104.684 40.3694 105.057 40.7429C105.341 41.0417 105.49 41.4451 105.49 41.9382V42.4462H103.698V41.998C103.698 41.6244 103.473 41.3854 103.07 41.3854C102.726 41.3854 102.517 41.5348 102.457 41.8336C102.443 41.9233 102.428 42.0577 102.457 42.1922C102.652 42.984 105.311 43.4621 105.595 44.9114C105.64 45.0907 105.685 45.4941 105.595 46.0618C105.431 47.2272 104.4 47.6754 103.1 47.6754C101.277 47.6754 100.545 46.8088 100.545 45.6285V45.0757H102.472V45.7779C102.472 46.1664 102.756 46.3905 103.145 46.3905C103.533 46.3905 103.727 46.2411 103.802 45.9273C103.832 45.7929 103.847 45.5837 103.787 45.4194C103.429 44.5229 100.949 44.1195 100.65 42.6703C100.575 42.3416 100.575 42.0727 100.635 41.729C100.665 41.5348 100.724 41.3704 100.799 41.236C94.823 44.0299 91.312 47.1077 91.7752 49.7671C92.6865 54.9365 108.209 56.5501 126.467 53.3678C134.489 51.9634 141.706 49.8717 147.189 47.5409C147.114 47.5409 147.039 47.5409 146.95 47.5409C145.695 47.5409 144.574 47.0778 144.47 45.7929C144.44 45.5538 144.44 45.4642 144.44 45.3297V42.3864C144.44 42.2669 144.455 42.0428 144.47 41.9233C144.619 40.6832 145.59 40.1752 146.95 40.1752C147.996 40.1752 149.28 40.474 149.415 41.9233C149.43 42.1025 149.43 42.2968 149.43 42.3565V42.6404H147.622V42.237C147.622 42.237 147.622 42.0726 147.592 41.983C147.562 41.8336 147.443 41.49 146.92 41.49C146.397 41.49 146.277 41.8336 146.248 41.983C146.248 42.0577 146.218 42.1772 146.218 42.3117V45.509C146.218 45.6136 146.218 45.7032 146.233 45.7779C146.233 45.8228 146.337 46.256 146.92 46.256C147.503 46.256 147.592 45.8228 147.607 45.7779C147.622 45.6883 147.622 45.5837 147.622 45.509V44.5229H146.905V43.4621H149.415V45.3596C149.415 45.4941 149.415 45.5837 149.385 45.8228C149.355 46.1515 149.25 46.4353 149.086 46.6893C154.913 43.9253 158.304 40.8923 157.841 38.2777M110.495 47.4363L109.584 41.221H109.554L108.613 47.4363H106.686L107.985 40.4143H111.138L112.423 47.4363H110.495ZM119.788 47.4363L119.743 41.3406H119.714L118.578 47.4363H116.77L115.635 41.3406H115.605L115.56 47.4363H113.767L113.917 40.4143H116.815L117.652 45.6435H117.697L118.533 40.4143H121.417L121.566 47.4363H119.788ZM128.244 46.0767C128.05 47.4363 126.721 47.6754 125.779 47.6754C124.211 47.6754 123.239 47.0031 123.239 45.6435V45.0907H125.137V45.7779C125.137 46.1515 125.406 46.3756 125.809 46.3756C126.168 46.3756 126.392 46.2261 126.467 45.9273C126.496 45.7929 126.511 45.5837 126.467 45.4343C126.108 44.5677 123.658 44.1345 123.359 42.7151C123.284 42.3864 123.284 42.1175 123.344 41.7738C123.553 40.4889 124.793 40.22 125.779 40.22C126.676 40.22 127.318 40.4142 127.707 40.8027C127.99 41.0866 128.14 41.49 128.14 41.983V42.491H126.377V42.0428C126.377 41.6543 126.138 41.4451 125.749 41.4451C125.406 41.4451 125.197 41.5946 125.137 41.8934C125.137 41.9531 125.107 42.1025 125.137 42.237C125.331 43.0139 127.961 43.492 128.259 44.9263C128.289 45.1056 128.349 45.509 128.259 46.0618M134.833 45.4343C134.833 45.5688 134.833 45.8228 134.818 45.8975C134.714 47.0479 133.877 47.6455 132.353 47.6455C130.829 47.6455 130.007 47.0479 129.888 45.8975C129.888 45.8228 129.873 45.5688 129.873 45.4343V40.3993H131.681V45.5837C131.681 45.7032 131.681 45.7929 131.696 45.8377C131.711 45.9572 131.83 46.3307 132.338 46.3307C132.846 46.3307 132.966 45.9572 132.995 45.8377C132.995 45.7779 132.995 45.6883 132.995 45.5837V40.3993H134.803V45.4343H134.833ZM142.647 47.3616H140.122L138.434 41.8037H138.404L138.493 47.3616H136.731V40.3993H139.36L140.929 45.748H140.959L140.869 40.3993H142.647V47.3616Z" fill="#C2C2C2"/>
<path d="M133.775 17.5011H124.051V3.79612H127.216V14.8378H133.775V17.5011ZM146.228 16.3732C145.101 17.1599 143.016 17.7096 140.893 17.7096C136.258 17.7096 134.154 15.2264 134.154 10.6296C134.154 6.03288 136.485 3.59708 140.911 3.59708C142.873 3.59708 144.977 4.11837 146.181 5.83385L144.21 7.64411C143.461 6.69633 142.561 6.19401 140.978 6.19401C138.125 6.19401 137.225 7.84315 137.225 10.6486C137.225 13.454 138.172 15.0368 141.025 15.0368C141.907 15.0368 142.835 14.8567 143.309 14.6767V12.2788H140.731V9.71977H146.228V16.3637V16.3732ZM157.639 15.1411C159.023 15.1411 160.473 14.8188 161.459 14.326L162.141 16.6101C160.928 17.3305 159.137 17.7285 157.431 17.7285C152.853 17.7285 150.967 15.1032 150.967 10.6581C150.967 6.21296 153.422 3.5876 157.469 3.5876C159.232 3.5876 161.156 4.08046 162.35 5.39787L160.691 7.33135C159.952 6.57313 158.872 6.00445 157.592 6.00445C155.422 6.00445 154.019 7.49248 154.019 10.6202C154.019 13.3024 154.777 15.1411 157.649 15.1411H157.639ZM175.789 17.5011H170.463L166.567 6.17506H166.198V17.5011H163.317V3.79612H168.652L172.595 14.942H172.936V3.79612H175.789V17.5011ZM181.694 17.7285C180.101 17.7285 178.196 17.2925 176.775 16.4774L177.817 14.1743C178.936 14.8188 180.481 15.2927 181.675 15.2927C183.419 15.2927 184.073 14.7241 184.073 13.7763C184.073 13.0181 183.637 12.4873 182.537 12.184C181.855 11.9944 180.954 11.6912 180.139 11.3879C178.49 10.7434 176.983 9.53968 176.983 7.53038C176.983 5.20832 178.67 3.57812 182.31 3.57812C183.693 3.57812 185.636 3.93828 186.925 4.69651L185.94 6.88589C185.03 6.35513 183.712 5.9002 182.367 5.9002C180.5 5.9002 179.95 6.54469 179.95 7.36926C179.95 8.48764 180.879 8.92362 182.575 9.38804C183.087 9.53968 184.054 9.84297 184.556 10.0515C185.883 10.6202 187.068 11.4163 187.068 13.6436C187.068 16.0036 185.077 17.7096 181.684 17.7096L181.694 17.7285Z" fill="#C2C2C2"/>
<path d="M172.932 14.9523H172.591L168.648 3.79688H163.312V17.5018H166.194V6.18528H166.573L170.459 17.5018H175.785V3.79688H172.932V14.9523Z" fill="#C2C2C2"/>
<path d="M184.562 10.0827C184.051 9.87421 183.084 9.57092 182.582 9.41928C180.885 8.94539 179.956 8.50941 179.956 7.40051C179.956 6.56646 180.506 5.93144 182.373 5.93144C183.719 5.93144 185.036 6.38638 185.946 6.91713L186.932 4.72776C185.643 3.96953 183.7 3.60938 182.316 3.60938C178.667 3.60938 176.99 5.23956 176.99 7.56163C176.99 9.56145 178.506 10.7746 180.146 11.4191C180.961 11.7224 181.871 12.0257 182.544 12.2152C183.643 12.5185 184.079 13.0493 184.079 13.8075C184.079 14.7553 183.416 15.324 181.681 15.324C180.487 15.324 178.942 14.8501 177.824 14.2056L176.781 16.5087C178.203 17.3238 180.108 17.7598 181.7 17.7598C185.103 17.7598 187.083 16.0538 187.083 13.6938C187.083 11.4665 185.889 10.6704 184.572 10.1017L184.562 10.0827Z" fill="#C2C2C2"/>
<path d="M157.594 6.0106C158.883 6.0106 159.954 6.57926 160.693 7.33749L162.351 5.40401C161.157 4.07712 159.233 3.59375 157.47 3.59375C153.423 3.59375 150.969 6.0106 150.969 10.6642C150.969 15.3178 152.855 17.7347 157.432 17.7347C159.129 17.7347 160.93 17.3366 162.143 16.6163L161.46 14.3321C160.475 14.825 159.025 15.1472 157.641 15.1472C154.769 15.1472 154.011 13.3085 154.011 10.6263C154.011 7.50809 155.414 6.0106 157.584 6.0106H157.594Z" fill="#C2C2C2"/>
<path d="M140.73 12.2754H143.308V14.6733C142.834 14.8534 141.905 15.0335 141.024 15.0335C138.171 15.0335 137.223 13.5834 137.223 10.6453C137.223 7.70713 138.123 6.19067 140.976 6.19067C142.559 6.19067 143.459 6.68352 144.208 7.64078L146.179 5.83052C144.976 4.11503 142.881 3.59375 140.91 3.59375C136.474 3.59375 134.152 6.01059 134.152 10.6263C134.152 15.242 136.256 17.7062 140.891 17.7062C143.014 17.7062 145.099 17.166 146.227 16.3699V9.72591H140.73V12.2849V12.2754Z" fill="#C2C2C2"/>
<path d="M127.216 3.79688H124.051V17.5018H133.775V14.8385H127.216V3.79688Z" fill="#C2C2C2"/>
<g clip-path="url(#clip0_1308_34356)">
<path d="M107.52 21.1658C113.332 21.1658 118.041 16.4522 118.041 10.644C118.041 4.83577 113.332 0.125 107.52 0.125C101.709 0.125 97 4.83269 97 10.644C97 16.4553 101.71 21.1658 107.52 21.1658Z" fill="#C2C2C2"/>
<path d="M107.105 6.02344V15.2461H110.036V14.4251H107.942V6.02344H107.105Z" fill="white"/>
<path d="M104.162 8.5427C104.859 8.5427 105.425 7.97745 105.425 7.28308C105.425 6.5887 104.859 6.01953 104.162 6.01953C103.464 6.01953 102.902 6.58506 102.902 7.28308C102.902 7.98109 103.469 8.5427 104.162 8.5427Z" fill="white"/>
<path d="M107.941 1.83959C107.834 1.83511 107.624 1.83203 107.523 1.83203C102.669 1.83203 98.7188 5.78344 98.7188 10.6396C98.7188 12.9922 99.6322 15.2013 101.293 16.864C102.961 18.5278 105.174 19.4429 107.523 19.4429C109.871 19.4429 112.084 18.5278 113.753 16.864C115.412 15.2013 116.326 12.9919 116.326 10.6396V10.2376L115.975 10.2404H110.042V11.0578H115.49V11.1763C115.21 15.3291 111.744 18.6214 107.523 18.6214C105.391 18.6214 103.388 17.7917 101.879 16.2845C100.371 14.777 99.5403 12.7715 99.5403 10.6399C99.5403 8.50829 100.371 6.50191 101.879 4.99551C103.387 3.48492 105.391 2.65553 107.523 2.65553C107.619 2.65553 107.845 2.65749 107.941 2.65974V1.83959Z" fill="white"/>
</g>
<path d="M23.3201 10.2052V8.83734H26.1718V3.25C26.893 3.25 27.5644 3.25 28.2359 3.25829C28.3188 3.25829 28.4348 3.39093 28.468 3.4904C28.5094 3.60646 28.4846 3.74739 28.4846 3.87174V18.6774H26.18V14.6485C24.2486 15.1625 22.3337 14.8309 20.4353 14.9221C20.0706 14.9386 19.7059 14.9221 19.3328 14.9221C18.4873 14.9221 18.0977 14.5324 18.0977 13.6703C18.0977 11.0259 18.0977 8.3814 18.0977 5.73695V4.45202H24.6714V5.49654H23.0051C22.3088 5.49654 21.6125 5.50483 20.9161 5.49654C20.5928 5.49654 20.4602 5.58773 20.4602 5.9359C20.4685 8.32337 20.4602 10.7108 20.4602 13.0983C20.4602 13.5542 20.6675 13.8444 21.1483 13.8444C22.4166 13.8444 23.6766 13.8195 24.9449 13.8029C25.0527 13.8029 25.1687 13.7864 25.2765 13.7615C26.18 13.604 26.1883 13.5957 26.1883 12.6838V10.2052H23.3284H23.3201Z" fill="#C2C2C2"/>
<path d="M13.8271 9.88763C12.2604 9.88763 10.7931 9.90421 9.32585 9.87934C8.89479 9.87934 8.69584 9.96224 8.72071 10.4513C8.77044 11.6202 8.57979 11.4378 9.70718 11.4461C11.3071 11.4544 12.8987 11.4461 14.4986 11.4461H15.1203V12.4989H0L0 11.4461H6.30842V9.88763H5.50432C4.49299 9.88763 3.48165 9.89592 2.47861 9.88763C1.69938 9.87105 1.29319 9.45656 1.2849 8.68561C1.26832 7.86492 1.2849 7.04422 1.2849 6.14063H1.98122C4.86602 6.14063 7.74253 6.12405 10.6273 6.15721C11.1662 6.15721 11.3568 5.99142 11.2905 5.46916C11.2573 5.20388 11.2905 4.93032 11.2905 4.61531H1.33463V3.5625H13.6365V7.25147H3.66402C3.66402 7.5499 3.66402 7.78202 3.66402 8.01413C3.6806 8.611 3.86297 8.79338 4.4764 8.79338C6.77263 8.79338 9.06887 8.79338 11.3651 8.79338H13.852V9.89592L13.8271 9.88763Z" fill="#C2C2C2"/>
<path d="M32.1757 3.27734H29.9375V18.6798H32.1757V3.27734Z" fill="#C2C2C2"/>
<path d="M84.8561 10.7475C84.2675 11.7754 84.2343 11.8003 83.2064 11.4604C81.3247 10.8387 79.6999 9.80244 78.3736 8.32685C78.2658 8.2025 78.1497 8.08644 78.042 7.97039C77.4866 8.54238 76.9726 9.13096 76.3923 9.64493C75.3893 10.5319 74.2287 11.1537 72.9438 11.5267C71.9988 11.8003 71.9159 11.7588 71.4766 10.8055C74.6183 9.47084 77.0058 7.58076 76.7322 3.66797H79.244C79.244 3.91666 79.2605 4.14878 79.244 4.38089C79.1113 5.93109 79.7828 7.14969 80.8107 8.22737C81.9381 9.40452 83.2644 10.2501 84.8643 10.7558" fill="#C2C2C2"/>
<path d="M7.45384 15.6259C5.98657 17.1098 4.23746 18.0714 2.27282 18.6517C1.26148 18.9501 1.23661 18.9253 0.722656 17.9388C1.29464 17.7149 1.89149 17.5326 2.43861 17.2673C4.08824 16.4549 5.43117 15.3523 6.06947 13.5452C6.11092 13.4291 6.2933 13.2965 6.40935 13.2882C7.12226 13.2633 7.84346 13.2633 8.55637 13.2882C8.66413 13.2882 8.82992 13.4125 8.86308 13.512C9.78323 15.9409 11.7147 17.1429 14.069 17.8476C14.1187 17.8642 14.1602 17.889 14.2099 17.9139C13.812 18.9004 13.6959 18.9667 12.7012 18.6683C10.8277 18.1046 9.12836 17.2341 7.71912 15.8497C7.64451 15.7751 7.55332 15.7088 7.45384 15.6342" fill="#C2C2C2"/>
<path d="M49.9814 3.27344H47.793V12.0275H49.9814V3.27344Z" fill="#C2C2C2"/>
<path d="M70.4215 15.6636C70.3884 15.5973 70.3635 15.5641 70.3635 15.531C70.3027 14.901 70.5873 14.5859 71.2173 14.5859C75.9176 14.5859 80.6178 14.5859 85.318 14.5859C85.5501 14.5859 85.7822 14.6025 86.0392 14.6191V15.6636H70.4298H70.4215Z" fill="#C2C2C2"/>
<path d="M59.5245 13.2217C58.5131 13.1968 57.5101 13.2134 56.4987 13.2217C56.2003 13.2217 55.9765 13.1388 55.9765 12.8072C55.9765 11.4311 55.9765 10.0633 55.9765 8.60427H58.7535C59.5604 8.60427 59.9638 9.00771 59.9638 9.81458C59.9638 10.7845 59.9555 11.7627 59.9638 12.7326C59.9638 13.0642 59.9058 13.2383 59.5162 13.23M67.3665 3.52261C67.3333 3.42313 67.2172 3.2822 67.1426 3.2822C66.4878 3.26562 65.8412 3.26563 65.1697 3.26563C65.1697 4.7495 65.1614 6.14219 65.178 7.54317C65.178 7.93279 65.0536 8.06543 64.6723 8.04056C64.291 8.01569 63.9014 8.04056 63.5118 8.04056C62.6165 8.04056 62.1689 7.59015 62.1689 6.68932V3.68012H59.9389V7.41882H55.9516V3.67183H53.7383V4.21066C53.7383 7.07065 53.7383 9.93893 53.7383 12.7989C53.7383 13.9015 54.1776 14.3325 55.2719 14.3325C57.3691 14.3325 59.4581 14.3325 61.5471 14.3325C61.7378 14.3325 61.9367 14.316 62.1854 14.2994V9.21772H65.178V18.6847H67.3996V18.1624C67.3996 13.4041 67.3996 8.65401 67.3996 3.89565C67.3996 3.76301 67.4245 3.63038 67.383 3.51432" fill="#C2C2C2"/>
<path d="M40.1796 10.0667C39.5082 10.0667 38.9196 10.0999 38.3393 10.0418C38.1652 10.0253 37.8834 9.75169 37.8751 9.5859C37.842 8.1186 37.8585 6.65959 37.8502 5.19229C37.8502 4.90215 37.9912 4.81096 38.2564 4.81925C38.7704 4.82754 39.2843 4.80267 39.79 4.83583C39.9227 4.84412 40.1548 5.04308 40.1548 5.15084C40.1796 6.75907 40.1713 8.36729 40.1713 10.0584M44.1089 3.27734V6.4855C43.711 6.4855 43.3629 6.46063 43.0147 6.4855C42.5753 6.52695 42.4344 6.36116 42.451 5.93009C42.4841 5.20058 42.451 4.47937 42.451 3.73328H35.6203C35.5955 3.80789 35.554 3.85763 35.554 3.90737C35.554 5.88864 35.5292 7.8699 35.554 9.85946C35.5706 10.7216 36.068 11.1527 36.9384 11.1693C37.9083 11.1858 38.8864 11.1693 39.8563 11.1693H42.4427V10.5226C42.4427 9.69366 42.4261 8.87297 42.4593 8.04399C42.4593 7.89477 42.6168 7.63779 42.7246 7.62121C43.1722 7.57147 43.6198 7.60463 44.1255 7.60463V8.2844C44.1255 9.38694 44.1172 10.4895 44.1421 11.592C44.1421 11.7413 44.3245 12.0148 44.4405 12.0231C45.054 12.0646 45.684 12.048 46.3471 12.048V3.27734H44.0923H44.1089Z" fill="#C2C2C2"/>
<path d="M47.6466 17.6963C47.4891 17.7129 47.3316 17.7378 47.1741 17.7378C45.2841 17.7378 43.4023 17.7378 41.5123 17.7378C40.7579 17.7378 40.6087 17.5886 40.6087 16.8425C40.6087 15.9306 40.6087 15.0187 40.6087 14.0903H47.6466V17.6963ZM49.7356 12.938C46.0633 12.938 42.391 12.938 38.7187 12.9297C38.3457 12.9297 38.3125 13.1286 38.3125 13.4188C38.3125 14.6871 38.3125 15.9555 38.3125 17.2155C38.3125 18.5087 38.6607 18.8486 39.9456 18.8569C43.1205 18.8569 46.2954 18.8569 49.4704 18.8569C49.6444 18.8569 49.8185 18.832 49.9926 18.8238V12.996C49.8683 12.9711 49.8019 12.938 49.7273 12.938" fill="#C2C2C2"/>
<defs>
<clipPath id="clip0_1308_34356">
<rect width="21.0408" height="21.0408" fill="white" transform="translate(97 0.125)"/>
</clipPath>
</defs>
</svg>
