<svg width="218" height="60" viewBox="0 0 218 60" fill="none" xmlns="http://www.w3.org/2000/svg">
<g clip-path="url(#clip0_1308_34355)">
<path d="M119.527 46.0547V54.7507C119.527 55.8867 120.416 56.8227 121.504 56.8227H130.294V46.0547H119.527ZM127.987 54.3667H121.903V48.5027H127.987V54.3667Z" fill="#203685"/>
<path d="M146.851 56.8227H138.2C137.111 56.8227 136.215 55.8947 136.215 54.7507V46.0547H146.851V48.4707H138.613V54.3347H146.851V56.8227Z" fill="#203685"/>
<path d="M135.061 46.0664H132.777V57.7624H135.061V46.0664Z" fill="#203685"/>
<path d="M151.518 46.0664H149.234V57.7624H151.518V46.0664Z" fill="#203685"/>
<path d="M158.616 45.8984C155.39 45.8984 152.77 48.3784 152.77 51.4344C152.77 54.4904 155.39 56.9704 158.616 56.9704C161.842 56.9704 164.463 54.4904 164.463 51.4344C164.463 48.3784 161.842 45.8984 158.616 45.8984ZM158.701 54.5304C156.831 54.5304 155.321 53.1464 155.321 51.4344C155.321 49.7224 156.831 48.3384 158.701 48.3384C160.57 48.3384 162.088 49.7224 162.088 51.4344C162.088 53.1464 160.57 54.5304 158.701 54.5304Z" fill="#203685"/>
<path d="M166.922 50.1704V46.0664H169.198V57.7624H166.922V52.6664V52.5864H163.742V50.1704H166.922Z" fill="#203685"/>
<path d="M76.7396 57.7349L72.1189 51.6629L76.5787 46.0469H73.4369L69.1916 51.6069V46.0469H66.8008V57.7349H69.1916V51.7269L73.3526 57.7349H76.7396Z" fill="#203685"/>
<path d="M93.6899 50.6305C94.3796 50.6305 97.3375 51.0945 97.3375 54.1585C97.3375 57.3985 94.3566 57.7505 94.3566 57.7505H87.391V55.8545H92.9926C94.6171 55.8545 94.6018 54.2385 94.6018 54.2385C94.6018 52.4625 92.6784 52.5345 92.6784 52.5345H90.5328C89.5442 52.5345 87.0078 52.1665 87.0078 49.4305C87.0078 46.1425 90.1573 46.0625 90.1573 46.0625H96.5329V47.9265H91.2991C89.6056 47.9265 89.6362 49.3025 89.6362 49.3025C89.6362 49.3025 89.6515 50.6385 91.1152 50.6385H93.6822L93.6899 50.6305Z" fill="#203685"/>
<path d="M83.6887 57.7349C85.3746 57.7349 86.9071 56.4469 86.9071 54.4709C86.9071 52.2149 85.3056 51.5109 85.3056 51.5109C85.3056 51.5109 86.5776 51.0549 86.455 49.0309C86.2864 46.0949 83.1063 46.0469 83.1063 46.0469H76.9453V57.7349C76.9453 57.7349 82.2711 57.7349 83.681 57.7349H83.6887ZM79.2135 47.9429H82.2941C82.2941 47.9429 83.9722 47.8629 83.9722 49.3189C83.9722 50.5669 82.9224 50.6549 82.5776 50.6789H79.2135V47.9509V47.9429ZM82.0258 55.8309H79.2135V52.5429H82.6772C82.6772 52.5429 84.432 52.6149 84.432 54.1669C84.432 55.7189 83.1217 55.8309 82.0258 55.8309Z" fill="#203685"/>
<path d="M114.589 49.801C114.405 49.145 114.137 48.497 113.777 47.873C112.773 46.113 111.279 44.897 109.731 44.385C109.731 44.385 109.731 44.385 109.715 44.385C109.685 44.377 109.646 44.361 109.616 44.353C109.616 44.353 109.608 44.353 109.6 44.353C108.926 44.145 105.815 43.329 104.144 45.257C104.144 45.257 104.114 45.297 104.098 45.313C101.914 46.121 100.275 47.913 99.8302 50.089C99.8302 50.089 99.7535 50.489 99.7535 50.497C99.6616 51.129 99.5849 52.201 99.7918 53.537C99.8378 53.753 99.8915 53.977 99.9451 54.193C100.129 54.849 100.397 55.497 100.757 56.121C101.761 57.881 103.248 59.097 104.803 59.609C104.803 59.609 104.803 59.609 104.819 59.609C104.849 59.617 104.888 59.633 104.918 59.641C104.918 59.641 104.926 59.641 104.934 59.641C105.608 59.849 108.719 60.665 110.39 58.737C110.39 58.737 110.42 58.705 110.436 58.681C112.489 57.921 114.06 56.297 114.612 54.297C114.719 53.937 114.896 53.161 114.888 52.169C114.911 51.401 114.811 50.593 114.581 49.793L114.589 49.801ZM103.516 46.353C103.784 46.249 104.052 46.145 104.336 46.057C106.704 45.297 109.095 45.369 110.957 46.121C112.604 46.785 113.846 47.977 114.305 49.585C114.336 49.673 114.351 49.769 114.374 49.857C114.374 49.881 114.382 49.905 114.39 49.929C114.39 49.969 114.374 50.009 114.344 50.009C114.321 50.009 114.298 49.993 114.282 49.969C114.282 49.945 114.267 49.929 114.259 49.905C113.915 48.913 113.271 48.097 112.428 47.481C110.413 46.017 107.225 45.681 104.075 46.809C103.83 46.897 103.585 46.993 103.347 47.097C103.378 46.841 103.432 46.585 103.516 46.345V46.353ZM99.8685 51.729C99.8685 51.729 99.8685 51.681 99.8685 51.657C99.8685 51.625 99.8915 51.609 99.9144 51.601C99.9374 51.601 99.9604 51.625 99.9681 51.649C99.9681 51.673 99.9681 51.689 99.9834 51.713C100.022 51.921 100.075 52.129 100.137 52.337C100.305 52.865 100.558 53.337 100.872 53.753C102.359 55.689 105.317 56.401 108.474 55.681C108.957 55.593 109.432 55.449 109.884 55.265C109.976 55.233 110.076 55.193 110.175 55.153C110.382 55.073 110.574 54.977 110.758 54.873C110.819 54.969 110.872 55.065 110.918 55.169C110.995 55.329 111.056 55.497 111.11 55.673C110.803 55.817 110.497 55.945 110.175 56.057C106.543 57.345 103.01 56.817 101.164 54.793C100.688 54.273 100.328 53.657 100.098 52.953C99.9681 52.553 99.8991 52.145 99.8761 51.737L99.8685 51.729ZM111.041 57.641C110.773 57.745 110.505 57.849 110.221 57.937C107.846 58.697 105.462 58.625 103.593 57.873C101.945 57.209 100.711 56.025 100.244 54.409C100.221 54.321 100.198 54.225 100.175 54.137C100.175 54.113 100.167 54.089 100.16 54.057C100.16 54.017 100.175 53.985 100.206 53.977C100.229 53.977 100.252 53.985 100.267 54.017C100.267 54.041 100.282 54.057 100.29 54.081C100.635 55.073 101.271 55.889 102.121 56.505C104.137 57.969 107.325 58.305 110.474 57.177C110.719 57.089 110.964 56.993 111.202 56.889C111.171 57.145 111.118 57.393 111.033 57.641H111.041ZM114.443 54.081C114.443 54.081 114.436 54.137 114.428 54.161C114.413 54.193 114.397 54.201 114.374 54.201C114.351 54.201 114.328 54.169 114.321 54.137C114.321 54.113 114.321 54.089 114.321 54.065C114.321 53.633 114.252 53.201 114.099 52.785C114.007 52.505 113.876 52.241 113.723 52.001C113.516 51.673 113.263 51.377 112.972 51.113C111.302 49.641 108.344 49.329 105.501 50.473C106.091 50.681 106.757 50.729 107.424 50.585C107.531 50.553 107.646 50.521 107.754 50.497C108.528 50.313 109.401 50.313 110.298 50.529C111.646 50.857 112.558 51.265 113.21 52.201C113.21 52.201 113.371 52.425 113.179 52.721C112.566 53.553 111.715 54.297 110.727 54.849C110.566 54.585 110.359 54.353 110.129 54.145C109.846 54.281 109.547 54.401 109.24 54.521C107.233 55.249 105.21 55.313 103.577 54.825C102.382 54.465 101.401 53.817 100.773 52.905C100.573 52.609 100.405 52.289 100.29 51.945C100.06 51.289 100.006 50.601 100.114 49.913C100.114 49.889 100.121 49.857 100.129 49.833C100.144 49.801 100.16 49.793 100.183 49.793C100.206 49.793 100.229 49.825 100.236 49.857C100.236 49.881 100.236 49.897 100.236 49.929C100.236 50.361 100.313 50.793 100.459 51.209C100.558 51.489 100.681 51.753 100.834 51.993C101.041 52.321 101.294 52.617 101.585 52.881C103.255 54.353 106.213 54.665 109.056 53.521C108.466 53.313 107.8 53.265 107.133 53.417C107.026 53.449 106.918 53.481 106.803 53.505C106.029 53.689 105.156 53.697 104.259 53.481C102.903 53.153 101.999 52.745 101.347 51.809C101.347 51.809 101.194 51.585 101.378 51.289C101.991 50.457 102.842 49.713 103.83 49.169C103.991 49.433 104.198 49.665 104.428 49.865C104.711 49.729 105.01 49.609 105.324 49.489C107.332 48.761 109.348 48.697 110.987 49.185C112.175 49.545 113.164 50.193 113.792 51.105C113.999 51.401 114.16 51.721 114.282 52.065C114.512 52.721 114.558 53.409 114.459 54.097L114.443 54.081ZM114.65 52.393C114.65 52.393 114.604 52.377 114.589 52.345C114.589 52.321 114.589 52.305 114.581 52.281C114.543 52.073 114.489 51.865 114.428 51.657C114.259 51.129 114.007 50.657 113.692 50.249C112.213 48.305 109.248 47.593 106.091 48.321C105.608 48.409 105.133 48.553 104.681 48.737C104.589 48.769 104.489 48.809 104.397 48.849C104.19 48.929 103.991 49.025 103.815 49.121C103.754 49.025 103.7 48.929 103.654 48.825C103.577 48.665 103.516 48.497 103.462 48.321C103.769 48.177 104.083 48.049 104.397 47.937C108.03 46.649 111.562 47.177 113.409 49.201C113.884 49.721 114.244 50.337 114.474 51.041C114.597 51.441 114.673 51.849 114.696 52.257C114.696 52.281 114.696 52.305 114.696 52.337C114.696 52.369 114.673 52.385 114.658 52.393H114.65Z" fill="#203685"/>
</g>
<g clip-path="url(#clip1_1308_34355)">
<path d="M122.419 24.0686C125.205 25.9269 129.573 26.5698 133.644 24.3548C131.134 28.5483 126.082 30.8545 121.026 29.7014C114.766 28.2787 110.859 22.1067 112.298 15.9222C113.691 9.94092 119.57 6.13317 125.612 7.17014C125.612 7.17014 127.983 7.57663 129.204 9.65057C129.662 10.3972 130.027 11.2682 130.266 12.2471V12.2679C130.555 13.5786 130.564 14.9723 130.236 16.3618C129.737 18.5146 128.508 20.5222 126.913 21.6048L126.905 21.6131C127.459 21.0448 127.87 20.3272 128.059 19.5059C128.621 17.0877 127.094 14.6778 124.651 14.122C122.205 13.5662 119.767 15.076 119.205 17.4901C119.041 18.1911 119.02 18.8838 119.155 19.535C119.155 19.535 119.583 22.2643 122.419 24.0645V24.0686Z" fill="#203685"/>
<path d="M121.43 22.4427C122.474 23.0234 123.729 23.2806 123.729 23.2806C126.578 23.9277 129.44 23.2225 131.613 21.6131L131.626 21.6007C132.595 20.9204 133.451 20.0577 134.139 19.0166C134.58 18.3488 134.924 17.6478 135.176 16.9302C135.495 19.8005 134.886 21.4182 134.886 21.4182C134.085 22.3639 133.246 22.9405 133.246 22.9405C131.081 24.5208 128.29 25.143 125.462 24.5001C125.462 24.5001 123.02 23.994 121.43 22.4427Z" fill="#203685"/>
<path d="M124.282 22.9459C128.738 23.2985 132.925 20.1046 133.958 16.0812C133.958 16.0812 134.268 14.8119 134.281 13.8745C134.281 13.8745 133.353 11.4729 130.827 9.46118C131.805 11.3651 132.141 13.6049 131.62 15.8448C130.827 19.246 128.272 21.7887 125.125 22.7468C124.861 22.8257 124.563 22.9003 124.277 22.9459H124.282Z" fill="#203685"/>
<path d="M154.476 11.7188V20.0104H152.559V11.7188H154.476Z" fill="#203685"/>
<path d="M218 11.7148V25.6227H216.078V11.7148H218Z" fill="#203685"/>
<path d="M168.022 11.7148V14.3695H165.219V15.9913H168.022V20.0106H169.943V11.7148H168.022Z" fill="#203685"/>
<path d="M165.125 19.2395L161.974 13.951H164.634V12.3292H161.731V11.2383H159.809V12.3292H156.918V13.951H159.561L156.41 19.2395H158.487L160.766 15.411L163.048 19.2395H165.125Z" fill="#203685"/>
<path d="M215.278 21.579L210.381 12.1758H210.364H208.249H208.233L203.336 21.579H205.463L209.307 14.1999L213.15 21.579H215.278Z" fill="#203685"/>
<path d="M189.371 20.4297V22.0515H200.197V25.5897H202.119L202.114 20.4338L189.371 20.4297Z" fill="#203685"/>
<path d="M144.168 20.7148H142.246V25.2775H154.566V23.6557H144.168V20.7148Z" fill="#203685"/>
<path d="M169.864 23.6557H159.277V20.7148H157.355V25.2775H169.864V23.6557Z" fill="#203685"/>
<path d="M197.191 11.8047V13.4307H200.2V16.0729H197.191V17.6947H200.2V19.6608H202.122V11.8047H197.191Z" fill="#203685"/>
<path d="M183.652 11.8088L183.657 19.582H185.578V13.4307H186.929V11.8047L183.652 11.8088Z" fill="#203685"/>
<path d="M172.277 13.5791H179.671V17.1836H176.587V14.8318H174.665V17.1836H171.938V18.8013L181.593 18.7971V11.9531L172.277 11.9573V13.5791Z" fill="#203685"/>
<path d="M145.101 11.7461C142.889 11.7461 141.098 13.5214 141.098 15.7073C141.098 17.8933 142.889 19.6685 145.101 19.6685C147.312 19.6685 149.108 17.8933 149.108 15.7073C149.108 13.5214 147.312 11.7461 145.101 11.7461ZM145.101 17.9181C143.867 17.9181 142.864 16.9268 142.864 15.7073C142.864 14.4878 143.867 13.4965 145.101 13.4965C146.334 13.4965 147.337 14.4878 147.337 15.7073C147.337 16.9268 146.334 17.9181 145.101 17.9181Z" fill="#203685"/>
<path d="M192.351 11.5469C190.139 11.5469 188.348 13.3222 188.348 15.5081C188.348 17.694 190.139 19.4693 192.351 19.4693C194.562 19.4693 196.354 17.6982 196.354 15.5081C196.354 13.318 194.562 11.5469 192.351 11.5469ZM192.351 17.7189C191.113 17.7189 190.114 16.7276 190.114 15.5081C190.114 14.2886 191.117 13.2973 192.351 13.2973C193.584 13.2973 194.587 14.2886 194.587 15.5081C194.587 16.7276 193.584 17.7189 192.351 17.7189Z" fill="#203685"/>
<path d="M182.276 17.8008C180.065 17.8008 178.273 19.5719 178.273 21.762C178.273 23.9521 180.065 25.7191 182.276 25.7191C184.488 25.7191 186.279 23.9479 186.279 21.762C186.279 19.5761 184.488 17.8008 182.276 17.8008ZM182.276 23.9728C181.043 23.9728 180.04 22.9815 180.04 21.762C180.04 20.5425 181.043 19.5512 182.276 19.5512C183.51 19.5512 184.517 20.5425 184.517 21.762C184.517 22.9815 183.514 23.9728 182.276 23.9728Z" fill="#203685"/>
</g>
<g clip-path="url(#clip2_1308_34355)">
<path d="M14.3306 3.63577C14.3799 3.71696 14.4456 3.78656 14.4511 3.86775C14.5223 4.10553 14.7305 4.25052 14.7579 4.4883C14.7688 4.5695 14.8675 4.6043 14.9168 4.63909C14.9716 4.71449 14.9332 4.80148 15.0428 4.91167C15.0921 4.94647 15.0537 5.03347 15.0647 5.11466C15.114 5.14946 15.1688 5.18425 15.2181 5.21905C15.6838 5.9904 15.7276 6.88353 15.1907 7.71287C15.103 7.80566 15.0209 7.93326 14.988 8.06085C14.9442 8.10724 14.851 8.15364 14.8072 8.20004C14.8182 8.28123 14.8675 8.31603 14.9222 8.39142C14.6867 8.45522 14.6593 8.664 14.484 8.80319C14.4347 8.80319 14.3415 8.81479 14.2922 8.82059C14.1607 8.95978 14.0238 9.01198 13.8868 9.10477C13.843 9.15117 13.8539 9.27296 13.8594 9.31355C13.6348 9.49914 13.3116 9.61513 12.9719 9.60353C12.9281 9.60353 12.8897 9.73692 12.8459 9.73692C12.6048 9.76012 12.3199 9.74852 12.0789 9.77172C11.9803 9.74272 11.9255 9.66733 11.8214 9.63253C11.7283 9.64413 11.6296 9.64993 11.531 9.62093C11.3776 9.51074 11.1804 9.49334 11.027 9.42375C10.9284 9.39475 10.7476 9.49334 10.6435 9.42375C10.3203 9.12797 10.0025 8.83219 9.82721 8.52481C9.71216 8.33343 9.50945 8.26963 9.44371 8.07244C9.43276 7.99125 9.4711 7.86366 9.37249 7.83466C9.17526 7.77087 9.25744 7.64328 9.24648 7.52148C9.18622 7.40549 9.17526 7.3243 9.07117 7.21411C9.01091 7.09812 9.08761 6.92413 9.02734 6.76754C9.02734 6.72694 9.06569 6.68055 9.06021 6.63995C8.98899 6.40217 9.10404 6.14698 9.08213 5.944C9.07117 5.82221 9.09857 5.65402 9.13691 5.53223C9.25744 5.27705 9.36701 4.97547 9.58068 4.70869C9.58068 4.66809 9.56972 4.5869 9.56424 4.5463C9.60807 4.4999 9.65737 4.4941 9.69572 4.44771C9.77242 4.23892 9.84912 4.06494 9.97513 3.89095C10.145 3.67056 10.4134 3.47918 10.6326 3.25299C10.764 3.1196 10.9448 3.01521 11.0654 2.80063C11.1092 2.75423 11.2626 2.82383 11.3064 2.77743C11.4379 2.64404 11.6296 2.66144 11.7666 2.56864C11.9036 2.47585 11.8762 2.67884 12.0131 2.62664C12.1063 2.61504 12.1501 2.57444 12.2432 2.52225C12.3802 2.47005 12.5391 2.57444 12.687 2.59764C12.8294 2.58604 12.9774 2.60924 13.1308 2.71943C13.339 2.86442 13.8156 2.81223 13.8923 3.09641C14.0073 3.28779 14.2155 3.43278 14.3306 3.62417V3.63577Z" fill="#203685"/>
<path d="M22.3938 6.83569C22.3938 6.7081 22.3938 6.6327 22.3444 6.49931C22.3335 6.37172 22.4266 6.23253 22.3828 6.05855C22.3554 6.01215 22.2951 5.95995 22.3006 5.91936C22.3828 5.65258 22.3883 5.40899 22.3664 5.12481C22.3444 5.03782 22.3171 4.99142 22.2897 4.94503C22.2951 4.90443 22.3116 4.82904 22.3225 4.74784C22.328 4.50426 22.2568 4.32447 22.1856 4.10409C22.1637 4.01709 22.1034 3.9649 22.0924 3.83731C22.065 3.79091 22.0048 3.73292 22.0103 3.69232C22.0705 3.33854 21.9116 3.06016 21.8623 2.72379C21.7856 2.34102 21.446 2.09743 21.3364 1.70886C21.3419 1.66827 21.4569 1.68566 21.4898 1.69146C21.7582 1.95824 22.0596 2.27142 22.1308 2.65419C22.1801 2.78758 22.1582 2.90358 22.213 2.99637C22.4431 3.29215 22.4814 3.66912 22.5252 4.04609C22.5198 4.08669 22.591 4.06349 22.6184 4.10989C22.6129 4.15048 22.5965 4.22588 22.6239 4.27228C22.7992 4.47526 22.6896 4.69565 22.7279 4.90443C22.7499 4.99142 22.7718 5.03782 22.7992 5.08422C22.7937 5.12481 22.706 5.22921 22.6951 5.264C22.8375 5.46119 22.8978 5.71637 22.8594 5.95415C23.0238 6.03535 22.9471 6.26153 22.9854 6.42972C23.0128 6.47612 23.0457 6.48191 23.0786 6.49351C23.1224 6.42392 23.1717 6.35432 23.1881 6.27313C23.2101 5.95415 23.221 5.66997 23.1662 5.3742C23.1224 5.24081 23.106 5.11321 23.1936 5.01462C23.1279 4.99722 23.106 4.91023 23.0786 4.86383C22.958 4.34767 22.9087 3.76771 22.7608 3.23995C22.7608 3.23995 22.7992 3.21095 22.8101 3.17036C22.7608 2.70639 22.4266 2.27142 22.2677 1.80746C22.2404 1.72626 22.1143 1.62187 22.0541 1.53488C22.0541 1.53488 22.0541 1.49428 22.065 1.45368C22.2349 1.47688 22.3664 1.65087 22.454 1.78426C22.6348 2.05104 22.8375 2.34682 22.8923 2.64839C22.9854 2.91517 23.1279 3.19355 23.1827 3.45454C23.221 3.62852 23.3361 3.73871 23.4182 3.8837C23.4621 4.01709 23.4402 4.13309 23.4511 4.26068C23.5004 4.56225 23.5826 4.84643 23.6374 5.14801C23.7031 5.3684 23.736 5.61778 23.6648 5.80336C23.5716 6.14554 23.7853 6.52251 23.873 6.82989C23.9223 6.96328 23.862 7.11407 23.8072 7.22426C23.8017 7.26486 23.862 7.31705 23.851 7.35765C23.7908 7.50844 23.8401 7.64183 23.8127 7.79842C23.7743 7.82742 23.862 7.93181 23.8127 8.0014C23.7743 8.0362 23.7415 8.0246 23.6976 8.0594C23.6429 8.16959 23.6922 8.30298 23.6703 8.41897C23.5607 8.63936 23.6155 8.93514 23.4128 9.09173C23.3361 9.11492 23.3306 9.15552 23.2922 9.18452C23.3251 9.19032 23.3525 9.23672 23.3799 9.28891C23.3415 9.31791 23.3032 9.31211 23.2648 9.34111C23.2539 9.4165 23.3963 9.51509 23.4237 9.56149C23.3689 9.87467 23.1498 10.1472 23.1553 10.5184C23.1388 10.5938 23.1224 10.7156 23.106 10.791C23.0402 10.9766 22.9087 11.11 22.843 11.3014C22.832 11.3768 22.6896 11.3884 22.6732 11.4638C22.5855 11.5623 22.591 11.7305 22.5307 11.8813C22.4814 11.9509 22.3828 11.9277 22.3006 11.9915C22.2075 12.1307 22.2184 12.2583 22.1582 12.4033C22.0541 12.5831 21.9336 12.7803 21.8349 12.96C21.7199 13.221 21.5281 13.4646 21.32 13.6618C21.2871 13.656 21.2104 13.6792 21.172 13.7082C21.0625 13.9286 20.9419 14.091 20.7118 14.2012C20.679 14.1954 20.6297 14.3635 20.5858 14.3925C20.427 14.5143 20.3393 14.6593 20.1476 14.7753C20.0763 14.7985 20.038 14.8275 19.9558 14.6883C19.7038 15.1581 19.3696 15.5235 19.008 15.8482C18.8163 15.9642 18.6245 15.9526 18.4985 16.086C18.0821 16.5152 17.4247 16.9734 17.3535 17.0371C17.3206 17.0313 17.1946 17.2285 17.1946 17.2285C17.0631 17.2401 17.1398 17.2517 17.0138 17.2285C17.0138 17.2285 17.0084 17.4489 16.8385 17.4837C16.4824 17.5591 16.3893 17.9941 16.3619 18.1739C16.3455 18.2667 16.2907 18.2029 16.2468 18.2377C16.2085 18.2725 16.2359 18.3305 16.1921 18.3652C16.0387 18.4638 15.9017 18.6668 15.7757 18.8234C15.7373 18.8582 15.7099 18.806 15.6661 18.8408C15.6278 18.8756 15.436 19.125 15.3703 19.3454C15.2059 19.7281 15.0306 20.0703 14.806 20.3371C14.7512 20.4009 14.932 20.6561 14.921 20.7431C14.8717 20.8649 14.7676 20.8823 14.7183 21.0041C14.6745 21.2998 14.6581 21.6362 14.6088 21.9552C14.5266 22.2626 14.6307 22.483 14.669 22.7613C14.7128 22.9933 14.6581 23.2949 14.669 23.5211C14.6855 23.7009 14.8005 23.9038 14.7841 24.0778C14.7895 24.3504 14.7293 24.3156 14.7841 24.5418C14.7786 24.6752 14.7348 24.8086 14.7622 24.8956C14.7512 25.0754 14.7238 25.1856 14.7183 25.3595C14.68 25.4001 14.6088 25.4871 14.6088 25.5277C14.5814 25.9743 14.3074 26.3629 14.0226 26.6586C13.8418 26.7804 13.6884 26.966 13.4857 26.9486C13.3816 26.9428 13.0419 27.169 12.9268 27.198C12.6255 27.285 12.3845 27.2908 12.0941 27.2444C11.7764 27.1516 11.5189 27.0704 11.2997 26.7224C11.1682 26.5659 10.9436 26.6238 10.8614 26.3861C10.834 26.2933 10.6533 26.2411 10.6204 26.1947C10.4505 26.0381 10.3629 25.8409 10.2369 25.6437C10.1547 25.4059 10.215 25.2435 10.1109 25.0174C10.0068 24.8782 9.96296 24.7796 9.85887 24.6346C9.7219 24.449 9.89174 24.1822 9.78764 23.9966C9.71642 23.9444 9.6452 23.8517 9.61233 23.7589C9.54659 23.5791 9.56302 23.3123 9.45893 23.1209C9.40415 22.8889 9.43702 22.048 9.48085 21.8218C9.48632 21.7754 9.3658 21.7116 9.37128 21.6652C9.38771 21.3404 9.49728 21.0215 9.46989 20.6851C9.50276 20.5053 9.48633 20.3603 9.63972 20.2037C9.63972 20.2037 9.5685 20.1399 9.57398 20.0935C9.66164 19.8325 9.66164 19.6296 9.71094 19.357C9.71642 19.3106 9.80956 19.2816 9.81504 19.241C9.76573 19.0438 9.76025 18.6378 9.79312 18.458C9.80956 18.3652 10.0287 18.2319 10.0835 18.1507C10.089 18.1043 10.0506 17.9883 10.1328 17.8317C10.1547 17.7911 10.2095 17.8027 10.2533 17.7679C10.2588 17.7215 10.2314 17.6693 10.2424 17.6229C10.2643 17.4895 10.4779 17.3909 10.4944 17.2981C10.582 16.9907 10.7245 16.8632 10.8779 16.6138C10.9327 16.5036 10.9546 16.3876 11.0422 16.2832C11.0806 16.2542 11.1025 16.2832 11.108 16.2426C11.1134 16.202 11.097 16.115 11.1025 16.0802C11.1901 15.9758 11.3052 15.883 11.3271 15.767C11.3874 15.6163 11.4367 15.5119 11.5243 15.4075C11.6832 15.2799 11.8421 15.1581 11.9407 14.9783C12.0284 14.8739 12.127 14.8971 12.2092 14.7985C12.3352 14.6651 12.368 14.4679 12.4612 14.3287C12.6803 14.0562 12.9159 13.8648 13.1515 13.6792C13.3487 13.5226 13.6007 13.4588 13.7925 13.3428C13.9897 13.1862 14.1102 12.8904 14.302 12.7745C14.417 12.6817 14.5594 12.6701 14.68 12.5773C14.8005 12.4845 14.8991 12.3047 15.0744 12.2641C15.4689 12.1539 15.184 12.2699 15.5565 12.1133C15.7866 11.9625 15.6935 11.9219 15.9236 11.7769C16.3071 11.5391 16.5043 11.3942 16.5372 11.4C16.5755 11.371 16.6139 11.3362 16.6303 11.2608C16.7235 11.1216 17.2111 10.7562 17.2823 10.733C17.3535 10.7098 17.4412 10.8084 17.5233 10.7098C17.5672 10.6402 17.4795 10.5764 17.5233 10.5068C17.6493 10.3734 17.7699 10.1936 17.8904 10.1009C17.9287 10.0719 18.0274 10.1298 18.0986 10.1067C18.1369 10.0777 18.1534 9.99646 18.1917 9.96746C18.241 9.89787 18.1534 9.79347 18.1972 9.72388C18.252 9.61369 18.3068 9.5035 18.378 9.4803C18.493 9.4281 18.6464 9.34111 18.63 9.25411C18.6574 9.09752 18.7177 8.94674 18.8711 8.85974C18.8765 8.81915 18.8875 8.77855 18.893 8.74375C18.9806 8.63936 19.0628 8.58136 19.1505 8.47697C19.2436 8.33778 19.2052 8.16379 19.26 8.0536C19.4353 7.85062 19.6052 7.68823 19.649 7.40985C19.6381 7.28226 19.5614 7.10247 19.6161 6.99228C19.66 6.92268 19.8079 6.87629 19.8243 6.80089C19.8517 6.6443 19.775 6.46452 19.7695 6.30213C19.7915 6.18614 19.912 6.08754 19.8955 5.96575C19.8846 5.63518 19.901 5.3162 19.8572 4.97982C19.9613 4.96243 19.9777 4.88703 19.9887 4.80584C19.9613 4.55646 19.8243 4.32447 19.7641 4.06349C19.7586 3.9011 19.8846 3.76771 19.8791 3.60532C19.8627 3.47773 19.7531 3.33274 19.6271 3.22255C19.512 3.07176 19.5887 2.84558 19.5449 2.67739C19.512 2.46861 19.3641 2.30622 19.3367 2.05684C19.3258 1.92925 19.1833 1.94085 19.134 1.80746C19.0957 1.63347 19.0518 1.46528 19.0518 1.2565C19.0299 1.1695 18.9258 1.1869 18.8656 1.1347C18.7286 0.896922 18.7779 0.421356 18.4821 0.311164C18.5095 0.154576 18.3725 0.119778 18.3287 -0.0078125C18.504 -0.0078125 18.6684 0.067582 18.767 0.299565C18.7944 0.345962 18.893 0.36916 18.9258 0.380759C19.0135 0.479352 19.008 0.722934 19.1012 0.78673C19.2217 0.896922 19.4025 0.856325 19.4518 0.989715C19.5175 1.2101 19.6764 1.32609 19.7476 1.50588C19.7421 1.54647 19.7586 1.63347 19.786 1.67986C19.9065 1.79006 19.9229 1.91185 20.0051 2.01624C20.2078 2.26562 20.4105 2.5208 20.3174 2.86298C20.2571 3.01377 20.4379 2.97317 20.4927 3.06596C20.6297 3.30375 20.5749 3.61692 20.7502 3.81991C20.7173 4.22008 20.8981 4.58545 21.0132 4.93923C20.8159 5.2582 20.9255 5.82076 21.0789 6.14554C21.0789 6.14554 21.1885 6.12814 21.194 6.09334C21.2268 5.90196 21.561 5.83236 21.5062 5.73957C21.4405 5.51919 21.3364 5.06102 21.3364 4.85803C21.3583 4.53326 21.3693 4.25488 21.32 3.9185C21.2926 3.87211 21.2652 3.82571 21.2378 3.77931C21.1994 3.60532 21.1556 3.43134 21.1885 3.23995C21.1666 3.15296 21.1063 3.10076 21.0844 3.01377C21.0899 2.97317 21.1063 2.89778 21.1118 2.85718C21.1885 2.83398 21.2816 2.89778 21.3474 2.91517C21.4076 2.96737 21.3528 3.07756 21.3802 3.12396C21.4898 3.30955 21.6487 3.39074 21.6815 3.59952C21.6761 3.64012 21.6596 3.71552 21.6542 3.75611C21.6815 4.0055 21.824 4.20268 21.8569 4.41147C21.8733 4.53326 21.7692 4.71304 21.8185 4.85223C21.9719 5.17121 21.9774 5.54238 21.9555 5.90196C21.9281 6.05855 22.1143 6.18614 22.065 6.29053C22.0103 6.40072 22.0815 6.41812 22.0267 6.52831C22.0212 6.56891 21.9445 6.59211 21.939 6.6327C22.0376 6.85889 21.8897 7.20106 21.8514 7.39825C21.8459 7.43885 21.9664 7.47944 21.9938 7.33445C22.0103 7.24746 22.1472 7.24746 22.2239 7.22426C22.3061 7.16047 22.3664 7.00968 22.3609 6.84729L22.3938 6.83569ZM23.1224 7.61863C23.1279 7.42145 23.2155 7.27646 23.1827 7.06187C23.1169 6.84149 22.9635 7.06187 22.854 7.07347C22.9142 7.33445 22.8156 7.50844 22.7389 7.74042C22.6951 7.81002 22.6567 8.0072 22.7663 7.98981C22.9361 8.0304 23.1169 7.85641 23.1224 7.61863ZM22.832 8.69155C22.8759 8.62776 22.854 8.50017 22.7937 8.44797C22.7006 8.38418 22.58 8.48277 22.5252 8.58716C22.4705 8.69735 22.5143 8.87134 22.6567 8.85974C22.6896 8.86554 22.7882 8.76115 22.8375 8.69155H22.832Z" fill="#203685"/>
<path d="M20.8502 2.00733C21.031 2.15232 21.1022 2.3901 21.2447 2.58729L21.2282 2.66848C20.9817 2.89466 20.7626 2.51769 20.6968 2.29731C20.5982 2.07112 20.4941 1.84494 20.3133 1.67675C20.3188 1.63616 20.3298 1.60136 20.3352 1.56076C20.2476 1.45637 20.1325 1.31138 20.2476 1.25338C20.2969 1.18379 20.3791 1.32298 20.4722 1.38677C20.6147 1.58396 20.642 1.83334 20.8557 2.00733H20.8502Z" fill="#203685"/>
<path d="M21.8751 1.00782C21.8751 1.04842 21.8148 1.11801 21.8093 1.15281C21.6943 1.03682 21.5738 0.920826 21.4751 0.72944C21.4423 0.717841 21.3765 0.700442 21.3491 0.654046C21.3163 0.642446 21.3217 0.607649 21.3327 0.567052C21.4423 0.555453 21.5245 0.659845 21.6176 0.72944C21.6505 0.741039 21.6943 0.712041 21.7272 0.717841C21.8203 0.781636 21.8696 0.880229 21.8806 1.00782H21.8751Z" fill="#203685"/>
<path d="M6.65271 8.21514C6.68558 8.24414 6.73489 8.29054 6.7568 8.32533C6.81159 8.36593 6.86637 8.36593 6.92664 8.34273C6.98142 8.34273 7.03073 8.49932 7.09099 8.50512C7.17317 8.54572 7.22248 8.69651 7.30466 8.7719C7.35944 8.8067 7.41423 8.86469 7.46901 8.89949C7.54571 9.00388 7.59502 9.10828 7.6772 9.17787C7.7265 9.24747 7.81416 9.22427 7.87442 9.22427C7.984 9.26487 8.02782 9.43305 8.10452 9.53745C8.13192 9.53745 8.18122 9.64184 8.18122 9.67664C8.23601 9.71143 8.28531 9.78103 8.36749 9.82163C8.38941 9.85642 8.38941 9.92022 8.41132 9.95502C8.61403 10.303 8.88248 10.5234 9.05231 10.8945C9.05231 10.8945 9.07422 10.9641 9.07422 10.9931C9.28241 11.2077 9.37554 11.5151 9.55633 11.7587C9.60564 11.8631 9.64947 12.0313 9.69878 12.1647C9.75356 12.2342 9.80287 12.2748 9.85765 12.3444C9.93435 12.4836 10.0056 12.6518 10.022 12.82C10.022 12.8838 9.97818 13.081 9.86861 12.9708C9.73713 12.8258 9.74808 12.6344 9.6166 12.5242C9.6166 12.4894 9.58373 12.4082 9.55633 12.3734C9.50155 12.3038 9.40841 12.3096 9.3865 12.2111C9.39198 12.1125 9.28789 12.0313 9.23858 11.9675C9.10709 11.7645 8.90987 11.6891 8.75099 11.4861C8.7236 11.4861 8.69073 11.4861 8.66333 11.5151C8.63594 11.5789 8.54828 11.6717 8.62498 11.7761C8.73455 11.8457 8.78934 11.9791 8.9263 12.0545C9.00848 12.1241 9.0304 12.3212 9.0797 12.4894C9.13449 12.559 9.18927 12.6228 9.27145 12.6634C9.35363 12.733 9.32076 12.8374 9.39746 12.9418C9.39746 12.9766 9.36459 13.0056 9.36459 13.0346C9.41389 13.139 9.52894 13.1158 9.60564 13.2202C9.66591 13.1622 9.74808 13.2086 9.79739 13.3014C9.70426 13.3942 9.73165 13.458 9.6933 13.5566C9.60016 13.7131 9.81383 13.8639 9.95079 13.9393C10.0384 13.9451 10.022 14.1075 10.1042 14.1829C10.1535 14.2873 10.2959 14.2989 10.3672 14.4381C10.3891 14.5077 10.3343 14.5309 10.3014 14.5947C10.2959 14.6933 10.4055 14.7339 10.4603 14.7745C10.5151 14.8151 10.537 14.8789 10.5589 14.9485C10.4713 14.9717 10.3069 14.8499 10.2192 14.8441C10.1645 14.8209 10.0658 14.6933 9.95627 14.6643C9.91792 14.6527 9.89053 14.7513 9.85218 14.7397C9.80287 14.7281 9.74808 14.7165 9.6933 14.7049C9.63303 14.6933 9.49059 14.5251 9.43033 14.5193C9.35911 14.5077 9.27145 14.6411 9.20571 14.6295C8.9537 14.5831 8.94274 14.5657 8.86056 14.5309C8.76743 14.4903 8.67429 14.4439 8.59211 14.3917C8.53733 14.3627 8.55376 14.2815 8.49898 14.2467C8.44967 14.2119 8.33462 14.2119 8.28531 14.1771C8.08261 14.0437 7.89086 13.7479 7.71555 13.6493C7.6005 13.5856 7.50736 13.5218 7.37588 13.458C7.31561 13.4174 7.26631 13.3246 7.18961 13.2956C6.94855 13.2086 6.7568 13.052 6.48836 12.9708C5.97337 12.8142 5.54605 13.1274 5.1242 13.3594C5.10229 13.3594 5.05846 13.3594 5.03654 13.371C4.93793 13.458 4.82836 13.5044 4.72975 13.574C4.59826 13.6841 4.41747 13.7131 4.27503 13.8001C4.2312 13.8291 4.22572 13.9161 4.18189 13.9451C4.11615 13.9857 3.99014 13.9973 3.9244 14.0379C3.86414 14.0785 3.85866 14.1539 3.79839 14.2061C3.67787 14.3105 3.56282 14.3917 3.39846 14.4729C3.30533 14.5251 2.53285 14.6643 2.40685 14.6643C2.20962 14.6643 2.06718 14.8383 1.77134 14.8383C1.3221 14.8383 0.867379 14.8267 0.494838 14.5309C0.418139 14.4613 0.401703 14.2583 0.346918 14.2235C0.182562 14.1133 0.198998 13.8813 0.155169 13.7131C0.100384 13.6783 -0.00918677 13.6667 -0.00370823 13.5682C0.0565556 13.081 0.286654 12.6402 0.566059 12.3038C0.631802 12.1763 0.774244 12.1241 0.790679 11.9617C0.790679 11.9617 1.04269 11.5905 1.19609 11.4397C1.22896 11.3759 1.17966 11.2715 1.21253 11.2135C1.44262 10.738 1.85899 10.4132 2.20414 9.98401C2.29728 9.89122 2.35754 9.76943 2.50546 9.74623C2.56572 9.74623 2.62051 9.75783 2.65338 9.69403C2.71912 9.53745 2.83965 9.45045 2.92731 9.38666C3.25602 9.14887 3.52995 8.7951 3.90249 8.7313C3.96275 8.70231 3.99562 8.63851 4.05041 8.60951C4.11067 8.55152 4.22024 8.62111 4.28051 8.59791C4.55991 8.46452 4.81192 8.18034 5.09681 8.13975C5.15707 8.11075 5.18994 8.04695 5.21734 8.05275C5.46935 8.07595 5.77067 7.83817 6.00624 8.08755C6.21991 8.04115 6.54314 8.08755 6.67463 8.20934L6.65271 8.21514ZM8.59211 11.0859C8.59211 11.0511 8.59211 11.0221 8.59211 10.9873C8.48254 10.9177 8.43324 10.7148 8.29079 10.6742C8.2634 10.6742 8.20314 10.7032 8.20314 10.738C8.19766 10.9351 8.27436 11.0685 8.35106 11.2367C8.38393 11.1091 8.46611 11.1149 8.52089 11.2135C8.54828 11.1845 8.58116 11.1207 8.58116 11.0859H8.59211Z" fill="#203685"/>
<path d="M35.6243 20.2532L34.3478 21.6625L30.7977 17.9971C30.332 18.8729 29.7732 19.6152 29.1268 20.23C28.4803 20.8389 27.8338 21.3377 27.1928 21.7205L25.9492 20.2184C26.6505 19.8472 27.2476 19.418 27.7407 18.9251C28.2338 18.4321 28.6392 17.9101 28.9569 17.3708C29.2692 16.8256 29.4993 16.2746 29.6472 15.7063C29.7897 15.1379 29.8664 14.5812 29.8664 14.0418V11.4494H31.8277V13.6706C31.8277 14.1056 31.8003 14.5174 31.751 14.9117C31.6962 15.3061 31.6305 15.6889 31.5483 16.0601L35.6243 20.2648V20.2532ZM39.6839 26.6211H37.8267V16.6922H33.9588V14.8016H37.8267V9.76172H39.6839V26.6153V26.6211Z" fill="#203685"/>
<path d="M56.4713 19.2544H49.8423V20.1824H53.1294V24.5321H46.7798V25.3672H53.5513V27.2579H44.8568V22.74H51.19V21.9976H44.7692V20.1824H47.9686V19.2544H41.4766V17.4044H56.4713V19.2544ZM52.9705 13.2925C52.9705 13.826 52.861 14.3074 52.6473 14.7482C52.4336 15.1889 52.1433 15.5659 51.7817 15.8849C51.4091 16.1923 50.9654 16.4358 50.4614 16.6098C49.9519 16.7838 49.404 16.8708 48.8068 16.8708C48.248 16.8708 47.7221 16.7896 47.2235 16.6272C46.725 16.4648 46.2867 16.2329 45.9032 15.9255C45.5307 15.6181 45.2348 15.2411 45.0212 14.8062C44.8075 14.3654 44.6979 13.8724 44.6979 13.3157C44.6979 12.7589 44.802 12.2543 45.0102 11.8078C45.2184 11.3554 45.5142 10.9726 45.8868 10.6479C46.2484 10.3289 46.6812 10.0795 47.1797 9.90551C47.6783 9.73153 48.2206 9.64453 48.8068 9.64453C49.393 9.64453 49.919 9.73153 50.423 9.90551C50.9325 10.0795 51.3708 10.3231 51.7433 10.6479C52.1159 10.9552 52.4117 11.338 52.6363 11.7846C52.8555 12.2369 52.9705 12.7415 52.9705 13.2925ZM51.0476 13.2751C51.0476 12.6951 50.8284 12.2369 50.3847 11.9064C49.9409 11.57 49.415 11.4076 48.8123 11.4076C48.2097 11.4076 47.6564 11.57 47.229 11.9006C46.8017 12.2253 46.5935 12.6893 46.5935 13.2809C46.5935 13.8724 46.8072 14.2958 47.229 14.6148C47.6564 14.9337 48.1823 15.0961 48.8123 15.0961C49.4424 15.0961 49.9409 14.9511 50.3847 14.6554C50.8284 14.3596 51.0476 13.9014 51.0476 13.2867V13.2751Z" fill="#203685"/>
<path d="M72.2189 20.4737H57.2461V18.6063H72.2189V20.4737ZM68.9647 27.265H67.091V23.4025H60.3908V21.5118H68.9647V27.265ZM68.9318 17.6435H60.462V10.3477H68.8222V12.2151H62.3137V13.0097H68.6141V14.9003H62.3137V15.7703H68.9263V17.6377L68.9318 17.6435Z" fill="#203685"/>
<path d="M80.6221 18.374H73.5V10.6721H75.3517V12.8934H78.7484V10.6721H80.6221V18.374ZM78.7484 16.5007V14.7608H75.3517V16.5007H78.7484ZM85.887 27.2415H77.2966V22.5903H83.5422V21.6275H77.209V19.7543H85.4651V24.4055H79.2579V25.3683H85.887V27.2357V27.2415ZM86.0294 19.2207H84.1941V17.4228H81.1864V15.567H84.1941V14.2331H81.1864V12.3598H84.1941V9.75H86.0294V19.2149V19.2207Z" fill="#203685"/>
<path d="M97.4368 20.3113L96.1603 21.7206L92.6267 18.0378C92.1719 18.9252 91.6186 19.6791 90.9721 20.2881C90.3257 20.897 89.6683 21.3958 89.0053 21.7786L87.7617 20.2765C88.4739 19.8705 89.0766 19.4181 89.5751 18.9252C90.0682 18.4322 90.4736 17.916 90.7913 17.3883C91.0927 16.8431 91.3173 16.298 91.4652 15.7412C91.6131 15.1844 91.6844 14.6335 91.6844 14.0941V11.4437H93.6457V13.7229C93.6457 14.1579 93.6183 14.5639 93.569 14.9525C93.5142 15.341 93.4484 15.7122 93.3663 16.0718L97.4423 20.3113H97.4368ZM101.266 26.627H99.3926V9.77344H101.266V26.627Z" fill="#203685"/>
</g>
<defs>
<clipPath id="clip0_1308_34355">
<rect width="102.4" height="16" fill="white" transform="translate(66.7969 44)"/>
</clipPath>
<clipPath id="clip1_1308_34355">
<rect width="106" height="23" fill="white" transform="translate(112 7)"/>
</clipPath>
<clipPath id="clip2_1308_34355">
<rect width="101.271" height="27.2928" fill="white"/>
</clipPath>
</defs>
</svg>
