<svg width="732" height="309" viewBox="0 0 732 309" fill="none" xmlns="http://www.w3.org/2000/svg">
<circle cx="173" cy="191" r="8" fill="#D2FF52"/>
<path d="M125.759 123.963H141.804V125.221C140.335 125.641 139.322 126.584 138.762 128.052C138.203 129.451 137.889 131.897 137.819 135.393L138.028 156.68H136.56C136.49 156.54 136.386 156.331 136.246 156.051C136.176 155.702 136.001 155.177 135.721 154.478C135.442 153.709 135.127 153.045 134.778 152.486C134.428 151.926 133.974 151.402 133.414 150.913C132.855 150.423 132.296 150.179 131.737 150.179C130.968 150.179 129.919 150.563 128.591 151.332C127.332 152.101 125.969 152.975 124.501 153.954C123.033 154.933 120.901 155.806 118.104 156.575C115.308 157.344 112.267 157.729 108.981 157.729C102.27 157.729 96.048 156.366 90.3154 153.639C84.6528 150.913 80.0387 146.858 76.4734 141.475C72.9779 136.092 71.2302 129.94 71.2302 123.019C71.2302 117.916 72.2439 113.092 74.2712 108.548C76.2986 104.004 78.8852 100.194 82.0312 97.1176C85.247 93.9717 88.7774 91.455 92.6224 89.5674C96.5373 87.61 100.417 86.4914 104.262 86.2118C116.636 85.303 125.27 87.8896 130.164 93.9717C131.632 95.9991 131.911 97.8167 131.003 99.4246C130.164 101.033 128.835 101.837 127.018 101.837C125.899 101.837 124.816 101.382 123.767 100.473C122.788 99.4946 121.81 98.3411 120.831 97.0128C119.922 95.6146 118.908 94.2514 117.79 92.9231C116.671 91.5948 115.203 90.4763 113.385 89.5674C111.638 88.5887 109.68 88.0994 107.513 88.0994C99.3337 88.0994 92.6224 90.7909 87.3792 96.1739C82.136 101.487 79.5144 109.037 79.5144 118.824C79.5144 123.508 80.2135 128.018 81.6117 132.352C83.0798 136.686 85.1072 140.566 87.6938 143.992C90.2804 147.417 93.6011 150.179 97.6559 152.276C101.781 154.303 106.36 155.317 111.393 155.317C113.91 155.317 116.357 154.933 118.733 154.164C121.18 153.325 123.138 152.346 124.606 151.227C126.144 150.109 127.332 149.13 128.171 148.291C129.08 147.382 129.639 146.718 129.849 146.299L129.744 136.546C129.744 132.492 129.465 129.695 128.905 128.157C128.346 126.619 127.297 125.641 125.759 125.221V123.963ZM172.008 105.192C175.293 105.192 178.439 105.716 181.445 106.765C184.451 107.744 187.248 109.212 189.834 111.169C192.421 113.127 194.483 115.818 196.021 119.244C197.559 122.6 198.328 126.41 198.328 130.674C198.328 134.799 197.524 138.609 195.917 142.104C194.309 145.53 192.211 148.326 189.625 150.493C187.038 152.591 184.207 154.233 181.131 155.422C178.125 156.61 175.084 157.205 172.008 157.205C168.722 157.205 165.541 156.68 162.465 155.632C159.459 154.583 156.663 153.08 154.076 151.123C151.559 149.095 149.532 146.404 147.994 143.048C146.456 139.692 145.687 135.917 145.687 131.723C145.687 124.103 148.308 117.776 153.552 112.742C158.795 107.709 164.947 105.192 172.008 105.192ZM175.049 155.002C180.152 155.002 184.032 153.255 186.689 149.759C189.345 146.264 190.673 141.894 190.673 136.651C190.673 132.177 189.73 127.668 187.842 123.124C186.024 118.51 183.333 114.63 179.768 111.484C176.272 108.338 172.462 106.87 168.337 107.08C163.444 107.289 159.739 109.177 157.222 112.742C154.705 116.238 153.447 120.642 153.447 125.955C153.447 130.359 154.286 134.764 155.963 139.168C157.641 143.572 160.193 147.312 163.618 150.388C167.044 153.464 170.854 155.002 175.049 155.002ZM234.157 105.821H246.007V107.185C242.721 107.185 239.96 110.121 237.723 115.993C237.094 117.601 235.521 121.761 233.004 128.472C230.557 135.113 228.25 141.405 226.083 147.347L222.832 156.156H219.162L204.796 117.776C204.726 117.566 204.551 117.147 204.271 116.517C204.062 115.818 203.887 115.294 203.747 114.944C203.607 114.525 203.397 114.001 203.118 113.372C202.838 112.742 202.558 112.218 202.279 111.799C202.069 111.379 201.789 110.925 201.44 110.435C201.16 109.876 200.846 109.457 200.496 109.177C200.216 108.827 199.902 108.478 199.552 108.128C199.203 107.779 198.818 107.534 198.399 107.394C197.979 107.254 197.56 107.185 197.14 107.185V105.821H214.233V107.185C211.017 107.185 210.423 110.226 212.451 116.308C213.499 119.314 215.002 123.473 216.96 128.787C218.917 134.1 220.63 138.679 222.098 142.524L224.195 148.186C230.697 130.08 234.682 119.244 236.15 115.679C237.338 112.603 237.723 110.435 237.303 109.177C236.884 107.849 235.87 107.185 234.262 107.185L234.157 105.821ZM290.251 142.104L291.195 142.943C284.274 152.451 276.339 157.205 267.391 157.205C264.595 157.205 261.798 156.68 259.002 155.632C256.275 154.583 253.724 153.08 251.347 151.123C249.04 149.165 247.152 146.578 245.684 143.363C244.286 140.077 243.587 136.442 243.587 132.457C243.587 124.487 246.174 117.951 251.347 112.847C256.59 107.744 262.812 105.192 270.013 105.192C276.165 105.192 281.058 106.905 284.694 110.33C288.329 113.756 290.216 117.951 290.356 122.914H251.032C250.823 124.452 250.718 126.025 250.718 127.633C250.718 134.554 252.675 140.147 256.59 144.411C260.575 148.676 265.818 150.808 272.32 150.808C279.101 150.808 285.078 147.907 290.251 142.104ZM266.762 106.975C262.637 106.905 259.247 108.233 256.59 110.96C253.934 113.686 252.186 117.251 251.347 121.656H282.282C281.722 117.881 280.045 114.49 277.248 111.484C274.522 108.478 271.026 106.975 266.762 106.975ZM322.464 105.821C323.932 106.171 324.841 106.905 325.191 108.023C325.61 109.072 325.505 110.051 324.876 110.96C324.317 111.868 323.513 112.323 322.464 112.323C321.835 112.323 320.961 112.183 319.843 111.903C318.794 111.554 317.885 111.344 317.116 111.274C316.347 111.134 315.159 111.239 313.551 111.589C310.615 112.358 308.412 114.805 306.944 118.929V143.258C306.944 147.312 307.224 150.144 307.783 151.752C308.412 153.29 309.496 154.303 311.034 154.793V156.051H295.095V154.793C296.703 154.303 297.751 153.29 298.241 151.752C298.8 150.214 299.08 147.382 299.08 143.258V120.188C299.08 116.832 298.765 114.595 298.136 113.476C297.577 112.288 296.563 111.554 295.095 111.274V109.806L305.686 105.821H306.944V115.364C308.482 112.288 310.754 109.771 313.761 107.814C316.767 105.786 319.668 105.122 322.464 105.821ZM372.734 143.363C372.734 147.487 373.014 150.319 373.573 151.857C374.132 153.395 375.181 154.408 376.719 154.898V156.156H360.885V154.898C362.423 154.408 363.471 153.395 364.03 151.857C364.59 150.319 364.869 147.487 364.869 143.363V122.914C364.869 117.951 363.751 114.315 361.514 112.008C359.347 109.631 356.375 108.443 352.6 108.443C350.573 108.443 348.511 109.072 346.413 110.33C344.386 111.519 342.848 112.742 341.799 114.001L340.226 115.783V143.363C340.226 147.417 340.506 150.249 341.065 151.857C341.694 153.395 342.778 154.408 344.316 154.898V156.156H328.377V154.898C329.985 154.408 331.033 153.395 331.523 151.857C332.082 150.319 332.362 147.487 332.362 143.363V120.293C332.362 116.937 332.047 114.665 331.418 113.476C330.859 112.288 329.845 111.589 328.377 111.379V109.911L338.968 105.821H340.226V113.476C340.366 113.267 340.576 112.987 340.856 112.637C341.205 112.218 341.869 111.554 342.848 110.645C343.897 109.666 344.98 108.827 346.099 108.128C347.287 107.359 348.825 106.695 350.713 106.136C352.67 105.507 354.698 105.192 356.795 105.192C361.828 105.192 365.743 106.66 368.54 109.596C371.336 112.533 372.734 116.902 372.734 122.704V143.363ZM452.843 143.363C452.843 147.487 453.122 150.319 453.682 151.857C454.241 153.395 455.29 154.408 456.828 154.898V156.156H440.888V154.898C442.496 154.408 443.58 153.395 444.139 151.857C444.698 150.319 444.978 147.487 444.978 143.363V122.914C444.978 117.881 444.034 114.21 442.147 111.903C440.259 109.596 437.463 108.443 433.758 108.443C432.08 108.443 430.367 108.967 428.619 110.016C426.871 111.065 425.578 112.078 424.739 113.057C423.9 113.966 423.131 114.91 422.432 115.888C422.991 118.055 423.271 120.328 423.271 122.704V143.363C423.271 147.487 423.551 150.319 424.11 151.857C424.669 153.395 425.718 154.408 427.256 154.898V156.156H411.422V154.898C412.96 154.408 414.008 153.395 414.567 151.857C415.127 150.319 415.406 147.487 415.406 143.363V122.914C415.406 117.881 414.463 114.21 412.575 111.903C410.687 109.596 407.891 108.443 404.186 108.443C402.928 108.443 401.669 108.723 400.411 109.282C399.222 109.771 398.174 110.365 397.265 111.065C396.426 111.764 395.657 112.498 394.958 113.267C394.329 113.966 393.839 114.56 393.49 115.049L392.965 115.783V143.363C392.965 147.417 393.245 150.249 393.804 151.857C394.434 153.395 395.517 154.408 397.055 154.898V156.156H381.116V154.898C382.724 154.408 383.772 153.395 384.262 151.857C384.821 150.319 385.101 147.487 385.101 143.363V120.293C385.101 116.937 384.786 114.665 384.157 113.476C383.598 112.288 382.584 111.589 381.116 111.379V109.911L391.707 105.821H392.965V113.476C393.105 113.267 393.315 112.987 393.595 112.637C393.944 112.218 394.608 111.554 395.587 110.645C396.636 109.666 397.719 108.827 398.838 108.128C399.956 107.359 401.39 106.695 403.137 106.136C404.955 105.507 406.773 105.192 408.59 105.192C415.232 105.192 419.636 108.128 421.803 114.001C422.852 112.812 423.97 111.659 425.159 110.54C426.417 109.422 428.27 108.268 430.716 107.08C433.233 105.821 435.715 105.192 438.162 105.192C442.706 105.192 446.271 106.66 448.858 109.596C451.514 112.533 452.843 116.902 452.843 122.704V143.363ZM507.967 142.104L508.91 142.943C501.989 152.451 494.055 157.205 485.106 157.205C482.31 157.205 479.514 156.68 476.717 155.632C473.991 154.583 471.439 153.08 469.062 151.123C466.755 149.165 464.868 146.578 463.4 143.363C462.001 140.077 461.302 136.442 461.302 132.457C461.302 124.487 463.889 117.951 469.062 112.847C474.305 107.744 480.527 105.192 487.728 105.192C493.88 105.192 498.774 106.905 502.409 110.33C506.044 113.756 507.932 117.951 508.072 122.914H468.748C468.538 124.452 468.433 126.025 468.433 127.633C468.433 134.554 470.39 140.147 474.305 144.411C478.29 148.676 483.533 150.808 490.035 150.808C496.816 150.808 502.793 147.907 507.967 142.104ZM484.477 106.975C480.353 106.905 476.962 108.233 474.305 110.96C471.649 113.686 469.901 117.251 469.062 121.656H499.997C499.438 117.881 497.76 114.49 494.964 111.484C492.237 108.478 488.742 106.975 484.477 106.975ZM557.167 143.363C557.167 147.487 557.447 150.319 558.006 151.857C558.566 153.395 559.614 154.408 561.152 154.898V156.156H545.318V154.898C546.856 154.408 547.904 153.395 548.464 151.857C549.023 150.319 549.303 147.487 549.303 143.363V122.914C549.303 117.951 548.184 114.315 545.947 112.008C543.78 109.631 540.809 108.443 537.034 108.443C535.006 108.443 532.944 109.072 530.847 110.33C528.819 111.519 527.281 112.742 526.233 114.001L524.66 115.783V143.363C524.66 147.417 524.939 150.249 525.499 151.857C526.128 153.395 527.211 154.408 528.749 154.898V156.156H512.81V154.898C514.418 154.408 515.467 153.395 515.956 151.857C516.515 150.319 516.795 147.487 516.795 143.363V120.293C516.795 116.937 516.48 114.665 515.851 113.476C515.292 112.288 514.278 111.589 512.81 111.379V109.911L523.401 105.821H524.66V113.476C524.799 113.267 525.009 112.987 525.289 112.637C525.638 112.218 526.303 111.554 527.281 110.645C528.33 109.666 529.413 108.827 530.532 108.128C531.721 107.359 533.259 106.695 535.146 106.136C537.104 105.507 539.131 105.192 541.228 105.192C546.262 105.192 550.177 106.66 552.973 109.596C555.769 112.533 557.167 116.902 557.167 122.704V143.363ZM589.422 149.759C589.562 150.039 589.772 150.528 590.051 151.227C585.857 155.212 581.767 157.205 577.782 157.205C571.001 157.205 567.61 152.381 567.61 142.733V107.289H561.214V105.821C562.892 105.821 564.499 105.402 566.037 104.563C567.575 103.724 568.799 102.71 569.708 101.522C570.686 100.264 571.49 99.0401 572.12 97.8517C572.819 96.6632 573.343 95.6146 573.693 94.7058L574.112 93.4474H575.475V105.821H584.074V107.289H575.475V142.733C575.475 149.095 577.852 152.276 582.606 152.276C584.913 152.276 587.185 151.437 589.422 149.759Z" fill="black"/>
<path d="M607.888 145H597.288V142.16H607.888V145ZM620.179 131.08C619.432 131.08 618.592 131.08 617.659 131.08C616.752 131.08 616.019 131.08 615.459 131.08H614.619V142.52H619.459C621.512 142.52 622.939 142.32 623.739 141.92C624.565 141.52 625.099 140.867 625.339 139.96H625.779V145.64H625.339C625.099 144.733 624.565 144.08 623.739 143.68C622.939 143.28 621.512 143.08 619.459 143.08H614.619V152.16C614.619 153.707 614.725 154.773 614.939 155.36C615.152 155.92 615.552 156.293 616.139 156.48V156.96H610.019V156.48C610.605 156.293 611.005 155.907 611.219 155.32C611.432 154.733 611.539 153.68 611.539 152.16V135.32C611.539 133.8 611.432 132.747 611.219 132.16C611.005 131.547 610.605 131.16 610.019 131V130.52H619.699H627.579L628.019 135.4L627.579 135.52C626.939 133.893 626.032 132.747 624.859 132.08C623.712 131.413 622.152 131.08 620.179 131.08ZM646.097 153.64C646.097 154.52 646.19 155.187 646.377 155.64C646.59 156.067 647.004 156.28 647.617 156.28V156.76H646.137C645.284 156.76 644.564 156.467 643.977 155.88C643.39 155.293 643.097 154.573 643.097 153.72V153.28C640.617 155.867 638.124 157.16 635.617 157.16C631.697 157.16 629.737 154.827 629.737 150.16V143.04C629.737 141.76 629.617 140.907 629.377 140.48C629.164 140.027 628.777 139.747 628.217 139.64V139.08L632.257 137.56H632.737V149.48C632.737 151.667 633.07 153.267 633.737 154.28C634.404 155.293 635.497 155.8 637.017 155.8C639.017 155.8 641.044 154.72 643.097 152.56V143.04C643.097 141.76 642.977 140.907 642.737 140.48C642.524 140.027 642.137 139.747 641.577 139.64V139.08L645.577 137.56H646.097V153.64ZM666.313 151.88C666.313 153.453 666.419 154.533 666.633 155.12C666.846 155.707 667.246 156.093 667.833 156.28V156.76H661.793V156.28C662.379 156.093 662.779 155.707 662.993 155.12C663.206 154.533 663.313 153.453 663.313 151.88V144.08C663.313 142.187 662.886 140.8 662.033 139.92C661.206 139.013 660.073 138.56 658.633 138.56C657.859 138.56 657.073 138.8 656.273 139.28C655.499 139.733 654.913 140.2 654.513 140.68L653.913 141.36V151.88C653.913 153.427 654.019 154.507 654.233 155.12C654.473 155.707 654.886 156.093 655.473 156.28V156.76H649.393V156.28C650.006 156.093 650.406 155.707 650.593 155.12C650.806 154.533 650.913 153.453 650.913 151.88V143.08C650.913 141.8 650.793 140.933 650.553 140.48C650.339 140.027 649.953 139.76 649.393 139.68V139.12L653.433 137.56H653.913V140.48C653.966 140.4 654.046 140.293 654.153 140.16C654.286 140 654.539 139.747 654.913 139.4C655.313 139.027 655.726 138.707 656.153 138.44C656.606 138.147 657.193 137.893 657.913 137.68C658.659 137.44 659.433 137.32 660.233 137.32C662.153 137.32 663.646 137.88 664.713 139C665.779 140.12 666.313 141.787 666.313 144V151.88ZM687.91 151.88C687.91 153.427 688.017 154.507 688.23 155.12C688.443 155.707 688.857 156.093 689.47 156.28V156.76H687.99C687.137 156.76 686.403 156.467 685.79 155.88C685.203 155.267 684.91 154.533 684.91 153.68V153.56C682.537 156.013 680.257 157.227 678.07 157.2C675.67 157.173 673.657 156.253 672.03 154.44C670.403 152.6 669.59 150.333 669.59 147.64C669.59 145.827 669.977 144.16 670.75 142.64C671.523 141.093 672.697 139.827 674.27 138.84C675.87 137.853 677.723 137.36 679.83 137.36C681.67 137.36 683.363 137.827 684.91 138.76V136.08C684.91 134.8 684.79 133.947 684.55 133.52C684.337 133.067 683.95 132.787 683.39 132.68V132.12L687.43 130.28H687.91V151.88ZM684.91 151.88V142.8C684.59 141.573 683.817 140.48 682.59 139.52C681.39 138.56 680.07 138.08 678.63 138.08C676.683 138.08 675.163 138.76 674.07 140.12C673.003 141.48 672.47 143.213 672.47 145.32C672.47 146.493 672.603 147.653 672.87 148.8C673.163 149.92 673.59 150.987 674.15 152C674.71 152.987 675.47 153.787 676.43 154.4C677.417 155.013 678.537 155.32 679.79 155.32C681.577 155.32 683.283 154.507 684.91 152.88C684.91 152.667 684.91 152.333 684.91 151.88ZM709.03 151.4L709.39 151.72C706.75 155.347 703.723 157.16 700.31 157.16C699.243 157.16 698.176 156.96 697.11 156.56C696.07 156.16 695.096 155.587 694.19 154.84C693.31 154.093 692.59 153.107 692.03 151.88C691.496 150.627 691.23 149.24 691.23 147.72C691.23 144.68 692.216 142.187 694.19 140.24C696.19 138.293 698.563 137.32 701.31 137.32C703.656 137.32 705.523 137.973 706.91 139.28C708.296 140.587 709.016 142.187 709.07 144.08H694.07C693.99 144.667 693.95 145.267 693.95 145.88C693.95 148.52 694.696 150.653 696.19 152.28C697.71 153.907 699.71 154.72 702.19 154.72C704.776 154.72 707.056 153.613 709.03 151.4ZM700.07 138C698.496 137.973 697.203 138.48 696.19 139.52C695.176 140.56 694.51 141.92 694.19 143.6H705.99C705.776 142.16 705.136 140.867 704.07 139.72C703.03 138.573 701.696 138 700.07 138ZM729.472 151.88C729.472 153.427 729.579 154.507 729.792 155.12C730.006 155.707 730.419 156.093 731.032 156.28V156.76H729.552C728.699 156.76 727.966 156.467 727.352 155.88C726.766 155.267 726.472 154.533 726.472 153.68V153.56C724.099 156.013 721.819 157.227 719.632 157.2C717.232 157.173 715.219 156.253 713.592 154.44C711.966 152.6 711.152 150.333 711.152 147.64C711.152 145.827 711.539 144.16 712.312 142.64C713.086 141.093 714.259 139.827 715.832 138.84C717.432 137.853 719.286 137.36 721.392 137.36C723.232 137.36 724.926 137.827 726.472 138.76V136.08C726.472 134.8 726.352 133.947 726.112 133.52C725.899 133.067 725.512 132.787 724.952 132.68V132.12L728.992 130.28H729.472V151.88ZM726.472 151.88V142.8C726.152 141.573 725.379 140.48 724.152 139.52C722.952 138.56 721.632 138.08 720.192 138.08C718.246 138.08 716.726 138.76 715.632 140.12C714.566 141.48 714.032 143.213 714.032 145.32C714.032 146.493 714.166 147.653 714.432 148.8C714.726 149.92 715.152 150.987 715.712 152C716.272 152.987 717.032 153.787 717.992 154.4C718.979 155.013 720.099 155.32 721.352 155.32C723.139 155.32 724.846 154.507 726.472 152.88C726.472 152.667 726.472 152.333 726.472 151.88Z" fill="black"/>
<path d="M628.83 270.761C627.46 273.443 624.097 274.977 619.131 275.421C614.171 275.863 607.645 275.214 600.003 273.567C584.72 270.271 564.995 262.988 544.454 252.494C523.913 242.001 506.451 230.289 494.824 219.837C489.01 214.61 484.659 209.703 482.111 205.425C479.56 201.141 478.831 197.517 480.202 194.835C481.572 192.152 484.935 190.618 489.901 190.175C494.861 189.733 501.387 190.382 509.029 192.029C524.312 195.324 544.037 202.608 564.578 213.101C585.119 223.595 602.581 235.307 614.208 245.759C620.022 250.986 624.373 255.893 626.921 260.171C629.473 264.454 630.201 268.078 628.83 270.761Z" stroke="black" stroke-width="0.205897"/>
<path d="M246.759 195.598H256.815V196.713C254.151 197.743 251.744 201.004 249.509 206.41L224.584 269.997H221.661L197.509 209.328C194.587 202.205 191.75 198.086 189 197.056V195.683H206.104V197.056C204.729 197.4 203.955 198.344 203.955 199.888C203.955 201.433 204.385 203.492 205.502 206.067C205.502 206.324 207.393 210.958 210.917 219.968C214.441 228.979 217.965 237.989 221.489 246.913L226.646 260.3C240.398 224.259 247.36 206.153 247.446 206.067C248.392 203.407 248.907 201.261 248.821 199.717C248.821 198.172 248.134 197.228 246.759 196.799V195.598Z" fill="black"/>
<path d="M278.817 214.65C282.341 214.65 285.693 215.165 288.873 216.281C292.053 217.311 295.061 218.941 297.812 221C300.562 223.06 302.797 225.892 304.43 229.582C306.063 233.186 306.923 237.219 306.923 241.767C306.923 246.315 306.063 250.177 304.344 253.867C302.625 257.557 300.39 260.56 297.64 262.791C294.89 265.022 291.881 266.824 288.615 268.112C285.349 269.399 282.083 269.999 278.817 269.999C275.293 269.999 271.941 269.485 268.675 268.369C265.408 267.253 262.486 265.623 259.736 263.478C256.985 261.332 254.837 258.501 253.203 254.982C251.57 251.378 250.711 247.431 250.711 242.968C250.711 234.902 253.547 228.123 259.134 222.803C264.721 217.482 271.253 214.736 278.817 214.736V214.65ZM282.083 267.597C287.498 267.597 291.623 265.709 294.46 262.019C297.296 258.329 298.671 253.695 298.671 248.117C298.671 243.398 297.64 238.506 295.749 233.701C293.772 228.809 290.936 224.69 287.154 221.344C283.372 217.997 279.333 216.452 274.949 216.624C269.706 216.881 265.752 218.855 263.088 222.631C260.423 226.407 259.048 231.126 259.048 236.704C259.048 241.424 259.908 246.058 261.713 250.777C263.518 255.497 266.182 259.444 269.878 262.705C273.488 265.966 277.613 267.597 282.083 267.597Z" fill="black"/>
<path d="M361.586 260.132C361.586 262.621 361.843 264.423 362.445 265.624C363.047 266.825 364.164 267.426 365.883 267.426V268.799H361.758C359.351 268.799 357.374 268.027 355.741 266.31C354.108 264.68 353.249 262.706 353.249 260.304V259.102C346.287 266.311 339.324 269.915 332.362 269.915C321.447 269.915 315.946 263.393 315.946 250.435V230.613C315.946 227.008 315.602 224.606 315 223.404C314.399 222.203 313.281 221.431 311.734 221.087V219.543L322.994 215.338H324.369V248.547C324.369 254.64 325.314 259.102 327.205 261.934C329.096 264.766 332.105 266.139 336.402 266.139C341.989 266.139 347.662 263.135 353.42 257.129V230.613C353.42 227.008 353.076 224.606 352.475 223.404C351.873 222.203 350.756 221.431 349.209 221.087V219.543L360.382 215.338H361.844V260.218L361.586 260.132Z" fill="black"/>
<path d="M420.636 253.869L421.668 254.727C414.276 264.853 405.853 269.916 396.312 269.916C393.218 269.916 390.124 269.315 387.116 268.199C384.107 267.084 381.443 265.368 378.95 263.308C376.458 261.249 374.567 258.417 373.106 254.984C371.645 251.552 370.957 247.776 370.957 243.571C370.957 238.766 372.074 234.046 374.309 229.67C376.544 225.207 379.638 221.603 383.592 218.857C387.545 216.111 391.757 214.738 396.312 214.738C401.126 214.738 405.423 215.854 409.205 217.999C412.987 220.145 415.479 222.461 416.769 225.036C417.37 226.237 417.198 227.267 416.253 228.125C415.307 228.983 414.19 229.069 412.901 228.382C412.299 228.039 411.698 227.353 411.096 226.409C410.494 225.465 409.807 224.435 409.119 223.32C408.431 222.29 407.572 221.174 406.626 220.059C405.595 219.029 404.306 218.085 402.587 217.399C400.954 216.712 398.977 216.369 396.742 216.369C391.757 216.369 387.459 218.6 383.936 222.976C380.412 227.353 378.607 232.587 378.607 238.508C378.607 245.888 380.755 251.809 384.881 256.357C389.093 260.905 394.679 263.137 401.555 263.137C408.431 263.137 415.136 260.047 420.636 253.869Z" fill="black"/>
<path d="M471.089 255.24C471.089 259.617 471.433 262.62 471.949 264.251C472.55 265.881 473.668 266.997 475.301 267.511V268.884H458.454V267.511C460.088 266.997 461.205 265.881 461.807 264.251C462.408 262.62 462.666 259.617 462.666 255.24V233.444C462.666 228.124 461.463 224.262 459.142 221.773C456.821 219.285 453.641 217.998 449.602 217.998C447.453 217.998 445.218 218.684 443.069 219.971C440.835 221.259 439.202 222.632 438.084 223.919L436.451 225.807V255.155C436.451 259.445 436.795 262.449 437.397 264.165C437.998 265.795 439.202 266.911 440.835 267.426V268.799H423.816V267.426C425.535 266.911 426.653 265.795 427.254 264.165C427.77 262.534 428.114 259.531 428.114 255.155V210.189C428.114 206.67 427.77 204.354 427.168 203.066C426.567 201.779 425.449 201.007 423.902 200.749V199.205L435.162 195H436.537V223.404C436.537 223.404 436.881 222.889 437.225 222.46C437.568 222.031 438.256 221.344 439.373 220.315C440.491 219.285 441.608 218.427 442.812 217.654C444.015 216.882 445.648 216.196 447.711 215.509C449.773 214.908 451.922 214.565 454.157 214.565C459.486 214.565 463.698 216.11 466.706 219.285C469.714 222.374 471.175 227.094 471.175 233.187V255.155L471.089 255.24Z" fill="black"/>
<path d="M529.875 253.867L530.906 254.725C523.514 264.851 515.091 269.914 505.551 269.914C502.542 269.914 499.62 269.399 496.698 268.283C493.775 267.168 491.025 265.537 488.533 263.478C486.04 261.418 484.063 258.586 482.516 255.154C480.969 251.721 480.195 247.86 480.195 243.655C480.195 235.16 482.946 228.209 488.533 222.803C494.119 217.396 500.737 214.65 508.387 214.65C514.919 214.65 520.162 216.452 524.03 220.142C527.898 223.747 529.875 228.209 530.047 233.529H488.103C487.845 235.16 487.759 236.876 487.759 238.506C487.759 245.886 489.822 251.807 494.033 256.355C498.245 260.903 503.832 263.134 510.708 263.134C517.584 263.134 524.288 260.045 529.789 253.867H529.875ZM504.863 216.538C500.48 216.538 496.87 217.911 494.033 220.743C491.197 223.661 489.306 227.436 488.447 232.156H521.452C520.85 228.123 519.045 224.519 516.123 221.344C513.2 218.169 509.419 216.538 504.863 216.538Z" fill="black"/>
<path d="M564.18 215.338C565.727 215.681 566.759 216.454 567.102 217.655C567.532 218.771 567.446 219.886 566.759 220.83C566.157 221.774 565.298 222.289 564.18 222.289C563.493 222.289 562.633 222.117 561.43 221.774C560.312 221.431 559.281 221.173 558.507 221.087C557.648 221.002 556.445 221.087 554.726 221.517C551.631 222.289 549.225 224.949 547.678 229.325V255.241C547.678 259.531 548.022 262.535 548.623 264.251C549.225 265.967 550.428 266.997 552.061 267.512V268.885H535.043V267.512C536.762 266.997 537.879 265.882 538.481 264.251C539.083 262.621 539.34 259.617 539.34 255.241V230.698C539.34 227.094 538.997 224.692 538.395 223.49C537.793 222.289 536.676 221.517 535.129 221.173V219.629L546.388 215.424H547.764V225.55C549.397 222.289 551.803 219.543 555.069 217.483C558.25 215.338 561.344 214.652 564.352 215.424L564.18 215.338Z" fill="black"/>
<ellipse cx="178.224" cy="143.676" rx="164.007" ry="72.1067" transform="rotate(150.417 178.224 143.676)" stroke="black" stroke-width="0.3"/>
</svg>
