<svg width="108" height="24" viewBox="0 0 108 24" fill="none" xmlns="http://www.w3.org/2000/svg">
<path d="M47.1403 20.1504C47.1403 20.4373 47.2478 20.9752 47.965 20.9752C48.3475 20.9752 48.7778 20.8556 48.7778 20.3177C48.7778 19.9113 48.4909 19.8157 48.0845 19.6842L47.6661 19.5527C47.0446 19.3615 46.435 19.1822 46.435 18.0466C46.435 17.4728 46.6621 16.4688 47.9291 16.4688C49.1244 16.4688 49.4352 17.4967 49.4472 18.1183H48.6702C48.6463 17.8912 48.5866 17.3533 47.8694 17.3533C47.5586 17.3533 47.188 17.5087 47.188 17.9629C47.188 18.3574 47.439 18.4411 47.5944 18.5008L48.5387 18.8116C49.0647 18.979 49.5547 19.2658 49.5547 20.1863C49.5547 21.7282 48.3714 21.8597 48.0248 21.8597C46.6143 21.8597 46.3633 20.7839 46.3633 20.1504H47.1403Z" fill="#9C9C9C"/>
<path d="M53.0951 17.51H51.0272V18.5739H52.9158V19.4823H51.0272V20.8091H53.1788V21.7176H50.2383V16.6016H53.0951V17.51Z" fill="#9C9C9C"/>
<path d="M57.5777 21.7176H56.8247V17.4383H56.8127L56.0836 21.7176H55.2828L54.5775 17.4383H54.5655V21.7176H53.8125V16.6016H54.9958L55.7011 20.6298H55.7131L56.4064 16.6016H57.5777V21.7176Z" fill="#9C9C9C"/>
<path d="M60.183 21.7176H59.3702V19.7811L58.0195 16.6016H58.9877L59.7886 18.8249L60.5655 16.6016H61.486L60.183 19.7931V21.7176Z" fill="#9C9C9C"/>
<path d="M65.0887 19.9246C65.0887 21.2753 64.4672 21.8491 63.4871 21.8491C63.1285 21.8491 62.6025 21.7415 62.2559 21.2275C62.0407 20.9167 61.957 20.4983 61.957 19.9843V16.6016H62.7818V19.9246C62.7818 20.6298 63.0926 20.9526 63.4751 20.9526C64.0369 20.9526 64.264 20.594 64.264 19.9843V16.6135H65.0887V19.9365V19.9246Z" fill="#9C9C9C"/>
<path d="M67.8247 16.6016H68.5777V21.7176H67.7649L66.1752 18.0718H66.1632V21.7176H65.4102V16.6016H66.2708L67.8127 20.1636H67.8247V16.6016Z" fill="#9C9C9C"/>
<path d="M71.1761 18.959H72.8017V21.7203H72.2638L72.1801 21.0748C71.9769 21.3856 71.6781 21.8517 70.9609 21.8517C70.0286 21.8517 69.168 20.9672 69.168 19.1742C69.168 17.7757 69.7536 16.4608 71.0685 16.4727C72.2638 16.4727 72.7299 17.4888 72.7777 18.194H71.9649C71.9649 17.9908 71.6901 17.3573 71.1163 17.3573C70.5426 17.3573 69.9927 17.8832 69.9927 19.1981C69.9927 20.5966 70.5784 20.9552 71.1282 20.9552C71.3075 20.9552 71.9052 20.8596 72.0726 19.8316H71.1641V18.971L71.1761 18.959Z" fill="#9C9C9C"/>
<path d="M78.1825 19.9246C78.1825 21.2753 77.5609 21.8491 76.5807 21.8491C76.2221 21.8491 75.6962 21.7415 75.3496 21.2275C75.1345 20.9167 75.0508 20.4983 75.0508 19.9843V16.6016H75.8755V19.9246C75.8755 20.6298 76.1863 20.9526 76.5688 20.9526C77.1306 20.9526 77.3577 20.594 77.3577 19.9843V16.6135H78.1825V19.9365V19.9246Z" fill="#9C9C9C"/>
<path d="M81.3559 16.6016H82.1089V21.7176H81.2961L79.7064 18.0718H79.6945V21.7176H78.9414V16.6016H79.79L81.344 20.1636H81.3559V16.6016Z" fill="#9C9C9C"/>
<path d="M83.6456 16.6016H82.832V21.7176H83.6456V16.6016Z" fill="#9C9C9C"/>
<path d="M86.6481 16.6016H87.4847L86.1699 21.7176H85.3929L84.0781 16.6016H84.9507L85.7874 20.4744H85.7994L86.6481 16.6016Z" fill="#9C9C9C"/>
<path d="M90.8727 17.51H88.8048V18.5739H90.7053V19.4823H88.8048V20.8091H90.9564V21.7176H88.0039V16.6016H90.8727V17.51Z" fill="#9C9C9C"/>
<path d="M91.6292 21.7176H92.418V19.7214H93.2548C93.8524 19.7214 93.8883 19.9963 93.8883 20.6896C93.8883 21.2155 93.9242 21.4785 93.972 21.7176H94.8685V21.5861C94.6892 21.5024 94.6891 21.3111 94.6891 20.57C94.6891 19.6138 94.5218 19.4584 94.1991 19.2671C94.5816 19.0998 94.8086 18.6097 94.8086 18.0479C94.8086 17.6056 94.6174 16.6016 93.5775 16.6016H91.6172V21.7176H91.6292ZM92.418 18.8488V17.4741H93.4221C93.9002 17.4741 93.9958 17.8686 93.9958 18.1435C93.9958 18.6456 93.7927 18.8488 93.3743 18.8488H92.418Z" fill="#9C9C9C"/>
<path d="M96.109 20.1504C96.109 20.4373 96.2166 20.9752 96.9338 20.9752C97.3163 20.9752 97.7466 20.8556 97.7466 20.3177C97.7466 19.9113 97.4597 19.8157 97.0533 19.6842L96.6349 19.5527C96.0014 19.3615 95.4037 19.1822 95.4037 18.0466C95.4037 17.4728 95.6309 16.4688 96.8979 16.4688C98.0932 16.4688 98.404 17.4967 98.4159 18.1183H97.639C97.6151 17.8912 97.5553 17.3533 96.8381 17.3533C96.5273 17.3533 96.1568 17.5087 96.1568 17.9629C96.1568 18.3574 96.4078 18.4411 96.5632 18.5008L97.5075 18.8116C98.0334 18.979 98.5236 19.2658 98.5236 20.1863C98.5236 21.7282 97.3402 21.8597 96.9935 21.8597C95.5831 21.8597 95.332 20.7839 95.332 20.1504H96.109Z" fill="#9C9C9C"/>
<path d="M100.333 16.6016H99.5195V21.7176H100.333V16.6016Z" fill="#9C9C9C"/>
<path d="M102.746 21.7176H101.933V17.51H100.762V16.6016H103.917V17.51H102.746V21.7176Z" fill="#9C9C9C"/>
<path d="M106.608 16.6016L105.843 18.8249L105.03 16.6016H104.074L105.413 19.7811V21.7176H106.226V19.805L107.529 16.6016H106.608Z" fill="#9C9C9C"/>
<path d="M52.3587 12.5206V7.27305H50.8884V5.79084H52.3587V1.35617H54.1277V14.9351H52.3587V12.6043L51.3068 13.7398C51.3068 13.7398 51.2111 13.6681 51.0438 13.5485C50.8765 13.429 50.6733 13.2497 50.4223 12.9987C49.9442 12.5564 49.5736 12.1022 49.2748 11.636C48.9879 11.1699 48.8325 10.9308 48.8086 10.8949C48.7847 10.9308 48.6173 11.2057 48.2826 11.7197C47.948 12.2217 47.5894 12.6521 47.1949 13.0107C47.0037 13.19 46.8004 13.3573 46.6211 13.5008C46.4299 13.6561 46.3343 13.7398 46.3104 13.7398L45.2227 12.5325C45.2227 12.5325 45.3661 12.413 45.6171 12.2098C45.8562 12.0066 46.155 11.6958 46.5256 11.2535C47.3145 10.2973 47.7328 9.32902 47.7806 8.32494C47.8284 7.33282 47.8523 6.71125 47.8523 6.46023V1.61915H49.7648V6.4124C49.7648 6.63952 49.7887 7.26112 49.8365 8.27716C49.8843 9.29319 50.3028 10.2853 51.0917 11.2416C51.3905 11.6121 51.6534 11.899 51.8805 12.0902C52.1076 12.2815 52.2511 12.413 52.3467 12.4728M54.8568 1.32031H56.6259V14.8993H54.8568V1.32031Z" fill="#9C9C9C"/>
<path d="M67.1881 7.27945V9.65815C66.7339 9.45495 66.2558 9.29958 65.7419 9.20396C65.2279 9.10833 64.7497 9.06049 64.2835 9.06049C63.8174 9.06049 63.3512 9.10832 62.8492 9.19199C62.3471 9.27567 61.8571 9.41909 61.3909 9.6223C60.7933 9.87332 60.2792 10.208 59.8609 10.6383C59.4425 11.0687 59.2394 11.5946 59.2394 12.2281C59.2394 12.8617 59.4665 13.4235 59.9087 13.8538C60.351 14.2961 60.8889 14.6308 61.5224 14.8818C61.9646 15.073 62.4308 15.2045 62.9209 15.2882C63.4109 15.3719 63.8652 15.4077 64.3075 15.4077C64.7736 15.4077 65.2517 15.3599 65.7537 15.2643C66.2558 15.1686 66.7339 15.0133 67.1881 14.8101C67.738 14.5591 68.2042 14.2124 68.5747 13.7821C68.9453 13.3517 69.1365 12.8378 69.1365 12.2281C69.1365 11.6663 68.9811 11.1882 68.6703 10.7818C68.3595 10.3754 67.9651 10.0526 67.4631 9.81355H69.1126V1.39844H67.1881V2.7372H65.7179V1.68531H58.7852V8.47479H65.7179V7.29142H67.1881V7.27945ZM65.7179 4.32698H67.1881V5.66575H65.7179V4.32698ZM66.3156 11.0328C66.8176 11.3675 67.0806 11.7619 67.0806 12.2042C67.0806 12.6465 66.8296 13.0529 66.3275 13.3996C65.8255 13.7462 65.1442 13.9136 64.2955 13.9136C63.4468 13.9136 62.7296 13.7462 62.1678 13.3996C61.606 13.0529 61.3192 12.6584 61.3192 12.2042C61.3192 11.75 61.606 11.3675 62.1678 11.0328C62.7296 10.6981 63.4468 10.5188 64.2955 10.5188C65.1442 10.5188 65.8136 10.6862 66.3275 11.0328M63.8174 6.98062H60.7215V3.14361H63.8174V6.98062Z" fill="#9C9C9C"/>
<path d="M76.1316 1.66602V3.13626H73.3226V12.0056H74.769C74.9961 12.0056 75.2471 12.0056 75.5101 12.0056C75.785 12.0056 76.0359 11.9817 76.275 11.9339C76.5619 11.8861 76.7771 11.8263 76.9205 11.7666C77.0639 11.7068 77.1476 11.6829 77.1596 11.6829V1.36719H79.084V5.7899H80.112V1.36719H82.0483V14.9461H80.112V7.2721H79.084V14.9461H77.1596V13.189C77.1596 13.189 77.04 13.2249 76.8249 13.2846C76.6097 13.3324 76.4065 13.3803 76.2152 13.3922C75.9762 13.4161 75.7371 13.4281 75.4742 13.44C75.2231 13.452 74.9363 13.4639 74.6136 13.4639H71.4102V1.65406H76.1197L76.1316 1.66602Z" fill="#9C9C9C"/>
<path d="M84.2145 4.39288C83.9635 4.78734 83.832 5.25351 83.832 5.80336C83.832 6.75963 84.1907 7.56048 84.9198 8.20596C85.637 8.85144 86.5215 9.17421 87.5495 9.17421C88.5775 9.17421 89.4619 8.85144 90.203 8.20596C90.9441 7.56048 91.3147 6.75963 91.3147 5.80336C91.3147 5.25351 91.1951 4.79927 90.9561 4.44067C90.717 4.08207 90.4182 3.74739 90.0357 3.44856H91.231V1.97828H88.5894V1.09375H86.5095V1.97828H83.9157V3.44856H85.0393C84.7285 3.69958 84.4536 4.01035 84.2026 4.40481M92.3785 1.38062V9.21007H94.3029V5.51646H95.7014V4.04622H94.3029V1.39258H92.3785V1.38062ZM84.5493 11.3497H92.3785V14.9715H94.3029V9.87945H84.5493V11.3497ZM88.8165 4.38092C89.211 4.6917 89.4022 5.16981 89.4022 5.81529C89.4022 6.46077 89.199 6.96281 88.8045 7.2736C88.4101 7.58439 87.9918 7.75176 87.5495 7.75176C87.1072 7.75176 86.7128 7.59634 86.3303 7.2736C85.9478 6.96281 85.7684 6.47273 85.7684 5.81529C85.7684 5.15786 85.9597 4.70365 86.3303 4.38092C86.7008 4.07013 87.1191 3.90279 87.5733 3.90279C88.0276 3.90279 88.434 4.05818 88.8284 4.38092" fill="#9C9C9C"/>
<path d="M98.5444 13.1949V6.99108H100.314V13.1949H101.509V6.99108H103.278V13.1949H104.366C104.366 13.1949 104.425 13.0514 104.509 12.8363C104.593 12.6211 104.653 12.4179 104.688 12.2147C104.76 11.7844 104.808 11.3421 104.844 10.8879C104.88 10.4337 104.891 9.94354 104.891 9.40564V3.14211H97.6599V1.67188H106.804V9.71644C106.804 10.3141 106.78 10.864 106.732 11.354C106.673 11.88 106.601 12.3103 106.505 12.645C106.421 12.9797 106.374 13.159 106.362 13.1829H107.545V14.6532H97.0742V13.1829H98.5325L98.5444 13.1949Z" fill="#9C9C9C"/>
<path d="M38.7961 0.984375V20.4324H35.5449V0.984375H31.6602V23.8391H42.6809V0.984375H38.7961Z" fill="#9C9C9C"/>
<path d="M0.472656 0.984375V13.105H6.87948V20.4324H0.472656V23.8391H10.7762V9.71029H4.3574V4.39108H10.7762V0.984375H0.472656Z" fill="#9C9C9C"/>
<path d="M13.0664 0.984375V23.8391H16.963V4.39108H19.27V23.8391H23.1547V4.39108H25.4617V23.8391H29.3465V0.984375H13.0664Z" fill="#9C9C9C"/>
</svg>
