<svg width="64" height="46" viewBox="0 0 64 46" fill="none" xmlns="http://www.w3.org/2000/svg">
<path d="M46.793 10.6289H46.0639C45.3826 10.6289 45.1197 11.0473 45.1197 11.4537V17.9204C44.2352 18.3269 43.3865 18.5061 41.0556 18.5061H35.7126C35.4497 18.5061 35.3181 18.4105 35.3181 18.0997V17.3826C35.3181 17.0837 35.4616 16.9761 35.7126 16.9761H41.3904C41.9163 16.9761 42.1911 16.7132 42.1911 16.1753V12.0394C42.1911 11.5015 41.9043 11.2385 41.3904 11.2385H33.4415C33.0351 11.2385 32.6406 11.4656 32.6406 12.0872V12.5893C32.6406 13.2108 33.0471 13.4379 33.4415 13.4379H39.1789C39.4419 13.4379 39.5854 13.5336 39.5854 13.8444V14.4301C39.5854 14.7289 39.4419 14.8245 39.1789 14.8245H33.5012C32.9753 14.8245 32.7004 15.0875 32.7004 15.6254V18.5779C32.7004 19.8928 33.537 20.7056 35.2702 20.7056H41.0437C43.4104 20.7056 44.3307 20.4306 45.1315 20.0003V20.4187C45.1315 20.8251 45.3945 21.2435 46.0759 21.2435H46.805C47.5102 21.2435 47.7733 20.8251 47.7733 20.4187V11.4537C47.7733 11.0473 47.5102 10.6289 46.805 10.6289H46.793Z" fill="#9C9C9C"/>
<path d="M46.9611 21.9531H36.1914C35.6655 21.9531 35.3906 22.2161 35.3906 22.754V26.6269C35.3906 27.9417 36.4305 28.7067 37.9127 28.7067H45.2519C46.7341 28.7067 47.774 27.9417 47.774 26.6269V22.754C47.774 22.2161 47.499 21.9531 46.9731 21.9531H46.9611ZM45.1323 26.077C45.1323 26.3759 44.9889 26.4834 44.7259 26.4834H38.4028C38.1399 26.4834 38.0083 26.3878 38.0083 26.077V24.6068C38.0083 24.3079 38.1518 24.2004 38.4028 24.2004H44.7259C44.9889 24.2004 45.1323 24.296 45.1323 24.6068V26.077Z" fill="#9C9C9C"/>
<path d="M31.0646 16.6186H28.8174C28.5544 16.6186 28.4109 16.523 28.4109 16.2122V11.5982C28.4109 11.1918 28.148 10.7734 27.4547 10.7734H26.7256C26.0443 10.7734 25.7812 11.1918 25.7812 11.5982V27.6755C25.7812 28.0819 26.0443 28.5002 26.7256 28.5002H27.4547C28.1599 28.5002 28.4109 28.0819 28.4109 27.6755V19.344C28.4109 19.0452 28.5544 18.9376 28.8174 18.9376H31.0646C31.471 18.9376 31.8653 18.6746 31.8653 18.053V17.4912C31.8653 16.8697 31.459 16.6067 31.0646 16.6067V16.6186Z" fill="#9C9C9C"/>
<path d="M23.8324 13.2813H20.4617C20.1628 13.2813 20.0551 13.1379 20.0551 12.8869V11.1178C20.0551 10.7113 19.7923 10.293 19.087 10.293H18.3699C17.6885 10.293 17.4255 10.7113 17.4255 11.1178V12.8869C17.4255 13.1498 17.33 13.2813 17.0311 13.2813H13.6603C13.2539 13.2813 12.8594 13.4965 12.8594 14.13V14.6918C12.8594 15.3134 13.2658 15.5405 13.6603 15.5405H15.3936C14.3656 16.3892 13.7201 17.6204 13.7201 18.9831C13.7201 21.5172 15.9672 23.597 18.7403 23.597C21.5135 23.597 23.7725 21.4454 23.7725 18.9352C23.7725 17.5606 23.139 16.3653 22.135 15.5285H23.8324C24.2388 15.5285 24.6333 15.3014 24.6333 14.6799V14.118C24.6333 13.4965 24.2268 13.2694 23.8324 13.2694V13.2813ZM18.7403 21.3498C17.4135 21.3498 16.3497 20.2621 16.3497 18.9831C16.3497 17.7041 17.4135 16.5924 18.7403 16.5924C20.0671 16.5924 21.1429 17.5965 21.1429 18.9591C21.1429 20.2381 20.0552 21.3498 18.7403 21.3498Z" fill="#9C9C9C"/>
<path d="M31.8574 0.910156C16.5814 0.910156 0.671875 8.0224 0.671875 19.8323C0.671875 28.9646 10.3778 34.499 17.8724 36.7941C14.4657 38.5512 12.7444 41.408 13.0193 45.1614C13.0552 45.4602 13.3541 45.4961 13.5214 45.257C14.2984 44.241 15.1709 43.6074 16.3184 43.0934C19.2469 41.8144 23.801 41.1331 29.0006 40.3681C36.1844 39.2923 44.3723 38.0372 51.0541 34.9054C57.0545 32.0725 63.0549 26.7174 63.0549 19.8323C63.0549 8.03436 47.1454 0.910156 31.8694 0.910156H31.8574ZM50.803 34.3556C37.4514 40.5952 17.6213 39.2803 13.5454 44.2649C13.5454 42.0057 14.657 38.8739 18.7688 37.0092C29.7896 31.9888 60.5448 34.6783 60.5448 19.8084C60.5448 11.2379 48.2689 3.28889 31.8454 3.28889C15.4219 3.28889 3.1461 11.2498 3.1461 19.8084C3.1461 26.5142 10.6647 32.8614 21.793 35.3238C20.6455 35.6226 19.6294 35.9932 18.721 36.3996C8.40548 33.4352 1.25756 27.1238 1.25756 19.8084C1.25756 9.69588 14.9438 1.49589 31.8454 1.49589C48.7471 1.49589 62.4215 9.68393 62.4215 19.8084C62.4215 26.3469 56.696 31.5465 50.7912 34.3436L50.803 34.3556ZM23.1557 34.9652C11.7285 32.8375 3.83947 26.4664 3.83947 19.8203C3.83947 11.0824 16.8204 3.91045 31.8574 3.91045C46.8944 3.91045 59.8755 11.0944 59.8755 19.8203C59.8755 23.7649 57.449 26.3947 54.0783 28.1518C46.2609 32.2279 32.2639 32.7419 23.1557 34.9652Z" fill="#9C9C9C"/>
<path d="M31.8613 1.51172C14.9716 1.51172 1.27344 9.69976 1.27344 19.8242H3.16197C3.16197 11.2537 15.4378 3.30472 31.8613 3.30472C48.2848 3.30472 60.5606 11.2656 60.5606 19.8242C60.5606 34.6942 29.8054 31.9927 18.7847 37.0251C14.6729 38.8778 13.5612 42.0096 13.5612 44.2808C17.6372 39.2962 37.4673 40.6111 50.8189 34.3714C56.7237 31.5744 62.4493 26.3747 62.4493 19.8362C62.4493 9.72367 48.763 1.52368 31.8733 1.52368L31.8613 1.51172Z" fill="#9C9C9C"/>
<path d="M1.27344 19.8125C1.27344 27.1279 8.42135 33.4393 18.7369 36.4037C19.6453 35.9973 20.6614 35.6268 21.8089 35.3279C10.6806 32.8655 3.16197 26.5303 3.16197 19.8125H1.27344Z" fill="#9C9C9C"/>
</svg>
