<svg width="116" height="21" viewBox="0 0 116 21" fill="none" xmlns="http://www.w3.org/2000/svg">
<path d="M98.6682 0.984375C97.4849 0.984375 96.8633 1.66572 96.8633 2.14385V19.4045C96.8633 19.9065 97.4968 20.5878 98.6682 20.5878C99.8396 20.5878 100.485 19.9065 100.485 19.4045V2.14385C100.485 1.67767 99.8994 0.984375 98.6682 0.984375Z" fill="#9C9C9C"/>
<path d="M114.118 16.5687C112.803 17.7999 110.903 17.9911 109.636 17.9194C107.676 17.8118 106.002 16.5328 106.05 14.7637C107.15 15.5168 108.608 15.7917 109.684 15.7917C112.947 15.7917 115.66 14.178 115.66 11.3451C115.66 9.2652 113.76 6.89844 109.684 6.89844C104.592 6.89844 102.309 10.5801 102.309 13.8433C102.309 17.1066 104.532 20.7882 109.708 20.7882C112.481 20.7882 114.477 19.6407 114.764 18.0868C114.895 17.4174 114.477 16.7838 114.13 16.5806L114.118 16.5687ZM109.672 9.98242C110.927 9.98242 112.026 10.4247 112.026 11.4288C112.026 12.3492 110.987 13.0305 109.66 13.0305C108.261 13.0305 106.923 12.2536 106.516 11.8591C107.138 10.5323 108.453 9.98242 109.672 9.98242Z" fill="#9C9C9C"/>
<path d="M7.83676 6.89844C6.17528 6.89844 5.1712 7.22119 3.85636 8.26113V8.08184C3.85636 7.5798 3.22283 6.89844 2.03947 6.89844C0.856119 6.89844 0.222656 7.5798 0.222656 8.08184V19.4375C0.222656 19.9276 0.856119 20.6089 2.03947 20.6089C3.22283 20.6089 3.85636 19.9276 3.85636 19.4375V14.6083C3.85636 11.5244 5.05167 9.98242 7.21517 9.98242C8.70931 9.98242 9.19935 11.2375 9.19935 12.4807V19.4255C9.19935 19.8917 9.77311 20.597 11.0043 20.597C12.2354 20.597 12.8331 19.8917 12.8331 19.4255V12.5404C12.8331 8.58386 10.7891 6.89844 7.84865 6.89844H7.83676Z" fill="#9C9C9C"/>
<path d="M35.9566 6.90222H33.4345V4.2964C33.4345 3.80632 32.8129 3.125 31.6296 3.125C30.4462 3.125 29.8008 3.80632 29.8008 4.2964V14.0623C29.8008 15.6999 29.8008 19.5249 33.7453 20.5051C34.1039 20.5649 34.4146 20.5888 34.6776 20.5888C35.5023 20.5888 35.9685 20.3258 36.3391 19.6325C36.7216 18.9392 36.602 18.2579 36.5303 18.0069C36.3629 18.0188 36.1956 18.0308 36.0402 18.0308C34.8449 18.0308 34.1158 17.6483 33.7572 16.8474C33.4465 16.1302 33.4465 15.162 33.4465 14.0384V9.72322H35.6338C36.8291 9.72322 37.63 8.7072 37.63 7.75093C37.63 7.18913 37.367 6.89029 35.9685 6.89029L35.9566 6.90222Z" fill="#9C9C9C"/>
<path d="M78.0413 6.89844C76.069 6.89844 72.7461 8.18942 72.7461 13.3054V19.4016C72.7461 19.9037 73.3796 20.585 74.5629 20.585C75.7463 20.585 76.3798 19.8917 76.3798 19.4016V13.939C76.3798 10.7474 77.0731 9.40864 80.396 9.40864C80.4677 9.16958 80.5992 8.52411 80.2048 7.81887C79.7386 6.95823 78.9139 6.89844 78.0413 6.89844Z" fill="#9C9C9C"/>
<path d="M27.9922 11.3451C27.9922 9.27715 26.0916 6.89844 22.0156 6.89844C16.9236 6.89844 14.6406 10.5801 14.6406 13.8433C14.6406 17.1066 16.8639 20.7882 22.0396 20.7882C24.8127 20.7882 26.8088 19.6407 27.0957 18.0868C27.2272 17.4174 26.7968 16.7838 26.4622 16.5806C25.1593 17.8118 23.2468 18.0031 21.9679 17.9314C20.0195 17.8238 18.3341 16.5448 18.3938 14.7757C19.4935 15.5288 20.9518 15.8037 22.0156 15.8037C25.2788 15.8037 27.9922 14.19 27.9922 11.357V11.3451ZM18.86 11.8591C19.4816 10.5323 20.7845 9.98242 22.0156 9.98242C23.2468 9.98242 24.3704 10.4247 24.3704 11.4288C24.3704 12.3492 23.3305 13.0305 22.0037 13.0305C20.6052 13.0305 19.2784 12.2536 18.872 11.8591H18.86Z" fill="#9C9C9C"/>
<path d="M50.1815 6.89844C48.8189 6.89844 47.7431 7.29293 46.9422 7.93841C46.1414 7.28097 45.0537 6.89844 43.691 6.89844C40.392 6.89844 38.7305 9.13374 38.7305 12.1221V19.4973C38.7305 19.9634 39.3281 20.6089 40.4517 20.6089C41.5753 20.6089 42.173 19.9634 42.173 19.4973V12.0742C42.173 10.8311 42.6989 9.99438 43.691 9.99438C44.6831 9.99438 45.209 10.8311 45.209 12.0742V19.4973C45.209 19.9634 45.8067 20.6089 46.9303 20.6089C48.0538 20.6089 48.6515 19.9634 48.6515 19.4973V12.0742C48.6515 10.8311 49.1775 9.99438 50.1696 9.99438C51.1617 9.99438 51.6876 10.8311 51.6876 12.0742V19.4973C51.6876 19.9634 52.2853 20.6089 53.4089 20.6089C54.5325 20.6089 55.1421 19.9634 55.1421 19.4973V12.1221C55.1421 9.13374 53.4686 6.91039 50.1815 6.89844Z" fill="#9C9C9C"/>
<path d="M70.0498 15.1343V13.3413C70.0498 8.90661 66.8463 6.89844 63.882 6.89844C59.7821 6.89844 56.9492 10.1498 56.9492 14.0465C56.9492 18.2063 59.6148 20.7763 62.9497 20.7763C65.3881 20.7763 66.7747 19.808 67.6712 18.9235C67.9222 19.3658 68.1373 19.6765 68.3525 19.9395C68.6991 20.3579 69.0816 20.5492 69.5239 20.5492C69.7629 20.5492 70.0259 20.4894 70.3008 20.3699C70.8387 20.1308 71.1853 19.7961 71.3049 19.3658C71.4244 18.9235 71.281 18.5051 71.1017 18.2661C70.4801 17.3457 70.0498 16.0547 70.0498 15.1343ZM66.416 13.6999C66.2965 15.9352 65.0534 17.8596 62.9258 17.6564C61.2762 17.501 60.2961 15.732 60.5949 13.5564C60.9057 11.369 62.2684 9.83898 64.0135 9.98242C65.7228 10.078 66.5356 11.5124 66.416 13.6999Z" fill="#9C9C9C"/>
<path d="M88.8664 6.90495C87.6113 6.90495 86.5116 7.19183 85.5553 7.69387V2.15947C85.5553 1.69329 84.9816 1 83.7385 1C82.4954 1 81.9336 1.66939 81.9336 2.15947V14.053C81.9336 18.2128 84.5991 20.7828 87.934 20.7828C92.6554 20.7828 95.0341 17.149 95.0341 13.3478C95.0341 9.21196 92.5479 6.90495 88.8664 6.90495ZM91.4004 13.7064C91.2809 15.9417 90.0378 17.8661 87.9101 17.6629C86.2606 17.5075 85.2804 15.7385 85.5793 13.563C85.8781 11.3755 87.2527 9.84549 88.9978 9.98893C90.7071 10.0846 91.5199 11.5189 91.4004 13.7064Z" fill="#9C9C9C"/>
</svg>
