<svg width="100" height="56" viewBox="0 0 100 56" fill="none" xmlns="http://www.w3.org/2000/svg">
<path d="M2.13585 50.9842L1.1557 51.1993L0.785156 49.6932L2.60202 49.2031H4.13202V55.3113H2.13585V50.9842Z" fill="#9C9C9C"/>
<path d="M4.75391 52.3048V52.2809C4.75391 50.6075 5.84163 49.1133 7.68241 49.1133C9.52318 49.1133 10.599 50.5835 10.599 52.257C10.599 53.9424 9.51123 55.4366 7.67045 55.4366C5.82968 55.4366 4.75391 53.9663 4.75391 52.2929M8.59084 52.2929V52.269C8.59084 51.4322 8.22029 50.8585 7.67045 50.8585C7.12061 50.8585 6.76202 51.4083 6.76202 52.245C6.76202 53.0937 7.13257 53.6675 7.68241 53.6675C8.23225 53.6675 8.57889 53.1177 8.57889 52.2809" fill="#9C9C9C"/>
<path d="M11.082 52.3048V52.2809C11.082 50.6075 12.1698 49.1133 14.0105 49.1133C15.8513 49.1133 16.9271 50.5835 16.9271 52.257C16.9271 53.9424 15.8394 55.4366 13.9986 55.4366C12.1578 55.4366 11.082 53.9663 11.082 52.2929M14.907 52.2929V52.269C14.907 51.4322 14.5365 50.8585 13.9866 50.8585C13.4368 50.8585 13.0782 51.4083 13.0782 52.245C13.0782 53.0937 13.4487 53.6675 13.9986 53.6675C14.5484 53.6675 14.8951 53.1177 14.8951 52.2809" fill="#9C9C9C"/>
<path d="M18.5352 50.8658C18.5352 49.9215 19.1806 49.1445 20.1847 49.1445C21.1887 49.1445 21.8462 49.9215 21.8462 50.8539C21.8462 51.7982 21.1768 52.5632 20.1847 52.5632C19.1926 52.5632 18.5352 51.7982 18.5352 50.8658ZM24.189 49.2402H25.5038L22.7785 52.5752L20.5791 55.3005H19.2762L21.9537 52.0373L24.2009 49.2402H24.189ZM20.6509 50.8539C20.6509 50.4833 20.4476 50.2562 20.1966 50.2562C19.9456 50.2562 19.7424 50.4833 19.7424 50.8539C19.7424 51.2364 19.9695 51.4635 20.1966 51.4635C20.4237 51.4635 20.6509 51.2364 20.6509 50.8658V50.8539ZM22.9219 53.7107V53.6868C22.9219 52.7545 23.5674 51.9894 24.5715 51.9894C25.5755 51.9894 26.221 52.7545 26.221 53.6868V53.7107C26.221 54.6311 25.5516 55.4081 24.5715 55.4081C23.5913 55.4081 22.9219 54.6311 22.9219 53.7107ZM25.0257 53.7107V53.6868C25.0257 53.3282 24.8105 53.0892 24.5715 53.0892C24.3324 53.0892 24.1172 53.3163 24.1172 53.6868V53.7107C24.1172 54.0693 24.3443 54.3084 24.5715 54.3084C24.7986 54.3084 25.0257 54.0813 25.0257 53.7107Z" fill="#9C9C9C"/>
<path d="M28.4805 49.0859H30.6081V51.3332H32.5565V49.0859H34.6722V55.4451H32.5565V53.162H30.6081V55.4451H28.4805V49.0859Z" fill="#9C9C9C"/>
<path d="M35.4492 52.5883V49.0859H37.6008V52.5644C37.6008 53.3533 38.0072 53.688 38.5809 53.688C39.1547 53.688 39.5611 53.3772 39.5611 52.6122V49.0859H41.7246V52.5524C41.7246 54.7279 40.4695 55.5766 38.569 55.5766C36.6684 55.5766 35.4492 54.704 35.4492 52.6002" fill="#9C9C9C"/>
<path d="M42.5195 49.0859H44.7308L46.0815 51.3212L47.4442 49.0859H49.6675V55.4451H47.5398V52.2894L46.0815 54.5605H46.0457L44.5874 52.2894V55.4451H42.5195V49.0859Z" fill="#9C9C9C"/>
<path d="M52.7048 49.0508H54.8086L57.4861 55.4458H55.1791L54.8444 54.5971H52.6212L52.2984 55.4458H50.0273L52.7048 49.0508ZM54.3185 53.091L53.7328 51.549L53.1471 53.091H54.3065H54.3185Z" fill="#9C9C9C"/>
<path d="M57.8086 49.0859H59.7928L62.0519 51.895V49.0859H64.1437V55.4451H62.2671L59.9123 52.5165V55.4451H57.8086V49.0859Z" fill="#9C9C9C"/>
<path d="M66.3711 52.2922V52.2683C66.3711 50.3678 67.8652 48.9453 69.8614 48.9453C70.9491 48.9453 71.8336 49.3039 72.515 49.9016L71.3316 51.336C70.9133 50.9774 70.459 50.7861 69.9212 50.7861C69.0964 50.7861 68.4987 51.4197 68.4987 52.2803V52.3042C68.4987 53.2007 69.1203 53.8223 70.0168 53.8223C70.3754 53.8223 70.5786 53.7625 70.7459 53.6788V53.0453H69.6582V51.6826H72.7301V54.6231C72.0368 55.1849 71.0806 55.5794 69.9331 55.5794C67.9609 55.5794 66.3711 54.2526 66.3711 52.2803" fill="#9C9C9C"/>
<path d="M73.457 49.0859H76.5648C77.6884 49.0859 78.4056 49.3728 78.8479 49.8151C79.2304 50.1976 79.4336 50.6638 79.4336 51.3212C79.4336 52.2655 78.9554 52.911 78.1785 53.2816L79.6487 55.4451H77.2342L76.0389 53.6282H75.5847V55.4451H73.469V49.0859H73.457ZM76.4931 52.1101C77.0071 52.1101 77.3179 51.883 77.3179 51.5005V51.4766C77.3179 51.0702 76.9951 50.867 76.5051 50.867H75.5847V52.1101H76.5051H76.4931Z" fill="#9C9C9C"/>
<path d="M82.5366 49.0508H84.6404L87.3059 55.4458H85.0109L84.6762 54.5971H82.453L82.1302 55.4458H79.8711L82.5486 49.0508H82.5366ZM84.1503 53.091L83.5646 51.549L82.9789 53.091H84.1383H84.1503Z" fill="#9C9C9C"/>
<path d="M87.543 49.0859H89.9694C92.4915 49.0859 93.7466 50.3291 93.7466 52.2057V52.2297C93.7466 54.1063 92.4557 55.4451 89.8977 55.4451H87.543V49.0859ZM90.0173 53.5923C90.9855 53.5923 91.607 53.1979 91.607 52.2775C91.607 51.3451 90.9855 50.9387 90.0173 50.9387H89.6587V53.5923H90.0173Z" fill="#9C9C9C"/>
<path d="M94.2852 49.0859H99.6999V50.8311H96.365V51.4766H99.4728V53.0066H96.365V53.6999H99.7358V55.4451H94.2852V49.0859Z" fill="#9C9C9C"/>
<path d="M39.1445 3.16054H41.5471V10.225H45.0972V3.16054H47.4997V0.554688H39.1445V3.16054Z" fill="#9C9C9C"/>
<path d="M53.2552 2.65479C52.3707 2.65479 51.8089 2.88191 51.3786 3.14488V0.539062H48.0078V10.2093H51.3786V6.01367C51.3786 5.45186 51.6176 5.16499 52.0838 5.16499C52.55 5.16499 52.801 5.49967 52.801 6.1571V10.2093H56.1718V5.54751C56.1718 3.67084 55.1318 2.64282 53.2552 2.64282" fill="#9C9C9C"/>
<path d="M61.5926 8.07135C60.5646 8.07135 60.3255 7.78448 60.2777 7.48565H61.4491C63.768 7.48565 64.9514 6.78039 64.9514 5.38185C64.9514 3.69643 63.4931 2.64453 61.1622 2.64453C58.3891 2.64453 56.8711 4.07894 56.8711 6.68476C56.8711 9.29059 58.2457 10.4501 61.1861 10.4501C62.3695 10.4501 63.4811 10.3066 64.5808 10.0317L64.6884 10.0078V7.76059L64.5091 7.79645C63.6724 7.97575 62.4173 8.05942 61.6045 8.05942M61.0905 4.76029C61.485 4.76029 61.6643 4.95156 61.6643 5.14281C61.6643 5.35797 61.5447 5.56115 60.6483 5.56115H60.2897C60.3255 4.99934 60.5646 4.76029 61.0905 4.76029Z" fill="#9C9C9C"/>
<path d="M29.4816 20.7719C33.2348 19.1702 34.9561 16.5166 34.9561 13.3489C34.9561 7.92213 30.3063 6.11719 24.784 6.11719H13.2852V31.3506H21.5686V22.4932L26.828 31.3506H36.247L29.4816 20.7719ZM22.9313 16.8513H21.5686V11.9385H23.9473C25.5729 11.9385 26.2901 12.8469 26.2901 14.114C26.2901 15.8472 25.0828 16.8632 22.9193 16.8632" fill="#9C9C9C"/>
<path d="M82.734 31.9925C79.4827 31.9925 77.1758 30.833 77.1758 26.5657V6.10156H85.0409V24.5695C85.0409 25.7289 85.3875 26.0875 86.3677 26.0875H87.2761V31.335C86.2601 31.6219 84.8138 31.9925 82.734 31.9925Z" fill="#9C9C9C"/>
<path d="M42.6995 23.9983H46.0703C51.9153 23.9983 54.6167 22.1335 54.6167 18.7149C54.6167 14.5192 51.234 11.7461 45.3053 11.7461C38.3844 11.7461 34.7148 15.5353 34.7148 22.2291C34.7148 28.923 38.1932 31.995 45.3411 31.995C48.4011 31.995 51.2459 31.6006 53.9115 30.8714V25.5641C51.7002 26.0662 48.4489 26.2813 46.4408 26.2813C43.8709 26.2813 42.6995 25.5641 42.6995 24.0102M45.114 16.7426C46.3213 16.7426 46.9309 17.4239 46.9309 18.1292C46.9309 19.2767 45.8073 19.5994 43.9785 19.5994H42.6995C42.6995 18.2965 43.0103 16.7426 45.114 16.7426Z" fill="#9C9C9C"/>
<path d="M64.9904 11.7383C62.289 11.7383 59.7669 12.0491 57.3763 12.6109V17.954C58.9183 17.6193 62.05 17.0097 64.3928 17.0097C67.2974 17.0097 67.6321 18.1692 67.6321 19.7231C67.6321 19.7231 55.7148 17.9899 55.7148 25.0065C55.7148 29.2141 59.0976 31.9872 65.0263 31.9872C71.9471 31.9872 75.6167 28.1861 75.6167 21.5042C75.6167 14.8223 72.1384 11.7502 64.9904 11.7502M65.2175 26.4528C64.0103 26.4528 63.4007 25.7715 63.4007 25.0662C63.4007 22.7473 67.6321 23.596 67.6321 23.596C67.6321 24.8989 67.3213 26.4409 65.2175 26.4409" fill="#9C9C9C"/>
<path d="M36.4814 45.4028L34.0669 42.4503H32.1425V45.4028H27.8633V34.6328H35.6089C38.5971 34.6328 41.0117 35.864 41.0117 38.5415C41.0117 40.2987 39.9837 41.4342 38.4298 42.008L41.3583 45.4147H36.4934L36.4814 45.4028ZM32.1425 39.7369H35.2383C36.0631 39.7369 36.6488 39.462 36.6488 38.6611C36.6488 37.8602 36.0631 37.5853 35.2383 37.5853H32.1425V39.7369Z" fill="#9C9C9C"/>
<path d="M52.0769 43.7054H47.1881L46.4351 45.4028H41.9766L47.3315 34.6328H52.0052L57.3602 45.4028H52.8299L52.0769 43.7054ZM50.9055 41.0876L49.6265 38.2308L48.3475 41.0876H50.9055Z" fill="#9C9C9C"/>
<path d="M75.2333 34.6172L71.3246 45.3991H67.141L65.1927 39.0041L63.2563 45.3991H59.0727L55.1641 34.6172H59.4433L61.284 41.06L63.34 34.6172H67.1171L69.1731 41.06L71.0138 34.6172H75.2333Z" fill="#9C9C9C"/>
</svg>
