<svg width="65" height="66" viewBox="0 0 65 66" fill="none" xmlns="http://www.w3.org/2000/svg">
<path d="M28.1617 41.4414C27.8509 41.4414 27.588 41.537 27.3848 41.7402C27.1816 41.9315 27.0859 42.1945 27.0859 42.4933C27.0859 42.7921 27.1935 43.0432 27.3967 43.2344C27.5999 43.4376 27.8509 43.5332 28.1617 43.5332C28.4724 43.5332 28.7235 43.4376 28.9267 43.2344C29.1299 43.0312 29.2375 42.7802 29.2375 42.4813C29.2375 42.1825 29.1299 41.9434 28.9267 41.7402C28.7235 41.537 28.4725 41.4414 28.1736 41.4414H28.1617Z" fill="#9C9C9C"/>
<path d="M18.7364 25.3802C18.3897 24.8663 17.9355 24.4599 17.4096 24.161C16.8717 23.8622 16.2501 23.7188 15.5329 23.7188C14.8158 23.7188 14.2061 23.8741 13.6563 24.173C13.1065 24.4718 12.6283 24.8782 12.2458 25.3922C11.8633 25.9062 11.5765 26.5158 11.3733 27.1972C11.1701 27.8905 11.0625 28.6196 11.0625 29.3846C11.0625 31.2374 11.4808 32.6598 12.2936 33.64C13.1064 34.6082 14.1942 35.0983 15.5329 35.0983C16.286 35.0983 16.9314 34.931 17.4574 34.5963C17.9953 34.2616 18.4376 33.8193 18.7842 33.2814C19.1309 32.7435 19.3818 32.1219 19.5492 31.4526C19.7165 30.7712 19.8002 30.0779 19.8002 29.3846C19.8002 28.6196 19.7165 27.8904 19.5253 27.2091C19.346 26.5278 19.071 25.9301 18.7244 25.4042L18.7364 25.3802Z" fill="#9C9C9C"/>
<path d="M52.3119 25.44C51.9294 24.926 51.4512 24.4957 50.8775 24.1849C50.3157 23.8741 49.6702 23.7188 48.9411 23.7188C48.2119 23.7188 47.5426 23.8741 46.9808 24.1849C46.419 24.5077 45.9408 24.926 45.5583 25.44C45.1758 25.954 44.877 26.5636 44.6738 27.2569C44.4826 27.9383 44.375 28.6555 44.375 29.3966C44.375 30.1377 44.4706 30.8788 44.6738 31.5601C44.8651 32.2415 45.1639 32.8511 45.5583 33.377C45.9408 33.903 46.4309 34.3213 46.9808 34.6202C47.5426 34.919 48.2 35.0863 48.9411 35.0863C49.6822 35.0863 50.3157 34.931 50.8775 34.6202C51.4393 34.3094 51.9174 33.891 52.3119 33.377C52.6944 32.8511 52.9932 32.2415 53.1844 31.5601C53.3757 30.8788 53.4832 30.1496 53.4832 29.3966C53.4832 28.6435 53.3876 27.9383 53.1844 27.2569C52.9932 26.5756 52.6944 25.966 52.3119 25.44Z" fill="#9C9C9C"/>
<path d="M32.2733 0.84375C14.4513 0.84375 0 15.2953 0 33.1177C0 50.9401 14.4513 65.4037 32.2733 65.4037C50.0953 65.4037 64.5466 50.9521 64.5466 33.1177C64.5466 15.2834 50.0953 0.84375 32.2733 0.84375ZM16.1366 43.8638H15.7422V42.6685H14.1883V43.8638H13.7938V41.1145H14.1883V42.3098H15.7422V41.1145H16.1366V43.8638ZM18.1328 43.8638H16.5311V41.1145H18.085V41.4612H16.9256V42.2979H18.0491V42.6565H16.9256V43.5171H18.1328V43.8638ZM19.9856 43.8638H18.3599V41.1145H18.7544V43.5052H19.9856V43.8638ZM20.2963 31.8507C20.0811 32.6396 19.7584 33.3329 19.3281 33.9306C18.9097 34.5283 18.3719 35.0183 17.7384 35.365C17.1049 35.7116 16.3638 35.8909 15.539 35.8909C14.272 35.8909 13.2201 35.5443 12.4073 34.851C11.8216 34.3609 11.3793 33.7513 11.0805 33.0341V39.7877H10.2677V24.4994H11.0805V25.8382C11.1881 25.611 11.3076 25.3839 11.4391 25.1688C11.726 24.7146 12.0846 24.2962 12.479 23.9615C12.8854 23.6148 13.3515 23.3519 13.8655 23.1606C14.3795 22.9694 14.9533 22.8857 15.551 22.8857C16.3399 22.8857 17.057 23.053 17.6786 23.3758C18.3121 23.6985 18.85 24.1647 19.2803 24.7504C19.7226 25.3242 20.0573 26.0175 20.2844 26.8183C20.5115 27.6073 20.631 28.4679 20.631 29.3883C20.631 30.2489 20.5234 31.0737 20.2963 31.8626V31.8507ZM22.6152 33.2612C22.3881 32.6635 22.2805 31.9702 22.2805 31.1933V23.0889H23.1292V31.1215C23.1292 31.8507 23.2367 32.4723 23.428 32.9743C23.6192 33.4763 23.8942 33.8947 24.2289 34.2175C24.5636 34.5402 24.958 34.7793 25.4003 34.9347C25.8425 35.0781 26.3207 35.1618 26.8227 35.1618C27.3247 35.1618 27.8028 35.0901 28.2451 34.9347C28.6874 34.7793 29.0818 34.5402 29.4165 34.2175C29.7631 33.8947 30.0261 33.4763 30.2293 32.9743C30.4325 32.4723 30.5281 31.8387 30.5281 31.1215V23.0889H31.3768V31.1933C31.3768 31.9702 31.2693 32.6635 31.0422 33.2612C30.8151 33.8708 30.5042 34.3848 30.0978 34.7912C29.6914 35.2096 29.2014 35.5204 28.6396 35.7116C28.1017 35.9148 27.4921 36.0105 26.8227 36.0105C26.1772 36.0105 25.5796 35.9148 25.0417 35.7116C24.4799 35.5084 24.0017 35.1976 23.5834 34.7912C23.177 34.3728 22.8543 33.8708 22.6272 33.2612H22.6152ZM25.6752 43.8638H25.2688V42.4055L24.2528 41.1145H24.7309L25.472 42.0588L26.2131 41.1145H26.6912L25.6752 42.4055V43.8638ZM29.2013 43.4933C28.9145 43.7562 28.5559 43.8877 28.1256 43.8877C27.6953 43.8877 27.3606 43.7562 27.0857 43.4933C26.8108 43.2303 26.6673 42.8956 26.6673 42.4891C26.6673 42.0827 26.8108 41.7361 27.0857 41.4731C27.3606 41.1982 27.7191 41.0667 28.1375 41.0667C28.5559 41.0667 28.9145 41.1982 29.2013 41.4731C29.4882 41.7481 29.6197 42.0827 29.6197 42.4891C29.6197 42.8956 29.4762 43.2303 29.1894 43.4933H29.2013ZM32.2255 42.6685C32.2255 42.8836 32.2135 43.039 32.1776 43.1466C32.1418 43.2542 32.106 43.3378 32.0581 43.4096C32.0103 43.4813 31.9625 43.5411 31.8908 43.6008C31.6756 43.7921 31.3888 43.8877 31.0422 43.8877C30.6955 43.8877 30.3967 43.7921 30.1815 43.6128C30.1217 43.553 30.062 43.4932 30.0141 43.4215C29.9663 43.3498 29.9305 43.2661 29.9066 43.1585C29.8827 43.0509 29.8587 42.8956 29.8587 42.6685V41.1145H30.2532V42.6804C30.2532 42.9434 30.2891 43.1227 30.3369 43.2183C30.3967 43.3259 30.4923 43.3976 30.6118 43.4574C30.7313 43.5171 30.8748 43.553 31.0422 43.553C31.2693 43.553 31.4605 43.4932 31.6159 43.3737C31.6876 43.3139 31.7474 43.2303 31.7832 43.1466C31.8191 43.0629 31.831 42.9075 31.831 42.6924V41.1265H32.2255V42.6924V42.6685ZM36.7916 20.8178C37.2458 20.8178 37.6044 21.2003 37.6044 21.6665C37.6044 22.1326 37.2458 22.5151 36.7916 22.5151C36.3374 22.5151 35.9787 22.1326 35.9787 21.6665C35.9787 21.2003 36.3493 20.8178 36.7916 20.8178ZM37.1979 23.1487V35.6279H36.3851V23.1487H37.1979ZM33.4806 18.4391H34.2934V35.6279H33.4806V18.4391ZM34.2336 43.8518L34.114 43.6725C34.114 43.6725 34.1141 43.6486 34.0902 43.6367L34.0185 43.5291L33.8989 43.3259L33.7674 43.1107C33.6838 42.9912 33.612 42.9075 33.5403 42.8358C33.4686 42.7641 33.4089 42.7163 33.3611 42.6924C33.3013 42.6685 33.2176 42.6445 33.0861 42.6445H32.9785V43.8399H32.5841V41.0906H33.2774C33.5523 41.0906 33.7794 41.1623 33.9467 41.2938C34.1141 41.4372 34.1977 41.6165 34.1977 41.8556C34.1977 42.011 34.1619 42.1545 34.0782 42.274C33.9945 42.3935 33.887 42.4772 33.7316 42.537C33.8153 42.5967 33.8989 42.6804 33.9945 42.776C34.0782 42.8717 34.1977 43.051 34.3531 43.302C34.4487 43.4574 34.5205 43.5769 34.5802 43.6486L34.7237 43.8399H34.2575L34.2336 43.8518ZM37.5327 43.8518L36.1222 42.4891V43.8518H35.7277V41.1026H36.1222V42.3577L37.2816 41.1026H37.7717L36.5764 42.4055L38.0586 43.8518H37.5207H37.5327ZM38.5726 43.8518H38.1781V41.1026H38.5726V43.8518ZM41.0469 41.4492H40.0906V43.8518H39.6962V41.4492H38.7518V41.1026H41.0469V41.4492ZM41.6445 35.6279C41.0827 35.6279 40.5926 35.4486 40.1862 35.102C39.7798 34.7434 39.5766 34.0979 39.5766 33.1895V19.3475H40.3894V23.1606H43.8438V23.9973H40.3894V33.0938C40.3894 33.5242 40.4373 33.8588 40.5209 34.086C40.6046 34.3131 40.7122 34.4685 40.8317 34.576C40.9513 34.6836 41.0827 34.7434 41.2261 34.7553L41.7401 34.7912C41.7401 34.7912 43.0191 34.7912 43.043 34.7912L43.6885 34.7434L43.9275 34.7195V35.5562L43.031 35.616C42.8757 35.6399 41.8597 35.6399 41.6206 35.6399L41.6445 35.6279ZM46.2106 43.8518H45.8161V42.6565H44.2622V43.8518H43.8678V41.1026H44.2622V42.2979H45.8161V41.1026H46.2106V43.8518ZM48.2067 43.8518H46.605V41.1026H48.1709V41.4492H47.0114V42.286H48.135V42.6445H47.0114V43.5052H48.2187V43.8518H48.2067ZM50.9799 43.8518H50.6451L48.8044 41.7361V43.8518H48.4339V41.1026H48.7565L50.6093 43.2422V41.1026H50.9799V43.8518ZM53.9681 31.8268C53.741 32.6038 53.3943 33.309 52.9401 33.9067C52.4859 34.5043 51.9241 34.9824 51.2548 35.353C50.5854 35.7116 49.8084 35.8909 48.9239 35.8909C48.0394 35.8909 47.2863 35.7116 46.617 35.353C45.9476 34.9944 45.3858 34.5163 44.9316 33.9067C44.4774 33.309 44.1307 32.6157 43.9036 31.8268C43.6765 31.0498 43.557 30.225 43.557 29.3883C43.557 28.5516 43.6765 27.7268 43.9036 26.9498C44.1307 26.1728 44.4774 25.4796 44.9316 24.8699C45.3858 24.2723 45.9476 23.7822 46.617 23.4236C47.2863 23.0531 48.0633 22.8738 48.9478 22.8738C49.8324 22.8738 50.5854 23.0531 51.2548 23.4236C51.9241 23.7822 52.4859 24.2842 52.9401 24.8699C53.3943 25.4676 53.741 26.1728 53.9681 26.9498C54.1952 27.7268 54.3147 28.5396 54.3147 29.3883C54.3147 30.237 54.1952 31.0618 53.9681 31.8268Z" fill="#9C9C9C"/>
<path d="M33.6907 41.6327C33.6429 41.5609 33.5831 41.5131 33.4993 41.4892C33.4156 41.4653 33.2839 41.4414 33.0805 41.4414H32.9609V42.314H33.1165C33.3199 42.314 33.4514 42.302 33.5232 42.2662C33.595 42.2303 33.6548 42.1825 33.6907 42.1108C33.7386 42.0391 33.7505 41.9674 33.7505 41.8717C33.7505 41.7761 33.7266 41.7044 33.6787 41.6327H33.6907Z" fill="#9C9C9C"/>
</svg>
