<svg width="120" height="22" viewBox="0 0 120 22" fill="none" xmlns="http://www.w3.org/2000/svg">
<path d="M16.4819 6.33203H0.667969V9.26057H7.11069V20.9749H10.0392V9.26057H16.4819V6.33203Z" fill="#9C9C9C"/>
<path d="M41.3793 21.0705L34.9246 13.9463V20.9749H31.9961V6.33203L41.3793 16.1816L50.7505 6.33203V20.9749H47.822V13.9463L41.3793 21.0705Z" fill="#9C9C9C"/>
<path d="M87.396 6.33203H71.582V9.26057H87.396V6.33203Z" fill="#9C9C9C"/>
<path d="M87.396 12.1875H71.582V15.116H87.396V12.1875Z" fill="#9C9C9C"/>
<path d="M87.396 18.043H71.582V20.9715H87.396V18.043Z" fill="#9C9C9C"/>
<path d="M93.2605 20.9749H90.332V6.33203L103.217 15.1058V6.33203H106.146V20.9749L93.2605 11.9381V20.9749Z" fill="#9C9C9C"/>
<path d="M109.082 0.984375V11.9097H120.007V0.984375H109.082ZM110.265 11.2283C109.99 11.2283 109.763 11.0013 109.763 10.7263C109.763 10.4514 109.99 10.2243 110.265 10.2243C110.54 10.2243 110.767 10.4514 110.767 10.7263C110.767 11.0013 110.54 11.2283 110.265 11.2283ZM110.265 2.68173C109.99 2.68173 109.763 2.45463 109.763 2.17971C109.763 1.90478 109.99 1.67765 110.265 1.67765C110.54 1.67765 110.767 1.90478 110.767 2.17971C110.767 2.45463 110.54 2.68173 110.265 2.68173ZM117.629 9.54296H111.449V3.36308H117.629V9.54296ZM118.812 11.2403C118.537 11.2403 118.31 11.0132 118.31 10.7383C118.31 10.4634 118.537 10.2362 118.812 10.2362C119.087 10.2362 119.314 10.4634 119.314 10.7383C119.314 11.0132 119.087 11.2403 118.812 11.2403ZM118.812 2.69369C118.537 2.69369 118.31 2.46656 118.31 2.19164C118.31 1.91671 118.537 1.68962 118.812 1.68962C119.087 1.68962 119.314 1.91671 119.314 2.19164C119.314 2.46656 119.087 2.69369 118.812 2.69369Z" fill="#9C9C9C"/>
<path d="M16.3834 20.9749L21.7504 12.0218L27.1173 20.9749H30.5358L21.7504 6.33203L12.9648 20.9749H16.3834Z" fill="#9C9C9C"/>
<path d="M68.6568 6.33203L56.6082 12.3565V6.33203H53.6797V20.9749H56.6082V14.9504L68.6568 20.9749V17.5562L60.5885 13.6475L68.6568 9.75066V6.33203Z" fill="#9C9C9C"/>
</svg>
