<svg width="129" height="22" viewBox="0 0 129 22" fill="none" xmlns="http://www.w3.org/2000/svg">
<path d="M127.905 20.9897C126.638 18.5871 125.383 16.1845 124.104 13.7818C123.912 13.4232 123.924 13.2559 124.331 13.0766C127.367 11.7617 128.263 8.36697 127.187 5.6177C126.303 3.37048 124.116 2.00781 121.39 2.00781C117.517 2.00781 113.645 2.00781 109.76 2.00781C109.593 2.00781 109.425 2.03172 109.258 2.04367V21.5037C111.182 21.5037 113.047 21.4917 114.9 21.5037C115.366 21.5037 115.39 21.2885 115.39 20.9299C115.39 18.9576 115.39 16.9734 115.39 15.0011V14.3317C116.083 14.3317 116.693 14.3436 117.29 14.3317C117.649 14.3197 117.84 14.4393 117.996 14.774C118.976 16.8538 120.004 18.9218 120.984 21.0136C121.163 21.3841 121.366 21.5157 121.785 21.5157C123.721 21.4917 125.657 21.5156 127.594 21.5037C127.737 21.5037 127.881 21.4798 128.096 21.4678C128.012 21.2646 127.952 21.1212 127.881 20.9897H127.905ZM119.561 10.0166C118.199 10.0166 116.836 10.0166 115.414 10.0166V6.5142C115.605 6.50225 115.784 6.46642 115.975 6.46642C117.171 6.46642 118.354 6.46642 119.549 6.46642C120.601 6.46642 121.33 7.19557 121.318 8.22356C121.318 9.25154 120.577 10.0046 119.561 10.0166Z" fill="#9C9C9C"/>
<path d="M95.1671 15.6304C95.1671 15.6304 95.1671 15.6065 95.1671 15.5946V15.3794C95.1671 15.3794 95.1671 15.3794 95.1671 15.3675V14.0646V13.7538H104.275V9.2713H95.1671V8.41066C95.1671 8.41066 95.1671 8.39869 95.1671 8.38673V7.68149V6.90453V6.59373H95.693C95.693 6.59373 95.7528 6.59373 95.7886 6.59373C98.8845 6.60569 101.968 6.59373 105.064 6.59373H105.722V2.01562H89.0352V21.4278C89.1069 21.4517 89.1427 21.4637 89.1786 21.4637C94.6172 21.4637 100.056 21.4637 105.495 21.4637C105.614 21.4637 105.698 21.4517 105.757 21.4159V16.766H95.1551V15.6185L95.1671 15.6304Z" fill="#9C9C9C"/>
<path d="M66.7227 6.92842H71.5876C71.8505 6.92842 72.1255 6.92842 72.3884 6.92842C72.4482 6.92842 72.508 6.92842 72.5677 6.92842H72.998V21.4637H74.1814C74.289 21.4637 74.4085 21.4637 74.54 21.4637H79.2256V20.4357C79.2256 18.0331 79.2256 15.6424 79.2256 13.2398V6.92842H79.7515C79.7515 6.92842 79.8591 6.92842 79.9189 6.92842C80.1579 6.92842 80.385 6.92842 80.6241 6.92842H85.5368V2.01562H66.7227V6.92842Z" fill="#9C9C9C"/>
<path d="M44.7617 6.92842H49.6266C49.8896 6.92842 50.1645 6.92842 50.4275 6.92842C50.4872 6.92842 50.547 6.92842 50.6068 6.92842H51.0371V21.4637H52.2204C52.328 21.4637 52.4475 21.4637 52.579 21.4637H57.2646V20.4357C57.2646 18.0331 57.2646 15.6424 57.2646 13.2398V6.92842H57.7906C57.7906 6.92842 57.8981 6.92842 57.9579 6.92842C58.1969 6.92842 58.424 6.92842 58.6631 6.92842H63.5758V2.01562H44.7617V6.92842Z" fill="#9C9C9C"/>
<path d="M16.6369 12.0443C16.2066 11.8411 15.7524 11.6738 15.2384 11.4706C15.2384 11.4706 15.2624 11.4706 15.2624 11.4586C15.4536 11.3988 16.0393 11.2076 16.6489 10.7653C18.7527 9.39069 18.9439 6.24694 17.904 4.53762C16.8641 2.82829 15.2863 2.05133 13.3379 2.03938C9.13043 2.00352 4.92295 2.03938 0.715468 2.03938C0.583984 2.03938 0.452499 2.05132 0.285156 2.06327V21.4994C0.392734 21.5113 0.464442 21.5353 0.536161 21.5353C4.87513 21.5353 9.22605 21.595 13.565 21.5114C15.5731 21.4755 17.2944 20.6746 18.3462 18.8219C19.0395 17.6026 19.0754 16.2758 18.8005 14.949C18.5375 13.658 17.8442 12.642 16.6131 12.0802L16.6369 12.0443ZM6.44098 7.17933V6.27086H8.54473C9.32168 6.27086 10.0986 6.27085 10.8875 6.29476C11.7242 6.31866 12.3339 7.13151 12.298 8.07583C12.2621 9.03209 11.6645 9.67757 10.7919 9.67757C9.36948 9.67757 7.94707 9.67757 6.44098 9.67757C6.44098 8.79302 6.44098 7.9802 6.44098 7.17933ZM12.6327 16.0009C12.4653 16.5985 11.8796 17.0289 11.1505 17.0289C9.74003 17.0408 8.32957 17.0289 6.93106 17.0289C6.83544 17.0289 6.76372 17.0288 6.70395 17.0049H6.44098V16.7181C6.44098 16.7181 6.42903 16.5985 6.42903 16.5149C6.45294 15.5825 6.42903 14.6502 6.42903 13.6341C8.17418 13.6341 9.81175 13.6341 11.4493 13.6341C11.6286 13.6341 11.8318 13.7297 11.9872 13.8254C12.6327 14.2198 12.8717 15.0685 12.6207 15.977L12.6327 16.0009Z" fill="#9C9C9C"/>
<path d="M25.0809 8.85269C25.0809 8.85269 25.1048 8.85269 25.1167 8.85269C25.81 8.70925 26.3957 8.31479 26.7902 7.72907C27.1966 7.13141 27.34 6.4142 27.1966 5.70896C27.0651 5.00371 26.6587 4.3941 26.061 3.99964C25.4634 3.59323 24.7462 3.44979 24.0529 3.59323C23.3596 3.72472 22.7381 4.13111 22.3317 4.72878C21.9253 5.32644 21.7818 6.04367 21.9253 6.73696C22.0567 7.44221 22.4631 8.05183 23.0608 8.45825C23.6585 8.86466 24.3756 9.00809 25.0809 8.86465V8.85269Z" fill="#9C9C9C"/>
<path d="M38.2032 6.298C38.2032 6.298 38.2271 6.298 38.239 6.298C38.9323 6.15456 39.518 5.7601 39.9124 5.17439C40.3189 4.57672 40.4623 3.85952 40.3188 3.15427C40.1874 2.44902 39.781 1.83941 39.1833 1.44495C38.5857 1.03854 37.8685 0.895105 37.1752 1.03855C36.47 1.18199 35.8603 1.57646 35.4539 2.17413C35.0475 2.77179 34.9041 3.48898 35.0356 4.18228C35.1671 4.88752 35.5735 5.49714 36.1711 5.90356C36.7688 6.30997 37.486 6.45341 38.1912 6.30997L38.2032 6.298Z" fill="#9C9C9C"/>
<path d="M41.3245 11.7707L37.894 11.7109C37.7147 11.7109 37.5593 11.8424 37.5593 12.0337C37.5593 12.3206 37.5115 13.0617 37.38 13.6354C36.9139 15.4643 35.6827 16.803 34.0093 17.3051L34.0571 17.4844L33.9495 17.329C33.8898 17.3529 33.818 17.3649 33.7583 17.3768L33.8061 17.5561L33.7224 17.3888C33.7224 17.3888 33.6387 17.4127 33.5909 17.4246C33.5431 17.4246 33.4834 17.4486 33.4355 17.4486C31.6306 17.7593 29.8377 17.0182 28.6424 15.4882C28.2838 14.9981 27.9491 14.3168 27.8176 14.0538C27.7339 13.8865 27.5427 13.8147 27.3873 13.8984L24.2675 15.3209C24.1121 15.3926 24.0285 15.5719 24.1002 15.7392C24.2078 16.0022 24.4229 16.5401 24.7098 17.078C24.7456 17.1497 24.7815 17.2214 24.8293 17.2932C24.901 17.4246 24.9847 17.5681 25.0684 17.6876C27.2438 21.178 31.3079 22.1462 34.3918 21.5724L34.4874 21.5485H34.5711C34.5711 21.5485 34.6667 21.5127 34.7026 21.5007L34.7862 21.4768C34.9297 21.441 35.0611 21.4051 35.2046 21.3692L35.348 21.3214C37.9538 20.4966 40.954 18.2136 41.5517 14.2929C41.5756 14.1375 41.5995 13.9701 41.6114 13.8147V13.6235C41.6832 12.966 41.6592 12.3445 41.6592 12.1054C41.6592 11.9261 41.5039 11.7946 41.3365 11.7946L41.3245 11.7707Z" fill="#9C9C9C"/>
</svg>
