<svg width="102" height="31" viewBox="0 0 102 31" fill="none" xmlns="http://www.w3.org/2000/svg">
<path d="M6.46586 10.4731C7.88828 10.4731 8.98794 9.40921 8.98794 7.69988C8.98794 5.99056 7.95999 4.93867 6.60929 4.93867H5.2108V10.4731H6.46586ZM10.6016 12.1824C12.6217 13.0191 13.8648 15.2185 13.8648 17.92C13.8648 21.757 11.4622 24.4824 6.74076 24.4824H0.835938V0.898438H6.81247C10.9482 0.898438 13.4703 3.07397 13.4703 6.89903C13.4703 9.2897 12.4424 11.1305 10.6016 12.1824ZM5.2108 14.334V20.4182H6.58536C8.37832 20.4182 9.35848 19.3305 9.35848 17.406C9.35848 15.4815 8.31859 14.334 6.54954 14.334H5.2108Z" fill="#9C9C9C"/>
<path d="M83.4612 0.898438H79.0625V24.4824H83.4612V0.898438Z" fill="#9C9C9C"/>
<path d="M63.9768 10.75H59.5781V14.1567H63.9768V10.75Z" fill="#9C9C9C"/>
<path d="M48.969 20.3704H50.0926C52.3876 20.3704 53.8459 17.7168 53.8459 12.6008C53.8459 7.17394 52.2203 4.98649 49.8775 4.98649H48.981V20.3704H48.969ZM44.5703 0.898438H49.8775C55.7106 0.898438 58.4 5.27336 58.4 12.4812C58.4 19.6891 55.9018 24.4704 50.1883 24.4704H44.5703V0.898438Z" fill="#9C9C9C"/>
<path d="M19.8368 15.6325L21.4624 5.97424L22.8968 15.6325H19.8488H19.8368ZM24.1997 24.4899H28.8733L24.5463 0.917969H18.4981L13.8125 24.4899H18.3547L19.1555 19.6847H23.4945L24.2117 24.4899H24.1997Z" fill="#9C9C9C"/>
<path d="M69.0207 15.6325L70.6463 5.97424L72.0806 15.6325H69.0326H69.0207ZM73.3835 24.4899H78.0452L73.7182 0.917969H67.67L62.9844 24.4899H67.5265L68.3274 19.6847H72.6663L73.3835 24.4899Z" fill="#9C9C9C"/>
<path d="M38.8058 12.804V0.898438H43.1208V24.4704H39.2361L34.1083 12.3736V24.4704H29.7812V0.898438H33.678L38.8058 12.804Z" fill="#9C9C9C"/>
<path d="M89.2857 20.3704H90.4093C92.7043 20.3704 94.1626 17.7168 94.1626 12.6008C94.1626 7.17394 92.5369 4.98649 90.1941 4.98649H89.2977V20.3704H89.2857ZM84.875 0.898438H90.1822C96.0153 0.898438 98.7048 5.27336 98.7048 12.4812C98.7048 19.6891 96.2065 24.4704 90.493 24.4704H84.875V0.898438Z" fill="#9C9C9C"/>
<path d="M101.849 2.17377C101.849 1.12187 101.048 0.285156 99.9241 0.285156C98.8005 0.285156 98.0234 1.12187 98.0234 2.17377C98.0234 3.22566 98.8243 4.07438 99.9479 4.07438C101.071 4.07438 101.849 3.23761 101.849 2.17377ZM101.621 2.17377C101.621 3.11808 100.94 3.87115 99.9359 3.87115C98.9318 3.87115 98.2387 3.11808 98.2387 2.17377C98.2387 1.22945 98.8961 0.488379 99.9121 0.488379C100.928 0.488379 101.621 1.24141 101.621 2.17377ZM100.259 2.30527C100.534 2.25746 100.725 2.01839 100.725 1.74346C100.725 1.40877 100.51 1.16969 100.079 1.16969H99.183V3.11809H99.4699V2.32916H99.9479L100.426 3.11809H100.737L100.235 2.30527H100.259ZM100.426 1.75543C100.426 1.94668 100.318 2.07816 100.091 2.07816H99.4818V1.43267H100.091C100.306 1.43267 100.414 1.56418 100.414 1.75543" fill="#9C9C9C"/>
<path d="M87.4395 29.3698H86.2562V29.0351H87.8459V29.2742C87.8459 30.087 87.2722 30.6129 86.2562 30.6129C85.2401 30.6129 84.5469 30.0153 84.5469 29.0471C84.5469 28.0788 85.2162 27.4453 86.2322 27.4453C86.9972 27.4453 87.6427 27.8398 87.7383 28.3657H87.308C87.1885 28.031 86.7462 27.8159 86.2203 27.8159C85.4553 27.8159 84.9772 28.282 84.9772 29.0471C84.9772 29.8121 85.4911 30.2663 86.3039 30.2663C87.057 30.2663 87.4395 29.8838 87.4395 29.3817" fill="#9C9C9C"/>
<path d="M2.74889 30.1766C3.21506 30.1766 3.39433 29.9973 3.39433 29.6746C3.39433 29.3996 3.17921 29.1725 2.76086 29.1725H1.23083V30.1766H2.74889ZM2.65325 28.8259C3.0477 28.8259 3.26286 28.6585 3.26286 28.3717C3.26286 28.0848 3.08354 27.9175 2.713 27.9175H1.23083V28.8259H2.65325ZM3.81273 29.6985C3.81273 30.2603 3.44213 30.5352 2.713 30.5352H0.8125V27.5469H2.72496C3.32262 27.5469 3.68119 27.8099 3.68119 28.3119C3.68119 28.5988 3.48996 28.8617 3.17918 28.9693C3.57364 29.0769 3.81273 29.3518 3.81273 29.6985Z" fill="#9C9C9C"/>
<path d="M64.1667 30.1766C64.6209 30.1766 64.8002 29.9973 64.8002 29.6746C64.8002 29.3996 64.585 29.1725 64.1667 29.1725H62.6486V30.1766H64.1667ZM64.071 28.8259C64.4655 28.8259 64.6807 28.6585 64.6807 28.3717C64.6807 28.0848 64.5013 27.9175 64.1308 27.9175H62.6486V28.8259H64.071ZM65.2305 29.6985C65.2305 30.2603 64.8599 30.5352 64.1428 30.5352H62.2422V27.5469H64.1547C64.7524 27.5469 65.111 27.8099 65.111 28.3119C65.111 28.5988 64.9197 28.8617 64.6089 28.9693C65.0153 29.0769 65.2424 29.3518 65.2424 29.6985" fill="#9C9C9C"/>
<path d="M7.15459 28.9813C7.5849 28.9813 7.80003 28.7781 7.80003 28.4553C7.80003 28.1326 7.58493 27.9175 7.17852 27.9175H5.85168V28.9813H7.15459ZM7.34581 29.316L8.32597 30.5352H7.84789L6.90355 29.3399H5.85168V30.5352H5.44531V27.5469H7.23827C7.88374 27.5469 8.24229 27.8935 8.24229 28.4434C8.24229 28.9096 7.90762 29.2562 7.35777 29.316" fill="#9C9C9C"/>
<path d="M16.8346 27.5469H17.2291V30.5352H16.8226L14.7189 28.0848V30.5352H14.3125V27.5469H14.7308L16.8346 29.9973V27.5469Z" fill="#9C9C9C"/>
<path d="M19.4142 30.1647H20.4661C21.2311 30.1647 21.6136 29.7582 21.6136 29.041C21.6136 28.3238 21.2072 27.9055 20.4422 27.9055H19.4023V30.1647H19.4142ZM19.0078 27.5469H20.49C21.4701 27.5469 22.0558 28.1326 22.0558 29.041C22.0558 29.9495 21.4941 30.5352 20.5019 30.5352H19.0078V27.5469Z" fill="#9C9C9C"/>
<path d="M30.8834 30.1647H31.9353C32.7003 30.1647 33.0828 29.7582 33.0828 29.041C33.0828 28.3238 32.6764 27.9055 31.9114 27.9055H30.8834V30.1647ZM30.4651 27.5469H31.9473C32.9274 27.5469 33.5131 28.1326 33.5131 29.041C33.5131 29.9495 32.9513 30.5352 31.9473 30.5352H30.4531V27.5469H30.4651Z" fill="#9C9C9C"/>
<path d="M76.3126 30.1647H77.3645C78.1295 30.1647 78.512 29.7582 78.512 29.041C78.512 28.3238 78.1056 27.9055 77.3406 27.9055H76.3006V30.1647H76.3126ZM75.9062 27.5469H77.3884C78.3686 27.5469 78.9543 28.1326 78.9543 29.041C78.9543 29.9495 78.3925 30.5352 77.3884 30.5352H75.9062V27.5469Z" fill="#9C9C9C"/>
<path d="M35.559 29.1845V30.5352H35.1406V27.5469H35.559V28.814H37.6747V27.5469H38.0931V30.5352H37.6747V29.1845H35.559Z" fill="#9C9C9C"/>
<path d="M48.9813 27.5469H48.5625V30.5352H48.9813V27.5469Z" fill="#9C9C9C"/>
<path d="M53.2584 27.5469H53.7007L52.3141 30.5352H51.824L50.4375 27.5469H50.8916L52.0751 30.2005L53.2584 27.5469Z" fill="#9C9C9C"/>
<path d="M73.7289 27.5469H74.1353V30.5352H73.717L71.6132 28.0848V30.5352H71.2188V27.5469H71.6252L73.7289 29.9973V27.5469Z" fill="#9C9C9C"/>
<path d="M89.6016 30.5352V27.5469H92.2193V27.9175H90.02V28.814H91.9205V29.1725H90.02V30.1647H92.2552V30.5352H89.6016Z" fill="#9C9C9C"/>
<path d="M55.1562 30.5352V27.5469H57.774V27.9175H55.5747V28.814H57.4632V29.1725H55.5747V30.1647H57.7979V30.5352H55.1562Z" fill="#9C9C9C"/>
<path d="M39.875 30.5352V27.5469H42.4927V27.9175H40.2933V28.814H42.1939V29.1725H40.2933V30.1647H42.5285V30.5352H39.875Z" fill="#9C9C9C"/>
<path d="M96.148 28.3421C96.0763 28.0074 95.7416 27.7922 95.1559 27.7922C94.5702 27.7922 94.2833 27.9834 94.2833 28.2942C94.2833 29.2027 96.6739 28.3779 96.6739 29.6928C96.6739 30.2307 96.2197 30.6132 95.2515 30.6132C94.4865 30.6132 93.841 30.2785 93.7812 29.633H94.2115C94.2594 30.0753 94.7375 30.2546 95.2634 30.2546C95.8611 30.2546 96.2555 30.0634 96.2555 29.7048C96.2555 28.7843 93.8769 29.6211 93.8769 28.2942C93.8769 27.8161 94.2952 27.4336 95.1917 27.4336C95.9687 27.4336 96.4827 27.7803 96.5544 28.3182H96.148V28.3421Z" fill="#9C9C9C"/>
<path d="M10.3965 29.4833L11.1376 27.774L11.9026 29.4833H10.3965ZM12.3688 30.5352H12.7991L11.4245 27.5469H10.8627L9.5 30.5352H9.93037L10.2292 29.8419H12.046L12.3568 30.5352H12.3688Z" fill="#9C9C9C"/>
<path d="M26.5762 29.4833L27.3173 27.774L28.0823 29.4833H26.5762ZM28.5484 30.5352H28.9787L27.6041 27.5469H27.0424L25.6797 30.5352H26.11L26.4088 29.8419H28.2257L28.5365 30.5352H28.5484Z" fill="#9C9C9C"/>
<path d="M67.3027 29.4833L68.0558 27.774L68.8088 29.4833H67.3027ZM69.2749 30.5352H69.7052L68.3307 27.5469H67.7688L66.4062 30.5352H66.8365L67.1354 29.8419H68.9523L69.263 30.5352H69.2749Z" fill="#9C9C9C"/>
<path d="M80.9668 29.4833L81.7198 27.774L82.4729 29.4833H80.9668ZM82.939 30.5352H83.3694L81.9947 27.5469H81.4329L80.0703 30.5352H80.5006L80.7994 29.8419H82.6163L82.927 30.5352H82.939Z" fill="#9C9C9C"/>
<path d="M46.4371 28.3421C46.3654 28.0074 46.0306 27.7922 45.4449 27.7922C44.8592 27.7922 44.5724 27.9834 44.5724 28.2942C44.5724 29.2027 46.963 28.3779 46.963 29.6928C46.963 30.2307 46.5088 30.6132 45.5406 30.6132C44.7756 30.6132 44.1301 30.2785 44.0703 29.633H44.5007C44.5485 30.0753 45.0266 30.2546 45.5526 30.2546C46.1502 30.2546 46.5566 30.0634 46.5566 29.7048C46.5566 28.7843 44.1779 29.6211 44.1779 28.2942C44.1779 27.8161 44.5963 27.4336 45.5047 27.4336C46.2816 27.4336 46.7956 27.7803 46.8674 28.3182H46.4609L46.4371 28.3421Z" fill="#9C9C9C"/>
</svg>
