<svg width="692" height="164" viewBox="0 0 692 164" fill="none" xmlns="http://www.w3.org/2000/svg">
<path d="M85.113 163.473C70.137 163.473 56.253 160.431 43.461 154.347C30.825 148.263 20.529 139.215 12.573 127.203C4.77298 115.191 0.872985 101.463 0.872985 86.0192C0.872985 74.6312 3.13498 63.8672 7.65898 53.7272C12.183 43.5872 17.955 35.0852 24.975 28.2212C32.151 21.2012 40.029 15.5852 48.609 11.3732C57.345 7.00518 66.003 4.50918 74.583 3.88518C102.195 1.85718 121.461 7.62918 132.381 21.2012C135.657 25.7252 136.281 29.7812 134.253 33.3692C132.381 36.9572 129.417 38.7512 125.361 38.7512C122.865 38.7512 120.447 37.7372 118.107 35.7092C115.923 33.5252 113.739 30.9512 111.555 27.9872C109.527 24.8672 107.265 21.8252 104.769 18.8612C102.273 15.8972 98.997 13.4012 94.941 11.3732C91.041 9.18918 86.673 8.09718 81.837 8.09718C63.585 8.09718 48.609 14.1032 36.909 26.1152C25.209 37.9712 19.359 54.8192 19.359 76.6592C19.359 87.1112 20.919 97.1732 24.039 106.845C27.159 116.517 31.605 125.175 37.377 132.819C43.305 140.463 50.793 146.625 59.841 151.305C69.045 155.829 79.263 158.091 90.495 158.091C97.047 158.091 103.521 156.687 109.917 153.879C116.469 150.915 122.085 147.327 126.765 143.115C131.445 138.903 135.423 134.769 138.699 130.713C141.975 126.657 144.315 123.069 145.719 119.949L149.463 122.523C147.591 125.487 146.343 127.515 145.719 128.607C145.095 129.543 143.379 131.805 140.571 135.393C137.763 138.981 135.345 141.711 133.317 143.583C131.445 145.299 128.559 147.717 124.659 150.837C120.915 153.801 117.249 156.063 113.661 157.623C110.073 159.183 105.783 160.509 100.791 161.601C95.799 162.849 90.573 163.473 85.113 163.473ZM213.409 47.6432C216.685 48.4232 218.713 50.0612 219.493 52.5572C220.429 54.8972 220.195 57.0812 218.791 59.1092C217.543 61.1372 215.749 62.1512 213.409 62.1512C212.005 62.1512 210.055 61.8392 207.559 61.2152C205.219 60.4352 203.191 59.9672 201.475 59.8112C199.759 59.4992 197.107 59.7332 193.519 60.5132C186.967 62.2292 182.053 67.6892 178.777 76.8932V131.181C178.777 140.229 179.401 146.547 180.649 150.135C182.053 153.567 184.471 155.829 187.903 156.921V159.729H152.335V156.921C155.923 155.829 158.263 153.567 159.355 150.135C160.603 146.703 161.227 140.385 161.227 131.181V79.7012C161.227 72.2132 160.525 67.2212 159.121 64.7252C157.873 62.0732 155.611 60.4352 152.335 59.8112V56.5352L175.969 47.6432H178.777V68.9372C182.209 62.0732 187.279 56.4572 193.987 52.0892C200.695 47.5652 207.169 46.0832 213.409 47.6432ZM320.4 128.607L322.506 130.479C307.062 151.695 289.356 162.303 269.388 162.303C263.148 162.303 256.908 161.133 250.668 158.793C244.584 156.453 238.89 153.099 233.586 148.731C228.438 144.363 224.226 138.591 220.95 131.415C217.83 124.083 216.27 115.971 216.27 107.079C216.27 89.2952 222.042 74.7092 233.586 63.3212C245.286 51.9332 259.17 46.2392 275.238 46.2392C288.966 46.2392 299.886 50.0612 307.998 57.7052C316.11 65.3492 320.322 74.7092 320.634 85.7852H232.884C232.416 89.2172 232.182 92.7272 232.182 96.3152C232.182 111.759 236.55 124.239 245.286 133.755C254.178 143.271 265.878 148.029 280.386 148.029C295.518 148.029 308.856 141.555 320.4 128.607ZM267.984 50.2172C258.78 50.0612 251.214 53.0252 245.286 59.1092C239.358 65.1932 235.458 73.1492 233.586 82.9772H302.616C301.368 74.5532 297.624 66.9872 291.384 60.2792C285.3 53.5712 277.5 50.2172 267.984 50.2172ZM426.886 131.415C426.886 140.619 427.432 146.937 428.524 150.369C429.772 153.801 432.19 156.063 435.778 157.155V159.963H432.268C426.028 159.963 420.646 157.779 416.122 153.411C411.754 148.887 409.57 143.505 409.57 137.265V133.521C408.946 134.301 408.166 135.315 407.23 136.563C406.294 137.811 404.11 140.151 400.678 143.583C397.402 146.859 394.048 149.745 390.616 152.241C387.184 154.737 382.738 157.077 377.278 159.261C371.974 161.289 366.67 162.303 361.366 162.303C352.63 162.303 345.22 159.729 339.136 154.581C333.052 149.277 330.01 142.023 330.01 132.819C330.01 128.295 330.946 124.161 332.818 120.417C334.69 116.673 337.03 113.553 339.838 111.057C342.646 108.405 346.39 105.987 351.07 103.803C355.906 101.463 360.43 99.5912 364.642 98.1872C368.854 96.6272 374.08 94.9892 380.32 93.2732L409.57 85.3172C409.57 74.2412 406.84 65.5832 401.38 59.3432C396.076 53.1032 388.666 49.9832 379.15 49.9832C374.626 49.9832 370.492 51.1532 366.748 53.4932C363.16 55.6772 360.274 58.3292 358.09 61.4492C356.062 64.4132 354.112 67.3772 352.24 70.3412C350.368 73.3052 348.34 75.4892 346.156 76.8932C344.128 78.2972 341.866 78.4532 339.37 77.3612C335.47 75.6452 335.236 72.0572 338.668 66.5972C343.192 59.1092 350.992 53.4152 362.068 49.5152C368.776 47.3312 375.718 46.2392 382.894 46.2392C396.934 46.2392 407.776 49.5932 415.42 56.3012C423.064 62.8532 426.886 72.9152 426.886 86.4872V131.415ZM409.57 128.373V88.3592L381.256 96.0812C376.42 97.3292 372.208 98.7332 368.62 100.293C365.032 101.697 361.444 103.647 357.856 106.143C354.268 108.483 351.538 111.369 349.666 114.801C347.794 118.233 346.858 122.133 346.858 126.501C346.858 133.833 349.042 140.073 353.41 145.221C357.934 150.369 363.394 152.943 369.79 152.943C374.47 152.943 379.072 152.085 383.596 150.369C388.12 148.653 391.864 146.625 394.828 144.285C397.792 141.789 400.444 139.371 402.784 137.031C405.124 134.535 406.84 132.429 407.932 130.713L409.57 128.373ZM496.342 145.689C496.654 146.313 497.122 147.405 497.746 148.965C488.386 157.857 479.26 162.303 470.368 162.303C455.236 162.303 447.67 151.539 447.67 130.011V50.9192H433.396V47.6432C437.14 47.6432 440.728 46.7072 444.16 44.8352C447.592 42.9632 450.322 40.7012 452.35 38.0492C454.534 35.2412 456.328 32.5112 457.732 29.8592C459.292 27.2072 460.462 24.8672 461.242 22.8392L462.178 20.0312H465.22V47.6432H484.408V50.9192H465.22V130.011C465.22 144.207 470.524 151.305 481.132 151.305C486.28 151.305 491.35 149.433 496.342 145.689ZM555.457 46.2392C562.789 46.2392 569.809 47.4092 576.517 49.7492C583.225 51.9332 589.465 55.2092 595.237 59.5772C601.009 63.9452 605.611 69.9512 609.043 77.5952C612.475 85.0832 614.191 93.5852 614.191 103.101C614.191 112.305 612.397 120.807 608.809 128.607C605.221 136.251 600.541 142.491 594.769 147.327C588.997 152.007 582.679 155.673 575.815 158.325C569.107 160.977 562.321 162.303 555.457 162.303C548.125 162.303 541.027 161.133 534.163 158.793C527.455 156.453 521.215 153.099 515.443 148.731C509.827 144.207 505.303 138.201 501.871 130.713C498.439 123.225 496.723 114.801 496.723 105.441C496.723 88.4372 502.573 74.3192 514.273 63.0872C525.973 51.8552 539.701 46.2392 555.457 46.2392ZM562.243 157.389C573.631 157.389 582.289 153.489 588.217 145.689C594.145 137.889 597.109 128.139 597.109 116.439C597.109 106.455 595.003 96.3932 590.791 86.2532C586.735 75.9572 580.729 67.2992 572.773 60.2792C564.973 53.2592 556.471 49.9832 547.267 50.4512C536.347 50.9192 528.079 55.1312 522.463 63.0872C516.847 70.8872 514.039 80.7152 514.039 92.5712C514.039 102.399 515.911 112.227 519.655 122.055C523.399 131.883 529.093 140.229 536.737 147.093C544.381 153.957 552.883 157.389 562.243 157.389ZM683.877 47.6432C687.153 48.4232 689.181 50.0612 689.961 52.5572C690.897 54.8972 690.663 57.0812 689.259 59.1092C688.011 61.1372 686.217 62.1512 683.877 62.1512C682.473 62.1512 680.523 61.8392 678.027 61.2152C675.687 60.4352 673.659 59.9672 671.943 59.8112C670.227 59.4992 667.575 59.7332 663.987 60.5132C657.435 62.2292 652.521 67.6892 649.245 76.8932V131.181C649.245 140.229 649.869 146.547 651.117 150.135C652.521 153.567 654.939 155.829 658.371 156.921V159.729H622.803V156.921C626.391 155.829 628.731 153.567 629.823 150.135C631.071 146.703 631.695 140.385 631.695 131.181V79.7012C631.695 72.2132 630.993 67.2212 629.589 64.7252C628.341 62.0732 626.079 60.4352 622.803 59.8112V56.5352L646.437 47.6432H649.245V68.9372C652.677 62.0732 657.747 56.4572 664.455 52.0892C671.163 47.5652 677.637 46.0832 683.877 47.6432Z" fill="#BBF027"/>
</svg>
