<svg width="401" height="108" viewBox="0 0 401 108" fill="none" xmlns="http://www.w3.org/2000/svg">
<path d="M59.1585 18.6611C58.4239 22.843 57.7491 27.2521 57.134 31.8885C56.755 34.528 56.3768 37.1353 55.9992 39.7104C55.6875 42.2222 55.2481 44.6667 54.681 47.044C54.5382 47.6867 54.4634 48.1695 54.4565 48.4922C54.3796 49.0718 54.3041 49.5868 54.23 50.0372C54.1572 50.4231 53.8544 50.9979 53.3216 51.7615C52.4111 52.065 51.7024 51.9854 51.1956 51.5226C50.7534 51.0612 50.5096 50.3779 50.4643 49.4729C50.3448 49.0183 50.2898 48.5651 50.2994 48.1133C50.309 47.6615 50.32 47.1451 50.3323 46.5642C50.3433 46.0478 50.355 45.4992 50.3673 44.9182C50.381 44.2728 50.4256 43.6925 50.5011 43.1775C50.508 42.8548 50.5162 42.4675 50.5258 42.0157C50.5368 41.4993 50.5793 41.0159 50.6535 40.5654C50.0012 40.8745 49.3173 41.1505 48.6018 41.3936C47.9522 41.5735 47.2689 41.8173 46.5521 42.125C45.8352 42.4326 45.2165 42.6778 44.696 42.8605C44.1755 43.0431 43.3934 43.3817 42.3497 43.8761C41.4461 43.8569 40.5033 44.1598 39.5214 44.7847L36.2048 45.8766C34.9029 46.3655 33.4698 46.9486 31.9056 47.6257C30.4073 48.2396 28.8109 48.916 27.1162 49.6549C26.4639 49.964 25.8115 50.273 25.1592 50.582C24.5069 50.891 23.8546 51.2001 23.2022 51.5091C22.3659 51.3622 21.6964 50.9605 21.1937 50.304C20.7569 49.5844 20.4795 48.9651 20.3614 48.4459C20.1265 47.3432 20.3037 46.6043 20.8928 46.2294C21.5465 45.8558 22.262 45.6127 23.0393 45.5C23.6875 45.3847 24.0116 45.327 24.0116 45.327C28.3115 43.5456 32.8043 41.8006 37.4901 40.0921C42.2404 38.3849 46.8911 36.8047 51.4423 35.3515C51.5961 34.1924 51.7485 33.0979 51.8995 32.0679C52.0505 31.0379 52.2016 30.0079 52.3526 28.9779C52.5901 26.9165 52.8263 24.9196 53.0611 22.9873C53.3604 21.0564 53.7249 19.0946 54.1547 17.1019C55.1572 15.5088 56.2291 15.2087 57.3704 16.2015C57.8826 16.4062 58.1992 16.7035 58.3201 17.0935C58.4423 17.419 58.7218 17.9415 59.1585 18.6611ZM12.8131 34.434C11.9905 36.6767 11.3925 38.9888 11.019 41.3701C10.7101 43.7529 10.4342 46.104 10.1911 48.4236C10.1019 49.5841 10.0724 50.9718 10.1027 52.5869C10.1343 54.1374 10.3665 55.3693 10.7991 56.2825C11.7357 54.7526 12.355 52.9576 12.6571 50.8976C13.0237 48.839 13.2289 46.7769 13.2728 44.7114C13.2879 44.0014 13.27 43.3229 13.2192 42.6761C13.2343 41.9661 13.2493 41.2561 13.2644 40.5461C13.274 40.0942 13.2541 39.5126 13.2046 38.8012C13.2197 38.0912 13.2334 37.4458 13.2458 36.8648C13.1208 36.6685 13.0288 36.4405 12.9697 36.1809C12.9106 35.9214 13.015 35.5684 13.2828 35.1221L14.1686 34.4628C15.0077 34.4807 15.6806 34.721 16.1874 35.1838C16.7587 35.6479 17.1027 36.1719 17.2195 36.7555C17.2786 37.0151 17.3054 37.274 17.2999 37.5321C17.3589 37.7917 17.4173 38.0835 17.475 38.4076C17.5931 38.9268 17.7099 39.5104 17.8253 40.1586C17.942 40.7423 17.929 41.3555 17.7862 41.9982C18.0334 42.5201 18.1501 43.1037 18.1364 43.7492C18.1241 44.3301 18.0795 44.9104 18.0026 45.4899C17.9271 46.0049 17.8522 46.4876 17.7781 46.9381C17.7699 47.3254 17.8269 47.6818 17.9491 48.0072L17.6093 50.3248C17.4569 51.4193 17.2729 52.4809 17.0573 53.5095C16.8417 54.5382 16.4662 55.4988 15.9306 56.3915C15.8564 56.842 15.6855 57.2904 15.4177 57.7367C15.2158 58.1199 15.0146 58.4708 14.8141 58.7894L13.916 60.0296C13.5864 60.3454 13.2266 60.5638 12.8366 60.6847C12.5111 60.8069 12.0888 60.9271 11.5697 61.0452C11.3747 61.1056 11.1797 61.1661 10.9847 61.2265C10.791 61.2224 10.5301 61.346 10.2019 61.5973C8.85737 61.0522 7.83833 60.3848 7.14477 59.5951C6.45121 58.8055 5.88743 57.9863 5.45343 57.1376C5.34627 56.1021 5.27139 55.0673 5.22878 54.0332C5.18755 52.9345 5.17859 51.8365 5.2019 50.7392C5.26086 47.9637 5.54711 45.1284 6.06064 42.2334C6.57417 39.3384 7.14745 36.6707 7.78048 34.2303C7.86011 33.5216 8.19587 32.9153 8.78776 32.4113C9.4442 31.9086 10.1563 31.8269 10.924 32.166C11.2508 31.9793 11.4788 31.8872 11.6079 31.89C11.8015 31.8941 11.9911 32.0918 12.1765 32.4832L12.8131 34.434ZM37.0994 63.0405C37.3535 63.2396 37.6069 63.471 37.8596 63.7347L37.8657 63.4443L41.3369 64.196C41.8149 66.0143 42.229 67.799 42.5792 69.55C42.994 71.3023 43.1816 73.1144 43.1418 74.9863C43.1322 75.4381 43.1219 75.9222 43.1109 76.4386C43.1 76.955 43.0574 77.4384 42.9833 77.8888C42.8968 78.9202 42.7773 79.9832 42.6249 81.0777C42.4739 82.1077 42.1945 83.1027 41.7866 84.0627C41.3788 85.0227 40.8109 85.9147 40.0831 86.7387C39.4198 87.5641 38.501 88.2549 37.3269 88.8112C37.0714 88.6766 36.8469 88.6072 36.6532 88.6031C36.5228 88.6649 36.393 88.6945 36.2639 88.6917C36.0043 88.7508 35.6809 88.7762 35.2936 88.768C34.9063 88.7597 34.5204 88.687 34.1359 88.5496C33.3036 88.2091 32.6678 87.7435 32.2283 87.153C31.7888 86.5625 31.4798 85.9102 31.3012 85.1961C31.1227 84.4819 31.0093 83.7369 30.9612 82.961C30.9791 82.1219 30.9962 81.315 31.0127 80.5405L31.0271 79.8627C31.1053 79.2186 31.1506 78.6061 31.163 78.0252C31.2412 77.3811 31.3188 76.7693 31.3957 76.1897C31.6332 74.1283 31.9016 72.1322 32.2009 70.2013C32.5003 68.2703 33.0962 66.0551 33.9888 63.5556C34.3225 63.0461 34.7805 62.7652 35.3628 62.713C35.9465 62.5963 36.5253 62.7054 37.0994 63.0405ZM49.2851 22.9071C49.5913 23.6885 49.6758 24.2715 49.5385 24.6561C49.4657 25.042 49.2666 25.296 48.9411 25.4183C48.6157 25.5405 48.2586 25.6298 47.8699 25.6861C47.4813 25.7424 47.1565 25.8324 46.8956 25.956C45.7269 26.2541 44.4929 26.583 43.1938 26.9429C41.9605 27.2396 40.7596 27.5369 39.5909 27.835C37.3194 28.3679 35.144 28.9352 33.0648 29.5367C30.987 30.0738 28.7409 30.9301 26.3266 32.1058C25.4202 32.2157 24.7761 32.1374 24.3943 31.871C24.0771 31.606 23.7612 31.2764 23.4467 30.8822C23.2599 30.5554 23.0395 30.2924 22.7854 30.0933C22.5327 29.8296 22.2484 29.533 21.9325 29.2034C22.6631 28.2503 23.3869 27.6199 24.1037 27.3122C24.8865 26.9414 25.5711 26.6331 26.1575 26.3872C26.3525 26.3268 26.5798 26.267 26.8394 26.208C27.0989 26.1489 27.2946 26.0562 27.4265 25.9299C29.1198 25.2555 30.7451 24.7411 32.3024 24.3868C33.9257 23.9692 35.5806 23.5846 37.267 23.233C38.8244 22.8786 40.3494 22.5236 41.8423 22.1678C43.3351 21.8121 44.6335 21.4845 45.7377 21.1851C46.4463 21.2647 47.1206 21.4405 47.7606 21.7124C48.4665 21.9211 48.9747 22.3193 49.2851 22.9071ZM38.2038 70.3288C38.1502 69.811 38.0987 69.1965 38.0492 68.4851C38.0643 67.7751 38.0128 67.1605 37.8947 66.6414C37.6269 67.0877 37.4896 67.4723 37.4827 67.795C37.4759 68.1177 37.4388 68.343 37.3715 68.4707C37.2919 69.1793 37.2116 69.9202 37.1306 70.6934C37.0496 71.4666 36.937 72.2069 36.7928 72.9141C36.5717 74.201 36.3829 75.4885 36.2264 76.7767C36.0699 78.0649 35.9779 79.3544 35.9505 80.6454C35.9368 81.2908 35.9238 81.904 35.9114 82.4849C35.9636 83.0672 36.0474 83.6825 36.1628 84.3307C37.028 83.1221 37.6054 81.7783 37.8951 80.2992C38.1849 78.8201 38.3455 77.3383 38.377 75.8537C38.3976 74.8855 38.3852 73.9489 38.3399 73.0439C38.2945 72.1388 38.2492 71.2338 38.2038 70.3288ZM86.7376 44.6254C87.1661 45.7323 87.401 46.835 87.4422 47.9337C87.4848 48.9678 87.4952 50.0013 87.4732 51.034C87.4623 51.5504 87.4506 52.099 87.4383 52.68C87.4905 53.2623 87.5434 53.8123 87.5969 54.33C87.63 55.816 87.6945 57.3349 87.7907 58.8867C87.9515 60.44 88.0799 61.9925 88.1761 63.5444C88.3396 64.9685 88.4694 66.4565 88.5656 68.0084C88.6631 69.4957 88.76 71.0153 88.8562 72.5672C88.6571 72.8213 88.4875 73.2051 88.3474 73.7188C88.2074 74.2324 88.0041 74.6801 87.7377 75.0619C87.4727 75.3791 86.8547 75.592 85.8837 75.7006L84.8516 74.1288C84.0385 69.8495 83.4203 65.5098 82.9972 61.1096C82.5754 56.6449 82.2223 51.988 81.9379 47.1387C81.8047 47.3296 81.6715 47.5205 81.5383 47.7114C81.4064 47.8378 81.2746 47.9641 81.1427 48.0905L79.3342 51.1517C78.8068 51.6571 78.3426 52.2284 77.9417 52.8657C77.6066 53.4397 77.2722 53.9815 76.9385 54.4911C75.6064 56.4 74.2105 58.2754 72.7507 60.1171C71.3554 61.9601 69.6381 63.7641 67.5988 65.5289C67.0769 65.7761 66.6272 65.6697 66.2495 65.2096C65.9281 65.1382 65.5738 65.0984 65.1865 65.0902C64.8638 65.0833 64.6701 65.0792 64.6056 65.0778C65.3471 63.6083 66.318 61.9823 67.5183 60.1996C68.7844 58.3538 69.8837 56.7628 70.8162 55.4265C71.349 54.6629 71.9155 53.8354 72.5156 52.9441C73.1171 51.9883 73.619 51.1594 74.0214 50.4577C74.5474 50.0168 74.8474 49.5711 74.9216 49.1207C75.0603 48.6716 75.2965 48.1923 75.6302 47.6828C77.0323 45.517 78.4337 43.3835 79.8344 41.2822C81.2352 39.181 82.6036 37.079 83.9398 34.9764C85.3405 32.8752 86.7426 30.7094 88.1461 28.479C89.6155 26.1855 91.0513 23.9558 92.4534 21.79C92.5825 21.7928 92.7754 21.8292 93.0322 21.8992C93.355 21.9061 93.5809 21.9109 93.71 21.9136C94.2895 21.9905 94.8677 22.1319 95.4445 22.3379C96.0213 22.5439 96.399 23.0039 96.5776 23.7181L96.4684 24.2969C95.9301 25.3187 95.3602 26.3075 94.7587 27.2634C94.2217 28.2206 93.5866 29.2403 92.8533 30.3226C92.3163 31.2798 91.7149 32.2357 91.0488 33.1901C90.4487 34.0815 89.9797 34.8787 89.6419 35.5819C89.0445 36.3441 88.4458 37.1708 87.8457 38.0622C87.3101 38.9548 86.7738 39.8798 86.2369 40.837C85.9046 41.282 85.6045 41.7277 85.3367 42.174C85.1349 42.5572 84.8671 43.0035 84.5334 43.513C85.1115 43.6545 85.5599 43.8254 85.8786 44.0259L86.7376 44.6254ZM117.046 17.7599C117.014 19.2444 116.919 20.6954 116.759 22.1127C116.601 23.4654 116.41 24.882 116.185 26.3625C115.961 27.7784 115.769 29.195 115.61 30.6123C115.452 31.965 115.358 33.3514 115.328 34.7714C119.434 32.986 123.596 31.6214 127.814 30.6778C132.096 29.7355 136.409 28.8585 140.752 28.0467C140.945 28.1154 141.267 28.1545 141.719 28.1641C142.041 28.171 142.395 28.2431 142.779 28.3804C143.165 28.4532 143.836 28.8226 144.79 29.4886C144 30.1822 143.248 30.6505 142.532 30.8936C141.883 31.0735 141.167 31.3489 140.384 31.7197C140.252 31.8461 140.024 31.9381 139.7 31.9958C139.44 32.0549 139.245 32.1153 139.115 32.1771C138.918 32.3021 138.625 32.425 138.235 32.5459C137.845 32.6667 137.52 32.789 137.259 32.9126C137.128 32.9744 136.966 33.0355 136.771 33.0959C136.64 33.1577 136.51 33.2195 136.379 33.2814C132.552 34.1041 128.917 34.9955 125.474 35.9556C122.095 36.917 118.739 38.3633 115.404 40.2943C115.396 40.6816 115.356 41.0359 115.285 41.3573C115.278 41.68 115.271 42.035 115.262 42.4223C115.231 43.9069 115.136 45.3255 114.978 46.6783C114.822 47.9665 114.279 49.2142 113.349 50.4213C112.826 50.7331 112.177 50.8808 111.402 50.8643C110.692 50.8492 110.115 50.6755 109.67 50.3432C109.483 50.0163 109.394 49.6593 109.402 49.272C109.412 48.8202 109.484 48.4343 109.62 48.1143C109.688 47.9865 109.724 47.7936 109.729 47.5354C109.799 47.2786 109.866 47.1831 109.929 47.2491C110.009 46.5404 110.056 45.8634 110.069 45.2179C110.149 44.5092 110.198 43.7354 110.215 42.8963C110.226 42.3799 110.237 41.8958 110.246 41.4439C110.257 40.9276 110.236 40.4105 110.182 39.8928C110.056 39.7609 109.866 39.5955 109.612 39.3963C109.358 39.1972 109.199 39.0647 109.136 38.9988C109.203 38.871 109.336 38.6801 109.535 38.4261C109.735 38.172 109.868 37.9811 109.935 37.8534C110.067 37.727 110.132 37.6961 110.131 37.7607C110.129 37.8252 110.13 37.7929 110.133 37.6638C110.164 36.1793 110.264 34.5347 110.431 32.7301C110.599 30.9256 110.799 29.0894 111.033 27.2217C111.267 25.2894 111.533 23.4223 111.83 21.6205C112.126 19.8187 112.388 18.1452 112.614 16.6002C113.275 15.9039 113.894 15.6588 114.47 15.8647C115.047 16.0707 115.591 16.3083 116.102 16.5774C116.165 16.6434 116.228 16.7416 116.29 16.872C116.417 16.9393 116.669 17.2353 117.046 17.7599ZM102.792 59.496C103.11 59.6965 103.429 59.897 103.748 60.0975C104.066 60.298 104.353 60.4978 104.607 60.6969C105.322 60.4538 105.84 60.4003 106.16 60.5362C106.546 60.609 106.899 60.7133 107.219 60.8493C107.278 61.1088 107.496 61.4687 107.874 61.9287C108.37 62.9079 108.804 63.7566 109.176 64.4748C109.548 65.1931 109.787 66.1022 109.893 67.2023L110.068 68.0777C110.36 69.5046 110.491 70.9604 110.459 72.4449C110.424 74.1232 110.065 75.7945 109.384 77.459C108.769 79.0604 107.641 80.4894 106 81.746C105.28 82.1828 104.465 82.5529 103.555 82.8564C102.646 83.0954 101.551 82.943 100.271 82.3992C99.5678 82.0614 98.899 81.6274 98.2645 81.0974C97.6959 80.5041 97.2606 79.7199 96.9584 78.7449C96.8018 76.998 96.8058 75.2868 96.9706 73.6113C97.2013 71.8727 97.559 70.2336 98.0437 68.6941C98.111 68.5664 98.2153 68.2134 98.3568 67.6352C98.5641 66.9939 98.7708 66.3848 98.9768 65.808C99.3242 64.653 99.7341 63.5962 100.206 62.6376C100.68 61.6145 101.542 60.5673 102.792 59.496ZM105.41 63.9105C105.348 63.78 105.286 63.6819 105.223 63.6159C105.224 63.5514 105.194 63.4539 105.132 63.3234C104.254 65.1129 103.536 67.0026 102.977 68.9926C102.483 70.984 102.021 72.976 101.591 74.9687L101.558 76.5179C101.547 77.0342 101.537 77.5183 101.527 77.9702C101.584 78.3588 101.737 78.7495 101.987 79.1423C102.833 78.8374 103.556 78.2393 104.156 77.348C104.756 76.4566 105.13 75.5605 105.279 74.6596C105.42 74.0814 105.53 73.4703 105.608 72.8262C105.688 72.1176 105.733 71.505 105.744 70.9887C105.762 70.1496 105.747 69.342 105.699 68.5661C105.651 67.7902 105.603 66.982 105.556 66.1415C105.499 65.8174 105.442 65.461 105.385 65.0724C105.395 64.6205 105.403 64.2332 105.41 63.9105ZM191.762 92.1888L195.602 93.8202L191.204 95.6641L188.386 96.0885C186.116 96.5569 183.943 96.9951 181.868 97.403C179.793 97.811 177.848 98.1894 176.032 98.5383L161.934 101.048C159.86 101.391 157.787 101.702 155.714 101.981C153.705 102.326 151.697 102.638 149.689 102.919C149.559 102.98 149.364 103.009 149.106 103.003L148.912 102.999C148.782 103.061 148.52 103.217 148.128 103.467C147.735 103.717 147.278 103.933 146.758 104.116C146.302 104.3 145.816 104.386 145.299 104.375C144.908 104.561 144.518 104.682 144.129 104.738C143.74 104.794 143.227 104.654 142.588 104.318C142.202 104.245 141.917 104.013 141.731 103.621C141.544 103.295 141.389 103.001 141.266 102.74C141.018 102.218 140.871 101.569 140.823 100.793C140.775 100.017 140.95 99.3751 141.348 98.8669C146.777 95.6243 151.159 93.0052 154.495 91.0097C157.895 89.0155 160.543 87.4573 162.44 86.3352C164.335 85.2777 165.642 84.5628 166.36 84.1907C167.143 83.8198 167.665 83.5726 167.926 83.449C167.408 83.5026 166.922 83.5568 166.469 83.6118C166.082 83.6036 165.823 83.6303 165.693 83.6922L159.478 84.4319L158.511 84.3145C157.733 84.4917 156.73 84.5673 155.504 84.5412C155.181 84.5344 154.825 84.5591 154.437 84.6154C154.114 84.6085 153.661 84.6635 153.077 84.7802C152.629 84.577 152.112 84.6306 151.524 84.941C150.303 84.6567 149.469 84.413 149.021 84.2098C148.639 83.9433 148.196 83.5465 147.69 83.0191C147.891 82.7005 147.992 82.5089 147.993 82.4444C147.996 82.3153 147.998 82.2185 147.999 82.1539C147.876 81.893 147.784 81.6327 147.725 81.3732C147.666 81.1136 147.77 80.7607 148.038 80.3143C149.421 79.0522 150.701 78.0784 151.878 77.3931C153.121 76.6446 154.364 75.8961 155.606 75.1476L157.86 73.9362C158.972 73.2495 160.182 72.5649 161.488 71.8823C162.794 71.1997 164.1 70.5171 165.406 69.8345C166.058 69.5255 166.841 69.1547 167.754 68.722C168.667 68.2894 169.321 67.9158 169.715 67.6013C169.13 67.7826 168.415 68.0257 167.569 68.3306C166.789 68.5724 166.075 68.7509 165.426 68.8663C164.517 69.1053 163.673 69.3134 162.895 69.4906C162.117 69.6032 161.435 69.8147 160.847 70.1251C160.134 70.2391 159.518 70.3875 158.997 70.5701C158.541 70.7542 158.117 70.9389 157.726 71.1243C156.943 71.4952 156.13 71.8007 155.285 72.0411C154.44 72.2815 153.502 72.3584 152.471 72.2719C151.772 71.7405 151.3 71.1815 151.054 70.5951C150.872 70.0101 150.888 69.2678 151.101 68.3683C153.187 67.4439 155.303 66.6171 157.45 65.8878C159.661 65.1599 161.77 64.6558 163.778 64.3756L168.84 63.2238C169.165 63.1016 169.457 63.0432 169.715 63.0487C169.975 62.9897 170.234 62.9306 170.494 62.8715C170.753 62.8125 170.98 62.785 171.174 62.7891C171.433 62.73 171.662 62.6058 171.86 62.4162C172.184 62.3585 172.54 62.3015 172.929 62.2452C173.317 62.1889 173.674 62.1319 173.998 62.0742C175.101 61.8393 176.135 61.7644 177.102 61.8496C178.07 61.8701 178.992 62.5677 179.867 63.9424C179.916 64.6538 179.872 65.2018 179.735 65.5863C179.662 65.9722 179.558 66.3252 179.422 66.6452C178.697 67.3401 178.007 67.9066 177.352 68.3447C176.763 68.7197 176.174 69.0623 175.586 69.3727L173.625 70.4934C172.844 70.7997 172.093 71.2035 171.372 71.7048C170.652 72.1415 169.933 72.546 169.215 72.9182C168.363 73.4813 167.547 73.916 166.765 74.2223C166.24 74.6631 165.551 75.1328 164.701 75.6314C163.851 76.1299 163.068 76.533 162.351 76.8407C161.372 77.3365 160.489 77.8344 159.704 78.3343C159.442 78.5224 159.114 78.7415 158.721 78.9915C158.393 79.2428 158.033 79.4934 157.64 79.7434C157.964 79.6857 158.223 79.6589 158.416 79.663C158.675 79.6685 158.966 79.6424 159.29 79.5847C160.261 79.4762 161.231 79.3999 162.201 79.356C163.172 79.2474 164.013 79.1362 164.726 79.0222C166.216 78.7955 167.769 78.667 169.384 78.6368C170.999 78.6065 172.742 78.6435 174.612 78.7478C174.799 79.0747 174.956 79.304 175.082 79.4359C175.273 79.5691 175.431 79.7016 175.558 79.8334C176.192 80.3635 176.666 80.8579 176.979 81.3166C177.357 81.7767 177.215 82.3548 176.555 83.0511C173.738 84.9286 171.12 86.5842 168.7 88.0181C166.281 89.4519 164.188 90.699 162.422 91.7592C160.853 92.63 159.382 93.4705 158.009 94.2808C156.7 95.0925 155.683 95.8458 154.958 96.5407C154.506 96.5312 154.084 96.6513 153.691 96.9013C153.363 97.1526 153.035 97.404 152.707 97.6553C153.16 97.6003 153.582 97.5124 153.972 97.3916C154.362 97.2707 154.75 97.2467 155.135 97.3194C156.244 96.8264 157.608 96.4356 159.229 96.1471C160.912 95.9246 162.467 95.6993 163.892 95.4713C164.605 95.3573 165.188 95.2728 165.641 95.2179C166.158 95.2288 166.449 95.2027 166.515 95.1396C167.093 95.281 167.416 95.2879 167.483 95.1601C167.549 95.097 167.646 95.099 167.774 95.1663C168.555 94.86 169.27 94.6492 169.918 94.5338C170.629 94.4844 171.243 94.4651 171.76 94.4761C172.147 94.4843 172.503 94.4596 172.827 94.4019C173.149 94.4087 173.508 94.2549 173.902 93.9404L191.762 92.1888ZM159.834 12.9539C159.613 14.2407 159.39 15.5921 159.166 17.008C159.007 18.4253 158.846 19.9071 158.684 21.4535C159.268 21.3367 159.815 21.4129 160.326 21.6821C160.903 21.8881 161.341 22.5431 161.641 23.6473C161.501 24.1609 161.231 24.6718 160.833 25.18C160.499 25.6895 160.166 26.199 159.832 26.7085C159.5 27.1535 159.167 27.6307 158.833 28.1402C158.565 28.5866 158.295 29.162 158.021 29.8666C155.745 33.6927 153.377 37.2264 150.919 40.4676C148.525 43.7101 145.548 47.0694 141.987 50.5454C141.199 51.1744 140.346 51.8021 139.429 52.4283C138.577 52.9914 137.825 53.4275 137.173 53.7365C136.463 53.7214 136.047 53.5511 135.924 53.2257C135.804 52.8356 135.748 52.4147 135.758 51.9629L136.746 51.0153C137.342 50.3176 137.939 49.5876 138.536 48.8254C139.134 48.0632 139.73 47.3332 140.327 46.6356C141.186 45.6852 141.85 44.8275 142.318 44.0626C142.588 43.5517 142.856 43.0731 143.124 42.6267C143.458 42.1172 143.823 41.6406 144.22 41.197C144.75 40.5625 145.314 39.8642 145.911 39.102C146.573 38.3411 147.17 37.6112 147.701 36.9121C148.036 36.338 148.404 35.7324 148.805 35.0952C149.272 34.3947 149.705 33.7905 150.103 33.2823C150.636 32.5187 151.202 31.6913 151.802 30.7999C152.404 29.8441 152.906 28.983 153.31 28.2166C151.231 28.8182 149.149 29.5489 147.064 30.4087C145.044 31.2698 143.056 32.1317 141.101 32.9942C140.591 32.6605 140.115 32.2629 139.673 31.8015C139.232 31.2755 138.888 30.7516 138.641 30.2298C138.791 29.2643 139.095 28.625 139.553 28.3119C140.078 27.9355 140.666 27.6252 141.317 27.3807C141.513 27.2557 141.676 27.1946 141.805 27.1973C142 27.1369 142.196 27.0442 142.392 26.9192C144.278 26.3135 146.197 25.6439 148.15 24.9105C150.103 24.1771 152.023 23.443 153.911 22.7082C154.014 20.9022 154.15 19.097 154.317 17.2924C154.486 15.4233 154.75 13.6208 155.11 11.8849L157.003 9.40663C157.771 9.74582 158.438 10.2443 159.005 10.9021C159.573 11.5599 159.849 12.2439 159.834 12.9539ZM156.819 45.4361C156.654 47.1116 156.426 48.7534 156.133 50.3616C155.906 51.9066 155.552 53.4166 155.068 54.8916C155.197 54.8943 155.294 54.8964 155.359 54.8978C155.489 54.836 155.62 54.7741 155.75 54.7123C156.402 54.4033 157.184 54.0648 158.096 53.6967C159.073 53.33 160.145 52.9976 161.314 52.6995C162.418 52.4001 163.36 52.1295 164.14 51.8878C164.92 51.6461 165.668 51.4036 166.384 51.1605C167.164 50.9188 167.911 50.7087 168.625 50.5301C169.405 50.2884 170.12 50.0453 170.771 49.8008C171.222 49.8749 171.839 49.6943 172.623 49.259C172.884 49.1353 173.145 49.0117 173.406 48.8881C173.667 48.7645 173.96 48.6739 174.284 48.6162C174.608 48.5585 175.027 48.5997 175.54 48.7397C176.055 48.8153 176.697 48.9903 177.466 49.265L176.457 51.1808C174.105 52.4869 171.593 53.6605 168.924 54.7016C166.319 55.7441 163.551 56.8153 160.622 57.9155C160.492 57.9773 160.329 58.0384 160.134 58.0988C159.939 58.1593 159.776 58.2204 159.646 58.2822L159.742 58.2843C159.417 58.4065 159.059 58.528 158.669 58.6489C158.279 58.7698 157.889 58.8906 157.499 59.0115C155.612 59.6818 153.4 60.4742 150.862 61.389C148.388 62.3051 145.682 63.5714 142.741 65.1879C142.092 65.3678 141.411 65.5148 140.698 65.6288C139.987 65.6783 139.287 65.1791 138.599 64.1312C138.279 63.9953 138.027 63.6671 137.845 63.1466C137.663 62.5616 137.87 61.9525 138.465 61.3193C139.905 60.3813 141.635 59.514 143.654 58.7174C145.737 57.9222 147.527 57.2821 149.022 56.7973C149.901 54.9433 150.522 53.0515 150.886 51.1219C151.25 49.1924 151.518 47.2285 151.689 45.2303C152.096 44.3348 152.557 43.8926 153.074 43.9036C153.655 43.9159 154.201 44.0567 154.711 44.3258C154.775 44.3918 154.966 44.4927 155.286 44.6286C155.672 44.7014 156.183 44.9706 156.819 45.4361ZM185.179 37.3208L186.353 36.7646C186.939 36.5187 187.622 36.2749 188.403 36.0332C189.184 35.7269 189.899 35.5161 190.547 35.4007C191.978 34.9145 193.408 34.4929 194.836 34.1357C196.329 33.78 197.851 33.554 199.403 33.4578C199.597 33.462 199.759 33.4331 199.889 33.3713C199.954 33.3727 200.083 33.3754 200.276 33.3795C200.536 33.3205 200.73 33.2923 200.859 33.2951C201.561 33.6974 201.904 34.2536 201.889 34.9636C201.94 35.6105 201.569 36.3452 200.777 37.1679C198.312 37.6967 195.908 38.3882 193.565 39.2425C191.222 40.0968 188.845 41.0472 186.433 42.0938C186.107 42.2806 185.845 42.4365 185.649 42.5615C185.518 42.6233 185.289 42.7476 184.963 42.9343C184.888 43.3848 184.812 43.9321 184.734 44.5762C184.72 45.2216 184.678 45.7051 184.606 46.0264C184.45 47.3146 184.295 48.506 184.143 49.6005C184.055 50.6965 183.836 51.8865 183.486 53.1705C182.769 53.4782 182.086 53.6897 181.438 53.8051C180.791 53.8559 180.153 53.5195 179.522 52.7958C179.086 52.0761 178.906 51.3943 178.985 50.7502C179.063 50.1061 179.176 49.3659 179.322 48.5295C179.394 48.2081 179.432 47.9184 179.438 47.6602C179.509 47.3388 179.548 47.049 179.553 46.7908C179.642 45.6304 179.7 44.4369 179.726 43.2105C179.818 41.921 179.941 40.6967 180.095 39.5376C180.255 38.0557 180.384 36.5732 180.48 35.09C180.64 33.6082 180.736 32.1572 180.766 30.7372C180.781 30.0272 180.767 29.1874 180.723 28.2178C180.679 27.2482 180.604 26.2134 180.498 25.1134C180.893 24.7343 181.35 24.518 181.868 24.4644C182.387 24.3463 182.903 24.3896 183.415 24.5942C183.993 24.7356 184.505 24.9725 184.95 25.3048C185.395 25.6372 185.709 26.0313 185.893 26.4872L185.179 37.3208ZM174.166 35.9245C174.342 36.7677 174.233 37.3143 173.84 37.5643C173.512 37.8156 173.089 38.0003 172.569 38.1185C172.44 38.1157 172.34 38.275 172.269 38.5964C170.84 38.9535 169.446 39.2468 168.085 39.4761C166.724 39.7055 165.298 39.9336 163.808 40.1602C162.707 40.3305 161.605 40.5331 160.502 40.768C159.401 40.9383 158.169 41.1705 156.806 41.4644C156.092 41.643 155.544 41.599 155.162 41.3326C154.847 41.003 154.564 40.6419 154.314 40.2491C154.315 40.1846 154.284 40.1193 154.221 40.0534C154.224 39.9243 154.065 39.7918 153.745 39.6558C153.249 38.6767 153.266 37.8698 153.797 37.2353C154.328 36.5363 154.95 36.1298 155.663 36.0157C157.086 35.9168 158.477 35.7849 159.836 35.6201C161.196 35.4552 162.556 35.2904 163.915 35.1256C165.144 35.0225 166.277 34.9174 167.312 34.8103C168.349 34.6386 169.515 34.4696 170.81 34.3034C171.329 34.1853 171.716 34.1935 171.972 34.3281C172.292 34.464 172.61 34.6645 172.928 34.9296C173.182 35.1287 173.373 35.2296 173.502 35.2324L174.166 35.9245ZM255.73 22.837C254.996 27.0189 254.321 31.428 253.706 36.0644C253.327 38.704 252.948 41.3113 252.571 43.8863C252.259 46.3981 251.82 48.8427 251.253 51.2199C251.11 51.8627 251.035 52.3454 251.028 52.6681C250.951 53.2477 250.876 53.7627 250.802 54.2131C250.729 54.599 250.426 55.1738 249.893 55.9374C248.983 56.2409 248.274 56.1613 247.767 55.6985C247.325 55.2371 247.081 54.5538 247.036 53.6488C246.916 53.1942 246.861 52.741 246.871 52.2892C246.881 51.8374 246.892 51.321 246.904 50.7401C246.915 50.2237 246.927 49.6751 246.939 49.0941C246.953 48.4487 246.997 47.8684 247.073 47.3534C247.08 47.0307 247.088 46.6434 247.097 46.1916C247.108 45.6752 247.151 45.1918 247.225 44.7413C246.573 45.0504 245.889 45.3264 245.173 45.5695C244.524 45.7495 243.841 45.9933 243.124 46.3009C242.407 46.6086 241.788 46.8537 241.268 47.0364C240.747 47.2191 239.965 47.5576 238.921 48.052C238.018 48.0328 237.075 48.3357 236.093 48.9606L232.776 50.0525C231.474 50.5415 230.041 51.1245 228.477 51.8016C226.979 52.4155 225.382 53.0919 223.688 53.8309C223.035 54.1399 222.383 54.4489 221.731 54.7579C221.078 55.0669 220.426 55.376 219.774 55.685C218.937 55.5381 218.268 55.1364 217.765 54.48C217.329 53.7603 217.051 53.141 216.933 52.6219C216.698 51.5191 216.875 50.7802 217.464 50.4053C218.118 50.0317 218.834 49.7886 219.611 49.676C220.259 49.5606 220.583 49.5029 220.583 49.5029C224.883 47.7215 229.376 45.9766 234.062 44.268C238.812 42.5608 243.463 40.9806 248.014 39.5274C248.168 38.3683 248.32 37.2738 248.471 36.2438C248.622 35.2138 248.773 34.1838 248.924 33.1538C249.162 31.0924 249.398 29.0955 249.633 27.1633C249.932 25.2323 250.297 23.2705 250.726 21.2778C251.729 19.6847 252.801 19.3846 253.942 20.3775C254.454 20.5821 254.771 20.8794 254.892 21.2694C255.014 21.5949 255.293 22.1174 255.73 22.837ZM209.385 38.61C208.562 40.8526 207.964 43.1647 207.591 45.546C207.282 47.9288 207.006 50.28 206.763 52.5995C206.674 53.76 206.644 55.1478 206.674 56.7628C206.706 58.3133 206.938 59.5452 207.371 60.4584C208.307 58.9285 208.927 57.1335 209.229 55.0735C209.595 53.0149 209.8 50.9528 209.844 48.8873C209.859 48.1773 209.842 47.4989 209.791 46.852C209.806 46.142 209.821 45.432 209.836 44.722C209.846 44.2701 209.826 43.6885 209.776 42.9772C209.791 42.2671 209.805 41.6217 209.817 41.0407C209.692 40.8444 209.6 40.6164 209.541 40.3568C209.482 40.0973 209.587 39.7443 209.854 39.298L210.74 38.6388C211.579 38.6566 212.252 38.8969 212.759 39.3597C213.33 39.8239 213.674 40.3478 213.791 40.9314C213.85 41.191 213.877 41.4499 213.871 41.7081C213.931 41.9676 213.989 42.2594 214.047 42.5836C214.165 43.1027 214.281 43.6863 214.397 44.3345C214.514 44.9182 214.501 45.5314 214.358 46.1741C214.605 46.696 214.722 47.2797 214.708 47.9251C214.696 48.506 214.651 49.0863 214.574 49.6658C214.499 50.1808 214.424 50.6636 214.35 51.114C214.341 51.5013 214.398 51.8577 214.521 52.1832L214.181 54.5007C214.028 55.5952 213.844 56.6568 213.629 57.6855C213.413 58.7141 213.038 59.6748 212.502 60.5674C212.428 61.0179 212.257 61.4663 211.989 61.9126C211.787 62.2958 211.586 62.6467 211.386 62.9653L210.488 64.2055C210.158 64.5213 209.798 64.7397 209.408 64.8606C209.083 64.9828 208.66 65.103 208.141 65.2211C207.946 65.2816 207.751 65.342 207.556 65.4024C207.363 65.3983 207.102 65.5219 206.773 65.7733C205.429 65.2281 204.41 64.5607 203.716 63.771C203.023 62.9814 202.459 62.1622 202.025 61.3135C201.918 60.278 201.843 59.2432 201.8 58.2091C201.759 57.1104 201.75 56.0124 201.773 54.9151C201.832 52.1396 202.119 49.3044 202.632 46.4094C203.146 43.5143 203.719 40.8466 204.352 38.4062C204.432 37.6975 204.767 37.0912 205.359 36.5872C206.016 36.0845 206.728 36.0028 207.496 36.342C207.822 36.1552 208.05 36.0631 208.179 36.0659C208.373 36.07 208.563 36.2678 208.748 36.6592L209.385 38.61ZM233.671 67.2164C233.925 67.4156 234.178 67.647 234.431 67.9106L234.437 67.6202L237.908 68.372C238.386 70.1902 238.801 71.9749 239.151 73.7259C239.566 75.4782 239.753 77.2903 239.713 79.1622C239.704 79.614 239.693 80.0981 239.683 80.6145C239.672 81.1309 239.629 81.6143 239.555 82.0648C239.468 83.0961 239.349 84.1591 239.197 85.2536C239.045 86.2837 238.766 87.2786 238.358 88.2386C237.95 89.1986 237.382 90.0906 236.655 90.9146C235.991 91.74 235.073 92.4308 233.898 92.9871C233.643 92.8525 233.418 92.7832 233.225 92.779C233.094 92.8408 232.965 92.8704 232.835 92.8676C232.576 92.9267 232.252 92.9521 231.865 92.9439C231.478 92.9357 231.092 92.8629 230.707 92.7256C229.875 92.385 229.239 91.9195 228.8 91.3289C228.36 90.7384 228.051 90.0861 227.873 89.372C227.694 88.6578 227.581 87.9128 227.533 87.1369C227.551 86.2978 227.568 85.4909 227.584 84.7164L227.599 84.0386C227.677 83.3945 227.722 82.782 227.735 82.2011C227.813 81.557 227.89 80.9452 227.967 80.3656C228.205 78.3042 228.473 76.3081 228.773 74.3772C229.072 72.4463 229.668 70.231 230.56 67.7315C230.894 67.222 231.352 66.9412 231.934 66.889C232.518 66.7722 233.097 66.8814 233.671 67.2164ZM245.857 27.083C246.163 27.8645 246.247 28.4474 246.11 28.832C246.037 29.2179 245.838 29.472 245.513 29.5942C245.187 29.7164 244.83 29.8057 244.442 29.862C244.053 29.9183 243.728 30.0083 243.467 30.1319C242.298 30.43 241.065 30.7589 239.765 31.1188C238.532 31.4155 237.331 31.7128 236.162 32.0109C233.891 32.5438 231.716 33.1111 229.636 33.7127C227.559 34.2497 225.312 35.1061 222.898 36.2817C221.992 36.3916 221.348 36.3133 220.966 36.0469C220.649 35.7819 220.333 35.4523 220.018 35.0582C219.831 34.7313 219.611 34.4683 219.357 34.2692C219.104 34.0055 218.82 33.7089 218.504 33.3793C219.235 32.4262 219.958 31.7958 220.675 31.4881C221.458 31.1173 222.143 30.809 222.729 30.5631C222.924 30.5027 223.151 30.443 223.411 30.3839C223.671 30.3248 223.866 30.2321 223.998 30.1058C225.691 29.4314 227.317 28.9171 228.874 28.5627C230.497 28.1451 232.152 27.7605 233.839 27.4089C235.396 27.0545 236.921 26.6995 238.414 26.3437C239.907 25.988 241.205 25.6604 242.309 25.361C243.018 25.4406 243.692 25.6164 244.332 25.8883C245.038 26.097 245.546 26.4953 245.857 27.083ZM234.775 74.5047C234.722 73.9869 234.67 73.3724 234.621 72.661C234.636 71.951 234.584 71.3364 234.466 70.8173C234.198 71.2636 234.061 71.6482 234.054 71.9709C234.047 72.2936 234.01 72.5189 233.943 72.6466C233.863 73.3552 233.783 74.0962 233.702 74.8694C233.621 75.6425 233.509 76.3828 233.364 77.09C233.143 78.3769 232.955 79.6644 232.798 80.9526C232.641 82.2408 232.55 83.5303 232.522 84.8213C232.508 85.4667 232.495 86.0799 232.483 86.6609C232.535 87.2431 232.619 87.8584 232.734 88.5066C233.6 87.298 234.177 85.9542 234.467 84.4751C234.756 82.996 234.917 81.5142 234.949 80.0296C234.969 79.0614 234.957 78.1248 234.911 77.2198C234.866 76.3147 234.821 75.4097 234.775 74.5047Z" fill="#FFCD37"/>
<path d="M345.546 27.6272C345.864 27.8277 346.183 27.996 346.503 28.1319C348.356 29.0753 349.79 29.9776 350.805 30.8386C351.886 31.6365 352.537 32.8773 352.76 34.561C352.658 36.3024 352.301 37.9415 351.687 39.4782C351.138 41.0164 350.396 42.4859 349.462 43.8867C348.594 45.2244 347.598 46.527 346.473 47.7946C345.414 48.9991 344.323 50.2029 343.2 51.4059C341.877 52.8631 340.428 54.2207 338.851 55.4787C337.341 56.6736 335.766 57.867 334.126 59.0592C333.603 59.3709 333.144 59.6841 332.75 59.9986C332.422 60.2499 331.995 60.5637 331.471 60.94C331.321 61.9055 331.172 62.8387 331.024 63.7396C330.875 64.6405 330.726 65.5737 330.577 66.5391C330.426 67.5692 330.274 68.6314 330.122 69.726C330.034 70.8219 329.914 71.9172 329.761 73.0117L327.329 87.199C327.183 87.9709 327.072 88.6465 326.995 89.2261C326.85 89.9979 326.706 90.6729 326.565 91.2511C326.488 91.8306 326.347 92.3765 326.142 92.8888C326.001 93.467 325.795 94.0438 325.524 94.6192C325.254 95.1947 324.916 95.8978 324.511 96.7287C323.055 95.3417 322.239 94.2266 322.064 93.3833C321.888 92.5401 321.81 91.6344 321.831 90.6662L321.862 89.2139L322.64 84.4841C322.791 83.4541 322.944 82.3595 323.097 81.2004C323.317 79.9782 323.537 78.7236 323.759 77.4368C324.136 74.8618 324.512 72.3836 324.885 70.0022C325.259 67.6208 325.565 65.3349 325.806 63.1444L325.023 63.5152C324.243 63.757 323.367 63.9644 322.394 64.1375C321.487 64.3119 320.579 64.4541 319.673 64.564L318.75 62.4133C320.658 60.7749 322.264 59.6466 323.568 59.0286C324.026 58.78 324.483 58.5314 324.94 58.2828C325.462 58.0356 326.018 57.6923 326.609 57.2528C326.614 56.9946 326.65 56.8339 326.716 56.7707L326.714 56.8676C327.06 55.7771 327.342 54.653 327.56 53.4953C327.78 52.273 327.966 51.1146 328.119 50.0201C328.266 49.1837 328.377 48.4757 328.454 47.8962C328.533 47.2521 328.745 46.3848 329.091 45.2944C329.997 45.1845 330.836 45.2346 331.606 45.4447C332.377 45.6548 333.014 46.0235 333.52 46.5508C333.562 47.585 333.473 48.7454 333.252 50.0322C333.096 51.3204 332.907 52.608 332.686 53.8948C333.342 53.3921 333.9 52.9519 334.361 52.5743C334.887 52.1334 335.413 51.6603 335.941 51.1549C336.27 50.839 336.566 50.587 336.828 50.3988C337.157 50.1475 337.452 49.9277 337.714 49.7396C338.702 48.8565 339.756 47.8457 340.878 46.7072C342 45.5686 343.027 44.3312 343.96 42.9949C344.957 41.66 345.761 40.2887 346.372 38.881C346.984 37.4088 347.306 35.9304 347.338 34.4458C346.518 33.5243 345.465 32.9208 344.18 32.6352C342.896 32.285 341.544 32.0948 340.124 32.0647C338.833 32.0372 337.604 32.108 336.438 32.277C335.337 32.4473 334.363 32.6849 333.517 32.9898C331.302 33.9114 329.049 35.0905 326.759 36.5271C324.532 37.965 322.657 39.6042 321.133 41.4445C320.801 41.8895 320.466 42.4313 320.13 43.0699C319.859 43.6453 319.686 44.1905 319.611 44.7055C319.526 45.6724 319.668 46.5472 320.039 47.33C320.475 48.1141 321.04 48.8687 321.735 49.5938C321.861 49.7257 322.05 49.9557 322.301 50.2839C322.617 50.6135 322.838 50.8442 322.965 50.9761C322.491 51.9992 321.963 52.5369 321.38 52.5891C320.864 52.5781 320.349 52.5026 319.835 52.3626C319.322 52.2225 318.904 52.149 318.581 52.1422C317.24 51.4034 316.193 50.5739 315.437 49.6538C314.683 48.6691 314.263 47.175 314.176 45.1713C314.222 43.0412 314.777 41.2126 315.843 39.6854C316.973 38.1596 318.197 36.7649 319.516 35.5014C319.779 35.2487 320.011 34.9953 320.21 34.7413C320.473 34.4886 320.737 34.2359 321.001 33.9832C322.312 33.0424 323.752 32.1366 325.321 31.2659C326.953 30.3965 328.585 29.5917 330.215 28.8514C331.84 28.3693 333.528 27.9208 335.281 27.506C337.097 27.0926 339.039 26.9078 341.104 26.9517C341.814 26.9668 342.523 27.0141 343.232 27.0938C343.941 27.1734 344.712 27.3512 345.546 27.6272ZM396.239 37.0344C397.119 38.1509 397.675 39.3251 397.907 40.557C398.139 41.7889 398.242 43.0503 398.214 44.3412C398.202 44.9221 398.156 45.5669 398.076 46.2756C398.061 46.9856 398.016 47.5981 397.941 48.1131C397.938 48.2422 397.902 48.4029 397.833 48.5951C397.829 48.7888 397.826 48.9501 397.823 49.0792C396.716 52.5428 395.098 55.7695 392.968 58.7594C390.904 61.686 388.615 64.5433 386.102 67.3313C384.715 68.787 383.132 70.3678 381.352 72.0735C379.637 73.7807 378.12 75.266 376.802 76.5295C375.953 76.9635 375.2 77.4318 374.544 77.9345C373.953 78.374 373.395 78.8464 372.867 79.3518C372.34 79.8572 371.716 80.3606 370.995 80.8619C370.274 81.3632 369.553 81.8322 368.834 82.2689C368.688 83.0407 368.51 83.8441 368.298 84.6791C368.151 85.5155 367.81 86.38 367.275 87.2727L365.431 87.4273C365.115 87.0977 364.833 86.7042 364.584 86.2469C364.399 85.8555 364.245 85.4971 364.123 85.1716C363.208 85.6688 362.197 86.1639 361.088 86.657C359.979 87.2146 358.837 87.7392 357.665 88.2309C357.28 88.0936 357.023 88.0236 356.894 88.0208C356.765 88.0181 356.636 88.0154 356.507 88.0126C356.055 88.003 355.668 87.9948 355.345 87.9879C355.022 87.9811 354.676 87.5863 354.305 86.8035C354.581 85.9698 354.85 85.459 355.112 85.2708C355.44 85.0195 355.931 84.7393 356.583 84.4303C356.976 84.1803 357.467 83.8679 358.056 83.4929C358.646 83.0534 359.368 82.5199 360.221 81.8922C360.548 81.7054 360.875 81.4864 361.204 81.235C361.532 80.9837 361.826 80.7962 362.087 80.6726C362.805 80.3004 363.43 79.7971 363.96 79.1626C364.177 78.0694 364.365 76.7819 364.526 75.3001C364.688 73.7537 364.851 72.175 365.014 70.5641C365.178 68.9532 365.34 67.3745 365.502 65.8281C365.666 64.2172 365.824 62.8645 365.976 61.7699C366.334 60.0986 366.629 58.3935 366.859 56.6549C367.092 54.8517 367.291 53.0801 367.457 51.3401C367.612 50.1164 367.767 48.8928 367.922 47.6691C368.142 46.4468 368.329 45.2562 368.482 44.0971C369.588 43.7331 370.525 43.6884 371.294 43.9631C372.129 44.1745 372.929 44.5467 373.692 45.0795C373.716 47.0173 373.579 48.8871 373.282 50.6889C372.987 52.4262 372.656 54.3242 372.29 56.3828C372.217 56.7687 372.145 57.1223 372.073 57.4437C372.002 57.7651 371.931 58.0864 371.859 58.4078C371.674 61.0515 371.387 63.919 370.998 67.0104C370.676 70.0386 370.262 72.8066 369.756 75.3143C374.021 72.1761 378.037 68.516 381.807 64.3341C385.577 60.1522 388.64 55.7938 390.996 51.2589C391.403 50.3635 391.78 49.306 392.129 48.0865C392.479 46.8024 392.669 45.4826 392.698 44.1272C392.713 43.4171 392.663 42.738 392.547 42.0898C392.432 41.4416 392.218 40.8882 391.904 40.4295C390.582 38.8516 388.862 37.7172 386.746 37.0265C384.696 36.2726 382.541 35.8717 380.282 35.8237C378.41 35.7839 376.566 35.9708 374.749 36.3842C372.998 36.7345 371.309 37.1829 369.683 37.7295C368.513 38.0921 367.342 38.5193 366.169 39.011C364.997 39.4381 363.985 39.9978 363.13 40.69C363.839 40.7696 364.282 41.1988 364.459 41.9774C364.701 42.7575 364.721 43.3391 364.519 43.7223C364.187 44.1672 363.598 44.5099 362.753 44.7503C361.973 44.992 361.295 45.0099 360.718 44.8039C360.463 44.6693 360.238 44.6 360.045 44.5959C359.403 44.3885 358.795 44.1496 358.219 43.879C357.644 43.6085 357.108 43.0159 356.61 42.1013C356.178 41.188 356.194 40.4135 356.66 39.7776C357.125 39.1417 357.621 38.6034 358.147 38.1625C358.279 38.0362 358.444 37.8782 358.641 37.6887C358.905 37.436 359.071 37.2135 359.14 37.0213C362.087 35.082 365.446 33.5067 369.217 32.2953C372.99 31.0193 376.748 30.4211 380.492 30.5006C383.461 30.5637 386.291 31.1081 388.981 32.1339C391.736 33.1611 394.155 34.7946 396.239 37.0344Z" fill="#FFCD37"/>
<path d="M286 49L295.526 65.5L276.474 65.5L286 49Z" fill="#FFCD37"/>
</svg>
