<svg width="431" height="105" viewBox="0 0 431 105" fill="none" xmlns="http://www.w3.org/2000/svg">
<path d="M38.4049 18.7601C35.9961 19.6776 33.7521 20.4371 31.6729 21.0387C29.5937 21.6403 27.4169 22.2721 25.1427 22.9341C22.4167 23.5865 19.7215 24.3042 17.0573 25.0871C14.3944 25.8054 11.9217 26.6892 9.63928 27.7385C8.73288 27.8484 8.09016 27.7056 7.7111 27.3101C7.33342 26.8501 6.98801 26.3907 6.67488 25.932C6.6117 25.8661 6.51694 25.7672 6.39059 25.6354C6.26424 25.5035 6.20175 25.4054 6.20312 25.3408C6.21134 24.9535 6.21889 24.5985 6.22574 24.2758C6.29852 23.8899 6.4997 23.539 6.82929 23.2231C7.28249 23.1682 7.80229 23.0178 8.3887 22.7719C11.9003 21.6196 15.313 20.562 18.6268 19.5992C21.942 18.5718 25.3485 17.8047 28.8464 17.2978L30.3008 17.2318C32.6464 16.2485 35.2736 15.6908 38.1823 15.5589C38.8827 16.0258 39.2604 16.4858 39.3153 16.939C39.3703 17.3922 39.198 17.9052 38.7983 18.4779L38.4049 18.7601ZM18.6951 30.0619C18.2352 33.4747 17.815 36.5331 17.4347 39.2372C17.0558 41.8768 16.6088 44.6764 16.0939 47.6359C16.8726 47.4587 17.6829 47.3145 18.5247 47.2032C19.3679 47.0274 20.2125 46.7871 21.0585 46.4821C21.1683 44.3535 21.5349 42.2948 22.1583 40.3062C22.7818 38.3176 23.5027 36.2988 24.3211 34.2497C24.6603 33.482 24.935 32.7129 25.1451 31.9425C25.3565 31.1075 25.6003 30.2732 25.8763 29.4396C26.2114 28.8655 26.83 28.6203 27.7323 28.7041C28.7005 28.7247 29.4071 28.9011 29.8521 29.2334C30.4742 30.3445 30.6473 31.3168 30.3713 32.1504C30.1598 32.9854 29.8852 33.7545 29.5474 34.4576C29.4801 34.5853 29.4135 34.6808 29.3476 34.744C29.3476 34.744 29.3139 34.8078 29.2466 34.9356C29.1793 35.0633 29.145 35.1594 29.1436 35.224C28.4007 36.758 27.7855 38.3593 27.298 40.0279C26.8765 41.6334 26.4851 43.3363 26.124 45.1368C26.6404 45.1478 27.1574 45.1265 27.6752 45.0729C28.1943 44.9548 28.7134 44.8366 29.2325 44.7185C29.558 44.5963 29.8828 44.5063 30.2069 44.4486C30.5956 44.3923 31.0488 44.3374 31.5665 44.2838C32.0183 44.2934 32.4386 44.27 32.8272 44.2137C33.2804 44.1587 33.702 44.0708 34.0921 43.95C34.8694 43.8373 35.5828 43.691 36.2324 43.5111C36.9465 43.3326 37.6249 43.3147 38.2677 43.4575C38.8527 43.2762 39.3396 43.1574 39.7282 43.1011C40.1182 42.9802 40.6037 42.9259 41.1846 42.9383C41.701 42.9492 42.3128 43.0268 43.0201 43.171C43.7274 43.3152 44.5294 43.5582 45.4262 43.9002C44.8261 44.7915 44.2644 45.393 43.7412 45.7048C43.2825 46.0179 42.8259 46.2342 42.3713 46.3537C42.1117 46.4128 41.721 46.5659 41.1992 46.8131C38.3481 47.2692 35.5596 47.8234 32.8335 48.4758C30.1089 49.0637 27.1878 49.7766 24.0704 50.6144L22.4162 50.9667C21.8957 51.1494 21.3429 51.3314 20.7579 51.5127C20.1742 51.6294 19.6229 51.7469 19.1037 51.865C17.4145 52.3457 15.6917 52.8903 13.9352 53.4988C12.1801 54.0426 10.55 54.7829 9.04486 55.7196C8.20027 55.96 7.5548 55.9462 7.10846 55.6785C6.72803 55.3475 6.38194 54.9204 6.07017 54.3972C5.94382 54.2653 5.81747 54.1335 5.69112 54.0017C5.62931 53.8712 5.53524 53.74 5.40888 53.6082C5.42945 52.64 5.63612 52.0309 6.02889 51.781C6.42302 51.4665 6.84875 51.1849 7.30606 50.9363C7.76474 50.6232 8.22137 50.4069 8.67594 50.2874C9.13051 50.1679 9.55487 49.9509 9.949 49.6364C10.0149 49.5732 10.1131 49.5107 10.2436 49.4489C10.374 49.3871 10.4722 49.3246 10.5382 49.2614C10.4969 48.1628 10.582 47.1959 10.7935 46.3609C11.0063 45.4614 11.2192 44.5619 11.432 43.6623C11.5776 42.8905 11.7231 42.1187 11.8687 41.3469C12.0156 40.5105 12.1316 39.6089 12.2167 38.6421C12.4254 37.9362 12.5696 37.2289 12.6492 36.5202C12.7289 35.8116 12.8085 35.103 12.8881 34.3943C12.9719 33.492 13.0563 32.5575 13.1414 31.5906C13.2911 30.6252 13.6378 29.5025 14.1816 28.2225C14.8944 28.1085 15.6682 28.1572 16.5032 28.3687C17.4028 28.5815 18.0421 28.8857 18.4211 29.2812L18.6951 30.0619ZM43.9501 72.3468C44.7247 72.3633 45.3701 72.377 45.8865 72.3879C46.4674 72.4003 47.08 72.4456 47.724 72.5238C48.4341 72.5389 49.2073 72.6199 50.0436 72.7668C50.9445 72.9151 52.1023 73.1335 53.5168 73.4218C52.594 74.3063 51.9691 74.8419 51.6423 75.0287C51.3813 75.1523 51.1218 75.2113 50.8636 75.2059C50.6699 75.2017 50.5072 75.2629 50.3754 75.3892C49.4649 75.6928 48.783 75.872 48.3298 75.9269C47.8766 75.9819 47.4564 76.0053 47.0691 75.997C46.7463 75.9902 46.4236 75.9833 46.1009 75.9765C45.8427 75.971 45.4863 76.028 45.0317 76.1475C41.8662 76.2094 39.022 76.3427 36.4992 76.5474C34.041 76.7535 31.6129 77.0571 29.2151 77.4582C26.8186 77.7947 24.3878 78.2274 21.9227 78.7562C19.4576 79.285 16.6684 79.8715 13.555 80.5157C13.2131 81.4125 12.5903 81.8513 11.6866 81.8321C11.0412 81.8184 10.3291 81.9001 9.55043 82.0773C8.77312 82.19 7.96217 82.3665 7.11758 82.6068C6.53392 82.7236 5.88502 82.8712 5.17089 83.0498C4.52268 83.1652 3.87447 83.2806 3.22626 83.3959C2.5231 83.0581 1.98199 82.6915 1.60294 82.296C1.22526 81.8359 0.880533 81.3443 0.568768 80.821C0.587965 79.9174 0.760302 79.4044 1.08578 79.2822C1.41263 79.0954 1.77175 78.9093 2.16314 78.7239C2.55317 78.603 2.91297 78.3846 3.24256 78.0688C4.93312 77.5235 6.65458 77.0435 8.40695 76.6287C10.1607 76.1493 12.0428 75.705 14.0534 75.2957C16.0653 74.8218 18.2056 74.3829 20.4744 73.9791C22.8076 73.5766 25.3991 73.1797 28.2488 72.7882C29.0288 72.5464 29.8357 72.5636 30.6693 72.8396C30.992 72.8464 31.5105 72.7606 32.2246 72.582C32.6792 72.4625 33.133 72.3753 33.5862 72.3204C34.104 72.2668 34.6204 72.2778 35.1354 72.3533C35.2645 72.356 35.3929 72.391 35.5206 72.4583C35.6497 72.4611 35.7788 72.4638 35.9079 72.4665C36.8733 72.6162 37.6142 72.6965 38.1306 72.7075C38.6484 72.6539 39.1022 72.5667 39.4923 72.4458L40.2627 72.6559C40.5236 72.5323 40.8169 72.4094 41.1423 72.2872C41.5324 72.1663 41.8551 72.1731 42.1105 72.3077L43.9501 72.3468ZM97.1681 80.4516L95.4151 80.8986L89.884 81.3623L89.4988 81.2573C89.2337 81.5745 88.9069 81.7613 88.5182 81.8176C88.1296 81.8739 87.7409 81.9303 87.3523 81.9866C87.0941 81.9811 86.8998 82.0093 86.7693 82.0711L81.3371 82.44L81.0507 82.2402C80.8543 82.3652 80.5941 82.4565 80.27 82.5142C80.0104 82.5732 79.8154 82.6337 79.685 82.6955C79.4295 82.5609 79.2688 82.5252 79.2029 82.5884C79.137 82.6515 79.0058 82.7456 78.8095 82.8706C78.484 82.9928 78.094 83.1137 77.6394 83.2332C77.1862 83.2882 76.8003 83.2154 76.4817 83.0149C75.9584 83.3266 75.4379 83.5093 74.9202 83.5629C74.4684 83.5533 73.9836 83.5753 73.4658 83.6289C73.0786 83.6206 72.6906 83.6447 72.3019 83.701C71.9133 83.7573 71.5555 83.8789 71.2287 84.0657C71.035 84.0615 70.7762 84.0883 70.4521 84.146C70.1293 84.1392 69.7421 84.1309 69.2902 84.1213L65.1105 84.8075C64.6532 85.056 64.1327 85.2387 63.549 85.3555L61.4108 85.6975L59.6577 86.1446C59.2649 86.3945 58.8742 86.5477 58.4856 86.604C58.0969 86.6603 57.6437 86.7153 57.126 86.7688C56.6014 87.1452 56.0466 87.424 55.4615 87.6053C54.941 87.7879 54.4219 87.9061 53.9042 87.9596C53.6446 88.0187 53.3212 88.0441 52.9339 88.0359C52.6098 88.0936 52.3825 88.1533 52.2521 88.2151C51.8071 87.8828 51.3642 87.4536 50.9233 86.9277C50.4825 86.4017 50.2366 85.8153 50.1858 85.1684C50.0608 84.9721 50.0011 84.7448 50.0065 84.4866C50.012 84.2284 50.0175 83.9702 50.023 83.712C51.4567 83.0967 52.6598 82.7025 53.6321 82.5295C54.6058 82.2919 55.5795 82.0542 56.5531 81.8166C57.2014 81.7012 57.7198 81.6154 58.1084 81.5591C58.5616 81.5041 59.0808 81.386 59.6658 81.2047C60.2 80.3766 60.7651 79.6136 61.3611 78.916C61.9585 78.1537 62.5565 77.3593 63.1553 76.5325L63.6497 76.0587C65.1218 73.6361 66.4999 71.0823 67.7838 68.3974C69.0692 65.6479 70.0641 62.8923 70.7685 60.1305C70.8358 60.0028 71.0013 59.8125 71.265 59.5598C71.0027 59.748 70.5474 59.8998 69.8992 60.0152L67.9566 60.2645C67.4375 60.3826 66.8854 60.5323 66.3004 60.7136C65.7167 60.8304 65.1667 60.8833 64.6503 60.8723C64.649 60.9368 64.5185 60.9986 64.2589 61.0577C64.0007 61.0522 63.3244 60.9733 62.2298 60.8209C61.3289 60.6726 60.496 60.3643 59.731 59.896C59.0306 59.4291 58.4634 58.7713 58.0294 57.9226C58.3754 56.8321 58.8451 56.0026 59.4383 55.434C60.033 54.8009 60.6599 54.1685 61.3191 53.5367C61.7146 53.1577 62.1101 52.7786 62.5056 52.3996C62.9011 52.0205 63.298 51.5769 63.6962 51.0688C64.3568 50.3725 65.0819 49.6775 65.8715 48.984C66.7271 48.2272 67.6156 47.4389 68.5371 46.619C69.6522 45.8032 70.9026 44.6997 72.2882 43.3084C71.3173 43.417 70.2804 43.5887 69.1777 43.8235C68.1394 44.0598 67.1341 44.2645 66.1618 44.4375C65.9023 44.4966 65.675 44.5563 65.48 44.6168C65.3495 44.6786 65.1545 44.739 64.8949 44.7981C64.6986 44.923 64.5035 44.9835 64.3099 44.9794C64.1163 44.9753 63.9226 44.9711 63.729 44.967C63.5999 44.9643 63.4385 44.9609 63.2449 44.9567C63.0512 44.9526 62.5658 45.0069 61.7885 45.1195C60.8134 45.4217 60.1 45.568 59.6481 45.5584C59.1977 45.4842 58.9093 45.3812 58.7829 45.2494C58.6552 45.1821 58.5268 45.1471 58.3977 45.1444C58.2686 45.1416 58.1718 45.1396 58.1072 45.1382C57.7172 45.2591 57.3306 45.2186 56.9475 45.0167C56.5643 44.8148 56.1832 44.5161 55.8041 44.1206C55.4896 43.7265 55.1751 43.3324 54.8606 42.9382C54.612 42.4809 54.4273 42.0572 54.3064 41.6672C55.1908 39.555 56.4885 37.7421 58.1996 36.2287C59.9108 34.7152 61.5869 33.3301 63.228 32.0735C63.4244 31.9485 63.5885 31.8228 63.7203 31.6965C63.9167 31.5715 64.1131 31.4465 64.3095 31.3215C66.4079 29.8163 68.3758 28.3729 70.2133 26.9912C72.1167 25.5464 73.6287 24.287 74.7493 23.213C73.126 23.6306 71.5014 24.1127 69.8754 24.6593C68.2507 25.1414 66.7875 25.6269 65.4855 26.1159C65.031 26.2354 64.608 26.3878 64.2166 26.5732C63.8266 26.6941 63.4366 26.815 63.0465 26.9358C62.011 27.043 61.3031 26.9311 60.9227 26.6001C60.6068 26.2705 60.1982 25.7452 59.6969 25.0243C59.6351 24.8938 59.5108 24.6651 59.324 24.3383C59.1386 23.9469 59.015 23.686 58.9532 23.5555C59.4119 23.2424 59.8692 22.9938 60.3251 22.8097C60.847 22.5625 61.2707 22.3778 61.5961 22.2556C61.9216 22.1333 62.2134 22.0749 62.4716 22.0804C62.7312 22.0214 63.1246 21.7391 63.652 21.2337L64.9106 21.2605L65.3062 20.8814C65.8308 20.5051 66.2558 20.2558 66.5813 20.1336C67.1004 20.0155 67.4568 19.9585 67.6504 19.9626C67.8454 19.9021 68.0404 19.8417 68.2354 19.7813C68.69 19.6618 69.1446 19.5423 69.5992 19.4228C70.1183 19.3047 70.6037 19.2504 71.0556 19.26C71.7752 18.8232 72.6198 18.5829 73.5894 18.5389C73.9135 18.4812 74.2376 18.4235 74.5617 18.3658C74.8858 18.3081 75.2113 18.1859 75.5381 17.9991C76.4445 17.8892 77.1868 17.905 77.765 18.0464C78.3431 18.1879 78.7867 18.5847 79.0958 19.2371C79.3526 19.3071 79.5758 19.441 79.7653 19.6387C80.0207 19.7733 80.2116 19.9065 80.338 20.0384C80.3998 20.1688 80.4945 20.2677 80.6223 20.335C80.75 20.4023 81.2334 20.4448 82.0725 20.4627C81.5905 21.8731 81.1847 22.7363 80.8551 23.0521C80.5915 23.3048 80.2948 23.5891 79.9652 23.905C79.7689 24.03 79.5718 24.1872 79.374 24.3768C79.1763 24.5663 78.9751 24.9172 78.7705 25.4295C78.6387 25.5558 78.5075 25.6499 78.377 25.7117C78.2479 25.7089 78.1182 25.7385 77.9877 25.8003C77.849 26.2494 77.7137 26.5371 77.5819 26.6634C77.5146 26.7912 77.3491 26.9814 77.0855 27.2341C76.6954 27.3549 76.4359 27.414 76.3068 27.4113C76.2986 27.7985 75.9346 28.2106 75.215 28.6473L73.9235 30.1697L73.6289 30.3572C73.302 30.5439 72.9745 30.763 72.6463 31.0143C72.3181 31.2657 72.0235 31.4531 71.7626 31.5767C71.0429 32.0135 70.519 32.3575 70.1908 32.6089C69.864 32.7956 69.5378 32.9501 69.2123 33.0724C68.5504 33.8332 67.7917 34.592 66.9361 35.3488C66.1465 36.0423 65.3898 36.7043 64.666 37.3347C63.9423 37.9651 63.3175 38.5007 62.7915 38.9415C62.2669 39.3179 61.9703 39.6021 61.9016 39.7944C61.8343 39.9221 61.7018 40.0808 61.504 40.2703C62.4104 40.1604 63.1568 39.9825 63.7432 39.7367C64.5851 39.6254 65.3624 39.5128 66.0751 39.3988C66.8538 39.2216 67.5995 39.076 68.3123 38.962C68.896 38.8452 69.4474 38.7278 69.9665 38.6096C70.5501 38.4929 71.1661 38.3768 71.8143 38.2614L73.2666 38.2923C73.7802 38.4324 74.1373 38.3431 74.3378 38.0245C75.2442 37.9146 76.3085 37.9695 77.5308 38.1892C78.7544 38.3443 79.8051 39.0447 80.6827 40.2903C80.6827 40.2903 80.5858 40.2882 80.3922 40.2841C80.7726 40.6151 81.0576 40.8794 81.2471 41.0772C81.4367 41.2749 81.3007 41.5949 80.8393 42.0371C80.6374 42.4203 80.3071 42.7685 79.8485 43.0816C79.4543 43.3961 79.0952 43.5822 78.7711 43.6399L77.7823 44.5875C77.5846 44.7771 77.4191 44.9673 77.2859 45.1582C77.1499 45.4782 76.8863 45.7309 76.4949 45.9163C76.2985 46.0412 76.0362 46.2294 75.708 46.4807C75.4443 46.7334 75.2465 46.923 75.1147 47.0493C74.9156 47.3034 74.8462 47.5279 74.9067 47.7229C74.9685 47.8534 74.7412 47.9132 74.2248 47.9022C74.093 48.0285 73.9604 48.1872 73.8272 48.3781C73.6954 48.5044 73.5636 48.6308 73.4317 48.7571C73.2971 49.0126 73.0651 49.2982 72.7355 49.6141C72.4718 49.8668 72.1113 50.1174 71.654 50.366L71.6519 50.4629C71.1878 51.0342 70.692 51.5725 70.1647 52.0779C69.6387 52.5188 69.1127 52.9597 68.5868 53.4005C68.0621 53.7768 67.5698 54.1538 67.1098 54.5315C66.7156 54.846 66.419 55.1303 66.2199 55.3844C69.1368 54.8652 72.2172 54.2526 75.461 53.5466C78.7693 52.8419 81.8209 52.0673 84.6156 51.2226C84.8724 51.2926 85.1622 51.331 85.4849 51.3379C85.7458 51.2143 85.9731 51.1545 86.1668 51.1587C86.3604 51.1628 86.5218 51.1662 86.6509 51.1689C86.7799 51.1717 87.0697 51.2101 87.5202 51.2843C87.972 51.2939 88.2625 51.3 88.3916 51.3028L87.4605 54.0921L85.8022 54.638C85.3477 54.7575 84.9892 54.9113 84.7269 55.0995C84.2037 55.4113 83.7471 55.6276 83.3571 55.7484C83.033 55.8061 82.4136 56.0836 81.499 56.5807C81.1762 56.5739 80.8528 56.5993 80.5287 56.657C80.2046 56.7147 79.8798 56.8047 79.5543 56.9269C79.3579 57.0519 79.1622 57.1446 78.9672 57.205C78.7722 57.2654 78.4165 57.2902 77.9002 57.2792C76.921 57.775 76.3662 58.0538 76.2357 58.1156C76.1698 58.1788 76.2014 58.2118 76.3305 58.2145C76.005 58.3367 75.615 58.4576 75.1604 58.5771C74.7717 58.6334 74.5122 58.6925 74.3817 58.7543C74.0562 58.8765 73.6676 58.9328 73.2158 58.9232C72.8299 58.8505 72.6335 58.9754 72.6266 59.2982C73.0139 59.3064 73.3668 59.4108 73.6855 59.6113C74.07 59.7486 74.3893 59.9168 74.6434 60.1159L75.9577 62.0811C75.6227 62.6552 75.3185 63.2945 75.0452 63.999C74.8365 64.7049 74.6291 65.3463 74.4232 65.9231C74.2817 66.5013 74.0744 67.1426 73.8011 67.8472C73.5278 68.5517 73.1564 69.3187 72.6867 70.1482L71.6856 71.6768L71.1809 72.6347C70.8363 73.6606 70.4991 74.3315 70.1695 74.6474C70.1572 75.2283 69.8894 75.6746 69.3662 75.9864L68.8574 77.1379C68.7228 77.3934 68.5566 77.6159 68.3589 77.8054C68.2257 77.9963 68.1577 78.1563 68.155 78.2854C68.0795 78.8004 67.8144 79.1176 67.3598 79.2371L66.9623 79.713C67.9978 79.6059 69.0978 79.5001 70.2624 79.3957C71.4929 79.2281 72.6588 79.0591 73.7603 78.8888C75.3808 78.6003 77.0968 78.3785 78.9082 78.2232C80.721 78.0034 82.371 77.8448 83.8584 77.7472C84.0479 77.945 84.2086 77.9807 84.3404 77.8543C84.6659 77.7321 84.9591 77.6092 85.22 77.4855C85.4809 77.3619 85.963 77.469 86.6661 77.8069C86.7966 77.7451 86.9298 77.5542 87.0658 77.2342L90.4545 77.3062C90.9132 76.993 91.3664 76.9381 91.8141 77.1413C92.2055 76.9559 92.6594 76.8687 93.1757 76.8796L93.7567 76.892C94.0821 76.7697 94.3417 76.7107 94.5353 76.7148C94.7935 76.7203 94.9872 76.7244 95.1163 76.7271C95.6354 76.609 96.0879 76.5863 96.4738 76.6591C96.7347 76.5355 96.9943 76.4764 97.2525 76.4819C97.7716 76.3638 98.2557 76.3741 98.7048 76.5128C99.1566 76.5224 99.6393 76.5972 100.153 76.7373C100.218 76.7386 100.249 76.7716 100.248 76.8361C100.248 76.8361 100.312 76.8375 100.441 76.8403C100.57 76.843 100.796 76.8478 101.119 76.8547C101.443 76.797 101.961 76.7434 102.672 76.6939L101.051 80.0497C100.728 80.0429 100.47 80.0697 100.275 80.1301C100.146 80.1274 99.9835 80.1562 99.7885 80.2166C99.5934 80.2771 99.3662 80.3368 99.1066 80.3959C98.8484 80.3904 98.4934 80.3828 98.0416 80.3732L97.1681 80.4516ZM125.021 24.0873C125.068 24.9277 124.955 25.668 124.684 26.308C124.413 26.8834 124.078 27.4575 123.678 28.0301C123.544 28.2856 123.409 28.541 123.275 28.7965C123.141 28.9874 123.007 29.2428 122.871 29.5628C122.268 30.5832 121.664 31.6359 121.06 32.7209C120.456 33.8058 119.885 34.8592 119.346 35.881C118.608 37.2214 117.835 38.6256 117.029 40.0937C116.224 41.4973 115.156 43.1536 113.824 45.0626C113.873 45.774 113.891 46.4524 113.877 47.0979C113.864 47.7433 113.849 48.4211 113.834 49.1311C113.792 51.132 113.685 53.1316 113.513 55.1298C113.341 57.128 113.169 59.1585 112.996 61.2213C112.829 63.0259 112.661 64.8304 112.494 66.635C112.328 68.375 112.192 70.1803 112.088 72.0508C111.948 72.5644 111.647 73.0746 111.184 73.5814C110.722 74.0236 110.135 74.334 109.42 74.5125C108.274 73.7779 107.647 72.8928 107.54 71.8573C107.498 70.7586 107.52 69.7258 107.605 68.759C107.685 68.0504 107.697 67.4695 107.642 67.0163C107.795 65.9217 107.919 64.6328 108.015 63.1496C108.111 61.6664 108.171 60.3762 108.194 59.2789C108.207 58.6979 108.222 57.9556 108.242 57.052C108.325 56.1497 108.405 55.4411 108.48 54.9261C108.552 54.6047 108.591 54.2827 108.598 53.9599C108.606 53.5726 108.614 53.2176 108.62 52.8949C107.558 54.293 106.528 55.6595 105.531 56.9944C104.6 58.2661 103.474 59.566 102.154 60.8941L98.0632 61.9696L99.293 58.7992L99.8986 57.6497L101.594 55.3609C101.728 55.1055 101.895 54.8507 102.094 54.5967C102.359 54.2794 102.592 53.9615 102.793 53.6429L104.486 51.451C104.493 51.1282 104.597 50.8076 104.797 50.4889C105.063 50.1071 105.33 49.7253 105.596 49.3435C105.797 49.0249 105.997 48.7386 106.196 48.4845C106.396 48.1659 106.498 47.942 106.501 47.8129C106.903 47.1111 107.105 46.728 107.106 46.6634C107.173 46.5357 107.176 46.4389 107.112 46.373C107.581 45.608 108.05 44.7785 108.521 43.8844C109.058 42.9272 109.56 42.0984 110.027 41.398C111.502 38.8463 113.21 35.9766 115.15 32.789C115.416 32.4072 115.618 32.0564 115.754 31.7364C115.891 31.3518 116.026 31.0641 116.159 30.8732C116.295 30.5532 116.465 30.1694 116.668 29.7216C116.871 29.2739 117.138 28.8599 117.469 28.4794L117.667 28.2899L117.471 28.3826C114.881 28.715 112.417 29.2116 110.078 29.8722C107.741 30.4683 105.434 31.1297 103.159 31.8562C101.746 31.5033 100.792 30.805 100.297 29.7613C99.8592 29.1063 99.807 28.524 100.141 28.0144C100.539 27.5063 100.904 27.062 101.234 26.6816C102.269 26.639 103.174 26.5614 103.952 26.4487C104.73 26.2715 105.477 26.0614 106.193 25.8183C106.647 25.6988 107.134 25.58 107.653 25.4619C108.238 25.2805 108.791 25.1308 109.31 25.0127C109.893 24.896 110.445 24.7785 110.964 24.6604C111.547 24.5436 112.131 24.4269 112.715 24.3101C114.401 23.9585 116.055 23.6385 117.675 23.35C119.297 22.997 120.563 22.6687 121.474 22.3652C121.732 22.3707 122.054 22.4098 122.44 22.4826C122.892 22.4922 123.182 22.5306 123.309 22.5979C123.629 22.7339 123.917 22.8691 124.173 23.0037C124.493 23.1397 124.777 23.404 125.027 23.7968L125.021 24.0873ZM146.702 70.4614C146.264 72.8414 145.891 75.2227 145.582 77.6055C145.274 79.9237 144.964 82.371 144.651 84.9474C144.339 87.4592 144.028 89.9711 143.716 92.4829C143.404 94.9947 143.029 97.4729 142.589 99.9175C142.515 100.368 142.379 100.72 142.18 100.974C141.98 101.228 141.748 101.514 141.483 101.831C141.351 101.958 141.151 102.276 140.882 102.787C140.236 102.773 139.594 102.598 138.956 102.262C138.316 101.99 138.003 101.499 138.018 100.789C138.235 99.6958 138.388 98.569 138.478 97.4085C138.567 96.2481 138.655 95.1199 138.743 94.0239C138.835 92.7344 138.928 91.4125 139.021 90.0584C139.115 88.7043 139.334 87.5143 139.678 86.4884C139.754 85.9734 139.796 85.49 139.806 85.0382C139.815 84.5863 139.825 84.1345 139.835 83.6827C139.862 82.3918 139.92 81.1983 140.008 80.1024C140.095 79.0065 140.312 77.9133 140.658 76.8228C140.669 76.3065 140.68 75.7901 140.691 75.2737C140.767 74.7587 140.842 74.2437 140.918 73.7287C140.724 73.7246 140.465 73.7514 140.141 73.8091C139.883 73.8036 139.689 73.7995 139.56 73.7967C138.653 73.9712 137.811 74.0502 137.037 74.0337C135.348 74.5144 133.593 75.0261 131.774 75.5686C130.02 76.0479 128.294 76.7539 126.595 77.6865C126.53 77.6851 126.369 77.6817 126.111 77.6762C125.918 77.6075 125.758 77.5718 125.629 77.5691C125.18 77.4304 124.795 77.293 124.475 77.1571C124.22 77.0225 123.968 76.7266 123.719 76.2693C123.468 75.941 123.251 75.5167 123.068 74.9962C122.951 74.4125 122.995 73.8646 123.2 73.3523C123.983 72.9815 124.797 72.6436 125.643 72.3387C126.49 71.9693 127.239 71.6946 127.888 71.5146C128.214 71.3924 128.506 71.3017 128.766 71.2427C129.09 71.185 129.415 71.095 129.74 70.9728C130.066 70.8506 130.39 70.7606 130.715 70.7029C131.82 70.3389 132.859 70.0704 133.831 69.8973C134.805 69.6597 135.81 69.4551 136.847 69.2834C137.884 69.1117 138.889 68.9393 139.861 68.7662C140.899 68.5299 141.874 68.2278 142.786 67.8597C142.915 67.8624 143.044 67.8975 143.171 67.9647C143.365 67.9689 143.526 67.9723 143.655 67.975C144.234 68.1165 144.779 68.2895 145.291 68.4941C145.869 68.6355 146.312 69.097 146.618 69.8784L146.702 70.4614ZM142.146 34.1375C141.875 34.7774 141.533 35.642 141.123 36.731C140.713 37.7556 140.403 38.6853 140.192 39.5203C140.383 39.6535 140.542 39.7538 140.67 39.8211C140.862 39.8897 141.047 40.2811 141.226 40.9952C140.885 41.8275 140.484 42.4647 140.023 42.907C139.561 43.3492 139.166 43.7282 138.836 44.0441L138.834 44.1409C138.418 45.4882 138.101 46.7407 137.883 47.8984C137.664 49.0562 137.447 50.1816 137.23 51.2748L137.232 51.178C137.008 52.5939 136.721 53.9439 136.371 55.228C136.087 56.4489 135.668 57.8929 135.116 59.5602C133.95 59.7292 133.176 59.7127 132.793 59.5108C132.476 59.2458 132.193 58.8523 131.946 58.3305C131.883 58.2646 131.788 58.1657 131.662 58.0338C131.6 57.9034 131.57 57.8059 131.571 57.7413C131.574 57.6122 131.578 57.4186 131.583 57.1604C131.655 56.839 131.692 56.6138 131.695 56.4847C131.784 55.3243 131.87 54.3251 131.952 53.4874C132.036 52.5851 132.118 51.7474 132.199 50.9742C132.282 50.1365 132.365 49.2664 132.448 48.3642C132.597 47.4632 132.78 46.4339 132.998 45.2762C131.051 45.7514 129.069 46.3551 127.051 47.0871C125.1 47.756 123.144 48.6185 121.184 49.6747C120.407 49.7873 119.796 49.6775 119.351 49.3452C118.972 48.9496 118.625 48.5548 118.311 48.1607C118.249 48.0302 118.123 47.8661 117.934 47.6684C117.747 47.3415 117.621 47.1774 117.557 47.176C117.558 47.1115 117.559 47.0469 117.561 46.9824C117.499 46.8519 117.476 46.3994 117.493 45.6248C118.017 45.2485 118.442 44.9993 118.768 44.877C119.159 44.6916 119.518 44.5055 119.845 44.3187C120.042 44.1937 120.238 44.0688 120.434 43.9438C120.631 43.8188 120.859 43.6945 121.12 43.5709C121.704 43.4542 122.255 43.3367 122.774 43.2186C123.294 43.1005 123.846 42.9508 124.431 42.7695C125.341 42.4659 126.219 42.194 127.063 41.9536C127.972 41.7146 128.783 41.5381 129.496 41.4241C130.337 41.3774 131.084 41.1672 131.737 40.7937C132.193 40.6096 132.649 40.4579 133.103 40.3384C133.559 40.1543 134.046 40.0355 134.564 39.9819L134.57 39.6915L134.988 38.2474L134.992 38.0538C135.132 37.5401 135.307 36.9304 135.515 36.2245C135.789 35.5199 136.094 34.8161 136.432 34.1129C136.771 33.3452 137.173 32.6757 137.637 32.1044C138.103 31.4685 138.63 30.9631 139.219 30.5882C139.989 30.7983 140.564 31.1333 140.941 31.5934C141.32 31.9889 141.603 32.3501 141.79 32.6769C141.853 32.7428 141.883 32.8726 141.879 33.0663C141.939 33.2613 142.028 33.6183 142.146 34.1375ZM144.456 57.6276C144.368 55.6885 144.408 53.8166 144.576 52.012C144.809 50.1443 145.138 48.3431 145.562 46.6086C145.987 44.8741 146.475 43.1732 147.027 41.5059C147.645 39.7755 148.23 38.0767 148.782 36.4094C149.331 34.8713 149.882 33.2686 150.434 31.6013C150.987 29.8695 151.473 28.2655 151.892 26.7891C153.125 26.4924 153.995 26.6078 154.5 27.1351C155.071 27.5993 155.544 28.1259 155.919 28.7151C155.981 28.8455 156.011 28.9753 156.008 29.1044C156.071 29.1703 156.195 29.4313 156.379 29.8872C156.019 31.6231 155.565 33.2601 155.015 34.7983C154.531 36.3378 154.014 37.8444 153.466 39.318C152.636 41.948 151.838 44.5141 151.075 47.0163C150.313 49.454 149.772 52.1224 149.452 55.0215C149.188 55.2742 149.055 55.4651 149.052 55.5942C149.043 56.0461 148.936 56.4958 148.733 56.9435C148.59 57.5863 148.384 58.1953 148.113 58.7708C147.844 59.2817 147.291 59.4637 146.455 59.3167C145.936 59.4349 145.582 59.3628 145.394 59.1005C145.206 58.8382 145.05 58.5443 144.928 58.2188C144.802 58.087 144.645 57.8899 144.456 57.6276ZM196.005 49.8112C191.468 50.6189 187.12 51.592 182.963 52.7307C178.872 53.8061 174.804 55.3018 170.76 57.2177C170.047 57.3318 169.468 57.2226 169.023 56.8903C168.643 56.5593 168.296 56.1645 167.983 55.7058C167.858 55.5094 167.701 55.3123 167.511 55.1146C167.322 54.9168 167.133 54.6868 166.945 54.4245C167.019 53.9741 167.159 53.4604 167.365 52.8836C167.571 52.3068 167.776 51.7623 167.981 51.25C167.984 51.1209 168.019 50.9602 168.088 50.768C168.157 50.5757 168.225 50.4157 168.292 50.288C168.579 48.938 168.827 47.91 169.035 47.2041C169.31 46.435 169.618 45.6021 169.96 44.7053C170.1 44.1917 170.272 43.711 170.475 43.2633C170.68 42.751 170.851 42.2704 170.99 41.8213C170.146 42.0616 169.396 42.3686 168.743 42.7422C168.09 43.0512 167.305 43.5511 166.386 44.2419C165.614 44.0964 164.974 43.8245 164.466 43.4262C164.023 43.0293 163.612 42.6009 163.234 42.1408L162.76 41.6464C162.524 40.6082 162.668 39.9009 163.193 39.5246C163.782 39.1497 164.304 38.9025 164.759 38.783C168.013 37.5606 171.331 36.4041 174.712 35.3136C178.095 34.1585 181.635 33.1682 185.334 32.3427C185.53 32.2177 185.758 32.1257 186.018 32.0667C186.278 31.9431 186.567 32.046 186.883 32.3756C187.273 32.2548 187.596 32.2293 187.853 32.2994C188.11 32.3694 188.431 32.4731 188.815 32.6104C188.943 32.6777 189.039 32.712 189.103 32.7134C189.168 32.7148 189.264 32.7491 189.392 32.8164C189.52 32.8837 189.616 32.918 189.68 32.9194L189.833 34.8599C188.333 35.5384 187.03 36.0919 185.923 36.5204C184.882 36.8857 183.744 37.249 182.51 37.6102C181.209 38.0346 179.876 38.4584 178.511 38.8814C177.211 39.3058 176.105 39.6698 175.195 39.9733C175.513 40.1738 175.831 40.4066 176.148 40.6716C176.466 40.9367 176.683 41.3287 176.801 41.8479C176.464 42.551 176.122 43.4155 175.778 44.4414C175.499 45.4042 175.187 46.4307 174.84 47.5212C174.7 48.0348 174.529 48.5155 174.326 48.9632C174.188 49.3477 174.05 49.7968 173.909 50.3105C175.991 49.5798 178.104 48.9466 180.246 48.4109C182.454 47.8121 184.628 47.3416 186.766 46.9996L189.296 46.4722C190.398 46.2373 191.5 46.0347 192.602 45.8643C193.769 45.6308 194.999 45.4955 196.291 45.4584C196.419 45.5257 196.514 45.5923 196.578 45.6582C196.641 45.7241 196.736 45.7907 196.864 45.858C197.119 45.9926 197.343 46.1265 197.533 46.2597C197.789 46.3943 197.98 46.4952 198.108 46.5625L197.682 48.3939C197.746 48.3952 197.647 48.5223 197.383 48.775C197.185 48.9645 196.987 49.1863 196.788 49.4404C196.59 49.6299 196.329 49.7535 196.005 49.8112ZM195.588 69.4657C193.308 70.3859 191.161 71.1475 189.146 71.7505C187.131 72.3534 185.084 72.9557 183.005 73.5573C179.886 74.4597 176.702 75.393 173.453 76.3572C170.268 77.3227 167.174 78.5808 164.171 80.1314C163.334 79.9845 162.568 79.5807 161.872 78.9202C161.24 78.261 160.738 77.5723 160.366 76.8541C160.771 76.0232 161.234 75.4841 161.756 75.2369C162.279 74.9251 162.801 74.7102 163.32 74.5921C163.449 74.5948 163.546 74.5969 163.61 74.5982C163.676 74.5351 163.774 74.5048 163.903 74.5076C164.032 74.5103 164.129 74.4801 164.195 74.4169C165.694 73.803 167.385 73.1932 169.271 72.5875C171.223 71.9186 173.076 71.3122 174.831 70.7683C175.611 70.5266 176.359 70.2842 177.074 70.0411C177.854 69.7993 178.57 69.5562 179.221 69.3118C179.548 69.125 179.84 69.0343 180.098 69.0398C180.358 68.9807 180.584 68.9533 180.778 68.9574C180.972 68.9615 181.133 68.9649 181.262 68.9677C181.457 68.9072 181.654 68.75 181.853 68.4959L185.747 67.61C186.98 67.3133 188.18 67.0482 189.348 66.8147C190.581 66.518 191.879 66.2227 193.241 65.9288C193.689 66.132 193.979 66.1705 194.11 66.0441C194.629 65.926 195.017 65.9342 195.272 66.0688C195.594 66.1402 196.199 66.5405 197.087 67.2697L195.588 69.4657ZM189.937 20.8169C190.058 21.2069 190.115 21.5633 190.108 21.886C190.102 22.2087 189.806 22.4607 189.221 22.642C187.721 23.3205 186.125 23.9647 184.433 24.5745C182.807 25.1211 181.246 25.6369 179.751 26.1217C177.865 26.7274 175.914 27.364 173.898 28.0315C171.947 28.7004 170.123 29.4366 168.427 30.24C167.717 30.2249 166.984 29.7896 166.227 28.934C165.535 28.0799 165.035 27.2943 164.727 26.5774C166.364 25.5144 167.93 24.7405 169.426 24.2557C170.923 23.7063 172.419 23.1892 173.915 22.7043C174.566 22.4599 175.248 22.2483 175.962 22.0698C176.678 21.8267 177.362 21.5506 178.014 21.2416C178.21 21.1166 178.405 21.0562 178.599 21.0603C178.859 21.0012 179.119 20.9099 179.38 20.7863C180.745 20.3633 182.109 19.9725 183.473 19.614C184.901 19.2569 186.327 19.0289 187.75 18.93C188.778 19.1455 189.507 19.7745 189.937 20.8169Z" fill="#78E3D3"/>
<path d="M278.09 35.0606C277.674 36.4078 277.282 38.1108 276.916 40.1694C276.549 42.228 276.212 44.4165 275.904 46.7347C275.598 48.9883 275.325 51.2104 275.085 53.4009C274.844 55.5913 274.643 57.4921 274.479 59.103C274.869 58.9821 275.227 58.8606 275.553 58.7383C275.943 58.6175 276.3 58.4959 276.626 58.3737C277.797 57.9465 278.935 57.5832 280.039 57.2838C281.145 56.9198 282.727 56.8889 284.787 57.191C284.186 58.1468 283.685 58.9434 283.284 59.5806C282.883 60.2179 282.358 60.5942 281.71 60.7095C281.253 60.9581 280.731 61.1731 280.146 61.3544C279.626 61.537 279.039 61.7829 278.387 62.0919C277.606 62.3982 276.759 62.7354 275.847 63.1035C275 63.4729 274.216 63.9083 273.495 64.4096C273.287 65.0509 272.983 65.7225 272.58 66.4243C272.242 67.1275 271.808 67.8286 271.276 68.5276C269.974 69.0166 269.168 68.9994 268.856 68.4762C268.61 67.8898 268.464 67.1763 268.417 66.3359C267.05 66.8234 265.584 67.438 264.019 68.1797C262.518 68.9227 261.114 69.6678 259.806 70.4149C259.871 70.4163 259.835 70.577 259.699 70.897C259.628 71.2184 259.525 71.5068 259.39 71.7622C259.32 72.019 258.896 72.236 258.117 72.4132C257.415 72.0108 256.939 71.6133 256.689 71.2205C256.504 70.8291 256.35 70.4707 256.228 70.1452C255.919 69.4929 255.386 68.7389 254.629 67.8834C255.157 67.378 255.491 66.8362 255.633 66.258C255.775 65.6153 255.819 65.0673 255.764 64.6141C255.656 63.6432 255.74 62.7086 256.018 61.8104C256.16 61.1677 256.247 60.1363 256.277 58.7163C256.372 57.2976 256.468 55.8144 256.565 54.2667C256.661 52.7835 256.722 51.4287 256.749 50.2023C256.776 48.9113 256.862 47.9122 257.006 47.205L257.168 39.5562C257.17 39.4916 257.138 39.4587 257.074 39.4573C257.074 39.4573 257.075 39.3927 257.078 39.2637C256.968 38.3573 256.952 37.582 257.03 36.9379C257.11 36.2293 257.637 35.7239 258.612 35.4217C259.519 35.3118 260.13 35.4216 260.446 35.7512C260.826 36.0822 261.174 36.4447 261.488 36.8389C262.988 36.1604 264.518 35.5794 266.078 35.096C267.704 34.5493 269.329 34.035 270.954 33.5529C271.734 33.3111 272.545 33.1024 273.389 32.9265C274.232 32.7507 275.011 32.5413 275.727 32.2982C276.372 32.3119 276.821 32.4828 277.072 32.8111C277.325 33.0747 277.512 33.3693 277.634 33.6948C277.634 33.6948 277.786 34.15 278.09 35.0606ZM316.15 26.2796C315.51 29.0427 314.935 31.775 314.426 34.4764C313.981 37.1791 313.534 39.9787 313.085 42.8751C313.136 43.5219 313.124 44.1028 313.048 44.6178C312.973 45.1328 312.899 45.5833 312.826 45.9692C312.612 46.9333 312.529 47.8033 312.577 48.5792L312.074 53.9929C312.06 54.6384 312.014 55.2832 311.936 55.9273C311.859 56.5068 311.815 57.0871 311.802 57.668L311.452 65.0222C311.446 65.345 311.375 65.634 311.24 65.8895C311.17 66.1463 311.1 66.4031 311.03 66.6599L310.519 67.9083C310.124 68.2874 309.732 68.5051 309.343 68.5614C308.954 68.6177 308.696 68.6122 308.569 68.5449C308.071 67.6303 307.707 66.557 307.475 65.3252C307.307 64.0947 307.205 62.801 307.17 61.4441C307.134 60.0873 307.13 58.7634 307.157 57.4724C307.249 56.1829 307.307 54.9894 307.33 53.8922C307.351 52.9239 307.37 51.988 307.39 51.0844C307.473 50.1821 307.493 49.2784 307.447 48.3734C307.472 47.2116 307.525 46.2118 307.608 45.374C307.756 44.4731 307.905 43.5399 308.055 42.5745C308.126 42.2531 308.128 42.1563 308.061 42.284C308.058 42.4131 308.092 42.317 308.164 41.9956C307.838 42.1178 307.545 42.2408 307.284 42.3644C307.088 42.4893 306.924 42.615 306.792 42.7414C305.942 43.2399 305.06 43.7378 304.145 44.235C303.296 44.669 302.447 45.1352 301.597 45.6338C299.967 46.3741 298.367 47.2119 296.797 48.1471C295.227 49.0824 293.818 50.0857 292.568 51.157C292.429 51.606 292.321 52.1204 292.245 52.6999C292.234 53.2163 292.225 53.6358 292.218 53.9586C292.072 54.7304 291.959 55.5029 291.878 56.2761C291.797 57.0493 291.685 57.7572 291.542 58.4C291.394 59.3009 291.247 60.1372 291.101 60.9091C291.02 61.6822 291.005 62.4245 291.054 63.1359C290.829 64.6164 290.133 65.4411 288.967 65.6101L286.703 62.7529L287.317 52.1109C286.813 51.519 286.698 50.8708 286.971 50.1663C287.309 49.4631 287.612 48.8561 287.881 48.3452C288.046 46.6697 288.21 45.0265 288.373 43.4156C288.538 41.7401 288.703 40.0646 288.868 38.3892C289.004 38.0692 289.075 37.7478 289.082 37.4251C289.155 37.0392 289.194 36.6848 289.201 36.3621C289.207 36.1039 289.18 35.8451 289.121 35.5855C289.126 35.3273 289.199 34.9737 289.337 34.5246C289.356 33.6209 289.346 32.5875 289.306 31.4243C289.266 30.2611 289.255 29.2599 289.273 28.4208C289.807 27.5927 290.236 27.182 290.559 27.1889C290.881 27.1957 291.267 27.3008 291.714 27.504C291.777 27.5699 291.97 27.6063 292.293 27.6132C293.311 28.3451 294.004 29.167 294.372 30.0789C294.74 30.9908 294.913 31.9631 294.891 32.9959C294.879 33.5768 294.833 34.1893 294.755 34.8334C294.678 35.413 294.57 35.9595 294.43 36.4732C294.285 37.1805 294.174 37.8561 294.096 38.5002C294.019 39.0798 294.005 39.7253 294.055 40.4366L293.491 44.2023C294.603 43.5156 295.746 42.8942 296.92 42.3379C298.16 41.7185 299.431 41.1643 300.733 40.6754C302.037 40.1219 303.374 39.5045 304.744 38.8233C306.179 38.1435 307.487 37.3963 308.666 36.5819C308.827 35.1001 309.052 33.6196 309.342 32.1405C309.698 30.5982 310.052 29.0882 310.407 27.6105C310.55 26.9678 310.694 26.2605 310.839 25.4887C311.049 24.7183 311.226 24.0117 311.369 23.3689C312.474 23.005 313.282 22.9898 313.791 23.3235C314.301 23.6572 314.712 24.0534 315.025 24.5121C315.212 24.839 315.465 25.1026 315.783 25.3031L316.15 26.2796ZM270.128 49.6147C270.226 48.067 270.425 46.2631 270.727 44.2031C271.031 42.0785 271.361 40.2128 271.718 38.606C270.227 38.8972 268.698 39.4137 267.133 40.1553C265.633 40.8338 264.293 41.6125 263.112 42.4915C262.849 42.6796 262.562 42.5444 262.248 42.0857C262.213 43.7639 262.141 45.6028 262.034 47.6024C261.993 49.5388 261.887 51.5061 261.715 53.5043C261.608 55.5039 261.471 57.406 261.303 59.2105C261.136 61.0151 260.973 62.626 260.813 64.0433C261.462 63.9279 262.111 63.748 262.762 63.5035C263.414 63.1945 264.067 62.8855 264.719 62.5765C265.632 62.1438 266.479 61.8067 267.259 61.5649C268.04 61.2586 268.724 61.0149 269.309 60.8336C269.384 60.3185 269.429 59.7383 269.443 59.0928C269.458 58.3828 269.505 57.6735 269.585 56.9649C269.678 55.6107 269.74 54.2237 269.77 52.8036C269.866 51.3204 269.985 50.2575 270.128 49.6147ZM364.576 29.3425C364.413 30.9534 364.249 32.5643 364.086 34.1752C363.988 35.723 363.859 37.2378 363.699 38.7196C363.538 40.2015 363.377 41.7156 363.215 43.2619C363.053 44.8083 362.856 46.4831 362.624 48.2863C362.545 48.9304 362.466 49.6068 362.387 50.3154C362.372 51.0254 362.325 51.7025 362.247 52.3466C361.982 55.6989 361.619 59.1137 361.157 62.591C360.761 66.0697 360.012 69.4117 358.91 72.6171C358.518 72.8671 358.223 73.0546 358.027 73.1796C357.832 73.24 357.408 73.4247 356.756 73.7337L355.332 72.3474C355.44 70.2833 355.585 68.0585 355.764 65.673C355.944 63.2875 356.155 60.9672 356.397 58.7122C356.557 57.2304 356.686 55.7156 356.784 54.1678C356.947 52.5569 357.11 50.9782 357.272 49.4319C355.054 50.4825 352.706 51.5627 350.229 52.6725C347.816 53.7836 345.502 54.7999 343.287 55.7215C342.703 55.8383 342.051 56.115 341.332 56.5518C340.678 56.9253 340.024 57.2989 339.371 57.6725C338.781 58.0474 338.096 58.4203 337.313 58.7911C336.53 59.1619 335.717 59.4353 334.874 59.6111C334.416 59.8597 333.796 60.2016 333.012 60.637C332.292 61.0738 331.605 61.4789 330.952 61.8525C330.626 61.9747 330.235 62.1601 329.777 62.4087C329.32 62.6573 328.896 62.8743 328.504 63.0597C327.792 63.1737 327.021 62.9636 326.193 62.4294C325.431 61.8321 324.833 61.109 324.399 60.2603C324.738 59.4926 324.949 58.6576 325.033 57.7553C325.183 56.7899 325.334 55.7599 325.486 54.6653C325.636 53.6999 325.753 52.7337 325.838 51.7669C325.989 50.7369 326.236 49.7735 326.578 48.8767C326.727 47.9112 326.876 46.978 327.025 46.0771C327.174 45.1116 327.325 44.0816 327.478 42.9871C327.693 41.9584 327.878 40.8646 328.032 39.7055C328.187 38.4818 328.345 37.1291 328.505 35.6473C329.162 35.1446 329.683 34.9296 330.069 35.0024C330.519 35.0766 330.937 35.1823 331.321 35.3196C331.32 35.3842 331.545 35.4212 331.997 35.4308C332.636 35.7673 333.044 36.2926 333.223 37.0067C333.401 37.7208 333.418 38.4638 333.272 39.2356C332.682 42.7102 332.165 45.7666 331.722 48.4048C331.344 50.9798 330.964 53.6839 330.581 56.5171L334.202 54.7536C336.486 53.6398 338.865 52.5925 341.34 51.6119C343.816 50.5667 346.223 49.746 348.56 49.1499C349.803 48.4014 351.173 47.7202 352.672 47.1063C354.171 46.4278 355.666 46.0075 357.154 45.8454C357.285 45.7836 357.447 45.7225 357.642 45.662C357.839 45.5371 357.938 45.41 357.941 45.2809C358.029 44.185 358.117 43.0891 358.205 41.9932C358.294 40.8327 358.415 39.7052 358.567 38.6106C358.732 36.9351 358.897 35.2597 359.061 33.5842C359.226 31.9087 359.294 30.2312 359.265 28.5516C359.864 27.7248 360.356 27.3478 360.742 27.4206C361.129 27.4288 361.484 27.4686 361.805 27.54C361.933 27.6073 362.061 27.6424 362.19 27.6451C362.385 27.5847 362.646 27.4933 362.971 27.3711L364.576 29.3425ZM401.793 34.5888C401.457 35.2274 401.153 35.8667 400.881 36.5067C400.675 37.0835 400.467 37.7572 400.257 38.5276C398.89 42.0503 397.331 45.5365 395.579 48.9864C393.828 52.3717 392.078 55.6925 390.33 58.9488C391.413 59.6821 392.103 60.6331 392.401 61.8018C392.699 62.9705 392.932 64.1701 393.099 65.4006C393.161 65.5311 393.189 65.7254 393.184 65.9836C393.178 66.2418 393.206 66.4361 393.268 66.5666C393.367 67.9893 393.466 69.4121 393.565 70.8349C393.73 72.1945 393.895 73.5541 394.059 74.9137C394.342 76.7924 394.56 78.702 394.713 80.6425C394.931 82.5199 395.018 84.4913 394.974 86.5568C394.966 86.9441 394.924 87.4275 394.847 88.007C394.833 88.6525 394.788 89.265 394.711 89.8446C394.697 90.49 394.621 91.0373 394.482 91.4864C394.344 91.9355 394.177 92.158 393.984 92.1538C393.973 92.6702 393.866 93.12 393.665 93.5032C393.463 93.8863 392.976 94.0051 392.204 93.8596C392.074 93.9214 391.944 93.9509 391.815 93.9482C391.684 94.01 391.554 94.0718 391.423 94.1336C391.228 94.194 391.065 94.2551 390.935 94.317C390.309 93.3996 389.972 92.5207 389.926 91.6802C389.879 90.8397 389.865 89.9676 389.884 89.064C389.891 88.7412 389.899 88.354 389.909 87.9021C389.919 87.4503 389.894 87.0623 389.837 86.7382C389.616 84.99 389.427 83.2424 389.27 81.4955C389.114 79.7487 388.956 78.0341 388.798 76.3517C388.64 74.6694 388.482 73.0193 388.322 71.4016C388.164 69.7192 388.008 67.9401 387.854 66.0641C387.541 65.6054 387.357 65.1495 387.302 64.6963C387.312 64.2444 387.32 63.8572 387.327 63.5344C386.73 64.2967 386.198 64.9957 385.733 65.6316C385.332 66.2688 384.931 66.906 384.53 67.5433C382.994 69.9 381.462 72.0953 379.934 74.1293C378.82 74.8805 377.831 75.8604 376.966 77.069C376.165 78.2789 375.398 79.425 374.665 80.5072L374.263 81.1767L372.397 82.3963L370.755 82.1677C370.528 80.6776 370.65 79.5179 371.119 78.6884C371.59 77.7943 372.093 76.9332 372.627 76.1051C372.826 75.851 372.993 75.5962 373.128 75.3408C373.327 75.0867 373.527 74.8004 373.727 74.4817C378.244 68.5721 382.18 62.6179 385.537 56.6191C388.894 50.5557 391.835 44.3543 394.359 38.0149C392.222 38.2924 389.984 38.7937 387.643 39.5189C385.368 40.2455 383.155 41.0379 381.006 41.8964C380.681 42.0186 380.323 42.1401 379.933 42.261C379.607 42.3832 379.282 42.5055 378.956 42.6277C378.244 42.7417 377.73 42.6017 377.416 42.2075C377.101 41.8134 376.82 41.3877 376.571 40.9304C376.386 40.539 376.135 40.1785 375.819 39.8489C375.971 38.7543 376.309 38.0834 376.83 37.8362C377.354 37.5245 377.907 37.3102 378.491 37.1934C378.944 37.1385 379.269 37.0485 379.465 36.9236C379.855 36.8027 380.277 36.6825 380.732 36.563C381.252 36.3803 381.774 36.1654 382.296 35.9182C384.574 35.0625 386.883 34.2721 389.223 33.5469C391.563 32.8217 393.962 32.3883 396.419 32.2468C396.88 31.8046 397.369 31.5889 397.885 31.5999C398.468 31.5477 399.015 31.6239 399.527 31.8285C400.04 32.0331 400.485 32.3332 400.864 32.7287C401.309 33.061 401.625 33.3906 401.812 33.7175L401.793 34.5888ZM424.655 39.0459C424.772 39.6296 425.02 40.1192 425.399 40.5147C425.778 40.9102 425.767 41.4588 425.364 42.1606C425.231 42.3515 425.129 42.5754 425.059 42.8322C424.991 43.0245 424.922 43.2167 424.853 43.409C424.783 43.6658 424.746 43.8911 424.742 44.0847C424.739 44.2138 424.671 44.4061 424.536 44.6615L422.077 55.5549C421.933 56.2622 421.789 56.9694 421.644 57.6767C421.502 58.3194 421.261 59.0247 420.921 59.7924C420.555 61.851 420.159 63.7476 419.735 65.4821C419.312 67.1521 418.921 68.8228 418.563 70.4942C418.427 70.8141 418.323 71.1671 418.25 71.553C418.177 71.9389 418.073 72.2919 417.937 72.6119L417.344 73.1804C417.014 73.4963 416.686 73.7154 416.361 73.8376C416.036 73.9599 415.584 73.918 415.008 73.712C414.123 72.7891 413.659 71.8429 413.615 70.8734C413.635 69.9052 413.787 68.8752 414.068 67.7833C414.138 67.5265 414.176 67.2367 414.183 66.914C414.256 66.5281 414.328 66.2067 414.398 65.9499C414.702 63.7608 415.07 61.6699 415.499 59.6772C415.929 57.6845 416.359 55.6917 416.789 53.699L416.799 53.2149C414.397 53.8096 411.992 54.5657 409.583 55.4832C407.176 56.3361 404.796 57.3834 402.445 58.6249C401.539 58.7348 400.864 58.5591 400.422 58.0976C399.98 57.6362 399.604 57.1116 399.293 56.5238C399.168 56.3275 399.043 56.1311 398.918 55.9347C398.793 55.7383 398.51 55.4094 398.068 54.948C399.773 53.6927 401.375 52.7581 402.873 52.1442C404.436 51.5316 405.998 50.9836 407.558 50.5001C408.858 50.0757 410.16 49.619 411.461 49.1301L418.571 47.3438L419.32 43.9695C419.469 43.0686 419.618 42.1354 419.767 41.17C419.917 40.2045 420.266 38.985 420.814 37.5114C421.849 37.4042 422.622 37.5175 423.131 37.8512C423.642 38.1203 424.15 38.5186 424.655 39.0459Z" fill="#78E3D3"/>
<circle cx="226.5" cy="52.5" r="6.5" fill="#78E3D3"/>
</svg>
