<svg width="939" height="204" viewBox="0 0 939 204" fill="none" xmlns="http://www.w3.org/2000/svg">
<path d="M0.574984 153.989C4.00698 152.897 6.34699 150.635 7.59498 147.203C8.84298 143.771 9.46699 137.609 9.46699 128.717V30.2032C9.46699 21.3112 8.84298 15.1492 7.59498 11.7172C6.34699 8.12924 4.00698 5.86724 0.574984 4.93124V2.12324H53.459C65.159 2.12324 75.845 3.68324 85.517 6.80325C95.189 9.76724 103.223 13.8232 109.619 18.9712C116.015 23.9632 121.397 29.8912 125.765 36.7553C130.133 43.4632 133.253 50.4052 135.125 57.5812C137.153 64.6012 138.245 71.7772 138.401 79.1092C138.401 102.509 131.147 121.307 116.639 135.503C102.131 149.699 82.787 156.797 58.607 156.797H0.574984V153.989ZM27.485 137.375C27.485 142.991 28.421 147.125 30.293 149.777C32.321 152.273 36.221 153.521 41.993 153.521H58.139C77.327 153.521 92.147 146.969 102.599 133.865C113.051 120.761 118.277 102.509 118.277 79.1092C118.277 68.5012 116.405 58.5952 112.661 49.3912C109.073 40.0312 104.237 32.2312 98.153 25.9912C92.225 19.7512 85.283 14.9152 77.327 11.4832C69.371 7.89524 61.181 6.10124 52.757 6.10124H27.485V137.375ZM250.9 124.271L253.006 126.143C237.562 147.359 219.856 157.967 199.888 157.967C193.648 157.967 187.408 156.797 181.168 154.457C175.084 152.117 169.39 148.763 164.086 144.395C158.938 140.027 154.726 134.255 151.45 127.079C148.33 119.747 146.77 111.635 146.77 102.743C146.77 84.9592 152.542 70.3732 164.086 58.9852C175.786 47.5972 189.67 41.9032 205.738 41.9032C219.466 41.9032 230.386 45.7252 238.498 53.3692C246.61 61.0132 250.822 70.3732 251.134 81.4492H163.384C162.916 84.8812 162.682 88.3912 162.682 91.9792C162.682 107.423 167.05 119.903 175.786 129.419C184.678 138.935 196.378 143.693 210.886 143.693C226.018 143.693 239.356 137.219 250.9 124.271ZM198.484 45.8812C189.28 45.7252 181.714 48.6892 175.786 54.7732C169.858 60.8572 165.958 68.8132 164.086 78.6412H233.116C231.868 70.2172 228.124 62.6512 221.884 55.9432C215.8 49.2352 208 45.8812 198.484 45.8812ZM332.48 43.3072H358.922V46.3492C351.59 46.3492 345.428 52.9012 340.436 66.0052C339.032 69.5932 335.522 78.8752 329.906 93.8512C324.446 108.671 319.298 122.711 314.462 135.971L307.208 155.627H299.018L266.96 69.9832C266.804 69.5152 266.414 68.5792 265.79 67.1752C265.322 65.6152 264.932 64.4452 264.62 63.6652C264.308 62.7292 263.84 61.5592 263.216 60.1552C262.592 58.7512 261.968 57.5812 261.344 56.6452C260.876 55.7092 260.252 54.6952 259.472 53.6032C258.848 52.3552 258.146 51.4192 257.366 50.7952C256.742 50.0152 256.04 49.2352 255.26 48.4552C254.48 47.6752 253.622 47.1292 252.686 46.8172C251.75 46.5052 250.814 46.3492 249.878 46.3492V43.3072H288.02V46.3492C280.844 46.3492 279.518 53.1352 284.042 66.7072C286.382 73.4152 289.736 82.6972 294.104 94.5532C298.472 106.409 302.294 116.627 305.57 125.207L310.25 137.843C324.758 97.4392 333.65 73.2592 336.926 65.3032C339.578 58.4392 340.436 53.6032 339.5 50.7952C338.564 47.8312 336.302 46.3492 332.714 46.3492L332.48 43.3072ZM455.312 124.271L457.418 126.143C441.974 147.359 424.268 157.967 404.3 157.967C398.06 157.967 391.82 156.797 385.58 154.457C379.496 152.117 373.802 148.763 368.498 144.395C363.35 140.027 359.138 134.255 355.862 127.079C352.742 119.747 351.182 111.635 351.182 102.743C351.182 84.9592 356.954 70.3732 368.498 58.9852C380.198 47.5972 394.082 41.9032 410.15 41.9032C423.878 41.9032 434.798 45.7252 442.91 53.3692C451.022 61.0132 455.234 70.3732 455.546 81.4492H367.796C367.328 84.8812 367.094 88.3912 367.094 91.9792C367.094 107.423 371.462 119.903 380.198 129.419C389.09 138.935 400.79 143.693 415.298 143.693C430.43 143.693 443.768 137.219 455.312 124.271ZM402.896 45.8812C393.692 45.7252 386.126 48.6892 380.198 54.7732C374.27 60.8572 370.37 68.8132 368.498 78.6412H437.528C436.28 70.2172 432.536 62.6512 426.296 55.9432C420.212 49.2352 412.412 45.8812 402.896 45.8812ZM488.834 127.079C488.834 136.127 489.458 142.445 490.706 146.033C492.11 149.465 494.528 151.727 497.96 152.819V155.627H462.392V152.819C465.98 151.727 468.32 149.465 469.412 146.033C470.66 142.601 471.284 136.283 471.284 127.079V34.6492C471.284 27.1612 470.582 22.1692 469.178 19.6732C467.93 17.0212 465.668 15.3832 462.392 14.7592V11.4832L486.026 0.71924H488.834V127.079ZM564.74 41.9032C572.072 41.9032 579.092 43.0732 585.8 45.4132C592.508 47.5972 598.748 50.8732 604.52 55.2412C610.292 59.6092 614.894 65.6152 618.326 73.2592C621.758 80.7472 623.474 89.2492 623.474 98.7652C623.474 107.969 621.68 116.471 618.092 124.271C614.504 131.915 609.824 138.155 604.052 142.991C598.28 147.671 591.962 151.337 585.098 153.989C578.39 156.641 571.604 157.967 564.74 157.967C557.408 157.967 550.31 156.797 543.446 154.457C536.738 152.117 530.498 148.763 524.726 144.395C519.11 139.871 514.586 133.865 511.154 126.377C507.722 118.889 506.006 110.465 506.006 101.105C506.006 84.1012 511.856 69.9832 523.556 58.7512C535.256 47.5192 548.984 41.9032 564.74 41.9032ZM571.526 153.053C582.914 153.053 591.572 149.153 597.5 141.353C603.428 133.553 606.392 123.803 606.392 112.103C606.392 102.119 604.286 92.0572 600.074 81.9172C596.018 71.6212 590.012 62.9632 582.056 55.9432C574.256 48.9232 565.754 45.6472 556.55 46.1152C545.63 46.5832 537.362 50.7952 531.746 58.7512C526.13 66.5512 523.322 76.3792 523.322 88.2353C523.322 98.0632 525.194 107.891 528.938 117.719C532.682 127.547 538.376 135.893 546.02 142.757C553.664 149.621 562.166 153.053 571.526 153.053ZM702.988 41.9032C716.248 41.9032 727.168 46.9732 735.748 57.1132C744.328 67.0972 748.618 80.2792 748.618 96.6592C748.618 107.267 746.434 117.173 742.066 126.377C737.698 135.425 730.99 142.913 721.942 148.841C713.05 154.613 702.598 157.577 690.586 157.733C678.886 157.733 668.044 154.379 658.06 147.671V175.283C658.06 184.331 658.684 190.571 659.932 194.003C661.18 197.591 663.598 199.853 667.186 200.789V203.831H631.618V200.789C635.05 199.853 637.39 197.591 638.638 194.003C639.886 190.571 640.51 184.331 640.51 175.283L640.276 68.8132C639.964 64.1332 639.106 60.9352 637.702 59.2192C636.298 57.3472 634.27 56.1772 631.618 55.7092V52.4332L655.252 43.3072H658.06V59.4532C674.128 47.7532 689.104 41.9032 702.988 41.9032ZM697.84 153.287C709.228 153.287 717.808 149.387 723.58 141.587C729.508 133.787 732.472 123.101 732.472 109.529C732.472 102.821 731.77 96.1912 730.366 89.6392C728.962 82.9312 726.7 76.4572 723.58 70.2172C720.616 63.9772 716.326 58.9852 710.71 55.2412C705.094 51.3412 698.542 49.3912 691.054 49.3912C681.07 49.3912 670.072 53.9932 658.06 63.1972V118.655C658.06 126.455 662.194 134.177 670.462 141.821C678.886 149.465 688.012 153.287 697.84 153.287ZM861.85 124.271L863.956 126.143C848.512 147.359 830.806 157.967 810.838 157.967C804.598 157.967 798.358 156.797 792.118 154.457C786.034 152.117 780.34 148.763 775.036 144.395C769.888 140.027 765.676 134.255 762.4 127.079C759.28 119.747 757.72 111.635 757.72 102.743C757.72 84.9592 763.492 70.3732 775.036 58.9852C786.736 47.5972 800.62 41.9032 816.688 41.9032C830.416 41.9032 841.336 45.7252 849.448 53.3692C857.56 61.0132 861.772 70.3732 862.084 81.4492H774.334C773.866 84.8812 773.632 88.3912 773.632 91.9792C773.632 107.423 778 119.903 786.736 129.419C795.628 138.935 807.328 143.693 821.836 143.693C836.968 143.693 850.306 137.219 861.85 124.271ZM809.434 45.8812C800.23 45.7252 792.664 48.6892 786.736 54.7732C780.808 60.8572 776.908 68.8132 775.036 78.6412H844.066C842.818 70.2172 839.074 62.6512 832.834 55.9432C826.75 49.2352 818.95 45.8812 809.434 45.8812ZM931.392 43.3072C934.668 44.0872 936.696 45.7252 937.476 48.2212C938.412 50.5612 938.178 52.7452 936.774 54.7732C935.526 56.8012 933.732 57.8152 931.392 57.8152C929.988 57.8152 928.038 57.5032 925.542 56.8792C923.202 56.0992 921.174 55.6312 919.458 55.4752C917.742 55.1632 915.09 55.3972 911.502 56.1772C904.95 57.8932 900.036 63.3532 896.76 72.5572V126.845C896.76 135.893 897.384 142.211 898.632 145.799C900.036 149.231 902.454 151.493 905.886 152.585V155.393H870.318V152.585C873.906 151.493 876.246 149.231 877.338 145.799C878.586 142.367 879.21 136.049 879.21 126.845V75.3652C879.21 67.8772 878.508 62.8852 877.104 60.3892C875.856 57.7372 873.594 56.0992 870.318 55.4752V52.1992L893.952 43.3072H896.76V64.6012C900.192 57.7372 905.262 52.1212 911.97 47.7532C918.678 43.2292 925.152 41.7472 931.392 43.3072Z" fill="#46474A"/>
</svg>
