<svg width="322" height="89" viewBox="0 0 322 89" fill="none" xmlns="http://www.w3.org/2000/svg">
<path d="M44.5139 4.7641C46.6667 2.4352 49.6799 -0.097775 52.481 0.482449C59.1795 1.63489 55.8302 10.1502 55.8302 10.1502L35.2503 53.1988C35.2503 53.1988 30.8606 60.3856 34.518 60.3496L34.2499 61.0258C26.9751 61.0258 30.5005 53.1068 30.5005 53.1068L51.7927 8.81767C51.7927 8.81767 54.5417 2.63128 51.7927 1.61088C50.6162 1.17472 49.1837 1.81896 47.9352 2.6993" fill="black"/>
<path d="M39.1895 36.551L52.0744 21.5972C52.0744 21.5972 55.3717 18.1359 58.2968 18.8602C61.218 19.5845 59.5173 23.9742 59.5173 23.9742L46.7884 52.9894C46.7884 52.9894 43.5431 61.0245 50.8179 61.0245C53.571 61.0245 57.7606 52.4571 57.7606 52.4571L58.3368 50.2003C58.3368 50.2003 53.7471 60.5443 50.97 60.5443C48.5571 60.6803 50.4898 55.4703 50.4898 55.4703L63.7789 24.9225C63.7789 24.9225 65.6837 18.8802 58.793 18.0599C54.7995 17.4917 51.4062 21.1131 49.9416 22.7817C49.3894 23.4139 44.8116 28.752 39.3295 35.1545L39.1935 36.555L39.1895 36.551Z" fill="black"/>
<path d="M139.745 19.2612C143.054 17.0763 146.579 18.3928 146.795 21.306C146.795 21.306 146.903 23.7309 145.395 26.672L130.881 53.9105C130.141 55.3671 129.801 55.6992 129.561 57.664C129.457 58.8524 129.977 60.1209 131.473 59.9008C131.834 59.8488 132.99 59.6127 133.234 59.5447C135.123 59.0125 138.324 57.7 139.589 56.9557C141.849 55.6272 144.39 53.8065 145.927 51.6617L161.705 22.8385C161.989 22.3183 161.529 21.9742 160.813 21.6981C160.813 21.6981 160.389 21.554 160.501 21.338C160.589 21.1699 161.241 21.2099 161.241 21.2099C163.118 21.2419 164.962 20.8018 166.479 19.9334C167.896 19.1211 168.78 18.3008 168.78 18.3008L165.903 22.9586L162.297 29.5131C159.336 34.7952 156.499 40.1212 153.706 45.4673C151.889 48.9446 149.897 52.3899 148.54 55.9953C148.304 56.6236 148.04 57.588 147.992 58.4763C147.936 59.5367 148.72 60.1609 149.981 59.7968C151.301 59.4167 152.61 58.8444 153.63 58.1482L154.074 58.6924C152.95 59.4327 151.633 60.0649 150.257 60.4931C147.332 61.4054 144.534 59.7928 144.567 57.2878C144.579 56.3715 144.855 54.9749 144.959 54.0626L143.862 54.9709C141.669 56.9877 136.283 59.8968 132.682 60.4571C131.061 60.7092 129.253 61.0773 127.676 60.253C126.155 59.4567 125.771 58.2402 125.875 56.9437C126.095 54.1786 127.492 51.7337 128.796 49.2687L142.114 24.047C142.598 23.0906 143.102 22.1503 143.182 21.0539C143.238 20.3376 143.262 19.6213 142.394 19.1211C141.721 18.733 140.561 18.877 139.749 19.2492L139.745 19.2612Z" fill="black"/>
<path d="M236.592 61.9149L239.669 56.4327L243.386 49.7662C246.436 44.3961 249.365 38.978 252.25 33.5439C254.127 30.0106 256.175 26.5052 257.596 22.8358C257.844 22.1955 258.124 21.2152 258.192 20.3108C258.268 19.2304 257.5 18.5981 256.239 18.9663C254.919 19.3504 253.602 19.9347 252.57 20.6429L251.742 21.1471C252.818 19.8386 254.599 18.6942 255.979 18.254C258.908 17.3257 261.665 18.9663 261.585 21.5113C261.557 22.4436 261.253 23.8602 261.133 24.7885L262.246 23.8642C264.467 21.8114 269.889 18.8582 273.49 18.286C275.111 18.0299 276.915 17.6538 278.472 18.4941C279.973 19.3024 280.333 20.5389 280.205 21.8594C279.933 24.6725 278.496 27.1574 277.147 29.6664L263.398 55.3123C262.898 56.2847 262.378 57.2411 262.274 58.3575C262.206 59.0858 262.078 60.0301 263.022 60.3222C264.314 60.7184 270.133 57.5092 272.106 56.4487C272.142 56.4287 272.174 56.4808 272.138 56.5048L265.475 60.8624C262.138 63.0873 258.832 61.0705 258.672 58.1094C258.672 58.1094 258.612 55.6444 260.169 52.6553L275.147 24.9566C275.915 23.476 276.255 23.1399 276.535 21.1391C276.663 19.9307 276.167 18.6422 274.674 18.8622C274.314 18.9143 273.158 19.1544 272.914 19.2224C271.021 19.7626 267.804 21.0991 266.531 21.8554C264.25 23.2079 261.685 25.0566 260.117 27.2375L241.254 61.9029" fill="black"/>
<path d="M43.4627 12.3199C42.8745 9.71489 40.9617 8.4544 39.5532 7.91019C37.8125 7.24194 36.0078 7.29396 34.1711 7.64609C30.2096 8.39838 26.8563 10.3871 23.8031 12.8641C19.7816 16.1254 16.5283 19.9989 13.8713 24.2685C12.7468 26.0732 11.7265 27.9299 10.638 29.8907C9.80171 31.3953 9.10944 32.9599 8.56923 34.5645C6.78855 39.5784 5.44803 44.6484 5.65611 49.8384C5.73214 51.7271 6.21232 53.6438 6.90459 55.3885C7.93699 57.9815 11.7905 58.9739 15.1838 57.8895C19.6095 56.4769 23.0548 53.6879 26.3321 50.6787L24.8395 53.1757C23.395 54.4281 21.8864 55.6126 20.2818 56.697C17.4407 58.6138 14.5155 60.3544 10.9742 60.7986C5.43602 61.4989 1.35045 58.3377 0.422089 53.8919C-0.946439 47.3414 1.25441 41.119 3.5673 34.7526C5.8802 28.3861 9.38955 22.7399 14.2594 17.6179C18.401 13.2643 23.0908 9.61085 28.9891 7.69811C32.5985 6.52966 38.1086 5.81338 41.3979 7.45002C42.8144 8.15429 44.367 10.4912 44.5151 13.7524L43.4627 12.3239V12.3199Z" fill="black"/>
<path d="M96.8827 16.1172C94.4057 19.4945 95.082 19.0103 93.9015 20.719C90.9644 25.6249 88.1113 30.8109 85.3462 36.273C82.5811 41.7431 80.0082 46.9291 77.6312 51.827C75.2543 56.7329 75.0102 57.2451 75.0102 57.2451C71.737 66.8488 83.8136 55.6925 82.5251 57.2451C81.2366 58.7977 78.3075 62.259 74.2219 61.8748C72.1771 61.6828 71.3968 60.5263 71.1247 59.4179C70.8846 58.4295 71.0527 57.3291 71.5089 56.3847C72.9774 53.3315 73.9458 51.3028 75.4704 48.1255C77.131 44.6562 78.6316 41.659 79.9801 39.1421C79.668 39.4902 78.9998 40.4026 77.9674 41.8751C76.935 43.3517 76.1547 44.4801 75.6265 45.2604C74.362 46.9971 72.8094 49.1019 70.9727 51.5749C69.132 54.0478 67.2993 56.1526 65.4745 57.8893C63.1256 60.1462 61.2249 61.2746 59.7683 61.2746C58.3118 61.2746 57.5075 60.3623 57.1994 58.5416C56.8912 56.7169 57.0753 54.42 57.7516 51.6429C58.2197 49.7342 58.856 47.8254 59.6603 45.9127C63.8379 35.9368 69.26 27.9938 75.9146 22.0915C77.2791 20.875 78.8317 19.8986 80.5804 19.1624C82.3291 18.4261 83.9897 18.0539 85.5623 18.0539C87.7471 18.0539 89.4758 18.7942 90.7363 20.2668M62.5174 57.2451C63.6378 57.2451 65.0344 56.3567 66.699 54.576C68.3677 52.7993 70.1283 50.6265 71.9931 48.0655C73.8538 45.5045 75.5664 43.0316 77.127 40.6427C78.6916 38.2577 79.8881 36.413 80.7084 35.1085C82.0409 33.1117 83.4535 30.9869 84.9581 28.7301C86.4626 26.4732 88.1593 24.0002 90.052 21.3072C89.1997 20.4389 88.1553 20.0067 86.9228 20.0067C85.2982 20.0067 83.5175 20.703 81.5768 22.0915C79.636 23.48 77.7473 25.3047 75.9106 27.5616C73.2215 30.7748 70.7766 34.2242 68.5837 37.9136C66.3909 41.603 64.7062 44.8363 63.5218 47.6133C62.8575 49.1739 62.3293 50.7826 61.9212 52.4312C61.6011 53.7317 61.453 54.8601 61.473 55.8165C61.489 56.7729 61.8371 57.2491 62.5094 57.2491L62.5174 57.2411V57.2451Z" fill="black"/>
<path d="M252.112 15.1328C249.583 18.5821 250.275 18.086 249.067 19.8346C246.069 24.8446 243.156 30.1386 240.331 35.7168C237.506 41.3029 234.881 46.597 232.452 51.5989C230.027 56.6088 229.779 57.133 229.779 57.133C226.438 66.9408 242.852 52.2952 241.452 53.8037C240.407 54.9322 233.148 62.251 228.971 61.8588C226.882 61.6628 226.086 60.4823 225.81 59.3499C225.561 58.3415 225.738 57.217 226.202 56.2527C227.702 53.1355 228.691 51.0627 230.243 47.8214C231.94 44.2801 233.473 41.2189 234.849 38.6499C234.529 39.006 233.849 39.9384 232.792 41.439C231.736 42.9475 230.944 44.1 230.403 44.8963C229.111 46.669 227.526 48.8178 225.65 51.3428C223.773 53.8678 221.9 56.0166 220.035 57.7893C217.638 60.0942 215.698 61.2466 214.209 61.2466C212.721 61.2466 211.9 60.3142 211.588 58.4575C211.272 56.5928 211.46 54.2519 212.152 51.4148C212.633 49.4661 213.281 47.5173 214.101 45.5646C218.367 35.3766 223.901 27.2655 230.695 21.2392C232.088 19.9947 233.673 18.9983 235.461 18.25C237.246 17.4977 238.943 17.1176 240.547 17.1176C242.78 17.1176 244.541 17.8739 245.833 19.3784M217.022 57.129C218.167 57.129 219.591 56.2247 221.292 54.404C222.993 52.5913 224.793 50.3704 226.698 47.7574C228.599 45.1444 230.347 42.6194 231.94 40.1785C233.537 37.7455 234.757 35.8608 235.597 34.5283C236.958 32.4875 238.398 30.3227 239.935 28.0178C241.472 25.7129 243.204 23.1879 245.137 20.4389C244.269 19.5505 243.2 19.1103 241.944 19.1103C240.283 19.1103 238.466 19.8226 236.486 21.2392C234.505 22.6557 232.576 24.5204 230.699 26.8253C227.954 30.1066 225.457 33.6279 223.221 37.3934C220.984 41.1589 219.259 44.4601 218.051 47.2972C217.374 48.8898 216.83 50.5345 216.418 52.2151C216.094 53.5436 215.942 54.6961 215.958 55.6725C215.978 56.6488 216.33 57.137 217.014 57.137L217.022 57.129Z" fill="black"/>
<path d="M144.329 6.61319C142.94 7.30546 141.163 7.6576 139.303 7.62958C139.303 7.62958 138.65 7.59757 138.586 7.72962C138.502 7.90169 138.942 8.01373 138.942 8.01373C139.687 8.23382 140.187 8.50592 139.971 8.92208L127.958 31.8629C124.661 38.1294 121.956 43.2473 120.443 45.4922C120.443 45.4922 108.151 62.4748 98.3748 61.5104C92.5565 61.1062 100.684 44.8439 102.885 41.1985C105.085 37.5531 116.45 17.9976 116.45 17.9976H110.523C110.523 17.9976 98.2667 40.1341 96.9382 42.8072C96.9382 42.8072 87.3225 59.1054 97.1863 62.3587C104.025 64.7636 115.385 54.2556 118.575 49.8979C118.575 49.8979 106.91 75.4037 92.6406 84.2912C85.8219 88.8489 72.4968 87.1043 72.0766 76.5402C71.8806 71.7543 75.9341 68.6131 78.0509 68.5131C78.0509 68.5131 67.0187 67.6528 67.711 76.2121C68.4032 84.7714 75.9901 87.7085 85.1937 87.7085C94.3972 87.7085 103.633 82.3384 112.424 69.0413C118.222 60.2859 128.022 40.6863 134.865 26.973C134.865 26.973 134.865 26.973 134.865 26.969C135.749 25.2004 136.582 23.5277 137.35 21.9911C138.666 19.3941 140.011 16.8051 141.391 14.2401L144.132 9.01812L146.393 5.30469C146.393 5.30469 145.621 5.96094 144.325 6.60519L144.329 6.61319Z" fill="black"/>
<path d="M162.848 44.2176C159.159 59.4595 165.269 60.1798 168.723 59.2474C173.688 57.9069 177.962 53.133 180.023 49.1955C181.908 45.5941 200.715 6.53906 200.715 6.53906H205.905C205.905 6.53906 186.954 46.7426 183.84 50.8282C180.727 54.9137 176.301 59.5555 169.311 60.5919C162.324 61.6283 158.407 58.6072 161.088 47.2948L162.844 44.2136L162.848 44.2176Z" fill="black"/>
<path d="M221.5 21.5111C221.304 20.2346 220.484 18.0938 217.17 18.0938C209.984 18.0938 199.524 27.5454 194.79 38.3256C190.98 46.9969 189.608 54.7399 191.212 58.5254C191.945 60.25 193.281 61.1624 195.078 61.1624C199.171 61.1624 204.782 55.1761 208.247 50.9304C210.044 48.7736 212.056 45.7204 212.192 45.5203L212.477 44.1318C212.461 44.1558 209.651 47.9653 207.831 50.1981C207.195 50.9624 206.486 51.7707 205.734 52.5671C202.009 56.5126 198.459 57.9451 196.31 57.4689C195.762 57.3449 195.29 56.7447 194.986 55.7843C194.162 53.1753 194.45 47.4571 197.891 39.8101C199.4 39.534 204.225 39.2979 210.508 35.8566C210.708 35.7446 210.904 35.6165 211.096 35.4965C212.737 34.4761 214.517 33.2236 216.446 31.687C219.795 28.9739 221.968 24.6003 221.5 21.5151V21.5111ZM211.912 22.0513C213.693 21.0069 215.178 20.4747 216.266 20.4747C216.858 20.4747 217.33 20.6347 217.671 20.9509C218.499 21.7352 218.339 23.2838 218.235 23.916C217.887 25.9728 216.142 30.9227 211.2 34.208C210.736 34.5001 210.284 34.7762 209.848 35.0323C204.71 37.9294 202.101 38.3176 198.251 38.7617C202.105 30.4225 207.171 24.9924 211.916 22.0553L211.912 22.0513Z" fill="black"/>
<path d="M264.862 87.9314C263.734 88.2475 262.633 88.3996 261.573 88.3996C259.58 88.3996 258.204 87.8274 257.443 86.6949C256.683 85.5585 256.475 84.166 256.819 82.5253C257.111 81.1168 257.831 79.6082 258.96 78.0036C260.096 76.395 261.589 74.9664 263.446 73.7139C265.851 72.0653 267.999 70.7568 269.9 69.7804C271.797 68.804 273.85 67.8237 276.046 66.8473C278.247 65.8709 281.008 64.5584 284.346 62.9138C285.934 60.4088 287.563 57.5517 289.228 54.3425C290.896 51.1332 292.537 47.96 294.153 44.8308C295.77 41.7016 297.247 38.9965 298.587 36.7277C298.255 37.0438 297.555 37.8641 296.478 39.1926C295.402 40.5251 294.594 41.5415 294.045 42.2458C292.725 43.8144 291.096 45.7111 289.168 47.94C287.239 50.1688 285.278 52.0696 283.293 53.6342C280.74 55.671 278.599 56.6874 276.875 56.6874C275.15 56.6874 274.106 55.863 273.554 54.2224C273.001 52.5738 272.985 50.505 273.505 48C273.866 46.2793 274.426 44.5587 275.186 42.83C279.128 33.8305 284.746 26.6638 292.037 21.3417C293.529 20.2453 295.27 19.365 297.271 18.7007C299.267 18.0364 301.2 17.7003 303.061 17.7003C305.654 17.7003 307.775 18.3686 309.419 19.6971L309.791 19.3409C311.872 16.6799 313.865 14.4471 315.778 12.6464C317.683 10.8457 319.751 9.67321 322 9.125C319.139 12.0261 316.21 15.6835 313.229 20.1052C310.244 24.5309 307.391 29.2088 304.666 34.1387C301.94 39.0726 299.419 43.7504 297.099 48.1721C294.778 52.5978 292.809 56.2912 291.192 59.2724C295.306 57.0835 299.227 54.1264 302.961 50.4049C306.694 46.6875 310.048 42.6339 313.025 38.2482C313.717 37.1518 314.333 36.5996 314.861 36.5996C314.993 36.5996 315.034 36.7197 314.985 36.9557C314.917 37.2719 314.697 37.7 314.317 38.2482C312.601 40.7532 310.808 43.2022 308.943 45.5911C307.082 47.98 305.074 50.1888 302.925 52.2256C301.068 54.1064 299.063 55.827 296.911 57.3956C294.754 58.9642 292.457 60.3288 290.024 61.5052C287.511 65.8909 284.978 69.9245 282.413 73.5979C279.852 77.2753 277.143 80.3685 274.294 82.8735C271.445 85.3784 268.299 87.0591 264.866 87.9234V87.9354L264.862 87.9314ZM264.778 85.4665C267.287 84.6021 269.624 83.0975 271.801 80.9447C273.978 78.7879 276.006 76.3229 277.879 73.5459C279.756 70.7688 281.453 67.9717 282.973 65.1506C280.652 66.4031 277.731 67.7516 274.202 69.2002C270.672 70.6487 267.215 72.6655 263.818 75.2505C262.309 76.423 261.109 77.6354 260.216 78.8919C259.324 80.1444 258.764 81.3169 258.532 82.4133C258.32 83.4297 258.44 84.294 258.892 84.9983C259.344 85.7026 260.2 86.0547 261.465 86.0547C261.929 86.0547 262.437 86.0147 262.985 85.9346C263.534 85.8546 264.13 85.6986 264.782 85.4665H264.778ZM279.732 53.054C281.06 53.054 282.625 52.2536 284.418 50.645C286.214 49.0444 288.083 47.0837 290.032 44.7708C291.977 42.4619 293.757 40.229 295.366 38.0762C296.979 35.9273 298.207 34.2627 299.051 33.0822C300.428 31.2816 301.888 29.3648 303.441 27.328C304.994 25.2912 306.754 23.0624 308.727 20.6334C307.631 19.8491 306.346 19.461 304.886 19.461C302.961 19.461 300.916 20.0892 298.759 21.3417C296.602 22.5942 294.546 24.2428 292.597 26.2756C289.736 29.1767 287.187 32.2859 284.962 35.6152C282.737 38.9445 281.068 41.8616 279.944 44.3626C279.316 45.7711 278.852 47.2237 278.535 48.7083C278.291 49.8807 278.227 50.8971 278.347 51.7615C278.467 52.6258 278.924 53.054 279.72 53.054H279.728H279.732Z" fill="black"/>
</svg>
