<svg width="385" height="105" viewBox="0 0 385 105" fill="none" xmlns="http://www.w3.org/2000/svg">
<path d="M33.0026 26.1952C32.8159 28.9034 32.4988 31.6734 32.0512 34.5052C31.6049 37.2725 31.0976 39.8771 30.5291 42.3189C30.5222 42.6416 30.5154 42.9644 30.5085 43.2871C30.5017 43.6098 30.4619 43.9642 30.3891 44.3501C30.7132 44.2924 31.1678 44.1729 31.7528 43.9916C32.4669 43.813 33.0835 43.6647 33.6027 43.5466C34.1232 43.3639 34.7391 43.2478 35.4505 43.1984L37.2035 42.7513C37.3326 42.754 37.4294 42.7561 37.494 42.7574C37.6245 42.6956 37.7577 42.5047 37.8936 42.1848L44.3146 40.8682C45.2237 40.6292 46.1652 40.3909 47.1388 40.1533C48.1784 39.8525 49.1205 39.5819 49.9651 39.3415L50.5049 41.2903C50.623 41.8094 50.5812 42.2606 50.3793 42.6437C50.1774 43.0269 49.6226 43.3057 48.7149 43.4801L48.1339 43.4678C47.7439 43.5887 47.3841 43.807 47.0545 44.1229L40.8045 46.5086C39.894 46.8121 39.1792 47.023 38.6601 47.1411C38.2055 47.2606 37.7832 47.3808 37.3932 47.5016C37.0032 47.6225 36.6454 47.7441 36.32 47.8663C36.0604 47.9254 35.7363 47.983 35.3476 48.0394C34.6267 48.5407 33.8754 48.9444 33.094 49.2507C32.314 49.4925 31.5669 49.7026 30.8528 49.8812C30.0713 50.1874 29.4527 50.4326 28.9967 50.6166C28.9267 50.8735 28.8573 51.098 28.7887 51.2903C28.7859 51.4194 28.7489 51.6446 28.6775 51.966C28.6088 52.1582 28.5711 52.4157 28.5642 52.7385C28.5491 53.4485 28.5066 53.9319 28.4365 54.1887C28.1413 55.926 27.8145 57.6303 27.4561 59.3017C27.1637 60.9099 26.7764 62.4192 26.2944 63.8296C25.5666 64.6536 24.8442 65.2195 24.1274 65.5271C23.4119 65.7702 22.6991 65.8842 21.9891 65.8691C21.2791 65.8541 20.635 65.7758 20.0568 65.6344C19.48 65.4284 18.9348 65.2554 18.4211 65.1153C18.2289 65.0466 17.9721 64.9766 17.6507 64.9052C17.3939 64.8352 17.1693 64.7658 16.9771 64.6972C15.6367 63.9583 14.3979 62.9957 13.2607 61.8092C12.1249 60.5581 11.0866 59.2768 10.1459 57.9653C10.3532 57.3239 10.4335 56.583 10.3868 55.7425C10.3401 54.9021 10.2597 54.1254 10.1457 53.4127C10.0276 52.8936 9.94243 52.3429 9.89023 51.7606C9.83802 51.1783 9.8174 50.6289 9.82837 50.1126C9.70888 49.658 9.6505 49.3662 9.65324 49.2371C9.72053 49.1093 9.75623 48.9487 9.76035 48.755C9.76309 48.6259 9.73356 48.4962 9.67175 48.3657C9.6745 48.2366 9.61406 48.0416 9.49045 47.7807C9.64012 46.8152 9.72112 46.042 9.73346 45.4611C9.74717 44.8156 9.75951 44.2347 9.77048 43.7183C9.78557 43.0083 9.79996 42.3306 9.81368 41.6851C9.82876 40.9751 9.90839 40.2664 10.0526 39.5592C10.2517 39.3051 10.3533 39.0812 10.3574 38.8876C10.4261 38.6953 10.4625 38.5024 10.4666 38.3087C10.4721 38.0505 10.4782 37.7601 10.4851 37.4373C10.4933 37.0501 10.6306 36.6655 10.8971 36.2837C10.9877 35.0587 11.1744 33.868 11.4573 32.7117C11.7415 31.4908 12.0566 30.3351 12.4027 29.2446C12.54 28.8601 12.6464 28.4103 12.7219 27.8953C12.862 27.3817 13.0014 26.9003 13.1401 26.4513C13.7965 25.9486 14.2531 25.7323 14.51 25.8023C14.8313 25.8737 15.152 25.9774 15.472 26.1133C15.5352 26.1793 15.7927 26.217 16.2445 26.2266C16.8763 26.8858 17.2182 27.5065 17.2704 28.0888C17.324 28.6066 17.2801 29.1545 17.1387 29.7327C16.9986 30.2463 16.9258 30.6322 16.9203 30.8904C16.8476 31.2763 16.7741 31.6945 16.7 32.145C16.6904 32.5968 16.6169 33.015 16.4796 33.3995C16.0429 35.715 15.6042 38.1273 15.1635 40.6364C14.7241 43.0809 14.4783 45.5296 14.4262 47.9824C14.4139 48.5633 14.4015 49.1442 14.3892 49.7251C14.3769 50.3061 14.3968 50.8877 14.449 51.47C15.696 50.5278 16.9718 49.7477 18.2764 49.1297C19.6456 48.513 21.0134 47.9609 22.3799 47.4733C22.7699 47.3524 23.1606 47.1993 23.552 47.0139C23.9434 46.8285 24.3348 46.643 24.7262 46.4576C24.7976 46.1363 24.8367 45.8142 24.8436 45.4915C24.9164 45.1056 24.9885 44.7519 25.0599 44.4306C25.1367 43.851 25.2129 43.3037 25.2885 42.7887C25.364 42.2737 25.5363 41.7608 25.8055 41.2499C25.9538 40.349 26.1007 39.5126 26.2462 38.7408C26.3932 37.9044 26.5408 37.0358 26.689 36.1349C27.0502 34.3344 27.3474 32.5003 27.5808 30.6326C27.8143 28.7648 27.9206 26.7975 27.9 24.7307C28.7569 23.9094 29.666 23.6704 30.6274 24.0137C31.5887 24.357 32.32 24.8891 32.8213 25.6101L33.0026 26.1952ZM48.306 76.4052C47.8405 77.0411 47.4449 77.4201 47.1195 77.5424C46.7954 77.6 46.4719 77.6255 46.1492 77.6186C46.0847 77.6172 46.0194 77.6481 45.9535 77.7113C45.889 77.7099 45.8244 77.7086 45.7599 77.7072L45.5662 77.7031L44.6887 77.975C44.2314 78.2236 43.7438 78.3747 43.2261 78.4283C42.7083 78.4819 42.2236 78.5039 41.7717 78.4943C41.3199 78.4847 40.9965 78.5101 40.8015 78.5705L40.0228 78.7477C36.5963 78.9332 33.6189 79.2574 31.0906 79.7203C28.5637 80.1187 25.9723 80.5156 23.3162 80.9112C22.7339 80.9635 22.1187 81.0472 21.4705 81.1626C20.8868 81.2794 20.2386 81.3948 19.5258 81.5088L16.508 82.2196C14.4988 82.5643 12.4546 83.0375 10.3754 83.6391C8.29616 84.2407 6.31377 84.8444 4.4282 85.4501C4.04504 85.2482 3.66324 84.9818 3.28281 84.6508C2.90376 84.2553 2.55698 83.8605 2.24247 83.4663L1.48437 82.6753C1.645 81.1935 2.08375 80.2987 2.80062 79.9911C3.58204 79.6848 4.42595 79.4767 5.33234 79.3668C5.98056 79.2515 6.6631 79.0399 7.37997 78.7323C11.7307 77.5978 16.1075 76.7544 20.5104 76.2022C24.9146 75.5854 29.8002 75.108 35.1672 74.77L47.1729 75.025L48.306 76.4052ZM22.3678 57.1594C22.512 56.4522 22.6569 55.7126 22.8024 54.9408C22.9494 54.1044 23.0949 53.3326 23.2391 52.6253C22.9782 52.7489 22.7165 52.9048 22.4542 53.093C22.1933 53.2166 21.9324 53.3402 21.6714 53.4638C20.6264 54.0228 19.5792 54.6786 18.53 55.4312C17.4822 56.1193 16.6905 56.9097 16.1549 57.8024C16.4625 58.5192 16.9666 59.1111 17.667 59.578C18.3688 59.9804 19.0706 60.3828 19.7724 60.7851C20.4755 61.1229 21.053 61.2966 21.5048 61.3062C21.649 60.599 21.7925 59.924 21.9353 59.2812C22.0795 58.574 22.2237 57.8667 22.3678 57.1594ZM71.7756 26.4377C71.2785 28.5581 70.3612 30.7019 69.0236 32.8691C67.6861 35.0362 66.2833 37.2343 64.8153 39.4633C63.8815 40.8641 62.9806 42.2334 62.1127 43.571C61.3093 44.9101 60.5712 46.2182 59.8983 47.4954C60.1579 47.4363 60.3529 47.3759 60.4833 47.3141C60.6138 47.2523 60.8418 47.1603 61.1673 47.038C61.8828 46.7949 62.6305 46.5525 63.4106 46.3108C64.192 46.0045 64.9714 45.7951 65.7487 45.6824C66.526 45.5698 67.2683 45.5855 67.9755 45.7297C68.7473 45.8753 69.4512 46.1808 70.0871 46.6464C70.3892 47.6214 70.405 48.3967 70.1345 48.9721C69.864 49.5475 69.4651 50.088 68.9377 50.5934C68.7386 50.8474 68.5395 51.1015 68.3403 51.3556C68.1426 51.5451 67.9757 51.7999 67.8398 52.1199C66.7109 53.5811 65.5176 55.041 64.2596 56.4995C63.0676 57.8949 61.8427 59.3218 60.5847 60.7804C59.2609 62.3021 57.9054 63.7908 56.5184 65.2466C55.1314 66.7024 53.8082 68.1918 52.5489 69.7149C53.4567 69.5404 54.1715 69.3296 54.6934 69.0824C57.4236 68.2363 59.991 67.4514 62.3957 66.7275C64.8663 65.9405 67.6596 65.1604 70.7757 64.3871C70.9721 64.2621 71.1994 64.2024 71.4575 64.2078C71.7157 64.2133 72.0062 64.2195 72.3289 64.2264C72.7176 64.17 73.041 64.1446 73.2992 64.1501C73.6233 64.0924 74.0463 63.94 74.5681 63.6927C74.8909 63.6996 75.342 63.7415 75.9216 63.8184C76.567 63.8321 77.3011 64.2351 78.1237 65.0275C77.5868 65.9847 76.9269 66.6488 76.1441 67.0196C75.4259 67.3918 74.6768 67.6988 73.8967 67.9405C73.5726 67.9982 73.2801 68.0888 73.0192 68.2124C72.8228 68.3374 72.5948 68.4294 72.3352 68.4885C72.0098 68.6107 71.7502 68.6698 71.5566 68.6657C71.4275 68.6629 71.2002 68.7227 70.8747 68.8449C68.9246 69.4493 67.072 70.0234 65.3169 70.5673C63.6277 71.048 61.9694 71.594 60.342 72.2051C58.716 72.7518 57.0879 73.3952 55.4578 74.1355C53.8936 74.8126 52.2944 75.6181 50.6601 76.5521C49.6851 76.8542 48.9421 76.8707 48.4312 76.6016C47.9849 76.3338 47.5722 76.0022 47.1931 75.6066C47.0668 75.4748 46.9397 75.3752 46.812 75.308C46.6857 75.1761 46.4625 75.0422 46.1425 74.9063C46.0491 73.2253 46.2756 71.6803 46.8222 70.2712C47.3687 68.8622 48.0416 67.585 48.8408 66.4396C49.7719 65.1678 50.8637 63.9318 52.1161 62.7315C53.3699 61.4666 54.6237 60.2017 55.8776 58.9368C57.0009 57.7337 58.092 56.53 59.1508 55.3255C60.2755 54.0579 61.3027 52.8205 62.2324 51.6133C60.9978 51.9745 59.6677 52.2691 58.2422 52.4972C56.8813 52.7265 55.8519 52.5432 55.1543 51.9472C54.3261 51.413 53.9196 50.7909 53.9347 50.0809C54.0143 49.3723 54.1585 48.665 54.3672 47.9591C54.5045 47.5746 54.5759 47.2532 54.5814 46.995C55.3875 45.5269 56.3255 43.9324 57.3952 42.2116C58.465 40.4908 59.4998 38.8983 60.4995 37.4343C61.0351 36.5416 61.5363 35.7451 62.0032 35.0447C62.4701 34.3443 62.97 33.6123 63.5028 32.8487L64.714 30.5497L65.2125 29.8822C63.592 30.1707 61.8706 30.6507 60.0482 31.3223C58.2903 31.9953 56.6293 32.6704 55.0651 33.3475C54.0969 33.3269 53.3608 33.0207 52.8567 32.4288C52.3527 31.8369 51.9482 31.118 51.6433 30.272C51.7902 29.4356 52.0587 28.957 52.4487 28.8361C52.8401 28.6507 53.2631 28.4983 53.7177 28.3788C54.3659 28.2634 54.7889 28.1109 54.9866 27.9214C56.6167 27.1811 58.0807 26.6633 59.3785 26.368C60.7422 26.0095 62.073 25.6826 63.3707 25.3873C64.3444 25.1497 65.2529 24.943 66.0961 24.7672C66.9407 24.5268 67.6232 24.3153 68.1437 24.1326C68.3978 24.3318 68.7508 24.4361 69.2026 24.4457C69.7835 24.4581 70.3308 24.5343 70.8444 24.6743C71.3594 24.7498 71.6719 25.2408 71.7818 26.1472L71.7756 26.4377ZM102.933 27.9713C102.179 30.0218 101.647 32.3029 101.335 34.8147C101.089 37.2634 100.874 39.8096 100.688 42.4532C100.529 43.8705 100.37 45.2555 100.213 46.6083C100.121 47.8978 99.9963 49.1867 99.8398 50.4749C99.6256 51.439 99.5137 52.147 99.5041 52.5988C99.4272 53.1783 99.3174 53.7895 99.1746 54.4322C99.0977 55.0118 98.8869 55.8145 98.5422 56.8404C98.284 56.8349 98.1536 56.8967 98.1508 57.0258C98.008 57.6685 97.8357 58.1815 97.6338 58.5646C97.4965 58.9492 96.8524 58.8709 95.7015 58.3299C95.2016 57.5443 94.9276 56.7636 94.8795 55.9877C94.8973 55.1485 94.9454 54.4069 95.0236 53.7628C95.0964 53.3769 95.1685 53.0233 95.2399 52.7019C95.3113 52.3806 95.2866 52.0249 95.1657 51.6349C95.1685 51.5058 95.1719 51.3444 95.176 51.1508C95.1801 50.9571 95.2158 50.7964 95.2831 50.6687C95.2845 50.6042 95.2543 50.5067 95.1925 50.3762C95.1952 50.2471 95.1327 50.1489 95.005 50.0816C95.0502 47.9516 95.1902 45.9204 95.425 43.9881C95.5019 43.4086 95.5795 42.7967 95.6577 42.1526C95.7374 41.444 95.7827 40.8315 95.7936 40.3151C95.0754 40.6873 94.3901 41.0279 93.7378 41.3369C93.0855 41.646 92.3679 41.9859 91.5851 42.3567C90.0841 43.0997 88.614 43.908 87.1747 44.7815C85.8014 45.5918 84.5531 46.5985 83.4297 47.8016C83.3982 49.2862 83.3344 50.77 83.2383 52.2533C83.1436 53.6719 83.0805 55.1235 83.0489 56.6081C81.9366 57.2948 81.0254 57.6306 80.3153 57.6155C79.1727 56.6872 78.4826 55.7362 78.2449 54.7625C78.0732 53.7256 78.0622 52.7245 78.2119 51.759L78.2592 49.5322C78.2866 48.2412 78.314 46.9503 78.3415 45.6593C78.4334 44.3698 78.5261 43.0479 78.6194 41.6938C78.7128 40.3397 78.8082 38.8888 78.9056 37.341C79.0031 35.7933 79.0669 34.3094 79.0971 32.8893C79.1121 32.1793 79.1265 31.5016 79.1403 30.8561C79.1553 30.1461 79.1368 29.5 79.0846 28.9177C79.7438 28.2859 80.2979 28.0394 80.747 28.1781C81.1974 28.2522 81.6458 28.4232 82.0922 28.691C82.2817 28.8887 82.5694 29.024 82.9553 29.0968L83.9936 30.378C84.0431 31.0894 84.0589 31.8647 84.0411 32.7038C84.0878 33.5443 84.1036 34.3195 84.0885 35.0295C84.0707 35.8686 84.0206 36.7071 83.9382 37.5448C83.9204 38.3839 83.8696 39.2546 83.7859 40.1569C83.7145 40.4783 83.6458 40.6705 83.5799 40.7337C83.5785 40.7982 83.573 41.0564 83.5634 41.5083C83.6953 41.3819 83.8917 41.2569 84.1526 41.1333C84.4794 40.9465 84.7088 40.79 84.8406 40.6636C85.1661 40.5414 85.4929 40.3546 85.8212 40.1033C86.2139 39.8533 86.606 39.6356 86.9974 39.4502C87.1938 39.3252 87.4224 39.2009 87.6834 39.0773C87.9457 38.8892 88.2402 38.7017 88.5671 38.5149C89.0903 38.2031 89.6458 37.8921 90.2336 37.5817C90.8214 37.2713 91.4703 37.1236 92.1803 37.1387C92.5058 37.0165 92.8958 36.8956 93.3504 36.7761C93.8049 36.6566 94.195 36.5357 94.5204 36.4135C94.585 36.4149 94.7477 36.3538 95.0086 36.2302C95.3355 36.0434 95.5635 35.9514 95.6926 35.9541C95.8217 35.9568 95.9501 35.9919 96.0778 36.0591C96.1175 34.1873 96.351 32.3195 96.778 30.4559C97.205 28.5923 97.9837 26.8976 99.1139 25.3717C99.8953 25.0655 100.445 25.0448 100.762 25.3099C101.145 25.5117 101.494 25.8098 101.808 26.2039C102.058 26.5967 102.216 26.7937 102.28 26.7951L102.933 27.9713ZM84.0896 66.8978C83.9976 68.1874 83.7807 69.2805 83.4387 70.1773C83.1613 71.0755 82.8496 72.0698 82.5036 73.1603C82.2289 73.9293 81.9859 74.7314 81.7744 75.5664C81.6289 76.3382 81.5486 77.0791 81.5335 77.7891C81.0638 78.6186 80.6903 79.4825 80.4129 80.3806C80.1355 81.2788 79.8238 82.2731 79.4778 83.3636C81.0969 83.1397 82.6859 82.8182 84.2446 82.3993C85.8033 81.9804 87.2982 81.5278 88.7292 81.0416C89.6383 80.8026 90.5152 80.563 91.3598 80.3226C92.2703 80.0191 93.1808 79.7155 94.0913 79.412C96.1691 78.8749 98.2793 78.3386 100.422 77.8029C102.629 77.2686 104.803 76.7659 106.944 76.2948C107.07 76.4266 107.165 76.4932 107.23 76.4946C107.359 76.4973 107.488 76.5001 107.617 76.5028C107.746 76.5056 108.037 76.5117 108.489 76.5213C108.942 76.4664 109.233 76.4403 109.362 76.443C109.197 78.1185 108.788 79.143 108.134 79.5166C107.481 79.8902 106.7 80.1642 105.792 80.3386C105.338 80.4581 104.915 80.5783 104.525 80.6991C104.201 80.7568 103.874 80.9436 103.545 81.2595C101.007 82.1742 98.471 82.9921 95.9372 83.7132C93.468 84.4357 90.9981 85.1904 88.5275 85.9774C86.4469 86.6435 84.3017 87.3083 82.0921 87.9717C79.9483 88.5719 77.8039 89.2044 75.6587 89.8692C75.1506 89.4709 74.6431 89.0404 74.1363 88.5776C73.6955 88.0516 73.2574 87.3966 72.822 86.6124C74.2556 82.962 75.4593 79.5005 76.4328 76.2278C77.4724 72.8919 78.3876 69.3274 79.1785 65.5342C79.9008 64.9684 80.777 64.761 81.807 64.912C82.837 65.0631 83.5683 65.5952 84.001 66.5085L84.0896 66.8978ZM137.857 39.7557C138.374 39.7667 138.823 39.9054 139.205 40.1718C139.651 40.4396 139.867 40.9285 139.851 41.6385C139.965 42.3513 139.859 42.8011 139.532 42.9878C139.205 43.1746 138.847 43.3284 138.457 43.4493C137.941 43.4383 137.356 43.5874 136.704 43.8964C136.117 44.1422 135.597 44.3249 135.142 44.4444C134.623 44.5625 134.103 44.7129 133.583 44.8956C133.064 45.0137 132.545 45.0996 132.028 45.1531C131.252 45.2012 130.539 45.3153 129.889 45.4952C129.306 45.6119 128.688 45.8248 128.035 46.1338C127.71 46.2561 127.384 46.3783 127.059 46.5006C126.734 46.6228 126.376 46.7443 125.986 46.8652C125.851 47.1207 125.781 47.3775 125.776 47.6357C125.761 48.3457 125.718 48.8291 125.648 49.0859C125.439 49.7918 125.298 50.37 125.224 50.8204C125.15 51.2709 125.043 51.7207 124.904 52.1698C124.687 53.2629 124.405 54.387 124.058 55.542C123.776 56.6338 123.399 57.6913 122.925 58.7145C124.223 58.4191 125.457 58.0902 126.627 57.7276C127.861 57.3664 129.128 57.0381 130.425 56.7428C132.506 56.0766 134.617 55.508 136.758 55.0369C138.965 54.5026 141.492 54.1042 144.339 53.8418L145.439 56.7711L144.365 57.1358L143.774 57.6075C142.214 58.091 140.589 58.6054 138.898 59.1507C137.209 59.6314 135.617 60.0819 134.123 60.5022L134.026 60.5001C133.636 60.621 133.246 60.7418 132.856 60.8627C132.532 60.9204 132.143 61.009 131.688 61.1285C129.535 62.1805 127.255 63.1007 124.849 63.8891C122.445 64.6129 120.009 65.2715 117.542 65.8649L116.595 64.8761C116.089 64.3488 115.616 63.8221 115.175 63.2962C114.736 62.7056 114.815 62.0293 115.412 61.267C116.617 59.2908 117.628 57.2781 118.446 55.2291C119.329 53.1814 119.924 51.0307 120.23 48.7771C120.101 48.7743 120.069 48.7737 120.133 48.775C120.198 48.7764 120.165 48.808 120.034 48.8698C119.253 49.1761 118.439 49.4817 117.593 49.7866C116.749 50.0269 115.868 50.4603 114.95 51.0865C114.173 51.1992 113.563 51.0248 113.121 50.5633C112.679 50.1019 112.303 49.5773 111.992 48.9895C111.867 48.7932 111.742 48.5968 111.617 48.4004C111.557 48.2054 111.465 47.9774 111.341 47.7165C111.491 46.751 111.827 46.1447 112.349 45.8975C112.935 45.6516 113.585 45.4717 114.297 45.3577C114.426 45.3604 114.555 45.3632 114.685 45.3659C114.815 45.3041 114.945 45.2746 115.074 45.2773C115.268 45.2814 115.43 45.2526 115.56 45.1908C119.337 43.7212 122.947 42.4741 126.391 41.4494C129.837 40.3603 133.659 39.7957 137.857 39.7557ZM155.239 78.7737C154.772 79.4741 154.344 79.8848 153.953 80.0056C153.629 80.0633 153.306 80.0887 152.983 80.0819C152.919 80.0805 152.757 80.1094 152.497 80.1684C152.238 80.2275 151.88 80.3168 151.426 80.4363C151.098 80.6876 150.675 80.84 150.157 80.8936C149.639 80.9472 149.154 80.9692 148.703 80.9596L146.956 81.1162C143.529 81.3017 140.552 81.6259 138.024 82.0888C135.561 82.4885 133.002 82.8862 130.346 83.2818C129.762 83.3986 129.146 83.5146 128.498 83.63C127.914 83.7468 127.266 83.8622 126.553 83.9762L123.536 84.687C121.528 84.9672 119.484 85.4081 117.405 86.0097C115.326 86.6113 113.343 87.2472 111.456 87.9174C111.074 87.651 110.693 87.3523 110.313 87.0214C109.933 86.6259 109.587 86.2311 109.272 85.8369L108.514 85.0459C108.675 83.5641 109.113 82.6693 109.83 82.3617C110.612 82.0554 111.456 81.8473 112.362 81.7374C113.01 81.622 113.693 81.4105 114.41 81.1029C118.76 79.9683 123.137 79.125 127.54 78.5727C131.944 77.956 136.83 77.4786 142.197 77.1406L154.106 77.3935L155.239 78.7737Z" fill="#53D4FF"/>
<path d="M241.488 33.656C241.538 34.3674 241.523 35.0451 241.445 35.6892C241.367 36.3333 241.257 36.9445 241.115 37.5227C240.975 38.0363 240.868 38.5183 240.794 38.9688C240.72 39.4192 240.71 39.9033 240.763 40.4211C240.695 40.6134 240.654 41 240.642 41.5809C240.629 42.1618 240.522 42.6438 240.32 43.027C240.183 43.4115 240.11 43.7975 240.102 44.1847C240.09 44.7657 240.016 45.2161 239.88 45.5361C239.793 46.5675 239.672 47.695 239.517 48.9186C239.428 50.0791 239.307 51.2066 239.155 52.3012C238.997 53.6539 238.806 55.0383 238.582 56.4542C238.424 57.8069 238.266 59.1597 238.109 60.5124C238.043 60.5756 238.009 60.6394 238.008 60.704C238.006 60.7685 237.973 60.8324 237.907 60.8956C237.897 61.3474 237.855 61.8308 237.779 62.3458C237.769 62.7976 237.759 63.2817 237.748 63.7981C237.641 65.7977 237.502 67.7966 237.33 69.7948C237.159 71.793 236.634 73.6869 235.757 75.4763C235.557 75.7304 235.36 75.8877 235.165 75.9481C235.035 76.0099 234.904 76.0717 234.774 76.1335C234.576 76.323 234.249 76.5098 233.793 76.6939C233.403 76.8147 232.821 76.8669 232.047 76.8505C232.185 73.3663 232.39 69.7867 232.662 66.1117C232.998 62.438 233.334 58.7966 233.669 55.1874C234.069 51.5797 234.498 48.0694 234.958 44.6567C235.418 41.2439 235.874 38.0248 236.326 34.9993C236.199 34.8675 236.139 34.6725 236.145 34.4143C236.02 34.2179 235.928 33.9899 235.868 33.7304C235.809 33.4708 235.749 33.2758 235.687 33.1453C236.015 32.894 236.344 32.6427 236.672 32.3913C237.001 32.0755 237.362 31.8248 237.753 31.6394C238.463 31.6545 239.138 31.798 239.778 32.0699C240.42 32.2772 240.928 32.6432 241.305 33.1678L241.488 33.656ZM226.576 37.9887C226.559 38.7633 226.415 39.4705 226.143 40.1105C225.936 40.7519 225.729 41.3932 225.521 42.0346C225.252 42.5455 224.982 43.1209 224.71 43.7609C222.798 48.6281 220.405 53.3881 217.529 58.0411C214.718 62.6954 211.813 67.2186 208.814 71.6106C208.617 71.7356 208.453 71.8612 208.321 71.9876C208.255 72.0508 208.156 72.1455 208.025 72.2719C207.695 72.5878 207.302 72.87 206.844 73.1186C206.452 73.3685 205.706 73.4819 204.609 73.4586C204.639 72.0385 204.858 70.8808 205.264 69.9854C205.737 69.0268 206.238 68.1979 206.77 67.4989C207.576 66.0308 208.384 64.4658 209.194 62.8041C210.069 61.1437 210.974 59.5808 211.909 58.1154C213.581 55.4387 215.154 52.7923 216.631 50.176C218.108 47.4952 219.329 44.7444 220.293 41.9235C219.582 41.973 218.772 42.0849 217.864 42.2594C217.022 42.3706 216.179 42.5464 215.335 42.7868C214.491 42.9626 213.68 43.1714 212.9 43.4131C212.184 43.6562 211.598 43.9021 211.141 44.1507C210.351 44.8442 209.667 45.1203 209.089 44.9789C208.512 44.7729 207.876 44.3073 207.181 43.5822C206.933 43.1249 206.716 42.6683 206.532 42.2124C206.35 41.6919 206.556 41.1151 207.15 40.4819C208.65 39.8035 210.374 39.1943 212.323 38.6545C214.272 38.1148 216.09 37.6045 217.78 37.1238C218.755 36.8216 219.728 36.584 220.701 36.4109C221.739 36.1747 222.616 35.935 223.331 35.6919L223.715 35.8938C223.842 35.9611 224.067 35.9981 224.39 36.005C224.839 36.1437 225.223 36.3133 225.542 36.5138C225.925 36.7156 226.24 37.0775 226.487 37.5994L226.576 37.9887ZM302.371 29.3313C302.421 30.0427 302.439 30.7211 302.425 31.3666C302.411 32.012 302.398 32.6252 302.386 33.2062C302.297 37.4017 301.855 41.4606 301.062 45.3829C300.334 49.242 299.382 53.0317 298.205 56.7521C298.065 57.2658 297.828 57.7773 297.494 58.2869C297.16 58.7964 296.829 59.2091 296.499 59.525C296.367 59.6513 296.202 59.8415 296.003 60.0956C295.868 60.351 295.733 60.6388 295.597 60.9588C294.112 60.9272 293.219 60.4239 292.917 59.4489C291.942 59.751 290.933 60.1171 289.891 60.5469C288.848 60.9768 287.969 61.3456 287.252 61.6532C286.273 62.1491 285.131 62.6737 283.828 63.2272C282.526 63.7162 281.486 64.0492 280.707 64.2264C279.147 64.7099 277.619 65.194 276.124 65.6789C274.694 66.1005 273.264 66.5545 271.833 67.0407C269.362 67.8277 266.925 68.5831 264.52 69.3069C262.117 69.9662 259.873 70.7257 257.788 71.5855C256.736 72.4672 255.655 73.2191 254.544 73.8413C253.498 74.4003 252.357 74.9249 251.12 75.4153C250.345 75.3988 249.705 75.1592 249.198 74.6964C248.756 74.235 248.378 73.7749 248.065 73.3162C248.002 73.2503 247.907 73.1514 247.78 73.0196C247.654 72.8878 247.592 72.7896 247.593 72.725C247.616 71.6277 247.892 70.8264 248.419 70.321C248.946 69.8156 249.537 69.3761 250.191 69.0025C250.451 68.8789 250.745 68.7237 251.072 68.5369C251.4 68.2856 251.499 68.2231 251.367 68.3494C251.821 68.2299 252.244 68.0775 252.636 67.8921C253.027 67.7067 253.386 67.5206 253.713 67.3338C254.105 67.1484 254.528 66.9636 254.984 66.7796C255.44 66.5956 255.928 66.4445 256.447 66.3263C256.583 66.0064 256.686 65.718 256.756 65.4611C256.892 65.1411 257.028 64.8212 257.164 64.5012C257.231 64.3734 257.3 64.1489 257.372 63.8275C257.508 63.5075 257.643 63.1875 257.779 62.8676C258.32 61.7167 258.893 60.5988 259.497 59.5138C260.102 58.4289 260.706 57.3439 261.31 56.2589C261.844 55.4308 262.314 54.6013 262.719 53.7704C263.189 52.9409 263.659 52.0791 264.13 51.1851L264.132 51.0882C263.944 50.8259 263.691 50.5623 263.374 50.2972C263.057 50.0322 262.869 49.7376 262.812 49.4135C262.693 48.8944 262.608 48.376 262.554 47.8582C262.565 47.3418 262.577 46.7932 262.589 46.2123C262.623 44.5986 262.851 43.0213 263.271 41.4804C263.412 40.9022 263.554 40.2918 263.697 39.6491C263.84 39.0063 263.949 38.4275 264.025 37.9125C264.298 37.2079 264.726 36.7973 265.31 36.6805C265.445 36.4251 265.578 36.2342 265.71 36.1078C266.299 35.7329 267.143 35.5248 268.241 35.4836C269.34 35.4423 270.147 35.4272 270.664 35.4382C271.944 35.982 272.767 36.7421 273.134 37.7185C273.566 38.6318 273.902 39.5753 274.139 40.5489C274.137 40.678 274.197 40.873 274.321 41.134C274.028 45.7772 272.11 49.4173 268.567 52.0542L268.555 52.6352L268.549 52.9256C268.547 52.9902 268.578 53.0554 268.642 53.1213C267.706 54.5867 266.867 56.1187 266.122 57.7173C265.444 59.2527 264.735 60.6906 263.996 62.031C263.727 62.5419 263.558 62.8935 263.49 63.0857C263.421 63.278 263.219 63.6934 262.882 64.3321L264.341 64.0724C265.248 63.898 266.125 63.6906 266.969 63.4502C267.814 63.2099 268.629 62.8397 269.414 62.3398C270.06 62.3535 270.707 62.2704 271.357 62.0905C272.071 61.9119 272.722 61.6675 273.31 61.3571C274.288 60.9258 275.004 60.6504 275.458 60.5309C276.171 60.4169 276.755 60.3002 277.209 60.1807C277.728 60.0626 278.15 59.9746 278.474 59.917C279.449 59.6148 280.359 59.3435 281.204 59.1032C282.113 58.8642 282.665 58.7145 282.86 58.654C283.581 58.1527 284.298 57.8451 285.01 57.7311C285.723 57.6171 286.437 57.4708 287.151 57.2922C287.281 57.2304 287.476 57.17 287.736 57.1109C288.06 57.0532 288.776 56.7779 289.884 56.2848C290.143 56.2903 290.371 56.166 290.57 55.9119L291.644 55.5473C292.034 55.4264 292.358 55.3364 292.618 55.2774C292.943 55.1551 293.365 55.0672 293.883 55.0136L293.895 54.4327C293.902 54.11 293.876 53.8188 293.817 53.5593C293.759 53.2352 293.863 52.9145 294.128 52.5972C294.486 50.9259 294.843 49.3513 295.197 47.8736C295.551 46.3959 295.939 44.8543 296.361 43.2489C296.362 43.1843 296.363 43.1198 296.365 43.0552C296.432 42.9275 296.467 42.7991 296.47 42.67C296.709 40.5441 296.953 38.16 297.203 35.5177C297.454 32.8108 297.54 30.2942 297.46 27.9677C298.316 27.211 299.256 27.0372 300.28 27.4465C301.306 27.7911 301.973 28.3219 302.281 29.0388L302.371 29.3313ZM273.5 6.82669C273.53 8.44173 273.399 10.0211 273.108 11.5647C272.882 13.1097 272.591 14.6534 272.235 16.1956C272.091 16.9029 271.946 17.6424 271.8 18.4143C271.656 19.1215 271.511 19.8611 271.366 20.6329C271.018 21.7879 270.809 22.5261 270.738 22.8474C270.666 23.1688 270.629 23.394 270.626 23.5231C270.622 23.7168 270.585 23.942 270.515 24.1988C270.51 24.457 270.435 24.9397 270.291 25.647C270.749 25.3339 271.14 25.1807 271.463 25.1876C271.851 25.1313 272.272 25.1079 272.724 25.1175C272.853 25.1202 272.949 25.1223 273.014 25.1237C273.143 25.1264 273.307 25.0007 273.506 24.7467C274.933 24.4541 276.294 24.2247 277.589 24.0585C278.95 23.8291 280.277 23.6636 281.571 23.5619C282.219 23.4465 282.899 23.3964 283.609 23.4114C284.384 23.3634 285.097 23.2816 285.745 23.1662C286 23.3008 286.451 23.375 287.096 23.3887C287.742 23.4024 288.353 23.48 288.932 23.6214C289.51 23.7628 289.85 24.4804 289.951 25.7741C289.616 26.3481 289.221 26.7272 288.765 26.9112C288.375 27.0321 287.986 27.0884 287.599 27.0802C287.276 27.0733 287.048 27.1654 286.915 27.3563C286.202 27.4703 285.456 27.6159 284.678 27.793C283.9 27.9057 283.155 28.019 282.443 28.133C279.979 28.5973 277.547 29.0622 275.148 29.5279C272.814 29.9949 270.605 30.5937 268.523 31.3244C268.257 31.7062 267.796 32.1162 267.141 32.5543C266.552 32.9292 266.003 32.9498 265.493 32.6161L265.306 32.3216C263.741 32.9987 261.981 33.8008 260.024 34.7278C258.131 35.6563 256.337 36.5545 254.639 37.4225C254.117 37.6697 253.753 38.0817 253.547 38.6585C253.082 39.2944 252.587 39.8005 252.062 40.1768C251.603 40.4899 250.827 40.5703 249.732 40.4179C249.546 40.0911 249.388 39.894 249.261 39.8267C249.199 39.6962 249.105 39.5651 248.978 39.4332C248.79 39.1709 248.57 38.908 248.317 38.6443C248.066 38.3161 247.948 37.7969 247.963 37.0869C248.239 36.2533 248.672 35.6168 249.262 35.1773C249.854 34.6732 250.478 34.2022 251.133 33.764C251.46 33.5773 251.754 33.3898 252.017 33.2016C252.279 33.0135 252.542 32.793 252.806 32.5403C254.114 31.7287 255.454 30.9822 256.825 30.301C258.195 29.6198 259.566 28.9385 260.936 28.2573L261.225 28.3603C261.357 28.234 261.488 28.1076 261.62 27.9813C261.817 27.8563 262.076 27.7972 262.399 27.8041C262.528 27.8068 262.56 27.8075 262.496 27.8061C262.497 27.7416 262.562 27.7107 262.691 27.7134C263.601 27.4744 264.317 27.1668 264.842 26.7905C265.126 25.5696 265.34 24.6055 265.485 23.8982C265.63 23.1264 265.74 22.5153 265.814 22.0648C265.954 21.5512 266.061 21.1014 266.133 20.7155C266.206 20.3296 266.314 19.8153 266.457 19.1725C266.595 18.7234 266.703 18.2091 266.78 17.6296C266.923 16.9868 267.069 16.215 267.217 15.3141C267.353 14.9941 267.456 14.7057 267.526 14.4489C267.596 14.1921 267.667 13.903 267.738 13.5816C267.809 13.2603 267.848 12.9705 267.853 12.7123C267.86 12.3896 267.996 12.0696 268.261 11.7523C268.339 11.1082 268.385 10.4635 268.399 9.81799C268.414 9.10797 268.427 8.49477 268.438 7.9784C268.445 7.65567 268.422 7.20315 268.37 6.62086C268.382 6.03994 268.394 5.49129 268.405 4.97492C268.795 4.85405 269.248 4.7991 269.765 4.81007C270.347 4.75786 270.895 4.80179 271.409 4.94186C271.987 5.08329 272.466 5.31949 272.846 5.65045C273.228 5.91686 273.446 6.30895 273.5 6.82669ZM288.025 70.8717C287.738 72.2217 287.485 73.4756 287.267 74.6333C287.05 75.7265 286.801 76.819 286.519 77.9108C286.376 78.5536 286.234 79.164 286.093 79.7422C286.016 80.3217 285.906 80.9329 285.763 81.5756C285.486 82.4738 285.244 83.2113 285.038 83.7881C284.897 84.3662 284.723 84.9437 284.517 85.5205C284.376 86.0987 284.201 86.7085 283.994 87.3498C283.85 88.0571 283.638 88.8921 283.359 89.8548C283.222 90.2394 283.05 90.7523 282.842 91.3937C282.7 92.0364 282.49 92.7746 282.214 93.6082C281.867 94.7632 281.455 95.9168 280.978 97.069C280.566 98.2227 279.831 99.4017 278.772 100.606L277.54 99.3207C277.043 98.4061 276.869 97.4661 277.019 96.5006C277.232 95.6011 277.412 94.7008 277.561 93.7999C277.632 93.4786 277.672 93.1242 277.68 92.737C277.753 92.3511 277.824 92.0297 277.894 91.7729L277.993 91.6781C278.058 91.6795 278.089 91.7124 278.088 91.777L278.092 91.5833L278.586 91.1095C278.393 91.1054 278.23 91.1665 278.098 91.2929L278.108 90.8088C278.471 88.9438 278.829 87.3047 279.182 85.8915C279.534 84.4783 279.885 83.1943 280.232 82.0393C280.582 80.7552 280.899 79.535 281.182 78.3786C281.53 77.1591 281.785 75.8084 281.946 74.3266C281.428 74.3801 280.877 74.4976 280.292 74.6789C279.772 74.797 279.187 74.9783 278.536 75.2228C275.938 75.9425 273.272 76.8222 270.538 77.8619C267.805 78.8371 265.262 79.9777 262.909 81.2838C262.195 81.4624 261.583 81.3848 261.074 81.0511C260.63 80.6542 260.251 80.2587 259.937 79.8646L259.37 79.1745L259.413 77.1413C262.093 75.6484 264.767 74.3814 267.437 73.3403C270.173 72.2361 272.934 71.4229 275.722 70.901C276.377 70.4629 277.03 70.1538 277.679 69.9739C277.744 69.9753 277.938 69.9471 278.262 69.8894C278.588 69.7672 278.881 69.6443 279.142 69.5207C279.915 69.6017 280.758 69.4581 281.669 69.09C282.84 68.7274 283.975 68.4933 285.075 68.3875C286.176 68.2171 287.132 68.8186 287.942 70.1919L288.025 70.8717ZM268.641 39.4635C268.233 40.4235 267.957 41.2571 267.813 41.9644C267.733 42.673 267.654 43.3817 267.574 44.0903C267.499 44.6053 267.389 45.2164 267.245 45.9237C267.1 46.631 267.186 47.1494 267.502 47.479C267.7 47.2895 268.002 46.747 268.408 45.8516C268.815 44.9561 269.125 44.0264 269.34 43.0623C269.618 42.0996 269.733 41.2625 269.683 40.5511C269.635 39.7752 269.288 39.4127 268.641 39.4635ZM278.092 91.5833L277.993 91.6781C277.933 91.4831 277.968 91.3547 278.098 91.2929L278.092 91.5833ZM362.006 38.4441C361.843 39.9905 361.586 41.4703 361.233 42.8835C360.945 44.298 360.626 45.6473 360.275 46.9314C359.858 48.3432 359.504 49.8209 359.213 51.3646C359.063 52.33 358.819 53.1643 358.481 53.8675C358.347 54.1229 358.244 54.3791 358.174 54.6359C358.106 54.8282 358.036 55.085 357.964 55.4063C359.91 54.9956 361.79 54.6804 363.603 54.4606C365.48 54.2422 367.291 54.0869 369.037 53.9949C369.229 54.0635 369.552 54.0381 370.007 53.9186C370.655 53.8032 371.3 53.8492 371.941 54.0566L372.718 53.9762C373.369 53.7317 374.047 53.7461 374.751 54.0194C374.882 53.9576 375.044 53.9287 375.237 53.9329C375.496 53.9383 375.689 53.9425 375.818 53.9452L376.496 53.9596C376.625 53.9623 376.755 53.9328 376.885 53.871C377.856 53.7625 378.856 53.816 379.885 54.0316C380.979 54.184 382.04 54.4003 383.068 54.6804L383.877 57.6035L381.65 57.5562C381.326 57.6139 380.938 57.6702 380.484 57.7252C380.097 57.7169 379.742 57.7094 379.419 57.7025C379.095 57.7602 378.675 57.7836 378.159 57.7726C377.708 57.6985 377.129 57.5893 376.422 57.4451C376.485 57.511 376.452 57.5749 376.321 57.6367C376.257 57.6353 376.16 57.6333 376.031 57.6305L374.673 57.6986C374.283 57.8194 374.024 57.8785 373.894 57.8758C373.765 57.873 373.506 57.8998 373.118 57.9561C372.729 58.0124 371.791 58.0894 370.304 58.1869C368.49 58.4713 366.578 58.7858 364.569 59.1306C362.624 59.4767 360.484 59.9156 358.148 60.4472C357.761 60.4389 357.534 60.4664 357.468 60.5296C357.402 60.5928 357.274 60.5255 357.085 60.3277C356.658 62.1913 356.356 64.2514 356.179 66.5077C356.003 68.6996 355.86 70.8921 355.748 73.0854C355.663 74.0522 355.574 75.2127 355.481 76.5668C355.452 77.9223 355.396 79.0511 355.312 79.9534C354.8 79.7488 354.444 79.7735 354.245 80.0276C354.112 80.2185 353.978 80.4417 353.843 80.6971C352.88 80.4184 352.244 79.9851 351.933 79.3973C351.689 78.7464 351.541 78.0975 351.49 77.4506C351.493 77.3216 351.464 77.1918 351.402 77.0613C351.405 76.9322 351.407 76.8031 351.41 76.674C351.417 76.3513 351.391 76.0601 351.332 75.8006C351.339 75.4779 351.346 75.1551 351.352 74.8324C351.3 74.2501 351.282 73.6039 351.297 72.8939C351.312 72.1839 351.389 71.5721 351.529 71.0585C351.358 70.0216 351.317 68.8906 351.408 67.6656C351.498 66.4406 351.621 65.2163 351.776 63.9926C351.856 63.284 351.934 62.6399 352.011 62.0603C352.089 61.4162 352.135 60.7715 352.149 60.126C352.167 59.2869 352.247 58.5782 352.388 58.0001C352.531 57.3573 352.706 56.7153 352.913 56.0739L353.123 55.3035L353.473 52.5019C353.957 51.0269 354.24 49.8705 354.322 49.0328L355.675 44.6058C355.688 44.0249 355.732 43.4769 355.807 42.9619C355.883 42.4469 355.991 41.9003 356.133 41.3221C356.277 40.6149 356.421 39.9076 356.565 39.2003C356.709 38.4931 356.724 37.783 356.61 37.0703C356.882 36.4303 357.28 35.9544 357.803 35.6427C357.935 35.5163 358.065 35.4545 358.194 35.4572C358.389 35.3968 358.585 35.3041 358.781 35.1791L359.453 35.484C360.026 35.8836 360.566 36.2825 361.074 36.6808C361.584 37.0145 361.896 37.5055 362.012 38.1537L362.006 38.4441ZM339.496 35.6412L339.444 38.0617C336.403 44.4547 332.85 50.5785 328.786 56.4332C324.788 62.2892 320.501 68.01 315.926 73.5955C315.786 74.1091 315.584 74.5246 315.319 74.8418C315.118 75.1604 314.853 75.51 314.522 75.8904C313.927 76.5235 313.529 77.0317 313.327 77.4148C313.003 77.4725 312.775 77.5323 312.645 77.5941C312.579 77.6572 312.481 77.7197 312.35 77.7815L309.355 77.4273L310.853 75.3281C311.605 73.3422 312.577 71.6839 313.767 70.3531L315.067 68.4434C315.408 67.6112 315.972 66.9128 316.758 66.3484C317.165 65.4529 317.501 64.8143 317.768 64.4325C318.036 63.9862 318.302 63.6044 318.567 63.2871C319.028 62.8449 319.362 62.3354 319.568 61.7586C319.839 61.1831 320.141 60.6407 320.474 60.1311C320.807 59.6862 321.074 59.2721 321.276 58.8889C321.542 58.5071 321.945 57.8054 322.483 56.7836C322.81 56.5968 323.106 56.3448 323.371 56.0275C323.637 55.6457 323.838 55.3271 323.972 55.0717C324.244 54.4317 324.911 53.4449 325.972 52.1114L326.782 50.4819C326.922 49.9683 327.093 49.5199 327.295 49.1367C327.561 48.7549 327.859 48.406 328.189 48.0902C328.454 47.7729 328.687 47.455 328.887 47.1364C329.089 46.7532 329.228 46.3041 329.303 45.7891C329.63 45.6023 329.928 45.2535 330.197 44.7426C330.532 44.1685 330.834 43.6583 331.101 43.212L331.61 42.0604C331.612 41.9959 331.646 41.8997 331.713 41.772C331.782 41.5798 331.85 41.4198 331.917 41.292C331.463 41.4115 331.007 41.5633 330.551 41.7473C330.16 41.9328 329.802 42.0866 329.476 42.2088C327.784 42.8186 326.125 43.3969 324.499 43.9435C322.939 44.427 321.283 44.8761 319.531 45.2909C318.833 44.6949 318.231 44.1655 317.724 43.7027C317.218 43.1754 316.909 42.5553 316.795 41.8426C317.072 40.9444 317.503 40.4046 318.088 40.2233C318.738 40.0434 319.418 39.961 320.128 39.9761C320.709 39.9884 321.163 39.9012 321.489 39.7144L322.659 39.3518C324.935 38.6252 327.147 37.865 329.295 37.0712C331.507 36.2787 333.982 35.2658 336.721 34.0324L338.161 34.6442L339.496 35.6412ZM333.387 63.3114C332.813 66.0114 332.272 68.6475 331.766 71.2198C331.324 73.7934 330.914 76.3678 330.536 78.9428C330.16 81.4532 329.848 83.9974 329.599 86.5751C329.349 89.2174 329.162 91.9579 329.037 94.7966C329.033 94.9903 328.993 95.3446 328.918 95.8596C328.905 96.4405 328.897 96.8278 328.893 97.0214L327.154 96.7908L325.521 96.1749C325.227 94.8125 325.03 93.42 324.931 91.9972C324.831 90.639 324.797 89.2176 324.828 87.733C324.879 85.3448 325.058 82.9916 325.366 80.6733C325.673 78.3551 326.012 76.0699 326.383 73.8176C326.531 72.9167 326.647 72.0151 326.731 71.1128C326.879 70.2119 327.028 69.311 327.176 68.4101C327.186 67.9583 327.197 67.4419 327.209 66.861C327.287 66.2169 327.396 65.638 327.536 65.1244C327.543 64.8016 327.55 64.4789 327.557 64.1562C327.628 63.8348 327.7 63.5134 327.771 63.1921C327.843 62.8707 327.882 62.5164 327.891 62.1291C328.289 61.621 328.748 61.2756 329.269 61.0929C329.789 60.9102 330.307 60.8566 330.822 60.9322C331.337 61.0077 331.817 61.2116 332.262 61.5439C332.771 61.8776 333.118 62.2725 333.302 62.7284L333.387 63.3114Z" fill="#53D4FF"/>
<rect x="168.469" y="62" width="12.0669" height="12.0669" transform="rotate(-45 168.469 62)" fill="#53D4FF"/>
</svg>
