<svg width="459" height="105" viewBox="0 0 459 105" fill="none" xmlns="http://www.w3.org/2000/svg">
<path d="M34.488 54.1688C34.7064 53.0111 34.9247 51.8534 35.143 50.6957C35.4259 49.5393 35.6758 48.4145 35.8927 47.3213C36.0259 47.1304 36.0939 46.9704 36.0967 46.8414C36.1008 46.6477 36.1378 46.4225 36.2079 46.1657C36.2793 45.8443 36.3177 45.5545 36.3232 45.2963C36.3932 45.0395 36.593 44.7532 36.9226 44.4373L36.9329 43.9532C37.154 42.6664 37.3441 41.3143 37.5034 39.897C37.7286 38.4166 37.984 37.0336 38.2696 35.7482C38.731 35.3059 39.1883 35.0573 39.6415 35.0024C40.1593 34.9488 40.6097 35.023 40.9929 35.2248C41.442 35.3635 41.8245 35.5977 42.1403 35.9273C42.4576 36.1923 42.6787 36.423 42.8037 36.6194L42.9829 37.3013C42.8264 38.5894 42.639 39.8124 42.4207 40.9701C42.2024 42.1279 41.9511 43.3172 41.6668 44.5381C41.5268 45.0517 41.3881 45.5008 41.2508 45.8853C41.1793 46.2067 41.1079 46.5281 41.0365 46.8494C40.9651 47.1708 40.8931 47.5244 40.8203 47.9103C40.7489 48.2317 40.6747 48.6822 40.5978 49.2617C42.2335 48.2632 43.5724 47.5491 44.6148 47.1192C45.6571 46.6893 46.7956 46.2937 48.0302 45.9325C48.5493 45.8144 49.1337 45.6654 49.7833 45.4854C50.4988 45.2423 51.2136 45.0315 51.9277 44.8529C52.5759 44.7375 53.1266 44.6524 53.5798 44.5974C54.099 44.4793 54.7149 44.3632 55.4276 44.2492C56.9191 43.958 58.4744 43.7005 60.0935 43.4766C61.7127 43.2527 63.3298 43.1256 64.9448 43.0953L65.5299 42.914C65.8553 42.7918 66.2117 42.7348 66.599 42.743C67.0522 42.6881 67.537 42.6661 68.0534 42.677C68.4406 42.6853 68.795 42.7251 69.1163 42.7965C69.4391 42.8033 69.9575 42.7175 70.6716 42.5389C71.508 42.6858 71.9262 42.7593 71.9262 42.7593C72.1693 43.4748 72.2544 44.0255 72.1817 44.4114C72.1103 44.7328 71.9757 44.9882 71.7779 45.1778C71.5802 45.3673 71.287 45.4902 70.8983 45.5465C70.5742 45.6042 70.2508 45.6296 69.9281 45.6228C69.4749 45.6777 69.1514 45.7031 68.9578 45.699C68.7655 45.6304 68.506 45.6894 68.1791 45.8762L67.2892 46.7291C65.8665 46.828 64.5384 47.0258 63.3052 47.3225C62.072 47.6192 60.8387 47.9159 59.6055 48.2125C58.6963 48.4515 57.8201 48.6589 56.9769 48.8348C56.1337 49.0106 55.1614 49.1836 54.06 49.354C52.5012 49.7729 51.2021 50.1327 50.1625 50.4335C49.1874 50.7357 48.2433 51.1031 47.33 51.5357C46.4181 51.9038 45.4719 52.368 44.4914 52.9284C43.5122 53.4242 42.3353 54.1095 40.9606 54.9844C40.447 54.8443 40.094 54.74 39.9017 54.6713C39.774 54.604 39.647 54.5045 39.5206 54.3726C39.2391 55.4644 39.0215 56.5899 38.8677 57.749C38.7799 58.8449 38.6604 59.9079 38.5094 60.9379C38.4298 61.6465 38.3845 62.259 38.3735 62.7754C38.3625 63.2918 38.2856 63.8713 38.1428 64.5141C38.7691 65.4314 38.6538 66.3008 37.7968 67.122C37.4645 67.567 36.9749 67.8149 36.3281 67.8657C35.6826 67.852 35.103 67.7751 34.5894 67.6351C33.959 66.9114 33.5546 66.1924 33.376 65.4783C33.262 64.7655 33.2125 64.0542 33.2276 63.3441C33.2496 62.3114 33.369 61.2484 33.5859 60.1552C33.726 59.6416 33.8338 59.1273 33.9093 58.6123C33.9848 58.0973 34.0281 57.5816 34.039 57.0652C34.1104 56.7439 34.1846 56.2934 34.2615 55.7139C34.3397 55.0698 34.4153 54.5548 34.488 54.1688ZM33.1264 54.4305L28.5121 57.3353C26.5482 58.5851 24.6531 59.6426 22.8266 60.5079C21.0646 61.3745 19.1406 62.27 17.0545 63.1943C16.9886 63.2575 16.9227 63.3206 16.8568 63.3838C16.8554 63.4484 16.8217 63.5122 16.7558 63.5754C16.5567 63.8295 16.3253 64.0829 16.0616 64.3356C15.798 64.5883 15.2775 64.7709 14.5002 64.8836C14.0538 64.6158 13.4708 64.7003 12.7512 65.137C12.4903 65.2606 12.228 65.4488 11.9643 65.7015C11.7666 65.891 11.4741 65.9817 11.0868 65.9734C10.7586 66.2248 10.3665 66.4425 9.91053 66.6265C9.51914 66.8119 9.1298 66.9005 8.74252 66.8923C8.67386 67.0845 8.57292 67.2761 8.43972 67.467C8.37106 67.6593 8.17467 67.7843 7.85057 67.842C7.52372 68.0287 7.03962 68.0185 6.39826 67.8111C5.75828 67.5392 5.28035 67.2385 4.96447 66.9089C4.66916 65.6111 4.46999 64.3476 4.36695 63.1185C4.32845 61.8907 4.32223 60.6637 4.34828 59.4373C4.40176 56.9199 4.61524 54.4706 4.9887 52.0892C5.36217 49.7078 5.73153 47.5201 6.09677 45.526C6.16543 45.3337 6.20182 45.1408 6.20593 44.9471C6.21005 44.7535 6.24643 44.5605 6.31509 44.3683C6.32743 43.7873 6.33909 43.2387 6.35006 42.7223C6.36103 42.2059 6.43723 41.6587 6.57867 41.0805C6.52372 40.6273 6.69263 40.2757 7.08539 40.0258C7.54408 39.7126 8.06594 39.4654 8.65097 39.2841C8.84187 39.4173 9.03277 39.5505 9.22367 39.6837C9.48048 39.7538 9.67207 39.8547 9.79842 39.9865L9.60683 39.8856C10.0518 40.2179 10.4645 40.5496 10.8449 40.8805C11.2254 41.2115 11.4726 41.7334 11.5866 42.4461C11.783 42.3211 11.9787 42.2284 12.1737 42.168C12.4346 42.0444 12.6955 41.9208 12.9565 41.7972C13.2819 41.6749 13.6074 41.5527 13.9329 41.4305C14.3243 41.245 14.7802 41.061 15.3007 40.8783C15.3021 40.8138 15.664 40.4986 16.3863 39.9327L16.3843 40.0296C16.7784 39.7151 17.1725 39.4006 17.5667 39.086C18.0253 38.7729 18.449 38.5882 18.8377 38.5319C19.2922 38.4124 19.7104 38.4858 20.0922 38.7522C20.5386 39.02 20.9471 39.5453 21.318 40.3281L21.9525 42.3757L21.4581 42.8495C21.2742 45.4287 21.0284 47.8773 20.7209 50.1955C20.4133 52.5137 19.9767 54.8292 19.411 57.1419C20.1937 56.7711 21.0425 56.3371 21.9571 55.8399C22.6108 55.4663 23.3606 55.1271 24.2066 54.8222C25.1171 54.5187 26.029 54.1506 26.9422 53.7179C27.2677 53.5957 27.5925 53.5057 27.9166 53.4481C28.2407 53.3904 28.7262 53.3361 29.373 53.2853C29.6971 53.2276 30.184 53.1088 30.8335 52.9288C31.4845 52.6844 31.9672 52.7592 32.2817 53.1533L33.1264 54.4305ZM13.6533 59.1506C14.3468 56.9052 14.8775 54.7209 15.2455 52.5977C15.6135 50.4745 15.9526 48.1893 16.2629 45.742C15.2851 46.1732 14.4048 46.5743 13.622 46.9451C12.8406 47.2514 11.928 47.6517 10.8843 48.1462C10.8006 49.0484 10.6859 49.8855 10.5404 50.6573C10.3948 51.4291 10.2479 52.2655 10.0996 53.1664C9.94309 54.4546 9.75293 55.8067 9.52912 57.2226C9.37123 58.5753 9.27721 59.9617 9.24704 61.3817C9.96391 61.0741 10.6822 60.7019 11.4018 60.2652C11.4677 60.202 11.7938 60.0475 12.3803 59.8016C12.968 59.4912 13.3924 59.2742 13.6533 59.1506ZM92.8933 32.2591C93.525 32.9183 93.7709 33.5047 93.6308 34.0183C93.5566 34.4688 93.4502 34.9185 93.3115 35.3676C93.1715 35.8813 93.0994 36.2349 93.0953 36.4285C92.7437 37.7772 92.3929 39.0935 92.0427 40.3776C91.7585 41.5985 91.4413 42.851 91.0911 44.1351C90.8742 45.2283 90.6243 46.353 90.3414 47.5094C90.1245 48.6026 89.8752 49.6951 89.5937 50.7869C90.0497 50.6028 90.4733 50.4181 90.8647 50.2327C91.3207 50.0487 91.8089 49.8653 92.3294 49.6826C93.5008 49.2555 94.6393 48.8599 95.7448 48.496C96.8517 48.0674 97.9614 47.5098 99.0737 46.8231C99.6574 46.7064 100.112 46.5869 100.437 46.4646C100.763 46.3424 101.121 46.1886 101.513 46.0032C101.584 45.6818 101.623 45.3598 101.63 45.037C101.703 44.6511 101.776 44.2329 101.851 43.7825C102.003 42.6879 102.156 41.5611 102.31 40.402C102.529 39.1797 102.878 37.9925 103.354 36.8402C103.489 36.5848 103.656 36.33 103.855 36.0759C104.054 35.8219 104.412 35.7003 104.928 35.7113C106.154 35.7373 107.298 36.6334 108.358 38.3995C108.214 39.1067 108.07 39.814 107.925 40.5213C107.846 41.2299 107.638 41.9036 107.301 42.5422C107.294 42.8649 107.257 43.0901 107.19 43.2179C106.954 45.2147 106.685 47.2108 106.385 49.2063C106.084 51.2018 105.784 53.165 105.485 55.0959C105.18 57.285 104.874 59.5064 104.568 61.76C104.262 64.0137 103.953 66.3964 103.642 68.9083C103.312 69.2242 103.049 69.4446 102.853 69.5696C102.721 69.6959 102.59 69.7577 102.461 69.755C102.397 69.7536 102.365 69.7207 102.366 69.6561C102.368 69.5916 102.336 69.5586 102.272 69.5572C102.207 69.5559 102.142 69.5868 102.076 69.6499C102.01 69.7131 101.912 69.7756 101.781 69.8374C100.894 69.0436 100.363 68.1929 100.189 67.2851C100.079 66.3787 100.032 65.5705 100.047 64.8605C100.126 64.1518 100.172 63.5071 100.185 62.9261C100.198 62.2807 100.213 61.5707 100.23 60.7961C100.264 59.1824 100.299 57.5365 100.335 55.8583C100.435 54.1814 100.567 52.5375 100.73 50.9266C100.012 51.2988 99.1316 51.6998 98.0892 52.1297C97.1114 52.561 96.1652 53.0252 95.2506 53.5224C93.8169 54.1377 92.4483 54.7221 91.1451 55.2756C89.8418 55.8291 88.5351 56.5439 87.225 57.4202C86.6743 59.0229 86.1861 60.7238 85.7605 62.5229C85.343 63.9347 84.9256 65.3465 84.5081 66.7583C84.092 68.1055 83.6437 69.4521 83.1631 70.798C83.1562 71.1207 83.1494 71.4434 83.1425 71.7662C83.137 72.0244 82.9702 72.2791 82.6419 72.5305C82.5582 73.4327 82.3804 74.2039 82.1085 74.8439C81.8366 75.4838 81.5317 76.1554 81.1939 76.8586C81.0607 77.0495 80.9584 77.3056 80.887 77.627C80.8815 77.8852 80.7414 78.3988 80.4668 79.1679L77.8177 80.7583C77.0692 79.5154 76.7368 78.4429 76.8205 77.5406C76.9688 76.6397 77.148 75.804 77.3581 75.0335C77.4268 74.8413 77.4954 74.649 77.5641 74.4567C77.6328 74.2645 77.6678 74.1361 77.6691 74.0715C77.8215 72.977 77.9685 72.1406 78.1099 71.5624C78.2513 70.9842 78.4264 70.3422 78.6351 69.6363C78.767 69.5099 78.8343 69.3822 78.837 69.2531C79.4741 66.619 80.1751 64.0186 80.94 61.4518C81.0073 61.3241 81.0753 61.1641 81.1439 60.9718C81.2126 60.7796 81.2483 60.6189 81.251 60.4898C81.3252 60.0393 81.3973 59.6857 81.4673 59.4289C81.6019 59.1734 81.7035 58.9496 81.7722 58.7573C81.8408 58.565 81.9095 58.3728 81.9781 58.1805C82.0482 57.9237 82.1525 57.5707 82.2912 57.1216L80.3343 58.0487C80.1392 58.1091 79.846 58.2321 79.4547 58.4175C79.1292 58.5397 78.8682 58.6633 78.6719 58.7883C77.3013 59.4695 75.93 60.183 74.5581 60.9288C73.1862 61.6745 71.8403 62.7115 70.5206 64.0395C69.4906 63.8885 68.8176 63.6482 68.5018 63.3186C68.1859 62.989 67.8707 62.6271 67.5562 62.233C67.368 61.9707 67.0226 61.5113 66.52 60.8549C66.9306 59.7658 67.5293 58.939 68.3162 58.3746C69.1677 57.8115 70.0486 57.3782 70.9591 57.0746C71.4151 56.8906 71.871 56.7065 72.327 56.5225C72.7843 56.2739 73.3412 55.8983 73.9976 55.3956C74.9781 54.8353 75.9566 54.3717 76.9331 54.005C77.9095 53.6383 78.9498 53.3052 80.0539 53.0058C80.7049 52.7614 81.2576 52.5794 81.7122 52.4599C82.1682 52.2758 82.8521 51.9998 83.764 51.6317C84.3901 49.514 85.0211 47.1704 85.6569 44.6008C86.2926 42.0313 86.8282 39.6211 87.2634 37.3702C86.2266 37.5419 85.3188 37.7163 84.5401 37.8935C83.7614 38.0707 82.9814 38.3124 82.2 38.6187C81.4831 38.9263 80.6996 39.3294 79.8496 39.828C79.0654 40.2634 78.1494 40.8251 77.1016 41.5132C76.0757 41.1685 75.2132 40.7304 74.5142 40.199C73.8151 39.6675 73.4759 38.9177 73.4964 37.9495C73.7711 37.1804 74.1364 36.7038 74.5923 36.5198C75.0496 36.2712 75.5378 36.0878 76.057 35.9697C76.1861 35.9725 76.3481 35.9436 76.5431 35.8832C76.8027 35.8241 77.0004 35.6346 77.1364 35.3146C78.7033 34.5084 80.0389 33.9556 81.143 33.6562C82.2486 33.2922 83.4502 32.9626 84.748 32.6673C85.6558 32.4928 86.4667 32.3163 87.1809 32.1378C87.9595 31.9606 88.7396 31.7188 89.521 31.4126C90.2338 31.2985 90.8476 31.2793 91.3626 31.3548C91.8776 31.4303 92.3879 31.7318 92.8933 32.2591ZM120.363 34.1019C119.785 36.9955 119.274 39.7937 118.829 42.4965C118.449 45.2006 118.101 47.9054 117.785 50.6109C117.535 53.2532 117.283 55.9923 117.029 58.8282C116.841 61.601 116.681 64.5681 116.549 67.7295C116.481 67.9218 116.378 68.1779 116.243 68.4979C116.171 68.8193 116.1 69.1084 116.03 69.3652C115.959 69.6866 115.888 70.0079 115.816 70.3293C115.811 70.5875 115.709 70.8113 115.511 71.0009C115.171 71.8331 114.87 72.311 114.609 72.4346C114.348 72.5583 113.959 72.6468 113.441 72.7004C113.377 72.6991 113.118 72.7258 112.664 72.7808C112.277 72.7726 112.019 72.7671 111.89 72.7643C111.846 71.7948 111.838 70.6645 111.865 69.3736C111.894 68.0181 111.919 66.824 111.941 65.7912C112.026 61.7893 112.207 57.854 112.483 53.9853C112.823 50.118 113.193 46.3805 113.593 42.7727C113.856 42.52 113.927 42.2309 113.805 41.9054C113.748 41.5168 113.885 41.1645 114.215 40.8486C114.355 40.335 114.431 39.7877 114.443 39.2068C114.52 38.6272 114.596 38.08 114.672 37.565C114.824 36.4704 114.976 35.4081 115.127 34.3781C115.279 33.2836 115.66 32.097 116.268 30.8184C117.363 30.9708 118.196 31.2468 118.769 31.6464C119.408 31.9829 119.911 32.607 120.279 33.5189L120.363 34.1019ZM155.687 35.8209L156.925 36.8159C155.226 37.7484 153.756 38.5567 152.515 39.2407C151.273 39.9246 150.098 40.5454 148.988 41.103C147.944 41.5974 146.901 42.0596 145.859 42.4895C144.816 42.9194 143.677 43.3472 142.441 43.773C143.664 43.9927 144.553 44.6574 145.111 45.767L145.095 46.5416C143.877 49.1633 142.759 51.6257 141.741 53.9288C140.725 56.1674 139.51 58.6601 138.095 61.4068C138.485 61.2859 138.876 61.1328 139.267 60.9474C139.659 60.7619 140.049 60.6088 140.439 60.4879L143.466 59.3899C144.57 59.0904 145.674 58.791 146.778 58.4916C147.948 58.129 149.085 57.798 150.189 57.4985C152.66 56.7115 155.227 55.9266 157.892 55.1437C160.556 54.3608 163.219 53.6425 165.88 52.9887C166.005 53.1851 166.456 53.2269 167.234 53.1143C168.012 52.9371 168.759 52.7592 169.473 52.5807L169.485 51.9998C169.496 51.4834 169.636 50.9698 169.905 50.4589C170.486 47.4361 170.91 44.2163 171.176 40.7995C171.507 37.384 171.808 33.8387 172.08 30.1636C172.544 29.5923 173.035 29.2799 173.553 29.2263C174.135 29.1741 174.682 29.2826 175.193 29.5517C175.705 29.7563 176.15 30.0887 176.528 30.5487C176.907 30.9442 177.157 31.337 177.278 31.727L177.366 32.1163C177.218 33.0173 177.102 33.9189 177.018 34.8211C176.936 35.6589 176.82 36.5282 176.672 37.4291C176.131 41.6151 175.493 45.8312 174.757 50.0776C174.022 54.2594 172.872 58.2387 171.307 62.0154L168.592 62.1515C168.604 61.5706 168.581 61.1503 168.521 60.8908C168.527 60.6326 168.436 60.3401 168.25 60.0132C168.398 59.1123 168.475 58.5328 168.48 58.2746C168.552 57.9532 168.656 57.6003 168.793 57.2157C169.146 55.8025 169.334 54.5796 169.356 53.5468L167.864 55.3556C167.532 55.8005 167.201 56.181 166.871 56.4968C166.542 56.8127 166.053 56.9961 165.407 57.0469C163.128 57.9026 160.656 58.7541 157.991 59.6016C155.39 60.4504 152.853 61.3005 150.381 62.1521L144.815 64.2617C143.057 64.9347 141.169 65.6695 139.15 66.4661C137.133 67.1982 135.279 67.8046 133.59 68.2853C132.952 67.9488 132.218 67.5135 131.39 66.9793C130.628 66.3819 130.355 65.5366 130.572 64.4435C132.242 61.8313 133.685 59.2789 134.9 56.7863C136.117 54.2291 137.235 51.7344 138.256 49.3022C138.593 48.599 138.965 47.832 139.37 47.0011C139.776 46.1057 140.149 45.2741 140.488 44.5064C139.186 44.9954 137.884 45.5166 136.581 46.0701C135.343 46.5604 134.072 47.1146 132.768 47.7326C132.051 48.0403 131.502 48.0286 131.122 47.6977C130.743 47.3022 130.364 46.9067 129.985 46.5111C129.858 46.3793 129.7 46.2145 129.511 46.0168C129.323 45.7545 129.165 45.5574 129.039 45.4256L129.08 43.4892C130.712 42.6843 132.341 41.9763 133.968 41.3651C135.66 40.7553 137.352 40.1455 139.044 39.5357C139.955 39.2321 140.865 38.9286 141.776 38.6251C142.688 38.257 143.632 37.8896 144.608 37.5229C144.998 37.402 145.356 37.2805 145.681 37.1582C146.071 37.0373 146.396 36.9474 146.656 36.8883C147.044 36.832 147.434 36.7434 147.824 36.6225C148.278 36.503 148.868 36.0958 149.593 35.4009C150.034 35.9269 150.353 36.0951 150.551 35.9056C150.75 35.6515 151.108 35.5299 151.624 35.5409C151.885 35.4173 152.145 35.3582 152.403 35.3637C152.661 35.3692 152.92 35.3424 153.18 35.2834C153.633 35.2284 154.022 35.1721 154.346 35.1144C154.736 34.9935 155.191 34.8418 155.712 34.6591L155.687 35.8209ZM162.83 73.459C164.264 75.8788 164.948 78.6378 164.882 81.7361C164.859 82.8334 164.739 83.9286 164.522 85.0218C164.305 86.115 163.993 87.1093 163.587 88.0047C163.184 88.7065 162.717 89.4069 162.186 90.106C161.718 90.8709 161.154 91.5693 160.495 92.201C159.834 92.8973 159.112 93.4309 158.33 93.8017C157.545 94.2371 156.702 94.4452 155.798 94.426C154.897 94.2777 154.067 93.8403 153.307 93.1139C152.548 92.3874 151.917 91.6637 151.416 90.9427C151.301 90.2945 151.218 89.6147 151.169 88.9033C151.118 88.2564 151.1 87.578 151.115 86.868C151.154 85.0607 151.383 83.3866 151.803 81.8457C152.225 80.2402 152.711 78.6362 153.261 77.0335C153.605 76.0721 154.078 75.0812 154.681 74.0608C155.348 73.0418 156.332 72.3201 157.633 71.8957C157.828 71.8352 157.989 71.8387 158.117 71.906C158.31 71.9101 158.503 71.9465 158.696 72.0151C159.808 71.3284 160.586 71.1835 161.03 71.5804C161.539 71.9141 161.983 72.311 162.36 72.771L162.83 73.459ZM156.37 17.3344C157.005 17.8645 157.353 18.1625 157.417 18.2285C157.48 18.2944 157.512 18.2951 157.513 18.2305C157.577 18.2964 157.639 18.3946 157.701 18.5251C157.763 18.6555 157.949 19.0147 158.259 19.6024C157.341 20.2933 156.522 20.8248 155.804 21.197C155.086 21.5692 154.305 21.8432 153.462 22.019C151.448 22.5574 149.598 23.0347 147.91 23.4509C146.287 23.8684 144.76 24.3203 143.329 24.8065C141.962 25.2941 140.659 25.8476 139.419 26.467C138.179 27.0864 136.968 27.8356 135.787 28.7146C135.659 28.6473 135.436 28.5134 135.117 28.3129C134.863 28.1138 134.641 27.9476 134.45 27.8144C134.26 27.6167 134.006 27.4498 133.686 27.3139C133.43 27.1793 133.176 27.0124 132.921 26.8133C132.733 26.551 132.578 26.2571 132.456 25.9316C132.4 25.543 132.441 25.0918 132.581 24.5782C134.158 23.3202 135.892 22.2592 137.783 21.3953C139.674 20.5314 141.589 20.0555 143.528 19.9676C144.77 19.2836 146.232 18.8303 147.916 18.6078C149.666 18.3221 151.35 18.0673 152.969 17.8434C153.617 17.728 154.2 17.6435 154.718 17.5899C155.3 17.5377 155.851 17.4526 156.37 17.3344ZM160.418 77.5729C160.293 77.3766 160.202 77.1163 160.144 76.7922C160.151 76.4695 160.093 76.1454 159.971 75.8199C159.578 76.0699 159.382 76.1948 159.382 76.1948C159.114 76.6412 158.845 77.1198 158.576 77.6307C158.372 78.143 158.101 78.7507 157.763 79.4538C157.628 79.7093 157.527 79.9008 157.46 80.0286C157.457 80.1577 157.388 80.3499 157.254 80.6054C157.309 81.0586 157.202 81.5406 156.933 82.0515C156.865 82.1792 156.798 82.307 156.731 82.4347C156.663 82.5624 156.596 82.6901 156.529 82.8178C156.523 83.076 156.484 83.4304 156.409 83.8808C156.401 84.2681 156.394 84.5908 156.389 84.849C156.241 85.7499 156.127 86.5224 156.049 87.1665C156.035 87.812 156.182 88.4932 156.49 89.21C158.134 87.8243 159.171 86.1028 159.602 84.0455C160.098 81.9896 160.37 79.8321 160.418 77.5729Z" fill="#E6F027"/>
<path d="M261.727 22.7184C261.304 24.3884 260.848 26.1222 260.357 27.92C259.869 29.6531 259.381 31.3217 258.895 32.9258C258.472 34.5958 258.087 36.0083 257.739 37.1633C257.393 38.2537 257.009 39.6339 256.586 41.3039C258.598 40.8301 260.58 40.2587 262.531 39.5898C264.483 38.9209 266.402 38.2514 268.289 37.5811C269.588 37.2213 270.92 36.8298 272.285 36.4068C273.65 35.9837 274.983 35.56 276.283 35.1356L276.835 31.9508C276.991 30.7272 277.112 29.5674 277.2 28.4715C277.354 27.3124 277.444 26.0874 277.472 24.7964C277.947 23.7087 278.474 23.2033 279.054 23.2802C279.633 23.3571 280.243 23.5315 280.883 23.8034L280.786 23.8013L281.94 24.2133C282.633 25.0029 282.94 25.7844 282.859 26.5576C282.778 27.3307 282.664 28.1033 282.519 28.8751C282.448 29.1964 282.375 29.5501 282.303 29.936C282.294 30.3233 282.288 30.646 282.282 30.9042C282.396 31.6169 282.316 32.3256 282.043 33.0301C281.907 33.3501 281.868 33.6722 281.926 33.9963C282.048 34.3217 282.56 34.5586 283.461 34.7069L282.247 37.1027C281.728 37.2209 281.46 37.6672 281.444 38.4418C281.087 40.0486 280.796 41.5599 280.573 42.9759C280.413 44.3931 280.254 45.8104 280.095 47.2277C279.933 48.7741 279.741 50.223 279.518 51.5744C279.36 52.9271 279.104 54.3423 278.75 55.82L277.22 59.4684L275.291 59.0399L274.42 59.0214C274.364 58.6328 274.34 58.2448 274.348 57.8575L274.385 56.1148C274.392 55.792 274.398 55.5016 274.403 55.2434C274.41 54.9207 274.354 54.532 274.234 54.0774C274.274 52.2056 274.378 50.3674 274.545 48.5628C274.777 46.7596 275.01 44.9241 275.243 43.0564C275.389 42.2846 275.465 41.7373 275.472 41.4145C275.543 41.0932 275.62 40.5459 275.701 39.7727L272.378 41.1551C271.596 41.4614 271.043 41.6756 270.718 41.7979C270.458 41.8569 270.231 41.8844 270.038 41.8803C269.06 42.3115 268.082 42.7428 267.104 43.1741C266.192 43.5421 265.249 43.8773 264.274 44.1794C263.493 44.4857 262.711 44.792 261.93 45.0983C261.148 45.4046 260.367 45.7108 259.585 46.0171C259.325 46.1407 259.129 46.2334 258.998 46.2952C258.868 46.357 258.673 46.4175 258.413 46.4765C257.757 46.9792 257.173 47.096 256.662 46.8268C256.216 46.559 255.704 46.3221 255.128 46.1161C254.99 46.5007 254.785 47.0452 254.512 47.7497C254.304 48.3911 254.098 48.9679 253.894 49.4802C252.729 52.6197 251.366 55.9809 249.805 59.564C248.31 63.0839 246.528 66.3718 244.462 69.4275L242.993 70.1712C242.931 70.0407 242.837 69.9096 242.711 69.7778C242.395 69.4482 242.206 69.2181 242.144 69.0877L241.102 68C241.629 67.4946 241.896 67.0806 241.903 66.7578C241.909 66.4996 241.913 66.2737 241.917 66.0801C241.986 65.8878 242.088 65.6317 242.224 65.3117C242.561 64.6731 242.797 64.1938 242.933 63.8738C243.07 63.4892 243.209 63.0402 243.349 62.5265C243.69 61.6943 243.997 60.8936 244.272 60.1245C244.548 59.2909 244.951 58.5568 245.481 57.9223C245.695 56.9583 246.007 55.9639 246.416 54.9394C246.827 53.8504 247.205 52.7606 247.551 51.6702C247.687 51.3502 247.823 51.0302 247.959 50.7102C248.096 50.3256 248.203 49.8759 248.278 49.3609L246.914 49.7194C246.2 49.8979 245.452 50.1726 244.669 50.5434C243.886 50.9143 242.939 51.443 241.826 52.1297C241.502 52.1874 241.177 52.3097 240.85 52.4964C240.523 52.6832 240.196 52.9023 239.867 53.1536C239.406 53.5958 238.913 54.0051 238.388 54.3814C237.93 54.6946 237.441 54.8779 236.924 54.9315C236.47 54.9864 235.989 54.8471 235.48 54.5134C234.97 54.1797 234.467 53.5232 233.972 52.5441C233.849 52.2186 233.791 51.9267 233.796 51.6686C233.802 51.4104 233.909 50.9283 234.118 50.2224C235.42 49.7335 236.755 49.1807 238.124 48.564C239.494 47.9473 240.831 47.33 242.135 46.7119C243.308 46.2202 244.547 45.6654 245.851 45.0473C247.156 44.4293 248.622 43.8146 250.249 43.2035C250.383 43.0126 250.483 42.8532 250.55 42.7255C250.682 42.5992 250.749 42.4715 250.752 42.3424C250.902 41.3769 251.145 40.5426 251.483 39.8394L252.437 35.9851L253.821 30.1058C253.968 29.2695 254.212 28.4029 254.554 27.5061C254.166 27.5624 253.807 27.7162 253.479 27.9676C253.023 28.1516 252.567 28.3356 252.111 28.5197C251.657 28.6392 251.234 28.7594 250.844 28.8802C250.517 29.067 249.963 29.3135 249.182 29.6198C248.4 29.9261 247.619 30.2324 246.838 30.5387C245.536 31.0276 244.232 31.5811 242.928 32.1992C241.625 32.7527 240.316 33.5643 239.002 34.6342C238.296 34.4255 237.72 34.155 237.275 33.8226C236.832 33.4257 236.42 33.0296 236.041 32.634L234.902 31.5443C236.94 29.8441 238.937 28.5627 240.892 27.7002C242.913 26.839 244.867 26.0088 246.757 25.2094C247.669 24.8414 248.548 24.5049 249.394 24.1999C250.304 23.8964 251.544 23.3093 253.112 22.4385C253.758 22.4522 254.243 22.398 254.569 22.2757C254.895 22.089 255.222 21.9022 255.549 21.7154C256.267 21.3432 256.953 21.0026 257.605 20.6936C258.322 20.3859 259.321 20.4717 260.602 20.951L261.727 22.7184ZM266.652 55.3693C267.546 55.8403 268.017 56.4315 268.067 57.1429C268.116 57.8543 268.069 58.5636 267.925 59.2709C267.856 59.4632 267.82 59.6561 267.816 59.8498C267.812 60.0434 267.74 60.3648 267.601 60.8139C267.312 62.293 267.024 63.6752 266.738 64.9607C266.519 66.183 266.232 67.533 265.877 69.0107C265.667 69.7811 265.525 70.3916 265.451 70.842C265.377 71.2925 265.234 71.9352 265.023 72.7702C266.123 72.6644 267.289 72.4955 268.521 72.2633C269.818 71.968 271.084 71.672 272.317 71.3753C273.031 71.1968 273.745 71.0182 274.459 70.8397C275.175 70.5966 275.889 70.418 276.602 70.304C278.681 69.7024 280.499 69.2567 282.055 68.9669C283.677 68.6139 285.233 68.2918 286.725 68.0006C288.021 67.7698 289.318 67.5391 290.614 67.3083C291.976 67.0144 293.567 66.6284 295.385 66.1504C295.967 66.0982 296.614 66.0474 297.325 65.9979C298.038 65.8839 298.589 65.7987 298.977 65.7424C299.69 65.6284 300.435 65.5474 301.211 65.4993C301.986 65.4512 303.02 65.4408 304.311 65.4683C303.51 66.6782 302.847 67.5036 302.321 67.9445C301.796 68.3208 301.046 68.6923 300.069 69.059C299.74 69.3749 299.154 69.5884 298.312 69.6997C297.47 69.811 296.824 69.8295 296.374 69.7554C295.524 70.2539 294.676 70.6234 293.832 70.8638C293.053 71.0409 292.21 71.2168 291.302 71.3912C290.522 71.6329 289.807 71.8438 289.158 72.0237C288.509 72.1391 288.023 72.2579 287.697 72.3801C287.178 72.4982 286.659 72.6164 286.14 72.7345C285.685 72.854 284.939 73.0319 283.901 73.2681C281.43 74.0551 278.929 74.7446 276.398 75.3366C273.932 75.93 271.433 76.5226 268.902 77.1146C267.798 77.4141 266.694 77.6812 265.591 77.9161C264.489 78.151 263.385 78.4181 262.281 78.7175C261.38 78.5692 260.61 78.3591 259.97 78.0872C259.33 77.8153 258.664 77.2523 257.971 76.3981C259.21 72.8082 260.186 69.4387 260.898 66.2896C261.676 63.1419 262.294 59.8616 262.754 56.4489C262.964 55.6784 263.231 55.2966 263.553 55.3035C263.877 55.2458 264.201 55.2204 264.524 55.2272C265.236 55.1132 265.689 55.0905 265.881 55.1592C266.073 55.2279 266.33 55.2979 266.652 55.3693ZM335.377 48.4021C333.527 50.3647 331.744 52.2318 330.027 54.0034C328.312 55.7106 326.597 57.4177 324.882 59.1248C323.231 60.8333 321.547 62.5733 319.831 64.345C318.115 66.0521 316.334 67.8547 314.485 69.7527C315.327 69.6414 316.073 69.4958 316.722 69.3159C317.436 69.1373 318.152 68.8942 318.869 68.5866C319.779 68.283 320.722 67.9802 321.697 67.678C322.672 67.3759 323.71 67.1719 324.81 67.0661C326.886 66.5936 329.091 66.1561 331.424 65.7537C333.759 65.2867 336.281 65.1465 338.989 65.3332C339.752 65.866 340.161 66.3913 340.214 66.909C340.334 67.3636 340.358 67.7516 340.287 68.0729L340.274 68.6539C336.63 73.0322 332.806 76.6964 328.805 79.6464C324.804 82.5319 320.709 85.3186 316.519 88.0063L310.432 91.8484C309.514 92.4747 308.697 92.9739 307.978 93.3461C307.259 93.7829 306.54 94.1873 305.822 94.5595C305.298 94.8713 304.744 95.1501 304.157 95.396C303.634 95.7077 303.111 96.0195 302.587 96.3313C303.878 96.3587 305.105 96.3847 306.267 96.4094C307.428 96.4341 308.559 96.4258 309.657 96.3846C310.627 96.3406 311.66 96.3303 312.758 96.3536C313.92 96.3783 315.017 96.4016 316.05 96.4235C320.576 96.1322 325.199 95.843 329.92 95.5558C334.704 95.27 339.36 94.9814 343.886 94.6901C344.337 94.7643 344.821 94.7746 345.339 94.721C345.921 94.6688 346.504 94.5843 347.088 94.4676C347.8 94.3535 348.513 94.2395 349.226 94.1255C349.939 94.0115 350.616 94.0259 351.259 94.1687L352.227 94.1893C352.55 94.1961 352.937 94.2044 353.389 94.214C353.841 94.2236 354.265 94.0388 354.66 93.6598C355.042 93.9262 355.265 94.0601 355.33 94.0615C355.457 94.1287 355.586 94.1315 355.717 94.0697C356.042 93.9474 356.399 93.8582 356.788 93.8019C357.177 93.7455 357.624 93.9488 358.131 94.4116C358.259 94.4789 358.388 94.4816 358.519 94.4198C358.712 94.4239 358.937 94.461 359.194 94.531L359.159 96.177C358.445 96.3555 357.829 96.4716 357.311 96.5252C356.857 96.6447 356.402 96.7641 355.948 96.8836C355.364 97.0004 354.747 97.1487 354.098 97.3287C353.447 97.5731 352.795 97.8499 352.143 98.1589C350.849 98.2606 349.49 98.3932 348.066 98.5566C346.642 98.7201 345.283 98.8527 343.989 98.9543C341.077 99.2799 338.035 99.5705 334.866 99.826C331.696 100.082 328.432 100.238 325.072 100.296C322.611 100.631 320.087 100.9 317.5 101.104C314.977 101.309 312.294 101.445 309.452 101.514C308.743 101.434 307.969 101.386 307.13 101.368C306.354 101.416 305.578 101.464 304.802 101.512C303.897 101.557 303.057 101.572 302.283 101.555C301.507 101.604 300.732 101.587 299.959 101.506C299.312 101.557 298.603 101.51 297.831 101.364C297.058 101.283 296.384 101.107 295.808 100.837C295.035 100.756 294.365 100.354 293.8 99.6317C293.672 99.5644 293.481 99.4312 293.227 99.232C293.037 99.0343 292.879 98.8695 292.753 98.7377L292.788 97.0917C295.08 95.5906 297.437 94.0908 299.858 92.5924C302.278 91.1586 304.632 89.7557 306.921 88.3836C311.239 85.7632 315.591 83.0465 319.977 80.2338C324.365 77.3565 328.57 73.9588 332.593 70.0405C332.204 70.0968 331.815 70.1854 331.425 70.3063C331.036 70.3626 330.647 70.4512 330.257 70.5721C329.737 70.6902 329.251 70.809 328.796 70.9285C328.406 71.0494 327.822 71.1661 327.045 71.2787C325.878 71.5122 324.807 71.7478 323.833 71.9854C322.924 72.2244 322.111 72.4977 321.394 72.8054C319.704 73.3507 317.917 73.8616 316.034 74.3382C314.216 74.8162 312.276 74.9364 310.215 74.6989C309.516 74.1674 308.948 73.5419 308.511 72.8223C308.076 72.0381 307.642 71.1894 307.209 70.2762C308.867 68.245 310.521 66.3751 312.172 64.6666C313.888 62.895 315.603 61.1878 317.317 59.5453C318.767 58.1554 320.25 56.7662 321.765 55.3777C323.344 53.9906 324.796 52.5039 326.121 50.9177C324.888 51.2144 323.717 51.6092 322.609 52.1023C321.502 52.5308 320.393 53.0562 319.282 53.6783C318.57 53.7923 318.022 53.7161 317.641 53.4497C317.325 53.1201 317.009 52.7583 316.695 52.3641C316.569 52.2323 316.41 52.0998 316.219 51.9666C316.094 51.7702 315.936 51.6054 315.745 51.4722L315.788 49.4389C317.811 48.4487 319.764 47.7153 321.647 47.2387C323.531 46.6975 325.414 46.2209 327.296 45.8088C327.944 45.6935 328.56 45.5451 329.145 45.3638C329.795 45.1839 330.477 45.0047 331.191 44.8261L331.966 44.8425C332.676 44.8576 333.351 44.9688 333.993 45.1762C334.698 45.3849 335.233 46.0421 335.597 47.1476L335.377 48.4021ZM311.907 31.5335C311.896 32.0499 311.885 32.5663 311.874 33.0826C311.929 33.5358 311.951 34.0206 311.94 34.537C311.904 36.2152 311.805 37.8275 311.643 39.3739C311.546 40.9217 311.417 42.4365 311.256 43.9183C311.094 45.4647 310.935 46.882 310.778 48.1702C310.687 49.4597 310.623 50.9436 310.587 52.6218C310.576 53.1382 310.564 53.7191 310.55 54.3646C310.602 54.9469 310.623 55.4962 310.612 56.0126C310.152 56.3903 309.758 56.6725 309.432 56.8593C309.169 57.0474 308.718 57.0056 308.078 56.7337C307.26 55.7476 306.799 54.6401 306.696 53.4109C306.594 52.1173 306.525 50.792 306.49 49.4351C306.496 49.1124 306.471 48.789 306.413 48.4649C306.42 48.1421 306.427 47.8194 306.434 47.4967C306.459 46.3348 306.483 45.2053 306.506 44.108C306.529 43.0107 306.585 41.9141 306.673 40.8181C306.688 40.1081 306.699 39.5917 306.706 39.269C306.778 38.8831 306.818 38.5288 306.825 38.206C306.832 37.8833 306.839 37.5283 306.848 37.141C306.856 36.7537 306.868 36.2051 306.883 35.4951C306.217 36.4496 305.518 37.4034 304.788 38.3565C304.122 39.311 303.357 40.328 302.495 41.4074C302.233 41.5956 301.97 41.816 301.706 42.0687C301.507 42.3228 301.275 42.5762 301.012 42.8289C300.88 42.9552 300.714 43.1454 300.515 43.3995C300.318 43.589 300.185 43.7477 300.118 43.8754C299.586 44.5744 298.99 45.2721 298.33 45.9684C297.735 46.6015 297.173 47.2354 296.643 47.8699L296.049 48.4384C295.72 48.7543 295.458 48.9425 295.263 49.0029C295.069 48.9988 294.875 49.0269 294.68 49.0874C294.549 49.1492 294.419 49.211 294.288 49.2728C294.159 49.2701 293.93 49.4266 293.6 49.7425L292.263 48.8423C292.605 47.9455 292.908 47.3708 293.172 47.1181C293.437 46.8008 293.735 46.452 294.066 46.0716C294.925 45.1212 295.462 44.1639 295.676 43.1999L297.763 40.7257C298.156 40.4758 298.453 40.1915 298.653 39.8729C298.854 39.5542 299.054 39.2356 299.255 38.917C299.991 37.7057 300.492 36.9091 300.758 36.5273C301.091 36.0824 301.389 35.7013 301.654 35.384C302.05 35.005 302.416 34.4961 302.752 33.8575L303.85 32.331C304.059 31.6251 304.364 30.9213 304.767 30.2195C305.169 29.5177 305.632 29.0109 306.155 28.6991C306.961 27.231 307.702 25.7938 308.378 24.3875C309.055 22.9166 309.765 21.4142 310.508 19.8801C311.451 18.0275 312.362 16.1741 313.241 14.3201C314.185 12.4674 315.126 10.7116 316.065 9.05256C316.922 8.23128 317.831 7.99228 318.793 8.33559C319.82 8.61571 320.32 9.40125 320.292 10.6922C318.737 14.0171 317.216 17.2136 315.73 20.2817C314.245 23.2852 312.599 26.2853 310.792 29.282L310.982 29.4797L311.907 31.5335ZM349.711 11.9952C349.702 12.447 349.661 12.8659 349.588 13.2518C349.516 13.5732 349.444 13.9268 349.372 14.3127C349.363 14.7 349.356 15.0227 349.351 15.2809C349.201 16.2464 349.013 17.5339 348.785 19.1434C348.623 20.6898 348.401 22.0089 348.119 23.1007C348.048 23.4221 348.007 23.8087 347.998 24.2605C347.99 24.6478 347.918 25.0014 347.782 25.3214C347.635 26.1578 347.487 27.0264 347.339 27.9274C347.255 28.8296 347.14 29.6667 346.995 30.4385C346.761 32.3063 346.53 34.0772 346.301 35.7513C346.071 37.4254 345.713 39.0967 345.226 40.7654C345.158 40.8931 345.09 41.0531 345.022 41.2454C344.954 41.3731 344.887 41.5008 344.82 41.6285C344.615 42.1408 344.38 42.5878 344.113 42.9696C343.847 43.3514 343.326 43.5341 342.552 43.5176C341.975 43.3116 341.593 43.0452 341.406 42.7184C341.284 42.3929 341.227 42.0688 341.233 41.7461L341.139 41.6472L340.76 41.2517C341.251 39.3894 341.579 37.6205 341.744 35.9451C341.973 34.271 342.172 32.5316 342.339 30.7271C342.496 29.4389 342.582 28.4075 342.599 27.6329C342.615 26.8584 342.734 25.8277 342.955 24.5409C341.915 24.8416 340.907 25.2077 339.929 25.6389C337.454 26.6196 335.012 27.6009 332.602 28.5829C330.256 29.5663 327.873 30.7749 325.453 32.2088C324.743 32.1937 324.167 31.9877 323.723 31.5908C323.344 31.1953 322.998 30.7682 322.685 30.3095C322.623 30.1791 322.529 30.0479 322.402 29.9161C322.341 29.7856 322.152 29.5556 321.836 29.226C322.827 28.1493 323.748 27.3939 324.596 26.9599C325.445 26.5259 326.39 26.1262 327.431 25.7609C327.692 25.6373 327.952 25.5459 328.212 25.4869C328.471 25.4278 328.731 25.3365 328.992 25.2129C329.646 24.8393 330.396 24.5001 331.242 24.1951C332.088 23.8902 332.967 23.5537 333.879 23.1857C334.465 22.9398 335.018 22.7578 335.537 22.6397C336.057 22.457 336.611 22.2105 337.199 21.9001C338.174 21.5979 338.825 21.3857 339.15 21.2635C339.54 21.1426 339.835 20.9229 340.036 20.6043C340.624 20.2939 341.112 20.1105 341.5 20.0542C341.954 19.9993 342.375 19.9113 342.765 19.7905C343.284 19.6724 343.643 19.5185 343.841 19.329C344 17.9117 344.192 16.4628 344.417 14.9824C344.644 13.4374 344.836 11.9885 344.994 10.6358C345.845 10.0727 346.721 9.89753 347.62 10.1104C348.521 10.2587 349.189 10.7572 349.623 11.6059L349.711 11.9952ZM387.418 71.4958C387.79 72.214 387.907 72.7977 387.768 73.2468C387.631 73.6313 387.494 73.9836 387.358 74.3036C387.293 74.3022 387.261 74.3338 387.259 74.3983L387.247 74.9793C387.048 75.2333 386.814 75.5835 386.546 76.0299C386.343 76.4776 386.332 76.994 386.514 77.579C386.055 77.8921 385.793 78.0803 385.727 78.1435C385.661 78.2066 385.628 78.206 385.63 78.1414C385.563 78.2691 385.463 78.3962 385.331 78.5225C385.199 78.6489 385.067 78.8075 384.934 78.9984L384.919 79.6761C384.568 81.0248 384.09 82.2416 383.486 83.3265C382.946 84.4128 382.54 85.276 382.268 85.916C382.136 86.0423 382.07 86.1378 382.068 86.2023L383.234 86.0334C384.274 85.7326 385.475 85.4352 386.837 85.1413C388.201 84.7828 389.564 84.4566 390.926 84.1626C392.29 83.8041 393.588 83.4766 394.822 83.1799C396.12 82.8846 397.222 82.6497 398.13 82.4752C398.453 82.4821 398.679 82.4546 398.81 82.3928C399.006 82.2678 399.266 82.2088 399.589 82.2156C401.017 81.8585 402.445 81.5014 403.873 81.1443C405.302 80.7872 406.73 80.4301 408.158 80.073L410.099 79.9205L413.084 80.7588C413.383 81.8629 413.304 82.5393 412.847 82.7879C412.391 82.9719 411.934 83.1882 411.477 83.4368C411.346 83.4986 411.183 83.592 410.987 83.717C410.856 83.7788 410.726 83.8406 410.595 83.9024C410.01 84.0837 409.459 84.2012 408.941 84.2547C408.423 84.3083 408.003 84.3317 407.68 84.3248C407.551 84.3221 407.453 84.3846 407.386 84.5123C405.761 84.9944 404.429 85.3858 403.389 85.6866C402.416 85.9242 401.669 86.1021 401.15 86.2202C400.502 86.3356 400.079 86.4881 399.881 86.6776C399.683 86.8671 399.327 86.9241 398.812 86.8486C397.251 87.3966 395.949 87.8533 394.908 88.2186C393.867 88.584 392.99 88.8559 392.276 89.0345C391.56 89.2776 390.943 89.4582 390.424 89.5763C389.969 89.6958 389.515 89.7831 389.062 89.838C388.932 89.8998 388.704 89.9596 388.38 90.0172C388.056 90.0749 387.829 90.1347 387.698 90.1965C387.446 89.9328 387.252 89.9287 387.118 90.1841L386.139 90.6477C385.62 90.7658 385.198 90.8537 384.874 90.9114C384.225 91.0913 383.576 91.239 382.928 91.3544C382.278 91.5343 381.789 91.7499 381.461 92.0013C381.333 91.934 381.172 91.9305 380.977 91.991C380.782 92.0514 380.587 92.0796 380.394 92.0755C380.004 92.1963 379.583 92.2197 379.133 92.1455C378.747 92.0728 378.428 91.8723 378.177 91.544C377.793 91.4067 377.442 91.1733 377.127 90.8437C376.809 90.5786 376.493 90.2813 376.177 89.9517L375.631 88.2934C376.118 86.6248 376.702 84.9905 377.382 83.3906C378.061 81.7906 378.839 80.1604 379.713 78.5C380.253 77.4137 380.761 76.2944 381.238 75.1422C381.78 73.9268 382.327 72.4854 382.879 70.8182C383.21 70.4378 383.603 70.2201 384.056 70.1651C384.51 70.0456 384.93 70.0545 385.314 70.1919C385.763 70.3306 386.179 70.5331 386.561 70.7995C386.942 71.0659 387.228 71.298 387.418 71.4958ZM410.332 37.0147C410.317 37.7247 410.27 38.4018 410.192 39.0458C410.18 39.6268 410.069 40.2702 409.86 40.9761C409.854 41.2988 409.781 41.6847 409.642 42.1338C409.569 42.5197 409.466 42.8081 409.333 42.999C409.196 43.3836 409.189 43.7063 409.313 43.9672C409.295 44.8063 409.146 45.7395 408.866 46.7668C408.587 47.7295 408.274 48.7884 407.926 49.9433L406.165 55.3303L405.216 58.991L404.583 61.3991L404.565 62.2705C404.496 62.4628 404.458 62.7526 404.45 63.1398C404.507 63.4639 404.563 63.8849 404.616 64.4026L401.875 65.7973C401.743 65.9237 401.513 66.0803 401.187 66.267C400.924 66.4552 400.727 66.6124 400.595 66.7388L398.949 66.7038C399.11 65.222 399.266 63.9661 399.417 62.9361C399.568 61.9061 399.749 61.0058 399.959 60.2354C400.099 59.7218 400.206 59.2074 400.282 58.6924C400.423 58.1143 400.563 57.6329 400.7 57.2484C400.929 55.5743 401.253 54.0313 401.67 52.6195C402.088 51.2077 402.505 49.7959 402.923 48.3841L402.925 48.2873C402.926 48.2227 402.96 48.1589 403.026 48.0957C403.027 48.0311 403.061 47.935 403.129 47.8073C403.14 47.2909 403.313 46.7134 403.65 46.0748L403.652 45.978C403.196 46.162 402.804 46.3474 402.478 46.5342C402.151 46.721 401.759 46.9064 401.303 47.0905C399.739 47.7676 398.24 48.4138 396.806 49.0291C395.373 49.6444 393.907 50.259 392.408 50.8729C391.882 51.3138 391.261 51.688 390.544 51.9957C389.893 52.2402 389.15 52.2889 388.313 52.142C387.607 51.9333 386.872 51.5948 386.107 51.1265C385.342 50.6582 384.609 50.2229 383.907 49.8205L390.966 45.8054C391.226 45.7463 391.746 45.5959 392.526 45.3542C393.372 45.0493 394.25 44.745 395.16 44.4415C396.135 44.1393 397.014 43.8351 397.795 43.5288C398.576 43.2225 399.065 43.0069 399.262 42.8819C399.65 42.8256 400.137 42.7068 400.722 42.5255C401.309 42.2797 401.863 42.0331 402.385 41.7859C402.972 41.4755 403.496 41.1638 403.954 40.8506C404.414 40.4729 404.712 40.1564 404.846 39.9009C404.986 39.3873 405.061 38.9368 405.069 38.5496C405.078 38.0977 405.121 37.6143 405.196 37.0993C405.36 35.4884 405.687 33.7841 406.177 31.9863C408.956 31.8517 410.388 32.883 410.47 35.0803L410.332 37.0147ZM372.822 51.8129C372.282 52.8992 371.773 54.0831 371.293 55.3644C370.879 56.6471 370.429 58.0582 369.944 59.5978C369.6 60.6237 369.255 61.6496 368.91 62.6755C368.632 63.6382 368.321 64.5679 367.979 65.4647C367.978 65.5293 367.944 65.6254 367.876 65.7531C367.875 65.8177 367.873 65.9145 367.87 66.0436C368.194 65.9859 368.454 65.9268 368.649 65.8664C368.844 65.806 369.104 65.7146 369.43 65.5924C369.949 65.4743 370.436 65.3232 370.892 65.1391C371.348 64.9551 371.802 64.8679 372.254 64.8775C373.617 64.519 375.046 64.1296 376.541 63.7093C378.036 63.2245 379.499 62.7712 380.928 62.3496C381.182 62.5487 381.374 62.6496 381.503 62.6524C381.697 62.6565 381.891 62.6283 382.086 62.5679C382.346 62.5088 382.573 62.4491 382.768 62.3887C383.028 62.3296 383.222 62.3014 383.351 62.3042L386.445 62.5636C385.962 64.0386 385.392 64.9952 384.737 65.4333C384.084 65.8068 383.464 66.0843 382.879 66.2656C382.618 66.3892 382.326 66.4798 382.002 66.5375C381.742 66.5966 381.547 66.6893 381.415 66.8156C380.372 67.2455 379.168 67.7043 377.801 68.1918C376.436 68.6149 375.039 69.0372 373.609 69.4589C372.181 69.816 370.786 70.1415 369.424 70.4355C368.126 70.7308 366.991 70.9327 366.02 71.0412C365.052 71.0207 364.219 70.7124 363.522 70.1164C362.825 69.4558 362.325 68.7026 362.02 67.8566C362.37 66.5725 362.752 65.2891 363.167 64.0064C363.582 62.7237 363.964 61.4403 364.314 60.1562C364.862 58.6826 365.344 57.3045 365.758 56.0217C366.174 54.6745 366.594 53.1659 367.017 51.4959L368.815 48.9187C368.88 48.9201 369.04 48.9558 369.297 49.0258C369.555 49.0313 369.749 49.0354 369.878 49.0382C370.587 49.1178 371.229 49.2929 371.804 49.5634C372.444 49.8353 372.82 50.3922 372.931 51.2341L372.822 51.8129ZM392.496 23.9466C392.477 24.8503 392.207 25.3934 391.687 25.5761C391.232 25.6956 390.714 25.7492 390.133 25.7368C389.811 25.73 389.454 25.8192 389.062 26.0047C388.153 26.2436 387.277 26.4511 386.434 26.6269C385.592 26.7381 384.685 26.8803 383.712 27.0534C380.988 27.6412 378.197 28.2923 375.341 29.0065C372.485 29.6562 369.722 30.5339 367.051 31.6395C366.838 32.539 366.536 33.1138 366.143 33.3637C365.751 33.5492 365.296 33.7009 364.777 33.819C364.647 33.8809 364.484 33.942 364.289 34.0024C364.16 33.9997 363.932 34.0917 363.605 34.2785C363.156 34.1398 362.801 34.1 362.542 34.159C362.348 34.1549 362.122 34.1824 361.862 34.2414C360.954 34.4159 360.082 34.4619 359.244 34.3796C358.471 34.2986 357.936 33.6092 357.641 32.3114C357.537 31.1468 357.746 30.4086 358.269 30.0968C358.793 29.7851 359.411 29.5722 360.123 29.4582C360.318 29.3977 360.513 29.3373 360.708 29.2769C360.968 29.2178 361.164 29.1251 361.295 28.9988C361.685 28.8779 361.979 28.7227 362.177 28.5332C362.765 28.2228 363.385 27.9131 364.037 27.604C364.69 27.295 365.404 27.0842 366.182 26.9715L367.937 26.4277C368.975 26.1914 369.559 26.0424 369.69 25.9806C370.992 25.4916 372.195 25.0974 373.299 24.798C374.403 24.4986 375.634 24.2987 376.993 24.1984C377.904 23.8303 378.814 23.5591 379.722 23.3846C380.631 23.1456 381.474 22.9698 382.252 22.8572C382.642 22.7363 383.063 22.6484 383.516 22.5935C383.97 22.5385 384.489 22.4204 385.074 22.2391C385.853 22.0619 386.499 22.0111 387.014 22.0866C387.594 22.1635 388.14 22.272 388.654 22.412C389.489 22.6235 390.457 22.6441 391.559 22.4737L392.496 23.9466ZM385.837 36.4943C386.161 36.4366 386.645 36.4146 387.291 36.4283C387.938 36.3775 388.548 36.5196 389.122 36.8547L390.354 38.1401C389.948 39.0355 389.418 39.6378 388.766 39.9468C388.178 40.2572 387.625 40.4714 387.106 40.5895C386.846 40.6486 386.587 40.6754 386.329 40.6699C386.135 40.6658 385.94 40.7262 385.744 40.8512C381.654 41.8621 377.756 42.974 374.049 44.1867C370.344 45.335 366.695 46.8719 363.103 48.7974C361.941 48.7727 361.14 48.4651 360.701 47.8746C360.326 47.2854 359.984 46.6324 359.677 45.9156C359.678 45.851 359.649 45.7212 359.588 45.5262C359.592 45.3326 359.595 45.2035 359.596 45.1389C359.999 44.4372 360.46 43.9949 360.981 43.8123C361.567 43.5664 362.12 43.3844 362.639 43.2663C362.9 43.1427 363.192 43.052 363.517 42.9943C363.841 42.9367 364.069 42.8446 364.2 42.7183C364.526 42.596 364.917 42.4429 365.373 42.2589C365.893 42.0762 366.381 41.8928 366.837 41.7088C367.944 41.2803 369.05 40.884 370.156 40.5201C371.261 40.1561 372.3 39.8876 373.273 39.7145C374.12 39.345 374.998 39.0731 375.905 38.8987C376.814 38.6597 377.659 38.4193 378.439 38.1776C379.284 37.9372 380.255 37.7964 381.354 37.7552C382.134 37.5134 382.914 37.2717 383.694 37.03C384.474 36.7882 385.188 36.6097 385.837 36.4943ZM452.881 49.0579C448.343 49.8656 443.996 50.8388 439.839 51.9774C435.748 53.0528 431.68 54.5485 427.636 56.4645C426.923 56.5785 426.344 56.4693 425.899 56.137C425.519 55.806 425.172 55.4112 424.859 54.9525C424.734 54.7561 424.577 54.5591 424.387 54.3613C424.198 54.1636 424.009 53.9335 423.821 53.6712C423.895 53.2208 424.035 52.7071 424.241 52.1303C424.447 51.5535 424.652 51.009 424.857 50.4967C424.859 50.3676 424.895 50.207 424.964 50.0147C425.032 49.8224 425.1 49.6624 425.168 49.5347C425.455 48.1847 425.703 47.1568 425.911 46.4509C426.186 45.6818 426.494 44.8488 426.836 43.952C426.976 43.4384 427.148 42.9577 427.351 42.51C427.556 41.9978 427.727 41.5171 427.866 41.068C427.021 41.3084 426.272 41.6153 425.619 41.9889C424.966 42.2979 424.181 42.7978 423.262 43.4887C422.49 43.3431 421.85 43.0712 421.342 42.673C420.898 42.2761 420.488 41.8476 420.11 41.3876L419.636 40.8932C419.4 39.8549 419.544 39.1477 420.069 38.7714C420.658 38.3964 421.18 38.1492 421.634 38.0297C424.889 36.8073 428.207 35.6509 431.588 34.5603C434.971 33.4052 438.511 32.4149 442.21 31.5895C442.406 31.4645 442.634 31.3724 442.893 31.3134C443.154 31.1898 443.443 31.2928 443.759 31.6224C444.149 31.5015 444.472 31.4761 444.729 31.5461C444.986 31.6161 445.306 31.7198 445.691 31.8571C445.819 31.9244 445.915 31.9588 445.979 31.9601C446.044 31.9615 446.14 31.9958 446.268 32.0631C446.396 32.1304 446.492 32.1647 446.556 32.1661L446.709 34.1066C445.209 34.7851 443.906 35.3386 442.799 35.7671C441.758 36.1325 440.62 36.4957 439.385 36.857C438.085 37.2814 436.752 37.7051 435.387 38.1281C434.087 38.5525 432.981 38.9165 432.07 39.22C432.389 39.4205 432.707 39.6533 433.024 39.9183C433.342 40.1834 433.559 40.5755 433.677 41.0946C433.34 41.7977 432.998 42.6623 432.654 43.6882C432.375 44.6509 432.062 45.6775 431.716 46.7679C431.576 47.2815 431.405 47.7622 431.201 48.2099C431.064 48.5945 430.925 49.0435 430.785 49.5572C432.867 48.8265 434.98 48.1933 437.122 47.6576C439.33 47.0588 441.503 46.5884 443.642 46.2463L446.171 45.7189C447.274 45.484 448.376 45.2814 449.478 45.1111C450.645 44.8776 451.875 44.7423 453.167 44.7051C453.295 44.7724 453.39 44.839 453.454 44.9049C453.517 44.9709 453.612 45.0375 453.74 45.1048C453.995 45.2393 454.218 45.3732 454.409 45.5064C454.665 45.641 454.856 45.7419 454.984 45.8092L454.558 47.6406C454.622 47.642 454.523 47.769 454.259 48.0217C454.061 48.2112 453.863 48.433 453.664 48.6871C453.466 48.8766 453.205 49.0002 452.881 49.0579ZM452.463 68.7124C450.184 69.6327 448.037 70.3942 446.022 70.9972C444.007 71.6002 441.96 72.2024 439.881 72.804C436.762 73.7064 433.578 74.6397 430.329 75.6039C427.144 76.5694 424.05 77.8275 421.047 79.3781C420.21 79.2312 419.444 78.8275 418.748 78.1669C418.116 77.5077 417.614 76.819 417.242 76.1008C417.647 75.2699 418.11 74.7308 418.632 74.4836C419.155 74.1719 419.677 73.9569 420.196 73.8388C420.325 73.8415 420.422 73.8436 420.486 73.845C420.552 73.7818 420.65 73.7516 420.779 73.7543C420.908 73.7571 421.005 73.7268 421.071 73.6637C422.569 73.0497 424.261 72.4399 426.147 71.8342C428.098 71.1653 429.952 70.5589 431.707 70.015C432.487 69.7733 433.235 69.5309 433.95 69.2878C434.73 69.0461 435.446 68.803 436.097 68.5585C436.424 68.3717 436.716 68.281 436.974 68.2865C437.234 68.2275 437.46 68.2 437.654 68.2041C437.848 68.2082 438.009 68.2117 438.138 68.2144C438.333 68.154 438.53 67.9967 438.729 67.7426L442.623 66.8567C443.856 66.56 445.056 66.2949 446.224 66.0614C447.457 65.7647 448.755 65.4694 450.117 65.1755C450.565 65.3787 450.854 65.4172 450.986 65.2908C451.505 65.1727 451.893 65.1809 452.148 65.3155C452.47 65.3869 453.074 65.7872 453.963 66.5164L452.463 68.7124ZM446.813 20.0636C446.934 20.4536 446.991 20.81 446.984 21.1327C446.977 21.4554 446.682 21.7075 446.096 21.8888C444.597 22.5672 443.001 23.2114 441.309 23.8212C439.683 24.3678 438.122 24.8836 436.627 25.3684C434.741 25.9741 432.79 26.6107 430.774 27.2782C428.823 27.9471 426.999 28.6833 425.303 29.4867C424.593 29.4717 423.86 29.0363 423.103 28.1808C422.411 27.3266 421.911 26.541 421.603 25.8242C423.24 24.7612 424.806 23.9872 426.302 23.5024C427.799 22.953 429.295 22.4359 430.791 21.9511C431.442 21.7066 432.124 21.4951 432.838 21.3165C433.554 21.0734 434.238 20.7973 434.89 20.4883C435.086 20.3633 435.281 20.3029 435.475 20.307C435.735 20.248 435.995 20.1566 436.256 20.033C437.621 19.61 438.985 19.2192 440.349 18.8607C441.777 18.5036 443.203 18.2756 444.626 18.1767C445.654 18.3923 446.383 19.0212 446.813 20.0636Z" fill="#E6F027"/>
<path fill-rule="evenodd" clip-rule="evenodd" d="M215.647 58.3982H215.649C215.649 58.3977 215.649 58.3971 215.649 58.3966L215.659 58.3876H215.649C215.649 58.3666 215.649 58.3455 215.649 58.3245C215.649 53.727 211.922 50 207.324 50C202.727 50 199 53.727 199 58.3245C199 58.3491 199 58.3737 199 58.3982H199.027L207.337 65.5938L215.647 58.3982Z" fill="#E6F027"/>
</svg>
