<svg width="805" height="204" viewBox="0 0 805 204" fill="none" xmlns="http://www.w3.org/2000/svg">
<path d="M0.574984 154.169C4.00698 153.077 6.34699 150.815 7.59498 147.383C8.84298 143.951 9.46699 137.789 9.46699 128.897V30.3829C9.46699 21.4909 8.84298 15.3289 7.59498 11.8969C6.34699 8.30893 4.00698 6.04693 0.574984 5.11093V2.30292H53.459C65.159 2.30292 75.845 3.86293 85.517 6.98293C95.189 9.94693 103.223 14.0029 109.619 19.1509C116.015 24.1429 121.397 30.0709 125.765 36.9349C130.133 43.6429 133.253 50.5849 135.125 57.7609C137.153 64.7809 138.245 71.9569 138.401 79.2889C138.401 102.689 131.147 121.487 116.639 135.683C102.131 149.879 82.787 156.977 58.607 156.977H0.574984V154.169ZM27.485 137.555C27.485 143.171 28.421 147.305 30.293 149.957C32.321 152.453 36.221 153.701 41.993 153.701H58.139C77.327 153.701 92.147 147.149 102.599 134.045C113.051 120.941 118.277 102.689 118.277 79.2889C118.277 68.6809 116.405 58.7749 112.661 49.5709C109.073 40.2109 104.237 32.4109 98.153 26.1709C92.225 19.9309 85.283 15.0949 77.327 11.6629C69.371 8.07493 61.181 6.28093 52.757 6.28093H27.485V137.555ZM250.9 124.451L253.006 126.323C237.562 147.539 219.856 158.147 199.888 158.147C193.648 158.147 187.408 156.977 181.168 154.637C175.084 152.297 169.39 148.943 164.086 144.575C158.938 140.207 154.726 134.435 151.45 127.259C148.33 119.927 146.77 111.815 146.77 102.923C146.77 85.1389 152.542 70.5529 164.086 59.1649C175.786 47.7769 189.67 42.0829 205.738 42.0829C219.466 42.0829 230.386 45.9049 238.498 53.5489C246.61 61.1929 250.822 70.5529 251.134 81.6289H163.384C162.916 85.0609 162.682 88.5709 162.682 92.1589C162.682 107.603 167.05 120.083 175.786 129.599C184.678 139.115 196.378 143.873 210.886 143.873C226.018 143.873 239.356 137.399 250.9 124.451ZM198.484 46.0609C189.28 45.9049 181.714 48.8689 175.786 54.9529C169.858 61.0369 165.958 68.9929 164.086 78.8209H233.116C231.868 70.3969 228.124 62.8309 221.884 56.1229C215.8 49.4149 208 46.0609 198.484 46.0609ZM307.545 89.5849C308.169 89.8969 309.261 90.2869 310.821 90.7549C315.189 92.1589 318.465 93.2509 320.649 94.0309C322.989 94.8109 325.953 96.2149 329.541 98.2429C333.285 100.115 336.093 102.065 337.965 104.093C339.837 105.965 341.475 108.539 342.879 111.815C344.439 115.091 345.219 118.757 345.219 122.813C345.219 132.797 341.553 141.143 334.221 147.851C327.045 154.559 316.983 157.913 304.035 157.913C288.591 157.913 276.345 153.545 267.297 144.809C261.681 139.505 259.731 135.137 261.447 131.705C261.915 130.925 262.461 130.301 263.085 129.833C264.957 128.429 266.829 128.117 268.701 128.897C270.729 129.521 272.367 130.769 273.615 132.641C275.019 134.513 276.735 136.775 278.763 139.427C280.947 141.923 283.053 144.419 285.081 146.915C287.109 149.255 289.761 151.283 293.037 152.999C296.469 154.559 300.135 155.339 304.035 155.339C312.927 155.339 320.025 153.311 325.329 149.255C330.633 145.043 333.285 139.739 333.285 133.343C333.285 130.223 332.583 127.415 331.179 124.919C329.931 122.267 328.449 120.161 326.733 118.601C325.173 116.885 322.677 115.247 319.245 113.687C315.813 111.971 312.927 110.723 310.587 109.943C308.247 109.007 304.815 107.837 300.291 106.433C294.363 104.561 289.215 102.689 284.847 100.817C280.479 98.7889 276.345 96.3709 272.445 93.5629C268.545 90.7549 265.737 87.4789 264.021 83.7349C262.461 79.8349 262.071 75.5449 262.851 70.8649C263.943 63.5329 267.765 56.9809 274.317 51.2089C280.869 45.2809 289.917 42.3169 301.461 42.3169C306.453 42.3169 311.133 42.9409 315.501 44.1889C319.869 45.2809 323.301 46.6849 325.797 48.4009C328.449 50.1169 330.711 51.9889 332.583 54.0169C334.611 56.0449 335.703 57.9949 335.859 59.8669C336.171 61.5829 336.171 62.9869 335.859 64.0789C334.611 66.5749 332.583 67.4329 329.775 66.6529C327.123 65.8729 324.939 63.7669 323.223 60.3349C318.231 50.0389 309.885 44.8909 298.185 44.8909C292.413 44.8909 287.187 46.6849 282.507 50.2729C277.827 53.8609 275.487 58.3849 275.487 63.8449C275.487 67.1209 276.189 70.0849 277.593 72.7369C279.153 75.3889 281.571 77.8069 284.847 79.9909C288.279 82.0189 291.555 83.7349 294.675 85.1389C297.951 86.3869 302.241 87.8689 307.545 89.5849ZM378.5 22.1929C376.16 24.5329 373.274 25.7029 369.842 25.7029C366.41 25.7029 363.446 24.5329 360.95 22.1929C358.61 19.6969 357.44 16.8109 357.44 13.5349C357.44 9.94693 358.61 6.98293 360.95 4.64294C363.446 2.14693 366.41 0.898928 369.842 0.898928C373.43 0.898928 376.394 2.14693 378.734 4.64294C381.074 6.98293 382.244 9.94693 382.244 13.5349C382.244 16.8109 380.996 19.6969 378.5 22.1929ZM379.904 127.259C379.904 136.307 380.528 142.625 381.776 146.213C383.18 149.645 385.598 151.907 389.03 152.999V155.807H353.462V152.999C357.05 151.907 359.39 149.645 360.482 146.213C361.73 142.781 362.354 136.463 362.354 127.259V77.4169C362.354 70.0849 361.652 65.0929 360.248 62.4409C359 59.7889 356.738 58.1509 353.462 57.5269V54.2509L377.096 43.4869H379.904V127.259ZM467.961 140.597C491.829 142.001 503.763 149.333 503.763 162.593C503.763 170.705 500.565 177.959 494.169 184.355C487.929 190.907 480.051 195.821 470.535 199.097C461.175 202.373 451.347 204.011 441.051 204.011C427.947 204.011 416.715 201.593 407.355 196.757C397.995 191.921 392.379 185.057 390.507 176.165C389.883 175.073 389.727 173.747 390.039 172.187C390.351 170.627 390.507 169.301 390.507 168.209C390.507 167.273 390.819 166.103 391.443 164.699C392.223 163.451 392.769 162.359 393.081 161.423C393.549 160.643 394.329 159.707 395.421 158.615C396.513 157.523 397.293 156.665 397.761 156.041C398.385 155.261 399.243 154.403 400.335 153.467C401.583 152.375 402.519 151.595 403.143 151.127C403.767 150.659 404.625 150.035 405.717 149.255C406.809 148.319 407.511 147.695 407.823 147.383C405.015 144.575 403.611 141.065 403.611 136.853C403.611 133.109 405.015 129.755 407.823 126.791C410.631 123.827 414.687 120.551 419.991 116.963C406.887 110.255 400.335 99.3349 400.335 84.2029C400.335 72.6589 404.781 62.7529 413.673 54.4849C422.721 46.0609 433.095 41.8489 444.795 41.8489C451.035 41.8489 456.807 42.6289 462.111 44.1889C470.379 33.5809 478.413 28.7449 486.213 29.6809C488.553 29.9929 490.035 31.2409 490.659 33.4249C491.283 35.4529 490.893 37.3249 489.489 39.0409C488.241 40.6009 486.447 41.1469 484.107 40.6789C474.903 38.3389 468.429 39.8989 464.685 45.3589C472.017 48.1669 477.867 52.4569 482.235 58.2289C486.759 64.0009 489.021 71.4109 489.021 80.4589C489.021 88.5709 486.603 95.9809 481.767 102.689C476.931 109.397 471.159 114.389 464.451 117.665C457.743 120.941 451.191 122.579 444.795 122.579C437.151 122.579 429.897 121.175 423.033 118.367C421.005 119.771 419.523 120.863 418.587 121.643C417.651 122.423 416.793 123.437 416.013 124.685C415.233 125.777 414.843 126.947 414.843 128.195C415.155 134.435 423.423 137.945 439.647 138.725L467.961 140.597ZM416.715 74.3749C416.715 81.2389 417.885 88.0249 420.225 94.7329C422.721 101.285 426.465 106.979 431.457 111.815C436.605 116.651 442.455 119.069 449.007 119.069C456.963 119.069 462.891 116.417 466.791 111.113C470.847 105.653 472.875 98.7889 472.875 90.5209C472.875 83.5009 471.549 76.5589 468.897 69.6949C466.245 62.6749 462.267 56.7469 456.963 51.9109C451.659 47.0749 445.809 44.8129 439.413 45.1249C431.769 45.4369 426.075 48.3229 422.331 53.7829C418.587 59.0869 416.715 65.9509 416.715 74.3749ZM442.455 200.969C450.255 200.969 458.133 199.799 466.089 197.459C474.045 195.119 480.831 191.609 486.447 186.929C492.219 182.405 495.105 177.335 495.105 171.719C495.105 166.571 492.999 162.983 488.787 160.955C484.575 159.083 477.555 157.835 467.727 157.211C451.971 156.587 441.519 156.041 436.371 155.573C424.359 154.949 415.779 152.843 410.631 149.255C406.731 152.063 404.703 156.353 404.547 162.125C404.391 168.053 405.639 173.825 408.291 179.441C411.099 185.213 415.545 190.205 421.629 194.417C427.869 198.785 434.811 200.969 442.455 200.969ZM606.582 127.259C606.582 136.463 607.206 142.781 608.454 146.213C609.702 149.645 612.042 151.907 615.474 152.999V155.807H580.14V152.999C583.572 151.907 585.912 149.645 587.16 146.213C588.408 142.781 589.032 136.463 589.032 127.259V81.6289C589.032 70.5529 586.536 62.4409 581.544 57.2929C576.708 51.9889 570.078 49.3369 561.654 49.3369C557.13 49.3369 552.528 50.7409 547.848 53.5489C543.324 56.2009 539.892 58.9309 537.552 61.7389L534.042 65.7169V127.259C534.042 136.307 534.666 142.625 535.914 146.213C537.318 149.645 539.736 151.907 543.168 152.999V155.807H507.6V152.999C511.188 151.907 513.528 149.645 514.62 146.213C515.868 142.781 516.492 136.463 516.492 127.259V75.7789C516.492 68.2909 515.79 63.2209 514.386 60.5689C513.138 57.9169 510.876 56.3569 507.6 55.8889V52.6129L531.234 43.4869H534.042V60.5689C534.354 60.1009 534.822 59.4769 535.446 58.6969C536.226 57.7609 537.708 56.2789 539.892 54.2509C542.232 52.0669 544.65 50.1949 547.146 48.6349C549.798 46.9189 553.23 45.4369 557.442 44.1889C561.81 42.7849 566.334 42.0829 571.014 42.0829C582.246 42.0829 590.982 45.3589 597.222 51.9109C603.462 58.4629 606.582 68.2129 606.582 81.1609V127.259ZM727.31 124.451L729.416 126.323C713.972 147.539 696.266 158.147 676.298 158.147C670.058 158.147 663.818 156.977 657.578 154.637C651.494 152.297 645.8 148.943 640.496 144.575C635.348 140.207 631.136 134.435 627.86 127.259C624.74 119.927 623.18 111.815 623.18 102.923C623.18 85.1389 628.952 70.5529 640.496 59.1649C652.196 47.7769 666.08 42.0829 682.148 42.0829C695.876 42.0829 706.796 45.9049 714.908 53.5489C723.02 61.1929 727.232 70.5529 727.544 81.6289H639.794C639.326 85.0609 639.092 88.5709 639.092 92.1589C639.092 107.603 643.46 120.083 652.196 129.599C661.088 139.115 672.788 143.873 687.296 143.873C702.428 143.873 715.766 137.399 727.31 124.451ZM674.894 46.0609C665.69 45.9049 658.124 48.8689 652.196 54.9529C646.268 61.0369 642.368 68.9929 640.496 78.8209H709.526C708.278 70.3969 704.534 62.8309 698.294 56.1229C692.21 49.4149 684.41 46.0609 674.894 46.0609ZM796.851 43.4869C800.127 44.2669 802.155 45.9049 802.935 48.4009C803.871 50.7409 803.637 52.9249 802.233 54.9529C800.985 56.9809 799.191 57.9949 796.851 57.9949C795.447 57.9949 793.497 57.6829 791.001 57.0589C788.661 56.2789 786.633 55.8109 784.917 55.6549C783.201 55.3429 780.549 55.5769 776.961 56.3569C770.409 58.0729 765.495 63.5329 762.219 72.7369V127.025C762.219 136.073 762.843 142.391 764.091 145.979C765.495 149.411 767.913 151.673 771.345 152.765V155.573H735.777V152.765C739.365 151.673 741.705 149.411 742.797 145.979C744.045 142.547 744.669 136.229 744.669 127.025V75.5449C744.669 68.0569 743.967 63.0649 742.563 60.5689C741.315 57.9169 739.053 56.2789 735.777 55.6549V52.3789L759.411 43.4869H762.219V64.7809C765.651 57.9169 770.721 52.3009 777.429 47.9329C784.137 43.4089 790.611 41.9269 796.851 43.4869Z" fill="#52E9A5"/>
</svg>
