<svg width="821" height="159" viewBox="0 0 821 159" fill="none" xmlns="http://www.w3.org/2000/svg">
<path d="M171.885 128.733C172.821 137.781 174.069 144.021 175.629 147.453C177.189 150.885 179.685 153.069 183.117 154.005V156.813H146.145V154.005C149.577 152.913 151.839 150.651 152.931 147.219C154.179 143.631 154.491 137.469 153.867 128.733C153.243 122.337 152.229 110.481 150.825 93.1652C149.577 75.6932 148.407 59.8592 147.315 45.6632L145.677 24.3692L94.197 157.047H89.985L29.379 22.9652C24.075 77.8772 20.955 110.715 20.019 121.479C18.927 133.335 18.927 141.447 20.019 145.815C21.267 150.027 24.231 152.835 28.911 154.239V157.047H0.362984V154.239C8.94299 151.743 14.169 141.135 16.041 122.415C17.913 102.603 20.643 74.8352 24.231 39.1113C25.011 32.5592 25.089 26.8652 24.465 22.0292C23.217 13.2932 19.707 7.91125 13.935 5.88325V2.37324H38.271L99.345 134.583L150.825 2.37324H175.395V5.88325C171.027 7.44325 167.985 10.0172 166.269 13.6052C164.709 17.0372 164.007 20.5472 164.163 24.1352C164.475 29.4392 165.567 45.8192 167.439 73.2752C169.467 100.575 170.949 119.061 171.885 128.733ZM286.26 127.329C286.26 136.533 286.806 142.851 287.898 146.283C289.146 149.715 291.564 151.977 295.152 153.069V155.877H291.642C285.402 155.877 280.02 153.693 275.496 149.325C271.128 144.801 268.944 139.419 268.944 133.179V129.435C268.32 130.215 267.54 131.229 266.604 132.477C265.668 133.725 263.484 136.065 260.052 139.497C256.776 142.773 253.422 145.659 249.99 148.155C246.558 150.651 242.112 152.991 236.652 155.175C231.348 157.203 226.044 158.217 220.74 158.217C212.004 158.217 204.594 155.643 198.51 150.495C192.426 145.191 189.384 137.937 189.384 128.733C189.384 124.209 190.32 120.075 192.192 116.331C194.064 112.587 196.404 109.467 199.212 106.971C202.02 104.319 205.764 101.901 210.444 99.7172C215.28 97.3772 219.804 95.5052 224.016 94.1012C228.228 92.5412 233.454 90.9032 239.694 89.1872L268.944 81.2312C268.944 70.1552 266.214 61.4972 260.754 55.2572C255.45 49.0172 248.04 45.8972 238.524 45.8972C234 45.8972 229.866 47.0672 226.122 49.4072C222.534 51.5912 219.648 54.2432 217.464 57.3632C215.436 60.3272 213.486 63.2912 211.614 66.2552C209.742 69.2192 207.714 71.4032 205.53 72.8072C203.502 74.2112 201.24 74.3672 198.744 73.2752C194.844 71.5592 194.61 67.9712 198.042 62.5112C202.566 55.0232 210.366 49.3292 221.442 45.4292C228.15 43.2452 235.092 42.1532 242.268 42.1532C256.308 42.1532 267.15 45.5072 274.794 52.2152C282.438 58.7672 286.26 68.8292 286.26 82.4012V127.329ZM268.944 124.287V84.2732L240.63 91.9952C235.794 93.2432 231.582 94.6472 227.994 96.2072C224.406 97.6112 220.818 99.5612 217.23 102.057C213.642 104.397 210.912 107.283 209.04 110.715C207.168 114.147 206.232 118.047 206.232 122.415C206.232 129.747 208.416 135.987 212.784 141.135C217.308 146.283 222.768 148.857 229.164 148.857C233.844 148.857 238.446 147.999 242.97 146.283C247.494 144.567 251.238 142.539 254.202 140.199C257.166 137.703 259.818 135.285 262.158 132.945C264.498 130.449 266.214 128.343 267.306 126.627L268.944 124.287ZM363.518 43.5572C366.794 44.3372 368.822 45.9752 369.602 48.4712C370.538 50.8112 370.304 52.9952 368.9 55.0232C367.652 57.0512 365.858 58.0652 363.518 58.0652C362.114 58.0652 360.164 57.7532 357.668 57.1292C355.328 56.3492 353.3 55.8812 351.584 55.7252C349.868 55.4132 347.216 55.6472 343.628 56.4272C337.076 58.1432 332.162 63.6032 328.886 72.8072V127.095C328.886 136.143 329.51 142.461 330.758 146.049C332.162 149.481 334.58 151.743 338.012 152.835V155.643H302.444V152.835C306.032 151.743 308.372 149.481 309.464 146.049C310.712 142.617 311.336 136.299 311.336 127.095V75.6152C311.336 68.1272 310.634 63.1352 309.23 60.6392C307.982 57.9872 305.72 56.3492 302.444 55.7252V52.4492L326.078 43.5572H328.886V64.8512C332.318 57.9872 337.388 52.3712 344.096 48.0032C350.804 43.4792 357.278 41.9972 363.518 43.5572ZM457.91 138.795C463.526 148.311 469.454 153.147 475.694 153.303V155.877H463.526C455.102 155.877 448.55 152.367 443.87 145.347L408.536 91.0592L400.112 99.0152V127.329C400.112 136.377 400.736 142.695 401.984 146.283C403.388 149.715 405.806 151.977 409.238 153.069V155.877H373.67V153.069C377.258 151.977 379.598 149.715 380.69 146.283C381.938 142.851 382.562 136.533 382.562 127.329V34.8992C382.562 27.4112 381.86 22.4192 380.456 19.9232C379.208 17.2712 376.946 15.6332 373.67 15.0092V11.7332L397.304 0.96924H400.112V95.0372C421.484 74.4452 433.418 62.9792 435.914 60.6392C437.63 58.9232 438.8 57.0512 439.424 55.0232C440.204 52.8392 440.048 50.8892 438.956 49.1732C437.864 47.4572 435.68 46.5992 432.404 46.5992V43.5572H461.42V46.5992C458.144 46.5992 455.18 47.5352 452.528 49.4072C450.032 51.1232 445.196 55.4912 438.02 62.5112L420.938 79.1252L457.91 138.795ZM573.515 124.521L575.621 126.393C560.177 147.609 542.471 158.217 522.503 158.217C516.263 158.217 510.023 157.047 503.783 154.707C497.699 152.367 492.005 149.013 486.701 144.645C481.553 140.277 477.341 134.505 474.065 127.329C470.945 119.997 469.385 111.885 469.385 102.993C469.385 85.2092 475.157 70.6232 486.701 59.2352C498.401 47.8472 512.285 42.1532 528.353 42.1532C542.081 42.1532 553.001 45.9752 561.113 53.6192C569.225 61.2632 573.437 70.6232 573.749 81.6992H485.999C485.531 85.1312 485.297 88.6412 485.297 92.2292C485.297 107.673 489.665 120.153 498.401 129.669C507.293 139.185 518.993 143.943 533.501 143.943C548.633 143.943 561.971 137.469 573.515 124.521ZM521.099 46.1312C511.895 45.9752 504.329 48.9392 498.401 55.0232C492.473 61.1072 488.573 69.0632 486.701 78.8912H555.731C554.483 70.4672 550.739 62.9012 544.499 56.1932C538.415 49.4852 530.615 46.1312 521.099 46.1312ZM639.368 141.603C639.68 142.227 640.148 143.319 640.772 144.879C631.412 153.771 622.286 158.217 613.394 158.217C598.262 158.217 590.696 147.453 590.696 125.925V46.8332H576.422V43.5572C580.166 43.5572 583.754 42.6212 587.186 40.7492C590.618 38.8772 593.348 36.6152 595.376 33.9632C597.56 31.1552 599.354 28.4252 600.758 25.7732C602.318 23.1212 603.488 20.7812 604.268 18.7532L605.204 15.9452H608.246V43.5572H627.434V46.8332H608.246V125.925C608.246 140.121 613.55 147.219 624.158 147.219C629.306 147.219 634.376 145.347 639.368 141.603ZM743.878 124.521L745.984 126.393C730.54 147.609 712.834 158.217 692.866 158.217C686.626 158.217 680.386 157.047 674.146 154.707C668.062 152.367 662.368 149.013 657.064 144.645C651.916 140.277 647.704 134.505 644.428 127.329C641.308 119.997 639.748 111.885 639.748 102.993C639.748 85.2092 645.52 70.6232 657.064 59.2352C668.764 47.8472 682.648 42.1532 698.716 42.1532C712.444 42.1532 723.364 45.9752 731.476 53.6192C739.588 61.2632 743.8 70.6232 744.112 81.6992H656.362C655.894 85.1312 655.66 88.6412 655.66 92.2292C655.66 107.673 660.028 120.153 668.764 129.669C677.656 139.185 689.356 143.943 703.864 143.943C718.996 143.943 732.334 137.469 743.878 124.521ZM691.462 46.1312C682.258 45.9752 674.692 48.9392 668.764 55.0232C662.836 61.1072 658.936 69.0632 657.064 78.8912H726.094C724.846 70.4672 721.102 62.9012 714.862 56.1932C708.778 49.4852 700.978 46.1312 691.462 46.1312ZM813.42 43.5572C816.696 44.3372 818.724 45.9752 819.504 48.4712C820.44 50.8112 820.206 52.9952 818.802 55.0232C817.554 57.0512 815.76 58.0652 813.42 58.0652C812.016 58.0652 810.066 57.7532 807.57 57.1292C805.23 56.3492 803.202 55.8812 801.486 55.7252C799.77 55.4132 797.118 55.6472 793.53 56.4272C786.978 58.1432 782.064 63.6032 778.788 72.8072V127.095C778.788 136.143 779.412 142.461 780.66 146.049C782.064 149.481 784.482 151.743 787.914 152.835V155.643H752.346V152.835C755.934 151.743 758.274 149.481 759.366 146.049C760.614 142.617 761.238 136.299 761.238 127.095V75.6152C761.238 68.1272 760.536 63.1352 759.132 60.6392C757.884 57.9872 755.622 56.3492 752.346 55.7252V52.4492L775.98 43.5572H778.788V64.8512C782.22 57.9872 787.29 52.3712 793.998 48.0032C800.706 43.4792 807.18 41.9972 813.42 43.5572Z" fill="#2B52F6"/>
</svg>
