<svg width="650" height="213" viewBox="0 0 650 213" fill="none" xmlns="http://www.w3.org/2000/svg">
<path d="M197.858 34.0533H218.918V36.3933C213.302 38.5773 208.232 45.3633 203.708 56.7513L151.526 190.131H145.442L109.874 100.977L75.242 190.131H69.158L18.614 62.8353C12.53 47.8593 6.602 39.2793 0.83 37.0953V34.2873H36.632V37.0953C33.668 37.8753 32.108 39.9033 31.952 43.1793C31.952 46.2993 33.044 50.5893 35.228 56.0493C35.384 56.5173 39.128 66.2673 46.46 85.2993C53.948 104.175 61.358 122.973 68.69 141.693L79.454 169.773C90.842 140.289 100.358 115.719 108.002 96.0633L94.898 62.8353C88.814 47.8593 82.886 39.2793 77.114 37.0953V34.2873H112.916V37.0953C109.952 37.8753 108.392 39.9033 108.236 43.1793C108.236 46.2993 109.328 50.5893 111.512 56.0493C111.668 56.5173 115.412 66.2673 122.744 85.2993C130.232 104.175 137.642 122.973 144.974 141.693L155.738 169.773C184.598 94.1133 199.028 56.2053 199.028 56.0493C201.212 50.4333 202.226 45.9873 202.07 42.7113C202.07 39.4353 200.666 37.4073 197.858 36.6273V34.0533ZM308.215 156.435L310.321 158.307C294.877 179.523 277.171 190.131 257.203 190.131C250.963 190.131 244.723 188.961 238.483 186.621C232.399 184.281 226.705 180.927 221.401 176.559C216.253 172.191 212.041 166.419 208.765 159.243C205.645 151.911 204.085 143.799 204.085 134.907C204.085 117.123 209.857 102.537 221.401 91.1493C233.101 79.7613 246.985 74.0673 263.053 74.0673C276.781 74.0673 287.701 77.8893 295.813 85.5333C303.925 93.1773 308.137 102.537 308.449 113.613H220.699C220.231 117.045 219.997 120.555 219.997 124.143C219.997 139.587 224.365 152.067 233.101 161.583C241.993 171.099 253.693 175.857 268.201 175.857C283.333 175.857 296.671 169.383 308.215 156.435ZM255.799 78.0453C246.595 77.8893 239.029 80.8533 233.101 86.9373C227.173 93.0213 223.273 100.977 221.401 110.805H290.431C289.183 102.381 285.439 94.8153 279.199 88.1073C273.115 81.3993 265.315 78.0453 255.799 78.0453Z" fill="black"/>
<path d="M458.576 159.243C458.576 168.447 459.122 174.765 460.214 178.197C461.462 181.629 463.88 183.891 467.468 184.983V187.791H463.958C457.718 187.791 452.336 185.607 447.812 181.239C443.444 176.715 441.26 171.333 441.26 165.093V161.349C440.636 162.129 439.856 163.143 438.92 164.391C437.984 165.639 435.8 167.979 432.368 171.411C429.092 174.687 425.738 177.573 422.306 180.069C418.874 182.565 414.428 184.905 408.968 187.089C403.664 189.117 398.36 190.131 393.056 190.131C384.32 190.131 376.91 187.557 370.826 182.409C364.742 177.105 361.7 169.851 361.7 160.647C361.7 156.123 362.636 151.989 364.508 148.245C366.38 144.501 368.72 141.381 371.528 138.885C374.336 136.233 378.08 133.815 382.76 131.631C387.596 129.291 392.12 127.419 396.332 126.015C400.544 124.455 405.77 122.817 412.01 121.101L441.26 113.145C441.26 102.069 438.53 93.4113 433.07 87.1713C427.766 80.9313 420.356 77.8113 410.84 77.8113C406.316 77.8113 402.182 78.9813 398.438 81.3213C394.85 83.5053 391.964 86.1573 389.78 89.2773C387.752 92.2413 385.802 95.2053 383.93 98.1693C382.058 101.133 380.03 103.317 377.846 104.721C375.818 106.125 373.556 106.281 371.06 105.189C367.16 103.473 366.926 99.8853 370.358 94.4253C374.882 86.9373 382.682 81.2433 393.758 77.3433C400.466 75.1593 407.408 74.0673 414.584 74.0673C428.624 74.0673 439.466 77.4213 447.11 84.1293C454.754 90.6813 458.576 100.743 458.576 114.315V159.243ZM441.26 156.201V116.187L412.946 123.909C408.11 125.157 403.898 126.561 400.31 128.121C396.722 129.525 393.134 131.475 389.546 133.971C385.958 136.311 383.228 139.197 381.356 142.629C379.484 146.061 378.548 149.961 378.548 154.329C378.548 161.661 380.732 167.901 385.1 173.049C389.624 178.197 395.084 180.771 401.48 180.771C406.16 180.771 410.762 179.913 415.286 178.197C419.81 176.481 423.554 174.453 426.518 172.113C429.482 169.617 432.134 167.199 434.474 164.859C436.814 162.363 438.53 160.257 439.622 158.541L441.26 156.201ZM535.835 75.4713C539.111 76.2513 541.139 77.8893 541.919 80.3853C542.855 82.7253 542.621 84.9093 541.217 86.9373C539.969 88.9653 538.175 89.9793 535.835 89.9793C534.431 89.9793 532.481 89.6673 529.985 89.0433C527.645 88.2633 525.617 87.7953 523.901 87.6393C522.185 87.3273 519.533 87.5613 515.945 88.3413C509.393 90.0573 504.479 95.5173 501.203 104.721V159.009C501.203 168.057 501.827 174.375 503.075 177.963C504.479 181.395 506.897 183.657 510.329 184.749V187.557H474.761V184.749C478.349 183.657 480.689 181.395 481.781 177.963C483.029 174.531 483.653 168.213 483.653 159.009V107.529C483.653 100.041 482.951 95.0493 481.547 92.5533C480.299 89.9013 478.037 88.2633 474.761 87.6393V84.3633L498.395 75.4713H501.203V96.7653C504.635 89.9013 509.705 84.2853 516.413 79.9173C523.121 75.3933 529.595 73.9113 535.835 75.4713ZM642.826 156.435L644.932 158.307C629.488 179.523 611.782 190.131 591.814 190.131C585.574 190.131 579.334 188.961 573.094 186.621C567.01 184.281 561.316 180.927 556.012 176.559C550.864 172.191 546.652 166.419 543.376 159.243C540.256 151.911 538.696 143.799 538.696 134.907C538.696 117.123 544.468 102.537 556.012 91.1493C567.712 79.7613 581.596 74.0673 597.664 74.0673C611.392 74.0673 622.312 77.8893 630.424 85.5333C638.536 93.1773 642.748 102.537 643.06 113.613H555.31C554.842 117.045 554.608 120.555 554.608 124.143C554.608 139.587 558.976 152.067 567.712 161.583C576.604 171.099 588.304 175.857 602.812 175.857C617.944 175.857 631.282 169.383 642.826 156.435ZM590.41 78.0453C581.206 77.8893 573.64 80.8533 567.712 86.9373C561.784 93.0213 557.884 100.977 556.012 110.805H625.042C623.794 102.381 620.05 94.8153 613.81 88.1073C607.726 81.3993 599.926 78.0453 590.41 78.0453Z" fill="black"/>
</svg>
