<svg width="408" height="87" viewBox="0 0 408 87" fill="none" xmlns="http://www.w3.org/2000/svg">
<g clip-path="url(#clip0_768_4064)">
<path d="M75.2559 60.8073L78.289 55.3864L81.9532 48.7942C84.9588 43.4841 87.846 38.1264 90.6898 32.753C92.5397 29.2591 94.5591 25.7928 95.9594 22.1644C96.2039 21.5313 96.48 20.5618 96.5471 19.6676C96.622 18.5992 95.8647 17.974 94.6223 18.3381C93.3206 18.7179 92.023 19.2956 91.0054 19.996L90.1889 20.4946C91.2499 19.2007 93.0051 18.069 94.3659 17.6337C97.2531 16.7157 99.9707 18.3381 99.8918 20.8546C99.8642 21.7766 99.5644 23.1773 99.4461 24.0953L100.543 23.1813C102.732 21.1514 108.076 18.2312 111.626 17.6654C113.223 17.4121 115.002 17.0402 116.537 17.8711C118.016 18.6704 118.371 19.8931 118.245 21.1989C117.976 23.9806 116.56 26.4378 115.231 28.9188L101.679 54.2784C101.186 55.24 100.673 56.1856 100.57 57.2896C100.503 58.0098 100.377 58.9436 101.308 59.2324C102.582 59.6242 108.317 56.4508 110.261 55.4022C110.297 55.3824 110.328 55.4338 110.293 55.4576L103.726 59.7666C100.436 61.9667 97.1782 59.9724 97.0204 57.0443C97.0204 57.0443 96.9612 54.6068 98.4955 51.6511L113.259 24.2615C114.016 22.7975 114.352 22.4651 114.628 20.4866C114.754 19.2917 114.265 18.0175 112.794 18.2352C112.439 18.2866 111.299 18.524 111.058 18.5913C109.192 19.1255 106.021 20.4471 104.767 21.1949C102.519 22.5324 99.9904 24.3604 98.4443 26.5169L79.8509 60.7954" fill="black"/>
<path d="M90.5531 14.5547C88.0603 17.9655 88.7427 17.4749 87.5515 19.204C84.5973 24.158 81.7258 29.393 78.9412 34.9089C76.1565 40.4327 73.5691 45.6677 71.1749 50.6138C68.7846 55.5678 68.5401 56.0861 68.5401 56.0861C65.2466 65.7845 81.4261 51.3023 80.0456 52.794C79.0161 53.9099 71.8612 61.147 67.7434 60.7592C65.6844 60.5653 64.8995 59.398 64.6274 58.2783C64.3828 57.2811 64.5564 56.1692 65.0139 55.2156C66.493 52.1332 67.4673 50.0835 68.9976 46.8785C70.67 43.3766 72.1807 40.3496 73.5375 37.8093C73.222 38.1615 72.5514 39.0834 71.5101 40.5672C70.4689 42.059 69.6879 43.1986 69.1554 43.986C67.8814 45.7389 66.3195 47.8637 64.4696 50.3605C62.6197 52.8573 60.7738 54.9822 58.9358 56.7351C56.5732 59.0142 54.6602 60.1538 53.1929 60.1538C51.7256 60.1538 50.9171 59.2319 50.6094 57.3959C50.2978 55.552 50.4832 53.2372 51.1656 50.4318C51.6389 48.5047 52.2778 46.5777 53.0864 44.6468C57.291 34.5726 62.746 26.552 69.4433 20.5929C70.8159 19.3623 72.3779 18.377 74.141 17.6371C75.9001 16.8932 77.5725 16.5173 79.1542 16.5173C81.3551 16.5173 83.0905 17.2652 84.3645 18.7529M55.9657 56.0822C57.0938 56.0822 58.498 55.1879 60.1743 53.3875C61.8506 51.5951 63.6255 49.399 65.503 46.8152C67.3765 44.2313 69.1002 41.7345 70.67 39.3208C72.2438 36.915 73.4468 35.0513 74.2751 33.7337C75.6161 31.7157 77.0361 29.575 78.5507 27.2959C80.0653 25.0167 81.7732 22.5199 83.6782 19.8015C82.8223 18.9231 81.7692 18.4878 80.5307 18.4878C78.8938 18.4878 77.1031 19.1922 75.1507 20.5929C73.1983 21.9936 71.2972 23.8375 69.4473 26.1167C66.7415 29.3613 64.2803 32.8434 62.0754 36.5668C59.8706 40.2903 58.1706 43.5547 56.9794 46.3601C56.3128 47.935 55.7764 49.5612 55.3702 51.2231C55.0507 52.5368 54.9008 53.6764 54.9166 54.6419C54.9363 55.6074 55.2834 56.0901 55.9579 56.0901L55.9657 56.0822Z" fill="black"/>
<path d="M2.56673 43.312C-1.0699 58.3838 4.95301 59.0961 8.35693 58.1741C13.2518 56.8486 17.4643 52.128 19.4956 48.2344C21.3533 44.6732 43.599 0 43.599 0H48.7148C48.7148 0 26.331 45.8088 23.2624 49.8488C20.1937 53.8888 15.8313 58.4788 8.94068 59.5036C2.05397 60.5285 -1.80748 57.541 0.835188 46.3549L2.56673 43.3081V43.312Z" fill="black"/>
<path d="M145.848 43.312C142.211 58.3838 148.234 59.0961 151.638 58.1741C156.533 56.8486 160.746 52.128 162.777 48.2344C164.635 44.6732 186.88 0 186.88 0H191.996C191.996 0 169.612 45.8088 166.544 49.8488C163.475 53.8888 159.113 58.4788 152.222 59.5036C145.335 60.5285 141.474 57.541 144.116 46.3549L145.848 43.3081V43.312Z" fill="black"/>
<path d="M60.3833 20.8636C60.1901 19.6013 59.3815 17.4844 56.1156 17.4844C49.0317 17.4844 38.7214 26.8305 34.0553 37.4904C30.3003 46.0649 28.9474 53.7215 30.5291 57.4647C31.2509 59.1701 32.5683 60.0723 34.3393 60.0723C38.3743 60.0723 43.9041 54.1528 47.3199 49.9546C49.0909 47.8218 51.0748 44.8027 51.2089 44.6049L51.489 43.2318C51.4732 43.2556 48.7043 47.0225 46.9097 49.2305C46.2825 49.9862 45.5844 50.7855 44.8429 51.5729C41.1707 55.4744 37.6722 56.891 35.5541 56.4201C35.0137 56.2974 34.5483 55.7039 34.2485 54.7543C33.436 52.1744 33.72 46.52 37.1121 38.9584C38.5991 38.6854 43.3559 38.4519 49.5484 35.049C49.7456 34.9382 49.9389 34.8116 50.1282 34.6929C51.7454 33.6839 53.5006 32.4454 55.4017 30.9259C58.7031 28.2431 60.8448 23.9183 60.3833 20.8675V20.8636ZM50.9328 21.3977C52.688 20.365 54.1514 19.8387 55.2242 19.8387C55.808 19.8387 56.2734 19.997 56.6087 20.3096C57.4251 21.0851 57.2673 22.6165 57.1648 23.2416C56.8216 25.2755 55.1019 30.1701 50.2308 33.4187C49.7732 33.7076 49.3275 33.9806 48.8976 34.2339C43.8331 37.0986 41.2615 37.4825 37.4671 37.9217C41.2654 29.6755 46.2589 24.306 50.9368 21.4017L50.9328 21.3977Z" fill="black"/>
<path d="M127.917 60.401C125.44 64.7378 122.944 68.7263 120.415 72.3587C117.891 75.9951 115.221 79.0538 112.412 81.5308C109.604 84.0078 106.504 85.6697 103.12 86.5244V86.5362C102.007 86.8488 100.927 86.9992 99.8775 86.9992C97.9133 86.9992 96.5565 86.4334 95.8071 85.3136C95.0576 84.1898 94.8525 82.8128 95.1917 81.1905C95.4797 79.7977 96.1897 78.3059 97.3019 76.7192C98.4221 75.1285 99.8933 73.7159 101.723 72.4774C104.094 70.8472 106.212 69.5533 108.086 68.5878C109.955 67.6223 111.979 66.6529 114.144 65.6874C116.313 64.7219 119.035 63.4241 122.324 61.7978C123.89 59.3208 125.496 56.4956 127.136 53.3222C128.781 50.1487 130.398 47.0109 131.992 43.9166C133.585 40.8224 135.041 38.1475 136.362 35.904C136.035 36.2166 135.344 37.0277 134.283 38.3414C133.222 39.659 132.426 40.6641 131.885 41.3605C130.584 42.9116 128.978 44.7872 127.077 46.9911C125.176 49.1951 123.243 51.0747 121.287 52.6218C118.771 54.6358 116.66 55.6409 114.96 55.6409C113.26 55.6409 112.231 54.8258 111.687 53.2035C111.142 51.5732 111.127 49.5275 111.639 47.0505C111.994 45.349 112.547 43.6476 113.296 41.9382C117.181 33.0392 122.719 25.9524 129.905 20.6897C131.377 19.6056 133.092 18.735 135.064 18.0782C137.033 17.4214 138.938 17.089 140.772 17.089C143.328 17.089 145.418 17.7498 147.039 19.0635L147.406 18.7113C149.457 16.08 151.421 13.872 153.307 12.0914C155.184 10.3108 157.223 9.15147 159.44 8.60938C156.62 11.4781 153.733 15.0947 150.794 19.4671C147.852 23.8434 145.04 28.469 142.353 33.3439C139.667 38.2227 137.183 42.8483 134.895 47.2206C132.607 51.597 130.667 55.2492 129.073 58.197M103.037 84.0988C105.51 83.2441 107.813 81.7563 109.959 79.6275C112.105 77.4948 114.105 75.0573 115.95 72.3112C117.8 69.5652 119.473 66.7993 120.972 64.0097C118.684 65.2482 115.805 66.5817 112.326 68.0141C108.847 69.4465 105.439 71.4407 102.09 73.9969C100.603 75.1562 99.42 76.3552 98.5404 77.5976C97.6609 78.8362 97.1087 79.9955 96.8799 81.0797C96.6708 82.0848 96.7892 82.9394 97.2349 83.6358C97.6806 84.3323 98.5247 84.6805 99.7711 84.6805C100.229 84.6805 100.73 84.6409 101.27 84.5618C101.81 84.4826 102.398 84.3283 103.041 84.0988H103.037ZM117.777 52.052C119.086 52.052 120.628 51.2606 122.395 49.67C124.166 48.0872 126.008 46.1483 127.929 43.8613C129.846 41.5781 131.601 39.3702 133.187 37.2414C134.777 35.1165 135.987 33.4705 136.82 32.3032C138.176 30.5226 139.616 28.6273 141.147 26.6132C142.677 24.5991 144.412 22.3952 146.357 19.9933C145.276 19.2178 144.01 18.834 142.57 18.834C140.673 18.834 138.658 19.4552 136.532 20.6937C134.406 21.9322 132.378 23.5624 130.458 25.5725C127.637 28.4413 125.125 31.5158 122.932 34.8079C120.739 38.1 119.094 40.9846 117.986 43.4576C117.366 44.8505 116.909 46.2868 116.597 47.7548C116.357 48.9142 116.294 49.9192 116.412 50.7739C116.53 51.6286 116.98 52.052 117.765 52.052H117.773H117.777Z" fill="black"/>
<path d="M220.545 60.8073L223.578 55.3864L227.242 48.7942C230.248 43.4841 233.135 38.1264 235.979 32.753C237.829 29.2591 239.848 25.7928 241.248 22.1644C241.493 21.5313 241.769 20.5618 241.836 19.6676C241.911 18.5992 241.154 17.974 239.911 18.3381C238.61 18.7179 237.312 19.2956 236.294 19.996L235.478 20.4946C236.539 19.2007 238.294 18.069 239.655 17.6337C242.542 16.7157 245.26 18.3381 245.181 20.8546C245.153 21.7766 244.853 23.1773 244.735 24.0953L245.832 23.1813C248.021 21.1514 253.365 18.2312 256.915 17.6654C258.513 17.4121 260.291 17.0402 261.826 17.8711C263.305 18.6704 263.66 19.8931 263.534 21.1989C263.265 23.9806 261.849 26.4378 260.52 28.9188L246.968 54.2784C246.475 55.24 245.962 56.1856 245.859 57.2896C245.792 58.0098 245.666 58.9436 246.597 59.2324C247.871 59.6242 253.606 56.4508 255.55 55.4022C255.586 55.3824 255.617 55.4338 255.582 55.4576L249.015 59.7666C245.725 61.9667 242.467 59.9724 242.309 57.0443C242.309 57.0443 242.25 54.6068 243.785 51.6511L258.548 24.2615C259.305 22.7975 259.641 22.4651 259.917 20.4866C260.043 19.2917 259.554 18.0175 258.083 18.2352C257.728 18.2866 256.588 18.524 256.347 18.5913C254.481 19.1255 251.31 20.4471 250.056 21.1949C247.808 22.5324 245.279 24.3604 243.733 26.5169L225.14 60.7954" fill="black"/>
<path d="M364.992 60.8073L368.025 55.3864L371.69 48.7942C374.695 43.4841 377.582 38.1264 380.426 32.753C382.276 29.2591 384.295 25.7928 385.696 22.1644C385.94 21.5313 386.216 20.5618 386.283 19.6676C386.358 18.5992 385.601 17.974 384.359 18.3381C383.057 18.7179 381.759 19.2956 380.742 19.996L379.925 20.4946C380.986 19.2007 382.741 18.069 384.102 17.6337C386.989 16.7157 389.707 18.3381 389.628 20.8546C389.601 21.7766 389.301 23.1773 389.182 24.0953L390.279 23.1813C392.468 21.1514 397.813 18.2312 401.362 17.6654C402.96 17.4121 404.739 17.0402 406.273 17.8711C407.752 18.6704 408.107 19.8931 407.981 21.1989C407.713 23.9806 406.297 26.4378 404.967 28.9188L391.415 54.2784C390.922 55.24 390.409 56.1856 390.307 57.2896C390.24 58.0098 390.113 58.9436 391.044 59.2324C392.318 59.6242 398.053 56.4508 399.998 55.4022C400.033 55.3824 400.065 55.4338 400.029 55.4576L393.462 59.7666C390.172 61.9667 386.914 59.9724 386.757 57.0443C386.757 57.0443 386.698 54.6068 388.232 51.6511L402.995 24.2615C403.753 22.7975 404.088 22.4651 404.364 20.4866C404.49 19.2917 404.001 18.0175 402.53 18.2352C402.175 18.2866 401.035 18.524 400.794 18.5913C398.929 19.1255 395.758 20.4471 394.503 21.1949C392.255 22.5324 389.727 24.3604 388.181 26.5169L369.587 60.7954" fill="black"/>
<path d="M235.84 14.5547C233.347 17.9655 234.03 17.4749 232.839 19.204C229.884 24.158 227.013 29.393 224.228 34.9089C221.444 40.4327 218.856 45.6677 216.462 50.6138C214.072 55.5678 213.827 56.0861 213.827 56.0861C210.534 65.7845 226.713 51.3023 225.333 52.794C224.303 53.9099 217.148 61.147 213.03 60.7592C210.972 60.5653 210.187 59.398 209.914 58.2783C209.67 57.2811 209.843 56.1692 210.301 55.2156C211.78 52.1332 212.754 50.0835 214.285 46.8785C215.957 43.3766 217.468 40.3496 218.825 37.8093C218.509 38.1615 217.839 39.0834 216.797 40.5672C215.756 42.059 214.975 43.1986 214.443 43.986C213.169 45.7389 211.607 47.8637 209.757 50.3605C207.907 52.8573 206.061 54.9822 204.223 56.7351C201.86 59.0142 199.947 60.1538 198.48 60.1538C197.013 60.1538 196.204 59.2319 195.897 57.3959C195.585 55.552 195.77 53.2372 196.453 50.4318C196.926 48.5047 197.565 46.5777 198.374 44.6468C202.578 34.5726 208.033 26.552 214.73 20.5929C216.103 19.3623 217.665 18.377 219.428 17.6371C221.187 16.8932 222.86 16.5173 224.441 16.5173C226.642 16.5173 228.378 17.2652 229.652 18.7529M201.253 56.0822C202.381 56.0822 203.785 55.1879 205.461 53.3875C207.138 51.5951 208.913 49.399 210.79 46.8152C212.664 44.2313 214.387 41.7345 215.957 39.3208C217.531 36.915 218.734 35.0513 219.562 33.7337C220.903 31.7157 222.323 29.575 223.838 27.2959C225.352 25.0167 227.06 22.5199 228.965 19.8015C228.109 18.9231 227.056 18.4878 225.818 18.4878C224.181 18.4878 222.39 19.1922 220.438 20.5929C218.485 21.9936 216.584 23.8375 214.734 26.1167C212.029 29.3613 209.567 32.8434 207.363 36.5668C205.158 40.2903 203.458 43.5547 202.267 46.3601C201.6 47.935 201.064 49.5612 200.657 51.2231C200.338 52.5368 200.188 53.6764 200.204 54.6419C200.223 55.6074 200.57 56.0901 201.245 56.0901L201.253 56.0822Z" fill="black"/>
<path d="M205.67 20.8636C205.477 19.6013 204.669 17.4844 201.403 17.4844C194.319 17.4844 184.008 26.8305 179.342 37.4904C175.587 46.0649 174.235 53.7215 175.816 57.4647C176.538 59.1701 177.855 60.0723 179.626 60.0723C183.661 60.0723 189.191 54.1528 192.607 49.9546C194.378 47.8218 196.362 44.8027 196.496 44.6049L196.776 43.2318C196.76 43.2556 193.991 47.0225 192.197 49.2305C191.57 49.9862 190.872 50.7855 190.13 51.5729C186.458 55.4744 182.959 56.891 180.841 56.4201C180.301 56.2974 179.835 55.7039 179.536 54.7543C178.723 52.1744 179.007 46.52 182.399 38.9584C183.886 38.6854 188.643 38.4519 194.836 35.049C195.033 34.9382 195.226 34.8116 195.415 34.6929C197.032 33.6839 198.788 32.4454 200.689 30.9259C203.99 28.2431 206.132 23.9183 205.67 20.8675V20.8636ZM196.224 21.3977C197.979 20.365 199.442 19.8387 200.515 19.8387C201.099 19.8387 201.564 19.997 201.9 20.3096C202.716 21.0851 202.558 22.6165 202.456 23.2416C202.113 25.2755 200.393 30.1701 195.522 33.4187C195.064 33.7076 194.619 33.9806 194.189 34.2339C189.124 37.0986 186.553 37.4825 182.758 37.9217C186.556 29.6755 191.55 24.306 196.228 21.4017L196.224 21.3977Z" fill="black"/>
<path d="M248.411 86.5362C247.298 86.8488 246.214 86.9992 245.169 86.9992C243.204 86.9992 241.847 86.4334 241.098 85.3136C240.349 84.1898 240.144 82.8128 240.483 81.1905C240.771 79.7977 241.481 78.3059 242.593 76.7192C243.713 75.1285 245.184 73.7159 247.014 72.4774C249.385 70.8472 251.503 69.5533 253.377 68.5878C255.246 67.6223 257.27 66.6529 259.435 65.6874C261.604 64.7219 264.326 63.4241 267.615 61.7978C269.181 59.3208 270.787 56.4956 272.427 53.3222C274.072 50.1487 275.689 47.0109 277.283 43.9166C278.876 40.8224 280.332 38.1475 281.653 35.904C281.326 36.2166 280.635 37.0277 279.574 38.3414C278.513 39.659 277.717 40.6641 277.176 41.3605C275.875 42.9116 274.269 44.7872 272.368 46.9911C270.467 49.1951 268.534 51.0747 266.578 52.6218C264.062 54.6358 261.951 55.6409 260.251 55.6409C258.551 55.6409 257.522 54.8258 256.978 53.2035C256.433 51.5732 256.418 49.5275 256.93 47.0505C257.285 45.349 257.838 43.6476 258.587 41.9382C262.472 33.0392 268.01 25.9524 275.196 20.6897C276.668 19.6056 278.383 18.735 280.355 18.0782C282.324 17.4214 284.229 17.089 286.063 17.089C288.619 17.089 290.709 17.7498 292.33 19.0635L292.697 18.7113C294.748 16.08 296.712 13.872 298.598 12.0914C300.475 10.3108 302.514 9.15147 304.731 8.60938C301.911 11.4781 299.024 15.0947 296.085 19.4671C293.143 23.8434 290.331 28.469 287.644 33.3439C284.958 38.2227 282.474 42.8483 280.186 47.2206C277.898 51.597 275.958 55.2492 274.364 58.197C278.419 56.0326 282.284 53.1085 285.964 49.4286C289.644 45.7526 292.95 41.7443 295.884 37.4076C296.566 36.3234 297.174 35.7773 297.694 35.7773C297.825 35.7773 297.864 35.896 297.817 36.1295C297.75 36.4421 297.533 36.8655 297.158 37.4076C295.466 39.8846 293.699 42.3062 291.861 44.6685C290.027 47.0307 288.047 49.2149 285.929 51.229C284.099 53.0887 282.122 54.7902 280 56.3413C277.875 57.8924 275.61 59.2417 273.212 60.405C270.735 64.7417 268.239 68.7303 265.71 72.3627C263.186 75.9991 260.516 79.0577 257.707 81.5347C254.899 84.0118 251.799 85.6736 248.415 86.5283V86.5402L248.411 86.5362ZM248.328 84.0988C250.801 83.2441 253.104 81.7563 255.25 79.6275C257.396 77.4948 259.396 75.0573 261.241 72.3112C263.091 69.5652 264.764 66.7993 266.263 64.0097C263.975 65.2482 261.096 66.5817 257.617 68.0141C254.138 69.4465 250.73 71.4407 247.381 73.9969C245.894 75.1562 244.711 76.3552 243.831 77.5976C242.952 78.8362 242.4 79.9955 242.171 81.0797C241.962 82.0848 242.08 82.9394 242.526 83.6358C242.972 84.3323 243.816 84.6805 245.062 84.6805C245.52 84.6805 246.021 84.6409 246.561 84.5618C247.101 84.4826 247.689 84.3283 248.332 84.0988H248.328ZM263.064 52.052C264.373 52.052 265.915 51.2606 267.682 49.67C269.453 48.0872 271.295 46.1483 273.216 43.8613C275.133 41.5781 276.888 39.3702 278.474 37.2414C280.064 35.1165 281.274 33.4705 282.107 32.3032C283.464 30.5226 284.903 28.6273 286.434 26.6132C287.964 24.5991 289.699 22.3952 291.644 19.9933C290.563 19.2178 289.297 18.834 287.857 18.834C285.96 18.834 283.945 19.4552 281.819 20.6937C279.693 21.9322 277.665 23.5624 275.745 25.5725C272.924 28.4413 270.412 31.5158 268.219 34.8079C266.026 38.1 264.381 40.9846 263.273 43.4576C262.654 44.8505 262.196 46.2868 261.884 47.7548C261.644 48.9142 261.581 49.9192 261.699 50.7739C261.817 51.6286 262.267 52.052 263.052 52.052H263.06H263.064Z" fill="black"/>
<path d="M361.22 5.27848C355.122 15.8671 335.539 51.4355 335.539 51.4355L338.012 49.4294C344.879 37.7249 358.873 11.9102 363.11 5.6623L366.912 0C366.912 0 364.159 0.174103 361.22 5.27848Z" fill="black"/>
<path d="M317.482 6.13086C318.319 5.02689 319.269 4.00997 320.338 3.13154C321.766 1.96426 323.636 0.828638 325.075 1.37073C327.761 2.37974 324.89 8.49708 324.89 8.49708L302.77 52.2919C302.77 52.2919 299.09 60.1225 306.261 60.1225C313.432 60.1225 319.778 51.4174 319.778 51.4174L321.632 47.3379C321.632 47.3379 314.706 59.3905 306.541 59.4538C302.932 59.4855 307.444 52.3829 307.444 52.3829L328.83 9.81472C328.83 9.81472 332.348 1.39447 325.777 0.25489C323.257 -0.271376 320.492 1.79412 318.366 3.91896C316.993 5.292 315.782 6.8154 314.706 8.42981L313.582 10.1154L313.238 11.7219L317.479 6.13482L317.482 6.13086Z" fill="black"/>
<path d="M344.569 1.31693C343.993 0.830236 343.082 1.29319 343.105 2.05687C343.18 4.52596 341.216 8.50263 341.216 8.50263L319.096 52.2974C319.096 52.2974 315.416 60.1281 322.587 60.1281C332.424 60.1281 338.242 49.029 338.242 49.029L335.769 51.0352C335.769 51.0352 331.032 59.3921 322.867 59.4594C319.258 59.491 323.77 52.3884 323.77 52.3884L345.156 9.82027C345.156 9.82027 347.625 3.90869 344.561 1.32089L344.569 1.31693Z" fill="black"/>
<path d="M377.204 22.0176C376.651 20.051 375.602 19.133 374.817 18.7096C372.202 17.297 369.122 18.0567 366.731 18.8758C362.866 20.1974 359.367 22.6546 355.727 26.6036C352.094 30.5447 349.183 35.008 347.073 39.8789C345.318 43.9308 343.417 49.2924 344.324 54.8083C344.924 58.4486 347.16 60.522 350.398 60.522C350.753 60.522 351.124 60.4983 351.507 60.4468C354.244 60.0788 356.543 58.591 358.48 57.2259C359.608 56.4306 360.72 55.5363 361.88 54.4917C365.339 51.3776 368.36 47.6344 370.853 43.3649C377.74 31.5734 378.107 25.2503 377.204 22.0215V22.0176ZM349.026 55.7658C348.544 54.3651 348.288 52.9327 348.28 51.6269C348.256 47.3535 349.57 43.1829 350.722 40.0214C351.14 38.8145 351.668 37.6275 352.295 36.4918L352.457 36.203C353.23 34.8023 353.956 33.4807 354.749 32.1907C356.843 28.7799 359.312 25.8597 362.089 23.5212C364.673 21.3449 367.027 20.0945 369.5 19.596C370.116 19.4733 370.676 19.41 371.188 19.41C371.91 19.41 372.549 19.5326 373.137 19.778C374.009 20.142 374.794 21.3686 375.054 22.0888C375.137 22.3737 377.862 32.1828 366.369 47.674C365.331 49.0708 364.057 50.4834 362.476 51.987C359.801 54.5313 357.407 56.4345 354.425 57.4396C352.078 58.231 349.605 57.4633 349.026 55.7619V55.7658Z" fill="black"/>
</g>
<defs>
<clipPath id="clip0_768_4064">
<rect width="408" height="87" fill="white"/>
</clipPath>
</defs>
</svg>
