<svg width="321" height="105" viewBox="0 0 321 105" fill="none" xmlns="http://www.w3.org/2000/svg">
<path d="M89.3973 55.4815C84.8296 56.0956 80.4449 56.8831 76.2432 57.844C72.1101 58.7446 67.9824 60.0661 63.8602 61.8084C63.1433 61.892 62.5696 61.7583 62.1391 61.4074C61.7731 61.0605 61.4434 60.6513 61.1501 60.1798C61.0335 59.9782 60.8848 59.7747 60.7038 59.569C60.5229 59.3634 60.344 59.1256 60.1672 58.8555C60.2604 58.4086 60.4222 57.9014 60.6525 57.3339C60.8828 56.7663 61.111 56.231 61.3372 55.7279C61.3455 55.599 61.388 55.44 61.4647 55.2508C61.5415 55.0617 61.6162 54.9047 61.6889 54.78C62.033 53.4434 62.3243 52.4269 62.5628 51.7305C62.8699 50.9738 63.2133 50.1547 63.593 49.2732C63.7548 48.766 63.9467 48.2931 64.1688 47.8544C64.395 47.3513 64.5869 46.8784 64.7446 46.4356C63.8906 46.6398 63.129 46.9147 62.4601 47.2601C61.7952 47.5411 60.9891 48.0072 60.0418 48.6584C59.2769 48.4802 58.6491 48.1813 58.1583 47.7618C57.732 47.3464 57.3399 46.9009 56.9821 46.4252L56.5297 45.9111C56.3378 44.8638 56.5119 44.1633 57.0521 43.8096C57.6566 43.4601 58.1885 43.2352 58.6478 43.1352C61.9515 42.0522 65.3156 41.0378 68.74 40.092C72.1686 39.0817 75.7479 38.2428 79.478 37.5752C79.6795 37.4587 79.9112 37.3765 80.173 37.3285C80.439 37.2161 80.7227 37.3312 81.0243 37.6739C81.4191 37.5698 81.7433 37.5581 81.9969 37.639C82.2505 37.7199 82.5665 37.8371 82.9449 37.9906C83.0696 38.0633 83.1642 38.1017 83.2286 38.1058C83.2931 38.1099 83.3877 38.1483 83.5124 38.2209C83.6372 38.2936 83.7318 38.332 83.7962 38.3361L83.8661 40.2813C82.3389 40.8955 81.0133 41.3931 79.8892 41.7742C78.8336 42.0949 77.6814 42.4095 76.4326 42.718C75.1152 43.0867 73.7656 43.4534 72.3837 43.818C71.0663 44.1868 69.9463 44.5034 69.0238 44.768C69.3336 44.9818 69.6413 45.2279 69.947 45.5062C70.2527 45.7845 70.4535 46.1855 70.5495 46.7091C70.1821 47.3973 69.8044 48.2465 69.4164 49.2569C69.097 50.2069 68.7413 51.2192 68.3492 52.294C68.1874 52.8012 67.9955 53.2741 67.7734 53.7128C67.6199 54.0912 67.4622 54.534 67.3005 55.0412C69.4116 54.3996 71.5488 53.8568 73.712 53.4127C75.9437 52.9082 78.1351 52.5306 80.2859 52.2797L82.8357 51.8603C83.9475 51.6725 85.0572 51.5169 86.1649 51.3935C87.3411 51.2099 88.5755 51.1269 89.8682 51.1448C89.993 51.2174 90.0855 51.288 90.1458 51.3566C90.2062 51.4251 90.2987 51.4957 90.4234 51.5684C90.6729 51.7137 90.8902 51.8569 91.0753 51.9981C91.3248 52.1435 91.5119 52.2524 91.6366 52.3251L91.1328 54.1367C91.1973 54.1408 91.0924 54.2635 90.8182 54.5048C90.6126 54.6857 90.4049 54.8989 90.1951 55.1443C89.9895 55.3252 89.7236 55.4376 89.3973 55.4815ZM88.1448 75.1005C85.828 75.923 83.6504 76.5926 81.612 77.1094C79.5735 77.6262 77.5028 78.1409 75.3999 78.6536C72.2455 79.4226 69.0247 80.2197 65.7374 81.0449C62.5145 81.8743 59.3697 82.9997 56.3031 84.4213C55.4737 84.2389 54.7253 83.803 54.0577 83.1134C53.4545 82.428 52.9822 81.7186 52.6409 80.9852C53.081 80.1722 53.5669 79.6534 54.0988 79.4286C54.6348 79.1393 55.1647 78.9467 55.6883 78.8508C55.8172 78.859 55.9138 78.8652 55.9783 78.8693C56.0468 78.809 56.1455 78.7829 56.2744 78.7911C56.4032 78.7994 56.5019 78.7733 56.5705 78.713C58.0935 78.1633 59.8098 77.626 61.7194 77.1009C63.6976 76.5156 65.575 75.9885 67.3516 75.5197C68.1412 75.3114 68.8986 75.1009 69.6238 74.8885C70.4135 74.6801 71.1386 74.4676 71.7994 74.251C72.1339 74.0783 72.43 74.0002 72.6877 74.0166C72.9495 73.9687 73.1771 73.9508 73.3704 73.9632C73.5637 73.9755 73.7248 73.9858 73.8536 73.994C74.051 73.9419 74.2546 73.7932 74.4643 73.5478L78.3919 72.8282C79.6366 72.5842 80.8471 72.3703 82.0233 72.1867C83.268 71.9427 84.5772 71.7028 85.9508 71.467C86.3895 71.6891 86.6773 71.7398 86.8144 71.6192C87.3381 71.5232 87.7247 71.5479 87.9742 71.6932C88.2922 71.7782 88.8796 72.2039 89.7364 72.9702L88.1448 75.1005ZM84.5674 26.2554C84.6716 26.6502 84.7134 27.0087 84.6928 27.3309C84.6723 27.653 84.3659 27.8922 83.7737 28.0485C82.2465 28.6626 80.6248 29.2384 78.9085 29.7757C77.2607 30.2528 75.6794 30.7017 74.1646 31.1225C72.255 31.6476 70.2789 32.2007 68.2363 32.7819C66.2582 33.3672 64.4048 34.0252 62.6761 34.7559C61.9674 34.7106 61.2532 34.2445 60.5335 33.3576C59.8782 32.4747 59.4121 31.6687 59.1352 30.9394C60.8159 29.9469 62.4137 29.2402 63.9285 28.8194C65.4474 28.3341 66.9642 27.8811 68.479 27.4602C69.1398 27.2436 69.8307 27.0613 70.5518 26.9133C71.277 26.7008 71.972 26.4541 72.6369 26.173C72.8384 26.0565 73.0358 26.0044 73.2291 26.0168C73.4909 25.9688 73.7548 25.8886 74.0207 25.7762C75.4026 25.4116 76.7823 25.0791 78.1601 24.7789C79.6022 24.4829 81.0361 24.3156 82.4618 24.2773C83.4804 24.5364 84.1822 25.1958 84.5674 26.2554Z" fill="#79E276"/>
<path d="M190.071 35.2839C188.911 38.6198 188.041 41.8966 187.464 45.1143C186.887 48.3321 186.34 51.615 185.825 54.963C185.683 55.6707 185.571 56.4434 185.491 57.2814C185.412 58.0547 185.332 58.8604 185.251 59.6983C184.817 62.2084 184.314 64.8787 183.744 67.7092C183.175 70.4751 182.612 72.9505 182.054 75.1354L181.261 76.089C181.127 76.3448 180.993 76.6006 180.859 76.8563C180.727 77.0475 180.623 77.4007 180.549 77.9159C179.89 78.6138 179.368 78.8945 178.983 78.7581C178.664 78.5583 178.348 78.1972 178.035 77.6747L177.465 77.0828C177.829 74.8942 178.159 72.8018 178.455 70.8056C178.752 68.7449 179.02 66.5545 179.257 64.2343C179.457 63.9153 179.595 63.4658 179.67 62.8861C179.746 62.3064 179.723 61.7894 179.603 61.3351C179.807 60.7578 179.913 60.3078 179.919 59.985C179.989 59.6635 180.06 59.342 180.131 59.0204C180.204 58.5698 180.246 58.054 180.257 57.4731C180.332 56.8933 180.446 56.0237 180.597 54.8643C180.465 54.9909 180.334 55.0853 180.204 55.1474C180.139 55.1462 180.042 55.1767 179.912 55.2388C179.195 55.5481 178.447 55.8569 177.666 56.165C176.887 56.4085 176.141 56.5882 175.428 56.7039C175.101 56.956 174.742 57.1429 174.352 57.2647C174.028 57.3231 173.704 57.4139 173.379 57.5369C173.119 57.5965 172.795 57.6873 172.405 57.8091C172.015 57.9308 171.625 58.0526 171.236 58.1744C170.847 58.2316 170.426 58.3205 169.971 58.4411C167.311 59.1012 164.521 59.8556 161.599 60.7045C158.677 61.5533 156.041 62.6658 153.69 64.042C152.855 63.8325 152.184 63.4324 151.679 62.8417C151.173 62.251 150.67 61.5635 150.168 60.7791L149.596 60.284C150.535 58.4292 151.346 56.5396 152.028 54.6153C152.711 52.6264 153.262 50.7965 153.681 49.1255C154.15 48.2303 154.457 47.3644 154.602 46.5277C154.747 45.691 154.893 44.822 155.039 43.9207C155.114 43.341 155.188 42.8581 155.26 42.472C155.333 42.0214 155.438 41.6036 155.574 41.2188C155.644 40.9618 155.683 40.6074 155.691 40.1555C155.697 39.8328 155.704 39.4778 155.711 39.0905C155.718 38.7032 155.79 38.3494 155.925 38.0291L152.998 39.1361C151.763 39.5648 150.698 39.5447 149.803 39.0757C148.974 38.5435 148.409 37.6611 148.11 36.4285L149.206 34.8026C149.531 34.6796 149.921 34.5579 150.375 34.4373C150.829 34.3167 151.218 34.2272 151.542 34.1688C155.18 33.0106 158.361 32.1344 161.084 31.5401C163.809 30.8812 166.405 30.1877 168.872 29.4594C169.585 29.3437 170.266 29.1951 170.915 29.0137C171.564 28.8322 172.307 28.7817 173.145 28.8621L174.291 29.7555L174.262 31.3047C172.111 32.3618 169.995 33.2581 167.915 33.9937C165.836 34.6647 163.789 35.3364 161.775 36.0086C160.736 36.3119 159.794 36.617 158.948 36.9238C159.14 37.0566 159.299 37.1888 159.425 37.3203C159.552 37.4518 159.711 37.584 159.902 37.7167L160.662 38.506C160.286 41.3401 159.775 44.4299 159.131 47.7755C158.551 51.1224 157.784 54.1105 156.831 56.74C160.721 55.9095 164.644 55.015 168.601 54.0566C172.56 53.0336 176.261 51.9412 179.705 50.7794C179.837 50.6527 179.999 50.5912 180.193 50.5948C180.452 50.5352 180.68 50.4426 180.876 50.3172C180.941 50.3184 181.006 50.2873 181.072 50.224C181.136 50.2252 181.234 50.1625 181.366 50.0358C181.438 49.6498 181.513 49.07 181.592 48.2967C181.736 47.5245 181.877 46.8814 182.016 46.3675C182.165 45.3371 182.314 44.2745 182.464 43.1796C182.615 42.0201 182.895 40.8954 183.303 39.8053C183.309 39.4826 183.348 39.0959 183.421 38.6453C183.494 38.1946 183.696 37.7787 184.026 37.3975C184.044 36.4293 184.225 35.3995 184.569 34.3083C184.912 33.217 185.737 32.264 187.044 31.4492L188.471 32.8322C188.789 33.0965 189.074 33.3602 189.328 33.6233C189.582 33.8218 189.802 34.1488 189.987 34.6043L190.071 35.2839ZM221.726 16.2194C221.235 18.2764 220.323 20.4224 218.989 22.6573C217.657 24.8276 216.259 27.0289 214.796 29.2614C213.866 30.6644 212.968 32.0357 212.104 33.3754C211.305 34.6518 210.569 35.9617 209.898 37.305C210.158 37.2454 210.353 37.1845 210.483 37.1224C210.613 37.0602 210.841 36.9677 211.166 36.8447C211.881 36.5999 212.628 36.3557 213.408 36.1121C214.189 35.804 214.967 35.5927 215.744 35.4783C216.521 35.3638 217.264 35.3778 217.971 35.5203C218.744 35.6641 219.448 35.9679 220.085 36.432C220.39 37.4063 220.407 38.1815 220.138 38.7576C219.869 39.3337 219.471 39.875 218.945 40.3817C218.747 40.6362 218.548 40.8908 218.349 41.1453C218.152 41.3353 217.986 41.5905 217.851 41.9108C216.725 43.3747 215.535 44.8374 214.281 46.2989C213.092 47.697 211.871 49.1268 210.616 50.5883C209.296 52.1131 207.943 53.6373 206.558 55.1609C205.175 56.62 203.855 58.1125 202.6 59.6385C203.507 59.462 204.221 59.2495 204.742 59.001C207.471 58.1485 209.972 57.3563 212.246 56.6244C214.519 55.8925 217.181 55.1356 220.231 54.3537C220.492 54.2295 220.751 54.1698 221.009 54.1747C221.267 54.1796 221.558 54.1851 221.881 54.1912C222.269 54.1339 222.689 54.1096 223.141 54.1181C223.594 54.0621 224.082 53.8776 224.604 53.5646C224.927 53.5707 225.378 53.6115 225.958 53.687C226.602 53.7638 227.337 54.1974 228.161 54.9878C227.627 55.9463 226.968 56.6119 226.186 56.9846C225.469 57.3584 224.721 57.6672 223.941 57.9107C223.617 57.9692 223.26 58.0593 222.871 58.1811C222.482 58.2383 222.158 58.3291 221.897 58.4533C221.572 58.5763 221.312 58.636 221.119 58.6323C220.99 58.6299 220.762 58.6901 220.437 58.8132C218.489 59.4221 216.67 60.0012 214.98 60.5504C213.292 61.0351 211.668 61.5856 210.106 62.2018C208.546 62.7535 206.985 63.3697 205.422 64.0505C203.924 64.7325 202.359 65.5424 200.727 66.4802C199.752 66.7847 199.01 66.8029 198.498 66.535C198.051 66.2682 197.638 65.9375 197.258 65.5429C197.131 65.4114 197.004 65.3121 196.876 65.2451C196.749 65.1136 196.526 64.9802 196.205 64.845C196.108 63.1643 196.33 61.6833 196.87 60.4021C197.411 59.1208 198.08 57.9066 198.876 56.7593C199.804 55.4854 200.895 54.1499 202.148 52.753C203.402 51.3561 204.654 49.9914 205.906 48.659C207.027 47.4533 208.115 46.247 209.171 45.04C210.292 43.8343 211.316 42.5945 212.244 41.3206C211.01 41.6847 209.68 42.0147 208.254 42.3107C206.829 42.542 205.799 42.3612 205.165 41.768L205.262 41.7698C204.368 41.2364 203.927 40.6146 203.941 39.9046C204.019 39.1957 204.161 38.4881 204.368 37.7817C204.505 37.3969 204.575 37.0753 204.58 36.8171C205.383 35.3471 206.317 33.7505 207.383 32.0271C208.449 30.3038 209.48 28.7089 210.476 27.2426C211.009 26.3486 211.509 25.5509 211.974 24.8494C212.439 24.1479 212.937 23.4147 213.468 22.6498L215.171 19.6794C213.487 19.9704 211.766 20.4545 210.01 21.1316C208.254 21.8088 206.594 22.4877 205.032 23.1685C204.064 23.1502 203.294 22.8451 202.725 22.2532C202.219 21.6625 201.846 20.9128 201.605 20.0043C201.748 19.2321 202.015 18.7851 202.405 18.6634C202.796 18.477 203.218 18.3236 203.673 18.203C204.321 18.0861 204.743 17.9326 204.941 17.7427C206.569 16.9985 208.032 16.4773 209.329 16.1789C210.692 15.8172 212.022 15.4872 213.319 15.1888C214.292 14.9489 215.168 14.7395 215.946 14.5604C216.79 14.3181 217.504 14.1056 218.089 13.9229C218.343 14.1214 218.697 14.225 219.148 14.2335C219.729 14.2445 220.277 14.2871 220.793 14.3614C221.308 14.4357 221.621 14.9259 221.733 15.8321L221.726 16.2194ZM250.544 64.8059C250.36 67.7082 250.056 70.1563 249.631 72.15C249.271 74.0804 248.879 76.0425 248.454 78.0362C247.962 80.1578 247.502 82.28 247.075 84.4029C246.712 86.5269 246.504 88.9445 246.453 91.6556C246.434 92.6884 246.283 93.8156 246.002 95.0371C245.721 96.2587 245.054 97.3439 244.003 98.2926C243.291 98.4083 242.808 98.3346 242.555 98.0715C242.366 97.8097 242.21 97.5161 242.087 97.1909L241.992 97.0923C241.929 97.0265 241.865 96.993 241.8 96.9918C241.736 96.9906 241.672 96.9571 241.608 96.8913C241.451 94.9512 241.39 93.0451 241.426 91.1732C241.468 88.9139 241.636 86.8508 241.93 84.9837C242.289 83.0533 242.682 81.0912 243.107 79.0975C243.252 78.2608 243.397 77.3918 243.543 76.4905C243.754 75.5905 243.967 74.5936 244.181 73.4999C244.188 73.1127 244.227 72.7905 244.296 72.5335C244.367 72.212 244.471 71.8265 244.608 71.3771C244.746 70.9277 244.85 70.5422 244.921 70.2207C244.993 69.8346 245 69.4473 244.943 69.0588C244.165 69.2378 243.354 69.4162 242.511 69.594C241.67 69.7073 240.86 69.8211 240.083 69.9356C238.14 70.2863 236.227 70.7022 234.345 71.1833C232.463 71.6643 230.578 72.339 228.689 73.2073C228.353 73.9113 227.892 74.3546 227.308 74.5373C226.203 74.9039 225.332 74.8874 224.694 74.4879C224.12 74.0896 223.548 73.5945 222.978 73.0026L222.026 72.1129L222.034 71.7256C222.036 71.5965 222.038 71.4997 222.039 71.4351C222.106 71.3072 222.14 71.211 222.141 71.1465C222.148 70.8237 222.184 70.5984 222.251 70.4705C222.319 70.2781 222.549 70.0887 222.94 69.9024C223.724 69.4006 224.571 68.9969 225.481 68.6912C226.391 68.3855 227.299 68.1444 228.207 67.9678C228.921 67.7876 229.634 67.6073 230.348 67.4271C231.062 67.2469 231.517 67.094 231.713 66.9686L238.331 65.2533C239.627 65.0195 240.859 64.7844 242.025 64.5482C243.193 64.2474 244.33 63.9137 245.434 63.5471C245.829 63.1671 246.286 62.9175 246.805 62.7981C247.323 62.6788 247.84 62.6885 248.354 62.8274C248.869 62.9017 249.317 63.1039 249.698 63.4339C250.145 63.7007 250.428 64.0934 250.548 64.6123L250.544 64.8059ZM245.073 31.383L243.909 36.5914C243.905 36.8496 243.829 37.4293 243.683 38.3306C243.538 39.1673 243.325 40.1642 243.045 41.3212C242.83 42.4794 242.581 43.7016 242.298 44.9877C242.015 46.2738 241.702 47.4625 241.359 48.5538C240.903 48.7389 240.642 48.9277 240.573 49.1201C240.505 49.3125 240.469 49.5379 240.464 49.796C240.394 50.053 240.325 50.31 240.255 50.567C240.252 50.7606 240.116 51.1132 239.848 51.6248L237.389 53.6124L236.563 51.1753C236.459 49.8818 236.516 48.5592 236.735 47.2073C236.954 45.8554 237.273 44.344 237.692 42.673C237.902 41.8375 238.076 41.195 238.213 40.7456C238.417 40.2329 238.591 39.5259 238.738 38.6246C238.283 38.7452 237.764 38.8968 237.179 39.0795C236.66 39.1988 236.174 39.3188 235.72 39.4393C235.459 39.5636 235.003 39.7487 234.353 39.9947C233.768 40.1774 233.216 40.3607 232.696 40.5446C232.24 40.7297 231.785 40.9148 231.329 41.0999C230.874 41.285 230.321 41.5006 229.671 41.7466C229.348 41.7405 229.088 41.8324 228.891 42.0224C228.759 42.1491 228.595 42.3074 228.397 42.4974C227.937 42.9407 227.478 43.2872 227.022 43.5369C226.629 43.7878 225.986 43.6465 225.092 43.113C224.902 42.9157 224.711 42.8152 224.517 42.8116C224.389 42.7446 224.261 42.7099 224.132 42.7074C223.68 42.6989 223.294 42.627 222.973 42.4918C222.653 42.3566 222.371 41.8993 222.127 41.1198C222.274 40.2186 222.739 39.517 223.523 39.0153C224.309 38.449 225.092 38.0117 225.873 37.7036C226.07 37.5136 226.266 37.3882 226.461 37.3273C226.591 37.2652 226.754 37.2037 226.949 37.1428C227.598 36.9613 228.15 36.8103 228.604 36.6897C229.059 36.5046 229.514 36.3518 229.969 36.2312C231.009 35.8634 231.918 35.5578 232.698 35.3142C233.479 35.0061 234.257 34.7948 235.035 34.6803C235.943 34.4392 236.722 34.2279 237.371 34.0464C238.022 33.8004 238.802 33.5246 239.711 33.2189C239.782 32.8974 239.819 32.6398 239.823 32.4461C239.828 32.1879 239.865 31.8981 239.936 31.5765C240.023 30.4158 240.11 29.1906 240.199 27.9008C240.289 26.5465 240.378 25.2567 240.466 24.0315C241.062 23.2679 241.553 22.8897 241.94 22.897C242.328 22.9044 242.873 23.0761 243.577 23.4122C244.278 23.9421 244.721 24.3702 244.909 24.6966C245.098 24.9584 245.284 25.3494 245.468 25.8694C245.466 25.9985 245.495 26.1283 245.558 26.2586L245.073 31.383ZM258.883 28.4475L258.855 29.8998C258.779 30.5441 258.702 31.1884 258.625 31.8327C258.55 32.4124 258.409 33.0232 258.203 33.665C258.188 34.4396 257.968 35.8561 257.542 37.9143C257.18 39.9738 256.452 42.6399 255.357 45.9124C255.151 46.5542 254.913 47.1632 254.644 47.7393C254.439 48.3166 254.237 48.7647 254.037 49.0838C253.968 49.3408 253.9 49.501 253.835 49.5643C253.833 49.6289 253.799 49.7251 253.732 49.853L251.84 52.6261L250.13 50.8504C250.026 49.4924 250.08 48.3311 250.292 47.3665C250.506 46.3374 250.75 45.3734 251.025 44.4745C251.164 43.9606 251.238 43.4777 251.246 43.0258C251.32 42.5107 251.428 41.9315 251.57 41.2885L252.525 36.851C253.018 34.6648 253.38 32.6053 253.61 30.6725C253.842 28.6751 254.038 26.8385 254.199 25.1626C254.277 24.4538 254.355 23.745 254.433 23.0361C254.512 22.2627 254.589 21.5862 254.665 21.0065C255.198 20.1125 255.691 19.6375 256.144 19.5815C256.662 19.5267 257.27 19.7965 257.97 20.3909L257.873 20.389C258.828 21.1174 259.294 22.0625 259.272 23.2244C259.315 24.3875 259.262 25.452 259.115 26.4178C259.044 26.7393 258.973 27.0931 258.901 27.4792C258.895 27.802 258.889 28.1247 258.883 28.4475ZM315.27 48.6906C315.258 49.3361 315.151 49.8507 314.95 50.2344C314.814 50.6192 314.741 51.0376 314.733 51.4894C314.46 52.2591 314.25 53.0946 314.104 53.9959C314.023 54.8984 313.909 55.768 313.764 56.6047C313.622 57.3123 313.478 58.0844 313.333 58.9212C313.254 59.6945 313.046 60.4655 312.708 61.234C312.639 61.491 312.601 61.7808 312.595 62.1036C312.59 62.3618 312.553 62.6194 312.484 62.8763C312.339 63.7131 312.161 64.5814 311.95 65.4815C311.805 66.3182 311.466 67.1835 310.932 68.0775C310.99 68.466 310.981 68.9178 310.907 69.433C310.898 69.8848 310.762 70.2697 310.498 70.5876L310.35 73.2968L310.039 74.3564L309.54 75.1219C309.204 75.8258 308.967 76.4025 308.83 76.8519C308.756 77.3026 308.788 77.3677 308.923 77.0474C308.985 77.1777 308.88 77.5955 308.608 78.3007C308.406 78.7488 308.302 79.1343 308.296 79.4571C308.291 79.7153 308.222 79.9722 308.088 80.228C308.018 80.485 307.82 80.7395 307.492 80.9916C307.165 81.2437 306.61 81.5561 305.828 81.9288L305.176 80.5604C304.922 80.2974 304.734 80.0355 304.609 79.7749C304.485 79.5142 304.556 79.1604 304.823 78.7135C304.84 77.8098 304.887 77.0358 304.964 76.3915C305.042 75.6827 305.152 74.9744 305.295 74.2668C305.438 73.4947 305.549 72.7542 305.627 72.0453C305.706 71.272 305.754 70.4334 305.771 69.5297C305.982 68.6297 306.161 67.729 306.307 66.8278C306.518 65.9277 306.729 64.9954 306.941 64.0308C307.361 62.2953 307.783 60.4629 308.207 58.5338C308.631 56.6046 309.02 54.8039 309.374 53.1317L307.429 53.5792C306.253 54.2673 305.211 54.7642 304.301 55.0699C303.391 55.3756 302.548 55.5857 301.771 55.7001C301.122 55.8816 300.57 56.0326 300.116 56.1532C299.661 56.2737 299.239 56.3949 298.85 56.5167C297.875 56.8211 296.933 57.1262 296.023 57.4319C295.115 57.673 294.107 58.0414 293 58.5371L292.072 56.3887C291.641 55.2828 291.654 54.5727 292.112 54.2585C292.636 53.881 293.256 53.5375 293.972 53.2282C294.362 53.1064 294.687 52.9834 294.948 52.8592C295.141 52.8628 295.303 52.8336 295.433 52.7715C295.564 52.7094 295.695 52.615 295.826 52.4883C296.413 52.1766 296.902 51.9598 297.291 51.838C297.746 51.7174 298.297 51.5987 298.945 51.4818C299.009 51.483 299.074 51.4842 299.138 51.4855C299.269 51.4233 299.497 51.3308 299.822 51.2078C300.211 51.086 300.601 50.9642 300.991 50.8424C301.381 50.7206 301.77 50.6311 302.158 50.5739C302.29 50.4472 302.452 50.418 302.644 50.4862C302.902 50.4911 303.161 50.4637 303.421 50.404C303.743 50.4101 304.1 50.32 304.491 50.1337C304.881 50.0119 305.206 49.8889 305.467 49.7647C306.442 49.3956 307.386 49.026 308.297 48.6558C309.273 48.2222 310.024 47.7844 310.549 47.3423C310.684 47.022 310.757 46.6036 310.767 46.0872C310.776 45.5708 310.786 45.0544 310.796 44.538C310.814 43.5698 310.897 42.6028 311.044 41.637C311.256 40.6724 311.726 39.7449 312.453 38.8546C313.415 39.1957 314.117 39.6287 314.559 40.1536C315.066 40.6797 315.411 41.2351 315.593 41.8197C315.776 42.4043 315.861 43.0194 315.849 43.6649C315.838 44.2458 315.794 44.8585 315.718 45.5027C315.579 46.0167 315.471 46.5635 315.396 47.1433C315.322 47.6585 315.28 48.1742 315.27 48.6906ZM279.94 57.7093C278.997 59.7578 278.075 62.3879 277.175 65.5995C276.558 67.525 275.875 69.4816 275.127 71.4693C275.126 71.5338 275.092 71.63 275.025 71.7579C275.024 71.8225 275.022 71.9193 275.019 72.0484C275.343 71.9899 275.603 71.9303 275.798 71.8694C276.057 71.8097 276.349 71.7183 276.675 71.5953C277.194 71.476 277.648 71.3232 278.039 71.1368C278.495 70.9517 278.949 70.8634 279.4 70.872C280.829 70.4469 282.256 70.0865 283.683 69.7905C285.11 69.43 286.506 69.0367 287.87 68.6104C288.124 68.809 288.316 68.9094 288.445 68.9119C288.639 68.9155 288.833 68.8869 289.028 68.826C289.352 68.7676 289.612 68.7079 289.806 68.647C290.066 68.5873 290.26 68.5587 290.389 68.5612L293.387 68.8115C292.907 70.2876 292.34 71.2455 291.686 71.6852C291.098 72.0615 290.511 72.341 289.927 72.5237C289.602 72.6467 289.277 72.7374 288.953 72.7959C288.694 72.8555 288.498 72.9487 288.367 73.0754C287.325 73.5077 286.123 73.937 284.759 74.3632C283.459 74.7907 282.096 75.1847 280.668 75.5451C279.305 75.9068 277.943 76.2363 276.581 76.5334C275.286 76.7672 274.152 76.9395 273.182 77.0504C272.278 77.0333 271.444 76.727 270.681 76.1314C269.983 75.4725 269.48 74.7204 269.173 73.8751C269.521 72.5902 269.9 71.306 270.312 70.0223C270.723 68.7386 271.135 67.4549 271.547 66.1712C272.091 64.6963 272.538 63.2842 272.886 61.9347C273.299 60.5865 273.715 59.0769 274.134 57.4059L275.926 54.8245C276.055 54.827 276.248 54.8629 276.505 54.9323C276.763 54.9372 276.957 54.9409 277.086 54.9433C277.73 55.02 278.341 55.193 278.917 55.4622C279.557 55.7326 279.934 56.2886 280.047 57.1301L279.94 57.7093ZM299.89 27.0911C299.873 27.9948 299.605 28.5063 299.086 28.6256C298.632 28.7462 298.114 28.801 297.533 28.79C297.275 28.7852 296.95 28.8759 296.559 29.0622C295.651 29.3033 294.711 29.5116 293.739 29.687C292.767 29.8623 291.827 30.0383 290.92 30.2149C288.196 30.8092 285.376 31.4339 282.458 32.0891C279.604 32.7455 276.842 33.6619 274.173 34.8384C273.962 35.7384 273.661 36.2816 273.27 36.4679C272.944 36.6555 272.521 36.8089 272.002 36.9283C271.872 36.9904 271.709 37.0519 271.514 37.1128C271.321 37.1091 271.061 37.2011 270.734 37.3886C270.027 37.2461 269.511 37.2041 269.187 37.2626C268.733 37.3831 268.279 37.4714 267.826 37.5274C267.373 37.5834 266.953 37.5755 266.567 37.5037C266.182 37.3672 265.831 37.1669 265.513 36.9026C265.261 36.575 265.044 36.0866 264.863 35.4374C264.757 34.2085 264.965 33.4376 265.488 33.1246C266.075 32.8128 266.724 32.5991 267.437 32.4834C267.632 32.4225 267.827 32.3616 268.022 32.3007C268.281 32.241 268.476 32.1479 268.608 32.0212C268.738 31.9591 268.901 31.8976 269.096 31.8367C269.292 31.7113 269.455 31.6175 269.585 31.5554C270.107 31.3069 270.66 31.0591 271.246 30.8119C271.833 30.5001 272.547 30.2876 273.389 30.1743L275.046 29.6245C275.433 29.6318 275.757 29.5733 276.018 29.4491C276.343 29.3261 276.636 29.2025 276.897 29.0783C278.133 28.585 279.303 28.1874 280.406 27.8854C281.574 27.5846 282.805 27.3818 284.098 27.2771C285.008 26.9714 285.917 26.7303 286.824 26.5537C287.797 26.3138 288.64 26.136 289.352 26.0203C289.742 25.8985 290.163 25.8096 290.617 25.7536C291.134 25.6988 291.685 25.5801 292.27 25.3974C292.984 25.2172 293.663 25.1654 294.307 25.2422C294.951 25.3189 295.563 25.4273 296.141 25.5674C296.912 25.7757 297.848 25.7933 298.949 25.6204L299.89 27.0911ZM293.258 39.7513C293.583 39.6283 294.036 39.5722 294.617 39.5832C295.264 39.5309 295.875 39.6715 296.449 40.0053L297.588 41.2859C297.248 42.1835 296.817 42.7888 296.294 43.1018C295.773 43.3503 295.221 43.5336 294.637 43.6517C293.989 43.7686 293.535 43.8892 293.274 44.0134C289.187 45.0339 285.227 46.1214 281.396 47.276C277.629 48.4317 273.919 49.9759 270.266 51.9087C269.169 51.888 268.399 51.6152 267.957 51.0902C267.581 50.502 267.238 49.8498 266.929 49.1336C266.93 49.0691 266.9 48.9393 266.839 48.7445C266.843 48.5508 266.845 48.4217 266.846 48.3572C267.247 47.6544 267.708 47.1789 268.229 46.9304C268.751 46.682 269.271 46.4981 269.79 46.3787C270.05 46.2545 270.343 46.1632 270.667 46.1047C270.991 46.0463 271.218 45.986 271.348 45.9239C271.738 45.8021 272.16 45.6486 272.616 45.4635C273.136 45.2796 273.591 45.0945 273.982 44.9082C275.088 44.477 276.194 44.0782 277.298 43.7116C278.404 43.2805 279.443 42.9773 280.415 42.8019C281.326 42.4317 282.203 42.1576 283.046 41.9799C283.954 41.7387 284.798 41.5286 285.576 41.3496C285.966 41.2278 286.387 41.1389 286.84 41.0829C287.358 41.0281 287.908 40.9739 288.49 40.9204C289.269 40.6768 290.113 40.4667 291.02 40.2901C291.993 40.0502 292.739 39.8706 293.258 39.7513Z" fill="#79E276"/>
<path fill-rule="evenodd" clip-rule="evenodd" d="M123.56 63.5572C124.782 62.3355 125.106 60.5562 124.532 59.0388C126.048 59.6099 127.825 59.2853 129.045 58.065C130.708 56.4025 130.708 53.707 129.045 52.0444C127.871 50.8704 126.182 50.5255 124.706 51.0095C125.188 49.5337 124.843 47.8464 123.669 46.6733C122.007 45.0108 119.311 45.0108 117.649 46.6733C116.43 47.8924 116.105 49.6668 116.673 51.1822C115.158 50.6135 113.384 50.9386 112.165 52.1577C110.502 53.8202 110.502 56.5157 112.165 58.1782C113.339 59.3527 115.029 59.6975 116.506 59.2126C116.02 60.6904 116.364 62.3819 117.54 63.5571C119.202 65.2197 121.898 65.2197 123.56 63.5572Z" fill="#79E276"/>
<path d="M36.0104 34.0471C36.0089 35.177 35.8735 36.1924 35.6041 37.0933C35.405 37.9986 35.2037 38.9392 35.0002 39.9149C34.7308 40.8158 34.4966 41.7189 34.2976 42.6243C34.103 43.4593 34.014 44.3011 34.0304 45.1496L33.2177 51.2419C34.0797 51.0144 34.7966 50.8483 35.3682 50.7436C37.6639 50.1839 39.9221 49.6572 42.1429 49.1633C44.434 48.674 46.7491 48.3628 49.0882 48.2296L51.0792 48.5686L50.9445 50.6787C49.1936 51.5556 47.5243 52.2612 45.9365 52.7954C44.3532 53.2593 42.8073 53.6903 41.2988 54.0883C39.8607 54.4909 38.4225 54.8934 36.9844 55.2959C35.5507 55.6281 34.1014 56.2065 32.6363 57.0311L32.441 60.0907C32.3152 62.0601 32.0795 64.0931 31.7338 66.1896C31.4629 68.2204 30.7767 70.1187 29.6753 71.8846C29.5077 72.2976 29.2084 72.561 28.7774 72.6747C28.3464 72.7884 27.9573 72.7989 27.6101 72.7061C27.4694 72.6971 27.3639 72.6904 27.2936 72.6859C27.2278 72.6111 27.1597 72.5714 27.0893 72.5669C25.943 71.7169 25.432 70.8721 25.5562 70.0326C25.6849 69.1227 25.9543 68.2218 26.3643 67.3299C26.6906 66.6445 26.8275 66.1589 26.7751 65.8731L27.3005 57.6438C26.9713 57.2697 26.6421 56.8956 26.3128 56.5215C26.0539 56.1518 25.9469 55.6153 25.9919 54.912C26.2956 54.5782 26.6039 54.1742 26.9167 53.6998C27.2998 53.2299 27.641 52.8633 27.9403 52.5999C28.0331 52.2527 28.093 51.8681 28.1199 51.4461C28.2172 51.0286 28.2464 50.5714 28.2075 50.0746C28.1955 49.1557 28.2187 48.2391 28.2771 47.3247C28.34 46.34 28.4993 45.5028 28.7553 44.8129C28.9318 44.2592 29.0381 43.701 29.074 43.1383C29.1848 42.5098 29.3307 41.8835 29.5118 41.2594C29.8306 39.5849 30.1822 37.9477 30.5669 36.3479C30.9515 34.7482 31.3645 33.2562 31.806 31.8719C32.8042 31.7238 33.5734 31.8435 34.1136 32.2311C34.7287 32.5529 35.2689 32.9405 35.7343 33.3939L36.0104 34.0471ZM14.1531 46.2112C14.9837 46.4761 15.8075 46.8465 16.6246 47.3224C17.4417 47.7983 17.8495 48.6011 17.848 49.731C17.8734 50.4388 17.8614 51.1796 17.812 51.9533C17.833 52.7315 17.8187 53.5074 17.7693 54.2811C17.5763 57.3055 17.0667 60.3097 16.2406 63.2937C15.4893 66.2119 14.3317 68.857 12.7678 71.2289C12.1558 71.9667 11.2339 72.5787 10.0023 73.0651C8.841 73.5559 7.78597 73.4885 6.8372 72.863C5.78816 71.5955 5.09081 70.3504 4.74513 69.1277C4.39945 67.9051 4.26927 66.6256 4.35459 65.2892C4.43991 63.9528 4.66365 62.6606 5.02582 61.4125C5.39247 60.0941 5.78981 58.8483 6.21782 57.675C6.30163 57.4685 6.34802 57.2949 6.357 57.1542C6.44081 56.9477 6.52461 56.7412 6.60842 56.5347C6.77154 56.192 6.90174 55.8119 6.99902 55.3944C7.0963 54.9768 7.2265 54.5967 7.38962 54.254C7.91491 52.6633 8.5457 51.0792 9.282 49.5019C10.0183 47.9246 11.2619 46.6975 13.0128 45.8206L14.1531 46.2112ZM9.38506 66.14C9.30575 66.2762 9.29677 66.4169 9.35812 66.562C9.42397 66.6368 9.4524 66.7446 9.44342 66.8853C9.84449 66.134 10.2194 65.2399 10.5681 64.2028C10.9871 63.1702 11.338 62.098 11.6209 60.9861C11.9741 59.8787 12.2569 58.7668 12.4694 57.6504C12.682 56.534 12.8174 55.5186 12.8758 54.6043C12.4433 55.8479 11.9315 57.2276 11.3403 58.7436C10.8195 60.264 10.378 61.6483 10.0159 62.8964C9.99342 63.248 9.88717 63.8062 9.6971 64.5709C9.58186 65.2698 9.47785 65.7928 9.38506 66.14Z" fill="#79E276"/>
</svg>
