<svg width="397" height="105" viewBox="0 0 397 105" fill="none" xmlns="http://www.w3.org/2000/svg">
<path d="M242.889 39.5643C242.888 40.5993 242.763 41.5295 242.517 42.3547C242.334 43.1841 242.15 44.0457 241.964 44.9395C241.717 45.7647 241.502 46.592 241.32 47.4214C241.142 48.1863 241.06 48.9574 241.075 49.7347L240.331 55.3155C241.12 55.1071 241.777 54.9549 242.301 54.859C244.404 54.3463 246.472 53.8638 248.507 53.4114C250.605 52.9632 252.726 52.6781 254.869 52.5561L256.693 52.8666L256.569 54.7995C254.965 55.6028 253.436 56.2492 251.982 56.7385C250.531 57.1635 249.115 57.5583 247.733 57.9229C246.416 58.2917 245.099 58.6604 243.781 59.0291C242.468 59.3335 241.14 59.8633 239.798 60.6186L239.619 63.4213C239.504 65.2254 239.288 67.0877 238.971 69.0082C238.723 70.8685 238.095 72.6074 237.086 74.225C236.932 74.6034 236.658 74.8446 236.263 74.9488C235.868 75.053 235.512 75.0626 235.194 74.9776C235.065 74.9694 234.968 74.9632 234.904 74.9591C234.844 74.8905 234.781 74.8542 234.717 74.8501C233.667 74.0714 233.199 73.2976 233.312 72.5285C233.43 71.6951 233.677 70.8698 234.053 70.0528C234.352 69.4249 234.477 68.9801 234.429 68.7183L234.91 61.1799C234.609 60.8372 234.307 60.4945 234.006 60.1518C233.768 59.8132 233.67 59.3217 233.712 58.6774C233.99 58.3717 234.272 58.0016 234.559 57.567C234.91 57.1366 235.222 56.8007 235.496 56.5595C235.581 56.2414 235.636 55.8891 235.661 55.5025C235.75 55.1201 235.777 54.7013 235.741 54.2461C235.73 53.4044 235.751 52.5648 235.805 51.7272C235.862 50.8252 236.008 50.0582 236.243 49.4262C236.405 48.919 236.502 48.4077 236.535 47.8922C236.636 47.3165 236.77 46.7428 236.936 46.1711C237.228 44.6371 237.55 43.1374 237.902 41.672C238.255 40.2065 238.633 38.8398 239.038 37.5718C239.952 37.436 240.657 37.5457 241.151 37.9008C241.715 38.1955 242.21 38.5506 242.636 38.966L242.889 39.5643ZM222.867 50.7071C223.628 50.9498 224.382 51.2891 225.131 51.725C225.879 52.1609 226.253 52.8964 226.251 53.9314C226.275 54.5798 226.264 55.2584 226.218 55.9671C226.238 56.68 226.225 57.3908 226.179 58.0995C226.002 60.87 225.536 63.622 224.779 66.3555C224.091 69.0286 223.03 71.4516 221.598 73.6244C221.037 74.3002 220.193 74.8609 219.064 75.3064C218.001 75.756 217.034 75.6943 216.165 75.1213C215.204 73.9602 214.565 72.8196 214.249 71.6996C213.932 70.5796 213.813 69.4076 213.891 68.1834C213.969 66.9592 214.174 65.7755 214.506 64.6322C214.842 63.4245 215.206 62.2832 215.598 61.2085C215.674 61.0193 215.717 60.8603 215.725 60.7314C215.802 60.5423 215.879 60.3531 215.955 60.1639C216.105 59.85 216.224 59.5018 216.313 59.1193C216.402 58.7368 216.522 58.3886 216.671 58.0747C217.152 56.6175 217.73 55.1665 218.405 53.7216C219.079 52.2767 220.218 51.1526 221.822 50.3493L222.867 50.7071ZM218.499 68.9628C218.426 69.0875 218.418 69.2164 218.474 69.3494C218.535 69.4179 218.561 69.5166 218.552 69.6455C218.92 68.9573 219.263 68.1382 219.583 67.1882C219.967 66.2423 220.288 65.2601 220.547 64.2416C220.871 63.2271 221.13 62.2086 221.324 61.1859C221.519 60.1633 221.643 59.2331 221.697 58.3956C221.3 59.5347 220.832 60.7987 220.29 62.1873C219.813 63.5801 219.409 64.8482 219.077 65.9914C219.056 66.3136 218.959 66.8249 218.785 67.5254C218.679 68.1656 218.584 68.6447 218.499 68.9628ZM281.24 48.7084L282.247 49.6461C280.511 50.5056 279.007 51.2507 277.738 51.8812C276.469 52.5118 275.268 53.0821 274.135 53.592C273.072 54.0417 272.01 54.4591 270.95 54.8443C269.955 55.2336 268.863 55.6167 267.674 55.9937C268.762 56.1925 269.59 56.8923 270.161 58.0932L270.111 58.8663C268.783 61.4339 267.529 63.8446 266.35 66.0983C265.24 68.2916 263.952 70.7324 262.486 73.4207C262.881 73.3165 263.278 73.1801 263.677 73.0115C264.076 72.8429 264.44 72.7044 264.771 72.5961C266.616 72.067 268.262 71.6222 269.708 71.2616C271.154 70.9011 272.798 70.4885 274.639 70.0238C277.141 69.3425 279.739 68.6674 282.434 67.9985C285.194 67.3336 287.917 66.7312 290.604 66.1911C290.725 66.3282 291.045 66.3809 291.564 66.3494C292.148 66.322 292.736 66.2302 293.329 66.0739C293.337 65.945 293.343 65.8484 293.347 65.784C293.416 65.7236 293.454 65.6291 293.462 65.5002C293.507 64.7915 293.557 64.0183 293.61 63.1807C293.664 62.3431 293.749 61.5076 293.867 60.6741C293.985 59.8406 294.069 59.0373 294.118 58.2641C294.232 57.4951 294.312 56.7562 294.357 56.0475L294.686 53.9336C294.711 53.547 294.737 53.1282 294.766 52.6772C294.859 52.2303 294.922 51.7491 294.955 51.2337C295.057 50.6579 295.124 50.1123 295.157 49.5969C295.194 49.017 295.231 48.4372 295.268 47.8573C295.409 47.6722 295.488 47.4508 295.504 47.1931C295.521 46.9354 295.507 46.6434 295.463 46.3171C295.423 45.9264 295.414 45.57 295.434 45.2479C295.455 44.9257 295.544 44.5432 295.702 44.1005C295.763 43.134 295.859 42.1374 295.99 41.1106C296.124 40.0194 296.222 38.9906 296.284 38.0241C296.913 37.288 297.483 36.9686 297.995 37.0659C298.575 37.103 299.118 37.2023 299.625 37.3641C299.686 37.4327 299.915 37.3826 300.314 37.214L301.768 38.7624C301.347 43.3287 300.864 47.8587 300.318 52.3524C299.777 56.7816 299.203 61.2088 298.597 65.6339C298.361 67.3009 298.153 69.0343 297.974 70.8343C297.798 72.5698 297.59 74.3032 297.351 76.0346C297.27 76.2882 297.215 76.6405 297.186 77.0915C297.165 77.4137 297.147 77.7036 297.131 77.9613C297.114 78.2191 297.063 78.5069 296.978 78.825C296.893 79.143 296.804 79.5255 296.711 79.9724C296.686 80.359 296.629 80.7435 296.54 81.1259C296.354 82.0197 296.161 83.0102 295.962 84.0973C295.832 85.124 295.479 86.1042 294.901 87.0378L293.668 88.1235C293.418 87.9781 293.201 87.8349 293.016 87.6937C292.895 87.5566 292.742 87.4175 292.557 87.2763C292.432 87.2036 292.372 87.1351 292.376 87.0706L291.7 87.0274C291.693 86.1213 291.698 85.0219 291.716 83.7292C291.799 82.4405 291.873 81.2808 291.938 80.2499C292.062 78.317 292.221 76.3217 292.418 74.2641C292.618 72.142 292.854 69.9575 293.127 67.7107C292.986 67.8958 292.845 68.0808 292.703 68.2659C292.631 68.3906 292.558 68.5154 292.485 68.6401C292.135 69.0706 291.788 69.4366 291.445 69.7382C291.102 70.0398 290.607 70.2022 289.958 70.2255C287.646 70.9836 285.14 71.7293 282.44 72.4627C279.806 73.2001 277.235 73.9417 274.729 74.6875L268.982 76.5524C267.262 77.1542 265.378 77.778 263.331 78.4236C261.285 79.0693 259.405 79.6285 257.693 80.1015C257.069 79.7382 256.355 79.2721 255.55 78.7032C254.814 78.0739 254.546 77.2158 254.744 76.1287C256.588 73.594 258.138 71.1052 259.394 68.6624C260.718 66.1592 261.974 63.7163 263.161 61.3338C263.528 60.6456 263.9 59.893 264.275 59.076C264.715 58.2631 265.121 57.4804 265.493 56.7278C264.236 57.165 262.946 57.6003 261.625 58.0335C260.368 58.4707 259.074 58.9704 257.745 59.5324C257.019 59.7449 256.474 59.6777 256.108 59.3309C255.742 58.9841 255.378 58.605 255.016 58.1938C254.895 58.0567 254.745 57.8853 254.564 57.6797C254.387 57.4096 254.238 57.2061 254.117 57.069L254.241 55.1361C255.905 54.4013 257.563 53.7632 259.215 53.2217C260.931 52.6844 262.648 52.147 264.364 51.6097C265.286 51.3451 266.209 51.0805 267.132 50.816C268.058 50.487 269.017 50.16 270.008 49.8351C270.802 49.5623 271.493 49.38 272.081 49.2882C272.274 49.3005 272.571 49.2224 272.969 49.0538C273.368 48.8852 273.8 48.7186 274.263 48.5541C274.791 48.3937 275.316 48.2656 275.84 48.1696C276.364 48.0737 276.785 48.0682 277.103 48.1532C277.369 48.0408 277.63 47.9928 277.888 48.0093C278.146 48.0257 278.406 48.0099 278.667 47.962C279.123 47.9263 279.479 47.9167 279.737 47.9332C280.063 47.8893 280.522 47.7893 281.114 47.633L281.24 48.7084ZM282.425 30.1525C283.036 30.7091 283.4 31.0881 283.516 31.2897C283.637 31.4267 283.87 31.8298 284.216 32.4988C283.268 33.1499 282.46 33.6482 281.791 33.9937C281.122 34.3391 280.363 34.5817 279.513 34.7216L279.609 34.7277L276.365 35.3939C273.871 35.9463 271.375 36.531 268.878 37.1478C266.444 37.7688 264.008 38.9395 261.57 40.6599C261.445 40.5872 261.228 40.444 260.918 40.2301C260.672 40.0204 260.457 39.8449 260.272 39.7037C260.091 39.4981 259.844 39.3205 259.53 39.1711C259.28 39.0258 259.033 38.8483 258.787 38.6385C258.611 38.3685 258.468 38.0683 258.36 37.7379C258.32 37.3472 258.381 36.8982 258.543 36.391C260.171 35.2011 261.949 34.2148 263.875 33.4321C265.801 32.6493 267.736 32.223 269.682 32.1531C270.887 31.5184 272.367 31.1278 274.123 30.9811C275.879 30.8344 277.571 30.6837 279.198 30.5288C279.851 30.4411 280.405 30.3794 280.86 30.3437C281.315 30.3081 281.836 30.2444 282.425 30.1525ZM331.219 35.4025L329.276 38.4807C328.336 40.038 327.395 41.5953 326.455 43.1526C325.579 44.714 324.739 46.213 323.936 47.6497C324.532 47.429 325.124 47.2727 325.712 47.1809C326.365 47.0931 327.074 47.1384 327.839 47.3166C328.556 47.233 329.27 47.1816 329.983 47.1624C330.696 47.1432 331.377 47.122 332.025 47.0987C332.669 47.1398 333.443 47.1892 334.345 47.2468C335.251 47.2399 336.058 47.2591 336.767 47.3044C337.484 47.2207 338.13 47.2297 338.706 47.3311C339.35 47.3722 339.997 47.3812 340.645 47.3579C341.422 47.3428 342.194 47.4244 342.958 47.6026C343.727 47.7164 344.708 48.0701 345.899 48.6637C345.37 49.859 344.773 50.5972 344.108 50.8783C343.447 51.0949 342.662 51.2388 341.751 51.3101C341.361 51.3498 340.97 51.3896 340.579 51.4293C340.253 51.4732 339.925 51.5493 339.594 51.6575L336.193 51.7315C333.926 51.7809 331.654 51.8946 329.379 52.0728C327.172 52.1907 324.811 52.6869 322.297 53.5615C322.056 53.2873 321.836 53.1762 321.639 53.2283C321.51 53.2201 321.398 52.9542 321.302 52.4305C320.729 53.2996 320.123 54.1667 319.486 55.0317C318.913 55.9008 318.34 56.7699 317.767 57.639C316.976 58.8824 316.08 60.2484 315.079 61.7372C314.083 63.1615 313.189 64.4953 312.398 65.7387L311.372 65.0909C311.049 65.0704 310.727 65.0498 310.405 65.0292C310.087 64.9442 309.919 64.5453 309.899 63.8325C309.788 62.5315 310.021 61.4143 310.599 60.4807C311.18 59.4828 311.854 58.5554 312.62 57.6986C313.213 56.5073 313.801 55.4127 314.382 54.4147C314.968 53.3523 315.512 52.4167 316.017 51.6079C316.663 50.6141 317.276 49.6181 317.857 48.6202C318.443 47.5578 318.929 46.5214 319.317 45.5111C319.822 44.7023 320.256 43.986 320.619 43.3623C321.051 42.6782 321.519 41.9318 322.023 41.123C322.831 39.6219 323.671 38.1229 324.542 36.6259C325.483 35.0686 326.445 33.6745 327.43 32.4435C328.364 31.9856 329.232 32.0734 330.033 32.7067C330.833 33.3401 331.275 34.0152 331.359 34.7322L331.219 35.4025ZM357.393 67.7379L354.037 70.1437C353.449 70.2356 353.024 70.3055 352.763 70.3534C352.501 70.4014 352.271 70.4515 352.074 70.5035C351.941 70.5598 351.81 70.5837 351.681 70.5755C351.617 70.5714 351.486 70.5954 351.288 70.6475C350.636 70.7352 350.013 70.8572 349.421 71.0135C348.897 71.1094 348.363 71.3665 347.819 71.7846C346.329 71.8188 345.032 71.8654 343.929 71.9243C342.825 71.9833 341.722 72.0422 340.618 72.1011C339.317 72.2122 337.952 72.3191 336.522 72.4219C335.161 72.4644 333.572 72.5247 331.756 72.6028C330.974 72.6823 330.096 72.7556 329.121 72.8228C328.211 72.894 327.301 72.9653 326.391 73.0366C324.892 73.1997 323.394 73.3628 321.896 73.5259C320.401 73.6246 318.903 73.7877 317.401 74.0153C316.285 74.2675 314.98 74.443 313.485 74.5416C312.056 74.6444 310.696 74.6547 309.408 74.5724C308.615 73.8102 308.145 73.0686 307.997 72.3475C307.849 71.6265 307.864 70.8834 308.042 70.1185L309.541 69.4379C311.225 69.416 312.88 69.3276 314.507 69.1727C316.199 69.0219 317.858 68.8691 319.486 68.7142C321.181 68.499 322.972 68.3222 324.857 68.1837C326.742 68.0453 328.59 67.9692 330.403 67.9556L330.814 67.5937C331.917 67.5347 332.922 67.5018 333.828 67.495C334.803 67.4278 335.681 67.3545 336.462 67.275C336.982 67.2435 337.469 67.2099 337.924 67.1743C338.444 67.1427 338.961 67.1434 339.477 67.1763C340.061 67.1489 340.742 67.1277 341.519 67.1126C342.296 67.0975 343.232 67.125 344.328 67.1949C344.388 67.2634 344.515 67.3039 344.708 67.3162C344.901 67.3286 345.483 67.3334 346.454 67.3306C346.639 67.4718 346.959 67.5246 347.414 67.489C347.873 67.3889 348.202 67.3128 348.399 67.2607C348.597 67.2087 348.794 67.1566 348.991 67.1045C349.253 67.0565 349.451 67.0044 349.584 66.9482L353.063 67.1703L354.332 67.0572L357.393 67.7379ZM389.784 55.444C385.216 56.0581 380.832 56.8456 376.63 57.8065C372.497 58.7071 368.369 60.0286 364.247 61.7709C363.53 61.8545 362.956 61.7208 362.526 61.3699C362.16 61.023 361.83 60.6138 361.537 60.1423C361.42 59.9407 361.272 59.7372 361.091 59.5315C360.91 59.3259 360.731 59.0881 360.554 58.818C360.647 58.3711 360.809 57.8639 361.039 57.2964C361.27 56.7288 361.498 56.1935 361.724 55.6904C361.732 55.5615 361.775 55.4025 361.852 55.2133C361.928 55.0242 362.003 54.8672 362.076 54.7425C362.42 53.4059 362.711 52.3894 362.95 51.693C363.257 50.9363 363.6 50.1172 363.98 49.2357C364.142 48.7285 364.334 48.2556 364.556 47.8169C364.782 47.3138 364.974 46.8409 365.131 46.3981C364.277 46.6023 363.516 46.8772 362.847 47.2226C362.182 47.5037 361.376 47.9697 360.429 48.6209C359.664 48.4427 359.036 48.1438 358.545 47.7243C358.119 47.3089 357.727 46.8634 357.369 46.3877L356.917 45.8736C356.725 44.8263 356.899 44.1258 357.439 43.7721C358.044 43.4226 358.575 43.1977 359.035 43.0977C362.338 42.0147 365.703 41.0003 369.127 40.0545C372.555 39.0442 376.135 38.2053 379.865 37.5377C380.066 37.4212 380.298 37.339 380.56 37.291C380.826 37.1786 381.11 37.2937 381.411 37.6364C381.806 37.5323 382.13 37.5206 382.384 37.6015C382.637 37.6824 382.953 37.7996 383.332 37.9531C383.457 38.0258 383.551 38.0642 383.616 38.0683C383.68 38.0724 383.775 38.1108 383.899 38.1834C384.024 38.2561 384.119 38.2945 384.183 38.2986L384.253 40.2438C382.726 40.858 381.4 41.3556 380.276 41.7367C379.221 42.0574 378.068 42.372 376.819 42.6805C375.502 43.0492 374.152 43.4159 372.771 43.7805C371.453 44.1493 370.333 44.4659 369.411 44.7305C369.72 44.9443 370.028 45.1904 370.334 45.4687C370.64 45.747 370.84 46.148 370.936 46.6716C370.569 47.3598 370.191 48.209 369.803 49.2194C369.484 50.1694 369.128 51.1817 368.736 52.2565C368.574 52.7637 368.382 53.2366 368.16 53.6753C368.007 54.0537 367.849 54.4965 367.687 55.0037C369.798 54.3621 371.936 53.8193 374.099 53.3752C376.331 52.8707 378.522 52.4931 380.673 52.2422L383.223 51.8228C384.334 51.635 385.444 51.4794 386.552 51.356C387.728 51.1724 388.962 51.0894 390.255 51.1073C390.38 51.1799 390.472 51.2505 390.533 51.3191C390.593 51.3876 390.686 51.4582 390.81 51.5309C391.06 51.6762 391.277 51.8194 391.462 51.9606C391.712 52.106 391.899 52.2149 392.024 52.2876L391.52 54.0992C391.584 54.1033 391.479 54.226 391.205 54.4673C390.999 54.6482 390.792 54.8614 390.582 55.1068C390.376 55.2877 390.11 55.4001 389.784 55.444ZM388.532 75.063C386.215 75.8855 384.037 76.5551 381.999 77.0719C379.96 77.5887 377.89 78.1034 375.787 78.6161C372.632 79.3851 369.412 80.1822 366.124 81.0074C362.901 81.8368 359.757 82.9622 356.69 84.3838C355.861 84.2014 355.112 83.7655 354.445 83.0759C353.841 82.3905 353.369 81.6811 353.028 80.9477C353.468 80.1347 353.954 79.6159 354.486 79.3911C355.022 79.1018 355.552 78.9092 356.075 78.8133C356.204 78.8215 356.301 78.8277 356.365 78.8318C356.434 78.7715 356.532 78.7454 356.661 78.7536C356.79 78.7619 356.889 78.7358 356.957 78.6755C358.48 78.1258 360.197 77.5885 362.106 77.0634C364.084 76.4781 365.962 75.951 367.739 75.4822C368.528 75.2739 369.286 75.0634 370.011 74.851C370.8 74.6426 371.526 74.4301 372.186 74.2135C372.521 74.0408 372.817 73.9627 373.075 73.9791C373.336 73.9312 373.564 73.9133 373.757 73.9257C373.951 73.938 374.112 73.9483 374.241 73.9565C374.438 73.9044 374.641 73.7557 374.851 73.5103L378.779 72.7907C380.023 72.5467 381.234 72.3328 382.41 72.1492C383.655 71.9052 384.964 71.6653 386.338 71.4295C386.776 71.6516 387.064 71.7023 387.201 71.5817C387.725 71.4857 388.112 71.5104 388.361 71.6557C388.679 71.7407 389.267 72.1664 390.123 72.9327L388.532 75.063ZM384.954 26.2179C385.059 26.6127 385.1 26.9712 385.08 27.2934C385.059 27.6155 384.753 27.8547 384.161 28.011C382.633 28.6251 381.012 29.2009 379.295 29.7382C377.648 30.2153 376.066 30.6642 374.552 31.085C372.642 31.6101 370.666 32.1632 368.623 32.7444C366.645 33.3297 364.792 33.9877 363.063 34.7184C362.354 34.6731 361.64 34.207 360.92 33.3201C360.265 32.4372 359.799 31.6312 359.522 30.9019C361.203 29.9094 362.801 29.2027 364.315 28.7819C365.834 28.2966 367.351 27.8436 368.866 27.4227C369.527 27.2061 370.218 27.0238 370.939 26.8758C371.664 26.6633 372.359 26.4166 373.024 26.1355C373.225 26.019 373.423 25.9669 373.616 25.9793C373.878 25.9313 374.142 25.8511 374.408 25.7387C375.789 25.3741 377.169 25.0416 378.547 24.7414C379.989 24.4454 381.423 24.2781 382.849 24.2398C383.867 24.4989 384.569 25.1583 384.954 26.2179Z" fill="#BBF027"/>
<path d="M186.519 68.9946C186.318 65.5586 185.053 62.6719 182.637 60.3022C180.26 57.9649 177.301 56.9201 174 56.6831C182.333 55.0351 185.308 52.0892 186.524 44C187.409 51.6099 191.459 55.816 199 56.6723C195.71 56.9578 192.757 58.0295 190.379 60.383C187.974 62.7581 186.823 65.6879 186.519 69V68.9946Z" fill="#BBF027"/>
<path d="M70.4828 56.8798C70.5866 57.5299 70.6246 58.2098 70.5969 58.9195C70.5691 59.6291 70.5414 60.3387 70.5136 61.0484C70.448 62.7257 70.3192 64.3682 70.1271 65.976C69.9375 67.5192 69.7157 69.0612 69.4616 70.6019C69.2101 72.0781 68.9908 73.5556 68.8037 75.0343C68.6192 76.4486 68.4979 77.8976 68.4399 79.3813C68.1934 80.7285 68.0411 82.144 67.9831 83.6278C67.9578 84.2729 67.9029 84.8522 67.8182 85.3658C67.7955 85.9464 67.707 86.5568 67.5527 87.1968C67.396 87.9014 67.1709 88.7003 66.8775 89.5933C66.5842 90.4864 66.1542 91.568 65.5876 92.838C64.927 89.9047 64.4758 87.3996 64.234 85.3226C64.0567 83.2481 64.0084 81.1787 64.0891 79.1143C64.1623 77.2434 64.3025 75.3106 64.5097 73.3158C64.7169 71.3209 64.9229 69.3584 65.1276 67.428C65.3071 66.1428 65.4543 64.8564 65.5693 63.5687C65.6868 62.2164 65.803 60.8965 65.918 59.6087C65.9926 59.3532 66.0027 59.0952 65.9482 58.8346C65.9609 58.512 65.94 58.2205 65.8855 57.9599C65.8261 57.8283 65.7653 57.7291 65.7033 57.662C65.7084 57.533 65.6812 57.4027 65.6217 57.2712L64.9065 58.2124C63.6847 59.7152 62.4655 61.1536 61.2488 62.5275C60.0346 63.8368 58.7856 65.2094 57.5018 66.6452C56.9656 67.1411 56.4938 67.6396 56.0865 68.1405C55.6793 68.6415 55.2063 69.1722 54.6675 69.7326C54.5384 69.7276 54.4069 69.787 54.2728 69.911C54.1413 69.9705 54.0085 70.0622 53.8744 70.1862C53.5417 70.4316 53.1471 70.61 52.6905 70.7214C52.2338 70.8328 51.6001 70.5172 50.7892 69.7748C51.6783 68.5173 52.5996 67.2612 53.5533 66.0062C54.5739 64.6893 55.5288 63.4022 56.4179 62.1447C59.485 58.0649 62.4552 53.9814 65.3287 49.8941C68.2692 45.7448 70.9865 41.5221 73.4805 37.2261C73.483 37.1616 73.5886 36.9396 73.7973 36.5601C74.0085 36.1161 74.2197 35.6721 74.4309 35.228C74.6395 34.8485 74.7774 34.6278 74.8444 34.5658C74.976 34.5063 75.0828 34.2521 75.165 33.803C73.9987 33.8866 72.8945 34.0373 71.8522 34.2549C70.8124 34.4081 69.7404 34.56 68.6361 34.7107C67.7254 34.8689 66.7824 35.0258 65.8072 35.1815C64.8964 35.3398 63.9547 35.4645 62.982 35.5556C62.982 35.5556 62.8504 35.6151 62.5873 35.734C61.8625 36.0934 61.1403 36.3882 60.4206 36.6185C59.7009 36.8488 58.9937 36.7565 58.2992 36.3417C57.7388 35.8029 57.3435 35.1736 57.1132 34.4539C56.9474 33.7367 57.0371 33.0941 57.3824 32.5261C59.2835 31.8251 61.0468 31.3449 62.6722 31.0854C64.3001 30.7614 65.9901 30.5044 67.742 30.3145C69.1713 30.1119 70.6652 29.9119 72.2236 29.7144C73.782 29.5169 75.2164 29.1853 76.5268 28.7197C77.1845 28.4224 77.7468 28.089 78.2135 27.7196C78.7447 27.3527 79.3241 27.4077 79.9515 27.8845L80.3235 28.2867C80.7004 28.5599 81.0116 28.8628 81.2571 29.1954C81.5696 29.4661 81.7157 29.8595 81.6955 30.3756C80.4273 34.7195 78.4879 38.8757 75.8775 42.8441C73.2671 46.8125 70.5663 50.6158 67.7749 54.2541C68.348 54.4703 68.8527 54.7808 69.2892 55.1855C69.7927 55.5283 70.1621 55.995 70.3974 56.5857L70.4828 56.8798ZM96.0231 33.2619C95.6299 35.0556 95.238 36.8171 94.8473 38.5463C94.4566 40.2755 94.0325 42.0357 93.5747 43.8269C92.744 46.8957 91.9367 50.1916 91.1528 53.7145C90.4335 57.24 89.8804 60.6427 89.4937 63.9228C89.1409 64.6843 88.912 65.5799 88.8071 66.6096C88.357 68.2072 87.6292 69.471 86.6236 70.4008C86.3465 69.227 86.1548 68.3473 86.0484 67.7616C85.9421 67.1759 85.9028 66.5283 85.9306 65.8187C85.9533 65.2381 85.976 64.6574 85.9987 64.0768C86.0884 63.4342 86.2079 62.8574 86.3571 62.3464C86.5211 58.1531 87.0026 54.1014 87.8016 50.1914C88.6032 46.2169 89.4344 42.3082 90.2954 38.4652L91.7405 31.253C92.2173 30.6255 92.6195 30.2536 92.9471 30.1372C93.3417 29.9588 93.6643 29.9714 93.9148 30.175C94.2323 30.3167 94.5138 30.5538 94.7592 30.8865C95.0046 31.2191 95.2178 31.5505 95.3987 31.8806C95.5227 32.0147 95.6144 32.1475 95.6739 32.279C95.7334 32.4106 95.8498 32.7382 96.0231 33.2619ZM152.687 61.6451C149.497 63.911 146.22 65.915 142.857 67.6572C139.56 69.3374 136.331 70.9556 133.169 72.5118C132.444 72.8711 131.885 73.14 131.49 73.3184C131.098 73.4323 130.737 73.5797 130.407 73.7606C130.144 73.8795 129.813 74.0605 129.416 74.3034C129.022 74.4818 128.461 74.7829 127.733 75.2067C127.798 75.2092 127.993 75.1846 128.318 75.1327C128.643 75.0808 129.648 74.9908 131.333 74.8629C133.095 74.4149 134.884 74.0972 136.7 73.9098C138.519 73.6579 140.432 73.4743 142.44 73.3589C142.633 73.3665 142.826 73.4063 143.017 73.4784C143.275 73.4885 143.501 73.4973 143.694 73.5049C144.404 73.5327 145.108 73.6894 145.808 73.9752C146.51 74.1965 147.101 74.7688 147.582 75.6922L147.332 77.1361L139.449 82.9336C139.124 82.9855 138.827 83.1354 138.559 83.3834C138.229 83.5643 137.963 83.7477 137.762 83.9337C137.563 84.0552 137.367 84.1121 137.174 84.1045C135.861 84.6347 134.481 85.2268 133.034 85.8809C131.651 86.5376 130.269 87.1943 128.886 87.8509C128.157 88.3393 127.397 88.7618 126.608 89.1186C125.818 89.4754 125.03 89.8 124.244 90.0923C123.981 90.2112 123.751 90.2991 123.555 90.3561C123.359 90.413 123.129 90.5009 122.866 90.6199C125.127 90.6437 127.328 90.5359 129.469 90.2966C131.608 90.1218 133.748 89.9148 135.89 89.6755C136.801 89.5172 137.84 89.3641 139.009 89.2159C140.243 89.0703 141.41 88.9545 142.512 88.8683C142.77 88.8784 142.994 88.9195 143.185 88.9916C145.069 88.7422 146.887 88.5225 148.638 88.3326C150.455 88.1452 152.302 87.9913 154.181 87.8709C154.694 87.9556 155.21 87.9758 155.729 87.9315C156.31 87.9542 156.827 87.9421 157.281 87.8953C157.931 87.7915 158.581 87.6877 159.232 87.5839C159.879 87.5446 160.746 87.6754 161.833 87.9763L163.395 90.1696C162.169 90.1216 161.457 90.1584 161.258 90.2799C161.124 90.4038 160.959 90.4943 160.763 90.5512C160.436 90.6677 160.141 90.7531 159.881 90.8075C159.682 90.9289 159.357 90.9808 158.906 90.9632C157.737 91.1113 156.5 91.3537 155.194 91.6903C154.346 91.9155 153.628 92.0813 153.043 92.1876C152.455 92.3585 151.709 92.4262 150.806 92.3909C148.927 92.5113 146.951 92.6601 144.876 92.8374C142.864 93.0818 140.98 93.3312 139.226 93.5856C139.03 93.6426 138.803 93.666 138.545 93.6559C138.351 93.6484 138.189 93.6743 138.057 93.7338C137.74 93.5921 137.386 93.546 136.997 93.5954C136.607 93.6447 136.216 93.7264 135.824 93.8403C135.169 94.0731 134.454 94.1744 133.68 94.1441C133.548 94.2035 133.354 94.2282 133.096 94.2181C132.838 94.2081 132.643 94.2327 132.511 94.2922C130.563 94.5391 128.681 94.7562 126.865 94.9436C125.046 95.1956 123.104 95.2811 121.04 95.2004C120.459 95.1777 119.88 95.1228 119.302 95.0355C118.721 95.0128 118.109 94.9566 117.467 94.8669C116.576 94.509 115.688 94.0866 114.803 93.5997C113.982 93.1153 113.14 92.3394 112.277 91.2718L113.506 89.5754C115.154 88.7353 116.833 87.9287 118.544 87.1557C120.254 86.3826 121.963 85.6418 123.67 84.9333C125.904 83.9868 128.073 83.0379 130.178 82.0864C132.35 81.073 134.496 79.897 136.615 78.5585C136.551 78.5559 136.485 78.5857 136.418 78.6477C136.418 78.6477 136.386 78.6464 136.321 78.6439C134.634 78.8363 133.012 78.9991 131.456 79.132C129.965 79.2676 128.338 79.5593 126.576 80.0073C126.254 79.9947 125.931 79.9821 125.609 79.9694C125.286 79.9568 124.962 79.9765 124.637 80.0284C123.99 80.0676 123.31 80.1057 122.598 80.1424C121.952 80.1172 121.278 80.0262 120.573 79.8694C119.933 79.7152 119.297 79.4642 118.664 79.1164C118.099 78.7066 117.572 78.1368 117.083 77.407L116.958 75.6576C117.618 75.2957 118.344 74.9042 119.136 74.4828C119.995 73.9995 120.722 73.5757 121.318 73.2113C122.241 72.7306 123.198 72.2188 124.189 71.676C125.243 71.1358 126.267 70.562 127.26 69.9547C127.714 69.9079 128.14 69.763 128.537 69.5201C128.934 69.2772 129.299 69.033 129.632 68.7876C130.032 68.4802 130.429 68.2373 130.823 68.0589C131.283 67.883 131.771 67.7729 132.29 67.7285C132.618 67.6121 132.881 67.4932 133.079 67.3717C133.28 67.1858 133.545 67.0346 133.872 66.9182C134.798 66.3729 135.785 65.9269 136.832 65.5802C137.882 65.169 138.969 64.63 140.094 63.9632L143.456 62.2533C141.766 62.5103 139.777 62.9817 137.489 63.6675C135.203 64.2889 133.304 64.9253 131.793 65.5769C131.723 65.7034 131.621 65.8287 131.487 65.9527C131.152 66.2626 130.818 66.5403 130.486 66.7857C130.217 67.0337 129.692 67.2393 128.911 67.4026C127.479 67.6696 126.298 67.3004 125.368 66.2949C124.999 65.8281 124.789 65.4 124.74 65.0104C124.691 64.6208 124.777 64.075 124.998 63.3729C127.247 62.0394 129.611 61.0658 132.09 60.452C134.634 59.8408 137.113 59.227 139.528 58.6107C139.657 58.6158 139.819 58.5898 140.015 58.5329C140.211 58.4759 140.407 58.419 140.603 58.362C140.931 58.2456 141.224 58.1925 141.482 58.2026C141.743 58.1481 142.034 58.1272 142.357 58.1399C142.55 58.1474 142.81 58.1253 143.135 58.0734C143.524 58.024 143.947 57.9436 144.404 57.8323C144.925 57.7234 145.509 57.6493 146.157 57.6101C146.807 57.5063 147.519 57.4695 148.294 57.4998C149.068 57.5301 149.868 57.7229 150.694 58.0782C151.52 58.4336 152.306 58.9812 153.053 59.7211L152.687 61.6451ZM121.876 39.1187C121.454 40.0067 120.989 41.1515 120.482 42.5531C120.039 43.9573 119.531 45.3911 118.957 46.8547C118.599 47.7453 118.241 48.6358 117.883 49.5264C117.592 50.355 117.267 51.2468 116.906 52.2018C116.904 52.2664 116.868 52.3619 116.798 52.4884C116.793 52.6174 116.789 52.7142 116.787 52.7787C117.112 52.7268 117.372 52.6724 117.568 52.6154C117.829 52.561 118.123 52.4756 118.451 52.3592C118.907 52.2478 119.332 52.1352 119.724 52.0213C120.183 51.8454 120.64 51.734 121.094 51.6872C121.359 51.5037 121.621 51.4171 121.879 51.4272C122.14 51.3727 122.431 51.3518 122.754 51.3645C122.883 51.3695 123.012 51.3745 123.141 51.3796C123.337 51.3226 123.538 51.1367 123.744 50.8217L127.262 50.087C127.587 50.0351 127.848 49.9807 128.044 49.9237C128.304 49.8693 128.499 49.8446 128.628 49.8497L131.62 50.1605C131.111 51.6267 130.589 52.5754 130.055 53.0068C129.586 53.4407 129.059 53.7109 128.473 53.8172C128.145 53.9336 127.819 54.0177 127.494 54.0696C127.233 54.1241 127.036 54.2133 126.902 54.3372C124.867 55.1622 122.835 55.8904 120.808 56.5218C118.847 57.0912 116.893 57.4994 114.945 57.7463C113.977 57.7084 113.118 57.3841 112.366 56.7732C111.682 56.1003 111.228 55.3073 111.005 54.394C111.306 53.3074 111.676 52.1265 112.113 50.8514C112.551 49.5763 113.019 48.3347 113.519 47.1267L113.422 47.1229C113.929 45.7213 114.401 44.3829 114.839 43.1078C115.341 41.8352 115.785 40.3988 116.17 38.7986L117.199 37.2882C115.692 37.8108 114.249 38.3681 112.869 38.9603C111.491 39.4879 110.078 40.1111 108.628 40.8297C107.532 40.7868 106.769 40.4662 106.34 39.868C105.976 39.2722 105.645 38.6455 105.347 37.9877C105.35 37.9232 105.323 37.7929 105.266 37.5969C105.273 37.4033 105.278 37.2743 105.281 37.2098C105.696 36.5153 106.166 36.0491 106.692 35.8113C107.219 35.5734 107.742 35.4 108.263 35.2912C108.527 35.1723 108.821 35.0869 109.146 35.035C109.471 34.9831 109.7 34.8951 109.834 34.7711C110.227 34.6573 110.619 34.5434 111.011 34.4295C111.405 34.2511 111.831 34.1062 112.288 33.9948C113.402 33.5861 114.515 33.2097 115.627 32.8655C116.741 32.4568 117.754 32.1734 118.665 32.0151C119.583 31.6634 120.465 31.4071 121.312 31.2464C122.225 31.0237 123.074 30.7984 123.858 30.5707C124.25 30.4568 124.673 30.3764 125.127 30.3295C125.646 30.2852 126.197 30.2422 126.78 30.2003C127.561 30.0371 128.375 29.8751 129.222 29.7143C130.07 29.4891 130.755 29.322 131.276 29.2132C131.604 29.0968 132.09 29.0512 132.736 29.0764C133.448 29.0397 134.022 29.2237 134.458 29.6284L135.868 30.7496C135.51 31.6402 135.003 32.2341 134.345 32.5314C133.752 32.8313 133.162 33.0344 132.577 33.1407C131.926 33.2445 131.47 33.3559 131.207 33.4748C129.187 33.9127 127.23 34.3853 125.336 34.8928C123.51 35.3382 121.648 35.847 119.752 36.4189C120.263 36.5681 120.738 36.8128 121.177 37.153C121.619 37.4288 121.89 37.924 121.992 38.6386L121.876 39.1187ZM160.168 26.4664C159.378 28.503 158.676 30.737 158.064 33.1683C157.517 35.6021 156.97 38.0359 156.422 40.4697C156.039 42.0053 155.691 43.4778 155.377 44.8869C155.064 46.2961 154.715 47.7685 154.332 49.3042L153.919 49.9665C153.571 50.599 153.162 51.1322 152.693 51.5661C152.224 52 151.319 51.997 149.98 51.5569C149.995 51.1698 149.908 50.908 149.72 50.7714C149.596 50.6374 149.439 50.502 149.251 50.3654C149.408 49.6608 149.536 48.8582 149.636 47.9576C149.8 47.0595 149.963 46.1936 150.125 45.36C150.282 44.6554 150.408 43.9173 150.503 43.1457C150.664 42.312 150.824 41.5429 150.98 40.8384C151.05 40.7119 151.09 40.5196 151.1 40.2615C151.105 40.1325 151.112 39.939 151.123 39.6809C151.2 39.3609 151.354 38.7208 151.585 37.7607C150.737 37.986 150.311 38.1308 150.308 38.1953C150.308 38.1953 150.209 38.2561 150.011 38.3775C149.288 38.6723 148.633 38.9052 148.045 39.076C147.457 39.2468 146.967 39.3892 146.574 39.5031C146.051 39.6764 145.495 39.8485 144.907 40.0193C144.321 40.1257 143.734 40.2642 143.146 40.4351C141.379 41.0121 139.577 41.6523 137.74 42.3558C135.971 42.9973 134.225 43.8659 132.502 44.9615C131.909 45.2614 131.455 45.3082 131.14 45.1021C130.889 44.8985 130.609 44.6291 130.299 44.2939L129.191 42.8937C128.948 42.4966 128.802 42.1032 128.752 41.7136C128.768 41.3265 128.977 40.9148 129.382 40.4783C129.186 40.5353 129.186 40.5353 129.382 40.4783C129.581 40.3569 129.845 40.2057 130.175 40.0247C130.57 39.8463 130.965 39.6679 131.359 39.4895C131.818 39.3137 132.179 39.1663 132.443 39.0473C133.17 38.6235 133.829 38.2939 134.42 38.0586C135.075 37.8257 135.729 37.6252 136.381 37.4569C136.704 37.4695 136.899 37.4448 136.966 37.3828C137.164 37.2614 137.524 37.1462 138.045 37.0374C138.966 36.6211 139.589 36.387 139.914 36.3351C140.306 36.2212 140.666 36.1061 140.994 35.9897C141.386 35.8758 141.777 35.7942 142.166 35.7448C142.556 35.6954 142.85 35.61 143.049 35.4885C143.376 35.3721 143.865 35.262 144.515 35.1582C146.019 34.7002 147.523 34.2421 149.027 33.784C150.596 33.3285 151.951 32.5415 153.093 31.4232C153.242 30.9121 153.357 30.4643 153.436 30.0798C153.581 29.6978 153.725 29.3157 153.869 28.9337C154.033 28.0356 154.229 27.171 154.455 26.3399C154.748 25.4468 155.24 24.4323 155.931 23.2963C156.829 23.4606 157.723 23.7218 158.614 24.0796C159.571 24.3755 160.128 25.0111 160.284 25.9863L160.168 26.4664ZM136.252 18.4563C136.217 19.3594 135.937 19.8977 135.414 20.071C134.957 20.1824 134.438 20.2267 133.858 20.204C133.535 20.1914 133.177 20.2743 132.782 20.4527C131.871 20.6109 130.993 20.7704 130.147 20.9311C129.3 21.0919 128.39 21.2501 127.414 21.4058C124.68 21.945 121.878 22.5461 119.009 23.2092C116.143 23.8079 113.364 24.6361 110.674 25.6939C110.445 26.5895 110.132 27.1587 109.735 27.4016C109.34 27.58 108.882 27.7236 108.361 27.8325C108.23 27.892 108.066 27.9502 107.87 28.0071C107.741 28.0021 107.511 28.09 107.181 28.2709C106.735 28.1242 106.415 28.0471 106.221 28.0395C106.028 28.032 105.8 28.0554 105.54 28.1098C104.629 28.268 103.756 28.2985 102.92 28.2012C102.148 28.1064 101.626 27.4076 101.354 26.1047C101.27 24.9385 101.493 24.2041 102.022 23.9018C102.55 23.5994 103.172 23.3976 103.887 23.2963C104.083 23.2393 104.279 23.1824 104.475 23.1254C104.736 23.071 104.933 22.9818 105.067 22.8578C105.459 22.744 105.756 22.594 105.957 22.4081C106.55 22.1082 107.142 21.8406 107.733 21.6053C108.326 21.3054 109.044 21.1074 109.888 21.0111L111.653 20.4987C111.975 20.5113 112.202 20.4878 112.334 20.4284C112.532 20.3069 112.696 20.2487 112.825 20.2538C113.021 20.1968 113.218 20.1076 113.417 19.9862C114.727 19.5205 115.936 19.1801 117.043 18.965C118.152 18.6853 119.387 18.5074 120.747 18.4314C121.6 18.0771 122.483 17.8209 123.393 17.6627C124.371 17.4424 125.25 17.283 126.029 17.1842C126.421 17.0703 126.844 16.99 127.298 16.9431C127.752 16.8963 128.273 16.7874 128.862 16.6166C129.643 16.4533 130.291 16.414 130.805 16.4987C131.383 16.586 131.927 16.7042 132.438 16.8534C133.269 17.0797 134.237 17.1175 135.341 16.9669L136.252 18.4563Z" fill="#BBF027"/>
<path d="M44.2619 37.278C43.1797 40.6402 42.3877 43.9364 41.8859 47.1668C41.3842 50.3972 40.9149 53.692 40.4783 57.0512C40.3524 57.762 40.2591 58.5372 40.1984 59.3768C40.1374 60.1518 40.0765 60.9591 40.0157 61.7987C39.6398 64.3183 39.2001 66.9996 38.6966 69.8427C38.1928 72.6211 37.6876 75.1091 37.1811 77.3065L36.4108 78.2784C36.2828 78.5373 36.1549 78.7961 36.027 79.0549C35.8987 79.2492 35.8035 79.6047 35.7413 80.1215C35.0989 80.8346 34.5838 81.1275 34.1958 81.0001C33.8721 80.8079 33.5477 80.4543 33.2225 79.9393L32.6388 79.3609C32.9516 77.1643 33.2326 75.0648 33.4817 73.0622C33.7306 70.9951 33.9465 68.799 34.1296 66.474C34.3218 66.1503 34.4489 65.6978 34.5108 65.1164C34.5727 64.5351 34.5381 64.0187 34.4069 63.5674C34.5979 62.9855 34.6927 62.5331 34.6912 62.2103C34.7543 61.8872 34.8174 61.5641 34.8805 61.241C34.943 60.7888 34.9729 60.2722 34.9703 59.6911C35.0322 59.1098 35.1251 58.2378 35.2489 57.0751C35.1204 57.2048 34.9917 57.3022 34.8629 57.3674C34.7983 57.3677 34.7016 57.4004 34.5728 57.4655C33.8641 57.7916 33.1231 58.1178 32.3498 58.4441C31.5763 58.7059 30.8347 58.9029 30.1251 59.0353C29.8035 59.295 29.4493 59.4903 29.0625 59.6212C28.74 59.6872 28.4177 59.7855 28.0955 59.9161C27.8375 59.9819 27.5151 60.0802 27.1284 60.2111C26.7416 60.3419 26.3548 60.4728 25.968 60.6037C25.581 60.67 25.1618 60.7688 24.7104 60.9C22.0667 61.6222 19.2942 62.4419 16.3931 63.359C13.492 64.276 10.8826 65.45 8.56489 66.881C7.72471 66.6911 7.04506 66.3068 6.52593 65.7281C6.00679 65.1495 5.48722 64.4739 4.9672 63.7015L4.38395 63.22C5.27927 61.3436 6.04532 59.4355 6.6821 57.4958C7.31859 55.4914 7.82669 53.6491 8.20641 51.9688C8.65421 51.0629 8.94077 50.19 9.06606 49.3501C9.19136 48.5102 9.31651 47.638 9.44151 46.7336C9.50343 46.1523 9.56578 45.6678 9.62858 45.2801C9.69108 44.8279 9.78601 44.4078 9.91336 44.0199C9.97675 43.7613 10.0074 43.4061 10.0053 42.9542C10.0039 42.6314 10.0023 42.2763 10.0005 41.8889C9.99873 41.5015 10.0617 41.1462 10.1893 40.8228L7.28939 41.9981C6.06479 42.4556 4.99954 42.4605 4.09363 42.0127C3.25199 41.5 2.66697 40.6311 2.33858 39.4059L3.39633 37.7547C3.71854 37.6242 4.10532 37.4933 4.55666 37.3621C5.00799 37.2309 5.39491 37.1323 5.71742 37.0663C9.32724 35.8231 12.4864 34.8726 15.1951 34.2146C17.9034 33.4921 20.4824 32.7379 22.9322 31.952C23.6418 31.8196 24.3189 31.6551 24.9637 31.4585C25.6084 31.2619 26.3505 31.1939 27.1901 31.2547L28.3562 32.121L28.3632 33.6704C26.2377 34.7777 24.1438 35.7233 22.0814 36.5075C20.0187 37.2271 17.9882 37.9465 15.9901 38.6658C14.9586 38.9933 14.0239 39.3204 13.1861 39.647C13.3804 39.7752 13.5424 39.9036 13.6721 40.0322C13.8018 40.1607 13.9638 40.2891 14.158 40.4173L14.9363 41.1885C14.6264 44.0307 14.1886 47.1316 13.6229 50.4914C13.1217 53.851 12.4252 56.8563 11.5334 59.5074C15.4029 58.5859 19.3045 57.5997 23.238 56.5487C27.1712 55.4333 30.8458 54.2544 34.262 53.0122C34.3905 52.8824 34.5516 52.8172 34.7453 52.8163C35.0032 52.7505 35.2288 52.6527 35.4218 52.5227C35.4864 52.5224 35.5508 52.4898 35.6151 52.4249C35.6796 52.4246 35.7762 52.3596 35.9047 52.2299C35.9675 51.8423 36.0294 51.2609 36.0905 50.4859C36.2161 49.7106 36.3422 49.0644 36.469 48.5473C36.5934 47.5138 36.7177 46.4479 36.8418 45.3498C36.9656 44.1871 37.2187 43.0561 37.6011 41.9568C37.5996 41.634 37.6301 41.2465 37.6926 40.7943C37.7551 40.3421 37.9469 39.9215 38.2679 39.5327C38.2635 38.5643 38.4202 37.5306 38.738 36.4316C39.0558 35.3326 39.8584 34.3605 41.1458 33.5153L42.6046 34.8645C42.9286 35.1213 43.2203 35.3782 43.4797 35.6352C43.7388 35.8277 43.9663 36.1495 44.162 36.6006L44.2619 37.278Z" fill="#BBF027"/>
</svg>
