<svg width="524" height="105" viewBox="0 0 524 105" fill="none" xmlns="http://www.w3.org/2000/svg">
<path d="M47.8236 36.6707C47.5476 37.5043 47.3677 38.3723 47.2839 39.2746C47.2139 39.5314 47.1418 39.885 47.0677 40.3355C46.9949 40.7214 46.9221 41.1073 46.8493 41.4932C46.7766 41.8791 46.7052 42.2005 46.6351 42.4573C46.631 42.651 46.6297 42.7155 46.631 42.651C46.9524 42.7224 47.2744 42.7615 47.5972 42.7683C47.3871 43.5388 47.1811 44.1156 46.9792 44.4988C46.8419 44.8833 46.706 45.2033 46.5714 45.4587C46.4382 45.6496 46.305 45.8405 46.1718 46.0314C46.0399 46.1578 45.8751 46.3157 45.6774 46.5053C45.5373 47.0189 45.4288 47.5655 45.3519 48.145C45.3396 48.7259 45.3279 49.2746 45.317 49.791L44.8 51.3298C44.5885 52.1648 44.4416 53.0012 44.3592 53.8389C44.2782 54.6121 44.1972 55.3853 44.1162 56.1585C43.9569 57.5758 43.7675 58.8956 43.5478 60.1178C43.3295 61.2756 42.7499 62.7162 41.8093 64.4398C41.2325 64.2338 40.657 63.9633 40.083 63.6282C39.5089 63.2931 39.1971 62.7699 39.1477 62.0585C39.0941 61.5408 39.0405 61.023 38.9869 60.5053C38.9979 59.9889 39.0082 59.5048 39.0178 59.053C39.0452 57.762 39.1331 56.6661 39.2814 55.7652C39.4956 54.8011 39.7111 53.7725 39.9281 52.6793C40.1423 51.7152 40.3215 50.8795 40.4657 50.1722C40.6099 49.465 40.7245 48.6279 40.8096 47.6611C40.355 47.7806 39.8998 47.9323 39.4439 48.1164C38.9893 48.2359 38.5347 48.3554 38.0801 48.4749C35.2868 49.255 32.5237 50.1327 29.7908 51.1078C27.1238 52.0198 24.5749 53.4509 22.1442 55.4011C21.1087 55.5083 20.3087 55.1684 19.7442 54.3815C19.1798 53.5946 18.743 52.875 18.434 52.2227C20.8716 49.9497 23.4239 48.3572 26.0909 47.4453C28.7592 46.4687 31.3596 45.6522 33.892 44.9957C34.7366 44.7553 35.516 44.5458 36.2301 44.3673C37.0088 44.1901 37.7882 43.9806 38.5682 43.7389L40.517 43.1991C40.7106 43.2032 40.9042 43.2073 41.0979 43.2115C41.3574 43.1524 41.5531 43.0597 41.685 42.9333C41.7151 41.5133 41.8703 40.2897 42.1504 39.2624C42.2932 38.6197 42.436 37.9769 42.5788 37.3342C42.7216 36.6915 42.769 35.9822 42.7209 35.2062C43.6396 34.5154 44.581 34.2771 45.5451 34.4913C46.5092 34.7055 47.2426 35.1408 47.7453 35.7973L47.8236 36.6707ZM15.4243 52.5462C15.0083 53.8934 14.7529 55.2764 14.6582 56.695C14.5648 58.0492 14.5038 59.404 14.475 60.7594C14.4626 61.3404 14.4496 61.9536 14.4359 62.599C14.4235 63.18 14.3796 63.7279 14.3041 64.2429C14.4346 64.1811 14.5643 64.1516 14.6934 64.1543C14.8871 64.1584 15.0491 64.1296 15.1796 64.0678C16.9979 63.5898 18.8505 63.0157 20.7374 62.3454C22.7535 61.6779 24.672 61.0406 26.493 60.4336C28.3786 59.8279 30.1646 59.3492 31.851 58.9976C32.2383 59.0058 32.5253 59.1733 32.7121 59.5002C32.8989 59.827 32.9882 60.1841 32.98 60.5714C32.9717 60.9587 32.899 61.3446 32.7616 61.7291C32.6243 62.1136 32.4582 62.3361 32.2631 62.3966C30.8239 63.2701 29.4204 63.9829 28.0526 64.535C26.6861 65.0226 25.2867 65.5417 23.8543 66.0925C23.0084 66.3974 22.1947 66.703 21.4133 67.0093C20.6964 67.3169 19.9143 67.6555 19.0669 68.0249L11.6551 70.3859C11.0742 70.3736 10.5935 70.2019 10.2131 69.871C9.8986 69.4768 9.58409 69.0827 9.26959 68.6886L8.79577 68.1942C8.87677 67.421 8.95914 66.5833 9.04289 65.681C9.128 64.7141 9.21106 63.8441 9.29206 63.0709C9.54329 60.3641 9.79247 57.7541 10.0396 55.2408C10.2881 52.6631 10.9575 50.0297 12.0478 47.3407C12.1137 47.2775 12.1481 47.1813 12.1508 47.0523C12.1549 46.8586 12.1913 46.6657 12.26 46.4734C12.4014 45.8952 12.606 45.3829 12.8738 44.9366C13.2061 44.4916 13.8289 44.0528 14.7422 43.6202C16.5344 44.3686 17.4161 45.4206 17.3873 46.776C17.3764 47.2924 17.2356 47.8383 16.9651 48.4138C16.7605 48.926 16.5236 49.4376 16.2544 49.9485C15.6502 51.0334 15.3735 51.8993 15.4243 52.5462ZM57.9835 37.1771C57.7955 39.9499 57.4831 42.494 57.0465 44.8095C56.6098 47.125 56.1395 49.5043 55.6356 51.9475C55.4914 52.6547 55.315 53.3613 55.1063 54.0672C54.9621 54.7745 54.8179 55.4818 54.6737 56.189C54.6696 56.3827 54.6319 56.6402 54.5605 56.9615C54.4904 57.2184 54.4204 57.4752 54.3504 57.732C54.2776 58.1179 54.2055 58.4715 54.1341 58.7929C54.0627 59.1143 53.959 59.4349 53.8231 59.7549C53.6803 60.3977 53.569 61.0733 53.4894 61.782C53.4757 62.4275 53.4304 63.04 53.3535 63.6195C53.1942 65.0368 53.002 66.4857 52.7768 67.9661C52.5517 69.4466 52.0333 71.05 51.2217 72.7763C51.1572 72.7749 51.0597 72.8051 50.9292 72.867C50.8001 72.8642 50.7033 72.8622 50.6387 72.8608C50.3133 72.983 49.9898 73.0084 49.6685 72.937C49.3471 72.8656 48.9317 72.6631 48.4221 72.3294L48.2882 69.5175C48.2276 66.2874 48.4191 63.3532 48.8626 60.7151C49.3075 58.0123 49.8169 55.3109 50.3909 52.6109C50.5296 52.1619 50.636 51.7121 50.7101 51.2616C50.7843 50.8112 50.8914 50.3291 51.0314 49.8155C50.9655 49.8787 50.9346 49.8134 50.9387 49.6198C51.0088 49.363 51.0472 49.0732 51.0541 48.7505C51.1268 48.3646 51.1996 47.9787 51.2724 47.5927C51.3452 47.2068 51.4166 46.8855 51.4866 46.6287C51.4893 46.4996 51.4921 46.3705 51.4948 46.2414C51.5621 46.1137 51.5964 46.0175 51.5978 45.953C52.0194 44.3475 52.3434 42.7723 52.57 41.2273C52.8611 39.6837 52.9297 37.9738 52.7758 36.0979C52.9131 35.7133 53.242 35.4297 53.7625 35.2471C54.3476 35.0658 54.9292 35.0458 55.5073 35.1873C56.0869 35.2642 56.6314 35.4694 57.1409 35.8032C57.6518 36.0723 57.9334 36.498 57.9856 37.0803L57.9835 37.1771ZM27.4315 34.494C26.3178 35.2452 25.3372 35.8056 24.4899 36.175C23.6439 36.4799 22.7334 36.7835 21.7584 37.0856C21.1747 37.2024 20.6226 37.3521 20.1021 37.5348C19.5816 37.7174 19.0282 37.9317 18.4418 38.1775C17.6604 38.4838 16.8467 38.7894 16.0007 39.0943C15.1561 39.3347 14.3115 39.5751 13.4669 39.8154C12.1005 40.303 10.7663 40.7913 9.46439 41.2802C8.2284 41.706 6.95671 42.2924 5.64932 43.0396C4.74566 43.0204 4.07272 42.7801 3.63049 42.3186C3.25418 41.794 2.94173 41.3031 2.69314 40.8458C1.99821 40.1207 1.88214 39.5047 2.34494 38.998C2.80911 38.4266 3.49508 38.0538 4.40284 37.8793C8.11218 36.5374 11.6897 35.3219 15.1353 34.2328C18.581 33.1436 22.3137 32.2219 26.3334 31.4679C26.6493 31.7974 26.8395 31.9629 26.9041 31.9643C27.2859 32.2307 27.6024 32.528 27.8538 32.8562C28.171 33.1213 28.0303 33.6672 27.4315 34.494ZM78.6327 48.6583C78.5957 50.4011 78.4928 52.207 78.3239 54.0761C78.1564 55.8807 77.8935 57.6187 77.5351 59.29C77.7837 59.7473 77.8393 60.1683 77.702 60.5528C77.566 60.8728 77.3985 61.1598 77.1994 61.4139C77.1321 61.5416 77.0655 61.6371 76.9996 61.7002C76.5821 63.112 75.7767 64.5479 74.5833 66.0078C73.3913 67.4031 72.0757 68.5376 70.6365 69.411C70.116 69.5937 69.4355 69.7084 68.595 69.7551C67.7559 69.7373 67.0514 69.464 66.4814 68.9353C65.7892 68.0811 65.2927 67.1342 64.992 66.0946C64.6912 65.055 64.5524 63.9866 64.5757 62.8893C64.6059 61.4692 64.7288 60.2449 64.9443 59.2163C65.2258 58.1245 65.473 57.1288 65.6858 56.2292L66.2008 54.7872C66.6855 53.2477 67.2362 51.645 67.8528 49.9791C68.4693 48.3132 69.2789 46.6838 70.2814 45.0907C69.9614 44.9547 69.7718 44.7569 69.7128 44.4974C69.6551 44.1733 69.9229 43.7269 70.5161 43.1584C70.8443 42.907 71.1705 42.7525 71.4946 42.6948C71.8187 42.6371 72.1428 42.5794 72.4669 42.5218C72.596 42.5245 72.7574 42.5279 72.951 42.532C73.2106 42.473 73.4063 42.3803 73.5381 42.2539C74.439 42.4022 75.1752 42.7084 75.7465 43.1726C76.3837 43.5736 76.8898 44.0687 77.2648 44.6578C77.6397 45.247 77.9171 45.8663 78.0971 46.5159C78.277 47.1655 78.4576 47.7828 78.6389 48.3678L78.6327 48.6583ZM94.3505 47.4424C94.1459 47.9546 93.9715 48.5644 93.8273 49.2717C93.7477 49.9803 93.6681 50.689 93.5884 51.3976C93.583 51.6558 93.5768 51.9463 93.5699 52.269C93.5631 52.5917 93.5246 52.8815 93.4546 53.1383C93.4327 54.1711 93.3496 55.0411 93.2054 55.7484C93.1272 56.3925 93.0153 57.1004 92.8697 57.8722C92.7297 58.3859 92.6212 58.9325 92.5443 59.512C92.5333 60.0284 92.4901 60.5441 92.4146 61.0591C92.2718 61.7018 92.1935 62.3459 92.1798 62.9914C92.1674 63.5723 92.1544 64.1855 92.1407 64.831C92.1119 66.1864 91.987 67.5076 91.7659 68.7944C91.6094 70.0826 91.067 71.298 90.1386 72.4407L87.4071 73.3513C87.4194 72.7704 87.4029 72.0274 87.3576 71.1224C87.3768 70.2187 87.3919 69.5087 87.4028 68.9923C87.4851 65.1195 87.7294 61.2179 88.1358 57.2873C88.5422 53.3568 89.0138 49.3954 89.5506 45.4031C89.7868 43.4063 90.0236 41.3772 90.2611 39.3158C90.5646 37.1912 90.8014 35.1621 90.9716 33.2285C91.5017 32.594 92.0256 32.2499 92.5434 32.1964C93.0611 32.1428 93.5755 32.2506 94.0863 32.5197C95.2977 33.2558 95.9267 34.0441 95.9734 34.8846C96.0847 35.7264 96.0675 36.5332 95.922 37.3051C95.8506 37.6264 95.7778 38.0123 95.7036 38.4628C95.6954 38.8501 95.7201 39.2058 95.7778 39.5299C95.4414 40.1685 95.2313 40.9389 95.1476 41.8412C95.0652 42.6789 94.9856 43.3876 94.9087 43.9671C94.8991 44.419 94.8558 44.9347 94.7789 45.5142C94.7666 46.0951 94.6924 46.5456 94.5565 46.8656L94.3505 47.4424ZM69.6846 64.0633C69.7491 64.0647 69.8144 64.0338 69.8803 63.9706C69.9448 63.972 69.9778 63.9404 69.9791 63.8758C71.1766 62.2223 72.0555 60.3683 72.6158 58.3137C73.2419 56.196 73.5783 54.0399 73.625 51.8453C73.6359 51.3289 73.6455 50.8771 73.6538 50.4898C73.6634 50.038 73.6414 49.5532 73.5878 49.0355C73.3832 49.5477 73.2122 49.9961 73.0749 50.3807C72.9376 50.7652 72.7666 51.2136 72.562 51.7259C72.2778 52.9468 71.7676 54.1629 71.0315 55.3742C70.1966 58.1978 69.7559 60.7069 69.7093 62.9015L69.6846 64.0633ZM151.788 47.6939C151.774 48.3394 151.666 48.8537 151.464 49.2369C151.327 49.6214 151.254 50.0396 151.244 50.4914C150.969 51.2605 150.758 52.0955 150.61 52.9964C150.526 53.8987 150.411 54.768 150.264 55.6044C150.119 56.3117 149.974 57.0835 149.827 57.9199C149.746 58.693 149.536 59.4635 149.197 60.2312C149.127 60.488 149.088 60.7778 149.081 61.1005C149.076 61.3587 149.038 61.6162 148.968 61.873C148.821 62.7094 148.641 63.5773 148.428 64.4769C148.282 65.3133 147.94 66.1778 147.405 67.0705C147.461 67.4591 147.451 67.911 147.376 68.426C147.366 68.8778 147.229 69.2623 146.964 69.5796L146.81 72.2885L146.496 73.3473L145.996 74.1116C145.658 74.8148 145.42 75.3909 145.281 75.84C145.207 76.2904 145.238 76.3557 145.374 76.0357C145.436 76.1661 145.33 76.5836 145.057 77.2882C144.853 77.7359 144.748 78.1211 144.742 78.4438C144.736 78.702 144.666 78.9588 144.531 79.2143C144.461 79.4711 144.262 79.7252 143.934 79.9765C143.606 80.2278 143.05 80.5389 142.268 80.9097L141.619 79.5399C141.366 79.2762 141.178 79.0139 141.054 78.753C140.93 78.492 141.003 78.1384 141.27 77.6921C141.29 76.7884 141.338 76.0145 141.417 75.3704C141.496 74.6618 141.608 73.9538 141.752 73.2465C141.898 72.4747 142.01 71.7345 142.09 71.0259C142.171 70.2527 142.221 69.4142 142.24 68.5106C142.453 67.611 142.634 66.7108 142.782 65.8099C142.995 64.9104 143.208 63.9785 143.423 63.0145C143.847 61.2799 144.273 59.4486 144.702 57.5204C145.13 55.5922 145.523 53.7924 145.882 52.1211L143.935 52.564C142.758 53.2494 141.715 53.7438 140.804 54.0473C139.894 54.3509 139.05 54.559 138.272 54.6716C137.623 54.8515 137.071 55.0012 136.616 55.1207C136.162 55.2402 135.739 55.3604 135.349 55.4813C134.374 55.7835 133.431 56.0863 132.521 56.3898C131.612 56.6288 130.603 56.9949 129.495 57.4879L128.572 55.3373C128.143 54.2304 128.158 53.5204 128.617 53.2073C129.142 52.8309 129.762 52.489 130.479 52.1813C130.869 52.0605 131.195 51.9382 131.456 51.8146C131.649 51.8187 131.811 51.7899 131.942 51.7281C132.072 51.6663 132.203 51.5722 132.335 51.4458C132.923 51.1354 133.412 50.9198 133.802 50.7989C134.257 50.6795 134.808 50.562 135.456 50.4466C135.521 50.448 135.585 50.4494 135.65 50.4507C135.78 50.3889 136.008 50.2969 136.334 50.1747C136.724 50.0538 137.114 49.9329 137.504 49.8121C137.894 49.6912 138.283 49.6026 138.672 49.5463C138.804 49.42 138.966 49.3911 139.158 49.4598C139.416 49.4653 139.675 49.4385 139.935 49.3794C140.257 49.3863 140.614 49.297 141.006 49.1116C141.396 48.9907 141.721 48.8685 141.982 48.7449C142.959 48.3781 143.903 48.0107 144.815 47.6427C145.792 47.2114 146.544 46.7753 147.07 46.3345C147.206 46.0145 147.28 45.5963 147.291 45.0799C147.302 44.5636 147.313 44.0472 147.324 43.5308C147.344 42.5626 147.429 41.5958 147.579 40.6303C147.793 39.6662 148.265 38.7399 148.994 37.8513C149.955 38.1946 150.657 38.6293 151.097 39.1552C151.603 39.6826 151.946 40.2388 152.127 40.8238C152.309 41.4088 152.393 42.0241 152.379 42.6696C152.366 43.2505 152.321 43.863 152.243 44.5071C152.103 45.0207 151.994 45.5673 151.917 46.1469C151.842 46.6619 151.799 47.1776 151.788 47.6939ZM116.436 56.6293C115.489 58.6756 114.561 61.3035 113.654 64.5131C113.031 66.4371 112.344 68.3921 111.592 70.378C111.59 70.4425 111.556 70.5386 111.489 70.6664C111.487 70.7309 111.485 70.8277 111.482 70.9568C111.807 70.8991 112.066 70.8401 112.261 70.7796C112.521 70.7206 112.813 70.6299 113.139 70.5077C113.658 70.3896 114.113 70.2378 114.504 70.0524C114.96 69.8683 115.414 69.7811 115.866 69.7907C117.296 69.3691 118.724 69.0119 120.151 68.7194C121.579 68.3623 122.976 67.9722 124.341 67.5491C124.595 67.7483 124.787 67.8492 124.916 67.852C125.109 67.8561 125.304 67.8279 125.499 67.7675C125.823 67.7098 126.082 67.6507 126.277 67.5903C126.537 67.5312 126.731 67.5031 126.86 67.5058L129.858 67.7632C129.374 69.2382 128.805 70.1947 128.15 70.6329C127.561 71.0078 126.974 71.2859 126.389 71.4672C126.063 71.5894 125.738 71.6794 125.414 71.7371C125.155 71.7962 124.959 71.8889 124.827 72.0152C123.785 72.4451 122.581 72.8716 121.216 73.2946C119.916 73.719 118.551 74.1098 117.123 74.4669C115.759 74.8254 114.396 75.1516 113.034 75.4455C111.737 75.6763 110.604 75.8459 109.633 75.9544C108.729 75.9353 107.896 75.627 107.134 75.0296C106.438 74.369 105.937 73.6158 105.632 72.7698C105.982 71.4857 106.365 70.2023 106.779 68.9196C107.194 67.6369 107.609 66.3542 108.024 65.0715C108.571 63.5979 109.021 62.1868 109.373 60.8381C109.789 59.4909 110.208 57.9823 110.631 56.3123L112.43 53.7352C112.559 53.7379 112.752 53.7743 113.008 53.8443C113.267 53.8498 113.46 53.8539 113.589 53.8567C114.233 53.9349 114.843 54.1093 115.419 54.3798C116.059 54.6517 116.434 55.2086 116.545 56.0505L116.436 56.6293ZM136.459 26.0582C136.439 26.9619 136.17 27.4728 135.651 27.5909C135.197 27.7104 134.679 27.764 134.098 27.7516C133.84 27.7461 133.515 27.8361 133.123 28.0215C132.214 28.2605 131.274 28.4665 130.301 28.6396C129.329 28.8127 128.389 28.9864 127.481 29.1609C124.756 29.7487 121.934 30.3668 119.015 31.0152C116.159 31.6648 113.396 32.5748 110.723 33.7449C110.51 34.6445 110.208 35.1869 109.817 35.3724C109.49 35.5591 109.067 35.7116 108.548 35.8297C108.417 35.8915 108.255 35.9526 108.06 36.0131C107.866 36.009 107.606 36.1003 107.279 36.2871C106.572 36.1429 106.056 36.0997 105.732 36.1574C105.277 36.2769 104.823 36.3641 104.37 36.419C103.917 36.474 103.497 36.4651 103.112 36.3923C102.727 36.255 102.376 36.0538 102.059 35.7887C101.808 35.4605 101.592 34.9716 101.412 34.322C101.309 33.0929 101.519 32.3225 102.042 32.0107C102.63 31.7003 103.28 31.4881 103.993 31.3741C104.188 31.3137 104.383 31.2532 104.578 31.1928C104.838 31.1337 105.033 31.041 105.165 30.9147C105.296 30.8529 105.458 30.7917 105.653 30.7313C105.85 30.6063 106.013 30.5129 106.144 30.4511C106.666 30.2039 107.22 29.9574 107.806 29.7115C108.394 29.4011 109.109 29.1903 109.951 29.079L111.609 28.5331C111.996 28.5413 112.32 28.4836 112.581 28.36C112.907 28.2378 113.2 28.1149 113.461 27.9912C114.698 27.5009 115.869 27.1061 116.973 26.8066C118.142 26.5086 119.373 26.3087 120.667 26.207C121.577 25.9035 122.486 25.6645 123.394 25.4901C124.368 25.2525 125.211 25.0766 125.924 24.9626C126.314 24.8418 126.735 24.7539 127.189 24.6989C127.706 24.6453 128.258 24.5279 128.843 24.3466C129.557 24.168 130.236 24.1179 130.88 24.1961C131.524 24.2744 132.135 24.3843 132.713 24.5257C133.484 24.7358 134.42 24.7557 135.521 24.5853L136.459 26.0582ZM129.797 38.7027C130.122 38.5805 130.576 38.5255 131.157 38.5379C131.803 38.4871 132.414 38.6292 132.988 38.9642L134.123 40.2476C133.781 41.1444 133.348 41.7487 132.825 42.0604C132.303 42.3077 131.751 42.4896 131.167 42.6064C130.519 42.7218 130.064 42.8413 129.803 42.9649C125.713 43.9758 121.751 45.054 117.917 46.1995C114.147 47.3463 110.434 48.8818 106.777 50.806C105.679 50.7827 104.91 50.5081 104.47 49.9821C104.095 49.3929 103.753 48.7399 103.446 48.0231C103.447 47.9585 103.418 47.8287 103.357 47.6337C103.361 47.4401 103.364 47.311 103.365 47.2464C103.768 46.5447 104.23 46.0701 104.752 45.8229C105.273 45.5757 105.794 45.393 106.313 45.2749C106.574 45.1513 106.867 45.0607 107.191 45.003C107.515 44.9453 107.742 44.8855 107.873 44.8237C108.263 44.7029 108.686 44.5504 109.141 44.3664C109.662 44.1837 110.118 43.9997 110.509 43.8142C111.616 43.3857 112.722 42.9895 113.828 42.6255C114.935 42.197 115.974 41.8962 116.947 41.7231C117.859 41.355 118.736 41.0831 119.579 40.9073C120.489 40.6683 121.332 40.4602 122.111 40.283C122.501 40.1621 122.923 40.0742 123.376 40.0193C123.894 39.9657 124.444 39.9128 125.026 39.8606C125.806 39.6189 126.65 39.4108 127.558 39.2363C128.531 38.9987 129.278 38.8209 129.797 38.7027Z" fill="#689AFF"/>
<path d="M199.481 18.3618C199.456 19.5022 199.372 20.6413 199.228 21.7791C199.084 22.9169 198.94 24.0247 198.797 25.1025C198.789 25.4626 198.72 25.8815 198.59 26.359C198.771 26.3029 198.921 26.306 199.04 26.3686C199.219 26.4325 199.399 26.4363 199.58 26.3801C199.762 26.3239 200.004 26.239 200.306 26.1253C200.609 26.0116 201.002 25.8999 201.484 25.7901L204.902 26.0428C204.41 26.5728 204.131 26.9872 204.065 27.286C203.998 27.5848 203.843 27.8217 203.599 27.9966C202.929 28.4628 202.502 28.7539 202.32 28.8701C202.137 28.9864 201.955 29.0726 201.774 29.1288L200.13 30.1747C199.161 30.5744 198.401 31.0386 197.849 31.5673C197.712 32.345 197.637 33.064 197.623 33.7242C197.609 34.3844 197.565 35.044 197.491 35.7029C197.335 37.3809 197.149 39.0582 196.934 40.7349C196.719 42.3516 196.113 44.05 195.114 45.8302C195.053 45.8889 194.961 45.9771 194.838 46.0945C194.777 46.1533 194.715 46.242 194.652 46.3608C194.161 46.8908 193.609 47.4195 192.998 47.9469C192.447 48.4156 191.753 48.581 190.915 48.4431C190.375 48.4316 189.778 48.2988 189.122 48.0447C188.527 47.7919 187.936 47.389 187.347 46.8361C186.302 45.1326 185.802 43.2605 185.845 41.2199C185.873 39.8995 186.08 38.6129 186.467 37.3601C187.035 36.0512 187.353 35.2173 187.421 34.8585C187.486 34.6197 187.49 34.4396 187.433 34.3183C187.923 33.8484 188.445 33.319 188.997 32.7303C189.612 32.0829 190.015 31.491 190.206 30.9546C190.576 30.4821 190.975 30.1003 191.401 29.8091C191.889 29.4592 192.376 29.1393 192.863 28.8494C193.105 28.7344 193.257 28.6476 193.319 28.5889C193.38 28.5301 193.502 28.4426 193.685 28.3264C194.025 26.4122 194.339 24.3773 194.625 22.2217C194.911 20.0661 195.166 17.9399 195.391 15.8431C195.467 15.0641 195.546 14.1951 195.626 13.2361C195.767 12.2783 195.874 11.47 195.948 10.811C196.728 10.8276 197.475 10.9936 198.189 11.309C198.964 11.5657 199.616 11.9698 200.145 12.5215L199.481 18.3618ZM206.877 51.7544C207.057 51.7583 207.237 51.7621 207.418 51.7659C207.599 51.7097 207.808 51.7442 208.046 51.8693L209.839 52.2677C209.897 52.329 210.016 52.3916 210.195 52.4554C210.434 52.5205 210.883 52.5601 211.544 52.5741C210.627 53.3352 209.833 53.9489 209.163 54.415C208.493 54.8211 207.886 55.1385 207.341 55.3671C206.856 55.5969 206.372 55.7668 205.889 55.8766C205.406 55.9865 204.894 56.0656 204.353 56.1142C203.569 56.2777 202.815 56.4118 202.093 56.5165C201.43 56.6225 200.887 56.7311 200.464 56.8422C199.558 57.1232 198.862 57.3486 198.378 57.5184C197.896 57.6283 197.443 57.7388 197.02 57.8499C196.538 57.9597 196.145 58.0715 195.842 58.1851C195.601 58.24 195.268 58.3531 194.844 58.5242C194.391 60.0758 194.052 61.9 193.827 63.9968C193.604 66.0336 193.416 67.831 193.263 69.3889C193.255 69.7491 193.159 70.0472 192.973 70.2835C193.019 70.945 192.974 71.6646 192.837 72.4423C192.701 73.22 192.449 73.785 192.081 74.1375C190.692 74.5283 189.706 74.2672 189.125 73.3542C188.605 72.3824 188.426 70.9375 188.587 69.0194C188.495 67.6964 188.55 66.4967 188.753 65.4202C188.958 64.2837 189.225 63.0284 189.554 61.6543C189.388 60.9903 189.464 60.2413 189.782 59.4074C187.427 60.0179 185.04 60.7478 182.62 61.5971C180.2 62.4463 177.869 63.3576 175.626 64.3307C175.316 64.8045 174.919 65.1263 174.435 65.2962C173.952 65.406 173.502 65.3964 173.085 65.2675C172.965 65.2649 172.784 65.2911 172.543 65.346C172.362 65.3422 172.122 65.3671 171.82 65.4207C171.348 65.0504 170.848 64.5594 170.32 63.9478C169.793 63.3361 169.539 62.5801 169.558 61.6799C172.472 60.1806 175.32 58.9501 178.103 57.9884C180.887 56.9667 183.698 56.0657 186.537 55.2854C186.834 55.4118 187.134 55.4482 187.435 55.3945C187.798 55.2821 188.07 55.1678 188.253 55.0516C188.374 54.9942 188.526 54.9373 188.707 54.8811C188.89 54.7649 189.102 54.6493 189.345 54.5344C189.768 54.4233 190.16 54.3415 190.521 54.2892C190.882 54.2368 191.244 54.1544 191.607 54.042L204.177 51.6971C204.538 51.6447 204.869 51.6217 205.169 51.6281C205.469 51.6344 205.769 51.6408 206.069 51.6472C206.369 51.6536 206.639 51.6893 206.877 51.7544ZM183.143 70.8853C183.01 71.4829 182.907 72.0812 182.835 72.6801C182.762 73.279 182.659 73.8773 182.526 74.4749C182.253 76.0303 182.012 77.4963 181.802 78.873C181.653 80.2508 181.623 81.6613 181.713 83.1043C182.435 82.9995 183.219 82.8661 184.063 82.7039C184.966 82.603 185.899 82.4727 186.863 82.313C187.165 82.2594 187.436 82.2051 187.677 82.1502C187.979 82.0965 188.28 82.0429 188.582 81.9892C189.183 81.942 189.755 81.8641 190.298 81.7555C190.901 81.6482 191.533 81.5416 192.196 81.4355C192.86 81.2695 193.583 81.1348 194.366 81.0313C195.21 80.8691 196.113 80.7682 197.075 80.7286C197.196 80.6711 197.287 80.643 197.347 80.6443C197.407 80.6456 197.497 80.6175 197.619 80.56C197.8 80.5038 198.011 80.4482 198.253 80.3933C198.554 80.3397 199.097 80.2311 199.881 80.0676C200.242 80.0153 200.634 79.9635 201.055 79.9124C201.477 79.8613 201.929 79.7809 202.411 79.671L203.948 79.4335C204.25 79.3198 204.642 79.2681 205.122 79.2783C205.602 79.2885 205.992 79.2968 206.292 79.3031C206.777 79.0733 207.2 78.9621 207.56 78.9698C207.982 78.9187 208.402 78.9276 208.821 78.9966C209.598 79.1332 210.229 79.1166 210.713 78.9467L211.973 78.9735C212.214 78.9786 212.396 78.8624 212.521 78.6248L215.308 78.8642L216.548 79.8813L216.699 81.2355C216.578 81.293 216.336 81.3779 215.973 81.4903C215.612 81.5427 215.37 81.5976 215.249 81.6551C214.886 81.7675 214.494 81.8792 214.071 81.9903C213.708 82.1027 213.287 82.1538 212.807 82.1436C212.564 82.2585 212.232 82.3416 211.811 82.3926C211.388 82.5038 210.936 82.5842 210.455 82.634C210.153 82.6877 209.762 82.7394 209.28 82.7892C208.859 82.8403 208.708 82.8672 208.828 82.8697C208.464 83.0421 208.041 83.1832 207.558 83.2931C207.076 83.4029 206.536 83.3914 205.938 83.2586C204.551 83.5294 203.496 83.7472 202.772 83.9119C202.046 84.1367 201.411 84.3634 200.866 84.592C200.268 84.4592 199.817 84.4797 199.513 84.6533C199.268 84.8883 198.815 84.9988 198.155 84.9848C197.975 84.9809 197.735 85.0058 197.433 85.0595C197.132 85.1131 196.527 85.3105 195.619 85.6514C195.378 85.7064 195.166 85.7619 194.985 85.8181C194.803 85.9343 194.502 85.9279 194.085 85.799C191.61 86.4069 189.167 86.9255 186.756 87.3546C184.345 87.7838 181.964 88.2135 179.613 88.644C178.833 88.6274 178.027 88.4001 177.196 87.9621C176.365 87.5242 175.746 86.9706 175.34 86.3015C175.054 85.6349 175.005 85.0934 175.194 84.6771C175.382 84.3208 175.63 83.9658 175.937 83.6121C176.061 83.4346 176.215 83.2577 176.399 83.0815C176.583 82.9052 176.645 82.7865 176.587 82.7252C176.725 81.8875 176.832 81.0791 176.908 80.3002C176.985 79.5212 177.062 78.7122 177.14 77.8732C177.293 76.3153 177.444 74.8774 177.592 73.5595C177.74 72.2416 178.131 70.8088 178.764 69.2611C178.892 68.9035 179.076 68.6973 179.318 68.6424C179.56 68.5274 179.832 68.4731 180.132 68.4795L181.737 69.2342C181.915 69.358 182.121 69.5125 182.358 69.6977C182.655 69.8241 182.891 70.0093 183.066 70.2532L183.143 70.8853ZM183.275 18.0176C183.321 18.6791 183.337 19.3399 183.323 20.0001C183.371 20.6016 183.388 21.2024 183.375 21.8026C183.342 23.3631 183.248 24.9523 183.094 26.5703C182.941 28.1282 182.788 29.6561 182.636 31.1541C182.483 32.712 182.302 34.1793 182.092 35.5559C181.943 36.9338 181.855 38.2529 181.828 39.5133L181.635 40.1397C181.744 40.6224 181.676 41.0112 181.43 41.3062C181.243 41.6025 180.911 41.7155 180.432 41.6453C179.706 41.8701 179.169 41.7386 178.819 41.2508C178.469 40.763 178.269 40.2784 178.219 39.7969C178.106 39.4943 178.054 39.1029 178.064 38.6227C178.067 38.5027 178.038 38.412 177.98 38.3507C177.982 38.2307 177.835 38.1075 177.537 37.9811C177.587 35.6403 177.669 33.2102 177.782 30.6907C177.896 28.1712 178.187 25.7755 178.655 23.5037C178.723 23.1449 178.761 22.7854 178.768 22.4253C178.777 22.0051 178.787 21.555 178.797 21.0748C178.814 20.2946 178.83 19.5444 178.845 18.8241C178.921 18.0452 179.122 17.0887 179.446 15.9547C180.942 16.2267 182.132 16.7023 183.019 17.3816L183.275 18.0176ZM192.275 39.5551L192.568 38.4805C192.702 37.8229 192.807 37.1346 192.882 36.4156C192.959 35.6366 193.063 34.9783 193.194 34.4407C192.329 35.6232 191.7 36.9609 191.308 38.4537C190.916 39.9466 190.711 41.1131 190.693 41.9534C190.685 42.3135 190.709 42.6142 190.764 42.8556C190.819 43.0969 190.873 43.3683 190.927 43.6696C191.353 43.3785 191.635 42.844 191.771 42.0664C191.908 41.2887 192.076 40.4516 192.275 39.5551ZM265.056 30.6532C264.535 32.5636 264.135 34.4166 263.857 36.2121C263.58 37.9475 263.304 39.6229 263.029 41.2383C262.752 42.9738 262.475 44.7393 262.196 46.5347C261.918 48.3302 261.52 50.1231 261.001 51.9135C260.974 53.1739 260.828 54.4317 260.561 55.687C260.295 56.8823 259.82 58.0431 259.136 59.1694C257.985 59.6254 257.293 59.7007 257.059 59.3955C256.826 59.0903 256.655 58.6664 256.546 58.1237L256.289 57.4877C256.315 56.2873 256.365 55.3277 256.441 54.6087C256.517 53.8298 256.624 53.0514 256.76 52.2737C256.832 51.7348 256.903 51.1959 256.975 50.657C257.046 50.1181 257.119 49.5192 257.193 48.8603L257.381 48.504C257.28 47.6012 257.271 46.6102 257.354 45.5312C257.497 44.4534 257.757 43.4982 258.135 42.6655C258.027 42.1228 258.04 41.4926 258.176 40.7749C257.993 40.8912 257.72 41.0355 257.356 41.2079C257.053 41.3215 256.296 41.6357 255.084 42.1504C252.541 43.1172 250.119 44.0865 247.817 45.0583C245.516 45.9702 243.055 47.299 240.436 49.0447C239.779 48.9107 239.126 48.5665 238.477 48.0123C237.888 47.4594 237.391 46.8484 236.985 46.1793C237.666 45.173 238.403 44.438 239.193 43.9745C239.985 43.4509 240.835 42.9886 241.744 42.5876C242.29 42.359 242.776 42.0991 243.202 41.8079C244.533 41.3558 245.955 40.8156 247.47 40.1872C248.502 39.6687 249.532 39.2103 250.561 38.8118C251.592 38.3533 252.589 38.0443 253.553 37.8846C254.584 37.4261 255.615 36.9377 256.647 36.4192C257.679 35.9007 258.654 35.2008 259.574 34.3197C259.405 33.7757 259.446 33.2662 259.696 32.7911C259.824 32.4335 259.894 31.9547 259.907 31.3545C259.921 30.6943 260.024 30.066 260.217 29.4696C260.41 28.8733 260.841 28.342 261.512 27.8759C263.186 28.2117 264.342 28.9268 264.979 30.0211L265.056 30.6532ZM256.24 68.295C256.019 73.0339 255.527 77.8271 254.763 82.6746C254.061 87.4634 253.094 92.0064 251.862 96.3035C251.621 96.3584 251.498 96.4759 251.494 96.656C251.549 96.8973 251.515 97.1067 251.391 97.2842C251.384 97.5843 251.29 97.7925 251.107 97.9087C250.983 98.0862 250.83 98.2631 250.646 98.4393C250.643 98.5594 250.611 98.6487 250.55 98.7075C250.243 99.0012 249.788 99.2317 249.184 99.399C248.579 99.6264 247.919 99.5823 247.205 99.2669C247.518 98.6731 247.679 98.1961 247.686 97.836C247.753 97.5372 247.789 97.2378 247.795 96.9377C247.802 96.6376 247.809 96.3075 247.816 95.9473C247.884 95.5885 247.981 95.2603 248.108 94.9628C248.11 94.8427 248.113 94.7227 248.115 94.6027C248.178 94.4839 248.21 94.3645 248.213 94.2445C248.287 93.5855 248.362 92.8966 248.437 92.1776C248.572 91.46 248.796 90.8042 249.109 90.2104L249.463 86.2549C249.472 85.8347 249.483 85.3546 249.494 84.8144C249.564 84.3355 249.664 83.8873 249.793 83.4697C249.915 83.3522 249.979 83.1735 249.984 82.9334C250.049 82.6946 250.083 82.5152 250.086 82.3951L250.308 80.4183C250.439 79.8807 250.512 79.2818 250.526 78.6216C250.6 77.9627 250.672 77.3938 250.743 76.9149C250.753 76.4347 250.796 75.8052 250.873 75.0262C250.949 74.2472 251.053 73.6189 251.183 73.1413C251.129 72.84 251.076 72.5386 251.022 72.2372C251.029 71.9371 251.065 71.6377 251.131 71.3389L251.137 71.0688C249.268 71.4494 247.397 71.89 245.525 72.3906C243.653 72.8913 241.835 73.6633 240.071 74.7067C239.953 74.6441 239.774 74.5502 239.537 74.4251C239.359 74.3012 239.211 74.208 239.093 74.1454C238.677 73.8964 238.263 73.6174 237.849 73.3084C237.436 72.9994 237.056 72.511 236.71 71.8431C237.089 70.9505 237.491 70.3886 237.916 70.1574C238.403 69.8675 238.918 69.6383 239.462 69.4697C239.522 69.471 239.733 69.4154 240.096 69.303C240.217 69.2456 240.369 69.1887 240.55 69.1325C241.701 68.6766 242.699 68.3075 243.546 68.0253C244.453 67.7443 245.358 67.5234 246.262 67.3624C247.227 67.1428 248.253 66.8944 249.34 66.6172C250.488 66.2813 251.487 65.8822 252.338 65.4199C252.823 65.19 253.305 65.1402 253.782 65.2705C254.321 65.342 254.797 65.5322 255.211 65.8412C255.625 66.1503 255.917 66.5468 256.087 67.0307C256.318 67.456 256.369 67.8774 256.24 68.295ZM232.136 41.2125C231.992 45.1725 231.67 49.0086 231.171 52.7209C230.673 56.3731 230.145 60.0247 229.587 63.6757C229.436 65.1736 229.224 66.6402 228.954 68.0756C228.744 69.4522 228.533 70.9188 228.32 72.4755C228.257 72.5943 228.193 72.773 228.128 73.0118C228.123 73.2519 228.089 73.4313 228.027 73.5501C227.895 74.0877 227.732 74.7147 227.536 75.4311C227.342 76.0875 227.088 76.7726 226.772 77.4865C226.222 77.9552 225.737 78.155 225.318 78.0861C224.959 78.0184 224.663 77.832 224.43 77.5268C224.196 77.2216 224.023 76.8576 223.912 76.435C223.802 75.9523 223.78 75.5915 223.845 75.3527C223.912 75.0539 223.95 74.6644 223.96 74.1843C224.032 73.6454 224.069 73.2859 224.073 73.1058C224.208 72.3882 224.285 71.6092 224.303 70.7689C224.382 69.8699 224.461 69.0009 224.538 68.1619C224.629 66.7227 224.718 65.3436 224.806 64.0244C224.956 62.6465 225.193 61.3606 225.519 60.1666C225.528 59.7465 225.536 59.3563 225.544 58.9962C225.611 58.6374 225.679 58.2786 225.747 57.9197C225.881 57.2621 226.014 56.6344 226.147 56.0368C226.281 55.3791 226.354 54.7502 226.367 54.15C226.44 53.5511 226.483 52.9515 226.496 52.3513C226.57 51.6924 226.643 51.0635 226.716 50.4646C226.87 48.8466 227.023 47.3187 227.173 45.8808C227.325 44.3828 227.389 42.793 227.365 41.1112C227.075 40.6246 227.236 40.1177 227.847 39.5903C228.459 39.0628 229.007 38.7142 229.491 38.5443C229.783 38.9108 230.048 39.1566 230.286 39.2818C230.702 39.4708 231.088 39.6591 231.445 39.8468C231.801 40.0345 232.032 40.4898 232.136 41.2125ZM236.202 15.1789C236.38 18.1249 235.869 20.9663 234.67 23.7029C233.471 26.4395 232.187 28.9342 230.818 31.1869L230.82 31.0968C230.632 31.4531 230.415 31.8088 230.167 32.1638C229.67 32.9338 229.143 33.7033 228.587 34.472C228.091 35.182 227.596 35.8921 227.1 36.6021C226.227 38.1447 225.235 39.5948 224.126 40.9523C223.017 42.2498 221.728 43.6034 220.256 45.0133C220.076 45.0094 219.985 45.0676 219.983 45.1876C219.796 45.4839 219.58 45.7495 219.335 45.9845C219.09 46.2194 218.696 46.3912 218.153 46.4998L217.088 45.7566C216.626 44.9061 216.668 44.3366 217.215 44.048C217.526 43.5142 217.806 43.0698 218.054 42.7148C218.303 42.2997 218.581 41.9153 218.889 41.5616C218.959 41.0827 219.117 40.6958 219.364 40.4008C219.61 40.1058 219.886 39.8414 220.191 39.6077C220.191 39.6077 220.254 39.489 220.379 39.2515C220.564 39.0152 220.75 38.7489 220.936 38.4527C221.123 38.1564 221.309 37.8901 221.494 37.6539C221.679 37.4176 221.772 37.2695 221.773 37.2095L222.978 35.6138C222.983 35.3738 223.047 35.195 223.17 35.0775C223.293 34.9 223.418 34.6925 223.543 34.455C223.604 34.3962 223.698 34.2481 223.823 34.0105L224.01 33.6543C224.259 33.2392 224.508 32.8242 224.757 32.4092C225.006 31.9941 225.254 31.6391 225.501 31.3441C225.935 30.6928 226.493 29.864 227.175 28.8577C227.858 27.7914 228.327 26.9007 228.583 26.1856C228.774 25.6492 228.935 25.1423 229.065 24.6647C229.255 24.1883 229.504 23.8033 229.81 23.5096C229.817 23.2095 229.882 22.9407 230.008 22.7032C230.134 22.4056 230.26 22.1381 230.385 21.9006C230.455 21.4217 230.523 21.0328 230.59 20.734C230.657 20.3752 230.755 20.017 230.883 19.6594C231.079 18.883 231.247 18.0459 231.387 17.1482C231.586 16.2517 231.604 15.4115 231.44 14.6274C231.693 14.0323 232.031 13.6492 232.455 13.4781C232.879 13.3069 233.331 13.2565 233.81 13.3267C234.288 13.3969 234.735 13.5865 235.148 13.8955C235.622 14.2058 235.945 14.543 236.118 14.9069L236.202 15.1789Z" fill="#689AFF"/>
<path d="M413.158 29.434C412.99 30.9798 412.727 32.4587 412.369 33.8705C412.076 35.284 411.752 36.6322 411.397 37.915C410.974 39.3253 410.615 40.8017 410.318 42.3443C410.165 43.3092 409.918 44.1426 409.578 44.8445C409.442 45.0995 409.339 45.3552 409.268 45.6118C409.198 45.8038 409.128 46.0604 409.055 46.3815C411.002 45.9779 412.883 45.6694 414.697 45.4562C416.575 45.2446 418.387 45.0959 420.132 45.0102C420.324 45.0795 420.648 45.0553 421.103 44.9374C421.752 44.8244 422.396 44.8727 423.037 45.0824L423.814 45.0048C424.466 44.7627 425.143 44.7796 425.847 45.0554C425.977 44.9941 426.14 44.9658 426.333 44.9706C426.591 44.977 426.785 44.9819 426.914 44.9851L427.592 45.0019C427.721 45.0051 427.851 44.9761 427.981 44.9147C428.953 44.8097 429.952 44.8669 430.98 45.0862C432.074 45.2426 433.134 45.4627 434.161 45.7465L434.96 48.6725L432.733 48.6172C432.409 48.6737 432.02 48.7286 431.566 48.7819C431.179 48.7723 430.824 48.7634 430.502 48.7554C430.177 48.8119 429.757 48.8338 429.241 48.8209C428.79 48.7452 428.212 48.6339 427.505 48.4872C427.568 48.5533 427.534 48.617 427.404 48.6784C427.339 48.6768 427.242 48.6744 427.113 48.6711L425.755 48.7343C425.365 48.8537 425.105 48.9118 424.976 48.9086C424.847 48.9054 424.588 48.9313 424.199 48.9862C423.81 49.0411 422.872 49.1146 421.384 49.2068C419.569 49.4845 417.656 49.7922 415.646 50.1297C413.7 50.4688 411.558 50.8999 409.22 51.4229C408.833 51.4133 408.606 51.44 408.54 51.5029C408.474 51.5658 408.346 51.4981 408.158 51.2996C407.724 53.1617 407.414 55.2206 407.229 57.4764C407.045 59.6676 406.894 61.8596 406.775 64.0524C406.686 65.0189 406.593 66.179 406.495 67.5328C406.461 68.8882 406.401 70.0168 406.314 70.9188C405.802 70.7123 405.446 70.7358 405.246 70.9891C405.112 71.1796 404.978 71.4022 404.842 71.6572C403.88 71.375 403.245 70.9394 402.937 70.3505C402.695 69.6986 402.55 69.0492 402.501 68.4022C402.504 68.2731 402.475 68.1432 402.414 68.0125C402.417 67.8835 402.42 67.7544 402.424 67.6253C402.432 67.3026 402.407 67.0114 402.349 66.7516C402.357 66.4289 402.365 66.1062 402.373 65.7835C402.323 65.201 402.306 64.5548 402.324 63.8448C402.342 63.1349 402.421 62.5233 402.563 62.0102C402.395 60.9727 402.359 59.8416 402.454 58.617C402.549 57.3923 402.676 56.1684 402.836 54.9453C402.918 54.237 402.999 53.5932 403.078 53.0139C403.158 52.3701 403.207 51.7255 403.223 51.08C403.244 50.241 403.326 49.5327 403.469 48.955C403.614 48.3128 403.792 47.6714 404.001 47.0308L404.214 46.2611L404.575 43.4608C405.063 41.9876 405.35 40.8322 405.436 39.9948L406.805 35.5727C406.82 34.9919 406.865 34.4441 406.943 33.9293C407.02 33.4146 407.131 32.8684 407.274 32.2908C407.421 31.584 407.568 30.8773 407.714 30.1705C407.861 29.4638 407.879 28.7538 407.767 28.0407C408.042 27.4017 408.441 26.9272 408.965 26.6174C409.098 26.4915 409.228 26.4302 409.357 26.4334C409.553 26.3736 409.749 26.2816 409.945 26.1574L410.616 26.4647C411.187 26.8664 411.726 27.2673 412.233 27.6673C412.741 28.0029 413.052 28.495 413.165 29.1436L413.158 29.434ZM390.658 26.5496L390.598 28.9699C387.533 35.3518 383.958 41.4627 379.874 47.3026C375.853 53.1441 371.546 58.8493 366.951 64.4182C366.809 64.9313 366.605 65.346 366.339 65.6623C366.138 65.9802 365.871 66.3288 365.538 66.708C364.941 67.339 364.541 67.8457 364.338 68.2281C364.014 68.2846 363.786 68.3435 363.656 68.4049C363.589 68.4678 363.491 68.5299 363.36 68.5913L360.366 68.2262L361.871 66.1324C362.631 64.1493 363.609 62.4945 364.804 61.168L366.111 59.2631C366.454 58.4321 367.021 57.7358 367.81 57.1741C368.219 56.2802 368.558 55.6428 368.826 55.262C369.095 54.8166 369.363 54.4358 369.629 54.1195C370.092 53.6789 370.428 53.1706 370.636 52.5946C370.909 52.0201 371.213 51.4787 371.548 50.9704C371.882 50.5267 372.151 50.1136 372.354 49.7311C372.622 49.3503 373.027 48.65 373.569 47.6302C373.896 47.4446 374.193 47.1936 374.459 46.8773C374.727 46.4965 374.929 46.1786 375.064 45.9237C375.338 45.2847 376.009 44.3003 377.075 42.9706L377.891 41.3441C378.032 40.831 378.205 40.3832 378.408 40.0008C378.676 39.6199 378.975 39.2722 379.306 38.9575C379.572 38.6412 379.806 38.3241 380.008 38.0062C380.211 37.6238 380.351 37.1752 380.429 36.6605C380.756 36.4749 381.056 36.1271 381.327 35.6172C381.664 35.0444 381.967 34.5353 382.236 34.0899L382.749 32.9402C382.751 32.8756 382.786 32.7796 382.853 32.6522C382.923 32.4601 382.991 32.3004 383.059 32.1729C382.604 32.2908 382.148 32.4409 381.692 32.6233C381.3 32.8073 380.941 32.9598 380.615 33.0808C378.921 33.6845 377.26 34.2567 375.632 34.7975C374.07 35.2753 372.412 35.7184 370.658 36.1269C369.963 35.5283 369.362 34.9968 368.857 34.5321C368.354 34.003 368.046 33.3818 367.935 32.6686C368.215 31.7715 368.649 31.2333 369.234 31.0541C369.884 30.8765 370.565 30.7966 371.275 30.8142C371.855 30.8287 372.31 30.7431 372.637 30.5575L373.808 30.1992C376.087 29.4808 378.301 28.7286 380.452 27.9426C382.667 27.1581 385.146 26.1542 387.889 24.9308L389.327 25.5477L390.658 26.5496ZM384.449 54.1974C383.865 56.8953 383.315 59.5295 382.799 62.0999C382.348 64.6719 381.929 67.2448 381.542 69.8184C381.156 72.3275 380.835 74.8705 380.577 77.4473C380.318 80.0887 380.12 82.8285 379.985 85.6667C379.98 85.8603 379.939 86.2145 379.862 86.7292C379.847 87.3101 379.838 87.6973 379.833 87.891L378.095 87.654L376.464 87.0322C376.175 85.6688 375.983 84.2756 375.89 82.8524C375.794 81.4938 375.765 80.0723 375.802 78.5879C375.861 76.1998 376.049 73.8473 376.365 71.5302C376.681 69.2132 377.028 66.9292 377.407 64.6782C377.559 63.7779 377.678 62.8767 377.765 61.9747C377.917 61.0743 378.068 60.174 378.22 59.2736C378.231 58.8218 378.244 58.3055 378.258 57.7246C378.339 57.0808 378.45 56.5023 378.592 55.9892C378.6 55.6665 378.608 55.3438 378.616 55.0211C378.689 54.7 378.761 54.3789 378.834 54.0578C378.906 53.7367 378.947 53.3825 378.957 52.9953C379.357 52.4886 379.818 52.1448 380.339 51.964C380.86 51.7832 381.378 51.7315 381.893 51.8089C382.407 51.8863 382.887 52.092 383.33 52.4259C383.839 52.7615 384.184 53.1575 384.366 53.6141L384.449 54.1974ZM445.426 38.18C445.383 39.9227 445.273 41.7282 445.098 43.5967C444.924 45.4007 444.655 47.1377 444.29 48.8077C444.537 49.2659 444.591 49.687 444.452 50.0711C444.315 50.3906 444.147 50.677 443.947 50.9304C443.879 51.0578 443.812 51.153 443.746 51.216C443.323 52.6263 442.513 54.0592 441.314 55.5147C440.117 56.9058 438.797 58.0354 437.355 58.9037C436.834 59.0845 436.153 59.1967 435.312 59.2404C434.473 59.2195 433.77 58.9437 433.202 58.4129C432.512 57.5562 432.019 56.6075 431.722 55.5668C431.425 54.5261 431.29 53.4572 431.318 52.36C431.353 50.9401 431.48 49.7162 431.7 48.6883C431.985 47.5976 432.236 46.6028 432.452 45.704L432.972 44.2639C433.463 42.7261 434.019 41.1254 434.642 39.4618C435.264 37.7982 436.08 36.1716 437.088 34.5822C436.768 34.445 436.58 34.2466 436.521 33.9868C436.465 33.6625 436.734 33.2172 437.33 32.6507C437.659 32.4006 437.985 32.2473 438.31 32.1907C438.634 32.1342 438.958 32.0777 439.283 32.0212C439.412 32.0244 439.573 32.0284 439.767 32.0332C440.027 31.9751 440.223 31.8831 440.355 31.7572C441.255 31.9088 441.99 32.2177 442.56 32.6839C443.196 33.0872 443.7 33.5841 444.073 34.1746C444.446 34.7651 444.721 35.3855 444.898 36.0357C445.076 36.686 445.254 37.3039 445.433 37.8896L445.426 38.18ZM461.148 37.0211C460.942 37.5326 460.765 38.1417 460.619 38.8485C460.536 39.5568 460.454 40.2652 460.372 40.9735C460.366 41.2317 460.358 41.5221 460.35 41.8448C460.342 42.1675 460.303 42.4572 460.232 42.7137C460.206 43.7464 460.12 44.6161 459.973 45.3229C459.893 45.9667 459.778 46.6742 459.63 47.4455C459.488 47.9586 459.377 48.5048 459.298 49.0841C459.286 49.6004 459.24 50.1159 459.163 50.6307C459.018 51.2729 458.937 51.9167 458.921 52.5621C458.907 53.143 458.892 53.7561 458.876 54.4015C458.842 55.7569 458.712 57.0776 458.486 58.3636C458.325 59.6512 457.778 60.8647 456.846 62.0039L454.111 62.9047C454.126 62.3238 454.112 61.5808 454.07 60.6756C454.092 59.772 454.11 59.062 454.123 58.5457C454.219 54.6732 454.477 50.7725 454.898 46.8435C455.319 42.9145 455.805 38.9548 456.356 34.9645C456.599 32.9685 456.843 30.9402 457.088 28.8797C457.4 26.7563 457.644 24.7281 457.821 22.795C458.353 22.1624 458.879 21.8203 459.396 21.7686C459.914 21.7169 460.428 21.8266 460.938 22.0976C462.147 22.838 462.773 23.6286 462.817 24.4692C462.925 25.3115 462.905 26.1182 462.757 26.8895C462.684 27.2106 462.61 27.5963 462.534 28.0464C462.524 28.4337 462.548 28.7895 462.604 29.1138C462.266 29.7512 462.053 30.5209 461.966 31.4228C461.88 32.2603 461.798 32.9686 461.719 33.5479C461.708 33.9997 461.663 34.5152 461.584 35.0945C461.569 35.6753 461.494 36.1255 461.356 36.445L461.148 37.0211ZM436.422 53.5525C436.487 53.5541 436.552 53.5235 436.618 53.4605C436.683 53.4621 436.716 53.4307 436.718 53.3661C437.921 51.7169 438.807 49.8661 439.374 47.8136C440.008 45.6982 440.352 43.5433 440.407 41.3489C440.42 40.8325 440.431 40.3807 440.441 39.9935C440.452 39.5417 440.432 39.0568 440.38 38.5389C440.174 39.0504 440.001 39.4982 439.862 39.8822C439.723 40.2663 439.551 40.7141 439.344 41.2256C439.056 42.4454 438.541 43.6597 437.801 44.8683C436.956 47.6889 436.506 50.1964 436.451 52.3908L436.422 53.5525ZM519.19 44.2769C518.779 45.2354 518.398 46.2592 518.048 47.3484C517.698 48.4375 517.506 49.6598 517.473 51.0152L516.805 54.486C516.51 55.964 516.214 57.4743 515.918 59.0169C515.687 60.4965 515.523 61.881 515.427 63.1702C515.412 63.7511 515.366 64.3311 515.287 64.9104C515.274 65.4267 515.228 65.9745 515.149 66.5538C515.142 66.812 515.101 67.1661 515.026 67.6163C515.016 68.0036 514.974 68.39 514.9 68.7757C514.89 69.1629 514.85 69.4848 514.779 69.7414C514.774 69.935 514.774 69.935 514.779 69.7414C514.374 70.4417 514.101 71.0162 513.961 71.4647C513.887 71.8504 513.779 72.2998 513.637 72.8129C513.569 72.9404 513.497 73.2292 513.422 73.6794C513.348 74.065 513.276 74.3539 513.206 74.5459C512.238 74.5218 511.473 74.1153 510.912 73.3263C510.416 72.4745 510.177 71.6935 510.195 70.9836C510.14 68.0115 510.274 65.2055 510.598 62.5657C510.922 59.926 511.28 57.2224 511.672 54.4552C511.83 53.2967 511.984 52.2995 512.134 51.4636C512.284 50.6278 512.439 49.5661 512.6 48.2785C512.536 48.2769 512.47 48.3075 512.404 48.3705C512.404 48.3705 512.372 48.3697 512.307 48.3681L510.94 48.8184C509.835 49.1138 508.73 49.4093 507.624 49.7047C506.521 49.9356 505.416 50.1987 504.311 50.4941C502.165 51.0866 500.02 51.6467 497.876 52.1747C495.731 52.7026 493.613 53.4894 491.52 54.5353C490.63 53.9965 490.091 53.5956 489.903 53.3326C489.718 53.0051 489.564 52.7106 489.441 52.4493L488.887 51.3699C489.153 51.0536 489.288 50.7986 489.293 50.605C489.364 50.3484 489.403 50.0911 489.409 49.8329C492.546 48.361 495.577 47.2416 498.502 46.4748C501.429 45.6434 504.353 44.9089 507.275 44.2712C508.445 43.9773 509.452 43.7441 510.296 43.5713C511.204 43.4001 512.243 43.1677 513.413 42.8738C513.485 42.5527 513.532 41.9727 513.553 41.1336C513.645 40.038 513.769 38.9432 513.925 37.8492C514.082 36.7552 514.528 35.6685 515.266 34.5889C516.992 35.2777 518.003 36.1747 518.299 37.2799C518.596 38.3206 518.731 39.3895 518.703 40.4867C518.689 41.0676 518.674 41.6485 518.66 42.2294C518.71 42.8118 518.887 43.4943 519.19 44.2769ZM477.45 43.82C477.371 46.9826 477.128 50.2702 476.72 53.6828C476.314 57.031 475.849 60.1516 475.325 63.0447C475.191 63.2351 475.086 63.5554 475.01 64.0056C474.999 64.4574 474.954 64.973 474.875 65.5522C474.809 65.6152 474.772 65.808 474.764 66.1307C476.064 65.7755 477.332 65.4519 478.566 65.1596C479.802 64.8029 481.039 64.4139 482.276 63.9926C484.556 63.2097 486.832 62.5559 489.106 62.0312C491.379 61.5066 493.975 61.0222 496.892 60.5781L496.754 62.2215C496.083 63.2381 495.324 63.8973 494.477 64.1991C494.215 64.3218 493.987 64.413 493.792 64.4727C493.598 64.4679 493.334 64.6874 493.001 65.1311L492.226 65.1119C492.024 65.4298 491.793 65.65 491.532 65.7727C491.336 65.8324 491.043 65.922 490.653 66.0415L489.286 66.4918C488.824 66.8678 488.495 67.118 488.298 67.2423C488.103 67.302 487.94 67.3625 487.809 67.4238C487.483 67.5449 487.19 67.6668 486.928 67.7894C486.732 67.9137 486.439 67.971 486.052 67.9614C485.07 68.5182 484.123 68.9144 483.213 69.1501C482.368 69.3874 481.489 69.6562 480.578 69.9564C479.732 70.1937 478.887 70.431 478.041 70.6683C477.198 70.8411 476.449 71.0808 475.795 71.3874C475.344 71.3762 474.822 71.5893 474.23 72.0266C473.31 72.6495 472.461 73.0482 471.681 73.2226C470.902 73.3969 470.273 72.7032 469.796 71.1413C469.552 70.5541 469.373 69.9361 469.26 69.2875C469.212 68.6405 469.195 68.0265 469.209 67.4456C469.241 66.1548 469.402 64.8995 469.69 63.6796C469.981 62.3952 470.301 61.2084 470.651 60.1192C470.719 59.9917 470.754 59.8634 470.757 59.7344C470.761 59.6053 470.796 59.477 470.864 59.3495C471.043 57.352 471.256 55.2584 471.504 53.0688C471.753 50.8792 472.033 48.6904 472.346 46.5024C472.496 45.6666 472.617 44.7009 472.708 43.6053C472.8 42.5097 472.92 41.5762 473.069 40.8049C474.298 40.7063 475.102 40.8555 475.479 41.2524C475.921 41.6508 476.299 42.0477 476.612 42.443C476.67 42.7028 476.827 42.9004 477.082 43.0359L477.45 43.82Z" fill="#689AFF"/>
<path d="M289.711 45.3828H286.453V55.204H289.711V45.3828Z" fill="#689AFF"/>
<path d="M280.69 62.0833L283.344 63.9766L289.026 55.975L286.372 54.0818L280.69 62.0833Z" fill="#689AFF"/>
<path d="M292.716 64.0003L295.281 61.9883L289.243 54.2533L286.677 56.2653L292.716 64.0003Z" fill="#689AFF"/>
<path d="M279.634 49.8053L278.32 52.793L287.287 56.7547L288.601 53.767L279.634 49.8053Z" fill="#689AFF"/>
<path d="M297.635 52.8119L296.395 49.793L287.334 53.5339L288.575 56.5529L297.635 52.8119Z" fill="#689AFF"/>
<path d="M353.395 37.5478C352.215 40.8767 351.326 44.1482 350.73 47.3625C350.133 50.5767 349.567 53.8563 349.032 57.2012C348.885 57.9079 348.769 58.68 348.684 59.5175C348.6 60.2904 348.515 61.0955 348.43 61.9329C347.98 64.4404 347.462 67.1077 346.875 69.9347C346.289 72.6971 345.711 75.1691 345.14 77.3507L344.342 78.2995C344.206 78.5545 344.071 78.8094 343.935 79.0644C343.801 79.2548 343.696 79.6074 343.618 80.1221C342.955 80.816 342.432 81.0936 342.048 80.9549C341.73 80.7532 341.416 80.3902 341.106 79.8659L340.539 79.2706C340.917 77.0842 341.259 74.9938 341.567 72.9994C341.877 70.9405 342.157 68.7517 342.409 66.4331C342.61 66.1152 342.751 65.6666 342.83 65.0873C342.909 64.5081 342.889 63.9909 342.771 63.5359C342.979 62.9599 343.087 62.5105 343.095 62.1878C343.168 61.8667 343.241 61.5456 343.313 61.2245C343.389 60.7743 343.434 60.2588 343.449 59.6779C343.527 59.0986 343.646 58.2297 343.804 57.0712C343.672 57.1971 343.54 57.2907 343.409 57.352C343.345 57.3504 343.247 57.3802 343.117 57.4416C342.399 57.7466 341.648 58.0509 340.866 58.3543C340.085 58.5932 339.338 58.7684 338.625 58.8798C338.296 59.13 337.936 59.3148 337.545 59.4342C337.221 59.4907 336.896 59.5795 336.57 59.7006C336.31 59.7587 335.985 59.8475 335.595 59.9669C335.204 60.0864 334.814 60.2058 334.423 60.3253C334.034 60.3802 333.613 60.4666 333.158 60.5844C330.494 61.2286 327.698 61.9663 324.771 62.7977C321.845 63.629 319.202 64.7258 316.843 66.0879C316.009 65.8734 315.341 65.4693 314.839 64.8756C314.337 64.2819 313.837 63.5913 313.34 62.804L312.772 62.3055C313.722 60.4563 314.544 58.5716 315.237 56.6514C315.932 54.6666 316.494 52.84 316.923 51.1716C317.398 50.2792 317.71 49.4152 317.86 48.5793C318.01 47.7435 318.16 46.8754 318.312 45.975C318.391 45.3958 318.468 44.9133 318.542 44.5277C318.617 44.0775 318.725 43.6604 318.863 43.2763C318.934 43.0198 318.975 42.6656 318.987 42.2138C318.995 41.8911 319.004 41.5361 319.013 41.1489C319.023 40.7616 319.096 40.4082 319.233 40.0888L316.3 41.1783C315.063 41.5996 313.998 41.5731 313.105 41.0988C312.279 40.5616 311.72 39.6759 311.428 38.4416L312.533 36.8222C312.859 36.7012 313.25 36.5817 313.705 36.4639C314.16 36.346 314.55 36.2588 314.874 36.2023C318.519 35.0659 321.704 34.2087 324.431 33.6307C327.16 32.9882 329.76 32.3102 332.232 31.5967C332.945 31.4852 333.626 31.3407 334.277 31.1632C334.927 30.9856 335.671 30.9395 336.508 31.0249L337.648 31.9251L337.61 33.4741C335.453 34.5183 333.332 35.402 331.247 36.1252C329.164 36.7837 327.113 37.4431 325.095 38.1033C324.054 38.4004 323.11 38.6998 322.263 39.0016C322.454 39.1355 322.612 39.2686 322.738 39.4009C322.864 39.5332 323.022 39.6663 323.212 39.8002L323.967 40.594C323.574 43.4258 323.045 46.5125 322.381 49.8542C321.781 53.1976 320.997 56.1811 320.027 58.8048C323.922 57.9975 327.851 57.1265 331.814 56.1918C335.778 55.1925 339.486 54.1222 342.937 52.981C343.069 52.8551 343.232 52.7946 343.426 52.7994C343.686 52.7413 343.914 52.6501 344.111 52.5258C344.175 52.5274 344.241 52.4968 344.307 52.4338C344.371 52.4354 344.47 52.3733 344.602 52.2474C344.676 51.8618 344.755 51.2825 344.839 50.5096C344.987 49.7383 345.132 49.0961 345.274 48.583C345.429 47.5536 345.585 46.4918 345.741 45.3978C345.899 44.2393 346.185 43.1162 346.6 42.0287C346.608 41.706 346.65 41.3195 346.726 40.8693C346.801 40.4191 347.005 40.0044 347.338 39.6252C347.362 38.6571 347.549 37.6285 347.899 36.5393C348.249 35.4501 349.08 34.502 350.391 33.6951L351.81 35.0866C352.126 35.3528 352.41 35.6182 352.662 35.8827C352.915 36.0828 353.133 36.4111 353.315 36.8677L353.395 37.5478Z" fill="#689AFF"/>
</svg>
