<svg width="819" height="203" viewBox="0 0 819 203" fill="none" xmlns="http://www.w3.org/2000/svg">
<path d="M171.885 127.249C172.821 136.297 174.069 142.537 175.629 145.969C177.189 149.401 179.685 151.585 183.117 152.521V155.329H146.145V152.521C149.577 151.429 151.839 149.167 152.931 145.735C154.179 142.147 154.491 135.985 153.867 127.249C153.243 120.853 152.229 108.997 150.825 91.6809C149.577 74.2089 148.407 58.3749 147.315 44.1789L145.677 22.8849L94.197 155.563H89.985L29.379 21.4809C24.075 76.3929 20.955 109.231 20.019 119.995C18.927 131.851 18.927 139.963 20.019 144.331C21.267 148.543 24.231 151.351 28.911 152.755V155.563H0.362984V152.755C8.94299 150.259 14.169 139.651 16.041 120.931C17.913 101.119 20.643 73.3509 24.231 37.6269C25.011 31.0749 25.089 25.3809 24.465 20.5449C23.217 11.8089 19.707 6.42687 13.935 4.39887V0.888861H38.271L99.345 133.099L150.825 0.888861H175.395V4.39887C171.027 5.95887 167.985 8.53287 166.269 12.1209C164.709 15.5529 164.007 19.0629 164.163 22.6509C164.475 27.9549 165.567 44.3349 167.439 71.7909C169.467 99.0909 170.949 117.577 171.885 127.249ZM286.26 125.845C286.26 135.049 286.806 141.367 287.898 144.799C289.146 148.231 291.564 150.493 295.152 151.585V154.393H291.642C285.402 154.393 280.02 152.209 275.496 147.841C271.128 143.317 268.944 137.935 268.944 131.695V127.951C268.32 128.731 267.54 129.745 266.604 130.993C265.668 132.241 263.484 134.581 260.052 138.013C256.776 141.289 253.422 144.175 249.99 146.671C246.558 149.167 242.112 151.507 236.652 153.691C231.348 155.719 226.044 156.733 220.74 156.733C212.004 156.733 204.594 154.159 198.51 149.011C192.426 143.707 189.384 136.453 189.384 127.249C189.384 122.725 190.32 118.591 192.192 114.847C194.064 111.103 196.404 107.983 199.212 105.487C202.02 102.835 205.764 100.417 210.444 98.2329C215.28 95.8929 219.804 94.0209 224.016 92.6169C228.228 91.0569 233.454 89.4189 239.694 87.7029L268.944 79.7469C268.944 68.6709 266.214 60.0129 260.754 53.7729C255.45 47.5329 248.04 44.4129 238.524 44.4129C234 44.4129 229.866 45.5829 226.122 47.9229C222.534 50.1069 219.648 52.7589 217.464 55.8789C215.436 58.8429 213.486 61.8069 211.614 64.7709C209.742 67.7349 207.714 69.9189 205.53 71.3229C203.502 72.7269 201.24 72.8829 198.744 71.7909C194.844 70.0749 194.61 66.4869 198.042 61.0269C202.566 53.5389 210.366 47.8449 221.442 43.9449C228.15 41.7609 235.092 40.6689 242.268 40.6689C256.308 40.6689 267.15 44.0229 274.794 50.7309C282.438 57.2829 286.26 67.3449 286.26 80.9169V125.845ZM268.944 122.803V82.7889L240.63 90.5109C235.794 91.7589 231.582 93.1629 227.994 94.7229C224.406 96.1269 220.818 98.0769 217.23 100.573C213.642 102.913 210.912 105.799 209.04 109.231C207.168 112.663 206.232 116.563 206.232 120.931C206.232 128.263 208.416 134.503 212.784 139.651C217.308 144.799 222.768 147.373 229.164 147.373C233.844 147.373 238.446 146.515 242.97 144.799C247.494 143.083 251.238 141.055 254.202 138.715C257.166 136.219 259.818 133.801 262.158 131.461C264.498 128.965 266.214 126.859 267.306 125.143L268.944 122.803ZM401.426 125.845C401.426 135.049 402.05 141.367 403.298 144.799C404.546 148.231 406.886 150.493 410.318 151.585V154.393H374.984V151.585C378.416 150.493 380.756 148.231 382.004 144.799C383.252 141.367 383.876 135.049 383.876 125.845V80.2149C383.876 69.1389 381.38 61.0269 376.388 55.8789C371.552 50.5749 364.922 47.9229 356.498 47.9229C351.974 47.9229 347.372 49.3269 342.692 52.1349C338.168 54.7869 334.736 57.5169 332.396 60.3249L328.886 64.3029V125.845C328.886 134.893 329.51 141.211 330.758 144.799C332.162 148.231 334.58 150.493 338.012 151.585V154.393H302.444V151.585C306.032 150.493 308.372 148.231 309.464 144.799C310.712 141.367 311.336 135.049 311.336 125.845V74.3649C311.336 66.8769 310.634 61.8069 309.23 59.1549C307.982 56.5029 305.72 54.9429 302.444 54.4749V51.1989L326.078 42.0729H328.886V59.1549C329.198 58.6869 329.666 58.0629 330.29 57.2829C331.07 56.3469 332.552 54.8649 334.736 52.8369C337.076 50.6529 339.494 48.7809 341.99 47.2209C344.642 45.5049 348.074 44.0229 352.286 42.7749C356.654 41.3709 361.178 40.6689 365.858 40.6689C377.09 40.6689 385.826 43.9449 392.066 50.4969C398.306 57.0489 401.426 66.7989 401.426 79.7469V125.845ZM522.154 123.037L524.26 124.909C508.816 146.125 491.11 156.733 471.142 156.733C464.902 156.733 458.662 155.563 452.422 153.223C446.338 150.883 440.644 147.529 435.34 143.161C430.192 138.793 425.98 133.021 422.704 125.845C419.584 118.513 418.024 110.401 418.024 101.509C418.024 83.7249 423.796 69.1389 435.34 57.7509C447.04 46.3629 460.924 40.6689 476.992 40.6689C490.72 40.6689 501.64 44.4909 509.752 52.1349C517.864 59.7789 522.076 69.1389 522.388 80.2149H434.638C434.17 83.6469 433.936 87.1569 433.936 90.7449C433.936 106.189 438.304 118.669 447.04 128.185C455.932 137.701 467.632 142.459 482.14 142.459C497.272 142.459 510.61 135.985 522.154 123.037ZM469.738 44.6469C460.534 44.4909 452.968 47.4549 447.04 53.5389C441.112 59.6229 437.212 67.5789 435.34 77.4069H504.37C503.122 68.9829 499.378 61.4169 493.138 54.7089C487.054 48.0009 479.254 44.6469 469.738 44.6469ZM602.9 139.183C626.768 140.587 638.702 147.919 638.702 161.179C638.702 169.291 635.504 176.545 629.108 182.941C622.868 189.493 614.99 194.407 605.474 197.683C596.114 200.959 586.286 202.597 575.99 202.597C562.886 202.597 551.654 200.179 542.294 195.343C532.934 190.507 527.318 183.643 525.446 174.751C524.822 173.659 524.666 172.333 524.978 170.773C525.29 169.213 525.446 167.887 525.446 166.795C525.446 165.859 525.758 164.689 526.382 163.285C527.162 162.037 527.708 160.945 528.02 160.009C528.488 159.229 529.268 158.293 530.36 157.201C531.452 156.109 532.232 155.251 532.7 154.627C533.324 153.847 534.182 152.989 535.274 152.053C536.522 150.961 537.458 150.181 538.082 149.713C538.706 149.245 539.564 148.621 540.656 147.841C541.748 146.905 542.45 146.281 542.762 145.969C539.954 143.161 538.55 139.651 538.55 135.439C538.55 131.695 539.954 128.341 542.762 125.377C545.57 122.413 549.626 119.137 554.93 115.549C541.826 108.841 535.274 97.9209 535.274 82.7889C535.274 71.2449 539.72 61.3389 548.612 53.0709C557.66 44.6469 568.034 40.4349 579.734 40.4349C585.974 40.4349 591.746 41.2149 597.05 42.7749C605.318 32.1669 613.352 27.3309 621.152 28.2669C623.492 28.5789 624.974 29.8269 625.598 32.0109C626.222 34.0389 625.832 35.9109 624.428 37.6269C623.18 39.1869 621.386 39.7329 619.046 39.2649C609.842 36.9249 603.368 38.4849 599.624 43.9449C606.956 46.7529 612.806 51.0429 617.174 56.8149C621.698 62.5869 623.96 69.9969 623.96 79.0449C623.96 87.1569 621.542 94.5669 616.706 101.275C611.87 107.983 606.098 112.975 599.39 116.251C592.682 119.527 586.13 121.165 579.734 121.165C572.09 121.165 564.836 119.761 557.972 116.953C555.944 118.357 554.462 119.449 553.526 120.229C552.59 121.009 551.732 122.023 550.952 123.271C550.172 124.363 549.782 125.533 549.782 126.781C550.094 133.021 558.362 136.531 574.586 137.311L602.9 139.183ZM551.654 72.9609C551.654 79.8249 552.824 86.6109 555.164 93.3189C557.66 99.8709 561.404 105.565 566.396 110.401C571.544 115.237 577.394 117.655 583.946 117.655C591.902 117.655 597.83 115.003 601.73 109.699C605.786 104.239 607.814 97.3749 607.814 89.1069C607.814 82.0869 606.488 75.1449 603.836 68.2809C601.184 61.2609 597.206 55.3329 591.902 50.4969C586.598 45.6609 580.748 43.3989 574.352 43.7109C566.708 44.0229 561.014 46.9089 557.27 52.3689C553.526 57.6729 551.654 64.5369 551.654 72.9609ZM577.394 199.555C585.194 199.555 593.072 198.385 601.028 196.045C608.984 193.705 615.77 190.195 621.386 185.515C627.158 180.991 630.044 175.921 630.044 170.305C630.044 165.157 627.938 161.569 623.726 159.541C619.514 157.669 612.494 156.421 602.666 155.797C586.91 155.173 576.458 154.627 571.31 154.159C559.298 153.535 550.718 151.429 545.57 147.841C541.67 150.649 539.642 154.939 539.486 160.711C539.33 166.639 540.578 172.411 543.23 178.027C546.038 183.799 550.484 188.791 556.568 193.003C562.808 197.371 569.75 199.555 577.394 199.555ZM741.876 123.037L743.982 124.909C728.538 146.125 710.832 156.733 690.864 156.733C684.624 156.733 678.384 155.563 672.144 153.223C666.06 150.883 660.366 147.529 655.062 143.161C649.914 138.793 645.702 133.021 642.426 125.845C639.306 118.513 637.746 110.401 637.746 101.509C637.746 83.7249 643.518 69.1389 655.062 57.7509C666.762 46.3629 680.646 40.6689 696.714 40.6689C710.442 40.6689 721.362 44.4909 729.474 52.1349C737.586 59.7789 741.798 69.1389 742.11 80.2149H654.36C653.892 83.6469 653.658 87.1569 653.658 90.7449C653.658 106.189 658.026 118.669 666.762 128.185C675.654 137.701 687.354 142.459 701.862 142.459C716.994 142.459 730.332 135.985 741.876 123.037ZM689.46 44.6469C680.256 44.4909 672.69 47.4549 666.762 53.5389C660.834 59.6229 656.934 67.5789 655.062 77.4069H724.092C722.844 68.9829 719.1 61.4169 712.86 54.7089C706.776 48.0009 698.976 44.6469 689.46 44.6469ZM811.418 42.0729C814.694 42.8529 816.722 44.4909 817.502 46.9869C818.438 49.3269 818.204 51.5109 816.8 53.5389C815.552 55.5669 813.758 56.5809 811.418 56.5809C810.014 56.5809 808.064 56.2689 805.568 55.6449C803.228 54.8649 801.2 54.3969 799.484 54.2409C797.768 53.9289 795.116 54.1629 791.528 54.9429C784.976 56.6589 780.062 62.1189 776.786 71.3229V125.611C776.786 134.659 777.41 140.977 778.658 144.565C780.062 147.997 782.48 150.259 785.912 151.351V154.159H750.344V151.351C753.932 150.259 756.272 147.997 757.364 144.565C758.612 141.133 759.236 134.815 759.236 125.611V74.1309C759.236 66.6429 758.534 61.6509 757.13 59.1549C755.882 56.5029 753.62 54.8649 750.344 54.2409V50.9649L773.978 42.0729H776.786V63.3669C780.218 56.5029 785.288 50.8869 791.996 46.5189C798.704 41.9949 805.178 40.5129 811.418 42.0729Z" fill="#F75BC0"/>
</svg>
