<svg width="103" height="103" viewBox="0 0 103 103" fill="none" xmlns="http://www.w3.org/2000/svg">
<circle cx="51.5329" cy="51.5251" r="51.3844" fill="#D2FF52"/>
<path d="M86.1593 27.7753C95.3107 41.3044 96.2271 59.0293 88.3096 73.4846M12.8109 31.5306C5.12069 46.0511 5.79417 62.0444 15.1237 75.4631" stroke="#333333" stroke-width="0.467578"/>
<path d="M16.2738 28.7191C15.8259 28.1724 15.5453 27.6068 15.432 27.0224C15.3134 26.4316 15.3549 25.8655 15.5563 25.3241C15.7641 24.7775 16.1188 24.2986 16.6204 23.8875C17.2698 23.3551 17.9327 23.0753 18.6088 23.0478C19.2914 23.0151 19.9295 23.2232 20.5229 23.672L19.5776 24.4468C19.2241 24.199 18.8392 24.0899 18.4227 24.1195C18.0127 24.1438 17.6148 24.3141 17.229 24.6304C16.7274 25.0415 16.4645 25.5472 16.4404 26.1475C16.411 26.7414 16.6545 27.3535 17.1709 27.9838C17.6925 28.6205 18.2499 28.986 18.8431 29.0804C19.4363 29.1747 19.9837 29.0163 20.4853 28.6052C20.8711 28.2889 21.1188 27.9353 21.2285 27.5444C21.3382 27.1535 21.3043 26.7513 21.1267 26.3378L22.072 25.563C22.3732 26.2192 22.4459 26.8852 22.2902 27.5611C22.1292 28.2306 21.7305 28.8262 21.0938 29.348C20.5923 29.7591 20.0532 30.0129 19.4765 30.1093C18.9062 30.2004 18.3432 30.1298 17.7873 29.8974C17.2315 29.665 16.727 29.2722 16.2738 28.7191Z" fill="black"/>
<path d="M27.1644 24.1632C26.6059 24.4762 26.0272 24.6339 25.4282 24.6361C24.8364 24.6342 24.2801 24.4742 23.7591 24.1562C23.2414 23.8269 22.81 23.3539 22.4649 22.7371C22.1239 22.1276 21.954 21.5175 21.9553 20.9068C21.9598 20.2847 22.1215 19.7222 22.4404 19.2194C22.7552 18.7093 23.1954 18.2957 23.7612 17.9785C24.3269 17.6614 24.9092 17.5017 25.5082 17.4995C26.1032 17.4901 26.6611 17.6444 27.182 17.9624C27.7102 18.2763 28.1468 18.7417 28.4919 19.3584C28.837 19.9752 29.0037 20.5966 28.992 21.2227C28.9834 21.8376 28.8181 22.402 28.496 22.9162C28.174 23.4304 27.7301 23.846 27.1644 24.1632ZM26.6772 23.2925C27.0326 23.0932 27.3195 22.8228 27.538 22.481C27.7565 22.1393 27.8666 21.7487 27.8685 21.3093C27.8775 20.8657 27.7481 20.4045 27.4802 19.9256C27.2122 19.4467 26.8906 19.0932 26.5153 18.8652C26.14 18.6371 25.7553 18.5286 25.3614 18.5398C24.9634 18.5437 24.5867 18.6452 24.2314 18.8444C23.8687 19.0477 23.5818 19.3182 23.3705 19.6559C23.1625 19.9822 23.0612 20.3631 23.0666 20.7985C23.0721 21.2339 23.2087 21.691 23.4767 22.1699C23.7487 22.6561 24.0651 23.0172 24.4259 23.2534C24.794 23.4856 25.1734 23.6017 25.5641 23.6019C25.9508 23.5948 26.3218 23.4917 26.6772 23.2925Z" fill="black"/>
<path d="M31.3844 12.7162C32.1183 12.3254 32.8317 12.2329 33.5245 12.4386C34.2134 12.6369 34.7801 13.1547 35.2244 13.9919L37.1131 17.5501L36.1223 18.0776L34.3097 14.6627C33.99 14.0605 33.5959 13.6816 33.1274 13.526C32.655 13.3631 32.1583 13.4204 31.6372 13.6979C31.1088 13.9792 30.7745 14.3692 30.6343 14.8677C30.5015 15.3623 30.6027 15.9254 30.9379 16.557L32.7096 19.8948L31.7079 20.4282L28.5036 14.3915L29.5054 13.8581L29.9615 14.7173C29.9959 14.3033 30.1371 13.922 30.385 13.5734C30.6403 13.2208 30.9734 12.9351 31.3844 12.7162Z" fill="black"/>
<path d="M39.7832 11.1899L41.1017 14.9963C41.2105 15.3105 41.3548 15.5112 41.5346 15.5983C41.7116 15.6775 41.965 15.6597 42.2948 15.5449L43.084 15.2701L43.3983 16.1776L42.4325 16.5138C41.8357 16.7216 41.3405 16.7399 40.9469 16.5689C40.5532 16.3978 40.2475 15.998 40.0298 15.3695L38.7113 11.5631L37.875 11.8542L37.5689 10.9704L38.4052 10.6792L37.8418 9.05295L38.9137 8.67978L39.477 10.306L41.1613 9.71963L41.4675 10.6035L39.7832 11.1899Z" fill="black"/>
<path d="M44.7884 11.4328C44.7899 10.7344 44.9325 10.1234 45.2163 9.59965C45.5001 9.06763 45.8875 8.6562 46.3787 8.36536C46.8782 8.07452 47.4314 7.92921 48.0384 7.92941C48.637 7.92961 49.1564 8.05865 49.5966 8.31654C50.0367 8.57443 50.3645 8.89879 50.5799 9.28964L50.5824 8.04249L51.7299 8.04287L51.7158 14.8772L50.5684 14.8768L50.571 13.6048C50.3457 14.0038 50.0083 14.3362 49.5587 14.6021C49.1175 14.8597 48.6017 14.9884 48.0114 14.9882C47.4044 14.988 46.856 14.8382 46.366 14.5387C45.8761 14.2392 45.4903 13.8192 45.2087 13.2787C44.9271 12.7382 44.787 12.1229 44.7884 11.4328ZM50.5754 11.4472C50.5765 10.9317 50.4735 10.4827 50.2664 10.1002C50.0593 9.71765 49.7772 9.42656 49.4201 9.2269C49.0713 9.01892 48.6849 8.91487 48.2608 8.91473C47.8368 8.91459 47.45 9.01423 47.1003 9.21366C46.7507 9.41308 46.4716 9.70399 46.2629 10.0864C46.0543 10.4688 45.9494 10.9177 45.9483 11.4332C45.9473 11.957 46.0503 12.4143 46.2573 12.8052C46.4644 13.1877 46.7423 13.4829 47.0911 13.6909C47.4399 13.8906 47.8264 13.9905 48.2504 13.9906C48.6745 13.9907 49.0613 13.8911 49.4109 13.6917C49.7689 13.4839 50.0522 13.1889 50.2608 12.8065C50.4695 12.4158 50.5744 11.9627 50.5754 11.4472Z" fill="black"/>
<path d="M54.8273 11.4279C55.0018 10.7431 55.2908 10.1816 55.6942 9.7433C56.0996 9.29699 56.5801 8.99402 57.1356 8.83439C57.6992 8.6768 58.2953 8.67753 58.924 8.83659C59.7382 9.04256 60.3569 9.40922 60.7803 9.93656C61.2117 10.4659 61.4227 11.1025 61.4134 11.8463L60.2285 11.5465C60.2183 11.1151 60.0777 10.7408 59.8067 10.4235C59.5438 10.1083 59.1706 9.88952 58.6869 9.76717C58.0582 9.6081 57.4949 9.69716 56.9972 10.0344C56.5015 10.3635 56.153 10.9228 55.9518 11.7124C55.7486 12.51 55.785 13.1753 56.061 13.7083C56.3371 14.2413 56.7895 14.5873 57.4182 14.7463C57.9019 14.8687 58.3336 14.8579 58.7136 14.7138C59.0935 14.5698 59.3973 14.3036 59.6249 13.9153L60.8098 14.215C60.4601 14.8469 59.9668 15.3011 59.3301 15.5774C58.6955 15.8456 57.9791 15.8788 57.1811 15.6769C56.5524 15.5178 56.0281 15.2351 55.6082 14.8287C55.1964 14.4244 54.9192 13.9297 54.7765 13.3447C54.6339 12.7598 54.6508 12.1208 54.8273 11.4279Z" fill="black"/>
<path d="M66.395 11.9518L65.0856 15.5478C64.9774 15.8446 64.9635 16.0791 65.0439 16.251C65.1269 16.4155 65.3243 16.5543 65.6362 16.6673L66.3826 16.9378L66.0704 17.795L65.157 17.464C64.5926 17.2594 64.2166 16.9762 64.029 16.6141C63.8413 16.2521 63.8556 15.7742 64.0718 15.1804L65.3813 11.5844L64.5903 11.2978L64.8944 10.4628L65.6853 10.7494L66.2447 9.21307L67.2584 9.58044L66.699 11.1168L68.292 11.6941L67.9879 12.5291L66.395 11.9518Z" fill="black"/>
<path d="M78.698 18.0478L74.4167 23.3751L73.5313 22.6651L74.1641 21.8776C73.7767 22.0146 73.3681 22.0386 72.9382 21.9496C72.52 21.8594 72.1293 21.6687 71.7661 21.3774C71.351 21.0444 71.0457 20.6611 70.8503 20.2273C70.6601 19.787 70.6058 19.3171 70.6872 18.8176C70.7752 18.3232 71.017 17.8298 71.4129 17.3372L73.9207 14.2167L74.7964 14.9189L72.3823 17.9228C71.9604 18.4478 71.7679 18.9595 71.8046 19.4579C71.8466 19.9498 72.0979 20.3805 72.5584 20.7498C73.0319 21.1296 73.5221 21.2828 74.0289 21.2097C74.5357 21.1365 75.0131 20.8213 75.461 20.2639L77.8126 17.3378L78.698 18.0478Z" fill="black"/>
<path d="M78.2062 26.9394C77.8115 26.5949 77.515 26.2203 77.3167 25.8155C77.1238 25.4044 77.0404 25.0006 77.0666 24.6041C77.0983 24.2014 77.2415 23.8352 77.4962 23.5058L78.3795 24.2766C78.1803 24.5552 78.1161 24.8688 78.1868 25.2175C78.2639 25.5716 78.4778 25.9018 78.8286 26.2079C79.1544 26.4922 79.4741 26.6443 79.7879 26.6643C80.1016 26.6843 80.3542 26.5847 80.5457 26.3656C80.7426 26.1402 80.7873 25.8868 80.6799 25.6054C80.5778 25.3177 80.3635 24.9375 80.0367 24.4648C79.7421 24.0311 79.5164 23.6576 79.3596 23.3442C79.2146 23.03 79.1418 22.6962 79.1415 22.3428C79.1528 21.9885 79.3035 21.6455 79.5934 21.3136C79.8232 21.0506 80.1121 20.8779 80.4601 20.7954C80.8082 20.7129 81.181 20.7348 81.5786 20.861C81.9816 20.981 82.368 21.2023 82.7376 21.5248C83.3076 22.0223 83.6423 22.5681 83.7415 23.1623C83.8407 23.7565 83.684 24.315 83.2714 24.8378L82.4163 24.0916C82.6327 23.8059 82.7118 23.4942 82.6536 23.1565C82.6016 22.8242 82.4096 22.5132 82.0776 22.2234C81.7706 21.9556 81.4689 21.8081 81.1723 21.7811C80.8758 21.754 80.6345 21.8469 80.4485 22.0598C80.3008 22.2289 80.231 22.4163 80.239 22.6219C80.2588 22.8268 80.32 23.0347 80.4228 23.2457C80.5372 23.4559 80.7061 23.7302 80.9294 24.0686C81.2115 24.4913 81.4247 24.8539 81.5689 25.1563C81.7187 25.4525 81.7902 25.7688 81.7835 26.105C81.7831 26.4467 81.6492 26.7769 81.382 27.0954C81.1358 27.3772 80.836 27.5624 80.4825 27.6512C80.1289 27.7399 79.7506 27.7243 79.3476 27.6043C78.9563 27.4836 78.5758 27.2619 78.2062 26.9394Z" fill="black"/>
<path d="M85.3322 75.4966C85.7634 76.0565 86.0268 76.6303 86.1225 77.2178C86.2232 77.812 86.1647 78.3766 85.9471 78.9116C85.7228 79.4517 85.3539 79.9197 84.8401 80.3155C84.1749 80.828 83.5039 81.0878 82.8272 81.0948C82.144 81.1069 81.5125 80.8797 80.9329 80.4131L81.9011 79.6672C82.2469 79.9255 82.6284 80.0462 83.0456 80.0292C83.4561 80.0173 83.859 79.8591 84.2542 79.5546C84.768 79.1588 85.0459 78.6612 85.0882 78.0619C85.1355 77.4692 84.9106 76.8501 84.4134 76.2045C83.9112 75.5523 83.3651 75.1701 82.775 75.0579C82.1849 74.9458 81.633 75.0876 81.1193 75.4834C80.7241 75.7879 80.4658 76.1338 80.3444 76.5212C80.2229 76.9087 80.2447 77.3117 80.4097 77.7304L79.4415 78.4763C79.1603 77.8113 79.1077 77.1434 79.2837 76.4725C79.4647 75.8082 79.8813 75.2249 80.5334 74.7225C81.0471 74.3267 81.5937 74.0893 82.173 74.0104C82.7457 73.9365 83.3064 74.0241 83.855 74.2731C84.4036 74.5222 84.896 74.93 85.3322 75.4966Z" fill="black"/>
<path d="M74.3131 79.7202C74.8808 79.4241 75.464 79.284 76.0628 79.2999C76.6542 79.3196 77.2055 79.4962 77.7166 79.8298C78.2241 80.1746 78.6411 80.6604 78.9674 81.2873C79.2899 81.9068 79.4413 82.5218 79.4216 83.1322C79.3983 83.7539 79.2198 84.3112 78.8859 84.8042C78.5558 85.3046 78.1032 85.7047 77.5282 86.0047C76.9532 86.3046 76.3663 86.4466 75.7675 86.4307C75.1725 86.4222 74.6195 86.2512 74.1084 85.9176C73.5899 85.5879 73.1676 85.1096 72.8412 84.4827C72.5149 83.8558 72.3671 83.2296 72.3977 82.6041C72.4247 81.9899 72.607 81.4306 72.9444 80.9264C73.2819 80.4222 73.7381 80.0201 74.3131 79.7202ZM74.7738 80.6052C74.4126 80.7936 74.1176 81.0553 73.8889 81.3903C73.6602 81.7252 73.5383 82.1123 73.5232 82.5516C73.5008 82.9946 73.6163 83.4595 73.8696 83.9463C74.123 84.433 74.4338 84.7961 74.8021 85.0353C75.1704 85.2746 75.5515 85.3946 75.9456 85.3954C76.3436 85.4035 76.7231 85.3134 77.0844 85.1249C77.453 84.9327 77.7479 84.671 77.9693 84.3399C78.187 84.02 78.2998 83.6423 78.3075 83.2069C78.3152 82.7715 78.1924 82.3105 77.939 81.8237C77.6818 81.3296 77.3764 80.9591 77.0229 80.7121C76.662 80.469 76.2863 80.3414 75.8957 80.3294C75.509 80.3249 75.135 80.4168 74.7738 80.6052Z" fill="black"/>
<path d="M69.7475 91.0409C69.0021 91.4094 68.2863 91.4804 67.6 91.2539C66.9174 91.0349 66.3667 90.5002 65.9477 89.65L64.1673 86.0365L65.1735 85.5391L66.8823 89.0071C67.1836 89.6187 67.5661 90.0093 68.0297 90.1789C68.497 90.356 68.9953 90.3137 69.5245 90.0521C70.0611 89.7868 70.407 89.4071 70.5622 88.9131C70.7098 88.4227 70.6257 87.8568 70.3096 87.2154L68.6394 83.8257L69.6568 83.3227L72.6775 89.4533L71.6601 89.9563L71.2302 89.0837C71.1833 89.4964 71.0306 89.8733 70.7723 90.2143C70.5065 90.559 70.1649 90.8346 69.7475 91.0409Z" fill="black"/>
<path d="M61.3121 92.3136L60.109 88.4692C60.0096 88.1518 59.8714 87.9469 59.6944 87.8544C59.5198 87.7699 59.266 87.78 58.9329 87.8848L58.1358 88.1357L57.849 87.2192L58.8245 86.9122C59.4273 86.7225 59.9228 86.7191 60.3111 86.902C60.6994 87.0849 60.9929 87.4937 61.1916 88.1285L62.3947 91.973L63.2394 91.7072L63.5187 92.5998L62.674 92.8656L63.1881 94.5081L62.1055 94.8488L61.5914 93.2063L59.8902 93.7417L59.6108 92.849L61.3121 92.3136Z" fill="black"/>
<path d="M56.308 91.9138C56.2855 92.6118 56.1246 93.2183 55.8251 93.7332C55.5254 94.2564 55.1257 94.656 54.626 94.9319C54.118 95.2075 53.5606 95.3361 52.9539 95.3176C52.3555 95.2993 51.8402 95.1547 51.4081 94.8836C50.9759 94.6126 50.6581 94.2785 50.4546 93.8813L50.4144 95.1278L49.2675 95.0928L49.4877 88.262L50.6346 88.297L50.5936 89.5684C50.8308 89.1764 51.1782 88.8542 51.6355 88.602C52.0843 88.3578 52.6037 88.2448 53.1938 88.2628C53.8005 88.2813 54.3442 88.4476 54.8249 88.7617C55.3055 89.0758 55.6785 89.5073 55.9436 90.056C56.2088 90.6048 56.3303 91.224 56.308 91.9138ZM50.5241 91.7249C50.5075 92.2401 50.5969 92.692 50.7924 93.0806C50.9878 93.4692 51.261 93.7687 51.6119 93.979C51.9543 94.1974 52.3374 94.3131 52.7613 94.326C53.1851 94.3389 53.5748 94.251 53.9303 94.0622C54.2857 93.8734 54.5735 93.591 54.7936 93.2151C55.0137 92.8392 55.1321 92.3936 55.1487 91.8784C55.1655 91.3549 55.0764 90.8947 54.8812 90.4978C54.6858 90.1092 54.4168 89.8057 54.0745 89.5873C53.7319 89.3772 53.3486 89.2657 52.9248 89.2527C52.5009 89.2398 52.1113 89.3277 51.7558 89.5165C51.3917 89.7134 51.0996 89.9998 50.8795 90.3757C50.6592 90.7599 50.5407 91.2096 50.5241 91.7249Z" fill="black"/>
<path d="M46.2744 91.6161C46.0793 92.2953 45.7736 92.8479 45.3571 93.2738C44.9384 93.7077 44.449 93.996 43.889 94.1388C43.3209 94.2794 42.7251 94.2606 42.1014 94.0827C41.2939 93.8523 40.6865 93.4671 40.2792 92.9272C39.8639 92.3851 39.6722 91.7424 39.704 90.9993L40.8793 91.3346C40.8765 91.7662 41.0057 92.1446 41.267 92.4698C41.5202 92.7928 41.8867 93.0228 42.3665 93.1597C42.9901 93.3376 43.5558 93.2656 44.0635 92.9436C44.5689 92.6296 44.9341 92.081 45.159 91.2978C45.3862 90.5067 45.3699 89.8406 45.11 89.2995C44.8502 88.7585 44.4084 88.399 43.7848 88.221C43.3051 88.0842 42.8731 88.082 42.4891 88.2145C42.105 88.347 41.7933 88.6039 41.554 88.9852L40.3787 88.6498C40.7474 88.0287 41.2541 87.5897 41.8988 87.3327C42.5413 87.0837 43.2583 87.0722 44.0499 87.2981C44.6735 87.476 45.189 87.7744 45.5964 88.1933C45.9958 88.6099 46.258 89.1127 46.383 89.7017C46.508 90.2907 46.4718 90.9288 46.2744 91.6161Z" fill="black"/>
<path d="M34.7293 90.7436L36.1466 87.1887C36.2636 86.8952 36.2846 86.6614 36.2095 86.4871C36.1315 86.3202 35.9383 86.1755 35.6299 86.0531L34.8921 85.7602L35.2299 84.9128L36.133 85.2712C36.691 85.4927 37.0583 85.7872 37.2349 86.1547C37.4115 86.5223 37.3828 86.9995 37.1488 87.5865L35.7315 91.1413L36.5134 91.4517L36.1843 92.2771L35.4024 91.9668L34.7969 93.4856L33.7947 93.0878L34.4002 91.569L32.8254 90.9439L33.1545 90.1185L34.7293 90.7436Z" fill="black"/>
<path d="M22.6199 84.2796L27.0599 79.0838L27.9235 79.8203L27.2672 80.5883C27.6586 80.463 28.0678 80.4514 28.4947 80.5533C28.91 80.656 29.2948 80.8585 29.6491 81.1606C30.054 81.5059 30.3475 81.8983 30.5297 82.3378C30.7065 82.7836 30.7467 83.255 30.6502 83.7518C30.5474 84.2433 30.2908 84.7292 29.8802 85.2096L27.2794 88.2531L26.4253 87.5247L28.9289 84.595C29.3665 84.083 29.5744 83.5774 29.5526 83.0781C29.5255 82.5851 29.2873 82.147 28.8382 81.764C28.3763 81.3701 27.891 81.2021 27.3822 81.26C26.8734 81.3178 26.3868 81.6185 25.9223 82.1621L23.4835 85.016L22.6199 84.2796Z" fill="black"/>
<path d="M23.3777 75.4155C23.7618 75.7717 24.0469 76.1551 24.2329 76.5657C24.4133 76.9825 24.4845 77.3886 24.4463 77.7841C24.4025 78.1857 24.2484 78.5473 23.9838 78.869L23.1242 78.0719C23.3317 77.7994 23.4054 77.4878 23.3451 77.1372C23.2788 76.7809 23.0749 76.4444 22.7335 76.1278C22.4165 75.8339 22.1015 75.6722 21.7885 75.6427C21.4755 75.6133 21.22 75.7052 21.022 75.9185C20.8184 76.1379 20.766 76.3898 20.865 76.6743C20.9582 76.9649 21.161 77.3514 21.4734 77.8337C21.7548 78.2761 21.9691 78.6563 22.1164 78.9742C22.2519 79.2927 22.3145 79.6285 22.3042 79.9818C22.2822 80.3356 22.1213 80.6739 21.8215 80.9969C21.5839 81.2528 21.2899 81.4168 20.9395 81.4887C20.5891 81.5607 20.2171 81.5276 19.8235 81.3894C19.4243 81.2573 19.0448 81.0245 18.6851 80.6909C18.1303 80.1765 17.8123 79.6208 17.731 79.0239C17.6498 78.427 17.8233 77.8735 18.2514 77.3634L19.0836 78.135C18.8587 78.414 18.7702 78.7232 18.8183 79.0626C18.8602 79.3962 19.0427 79.7129 19.3659 80.0125C19.6646 80.2895 19.9618 80.446 20.2574 80.482C20.553 80.518 20.7969 80.4324 20.9892 80.2252C21.142 80.0607 21.2174 79.8755 21.2156 79.6697C21.202 79.4644 21.1471 79.2547 21.0508 79.0406C20.9427 78.8271 20.7822 78.5478 20.5692 78.2029C20.2999 77.7718 20.0978 77.403 19.9627 77.0963C19.822 76.7957 19.76 76.4775 19.7769 76.1416C19.7876 75.8 19.9313 75.4741 20.2081 75.1638C20.4626 74.8895 20.7679 74.7134 21.124 74.6354C21.48 74.5573 21.8577 74.5843 22.2569 74.7164C22.6444 74.8489 23.018 75.082 23.3777 75.4155Z" fill="black"/>
</svg>
