<svg width="12" height="13" viewBox="0 0 12 13" fill="none" xmlns="http://www.w3.org/2000/svg">
<path fill-rule="evenodd" clip-rule="evenodd" d="M5.66284 7.0384L5.66284 12.2024H6.32925V7.12083L10.663 9.66129L11 9.08638L6.58461 6.49805L11 3.90971L10.663 3.3348L6.32925 5.87527V1H5.66284L5.66284 5.9577L1.33702 3.42187L1 3.99679L5.26686 6.49805L1.00002 8.99931L1.33704 9.57422L5.66284 7.0384Z" fill="black"/>
<path d="M5.66284 12.2024H5.46284V12.4024H5.66284V12.2024ZM5.66284 7.0384H5.86284V6.68933L5.56169 6.86587L5.66284 7.0384ZM6.32925 12.2024V12.4024H6.52925V12.2024H6.32925ZM6.32925 7.12083L6.43039 6.94829L6.12925 6.77176V7.12083H6.32925ZM10.663 9.66129L10.5618 9.83383L10.7344 9.93498L10.8355 9.76244L10.663 9.66129ZM11 9.08638L11.1725 9.18752L11.2737 9.01499L11.1011 8.91384L11 9.08638ZM6.58461 6.49805L6.48347 6.32551L6.18914 6.49805L6.48347 6.67059L6.58461 6.49805ZM11 3.90971L11.1012 4.08225L11.2737 3.98111L11.1726 3.80857L11 3.90971ZM10.663 3.3348L10.8355 3.23366L10.7344 3.06112L10.5619 3.16226L10.663 3.3348ZM6.32925 5.87527H6.12925V6.22435L6.43039 6.04781L6.32925 5.87527ZM6.32925 1H6.52925V0.8H6.32925V1ZM5.66284 1V0.8H5.46284V1L5.66284 1ZM5.66284 5.9577L5.56169 6.13024L5.86284 6.30677V5.9577H5.66284ZM1.33702 3.42187L1.43816 3.24934L1.26562 3.14819L1.16448 3.32073L1.33702 3.42187ZM1 3.99679L0.82746 3.89564L0.726317 4.06818L0.898856 4.16933L1 3.99679ZM5.26686 6.49805L5.36801 6.67059L5.66234 6.49805L5.36801 6.32551L5.26686 6.49805ZM1.00002 8.99931L0.898874 8.82677L0.726335 8.92791L0.827479 9.10045L1.00002 8.99931ZM1.33704 9.57422L1.1645 9.67536L1.26564 9.8479L1.43818 9.74676L1.33704 9.57422ZM5.86284 12.2024L5.86284 7.0384H5.46284L5.46284 12.2024H5.86284ZM6.32925 12.0024H5.66284V12.4024H6.32925V12.0024ZM6.12925 7.12083V12.2024H6.52925V7.12083H6.12925ZM10.7641 9.48875L6.43039 6.94829L6.22811 7.29337L10.5618 9.83383L10.7641 9.48875ZM10.8275 8.98524L10.4904 9.56015L10.8355 9.76244L11.1725 9.18752L10.8275 8.98524ZM6.48347 6.67059L10.8989 9.25892L11.1011 8.91384L6.68576 6.32551L6.48347 6.67059ZM10.8989 3.73717L6.48347 6.32551L6.68576 6.67059L11.1012 4.08225L10.8989 3.73717ZM10.4905 3.43594L10.8275 4.01086L11.1726 3.80857L10.8355 3.23366L10.4905 3.43594ZM6.43039 6.04781L10.7641 3.50734L10.5619 3.16226L6.22811 5.70273L6.43039 6.04781ZM6.12925 1V5.87527H6.52925V1H6.12925ZM5.66284 1.2H6.32925V0.8H5.66284V1.2ZM5.86284 5.9577L5.86284 1L5.46284 1L5.46284 5.9577H5.86284ZM1.23587 3.59441L5.56169 6.13024L5.76398 5.78516L1.43816 3.24934L1.23587 3.59441ZM1.17254 4.09793L1.50956 3.52302L1.16448 3.32073L0.82746 3.89564L1.17254 4.09793ZM5.36801 6.32551L1.10114 3.82425L0.898856 4.16933L5.16572 6.67059L5.36801 6.32551ZM1.10116 9.17185L5.36801 6.67059L5.16572 6.32551L0.898874 8.82677L1.10116 9.17185ZM1.50958 9.47307L1.17256 8.89816L0.827479 9.10045L1.1645 9.67536L1.50958 9.47307ZM5.56169 6.86587L1.23589 9.40168L1.43818 9.74676L5.76398 7.21094L5.56169 6.86587Z" fill="black"/>
</svg>
