<svg width="1920" height="365" viewBox="0 0 1920 365" fill="none" xmlns="http://www.w3.org/2000/svg">
<g clip-path="url(#clip0_2064_94893)">
<rect y="-41" width="1920" height="420" fill="#111111"/>
<g opacity="0.7">
<path d="M350.3 82.257C350.3 81.75 350.181 81.3467 349.943 81.0471C349.697 80.7476 349.367 80.5978 348.952 80.5978L348.929 80.5978C348.491 80.5978 348.161 80.7437 347.938 81.0356C347.707 81.3275 347.592 81.7385 347.592 82.2685L347.592 84.3309L350.3 84.3309L350.3 82.257ZM346.302 85.7482L346.302 82.1533C346.302 81.6463 346.375 81.1969 346.521 80.8052C346.659 80.4134 346.855 80.087 347.108 79.8258C347.331 79.6107 347.588 79.4456 347.88 79.3303C348.172 79.2151 348.495 79.1575 348.848 79.1575L348.871 79.1575C349.201 79.1575 349.501 79.2074 349.77 79.3073C350.031 79.3995 350.265 79.5301 350.473 79.699C350.672 79.868 350.845 80.0716 350.991 80.3097C351.129 80.5402 351.237 80.7975 351.314 81.0817L354.367 78.904L354.367 80.5747L351.556 82.5565L351.556 82.5796L351.556 84.3309L354.367 84.3309L354.367 85.7482L346.302 85.7482ZM346.302 77.4216L346.302 71.4416L347.569 71.4416L347.569 76.0044L349.666 76.0044L349.666 71.9601L350.934 71.9601L350.934 76.0044L353.1 76.0044L353.1 71.384L354.367 71.384L354.367 77.4216L346.302 77.4216ZM354.482 66.8798C354.482 67.502 354.379 68.0973 354.171 68.6657C353.956 69.2341 353.63 69.7603 353.192 70.2442L352.178 69.3916C352.516 68.9999 352.777 68.6043 352.961 68.2048C353.138 67.8054 353.226 67.3522 353.226 66.8452C353.226 66.4074 353.134 66.0617 352.95 65.8082C352.766 65.5471 352.52 65.4165 352.213 65.4165L352.19 65.4165C352.044 65.4165 351.917 65.4434 351.809 65.4971C351.694 65.5432 351.587 65.6354 351.487 65.7737C351.387 65.9042 351.295 66.0886 351.21 66.3267C351.126 66.5572 351.041 66.8606 350.957 67.237C350.857 67.6671 350.745 68.0512 350.622 68.3892C350.492 68.7195 350.338 68.9999 350.162 69.2303C349.977 69.4531 349.754 69.6259 349.493 69.7488C349.232 69.864 348.917 69.9216 348.549 69.9216L348.525 69.9216C348.18 69.9216 347.865 69.8525 347.581 69.7142C347.289 69.576 347.043 69.3878 346.843 69.1496C346.636 68.9038 346.475 68.6119 346.359 68.274C346.244 67.936 346.186 67.5673 346.186 67.1678C346.186 66.5764 346.275 66.0463 346.451 65.5778C346.62 65.1015 346.87 64.656 347.2 64.2412L348.272 65.0017C348.003 65.3704 347.8 65.7352 347.661 66.0963C347.515 66.4573 347.442 66.8222 347.442 67.1909C347.442 67.6057 347.535 67.9283 347.719 68.1587C347.903 68.3892 348.13 68.5044 348.399 68.5044L348.422 68.5044C348.575 68.5044 348.714 68.4775 348.837 68.4237C348.952 68.37 349.059 68.274 349.159 68.1357C349.251 67.9897 349.34 67.7939 349.424 67.5481C349.509 67.2946 349.597 66.9758 349.689 66.5917C349.797 66.1692 349.916 65.7967 350.046 65.4741C350.177 65.1438 350.338 64.8711 350.53 64.656C350.715 64.4409 350.934 64.2796 351.187 64.1721C351.433 64.0569 351.721 63.9992 352.051 63.9992L352.074 63.9992C352.451 63.9992 352.789 64.0722 353.088 64.2182C353.388 64.3564 353.641 64.5523 353.849 64.8058C354.056 65.0593 354.214 65.3627 354.321 65.716C354.429 66.0694 354.482 66.4573 354.482 66.8798ZM346.302 62.3326L346.302 56.3526L347.569 56.3526L347.569 60.9154L349.666 60.9154L349.666 56.8711L350.934 56.8711L350.934 60.9154L353.1 60.9154L353.1 56.295L354.367 56.295L354.367 62.3326L346.302 62.3326ZM351.164 49.7283L347.938 51.1225L351.164 52.5051L351.164 49.7283ZM346.244 51.7562L346.244 50.4427L354.367 46.8938L354.367 48.3917L352.42 49.2098L352.42 53.0236L354.367 53.8532L354.367 55.305L346.244 51.7562ZM350.3 42.0195C350.3 41.5126 350.181 41.1093 349.943 40.8097C349.697 40.5101 349.367 40.3603 348.952 40.3603L348.929 40.3603C348.491 40.3603 348.161 40.5063 347.938 40.7982C347.707 41.0901 347.592 41.501 347.592 42.031L347.592 44.0935L350.3 44.0935L350.3 42.0195ZM346.302 45.5107L346.302 41.9158C346.302 41.4089 346.375 40.9595 346.521 40.5677C346.659 40.176 346.855 39.8495 347.108 39.5884C347.331 39.3733 347.588 39.2081 347.88 39.0929C348.172 38.9777 348.495 38.9201 348.848 38.9201L348.871 38.9201C349.201 38.9201 349.501 38.97 349.77 39.0699C350.031 39.162 350.265 39.2926 350.473 39.4616C350.672 39.6306 350.845 39.8342 350.991 40.0723C351.129 40.3027 351.237 40.5601 351.314 40.8443L354.367 38.6666L354.367 40.3373L351.556 42.3191L351.556 42.3421L351.556 44.0935L354.367 44.0935L354.367 45.5107L346.302 45.5107ZM354.505 33.4395C354.505 34.031 354.398 34.5764 354.183 35.0756C353.968 35.5749 353.676 36.0089 353.307 36.3776C352.931 36.7387 352.489 37.0229 351.982 37.2303C351.475 37.4377 350.934 37.5414 350.357 37.5414L350.334 37.5414C349.758 37.5414 349.221 37.4415 348.721 37.2418C348.214 37.0344 347.773 36.7464 347.396 36.3776C347.012 36.0089 346.713 35.5711 346.498 35.0641C346.275 34.5572 346.163 33.9964 346.163 33.3819C346.163 33.0132 346.194 32.679 346.256 32.3795C346.317 32.0722 346.405 31.7918 346.521 31.5384C346.628 31.2849 346.759 31.0506 346.912 30.8355C347.066 30.6204 347.235 30.4169 347.419 30.2248L348.468 31.1351C348.168 31.4577 347.926 31.7995 347.742 32.1605C347.558 32.5216 347.465 32.9325 347.465 33.3934C347.465 33.7775 347.542 34.1347 347.696 34.465C347.842 34.7876 348.045 35.068 348.307 35.3061C348.56 35.5442 348.86 35.7286 349.205 35.8592C349.551 35.9897 349.92 36.055 350.311 36.055L350.334 36.055C350.726 36.055 351.099 35.9897 351.452 35.8592C351.798 35.7286 352.101 35.5442 352.362 35.3061C352.624 35.068 352.831 34.7876 352.985 34.465C353.13 34.1347 353.203 33.7775 353.203 33.3934C353.203 32.9018 353.111 32.4793 352.927 32.126C352.735 31.7726 352.478 31.4231 352.155 31.0775L353.077 30.1672C353.299 30.3746 353.499 30.5935 353.676 30.824C353.845 31.0467 353.995 31.2887 354.125 31.5499C354.248 31.811 354.34 32.0991 354.402 32.414C354.471 32.7213 354.505 33.0631 354.505 33.4395ZM346.302 28.6776L346.302 27.2604L349.655 27.2604L349.655 23.412L346.302 23.412L346.302 21.9948L354.367 21.9948L354.367 23.412L350.968 23.412L350.968 27.2604L354.367 27.2604L354.367 28.6776L346.302 28.6776Z" fill="#939393"/>
<path d="M438.34 111.488C438.34 110.95 438.205 110.528 437.936 110.221C437.667 109.906 437.322 109.748 436.899 109.748L436.876 109.748C436.4 109.748 436.043 109.906 435.805 110.221C435.559 110.535 435.436 110.958 435.436 111.488L435.436 113.136L438.34 113.136L438.34 111.488ZM434.145 114.553L434.145 111.373C434.145 110.904 434.211 110.482 434.341 110.105C434.464 109.721 434.645 109.399 434.883 109.137C435.121 108.869 435.405 108.665 435.736 108.527C436.066 108.381 436.435 108.308 436.842 108.308L436.865 108.308C437.318 108.308 437.717 108.392 438.063 108.561C438.401 108.73 438.685 108.961 438.916 109.253C439.146 109.545 439.323 109.886 439.446 110.278C439.561 110.67 439.618 111.089 439.618 111.534L439.618 113.136L442.211 113.136L442.211 114.553L434.145 114.553ZM434.145 106.856L434.145 105.439L440.92 105.439L440.92 101.199L442.211 101.199L442.211 106.856L434.145 106.856ZM439.008 94.8372L435.782 96.2314L439.008 97.6141L439.008 94.8372ZM434.088 96.8651L434.088 95.5516L442.211 92.0028L442.211 93.5007L440.264 94.3187L440.264 98.1326L442.211 98.9622L442.211 100.414L434.088 96.8651ZM434.145 90.6197L434.145 89.3062L439.722 84.9854L434.145 84.9854L434.145 83.5912L442.211 83.5912L442.211 84.778L436.473 89.2255L442.211 89.2255L442.211 90.6197L434.145 90.6197Z" fill="#939393"/>
<path d="M1506 381.596C1506 381.174 1505.93 380.79 1505.8 380.444C1505.66 380.098 1505.48 379.807 1505.24 379.568C1504.99 379.323 1504.7 379.134 1504.37 379.004C1504.04 378.866 1503.67 378.796 1503.28 378.796L1503.26 378.796C1502.86 378.796 1502.5 378.866 1502.16 379.004C1501.82 379.134 1501.54 379.323 1501.3 379.568C1501.05 379.807 1500.86 380.098 1500.72 380.444C1500.58 380.79 1500.51 381.174 1500.51 381.596L1500.51 383.186L1506 383.186L1506 381.596ZM1499.22 384.604L1499.22 381.596C1499.22 380.966 1499.33 380.39 1499.53 379.868C1499.73 379.338 1500.01 378.885 1500.38 378.508C1500.74 378.124 1501.16 377.829 1501.65 377.621C1502.14 377.414 1502.66 377.31 1503.23 377.31L1503.26 377.31C1503.82 377.31 1504.35 377.414 1504.85 377.621C1505.34 377.829 1505.76 378.124 1506.13 378.508C1506.49 378.885 1506.77 379.338 1506.98 379.868C1507.19 380.39 1507.29 380.966 1507.29 381.596L1507.29 384.604L1499.22 384.604ZM1499.22 375.591L1499.22 369.611L1500.49 369.611L1500.49 374.173L1502.59 374.173L1502.59 370.129L1503.86 370.129L1503.86 374.173L1506.02 374.173L1506.02 369.553L1507.29 369.553L1507.29 375.591L1499.22 375.591ZM1499.22 368.563L1499.22 366.996L1505.42 364.565L1499.22 362.145L1499.22 360.613L1507.35 363.966L1507.35 365.21L1499.22 368.563ZM1499.22 359.23L1499.22 353.25L1500.49 353.25L1500.49 357.813L1502.59 357.813L1502.59 353.769L1503.86 353.769L1503.86 357.813L1506.02 357.813L1506.02 353.193L1507.29 353.193L1507.29 359.23L1499.22 359.23ZM1499.22 351.511L1499.22 350.094L1506 350.094L1506 345.854L1507.29 345.854L1507.29 351.511L1499.22 351.511ZM1506.13 340.506C1506.13 340.107 1506.05 339.742 1505.91 339.411C1505.75 339.073 1505.55 338.785 1505.3 338.547C1505.03 338.309 1504.73 338.125 1504.39 337.994C1504.04 337.856 1503.67 337.787 1503.28 337.787L1503.26 337.787C1502.86 337.787 1502.5 337.856 1502.15 337.994C1501.8 338.125 1501.49 338.313 1501.24 338.559C1500.98 338.797 1500.77 339.085 1500.62 339.423C1500.46 339.761 1500.39 340.13 1500.39 340.529C1500.39 340.928 1500.46 341.297 1500.62 341.635C1500.76 341.965 1500.97 342.25 1501.23 342.488C1501.48 342.726 1501.78 342.914 1502.13 343.052C1502.47 343.183 1502.84 343.248 1503.23 343.248L1503.26 343.248C1503.65 343.248 1504.02 343.183 1504.37 343.052C1504.72 342.914 1505.02 342.726 1505.28 342.488C1505.54 342.242 1505.74 341.95 1505.89 341.612C1506.05 341.274 1506.13 340.905 1506.13 340.506ZM1507.43 340.529C1507.43 341.151 1507.32 341.72 1507.1 342.234C1506.88 342.749 1506.58 343.191 1506.21 343.559C1505.83 343.928 1505.39 344.216 1504.89 344.424C1504.39 344.631 1503.85 344.735 1503.28 344.735L1503.26 344.735C1502.69 344.735 1502.15 344.631 1501.65 344.424C1501.15 344.216 1500.71 343.924 1500.33 343.548C1499.95 343.171 1499.64 342.726 1499.42 342.211C1499.2 341.697 1499.09 341.128 1499.09 340.506C1499.09 339.884 1499.2 339.315 1499.42 338.801C1499.63 338.286 1499.93 337.844 1500.31 337.476C1500.68 337.107 1501.12 336.819 1501.63 336.612C1502.13 336.404 1502.66 336.3 1503.23 336.3L1503.26 336.3C1503.82 336.3 1504.36 336.404 1504.87 336.612C1505.37 336.819 1505.81 337.111 1506.19 337.487C1506.57 337.864 1506.87 338.309 1507.09 338.824C1507.32 339.338 1507.43 339.907 1507.43 340.529ZM1503.42 331.523C1503.42 330.986 1503.28 330.563 1503.01 330.256C1502.75 329.941 1502.4 329.783 1501.98 329.783L1501.95 329.783C1501.48 329.783 1501.12 329.941 1500.88 330.256C1500.64 330.571 1500.51 330.993 1500.51 331.523L1500.51 333.171L1503.42 333.171L1503.42 331.523ZM1499.22 334.588L1499.22 331.408C1499.22 330.939 1499.29 330.517 1499.42 330.141C1499.54 329.757 1499.72 329.434 1499.96 329.173C1500.2 328.904 1500.48 328.7 1500.81 328.562C1501.14 328.416 1501.51 328.343 1501.92 328.343L1501.94 328.343C1502.4 328.343 1502.8 328.428 1503.14 328.597C1503.48 328.766 1503.76 328.996 1503.99 329.288C1504.22 329.58 1504.4 329.922 1504.52 330.313C1504.64 330.705 1504.7 331.124 1504.7 331.569L1504.7 333.171L1507.29 333.171L1507.29 334.588L1499.22 334.588Z" fill="#939393"/>
<path d="M1564.04 86.4669L1564.04 84.9575L1567.86 82.5033L1564.04 80.0491L1564.04 78.5397L1572.11 78.5397L1572.11 79.9569L1566.33 79.9569L1570.13 82.5033L1570.13 82.5494L1566.35 85.0727L1572.11 85.0727L1572.11 86.4669L1564.04 86.4669ZM1568.91 71.5784L1565.68 72.9726L1568.91 74.3553L1568.91 71.5784ZM1563.99 73.6063L1563.99 72.2928L1572.11 68.744L1572.11 70.2419L1570.16 71.0599L1570.16 74.8738L1572.11 75.7034L1572.11 77.1551L1563.99 73.6063ZM1564.04 67.3609L1564.04 66.0474L1569.62 61.7266L1564.04 61.7266L1564.04 60.3324L1572.11 60.3324L1572.11 61.5192L1566.37 65.9667L1572.11 65.9667L1572.11 67.3609L1564.04 67.3609ZM1568.91 53.3726L1565.68 54.7668L1568.91 56.1494L1568.91 53.3726ZM1563.99 55.4005L1563.99 54.0869L1572.11 50.5381L1572.11 52.036L1570.16 52.8541L1570.16 56.6679L1572.11 57.4975L1572.11 58.9493L1563.99 55.4005ZM1572.25 45.3297C1572.25 45.9596 1572.14 46.5318 1571.94 47.0465C1571.72 47.5611 1571.43 48.0028 1571.06 48.3715C1570.68 48.7325 1570.25 49.0129 1569.75 49.2126C1569.24 49.4123 1568.69 49.5122 1568.1 49.5122L1568.08 49.5122C1567.52 49.5122 1566.98 49.4123 1566.48 49.2126C1565.97 49.0052 1565.53 48.7172 1565.15 48.3485C1564.77 47.9798 1564.46 47.5419 1564.24 47.0349C1564.02 46.5203 1563.91 45.9596 1563.91 45.3527C1563.91 44.9994 1563.93 44.6806 1563.99 44.3964C1564.03 44.1045 1564.1 43.8356 1564.19 43.5898C1564.29 43.344 1564.4 43.1136 1564.54 42.8985C1564.67 42.6757 1564.82 42.4607 1565 42.2533L1566.07 43.152C1565.94 43.3056 1565.82 43.4631 1565.71 43.6244C1565.61 43.7857 1565.52 43.9547 1565.45 44.1314C1565.37 44.308 1565.32 44.5039 1565.28 44.719C1565.23 44.9264 1565.21 45.1568 1565.21 45.4103C1565.21 45.779 1565.28 46.1247 1565.44 46.4473C1565.59 46.7623 1565.8 47.0388 1566.06 47.2769C1566.31 47.5074 1566.61 47.6917 1566.96 47.83C1567.3 47.9606 1567.67 48.0259 1568.05 48.0259L1568.08 48.0259C1568.49 48.0259 1568.88 47.9606 1569.23 47.83C1569.58 47.6994 1569.89 47.515 1570.14 47.2769C1570.39 47.0311 1570.59 46.7431 1570.74 46.4128C1570.88 46.0748 1570.96 45.6984 1570.96 45.2836C1570.96 44.8995 1570.9 44.5423 1570.8 44.212C1570.68 43.874 1570.53 43.5822 1570.35 43.3363L1568.84 43.3363L1568.84 45.3988L1567.6 45.3988L1567.6 41.9652L1570.99 41.9652C1571.16 42.1649 1571.32 42.3877 1571.48 42.6335C1571.63 42.8716 1571.76 43.1328 1571.88 43.417C1571.99 43.6935 1572.08 43.9931 1572.14 44.3157C1572.21 44.6383 1572.25 44.9763 1572.25 45.3297ZM1564.04 40.1196L1564.04 34.1396L1565.31 34.1396L1565.31 38.7024L1567.41 38.7024L1567.41 34.6581L1568.68 34.6581L1568.68 38.7024L1570.84 38.7024L1570.84 34.082L1572.11 34.082L1572.11 40.1196L1564.04 40.1196Z" fill="#939393"/>
<line x1="438.179" y1="420.203" x2="438.179" y2="144.392" stroke="#939393" stroke-width="0.720133"/>
<line x1="349.601" y1="590.156" x2="349.601" y2="106.947" stroke="#939393" stroke-width="0.720133"/>
<line x1="1567.34" y1="590.156" x2="1567.34" y2="106.947" stroke="#939393" stroke-width="0.720133"/>
<line x1="960.281" y1="208.953" x2="960.281" y2="39.0018" stroke="#2C2C2C" stroke-width="0.720133"/>
<path d="M520.141 417.651C632.827 305.297 788.303 235.844 960.002 235.844C1142.49 235.844 1306.65 314.313 1420.59 439.343" stroke="#676767" stroke-width="2" stroke-miterlimit="10"/>
</g>
</g>
<defs>
<clipPath id="clip0_2064_94893">
<rect width="1920" height="365" fill="white"/>
</clipPath>
</defs>
</svg>
