<svg width="510" height="115" viewBox="0 0 510 115" fill="none" xmlns="http://www.w3.org/2000/svg">
<path d="M287.778 7.89799H301.638V9.43799C297.942 10.8753 294.605 15.3413 291.628 22.836L257.286 110.616H253.282L220.018 26.84C216.014 16.984 212.112 11.3373 208.314 9.89999V8.05199H231.876V9.89999C229.925 10.4133 228.898 11.748 228.796 13.904C228.796 15.9573 229.514 18.7807 230.952 22.374C231.054 22.682 233.518 29.0987 238.344 41.624C243.272 54.0467 248.148 66.418 252.974 78.738L260.058 97.218C279.051 47.4247 288.599 22.4767 288.702 22.374C290.036 18.678 290.652 15.752 290.55 13.596C290.55 11.44 289.626 10.1053 287.778 9.592V7.89799ZM361.765 88.44L363.151 89.672C352.987 103.635 341.334 110.616 328.193 110.616C324.086 110.616 319.98 109.846 315.873 108.306C311.869 106.766 308.122 104.559 304.631 101.684C301.243 98.8093 298.471 95.0107 296.315 90.288C294.262 85.4627 293.235 80.124 293.235 74.272C293.235 62.568 297.034 52.9687 304.631 45.474C312.331 37.9793 321.468 34.232 332.043 34.232C341.078 34.232 348.264 36.7473 353.603 41.778C358.942 46.8087 361.714 52.9687 361.919 60.258H304.169C303.861 62.5167 303.707 64.8267 303.707 67.188C303.707 77.352 306.582 85.5653 312.331 91.828C318.183 98.0907 325.883 101.222 335.431 101.222C345.39 101.222 354.168 96.9613 361.765 88.44ZM327.269 36.85C321.212 36.7473 316.232 38.698 312.331 42.702C308.43 46.706 305.863 51.942 304.631 58.41H350.061C349.24 52.866 346.776 47.8867 342.669 43.472C338.665 39.0573 333.532 36.85 327.269 36.85ZM386.108 21.142C384.568 22.682 382.669 23.452 380.41 23.452C378.151 23.452 376.201 22.682 374.558 21.142C373.018 19.4993 372.248 17.6 372.248 15.444C372.248 13.0827 373.018 11.132 374.558 9.592C376.201 7.94933 378.151 7.12799 380.41 7.12799C382.771 7.12799 384.722 7.94933 386.262 9.592C387.802 11.132 388.572 13.0827 388.572 15.444C388.572 17.6 387.751 19.4993 386.108 21.142ZM387.032 90.288C387.032 96.2427 387.443 100.401 388.264 102.762C389.188 105.021 390.779 106.509 393.038 107.228V109.076H369.63V107.228C371.991 106.509 373.531 105.021 374.25 102.762C375.071 100.503 375.482 96.3453 375.482 90.288V57.486C375.482 52.6607 375.02 49.3753 374.096 47.63C373.275 45.8847 371.786 44.8067 369.63 44.396V42.24L385.184 35.156H387.032V90.288ZM480.25 35.156H493.648V37.158C492.519 37.158 491.492 37.5173 490.568 38.236C489.747 38.852 488.977 39.9813 488.258 41.624C487.642 43.164 487.18 44.4473 486.872 45.474C486.564 46.398 486.102 47.938 485.486 50.094C484.767 52.4553 483.022 58.564 480.25 68.42C477.581 78.276 475.014 87.516 472.55 96.14L468.854 109.076H463.618C451.914 67.5987 445.857 46.244 445.446 45.012L427.428 109.076H422.038C411.977 73.348 406.484 53.79 405.56 50.402C403.404 41.5727 400.375 37.158 396.474 37.158V35.156H421.576V37.158C416.853 37.158 415.365 41.162 417.11 49.17C417.726 52.1473 419.009 57.4347 420.96 65.032C422.911 72.6293 424.759 79.508 426.504 85.668L428.968 94.908L445.754 35.156H454.378L470.394 94.908C477.067 71.3973 481.328 56.3053 483.176 49.632C485.537 41.316 484.562 37.158 480.25 37.158V35.156Z" fill="black"/>
<path d="M179.651 48.1171C179.651 48.1171 189.698 35.5848 194.978 36.7874C198.931 37.6081 192.822 50.574 189.985 58.6984C187.148 66.8227 168.984 113.736 168.984 113.736H175.457C175.457 113.736 193.943 63.6173 196.053 57.5525C198.163 51.4876 203.325 35.9358 196.053 35.1254C189.488 34.3925 179.769 46.6254 179.769 46.6254L179.656 48.112L179.651 48.1171Z" fill="black"/>
<path d="M175.45 113.742C175.45 113.742 202.089 64.7588 210.16 54.9466C215.439 49.1089 219.956 44.9693 222.849 43.684C225.742 42.3988 233.065 39.6528 231.872 36.7314C230.679 33.8099 223.53 34.93 213.734 47.2042C203.938 59.4785 178.41 105.7 178.41 105.7L175.445 113.742H175.45Z" fill="black"/>
<path d="M170.473 34.5547C154.921 34.5547 134.827 51.7169 128.016 72.8897C121.205 94.0574 122.224 114.998 135.964 114.998C149.703 114.998 168.092 90.7385 168.092 90.7385L167.749 89.3655C167.749 89.3655 151.172 113.511 137.382 111.023C130.909 109.821 125.773 94.5477 133.239 73.3491C133.239 73.3491 148.51 76.9519 172.972 58.0141C183.26 49.8897 184.54 34.5547 170.473 34.5547ZM159.32 65.3642C142.8 74.2472 133.777 72.0845 133.777 72.0845C139.681 56.6927 147.941 45.5798 158.951 39.1743C172.516 31.7365 176.577 38.6736 176.577 44.3927C176.577 49.9465 171 58.969 159.32 65.3642Z" fill="black"/>
<path d="M6.25781 113.745L61.7729 42.087C61.7729 42.087 67.0525 35.795 70.5705 37.1112C74.0886 38.4274 70.5705 46.4072 70.5705 46.4072L43.3225 103.536C43.3225 103.536 38.811 113.75 48.1207 113.75C57.4304 113.75 65.378 102.395 65.378 102.395L67.6465 97.0733C67.6465 97.0733 59.0589 112.795 48.4587 112.878C43.7783 112.919 49.3958 103.654 49.3958 103.654L75.7323 48.126C75.7323 48.126 80.0185 37.1422 71.4462 35.6556C66.5097 34.6233 61.056 41.2043 58.6748 44.2393C56.2936 47.2743 7.76334 110.256 7.76334 110.256L6.25781 113.745Z" fill="black"/>
<path d="M61.9141 69.2652L82.971 42.0843C82.971 42.0843 88.2506 35.7923 91.7686 37.1085C95.2866 38.4247 91.7686 46.4045 91.7686 46.4045L64.5206 103.533C64.5206 103.533 60.0091 113.748 69.3188 113.748C78.6285 113.748 87.5541 101.102 87.5541 101.102L90.6215 95.6357C90.6215 95.6357 80.2621 112.788 69.6619 112.87C64.9814 112.911 70.599 103.646 70.599 103.646L96.9355 48.1182C96.9355 48.1182 101.222 37.1343 92.6494 35.6478C87.7129 34.6155 82.2592 41.1965 79.878 44.2315C78.9767 45.3774 71.49 55.0863 62.5183 66.7205L61.9192 69.2703L61.9141 69.2652Z" fill="black"/>
<path d="M6.25768 113.741L51.5106 0C51.5106 0 47.8492 6.26616 40.7824 6.43649C33.7157 6.60682 29.2861 6.69457 29.2861 6.69457V7.89722L38.985 8.07787C40.7261 8.10884 41.8885 9.89475 41.2331 11.5155L0 113.741H6.25768Z" fill="black"/>
<path d="M126.769 85.7251C110.72 112.663 101.917 113.933 98.7679 112.287C94.2359 109.917 95.2806 101.478 98.01 94.5204C100.504 88.1562 133.078 12.8281 133.078 12.8281H125.412C125.412 12.8281 91.4502 90.1899 89.8678 97.4109C88.2855 104.632 88.6491 112.834 96.1767 114.666C103.704 116.498 112.84 111.156 124.818 91.1706L126.769 85.7303V85.7251Z" fill="black"/>
<path d="M150.115 36.5793H118.719L119.215 34.4062H151.267L150.115 36.5793Z" fill="black"/>
</svg>
