<svg width="422" height="101" viewBox="0 0 422 101" fill="none" xmlns="http://www.w3.org/2000/svg">
<path d="M420.741 50.251C420.741 57.0124 414.99 63.5461 404.348 69.552C393.73 75.5444 378.346 80.9506 359.309 85.4946C321.241 94.5814 268.636 100.205 210.519 100.205C152.402 100.205 99.7965 94.5814 61.7286 85.4946C42.6923 80.9506 27.3079 75.5444 16.6898 69.552C6.0476 63.5461 0.297343 57.0124 0.297343 50.251C0.297343 43.4896 6.0476 36.9559 16.6898 30.95C27.3079 24.9576 42.6923 19.5514 61.7286 15.0074C99.7965 5.92058 152.402 0.297343 210.519 0.297343C268.636 0.297343 321.241 5.92058 359.309 15.0074C378.346 19.5514 393.73 24.9576 404.348 30.95C414.99 36.9559 420.741 43.4896 420.741 50.251Z" stroke="#D2FF52" stroke-width="0.594686"/>
<path d="M146.757 11.9017V39.4406C147.221 39.2484 147.518 39.2003 147.694 39.0401C158.41 29.0034 174.244 32.9684 178.257 46.9461C180.611 55.1485 180.251 63.399 175.141 70.6882C169.423 78.8425 160.156 80.6288 150.249 77.7532C149.744 77.609 149.256 77.3767 148.767 77.1764C141.655 74.3408 141.367 73.9243 141.367 66.3707C141.367 50.8391 141.367 35.3074 141.367 19.7757C141.367 15.2339 140.43 14.1686 136.009 13.4957C135.44 13.4076 134.927 12.9671 134.383 12.6867C134.911 12.4224 135.432 11.9418 135.969 11.9338C139.461 11.8617 142.953 11.9017 146.757 11.9017ZM173.363 55.9495C173.363 54.9082 173.411 53.6186 173.355 52.337C172.915 42.7488 166.587 36.7572 157.633 37.406C151.146 37.8786 146.821 42.5085 146.821 48.9807C146.821 55.4849 146.917 61.9972 146.773 68.5014C146.717 71.1368 147.83 72.8029 149.969 74.0204C156.64 77.8092 165.146 76.055 169.791 69.9433C172.899 65.8581 173.595 61.1481 173.363 55.9495Z" fill="#D2FF52"/>
<path d="M39.8307 69.5983C40.8559 65.2888 41.8971 60.9874 42.9142 56.6779C45.8616 44.158 48.841 31.6462 51.7002 19.1103C52.1087 17.316 52.8936 16.6752 54.6316 16.9235C55.1521 16.9956 55.7048 17.0036 56.2254 16.9235C57.9794 16.6512 58.7082 17.3641 59.1487 19.1103C63.2413 35.3949 67.4301 51.6635 71.6028 67.9322C71.763 68.5569 71.9953 69.1577 72.596 69.7985C73.4449 66.226 74.3179 62.6615 75.1429 59.0889C77.866 47.298 80.573 35.4991 83.2721 23.7001C84.049 20.3038 83.2401 19.1423 79.7802 18.5095C79.1635 18.3974 78.5868 18.093 77.9941 17.8767C78.0422 17.6524 78.0902 17.4362 78.1383 17.2119H94.1965C94.2686 17.3561 94.3407 17.5003 94.4128 17.6444C93.9643 17.9168 93.5078 18.4214 93.0592 18.4134C89.1107 18.3573 87.3488 20.7604 86.4918 24.1407C84.2092 33.2402 81.9506 42.3397 79.7161 51.4473C77.5696 60.1863 75.4712 68.9334 73.3648 77.6084C73.1326 77.7366 73.0044 77.8567 72.8763 77.8647C67.8786 78.1611 67.8546 78.1691 66.6132 73.363C62.5926 57.8394 58.596 42.2997 54.5835 26.776C54.3832 25.999 54.151 25.23 53.4062 24.4531C51.2597 33.3523 49.0972 42.2436 46.9588 51.1429C44.8204 60.0341 42.698 68.9254 40.5675 77.8407H34.9692C33.6477 72.4819 32.3182 67.1311 31.0047 61.7884C27.9772 49.5248 24.9418 37.2613 21.9303 24.9897C21.0654 21.4733 19.8079 18.4214 15.3949 18.3734C15.1066 18.3734 14.8263 17.8767 14.2656 17.3561C15.0826 17.1558 15.5471 16.9476 16.0116 16.9476C21.1054 16.9235 26.1992 16.9075 31.285 16.9636C31.8376 16.9636 32.3822 17.4282 32.9269 17.6685C32.3983 17.9408 31.8857 18.3814 31.325 18.4615C27.9933 18.9501 27.1523 19.7831 27.8331 22.6107C31.5413 38.0543 35.3216 53.4818 39.0859 68.9174C39.1339 69.1337 39.246 69.3339 39.3342 69.5342C39.5023 69.5502 39.6625 69.5662 39.8307 69.5822V69.5983Z" fill="#D2FF52"/>
<path d="M291.302 77.8158H273.826L273.506 77.2311C274.067 76.9107 274.603 76.382 275.204 76.3099C278.592 75.8854 279.2 75.1404 278.263 71.8883C277.086 67.8192 275.845 63.766 274.483 59.7529C274.275 59.1522 273.258 58.4393 272.609 58.4313C266.53 58.3271 260.451 58.3992 254.372 58.3431C253.195 58.3351 252.602 58.7036 252.258 59.8491C251.032 63.9823 249.671 68.0755 248.462 72.2167C247.693 74.8521 248.702 75.8934 252.034 76.2699C252.851 76.366 253.635 76.7345 254.436 76.9828C254.364 77.2391 254.292 77.5034 254.22 77.7598H237.617C238.29 77.0709 238.666 76.358 239.043 76.358C242.767 76.374 244.193 73.7627 245.218 70.9111C246.908 66.2171 248.437 61.4591 249.959 56.7011C253.988 44.1652 258.024 31.6293 261.925 19.0534C262.517 17.155 263.527 16.8906 265.217 16.8906C266.963 16.8906 268.036 17.1069 268.652 19.1335C273.706 35.7866 278.896 52.3996 284.062 69.0207C284.446 70.2462 284.895 71.4558 285.359 72.6573C286.192 74.828 287.674 76.1337 290.101 76.3179C290.637 76.358 291.142 76.8466 291.663 77.1269L291.31 77.8238L291.302 77.8158ZM273.37 55.6277C270.142 44.8701 267.019 34.4489 263.895 24.0277C263.695 24.0277 263.503 24.0277 263.302 24.0277C260.083 34.5049 256.863 44.9742 253.595 55.6197H273.362L273.37 55.6277Z" fill="#D2FF52"/>
<path d="M97.9512 53.8037C97.6149 59.1705 97.8071 64.1047 100.61 68.5664C106.369 77.722 118.767 77.9703 126.151 69.0951C127.072 67.9897 127.801 66.724 128.77 65.6667C129.131 65.2662 129.924 65.2582 130.949 64.9378C125.366 79.2119 109.452 83.5934 98.8002 74.4298C96.013 72.0348 94.0909 69.031 93.1298 65.5466C90.663 56.6152 90.7591 47.8682 96.87 40.3066C105.288 29.9014 122.86 31.6476 128.29 43.3985C129.483 45.9778 129.611 49.0857 130.036 51.9774C130.284 53.6755 128.987 53.8277 127.633 53.8197C118.743 53.7957 109.845 53.8037 100.955 53.8037C100.05 53.8037 99.1526 53.8037 97.9512 53.8037ZM98.2556 51.3045C99.0405 51.3446 99.8494 51.4167 100.65 51.4167C106.345 51.4247 112.039 51.4167 117.734 51.4167C124.678 51.4167 125.214 50.6717 123.108 43.9672C121.458 38.7206 116.308 35.3643 110.806 35.9571C103.678 36.718 98.2636 43.2303 98.2556 51.2965V51.3045Z" fill="#D2FF52"/>
<path d="M294.677 34.8847H306.37V40.5158C306.963 40.1233 307.251 40.0272 307.388 39.835C313.891 30.6073 330.742 30.9837 336.653 43.6958C340.617 52.2186 340.553 61.174 336.148 69.5846C330.558 80.2702 316.622 82.3208 307.828 74.0543C307.564 73.806 307.292 73.5577 306.771 73.0851C306.643 73.814 306.499 74.2706 306.491 74.7272C306.475 81.0151 306.459 87.3111 306.491 93.5991C306.507 97.5481 307.796 98.7977 311.841 99.062C312.674 99.1181 313.499 99.4465 314.324 99.6467C314.275 99.9191 314.227 100.199 314.179 100.472H294.781C294.677 100.304 294.573 100.135 294.461 99.9671C294.982 99.6708 295.47 99.1741 296.015 99.1101C300.308 98.5574 300.972 97.8445 300.972 93.4709C300.972 76.2651 300.972 59.0593 300.972 41.8535C300.972 37.512 300.372 36.8552 295.999 36.1743C295.494 36.0942 295.014 35.8539 294.517 35.6937C294.565 35.4294 294.613 35.165 294.661 34.9087L294.677 34.8847ZM306.483 57.0167C306.483 59.7402 306.555 62.4636 306.459 65.1871C306.379 67.6222 307.292 69.5927 308.909 71.3228C315.565 78.4359 327.154 76.6977 331.047 67.7263C334.138 60.5973 334.058 53.0677 331.527 45.7945C329.333 39.4825 323.446 36.3906 316.87 37.4399C311.985 38.2249 306.066 42.5264 306.451 49.5352C306.587 52.0264 306.475 54.5256 306.475 57.0247L306.483 57.0167Z" fill="#D2FF52"/>
<path d="M357.393 72.9145V77.5845C357.393 82.735 357.393 87.8935 357.393 93.044C357.393 97.746 358.362 98.7393 363.039 99.0517C363.792 99.0997 364.529 99.4842 365.266 99.7085C365.201 99.9728 365.137 100.229 365.073 100.493H345.491C345.411 100.269 345.323 100.045 345.243 99.8206C345.827 99.5643 346.388 99.1398 346.989 99.0757C351.041 98.6271 351.754 97.8982 351.754 93.7409C351.762 76.5351 351.754 59.3373 351.754 42.1315C351.754 37.3335 351.362 36.8849 346.66 36.1399C346.204 36.0679 345.771 35.8195 345.219 35.6113C346.508 34.5059 353.837 34.2095 357.353 35.0105V40.3052C357.753 40.113 358.001 40.0809 358.097 39.9368C364.985 30.1964 382.093 31.414 387.579 43.9739C391.351 52.6168 391.239 61.46 386.834 69.8547C381.556 79.9234 367.812 82.1502 359.235 74.6127C358.746 74.1801 358.274 73.7316 357.385 72.9145H357.393ZM357.393 56.9583C357.393 59.834 357.176 62.7336 357.473 65.5772C357.657 67.3555 358.226 69.3741 359.315 70.7278C362.486 74.6768 366.907 76.2628 371.881 75.4938C377.319 74.6527 380.915 71.2324 382.565 66.1059C384.624 59.7058 384.688 53.1455 382.725 46.6973C380.683 39.9928 374.676 36.3883 367.772 37.4216C363.111 38.1185 356.8 42.4119 357.361 49.4688C357.561 51.952 357.393 54.4592 357.393 56.9583Z" fill="#D2FF52"/>
<path d="M215.97 68.7281C218.636 65.2544 220.054 61.4577 220.305 57.239C220.377 55.9734 219.686 55.3631 218.178 55.2554C217.361 55.2015 216.895 55.022 217.281 54.0257H227.449C227.664 54.6809 227.781 55.1926 226.794 55.2464C224.882 55.3451 223.814 56.4671 223.141 58.1905C222.1 60.8832 221.041 63.5849 219.821 66.1969C219.192 67.5433 218.196 68.7191 217.164 70.2719C218.968 71.6811 220.727 73.1801 222.612 74.4905C223.671 75.2265 224.999 74.9034 225.968 73.961C226.318 73.6199 226.614 73.2339 227.287 72.8749C227.269 73.198 227.377 73.6917 227.198 73.8263C226.085 74.7149 224.972 75.6305 223.751 76.3395C221.562 77.6051 219.39 77.0307 217.361 75.8818C216.24 75.2445 215.261 74.3559 214.193 73.557C213.072 74.2841 211.932 75.1547 210.684 75.801C207.696 77.3628 204.474 77.8295 201.171 77.1922C194.754 75.9446 191.766 69.2487 195.006 63.5221C196.603 60.7037 198.981 58.6662 201.656 56.9698C202.562 56.3953 202.697 55.9106 202.275 54.9323C201.243 52.5537 200.57 50.0853 200.983 47.4375C201.629 43.3086 205.542 40.4363 209.607 41.1364C213.179 41.7558 215.172 45.2833 213.978 48.8826C213.081 51.5843 211.052 53.2538 208.692 54.5732C207.777 55.0848 207.525 55.5157 208.001 56.5479C209.93 60.7755 212.228 64.7518 215.387 68.1805C215.522 68.3242 215.674 68.4588 215.97 68.7281ZM212.686 71.9863C208.907 67.8125 206.251 62.9117 203.765 57.7327C200.911 60.0395 198.766 62.6335 198.461 66.3764C198.29 68.4947 198.748 70.4335 200.229 72.0401C203.092 75.1458 209.177 75.1547 212.677 71.9863H212.686ZM206.619 53.8282C208.36 52.437 209.823 51.0278 210.307 49.0262C210.63 47.6888 210.613 46.2257 210.505 44.8345C210.406 43.6497 209.598 42.788 208.369 42.6444C207.148 42.5008 206.251 43.147 205.703 44.2062C205.407 44.7806 205.156 45.4 205.057 46.0372C204.617 48.7749 205.659 51.2073 206.628 53.8372L206.619 53.8282Z" fill="#D2FF52"/>
</svg>
