<svg width="156" height="106" viewBox="0 0 156 106" fill="none" xmlns="http://www.w3.org/2000/svg">
<mask id="path-1-outside-1_77_5708" maskUnits="userSpaceOnUse" x="84.2227" y="-0.0703125" width="72" height="106" fill="black">
<rect fill="white" x="84.2227" y="-0.0703125" width="72" height="106"/>
<path d="M135.687 43.8435C135.817 42.7912 135.947 42.2473 135.947 41.6916C135.947 31.381 136.006 21.0705 135.935 10.7718C135.899 5.73478 133.877 3.89024 128.719 3.50005C127.359 3.39363 125.301 4.29226 125.04 1.91563C125.017 1.72645 127.477 1.01701 128.79 0.99336C134.078 0.886944 139.365 0.946064 144.972 0.946064V4.75339C144.972 34.1124 144.972 63.4595 144.972 92.8185C144.972 99.4991 145.954 100.516 152.661 101.284C153.56 101.391 154.376 102.124 155.24 102.573C155.11 102.881 154.98 103.2 154.861 103.507H135.947V95.2424C132.386 98.9788 128.743 101.982 124.141 103.732C110.053 109.077 94.0127 102.029 88.524 87.7342C84.1827 76.4186 84.1591 64.8193 88.2401 53.4564C95.9054 32.0432 121.906 29.0281 135.687 43.8554V43.8435ZM135.959 69.0523C135.959 64.6301 135.805 60.2079 136.006 55.7976C136.207 51.4818 134.373 48.2184 131.31 45.4752C119.422 34.8455 101.595 39.7879 96.7334 55.2655C93.788 64.6419 93.8116 74.314 96.3075 83.7732C99.1229 94.3793 107.9 100.327 118.57 99.5345C126.59 98.9433 136.881 91.6006 135.994 81.1246C135.663 77.1281 135.935 73.0724 135.935 69.0523H135.959Z"/>
</mask>
<path d="M135.687 43.8435C135.817 42.7912 135.947 42.2473 135.947 41.6916C135.947 31.381 136.006 21.0705 135.935 10.7718C135.899 5.73478 133.877 3.89024 128.719 3.50005C127.359 3.39363 125.301 4.29226 125.04 1.91563C125.017 1.72645 127.477 1.01701 128.79 0.99336C134.078 0.886944 139.365 0.946064 144.972 0.946064V4.75339C144.972 34.1124 144.972 63.4595 144.972 92.8185C144.972 99.4991 145.954 100.516 152.661 101.284C153.56 101.391 154.376 102.124 155.24 102.573C155.11 102.881 154.98 103.2 154.861 103.507H135.947V95.2424C132.386 98.9788 128.743 101.982 124.141 103.732C110.053 109.077 94.0127 102.029 88.524 87.7342C84.1827 76.4186 84.1591 64.8193 88.2401 53.4564C95.9054 32.0432 121.906 29.0281 135.687 43.8554V43.8435ZM135.959 69.0523C135.959 64.6301 135.805 60.2079 136.006 55.7976C136.207 51.4818 134.373 48.2184 131.31 45.4752C119.422 34.8455 101.595 39.7879 96.7334 55.2655C93.788 64.6419 93.8116 74.314 96.3075 83.7732C99.1229 94.3793 107.9 100.327 118.57 99.5345C126.59 98.9433 136.881 91.6006 135.994 81.1246C135.663 77.1281 135.935 73.0724 135.935 69.0523H135.959Z" fill="#D2FF52"/>
<path d="M135.687 43.8435C135.817 42.7912 135.947 42.2473 135.947 41.6916C135.947 31.381 136.006 21.0705 135.935 10.7718C135.899 5.73478 133.877 3.89024 128.719 3.50005C127.359 3.39363 125.301 4.29226 125.04 1.91563C125.017 1.72645 127.477 1.01701 128.79 0.99336C134.078 0.886944 139.365 0.946064 144.972 0.946064V4.75339C144.972 34.1124 144.972 63.4595 144.972 92.8185C144.972 99.4991 145.954 100.516 152.661 101.284C153.56 101.391 154.376 102.124 155.24 102.573C155.11 102.881 154.98 103.2 154.861 103.507H135.947V95.2424C132.386 98.9788 128.743 101.982 124.141 103.732C110.053 109.077 94.0127 102.029 88.524 87.7342C84.1827 76.4186 84.1591 64.8193 88.2401 53.4564C95.9054 32.0432 121.906 29.0281 135.687 43.8554V43.8435ZM135.959 69.0523C135.959 64.6301 135.805 60.2079 136.006 55.7976C136.207 51.4818 134.373 48.2184 131.31 45.4752C119.422 34.8455 101.595 39.7879 96.7334 55.2655C93.788 64.6419 93.8116 74.314 96.3075 83.7732C99.1229 94.3793 107.9 100.327 118.57 99.5345C126.59 98.9433 136.881 91.6006 135.994 81.1246C135.663 77.1281 135.935 73.0724 135.935 69.0523H135.959Z" stroke="#D2FF52" stroke-width="0.52" stroke-linejoin="round" mask="url(#path-1-outside-1_77_5708)"/>
<mask id="path-2-outside-2_77_5708" maskUnits="userSpaceOnUse" x="0.230469" y="33.4922" width="76" height="71" fill="black">
<rect fill="white" x="0.230469" y="33.4922" width="76" height="71"/>
<path d="M20.4054 36.309V47.2225C21.4227 45.9692 22.0023 45.2834 22.5583 44.574C30.6612 34.2753 45.0927 31.3902 55.9162 38.1417C62.7416 42.3983 65.6516 49.1025 65.8054 56.8473C66.0419 69.026 65.8763 81.2047 65.8881 93.3834C65.8881 99.1062 67.3431 100.643 73.0802 101.175C74.3932 101.294 76.3924 100.762 75.7299 103.517H46.4057C47.5294 102.417 48.0499 101.436 48.7478 101.305C56.8153 99.8275 57.1701 99.4491 57.1701 91.3024C57.1701 80.9919 57.2174 70.6695 57.1346 60.359C57.111 57.9232 56.9099 55.4284 56.4012 53.0518C53.929 41.5588 41.4729 38.1417 32.0097 42.8122C28.6147 44.4912 25.5155 47.2817 23.1024 50.2258C21.47 52.2241 20.6183 55.3811 20.5473 58.0533C20.2753 69.6408 20.429 81.2283 20.429 92.8277C20.429 99.1299 21.7776 100.608 28.0233 101.175C29.4191 101.305 31.0161 101.128 30.259 103.528H1.23047C2.04667 102.476 2.41338 101.731 3.00483 101.329C3.41885 101.045 4.15223 101.199 4.74369 101.152C10.2087 100.667 11.711 99.0235 11.7228 93.4425C11.7465 82.8364 11.7228 72.2303 11.7228 61.6123C11.7228 56.4098 11.7583 51.1954 11.711 45.9928C11.6637 41.0504 9.93666 39.2413 5.08674 38.8866C4.79101 38.863 4.44796 38.9221 4.21138 38.8038C3.38335 38.3545 2.5908 37.8461 1.7746 37.3613C2.56714 37.0066 3.34786 36.3563 4.15223 36.3445C9.45165 36.2499 14.7629 36.2972 20.4054 36.2972V36.309Z"/>
</mask>
<path d="M20.4054 36.309V47.2225C21.4227 45.9692 22.0023 45.2834 22.5583 44.574C30.6612 34.2753 45.0927 31.3902 55.9162 38.1417C62.7416 42.3983 65.6516 49.1025 65.8054 56.8473C66.0419 69.026 65.8763 81.2047 65.8881 93.3834C65.8881 99.1062 67.3431 100.643 73.0802 101.175C74.3932 101.294 76.3924 100.762 75.7299 103.517H46.4057C47.5294 102.417 48.0499 101.436 48.7478 101.305C56.8153 99.8275 57.1701 99.4491 57.1701 91.3024C57.1701 80.9919 57.2174 70.6695 57.1346 60.359C57.111 57.9232 56.9099 55.4284 56.4012 53.0518C53.929 41.5588 41.4729 38.1417 32.0097 42.8122C28.6147 44.4912 25.5155 47.2817 23.1024 50.2258C21.47 52.2241 20.6183 55.3811 20.5473 58.0533C20.2753 69.6408 20.429 81.2283 20.429 92.8277C20.429 99.1299 21.7776 100.608 28.0233 101.175C29.4191 101.305 31.0161 101.128 30.259 103.528H1.23047C2.04667 102.476 2.41338 101.731 3.00483 101.329C3.41885 101.045 4.15223 101.199 4.74369 101.152C10.2087 100.667 11.711 99.0235 11.7228 93.4425C11.7465 82.8364 11.7228 72.2303 11.7228 61.6123C11.7228 56.4098 11.7583 51.1954 11.711 45.9928C11.6637 41.0504 9.93666 39.2413 5.08674 38.8866C4.79101 38.863 4.44796 38.9221 4.21138 38.8038C3.38335 38.3545 2.5908 37.8461 1.7746 37.3613C2.56714 37.0066 3.34786 36.3563 4.15223 36.3445C9.45165 36.2499 14.7629 36.2972 20.4054 36.2972V36.309Z" fill="#D2FF52"/>
<path d="M20.4054 36.309V47.2225C21.4227 45.9692 22.0023 45.2834 22.5583 44.574C30.6612 34.2753 45.0927 31.3902 55.9162 38.1417C62.7416 42.3983 65.6516 49.1025 65.8054 56.8473C66.0419 69.026 65.8763 81.2047 65.8881 93.3834C65.8881 99.1062 67.3431 100.643 73.0802 101.175C74.3932 101.294 76.3924 100.762 75.7299 103.517H46.4057C47.5294 102.417 48.0499 101.436 48.7478 101.305C56.8153 99.8275 57.1701 99.4491 57.1701 91.3024C57.1701 80.9919 57.2174 70.6695 57.1346 60.359C57.111 57.9232 56.9099 55.4284 56.4012 53.0518C53.929 41.5588 41.4729 38.1417 32.0097 42.8122C28.6147 44.4912 25.5155 47.2817 23.1024 50.2258C21.47 52.2241 20.6183 55.3811 20.5473 58.0533C20.2753 69.6408 20.429 81.2283 20.429 92.8277C20.429 99.1299 21.7776 100.608 28.0233 101.175C29.4191 101.305 31.0161 101.128 30.259 103.528H1.23047C2.04667 102.476 2.41338 101.731 3.00483 101.329C3.41885 101.045 4.15223 101.199 4.74369 101.152C10.2087 100.667 11.711 99.0235 11.7228 93.4425C11.7465 82.8364 11.7228 72.2303 11.7228 61.6123C11.7228 56.4098 11.7583 51.1954 11.711 45.9928C11.6637 41.0504 9.93666 39.2413 5.08674 38.8866C4.79101 38.863 4.44796 38.9221 4.21138 38.8038C3.38335 38.3545 2.5908 37.8461 1.7746 37.3613C2.56714 37.0066 3.34786 36.3563 4.15223 36.3445C9.45165 36.2499 14.7629 36.2972 20.4054 36.2972V36.309Z" stroke="#D2FF52" stroke-width="0.52" stroke-linejoin="round" mask="url(#path-2-outside-2_77_5708)"/>
</svg>
