<svg width="196" height="64" viewBox="0 0 196 64" fill="none" xmlns="http://www.w3.org/2000/svg">
<mask id="path-1-outside-1_77_5517" maskUnits="userSpaceOnUse" x="0" y="-0.09375" width="56" height="64" fill="black">
<rect fill="white" y="-0.09375" width="56" height="64"/>
<path d="M1.16819 1.18402C1.59267 1.10392 2.02517 0.951729 2.44965 0.951729C7.7677 0.935709 13.0938 0.919688 18.4118 0.967749C18.9724 0.967749 19.5251 1.40831 20.0777 1.64861C19.5491 1.91295 19.0445 2.36152 18.4999 2.41759C14.0869 2.8261 13.334 3.6111 13.326 8.08877C13.326 19.1508 13.302 30.2208 13.35 41.2828C13.3581 43.3975 13.5102 45.5282 13.8546 47.6108C15.2082 55.8213 21.263 60.5553 29.6646 60.1067C38.851 59.6181 44.2652 54.6518 45.3144 45.5362C45.6588 42.5324 45.6428 39.4886 45.6428 36.4607C45.6508 26.9126 45.6107 17.3645 45.5467 7.80842C45.5226 3.71523 44.5215 2.71396 40.4929 2.45764C40.1165 2.43361 39.692 2.52172 39.3636 2.38555C39.0192 2.24136 38.7629 1.88892 38.4666 1.63259C38.795 1.40831 39.0993 1.07989 39.4678 0.97576C39.8922 0.855607 40.3728 0.927699 40.8293 0.927699C44.8579 0.927699 48.8865 0.911678 52.915 0.935709C53.6919 0.935709 54.4688 1.06387 55.2377 1.13596C55.2777 1.36826 55.3098 1.60055 55.3498 1.83285C54.7651 2.0331 54.1965 2.36152 53.5958 2.41759C49.4952 2.81008 48.5981 3.66717 48.5821 7.81643C48.5261 19.0306 48.6222 30.2529 48.478 41.4671C48.438 44.3107 48.0455 47.2424 47.2366 49.9578C44.7618 58.3044 38.5387 62.9503 29.8168 62.8381C26.0765 62.7901 22.128 62.5258 18.6601 61.2922C11.3638 58.6969 8.24824 52.5051 7.93589 45.2879C7.43131 33.561 7.5915 21.8102 7.46335 10.0673C7.45534 9.08203 7.46335 8.09678 7.46335 7.11153C7.44733 3.64314 6.59036 2.77003 3.05834 2.44162C2.36155 2.37754 1.68077 2.07315 1 1.8729C1.05606 1.6406 1.11213 1.40831 1.16018 1.17601L1.16819 1.18402Z"/>
</mask>
<path d="M1.16819 1.18402C1.59267 1.10392 2.02517 0.951729 2.44965 0.951729C7.7677 0.935709 13.0938 0.919688 18.4118 0.967749C18.9724 0.967749 19.5251 1.40831 20.0777 1.64861C19.5491 1.91295 19.0445 2.36152 18.4999 2.41759C14.0869 2.8261 13.334 3.6111 13.326 8.08877C13.326 19.1508 13.302 30.2208 13.35 41.2828C13.3581 43.3975 13.5102 45.5282 13.8546 47.6108C15.2082 55.8213 21.263 60.5553 29.6646 60.1067C38.851 59.6181 44.2652 54.6518 45.3144 45.5362C45.6588 42.5324 45.6428 39.4886 45.6428 36.4607C45.6508 26.9126 45.6107 17.3645 45.5467 7.80842C45.5226 3.71523 44.5215 2.71396 40.4929 2.45764C40.1165 2.43361 39.692 2.52172 39.3636 2.38555C39.0192 2.24136 38.7629 1.88892 38.4666 1.63259C38.795 1.40831 39.0993 1.07989 39.4678 0.97576C39.8922 0.855607 40.3728 0.927699 40.8293 0.927699C44.8579 0.927699 48.8865 0.911678 52.915 0.935709C53.6919 0.935709 54.4688 1.06387 55.2377 1.13596C55.2777 1.36826 55.3098 1.60055 55.3498 1.83285C54.7651 2.0331 54.1965 2.36152 53.5958 2.41759C49.4952 2.81008 48.5981 3.66717 48.5821 7.81643C48.5261 19.0306 48.6222 30.2529 48.478 41.4671C48.438 44.3107 48.0455 47.2424 47.2366 49.9578C44.7618 58.3044 38.5387 62.9503 29.8168 62.8381C26.0765 62.7901 22.128 62.5258 18.6601 61.2922C11.3638 58.6969 8.24824 52.5051 7.93589 45.2879C7.43131 33.561 7.5915 21.8102 7.46335 10.0673C7.45534 9.08203 7.46335 8.09678 7.46335 7.11153C7.44733 3.64314 6.59036 2.77003 3.05834 2.44162C2.36155 2.37754 1.68077 2.07315 1 1.8729C1.05606 1.6406 1.11213 1.40831 1.16018 1.17601L1.16819 1.18402Z" fill="#D2FF52"/>
<path d="M1.16819 1.18402C1.59267 1.10392 2.02517 0.951729 2.44965 0.951729C7.7677 0.935709 13.0938 0.919688 18.4118 0.967749C18.9724 0.967749 19.5251 1.40831 20.0777 1.64861C19.5491 1.91295 19.0445 2.36152 18.4999 2.41759C14.0869 2.8261 13.334 3.6111 13.326 8.08877C13.326 19.1508 13.302 30.2208 13.35 41.2828C13.3581 43.3975 13.5102 45.5282 13.8546 47.6108C15.2082 55.8213 21.263 60.5553 29.6646 60.1067C38.851 59.6181 44.2652 54.6518 45.3144 45.5362C45.6588 42.5324 45.6428 39.4886 45.6428 36.4607C45.6508 26.9126 45.6107 17.3645 45.5467 7.80842C45.5226 3.71523 44.5215 2.71396 40.4929 2.45764C40.1165 2.43361 39.692 2.52172 39.3636 2.38555C39.0192 2.24136 38.7629 1.88892 38.4666 1.63259C38.795 1.40831 39.0993 1.07989 39.4678 0.97576C39.8922 0.855607 40.3728 0.927699 40.8293 0.927699C44.8579 0.927699 48.8865 0.911678 52.915 0.935709C53.6919 0.935709 54.4688 1.06387 55.2377 1.13596C55.2777 1.36826 55.3098 1.60055 55.3498 1.83285C54.7651 2.0331 54.1965 2.36152 53.5958 2.41759C49.4952 2.81008 48.5981 3.66717 48.5821 7.81643C48.5261 19.0306 48.6222 30.2529 48.478 41.4671C48.438 44.3107 48.0455 47.2424 47.2366 49.9578C44.7618 58.3044 38.5387 62.9503 29.8168 62.8381C26.0765 62.7901 22.128 62.5258 18.6601 61.2922C11.3638 58.6969 8.24824 52.5051 7.93589 45.2879C7.43131 33.561 7.5915 21.8102 7.46335 10.0673C7.45534 9.08203 7.46335 8.09678 7.46335 7.11153C7.44733 3.64314 6.59036 2.77003 3.05834 2.44162C2.36155 2.37754 1.68077 2.07315 1 1.8729C1.05606 1.6406 1.11213 1.40831 1.16018 1.17601L1.16819 1.18402Z" stroke="#D2FF52" stroke-width="0.8" stroke-linejoin="round" mask="url(#path-1-outside-1_77_5517)"/>
<mask id="path-2-outside-2_77_5517" maskUnits="userSpaceOnUse" x="115.641" y="-0.0625" width="56" height="64" fill="black">
<rect fill="white" x="115.641" y="-0.0625" width="56" height="64"/>
<path d="M116.745 1.20092C117.241 1.11281 117.738 0.952604 118.226 0.952604C123.472 0.936584 128.718 0.920564 133.964 0.976635C134.517 0.976635 135.07 1.4252 135.622 1.66551C135.086 1.92984 134.573 2.3704 134.02 2.41846C129.792 2.82698 129.031 3.57192 129.047 7.79327C129.095 20.4493 128.911 33.1134 129.359 45.7534C129.679 54.7087 135.262 59.707 144.128 60.1156C152.978 60.5241 159.329 55.5498 160.763 46.9549C161.131 44.7281 161.243 42.4372 161.251 40.1783C161.291 29.3406 161.251 18.5028 161.235 7.66511C161.235 3.83626 160.13 2.70683 156.262 2.46652C155.885 2.44249 155.461 2.53861 155.132 2.40244C154.74 2.22622 154.428 1.86576 154.083 1.58541C154.428 1.37714 154.772 0.992655 155.124 0.984645C160.066 0.944594 165.008 0.944594 169.949 0.984645C170.27 0.984645 170.582 1.44122 170.902 1.68153C170.582 1.92984 170.302 2.32234 169.941 2.39443C166.198 3.21147 164.322 5.56378 164.311 9.45137C164.303 20.0648 164.527 30.6783 164.183 41.2757C164.055 45.2647 162.965 49.3339 161.652 53.1387C160.258 57.1598 157.055 59.8833 153.034 61.3892C147.211 63.576 141.237 63.632 135.374 61.7737C128.198 59.4988 123.657 52.8984 123.472 44.3676C123.224 32.857 123.296 21.3304 123.224 9.81183C123.224 8.75449 123.248 7.68914 123.2 6.6318C123.064 3.70008 122.135 2.77091 119.204 2.46652C118.339 2.37841 117.498 2.16214 116.641 2.00994L116.769 1.1849L116.745 1.20092Z"/>
</mask>
<path d="M116.745 1.20092C117.241 1.11281 117.738 0.952604 118.226 0.952604C123.472 0.936584 128.718 0.920564 133.964 0.976635C134.517 0.976635 135.07 1.4252 135.622 1.66551C135.086 1.92984 134.573 2.3704 134.02 2.41846C129.792 2.82698 129.031 3.57192 129.047 7.79327C129.095 20.4493 128.911 33.1134 129.359 45.7534C129.679 54.7087 135.262 59.707 144.128 60.1156C152.978 60.5241 159.329 55.5498 160.763 46.9549C161.131 44.7281 161.243 42.4372 161.251 40.1783C161.291 29.3406 161.251 18.5028 161.235 7.66511C161.235 3.83626 160.13 2.70683 156.262 2.46652C155.885 2.44249 155.461 2.53861 155.132 2.40244C154.74 2.22622 154.428 1.86576 154.083 1.58541C154.428 1.37714 154.772 0.992655 155.124 0.984645C160.066 0.944594 165.008 0.944594 169.949 0.984645C170.27 0.984645 170.582 1.44122 170.902 1.68153C170.582 1.92984 170.302 2.32234 169.941 2.39443C166.198 3.21147 164.322 5.56378 164.311 9.45137C164.303 20.0648 164.527 30.6783 164.183 41.2757C164.055 45.2647 162.965 49.3339 161.652 53.1387C160.258 57.1598 157.055 59.8833 153.034 61.3892C147.211 63.576 141.237 63.632 135.374 61.7737C128.198 59.4988 123.657 52.8984 123.472 44.3676C123.224 32.857 123.296 21.3304 123.224 9.81183C123.224 8.75449 123.248 7.68914 123.2 6.6318C123.064 3.70008 122.135 2.77091 119.204 2.46652C118.339 2.37841 117.498 2.16214 116.641 2.00994L116.769 1.1849L116.745 1.20092Z" fill="#D2FF52"/>
<path d="M116.745 1.20092C117.241 1.11281 117.738 0.952604 118.226 0.952604C123.472 0.936584 128.718 0.920564 133.964 0.976635C134.517 0.976635 135.07 1.4252 135.622 1.66551C135.086 1.92984 134.573 2.3704 134.02 2.41846C129.792 2.82698 129.031 3.57192 129.047 7.79327C129.095 20.4493 128.911 33.1134 129.359 45.7534C129.679 54.7087 135.262 59.707 144.128 60.1156C152.978 60.5241 159.329 55.5498 160.763 46.9549C161.131 44.7281 161.243 42.4372 161.251 40.1783C161.291 29.3406 161.251 18.5028 161.235 7.66511C161.235 3.83626 160.13 2.70683 156.262 2.46652C155.885 2.44249 155.461 2.53861 155.132 2.40244C154.74 2.22622 154.428 1.86576 154.083 1.58541C154.428 1.37714 154.772 0.992655 155.124 0.984645C160.066 0.944594 165.008 0.944594 169.949 0.984645C170.27 0.984645 170.582 1.44122 170.902 1.68153C170.582 1.92984 170.302 2.32234 169.941 2.39443C166.198 3.21147 164.322 5.56378 164.311 9.45137C164.303 20.0648 164.527 30.6783 164.183 41.2757C164.055 45.2647 162.965 49.3339 161.652 53.1387C160.258 57.1598 157.055 59.8833 153.034 61.3892C147.211 63.576 141.237 63.632 135.374 61.7737C128.198 59.4988 123.657 52.8984 123.472 44.3676C123.224 32.857 123.296 21.3304 123.224 9.81183C123.224 8.75449 123.248 7.68914 123.2 6.6318C123.064 3.70008 122.135 2.77091 119.204 2.46652C118.339 2.37841 117.498 2.16214 116.641 2.00994L116.769 1.1849L116.745 1.20092Z" stroke="#D2FF52" stroke-width="0.8" stroke-linejoin="round" mask="url(#path-2-outside-2_77_5517)"/>
<mask id="path-3-outside-3_77_5517" maskUnits="userSpaceOnUse" x="56.2578" y="-0.046875" width="56" height="63" fill="black">
<rect fill="white" x="56.2578" y="-0.046875" width="56" height="63"/>
<path d="M110.687 61.8362H90.6798L90.3515 61.2354C90.872 60.907 91.3446 60.3863 91.9132 60.2742C95.6535 59.4892 96.134 58.3517 94.2038 54.9795C91.0162 49.3884 87.8846 43.7572 84.7291 38.1501C84.1764 37.1729 83.5998 36.2037 82.8549 34.914C82.3023 35.7711 81.8858 36.3719 81.5174 36.9967C78.1055 42.9002 74.7177 48.8117 71.2818 54.6991C69.3516 58.0073 69.9923 59.5052 73.7085 60.2742C74.2852 60.3943 74.7897 60.8509 75.3264 61.1473C75.2303 61.3636 75.1261 61.5878 75.03 61.8041H57.2578C58.0828 61.0431 58.4832 60.3543 58.8997 60.3383C62.8802 60.2101 65.323 57.8071 67.2131 54.7472C71.6422 47.5941 75.9831 40.393 80.26 33.1598C80.6524 32.487 80.6764 31.2134 80.3 30.5325C76.1513 22.9549 71.9065 15.4414 67.6697 7.91183C66.0038 4.95609 63.9134 2.56906 60.1491 2.42488C59.7887 2.40886 59.4443 1.95228 59.2601 1.19132H79.6753C79.2749 1.73601 79.0906 2.22463 78.7543 2.38483C78.2977 2.6011 77.7131 2.52901 77.1925 2.62513C73.7245 3.25794 72.9477 4.85195 74.6696 7.86377C77.2245 12.3334 79.8195 16.7871 82.3984 21.2407C83.1833 22.5944 83.9842 23.9321 85.0254 25.6864C87.332 21.7454 89.4144 18.1728 91.5048 14.6163C92.8823 12.2613 94.2359 9.89835 95.6615 7.57541C97.5917 4.41941 97.0871 3.22589 93.475 2.46493C93.0025 2.3608 92.602 1.90422 92.1695 1.60784C92.586 1.38356 92.9945 0.975043 93.4109 0.975043C98.5047 0.934992 103.591 0.959023 108.684 0.975043C108.957 0.975043 109.229 1.15127 110.182 1.47968C109.133 1.98432 108.604 2.4409 108.052 2.47294C104.143 2.72126 101.316 4.71578 99.3297 7.90382C95.2851 14.4001 91.3045 20.9363 87.3961 27.5127C87.0277 28.1294 87.0517 29.315 87.3961 29.9558C92.0574 38.3664 96.8068 46.729 101.556 55.0996C103.278 58.1275 105.785 59.9778 109.365 60.2902C109.958 60.3383 110.518 60.8189 111.095 61.0992C110.959 61.3475 110.831 61.5959 110.695 61.8442L110.687 61.8362Z"/>
</mask>
<path d="M110.687 61.8362H90.6798L90.3515 61.2354C90.872 60.907 91.3446 60.3863 91.9132 60.2742C95.6535 59.4892 96.134 58.3517 94.2038 54.9795C91.0162 49.3884 87.8846 43.7572 84.7291 38.1501C84.1764 37.1729 83.5998 36.2037 82.8549 34.914C82.3023 35.7711 81.8858 36.3719 81.5174 36.9967C78.1055 42.9002 74.7177 48.8117 71.2818 54.6991C69.3516 58.0073 69.9923 59.5052 73.7085 60.2742C74.2852 60.3943 74.7897 60.8509 75.3264 61.1473C75.2303 61.3636 75.1261 61.5878 75.03 61.8041H57.2578C58.0828 61.0431 58.4832 60.3543 58.8997 60.3383C62.8802 60.2101 65.323 57.8071 67.2131 54.7472C71.6422 47.5941 75.9831 40.393 80.26 33.1598C80.6524 32.487 80.6764 31.2134 80.3 30.5325C76.1513 22.9549 71.9065 15.4414 67.6697 7.91183C66.0038 4.95609 63.9134 2.56906 60.1491 2.42488C59.7887 2.40886 59.4443 1.95228 59.2601 1.19132H79.6753C79.2749 1.73601 79.0906 2.22463 78.7543 2.38483C78.2977 2.6011 77.7131 2.52901 77.1925 2.62513C73.7245 3.25794 72.9477 4.85195 74.6696 7.86377C77.2245 12.3334 79.8195 16.7871 82.3984 21.2407C83.1833 22.5944 83.9842 23.9321 85.0254 25.6864C87.332 21.7454 89.4144 18.1728 91.5048 14.6163C92.8823 12.2613 94.2359 9.89835 95.6615 7.57541C97.5917 4.41941 97.0871 3.22589 93.475 2.46493C93.0025 2.3608 92.602 1.90422 92.1695 1.60784C92.586 1.38356 92.9945 0.975043 93.4109 0.975043C98.5047 0.934992 103.591 0.959023 108.684 0.975043C108.957 0.975043 109.229 1.15127 110.182 1.47968C109.133 1.98432 108.604 2.4409 108.052 2.47294C104.143 2.72126 101.316 4.71578 99.3297 7.90382C95.2851 14.4001 91.3045 20.9363 87.3961 27.5127C87.0277 28.1294 87.0517 29.315 87.3961 29.9558C92.0574 38.3664 96.8068 46.729 101.556 55.0996C103.278 58.1275 105.785 59.9778 109.365 60.2902C109.958 60.3383 110.518 60.8189 111.095 61.0992C110.959 61.3475 110.831 61.5959 110.695 61.8442L110.687 61.8362Z" fill="#D2FF52"/>
<path d="M110.687 61.8362H90.6798L90.3515 61.2354C90.872 60.907 91.3446 60.3863 91.9132 60.2742C95.6535 59.4892 96.134 58.3517 94.2038 54.9795C91.0162 49.3884 87.8846 43.7572 84.7291 38.1501C84.1764 37.1729 83.5998 36.2037 82.8549 34.914C82.3023 35.7711 81.8858 36.3719 81.5174 36.9967C78.1055 42.9002 74.7177 48.8117 71.2818 54.6991C69.3516 58.0073 69.9923 59.5052 73.7085 60.2742C74.2852 60.3943 74.7897 60.8509 75.3264 61.1473C75.2303 61.3636 75.1261 61.5878 75.03 61.8041H57.2578C58.0828 61.0431 58.4832 60.3543 58.8997 60.3383C62.8802 60.2101 65.323 57.8071 67.2131 54.7472C71.6422 47.5941 75.9831 40.393 80.26 33.1598C80.6524 32.487 80.6764 31.2134 80.3 30.5325C76.1513 22.9549 71.9065 15.4414 67.6697 7.91183C66.0038 4.95609 63.9134 2.56906 60.1491 2.42488C59.7887 2.40886 59.4443 1.95228 59.2601 1.19132H79.6753C79.2749 1.73601 79.0906 2.22463 78.7543 2.38483C78.2977 2.6011 77.7131 2.52901 77.1925 2.62513C73.7245 3.25794 72.9477 4.85195 74.6696 7.86377C77.2245 12.3334 79.8195 16.7871 82.3984 21.2407C83.1833 22.5944 83.9842 23.9321 85.0254 25.6864C87.332 21.7454 89.4144 18.1728 91.5048 14.6163C92.8823 12.2613 94.2359 9.89835 95.6615 7.57541C97.5917 4.41941 97.0871 3.22589 93.475 2.46493C93.0025 2.3608 92.602 1.90422 92.1695 1.60784C92.586 1.38356 92.9945 0.975043 93.4109 0.975043C98.5047 0.934992 103.591 0.959023 108.684 0.975043C108.957 0.975043 109.229 1.15127 110.182 1.47968C109.133 1.98432 108.604 2.4409 108.052 2.47294C104.143 2.72126 101.316 4.71578 99.3297 7.90382C95.2851 14.4001 91.3045 20.9363 87.3961 27.5127C87.0277 28.1294 87.0517 29.315 87.3961 29.9558C92.0574 38.3664 96.8068 46.729 101.556 55.0996C103.278 58.1275 105.785 59.9778 109.365 60.2902C109.958 60.3383 110.518 60.8189 111.095 61.0992C110.959 61.3475 110.831 61.5959 110.695 61.8442L110.687 61.8362Z" stroke="#D2FF52" stroke-width="0.8" stroke-linejoin="round" mask="url(#path-3-outside-3_77_5517)"/>
<mask id="path-4-outside-4_77_5517" maskUnits="userSpaceOnUse" x="173.906" y="0.28125" width="22" height="62" fill="black">
<rect fill="white" x="173.906" y="0.28125" width="22" height="62"/>
<path d="M194.657 61.7899H175.171C175.082 61.5656 174.994 61.3494 174.906 61.1251C175.467 60.8527 176.02 60.4122 176.604 60.3481C181.554 59.7874 182.082 59.2347 182.082 54.2764C182.082 38.8969 182.082 23.5254 182.082 8.14595C182.082 3.71633 181.249 2.8192 176.893 2.45073C176.244 2.39466 175.603 2.14635 174.962 1.98614C174.986 1.75385 175.018 1.51354 175.042 1.28125H194.665C194.737 1.42543 194.809 1.57763 194.873 1.72181C194.352 1.96211 193.848 2.36262 193.311 2.4267C188.466 2.96338 187.889 3.56414 187.889 8.33819C187.889 23.7898 187.889 39.2413 187.889 54.6929C187.889 59.2106 188.578 59.9075 193.055 60.3401C193.696 60.4042 194.304 60.8607 194.921 61.1331L194.649 61.7899H194.657Z"/>
</mask>
<path d="M194.657 61.7899H175.171C175.082 61.5656 174.994 61.3494 174.906 61.1251C175.467 60.8527 176.02 60.4122 176.604 60.3481C181.554 59.7874 182.082 59.2347 182.082 54.2764C182.082 38.8969 182.082 23.5254 182.082 8.14595C182.082 3.71633 181.249 2.8192 176.893 2.45073C176.244 2.39466 175.603 2.14635 174.962 1.98614C174.986 1.75385 175.018 1.51354 175.042 1.28125H194.665C194.737 1.42543 194.809 1.57763 194.873 1.72181C194.352 1.96211 193.848 2.36262 193.311 2.4267C188.466 2.96338 187.889 3.56414 187.889 8.33819C187.889 23.7898 187.889 39.2413 187.889 54.6929C187.889 59.2106 188.578 59.9075 193.055 60.3401C193.696 60.4042 194.304 60.8607 194.921 61.1331L194.649 61.7899H194.657Z" fill="#D2FF52"/>
<path d="M194.657 61.7899H175.171C175.082 61.5656 174.994 61.3494 174.906 61.1251C175.467 60.8527 176.02 60.4122 176.604 60.3481C181.554 59.7874 182.082 59.2347 182.082 54.2764C182.082 38.8969 182.082 23.5254 182.082 8.14595C182.082 3.71633 181.249 2.8192 176.893 2.45073C176.244 2.39466 175.603 2.14635 174.962 1.98614C174.986 1.75385 175.018 1.51354 175.042 1.28125H194.665C194.737 1.42543 194.809 1.57763 194.873 1.72181C194.352 1.96211 193.848 2.36262 193.311 2.4267C188.466 2.96338 187.889 3.56414 187.889 8.33819C187.889 23.7898 187.889 39.2413 187.889 54.6929C187.889 59.2106 188.578 59.9075 193.055 60.3401C193.696 60.4042 194.304 60.8607 194.921 61.1331L194.649 61.7899H194.657Z" stroke="#D2FF52" stroke-width="0.8" stroke-linejoin="round" mask="url(#path-4-outside-4_77_5517)"/>
</svg>
