<svg width="157" height="121" viewBox="0 0 157 121" fill="none" xmlns="http://www.w3.org/2000/svg">
<path d="M5.02707 80.3077C2.29418 80.3077 0.710101 79.4062 0.281973 77.589C-0.146156 75.7789 0.260566 73.5468 1.495 70.9068C1.85891 70.127 2.30845 69.3186 2.84361 68.4815C3.37877 67.6516 3.94961 66.7931 4.55612 65.9131C7.45313 61.9996 11.185 57.614 15.7374 52.7634C20.2899 47.9127 24.5355 43.5772 28.4671 39.7567C30.7362 37.6033 32.6342 36.0579 34.1398 35.1279C35.6454 34.1978 37.1367 33.511 38.6138 33.0674C40.0908 32.6238 41.8461 32.1159 43.8726 31.5221C44.4506 31.3289 45.0071 31.1787 45.5423 31.0785C46.0775 30.9855 46.6554 30.8853 47.2905 30.7852C44.422 32.7455 41.3466 35.0992 38.0715 37.8394C34.7891 40.5795 30.8575 44.357 26.2765 49.1504C23.8148 51.6974 21.246 54.5376 18.5702 57.6713C15.8873 60.8049 13.4683 63.7453 11.3134 66.4854C9.15851 69.2256 7.66006 71.3862 6.83234 72.953C5.86905 74.8131 5.49801 76.1367 5.71921 76.9165C5.94041 77.7035 6.53979 78.0898 7.51735 78.0898C9.17991 78.0898 11.0351 77.5032 13.1044 76.3298C15.1666 75.1565 17.0789 73.9331 18.8485 72.6596C22.1379 70.2129 25.4203 67.5157 28.6954 64.5824C31.9706 61.6491 35.31 58.5083 38.7208 55.1815C39.1917 54.7952 39.5271 54.5949 39.7269 54.5949C40.1193 54.5949 40.1764 54.8882 39.9053 55.4749C39.6769 55.9685 39.3987 56.3549 39.0633 56.6482C35.7952 59.882 32.4344 63.1157 28.9737 66.3423C25.513 69.5761 21.7027 72.6096 17.5498 75.4498C15.6875 76.7233 13.6681 77.8537 11.5061 78.8267C9.33689 79.8069 7.18198 80.2933 5.0342 80.2933L5.02707 80.3077ZM49.8949 22.4861C48.7675 22.4861 48.0255 22.0998 47.6615 21.3271C47.2976 20.5544 47.3619 19.653 47.8471 18.6299C48.5178 17.1919 49.6666 15.9327 51.3006 14.8524C52.9275 13.7721 54.4402 13.1783 55.8245 13.0781C56.9519 13.0781 57.7083 13.4358 58.0865 14.1584C58.4718 14.881 58.4004 15.8039 57.8724 16.9343C57.2516 18.2722 56.1242 19.5314 54.4902 20.719C52.8633 21.8995 51.3292 22.4933 49.8949 22.4933V22.4861Z" fill="#D2FF52"/>
<path d="M53.101 80.3036C50.2682 80.3036 48.4558 79.4236 47.6638 77.6565C46.8717 75.8965 47.0929 73.693 48.3274 71.0459C48.9196 69.7724 49.8472 68.3057 51.1173 66.6388C54.4924 62.3318 58.6667 58.0464 63.633 53.7824C68.5992 49.5184 73.0375 45.283 76.9549 41.0762C78.2749 39.7026 79.1883 38.4792 79.6949 37.406C80.2015 36.3329 80.2586 35.5244 79.8733 34.9807C79.488 34.4441 78.8601 34.1723 77.9753 34.1723C76.7051 34.1723 74.8785 34.6874 72.4952 35.7176C70.112 36.7478 67.0366 38.6795 63.269 41.5198C60.9786 43.2798 58.317 45.4404 55.2702 47.9873C52.2233 50.5343 49.6403 52.838 47.5068 54.8913C43.9961 58.2252 40.6781 61.5735 37.5385 64.9575C34.3989 68.3343 31.5804 71.4465 29.0901 74.2868C27.0636 76.5404 25.2155 77.9856 23.553 78.6223C21.8833 79.2591 20.4419 79.5238 19.2217 79.4308C17.9944 79.3378 17.0169 79.3378 16.2891 79.4308C21.5336 74.0435 26.871 68.363 32.2939 62.3891C37.7169 56.4152 42.7474 50.4413 47.3926 44.4674C49.5475 41.7273 51.524 39.0587 53.3222 36.4617C55.1203 33.8646 56.1478 32.1762 56.419 31.3964L56.5546 31.1031C56.9185 30.3232 57.3965 30.1229 58.0031 30.5164C58.9521 31.2032 59.3659 32.2048 59.2375 33.5284C59.1091 34.8519 58.6595 36.3472 57.8818 38.007C57.0112 39.8671 55.841 41.8561 54.3711 43.9594C52.9012 46.07 51.4313 47.9516 49.9757 49.6185C52.0663 47.8586 54.2641 46.07 56.576 44.2528C58.8879 42.4427 61.3068 40.7042 63.8399 39.0372C66.8511 36.9768 69.8836 35.1953 72.9376 33.6715C75.9916 32.1547 78.8815 31.3964 81.6215 31.3964C84.3615 31.3964 85.9099 31.983 86.5878 33.1564C87.2585 34.3297 87.1443 35.8965 86.231 37.8568C85.2748 39.9172 83.5909 42.2639 81.1862 44.911C78.4962 47.9516 75.5421 50.985 72.324 54.0185C69.0987 57.0591 66.0947 59.9924 63.3047 62.8326C62.741 63.4193 61.8491 64.3279 60.6432 65.5513C59.4373 66.7747 58.2457 68.1197 57.0754 69.5935C56.5617 70.2803 56.0337 70.9886 55.4985 71.7255C54.9562 72.4624 54.5067 73.2208 54.1428 74.0006C53.6861 74.9808 53.4792 75.8894 53.5363 76.7193C53.5862 77.5563 54.2498 77.9713 55.5199 77.9713C57.1825 77.9713 59.0306 77.4061 61.0713 76.2828C63.1121 75.1596 64.9601 73.9577 66.6298 72.6842C70.0192 70.2374 73.3586 67.5187 76.6623 64.5282C79.9589 61.5449 83.3126 58.3826 86.7234 55.0487C87.2014 54.6624 87.4869 54.462 87.5867 54.462C87.9792 54.462 87.9649 54.9056 87.5582 55.7856C87.2871 56.3723 86.9802 56.8158 86.652 57.1092C83.384 60.3429 80.0588 63.498 76.6695 66.5887C73.273 69.6722 69.4983 72.6413 65.3455 75.4744C63.4831 76.7479 61.4923 77.8783 59.3731 78.8513C57.2538 79.8314 55.1703 80.3179 53.1224 80.3179L53.101 80.3036Z" fill="#D2FF52"/>
<path d="M50.7828 119.532C49.0346 119.925 47.3792 120.118 45.8165 120.118C42.8838 120.118 41.0215 119.403 40.2151 117.986C39.4088 116.563 39.4873 114.824 40.4506 112.771C41.2712 111.011 42.7411 109.122 44.8461 107.112C46.9582 105.101 49.5484 103.313 52.6237 101.746C56.6125 99.6856 60.1374 98.0472 63.1985 96.8238C66.2596 95.6004 69.542 94.377 73.0455 93.1536C76.549 91.9302 80.973 90.2919 86.3317 88.2314C89.3572 85.0978 92.5396 81.5206 95.8719 77.507C99.2113 73.4934 102.501 69.5228 105.74 65.6093C108.98 61.6959 111.898 58.3119 114.495 55.4716C113.917 55.8651 112.662 56.8953 110.714 58.5551C108.766 60.2221 107.296 61.4956 106.297 62.3756C103.921 64.3359 101.002 66.7111 97.5558 69.5013C94.1023 72.2915 90.6987 74.6668 87.345 76.6271C83.028 79.174 79.603 80.4475 77.0628 80.4475C74.5225 80.4475 73.2167 79.4173 72.86 77.364C72.5032 75.3035 73.0526 72.7136 74.5083 69.58C75.5144 67.4265 76.813 65.2731 78.4042 63.1125C86.6814 51.8515 96.9208 42.8871 109.108 36.2264C111.606 34.8527 114.41 33.751 117.535 32.9211C120.653 32.0911 123.586 31.669 126.326 31.669C130.136 31.669 133.069 32.5061 135.124 34.1659L135.766 33.7223C139.562 30.3956 143.109 27.5982 146.412 25.3446C149.709 23.091 153.077 21.6243 156.531 20.9375C151.521 24.5648 146.206 29.1436 140.604 34.6739C134.996 40.2114 129.509 46.0636 124.143 52.2307C118.777 58.4049 113.775 64.2572 109.144 69.7875C104.513 75.325 100.596 79.9467 97.3989 83.6741C104.049 80.934 110.635 77.2352 117.15 72.5777C123.665 67.9273 129.715 62.8549 135.303 57.3675C136.623 55.9939 137.679 55.3071 138.456 55.3071C138.649 55.3071 138.678 55.4573 138.542 55.7506C138.356 56.1441 137.914 56.6807 137.201 57.3675C133.982 60.5011 130.672 63.5632 127.275 66.5537C123.879 69.5442 120.318 72.3058 116.593 74.8528C113.347 77.2066 109.922 79.36 106.325 81.3203C102.722 83.2806 98.9687 84.9905 95.0656 86.4643C90.1635 91.9517 85.3256 96.9955 80.5377 101.596C75.757 106.196 70.9191 110.067 66.0384 113.2C61.1578 116.334 56.0702 118.437 50.7828 119.517V119.532ZM51.3394 116.448C55.2639 115.368 59.117 113.486 62.9131 110.789C66.7092 108.092 70.3697 105.008 73.8946 101.531C77.4195 98.0544 80.6876 94.5559 83.6987 91.0288C79.9384 92.5956 75.2718 94.284 69.6847 96.0941C64.0976 97.9041 58.4534 100.43 52.745 103.663C50.2048 105.13 48.107 106.647 46.4444 108.221C44.789 109.788 43.6402 111.254 42.998 112.628C42.4057 113.901 42.3415 114.982 42.8125 115.862C43.2834 116.742 44.4465 117.185 46.3017 117.185C46.9867 117.185 47.7431 117.135 48.5708 117.035C49.3985 116.935 50.319 116.742 51.3394 116.448ZM82.2645 75.8973C84.2196 75.8973 86.7385 74.8957 89.821 72.8853C92.9035 70.8821 96.193 68.4282 99.6965 65.5378C103.193 62.6474 106.425 59.8572 109.386 57.16C112.348 54.47 114.617 52.3881 116.179 50.9143C118.698 48.6607 121.374 46.2639 124.221 43.717C127.068 41.17 130.272 38.3798 133.84 35.3392C132.441 34.3591 130.664 33.8726 128.517 33.8726C125.684 33.8726 122.509 34.6596 118.991 36.2264C115.473 37.7932 111.998 39.8536 108.566 42.4006C103.557 46.0278 98.9544 49.9198 94.7659 54.0837C90.5773 58.2475 87.3164 61.8962 84.976 65.0298C83.6631 66.7898 82.5785 68.607 81.708 70.4671C81.0229 71.9338 80.6519 73.2073 80.5877 74.2876C80.5235 75.3679 81.08 75.9045 82.2502 75.9045L82.2645 75.8973Z" fill="#D2FF52"/>
</svg>
