<svg width="148" height="76" viewBox="0 0 148 76" fill="none" xmlns="http://www.w3.org/2000/svg">
<mask id="path-1-outside-1_77_5530" maskUnits="userSpaceOnUse" x="0" y="-0.0234375" width="51" height="75" fill="black">
<rect fill="white" y="-0.0234375" width="51" height="75"/>
<path d="M33.5845 34.5391C36.1323 35.4941 38.4708 36.1035 40.5546 37.2041C47.8795 41.0696 51.0734 47.3454 50.6548 55.4858C50.2817 62.7803 46.8331 68.2466 40.0541 71.0389C36.4781 72.5123 32.5381 73.6856 28.7164 73.8585C19.6535 74.2677 10.5633 73.9858 1 73.5219C1.44586 73.0762 1.83713 72.3122 2.35579 72.2213C8.82538 71.0662 8.82538 71.0844 8.82538 64.472C8.82538 46.0357 8.82538 27.5993 8.82538 9.163C8.82538 4.12416 7.96095 3.2419 3.00184 2.87809C2.36489 2.83261 1.77344 2.19594 1.15469 1.84122C1.75524 1.57745 2.35579 1.09539 2.95635 1.0863C10.6088 1.05901 18.2795 0.777056 25.8956 1.24092C30.1177 1.50469 34.449 2.55975 38.389 4.12416C45.0223 6.75272 48.2617 12.1827 47.743 19.1588C47.2426 25.9167 43.6665 30.6918 37.3061 33.2749C36.196 33.7205 35.0404 34.048 33.5936 34.5391H33.5845ZM22.0466 36.1308C20.2996 36.1308 18.9347 36.1854 17.5789 36.1126C16.2231 36.0399 15.7044 36.5401 15.7135 37.9317C15.7499 48.4187 15.7499 58.9056 15.7135 69.4017C15.7135 70.7933 16.2231 71.2845 17.5698 71.2208C21.0457 71.0571 24.5489 71.1844 27.9885 70.766C33.2388 70.1202 37.9886 68.2557 41.0823 63.6171C46.4691 55.5676 43.3936 43.2252 34.8675 38.6593C30.7456 36.4491 26.2505 36.0035 22.0466 36.1217V36.1308ZM15.7317 32.8747C21.6736 33.0475 27.2514 33.284 32.5836 31.0829C38.0705 28.8181 41.3007 23.752 41.1096 17.6581C40.9186 11.5733 37.8066 7.11654 31.6919 5.66128C27.0512 4.56073 22.174 4.45159 17.406 3.93315C15.668 3.74215 15.7317 4.97912 15.7317 6.16152C15.7317 13.4742 15.7317 20.7869 15.7317 28.0996C15.7317 29.5912 15.7317 31.0829 15.7317 32.8656V32.8747Z"/>
</mask>
<path d="M33.5845 34.5391C36.1323 35.4941 38.4708 36.1035 40.5546 37.2041C47.8795 41.0696 51.0734 47.3454 50.6548 55.4858C50.2817 62.7803 46.8331 68.2466 40.0541 71.0389C36.4781 72.5123 32.5381 73.6856 28.7164 73.8585C19.6535 74.2677 10.5633 73.9858 1 73.5219C1.44586 73.0762 1.83713 72.3122 2.35579 72.2213C8.82538 71.0662 8.82538 71.0844 8.82538 64.472C8.82538 46.0357 8.82538 27.5993 8.82538 9.163C8.82538 4.12416 7.96095 3.2419 3.00184 2.87809C2.36489 2.83261 1.77344 2.19594 1.15469 1.84122C1.75524 1.57745 2.35579 1.09539 2.95635 1.0863C10.6088 1.05901 18.2795 0.777056 25.8956 1.24092C30.1177 1.50469 34.449 2.55975 38.389 4.12416C45.0223 6.75272 48.2617 12.1827 47.743 19.1588C47.2426 25.9167 43.6665 30.6918 37.3061 33.2749C36.196 33.7205 35.0404 34.048 33.5936 34.5391H33.5845ZM22.0466 36.1308C20.2996 36.1308 18.9347 36.1854 17.5789 36.1126C16.2231 36.0399 15.7044 36.5401 15.7135 37.9317C15.7499 48.4187 15.7499 58.9056 15.7135 69.4017C15.7135 70.7933 16.2231 71.2845 17.5698 71.2208C21.0457 71.0571 24.5489 71.1844 27.9885 70.766C33.2388 70.1202 37.9886 68.2557 41.0823 63.6171C46.4691 55.5676 43.3936 43.2252 34.8675 38.6593C30.7456 36.4491 26.2505 36.0035 22.0466 36.1217V36.1308ZM15.7317 32.8747C21.6736 33.0475 27.2514 33.284 32.5836 31.0829C38.0705 28.8181 41.3007 23.752 41.1096 17.6581C40.9186 11.5733 37.8066 7.11654 31.6919 5.66128C27.0512 4.56073 22.174 4.45159 17.406 3.93315C15.668 3.74215 15.7317 4.97912 15.7317 6.16152C15.7317 13.4742 15.7317 20.7869 15.7317 28.0996C15.7317 29.5912 15.7317 31.0829 15.7317 32.8656V32.8747Z" fill="#D2FF52"/>
<path d="M33.5845 34.5391C36.1323 35.4941 38.4708 36.1035 40.5546 37.2041C47.8795 41.0696 51.0734 47.3454 50.6548 55.4858C50.2817 62.7803 46.8331 68.2466 40.0541 71.0389C36.4781 72.5123 32.5381 73.6856 28.7164 73.8585C19.6535 74.2677 10.5633 73.9858 1 73.5219C1.44586 73.0762 1.83713 72.3122 2.35579 72.2213C8.82538 71.0662 8.82538 71.0844 8.82538 64.472C8.82538 46.0357 8.82538 27.5993 8.82538 9.163C8.82538 4.12416 7.96095 3.2419 3.00184 2.87809C2.36489 2.83261 1.77344 2.19594 1.15469 1.84122C1.75524 1.57745 2.35579 1.09539 2.95635 1.0863C10.6088 1.05901 18.2795 0.777056 25.8956 1.24092C30.1177 1.50469 34.449 2.55975 38.389 4.12416C45.0223 6.75272 48.2617 12.1827 47.743 19.1588C47.2426 25.9167 43.6665 30.6918 37.3061 33.2749C36.196 33.7205 35.0404 34.048 33.5936 34.5391H33.5845ZM22.0466 36.1308C20.2996 36.1308 18.9347 36.1854 17.5789 36.1126C16.2231 36.0399 15.7044 36.5401 15.7135 37.9317C15.7499 48.4187 15.7499 58.9056 15.7135 69.4017C15.7135 70.7933 16.2231 71.2845 17.5698 71.2208C21.0457 71.0571 24.5489 71.1844 27.9885 70.766C33.2388 70.1202 37.9886 68.2557 41.0823 63.6171C46.4691 55.5676 43.3936 43.2252 34.8675 38.6593C30.7456 36.4491 26.2505 36.0035 22.0466 36.1217V36.1308ZM15.7317 32.8747C21.6736 33.0475 27.2514 33.284 32.5836 31.0829C38.0705 28.8181 41.3007 23.752 41.1096 17.6581C40.9186 11.5733 37.8066 7.11654 31.6919 5.66128C27.0512 4.56073 22.174 4.45159 17.406 3.93315C15.668 3.74215 15.7317 4.97912 15.7317 6.16152C15.7317 13.4742 15.7317 20.7869 15.7317 28.0996C15.7317 29.5912 15.7317 31.0829 15.7317 32.8656V32.8747Z" stroke="#D2FF52" stroke-width="0.4" stroke-linejoin="round" mask="url(#path-1-outside-1_77_5530)"/>
<mask id="path-2-outside-2_77_5530" maskUnits="userSpaceOnUse" x="99.0312" y="19.875" width="49" height="56" fill="black">
<rect fill="white" x="99.0312" y="19.875" width="49" height="56"/>
<path d="M105.196 39.9699H103.003C103.003 34.3853 102.985 28.8917 103.049 23.3981C103.049 23.007 103.677 22.3703 104.086 22.3067C104.414 22.2612 105.06 22.8524 105.178 23.2799C105.888 25.7265 106.315 25.9812 108.572 24.5714C114.878 20.6331 121.575 19.8418 128.572 22.1975C134.05 24.0439 136.925 28.2914 138.054 33.7032C138.6 36.3408 138.782 39.0968 138.809 41.8072C138.9 50.0385 138.818 58.2789 138.863 66.5193C138.873 68.3384 138.354 70.6577 140.683 71.4035C143.258 72.2221 144.15 69.9301 145.242 68.2293C145.324 68.111 145.451 68.0292 145.606 67.8836C147.198 68.0746 147.499 68.8477 146.807 70.3303C144.996 74.2049 141.029 76.1786 136.853 75.1872C133.522 74.3959 132.294 72.5132 131.875 67.5562C131.584 67.2561 131.284 66.965 130.993 66.6649C130.838 67.247 130.865 67.9837 130.51 68.4021C125.105 74.7961 116.88 77.1064 108.954 74.3595C104.477 72.8042 101.156 69.921 100.31 65.0368C99.2907 59.2157 101.065 54.2769 105.678 50.5115C109.582 47.3281 114.286 45.8728 119.054 44.5904C122.266 43.7263 125.488 42.8804 128.663 41.9163C131.02 41.2069 132.103 39.7152 132.021 37.0412C131.802 29.6739 128.327 25.0808 121.711 23.9257C115.642 22.8706 108.545 27.1636 106.534 33.303C105.842 35.4131 105.633 37.687 105.187 39.979L105.196 39.9699ZM131.948 43.8082C127.426 45.227 123.176 46.464 118.982 47.892C115.369 49.129 112.03 50.8662 109.655 54.0314C106.024 58.8792 106.425 66.1191 110.692 69.1297C114.714 71.9675 119.154 71.8401 123.449 69.9301C127.853 67.9746 131.438 64.8458 131.857 59.7797C132.285 54.5316 131.957 49.229 131.957 43.8082H131.948Z"/>
</mask>
<path d="M105.196 39.9699H103.003C103.003 34.3853 102.985 28.8917 103.049 23.3981C103.049 23.007 103.677 22.3703 104.086 22.3067C104.414 22.2612 105.06 22.8524 105.178 23.2799C105.888 25.7265 106.315 25.9812 108.572 24.5714C114.878 20.6331 121.575 19.8418 128.572 22.1975C134.05 24.0439 136.925 28.2914 138.054 33.7032C138.6 36.3408 138.782 39.0968 138.809 41.8072C138.9 50.0385 138.818 58.2789 138.863 66.5193C138.873 68.3384 138.354 70.6577 140.683 71.4035C143.258 72.2221 144.15 69.9301 145.242 68.2293C145.324 68.111 145.451 68.0292 145.606 67.8836C147.198 68.0746 147.499 68.8477 146.807 70.3303C144.996 74.2049 141.029 76.1786 136.853 75.1872C133.522 74.3959 132.294 72.5132 131.875 67.5562C131.584 67.2561 131.284 66.965 130.993 66.6649C130.838 67.247 130.865 67.9837 130.51 68.4021C125.105 74.7961 116.88 77.1064 108.954 74.3595C104.477 72.8042 101.156 69.921 100.31 65.0368C99.2907 59.2157 101.065 54.2769 105.678 50.5115C109.582 47.3281 114.286 45.8728 119.054 44.5904C122.266 43.7263 125.488 42.8804 128.663 41.9163C131.02 41.2069 132.103 39.7152 132.021 37.0412C131.802 29.6739 128.327 25.0808 121.711 23.9257C115.642 22.8706 108.545 27.1636 106.534 33.303C105.842 35.4131 105.633 37.687 105.187 39.979L105.196 39.9699ZM131.948 43.8082C127.426 45.227 123.176 46.464 118.982 47.892C115.369 49.129 112.03 50.8662 109.655 54.0314C106.024 58.8792 106.425 66.1191 110.692 69.1297C114.714 71.9675 119.154 71.8401 123.449 69.9301C127.853 67.9746 131.438 64.8458 131.857 59.7797C132.285 54.5316 131.957 49.229 131.957 43.8082H131.948Z" fill="#D2FF52"/>
<path d="M105.196 39.9699H103.003C103.003 34.3853 102.985 28.8917 103.049 23.3981C103.049 23.007 103.677 22.3703 104.086 22.3067C104.414 22.2612 105.06 22.8524 105.178 23.2799C105.888 25.7265 106.315 25.9812 108.572 24.5714C114.878 20.6331 121.575 19.8418 128.572 22.1975C134.05 24.0439 136.925 28.2914 138.054 33.7032C138.6 36.3408 138.782 39.0968 138.809 41.8072C138.9 50.0385 138.818 58.2789 138.863 66.5193C138.873 68.3384 138.354 70.6577 140.683 71.4035C143.258 72.2221 144.15 69.9301 145.242 68.2293C145.324 68.111 145.451 68.0292 145.606 67.8836C147.198 68.0746 147.499 68.8477 146.807 70.3303C144.996 74.2049 141.029 76.1786 136.853 75.1872C133.522 74.3959 132.294 72.5132 131.875 67.5562C131.584 67.2561 131.284 66.965 130.993 66.6649C130.838 67.247 130.865 67.9837 130.51 68.4021C125.105 74.7961 116.88 77.1064 108.954 74.3595C104.477 72.8042 101.156 69.921 100.31 65.0368C99.2907 59.2157 101.065 54.2769 105.678 50.5115C109.582 47.3281 114.286 45.8728 119.054 44.5904C122.266 43.7263 125.488 42.8804 128.663 41.9163C131.02 41.2069 132.103 39.7152 132.021 37.0412C131.802 29.6739 128.327 25.0808 121.711 23.9257C115.642 22.8706 108.545 27.1636 106.534 33.303C105.842 35.4131 105.633 37.687 105.187 39.979L105.196 39.9699ZM131.948 43.8082C127.426 45.227 123.176 46.464 118.982 47.892C115.369 49.129 112.03 50.8662 109.655 54.0314C106.024 58.8792 106.425 66.1191 110.692 69.1297C114.714 71.9675 119.154 71.8401 123.449 69.9301C127.853 67.9746 131.438 64.8458 131.857 59.7797C132.285 54.5316 131.957 49.229 131.957 43.8082H131.948Z" stroke="#D2FF52" stroke-width="0.4" stroke-linejoin="round" mask="url(#path-2-outside-2_77_5530)"/>
<mask id="path-3-outside-3_77_5530" maskUnits="userSpaceOnUse" x="56.8594" y="19.7969" width="40" height="55" fill="black">
<rect fill="white" x="56.8594" y="19.7969" width="40" height="55"/>
<path d="M72.3545 30.1083C80.1162 21.0402 88.7332 18.4571 95.7943 22.9684C94.939 25.0331 94.0654 27.1523 93.1646 29.317C92.6277 29.1806 92.2274 29.1988 92.0818 29.0169C88.6514 24.6329 82.1272 25.3059 77.9142 28.4802C74.4201 31.1088 72.3181 34.4468 72.3818 39.0582C72.5001 48.0444 72.4091 57.0306 72.4182 66.0169C72.4182 70.4372 73.7103 71.756 78.1963 72.0471C78.7968 72.0835 79.4429 72.0107 79.9979 72.1926C80.7259 72.4291 81.3901 72.8657 82.0817 73.2204C81.3355 73.5024 80.5985 74.0026 79.8523 74.0208C74.4747 74.0936 69.1061 74.0572 63.7284 74.0572C61.9177 74.0572 60.116 74.0572 58.3052 74.0572C58.1597 73.8844 58.005 73.7116 57.8594 73.5387C58.2779 73.0931 58.6237 72.5201 59.1424 72.2381C59.5609 72.0016 60.1797 72.129 60.7075 72.0744C64.3745 71.7288 65.6939 70.3917 65.703 66.7263C65.7394 54.3384 65.7394 41.9596 65.703 29.5717C65.6939 25.8426 64.3017 24.5055 60.4891 24.2145C60.0341 24.1781 59.5427 24.2145 59.1424 24.0417C58.7329 23.8689 58.4144 23.4778 58.0505 23.1867C58.4599 22.8684 58.8603 22.2863 59.2698 22.2863C63.5737 22.2226 67.8686 22.2408 72.3454 22.2408V30.1174L72.3545 30.1083Z"/>
</mask>
<path d="M72.3545 30.1083C80.1162 21.0402 88.7332 18.4571 95.7943 22.9684C94.939 25.0331 94.0654 27.1523 93.1646 29.317C92.6277 29.1806 92.2274 29.1988 92.0818 29.0169C88.6514 24.6329 82.1272 25.3059 77.9142 28.4802C74.4201 31.1088 72.3181 34.4468 72.3818 39.0582C72.5001 48.0444 72.4091 57.0306 72.4182 66.0169C72.4182 70.4372 73.7103 71.756 78.1963 72.0471C78.7968 72.0835 79.4429 72.0107 79.9979 72.1926C80.7259 72.4291 81.3901 72.8657 82.0817 73.2204C81.3355 73.5024 80.5985 74.0026 79.8523 74.0208C74.4747 74.0936 69.1061 74.0572 63.7284 74.0572C61.9177 74.0572 60.116 74.0572 58.3052 74.0572C58.1597 73.8844 58.005 73.7116 57.8594 73.5387C58.2779 73.0931 58.6237 72.5201 59.1424 72.2381C59.5609 72.0016 60.1797 72.129 60.7075 72.0744C64.3745 71.7288 65.6939 70.3917 65.703 66.7263C65.7394 54.3384 65.7394 41.9596 65.703 29.5717C65.6939 25.8426 64.3017 24.5055 60.4891 24.2145C60.0341 24.1781 59.5427 24.2145 59.1424 24.0417C58.7329 23.8689 58.4144 23.4778 58.0505 23.1867C58.4599 22.8684 58.8603 22.2863 59.2698 22.2863C63.5737 22.2226 67.8686 22.2408 72.3454 22.2408V30.1174L72.3545 30.1083Z" fill="#D2FF52"/>
<path d="M72.3545 30.1083C80.1162 21.0402 88.7332 18.4571 95.7943 22.9684C94.939 25.0331 94.0654 27.1523 93.1646 29.317C92.6277 29.1806 92.2274 29.1988 92.0818 29.0169C88.6514 24.6329 82.1272 25.3059 77.9142 28.4802C74.4201 31.1088 72.3181 34.4468 72.3818 39.0582C72.5001 48.0444 72.4091 57.0306 72.4182 66.0169C72.4182 70.4372 73.7103 71.756 78.1963 72.0471C78.7968 72.0835 79.4429 72.0107 79.9979 72.1926C80.7259 72.4291 81.3901 72.8657 82.0817 73.2204C81.3355 73.5024 80.5985 74.0026 79.8523 74.0208C74.4747 74.0936 69.1061 74.0572 63.7284 74.0572C61.9177 74.0572 60.116 74.0572 58.3052 74.0572C58.1597 73.8844 58.005 73.7116 57.8594 73.5387C58.2779 73.0931 58.6237 72.5201 59.1424 72.2381C59.5609 72.0016 60.1797 72.129 60.7075 72.0744C64.3745 71.7288 65.6939 70.3917 65.703 66.7263C65.7394 54.3384 65.7394 41.9596 65.703 29.5717C65.6939 25.8426 64.3017 24.5055 60.4891 24.2145C60.0341 24.1781 59.5427 24.2145 59.1424 24.0417C58.7329 23.8689 58.4144 23.4778 58.0505 23.1867C58.4599 22.8684 58.8603 22.2863 59.2698 22.2863C63.5737 22.2226 67.8686 22.2408 72.3454 22.2408V30.1174L72.3545 30.1083Z" stroke="#D2FF52" stroke-width="0.4" stroke-linejoin="round" mask="url(#path-3-outside-3_77_5530)"/>
</svg>
