<svg width="58" height="20" viewBox="0 0 58 20" fill="none" xmlns="http://www.w3.org/2000/svg">
<path d="M18.9819 15.4627H19.0819V15.3627V3.46875V3.34455L18.9606 3.37105L17.5802 3.67254L17.5016 3.68972V3.77024V15.3627V15.4627H17.6016H18.9819ZM22.7293 6.8696L22.6503 6.81246L22.5912 6.88998L19.399 11.0753L19.3511 11.1381L19.401 11.1993L23.0307 15.6388L23.0924 15.7142L23.1694 15.6546L24.2335 14.8299L24.3154 14.7664L24.249 14.6868L21.2243 11.0606L23.8277 7.79326L23.893 7.71132L23.8081 7.64992L22.7293 6.8696Z" fill="#888888" stroke="#888888" stroke-width="0.2"/>
<mask id="path-2-outside-1_2044_116825" maskUnits="userSpaceOnUse" x="24.375" y="6.00781" width="8" height="10" fill="black">
<rect fill="white" x="24.375" y="6.00781" width="8" height="10"/>
<path d="M25.378 13.1558C25.378 12.3252 25.6558 11.6927 26.2115 11.2582C26.7672 10.8237 27.5741 10.605 28.6322 10.605H30.2224V10.0818C30.2224 8.81082 29.6608 8.17533 28.5406 8.17533C28.18 8.17533 27.8017 8.22558 27.4086 8.32608C27.0125 8.42657 26.6519 8.55072 26.3208 8.70146L25.9159 7.72606C26.3268 7.49551 26.7672 7.31817 27.243 7.19402C27.7189 7.06988 28.18 7.00781 28.6293 7.00781C30.5712 7.00781 31.5407 8.04233 31.5407 10.1114V15.3608H30.521L30.3554 14.4593C29.9446 14.7903 29.5071 15.0445 29.0431 15.2248C28.579 15.4051 28.1357 15.4938 27.716 15.4938C26.9859 15.4938 26.4154 15.2869 25.9987 14.8701C25.5849 14.4534 25.375 13.8829 25.375 13.1528M27.9702 14.3854C28.1593 14.3854 28.3544 14.3617 28.5613 14.3115C28.7652 14.2612 28.9692 14.1962 29.1731 14.1164C29.3771 14.0366 29.5692 13.9391 29.7495 13.8238C29.9298 13.7085 30.0894 13.5873 30.2283 13.4573V11.536H28.7948C28.0677 11.536 27.5386 11.6602 27.2046 11.9114C26.8706 12.1626 26.7051 12.5558 26.7051 13.0967C26.7051 13.9568 27.1278 14.3854 27.9761 14.3854"/>
</mask>
<path d="M25.378 13.1558C25.378 12.3252 25.6558 11.6927 26.2115 11.2582C26.7672 10.8237 27.5741 10.605 28.6322 10.605H30.2224V10.0818C30.2224 8.81082 29.6608 8.17533 28.5406 8.17533C28.18 8.17533 27.8017 8.22558 27.4086 8.32608C27.0125 8.42657 26.6519 8.55072 26.3208 8.70146L25.9159 7.72606C26.3268 7.49551 26.7672 7.31817 27.243 7.19402C27.7189 7.06988 28.18 7.00781 28.6293 7.00781C30.5712 7.00781 31.5407 8.04233 31.5407 10.1114V15.3608H30.521L30.3554 14.4593C29.9446 14.7903 29.5071 15.0445 29.0431 15.2248C28.579 15.4051 28.1357 15.4938 27.716 15.4938C26.9859 15.4938 26.4154 15.2869 25.9987 14.8701C25.5849 14.4534 25.375 13.8829 25.375 13.1528M27.9702 14.3854C28.1593 14.3854 28.3544 14.3617 28.5613 14.3115C28.7652 14.2612 28.9692 14.1962 29.1731 14.1164C29.3771 14.0366 29.5692 13.9391 29.7495 13.8238C29.9298 13.7085 30.0894 13.5873 30.2283 13.4573V11.536H28.7948C28.0677 11.536 27.5386 11.6602 27.2046 11.9114C26.8706 12.1626 26.7051 12.5558 26.7051 13.0967C26.7051 13.9568 27.1278 14.3854 27.9761 14.3854" fill="#888888"/>
<path d="M30.2224 10.605V10.805H30.4224V10.605H30.2224ZM27.4086 8.32608L27.4577 8.51994L27.4581 8.51985L27.4086 8.32608ZM26.3208 8.70146L26.1361 8.77814L26.2154 8.96921L26.4037 8.88348L26.3208 8.70146ZM25.9159 7.72606L25.818 7.55164L25.663 7.63861L25.7312 7.80274L25.9159 7.72606ZM31.5407 15.3608V15.5608H31.7407V15.3608H31.5407ZM30.521 15.3608L30.3243 15.3969L30.3543 15.5608H30.521V15.3608ZM30.3554 14.4593L30.5522 14.4231L30.4915 14.0928L30.23 14.3035L30.3554 14.4593ZM25.9987 14.8701L25.8567 15.011L25.8572 15.0115L25.9987 14.8701ZM28.5613 14.3115L28.6085 14.5058L28.6091 14.5057L28.5613 14.3115ZM30.2283 13.4573L30.365 13.6033L30.4283 13.544V13.4573H30.2283ZM30.2283 11.536H30.4283V11.336H30.2283V11.536ZM25.578 13.1558C25.578 12.3745 25.8364 11.8054 26.3347 11.4157L26.0883 11.1006C25.4752 11.58 25.178 12.2759 25.178 13.1558H25.578ZM26.3347 11.4157C26.8416 11.0194 27.5977 10.805 28.6322 10.805V10.405C27.5505 10.405 26.6927 10.628 26.0883 11.1006L26.3347 11.4157ZM28.6322 10.805H30.2224V10.405H28.6322V10.805ZM30.4224 10.605V10.0818H30.0224V10.605H30.4224ZM30.4224 10.0818C30.4224 9.42114 30.277 8.88836 29.9516 8.51961C29.6219 8.1461 29.1386 7.97533 28.5406 7.97533V8.37533C29.0629 8.37533 29.4205 8.52232 29.6517 8.78429C29.8871 9.05102 30.0224 9.47148 30.0224 10.0818H30.4224ZM28.5406 7.97533C28.1614 7.97533 27.7664 8.02817 27.359 8.13231L27.4581 8.51985C27.8369 8.423 28.1986 8.37533 28.5406 8.37533V7.97533ZM27.3594 8.13222C26.9533 8.23526 26.5812 8.36313 26.238 8.51944L26.4037 8.88348C26.7225 8.7383 27.0717 8.61789 27.4577 8.51994L27.3594 8.13222ZM26.5056 8.62477L26.1006 7.64938L25.7312 7.80274L26.1361 8.77814L26.5056 8.62477ZM26.0138 7.90048C26.4093 7.67851 26.8338 7.50748 27.2935 7.38755L27.1926 7.0005C26.7006 7.12885 26.2442 7.31252 25.818 7.55164L26.0138 7.90048ZM27.2935 7.38755C27.7545 7.26729 28.1986 7.20781 28.6293 7.20781V6.80781C28.1614 6.80781 27.6833 6.87248 27.1926 7.0005L27.2935 7.38755ZM28.6293 7.20781C29.5661 7.20781 30.2324 7.45673 30.6673 7.92051C31.1046 8.38672 31.3407 9.10455 31.3407 10.1114H31.7407C31.7407 9.04913 31.4921 8.21519 30.9591 7.64688C30.4238 7.07616 29.6344 6.80781 28.6293 6.80781V7.20781ZM31.3407 10.1114V15.3608H31.7407V10.1114H31.3407ZM31.5407 15.1608H30.521V15.5608H31.5407V15.1608ZM30.7177 15.3247L30.5522 14.4231L30.1587 14.4954L30.3243 15.3969L30.7177 15.3247ZM30.23 14.3035C29.8344 14.6222 29.4147 14.8658 28.9707 15.0384L29.1155 15.4112C29.5995 15.2232 30.0548 14.9584 30.4809 14.615L30.23 14.3035ZM28.9707 15.0384C28.526 15.2111 28.1072 15.2938 27.716 15.2938V15.6938C28.1641 15.6938 28.6321 15.5991 29.1155 15.4112L28.9707 15.0384ZM27.716 15.2938C27.0254 15.2938 26.5108 15.0994 26.1401 14.7287L25.8572 15.0115C26.3201 15.4744 26.9464 15.6938 27.716 15.6938V15.2938ZM26.1406 14.7292C25.772 14.358 25.575 13.8427 25.575 13.1528H25.175C25.175 13.9231 25.3977 14.5487 25.8567 15.011L26.1406 14.7292ZM27.9702 14.5854C28.1764 14.5854 28.3873 14.5596 28.6085 14.5058L28.5141 14.1171C28.3215 14.1639 28.1423 14.1854 27.9702 14.1854V14.5854ZM28.6091 14.5057C28.822 14.4532 29.0343 14.3855 29.246 14.3026L29.1003 13.9301C28.9041 14.0069 28.7085 14.0692 28.5135 14.1173L28.6091 14.5057ZM29.246 14.3026C29.4619 14.2182 29.6657 14.1148 29.8572 13.9923L29.6418 13.6553C29.4727 13.7633 29.2923 13.855 29.1003 13.9301L29.246 14.3026ZM29.8572 13.9923C30.0459 13.8717 30.2156 13.7431 30.365 13.6033L30.0917 13.3113C29.9632 13.4315 29.8137 13.5453 29.6418 13.6553L29.8572 13.9923ZM30.4283 13.4573V11.536H30.0283V13.4573H30.4283ZM30.2283 11.336H28.7948V11.736H30.2283V11.336ZM28.7948 11.336C28.0533 11.336 27.4707 11.461 27.0844 11.7516L27.3248 12.0712C27.6065 11.8593 28.082 11.736 28.7948 11.736V11.336ZM27.0844 11.7516C26.6859 12.0513 26.5051 12.5132 26.5051 13.0967H26.9051C26.9051 12.5983 27.0554 12.2739 27.3248 12.0712L27.0844 11.7516ZM26.5051 13.0967C26.5051 13.5567 26.6181 13.9384 26.8801 14.204C27.1425 14.4701 27.5206 14.5854 27.9761 14.5854V14.1854C27.5833 14.1854 27.3258 14.0864 27.1649 13.9231C27.0034 13.7594 26.9051 13.4968 26.9051 13.0967H26.5051Z" fill="#888888" mask="url(#path-2-outside-1_2044_116825)"/>
<path d="M35.4038 15.4627H35.5038V15.3627V3.46875V3.34455L35.3824 3.37105L34.0021 3.67254L33.9234 3.68972V3.77024V15.3627V15.4627H34.0234H35.4038ZM39.1512 6.8696L39.0722 6.81249L39.0131 6.88995L35.8179 11.0753L35.77 11.1381L35.82 11.1993L39.4496 15.6388L39.5113 15.7142L39.5883 15.6546L40.6524 14.8299L40.7343 14.7664L40.6679 14.6868L37.6461 11.0607L40.2496 7.79326L40.3149 7.71132L40.23 7.64992L39.1512 6.8696Z" fill="#888888" stroke="#888888" stroke-width="0.2"/>
<mask id="path-5-outside-2_2044_116825" maskUnits="userSpaceOnUse" x="40.7969" y="6.00781" width="8" height="10" fill="black">
<rect fill="white" x="40.7969" y="6.00781" width="8" height="10"/>
<path d="M41.7969 13.1558C41.7969 12.3252 42.0747 11.6927 42.6274 11.2582C43.1831 10.8237 43.99 10.605 45.0512 10.605H46.6414V10.0818C46.6414 8.81082 46.0827 8.17533 44.9625 8.17533C44.6019 8.17533 44.2265 8.22558 43.8304 8.32608C43.4344 8.42657 43.0738 8.55072 42.7427 8.70146L42.3378 7.72606C42.7486 7.49551 43.189 7.31817 43.6649 7.19402C44.1408 7.06988 44.6019 7.00781 45.0512 7.00781C46.9901 7.00781 47.9626 8.04233 47.9626 10.1114V15.3608H46.9428L46.7773 14.4593C46.3665 14.7903 45.932 15.0445 45.465 15.2248C45.0009 15.4051 44.5576 15.4938 44.1378 15.4938C43.4078 15.4938 42.8343 15.2869 42.4205 14.8701C42.0067 14.4534 41.7998 13.8829 41.7998 13.1528M44.3891 14.3854C44.5782 14.3854 44.7733 14.3617 44.9802 14.3115C45.1842 14.2612 45.3881 14.1962 45.5921 14.1164C45.796 14.0366 45.9881 13.9391 46.1684 13.8238C46.3487 13.7085 46.5054 13.5873 46.6473 13.4573V11.536H45.2137C44.4866 11.536 43.9546 11.6602 43.6235 11.9114C43.2895 12.1626 43.124 12.5558 43.124 13.0967C43.124 13.9568 43.5467 14.3854 44.395 14.3854"/>
</mask>
<path d="M41.7969 13.1558C41.7969 12.3252 42.0747 11.6927 42.6274 11.2582C43.1831 10.8237 43.99 10.605 45.0512 10.605H46.6414V10.0818C46.6414 8.81082 46.0827 8.17533 44.9625 8.17533C44.6019 8.17533 44.2265 8.22558 43.8304 8.32608C43.4344 8.42657 43.0738 8.55072 42.7427 8.70146L42.3378 7.72606C42.7486 7.49551 43.189 7.31817 43.6649 7.19402C44.1408 7.06988 44.6019 7.00781 45.0512 7.00781C46.9901 7.00781 47.9626 8.04233 47.9626 10.1114V15.3608H46.9428L46.7773 14.4593C46.3665 14.7903 45.932 15.0445 45.465 15.2248C45.0009 15.4051 44.5576 15.4938 44.1378 15.4938C43.4078 15.4938 42.8343 15.2869 42.4205 14.8701C42.0067 14.4534 41.7998 13.8829 41.7998 13.1528M44.3891 14.3854C44.5782 14.3854 44.7733 14.3617 44.9802 14.3115C45.1842 14.2612 45.3881 14.1962 45.5921 14.1164C45.796 14.0366 45.9881 13.9391 46.1684 13.8238C46.3487 13.7085 46.5054 13.5873 46.6473 13.4573V11.536H45.2137C44.4866 11.536 43.9546 11.6602 43.6235 11.9114C43.2895 12.1626 43.124 12.5558 43.124 13.0967C43.124 13.9568 43.5467 14.3854 44.395 14.3854" fill="#888888"/>
<path d="M42.6274 11.2582L42.5042 11.1006L42.5038 11.101L42.6274 11.2582ZM46.6414 10.605V10.805H46.8414V10.605H46.6414ZM42.7427 8.70146L42.558 8.77814L42.6373 8.96921L42.8256 8.88348L42.7427 8.70146ZM42.3378 7.72606L42.2399 7.55164L42.0849 7.63861L42.1531 7.80274L42.3378 7.72606ZM47.9626 15.3608V15.5608H48.1626V15.3608H47.9626ZM46.9428 15.3608L46.7461 15.3969L46.7762 15.5608H46.9428V15.3608ZM46.7773 14.4593L46.974 14.4231L46.9134 14.0928L46.6518 14.3035L46.7773 14.4593ZM45.465 15.2248L45.3929 15.0382L45.3925 15.0384L45.465 15.2248ZM44.9802 14.3115L45.0274 14.5058L45.0281 14.5057L44.9802 14.3115ZM46.6473 13.4573L46.7824 13.6047L46.8473 13.5452V13.4573H46.6473ZM46.6473 11.536H46.8473V11.336H46.6473V11.536ZM43.6235 11.9114L43.7438 12.0712L43.7444 12.0707L43.6235 11.9114ZM41.9969 13.1558C41.9969 12.3744 42.2554 11.8051 42.751 11.4154L42.5038 11.101C41.8941 11.5803 41.5969 12.276 41.5969 13.1558H41.9969ZM42.7506 11.4157C43.2575 11.0194 44.0136 10.805 45.0512 10.805V10.405C43.9665 10.405 43.1087 10.628 42.5042 11.1006L42.7506 11.4157ZM45.0512 10.805H46.6414V10.405H45.0512V10.805ZM46.8414 10.605V10.0818H46.4414V10.605H46.8414ZM46.8414 10.0818C46.8414 9.42137 46.6968 8.88862 46.3721 8.5198C46.0432 8.14611 45.5605 7.97533 44.9625 7.97533V8.37533C45.4848 8.37533 45.8414 8.5223 46.0719 8.78409C46.3066 9.05077 46.4414 9.47125 46.4414 10.0818H46.8414ZM44.9625 7.97533C44.5831 7.97533 44.1912 8.02821 43.7812 8.13222L43.8796 8.51994C44.2619 8.42295 44.6206 8.37533 44.9625 8.37533V7.97533ZM43.7812 8.13222C43.3752 8.23526 43.0031 8.36313 42.6598 8.51944L42.8256 8.88348C43.1444 8.7383 43.4936 8.61789 43.8796 8.51994L43.7812 8.13222ZM42.9274 8.62477L42.5225 7.64938L42.1531 7.80274L42.558 8.77814L42.9274 8.62477ZM42.4357 7.90048C42.8312 7.67851 43.2556 7.50748 43.7154 7.38755L43.6144 7.0005C43.1224 7.12885 42.666 7.31252 42.2399 7.55164L42.4357 7.90048ZM43.7154 7.38755C44.1764 7.26729 44.6205 7.20781 45.0512 7.20781V6.80781C44.5833 6.80781 44.1052 6.87248 43.6144 7.0005L43.7154 7.38755ZM45.0512 7.20781C45.9864 7.20781 46.6528 7.45669 47.0882 7.92057C47.5258 8.38683 47.7626 9.1047 47.7626 10.1114H48.1626C48.1626 9.04898 47.9132 8.21508 47.3798 7.64683C46.8442 7.0762 46.0549 6.80781 45.0512 6.80781V7.20781ZM47.7626 10.1114V15.3608H48.1626V10.1114H47.7626ZM47.9626 15.1608H46.9428V15.5608H47.9626V15.1608ZM47.1396 15.3247L46.974 14.4231L46.5806 14.4954L46.7461 15.3969L47.1396 15.3247ZM46.6518 14.3035C46.256 14.6225 45.8394 14.8659 45.3929 15.0382L45.537 15.4114C46.0246 15.2231 46.4769 14.9582 46.9028 14.615L46.6518 14.3035ZM45.3925 15.0384C44.9479 15.2111 44.5291 15.2938 44.1378 15.2938V15.6938C44.586 15.6938 45.0539 15.5991 45.5374 15.4112L45.3925 15.0384ZM44.1378 15.2938C43.4468 15.2938 42.9298 15.0991 42.5625 14.7292L42.2786 15.011C42.7389 15.4746 43.3687 15.6938 44.1378 15.6938V15.2938ZM42.5625 14.7292C42.1943 14.3584 41.9998 13.8434 41.9998 13.1528H41.5998C41.5998 13.9224 41.8192 14.5483 42.2786 15.011L42.5625 14.7292ZM44.3891 14.5854C44.5953 14.5854 44.8062 14.5596 45.0274 14.5058L44.933 14.1171C44.7404 14.1639 44.5612 14.1854 44.3891 14.1854V14.5854ZM45.0281 14.5057C45.2409 14.4532 45.4532 14.3855 45.6649 14.3026L45.5192 13.9301C45.323 14.0069 45.1275 14.0692 44.9324 14.1173L45.0281 14.5057ZM45.6649 14.3026C45.8808 14.2182 46.0846 14.1148 46.2762 13.9923L46.0607 13.6553C45.8917 13.7633 45.7112 13.855 45.5192 13.9301L45.6649 14.3026ZM46.2762 13.9923C46.466 13.8709 46.6319 13.7427 46.7824 13.6047L46.5121 13.3098C46.3789 13.4319 46.2315 13.5461 46.0607 13.6553L46.2762 13.9923ZM46.8473 13.4573V11.536H46.4473V13.4573H46.8473ZM46.6473 11.336H45.2137V11.736H46.6473V11.336ZM45.2137 11.336C44.4728 11.336 43.8865 11.4608 43.5026 11.7521L43.7444 12.0707C44.0227 11.8595 44.5004 11.736 45.2137 11.736V11.336ZM43.5033 11.7516C43.1048 12.0513 42.924 12.5132 42.924 13.0967H43.324C43.324 12.5983 43.4743 12.2739 43.7438 12.0712L43.5033 11.7516ZM42.924 13.0967C42.924 13.5567 43.0371 13.9384 43.299 14.204C43.5614 14.4701 43.9395 14.5854 44.395 14.5854V14.1854C44.0022 14.1854 43.7448 14.0864 43.5838 13.9231C43.4223 13.7594 43.324 13.4968 43.324 13.0967H42.924Z" fill="#888888" mask="url(#path-5-outside-2_2044_116825)"/>
<path d="M50.7815 8.06545L50.7814 8.06561C50.1065 8.82907 49.775 9.93806 49.775 11.3122C49.775 12.6868 50.1037 13.7603 50.7757 14.5148C51.4451 15.2667 52.361 15.6419 53.5342 15.6419C54.7068 15.6419 55.635 15.2701 56.3019 14.5145C56.9677 13.7601 57.2934 12.7075 57.2934 11.3122C57.2934 9.91723 56.9648 8.83218 56.2933 8.06595C55.6238 7.30172 54.6988 6.92344 53.5342 6.92344C52.381 6.92344 51.4595 7.30198 50.7815 8.06545ZM51.9566 13.5851L51.9564 13.5848C51.5875 13.0864 51.3967 12.3429 51.3967 11.3122C51.3967 10.2821 51.5902 9.5168 51.9575 8.99979C52.3241 8.48769 52.8451 8.23184 53.5342 8.23184C54.2356 8.23184 54.7594 8.48806 55.1258 8.99978C55.4928 9.51657 55.6835 10.2934 55.6835 11.3122C55.6835 12.3308 55.4929 13.0834 55.1266 13.5851C54.7607 14.0793 54.2279 14.3306 53.5342 14.3306C52.8409 14.3306 52.3198 14.0796 51.9566 13.5851Z" fill="#888888" stroke="#888888" stroke-width="0.2"/>
<path fill-rule="evenodd" clip-rule="evenodd" d="M19.1788 15.5611H17.3984V3.6076L19.1788 3.21875V15.5611ZM22.6268 6.6727L24.0334 7.69009L21.3502 11.0576L24.4555 14.7803L23.0735 15.8514L19.2205 11.1387L22.6268 6.6727ZM21.0921 11.0605L23.7464 7.72934L22.6676 6.94902L19.4753 11.1344L23.105 15.5739L24.1691 14.7493L21.0921 11.0605ZM18.9788 15.3611H17.5984V3.76863L18.9788 3.46715V15.3611Z" fill="#888888"/>
<path fill-rule="evenodd" clip-rule="evenodd" d="M25.3748 13.1536C25.3755 12.3245 25.6533 11.6929 26.2084 11.259C26.764 10.8245 27.571 10.6057 28.6291 10.6057H30.2193V10.0826C30.2193 8.8116 29.6577 8.17612 28.5375 8.17612C28.1769 8.17612 27.7985 8.22636 27.4054 8.32686C27.0814 8.40909 26.781 8.50714 26.5012 8.62265C26.4391 8.64831 26.3779 8.67484 26.3177 8.70224L25.9128 7.72684C26.3236 7.49629 26.764 7.31895 27.2399 7.19481C27.7158 7.07066 28.1769 7.00859 28.6262 7.00859C30.5681 7.00859 31.5376 8.04311 31.5376 10.1121V15.3616H30.5178L30.3523 14.46C30.2935 14.5074 30.2341 14.5533 30.1742 14.5975C29.8157 14.8624 29.4376 15.0711 29.04 15.2256C28.5759 15.4059 28.1325 15.4946 27.7128 15.4946C26.9828 15.4946 26.4123 15.2877 25.9955 14.8709C25.5823 14.4547 25.3724 13.8852 25.3719 13.1566L25.3719 13.1536L25.3748 13.1566L25.3748 13.1536ZM25.1748 13.1536C25.1755 12.2752 25.4728 11.5802 26.0852 11.1014C26.6896 10.6288 27.5473 10.4057 28.6291 10.4057H30.0193V10.0826C30.0193 9.47226 29.8839 9.0518 29.6485 8.78507C29.4173 8.5231 29.0598 8.37612 28.5375 8.37612C28.1955 8.37612 27.8338 8.42378 27.455 8.52063C27.0689 8.61858 26.7194 8.73908 26.4006 8.88426L26.2123 8.96999L25.6599 7.63939L25.8149 7.55243C26.241 7.3133 26.6974 7.12963 27.1894 7.00128C27.6802 6.87326 28.1583 6.80859 28.6262 6.80859C29.6313 6.80859 30.4207 7.07694 30.956 7.64766C31.489 8.21597 31.7376 9.04991 31.7376 10.1121V15.5616H30.3512L30.2142 14.8155C29.8653 15.0637 29.498 15.2622 29.1124 15.412C28.6289 15.5999 28.161 15.6946 27.7128 15.6946C26.9432 15.6946 26.317 15.4752 25.8541 15.0123C25.3951 14.55 25.1719 13.9239 25.1719 13.1536H25.1748ZM27.9729 14.3861V14.1862C27.5801 14.1862 27.3227 14.0871 27.1617 13.9239C27.0002 13.7602 26.902 13.4975 26.902 13.0974C26.902 12.5991 27.0522 12.2747 27.3217 12.072C27.6034 11.8601 28.0789 11.7368 28.7917 11.7368H30.0252V13.3693C29.9117 13.4686 29.7831 13.5637 29.6387 13.6561C29.4696 13.7641 29.2892 13.8558 29.0971 13.9309C28.9011 14.0076 28.7056 14.0699 28.5107 14.118C28.3182 14.1647 28.1391 14.1862 27.967 14.1862V14.3861L27.9699 14.3862L27.9729 14.3861ZM26.6122 14.3862C26.8161 14.3359 28.9661 14.197 29.17 14.1172C29.374 14.0374 29.5661 13.9398 29.7464 13.8246C29.9267 13.7093 30.0863 13.5881 30.2252 13.458V11.5368L26.2084 11.8645M27.9729 14.3861C28.1603 14.3857 26.4074 14.4359 26.6122 14.3862L27.9729 14.3861Z" fill="#888888"/>
<path fill-rule="evenodd" clip-rule="evenodd" d="M35.6006 15.5611H33.8203V3.6076L35.6006 3.21875V15.5611ZM39.0487 6.67275L40.4553 7.6901L37.772 11.0576L40.8743 14.7804L39.4924 15.8514L35.6394 11.1386L39.0487 6.67275ZM37.514 11.0605L40.1683 7.72934L39.0894 6.94902L35.8943 11.1344L39.5239 15.5739L40.588 14.7493L37.514 11.0605ZM35.4006 15.3611H34.0203V3.76863L35.4006 3.46715V15.3611Z" fill="#888888"/>
<path fill-rule="evenodd" clip-rule="evenodd" d="M42.5011 11.1014C43.1056 10.6287 43.9634 10.4057 45.048 10.4057H46.4382V10.0826C46.4382 9.47203 46.3035 9.05155 46.0688 8.78488C45.8383 8.52308 45.4816 8.37612 44.9594 8.37612C44.6175 8.37612 44.2587 8.42373 43.8765 8.52072C43.4904 8.61867 43.1413 8.73908 42.8225 8.88426L42.6342 8.96999L42.0818 7.63939L42.2368 7.55243C42.6629 7.3133 43.1193 7.12963 43.6113 7.00128C44.1021 6.87326 44.5801 6.80859 45.048 6.80859C46.0518 6.80859 46.8411 7.07698 47.3767 7.64761C47.91 8.21586 48.1595 9.04976 48.1595 10.1121V15.5616H46.7731L46.6362 14.8157C46.2881 15.0637 45.9222 15.2623 45.5339 15.4122C45.0505 15.5999 44.5827 15.6946 44.1347 15.6946C43.3656 15.6946 42.7358 15.4754 42.2755 15.0118C41.8167 14.5497 41.5973 13.9248 41.5967 13.1566H41.5938C41.5938 12.2768 41.8914 11.5807 42.5011 11.1014ZM41.7938 13.1536L41.7938 13.1566L41.7967 13.1536L41.7967 13.1566C41.7973 13.8852 42.0042 14.4547 42.4174 14.8709C42.8312 15.2877 43.4046 15.4946 44.1347 15.4946C44.5544 15.4946 44.9978 15.4059 45.4618 15.2256C45.8619 15.0711 46.2382 14.8624 46.5961 14.5976C46.656 14.5533 46.7153 14.5075 46.7742 14.46L46.9397 15.3616H47.9595V10.1121C47.9595 8.04311 46.987 7.00859 45.048 7.00859C44.5988 7.00859 44.1377 7.07066 43.6618 7.19481C43.1859 7.31895 42.7455 7.49629 42.3347 7.72684L42.7396 8.70224C42.7998 8.67484 42.8609 8.64831 42.9231 8.62265C43.2029 8.50714 43.5032 8.40909 43.8273 8.32686C44.2234 8.22636 44.5988 8.17612 44.9594 8.17612C46.0796 8.17612 46.6382 8.8116 46.6382 10.0826V10.6057H45.048C43.9869 10.6057 43.18 10.8245 42.6243 11.259C42.0722 11.6929 41.7944 12.3245 41.7938 13.1536ZM44.3919 14.3861V14.1862C43.9991 14.1862 43.7416 14.0871 43.5807 13.9239C43.4192 13.7602 43.3209 13.4975 43.3209 13.0974C43.3209 12.5991 43.4712 12.2747 43.7406 12.072C44.0189 11.8608 44.4973 11.7368 45.2106 11.7368H46.4441V13.3684C46.3282 13.469 46.2011 13.5643 46.0576 13.6561C45.8885 13.7641 45.7081 13.8558 45.5161 13.9309C45.32 14.0076 45.1246 14.0699 44.9296 14.118C44.7371 14.1647 44.558 14.1862 44.386 14.1862V14.3861L44.3888 14.3862L44.3919 14.3861ZM42.5011 14.46C42.7051 14.4098 45.385 14.197 45.5889 14.1172C45.7929 14.0374 45.985 13.9398 46.1653 13.8246C46.3456 13.7093 46.5023 13.5881 46.6441 13.458V11.5368H45.2106C44.4835 11.5368 43.331 11.7488 43 12M44.3919 14.3861C44.5792 14.3857 42.2964 14.5098 42.5011 14.46L44.3919 14.3861Z" fill="#888888"/>
<path fill-rule="evenodd" clip-rule="evenodd" d="M50.7033 7.99626L50.7036 7.99592C51.4034 7.20793 52.3539 6.82031 53.5311 6.82031C54.7193 6.82031 55.6737 7.2074 56.3653 7.99689C57.0583 8.78746 57.3903 9.89942 57.3903 11.3091C57.3903 12.7193 57.061 13.7989 56.3737 14.5775C55.6843 15.3587 54.7265 15.7388 53.5311 15.7388C52.3344 15.7388 51.3894 15.3549 50.6979 14.5782C50.0042 13.7993 49.6719 12.6986 49.6719 11.3091C49.6719 9.92041 50.0068 8.78424 50.7033 7.99626ZM50.8473 14.4452C51.4946 15.1723 52.3813 15.5388 53.5311 15.5388C54.6809 15.5388 55.5794 15.1752 56.2238 14.4452C56.8681 13.7151 57.1903 12.6894 57.1903 11.3091C57.1903 9.92877 56.8652 8.87061 56.2149 8.12872C55.5676 7.38978 54.672 7.02031 53.5311 7.02031C52.402 7.02031 51.5094 7.38978 50.8532 8.12872C50.2 8.86766 49.8719 9.94946 49.8719 11.3091C49.8719 12.6688 50.197 13.7151 50.8473 14.4452ZM52.0337 13.5222L52.0341 13.5228C52.3763 13.9887 52.8657 14.2274 53.5311 14.2274C54.1973 14.2274 54.6983 13.988 55.0429 13.5227C55.3912 13.0455 55.5804 12.3177 55.5804 11.3091C55.5804 10.3001 55.3911 9.54739 55.0412 9.05473C54.6957 8.57217 54.2038 8.32872 53.5311 8.32872C52.8711 8.32872 52.3818 8.57144 52.0357 9.05473C51.6856 9.54785 51.4936 10.2892 51.4936 11.3091C51.4936 12.33 51.683 13.0484 52.0337 13.5222ZM51.8729 8.9386C52.2601 8.39769 52.8128 8.12872 53.5311 8.12872C54.2612 8.12872 54.8168 8.39769 55.204 8.9386C55.5883 9.4795 55.7804 10.2805 55.7804 11.3091C55.7804 12.3377 55.5883 13.1151 55.204 13.6412C54.8168 14.1644 54.2523 14.4274 53.5311 14.4274C52.8099 14.4274 52.2572 14.1644 51.8729 13.6412C51.4857 13.118 51.2936 12.3495 51.2936 11.3091C51.2936 10.2687 51.4887 9.4795 51.8729 8.9386Z" fill="#888888"/>
<path d="M7.52784 3.1875C3.92197 3.1875 1 5.89014 1 9.22481C1 11.6869 2.03059 12.8637 3.44558 13.9344H3.45266V16.8281C3.45266 16.9648 3.60831 17.0427 3.71679 16.9601L6.19303 15.1206L6.24727 15.1442C6.66234 15.2197 7.09155 15.2621 7.5302 15.2621C11.1361 15.2621 14.058 12.5595 14.058 9.22481C14.058 5.89014 11.1361 3.1875 7.5302 3.1875M5.33932 10.7554C5.97842 10.7554 6.52556 10.3733 6.69064 9.78138H7.63633C7.40521 10.9205 6.51848 11.6657 5.33696 11.6657C3.96441 11.6657 2.87723 10.6422 2.87723 9.21774C2.87723 7.79331 3.96441 6.76979 5.33696 6.76979C6.53027 6.76979 7.42172 7.53154 7.64104 8.68947H6.69771C6.55386 8.0598 5.98786 7.66596 5.33696 7.66596C4.41486 7.66596 3.80169 8.32393 3.80169 9.21538C3.80169 10.1068 4.49975 10.753 5.33696 10.753M11.5747 11.5713H10.7069V9.61393C10.7069 9.16349 10.4451 8.92059 10.0418 8.92059C9.59138 8.92059 9.30131 9.19652 9.30131 9.75308V11.569H8.43344V6.78394H9.30131V8.58335C9.50884 8.26733 9.84608 8.11404 10.3036 8.11404C10.6739 8.11404 10.9757 8.23432 11.2115 8.4843C11.4545 8.73428 11.5747 9.06916 11.5747 9.50545V11.569V11.5713Z" fill="#888888"/>
</svg>
