<svg width="73" height="23" viewBox="0 0 73 23" fill="none" xmlns="http://www.w3.org/2000/svg">
<g clip-path="url(#clip0_2044_116815)">
<path d="M50.3118 7.23092C50.3088 7.97609 50.409 8.68833 50.6125 9.36766C50.816 10.044 51.1273 10.644 51.5462 11.1677C51.9652 11.6884 52.4844 12.082 53.1039 12.3483L52.1253 13.6367C51.4968 13.3344 50.9627 12.9109 50.5227 12.3663C50.0858 11.8186 49.7432 11.1767 49.4948 10.4405C49.2374 11.2246 48.8813 11.9099 48.4264 12.4965C47.9745 13.08 47.4284 13.5304 46.7879 13.8476L45.7734 12.5324C46.4079 12.2451 46.9406 11.8261 47.3715 11.2755C47.8054 10.7248 48.1286 10.1009 48.3411 9.40357C48.5536 8.7033 48.6613 7.97908 48.6643 7.23092V5.50268H50.3118V7.23092ZM51.8201 8.24991H54.0825V4.60938H55.685V16.1998H54.0825V9.5562H51.8201V8.24991Z" fill="#888888"/>
<path d="M44.7999 16.1729H43.2423V10.2924H42.1829V15.6567H40.6791V4.91462H42.1829V8.99059H43.2423V4.60938H44.7999V16.1729ZM34.6953 12.6715C35.4704 12.2196 36.1093 11.7274 36.6121 11.1947C37.1149 10.659 37.4994 10.0754 37.7658 9.44397C38.0321 8.81253 38.2027 8.11076 38.2775 7.33866H35.2789V6.04135H39.8576C39.8546 7.17855 39.7229 8.21101 39.4626 9.13873C39.2022 10.0634 38.7608 10.9178 38.1383 11.7019C37.5189 12.486 36.6824 13.1833 35.629 13.7938L34.6953 12.6715Z" fill="#888888"/>
<path d="M34.3014 14.7894H23.7344V13.4921H28.156V10.8796H29.763V13.4921H34.3014V14.7894ZM23.9813 9.89647C24.8222 9.76779 25.5524 9.50893 26.1719 9.11989C26.7914 8.73084 27.2642 8.26998 27.5904 7.73729C27.9166 7.20161 28.0812 6.65545 28.0842 6.09882V5.27734H29.8124V6.09882C29.8094 6.66144 29.971 7.20909 30.2972 7.74178C30.6264 8.27447 31.1037 8.73533 31.7292 9.12437C32.3547 9.51042 33.0923 9.76779 33.9422 9.89647L33.2509 11.2476C32.5836 11.1249 31.9701 10.9289 31.4105 10.6596C30.8539 10.3873 30.3675 10.0551 29.9516 9.66305C29.5386 9.27101 29.2049 8.83259 28.9505 8.34779C28.6932 8.83259 28.358 9.27101 27.945 9.66305C27.532 10.0551 27.0487 10.3873 26.4951 10.6596C25.9414 10.9319 25.3339 11.1279 24.6726 11.2476L23.9813 9.89647Z" fill="#888888"/>
<path d="M16.8774 7.23092C16.8744 7.93718 16.9732 8.621 17.1737 9.28237C17.3772 9.94374 17.6839 10.5378 18.0939 11.0645C18.5039 11.5882 19.0082 11.9952 19.6067 12.2855L18.6281 13.5738C18.0296 13.2775 17.5163 12.8601 17.0884 12.3214C16.6605 11.7797 16.3223 11.1498 16.0739 10.4315C15.8135 11.2036 15.4559 11.8785 15.001 12.4561C14.5491 13.0336 14.0045 13.481 13.3671 13.7983L12.375 12.483C13.0035 12.1957 13.5331 11.7782 13.9641 11.2306C14.395 10.6829 14.7167 10.0634 14.9292 9.37215C15.1447 8.68085 15.2539 7.96711 15.2569 7.23092V5.50268H16.8774V7.23092ZM20.1184 4.60938H21.739V9.0669H23.4448V10.436H21.739V16.1729H20.1184V4.60938Z" fill="#888888"/>
<path d="M11.226 16.1729H9.61451V4.60938H11.226V16.1729ZM1.66458 12.9094C2.90952 12.9035 3.85818 12.893 4.51057 12.878V11.8994C4.08861 11.8246 3.72052 11.6899 3.40629 11.4954C3.09207 11.3009 2.84966 11.0585 2.67908 10.7682C2.5115 10.4779 2.4277 10.1562 2.4277 9.80309C2.4277 9.37514 2.54741 8.99658 2.78682 8.66739C3.02922 8.3382 3.36739 8.08233 3.80132 7.89978C4.23825 7.71722 4.73802 7.62595 5.30063 7.62595C5.86624 7.62595 6.369 7.71722 6.80892 7.89978C7.25183 8.08233 7.59598 8.3382 7.84138 8.66739C8.08677 8.99658 8.20947 9.37514 8.20947 9.80309C8.20947 10.1562 8.12268 10.4779 7.94911 10.7682C7.77853 11.0555 7.53613 11.2964 7.2219 11.4909C6.90767 11.6825 6.54108 11.8171 6.12211 11.8949V12.8197C7.20843 12.7628 8.16159 12.679 8.98157 12.5683L9.0893 13.7713C7.97305 13.9629 6.82687 14.087 5.65077 14.1439C4.47766 14.2008 3.18783 14.2292 1.78129 14.2292L1.57031 12.9094H1.66458ZM1.79925 5.90219H4.51057V4.66773H6.13109V5.90219H8.81548V7.17257H1.79925V5.90219ZM3.96741 9.80309C3.96442 10.0994 4.08412 10.3298 4.32653 10.4944C4.57192 10.656 4.89662 10.7368 5.30063 10.7368C5.71661 10.7368 6.04729 10.656 6.29269 10.4944C6.53808 10.3298 6.66078 10.0994 6.66078 9.80309C6.66078 9.60558 6.60392 9.43649 6.4902 9.29584C6.37947 9.15219 6.22087 9.04446 6.01437 8.97263C5.81087 8.89782 5.57296 8.86041 5.30063 8.86041C5.03728 8.86041 4.80385 8.89782 4.60035 8.97263C4.39985 9.04745 4.24423 9.15519 4.1335 9.29584C4.02278 9.43649 3.96741 9.60558 3.96741 9.80309Z" fill="#888888"/>
<mask id="mask0_2044_116815" style="mask-type:alpha" maskUnits="userSpaceOnUse" x="54" y="-3" width="27" height="28">
<rect x="54" y="-2.72266" width="26.8889" height="26.8889" fill="#D9D9D9"/>
</mask>
<g mask="url(#mask0_2044_116815)">
<path d="M59.3047 18.1129V16.8203H72.7047V18.1129H59.3047Z" fill="#888888"/>
</g>
<mask id="mask1_2044_116815" style="mask-type:alpha" maskUnits="userSpaceOnUse" x="57" y="0" width="21" height="21">
<path d="M57.1953 0.480469H77.6821V20.9672H57.1953V0.480469Z" fill="#D9D9D9"/>
</mask>
<g mask="url(#mask1_2044_116815)">
<path fill-rule="evenodd" clip-rule="evenodd" d="M66.6328 4.67188H65.3445V12.2618L62.5441 9.34464L61.6328 10.2842L65.9887 14.8215L70.3445 10.2842L69.4333 9.34464L66.6328 12.2618V4.67188Z" fill="#888888"/>
</g>
</g>
<defs>
<clipPath id="clip0_2044_116815">
<rect width="73" height="23" fill="white"/>
</clipPath>
</defs>
</svg>
