<svg width="64" height="23" viewBox="0 0 64 23" fill="none" xmlns="http://www.w3.org/2000/svg">
<g clip-path="url(#clip0_2044_116851)">
<path fill-rule="evenodd" clip-rule="evenodd" d="M4.13836 2.71813C4.32279 2.66699 4.51747 2.69768 4.70062 2.73987C4.97471 2.80891 5.25905 2.88307 5.48447 3.06334C5.59974 3.15284 5.70348 3.28582 5.69196 3.43925C5.69196 6.06543 5.69196 8.69034 5.69196 11.3165C5.68427 12.1783 5.73935 13.0477 5.58053 13.8992C5.46013 14.591 5.19245 15.2801 4.6955 15.789C4.53156 15.9731 4.34584 16.1406 4.12811 16.2569C3.94496 16.3541 3.74387 16.4423 3.53125 16.4257C3.48258 16.3746 3.4416 16.3119 3.45184 16.2378C3.46721 16.0332 3.54406 15.8401 3.61066 15.6471C3.81175 14.9924 3.8681 14.3033 3.89116 13.6218C3.90909 10.4228 3.91549 7.22254 3.93086 4.02227C3.93086 3.93917 3.92446 3.85734 3.91165 3.77551C3.7887 3.78062 3.71185 3.88163 3.6286 3.95835C3.2418 4.33425 2.9216 4.77919 2.6949 5.2676C2.39775 5.89155 2.24534 6.57558 2.18258 7.2609C2.12879 7.70712 2.16593 8.16101 2.27096 8.59573C2.36061 8.93199 2.49637 9.26186 2.71539 9.53548C2.80889 9.64543 2.84091 9.81421 2.7615 9.94079C2.64495 10.061 2.46307 9.99704 2.32475 9.95357C1.86366 9.78864 1.46661 9.47155 1.16178 9.09182C0.796755 8.63281 0.643059 8.03955 0.632812 7.46164C0.667394 6.95021 0.807007 6.45028 0.991442 5.97466C1.26041 5.27016 1.6613 4.61426 2.17361 4.05936C2.50534 3.71159 2.87293 3.39705 3.27126 3.12727C3.54022 2.95722 3.822 2.79613 4.13323 2.71686L4.13836 2.71813ZM21.5175 2.84599C21.6686 2.71813 21.8812 2.73603 22.0657 2.75904C22.3948 2.81274 22.7214 2.89458 23.0275 3.02755C23.1223 3.06591 23.2043 3.12855 23.2786 3.19887C23.2491 3.91487 23.2209 4.63088 23.1825 5.34688C23.9049 5.38012 24.6272 5.41975 25.3496 5.46195C25.4751 5.46706 25.6429 5.50286 25.6647 5.65245C25.6941 5.87365 25.6608 6.11018 25.5558 6.30964C25.4943 6.41448 25.406 6.54106 25.2689 6.53211C24.567 6.54362 23.8665 6.56536 23.1659 6.57559C23.1274 7.58182 23.1005 8.58806 23.0647 9.59429C23.0455 10.5123 22.9622 11.4329 23.0595 12.3496C23.1031 12.7051 23.1492 13.0746 23.3234 13.3942C23.3938 13.5336 23.5232 13.6525 23.6833 13.6729C23.8908 13.6921 24.097 13.6065 24.252 13.4722C24.4992 13.2612 24.6695 12.9774 24.8155 12.691C24.9859 12.3611 25.1101 12.0095 25.2215 11.6554C25.2625 11.4994 25.2305 11.337 25.2459 11.1784C25.2561 10.3371 25.3893 9.49329 25.6775 8.70185C25.8952 8.12777 26.2026 7.56136 26.6893 7.17012C27.2196 6.72773 27.997 6.5807 28.64 6.85047C29.0562 7.01157 29.3931 7.33889 29.6006 7.72885C29.6275 7.54474 29.5852 7.34272 29.6672 7.17012C29.7837 6.98217 30.0322 6.97322 30.2294 6.98984C30.4933 7.02053 30.7597 7.08573 30.9928 7.21742C31.135 7.29797 31.2771 7.42839 31.2823 7.60356C31.2361 9.13912 31.1734 10.676 31.2208 12.2115C31.2349 12.5452 31.2823 12.8777 31.354 13.2037C31.4142 13.4377 31.491 13.6934 31.687 13.8519C31.8714 13.9939 32.1365 13.9478 32.3107 13.811C32.5925 13.5924 32.7526 13.2638 32.8961 12.9467C32.9332 12.8559 32.9857 12.7626 32.9665 12.6603C32.8615 11.7397 32.841 10.8025 32.9908 9.88453C33.0971 9.26826 33.2816 8.65838 33.6005 8.11626C33.9233 7.56392 34.392 7.08318 34.9761 6.80701C35.0888 6.76098 35.2015 6.70088 35.3257 6.69193C35.9008 6.68682 36.4964 6.87733 36.9062 7.29414C37.0125 7.40921 37.1022 7.53707 37.1842 7.67004C37.2213 7.49744 37.1829 7.3146 37.2444 7.1471C37.3379 6.95276 37.5863 6.94126 37.7733 6.96683C38.0871 7.01797 38.406 7.08573 38.6853 7.243C38.8569 7.344 38.8582 7.5652 38.8492 7.74036C38.8338 9.47027 38.8082 11.2015 38.7967 12.9314C39.1899 12.3777 39.5498 11.7986 39.8572 11.1925C40.235 10.4573 40.5552 9.68508 40.7166 8.87063C40.5014 8.67628 40.3029 8.43847 40.2401 8.14951C40.1838 7.91297 40.2376 7.67004 40.3029 7.44117C40.4066 7.09724 40.6628 6.78016 41.0189 6.68043C41.2904 6.60499 41.5991 6.59732 41.8527 6.73285C42.0448 6.83513 42.1537 7.04482 42.1857 7.25323C42.2215 7.46547 42.1895 7.68027 42.1485 7.88995C42.6122 7.81708 43.0758 7.74164 43.5318 7.62657C43.8443 7.55497 44.1799 7.49872 44.4937 7.59844C44.7165 7.66365 44.8805 7.86566 44.933 8.08813C44.9893 8.32595 45.0073 8.58167 44.9163 8.81309C44.7934 9.11867 44.7652 9.44981 44.6973 9.76946C44.55 10.6184 44.3592 11.4866 44.5013 12.3496C44.5539 12.7345 44.632 13.1206 44.7844 13.4799C44.8779 13.6704 44.9957 13.8788 45.2122 13.9465C45.4261 14.0028 45.6425 13.8941 45.8065 13.765C46.0767 13.5221 46.2548 13.1832 46.3367 12.8329C46.1536 11.9277 46.1113 10.9892 46.2573 10.075C46.3623 9.38972 46.5596 8.71208 46.8913 8.09964C47.1526 7.63808 47.5163 7.21231 48.003 6.97833C48.5423 6.71239 49.2121 6.71239 49.7385 7.0103C50.0651 7.17907 50.3136 7.46291 50.5006 7.77361C50.5288 7.58694 50.4814 7.3798 50.5813 7.20975C50.7299 7.02564 51.0001 7.03587 51.214 7.06655C51.5265 7.12153 51.8698 7.19697 52.0888 7.44757C52.2309 7.60356 52.1618 7.82475 52.1631 8.01398C52.1375 9.02277 52.0952 10.0303 52.0977 11.0404C52.1041 11.8113 52.0734 12.5964 52.2796 13.3456C52.3398 13.5374 52.4167 13.742 52.5857 13.866C52.7727 14.0015 53.0404 13.9721 53.221 13.8366C53.4669 13.6512 53.6309 13.384 53.7743 13.1168C53.887 12.8764 54.0241 12.6411 54.0855 12.3829C54.0894 10.6862 54.0983 8.98953 54.1009 7.29158C54.0894 7.14711 54.1419 6.98089 54.2841 6.91952C54.3878 6.85559 54.5108 6.9029 54.6235 6.91568C54.9232 6.97194 55.2408 6.98089 55.5175 7.12153C55.6212 7.17267 55.7314 7.26346 55.7224 7.39132C55.7198 8.23006 55.7224 9.0688 55.7211 9.90755C55.7198 10.0047 55.7211 10.1019 55.7314 10.1991C55.9798 9.43447 56.2398 8.67244 56.5357 7.92448C56.6523 7.64831 56.7726 7.37086 56.9251 7.11259C57.0391 6.90418 57.3055 6.86965 57.5206 6.88372C57.9766 6.91824 58.4607 7.11514 58.7028 7.52301C58.7899 7.67132 58.8283 7.8452 58.8283 8.01653C58.8194 8.88852 58.8693 9.7605 58.9308 10.6299C58.9513 10.8997 58.9551 11.1721 58.9974 11.4406C59.0268 11.4201 59.0435 11.3932 59.0486 11.3587C59.1383 10.7143 59.2997 10.0827 59.4815 9.46004C59.6865 8.76962 59.9119 8.08302 60.1988 7.422C60.2731 7.25706 60.3448 7.06911 60.5139 6.98089C60.7572 6.84792 61.0518 6.88883 61.3067 6.96555C61.5948 7.064 61.8946 7.16628 62.1289 7.37085C62.2993 7.51405 62.4363 7.72119 62.4427 7.95005C62.371 9.30022 62.3057 10.6568 62.4069 12.007C62.4351 12.379 62.4799 12.7511 62.5747 13.1129C62.6297 13.3175 62.7002 13.5221 62.8283 13.6934C62.9499 13.8571 63.1817 13.9427 63.3764 13.8634C63.5493 13.797 63.6646 13.6384 63.7504 13.4812C63.9528 13.1065 64.0104 12.6795 64.1257 12.2742C64.1539 12.1514 64.2102 12.0159 64.3409 11.9737C64.4344 11.9149 64.5317 11.9878 64.606 12.0428C64.7021 12.131 64.6726 12.2716 64.6752 12.388C64.6495 13.04 64.5458 13.7215 64.1616 14.2675C63.858 14.7201 63.3073 15.0103 62.7578 14.9464C62.2545 14.9221 61.7844 14.6331 61.5142 14.2112C61.1696 13.6908 61.0313 13.0669 60.9404 12.4583C60.7803 11.2449 60.8212 10.0188 60.852 8.8003C60.802 8.83354 60.7687 8.88213 60.7457 8.93583C60.4037 9.61603 60.1732 10.3461 59.9913 11.0838C59.7531 12.0402 59.6045 13.0209 59.5712 14.0066C59.575 14.1345 59.4751 14.2304 59.3586 14.2585C59.087 14.3685 58.7668 14.3915 58.4979 14.2611C58.2238 14.1332 58.0253 13.8865 57.9023 13.6167C57.7704 13.338 57.7204 13.0311 57.6756 12.7294C57.5142 11.4764 57.4592 10.2118 57.3964 8.95117C57.4054 8.86039 57.3016 8.91921 57.2542 8.92688C56.6382 9.99577 56.3269 11.2104 56.1681 12.4251C56.0708 13.1321 56.0375 13.8455 56.0285 14.5577C56.0285 14.6868 55.9568 14.8109 55.8441 14.8735C55.6327 14.9937 55.3791 14.9886 55.1448 14.9694C54.8655 14.9413 54.5697 14.917 54.3327 14.7521C54.2316 14.6868 54.1662 14.5743 54.1611 14.4541C54.1445 14.2227 54.1393 13.99 54.1201 13.7573C53.992 13.944 53.887 14.146 53.7333 14.3148C53.49 14.6025 53.1749 14.8454 52.8022 14.9349C52.2758 15.0538 51.6892 14.8825 51.3241 14.481C51.0257 14.1601 50.8656 13.7369 50.7888 13.3111C50.5249 13.8852 50.0959 14.3992 49.5285 14.692C49.2531 14.8403 48.9457 14.9247 48.6345 14.9553C48.2925 14.9963 47.9352 14.9553 47.6265 14.7981C47.1718 14.5679 46.8324 14.1524 46.6275 13.6934C46.3867 14.233 45.9717 14.7533 45.3774 14.9106C44.7908 15.0717 44.1581 14.8326 43.738 14.4158C43.2013 13.8916 42.9208 13.1551 42.8363 12.4212C42.7902 12.0658 42.8056 11.7078 42.8312 11.351C42.885 10.5545 42.9708 9.75412 43.1796 8.98186C43.1821 8.93967 43.1834 8.8962 43.1796 8.854C42.7518 8.83355 42.3227 8.84889 41.8949 8.86039C41.6836 9.58662 41.3685 10.2771 41.015 10.9445C40.4066 12.085 39.6612 13.15 38.8236 14.1345C38.8338 15.0819 38.8633 16.0319 38.8172 16.9793C38.7698 17.7311 38.6571 18.4919 38.3446 19.1836C38.105 19.6976 37.7298 20.1655 37.2226 20.4353C36.8448 20.645 36.4144 20.7549 35.9841 20.7818C35.4487 20.7434 34.8928 20.6105 34.474 20.2576C34.1794 20.0159 33.9783 19.6694 33.9015 19.2974C33.8451 18.9739 33.8285 18.6325 33.9348 18.3167C34.1243 17.7235 34.506 17.2146 34.9146 16.7543C35.3296 16.2851 35.8086 15.8798 36.2607 15.4476C36.6232 15.1088 36.9882 14.7725 37.3519 14.4362C37.3583 14.1729 37.3174 13.9108 37.3097 13.6474C37.1419 13.866 36.992 14.1013 36.7807 14.2815C36.2569 14.7891 35.4999 15.0512 34.775 14.9566C34.2716 14.8684 33.8605 14.5194 33.5582 14.1243C33.443 13.9811 33.3418 13.8264 33.2534 13.6653C32.987 14.1933 32.6015 14.7316 32.011 14.9157C31.4219 15.0819 30.7558 14.8415 30.3691 14.3774C30.1155 14.0667 29.9502 13.6819 29.8964 13.2842C29.6492 13.8161 29.2701 14.2982 28.7642 14.6037C28.4402 14.8058 28.0649 14.9208 27.6845 14.9515C27.2721 15.0014 26.8417 14.9016 26.4998 14.6651C25.8824 14.2329 25.5789 13.5003 25.397 12.7958C25.3009 13.1104 25.146 13.4019 24.9846 13.6857C24.8206 13.9402 24.649 14.1933 24.4274 14.4017C24.1687 14.6536 23.8447 14.8569 23.4809 14.9042C23.0621 14.9579 22.6228 14.8313 22.3013 14.5577C22.04 14.3352 21.8466 14.045 21.7057 13.7356C21.4419 13.1692 21.3407 12.544 21.2895 11.9264C20.9629 12.645 20.5774 13.3546 20.0074 13.9108C19.5707 14.3557 19.0174 14.6958 18.4064 14.8428C17.9248 14.9669 17.4228 14.9541 16.9322 14.9093C16.5083 14.8671 16.0779 14.784 15.7027 14.5731C15.5221 14.4657 15.3376 14.3186 15.2838 14.1064C15.2493 13.8737 15.3825 13.6614 15.5105 13.4799C15.6361 13.3124 15.7769 13.1347 15.9806 13.0605C16.1701 12.9991 16.3341 13.1526 16.4814 13.2472C16.7106 13.4479 16.9694 13.6295 17.2729 13.696C17.5688 13.7727 17.9223 13.6755 18.0977 13.4159C18.2578 13.173 18.3027 12.8751 18.3193 12.59C18.3155 12.0517 17.9709 11.5953 17.6072 11.2296C17.2665 10.9035 16.9092 10.5954 16.5569 10.2822C16.0562 11.1337 15.5182 11.9635 15.0123 12.8112C14.7088 13.3546 14.3437 13.8711 13.8801 14.2905C13.5445 14.5884 13.1423 14.8454 12.6889 14.9068C12.3841 14.9528 12.0767 14.8019 11.891 14.5654C11.6477 14.2572 11.5439 13.8673 11.485 13.4863C11.3928 12.8035 11.4274 12.1131 11.4376 11.4265C11.4491 10.5532 11.4952 9.68123 11.5247 8.80797C11.5298 8.6213 11.5529 8.43335 11.5324 8.24668C11.4735 8.25947 11.4043 8.26074 11.3672 8.31572C10.5295 9.25675 10.007 10.4254 9.60223 11.6055C9.25898 12.6373 9.0105 13.7011 8.8504 14.7764C8.71464 14.8863 8.53532 14.917 8.36626 14.8889C8.16133 14.8594 7.95256 14.8876 7.75019 14.8441C7.5696 14.7968 7.44153 14.6383 7.37108 14.4733C7.22379 14.1319 7.20586 13.7535 7.2097 13.3865C7.22635 11.3216 7.23916 9.25675 7.25581 7.19058C7.25197 7.09085 7.27887 6.96555 7.38645 6.92975C7.60035 6.8607 7.82833 6.91952 8.04094 6.96555C8.28045 7.0282 8.54045 7.08829 8.71976 7.27113C8.81198 7.35807 8.77227 7.4936 8.77996 7.60484C8.77484 8.75044 8.75819 9.89732 8.76459 11.0429C9.14114 10.0277 9.51257 8.9972 10.0992 8.07919C10.2298 7.88996 10.3553 7.69561 10.5167 7.53068C10.7959 7.20592 11.1789 6.92208 11.6233 6.91185C11.9563 6.89907 12.2624 7.05377 12.5545 7.19441C12.8234 7.33122 13.0873 7.5294 13.1987 7.82091C13.2704 7.99224 13.2423 8.18147 13.2384 8.36175C13.209 9.34753 13.1795 10.3333 13.1462 11.3178C13.1398 11.7206 13.1078 12.122 13.1308 12.5248C13.1423 12.7166 13.1641 12.9096 13.2307 13.0912C13.2717 13.1922 13.3319 13.3085 13.451 13.3277C13.565 13.3405 13.6572 13.2587 13.7392 13.1922C13.9211 13.0273 14.0684 12.8278 14.2144 12.6309C14.6281 12.0568 14.9829 11.4431 15.3376 10.832C15.5451 10.4535 15.7616 10.0789 15.9537 9.69275C15.8858 9.58023 15.7821 9.48945 15.7219 9.37054C15.4939 9.00231 15.4298 8.53819 15.5502 8.12266C15.6591 7.71607 15.9153 7.35551 16.2496 7.10236C16.4865 6.93486 16.7632 6.82618 17.0475 6.76992C17.319 6.70088 17.62 6.74052 17.8595 6.885C18.0247 6.98601 18.1106 7.18035 18.117 7.36957C18.1323 7.72502 18.0004 8.06768 17.8339 8.37454C17.6725 8.68012 17.4625 8.95501 17.2409 9.21967C17.9479 9.73494 18.6831 10.2259 19.294 10.8575C19.6142 11.1951 19.8793 11.6093 19.9344 12.0798C19.9715 12.3228 19.9382 12.567 19.9024 12.8086C20.5684 12.2294 21.0846 11.4367 21.219 10.5545C21.237 9.20817 21.2318 7.86055 21.2472 6.51421C20.6299 6.5027 20.0125 6.50143 19.3965 6.4848C19.2748 6.41193 19.2505 6.25594 19.2441 6.12681C19.2453 5.81739 19.3312 5.49519 19.5438 5.26121C19.5758 5.21262 19.6385 5.22797 19.6898 5.22413C20.2392 5.23053 20.79 5.2382 21.3394 5.24587C21.3663 4.62192 21.3804 3.99798 21.4035 3.37532C21.4086 3.19632 21.4022 2.99558 21.5264 2.85111L21.5175 2.84599ZM28.2468 8.04466C27.8856 8.11754 27.6166 8.40778 27.4476 8.71847C27.2221 9.1404 27.1158 9.61347 27.0479 10.084C26.9647 10.6964 26.9378 11.3165 26.9711 11.9341C27.0057 12.4084 27.0697 12.8956 27.2887 13.3252C27.4117 13.5579 27.5987 13.7752 27.8536 13.8647C28.0214 13.9312 28.2173 13.9235 28.3761 13.8379C28.7027 13.6704 28.9256 13.3584 29.0895 13.04C29.3803 12.4506 29.5032 11.796 29.5686 11.1478C29.6211 10.4727 29.6403 9.78224 29.4776 9.11994C29.3918 8.80541 29.2586 8.48705 29.014 8.2633C28.8129 8.07407 28.5183 7.98202 28.2468 8.04594V8.04466ZM35.9277 8.06768C35.4935 8.18658 35.1925 8.56249 34.9978 8.94734C34.7148 9.54699 34.5995 10.2106 34.5496 10.8678C34.5175 11.6055 34.5099 12.3637 34.7378 13.0746C34.8531 13.4108 35.0478 13.7548 35.3846 13.9069C35.5947 14.0079 35.8509 13.9849 36.0481 13.8622C36.2146 13.7548 36.3593 13.6116 36.4759 13.4505C36.7449 13.0835 36.9037 12.6488 37.0138 12.2115C37.1739 11.5607 37.2264 10.8869 37.2226 10.2182C37.2162 9.76051 37.1752 9.29767 37.0317 8.86039C36.9382 8.59317 36.7948 8.32595 36.5566 8.16101C36.3773 8.03315 36.1377 8.00247 35.929 8.06768H35.9277ZM49.2531 8.12394C48.8753 8.18403 48.5858 8.4781 48.4142 8.80414C48.1055 9.38461 48.0133 10.0495 47.9557 10.6951C47.9083 11.4214 47.8878 12.1642 48.0594 12.8777C48.1465 13.2254 48.2912 13.5809 48.5743 13.8136C48.7587 13.9619 49.0187 14.0463 49.2505 13.9606C49.5528 13.8596 49.7641 13.6001 49.9332 13.3418C50.32 12.7012 50.4634 11.9481 50.5365 11.213C50.5915 10.5443 50.6056 9.85896 50.4417 9.20305C50.3584 8.88085 50.2188 8.55609 49.9614 8.33362C49.7731 8.16357 49.5054 8.07407 49.2544 8.12266L49.2531 8.12394ZM36.8371 16.1943C36.1685 16.8527 35.5499 17.593 35.1772 18.4625C35.044 18.7732 34.9722 19.1235 35.0683 19.4546C35.1336 19.7116 35.3373 19.9315 35.5973 19.998C35.92 20.0824 36.2876 20.0824 36.5783 19.9009C36.8409 19.727 37.0125 19.447 37.1163 19.1555C37.3148 18.5954 37.3532 17.9958 37.3814 17.4064C37.3904 16.831 37.407 16.2544 37.4109 15.679C37.2008 15.8286 37.0279 16.0204 36.8371 16.193V16.1943Z" fill="#888888"/>
</g>
<defs>
<clipPath id="clip0_2044_116851">
<rect width="64" height="23" fill="white"/>
</clipPath>
</defs>
</svg>
