<svg width="190" height="24" viewBox="0 0 190 24" fill="none" xmlns="http://www.w3.org/2000/svg">
<path d="M14.2872 15.5411H4.72122L2.73584 20.287H0L8.19802 1.10156H10.9529L19.1224 20.287H16.263L14.2777 15.5411H14.2872ZM13.3657 13.3147L9.51844 4.0426L5.64267 13.3147H13.3657Z" fill="#111111"/>
<path d="M28.8393 0.859375C34.007 0.859375 37.0373 3.51639 37.0373 7.52023C37.0373 11.5241 34.007 14.1811 28.8393 14.1811H24.3936V20.054H21.7812V0.868536H28.8393V0.859375ZM34.425 7.52023C34.425 4.67081 32.2401 3.14074 28.6398 3.14074H24.3936V11.9089H28.6398C32.2401 11.9089 34.425 10.3788 34.425 7.52939V7.52023Z" fill="#111111"/>
<path d="M63.292 20.0448H60.6797V0.859375H63.292V20.0448Z" fill="#111111"/>
<path d="M71.3077 17.7726H82.8685V20.0448H68.6953V0.859375H71.3077V17.7726Z" fill="#111111"/>
<path d="M52.9982 20.0448L48.4764 13.2191C48.1059 13.2466 47.7355 13.2649 47.3555 13.2649H42.5108V20.0448H39.8984V0.859375H47.346C52.3617 0.859375 55.316 3.27817 55.316 7.06212C55.316 9.76495 53.8056 11.7806 51.0698 12.7152L56.0665 20.0448H52.9887H52.9982ZM52.7227 7.06212C52.7227 4.47841 50.6138 3.11325 47.156 3.11325H42.5108V11.0202H47.156C50.6043 11.0202 52.7227 9.655 52.7227 7.07129V7.06212Z" fill="#111111"/>
<path d="M89.3692 0.632812L97.0447 14.1347L104.72 0.632812H107.01V20.5154H104.397V5.84558L97.9852 17.1637H96.0948L89.6827 5.84558V20.5154H87.0703V0.632812H89.3597H89.3692Z" fill="#111111"/>
<path d="M123.92 15.597H114.354L112.369 20.5154H109.633L117.831 0.632812H120.586L128.755 20.5154H125.896L123.91 15.597H123.92ZM122.999 13.2897L119.151 3.68071L115.275 13.2897H122.999Z" fill="#111111"/>
<path d="M140 13.4416C139.629 13.4701 139.259 13.4891 138.879 13.4891H134.034V20.5154H131.422V0.632812H138.869C143.885 0.632812 146.839 3.1395 146.839 7.06095C146.839 9.86198 145.329 11.9509 142.593 12.9194L139.981 13.4416H140ZM144.246 7.06095C144.246 4.38335 142.137 2.96859 138.679 2.96859H134.034V11.1628H138.679C142.128 11.1628 144.246 9.74804 144.246 7.07044V7.06095Z" fill="#111111"/>
<path d="M149.211 9.44071C149.211 4.07602 153.153 0.164062 158.52 0.164062C163.109 0.164062 166.272 2.82267 167.203 6.54472H164.828C164.078 4.03803 161.788 2.30994 158.558 2.30994C154.483 2.30994 151.538 5.28189 151.538 9.44071C151.538 13.5995 154.512 16.5715 158.558 16.5715C161.883 16.5715 164.363 14.625 165.009 12.0993H167.383C166.604 15.7929 163.213 18.7173 158.52 18.7173C153.163 18.7173 149.211 14.7959 149.211 9.44071Z" fill="#111111"/>
<path d="M158.508 18.8761C153.027 18.8761 149.047 14.9072 149.047 9.43806C149.047 3.96892 153.027 0 158.508 0C162.954 0 166.345 2.48769 167.352 6.49459L167.4 6.694H164.711L164.673 6.58005C163.913 4.04488 161.567 2.45921 158.556 2.45921C154.576 2.45921 151.688 5.39318 151.688 9.42856C151.688 13.4639 154.576 16.3979 158.556 16.3979C161.662 16.3979 164.189 14.6508 164.854 12.0397L164.882 11.9163H167.571L167.533 12.1062C166.687 16.1415 163.059 18.8571 158.518 18.8571L158.508 18.8761ZM158.508 0.313338C153.208 0.313338 149.36 4.14933 149.36 9.43806C149.36 14.7268 153.208 18.5628 158.508 18.5628C162.831 18.5628 166.288 16.0371 167.172 12.2581H165.12C164.379 14.9357 161.757 16.7302 158.546 16.7302C154.386 16.7302 151.365 13.6633 151.365 9.43806C151.365 5.21277 154.386 2.14588 158.546 2.14588C161.653 2.14588 164.094 3.76003 164.93 6.37116H166.982C165.956 2.63012 162.726 0.313338 158.499 0.313338H158.508Z" fill="#111111"/>
<path d="M189.737 0.632812V20.5154H187.125V11.5236H175.573V20.5154H172.961V0.632812H175.573V9.14985H187.125V0.632812H189.737Z" fill="#111111"/>
<path d="M158.021 23.9902C156.89 23.9902 155.76 23.8857 154.629 23.6673C145.301 21.9108 139.744 13.5267 139.516 13.1753L141.643 11.7891C141.691 11.865 146.868 19.632 155.123 21.1796C159.892 22.0722 164.813 20.7334 169.752 17.2012L171.234 19.2712C166.836 22.414 162.409 23.9997 158.021 23.9997V23.9902Z" fill="#111111"/>
</svg>
