<svg width="49" height="17" viewBox="0 0 49 17" fill="none" xmlns="http://www.w3.org/2000/svg">
<g clip-path="url(#clip0_2044_116843)">
<path d="M27.1312 7.73438H16.9219V9.33915H27.1312V7.73438Z" fill="#888888"/>
<path d="M25.4386 14.1308H20.6388V15.3213H25.4823V16.9173H18.8065V12.8324H23.6062V11.5398H18.7656V10.2969H25.4386V14.1308Z" fill="#888888"/>
<path d="M36.0224 6.52422H31.5844V7.69716H36.0486V9.29902H34.1987V11.1431H37.7701V12.7041H27.625V11.1431H32.1271V9.29902H29.5128V5.22581H34.6627V4.19583H29.4895V2.41016H36.0224V6.52422Z" fill="#888888"/>
<path d="M48.6623 10.3906H38.4297V12.1909H48.6623V10.3906Z" fill="#888888"/>
<path d="M40.2578 3.20312H46.814V9.23125H45.0021V4.97713H40.2578V3.20312Z" fill="#888888"/>
<path d="M23.4954 0.267507L22.4275 0.25V1.93356C22.4275 1.93356 23.259 1.74098 23.4749 2.51419V3.47706H20.6768V2.45584C20.6768 2.45584 20.5367 0.789788 18.8269 0.751857L17.5956 0.734351L17.5781 2.48502C17.5781 2.48502 18.5702 2.23117 18.8094 3.0248V6.74497H25.3394V2.45584C25.3394 2.45584 25.2198 0.322944 23.4925 0.267507H23.4954ZM23.4749 5.75584H20.6768V4.55663H23.4749V5.75584Z" fill="#888888"/>
<path d="M7.6047 3.39844V8.5414L4.01787 3.39844H0.140625V13.5954H4.00655V8.44877L7.59338 13.5954H11.4706V3.39844H7.6047Z" fill="#888888"/>
</g>
<defs>
<clipPath id="clip0_2044_116843">
<rect width="48.719" height="16.995" fill="white" transform="translate(0.140625)"/>
</clipPath>
</defs>
</svg>
