<svg width="50" height="17" viewBox="0 0 50 17" fill="none" xmlns="http://www.w3.org/2000/svg">
<g clip-path="url(#clip0_2044_116834)">
<path d="M8.76265 15.2273C8.30977 14.9216 7.9871 14.4461 7.79463 13.8008C7.60405 13.1554 7.50781 12.2988 7.50781 11.227V9.76833C7.50781 8.6871 7.61725 7.81721 7.83614 7.16243C8.05503 6.50765 8.39658 6.02836 8.86077 5.72833C9.32497 5.4283 9.93446 5.27734 10.6892 5.27734C11.444 5.27734 12.0271 5.43019 12.4762 5.73588C12.9234 6.04157 13.2517 6.52086 13.4593 7.16998C13.6669 7.82098 13.7707 8.6871 13.7707 9.76833V11.227C13.7707 12.2988 13.6688 13.1592 13.4669 13.8083C13.265 14.4593 12.9366 14.9349 12.4838 15.2349C12.0309 15.5349 11.4157 15.6859 10.6402 15.6859C9.86464 15.6859 9.21741 15.533 8.76265 15.2273ZM11.3025 13.6536C11.4271 13.3253 11.4912 12.7913 11.4912 12.0478V8.91731C11.4912 8.19649 11.4289 7.66814 11.3025 7.33603C11.1761 7.00204 10.9553 6.83598 10.6383 6.83598C10.3213 6.83598 10.1156 7.00204 9.99107 7.33603C9.86464 7.67002 9.80237 8.19649 9.80237 8.91731V12.0478C9.80237 12.7913 9.86275 13.3272 9.98352 13.6536C10.1043 13.9819 10.3213 14.1461 10.6383 14.1461C10.9553 14.1461 11.1761 13.9819 11.3025 13.6536Z" fill="#888888"/>
<path d="M43.5865 11.2516V11.7592C43.5865 12.4046 43.6054 12.8876 43.6431 13.2103C43.6809 13.533 43.7601 13.767 43.8809 13.916C44.0017 14.0632 44.1866 14.1368 44.4375 14.1368C44.7753 14.1368 45.0093 14.0047 45.1338 13.7424C45.2603 13.4801 45.3282 13.0424 45.3395 12.431L47.2906 12.5461C47.302 12.6329 47.3076 12.7537 47.3076 12.9065C47.3076 13.8349 47.0529 14.5293 46.5453 14.9878C46.0377 15.4464 45.3188 15.6766 44.3904 15.6766C43.2752 15.6766 42.494 15.3275 42.0468 14.6274C41.5977 13.9273 41.375 12.8461 41.375 11.3818V9.62694C41.375 8.11925 41.6071 7.01726 42.0713 6.32286C42.5355 5.62845 43.3299 5.28125 44.4564 5.28125C45.232 5.28125 45.8282 5.42277 46.2434 5.70771C46.6585 5.99264 46.951 6.43419 47.1208 7.03613C47.2906 7.63808 47.3756 8.46834 47.3756 9.52882V11.2497H43.5884L43.5865 11.2516ZM43.8733 7.02292C43.7582 7.16445 43.6828 7.39654 43.6431 7.71922C43.6054 8.04189 43.5865 8.53061 43.5865 9.18728V9.9081H45.2414V9.18728C45.2414 8.54193 45.2188 8.05321 45.1754 7.71922C45.132 7.38522 45.0527 7.15124 44.9376 7.01349C44.8225 6.87763 44.6451 6.80781 44.4055 6.80781C44.1658 6.80781 43.9866 6.87951 43.8733 7.02104V7.02292Z" fill="#888888"/>
<path d="M3.26133 11.0647L0.6875 1.76953H2.93299L3.83497 5.98314C4.06518 7.02097 4.23312 7.90596 4.34256 8.6381H4.40861C4.48408 8.11353 4.65391 7.2342 4.9162 5.99823L5.85025 1.76953H8.09574L5.48984 11.0647V15.5237H3.25944V11.0647H3.26133Z" fill="#888888"/>
<path d="M21.0839 5.47656V15.5266H19.3139L19.1177 14.2963H19.0686C18.5874 15.2247 17.8666 15.6888 16.9043 15.6888C16.2382 15.6888 15.7457 15.47 15.4286 15.0341C15.1116 14.5963 14.9531 13.9132 14.9531 12.9848V5.47656H17.2156V12.8527C17.2156 13.3018 17.2647 13.6207 17.3628 13.8113C17.4609 14.0019 17.6251 14.0981 17.8553 14.0981C18.0515 14.0981 18.2402 14.0377 18.4214 13.917C18.6025 13.7962 18.7346 13.6434 18.8233 13.4584V5.47656H21.0858H21.0839Z" fill="#888888"/>
<path d="M32.6855 5.47656V15.5266H30.9155L30.7192 14.2963H30.6702C30.189 15.2247 29.4682 15.6888 28.5058 15.6888C27.8397 15.6888 27.3472 15.47 27.0302 15.0341C26.7132 14.5963 26.5547 13.9132 26.5547 12.9848V5.47656H28.8172V12.8527C28.8172 13.3018 28.8662 13.6207 28.9643 13.8113C29.0625 14.0019 29.2266 14.0981 29.4568 14.0981C29.6531 14.0981 29.8418 14.0377 30.0229 13.917C30.2041 13.7962 30.3362 13.6434 30.4249 13.4584V5.47656H32.6873H32.6855Z" fill="#888888"/>
<path d="M27.2278 3.58857H24.9823V15.5237H22.7689V3.58857H20.5234V1.76953H27.2278V3.58857Z" fill="#888888"/>
<path d="M40.1779 7.08114C40.0402 6.44711 39.8194 5.98858 39.5137 5.70365C39.208 5.41871 38.7872 5.27719 38.2513 5.27719C37.8362 5.27719 37.4475 5.39418 37.0871 5.63005C36.7266 5.86593 36.4474 6.1735 36.2511 6.55656H36.2341V1.26172H34.0547V15.5234H35.9228L36.153 14.5724H36.2021C36.3775 14.9121 36.6398 15.1781 36.9889 15.3763C37.338 15.5725 37.7267 15.6706 38.1532 15.6706C38.9174 15.6706 39.4816 15.3178 39.842 14.6139C40.2024 13.9082 40.3836 12.8081 40.3836 11.3098V9.71912C40.3836 8.59449 40.3157 7.71327 40.1779 7.07925V7.08114ZM38.1041 11.1815C38.1041 11.9137 38.0739 12.4873 38.0136 12.9024C37.9532 13.3176 37.8532 13.6138 37.7097 13.7874C37.5682 13.9629 37.3758 14.0497 37.1361 14.0497C36.9493 14.0497 36.7776 14.0063 36.6191 13.9176C36.4606 13.8308 36.3323 13.6987 36.2341 13.5251V7.82083C36.3096 7.54722 36.4417 7.32455 36.6285 7.14907C36.8134 6.97358 37.0172 6.88678 37.2342 6.88678C37.4644 6.88678 37.6418 6.97735 37.7664 7.15661C37.8909 7.33776 37.9796 7.63968 38.0286 8.06613C38.0777 8.49259 38.1022 9.09831 38.1022 9.88517V11.1796L38.1041 11.1815Z" fill="#888888"/>
</g>
<defs>
<clipPath id="clip0_2044_116834">
<rect width="48.4" height="16.5" fill="white" transform="translate(0.796875 0.25)"/>
</clipPath>
</defs>
</svg>
