<svg width="68" height="34" viewBox="0 0 68 34" fill="none" xmlns="http://www.w3.org/2000/svg">
<path d="M2.44355 18.6016L7.41984 27.3553L12.3961 18.6016H13.8804V31.4921H12.1867V21.9812L8.02956 29.319H6.80396L2.64679 21.9812V31.4921H0.953125V18.6016H2.43739H2.44355Z" fill="#555555"/>
<path d="M24.8409 28.3033H18.639L17.3519 31.4921H15.5781L20.8932 18.6016H22.6792L27.9757 31.4921H26.122L24.8348 28.3033H24.8409ZM24.2435 26.8074L21.7492 20.5776L19.2364 26.8074H24.2435Z" fill="#555555"/>
<path d="M35.2567 26.9059C35.0165 26.9244 34.7763 26.9367 34.53 26.9367H31.389V31.4921H29.6953V18.6016H34.5238C37.7756 18.6016 39.691 20.2267 39.691 22.7691C39.691 24.5851 38.7118 25.9394 36.938 26.5673L35.2444 26.9059H35.2567ZM38.0097 22.7691C38.0097 21.0332 36.6424 20.1159 34.4006 20.1159H31.389V25.4285H34.4006C36.6363 25.4285 38.0097 24.5112 38.0097 22.7753V22.7691Z" fill="#555555"/>
<path d="M41.2422 24.3034C41.2422 20.8253 43.7981 18.2891 47.2778 18.2891C50.2525 18.2891 52.3034 20.0127 52.9069 22.4258H51.3672C50.8807 20.8007 49.3964 19.6803 47.3024 19.6803C44.6603 19.6803 42.7511 21.6071 42.7511 24.3034C42.7511 26.9997 44.6788 28.9265 47.3024 28.9265C49.458 28.9265 51.0654 27.6645 51.4842 26.0271H53.0239C52.5189 28.4217 50.3202 30.3177 47.2778 30.3177C43.8042 30.3177 41.2422 27.7753 41.2422 24.3034Z" fill="#555555"/>
<path d="M47.2748 30.4255C43.7212 30.4255 41.1406 27.8523 41.1406 24.3065C41.1406 20.7607 43.7212 18.1875 47.2748 18.1875C50.1571 18.1875 52.3558 19.8003 53.0086 22.3981L53.0394 22.5274H51.2965L51.2718 22.4536C50.7791 20.8099 49.2579 19.7819 47.3056 19.7819C44.725 19.7819 42.8528 21.6841 42.8528 24.3003C42.8528 26.9166 44.725 28.8188 47.3056 28.8188C49.3195 28.8188 50.9577 27.6861 51.3888 25.9932L51.4073 25.9132H53.1502L53.1256 26.0363C52.5775 28.6526 50.2248 30.4132 47.2809 30.4132L47.2748 30.4255ZM47.2748 18.3906C43.8382 18.3906 41.3439 20.8776 41.3439 24.3065C41.3439 27.7353 43.8382 30.2223 47.2748 30.2223C50.077 30.2223 52.3188 28.5848 52.8916 26.1348H51.5613C51.0809 27.8708 49.3811 29.0342 47.2994 29.0342C44.6019 29.0342 42.6434 27.0459 42.6434 24.3065C42.6434 21.5671 44.6019 19.5787 47.2994 19.5787C49.3133 19.5787 50.8961 20.6252 51.4381 22.3181H52.7684C52.1033 19.8927 50.0093 18.3906 47.2686 18.3906H47.2748Z" fill="#555555"/>
<path d="M67.517 18.6016V31.4921H65.8234V25.6624H58.3343V31.4921H56.6406V18.6016H58.3343V24.1234H65.8234V18.6016H67.517Z" fill="#555555"/>
<path d="M46.9504 33.7463C46.2175 33.7463 45.4846 33.6786 44.7517 33.537C38.7038 32.3981 35.1009 26.9625 34.9531 26.7347L36.3327 25.8359C36.3635 25.8852 39.72 30.9207 45.072 31.9241C48.1637 32.5028 51.354 31.6348 54.5565 29.3448L55.5173 30.6868C52.6658 32.7244 49.7958 33.7525 46.9504 33.7525V33.7463Z" fill="#555555"/>
<path d="M16.6378 13.9283H10.4359L9.14873 17.1171H7.375L12.69 4.22656H14.4761L19.7726 17.1171H17.9188L16.6316 13.9283H16.6378ZM16.0404 12.4324L13.5461 6.20261L11.0333 12.4324H16.0404Z" fill="#555555"/>
<path d="M26.076 4.22656C29.4263 4.22656 31.391 6.01178 31.391 8.70191C31.391 11.3921 29.4263 13.1773 26.076 13.1773H23.1937V17.1232H21.5V4.23272H26.076V4.22656ZM29.6973 8.70191C29.6973 6.78742 28.2808 5.75939 25.9466 5.75939H23.1937V11.6506H25.9466C28.2808 11.6506 29.6973 10.6226 29.6973 8.70807V8.70191Z" fill="#555555"/>
<path d="M48.4124 17.1171H46.7188V4.22656H48.4124V17.1171Z" fill="#555555"/>
<path d="M53.6077 15.5904H61.103V17.1171H51.9141V4.22656H53.6077V15.5904Z" fill="#555555"/>
<path d="M41.7351 17.1171L38.8036 12.5309C38.5634 12.5494 38.3232 12.5617 38.0768 12.5617H34.9359V17.1171H33.2422V4.22656H38.0707C41.3225 4.22656 43.2379 5.85172 43.2379 8.39412C43.2379 10.2101 42.2586 11.5644 40.4849 12.1923L43.7244 17.1171H41.729H41.7351ZM41.5565 8.39412C41.5565 6.65815 40.1893 5.74092 37.9475 5.74092H34.9359V11.0535H37.9475C40.1831 11.0535 41.5565 10.1362 41.5565 8.40028V8.39412Z" fill="#555555"/>
<path d="M61.2656 0V6.43451" stroke="#555555" stroke-width="0.7"/>
<path d="M58.0469 3.21875L64.4814 3.21875" stroke="#555555" stroke-width="0.7"/>
<path d="M58.9922 0.945312L63.5421 5.4952" stroke="#555555" stroke-width="0.7"/>
<path d="M63.5469 0.945312L58.997 5.4952" stroke="#555555" stroke-width="0.7"/>
</svg>
