<svg width="312" height="112" viewBox="0 0 312 112" fill="none" xmlns="http://www.w3.org/2000/svg">
<path d="M249.539 107.157C246.947 107.157 245.352 105.323 245.352 102.293C245.352 99.2634 246.947 97.4297 249.539 97.4297C250.855 97.4297 251.653 97.7486 252.69 98.9046L252.012 99.5425C251.214 98.6256 250.576 98.3465 249.579 98.3465C248.502 98.3465 247.625 98.7851 247.066 99.6222C246.588 100.3 246.428 101.057 246.428 102.333C246.428 103.609 246.588 104.366 247.066 105.044C247.625 105.881 248.542 106.319 249.579 106.319C250.576 106.319 251.214 106.04 252.012 105.123L252.69 105.761C251.653 106.877 250.855 107.236 249.539 107.236V107.157Z" fill="#D2FF52"/>
<path d="M260.981 99.025C260.423 98.4669 259.984 98.2676 259.186 98.2676C257.551 98.2676 256.634 99.623 256.634 101.138V106.998H255.637V97.5102H256.634V98.7858C257.192 97.9088 258.309 97.3906 259.426 97.3906C260.343 97.3906 261.061 97.6298 261.699 98.3075L260.981 99.025Z" fill="#D2FF52"/>
<path d="M264.176 102.492C264.176 104.884 265.253 106.24 267.287 106.24C268.403 106.24 269.121 105.881 269.919 105.084L270.677 105.682C269.72 106.638 268.842 107.157 267.247 107.157C264.615 107.157 263.219 105.482 263.219 102.293C263.219 99.104 264.655 97.4297 267.008 97.4297C269.361 97.4297 270.796 99.1439 270.796 102.054V102.492H264.176ZM269.44 99.9012C269.042 98.9046 268.045 98.3067 266.968 98.3067C265.891 98.3067 264.934 98.9046 264.495 99.9012C264.256 100.499 264.216 100.778 264.176 101.695H269.759C269.759 100.778 269.68 100.499 269.44 99.9012Z" fill="#D2FF52"/>
<path d="M279.612 107.038V106.081C278.814 106.878 278.056 107.157 276.7 107.157C275.344 107.157 274.507 106.918 273.908 106.28C273.47 105.842 273.23 105.124 273.23 104.447C273.23 102.692 274.467 101.696 276.541 101.696H279.612V100.62C279.612 99.1048 278.854 98.3075 276.94 98.3075C275.584 98.3075 274.905 98.6264 274.307 99.5034L273.589 98.8656C274.387 97.7494 275.384 97.3906 276.94 97.3906C279.452 97.3906 280.609 98.5068 280.609 100.5V106.998H279.612V107.038ZM279.612 102.493H276.66C275.025 102.493 274.228 103.131 274.228 104.407C274.228 105.682 274.985 106.24 276.7 106.24C277.578 106.24 278.375 106.161 279.053 105.523C279.412 105.204 279.572 104.606 279.572 103.729V102.493H279.612Z" fill="#D2FF52"/>
<path d="M286.91 107.025C285.394 107.025 284.636 105.989 284.636 104.554V98.2949H283.32V97.5375H284.636V94.5078H285.634V97.5375H287.787V98.2949H285.634V104.593C285.634 105.59 286.072 106.188 287.109 106.188H287.787V107.065H286.91V107.025Z" fill="#D2FF52"/>
<path d="M290.699 94.2358V93H291.936V94.2358H290.699ZM290.819 107.032V97.5445H291.816V107.032H290.819Z" fill="#D2FF52"/>
<path d="M298.479 107.027H297.481L294.012 97.5391H295.128L298 105.871L300.872 97.5391H301.988L298.518 107.027H298.479Z" fill="#D2FF52"/>
<path d="M304.578 102.492C304.578 104.884 305.655 106.24 307.689 106.24C308.806 106.24 309.524 105.881 310.321 105.084L311.079 105.682C310.122 106.638 309.245 107.157 307.649 107.157C305.017 107.157 303.621 105.482 303.621 102.293C303.621 99.104 305.057 97.4297 307.41 97.4297C309.763 97.4297 311.199 99.1439 311.199 102.054V102.492H304.578ZM309.843 99.9012C309.444 98.9046 308.447 98.3067 307.37 98.3067C306.293 98.3067 305.336 98.9046 304.897 99.9012C304.658 100.499 304.618 100.778 304.578 101.695H310.162C310.162 100.778 310.082 100.499 309.843 99.9012Z" fill="#D2FF52"/>
<path d="M12.6029 107.037V101.137C12.6029 99.3033 11.6856 98.3067 9.97063 98.3067C8.25568 98.3067 7.29851 99.3432 7.29851 100.978V107.037H6.30145V101.137C6.30145 99.3033 5.38416 98.3067 3.66922 98.3067C1.95427 98.3067 0.997063 99.3432 0.997063 101.137V107.037H0V97.5493H0.997063V98.6655C1.67507 97.8682 2.67216 97.4297 3.82875 97.4297C5.22464 97.4297 6.30145 98.0277 6.89969 99.1439C7.61758 98.0277 8.73428 97.4297 10.1302 97.4297C11.1671 97.4297 12.0445 97.7486 12.6428 98.3465C13.2809 98.9445 13.6398 99.8614 13.6398 100.978V107.037H12.6428H12.6029Z" fill="#D2FF52"/>
<path d="M22.889 107.038V106.081C22.0914 106.878 21.3336 107.157 19.9776 107.157C18.6216 107.157 17.7841 106.918 17.1858 106.28C16.7471 105.842 16.5078 105.124 16.5078 104.447C16.5078 102.692 17.7442 101.696 19.8181 101.696H22.889V100.62C22.889 99.1048 22.1313 98.3075 20.2169 98.3075C18.8609 98.3075 18.1829 98.6264 17.5847 99.5034L16.8668 98.8656C17.6644 97.7494 18.6615 97.3906 20.2169 97.3906C22.7295 97.3906 23.8861 98.5068 23.8861 100.5V106.998H22.889V107.038ZM22.889 102.493H19.9377C18.3025 102.493 17.5049 103.131 17.5049 104.407C17.5049 105.682 18.2627 106.24 19.9776 106.24C20.855 106.24 21.6926 106.161 22.3307 105.523C22.6896 105.204 22.8492 104.606 22.8492 103.729V102.493H22.889Z" fill="#D2FF52"/>
<path d="M33.024 99.025C32.4656 98.4669 32.0269 98.2676 31.2292 98.2676C29.594 98.2676 28.6768 99.623 28.6768 101.138V106.998H27.6797V97.5102H28.6768V98.7858C29.2351 97.9088 30.3518 97.3906 31.4685 97.3906C32.3858 97.3906 33.1037 97.6298 33.7418 98.3075L33.024 99.025Z" fill="#D2FF52"/>
<path d="M42.1945 107.032L38.9242 101.81L36.7705 104.321V107.032H35.7734V93H36.7705V102.886L41.4766 97.5445H42.7529L39.6022 101.092L43.4309 107.032H42.1945Z" fill="#D2FF52"/>
<path d="M46.5783 102.492C46.5783 104.884 47.6551 106.24 49.6891 106.24C50.8058 106.24 51.4838 105.881 52.3214 105.084L53.0791 105.682C52.122 106.638 51.2445 107.157 49.6492 107.157C47.017 107.157 45.6211 105.482 45.6211 102.293C45.6211 99.104 47.0569 97.4297 49.4099 97.4297C51.763 97.4297 53.1988 99.1439 53.1988 102.054V102.492H46.5783ZM51.8428 99.9012C51.4439 98.9046 50.4469 98.3067 49.3701 98.3067C48.2932 98.3067 47.336 98.9046 46.8973 99.9012C46.658 100.499 46.6181 100.778 46.5783 101.695H52.1618C52.1219 100.778 52.0821 100.499 51.8428 99.9012Z" fill="#D2FF52"/>
<path d="M58.9879 107.025C57.4723 107.025 56.7146 105.989 56.7146 104.554V98.2949H55.3984V97.5375H56.7146V94.5078H57.7116V97.5375H59.8653V98.2949H57.7116V104.593C57.7116 105.59 58.1504 106.188 59.1873 106.188H59.8653V107.065H58.9879V107.025Z" fill="#D2FF52"/>
<path d="M62.7734 94.2358V93H64.0098V94.2358H62.7734ZM62.8931 107.032V97.5445H63.8901V107.032H62.8931Z" fill="#D2FF52"/>
<path d="M74.0241 107.037V101.137C74.0241 99.3033 73.1068 98.3067 71.3918 98.3067C69.6769 98.3067 68.7197 99.3432 68.7197 101.137V107.037H67.7227V97.5493H68.7197V98.6655C69.4376 97.8283 70.3948 97.4297 71.5115 97.4297C72.5883 97.4297 73.4259 97.7486 74.0241 98.3465C74.6622 98.9445 75.0212 99.8614 75.0212 100.978V107.037H74.0241Z" fill="#D2FF52"/>
<path d="M81.6776 111.655C80.2418 111.655 79.5638 111.296 78.5269 110.379L79.2049 109.702C79.9627 110.379 80.4811 110.738 81.6776 110.738C83.6717 110.738 84.5492 109.303 84.5492 107.429V105.715C83.7116 106.831 82.7943 107.071 81.7175 107.071C80.7204 107.071 79.8829 106.752 79.4043 106.233C78.4471 105.277 78.168 103.682 78.168 102.207C78.168 100.732 78.4073 99.1377 79.4043 98.1809C79.8829 97.7026 80.7603 97.3438 81.7175 97.3438C82.7943 97.3438 83.7116 97.583 84.5492 98.6992V97.4633H85.5462V107.509C85.5462 109.901 84.1105 111.615 81.6776 111.615V111.655ZM81.877 98.2607C79.5639 98.2607 79.2049 100.254 79.2049 102.247C79.2049 104.24 79.5639 106.233 81.877 106.233C84.1902 106.233 84.5492 104.24 84.5492 102.247C84.5492 100.254 84.1902 98.2607 81.877 98.2607Z" fill="#D2FF52"/>
<path d="M238.408 102H92.9961V102.558H238.408V102Z" fill="#D2FF52"/>
<path d="M95.1456 39.2656L105.648 57.7406L116.151 39.2656H119.283V66.4714H115.709V46.3984L106.935 61.8851H104.348L95.5745 46.3984V66.4714H92V39.2656H95.1326H95.1456Z" fill="#D2FF52"/>
<path d="M142.42 59.7414H129.331L126.615 66.4714H122.871L134.089 39.2656H137.858L149.037 66.4714H145.124L142.407 59.7414H142.42ZM141.16 56.5843L135.895 43.4361L130.592 56.5843H141.16Z" fill="#D2FF52"/>
<path d="M164.413 56.7921C163.906 56.8311 163.399 56.8571 162.879 56.8571H156.25V66.4714H152.676V39.2656H162.866C169.73 39.2656 173.772 42.6956 173.772 48.0614C173.772 51.8941 171.705 54.7524 167.962 56.0776L164.387 56.7921H164.413ZM170.223 48.0614C170.223 44.3976 167.338 42.4617 162.606 42.4617H156.25V53.674H162.606C167.325 53.674 170.223 51.7382 170.223 48.0744V48.0614Z" fill="#D2FF52"/>
<path d="M177.023 51.3106C177.023 43.97 182.418 38.6172 189.762 38.6172C196.04 38.6172 200.368 42.255 201.642 47.348H198.393C197.366 43.918 194.233 41.5534 189.814 41.5534C184.237 41.5534 180.208 45.62 180.208 51.3106C180.208 57.0012 184.276 61.0678 189.814 61.0678C194.363 61.0678 197.756 58.4044 198.64 54.9484H201.889C200.823 60.0024 196.183 64.004 189.762 64.004C182.431 64.004 177.023 58.6382 177.023 51.3106Z" fill="#D2FF52"/>
<path d="M189.763 64.227C182.263 64.227 176.816 58.7963 176.816 51.3127C176.816 43.8292 182.263 38.3984 189.763 38.3984C195.846 38.3984 200.486 41.8024 201.864 47.2851L201.929 47.558H198.251L198.199 47.4021C197.159 43.9331 193.948 41.7634 189.828 41.7634C184.381 41.7634 180.43 45.778 180.43 51.2997C180.43 56.8214 184.381 60.836 189.828 60.836C194.078 60.836 197.536 58.4455 198.446 54.8726L198.485 54.7037H202.163L202.111 54.9635C200.954 60.4852 195.989 64.201 189.776 64.201L189.763 64.227ZM189.763 38.8272C182.51 38.8272 177.245 44.076 177.245 51.3127C177.245 58.5494 182.51 63.7983 189.763 63.7983C195.677 63.7983 200.408 60.3423 201.617 55.1714H198.809C197.796 58.8352 194.208 61.2908 189.815 61.2908C184.121 61.2908 179.988 57.0943 179.988 51.3127C179.988 45.5312 184.121 41.3347 189.815 41.3347C194.065 41.3347 197.406 43.5434 198.55 47.1162H201.357C199.953 41.9973 195.534 38.8272 189.75 38.8272H189.763Z" fill="#D2FF52"/>
<path d="M232.486 39.2656V66.4714H228.912V54.1677H213.106V66.4714H209.531V39.2656H213.106V50.9197H228.912V39.2656H232.486Z" fill="#D2FF52"/>
<path d="M189.082 71.2263C187.536 71.2263 185.989 71.0834 184.442 70.7845C171.678 68.381 164.074 56.9088 163.762 56.4281L166.673 54.5312C166.738 54.6352 173.822 65.2628 185.118 67.3806C191.643 68.6018 198.376 66.7699 205.135 61.9368L207.163 64.7691C201.145 69.0696 195.088 71.2393 189.082 71.2393V71.2263Z" fill="#D2FF52"/>
<path d="M125.104 29.3976H112.015L109.298 36.1276H105.555L116.772 8.92188H120.542L131.72 36.1276H127.808L125.091 29.3976H125.104ZM123.843 26.2405L118.579 13.0924L113.276 26.2405H123.843Z" fill="#D2FF52"/>
<path d="M145.017 8.92188C152.088 8.92188 156.235 12.6896 156.235 18.3672C156.235 24.0448 152.088 27.8126 145.017 27.8126H138.934V36.1406H135.359V8.93487H145.017V8.92188ZM152.66 18.3672C152.66 14.3266 149.67 12.1569 144.744 12.1569H138.934V24.5905H144.744C149.67 24.5905 152.66 22.4208 152.66 18.3802V18.3672Z" fill="#D2FF52"/>
<path d="M192.164 36.1276H188.59V8.92188H192.164V36.1276Z" fill="#D2FF52"/>
<path d="M203.129 32.9055H218.948V36.1276H199.555V8.92188H203.129V32.9055Z" fill="#D2FF52"/>
<path d="M178.085 36.1276L171.898 26.4484C171.391 26.4874 170.884 26.5134 170.364 26.5134H163.735V36.1276H160.16V8.92188H170.351C177.214 8.92188 181.256 12.3518 181.256 17.7176C181.256 21.5503 179.19 24.4086 175.446 25.7338L182.283 36.1276H178.072H178.085ZM177.708 17.7176C177.708 14.0538 174.822 12.118 170.091 12.118H163.735V23.3303H170.091C174.809 23.3303 177.708 21.3944 177.708 17.7306V17.7176Z" fill="#D2FF52"/>
<path fill-rule="evenodd" clip-rule="evenodd" d="M218.684 13.5802V0H219.884V13.5802H218.684Z" fill="#D2FF52"/>
<path fill-rule="evenodd" clip-rule="evenodd" d="M226.076 7.39063L212.496 7.39062L212.496 6.19062L226.076 6.19063L226.076 7.39063Z" fill="#D2FF52"/>
<path fill-rule="evenodd" clip-rule="evenodd" d="M223.661 12.0167L214.059 2.41406L214.907 1.56553L224.51 11.1682L223.661 12.0167Z" fill="#D2FF52"/>
<path fill-rule="evenodd" clip-rule="evenodd" d="M214.061 11.1652L223.664 1.5625L224.513 2.41103L214.91 12.0137L214.061 11.1652Z" fill="#D2FF52"/>
</svg>
