<svg width="1031" height="767" viewBox="0 0 1031 767" fill="none" xmlns="http://www.w3.org/2000/svg">
<path d="M651.877 490.223C565.471 566.45 476.676 623.449 402.976 653.99C366.124 669.261 333.072 677.906 305.996 679.047C278.914 680.189 257.893 673.824 244.972 659.178C232.052 644.533 228.358 622.881 232.867 596.153C237.375 569.431 250.074 537.715 269.821 503.055C309.312 433.738 376.938 352.742 463.344 276.515C549.75 200.287 638.545 143.289 712.245 112.748C749.097 97.4768 782.149 88.832 809.225 87.6906C836.307 86.5491 857.328 92.9143 870.249 107.56C883.169 122.205 886.863 143.857 882.354 170.585C877.845 197.307 865.147 229.023 845.4 263.683C805.909 333 738.283 413.995 651.877 490.223Z" stroke="#666666"/>
<path d="M168.767 171.4H186.767V173.4C181.967 175.267 177.634 181.067 173.767 190.8L129.167 304.8H123.967L93.5672 228.6L63.9672 304.8H58.7672L15.5672 196C10.3672 183.2 5.30052 175.867 0.367187 174V171.6H30.9672V174C28.4339 174.667 27.1005 176.4 26.9672 179.2C26.9672 181.867 27.9005 185.533 29.7672 190.2C29.9005 190.6 33.1005 198.933 39.3672 215.2C45.7672 231.333 52.1005 247.4 58.3672 263.4L67.5672 287.4C77.3005 262.2 85.4339 241.2 91.9672 224.4L80.7672 196C75.5672 183.2 70.5005 175.867 65.5672 174V171.6H96.1672V174C93.6339 174.667 92.3005 176.4 92.1672 179.2C92.1672 181.867 93.1005 185.533 94.9672 190.2C95.1005 190.6 98.3005 198.933 104.567 215.2C110.967 231.333 117.301 247.4 123.567 263.4L132.767 287.4C157.434 222.733 169.767 190.333 169.767 190.2C171.634 185.4 172.501 181.6 172.367 178.8C172.367 176 171.167 174.267 168.767 173.6V171.4ZM263.089 276L264.889 277.6C251.689 295.733 236.556 304.8 219.489 304.8C214.156 304.8 208.822 303.8 203.489 301.8C198.289 299.8 193.422 296.933 188.889 293.2C184.489 289.467 180.889 284.533 178.089 278.4C175.422 272.133 174.089 265.2 174.089 257.6C174.089 242.4 179.022 229.933 188.889 220.2C198.889 210.467 210.756 205.6 224.489 205.6C236.222 205.6 245.556 208.867 252.489 215.4C259.422 221.933 263.022 229.933 263.289 239.4H188.289C187.889 242.333 187.689 245.333 187.689 248.4C187.689 261.6 191.422 272.267 198.889 280.4C206.489 288.533 216.489 292.6 228.889 292.6C241.822 292.6 253.222 287.067 263.089 276ZM218.289 209C210.422 208.867 203.956 211.4 198.889 216.6C193.822 221.8 190.489 228.6 188.889 237H247.889C246.822 229.8 243.622 223.333 238.289 217.6C233.089 211.867 226.422 209 218.289 209ZM291.741 278.4C291.741 286.133 292.274 291.533 293.341 294.6C294.541 297.533 296.607 299.467 299.541 300.4V302.8H269.141V300.4C272.207 299.467 274.207 297.533 275.141 294.6C276.207 291.667 276.741 286.267 276.741 278.4V199.4C276.741 193 276.141 188.733 274.941 186.6C273.874 184.333 271.941 182.933 269.141 182.4V179.6L289.341 170.4H291.741V278.4ZM395.417 276L397.217 277.6C384.017 295.733 368.884 304.8 351.817 304.8C346.217 304.8 340.751 303.8 335.417 301.8C330.084 299.667 325.217 296.733 320.817 293C316.417 289.133 312.884 284.133 310.217 278C307.684 271.867 306.417 265.067 306.417 257.6C306.417 248.933 308.417 240.6 312.417 232.6C316.417 224.6 321.951 218.133 329.017 213.2C336.084 208.267 343.684 205.8 351.817 205.8C360.484 205.8 368.151 207.733 374.817 211.6C381.617 215.467 386.151 219.667 388.417 224.2C389.484 226.333 389.151 228.2 387.417 229.8C385.684 231.267 383.684 231.4 381.417 230.2C380.351 229.533 379.217 228.333 378.017 226.6C376.951 224.867 375.817 223.067 374.617 221.2C373.417 219.2 371.884 217.267 370.017 215.4C368.284 213.4 365.884 211.8 362.817 210.6C359.884 209.267 356.417 208.6 352.417 208.6C343.484 208.6 335.817 212.6 329.417 220.6C323.151 228.467 320.017 237.733 320.017 248.4C320.017 261.6 323.751 272.267 331.217 280.4C338.817 288.533 348.817 292.6 361.217 292.6C374.151 292.6 385.551 287.067 395.417 276ZM452.469 205.6C458.735 205.6 464.735 206.6 470.469 208.6C476.202 210.467 481.535 213.267 486.469 217C491.402 220.733 495.335 225.867 498.269 232.4C501.202 238.8 502.669 246.067 502.669 254.2C502.669 262.067 501.135 269.333 498.069 276C495.002 282.533 491.002 287.867 486.069 292C481.135 296 475.735 299.133 469.869 301.4C464.135 303.667 458.335 304.8 452.469 304.8C446.202 304.8 440.135 303.8 434.269 301.8C428.535 299.8 423.202 296.933 418.269 293.2C413.469 289.333 409.602 284.2 406.669 277.8C403.735 271.4 402.269 264.2 402.269 256.2C402.269 241.667 407.269 229.6 417.269 220C427.269 210.4 439.002 205.6 452.469 205.6ZM458.269 300.6C468.002 300.6 475.402 297.267 480.469 290.6C485.535 283.933 488.069 275.6 488.069 265.6C488.069 257.067 486.269 248.467 482.669 239.8C479.202 231 474.069 223.6 467.269 217.6C460.602 211.6 453.335 208.8 445.469 209.2C436.135 209.6 429.069 213.2 424.269 220C419.469 226.667 417.069 235.067 417.069 245.2C417.069 253.6 418.669 262 421.869 270.4C425.069 278.8 429.935 285.933 436.469 291.8C443.002 297.667 450.269 300.6 458.269 300.6ZM646.83 278.4C646.83 286.267 647.363 291.667 648.43 294.6C649.496 297.533 651.496 299.467 654.43 300.4V302.8H624.03V300.4C627.096 299.467 629.163 297.533 630.23 294.6C631.296 291.667 631.83 286.267 631.83 278.4V239.4C631.83 229.8 630.03 222.8 626.43 218.4C622.83 214 617.496 211.8 610.43 211.8C607.23 211.8 603.963 212.8 600.63 214.8C597.296 216.8 594.83 218.733 593.23 220.6C591.63 222.333 590.163 224.133 588.83 226C589.896 230.133 590.43 234.467 590.43 239V278.4C590.43 286.267 590.963 291.667 592.03 294.6C593.096 297.533 595.096 299.467 598.03 300.4V302.8H567.83V300.4C570.763 299.467 572.763 297.533 573.83 294.6C574.896 291.667 575.43 286.267 575.43 278.4V239.4C575.43 229.8 573.63 222.8 570.03 218.4C566.43 214 561.096 211.8 554.03 211.8C551.63 211.8 549.23 212.333 546.83 213.4C544.563 214.333 542.563 215.467 540.83 216.8C539.23 218.133 537.763 219.533 536.43 221C535.23 222.333 534.296 223.467 533.63 224.4L532.63 225.8V278.4C532.63 286.133 533.163 291.533 534.23 294.6C535.43 297.533 537.496 299.467 540.43 300.4V302.8H510.03V300.4C513.096 299.467 515.096 297.533 516.03 294.6C517.096 291.667 517.63 286.267 517.63 278.4V234.4C517.63 228 517.03 223.667 515.83 221.4C514.763 219.133 512.83 217.8 510.03 217.4V214.6L530.23 206.8H532.63V221.4C532.896 221 533.296 220.467 533.83 219.8C534.496 219 535.763 217.733 537.63 216C539.63 214.133 541.696 212.533 543.83 211.2C545.963 209.733 548.696 208.467 552.03 207.4C555.496 206.2 558.963 205.6 562.43 205.6C575.096 205.6 583.496 211.2 587.63 222.4C589.63 220.133 591.763 217.933 594.03 215.8C596.43 213.667 599.963 211.467 604.63 209.2C609.43 206.8 614.163 205.6 618.83 205.6C627.496 205.6 634.296 208.4 639.23 214C644.296 219.6 646.83 227.933 646.83 239V278.4ZM749.964 276L751.764 277.6C738.564 295.733 723.431 304.8 706.364 304.8C701.031 304.8 695.697 303.8 690.364 301.8C685.164 299.8 680.297 296.933 675.764 293.2C671.364 289.467 667.764 284.533 664.964 278.4C662.297 272.133 660.964 265.2 660.964 257.6C660.964 242.4 665.897 229.933 675.764 220.2C685.764 210.467 697.631 205.6 711.364 205.6C723.097 205.6 732.431 208.867 739.364 215.4C746.297 221.933 749.897 229.933 750.164 239.4H675.164C674.764 242.333 674.564 245.333 674.564 248.4C674.564 261.6 678.297 272.267 685.764 280.4C693.364 288.533 703.364 292.6 715.764 292.6C728.697 292.6 740.097 287.067 749.964 276ZM705.164 209C697.297 208.867 690.831 211.4 685.764 216.6C680.697 221.8 677.364 228.6 675.764 237H734.764C733.697 229.8 730.497 223.333 725.164 217.6C719.964 211.867 713.297 209 705.164 209ZM900.147 290.6C900.414 291.133 900.814 292.067 901.347 293.4C893.347 301 885.547 304.8 877.947 304.8C865.014 304.8 858.547 295.6 858.547 277.2V209.6H846.347V206.8C849.547 206.8 852.614 206 855.547 204.4C858.48 202.8 860.814 200.867 862.547 198.6C864.414 196.2 865.947 193.867 867.147 191.6C868.48 189.333 869.48 187.333 870.147 185.6L870.947 183.2H873.547V206.8H889.947V209.6H873.547V277.2C873.547 289.333 878.08 295.4 887.147 295.4C891.547 295.4 895.88 293.8 900.147 290.6ZM950.672 205.6C956.939 205.6 962.939 206.6 968.672 208.6C974.405 210.467 979.739 213.267 984.672 217C989.605 220.733 993.539 225.867 996.472 232.4C999.405 238.8 1000.87 246.067 1000.87 254.2C1000.87 262.067 999.339 269.333 996.272 276C993.205 282.533 989.205 287.867 984.272 292C979.339 296 973.939 299.133 968.072 301.4C962.339 303.667 956.539 304.8 950.672 304.8C944.405 304.8 938.339 303.8 932.472 301.8C926.739 299.8 921.405 296.933 916.472 293.2C911.672 289.333 907.805 284.2 904.872 277.8C901.939 271.4 900.472 264.2 900.472 256.2C900.472 241.667 905.472 229.6 915.472 220C925.472 210.4 937.205 205.6 950.672 205.6ZM956.472 300.6C966.205 300.6 973.605 297.267 978.672 290.6C983.739 283.933 986.272 275.6 986.272 265.6C986.272 257.067 984.472 248.467 980.872 239.8C977.405 231 972.272 223.6 965.472 217.6C958.805 211.6 951.539 208.8 943.672 209.2C934.339 209.6 927.272 213.2 922.472 220C917.672 226.667 915.272 235.067 915.272 245.2C915.272 253.6 916.872 262 920.072 270.4C923.272 278.8 928.139 285.933 934.672 291.8C941.205 297.667 948.472 300.6 956.472 300.6Z" fill="black"/>
<g clip-path="url(#clip0_646_2013)">
<path d="M1014.94 421.396C989.851 415.355 966.755 442.138 958.258 453.465C958.258 453.465 911.637 515.663 894.139 506.979C883.549 500.284 904.401 474.03 939.196 424.568H923.891C923.891 424.568 910.679 441.71 899.383 460.815C861.764 507.634 845.854 509.849 840.912 506.979C833.776 502.851 840.71 488.176 847.946 476.069C854.552 465.018 942.272 334.001 942.272 334.001H922.58C922.58 334.001 876.186 405.966 849.182 449.538L849.258 449.412C849.258 449.412 842.878 458.6 828.406 457.87C813.933 457.14 809.243 436.248 809.243 436.248V436.373C807.402 427.991 801.351 423.209 793.787 421.396C787.155 419.811 780.65 420.541 774.523 422.63H713.48C727.827 398.944 739.4 379.612 743.182 374.301C752.814 360.708 771.271 337.475 789.5 338.935C801.956 340.571 798.93 354.642 795.375 361.111C795.375 361.111 809.722 361.388 807.125 343.944C805.436 332.189 777.978 325.519 748.654 355.045C732.34 371.456 714.539 398.969 700.041 422.63H647.344C657.253 408.081 666.809 394.01 666.809 394.01H650.47C650.47 394.01 641.04 408.383 631.736 422.63H617.087V426.506H629.215C622.432 436.927 616.204 446.568 614.414 449.538C609.977 456.888 597.647 458.046 593.865 456.938C590.083 455.831 577.829 447.952 598.983 422.101H584.309C584.309 422.101 583.628 423.209 582.695 425.021V424.971C582.695 424.971 554.178 445.813 532.797 472.117C549.186 444.051 564.617 422.126 564.617 422.126H550.144L539.604 438.689L538.747 440.048L493.992 510.277H512.449C517.24 500.258 522.585 490.19 527.981 480.625C528.233 480.348 556.674 447.021 580.854 429.023C576.165 439.646 570.945 459.179 594.394 461.016C602.211 461.268 610.002 456.964 610.002 456.964C610.002 456.964 578.762 501.844 605.035 510.805C623.214 517.425 657.581 488.478 667.641 476.497C667.641 476.497 628.105 546.75 586.175 571.217C566.054 583.777 529.796 578.969 531.662 549.871C532.494 536.681 544.597 528.048 550.446 527.771C550.446 527.771 520.265 525.405 519.71 548.965C519.156 572.551 539.226 580.631 564.617 580.631C590.007 580.631 617.037 565.83 645.125 529.231C661.615 507.734 689.224 462.778 711.186 426.582H766.051C747.292 437.229 733.727 458.398 733.727 458.398L731.13 462.854C731.13 462.854 709.547 501.316 735.315 510.277C751.78 514.933 784.659 501.97 805.183 461.52C808.033 454.849 809.445 449.11 809.772 444.202L809.898 446.039C813.781 454.144 818.597 459.38 828.254 460.739C837.886 462.099 844.769 456.813 844.769 456.813L844.921 456.561C837.23 469.071 831.784 478.284 830.574 481.153C825.254 493.714 823.035 507.986 835.617 511.158C848.199 514.354 866.101 505.041 894.139 470.279L894.365 469.877C884.355 488.604 878.329 506.954 890.003 511.133C900.064 515.462 919.277 505.721 950.744 465.824C946.306 475.037 935.086 502.801 956.468 510.226C972.932 514.883 1005.81 501.92 1026.34 461.469C1036.9 436.776 1028.2 424.568 1014.96 421.396H1014.94ZM673.995 464.289C673.995 464.289 635.191 511.057 608.489 508.414C592.554 507.306 619.659 462.527 626.794 452.483C629.744 448.33 637.056 437.657 644.646 426.531H697.621C687.106 443.774 678.584 458.424 673.995 464.314V464.289ZM784.054 477.101C774.927 487.723 755.764 511.46 738.82 506.249C720.288 500.561 743.787 461.595 743.787 461.595C743.787 461.595 770.817 418.074 792.198 425.399C809.117 431.188 792.35 467.385 784.029 477.076L784.054 477.101ZM1005.23 477.101C996.104 487.723 976.941 511.46 959.997 506.249C941.465 500.561 964.965 461.595 964.965 461.595C964.965 461.595 991.994 418.074 1013.38 425.399C1030.29 431.188 1013.53 467.385 1005.21 477.076L1005.23 477.101Z" fill="black"/>
<path d="M511.717 457.819C494.244 459.078 491.698 438.89 491.672 438.79C490.538 428.922 484.033 423.41 475.788 421.421C444.169 413.82 416.056 456.963 416.056 456.963C416.056 456.963 410.357 464.062 392.783 473.904C380.907 480.549 364.367 482.814 364.367 482.814L363.585 483.695C383.983 460.563 394.674 429.552 376.974 421.925C356.551 413.115 331.689 443.925 319.234 462.073C339.077 431.087 359.627 399.95 376.974 375.609H360.484L221 591.001H239.179C239.179 591.001 272.941 534.793 311.317 474.457C311.493 474.206 351.155 419.156 370.393 426.934C376.949 430.131 376.545 458.172 354.054 484.702C354.054 484.702 331.11 485.81 319.688 490.567C303.904 497.112 302.366 511.761 319.688 510.1C334.791 509.018 350.524 498.244 362.854 484.526L362.249 485.206C362.249 485.206 378.26 483.67 393.993 475.364C409.727 467.057 413.408 463.08 413.408 463.08C413.408 463.08 391.522 501.265 417.291 510.226C433.756 514.883 466.635 501.919 487.159 461.469C489.807 455.252 491.244 449.84 491.698 445.158C492.63 450.217 498.531 459.908 510.986 460.009C523.467 460.11 532.418 449.789 532.418 449.789L538.671 439.998C535.898 444.176 526.316 456.762 511.717 457.794V457.819ZM318.023 508.061C304.61 508.59 312.502 494.519 325.361 491.322C338.699 488 352.541 487.043 352.541 487.043C352.541 487.043 337.842 507.457 318.023 508.061ZM466.08 477.1C456.953 487.723 437.79 511.459 420.846 506.249C402.314 500.56 425.813 461.595 425.813 461.595C425.813 461.595 452.843 418.074 474.224 425.398C491.143 431.188 474.376 467.384 466.055 477.075L466.08 477.1Z" fill="black"/>
<path d="M954.854 394.793C959.95 394.793 964.082 390.668 964.082 385.58C964.082 380.492 959.95 376.367 954.854 376.367C949.757 376.367 945.625 380.492 945.625 385.58C945.625 390.668 949.757 394.793 954.854 394.793Z" fill="black"/>
</g>
<defs>
<clipPath id="clip0_646_2013">
<rect width="810" height="257" fill="white" transform="translate(221 334)"/>
</clipPath>
</defs>
</svg>
