<svg width="172" height="28" viewBox="0 0 172 28" fill="none" xmlns="http://www.w3.org/2000/svg">
<path d="M1.98047 19.021L2.72314 19.1162C2.71045 19.5605 2.7041 19.8208 2.7041 19.897C2.7041 21.8774 3.25 23.4707 4.3418 24.6768C5.44629 25.8701 6.79199 26.4668 8.37891 26.4668C9.97852 26.4668 11.2163 25.9272 12.0923 24.8481C12.9683 23.769 13.4062 22.5884 13.4062 21.3062C13.4062 20.8237 13.3237 20.3159 13.1587 19.7827C12.9048 18.9575 12.4858 18.2212 11.9019 17.5737L9.46436 14.9077C7.58545 12.8511 6.37939 11.3784 5.84619 10.4897C5.31299 9.60107 5.04639 8.63623 5.04639 7.59521C5.04639 5.99561 5.64307 4.52295 6.83643 3.17725C8.02979 1.81885 9.78174 1.13965 12.0923 1.13965C13.1206 1.13965 14.1807 1.31738 15.2725 1.67285C16.3643 2.01562 17.0181 2.18701 17.2339 2.18701C17.6528 2.18701 17.9956 2.07275 18.2622 1.84424C18.5288 1.60303 18.7446 1.35547 18.9097 1.10156H19.8047L18.2241 8.87109L17.5576 8.77588C17.4941 6.92236 17.2593 5.57031 16.853 4.71973C16.1167 3.20898 14.7266 2.45361 12.6826 2.45361C11.4258 2.45361 10.4038 2.81543 9.6167 3.53906C8.82959 4.25 8.43604 5.14502 8.43604 6.22412C8.43604 7.1001 8.61377 7.83643 8.96924 8.43311C9.32471 9.02979 10.0039 9.86768 11.0068 10.9468L14.5298 14.7363C15.1646 15.4219 15.6978 16.2026 16.1294 17.0786C16.561 17.9419 16.7769 18.9512 16.7769 20.1064C16.7769 22.1377 16.0659 23.9404 14.644 25.5146C13.2349 27.0762 11.3496 27.8569 8.98828 27.8569C7.75684 27.8569 6.50635 27.6157 5.23682 27.1333C3.97998 26.6636 3.19922 26.4287 2.89453 26.4287C2.4375 26.4287 2.10742 26.5366 1.9043 26.7524C1.70117 26.9683 1.51709 27.292 1.35205 27.7236H0.666504L1.98047 19.021ZM27.8789 5.57666C27.3584 5.57666 26.9141 5.37354 26.5459 4.96729C26.1777 4.56104 25.9937 4.07227 25.9937 3.50098C25.9937 2.91699 26.1777 2.42187 26.5459 2.01562C26.9141 1.60938 27.3584 1.40625 27.8789 1.40625C28.3994 1.40625 28.8438 1.60938 29.2119 2.01562C29.5928 2.42187 29.7832 2.91699 29.7832 3.50098C29.7832 4.08496 29.5928 4.58008 29.2119 4.98633C28.8438 5.37988 28.3994 5.57666 27.8789 5.57666ZM28.3359 9.74707C28.4121 9.78516 28.4438 9.83594 28.4312 9.89941L24.5845 23.4961C24.4067 24.2197 24.3179 24.6514 24.3179 24.791C24.3179 24.9814 24.356 25.1465 24.4321 25.2861C24.4956 25.4385 24.6543 25.5146 24.9082 25.5146C25.3398 25.5146 25.9111 25.1401 26.6221 24.3911C27.041 23.9468 27.5552 23.312 28.1646 22.4868L28.6597 22.9058L28.4692 23.1724C27.5171 24.5054 26.73 25.4639 26.1079 26.0479C25.1304 26.9619 24.1782 27.4189 23.2515 27.4189C22.7056 27.4189 22.2485 27.1904 21.8804 26.7334C21.5249 26.2764 21.3472 25.7368 21.3472 25.1147C21.3472 24.7466 21.3726 24.4292 21.4233 24.1626C21.4741 23.8833 21.5693 23.4771 21.709 22.9438L24.375 13.1558C24.4131 13.0034 24.4448 12.8638 24.4702 12.7368C24.4956 12.6099 24.5083 12.4829 24.5083 12.356C24.5083 11.8989 24.3369 11.6196 23.9941 11.5181C23.6641 11.4038 23.0039 11.3467 22.0137 11.3467V10.7183C23.0674 10.5913 23.8228 10.4961 24.2798 10.4326C24.7495 10.3564 25.2192 10.2803 25.689 10.2041C26.2983 10.1025 26.876 9.98828 27.4219 9.86133C27.9678 9.73438 28.2725 9.69629 28.3359 9.74707ZM31.0591 27L34.3535 15.2314C34.6328 14.2412 34.7915 13.6445 34.8296 13.4414C34.8804 13.2256 34.9058 12.9971 34.9058 12.7559C34.9058 12.3877 34.7979 12.1021 34.582 11.8989C34.3789 11.6831 33.9727 11.5752 33.3633 11.5752C33.2109 11.5752 33.0586 11.5879 32.9062 11.6133C32.7666 11.626 32.6079 11.645 32.4302 11.6704V11.0229C33.2554 10.896 33.8394 10.8008 34.1821 10.7373C34.5376 10.6738 34.9185 10.5977 35.3247 10.5088L38.7334 9.76611C38.8096 9.81689 38.8604 9.87402 38.8857 9.9375L36.353 18.126C37.9019 15.752 39.1968 13.9873 40.2378 12.832C42.0659 10.7881 43.7036 9.76611 45.1509 9.76611C45.7095 9.76611 46.1919 9.87402 46.5981 10.0898C47.3726 10.5088 47.7598 11.2642 47.7598 12.356C47.7598 12.6606 47.728 12.978 47.6646 13.3081C47.6011 13.6382 47.5186 13.9937 47.417 14.3745L44.9224 23.4961C44.8716 23.6865 44.8145 23.9214 44.751 24.2007C44.6875 24.4673 44.6558 24.6577 44.6558 24.772C44.6558 24.9624 44.7002 25.1338 44.7891 25.2861C44.8779 25.4385 45.0239 25.5146 45.2271 25.5146C45.5571 25.5146 45.938 25.3242 46.3696 24.9434C46.8013 24.5498 47.5059 23.7183 48.4834 22.4487L49.0356 22.9438C47.9946 24.353 47.1694 25.3433 46.5601 25.9146C45.519 26.9175 44.5225 27.4189 43.5703 27.4189C43.1387 27.4189 42.7197 27.2793 42.3135 27C41.9199 26.708 41.7231 26.1875 41.7231 25.4385C41.7231 25.2227 41.7358 24.9941 41.7612 24.7529C41.7993 24.5117 41.8438 24.3022 41.8945 24.1245L44.2939 14.8696C44.4209 14.3618 44.5034 13.9492 44.5415 13.6318C44.5923 13.3018 44.6177 13.0669 44.6177 12.9272C44.6177 12.6226 44.5415 12.3623 44.3892 12.1465C44.2495 11.918 43.9956 11.8037 43.6274 11.8037C42.6753 11.8037 41.4756 12.667 40.0283 14.3936C39.1777 15.4219 38.3145 16.647 37.4385 18.0688C36.7656 19.1733 36.2324 20.2524 35.8389 21.3062C35.458 22.3472 34.8486 24.2451 34.0107 27H31.0591ZM62.042 9.8042C63.5908 9.8042 64.708 10.1533 65.3936 10.8516C66.0791 11.5498 66.4219 12.229 66.4219 12.8892C66.4219 13.4858 66.2441 13.9492 65.8887 14.2793C65.5332 14.6094 65.1143 14.7744 64.6318 14.7744C64.1621 14.7744 63.7686 14.6284 63.4512 14.3364C63.1338 14.0444 62.9751 13.6826 62.9751 13.251C62.9751 12.9209 63.0767 12.5654 63.2798 12.1846C63.4956 11.8037 63.6035 11.5562 63.6035 11.4419C63.6035 11.2134 63.4702 11.0229 63.2036 10.8706C62.9497 10.7056 62.5371 10.623 61.9658 10.623C59.9219 10.623 58.1445 11.7847 56.6338 14.1079C55.1357 16.4312 54.3867 18.8687 54.3867 21.4204C54.3867 22.855 54.6914 23.9785 55.3008 24.791C55.9102 25.6035 56.8242 26.0098 58.043 26.0098C59.0205 26.0098 59.9663 25.7305 60.8804 25.1719C61.8071 24.6006 62.6577 23.877 63.4321 23.001L63.5654 22.8486L64.1177 23.2676C63.229 24.3975 62.3721 25.2671 61.5469 25.8765C60.0869 26.9302 58.4683 27.457 56.6909 27.457C54.9897 27.457 53.6123 26.9175 52.5586 25.8384C51.5049 24.7466 50.978 23.2612 50.978 21.3823C50.978 18.5005 52.1523 15.8472 54.501 13.4224C56.8242 11.0103 59.3379 9.8042 62.042 9.8042ZM68.4023 21.9536C68.4023 19.1353 69.6719 16.4058 72.2109 13.7651C74.7246 11.1245 77.3208 9.8042 79.9995 9.8042C80.9897 9.8042 81.7769 10.0327 82.3608 10.4897C82.9448 10.9468 83.2368 11.626 83.2368 12.5273C83.2368 14.3555 82.1641 15.9233 80.0186 17.231C77.8857 18.5259 75.6387 19.3193 73.2773 19.6113L72.1919 19.7446C72.0269 20.2651 71.9126 20.6841 71.8491 21.0015C71.7856 21.3062 71.7539 21.6934 71.7539 22.1631C71.7539 23.2803 72.1157 24.1499 72.8394 24.772C73.5757 25.394 74.4453 25.7051 75.4482 25.7051C76.4004 25.7051 77.4097 25.3877 78.4761 24.7529C79.0854 24.3848 79.9678 23.7246 81.123 22.7725L81.6182 23.2104C81.0469 23.9341 80.228 24.6768 79.1616 25.4385C77.27 26.7969 75.3721 27.4761 73.4678 27.4761C72.1221 27.4761 70.9414 27 69.9258 26.0479C68.9102 25.0957 68.4023 23.731 68.4023 21.9536ZM72.4585 18.8877C74.8833 18.5322 76.8574 17.6816 78.3809 16.3359C79.9043 14.9775 80.666 13.6318 80.666 12.2988C80.666 11.8164 80.5518 11.4355 80.3232 11.1562C80.0947 10.8643 79.7583 10.7183 79.314 10.7183C78.4888 10.7183 77.6763 11.0737 76.8765 11.7847C76.0894 12.4829 75.3784 13.2764 74.7437 14.165C74.0708 15.2061 73.5376 16.2026 73.144 17.1548C72.9282 17.6626 72.6997 18.2402 72.4585 18.8877ZM94.7007 26.3335L102.927 17.6118C104.336 16.1265 105.46 14.7935 106.298 13.6128C107.783 11.5308 108.526 9.76611 108.526 8.31885C108.526 6.97314 108.088 5.83057 107.212 4.89111C106.349 3.95166 105.162 3.48193 103.651 3.48193C102.229 3.48193 100.985 3.95801 99.9185 4.91016C99.3472 5.43066 98.7695 6.17969 98.1855 7.15723L97.3667 6.87158C98.3442 4.23096 99.8804 2.40283 101.975 1.38721C103.067 0.866699 104.229 0.606445 105.46 0.606445C107.453 0.606445 109.021 1.28564 110.164 2.64404C111.319 4.00244 111.896 5.51318 111.896 7.17627C111.896 8.62354 111.452 9.98828 110.563 11.2705C109.688 12.5527 108.196 14.2476 106.088 16.355L98.5854 23.8579V24.0293H105.993C107.072 24.0293 107.872 23.8579 108.393 23.5151C108.926 23.1724 109.421 22.5312 109.878 21.5918L110.506 21.8584L108.564 27H94.7007V26.3335ZM121.437 26.2383C123.862 26.2383 125.963 23.8262 127.74 19.002C129.276 14.876 130.044 10.9277 130.044 7.15723C130.044 5.84961 129.905 4.7959 129.625 3.99609C129.118 2.47266 128.159 1.71094 126.75 1.71094C124.147 1.71094 121.945 4.5166 120.142 10.1279C118.771 14.4189 118.085 17.9927 118.085 20.8491C118.085 22.0552 118.225 23.0645 118.504 23.877C119.038 25.4512 120.015 26.2383 121.437 26.2383ZM126.807 0.606445C129.245 0.606445 131.003 1.81885 132.082 4.24365C132.78 5.83057 133.129 7.67773 133.129 9.78516C133.129 14.4316 131.904 18.5195 129.454 22.0488C127.042 25.502 124.319 27.2285 121.285 27.2285C119.52 27.2285 118.028 26.4795 116.81 24.9814C115.591 23.4707 114.981 21.3887 114.981 18.7354C114.981 14.3047 116.181 10.1978 118.581 6.41455C121.043 2.54248 123.786 0.606445 126.807 0.606445ZM135.148 26.3525L136.443 26.3335C137.293 26.2319 137.973 26.0479 138.48 25.7812C138.988 25.502 139.337 25.0259 139.528 24.353L144.898 5.15771C144.987 4.84033 145.05 4.57373 145.088 4.35791C145.139 4.12939 145.165 3.92627 145.165 3.74854C145.165 3.3042 145.019 3.00586 144.727 2.85352C144.435 2.70117 143.971 2.625 143.336 2.625L141.47 2.72021V2.12988L141.965 2.05371C142.321 1.99023 143.26 1.80615 144.784 1.50146C146.32 1.19678 147.412 0.974609 148.059 0.834961L148.649 0.70166L149.011 0.644531L149.24 0.777832C149.24 0.854004 149.233 0.930176 149.221 1.00635C149.221 1.08252 149.208 1.15869 149.183 1.23486L142.784 24.5625C142.759 24.6641 142.733 24.7656 142.708 24.8672C142.695 24.9688 142.689 25.0703 142.689 25.1719C142.689 25.6924 142.917 26.0225 143.375 26.1621C143.832 26.3018 144.714 26.3906 146.021 26.4287V27H135.148V26.3525ZM157.333 27.3428C156.533 27.3428 155.791 27.2349 155.105 27.019C153.912 26.6255 153.315 25.9653 153.315 25.0386C153.315 24.5308 153.48 24.1372 153.81 23.8579C154.153 23.5786 154.521 23.439 154.915 23.439C155.422 23.439 156.171 23.8135 157.162 24.5625C158.152 25.2988 159.002 25.667 159.713 25.667C161.389 25.667 162.919 24.8989 164.303 23.3628C165.699 21.814 166.397 19.8843 166.397 17.5737C166.397 15.0093 165.433 13.124 163.503 11.918C162.386 11.2197 160.5 10.623 157.847 10.1279V9.5376L161.922 1.00635H171.901L170.987 3.80566H162.056L160.513 7.2334C163.306 7.67773 165.452 8.64258 166.95 10.1279C168.46 11.6006 169.216 13.6382 169.216 16.2407C169.216 19.0718 168.073 21.6362 165.788 23.9341C163.503 26.2065 160.685 27.3428 157.333 27.3428Z" fill="#222222"/>
</svg>
