<svg width="334" height="209" viewBox="0 0 334 209" fill="none" xmlns="http://www.w3.org/2000/svg">
<path d="M178.257 133.505C154.726 154.265 130.544 169.788 110.473 178.105C100.436 182.264 91.4353 184.618 84.0614 184.929C76.6861 185.24 70.9611 183.507 67.4425 179.518C63.9238 175.53 62.9177 169.633 64.1458 162.354C65.3736 155.077 68.8318 146.439 74.2096 137C84.9646 118.123 103.381 96.0645 126.913 75.305C150.444 54.5455 174.627 39.0227 194.698 30.7054C204.734 26.5464 213.735 24.1922 221.109 23.8813C228.484 23.5704 234.209 25.3039 237.728 29.2924C241.246 33.2809 242.253 39.1773 241.024 46.4564C239.797 53.7339 236.338 62.3712 230.961 71.8105C220.206 90.6879 201.789 112.746 178.257 133.505Z" stroke="#666666" stroke-width="0.272336"/>
<path d="M46.8402 46.3804H51.7422V46.9251C50.435 47.4334 49.2549 49.013 48.2018 51.6637L36.0557 82.7101H34.6395L26.3605 61.958L18.2993 82.7101H16.8832L5.11827 53.0799C3.70212 49.594 2.32229 47.5969 0.978762 47.0885V46.4349H9.31225V47.0885C8.62233 47.27 8.25922 47.7421 8.2229 48.5046C8.2229 49.2309 8.47708 50.2294 8.98544 51.5003C9.02176 51.6093 9.89323 53.8787 11.5999 58.3087C13.3428 62.7024 15.0676 67.078 16.7743 71.4353L19.2798 77.9714C21.9305 71.1085 24.1455 65.3895 25.9248 60.8142L22.8746 53.0799C21.4584 49.594 20.0786 47.5969 18.7351 47.0885V46.4349H27.0686V47.0885C26.3786 47.27 26.0155 47.7421 25.9792 48.5046C25.9792 49.2309 26.2334 50.2294 26.7418 51.5003C26.7781 51.6093 27.6495 53.8787 29.3562 58.3087C31.0991 62.7024 32.8239 67.078 34.5306 71.4353L37.0361 77.9714C43.7537 60.3603 47.1125 51.5366 47.1125 51.5003C47.6209 50.1931 47.8569 49.1582 47.8206 48.3957C47.8206 47.6332 47.4938 47.1611 46.8402 46.9796V46.3804ZM72.5274 74.8668L73.0176 75.3025C69.4228 80.2409 65.3014 82.7101 60.6536 82.7101C59.2011 82.7101 57.7486 82.4377 56.2962 81.893C54.88 81.3484 53.5547 80.5677 52.3201 79.551C51.1218 78.5342 50.1414 77.1907 49.3788 75.5204C48.6526 73.8137 48.2895 71.9255 48.2895 69.8558C48.2895 65.7163 49.633 62.3212 52.3201 59.6704C55.0434 57.0197 58.2752 55.6943 62.0152 55.6943C65.2107 55.6943 67.7525 56.5839 69.6407 58.3632C71.5289 60.1425 72.5093 62.3212 72.5819 64.8993H52.1567C52.0477 65.6981 51.9933 66.5151 51.9933 67.3503C51.9933 70.9451 53.01 73.8501 55.0434 76.0651C57.1132 78.2801 59.8366 79.3876 63.2135 79.3876C66.7357 79.3876 69.8404 77.8806 72.5274 74.8668ZM60.3268 56.6203C58.1844 56.5839 56.4233 57.2739 55.0434 58.69C53.6636 60.1062 52.7558 61.958 52.3201 64.2457H68.3879C68.0974 62.2848 67.2259 60.5237 65.7735 58.9623C64.3573 57.401 62.5418 56.6203 60.3268 56.6203ZM80.3303 75.5204C80.3303 77.6264 80.4755 79.0971 80.766 79.9322C81.0928 80.7311 81.6556 81.2576 82.4545 81.5118V82.1654H74.1755V81.5118C75.0106 81.2576 75.5553 80.7311 75.8095 79.9322C76.1 79.1334 76.2452 77.6628 76.2452 75.5204V54.0058C76.2452 52.2629 76.0818 51.1009 75.755 50.5199C75.4645 49.9026 74.938 49.5214 74.1755 49.3761V48.6136L79.6767 46.1081H80.3303V75.5204ZM108.565 74.8668L109.055 75.3025C105.461 80.2409 101.339 82.7101 96.6913 82.7101C95.1662 82.7101 93.6774 82.4377 92.225 81.893C90.7725 81.3121 89.4472 80.5132 88.2489 79.4965C87.0506 78.4435 86.0883 77.0818 85.3621 75.4114C84.6722 73.7411 84.3272 71.8892 84.3272 69.8558C84.3272 67.4955 84.8719 65.2261 85.9612 63.0474C87.0506 60.8687 88.5575 59.1076 90.482 57.7641C92.4065 56.4205 94.4763 55.7488 96.6913 55.7488C99.0515 55.7488 101.139 56.2753 102.955 57.3283C104.807 58.3814 106.042 59.5252 106.659 60.7598C106.949 61.3407 106.859 61.8491 106.386 62.2848C105.914 62.6843 105.37 62.7206 104.752 62.3938C104.462 62.2122 104.153 61.8854 103.827 61.4134C103.536 60.9413 103.227 60.4511 102.901 59.9428C102.574 59.3981 102.156 58.8716 101.648 58.3632C101.176 57.8185 100.522 57.3828 99.687 57.056C98.8881 56.6929 97.944 56.5113 96.8547 56.5113C94.4218 56.5113 92.3339 57.6007 90.591 59.7794C88.8843 61.9217 88.031 64.4454 88.031 67.3503C88.031 70.9451 89.0477 73.8501 91.0812 76.0651C93.1509 78.2801 95.8743 79.3876 99.2513 79.3876C102.773 79.3876 105.878 77.8806 108.565 74.8668ZM124.102 55.6943C125.809 55.6943 127.443 55.9666 129.004 56.5113C130.566 57.0197 132.018 57.7822 133.362 58.7989C134.705 59.8157 135.776 61.2137 136.575 62.9929C137.374 64.7359 137.774 66.7148 137.774 68.9298C137.774 71.0722 137.356 73.0512 136.521 74.8668C135.686 76.646 134.596 78.0985 133.253 79.2242C131.909 80.3135 130.439 81.1668 128.841 81.7841C127.28 82.4014 125.7 82.7101 124.102 82.7101C122.396 82.7101 120.744 82.4377 119.146 81.893C117.584 81.3484 116.132 80.5677 114.788 79.551C113.481 78.4979 112.428 77.0999 111.629 75.357C110.831 73.614 110.431 71.6532 110.431 69.4745C110.431 65.5166 111.793 62.2304 114.516 59.616C117.239 57.0015 120.435 55.6943 124.102 55.6943ZM125.682 81.5662C128.333 81.5662 130.348 80.6585 131.728 78.8429C133.108 77.0273 133.798 74.7578 133.798 72.0345C133.798 69.7105 133.307 67.3685 132.327 65.0082C131.383 62.6116 129.985 60.5964 128.133 58.9623C126.317 57.3283 124.338 56.5658 122.196 56.6747C119.654 56.7837 117.73 57.7641 116.422 59.616C115.115 61.4315 114.462 63.7192 114.462 66.4788C114.462 68.7664 114.897 71.0541 115.769 73.3417C116.64 75.6293 117.966 77.572 119.745 79.1697C121.524 80.7674 123.503 81.5662 125.682 81.5662ZM177.034 75.5204C177.034 77.6628 177.179 79.1334 177.47 79.9322C177.76 80.7311 178.305 81.2576 179.104 81.5118V82.1654H170.825V81.5118C171.66 81.2576 172.223 80.7311 172.513 79.9322C172.804 79.1334 172.949 77.6628 172.949 75.5204V64.8993C172.949 62.2848 172.459 60.3785 171.478 59.1802C170.498 57.9819 169.045 57.3828 167.121 57.3828C166.249 57.3828 165.36 57.6551 164.452 58.1998C163.544 58.7445 162.872 59.271 162.437 59.7794C162.001 60.2514 161.601 60.7416 161.238 61.25C161.529 62.3756 161.674 63.5557 161.674 64.7903V75.5204C161.674 77.6628 161.819 79.1334 162.11 79.9322C162.4 80.7311 162.945 81.2576 163.744 81.5118V82.1654H155.519V81.5118C156.318 81.2576 156.863 80.7311 157.153 79.9322C157.444 79.1334 157.589 77.6628 157.589 75.5204V64.8993C157.589 62.2848 157.099 60.3785 156.118 59.1802C155.138 57.9819 153.686 57.3828 151.761 57.3828C151.107 57.3828 150.454 57.528 149.8 57.8185C149.183 58.0727 148.638 58.3814 148.166 58.7445C147.73 59.1076 147.331 59.4889 146.968 59.8883C146.641 60.2514 146.387 60.5601 146.205 60.8142L145.933 61.1955V75.5204C145.933 77.6264 146.078 79.0971 146.369 79.9322C146.696 80.7311 147.258 81.2576 148.057 81.5118V82.1654H139.778V81.5118C140.613 81.2576 141.158 80.7311 141.412 79.9322C141.703 79.1334 141.848 77.6628 141.848 75.5204V63.5376C141.848 61.7946 141.685 60.6145 141.358 59.9972C141.067 59.3799 140.541 59.0168 139.778 58.9079V58.1453L145.279 56.0211H145.933V59.9972C146.006 59.8883 146.115 59.743 146.26 59.5615C146.441 59.3436 146.786 58.9987 147.295 58.5266C147.839 58.0182 148.402 57.5825 148.983 57.2194C149.564 56.82 150.309 56.475 151.216 56.1845C152.16 55.8577 153.105 55.6943 154.049 55.6943C157.498 55.6943 159.786 57.2194 160.912 60.2696C161.456 59.6523 162.037 59.0531 162.655 58.4721C163.308 57.8912 164.27 57.292 165.541 56.6747C166.848 56.0211 168.138 55.6943 169.408 55.6943C171.769 55.6943 173.621 56.4569 174.964 57.9819C176.344 59.507 177.034 61.7765 177.034 64.7903V75.5204ZM205.121 74.8668L205.611 75.3025C202.016 80.2409 197.895 82.7101 193.247 82.7101C191.795 82.7101 190.342 82.4377 188.89 81.893C187.474 81.3484 186.148 80.5677 184.914 79.551C183.715 78.5342 182.735 77.1907 181.973 75.5204C181.246 73.8137 180.883 71.9255 180.883 69.8558C180.883 65.7163 182.227 62.3212 184.914 59.6704C187.637 57.0197 190.869 55.6943 194.609 55.6943C197.804 55.6943 200.346 56.5839 202.234 58.3632C204.123 60.1425 205.103 62.3212 205.176 64.8993H184.75C184.641 65.6981 184.587 66.5151 184.587 67.3503C184.587 70.9451 185.604 73.8501 187.637 76.0651C189.707 78.2801 192.43 79.3876 195.807 79.3876C199.329 79.3876 202.434 77.8806 205.121 74.8668ZM192.92 56.6203C190.778 56.5839 189.017 57.2739 187.637 58.69C186.257 60.1062 185.349 61.958 184.914 64.2457H200.982C200.691 62.2848 199.82 60.5237 198.367 58.9623C196.951 57.401 195.135 56.6203 192.92 56.6203ZM246.021 78.8429C246.094 78.9881 246.203 79.2423 246.348 79.6054C244.169 81.6752 242.045 82.7101 239.975 82.7101C236.453 82.7101 234.692 80.2046 234.692 75.1936V56.7837H231.37V56.0211C232.241 56.0211 233.076 55.8032 233.875 55.3675C234.674 54.9318 235.309 54.4053 235.781 53.788C236.29 53.1344 236.707 52.4989 237.034 51.8816C237.397 51.2643 237.67 50.7196 237.851 50.2476L238.069 49.594H238.777V56.0211H243.243V56.7837H238.777V75.1936C238.777 78.4979 240.012 80.1501 242.481 80.1501C243.679 80.1501 244.859 79.7144 246.021 78.8429ZM259.781 55.6943C261.488 55.6943 263.122 55.9666 264.683 56.5113C266.244 57.0197 267.697 57.7822 269.04 58.7989C270.384 59.8157 271.455 61.2137 272.254 62.9929C273.053 64.7359 273.452 66.7148 273.452 68.9298C273.452 71.0722 273.035 73.0512 272.2 74.8668C271.364 76.646 270.275 78.0985 268.932 79.2242C267.588 80.3135 266.117 81.1668 264.52 81.7841C262.958 82.4014 261.379 82.7101 259.781 82.7101C258.074 82.7101 256.422 82.4377 254.825 81.893C253.263 81.3484 251.811 80.5677 250.467 79.551C249.16 78.4979 248.107 77.0999 247.308 75.357C246.509 73.614 246.11 71.6532 246.11 69.4745C246.11 65.5166 247.471 62.2304 250.195 59.616C252.918 57.0015 256.114 55.6943 259.781 55.6943ZM261.361 81.5662C264.011 81.5662 266.027 80.6585 267.406 78.8429C268.786 77.0273 269.476 74.7578 269.476 72.0345C269.476 69.7105 268.986 67.3685 268.006 65.0082C267.062 62.6116 265.664 60.5964 263.812 58.9623C261.996 57.3283 260.017 56.5658 257.875 56.6747C255.333 56.7837 253.408 57.7641 252.101 59.616C250.794 61.4315 250.14 63.7192 250.14 66.4788C250.14 68.7664 250.576 71.0541 251.448 73.3417C252.319 75.6293 253.644 77.572 255.424 79.1697C257.203 80.7674 259.182 81.5662 261.361 81.5662Z" fill="black"/>
<line x1="280.689" y1="68.3549" x2="326.442" y2="68.3549" stroke="black" stroke-width="1.63402"/>
<path d="M275.673 104.446L275.925 104.479C275.92 104.63 275.918 104.718 275.918 104.744C275.918 105.417 276.104 105.958 276.475 106.367C276.85 106.773 277.307 106.975 277.846 106.975C278.389 106.975 278.809 106.792 279.107 106.425C279.404 106.059 279.553 105.658 279.553 105.223C279.553 105.059 279.525 104.886 279.469 104.705C279.383 104.425 279.24 104.175 279.042 103.955L278.214 103.05C277.576 102.351 277.167 101.851 276.985 101.549C276.804 101.247 276.714 100.92 276.714 100.566C276.714 100.023 276.916 99.5228 277.322 99.0658C277.727 98.6044 278.322 98.3738 279.107 98.3738C279.456 98.3738 279.816 98.4341 280.187 98.5549C280.557 98.6713 280.78 98.7295 280.853 98.7295C280.995 98.7295 281.112 98.6907 281.202 98.6131C281.293 98.5312 281.366 98.4471 281.422 98.3608H281.726L281.189 100.999L280.963 100.967C280.941 100.338 280.861 99.8785 280.723 99.5896C280.473 99.0766 280.001 98.82 279.307 98.82C278.88 98.82 278.533 98.9429 278.266 99.1887C277.999 99.4301 277.865 99.7341 277.865 100.101C277.865 100.398 277.925 100.648 278.046 100.851C278.167 101.053 278.397 101.338 278.738 101.704L279.934 102.991C280.15 103.224 280.331 103.489 280.478 103.787C280.624 104.08 280.698 104.423 280.698 104.815C280.698 105.505 280.456 106.117 279.973 106.652C279.495 107.182 278.854 107.447 278.053 107.447C277.634 107.447 277.21 107.365 276.778 107.202C276.352 107.042 276.086 106.962 275.983 106.962C275.828 106.962 275.716 106.999 275.647 107.072C275.578 107.145 275.515 107.255 275.459 107.402H275.226L275.673 104.446ZM284.468 99.8806C284.291 99.8806 284.14 99.8117 284.015 99.6737C283.89 99.5357 283.828 99.3697 283.828 99.1757C283.828 98.9774 283.89 98.8092 284.015 98.6713C284.14 98.5333 284.291 98.4643 284.468 98.4643C284.645 98.4643 284.796 98.5333 284.921 98.6713C285.05 98.8092 285.115 98.9774 285.115 99.1757C285.115 99.374 285.05 99.5422 284.921 99.6802C284.796 99.8138 284.645 99.8806 284.468 99.8806ZM284.623 101.297C284.649 101.31 284.66 101.327 284.656 101.349L283.349 105.966C283.289 106.212 283.259 106.359 283.259 106.406C283.259 106.471 283.272 106.527 283.297 106.574C283.319 106.626 283.373 106.652 283.459 106.652C283.606 106.652 283.8 106.525 284.041 106.27C284.183 106.119 284.358 105.904 284.565 105.624L284.733 105.766L284.668 105.856C284.345 106.309 284.078 106.635 283.867 106.833C283.535 107.143 283.211 107.299 282.896 107.299C282.711 107.299 282.556 107.221 282.431 107.066C282.31 106.91 282.25 106.727 282.25 106.516C282.25 106.391 282.258 106.283 282.276 106.193C282.293 106.098 282.325 105.96 282.373 105.779L283.278 102.455C283.291 102.403 283.302 102.355 283.31 102.312C283.319 102.269 283.323 102.226 283.323 102.183C283.323 102.028 283.265 101.933 283.149 101.898C283.037 101.86 282.812 101.84 282.476 101.84V101.627C282.834 101.584 283.09 101.551 283.246 101.53C283.405 101.504 283.565 101.478 283.724 101.452C283.931 101.418 284.127 101.379 284.313 101.336C284.498 101.293 284.602 101.28 284.623 101.297ZM285.548 107.156L286.667 103.16C286.762 102.823 286.816 102.621 286.829 102.552C286.846 102.478 286.854 102.401 286.854 102.319C286.854 102.194 286.818 102.097 286.744 102.028C286.675 101.954 286.537 101.918 286.331 101.918C286.279 101.918 286.227 101.922 286.175 101.931C286.128 101.935 286.074 101.942 286.014 101.95V101.73C286.294 101.687 286.492 101.655 286.609 101.633C286.729 101.612 286.859 101.586 286.997 101.556L288.154 101.303C288.18 101.321 288.197 101.34 288.206 101.362L287.346 104.143C287.872 103.336 288.312 102.737 288.665 102.345C289.286 101.651 289.842 101.303 290.334 101.303C290.523 101.303 290.687 101.34 290.825 101.413C291.088 101.556 291.22 101.812 291.22 102.183C291.22 102.286 291.209 102.394 291.187 102.506C291.166 102.618 291.138 102.739 291.103 102.868L290.256 105.966C290.239 106.031 290.219 106.111 290.198 106.206C290.176 106.296 290.166 106.361 290.166 106.4C290.166 106.464 290.181 106.522 290.211 106.574C290.241 106.626 290.291 106.652 290.36 106.652C290.472 106.652 290.601 106.587 290.748 106.458C290.894 106.324 291.134 106.042 291.466 105.611L291.653 105.779C291.3 106.257 291.019 106.594 290.812 106.788C290.459 107.128 290.12 107.299 289.797 107.299C289.65 107.299 289.508 107.251 289.37 107.156C289.236 107.057 289.17 106.88 289.17 106.626C289.17 106.553 289.174 106.475 289.183 106.393C289.196 106.311 289.211 106.24 289.228 106.18L290.043 103.037C290.086 102.864 290.114 102.724 290.127 102.616C290.144 102.504 290.153 102.424 290.153 102.377C290.153 102.274 290.127 102.185 290.075 102.112C290.028 102.034 289.941 101.995 289.816 101.995C289.493 101.995 289.086 102.289 288.594 102.875C288.305 103.224 288.012 103.64 287.715 104.123C287.486 104.498 287.305 104.865 287.171 105.223C287.042 105.576 286.835 106.221 286.55 107.156H285.548ZM296.07 101.316C296.596 101.316 296.976 101.435 297.208 101.672C297.441 101.909 297.558 102.14 297.558 102.364C297.558 102.567 297.497 102.724 297.377 102.836C297.256 102.948 297.114 103.004 296.95 103.004C296.79 103.004 296.657 102.955 296.549 102.856C296.441 102.756 296.387 102.634 296.387 102.487C296.387 102.375 296.422 102.254 296.491 102.125C296.564 101.995 296.6 101.911 296.6 101.873C296.6 101.795 296.555 101.73 296.465 101.679C296.378 101.622 296.238 101.594 296.044 101.594C295.35 101.594 294.747 101.989 294.233 102.778C293.725 103.567 293.47 104.395 293.47 105.261C293.47 105.749 293.574 106.13 293.781 106.406C293.988 106.682 294.298 106.82 294.712 106.82C295.044 106.82 295.365 106.725 295.676 106.535C295.99 106.341 296.279 106.096 296.542 105.798L296.588 105.746L296.775 105.889C296.473 106.272 296.182 106.568 295.902 106.775C295.406 107.133 294.856 107.311 294.253 107.311C293.675 107.311 293.207 107.128 292.849 106.762C292.492 106.391 292.313 105.887 292.313 105.248C292.313 104.27 292.712 103.369 293.509 102.545C294.298 101.726 295.152 101.316 296.07 101.316ZM298.23 105.442C298.23 104.485 298.661 103.558 299.524 102.662C300.377 101.765 301.259 101.316 302.169 101.316C302.505 101.316 302.772 101.394 302.971 101.549C303.169 101.704 303.268 101.935 303.268 102.241C303.268 102.862 302.904 103.394 302.175 103.839C301.451 104.278 300.688 104.548 299.886 104.647L299.517 104.692C299.461 104.869 299.422 105.011 299.401 105.119C299.379 105.223 299.368 105.354 299.368 105.514C299.368 105.893 299.491 106.188 299.737 106.4C299.987 106.611 300.282 106.716 300.623 106.716C300.946 106.716 301.289 106.609 301.651 106.393C301.858 106.268 302.158 106.044 302.55 105.721L302.718 105.869C302.524 106.115 302.246 106.367 301.884 106.626C301.242 107.087 300.597 107.318 299.95 107.318C299.493 107.318 299.092 107.156 298.748 106.833C298.403 106.51 298.23 106.046 298.23 105.442ZM299.608 104.401C300.431 104.28 301.102 103.992 301.619 103.535C302.136 103.073 302.395 102.616 302.395 102.164C302.395 102 302.356 101.87 302.279 101.776C302.201 101.676 302.087 101.627 301.936 101.627C301.656 101.627 301.38 101.748 301.108 101.989C300.841 102.226 300.599 102.496 300.384 102.797C300.155 103.151 299.974 103.489 299.841 103.813C299.767 103.985 299.69 104.181 299.608 104.401ZM307.161 106.93L309.955 103.968C310.434 103.463 310.815 103.011 311.1 102.61C311.604 101.903 311.857 101.303 311.857 100.812C311.857 100.355 311.708 99.9669 311.41 99.6478C311.117 99.3288 310.714 99.1693 310.201 99.1693C309.718 99.1693 309.296 99.3309 308.933 99.6543C308.739 99.8311 308.543 100.085 308.345 100.417L308.067 100.32C308.399 99.4236 308.92 98.8028 309.632 98.4579C310.003 98.2811 310.397 98.1927 310.815 98.1927C311.492 98.1927 312.025 98.4234 312.413 98.8847C312.805 99.346 313.001 99.8591 313.001 100.424C313.001 100.915 312.85 101.379 312.549 101.814C312.251 102.25 311.745 102.825 311.029 103.541L308.481 106.089V106.147H310.996C311.363 106.147 311.635 106.089 311.811 105.973C311.992 105.856 312.161 105.639 312.316 105.32L312.529 105.41L311.87 107.156H307.161V106.93ZM316.241 106.898C317.065 106.898 317.778 106.078 318.382 104.44C318.904 103.039 319.165 101.698 319.165 100.417C319.165 99.9733 319.117 99.6155 319.022 99.3439C318.85 98.8265 318.524 98.5678 318.046 98.5678C317.162 98.5678 316.414 99.5206 315.802 101.426C315.336 102.884 315.103 104.097 315.103 105.067C315.103 105.477 315.151 105.82 315.245 106.096C315.427 106.63 315.758 106.898 316.241 106.898ZM318.065 98.1927C318.893 98.1927 319.49 98.6044 319.857 99.4279C320.094 99.9669 320.212 100.594 320.212 101.31C320.212 102.888 319.796 104.276 318.964 105.475C318.145 106.647 317.22 107.234 316.19 107.234C315.59 107.234 315.084 106.979 314.67 106.471C314.256 105.958 314.049 105.251 314.049 104.349C314.049 102.845 314.456 101.45 315.271 100.165C316.108 98.8502 317.039 98.1927 318.065 98.1927ZM320.898 106.936L321.338 106.93C321.626 106.895 321.857 106.833 322.03 106.742C322.202 106.647 322.321 106.486 322.385 106.257L324.209 99.7384C324.239 99.6306 324.261 99.54 324.274 99.4667C324.291 99.3891 324.3 99.3202 324.3 99.2598C324.3 99.1089 324.25 99.0076 324.151 98.9558C324.052 98.9041 323.894 98.8782 323.679 98.8782L323.045 98.9106V98.7101L323.213 98.6842C323.334 98.6627 323.653 98.6001 324.17 98.4967C324.692 98.3932 325.063 98.3177 325.283 98.2703L325.483 98.225L325.606 98.2056L325.683 98.2509C325.683 98.2768 325.681 98.3026 325.677 98.3285C325.677 98.3544 325.673 98.3803 325.664 98.4061L323.491 106.328C323.482 106.363 323.474 106.397 323.465 106.432C323.461 106.466 323.459 106.501 323.459 106.535C323.459 106.712 323.536 106.824 323.692 106.872C323.847 106.919 324.146 106.949 324.591 106.962V107.156H320.898V106.936ZM328.432 107.273C328.16 107.273 327.908 107.236 327.675 107.163C327.27 107.029 327.067 106.805 327.067 106.49C327.067 106.318 327.124 106.184 327.236 106.089C327.352 105.994 327.477 105.947 327.611 105.947C327.783 105.947 328.038 106.074 328.374 106.328C328.71 106.579 328.999 106.704 329.24 106.704C329.81 106.704 330.329 106.443 330.799 105.921C331.273 105.395 331.51 104.74 331.51 103.955C331.51 103.084 331.183 102.444 330.527 102.034C330.148 101.797 329.508 101.594 328.607 101.426V101.226L329.991 98.3285H333.379L333.069 99.2792H330.036L329.512 100.443C330.461 100.594 331.189 100.922 331.698 101.426C332.211 101.926 332.468 102.618 332.468 103.502C332.468 104.464 332.08 105.335 331.303 106.115C330.527 106.887 329.57 107.273 328.432 107.273Z" fill="#222222"/>
<path d="M138.53 65.2266L119.194 82.5199L125.594 89.6006L137.985 78.8434L138.53 65.2266Z" fill="white"/>
<path d="M238.613 55.5547L234.528 65.0865" stroke="white" stroke-width="0.272336"/>
<g clip-path="url(#clip0_651_8102)">
<path d="M277.132 114.763C270.3 113.118 264.01 120.411 261.696 123.496C261.696 123.496 248.999 140.435 244.234 138.07C241.35 136.247 247.029 129.097 256.505 115.627H252.337C252.337 115.627 248.738 120.295 245.662 125.498C235.417 138.248 231.084 138.852 229.738 138.07C227.795 136.946 229.683 132.949 231.654 129.652C233.453 126.643 257.342 90.962 257.342 90.962H251.979C251.979 90.962 239.345 110.561 231.991 122.427L232.011 122.393C232.011 122.393 230.274 124.895 226.332 124.696C222.391 124.497 221.114 118.807 221.114 118.807V118.842C220.612 116.559 218.964 115.256 216.904 114.763C215.099 114.331 213.327 114.53 211.658 115.099H195.034C198.941 108.648 202.093 103.383 203.123 101.937C205.746 98.2352 210.772 91.908 215.737 92.3056C219.129 92.7512 218.305 96.5832 217.337 98.3449C217.337 98.3449 221.244 98.4203 220.537 93.6698C220.077 90.4684 212.599 88.6518 204.613 96.6929C200.17 101.162 195.322 108.655 191.374 115.099H177.023C179.721 111.137 182.324 107.305 182.324 107.305H177.874C177.874 107.305 175.306 111.219 172.772 115.099H168.783V116.154H172.086C170.238 118.992 168.542 121.618 168.055 122.427C166.846 124.429 163.489 124.744 162.458 124.442C161.428 124.141 158.091 121.995 163.852 114.955H159.856C159.856 114.955 159.671 115.256 159.417 115.75V115.736C159.417 115.736 151.65 121.412 145.827 128.576C150.291 120.932 154.493 114.962 154.493 114.962H150.552L147.681 119.472L147.448 119.842L135.26 138.968H140.286C141.591 136.24 143.046 133.498 144.516 130.893C144.585 130.817 152.33 121.741 158.915 116.84C157.638 119.733 156.217 125.052 162.603 125.553C164.731 125.621 166.853 124.449 166.853 124.449C166.853 124.449 158.345 136.672 165.5 139.112C170.451 140.915 179.811 133.032 182.55 129.769C182.55 129.769 171.783 148.901 160.364 155.564C154.885 158.985 145.01 157.676 145.518 149.751C145.745 146.159 149.041 143.808 150.634 143.732C150.634 143.732 142.415 143.088 142.264 149.504C142.113 155.928 147.578 158.128 154.493 158.128C161.408 158.128 168.769 154.097 176.418 144.13C180.909 138.276 188.428 126.033 194.409 116.175H209.351C204.242 119.075 200.548 124.84 200.548 124.84L199.841 126.053C199.841 126.053 193.963 136.528 200.981 138.968C205.465 140.236 214.419 136.706 220.008 125.69C220.784 123.873 221.169 122.31 221.258 120.974L221.292 121.474C222.35 123.681 223.661 125.107 226.291 125.477C228.914 125.848 230.789 124.408 230.789 124.408L230.83 124.339C228.736 127.746 227.253 130.255 226.923 131.037C225.474 134.457 224.87 138.344 228.296 139.208C231.723 140.079 236.598 137.542 244.234 128.075L244.296 127.966C241.57 133.066 239.928 138.063 243.108 139.201C245.848 140.38 251.08 137.727 259.65 126.862C258.441 129.371 255.385 136.932 261.208 138.954C265.692 140.223 274.646 136.692 280.236 125.676C283.113 118.951 280.744 115.627 277.139 114.763H277.132ZM184.281 126.444C184.281 126.444 173.713 139.181 166.441 138.461C162.101 138.159 169.483 125.964 171.426 123.229C172.23 122.098 174.221 119.191 176.288 116.161H190.715C187.851 120.857 185.531 124.847 184.281 126.451V126.444ZM214.254 129.933C211.768 132.826 206.549 139.29 201.935 137.871C196.888 136.322 203.288 125.71 203.288 125.71C203.288 125.71 210.649 113.858 216.472 115.853C221.079 117.429 216.513 127.287 214.247 129.926L214.254 129.933ZM274.488 129.933C272.003 132.826 266.784 139.29 262.17 137.871C257.123 136.322 263.522 125.71 263.522 125.71C263.522 125.71 270.883 113.858 276.706 115.853C281.314 117.429 276.748 127.287 274.482 129.926L274.488 129.933Z" fill="black"/>
<path d="M140.087 124.686C135.328 125.028 134.635 119.531 134.628 119.503C134.319 116.816 132.547 115.315 130.302 114.773C121.691 112.703 114.035 124.452 114.035 124.452C114.035 124.452 112.483 126.386 107.697 129.066C104.462 130.876 99.9579 131.493 99.9579 131.493L99.7451 131.733C105.3 125.433 108.212 116.987 103.391 114.91C97.8293 112.511 91.0587 120.902 87.6666 125.844C93.0706 117.405 98.667 108.926 103.391 102.297H98.9005L60.914 160.956H65.8648C65.8648 160.956 75.0593 145.648 85.5104 129.217C85.5585 129.148 96.3598 114.156 101.599 116.274C103.384 117.145 103.275 124.782 97.1495 132.007C97.1495 132.007 90.9008 132.308 87.7902 133.604C83.4916 135.386 83.0728 139.376 87.7902 138.924C91.9033 138.629 96.1881 135.695 99.5459 131.959L99.3811 132.144C99.3811 132.144 103.741 131.726 108.026 129.464C112.311 127.201 113.314 126.118 113.314 126.118C113.314 126.118 107.353 136.517 114.371 138.958C118.855 140.226 127.809 136.696 133.399 125.68C134.12 123.986 134.511 122.513 134.635 121.237C134.889 122.615 136.496 125.255 139.888 125.282C143.287 125.309 145.724 122.499 145.724 122.499L147.427 119.832C146.672 120.97 144.063 124.398 140.087 124.679V124.686ZM87.337 138.368C83.6839 138.512 85.8332 134.68 89.3352 133.81C92.9676 132.905 96.7375 132.644 96.7375 132.644C96.7375 132.644 92.7342 138.204 87.337 138.368ZM127.658 129.937C125.172 132.829 119.954 139.294 115.339 137.875C110.292 136.325 116.692 125.714 116.692 125.714C116.692 125.714 124.053 113.861 129.876 115.856C134.484 117.433 129.917 127.29 127.651 129.93L127.658 129.937Z" fill="black"/>
<path d="M260.769 107.518C262.157 107.518 263.282 106.395 263.282 105.009C263.282 103.623 262.157 102.5 260.769 102.5C259.381 102.5 258.256 103.623 258.256 105.009C258.256 106.395 259.381 107.518 260.769 107.518Z" fill="black"/>
</g>
<defs>
<clipPath id="clip0_651_8102">
<rect width="220.592" height="69.9904" fill="white" transform="translate(60.914 90.9609)"/>
</clipPath>
</defs>
</svg>
