<svg width="769" height="426" viewBox="0 0 769 426" fill="none" xmlns="http://www.w3.org/2000/svg">
<circle cx="208.5" cy="31.5" r="12.5" fill="#D2FF52"/>
<path d="M749.515 390.402C746.946 395.145 740.926 397.77 732.158 398.408C723.399 399.045 711.944 397.693 698.581 394.533C671.857 388.214 637.536 374.671 601.954 355.399C566.373 336.127 536.277 314.781 516.383 295.851C506.436 286.386 499.045 277.53 494.793 269.846C490.536 262.154 489.446 255.677 492.015 250.934C494.584 246.191 500.605 243.566 509.372 242.928C518.131 242.291 529.586 243.643 542.949 246.803C569.673 253.122 603.995 266.665 639.576 285.937C675.158 305.209 705.253 326.555 725.147 345.485C735.095 354.95 742.485 363.806 746.738 371.49C750.994 379.181 752.084 385.658 749.515 390.402Z" stroke="black" stroke-width="0.3"/>
<path d="M589.785 139.309H507V146.241H589.785V139.309Z" fill="black"/>
<path d="M594.391 88.8164L598.062 93.7886H614.625V88.8164H594.391Z" fill="black"/>
<path d="M614.633 93.7891H598.07V179.141H614.633V93.7891Z" fill="black"/>
<path d="M542.398 157.804V144.734H531.641V157.804H542.398Z" fill="black"/>
<path d="M550.913 87C529.456 87 512.039 97.2854 512.039 109.986C512.039 122.686 529.427 132.972 550.913 132.972C572.399 132.972 589.787 122.686 589.787 109.986C589.787 97.2854 572.399 87 550.913 87ZM550.913 126.835C538.221 126.835 527.919 119.305 527.919 109.986C527.919 100.666 538.221 93.1371 550.913 93.1371C563.606 93.1371 573.908 100.666 573.908 109.986C573.908 119.305 563.606 126.835 550.913 126.835Z" fill="black"/>
<path d="M512.059 195.734H530.5V170.447H512.059V195.734Z" fill="black"/>
<path d="M512.064 195.766H614.656V186.077H512.064V195.766Z" fill="black"/>
<ellipse cx="210.561" cy="169.744" rx="193.766" ry="85.1905" transform="rotate(150.417 210.561 169.744)" fill="white" stroke="black" stroke-width="0.3"/>
<path d="M367.364 162.211H246.875V169.921H367.364V162.211Z" fill="black"/>
<path d="M316.311 166.066H297.891V208.25H316.311V166.066Z" fill="black"/>
<path d="M255.992 89.125L259.822 94.2756H277.007V89.125H255.992Z" fill="black"/>
<path d="M277.006 94.2734H259.82V149.318H277.006V94.2734Z" fill="black"/>
<path d="M334.703 89.125L338.533 94.2756H355.687V89.125H334.703Z" fill="black"/>
<path d="M355.717 94.2734H338.531V149.318H355.717V94.2734Z" fill="black"/>
<path d="M345.209 143.602H261.781V149.352H345.209V143.602Z" fill="black"/>
<path d="M345.209 117.848H261.781V123.599H345.209V117.848Z" fill="black"/>
<path d="M203.072 89.3164H126.766V97.0264H203.072V89.3164Z" fill="black"/>
<path d="M209.781 89.3164L213.864 94.8461H232.284V89.3164H209.781Z" fill="black"/>
<path d="M232.287 94.8438H213.867V153.87H232.287V94.8438Z" fill="black"/>
<path d="M217.637 117.852H203.078V123.602H217.637V117.852Z" fill="black"/>
<path d="M180.322 144.552C186.912 144.552 192.254 139.218 192.254 132.639C192.254 126.06 186.912 120.727 180.322 120.727C173.733 120.727 168.391 126.06 168.391 132.639C168.391 139.218 173.733 144.552 180.322 144.552Z" fill="black"/>
<path d="M184.592 157.094C156.297 157.094 133.383 168.532 133.383 182.657C133.383 196.781 156.329 208.22 184.592 208.22C212.854 208.22 235.8 196.781 235.8 182.657C235.8 168.532 212.854 157.094 184.592 157.094ZM184.592 201.395C167.849 201.395 154.271 193.021 154.271 182.657C154.271 172.293 167.849 163.919 184.592 163.919C201.334 163.919 214.912 172.293 214.912 182.657C214.912 193.021 201.334 201.395 184.592 201.395Z" fill="black"/>
<path d="M170.762 93.7734H152.438V108.688H170.762V93.7734Z" fill="black"/>
<path d="M152.435 108.719C152.435 108.719 155.442 144.235 113 153.494C113 153.494 170.76 155.674 170.76 108.719" fill="black"/>
<path d="M305.002 208.997L331.002 186.997L358.031 196.367L342.519 233.383L305.002 208.997Z" fill="white"/>
<path d="M411.248 119.336C411.248 119.336 413.297 180.082 373 195.908C373 195.908 427.782 199.63 427.782 119.336" fill="black"/>
<path d="M454.16 89.8164H385.547V96.7491H454.16V89.8164Z" fill="black"/>
<path d="M427.784 93.8203H411.25V119.335H427.784V93.8203Z" fill="black"/>
<path d="M488.1 89H471.016V196.002H488.1V89Z" fill="black"/>
<path d="M442.932 182.825C449.522 182.825 454.864 177.492 454.864 170.913C454.864 164.333 449.522 159 442.932 159C436.342 159 431 164.333 431 170.913C431 177.492 436.342 182.825 442.932 182.825Z" fill="black"/>
<path d="M577.932 175.825C584.522 175.825 589.864 170.492 589.864 163.913C589.864 157.333 584.522 152 577.932 152C571.342 152 566 157.333 566 163.913C566 170.492 571.342 175.825 577.932 175.825Z" fill="black"/>
<path d="M347 170L357.5 157.5L378 159.5L379.5 164L379 171.5L347 170Z" fill="white"/>
<path d="M158.707 235.898H173.804V237.573C169.804 239.119 166.191 244.014 162.836 252.13L125.418 347.587H121.031L84.7737 256.51C80.3868 245.818 76.1289 239.634 72 238.088V236.027H97.6766V238.088C95.6122 238.604 94.4509 240.021 94.4509 242.34C94.4509 244.658 95.0962 247.75 96.7735 251.615C96.7735 252.001 99.612 258.957 104.902 272.484C110.192 286.01 115.483 299.536 120.773 312.934L128.515 333.03C149.159 278.925 159.61 251.744 159.74 251.615C161.159 247.621 161.933 244.401 161.804 242.082C161.804 239.763 160.772 238.346 158.707 237.702V235.898Z" fill="black"/>
<path d="M206.833 264.5C212.123 264.5 217.155 265.273 221.929 266.948C226.704 268.493 231.219 270.941 235.348 274.033C239.477 277.124 242.832 281.376 245.284 286.915C247.735 292.325 249.025 298.38 249.025 305.208C249.025 312.035 247.735 317.832 245.155 323.371C242.574 328.911 239.219 333.42 235.09 336.769C230.962 340.118 226.446 342.824 221.542 344.756C216.639 346.688 211.736 347.59 206.833 347.59C201.543 347.59 196.511 346.817 191.608 345.142C186.705 343.468 182.318 341.02 178.189 337.799C174.06 334.579 170.834 330.328 168.382 325.046C165.931 319.636 164.641 313.71 164.641 307.011C164.641 294.902 168.899 284.725 177.285 276.738C185.672 268.751 195.479 264.629 206.833 264.629V264.5ZM211.736 343.983C219.865 343.983 226.058 341.149 230.316 335.609C234.574 330.07 236.639 323.114 236.639 314.74C236.639 307.655 235.09 300.312 232.252 293.098C229.284 285.756 225.026 279.572 219.349 274.548C213.672 269.524 207.607 267.205 201.027 267.463C193.156 267.849 187.221 270.812 183.221 276.48C179.221 282.149 177.156 289.234 177.156 297.607C177.156 304.692 178.447 311.649 181.156 318.734C183.866 325.819 187.866 331.745 193.414 336.64C198.833 341.535 205.027 343.983 211.736 343.983Z" fill="black"/>
<path d="M331.087 332.776C331.087 336.512 331.474 339.217 332.377 341.021C333.28 342.824 334.957 343.726 337.538 343.726V345.787H331.345C327.732 345.787 324.764 344.628 322.313 342.051C319.861 339.604 318.571 336.641 318.571 333.034V331.23C308.12 342.051 297.668 347.462 287.217 347.462C270.83 347.462 262.572 337.671 262.572 318.219V288.462C262.572 283.051 262.056 279.444 261.153 277.641C260.25 275.837 258.573 274.678 256.25 274.162V271.844L273.153 265.531H275.217V315.385C275.217 324.532 276.636 331.23 279.475 335.481C282.314 339.732 286.83 341.794 293.281 341.794C301.668 341.794 310.184 337.285 318.829 328.267V288.462C318.829 283.051 318.313 279.444 317.41 277.641C316.506 275.837 314.829 274.678 312.507 274.162V271.844L329.28 265.531H331.474V332.905L331.087 332.776Z" fill="black"/>
<path d="M419.735 323.376L421.283 324.664C410.187 339.865 397.542 347.465 383.22 347.465C378.575 347.465 373.93 346.563 369.414 344.889C364.898 343.214 360.898 340.638 357.156 337.546C353.414 334.454 350.575 330.203 348.382 325.05C346.188 319.897 345.156 314.229 345.156 307.917C345.156 300.703 346.834 293.618 350.188 287.048C353.543 280.349 358.188 274.939 364.124 270.816C370.059 266.694 376.381 264.633 383.22 264.633C390.445 264.633 396.897 266.308 402.574 269.528C408.251 272.749 411.993 276.227 413.929 280.091C414.832 281.895 414.574 283.441 413.154 284.729C411.735 286.017 410.058 286.146 408.122 285.115C407.219 284.6 406.316 283.57 405.413 282.153C404.51 280.736 403.477 279.19 402.445 277.515C401.413 275.969 400.122 274.294 398.703 272.62C397.155 271.074 395.219 269.657 392.639 268.626C390.187 267.596 387.22 267.08 383.865 267.08C376.381 267.08 369.93 270.43 364.64 277C359.349 283.57 356.64 291.428 356.64 300.316C356.64 311.395 359.865 320.284 366.059 327.111C372.381 333.939 380.768 337.288 391.091 337.288C401.413 337.288 411.477 332.651 419.735 323.376Z" fill="black"/>
<path d="M495.474 325.433C495.474 332.003 495.99 336.511 496.764 338.959C497.667 341.407 499.345 343.081 501.796 343.854V345.915H476.506V343.854C478.958 343.081 480.635 341.407 481.539 338.959C482.442 336.511 482.829 332.003 482.829 325.433V292.712C482.829 284.725 481.022 278.928 477.539 275.192C474.055 271.456 469.281 269.524 463.216 269.524C459.991 269.524 456.636 270.555 453.41 272.487C450.056 274.419 447.604 276.48 445.927 278.413L443.475 281.247V325.304C443.475 331.745 443.991 336.254 444.894 338.83C445.798 341.278 447.604 342.952 450.055 343.725V345.787H424.508V343.725C427.088 342.952 428.766 341.278 429.669 338.83C430.443 336.383 430.959 331.874 430.959 325.304V257.801C430.959 252.52 430.443 249.042 429.54 247.109C428.637 245.177 426.959 244.017 424.637 243.631V241.312L441.54 235H443.604V277.64C443.604 277.64 444.12 276.867 444.636 276.223C445.152 275.579 446.185 274.548 447.862 273.002C449.539 271.456 451.217 270.168 453.023 269.009C454.83 267.849 457.281 266.819 460.378 265.788C463.475 264.887 466.7 264.371 470.055 264.371C478.055 264.371 484.377 266.69 488.893 271.457C493.409 276.094 495.603 283.179 495.603 292.326V325.304L495.474 325.433Z" fill="black"/>
<path d="M583.719 323.371L585.268 324.66C574.171 339.861 561.526 347.461 547.204 347.461C542.688 347.461 538.301 346.688 533.914 345.013C529.527 343.339 525.398 340.891 521.656 337.799C517.915 334.708 514.947 330.457 512.624 325.304C510.302 320.151 509.141 314.354 509.141 308.042C509.141 295.288 513.27 284.854 521.656 276.738C530.043 268.622 539.979 264.5 551.462 264.5C561.268 264.5 569.139 267.205 574.945 272.745C580.752 278.155 583.719 284.854 583.977 292.841H521.011C520.624 295.288 520.495 297.865 520.495 300.312C520.495 311.391 523.592 320.28 529.914 327.107C536.237 333.935 544.624 337.284 554.946 337.284C565.268 337.284 575.333 332.647 583.59 323.371H583.719ZM546.172 267.334C539.592 267.334 534.172 269.395 529.914 273.646C525.656 278.026 522.818 283.694 521.527 290.78H571.075C570.171 284.725 567.462 279.314 563.075 274.548C558.688 269.782 553.011 267.334 546.172 267.334Z" fill="black"/>
<path d="M635.217 265.531C637.54 266.046 639.088 267.205 639.604 269.009C640.249 270.684 640.121 272.358 639.088 273.775C638.185 275.192 636.895 275.965 635.217 275.965C634.185 275.965 632.895 275.708 631.088 275.192C629.411 274.677 627.863 274.291 626.701 274.162C625.411 274.033 623.605 274.162 621.024 274.806C616.379 275.965 612.766 279.959 610.444 286.529V325.433C610.444 331.874 610.96 336.383 611.863 338.959C612.766 341.535 614.573 343.081 617.024 343.854V345.915H591.477V343.854C594.057 343.081 595.734 341.407 596.638 338.959C597.541 336.511 597.928 332.003 597.928 325.433V288.59C597.928 283.179 597.412 279.572 596.509 277.769C595.605 275.965 593.928 274.806 591.606 274.291V271.972L608.508 265.66H610.573V280.861C613.024 275.965 616.637 271.843 621.54 268.751C626.314 265.531 630.959 264.5 635.475 265.66L635.217 265.531Z" fill="black"/>
</svg>
