<svg width="80" height="80" viewBox="0 0 80 80" fill="none" xmlns="http://www.w3.org/2000/svg">
<rect x="0.5" y="0.5" width="79" height="79" rx="39.5" fill="white"/>
<rect x="0.5" y="0.5" width="79" height="79" rx="39.5" stroke="black"/>
<g clip-path="url(#clip0_1182_33889)">
<path d="M40 79.9984C62.0914 79.9984 80 62.0898 80 39.9984C80 17.907 62.0914 -0.00158691 40 -0.00158691C17.9086 -0.00158691 0 17.907 0 39.9984C0 62.0898 17.9086 79.9984 40 79.9984Z" fill="#F590B2"/>
<path d="M51.6667 57C46.512 57 42.3333 49.165 42.3333 39.5C42.3333 29.835 46.512 22 51.6667 22C56.8213 22 61 29.835 61 39.5C61 49.165 56.8213 57 51.6667 57Z" fill="white"/>
<path d="M55.75 45.3334C52.8505 45.3334 50.5 42.3952 50.5 38.7709C50.5 35.1465 52.8505 32.2084 55.75 32.2084C58.6495 32.2084 61 35.1465 61 38.7709C61 42.3952 58.6495 45.3334 55.75 45.3334Z" fill="black"/>
<path d="M58.6654 38.0417C58.021 38.0417 57.4987 37.3887 57.4987 36.5833C57.4987 35.7779 58.021 35.125 58.6654 35.125C59.3097 35.125 59.832 35.7779 59.832 36.5833C59.832 37.3887 59.3097 38.0417 58.6654 38.0417Z" fill="white"/>
<path d="M28.3346 57C23.18 57 19.0013 49.165 19.0013 39.5C19.0013 29.835 23.18 22 28.3346 22C33.4893 22 37.668 29.835 37.668 39.5C37.668 49.165 33.4893 57 28.3346 57Z" fill="white"/>
<path d="M32.418 45.3334C29.5185 45.3334 27.168 42.3952 27.168 38.7709C27.168 35.1465 29.5185 32.2084 32.418 32.2084C35.3175 32.2084 37.668 35.1465 37.668 38.7709C37.668 42.3952 35.3175 45.3334 32.418 45.3334Z" fill="black"/>
<path d="M35.3333 38.0417C34.689 38.0417 34.1667 37.3887 34.1667 36.5833C34.1667 35.7779 34.689 35.125 35.3333 35.125C35.9777 35.125 36.5 35.7779 36.5 36.5833C36.5 37.3887 35.9777 38.0417 35.3333 38.0417Z" fill="white"/>
</g>
<rect x="0.5" y="0.5" width="79" height="79" rx="39.5" stroke="black"/>
<defs>
<clipPath id="clip0_1182_33889">
<rect width="80" height="80" rx="40" fill="white"/>
</clipPath>
</defs>
</svg>
