<svg width="80" height="80" viewBox="0 0 80 80" fill="none" xmlns="http://www.w3.org/2000/svg">
<rect x="0.5" y="0.5" width="79" height="79" rx="39.5" fill="#78E8D3"/>
<rect x="0.5" y="0.5" width="79" height="79" rx="39.5" stroke="black"/>
<g clip-path="url(#clip0_1182_33890)">
<mask id="mask0_1182_33890" style="mask-type:luminance" maskUnits="userSpaceOnUse" x="0" y="-1" width="80" height="81">
<path d="M40.0329 79.4641C61.6182 79.4641 79.1166 61.6499 79.1166 39.6749C79.1166 17.7 61.6182 -0.114258 40.0329 -0.114258C18.4476 -0.114258 0.949219 17.7 0.949219 39.6749C0.949219 61.6499 18.4476 79.4641 40.0329 79.4641Z" fill="white"/>
</mask>
<g mask="url(#mask0_1182_33890)">
<path d="M10.0572 -3.97034H-9.92578V2.74446H10.0572V-3.97034Z" fill="#1C46F5"/>
<path d="M50.0259 -3.97034H30.043V2.74446H50.0259V-3.97034Z" fill="#1C46F5"/>
<path d="M89.9908 -3.97034H70.0078V2.74446H89.9908V-3.97034Z" fill="#1C46F5"/>
<path d="M30.0416 -3.97034H10.0586V2.74446H30.0416V-3.97034Z" fill="#92C8E9"/>
<path d="M70.0064 -3.97034H50.0234V2.74446H70.0064V-3.97034Z" fill="#92C8E9"/>
<path d="M10.0572 2.74207H-9.92578V9.45687H10.0572V2.74207Z" fill="#92C8E9"/>
<path d="M50.0259 2.74207H30.043V9.45687H50.0259V2.74207Z" fill="#92C8E9"/>
<path d="M89.9908 2.74207H70.0078V9.45687H89.9908V2.74207Z" fill="#92C8E9"/>
<path d="M30.0416 2.74207H10.0586V9.45687H30.0416V2.74207Z" fill="#1C46F5"/>
<path d="M70.0064 2.74207H50.0234V9.45687H70.0064V2.74207Z" fill="#1C46F5"/>
<path d="M10.0572 9.46228H-9.92578V16.1771H10.0572V9.46228Z" fill="#1C46F5"/>
<path d="M50.0259 9.46228H30.043V16.1771H50.0259V9.46228Z" fill="#1C46F5"/>
<path d="M89.9908 9.46228H70.0078V16.1771H89.9908V9.46228Z" fill="#1C46F5"/>
<path d="M30.0416 9.46228H10.0586V16.1771H30.0416V9.46228Z" fill="#92C8E9"/>
<path d="M70.0064 9.46228H50.0234V16.1771H70.0064V9.46228Z" fill="#92C8E9"/>
<path d="M10.0572 16.1786H-9.92578V22.8934H10.0572V16.1786Z" fill="#92C8E9"/>
<path d="M50.0259 16.1786H30.043V22.8934H50.0259V16.1786Z" fill="#92C8E9"/>
<path d="M89.9908 16.1786H70.0078V22.8934H89.9908V16.1786Z" fill="#92C8E9"/>
<path d="M30.0416 16.1786H10.0586V22.8934H30.0416V16.1786Z" fill="#1C46F5"/>
<path d="M70.0064 16.1786H50.0234V22.8934H70.0064V16.1786Z" fill="#1C46F5"/>
<path d="M10.0572 22.891H-9.92578V29.6058H10.0572V22.891Z" fill="#1C46F5"/>
<path d="M50.0259 22.891H30.043V29.6058H50.0259V22.891Z" fill="#1C46F5"/>
<path d="M89.9908 22.891H70.0078V29.6058H89.9908V22.891Z" fill="#1C46F5"/>
<path d="M30.0416 22.891H10.0586V29.6058H30.0416V22.891Z" fill="#92C8E9"/>
<path d="M70.0064 22.891H50.0234V29.6058H70.0064V22.891Z" fill="#92C8E9"/>
<path d="M10.0572 29.6073H-9.92578V36.3221H10.0572V29.6073Z" fill="#92C8E9"/>
<path d="M50.0259 29.6073H30.043V36.3221H50.0259V29.6073Z" fill="#92C8E9"/>
<path d="M89.9908 29.6073H70.0078V36.3221H89.9908V29.6073Z" fill="#92C8E9"/>
<path d="M30.0416 29.6073H10.0586V36.3221H30.0416V29.6073Z" fill="#1C46F5"/>
<path d="M70.0064 29.6073H50.0234V36.3221H70.0064V29.6073Z" fill="#1C46F5"/>
<path d="M10.0572 36.3236H-9.92578V43.0384H10.0572V36.3236Z" fill="#1C46F5"/>
<path d="M50.0259 36.3236H30.043V43.0384H50.0259V36.3236Z" fill="#1C46F5"/>
<path d="M89.9908 36.3236H70.0078V43.0384H89.9908V36.3236Z" fill="#1C46F5"/>
<path d="M30.0416 36.3236H10.0586V43.0384H30.0416V36.3236Z" fill="#92C8E9"/>
<path d="M70.0064 36.3236H50.0234V43.0384H70.0064V36.3236Z" fill="#92C8E9"/>
<path d="M10.0572 43.0399H-9.92578V49.7547H10.0572V43.0399Z" fill="#92C8E9"/>
<path d="M50.0259 43.0399H30.043V49.7547H50.0259V43.0399Z" fill="#92C8E9"/>
<path d="M89.9908 43.0399H70.0078V49.7547H89.9908V43.0399Z" fill="#92C8E9"/>
<path d="M30.0416 43.0399H10.0586V49.7547H30.0416V43.0399Z" fill="#1C46F5"/>
<path d="M70.0064 43.0399H50.0234V49.7547H70.0064V43.0399Z" fill="#1C46F5"/>
<path d="M10.0572 49.7562H-9.92578V56.471H10.0572V49.7562Z" fill="#1C46F5"/>
<path d="M50.0259 49.7562H30.043V56.471H50.0259V49.7562Z" fill="#1C46F5"/>
<path d="M89.9908 49.7562H70.0078V56.471H89.9908V49.7562Z" fill="#1C46F5"/>
<path d="M30.0416 49.7562H10.0586V56.471H30.0416V49.7562Z" fill="#92C8E9"/>
<path d="M70.0064 49.7562H50.0234V56.471H70.0064V49.7562Z" fill="#92C8E9"/>
<path d="M10.0572 56.4685H-9.92578V63.1833H10.0572V56.4685Z" fill="#92C8E9"/>
<path d="M50.0259 56.4685H30.043V63.1833H50.0259V56.4685Z" fill="#92C8E9"/>
<path d="M89.9908 56.4685H70.0078V63.1833H89.9908V56.4685Z" fill="#92C8E9"/>
<path d="M30.0416 56.4685H10.0586V63.1833H30.0416V56.4685Z" fill="#1C46F5"/>
<path d="M70.0064 56.4685H50.0234V63.1833H70.0064V56.4685Z" fill="#1C46F5"/>
<path d="M10.0572 63.1848H-9.92578V69.8996H10.0572V63.1848Z" fill="#1C46F5"/>
<path d="M50.0259 63.1848H30.043V69.8996H50.0259V63.1848Z" fill="#1C46F5"/>
<path d="M89.9908 63.1848H70.0078V69.8996H89.9908V63.1848Z" fill="#1C46F5"/>
<path d="M30.0416 63.1848H10.0586V69.8996H30.0416V63.1848Z" fill="#92C8E9"/>
<path d="M70.0064 63.1848H50.0234V69.8996H70.0064V63.1848Z" fill="#92C8E9"/>
<path d="M10.0572 69.9011H-9.92578V76.6159H10.0572V69.9011Z" fill="#92C8E9"/>
<path d="M50.0259 69.9011H30.043V76.6159H50.0259V69.9011Z" fill="#92C8E9"/>
<path d="M89.9908 69.9011H70.0078V76.6159H89.9908V69.9011Z" fill="#92C8E9"/>
<path d="M30.0416 69.9011H10.0586V76.6159H30.0416V69.9011Z" fill="#1C46F5"/>
<path d="M70.0064 69.9011H50.0234V76.6159H70.0064V69.9011Z" fill="#1C46F5"/>
<path d="M10.0572 76.6135H-9.92578V83.3283H10.0572V76.6135Z" fill="#1C46F5"/>
<path d="M50.0259 76.6135H30.043V83.3283H50.0259V76.6135Z" fill="#1C46F5"/>
<path d="M89.9908 76.6135H70.0078V83.3283H89.9908V76.6135Z" fill="#1C46F5"/>
<path d="M30.0416 76.6135H10.0586V83.3283H30.0416V76.6135Z" fill="#92C8E9"/>
<path d="M70.0064 76.6135H50.0234V83.3283H70.0064V76.6135Z" fill="#92C8E9"/>
</g>
</g>
<rect x="0.5" y="0.5" width="79" height="79" rx="39.5" stroke="black"/>
<defs>
<clipPath id="clip0_1182_33890">
<rect width="80" height="80" rx="40" fill="white"/>
</clipPath>
</defs>
</svg>
