<svg width="254" height="58" viewBox="0 0 254 58" fill="none" xmlns="http://www.w3.org/2000/svg">
<path d="M253.5 29C253.5 30.8436 252.684 32.6845 251.047 34.5108C249.408 36.3401 246.967 38.1287 243.782 39.8481C237.413 43.2867 228.163 46.399 216.691 49.0186C193.755 54.2561 162.044 57.5 127 57.5C91.9559 57.5 60.245 54.2561 37.3087 49.0186C25.8366 46.399 16.5871 43.2867 10.2178 39.8481C7.03286 38.1287 4.59186 36.3401 2.95255 34.5108C1.31593 32.6845 0.5 30.8436 0.5 29C0.5 27.1564 1.31593 25.3155 2.95255 23.4892C4.59186 21.6599 7.03286 19.8713 10.2178 18.1519C16.5871 14.7133 25.8366 11.601 37.3087 8.98136C60.245 3.74394 91.9559 0.5 127 0.5C162.044 0.5 193.755 3.74394 216.691 8.98136C228.163 11.601 237.413 14.7133 243.782 18.1519C246.967 19.8713 249.408 21.6599 251.047 23.4892C252.684 25.3155 253.5 27.1564 253.5 29Z" fill="white" stroke="black"/>
</svg>
