<svg width="80" height="80" viewBox="0 0 80 80" fill="none" xmlns="http://www.w3.org/2000/svg">
<g clip-path="url(#clip0_1089_22677)">
<g clip-path="url(#clip1_1089_22677)">
<path d="M40 79.9984C62.0914 79.9984 80 62.0898 80 39.9984C80 17.907 62.0914 -0.00158691 40 -0.00158691C17.9086 -0.00158691 0 17.907 0 39.9984C0 62.0898 17.9086 79.9984 40 79.9984Z" fill="#D2FF52"/>
<path d="M28.3333 57C33.488 57 37.6667 49.165 37.6667 39.5C37.6667 29.835 33.488 22 28.3333 22C23.1787 22 19 29.835 19 39.5C19 49.165 23.1787 57 28.3333 57Z" fill="white"/>
<path d="M24.25 45.3333C27.1495 45.3333 29.5 42.3952 29.5 38.7708C29.5 35.1465 27.1495 32.2083 24.25 32.2083C21.3505 32.2083 19 35.1465 19 38.7708C19 42.3952 21.3505 45.3333 24.25 45.3333Z" fill="black"/>
<path d="M21.3346 38.0417C21.979 38.0417 22.5013 37.3887 22.5013 36.5833C22.5013 35.7779 21.979 35.125 21.3346 35.125C20.6903 35.125 20.168 35.7779 20.168 36.5833C20.168 37.3887 20.6903 38.0417 21.3346 38.0417Z" fill="white"/>
<path d="M51.6654 57C56.82 57 60.9987 49.165 60.9987 39.5C60.9987 29.835 56.82 22 51.6654 22C46.5107 22 42.332 29.835 42.332 39.5C42.332 49.165 46.5107 57 51.6654 57Z" fill="white"/>
<path d="M47.582 45.3333C50.4815 45.3333 52.832 42.3952 52.832 38.7708C52.832 35.1465 50.4815 32.2083 47.582 32.2083C44.6825 32.2083 42.332 35.1465 42.332 38.7708C42.332 42.3952 44.6825 45.3333 47.582 45.3333Z" fill="black"/>
<path d="M44.6667 38.0417C45.311 38.0417 45.8333 37.3887 45.8333 36.5833C45.8333 35.7779 45.311 35.125 44.6667 35.125C44.0223 35.125 43.5 35.7779 43.5 36.5833C43.5 37.3887 44.0223 38.0417 44.6667 38.0417Z" fill="white"/>
</g>
<rect x="0.5" y="0.5" width="79" height="79" rx="39.5" stroke="black"/>
</g>
<rect x="0.5" y="0.5" width="79" height="79" rx="39.5" stroke="black"/>
<defs>
<clipPath id="clip0_1089_22677">
<rect width="80" height="80" rx="40" fill="white"/>
</clipPath>
<clipPath id="clip1_1089_22677">
<rect width="80" height="80" rx="40" fill="white"/>
</clipPath>
</defs>
</svg>
