<svg width="80" height="80" viewBox="0 0 80 80" fill="none" xmlns="http://www.w3.org/2000/svg">
<rect x="0.5" y="0.5" width="79" height="79" rx="39.5" fill="white"/>
<rect x="0.5" y="0.5" width="79" height="79" rx="39.5" stroke="black"/>
<g clip-path="url(#clip0_1089_22769)">
<path d="M40 79.9984C62.0914 79.9984 80 62.0898 80 39.9984C80 17.907 62.0914 -0.00158691 40 -0.00158691C17.9086 -0.00158691 0 17.907 0 39.9984C0 62.0898 17.9086 79.9984 40 79.9984Z" fill="white"/>
<path d="M63.7928 63.3252C63.7928 63.3252 59.4465 57.4255 57.6348 53.5988C55.823 49.7692 54.3743 46.1487 54.322 45.6319C54.322 45.6319 53.7442 42.7169 55.0246 39.6974C56.4502 36.344 59.1881 33.4173 58.2735 31.2572C57.6202 29.7184 55.5153 29.7997 54.7256 30.3601C53.9358 30.9204 52.2083 33.3273 52.0283 33.8616C51.8483 34.3987 51.4534 33.1125 51.378 31.9889C51.3025 30.8653 51.1486 25.073 51.378 22.3438C51.6073 19.6146 49.8972 19.3069 49.3891 19.3069C48.8781 19.3069 47.9084 19.3069 47.4235 20.175C46.9387 21.0431 47.679 19.0514 46.5293 18.2616C45.3825 17.4719 44.0556 17.9045 43.6724 18.2616C43.2891 18.6188 42.9843 18.9498 42.932 19.3069C42.8797 19.664 41.8606 18.2849 39.9734 19.1269C38.0862 19.9688 38.3911 21.7806 38.4172 22.2132C38.4434 22.6458 37.3459 22.3148 36.4778 23.209C35.6096 24.1033 35.3803 27.1141 35.3803 30.2497C35.3803 33.3883 35.3048 40.8645 36.2745 45.4054C37.2443 49.9463 38.9282 55.637 42.0929 59.3359C45.2576 63.0348 49.032 66.124 52.7832 67.2186C56.5344 68.3161 62.8115 68.8271 64.1383 67.2186C65.4652 65.6101 63.7957 63.3165 63.7957 63.3165L63.7928 63.3252Z" fill="#BBF024"/>
<path d="M47.0805 20.2628C47.0805 20.2628 46.4418 22.1006 46.3402 24.4988C46.2385 26.897 46.1602 34.0655 46.1602 34.0655" stroke="black" stroke-width="0.926181" stroke-linecap="round" stroke-linejoin="round"/>
<path d="M43.2049 19.1364C43.2049 19.1364 42.4645 21.131 42.389 24.8822C42.3135 28.6334 42.389 28.9905 42.389 28.9905" stroke="black" stroke-width="0.926181" stroke-linecap="round" stroke-linejoin="round"/>
<path d="M51.6225 34.0657C51.6225 34.0657 50.6005 35.5697 50.1418 36.7194C49.683 37.8663 48.8672 39.678 48.8672 39.678" stroke="black" stroke-width="0.926181" stroke-linecap="round" stroke-linejoin="round"/>
<path d="M17.0883 62.5202C17.0883 62.5202 21.4347 56.6206 23.2464 52.7939C25.0581 48.9643 26.5069 45.3438 26.5592 44.827C26.5592 44.827 26.774 42.542 25.8566 38.8925C24.9391 35.2429 23.229 32.3598 24.1726 30.9836C25.1162 29.6045 26.4953 29.6307 27.285 30.1939C28.0747 30.7543 28.8674 32.2873 29.0445 32.8215C29.2245 33.3586 29.4277 32.3105 29.5032 31.1898C29.5787 30.0691 29.7326 24.2739 29.5032 21.5447C29.2738 18.8155 30.9839 18.5078 31.492 18.5078C32.0001 18.5078 32.9728 18.5078 33.4576 19.3759C33.9425 20.244 33.2021 18.2523 34.3519 17.4625C35.4987 16.6728 36.8256 17.1054 37.2088 17.4625C37.5921 17.8197 37.8969 18.1506 37.9492 18.5078C38.0014 18.8649 39.0205 17.4858 40.9077 18.3278C42.7949 19.1697 42.4901 20.9815 42.4639 21.4141C42.4378 21.8467 43.5353 21.5157 44.4034 22.4099C45.2715 23.3042 45.5009 26.315 45.5009 29.4506C45.5009 32.5863 45.5764 40.0654 44.6066 44.6063C43.6369 49.1472 41.9529 54.8379 38.7882 58.5368C35.6236 62.2357 31.8491 65.3249 28.098 66.4195C24.3468 67.517 18.0697 68.028 16.7428 66.4195C15.416 64.811 17.0854 62.5173 17.0854 62.5173L17.0883 62.5202Z" fill="black"/>
<path d="M29.0414 33.3783C29.0414 33.3783 28.7975 37.5708 27.6797 41.1971" stroke="#BBF024" stroke-width="0.926181" stroke-linecap="round" stroke-linejoin="round"/>
<path d="M33.2973 19.1364C33.2973 19.1364 32.7137 19.7025 32.7137 23.7324C32.7137 27.7623 32.6382 34.1411 32.5859 34.4982" stroke="#BBF024" stroke-width="0.926181" stroke-linecap="round" stroke-linejoin="round"/>
<path d="M38.0252 18.4007C38.0252 18.4007 37.2733 18.7578 37.1833 20.1108C37.0932 21.4638 36.5968 31.2859 36.5706 32.5867C36.5445 33.8874 36.3906 34.5 36.3906 34.5" stroke="#BBF024" stroke-width="0.926181" stroke-linecap="round" stroke-linejoin="round"/>
<path d="M42.6683 21.9737C42.6683 21.9737 40.6011 21.8721 40.3456 23.6315C40.0901 25.391 39.9623 32.5101 39.8868 33.4798C39.8113 34.4495 39.6836 35.4454 39.6836 35.4454" stroke="#BBF024" stroke-width="0.926181" stroke-linecap="round" stroke-linejoin="round"/>
<path d="M17.4609 44.1293L19.6298 42.6834" stroke="#BBF024" stroke-width="0.926181" stroke-linecap="round" stroke-linejoin="round"/>
<path d="M15.5312 38.9083L18.1007 38.589" stroke="#BBF024" stroke-width="0.926181" stroke-linecap="round" stroke-linejoin="round"/>
<path d="M13.1992 30.5522L16.8168 31.1939" stroke="#BBF024" stroke-width="0.926181" stroke-linecap="round" stroke-linejoin="round"/>
<path d="M15.5312 20.9908L19.6279 22.9187" stroke="#BBF024" stroke-width="0.926181" stroke-linecap="round" stroke-linejoin="round"/>
<path d="M22.0391 11.7491L24.0482 15.2041" stroke="#BBF024" stroke-width="0.926181" stroke-linecap="round" stroke-linejoin="round"/>
<path d="M59.9633 12.0713L56.668 14.4811" stroke="black" stroke-width="0.926181" stroke-linecap="round" stroke-linejoin="round"/>
<path d="M64.6477 17.8172L60.6875 19.1383" stroke="black" stroke-width="0.926181" stroke-linecap="round" stroke-linejoin="round"/>
<path d="M66.7929 30.5522H63.6602" stroke="black" stroke-width="0.926181" stroke-linecap="round" stroke-linejoin="round"/>
<path d="M64.3012 41.8792L61.3281 40.1111" stroke="black" stroke-width="0.926181" stroke-linecap="round" stroke-linejoin="round"/>
</g>
<rect x="0.5" y="0.5" width="79" height="79" rx="39.5" stroke="black"/>
<defs>
<clipPath id="clip0_1089_22769">
<rect width="80" height="80" rx="40" fill="white"/>
</clipPath>
</defs>
</svg>
