<svg width="80" height="80" viewBox="0 0 80 80" fill="none" xmlns="http://www.w3.org/2000/svg">
<rect x="0.5" y="0.5" width="79" height="79" rx="39.5" fill="white"/>
<rect x="0.5" y="0.5" width="79" height="79" rx="39.5" stroke="black"/>
<g clip-path="url(#clip0_1182_33891)">
<path d="M40 79.9984C62.0914 79.9984 80 62.0898 80 39.9984C80 17.907 62.0914 -0.00158691 40 -0.00158691C17.9086 -0.00158691 0 17.907 0 39.9984C0 62.0898 17.9086 79.9984 40 79.9984Z" fill="#1C46F5"/>
<path d="M57.4237 39.5C61.8831 37.5215 65 33.0265 65 27.789C65 20.726 59.3349 15 52.3468 15C46.301 15 41.2558 19.2877 40.0012 25.0161C38.7466 19.2877 33.699 15 27.6532 15C20.6651 15 15 20.726 15 27.789C15 33.0265 18.1169 37.5215 22.5763 39.5C18.1169 41.4786 15 45.9735 15 51.211C15 58.274 20.6651 64 27.6532 64C33.699 64 38.7442 59.7123 40.0012 53.9839C41.2558 59.7123 46.3034 64 52.3468 64C59.3349 64 65 58.274 65 51.211C65 45.9735 61.8831 41.4786 57.4237 39.5Z" fill="#92C8E9"/>
</g>
<rect x="0.5" y="0.5" width="79" height="79" rx="39.5" stroke="black"/>
<defs>
<clipPath id="clip0_1182_33891">
<rect width="80" height="80" rx="40" fill="white"/>
</clipPath>
</defs>
</svg>
