<svg width="80" height="80" viewBox="0 0 80 80" fill="none" xmlns="http://www.w3.org/2000/svg">
<g clip-path="url(#clip0_1089_22913)">
<path d="M39.9964 79.9222C62.0469 79.9222 79.9224 62.0467 79.9224 39.9961C79.9224 17.9456 62.0469 0.0700684 39.9964 0.0700684C17.9458 0.0700684 0.0703125 17.9456 0.0703125 39.9961C0.0703125 62.0467 17.9458 79.9222 39.9964 79.9222Z" fill="white" stroke="black" stroke-width="0.144975" stroke-miterlimit="10"/>
<path d="M42.2273 2.26648L43.3001 5.5864C43.3755 5.87055 43.5175 5.97204 43.7872 5.98653L43.7814 6.11411L42.4911 6.04162L42.4969 5.91405C42.8333 5.93434 42.9869 5.90245 42.9956 5.74297C42.9956 5.70238 42.9898 5.65019 42.9724 5.5893L42.6912 4.71655L41.1602 4.62957L40.8442 5.35154C40.8094 5.44723 40.7833 5.52261 40.7804 5.5835C40.7688 5.76617 40.9138 5.82416 41.2501 5.84446L41.2443 5.97204L40.1367 5.90825L40.1454 5.78067C40.4238 5.79517 40.5311 5.73718 40.7137 5.28196L41.946 2.36796L42.2331 2.26648H42.2273ZM42.0243 2.60282L41.2182 4.48459L42.6419 4.56578L42.0243 2.60282Z" fill="black"/>
<path d="M43.9638 6.88096L43.9841 6.75628C44.2364 6.79687 44.3292 6.73308 44.3611 6.51852L44.7119 4.29751C44.7351 4.14093 44.6713 4.06555 44.4365 4.02785L44.4278 3.94957L45.0946 3.84229L45.0511 4.10904C45.2193 3.98146 45.4397 3.89738 45.8166 3.95826C46.5444 4.07424 46.7734 4.72373 46.6749 5.34712C46.5763 5.96472 46.1617 6.50692 45.431 6.39094C45.054 6.33005 44.8685 6.17928 44.7496 6.01111L44.6626 6.56781C44.6278 6.78527 44.738 6.87806 44.9526 6.91285L44.9323 7.03753L43.9609 6.88386L43.9638 6.88096ZM44.7815 5.81104C44.8656 5.96762 44.9816 6.14159 45.3527 6.19958C45.9355 6.29236 46.2515 5.82554 46.3356 5.28913C46.4197 4.75273 46.266 4.20182 45.6832 4.10904C45.3962 4.06265 45.2019 4.11484 45.0193 4.29171L44.7786 5.80814L44.7815 5.81104Z" fill="black"/>
<path d="M46.9023 6.63817L46.9313 6.51349C47.1285 6.55988 47.2735 6.52509 47.3199 6.33372L47.6794 4.81438C47.72 4.64041 47.6852 4.57373 47.43 4.51574L47.4243 4.43455L48.1056 4.33887L47.9607 4.95356C48.3289 4.76509 48.7928 4.50124 49.1205 4.57953C49.2654 4.61432 49.3495 4.75929 49.3234 4.87237C49.2973 4.98545 49.1553 5.07244 49.0132 5.04055C48.8508 5.00285 48.8479 4.86078 48.7319 4.83178C48.587 4.79699 48.2216 4.98256 47.9201 5.13043L47.6185 6.40331C47.5721 6.59757 47.633 6.67876 47.8882 6.73965L47.8592 6.86433L46.9052 6.63817H46.9023Z" fill="black"/>
<path d="M49.2099 7.21323L49.2447 7.09145C49.468 7.15814 49.5811 7.14364 49.6391 6.94648L50.0798 5.45904C50.1175 5.33146 50.0914 5.22418 49.8188 5.14299L49.8246 5.06471L50.5234 5.03281L49.929 7.03346C49.871 7.22773 49.929 7.29442 50.1842 7.36981L50.1494 7.49158L49.207 7.21323H49.2099ZM50.9351 4.08178C50.9003 4.20356 50.7757 4.29924 50.6046 4.24995C50.4277 4.19776 50.3871 4.05278 50.4219 3.931C50.4567 3.80922 50.5727 3.71064 50.7467 3.76283C50.9177 3.81212 50.9699 3.9629 50.9322 4.08468L50.9351 4.08178Z" fill="black"/>
<path d="M50.582 7.62836L50.6226 7.50658C50.8575 7.58777 50.9706 7.52398 51.0401 7.32102L51.9216 4.74626C51.9709 4.60129 51.9274 4.49401 51.6809 4.40992V4.33453L52.3855 4.32874L51.3272 7.4196C51.2576 7.62256 51.3243 7.74724 51.565 7.82843L51.5244 7.95021L50.582 7.62546V7.62836Z" fill="black"/>
<path d="M51.8984 8.02146L51.9506 7.90548C52.2957 8.05916 52.4348 8.00987 52.5363 7.78081L53.6642 5.24665C53.7483 5.06108 53.67 4.9422 53.3366 4.79433L53.3888 4.67834L54.2267 5.05238L54.0209 8.45349L56.4072 6.02371L57.2712 6.40934L57.219 6.52532C56.8479 6.36005 56.7406 6.40065 56.6594 6.58331L55.5315 9.11747C55.4416 9.32334 55.4851 9.48281 55.836 9.63648L55.7838 9.75246L54.6066 9.22765L54.6588 9.11167C54.998 9.26245 55.1517 9.19286 55.2445 8.987L56.468 6.23827L56.4159 6.21508L53.7773 8.89711L53.7019 8.86522L53.9165 5.18286L53.8614 5.15676L52.6668 7.8388C52.5653 8.06786 52.6262 8.20413 52.9713 8.35781L52.9191 8.47379L51.9013 8.02146H51.8984Z" fill="black"/>
<path d="M58.1845 10.9906C58.0192 11.0602 57.88 11.1008 57.7061 11.0022C57.5089 10.8862 57.5524 10.718 57.6423 10.5644C57.3581 10.6282 57.074 10.634 56.7173 10.4281C56.2911 10.1816 56.2273 9.8424 56.3926 9.55825C56.6187 9.16682 57.2508 9.13202 58.2483 9.52345L58.428 9.21031C58.5817 8.94645 58.5556 8.6971 58.2918 8.54342C57.9583 8.34916 57.7727 8.36656 57.5611 8.54342C57.4683 8.61881 57.3697 8.6797 57.2595 8.61591C57.1465 8.54922 57.1233 8.44194 57.1928 8.32306C57.3204 8.1027 57.7959 8.1143 58.3729 8.44774C58.7557 8.671 58.8891 9.01894 58.6687 9.40168L57.9612 10.6224C57.8858 10.7557 57.8365 10.8688 57.9061 10.9094C57.9641 10.9413 58.0366 10.9616 58.1671 10.9268L58.1816 10.9935L58.1845 10.9906ZM58.1787 9.63943C57.5495 9.36398 56.9174 9.32049 56.6883 9.71482C56.5724 9.91199 56.639 10.1439 56.9029 10.2976C57.2247 10.4832 57.4306 10.5035 57.7177 10.4339L58.1787 9.63654V9.63943Z" fill="black"/>
<path d="M58.3242 11.2864L58.3967 11.182C58.5649 11.298 58.7128 11.3154 58.8229 11.153L59.7044 9.85985C59.8059 9.71198 59.7943 9.63659 59.5797 9.49162L59.6029 9.41333L60.2727 9.567L59.916 10.0889C60.3278 10.0425 60.8555 9.96713 61.1338 10.1556C61.2556 10.2397 61.2846 10.405 61.2179 10.5035C61.1512 10.5992 60.9889 10.6311 60.8671 10.547C60.7279 10.4513 60.7772 10.318 60.6786 10.2542C60.5568 10.1701 60.148 10.2107 59.8117 10.2426L59.0752 11.3241C58.965 11.4894 58.9882 11.5851 59.2086 11.7358L59.1361 11.8402L58.3242 11.2864Z" fill="black"/>
<path d="M62.3414 13.5557C61.9558 13.6716 61.547 13.7383 61.1498 13.4223C60.6626 13.0367 60.6047 12.3089 61.0164 11.7899C61.5238 11.152 62.3183 11.0998 62.8199 11.4999C63.1098 11.7319 63.3476 12.1697 63.1504 12.4191C63.0779 12.5119 62.9677 12.5263 62.8721 12.451C62.7271 12.3379 62.8141 12.2103 62.8431 12.0711C62.8779 11.8653 62.8692 11.7087 62.6343 11.5231C62.3183 11.2738 61.7876 11.3636 61.344 11.9204C60.941 12.4278 60.9033 12.9671 61.3498 13.3208C61.5876 13.5093 61.834 13.576 62.3125 13.4745L62.3443 13.5586L62.3414 13.5557Z" fill="black"/>
<path d="M62.3232 14.2638L62.4102 14.171C62.59 14.3392 62.703 14.3479 62.8364 14.2058L64.6863 12.2284C64.8371 12.0689 64.8081 11.9732 64.6399 11.8166L64.6805 11.7441L65.3213 11.9964L64.1731 13.2229C64.4543 13.2345 64.84 13.2461 65.1444 13.5331C65.446 13.8144 65.5098 14.1246 65.1937 14.4639L64.2195 15.5048C64.0948 15.6382 64.118 15.7715 64.2891 15.931L64.2021 16.0238L63.4772 15.3453L63.5642 15.2525C63.7585 15.4323 63.8715 15.4294 63.9991 15.296L64.9096 14.3218C65.1183 14.0985 65.1589 13.8782 64.8777 13.6172C64.6167 13.3737 64.3384 13.336 64.0542 13.3505L63.0568 14.4175C62.9234 14.5596 62.9495 14.6813 63.1322 14.8495L63.0452 14.9423L62.3203 14.2638H62.3232Z" fill="black"/>
<path d="M65.1503 16.7265C65.0402 16.8309 64.8749 16.8657 64.7444 16.7265C64.6139 16.5873 64.6574 16.425 64.7676 16.3206C64.8749 16.2191 65.0344 16.1872 65.1677 16.3293C65.3011 16.4714 65.2605 16.6279 65.1532 16.7294L65.1503 16.7265Z" fill="black"/>
<path d="M67.067 19.268C66.8843 19.0708 66.8003 18.9868 66.6118 18.7983L66.7829 18.6562C66.606 18.6562 66.3508 18.5721 66.1073 18.2793C65.6463 17.7226 65.9072 17.0557 66.4001 16.6469C66.893 16.238 67.5889 16.0786 68.0673 16.6556C68.3283 16.9687 68.337 17.1978 68.3196 17.3978L69.0648 16.7802C69.1981 16.6701 69.1865 16.5686 68.9836 16.325L69.0213 16.2612L69.6824 16.6672L67.1859 18.7345C67.0177 18.8737 67.0003 19.0216 67.1482 19.2013L67.067 19.2709V19.268ZM68.1746 17.5167C68.2326 17.2906 68.2094 17.0963 68.0006 16.8411C67.6237 16.3859 67.0438 16.5483 66.6176 16.902C66.1827 17.2616 65.9304 17.7893 66.3073 18.2416C66.5712 18.5576 66.7887 18.5373 66.9307 18.546L68.1775 17.5138L68.1746 17.5167Z" fill="black"/>
<path d="M68.5519 19.1846C67.8242 19.6891 67.8358 20.2226 68.1141 20.6227C68.3403 20.9475 68.6476 21.1069 69.0565 21.133L69.0478 21.2258C68.6476 21.2316 68.2562 21.1388 67.9286 20.6662C67.5255 20.0863 67.6705 19.402 68.3026 18.9642C68.8825 18.5612 69.6045 18.6163 70.0046 19.1933C70.3873 19.7442 70.2713 20.3357 69.6509 20.7648L68.5548 19.1846H68.5519ZM69.5784 20.4111C70.0829 20.0225 70.1612 19.634 69.9002 19.26C69.6538 18.9033 69.1231 18.8279 68.6708 19.1034L69.5784 20.4111Z" fill="black"/>
<path d="M69.6365 21.7695C69.4828 22.1233 69.3291 22.5901 69.6133 23.0772C69.7815 23.3672 70.0772 23.4918 70.3643 23.3266C70.5672 23.2077 70.5846 22.9873 70.4628 22.4393C70.2773 21.6304 70.373 21.3607 70.66 21.1954C70.9297 21.0389 71.2979 21.178 71.5415 21.6014C71.6806 21.842 71.6835 22.0305 71.7357 22.1175C71.7473 22.1349 71.7589 22.1465 71.7705 22.1552L71.9387 22.2741L71.4545 22.8887L71.3762 22.8337C71.4951 22.6336 71.6777 22.0885 71.4313 21.6594C71.2718 21.3868 71.0311 21.2737 70.7876 21.4129C70.5701 21.5376 70.6078 21.813 70.7151 22.2857C70.8804 22.996 70.8398 23.3353 70.4889 23.5411C70.0975 23.7673 69.7032 23.5063 69.4915 23.141C69.3465 22.8887 69.3494 22.6945 69.2769 22.5698C69.2653 22.5466 69.2508 22.5263 69.2306 22.5089L69.0508 22.3726L69.5756 21.7261L69.6336 21.7637L69.6365 21.7695Z" fill="black"/>
<path d="M70.2383 24.3372L70.3514 24.2792C70.4557 24.4879 70.5427 24.5575 70.7254 24.4676L72.1143 23.7718C72.2331 23.7138 72.294 23.6181 72.1664 23.3629L72.2273 23.3136L72.7289 23.8037L70.8617 24.7373C70.679 24.8272 70.6732 24.9171 70.7921 25.1548L70.679 25.2128L70.2383 24.3343V24.3372ZM73.7032 23.4557C73.5901 23.5137 73.4335 23.4876 73.3552 23.3281C73.2741 23.1629 73.3494 23.0353 73.4654 22.9773C73.5814 22.9193 73.7293 22.9367 73.8105 23.0991C73.8916 23.2586 73.8163 23.3977 73.7032 23.4528V23.4557Z" fill="black"/>
<path d="M73.6805 26.4122C73.869 26.476 74.0053 26.592 74.0603 26.7225C74.1009 26.821 74.0951 26.9631 73.9966 27.0037C73.898 27.0443 73.7936 27.0066 73.753 26.9138C73.7095 26.8094 73.7704 26.7196 73.7356 26.6355C73.7211 26.5978 73.6892 26.5659 73.6312 26.5311C73.5442 26.6906 73.3993 26.821 73.2282 26.8964C73.0687 26.9631 72.4743 27.1661 72.0945 26.2701C72.0568 26.1802 72.0278 26.0991 72.0104 25.9686C71.9234 25.8497 71.8277 25.7685 71.7668 25.7946C71.7147 25.8178 71.6509 25.8613 71.6886 26.044C71.7494 26.3281 71.8596 26.7399 71.9321 27.053C72.0191 27.4154 71.993 27.7344 71.6886 27.862C71.2797 28.033 70.9405 27.5865 70.6737 26.9544C70.3519 26.1889 70.3983 25.7946 70.7085 25.6641C70.9347 25.5685 71.2826 25.8961 71.4566 26.1426C71.3783 25.7598 71.4189 25.6061 71.5436 25.5511C71.6857 25.4902 71.8944 25.7163 72.0017 25.8381C72.0162 25.5337 72.1873 25.2727 72.4859 25.1422C72.9672 24.9451 73.3906 25.2176 73.5993 25.7105C73.7356 26.0353 73.7269 26.2759 73.6776 26.418L73.6805 26.4122ZM71.4914 27.63C71.6509 27.5633 71.735 27.3661 71.6509 27.0269C71.6132 26.8703 71.5697 26.6761 71.4856 26.3832C71.1869 25.9628 70.9579 25.87 70.7984 25.9367C70.5954 26.0208 70.5723 26.3803 70.8216 26.9718C71.0159 27.4299 71.3087 27.7054 71.4914 27.6271V27.63ZM72.6135 25.4351C72.3004 25.5685 72.0597 25.8787 72.2308 26.2817C72.3989 26.6819 72.7875 26.7254 73.1035 26.592C73.4167 26.4586 73.6573 26.1484 73.4891 25.7482C73.3181 25.3452 72.9295 25.2988 72.6135 25.4322V25.4351Z" fill="black"/>
<path d="M71.9805 28.2346L72.1022 28.194C72.1805 28.4347 72.2791 28.4898 72.4908 28.4202L73.9057 27.9592C74.1029 27.8954 74.1464 27.8229 74.0623 27.5706L74.1348 27.53L74.5233 28.078L74.0971 28.2172C74.3465 28.3709 74.677 28.5681 74.8075 28.9653C74.938 29.3625 74.7495 29.6641 74.3204 29.8032L73.0765 30.2092C72.8619 30.2788 72.8213 30.3947 72.8967 30.6267L72.7749 30.6673L72.4705 29.7336L72.5923 29.6931C72.6676 29.925 72.7691 29.9888 72.9808 29.9192L74.2392 29.5104C74.5088 29.4234 74.6683 29.2697 74.5639 28.945C74.4624 28.6318 74.2363 28.4347 73.9463 28.2665L72.5865 28.7101C72.3748 28.7797 72.3313 28.8986 72.4067 29.1277L72.2849 29.1682L71.9805 28.2346Z" fill="black"/>
<path d="M77.2863 33.8003L74.2854 35.5748C74.0244 35.7111 73.9577 35.8706 74.0012 36.1373L73.8765 36.1576L73.6649 34.8818L73.7895 34.8615C73.8446 35.1921 73.9113 35.337 74.065 35.311C74.1056 35.3052 74.1549 35.2849 74.21 35.2559L74.9986 34.789L74.7464 33.2784L73.9722 33.1276C73.8707 33.1131 73.7924 33.1044 73.7316 33.116C73.5518 33.145 73.5257 33.2987 73.5808 33.6321L73.4561 33.6524L73.2734 32.5564L73.3981 32.5361C73.4445 32.8116 73.5257 32.9015 74.0099 32.9827L77.1211 33.5423L77.2834 33.8003H77.2863ZM76.9152 33.6756L74.903 33.3045L75.1378 34.7108L76.9152 33.6756Z" fill="black"/>
<path d="M73.1709 36.5179L73.2984 36.5092C73.3158 36.7643 73.397 36.8397 73.6145 36.8252L75.8587 36.6802C76.0153 36.6686 76.0762 36.5904 76.0617 36.3497L76.1371 36.3236L76.3864 36.9499L76.1168 36.9673C76.2791 37.1036 76.4096 37.3007 76.4328 37.6806C76.4821 38.417 75.8964 38.7824 75.2672 38.823C74.6409 38.8636 74.0233 38.5794 73.974 37.8429C73.9479 37.4631 74.0581 37.2456 74.1944 37.0949L73.6319 37.1326C73.4144 37.1471 73.3448 37.2746 73.3593 37.4921L73.2318 37.5008L73.168 36.5208L73.1709 36.5179ZM74.3974 37.0804C74.2611 37.1964 74.119 37.3471 74.1422 37.7241C74.1799 38.3127 74.7047 38.5185 75.2469 38.4837C75.792 38.4489 76.2936 38.1764 76.253 37.5878C76.2327 37.2978 76.1399 37.121 75.9283 36.9818L74.3945 37.0833L74.3974 37.0804Z" fill="black"/>
<path d="M74.0565 39.3284H74.184C74.1811 39.5342 74.2449 39.6676 74.4421 39.6705L76.0049 39.6966C76.1818 39.6966 76.2398 39.6502 76.2456 39.3893L76.321 39.3661L76.5587 40.0127L75.9266 40.0011C76.1905 40.32 76.5442 40.7172 76.5413 41.0536C76.5413 41.2014 76.4137 41.3174 76.2978 41.3145C76.1818 41.3116 76.0658 41.1927 76.0687 41.0449C76.0687 40.8767 76.2108 40.8448 76.2108 40.7259C76.2108 40.5781 75.9527 40.2591 75.744 39.9953L74.4363 39.975C74.2391 39.9721 74.1695 40.0474 74.1666 40.3113H74.0391L74.0565 39.3284Z" fill="black"/>
<path d="M74.0013 41.7073L74.1289 41.716C74.1144 41.9508 74.1521 42.0552 74.355 42.0668L75.9034 42.1654C76.0367 42.1741 76.1353 42.1248 76.1527 41.8406L76.231 41.8291L76.4166 42.5046L74.3347 42.3713C74.1318 42.3597 74.0796 42.4321 74.0651 42.696L73.9375 42.6873L73.9984 41.7073H74.0013ZM77.4372 42.6902C77.3096 42.6815 77.1878 42.5829 77.1994 42.4061C77.211 42.2234 77.3444 42.1509 77.4691 42.1596C77.5967 42.1683 77.7184 42.2582 77.7068 42.4408C77.6953 42.6177 77.5619 42.7018 77.4372 42.6931V42.6902Z" fill="black"/>
<path d="M73.9042 43.139L74.0317 43.1535C74.0056 43.4029 74.0926 43.4985 74.3043 43.5188L77.0124 43.8059C77.1632 43.8233 77.2589 43.7566 77.285 43.4956L77.3575 43.484L77.5198 44.1654L74.2695 43.8204C74.0578 43.7972 73.9505 43.89 73.9245 44.1422L73.7969 44.1277L73.9013 43.1361L73.9042 43.139Z" fill="black"/>
<path d="M73.8138 44.5048L73.9384 44.528C73.8659 44.8992 73.9442 45.0238 74.1907 45.0702L76.9133 45.6066C77.1134 45.6472 77.212 45.5457 77.2816 45.1862L77.4062 45.2094L77.2294 46.1082L73.8659 46.6649L76.7683 48.4481L76.5857 49.3789L76.461 49.3557C76.5393 48.9555 76.4755 48.8599 76.2812 48.8222L73.5586 48.2858C73.3382 48.2423 73.1933 48.3235 73.1208 48.6975L72.9961 48.6743L73.2455 47.4101L73.3701 47.4333C73.2976 47.7987 73.402 47.932 73.6224 47.9755L76.5741 48.5554L76.5857 48.5003L73.3846 46.5258L73.3991 46.4446L77.038 45.8328L77.0496 45.7719L74.1675 45.2036C73.9239 45.1543 73.8022 45.2471 73.7297 45.6153L73.605 45.5921L73.8196 44.499L73.8138 44.5048Z" fill="black"/>
<path d="M72.323 51.3012C72.2187 51.1563 72.1462 51.0287 72.2042 50.8373C72.2709 50.6198 72.4448 50.6256 72.6159 50.6778C72.4883 50.414 72.4216 50.1385 72.5434 49.7442C72.6884 49.2716 73.0044 49.1353 73.3205 49.2339C73.7525 49.3673 73.9265 49.9762 73.7699 51.0374L74.1149 51.1447C74.4078 51.2345 74.6455 51.1534 74.7354 50.8634C74.8485 50.4952 74.7934 50.3154 74.5731 50.153C74.4774 50.0805 74.3962 49.9965 74.4339 49.8747C74.4745 49.7471 74.5731 49.7036 74.7035 49.7442C74.9471 49.8196 75.0428 50.2864 74.8427 50.9243C74.7122 51.3476 74.402 51.5535 73.9787 51.423L72.6304 51.0055C72.4854 50.9591 72.3636 50.9388 72.3404 51.0171C72.3202 51.0809 72.3201 51.1534 72.3839 51.2751L72.323 51.3041V51.3012ZM73.6394 50.9939C73.7699 50.3183 73.6713 49.692 73.2335 49.5557C73.016 49.489 72.8015 49.605 72.7116 49.895C72.6014 50.2487 72.6275 50.4546 72.7609 50.7213L73.6423 50.9939H73.6394Z" fill="black"/>
<path d="M72.0637 51.499L72.1825 51.5454C72.1072 51.7339 72.1217 51.8818 72.3072 51.9542L73.7628 52.5254C73.928 52.5892 74.0005 52.5631 74.0933 52.3225H74.1745V53.0155L73.5859 52.7864C73.7222 53.1778 73.9164 53.6765 73.7918 53.9868C73.7367 54.1231 73.5801 54.1898 73.4728 54.1463C73.3655 54.1028 73.2989 53.952 73.351 53.8157C73.4119 53.6591 73.554 53.6765 73.5975 53.5664C73.6526 53.4301 73.5192 53.0387 73.4148 52.7197L72.197 52.2413C72.0115 52.1688 71.9216 52.2152 71.8259 52.4617L71.707 52.4153L72.0666 51.5019L72.0637 51.499Z" fill="black"/>
<path d="M70.7374 55.9202C70.5374 55.5693 70.3837 55.1866 70.6041 54.7285C70.8737 54.1689 71.5696 53.9514 72.1669 54.2356C72.9005 54.5893 73.1266 55.3519 72.8483 55.9289C72.6888 56.2652 72.309 56.59 72.0248 56.4537C71.9204 56.4044 71.8798 56.3 71.932 56.1898C72.0103 56.0246 72.1524 56.0826 72.2974 56.0768C72.5061 56.0652 72.6569 56.0246 72.7874 55.752C72.9614 55.3896 72.7555 54.8909 72.1118 54.5806C71.529 54.2994 70.9926 54.3835 70.7461 54.8967C70.6128 55.1721 70.6041 55.4273 70.8099 55.8709L70.7345 55.9202H70.7374Z" fill="black"/>
<path d="M70.0529 56.0516L70.1631 56.1154C70.0384 56.3271 70.0558 56.4402 70.2211 56.5387L72.558 57.9073C72.7465 58.0175 72.8335 57.9682 72.9495 57.771L73.0307 57.7942L72.9263 58.4756L71.4765 57.629C71.5258 57.9073 71.6012 58.2842 71.3895 58.6438C71.1808 59.0004 70.8908 59.1309 70.4936 58.896L69.2642 58.177C69.1076 58.0842 68.983 58.1364 68.8641 58.3364L68.7539 58.2726L69.2555 57.4173L69.3657 57.4811C69.2323 57.7101 69.2613 57.8203 69.4179 57.9131L70.569 58.5858C70.8328 58.7395 71.0561 58.7308 71.2504 58.4002C71.4301 58.0929 71.404 57.8116 71.3287 57.5391L70.0674 56.8026C69.8992 56.704 69.789 56.7562 69.6614 56.9708L69.5513 56.907L70.0529 56.0516Z" fill="black"/>
<path d="M68.2746 59.3602C68.1471 59.2762 68.0775 59.1225 68.1877 58.963C68.2949 58.8035 68.4631 58.8093 68.5878 58.8963C68.7096 58.9775 68.7763 59.1283 68.669 59.2878C68.5617 59.4472 68.3993 59.4443 68.2775 59.3602H68.2746Z" fill="black"/>
<path d="M66.2227 61.7907C66.3763 61.5675 66.4401 61.4689 66.5793 61.2427L66.7562 61.379C66.7156 61.205 66.7417 60.9383 66.9765 60.6367C67.4173 60.0655 68.1247 60.1728 68.6321 60.5642C69.1395 60.9557 69.4469 61.5965 68.9917 62.1909C68.7423 62.5127 68.522 62.5736 68.3219 62.5997L69.0874 63.1912C69.2236 63.2956 69.3222 63.2637 69.5136 63.0114L69.5861 63.0346L69.3367 63.7682L66.7707 61.7907C66.5967 61.6573 66.4517 61.6718 66.3067 61.8574L66.2227 61.7936V61.7907ZM68.174 62.4837C68.406 62.4895 68.5915 62.4257 68.7916 62.1648C69.1511 61.6979 68.8641 61.1673 68.4263 60.831C67.9798 60.486 67.4115 60.3555 67.049 60.8252C66.7968 61.1528 66.8692 61.3587 66.8895 61.4979L68.1711 62.4866L68.174 62.4837Z" fill="black"/>
<path d="M66.6273 63.2201C65.9749 62.6228 65.4559 62.7504 65.1282 63.1099C64.8615 63.4028 64.7745 63.7391 64.8383 64.1422L64.7455 64.1538C64.6527 63.7652 64.6556 63.3622 65.0442 62.936C65.5226 62.4141 66.2213 62.4054 66.7868 62.9244C67.3087 63.4028 67.413 64.119 66.9375 64.638C66.4823 65.1338 65.8821 65.1483 65.3254 64.638L66.6244 63.2172L66.6273 63.2201ZM65.6559 64.493C66.146 64.8989 66.5432 64.8902 66.8505 64.551C67.1434 64.2321 67.0999 63.6956 66.7317 63.3158L65.6559 64.4901V64.493Z" fill="black"/>
<path d="M64.3478 64.8447C63.968 64.7722 63.4809 64.7258 63.0662 65.1114C62.8198 65.3405 62.7647 65.6565 62.9909 65.8972C63.1503 66.0683 63.3707 66.0364 63.8781 65.7957C64.6262 65.4333 64.9103 65.471 65.1336 65.7116C65.3452 65.9407 65.2902 66.3292 64.9335 66.6627C64.7277 66.854 64.5479 66.8975 64.4725 66.9671C64.458 66.9816 64.4493 66.9961 64.4435 67.0106L64.3652 67.202L63.6577 66.8656L63.6925 66.7757C63.9129 66.8482 64.487 66.9062 64.8494 66.5699C65.0814 66.3553 65.1365 66.0944 64.9451 65.8885C64.7769 65.7058 64.516 65.8015 64.0811 66.0103C63.4258 66.3292 63.0836 66.3669 62.8082 66.0683C62.5008 65.7348 62.6661 65.297 62.9764 65.0071C63.188 64.8099 63.3823 64.7693 63.4867 64.6736C63.5041 64.6562 63.5244 64.6388 63.536 64.6127L63.6287 64.4069L64.3739 64.7751L64.3507 64.8389L64.3478 64.8447Z" fill="black"/>
<path d="M61.9716 66.0055L62.0528 66.1041C61.873 66.252 61.8208 66.3534 61.9513 66.51L62.9371 67.7104C63.0212 67.8119 63.1256 67.8525 63.346 67.6698L63.4069 67.7191L63.0415 68.3164L61.7165 66.7043C61.586 66.5477 61.499 66.5593 61.296 66.7275L61.2148 66.6289L61.9745 66.0055H61.9716ZM63.5982 69.1891C63.517 69.0906 63.5083 68.934 63.6446 68.8209C63.7867 68.7049 63.9288 68.7513 64.01 68.8499C64.0911 68.9485 64.1085 69.0993 63.9665 69.2152C63.8302 69.3283 63.6765 69.2877 63.5953 69.1891H63.5982Z" fill="black"/>
<path d="M60.7182 69.8182C60.6979 70.0153 60.6167 70.1748 60.5007 70.256C60.4138 70.3198 60.2746 70.343 60.2137 70.256C60.1499 70.169 60.1644 70.0588 60.2485 69.9979C60.3384 69.9313 60.4428 69.9719 60.5152 69.9168C60.5471 69.8936 60.5732 69.8559 60.5935 69.7921C60.4196 69.7428 60.2572 69.6326 60.147 69.4789C60.0455 69.3398 59.7179 68.8034 60.5036 68.2351C60.5819 68.1771 60.6544 68.1307 60.7791 68.0872C60.8748 67.9741 60.9328 67.8639 60.8922 67.8117C60.8603 67.7653 60.8023 67.7131 60.6341 67.7914C60.3703 67.9132 59.9933 68.1133 59.7063 68.2524C59.3728 68.4177 59.0568 68.4641 58.8625 68.1974C58.6045 67.8378 58.964 67.4087 59.5207 67.0057C60.1934 66.5215 60.5906 66.478 60.7878 66.7505C60.9299 66.9477 60.6892 67.3623 60.4891 67.5885C60.8429 67.4261 61.0024 67.4319 61.0835 67.5421C61.1734 67.6668 60.9995 67.9219 60.9067 68.0524C61.2082 68.0002 61.4982 68.1075 61.6924 68.3684C61.9911 68.7918 61.82 69.2673 61.388 69.5804C61.1038 69.7863 60.8661 69.8327 60.7153 69.8153L60.7182 69.8182ZM59.0423 67.9567C59.1438 68.0959 59.3525 68.1336 59.6657 67.977C59.8078 67.9045 59.9904 67.8175 60.2543 67.6725C60.5964 67.2869 60.637 67.0463 60.5355 66.9042C60.408 66.7273 60.0513 66.7824 59.5323 67.1564C59.1264 67.4493 58.9263 67.7943 59.0423 67.9567ZM61.4315 68.5627C61.2314 68.2872 60.8748 68.122 60.521 68.38C60.1702 68.6323 60.2137 69.0237 60.4109 69.2992C60.6109 69.5746 60.9676 69.7399 61.3184 69.4847C61.6721 69.2296 61.6315 68.8381 61.4315 68.5627Z" fill="black"/>
<path d="M58.5543 68.5719L58.621 68.6821C58.4035 68.8126 58.3716 68.9198 58.4876 69.1112L59.2502 70.387C59.3575 70.5668 59.4357 70.59 59.6648 70.4537L59.7199 70.5146L59.2705 71.0133L59.0414 70.6276C58.9457 70.9031 58.8268 71.2713 58.4702 71.4859C58.1107 71.7005 57.7772 71.5874 57.5453 71.1988L56.8726 70.0767C56.7566 69.8854 56.6348 69.868 56.4261 69.9956L56.3594 69.8854L57.2031 69.3809L57.2698 69.491C57.0611 69.6157 57.0205 69.7288 57.1364 69.9202L57.8149 71.0568C57.9599 71.3003 58.1455 71.4221 58.4383 71.2481C58.7225 71.0771 58.8616 70.8161 58.9602 70.4972L58.2267 69.2707C58.1107 69.0793 57.986 69.0648 57.7801 69.1895L57.7134 69.0793L58.5572 68.5748L58.5543 68.5719Z" fill="black"/>
<path d="M54.3158 74.9857L51.915 72.4573C51.7236 72.2341 51.5526 72.2051 51.3032 72.3066L51.2539 72.1877L52.4485 71.6948L52.4978 71.8137C52.1875 71.9412 52.0629 72.0369 52.1209 72.1819C52.1354 72.2196 52.1644 72.2631 52.2078 72.3124L52.8399 72.9764L54.2578 72.3936L54.2317 71.6078C54.223 71.5063 54.2143 71.428 54.1911 71.3729C54.1215 71.2048 53.9649 71.2135 53.6547 71.341L53.6054 71.2222L54.6318 70.7988L54.6811 70.9177C54.4231 71.025 54.3535 71.1236 54.3825 71.6136L54.5332 74.7711L54.3187 74.9857H54.3158ZM54.3535 74.5972L54.2665 72.553L52.9472 73.0952L54.3535 74.5972Z" fill="black"/>
<path d="M50.7591 71.5765L50.7968 71.6983C50.5533 71.7708 50.4953 71.8665 50.5591 72.0781L51.1999 74.2354C51.2462 74.3861 51.3361 74.4296 51.5652 74.3601L51.6058 74.4267L51.0491 74.8095L50.9708 74.5514C50.8722 74.7399 50.7098 74.911 50.3445 75.0182C49.637 75.2299 49.1528 74.7399 48.973 74.1368C48.7933 73.5366 48.9354 72.8668 49.6428 72.658C50.0082 72.5479 50.243 72.6059 50.4228 72.7073L50.2604 72.1651C50.1995 71.9564 50.0604 71.9158 49.8487 71.9796L49.8139 71.8578L50.7562 71.5765H50.7591ZM50.4837 72.8958C50.3416 72.7885 50.1589 72.6841 49.7994 72.7914C49.234 72.9596 49.1499 73.5163 49.3036 74.0382C49.4602 74.5601 49.8371 74.9892 50.4025 74.8211C50.6808 74.737 50.8345 74.6094 50.9215 74.3688L50.4837 72.8958Z" fill="black"/>
<path d="M48.2037 73.0637L48.2298 73.1884C48.0297 73.2319 47.9167 73.3247 47.9573 73.5189L48.2878 75.047C48.3255 75.2209 48.3864 75.2644 48.6415 75.2094L48.6821 75.2789L48.108 75.6588L47.9747 75.0412C47.7224 75.3717 47.4151 75.8066 47.0874 75.8791C46.9424 75.911 46.8033 75.8153 46.7772 75.7023C46.754 75.5892 46.841 75.4471 46.9859 75.4181C47.1512 75.3833 47.215 75.5109 47.3281 75.4848C47.473 75.4529 47.7253 75.1282 47.9341 74.8643L47.6586 73.5856C47.618 73.3914 47.5281 73.3421 47.2701 73.4001L47.244 73.2754L48.2037 73.0695V73.0637Z" fill="black"/>
<path d="M45.8854 73.5375L45.9057 73.6622C45.6737 73.6998 45.5809 73.7607 45.6128 73.9608L45.8564 75.4946C45.8767 75.6251 45.9463 75.7121 46.2304 75.6686L46.2565 75.7411L45.6389 76.0716L45.3113 74.0101C45.2794 73.81 45.1953 73.7752 44.9344 73.8187L44.9141 73.694L45.8854 73.5404V73.5375ZM45.6795 77.1039C45.6592 76.9792 45.7288 76.8371 45.9057 76.811C46.0855 76.782 46.1869 76.8951 46.2072 77.0198C46.2275 77.1445 46.1666 77.2836 45.9869 77.3126C45.81 77.3416 45.6998 77.2285 45.6795 77.1039Z" fill="black"/>
<path d="M44.4585 73.7554L44.473 73.8829C44.2265 73.9119 44.1511 74.0192 44.1743 74.2309L44.4904 76.9361C44.5078 77.0869 44.5948 77.1652 44.8528 77.1362L44.8818 77.2058L44.2526 77.516L43.8757 74.2686C43.8525 74.0569 43.7394 73.9728 43.4872 74.0018L43.4727 73.8742L44.4643 73.7583L44.4585 73.7554Z" fill="black"/>
<path d="M43.1032 73.9681V74.0957C42.7292 74.1073 42.6277 74.2117 42.6335 74.4611L42.7118 77.233C42.7176 77.4359 42.8365 77.5084 43.2018 77.4997V77.6273L42.2885 77.6534L41.0011 74.4987L39.9022 77.723L38.9569 77.7491V77.6215C39.36 77.6099 39.4383 77.5258 39.4325 77.3287L39.3542 74.5567C39.3484 74.3335 39.2382 74.2088 38.8555 74.2204V74.0928L40.1399 74.0551V74.1827C39.7717 74.1943 39.6644 74.3248 39.6702 74.548L39.7572 77.5548H39.8123L41.0301 73.9942H41.1113L42.5117 77.404H42.5726L42.4885 74.4668C42.4798 74.2175 42.3668 74.1189 41.9898 74.1305V74.0029L43.1003 73.971L43.1032 73.9681Z" fill="black"/>
<path d="M36.1474 74.0172C36.2663 73.8838 36.3736 73.7853 36.5737 73.7998C36.8027 73.8172 36.8346 73.9882 36.8201 74.1651C37.0492 73.9824 37.3043 73.8548 37.7132 73.8867C38.2061 73.9244 38.409 74.1999 38.3829 74.5304C38.3481 74.9827 37.7943 75.2872 36.7273 75.3684L36.6983 75.7279C36.6751 76.0324 36.8056 76.2469 37.1101 76.2701C37.4957 76.2991 37.6552 76.2063 37.7682 75.9541C37.8175 75.8468 37.8813 75.7482 38.0089 75.7569C38.1423 75.7685 38.2061 75.8526 38.1945 75.9918C38.1742 76.2469 37.7422 76.4412 37.0753 76.3919C36.6345 76.3571 36.362 76.102 36.3968 75.6612L36.5041 74.255C36.5157 74.1042 36.5099 73.9795 36.4287 73.9737C36.362 73.9679 36.2895 73.9824 36.1851 74.0723L36.1445 74.0172H36.1474ZM36.7389 75.2321C37.4261 75.2089 38.0147 74.9741 38.0495 74.5159C38.0669 74.2869 37.9074 74.1071 37.603 74.0839C37.2318 74.0549 37.0376 74.1274 36.8085 74.313L36.7389 75.2321Z" fill="black"/>
<path d="M35.8983 73.8116L35.878 73.9363C35.6779 73.9073 35.5359 73.9508 35.5069 74.1479L35.2749 75.6934C35.2488 75.8702 35.2894 75.934 35.5475 75.9717L35.562 76.05L34.8893 76.2008L34.9821 75.5774C34.6312 75.7978 34.1876 76.0964 33.8571 76.0471C33.7121 76.0239 33.6135 75.8876 33.6309 75.7717C33.6483 75.6557 33.7817 75.5571 33.9266 75.5803C34.0919 75.6064 34.1064 75.7456 34.2224 75.763C34.3674 75.7862 34.7211 75.5687 35.0082 75.3976L35.2024 74.1044C35.2314 73.9073 35.1676 73.8319 34.9038 73.7913L34.9241 73.6666L35.8954 73.8116H35.8983Z" fill="black"/>
<path d="M31.2906 73.509C31.5864 73.2365 31.9285 73.0016 32.4243 73.1118C33.0303 73.2481 33.3986 73.8801 33.2536 74.5267C33.0738 75.3212 32.3809 75.7126 31.7546 75.5706C31.3921 75.4894 30.9891 75.1936 31.0587 74.8863C31.0848 74.7732 31.1776 74.7094 31.2964 74.7355C31.4762 74.7761 31.4501 74.9269 31.4878 75.066C31.5458 75.2661 31.6212 75.4053 31.914 75.4691C32.3055 75.559 32.7462 75.2458 32.9057 74.5499C33.0477 73.9207 32.8506 73.4162 32.2939 73.2886C31.9952 73.222 31.7459 73.2684 31.3602 73.567L31.2964 73.5061L31.2906 73.509Z" fill="black"/>
<path d="M31.0027 72.8676L30.965 72.9893C30.7331 72.9168 30.6229 72.9574 30.5649 73.1401L29.753 75.7236C29.6863 75.9323 29.753 76.0077 29.9734 76.0744L29.9676 76.1585L29.2804 76.2078L29.7849 74.6043C29.5269 74.7145 29.1731 74.8711 28.773 74.7464C28.3787 74.6217 28.1873 74.3695 28.3265 73.9288L28.7527 72.5689C28.8078 72.3949 28.7295 72.2848 28.5062 72.2152L28.5439 72.0934L29.4921 72.392L29.4544 72.5138C29.2021 72.4355 29.1006 72.4877 29.0455 72.6617L28.6454 73.9346C28.5526 74.2245 28.6135 74.442 28.9789 74.558C29.3181 74.6652 29.5849 74.5783 29.8371 74.442L30.2749 73.0473C30.3329 72.8618 30.2575 72.7632 30.0198 72.6907L30.0575 72.5689L31.0056 72.8676H31.0027Z" fill="black"/>
<path d="M27.3938 71.8743C27.4488 71.7322 27.5822 71.6307 27.762 71.7003C27.9418 71.7699 27.9708 71.9352 27.9157 72.0773C27.8635 72.2135 27.733 72.3121 27.5532 72.2425C27.3735 72.173 27.3416 72.0135 27.3938 71.8772V71.8743Z" fill="black"/>
<path d="M24.5633 70.4039C24.8156 70.5025 24.9257 70.5431 25.1751 70.6301L25.0823 70.833C25.2418 70.7547 25.5085 70.7228 25.8565 70.8823C26.5118 71.1868 26.564 71.9 26.2943 72.4799C26.0247 73.0598 25.468 73.5035 24.7866 73.1903C24.4183 73.0192 24.3082 72.8192 24.2386 72.6278L23.8326 73.5064C23.7601 73.6629 23.8152 73.7499 24.1023 73.8833L24.0965 73.9587L23.3281 73.8775L24.688 70.9345C24.7808 70.7344 24.7315 70.5953 24.5198 70.4967L24.5662 70.401L24.5633 70.4039ZM24.3198 72.4596C24.3661 72.6887 24.4676 72.854 24.7692 72.9932C25.3056 73.2396 25.7579 72.8453 25.9899 72.3408C26.2276 71.8276 26.2276 71.2448 25.6912 70.9983C25.3172 70.8243 25.1287 70.9403 24.9982 70.9925L24.3198 72.4625V72.4596Z" fill="black"/>
<path d="M23.2641 71.122C23.7019 70.3508 23.4641 69.8753 23.0408 69.6346C22.6958 69.4374 22.3507 69.4287 21.968 69.5795L21.9361 69.4925C22.2956 69.3157 22.69 69.2287 23.1887 69.5157C23.8034 69.8666 23.9686 70.545 23.5859 71.2148C23.2351 71.8295 22.5595 72.0905 21.9506 71.7425C21.3678 71.4091 21.217 70.8263 21.5911 70.171L23.2641 71.1249V71.122ZM21.8085 70.4581C21.5186 71.0264 21.6172 71.4091 22.0144 71.6382C22.3913 71.8527 22.9045 71.6932 23.1916 71.2496L21.8056 70.461L21.8085 70.4581Z" fill="black"/>
<path d="M21.1675 69.2563C21.153 68.8707 21.0921 68.3836 20.6253 68.0646C20.3469 67.8732 20.028 67.8906 19.8424 68.1632C19.709 68.3575 19.7902 68.5633 20.1353 69.004C20.6514 69.6535 20.6804 69.9377 20.4919 70.2102C20.3179 70.4654 19.9236 70.5002 19.5206 70.2247C19.2886 70.0653 19.2074 69.9 19.1234 69.842C19.106 69.8304 19.0915 69.8275 19.077 69.8217L18.8711 69.7869L19.0422 69.0214L19.1378 69.0359C19.1147 69.2679 19.1871 69.8391 19.5931 70.1175C19.854 70.2972 20.1208 70.2943 20.2774 70.0624C20.4194 69.8565 20.2687 69.6245 19.9671 69.2447C19.5119 68.6735 19.4017 68.3517 19.6308 68.0153C19.8859 67.6413 20.3527 67.708 20.7007 67.9457C20.9413 68.111 21.0196 68.2879 21.1385 68.3691C21.1588 68.3836 21.1791 68.398 21.2081 68.4038L21.4285 68.4502L21.2313 69.2592L21.1646 69.2505L21.1675 69.2563Z" fill="black"/>
<path d="M16.7726 69.4921C16.8508 69.3906 17.0016 69.3471 17.1408 69.4573C17.2858 69.5704 17.2713 69.7211 17.193 69.8197C17.1147 69.9212 16.9726 69.9705 16.8276 69.8574C16.6856 69.7472 16.6914 69.5907 16.7697 69.4921H16.7726ZM19.5184 67.2015L19.4401 67.303C19.2545 67.158 19.1472 67.1319 19.0226 67.2943L18.0686 68.5208C17.9874 68.6251 17.9729 68.7353 18.1962 68.9122L18.1614 68.9818L17.4974 68.7556L18.779 67.1058C18.9037 66.9434 18.8718 66.8622 18.663 66.6999L18.7413 66.5984L19.5184 67.2015Z" fill="black"/>
<path d="M15.5184 66.8145C15.3212 66.8377 15.1501 66.7942 15.0428 66.6985C14.9616 66.6289 14.9066 66.4985 14.979 66.4173C15.0515 66.3361 15.1617 66.3274 15.2371 66.3941C15.3212 66.4695 15.3067 66.5767 15.3734 66.6376C15.4053 66.6637 15.4459 66.6811 15.5126 66.6869C15.5242 66.5071 15.5937 66.3245 15.7184 66.1824C15.8344 66.0519 16.2809 65.6141 17.0116 66.2578C17.0841 66.3216 17.145 66.3825 17.2175 66.4927C17.3479 66.5593 17.4697 66.5912 17.5132 66.5419C17.5509 66.5013 17.5886 66.4318 17.4755 66.2839C17.2986 66.0519 17.0203 65.7301 16.8202 65.4807C16.5854 65.1937 16.4694 64.8921 16.6897 64.6457C16.9826 64.3151 17.4813 64.5703 17.9974 65.0255C18.6179 65.5735 18.7455 65.9533 18.5251 66.2056C18.3628 66.3883 17.9075 66.2433 17.6437 66.0983C17.8785 66.4086 17.9104 66.5651 17.8206 66.6666C17.7191 66.7797 17.432 66.6666 17.2841 66.6057C17.403 66.887 17.3595 67.1972 17.1479 67.4437C16.7999 67.8293 16.2983 67.7655 15.8982 67.4118C15.6343 67.1798 15.5386 66.9566 15.5213 66.8087L15.5184 66.8145ZM16.9014 67.2349C17.1276 66.9798 17.2088 66.597 16.8811 66.3071C16.5564 66.02 16.1852 66.1476 15.9591 66.4028C15.7329 66.6579 15.6517 67.0407 15.9765 67.3277C16.3041 67.6177 16.6753 67.4901 16.9014 67.2349ZM16.9652 64.7704C16.8492 64.9008 16.8608 65.1125 17.0812 65.3821C17.1827 65.5068 17.3073 65.6634 17.5103 65.8896C17.9626 66.1389 18.2062 66.1244 18.3222 65.9939C18.4671 65.8287 18.3338 65.4952 17.8553 65.0719C17.4813 64.7414 17.0986 64.6196 16.9681 64.7704H16.9652Z" fill="black"/>
<path d="M16.2559 64.4309L16.1631 64.5179C15.9862 64.3352 15.876 64.3265 15.7137 64.4831L14.6379 65.5095C14.4872 65.6545 14.4814 65.7356 14.664 65.927L14.6147 65.9937L14.029 65.6661L14.3538 65.3558C14.0638 65.3239 13.6782 65.2891 13.3912 64.9876C13.1012 64.686 13.1389 64.3323 13.4665 64.022L14.4118 63.1174C14.5741 62.9637 14.5626 62.839 14.3944 62.6622L14.4872 62.5752L15.1656 63.2856L15.0729 63.3726C14.9047 63.1957 14.7858 63.1812 14.6234 63.3378L13.6666 64.2511C13.4607 64.4483 13.3825 64.6541 13.6202 64.9006C13.8493 65.1412 14.1363 65.2195 14.4698 65.2427L15.5049 64.254C15.6673 64.1003 15.6528 63.9727 15.4875 63.7988L15.5803 63.7118L16.2588 64.4222L16.2559 64.4309Z" fill="black"/>
<path d="M9.0625 61.7204L10.9965 58.818C11.1733 58.5832 11.1617 58.4092 11.0081 58.1888L11.1124 58.1163L11.8576 59.1717L11.7532 59.2442C11.559 58.9688 11.4372 58.8673 11.3096 58.9601C11.2777 58.9833 11.24 59.021 11.2023 59.0732L10.6949 59.8357L11.5764 61.0883L12.3389 60.8883C12.4346 60.8564 12.51 60.8303 12.5593 60.7955C12.7101 60.6911 12.6666 60.5403 12.4723 60.2649L12.5767 60.1924L13.2175 61.0999L13.1131 61.1724C12.9507 60.9433 12.8376 60.8998 12.3708 61.0361L9.32635 61.8828L9.0683 61.7204H9.0625ZM9.45103 61.6711L11.4256 61.1318L10.605 59.9662L9.45103 61.6711Z" fill="black"/>
<path d="M11.5966 57.4896L11.4864 57.5534C11.3617 57.333 11.2545 57.2982 11.0631 57.4055L9.10303 58.5131C8.96675 58.5914 8.94645 58.69 9.06243 58.8988L9.00444 58.9539L8.50863 58.4986L8.74349 58.3653C8.53762 58.3131 8.33466 58.1913 8.14909 57.8607C7.78666 57.2171 8.15199 56.6372 8.7029 56.3269C9.248 56.0196 9.93228 56.008 10.2947 56.6488C10.4832 56.9822 10.4774 57.2229 10.4194 57.42L10.9123 57.1417C11.1037 57.0344 11.1095 56.8894 11.0022 56.7009L11.1124 56.6372L11.5966 57.4925V57.4896ZM10.2483 57.5157C10.3208 57.3533 10.3817 57.1533 10.199 56.8256C9.90909 56.3124 9.34658 56.353 8.87397 56.6227C8.40135 56.8923 8.06501 57.3533 8.35496 57.8694C8.49703 58.1217 8.6594 58.2406 8.91166 58.2754L10.2512 57.5186L10.2483 57.5157Z" fill="black"/>
<path d="M9.57926 55.333L9.46328 55.3881C9.3763 55.2025 9.26032 55.1127 9.08055 55.1967L7.6656 55.8607C7.50323 55.9361 7.47423 56.0057 7.58441 56.2406L7.52642 56.2956L7.02771 55.8201L7.59891 55.5534C7.22197 55.3823 6.72616 55.1793 6.58408 54.8749C6.5203 54.7415 6.58408 54.582 6.68847 54.5328C6.79575 54.4835 6.94942 54.5386 7.01321 54.6719C7.0857 54.8227 6.97552 54.9155 7.02481 55.0199C7.0886 55.1532 7.45973 55.3272 7.76418 55.4722L8.95007 54.9184C9.12984 54.8343 9.15594 54.7357 9.04576 54.498L9.16174 54.4429L9.57926 55.333Z" fill="black"/>
<path d="M5.07 53.774C5.18888 53.7276 5.33966 53.7653 5.40635 53.9306C5.47593 54.1016 5.38605 54.2234 5.27007 54.2698C5.15119 54.3162 5.00332 54.2901 4.93373 54.119C4.86704 53.9538 4.95112 53.8204 5.07 53.774ZM8.59289 53.1767L8.47401 53.2231C8.38703 53.0056 8.30584 52.9274 8.11737 53.0056L6.67632 53.5855C6.55455 53.6348 6.48496 53.7218 6.59224 53.9886L6.52845 54.0321L6.06743 53.5043L8.00139 52.7244C8.18986 52.649 8.20436 52.5591 8.10578 52.3156L8.22466 52.2692L8.59289 53.1796V53.1767Z" fill="black"/>
<path d="M8.06884 51.8406L7.94996 51.8841C7.86587 51.6492 7.74699 51.5999 7.54403 51.6724L4.97797 52.5799C4.833 52.6321 4.77791 52.7307 4.86489 52.9772L4.804 53.0207L4.36328 52.4756L7.44255 51.3853C7.64551 51.3129 7.7006 51.1853 7.61652 50.9446L7.7354 50.9011L8.06884 51.8406Z" fill="black"/>
<path d="M7.55463 50.5664L7.42995 50.5983C7.33716 50.233 7.20959 50.1547 6.96893 50.2185L4.28399 50.9115C4.08683 50.9608 4.04334 51.0941 4.13322 51.4508L4.01144 51.4827L3.78238 50.5954L6.5746 48.6412L3.18798 48.2845L2.95312 47.3683L3.0749 47.3364C3.17639 47.7307 3.27497 47.7887 3.46924 47.7394L6.15417 47.0465C6.37163 46.9914 6.46731 46.8551 6.37163 46.4869L6.49341 46.455L6.81525 47.7017L6.69348 47.7336C6.60069 47.3741 6.44992 47.2987 6.23246 47.3538L3.31846 48.1048L3.33296 48.1599L7.07331 48.5571L7.09361 48.6354L4.07813 50.7578L4.09263 50.8158L6.93703 50.0822C7.17769 50.0213 7.25018 49.8851 7.1545 49.5226L7.27917 49.4907L7.55753 50.5693L7.55463 50.5664Z" fill="black"/>
<path d="M5.97349 43.7926C6.13007 43.8767 6.24894 43.9636 6.27794 44.1579C6.30983 44.3841 6.15036 44.4537 5.97639 44.4798C6.20255 44.6624 6.38522 44.8828 6.44321 45.2916C6.5157 45.7787 6.28954 46.0397 5.96189 46.0861C5.51537 46.1528 5.09495 45.6772 4.7818 44.6537L4.42516 44.7059C4.12361 44.7494 3.94385 44.9263 3.98734 45.2278C4.04243 45.6106 4.17001 45.7468 4.43966 45.799C4.55564 45.8222 4.66582 45.8628 4.68322 45.9904C4.70351 46.1209 4.63103 46.205 4.49475 46.2224C4.24249 46.26 3.95544 45.8802 3.85976 45.2191C3.79597 44.7813 3.98444 44.4595 4.42226 44.3957L5.81692 44.1927C5.96769 44.1695 6.08657 44.1376 6.07498 44.0564C6.06628 43.9897 6.03438 43.9231 5.9242 43.8419L5.96769 43.7897L5.97349 43.7926ZM4.91808 44.6363C5.09205 45.3003 5.45158 45.8222 5.90391 45.7584C6.13007 45.7265 6.27214 45.5294 6.22865 45.2278C6.17646 44.8596 6.06338 44.6856 5.83142 44.503L4.92098 44.6363H4.91808Z" fill="black"/>
<path d="M6.11504 43.5029L5.98746 43.5116C5.97296 43.3086 5.89758 43.181 5.70041 43.1955L4.14338 43.3086C3.96651 43.3202 3.91432 43.3753 3.93172 43.6362L3.85633 43.6681L3.56058 43.0476L4.18977 43.0012C3.89693 42.7055 3.50839 42.3402 3.4852 42.0067C3.4736 41.8588 3.58668 41.7342 3.70556 41.7255C3.82444 41.7168 3.94622 41.824 3.95781 41.9719C3.96941 42.1401 3.83604 42.1836 3.84473 42.3025C3.85633 42.4503 4.14338 42.7461 4.37534 42.9896L5.68012 42.894C5.87728 42.8795 5.93817 42.7983 5.92077 42.5344L6.04835 42.5257L6.11794 43.5058L6.11504 43.5029Z" fill="black"/>
<path d="M5.37787 38.969C5.71132 39.1922 6.02156 39.4677 6.03026 39.9751C6.04186 40.5956 5.51415 41.103 4.85307 41.1146C4.03831 41.1291 3.4961 40.5463 3.4845 39.9055C3.4787 39.5344 3.67007 39.0733 3.98322 39.0675C4.0992 39.0675 4.18328 39.14 4.18618 39.2618C4.18618 39.4445 4.03541 39.4561 3.91073 39.5257C3.72806 39.6301 3.61498 39.7344 3.61788 40.0331C3.62368 40.4361 4.03251 40.7898 4.74578 40.7782C5.39237 40.7667 5.83599 40.4535 5.8244 39.8852C5.8186 39.5808 5.71422 39.3488 5.33148 39.0444L5.37497 38.9661L5.37787 38.969Z" fill="black"/>
<path d="M5.96107 38.5245L5.83349 38.5129C5.85379 38.2693 5.79 38.1737 5.59574 38.1563L2.89631 37.9388C2.67884 37.9214 2.62085 38.0026 2.60346 38.2316L2.51937 38.2461L2.31641 37.5851L3.99232 37.7184C3.82704 37.4894 3.59508 37.182 3.62988 36.7645C3.66177 36.3528 3.86764 36.1092 4.32866 36.1469L5.74941 36.26C5.93208 36.2745 6.02196 36.1759 6.03936 35.941L6.16694 35.9497L6.08865 36.9385L5.96107 36.9269C5.98137 36.663 5.90888 36.576 5.72331 36.5615L4.39534 36.4543C4.0909 36.4311 3.89373 36.5354 3.86184 36.9182C3.83284 37.2748 3.97782 37.5155 4.16339 37.73L5.61893 37.846C5.8132 37.8605 5.89148 37.7648 5.91178 37.5184L6.03936 37.53L5.96107 38.5187V38.5245Z" fill="black"/>
<path d="M6.12294 34.777C6.27372 34.8002 6.40129 34.9046 6.3752 35.096C6.3462 35.2873 6.19543 35.3511 6.04176 35.3308C5.89678 35.3105 5.7721 35.2032 5.8011 35.0119C5.83009 34.8205 5.97797 34.7538 6.12294 34.7741V34.777Z" fill="black"/>
<path d="M6.92278 31.696C6.88218 31.9627 6.86769 32.0787 6.83869 32.3455L6.61833 32.2991C6.72851 32.4382 6.82129 32.6905 6.74301 33.0645C6.59513 33.772 5.91085 33.9808 5.28166 33.8503C4.65247 33.7169 4.09867 33.2733 4.25234 32.5397C4.33643 32.1425 4.5075 31.9888 4.67857 31.8786L3.73333 31.6786C3.56516 31.6438 3.49267 31.7163 3.42598 32.0236L3.3506 32.0352L3.25781 31.2668L6.42986 31.9337C6.64442 31.9801 6.7691 31.9018 6.81839 31.6728L6.92278 31.696ZM4.86413 31.9163C4.65247 32.012 4.51329 32.1483 4.44371 32.473C4.32193 33.05 4.80904 33.4038 5.35415 33.5169C5.90795 33.6328 6.47625 33.5024 6.59803 32.9254C6.68212 32.5223 6.52844 32.3658 6.45016 32.2498L4.86703 31.9163H4.86413Z" fill="black"/>
<path d="M5.93504 30.58C6.78169 30.8351 7.19342 30.4988 7.33549 30.029C7.45147 29.6492 7.38189 29.31 7.14993 28.9736L7.22821 28.9243C7.48047 29.2346 7.65154 29.5999 7.48337 30.1508C7.2775 30.8293 6.65411 31.1396 5.91764 30.9163C5.24206 30.7104 4.83613 30.1102 5.04199 29.4376C5.23626 28.7939 5.76977 28.5213 6.49174 28.7388L5.93504 30.58ZM6.25978 29.0142C5.64219 28.8606 5.28845 29.0403 5.15797 29.4781C5.03329 29.8928 5.30295 30.3567 5.79876 30.5394L6.25978 29.0142Z" fill="black"/>
<path d="M7.28622 28.1345C7.66025 28.036 8.11837 27.8678 8.32714 27.3401C8.44892 27.0269 8.36483 26.7196 8.05749 26.5978C7.84002 26.5108 7.65446 26.6355 7.30072 27.0704C6.78171 27.7199 6.51205 27.8098 6.20471 27.688C5.91476 27.5749 5.79588 27.198 5.97565 26.7457C6.07713 26.4847 6.2221 26.3688 6.2598 26.2731C6.2685 26.2557 6.2685 26.2383 6.2685 26.2209L6.2569 26.015H7.03976L7.04556 26.1078C6.8165 26.1368 6.2714 26.334 6.09163 26.7921C5.97565 27.0849 6.03654 27.3459 6.29749 27.4474C6.52945 27.5401 6.72082 27.3401 7.02526 26.9631C7.48049 26.3919 7.77044 26.2122 8.15027 26.3601C8.5707 26.5253 8.61129 26.995 8.45472 27.3894C8.34744 27.659 8.19086 27.7779 8.13867 27.9113C8.12997 27.9345 8.12127 27.9577 8.12127 27.9867V28.2128L7.29202 28.2012L7.28622 28.1345Z" fill="black"/>
<path d="M6.08698 23.8871C6.20296 23.9422 6.27834 24.0785 6.20296 24.238C6.12467 24.4032 5.9768 24.4235 5.86082 24.3713C5.74484 24.3162 5.66365 24.1887 5.74194 24.0234C5.81732 23.861 5.971 23.832 6.08698 23.8871ZM8.92558 26.0559L8.8096 26.0009C8.90819 25.7892 8.91109 25.6761 8.72552 25.592L7.31926 24.9338C7.20038 24.8787 7.0873 24.8874 6.96842 25.1455L6.89304 25.1281L6.96552 24.4322L8.856 25.3166C9.04156 25.4036 9.11405 25.3514 9.22713 25.1136L9.34311 25.1687L8.92848 26.0588L8.92558 26.0559Z" fill="black"/>
<path d="M8.41611 22.0754C8.34942 21.8899 8.35522 21.7101 8.4219 21.5854C8.4741 21.4926 8.58718 21.4085 8.68286 21.4607C8.77854 21.5129 8.81044 21.6173 8.76115 21.7072C8.70606 21.8058 8.59877 21.8145 8.55528 21.8957C8.53499 21.9305 8.52919 21.9739 8.53788 22.0435C8.71765 22.0145 8.90902 22.0435 9.07429 22.1334C9.22506 22.2175 9.75277 22.5567 9.28595 23.4092C9.23956 23.4933 9.19317 23.5687 9.10039 23.6615C9.06269 23.8035 9.05979 23.9282 9.11778 23.9601C9.16708 23.9862 9.24246 24.0094 9.36134 23.8673C9.54691 23.6441 9.79917 23.299 9.99923 23.0497C10.2283 22.7568 10.495 22.577 10.785 22.7365C11.1735 22.9482 11.0315 23.4933 10.7038 24.0964C10.3066 24.8242 9.96444 25.0329 9.67159 24.8705C9.45702 24.7546 9.49762 24.2761 9.5817 23.9862C9.33235 24.2848 9.18447 24.3486 9.06559 24.2848C8.93222 24.2124 8.97861 23.905 9.0047 23.7484C8.75535 23.9253 8.4451 23.9543 8.15805 23.8006C7.70573 23.5484 7.65644 23.0439 7.91159 22.577C8.07976 22.2697 8.27403 22.1247 8.41611 22.0754ZM8.31172 23.5165C8.61037 23.6789 9.0018 23.6731 9.21347 23.2903C9.42223 22.9105 9.21347 22.577 8.91482 22.4147C8.61617 22.2523 8.22474 22.2581 8.01598 22.6379C7.80721 23.0207 8.01308 23.3541 8.31172 23.5194V23.5165ZM10.727 23.0352C10.5762 22.9511 10.3704 23.0091 10.1558 23.2845C10.0572 23.4092 9.93254 23.5687 9.75567 23.8151C9.6107 24.3109 9.68029 24.5458 9.83396 24.6299C10.0253 24.7343 10.324 24.5313 10.6313 23.9688C10.872 23.531 10.9039 23.1308 10.7299 23.0352H10.727Z" fill="black"/>
<path d="M10.8993 22.2701L10.792 22.2006C10.9341 21.9889 10.9138 21.8787 10.7282 21.754L9.49014 20.9335C9.31617 20.8175 9.23498 20.832 9.08711 21.0524L9.01172 21.0205L9.20019 20.3768L9.57422 20.6232C9.54233 20.3333 9.49014 19.9505 9.7192 19.6026C9.95116 19.2547 10.302 19.2141 10.6789 19.4634L11.7691 20.1854C11.9547 20.3101 12.0736 20.2695 12.207 20.0665L12.3142 20.1361L11.772 20.9538L11.6648 20.8842C11.801 20.6812 11.7865 20.5623 11.601 20.4377L10.4992 19.707C10.2614 19.5504 10.0439 19.5214 9.85547 19.8056C9.6728 20.081 9.65831 20.3768 9.7076 20.7102L10.8993 21.5018C11.0849 21.6265 11.2066 21.583 11.3371 21.3829L11.4444 21.4525L10.9022 22.2701H10.8993Z" fill="black"/>
<path d="M11.957 14.6579L15.2131 15.9018C15.4827 16.0207 15.648 15.9743 15.8307 15.7713L15.9264 15.8554L15.0623 16.8152L14.9666 16.7311C15.1928 16.4817 15.2624 16.3396 15.1464 16.2353C15.1174 16.2092 15.071 16.1831 15.013 16.157L14.1577 15.8293L13.1312 16.9659L13.4937 17.6647C13.5459 17.7517 13.5894 17.8184 13.6329 17.859C13.7691 17.9808 13.9054 17.9054 14.1287 17.656L14.2244 17.7401L13.4821 18.5636L13.3864 18.4795C13.5749 18.2707 13.5923 18.1518 13.3545 17.7256L11.8555 14.9421L11.957 14.655V14.6579ZM12.0903 15.0262L13.053 16.8326L14.0069 15.7742L12.0903 15.0262Z" fill="black"/>
<path d="M16.6413 16.1914L16.5572 16.0957C16.7457 15.9246 16.7544 15.8144 16.6065 15.652L15.0929 13.9848C14.9857 13.8689 14.8871 13.8718 14.7073 14.0312L14.6406 13.9877L14.9741 13.402L15.1567 13.6021C15.1625 13.3904 15.235 13.1672 15.5192 12.9091C16.0643 12.4133 16.7138 12.6424 17.14 13.1092C17.5604 13.5731 17.7228 14.2371 17.1777 14.7329C16.8964 14.991 16.6587 15.0403 16.4528 15.0258L16.8326 15.4433C16.9805 15.6057 17.1226 15.5796 17.285 15.4317L17.3691 15.5245L16.6413 16.1856V16.1914ZM16.3194 14.8808C16.4934 14.9156 16.7022 14.9301 16.9805 14.6778C17.4183 14.2806 17.2531 13.7442 16.8848 13.3383C16.5195 12.9352 15.9918 12.712 15.554 13.1092C15.3394 13.3035 15.2582 13.489 15.2814 13.7413L16.3165 14.8808H16.3194Z" fill="black"/>
<path d="M18.298 13.745L18.2197 13.6435C18.3792 13.5188 18.443 13.3854 18.3212 13.2289L17.3615 11.9966C17.2513 11.8574 17.1788 11.8429 16.9729 12.0024L16.9062 11.9589L17.26 11.3674L17.6485 11.8661C17.7326 11.4602 17.8196 10.9325 18.0834 10.7266C18.1994 10.6367 18.3676 10.6599 18.4401 10.7527C18.5126 10.8455 18.4923 11.0079 18.3763 11.1006C18.2429 11.205 18.1298 11.118 18.04 11.1905C17.924 11.2804 17.837 11.6834 17.7645 12.0111L18.5677 13.0433C18.6894 13.1999 18.7909 13.2057 18.9997 13.0433L19.078 13.1448L18.3038 13.7479L18.298 13.745Z" fill="black"/>
<path d="M18.8114 9.00382C18.8839 9.1082 18.881 9.26478 18.736 9.36626C18.5853 9.47064 18.4461 9.41265 18.3736 9.30827C18.3011 9.20389 18.2953 9.05311 18.4461 8.94873C18.5911 8.84725 18.7418 8.89944 18.8143 9.00382H18.8114ZM20.1771 12.3092L20.1046 12.2049C20.296 12.0715 20.354 11.9758 20.238 11.8076L19.3507 10.5319C19.2753 10.4217 19.1739 10.3753 18.939 10.5377L18.8839 10.4826L19.2956 9.91716L20.4873 11.6308C20.6033 11.7989 20.6932 11.7931 20.9107 11.6424L20.9832 11.7467L20.1771 12.3063V12.3092Z" fill="black"/>
<path d="M21.3682 11.4936L21.2986 11.3863C21.5102 11.253 21.5305 11.1254 21.4175 10.9456L19.959 8.64341C19.8778 8.51583 19.7676 8.48104 19.5473 8.62022L19.4922 8.57092L19.9271 8.02002L21.6755 10.7803C21.7886 10.9601 21.9278 10.9891 22.1423 10.8528L22.2119 10.9601L21.3682 11.4936Z" fill="black"/>
<path d="M22.4952 10.7135L22.4372 10.6005C22.7707 10.4265 22.82 10.2873 22.704 10.0669L21.4311 7.60238C21.3383 7.42261 21.1991 7.40811 20.8744 7.57628L20.8164 7.4632L21.6312 7.04277L24.1595 9.32758L23.7536 5.94677L24.5944 5.51184L24.6524 5.62492C24.29 5.81049 24.2552 5.92067 24.348 6.09754L25.6209 8.56211C25.7224 8.76218 25.876 8.82596 26.2153 8.6491L26.2733 8.76218L25.128 9.35367L25.07 9.24059C25.4005 9.06952 25.4411 8.90425 25.3396 8.70709L23.9595 6.03375L23.9102 6.05985L24.3567 9.7944L24.2842 9.83209L21.5442 7.36462L21.4891 7.39361L22.8374 10.0032C22.9533 10.2235 23.0983 10.2641 23.4318 10.0901L23.4897 10.2032L22.4981 10.7135H22.4952Z" fill="black"/>
<path d="M28.742 7.66002C28.6928 7.83109 28.6377 7.96737 28.4521 8.03986C28.2375 8.12394 28.136 7.98186 28.0694 7.81659C27.9418 8.07755 27.7678 8.30371 27.3822 8.45448C26.9212 8.63425 26.6196 8.47188 26.5007 8.16453C26.3384 7.74121 26.7066 7.228 27.6315 6.69449L27.5011 6.35815C27.3909 6.074 27.1792 5.93772 26.8951 6.0479C26.5355 6.18708 26.4311 6.34365 26.4398 6.6162C26.4398 6.73508 26.4282 6.85106 26.3094 6.89745C26.1847 6.94675 26.089 6.89745 26.0397 6.76698C25.9469 6.52922 26.2543 6.16678 26.8748 5.92322C27.2865 5.76375 27.6431 5.87683 27.8026 6.28856L28.3129 7.60203C28.368 7.74411 28.426 7.85139 28.5014 7.82239C28.5623 7.7992 28.6232 7.7528 28.6783 7.62813L28.7391 7.66002H28.742ZM27.6866 6.81917C27.0777 7.13811 26.6486 7.60493 26.8139 8.03116C26.898 8.24572 27.1183 8.3385 27.4025 8.22832C27.7475 8.09495 27.8925 7.94417 28.0172 7.67742L27.6837 6.81917H27.6866Z" fill="black"/>
<path d="M29.0663 7.73137L29.0286 7.60959C29.2229 7.5487 29.3302 7.44722 29.2722 7.25875L28.8141 5.76551C28.7619 5.59444 28.6981 5.55675 28.4487 5.63213L28.4023 5.56545L28.9417 5.13922L29.1272 5.74231C29.3505 5.39148 29.6201 4.93046 29.9391 4.83187C30.0812 4.78838 30.229 4.87247 30.2609 4.98265C30.2928 5.09283 30.2174 5.2407 30.0754 5.28419C29.9159 5.33349 29.8405 5.21171 29.7274 5.2465C29.5853 5.28999 29.3621 5.63503 29.1765 5.91628L29.5592 7.16597C29.6172 7.35443 29.71 7.39503 29.9623 7.31964L30 7.44142L29.0605 7.72847L29.0663 7.73137Z" fill="black"/>
<path d="M33.3387 6.02346C33.1879 6.39749 32.9821 6.75703 32.4862 6.87011C31.8802 7.00639 31.2743 6.59756 31.1293 5.95097C30.9495 5.15651 31.4076 4.50412 32.031 4.36205C32.3935 4.28086 32.8835 4.37074 32.9531 4.67809C32.9792 4.79117 32.9241 4.88975 32.8023 4.91585C32.6225 4.95644 32.579 4.80857 32.4862 4.70129C32.3471 4.54471 32.2195 4.45483 31.9295 4.52152C31.5381 4.6114 31.2743 5.08402 31.4308 5.777C31.5729 6.40619 31.9701 6.77733 32.5268 6.64975C32.8255 6.58306 33.0313 6.43229 33.2488 5.99446L33.3329 6.02346H33.3387Z" fill="black"/>
<path d="M33.8777 6.47805L33.8603 6.35338C34.101 6.31858 34.1822 6.2345 34.1561 6.04313L33.7734 3.3611C33.7415 3.14363 33.6487 3.10594 33.4225 3.13783L33.3906 3.05955L33.9908 2.71741L34.2286 4.38172C34.4141 4.17005 34.6664 3.87721 35.0781 3.81922C35.487 3.76123 35.7682 3.9062 35.8349 4.36432L36.035 5.77638C36.0611 5.95904 36.177 6.02283 36.409 5.99094L36.4264 6.11562L35.4435 6.25479L35.4261 6.13011C35.687 6.09242 35.7566 5.99964 35.7305 5.81987L35.5421 4.5006C35.4986 4.19905 35.3507 4.02798 34.9737 4.08307C34.62 4.13236 34.417 4.32663 34.2489 4.55569L34.4547 6.00254C34.4808 6.1939 34.5939 6.24899 34.8404 6.2142L34.8578 6.33888L33.8748 6.47805H33.8777Z" fill="black"/>
<path d="M39.9961 10.6193V69.3776" stroke="black" stroke-width="0.362437" stroke-miterlimit="10"/>
<path d="M39.9961 10.6193V69.3776" stroke="black" stroke-width="0.362437" stroke-miterlimit="10"/>
<path d="M32.3945 11.62L47.6024 68.3776" stroke="black" stroke-width="0.362437" stroke-miterlimit="10"/>
<path d="M25.3086 14.5537L54.6892 65.4428" stroke="black" stroke-width="0.362437" stroke-miterlimit="10"/>
<path d="M19.2188 19.2229L60.7685 60.7727" stroke="black" stroke-width="0.362437" stroke-miterlimit="10"/>
<path d="M14.5547 25.3082L65.4438 54.6888" stroke="black" stroke-width="0.362437" stroke-miterlimit="10"/>
<path d="M11.6211 32.3943L68.3787 47.6021" stroke="black" stroke-width="0.362437" stroke-miterlimit="10"/>
<path d="M10.6172 39.9972H69.3755" stroke="black" stroke-width="0.362437" stroke-miterlimit="10"/>
<path d="M11.6211 47.6021L68.3787 32.3943" stroke="black" stroke-width="0.362437" stroke-miterlimit="10"/>
<path d="M14.5547 54.6888L65.4438 25.3082" stroke="black" stroke-width="0.362437" stroke-miterlimit="10"/>
<path d="M19.2188 60.7727L60.7685 19.2229" stroke="black" stroke-width="0.362437" stroke-miterlimit="10"/>
<path d="M25.3086 65.4428L54.6892 14.5537" stroke="black" stroke-width="0.362437" stroke-miterlimit="10"/>
<path d="M32.3945 68.3776L47.6024 11.62" stroke="black" stroke-width="0.362437" stroke-miterlimit="10"/>
</g>
<rect x="0.5" y="0.5" width="79" height="79" rx="39.5" stroke="black"/>
<defs>
<clipPath id="clip0_1089_22913">
<rect width="80" height="80" rx="40" fill="white"/>
</clipPath>
</defs>
</svg>
