<svg width="1491" height="242" viewBox="0 0 1491 242" fill="none" xmlns="http://www.w3.org/2000/svg">
<path d="M1490.25 120.677C1490.25 136.891 1476.45 152.572 1450.9 166.995C1425.4 181.383 1388.46 194.365 1342.75 205.277C1251.33 227.098 1125.01 240.601 985.441 240.601C845.876 240.601 719.548 227.098 628.132 205.277C582.418 194.365 545.477 181.383 519.982 166.995C494.426 152.572 480.635 136.891 480.635 120.677C480.635 104.462 494.426 88.7816 519.982 74.3592C545.477 59.9712 582.418 46.9892 628.132 36.0773C719.548 14.2563 845.876 0.752378 985.441 0.752378C1125.01 0.752378 1251.33 14.2563 1342.75 36.0773C1388.46 46.9892 1425.4 59.9712 1450.9 74.3592C1476.45 88.7816 1490.25 104.462 1490.25 120.677Z" stroke="#E0E0E0" stroke-width="1.50476"/>
<path d="M832.318 28.5813V94.7155C833.433 94.2538 834.145 94.1384 834.568 93.7537C860.303 69.6507 898.328 79.1726 907.964 112.74C913.619 132.438 912.753 152.251 900.482 169.756C886.749 189.339 864.496 193.628 840.704 186.722C839.492 186.376 838.319 185.818 837.145 185.337C820.066 178.528 819.373 177.528 819.373 159.388C819.373 122.089 819.373 84.7896 819.373 47.4906C819.373 36.5836 817.123 34.0252 806.506 32.4093C805.14 32.1977 803.909 31.1398 802.602 30.4665C803.871 29.8317 805.121 28.6775 806.41 28.6583C814.796 28.4851 823.182 28.5813 832.318 28.5813ZM896.212 134.361C896.212 131.861 896.328 128.764 896.193 125.686C895.135 102.66 879.94 88.2714 858.437 89.8295C842.858 90.9645 832.472 102.083 832.472 117.626C832.472 133.246 832.702 148.885 832.356 164.505C832.222 170.833 834.895 174.834 840.03 177.758C856.052 186.857 876.478 182.644 887.634 167.967C895.097 158.157 896.77 146.846 896.212 134.361Z" fill="#E0E0E0"/>
<path d="M575.543 167.141C578.004 156.791 580.505 146.462 582.948 136.113C590.026 106.046 597.181 75.9993 604.047 45.8946C605.028 41.5857 606.913 40.0468 611.087 40.6431C612.337 40.8162 613.664 40.8355 614.914 40.6431C619.126 39.9891 620.876 41.7011 621.934 45.8946C631.763 85.0019 641.822 124.071 651.843 163.139C652.227 164.64 652.785 166.083 654.228 167.621C656.267 159.042 658.363 150.482 660.344 141.903C666.884 113.587 673.385 85.2519 679.866 56.917C681.732 48.7608 679.789 45.9715 671.48 44.4519C669.999 44.1826 668.615 43.4516 667.191 42.9322C667.307 42.3936 667.422 41.8742 667.537 41.3356H706.101C706.274 41.6819 706.447 42.0281 706.62 42.3744C705.543 43.0284 704.447 44.2403 703.37 44.221C693.888 44.0864 689.656 49.8573 687.598 57.9749C682.117 79.8273 676.693 101.68 671.327 123.551C666.172 144.538 661.133 165.544 656.074 186.377C655.516 186.685 655.209 186.973 654.901 186.992C642.899 187.704 642.841 187.723 639.86 176.182C630.205 138.902 620.607 101.583 610.971 64.3037C610.49 62.4378 609.932 60.5911 608.144 58.7252C602.989 80.0966 597.796 101.449 592.661 122.82C587.525 144.173 582.428 165.525 577.312 186.935H563.868C560.694 174.066 557.501 161.216 554.347 148.385C547.077 118.935 539.787 89.4839 532.555 60.014C530.478 51.5693 527.458 44.2403 516.86 44.1249C516.168 44.1249 515.495 42.9322 514.148 41.6819C516.11 41.201 517.226 40.7008 518.341 40.7008C530.574 40.6431 542.807 40.6046 555.02 40.7393C556.347 40.7393 557.655 41.855 558.963 42.4321C557.694 43.0861 556.463 44.1441 555.116 44.3365C547.115 45.5099 545.096 47.5104 546.73 54.3008C555.636 91.3883 564.714 128.437 573.754 165.505C573.869 166.025 574.139 166.506 574.35 166.987C574.754 167.025 575.139 167.064 575.543 167.102V167.141Z" fill="#E0E0E0"/>
<path d="M1179.44 186.873H1137.47L1136.7 185.469C1138.05 184.7 1139.34 183.43 1140.78 183.257C1148.92 182.237 1150.38 180.448 1148.13 172.639C1145.3 162.866 1142.32 153.133 1139.05 143.496C1138.55 142.053 1136.11 140.341 1134.55 140.322C1119.95 140.072 1105.35 140.245 1090.75 140.11C1087.93 140.091 1086.5 140.976 1085.67 143.726C1082.73 153.652 1079.46 163.482 1076.56 173.427C1074.71 179.756 1077.14 182.257 1085.14 183.161C1087.1 183.392 1088.98 184.276 1090.91 184.873C1090.73 185.488 1090.56 186.123 1090.39 186.739H1050.52C1052.13 185.084 1053.04 183.372 1053.94 183.372C1062.88 183.411 1066.31 177.14 1068.77 170.292C1072.83 159.019 1076.5 147.593 1080.15 136.167C1089.83 106.062 1099.52 75.9572 1108.89 45.7563C1110.31 41.1973 1112.74 40.5625 1116.8 40.5625C1120.99 40.5625 1123.57 41.0819 1125.05 45.9486C1137.18 85.9408 1149.65 125.837 1162.05 165.752C1162.98 168.695 1164.05 171.6 1165.17 174.485C1167.17 179.698 1170.73 182.834 1176.55 183.276C1177.84 183.372 1179.05 184.546 1180.3 185.219L1179.46 186.893L1179.44 186.873ZM1136.38 133.589C1128.62 107.755 1121.12 82.7283 1113.62 57.702C1113.14 57.702 1112.68 57.702 1112.2 57.702C1104.47 82.863 1096.73 108.005 1088.89 133.57H1136.36L1136.38 133.589Z" fill="#E0E0E0"/>
<path d="M0.403908 41.2608C1.4233 41.0685 2.46192 40.703 3.48131 40.703C16.2525 40.6645 29.0429 40.626 41.8141 40.7414C43.1605 40.7414 44.4876 41.7994 45.8148 42.3765C44.5453 43.0113 43.3336 44.0885 42.0257 44.2232C31.4279 45.2042 29.62 47.0894 29.6007 57.8425C29.6007 84.4077 29.543 110.992 29.6584 137.557C29.6777 142.636 30.0431 147.753 30.8701 152.754C34.1207 172.471 48.6614 183.84 68.8375 182.763C90.8986 181.589 103.901 169.663 106.42 147.772C107.247 140.558 107.209 133.248 107.209 125.977C107.228 103.048 107.132 80.118 106.978 57.1692C106.92 47.3395 104.516 44.9349 94.8416 44.3194C93.9376 44.2617 92.9182 44.4733 92.1296 44.1463C91.3025 43.8 90.6871 42.9536 89.9754 42.338C90.764 41.7994 91.4949 41.0107 92.3796 40.7607C93.399 40.4721 94.553 40.6453 95.6494 40.6453C105.324 40.6453 114.999 40.6068 124.673 40.6645C126.539 40.6645 128.404 40.9723 130.251 41.1454C130.347 41.7033 130.424 42.2611 130.52 42.819C129.116 43.2999 127.75 44.0885 126.308 44.2232C116.46 45.1658 114.306 47.2241 114.268 57.1884C114.133 84.1192 114.364 111.069 114.018 138C113.921 144.829 112.979 151.869 111.036 158.39C105.093 178.434 90.1485 189.591 69.203 189.322C60.2208 189.207 50.7386 188.572 42.4104 185.61C24.8885 179.377 17.4065 164.507 16.6564 147.176C15.4447 119.014 15.8294 90.7941 15.5216 62.5938C15.5024 60.2277 15.5216 57.8617 15.5216 55.4956C15.4832 47.1663 13.4251 45.0696 4.94307 44.2809C3.26974 44.127 1.63487 43.396 0 42.9151C0.134636 42.3573 0.269272 41.7994 0.384675 41.2416L0.403908 41.2608Z" fill="#E0E0E0"/>
<path d="M277.953 41.3045C279.146 41.0929 280.338 40.7081 281.511 40.7081C294.109 40.6697 306.708 40.6312 319.306 40.7659C320.633 40.7659 321.96 41.8431 323.287 42.4202C321.998 43.055 320.767 44.113 319.44 44.2284C309.285 45.2094 307.458 46.9984 307.496 57.1359C307.612 87.5291 307.169 117.942 308.246 148.296C309.016 169.803 322.422 181.806 343.713 182.787C364.967 183.768 380.219 171.822 383.662 151.182C384.547 145.834 384.816 140.333 384.835 134.908C384.931 108.881 384.835 82.8547 384.797 56.8281C384.797 47.6332 382.142 44.9209 372.852 44.3438C371.948 44.2861 370.929 44.5169 370.14 44.1899C369.198 43.7667 368.448 42.9011 367.621 42.2278C368.448 41.7277 369.275 40.8043 370.121 40.7851C381.988 40.6889 393.856 40.6889 405.723 40.7851C406.492 40.7851 407.242 41.8816 408.012 42.4586C407.242 43.055 406.569 43.9975 405.704 44.1707C396.715 46.1328 392.208 51.7818 392.182 61.1178C392.163 86.6058 392.702 112.094 391.875 137.543C391.567 147.123 388.951 156.895 385.797 166.032C382.45 175.689 374.757 182.229 365.101 185.846C351.118 191.097 336.77 191.232 322.691 186.769C305.457 181.306 294.552 165.455 294.109 144.969C293.513 117.326 293.686 89.6451 293.513 61.9834C293.513 59.4442 293.571 56.8858 293.456 54.3466C293.129 47.3062 290.897 45.0748 283.858 44.3438C281.781 44.1322 279.761 43.6128 277.703 43.2473L278.011 41.266L277.953 41.3045Z" fill="#E0E0E0"/>
<path d="M263.418 186.913H215.372L214.583 185.47C215.833 184.681 216.968 183.431 218.334 183.162C227.316 181.276 228.47 178.545 223.835 170.446C216.18 157.02 208.659 143.496 201.081 130.031C199.754 127.684 198.369 125.357 196.58 122.26C195.253 124.318 194.253 125.761 193.368 127.261C185.175 141.438 177.039 155.635 168.788 169.773C164.152 177.718 165.691 181.315 174.615 183.162C176 183.45 177.212 184.547 178.501 185.258C178.27 185.778 178.02 186.316 177.789 186.836H135.109C137.09 185.008 138.052 183.354 139.052 183.315C148.611 183.008 154.478 177.237 159.017 169.889C169.653 152.711 180.078 135.417 190.349 118.047C191.291 116.431 191.349 113.373 190.445 111.737C180.482 93.54 170.288 75.4964 160.113 57.4143C156.113 50.3162 151.093 44.5838 142.053 44.2375C141.187 44.199 140.36 43.1026 139.918 41.2751H188.945C187.983 42.5832 187.541 43.7566 186.733 44.1413C185.636 44.6607 184.232 44.4876 182.982 44.7184C174.654 46.2381 172.788 50.0661 176.924 57.2989C183.059 68.0327 189.291 78.7281 195.484 89.4234C197.369 92.6744 199.292 95.8868 201.793 100.1C207.332 90.6353 212.333 82.056 217.353 73.5151C220.661 67.8596 223.912 62.1849 227.335 56.6064C231.97 49.0273 230.759 46.1611 222.084 44.3337C220.95 44.0836 219.988 42.9872 218.949 42.2754C219.949 41.7368 220.93 40.7558 221.93 40.7558C234.163 40.6596 246.377 40.7173 258.609 40.7558C259.263 40.7558 259.917 41.179 262.206 41.9676C259.686 43.1795 258.417 44.276 257.09 44.3529C247.704 44.9493 240.914 49.7391 236.144 57.3951C226.431 72.9957 216.872 88.6925 207.486 104.485C206.601 105.967 206.659 108.814 207.486 110.352C218.68 130.551 230.086 150.633 241.491 170.735C245.626 178.006 251.647 182.45 260.244 183.2C261.667 183.316 263.014 184.47 264.399 185.143C264.072 185.739 263.764 186.336 263.437 186.932L263.418 186.913Z" fill="#E0E0E0"/>
<path d="M465.063 186.811H418.268C418.056 186.272 417.844 185.753 417.633 185.214C418.979 184.56 420.306 183.502 421.71 183.348C433.597 182.001 434.866 180.674 434.866 168.767C434.866 131.833 434.866 94.919 434.866 57.9855C434.866 47.3478 432.866 45.1934 422.403 44.3085C420.845 44.1738 419.306 43.5775 417.767 43.1928C417.825 42.6349 417.902 42.0579 417.96 41.5H465.082C465.256 41.8463 465.429 42.2117 465.583 42.558C464.332 43.1351 463.121 44.0969 461.832 44.2508C450.196 45.5396 448.811 46.9823 448.811 58.4471C448.811 95.5538 448.811 132.661 448.811 169.767C448.811 180.616 450.465 182.29 461.216 183.329C462.755 183.483 464.217 184.579 465.698 185.233L465.044 186.811H465.063Z" fill="#E0E0E0"/>
<path d="M715.102 129.211C714.294 142.099 714.756 153.948 721.487 164.663C735.316 186.65 765.09 187.246 782.824 165.933C785.036 163.278 786.786 160.239 789.113 157.699C789.979 156.738 791.883 156.718 794.345 155.949C780.939 190.228 742.721 200.75 717.141 178.744C710.447 172.992 705.831 165.779 703.523 157.411C697.599 135.963 697.83 114.957 712.505 96.7975C732.72 71.8097 774.919 76.0032 787.959 104.223C790.825 110.417 791.133 117.88 792.152 124.825C792.748 128.903 789.632 129.268 786.382 129.249C765.033 129.191 743.664 129.211 722.314 129.211C720.141 129.211 717.987 129.211 715.102 129.211ZM715.833 123.209C717.718 123.305 719.66 123.478 721.583 123.478C735.259 123.497 748.934 123.478 762.609 123.478C779.285 123.478 780.573 121.689 775.515 105.588C771.553 92.9888 759.185 84.9288 745.972 86.3523C728.854 88.1797 715.852 103.819 715.833 123.19V123.209Z" fill="#E0E0E0"/>
<path d="M1187.54 83.7707H1215.62V97.2937C1217.05 96.3511 1217.74 96.1203 1218.07 95.6586C1233.68 73.4985 1274.15 74.4026 1288.35 104.931C1297.87 125.398 1297.71 146.904 1287.14 167.102C1273.71 192.763 1240.24 197.688 1219.12 177.836C1218.49 177.24 1217.84 176.643 1216.59 175.508C1216.28 177.259 1215.93 178.355 1215.91 179.452C1215.87 194.552 1215.84 209.672 1215.91 224.772C1215.95 234.256 1219.05 237.257 1228.76 237.891C1230.76 238.026 1232.74 238.815 1234.72 239.296C1234.61 239.95 1234.49 240.623 1234.38 241.277H1187.79C1187.54 240.873 1187.29 240.469 1187.02 240.065C1188.27 239.353 1189.45 238.161 1190.75 238.007C1201.06 236.68 1202.66 234.967 1202.66 224.464C1202.66 183.145 1202.66 141.826 1202.66 100.506C1202.66 90.0801 1201.22 88.5028 1190.72 86.8677C1189.5 86.6753 1188.35 86.0982 1187.16 85.7135C1187.27 85.0787 1187.39 84.4439 1187.5 83.8284L1187.54 83.7707ZM1215.89 136.92C1215.89 143.461 1216.07 150.001 1215.84 156.541C1215.64 162.389 1217.84 167.121 1221.72 171.276C1237.7 188.358 1265.54 184.184 1274.88 162.639C1282.31 145.519 1282.12 127.437 1276.04 109.97C1270.77 94.8123 1256.63 87.3871 1240.84 89.907C1229.11 91.7922 1214.89 102.122 1215.82 118.954C1216.14 124.936 1215.87 130.938 1215.87 136.94L1215.89 136.92Z" fill="#E0E0E0"/>
<path d="M1338.16 175.1V186.315C1338.16 198.684 1338.16 211.072 1338.16 223.441C1338.16 234.733 1340.49 237.118 1351.72 237.868C1353.53 237.984 1355.3 238.907 1357.07 239.445C1356.92 240.08 1356.76 240.696 1356.61 241.331H1309.58C1309.39 240.792 1309.18 240.253 1308.99 239.715C1310.39 239.099 1311.74 238.08 1313.18 237.926C1322.91 236.849 1324.62 235.098 1324.62 225.114C1324.64 183.795 1324.62 142.495 1324.62 101.175C1324.62 89.6529 1323.68 88.5757 1312.39 86.7867C1311.3 86.6136 1310.26 86.0173 1308.93 85.5171C1312.03 82.8625 1329.63 82.1508 1338.07 84.0744V96.7895C1339.03 96.3279 1339.63 96.2509 1339.86 95.9047C1356.4 72.5134 1397.48 75.4373 1410.66 105.6C1419.72 126.356 1419.45 147.592 1408.87 167.752C1396.19 191.932 1363.19 197.28 1342.59 179.178C1341.42 178.14 1340.28 177.062 1338.15 175.1H1338.16ZM1338.16 136.782C1338.16 143.687 1337.65 150.651 1338.36 157.48C1338.8 161.75 1340.17 166.598 1342.78 169.849C1350.4 179.332 1361.01 183.141 1372.96 181.294C1386.02 179.275 1394.65 171.061 1398.62 158.749C1403.56 143.38 1403.71 127.625 1399 112.14C1394.1 96.0393 1379.67 87.383 1363.09 89.8645C1351.9 91.538 1336.74 101.849 1338.09 118.796C1338.57 124.759 1338.16 130.78 1338.16 136.782Z" fill="#E0E0E0"/>
<path d="M998.535 165.052C1004.94 156.711 1008.34 147.593 1008.95 137.462C1009.12 134.423 1007.46 132.957 1003.84 132.698C1001.88 132.569 1000.76 132.138 1001.68 129.745H1026.1C1026.62 131.319 1026.9 132.547 1024.53 132.677C1019.94 132.914 1017.37 135.608 1015.76 139.747C1013.26 146.213 1010.71 152.701 1007.78 158.974C1006.27 162.207 1003.88 165.031 1001.4 168.76C1005.73 172.144 1009.96 175.744 1014.48 178.891C1017.03 180.658 1020.22 179.882 1022.54 177.619C1023.39 176.8 1024.1 175.873 1025.71 175.011C1025.67 175.787 1025.93 176.973 1025.5 177.296C1022.82 179.43 1020.15 181.628 1017.22 183.331C1011.96 186.371 1006.75 184.991 1001.88 182.232C999.182 180.702 996.833 178.568 994.268 176.649C991.574 178.395 988.837 180.486 985.841 182.038C978.664 185.789 970.927 186.909 962.995 185.379C947.585 182.383 940.408 166.303 948.189 152.55C952.025 145.782 957.737 140.889 964.159 136.815C966.336 135.436 966.659 134.272 965.646 131.922C963.168 126.21 961.551 120.282 962.543 113.923C964.095 104.008 973.492 97.1104 983.255 98.7917C991.833 100.279 996.617 108.75 993.751 117.394C991.596 123.882 986.725 127.891 981.056 131.06C978.858 132.289 978.255 133.323 979.397 135.802C984.031 145.955 989.548 155.504 997.135 163.738C997.458 164.082 997.824 164.406 998.535 165.052ZM990.647 172.877C981.574 162.854 975.194 151.085 969.224 138.647C962.37 144.187 957.219 150.416 956.487 159.405C956.077 164.492 957.176 169.148 960.732 173.006C967.608 180.464 982.22 180.486 990.626 172.877H990.647ZM976.078 129.271C980.259 125.93 983.772 122.546 984.936 117.739C985.712 114.527 985.669 111.014 985.41 107.672C985.173 104.827 983.233 102.758 980.281 102.413C977.349 102.068 975.194 103.62 973.879 106.164C973.168 107.543 972.565 109.03 972.328 110.561C971.272 117.135 973.772 122.977 976.099 129.292L976.078 129.271Z" fill="#E0E0E0"/>
</svg>
