<svg width="2018" height="240" viewBox="0 0 2018 240" fill="none" xmlns="http://www.w3.org/2000/svg">
<path fill-rule="evenodd" clip-rule="evenodd" d="M1087.59 20.0938H1166.43V30.2656H1166.44V114.637H1178.67V136.468H1178.66V163.489H1156.89V136.468H1083.61V163.489H1061.83V136.468H1061.8V114.637H1062.14C1067.89 114.546 1072.7 111.985 1076.56 108.704C1083.79 102.501 1087.59 93.1655 1087.59 83.6217V41.9253H1087.59V20.0938ZM1106.64 41.9253V93.5831C1106.64 109.279 1096.42 114.508 1096.17 114.637H1144.66V41.9253H1106.64ZM1025.45 20.7795V62.9383C1017.8 50.4335 1005.93 42.4023 992.599 42.4023C969.511 42.4023 950.797 66.5006 950.797 96.2058C950.797 125.911 969.511 150.009 992.599 150.009C1005.93 150.009 1017.8 141.978 1025.45 129.473V148.607H1047.23V20.7795H1025.45ZM998.52 61.5199C1013.02 61.5199 1024.87 76.2868 1025.45 94.7684V97.6432C1024.87 116.125 1013.02 130.892 998.52 130.892C983.644 130.892 971.564 115.353 971.564 96.2058C971.564 77.0584 983.644 61.5199 998.52 61.5199ZM714.734 21.0956V148.834H737.555V21.0956H714.734ZM817.992 44.1562V148.423H795.936V44.1562H817.992ZM855.087 22.0977H817.992V44.154H855.087V22.0977ZM760.859 22.0977H782.916V44.154H760.859V22.0977ZM921.096 74.0156H859.508V95.8472H921.096V74.0156ZM1995.28 148.609V129.437C1987.63 141.964 1975.75 150.011 1962.4 150.011C1939.32 150.011 1920.6 125.913 1920.6 96.2077C1920.6 66.5025 1939.32 42.4043 1962.4 42.4043C1975.75 42.4043 1987.63 50.4519 1995.28 62.9785V20.7815H2017.06V148.609H1995.28ZM1968.32 61.5218C1983.2 61.5218 1995.28 77.0604 1995.28 96.2077C1995.28 115.355 1983.2 130.894 1968.32 130.894C1953.45 130.894 1941.37 115.355 1941.37 96.2077C1941.37 77.0604 1953.45 61.5218 1968.32 61.5218ZM1446.7 148.607V20.7796H1468.48V62.9857C1476.14 50.4538 1488.02 42.4023 1501.36 42.4023C1524.45 42.4023 1543.17 66.5006 1543.17 96.2058C1543.17 125.911 1524.45 150.009 1501.36 150.009C1488.02 150.009 1476.14 141.958 1468.48 129.426V148.607H1446.7ZM1522.4 96.2058C1522.4 115.353 1510.32 130.892 1495.44 130.892C1480.57 130.892 1468.49 115.353 1468.49 96.2058C1468.49 77.0584 1480.57 61.5199 1495.44 61.5199C1510.32 61.5199 1522.4 77.0584 1522.4 96.2058ZM1700.76 136.468V163.489H1678.98V121.496H1678.98V114.639V114.637H1679.3C1685.05 114.546 1689.85 111.985 1693.71 108.704C1700.94 102.501 1704.75 93.1655 1704.75 83.6217V41.9253H1704.74V20.0938H1783.59V30.2656H1783.62V114.637H1795.85V136.468H1795.85V163.462H1774.07V136.468H1700.76ZM1723.79 41.9253H1761.85V114.637H1713.32C1713.58 114.508 1723.79 109.279 1723.79 93.5831V41.9253ZM1554.05 84.6932C1554.05 119.528 1580.3 147.862 1612.55 147.862C1644.8 147.862 1671.04 119.528 1671.04 84.6932C1671.04 49.8582 1644.83 21.5547 1612.58 21.5547C1580.33 21.5547 1554.08 49.888 1554.08 84.723L1554.05 84.6932ZM1647.51 84.6932C1647.51 108.553 1631.83 127.939 1612.58 127.939C1593.33 127.939 1577.65 108.523 1577.65 84.6932C1577.65 60.8634 1593.33 41.4476 1612.58 41.4476C1631.83 41.4476 1647.51 60.8634 1647.51 84.6932ZM1234.47 129.995C1228.1 129.995 1221.46 128.862 1214.56 126.625V126.595C1207.66 124.358 1201.26 121.197 1195.31 117.171L1188.77 134.349C1193.59 138.614 1200.16 142.014 1208.43 144.609C1216.7 147.204 1225.27 148.486 1234.47 148.486C1243.66 148.486 1251.75 146.965 1258.74 143.864C1265.77 140.762 1271.21 136.437 1275.14 130.89C1279.06 125.342 1281.03 119.02 1281.03 111.951C1281.03 103.869 1277.93 96.9495 1271.78 91.1636C1265.62 85.4074 1256.78 81.1425 1245.24 78.4583L1230.45 75.2671C1224.86 74.0443 1220.48 72.0162 1217.36 69.2127C1214.23 66.4092 1212.66 63.0987 1212.66 59.2812C1212.66 52.9882 1214.8 48.097 1219.11 44.5479C1223.43 40.9987 1229.44 39.2391 1237.17 39.2391C1242.77 39.2391 1248.51 40.2531 1254.4 42.3408C1260.26 44.4286 1265.8 47.2619 1270.94 50.8408L1277.34 34.8549C1273.08 30.59 1267.37 27.19 1260.2 24.6549C1253.03 22.1198 1245.36 20.8672 1237.17 20.8672C1228.22 20.8672 1220.21 22.4777 1213.22 25.6689C1206.2 28.8602 1200.76 33.3637 1196.83 39.2093C1192.9 45.0549 1190.94 51.7356 1190.94 59.2513C1190.94 67.6619 1194.03 74.7899 1200.19 80.6355C1206.38 86.4811 1215.16 90.6864 1226.58 93.2811C1230.84 94.1758 1235.77 95.3092 1241.37 96.6513C1247.08 97.9039 1251.51 99.8723 1254.64 102.557C1257.76 105.241 1259.34 108.402 1259.34 111.981C1259.34 117.588 1257.17 122.002 1252.79 125.193C1248.42 128.385 1242.29 129.995 1234.47 129.995ZM1321.35 74.7586H1381.66V22.7148H1403.17V146.666H1381.66V93.2797H1321.35V146.666H1299.84V22.7148H1321.35V74.7586ZM1862.97 20.7773H1812.87V147.8H1834.91V98.2614H1862.97C1863.16 98.2614 1863.34 98.2608 1863.53 98.2594L1890.16 147.8H1913.58L1884.75 94.229C1885.21 94.0298 1885.67 93.8231 1886.12 93.6088C1892.72 90.4772 1897.81 86.0632 1901.35 80.3071C1904.89 74.5509 1906.68 67.751 1906.68 59.9369C1906.68 52.1229 1904.92 45.2633 1901.44 39.3282C1897.96 33.3931 1892.9 28.83 1886.3 25.6089C1879.69 22.3879 1871.93 20.7773 1862.97 20.7773ZM1885.34 59.9668C1885.34 66.8562 1883.38 72.165 1879.48 75.8334V75.8632C1875.56 79.5316 1870.05 81.3808 1862.94 81.3808H1834.88V39.7756H1862.94C1869.96 39.7756 1875.44 41.5054 1879.39 45.0247C1883.35 48.544 1885.34 53.5247 1885.34 59.9668Z" fill="#1C46F5"/>
<path fill-rule="evenodd" clip-rule="evenodd" d="M3.41969 110.848C18.0694 48.8295 99.6692 0.351562 99.6692 0.351562C69.8566 26.1794 42.468 53.4018 23.9612 105.252C5.45438 157.101 26.8097 217.213 26.8097 217.213C26.8097 217.213 -11.23 172.866 3.41969 110.848ZM176.398 24.5469H196.963V46.1395H176.398V24.5469ZM608.552 24.9805H588.281V167.469H608.552V24.9805ZM542.354 152.218V167.47H562.723V65.9174H542.354V81.17H541.568C538.769 76.2188 535.226 72.2826 530.939 69.3616C525.034 65.2286 517.884 63.1621 509.487 63.1621C500.368 63.1621 492.135 65.491 484.787 70.1488C477.505 74.8066 471.765 81.2028 467.567 89.3375C463.434 97.4723 461.367 106.591 461.367 116.694C461.367 126.665 463.434 135.751 467.567 143.952C471.765 152.152 477.505 158.581 484.787 163.239C492.135 167.897 500.368 170.226 509.487 170.226C517.884 170.226 525.034 168.192 530.939 164.125C535.228 161.155 538.773 157.186 541.572 152.218H542.354ZM528.38 146.805C523.788 149.758 518.54 151.234 512.636 151.234C506.666 151.234 501.385 149.758 496.793 146.805C492.2 143.853 488.592 139.753 485.968 134.505C483.344 129.191 482.032 123.254 482.032 116.694C482.032 110.002 483.344 104.065 485.968 98.8827C488.592 93.6345 492.2 89.5344 496.793 86.5822C501.385 83.6301 506.666 82.1541 512.636 82.1541C518.54 82.1541 523.788 83.6301 528.38 86.5822C533.038 89.5344 536.646 93.6345 539.205 98.8827C541.829 104.065 543.141 110.002 543.141 116.694C543.141 123.385 541.829 129.355 539.205 134.603C536.646 139.786 533.038 143.853 528.38 146.805ZM384.398 65.9141H401.521V40.7227H421.89V65.9141H446.59V82.3475H421.89V135.19C421.89 140.504 423.038 144.408 425.334 146.9C427.696 149.393 431.337 150.64 436.257 150.64C439.669 150.64 443.146 150.115 446.688 149.065V167.861C441.899 169.435 437.274 170.222 432.813 170.222C426.384 170.222 420.808 168.877 416.085 166.188C411.361 163.432 407.753 159.496 405.26 154.379C402.767 149.262 401.521 143.194 401.521 136.174V82.3475H384.398V65.9141ZM364.904 65.9141H344.633V167.467H364.904V65.9141ZM298.69 65.9174V80.5796H297.898C295.1 75.7947 291.559 71.9897 287.275 69.1647C281.37 65.163 274.22 63.1621 265.823 63.1621C256.704 63.1621 248.471 65.4254 241.123 69.952C233.841 74.4786 228.101 80.7108 223.903 88.6487C219.77 96.5866 217.703 105.41 217.703 115.119C217.703 124.829 219.77 133.652 223.903 141.59C228.101 149.528 233.841 155.76 241.123 160.287C248.471 164.813 256.704 167.077 265.823 167.077C274.22 167.077 281.37 165.109 287.275 161.172C291.547 158.309 295.079 154.471 297.873 149.659H298.69V157.236C298.69 169.176 295.901 178.295 290.325 184.593C284.815 190.956 276.811 194.138 266.315 194.138C259.754 194.138 253.981 192.76 248.996 190.005C244.075 187.249 239.418 182.788 235.022 176.622L219.77 187.938C225.805 196.27 232.628 202.469 240.238 206.537C247.848 210.67 256.671 212.736 266.708 212.736C277.467 212.736 286.75 210.506 294.557 206.045C302.429 201.649 308.464 195.286 312.663 186.954C316.861 178.623 318.961 168.717 318.961 157.236V65.9174H298.69ZM268.972 148.281C274.876 148.281 280.124 146.871 284.716 144.05C289.374 141.229 292.982 137.293 295.541 132.242C298.165 127.19 299.477 121.483 299.477 115.119C299.477 108.625 298.165 102.884 295.541 97.8987C292.982 92.9129 289.374 89.0095 284.716 86.1886C280.124 83.3677 274.876 81.9573 268.972 81.9573C263.002 81.9573 257.721 83.3677 253.129 86.1886C248.536 89.0095 244.928 92.9457 242.304 97.9971C239.68 103.048 238.368 108.756 238.368 115.119C238.368 121.483 239.68 127.19 242.304 132.242C244.928 137.293 248.536 141.229 253.129 144.05C257.721 146.871 263.002 148.281 268.972 148.281ZM197.021 65.9141H176.75V167.467H197.021V65.9141ZM365.58 24.5469H345.016V46.1395H365.58V24.5469ZM151.078 24.9805V167.469H130.807V152.217H129.978C127.144 157.185 123.583 161.154 119.293 164.124C113.389 168.191 106.271 170.225 97.9398 170.225C88.6243 170.225 80.3255 167.896 73.0436 163.238C65.7617 158.58 60.0543 152.151 55.9214 143.951C51.854 135.75 49.8203 126.665 49.8203 116.693C49.8203 106.59 51.854 97.4714 55.9214 89.3366C60.0543 81.2019 65.7617 74.8056 73.0436 70.1479C80.3255 65.4901 88.6243 63.1612 97.9398 63.1612C106.271 63.1612 113.389 65.2277 119.293 69.3606C123.581 72.2817 127.141 76.2179 129.973 81.1691H130.807V24.9805H151.078ZM85.1473 146.805C89.8051 149.757 95.0861 151.233 100.99 151.233C106.829 151.233 112.077 149.757 116.735 146.805C121.393 143.852 125.034 139.785 127.658 134.602C130.282 129.354 131.594 123.384 131.594 116.693C131.594 110.001 130.282 104.064 127.658 98.8818C125.034 93.6336 121.393 89.5334 116.735 86.5813C112.077 83.6292 106.829 82.1531 100.99 82.1531C95.0861 82.1531 89.8051 83.6292 85.1473 86.5813C80.4895 89.5334 76.8814 93.6336 74.3229 98.8818C71.7644 104.064 70.4851 110.001 70.4851 116.693C70.4851 123.253 71.7644 129.19 74.3229 134.504C76.8814 139.752 80.4895 143.852 85.1473 146.805Z" fill="#1C46F5"/>
<path d="M573.862 222.406C573.862 222.406 655.462 173.928 670.112 111.91C684.761 49.8913 646.722 5.54445 646.722 5.54445C646.722 5.54445 668.077 65.6563 649.57 117.506C631.063 169.356 603.675 196.578 573.862 222.406Z" fill="#1C46F5"/>
<path fill-rule="evenodd" clip-rule="evenodd" d="M763.542 236.109C765.862 238.549 768.935 239.769 772.761 239.769C775.772 239.769 778.376 238.98 780.572 237.401C782.769 235.822 784.151 233.741 784.719 231.157H780.868C780.375 232.76 779.4 234.04 777.944 234.997C776.488 235.93 774.785 236.396 772.835 236.396C770.12 236.396 767.948 235.487 766.319 233.669C764.69 231.851 763.876 229.423 763.876 226.385C763.876 223.347 764.69 220.918 766.319 219.1C767.948 217.282 770.12 216.373 772.835 216.373C774.785 216.373 776.463 216.864 777.87 217.844C779.276 218.801 780.227 220.117 780.72 221.792H784.608C784.114 219.136 782.794 217.007 780.646 215.404C778.524 213.801 775.957 213 772.946 213C769.12 213 766.011 214.244 763.617 216.732C761.247 219.196 760.062 222.426 760.062 226.421C760.062 230.44 761.222 233.669 763.542 236.109ZM924.203 239.065H932.946C936.848 239.065 940.006 237.863 942.42 235.46C944.834 233.056 946.041 229.92 946.041 226.051C946.041 222.157 944.822 219.009 942.383 216.605C939.945 214.202 936.75 213 932.799 213H924.203V239.065ZM927.788 216.245H932.543C935.567 216.245 937.945 217.122 939.676 218.876C941.432 220.631 942.31 223.022 942.31 226.051C942.31 229.031 941.445 231.398 939.713 233.153C937.982 234.907 935.64 235.784 932.69 235.784H927.788V216.245ZM993.532 221.005C993.164 221.368 992.712 221.55 992.183 221.55C991.655 221.55 991.203 221.368 990.835 221.005L990.832 221.002C990.467 220.622 990.281 220.177 990.281 219.671C990.281 219.149 990.466 218.701 990.835 218.338C991.203 217.975 991.655 217.793 992.183 217.793C992.712 217.793 993.164 217.975 993.532 218.338C993.9 218.701 994.085 219.149 994.085 219.671C994.085 220.177 993.899 220.622 993.535 221.002L993.532 221.005ZM990.736 238.504V224.519H993.688V238.504H990.736ZM993.433 220.904C993.774 220.549 993.944 220.138 993.944 219.671C993.944 219.629 993.943 219.587 993.941 219.545C993.943 219.585 993.944 219.626 993.944 219.667C993.944 220.134 993.774 220.545 993.433 220.9C993.092 221.236 992.675 221.405 992.183 221.405C991.691 221.405 991.274 221.236 990.933 220.9C990.623 220.578 990.454 220.209 990.426 219.794C990.454 220.211 990.623 220.581 990.933 220.904C991.274 221.241 991.691 221.409 992.183 221.409C992.676 221.409 993.092 221.241 993.433 220.904ZM990.877 238.363H993.547V224.66H993.547V238.359H990.877V238.363ZM1013.06 224.441C1012.65 223.177 1011.89 222.215 1010.77 221.555C1009.66 220.876 1008.36 220.537 1006.85 220.537C1004.49 220.537 1002.62 221.272 1001.25 222.743C999.888 224.215 999.205 226.176 999.205 228.628C999.205 228.771 999.207 228.912 999.212 229.051C999.207 228.91 999.205 228.768 999.205 228.624C999.205 226.172 999.888 224.21 1001.25 222.739C1002.62 221.268 1004.49 220.533 1006.85 220.533C1008.36 220.533 1009.66 220.872 1010.77 221.551C1011.89 222.211 1012.65 223.173 1013.06 224.437H1016.24L1016.24 224.441H1013.06ZM1006.27 229.925H1013.67V229.929H1006.27V229.925ZM1016.48 238.752V227.468H1016.48V238.756H1013.98L1013.98 238.752H1016.48ZM1013.76 235.98L1013.76 235.984C1013.72 236.046 1013.68 236.107 1013.64 236.167C1013.02 237.007 1012.12 237.691 1010.92 238.219C1009.65 238.785 1008.23 239.068 1006.64 239.068C1003.5 239.068 1000.95 238.106 998.991 236.182C997.307 234.527 996.347 232.418 996.112 229.855C996.348 232.416 997.308 234.523 998.991 236.178C1000.95 238.102 1003.5 239.063 1006.64 239.063C1008.23 239.063 1009.65 238.781 1010.92 238.215C1012.2 237.649 1013.15 236.904 1013.76 235.98ZM1010.98 238.348C1009.69 238.923 1008.24 239.209 1006.64 239.209C1003.47 239.209 1000.88 238.236 998.892 236.282C996.904 234.328 995.914 231.753 995.914 228.571C995.914 225.408 996.925 222.814 998.953 220.804C1000.98 218.794 1003.64 217.793 1006.91 217.793C1009.36 217.793 1011.46 218.393 1013.2 219.6C1014.94 220.809 1016 222.415 1016.38 224.415L1016.41 224.582H1012.96L1012.92 224.484C1012.53 223.253 1011.78 222.319 1010.69 221.677L1010.69 221.675C1009.62 221.012 1008.34 220.678 1006.85 220.678C1004.52 220.678 1002.69 221.402 1001.36 222.839C1000.02 224.279 999.346 226.203 999.346 228.628C999.346 231.033 1000.03 232.908 1001.38 234.271C1002.76 235.617 1004.59 236.296 1006.88 236.296C1008.86 236.296 1010.45 235.811 1011.69 234.854C1012.91 233.887 1013.53 232.452 1013.53 230.524V230.07H1006.13V227.327H1016.63V238.897H1013.85L1013.65 236.379C1013.02 237.184 1012.13 237.839 1010.98 238.348ZM1033.98 238.503H1037.06V218.496H1034.04L1023.67 233.438V218.496H1020.58V238.503H1023.6L1033.98 223.561V238.503ZM1034.12 238.362V238.362H1036.91V218.637H1036.92V238.362H1034.12ZM1034.11 223.111V223.122L1023.52 238.362H1020.72V238.362H1023.52L1034.11 223.111ZM1023.52 233.877V218.637H1023.52V233.887L1023.52 233.877ZM974.382 219.568C973.057 220.642 972.394 222.055 972.394 223.806C972.394 226.783 974.138 228.657 977.627 229.429L981.106 230.192C983.055 230.625 984.03 231.652 984.03 233.271C984.03 234.289 983.611 235.099 982.773 235.701C981.954 236.285 980.843 236.577 979.44 236.577C978.115 236.577 977.052 236.295 976.253 235.73C975.474 235.146 975.064 234.364 975.025 233.384H972.102C972.18 235.136 972.881 236.521 974.207 237.538C975.532 238.555 977.276 239.063 979.44 239.063C981.701 239.063 983.504 238.517 984.849 237.425C986.213 236.332 986.895 234.873 986.895 233.045C986.895 230.182 985.161 228.365 981.691 227.592L978.212 226.801C976.243 226.349 975.259 225.323 975.259 223.722C975.259 222.723 975.659 221.923 976.458 221.32C977.257 220.717 978.319 220.416 979.645 220.416C980.834 220.416 981.779 220.699 982.481 221.264C983.182 221.829 983.572 222.62 983.65 223.637H986.544C986.427 221.866 985.755 220.473 984.527 219.455C983.299 218.438 981.681 217.93 979.674 217.93C977.491 217.93 975.727 218.476 974.382 219.568ZM958.354 239.063C955.333 239.063 952.871 238.092 950.968 236.15C949.094 234.208 948.156 231.677 948.156 228.558C948.156 225.412 949.08 222.854 950.926 220.884C952.801 218.915 955.221 217.93 958.187 217.93C961.096 217.93 963.433 218.832 965.195 220.638C966.958 222.444 967.839 224.838 967.839 227.819V229.256L951.975 229.297C952.115 231.403 952.731 233.031 953.822 234.18C954.941 235.302 956.48 235.863 958.438 235.863C961.572 235.863 963.488 234.686 964.188 232.334H967.881C967.378 234.495 966.3 236.164 964.65 237.34C962.999 238.489 960.9 239.063 958.354 239.063ZM958.187 221.172C956.48 221.172 955.095 221.65 954.032 222.608C952.969 223.565 952.311 224.933 952.059 226.712H963.894C963.894 225.043 963.377 223.702 962.341 222.69C961.306 221.678 959.921 221.172 958.187 221.172ZM902.706 239.063C899.684 239.063 897.222 238.092 895.32 236.15C893.445 234.208 892.508 231.677 892.508 228.558C892.508 225.412 893.431 222.854 895.278 220.884C897.152 218.915 899.572 217.93 902.538 217.93C905.448 217.93 907.784 218.832 909.547 220.638C911.309 222.444 912.191 224.838 912.191 227.819V229.256L896.327 229.297C896.467 231.403 897.082 233.031 898.173 234.18C899.293 235.302 900.831 235.863 902.79 235.863C905.924 235.863 907.84 234.686 908.54 232.334H912.233C911.729 234.495 910.652 236.164 909.001 237.34C907.35 238.489 905.252 239.063 902.706 239.063ZM902.538 221.172C900.831 221.172 899.446 221.65 898.383 222.608C897.32 223.565 896.663 224.933 896.411 226.712H908.246C908.246 225.043 907.728 223.702 906.693 222.69C905.658 221.678 904.273 221.172 902.538 221.172ZM880.833 239.063L872.775 217.934H872.775L880.834 239.068H883.824L891.795 217.934H891.792L883.822 239.063H880.833ZM882.328 235.41C882.174 234.858 882.013 234.318 881.844 233.79C881.987 234.239 882.125 234.696 882.258 235.162C882.281 235.244 882.305 235.327 882.328 235.409L882.328 235.41ZM880.737 239.209L872.57 217.793H875.949L881.141 231.387C881.578 232.501 881.975 233.678 882.334 234.915C882.707 233.707 883.11 232.522 883.545 231.36L883.545 231.359L888.709 217.793H891.999L883.921 239.209H880.737ZM868.902 221.524C869.394 221.524 869.811 221.351 870.152 221.003C870.492 220.635 870.663 220.21 870.663 219.727C870.663 219.682 870.662 219.637 870.659 219.593C870.662 219.638 870.663 219.684 870.663 219.731C870.663 220.214 870.493 220.64 870.152 221.007C869.811 221.355 869.394 221.529 868.902 221.529C868.41 221.529 867.993 221.355 867.652 221.007C867.341 220.672 867.172 220.289 867.145 219.858C867.173 220.287 867.342 220.669 867.652 221.003C867.993 221.351 868.409 221.524 868.902 221.524ZM870.265 239.063H867.595V239.068H870.266V224.891H870.265V239.063ZM870.253 221.105C869.885 221.481 869.432 221.67 868.902 221.67C868.372 221.67 867.919 221.481 867.552 221.105L867.549 221.103C867.185 220.71 867 220.251 867 219.731C867 219.193 867.184 218.732 867.552 218.357C867.919 217.982 868.372 217.793 868.902 217.793C869.432 217.793 869.885 217.982 870.253 218.357C870.62 218.732 870.804 219.193 870.804 219.731C870.804 220.251 870.619 220.71 870.255 221.103L870.253 221.105ZM867.454 239.209V224.751H870.406V239.209H867.454ZM865.734 217.934H865.726V220.56H859.129V239.063H856.158V239.068H859.138V220.565H865.734V217.934ZM849.532 220.565V220.56H856.15V220.565H849.532ZM849.391 220.706V217.793H865.875V220.706H859.278V239.209H856.018V220.706H849.391ZM831.688 237.422C832.971 238.516 834.726 239.063 836.951 239.063C838.635 239.063 840.132 238.735 841.445 238.079C842.786 237.395 843.727 236.478 844.269 235.329L844.697 238.571H848.121V225.973C848.121 223.347 847.336 221.349 845.767 219.982C844.226 218.614 842.115 217.93 839.433 217.93C836.723 217.93 834.541 218.573 832.886 219.858C831.26 221.117 830.447 222.786 830.447 224.865H833.956C833.956 223.661 834.412 222.717 835.325 222.033C836.267 221.349 837.579 221.007 839.262 221.007C842.543 221.007 844.184 222.526 844.184 225.562V226.137L837.593 226.629C835.111 226.821 833.185 227.478 831.816 228.599C830.475 229.693 829.805 231.157 829.805 232.99C829.805 234.823 830.432 236.3 831.688 237.422ZM842.6 234.426C841.516 235.521 840.018 236.068 838.107 236.068C836.766 236.068 835.725 235.794 834.983 235.247C834.241 234.7 833.87 233.907 833.87 232.867C833.87 230.76 835.539 229.557 838.877 229.256L844.226 228.845V229.912C844.226 231.8 843.684 233.305 842.6 234.426ZM816.753 239.063C813.731 239.063 811.269 238.092 809.367 236.15C807.492 234.208 806.555 231.677 806.555 228.558C806.555 225.412 807.478 222.854 809.325 220.884C811.199 218.915 813.619 217.93 816.585 217.93C819.495 217.93 821.831 218.832 823.594 220.638C825.356 222.444 826.238 224.838 826.238 227.819V229.256L810.374 229.297C810.514 231.403 811.129 233.031 812.22 234.18C813.339 235.302 814.878 235.863 816.837 235.863C819.97 235.863 821.887 234.686 822.586 232.334H826.28C825.776 234.495 824.699 236.164 823.048 237.34C821.397 238.489 819.299 239.063 816.753 239.063ZM816.585 221.172C814.878 221.172 813.493 221.65 812.43 222.608C811.367 223.565 810.71 224.933 810.458 226.712H822.293C822.293 225.043 821.775 223.702 820.74 222.69C819.705 221.678 818.32 221.172 816.585 221.172ZM803.031 239.063H800.026V239.066H803.039V217.932H803.031V239.063ZM800.018 230.706V230.704H794.33L790.18 239.063H786.837L786.836 239.066H790.187L794.338 230.706H800.018ZM800.018 220.502V220.504H794.645C793.252 220.504 792.165 220.835 791.386 221.498C790.608 222.141 790.218 223.077 790.218 224.304C790.218 225.512 790.608 226.458 791.386 227.14C791.786 227.499 792.274 227.764 792.85 227.934C792.271 227.764 791.78 227.498 791.379 227.137C790.6 226.455 790.211 225.51 790.211 224.302C790.211 223.074 790.6 222.139 791.379 221.496C792.158 220.833 793.244 220.502 794.638 220.502H800.018ZM799.885 239.207H803.18V217.791H794.645C792.247 217.791 790.355 218.361 788.99 219.52C787.601 220.68 786.911 222.271 786.911 224.275C786.911 225.762 787.297 227.03 788.076 228.071C788.805 229.072 789.834 229.792 791.155 230.234L786.607 239.207H790.275L794.425 230.847H799.885V239.207ZM791.481 227.035L791.479 227.034C790.736 226.383 790.359 225.479 790.359 224.304C790.359 223.109 790.737 222.217 791.476 221.607L791.478 221.605C792.223 220.971 793.273 220.645 794.645 220.645H799.885V228.022H794.615C793.243 228.022 792.205 227.686 791.481 227.035Z" fill="#1C46F5"/>
</svg>
