<svg width="310" height="33" viewBox="0 0 310 33" fill="none" xmlns="http://www.w3.org/2000/svg">
<path d="M306.636 19.5261H309.247C309.062 20.6635 308.644 21.6847 307.994 22.59C307.367 23.472 306.532 24.18 305.487 24.7138C304.466 25.2245 303.282 25.4798 301.936 25.4798C300.311 25.4798 298.849 25.0968 297.549 24.3308C296.249 23.5416 295.216 22.4739 294.45 21.1277C293.707 19.7582 293.336 18.2031 293.336 16.4622C293.336 14.7214 293.696 13.1662 294.415 11.7967C295.158 10.4273 296.168 9.34796 297.444 8.55878C298.721 7.76959 300.16 7.375 301.762 7.375C303.456 7.375 304.884 7.75799 306.044 8.52396C307.228 9.26672 308.098 10.3693 308.655 11.8316C309.236 13.2707 309.468 15.0463 309.352 17.1586H296.121C296.237 18.2959 296.551 19.294 297.061 20.1528C297.572 21.0116 298.245 21.6847 299.081 22.1722C299.916 22.6364 300.868 22.8685 301.936 22.8685C303.119 22.8685 304.118 22.5668 304.93 21.9633C305.766 21.3366 306.334 20.5242 306.636 19.5261ZM301.866 9.98627C300.427 9.98627 299.22 10.4041 298.245 11.2397C297.27 12.0753 296.62 13.2126 296.295 14.6517H306.497C306.404 13.1198 305.905 11.9592 305 11.17C304.118 10.3809 303.073 9.98627 301.866 9.98627Z" fill="#E0E0E0"/>
<path d="M284.685 22.7248H283.849L289.176 7.71875H292.205L285.59 25.1272H282.979L276.398 7.71875H279.428L284.685 22.7248Z" fill="#E0E0E0"/>
<path d="M273.973 0.757812V4.13505H270.352V0.757812H273.973ZM270.769 7.72119H273.555V25.1296H270.769V7.72119Z" fill="#E0E0E0"/>
<path d="M257.352 7.72151H267.588V10.3328H257.352V7.72151ZM261.077 3.19531H263.862V25.13H261.077V3.19531Z" fill="#E0E0E0"/>
<path d="M245.68 25.4798C244.311 25.4798 243.046 25.0968 241.885 24.3308C240.748 23.5416 239.831 22.4739 239.135 21.1277C238.462 19.7582 238.125 18.2031 238.125 16.4622C238.125 14.7214 238.473 13.1662 239.169 11.7967C239.866 10.4273 240.806 9.34796 241.99 8.55878C243.197 7.76959 244.543 7.375 246.028 7.375C247.653 7.375 248.883 7.7928 249.719 8.62841C250.578 9.4408 251.158 10.5317 251.46 11.9012C251.785 13.2707 251.947 14.791 251.947 16.4622C251.947 17.3442 251.854 18.3075 251.669 19.352C251.483 20.3733 251.158 21.3598 250.694 22.3115C250.253 23.2399 249.626 24.0059 248.814 24.6094C248.001 25.1896 246.957 25.4798 245.68 25.4798ZM246.377 22.8337C247.56 22.8337 248.535 22.5436 249.301 21.9633C250.09 21.383 250.671 20.617 251.042 19.6654C251.413 18.6905 251.599 17.6228 251.599 16.4622C251.599 15.1856 251.402 14.0715 251.007 13.1198C250.636 12.1449 250.056 11.3906 249.266 10.8567C248.5 10.2996 247.537 10.0211 246.377 10.0211C244.636 10.0211 243.29 10.6362 242.338 11.8664C241.386 13.0734 240.91 14.6053 240.91 16.4622C240.91 17.6924 241.142 18.7949 241.607 19.7698C242.094 20.7215 242.744 21.4758 243.556 22.0329C244.392 22.5668 245.332 22.8337 246.377 22.8337ZM251.599 7.72317H254.384V25.1316H251.843C251.843 25.1316 251.82 24.9227 251.773 24.5049C251.75 24.0871 251.715 23.5997 251.669 23.0426C251.622 22.4855 251.599 22.0213 251.599 21.6499V7.72317Z" fill="#E0E0E0"/>
<path d="M233.136 19.5261H235.747C235.562 20.6635 235.144 21.6847 234.494 22.59C233.867 23.472 233.032 24.18 231.987 24.7138C230.966 25.2245 229.782 25.4798 228.436 25.4798C226.811 25.4798 225.349 25.0968 224.049 24.3308C222.749 23.5416 221.716 22.4739 220.95 21.1277C220.207 19.7582 219.836 18.2031 219.836 16.4622C219.836 14.7214 220.196 13.1662 220.915 11.7967C221.658 10.4273 222.668 9.34796 223.944 8.55878C225.221 7.76959 226.66 7.375 228.262 7.375C229.956 7.375 231.384 7.75799 232.544 8.52396C233.728 9.26672 234.598 10.3693 235.155 11.8316C235.736 13.2707 235.968 15.0463 235.852 17.1586H222.621C222.737 18.2959 223.051 19.294 223.561 20.1528C224.072 21.0116 224.745 21.6847 225.581 22.1722C226.416 22.6364 227.368 22.8685 228.436 22.8685C229.619 22.8685 230.618 22.5668 231.43 21.9633C232.266 21.3366 232.834 20.5242 233.136 19.5261ZM228.366 9.98627C226.927 9.98627 225.72 10.4041 224.745 11.2397C223.77 12.0753 223.12 13.2126 222.795 14.6517H232.997C232.904 13.1198 232.405 11.9592 231.5 11.17C230.618 10.3809 229.573 9.98627 228.366 9.98627Z" fill="#E0E0E0"/>
<path d="M209.664 7.72317H212.449V25.1316H209.664V7.72317ZM218.02 10.3344C216.836 10.3344 215.838 10.6362 215.026 11.2397C214.237 11.82 213.61 12.5395 213.146 13.3983C212.705 14.2339 212.415 15.0463 212.275 15.8355L212.241 13.8161C212.241 13.6072 212.287 13.2591 212.38 12.7716C212.473 12.2842 212.647 11.7387 212.902 11.1352C213.157 10.5085 213.494 9.91663 213.912 9.35956C214.353 8.77928 214.91 8.30345 215.583 7.93207C216.256 7.56069 217.068 7.375 218.02 7.375V10.3344Z" fill="#E0E0E0"/>
<path d="M205.96 17.5723C205.728 19.1971 205.171 20.6014 204.289 21.7852C203.407 22.9689 202.281 23.8858 200.912 24.5357C199.566 25.1624 198.057 25.4758 196.386 25.4758C194.83 25.4758 193.391 25.2088 192.068 24.675C190.745 24.1179 189.585 23.3287 188.587 22.3074C187.612 21.2861 186.846 20.0559 186.289 18.6168C185.732 17.1777 185.453 15.5762 185.453 13.8121C185.453 12.0248 185.732 10.4233 186.289 9.00737C186.846 7.56827 187.612 6.33807 188.587 5.31678C189.585 4.29548 190.745 3.5179 192.068 2.98404C193.391 2.42697 194.83 2.14844 196.386 2.14844C198.08 2.14844 199.6 2.4734 200.947 3.12331C202.316 3.75002 203.442 4.66686 204.324 5.87385C205.206 7.05762 205.763 8.47351 205.995 10.1215H203.419C203.094 8.96094 202.583 7.98607 201.887 7.19689C201.214 6.4077 200.401 5.80421 199.45 5.38641C198.498 4.96861 197.477 4.7597 196.386 4.7597C194.97 4.7597 193.635 5.10787 192.382 5.80421C191.151 6.50055 190.153 7.52185 189.387 8.8681C188.621 10.2144 188.238 11.8624 188.238 13.8121C188.238 15.7618 188.621 17.4098 189.387 18.7561C190.153 20.1024 191.151 21.1236 192.382 21.82C193.635 22.5163 194.97 22.8645 196.386 22.8645C197.477 22.8645 198.486 22.6672 199.415 22.2726C200.366 21.8548 201.179 21.2513 201.852 20.4621C202.548 19.6729 203.059 18.7097 203.384 17.5723H205.96Z" fill="#E0E0E0"/>
<path d="M163.942 25.4758C163.13 25.4758 162.364 25.3365 161.644 25.058C160.925 24.7562 160.287 24.35 159.729 23.8394C159.196 23.3287 158.778 22.7252 158.476 22.0289C158.174 21.3093 158.023 20.5318 158.023 19.6962C158.023 18.6749 158.221 17.7696 158.615 16.9804C159.01 16.1913 159.544 15.5297 160.217 14.9959C160.913 14.4388 161.691 14.0094 162.55 13.7076C163.432 13.3827 164.337 13.1854 165.265 13.1158L165.37 13.2898C164.488 13.2434 163.664 13.1274 162.898 12.9417C162.132 12.7328 161.459 12.431 160.878 12.0364C160.298 11.6418 159.846 11.1428 159.521 10.5393C159.196 9.91261 159.033 9.15824 159.033 8.27621C159.033 7.11565 159.312 6.08275 159.869 5.17751C160.449 4.24906 161.273 3.5179 162.341 2.98404C163.408 2.42697 164.662 2.14844 166.101 2.14844C167.053 2.14844 167.911 2.2761 168.677 2.53142C169.443 2.78675 170.093 3.15813 170.627 3.64556C171.161 4.133 171.567 4.73649 171.846 5.45604C172.147 6.17559 172.298 6.99959 172.298 7.92804H169.861C169.861 6.88354 169.525 6.09435 168.851 5.56049C168.178 5.02663 167.238 4.7597 166.031 4.7597C164.685 4.7597 163.641 5.08466 162.898 5.73458C162.178 6.38449 161.818 7.24331 161.818 8.31103C161.818 9.05379 161.993 9.71531 162.341 10.2956C162.712 10.8527 163.223 11.2937 163.873 11.6186C164.546 11.9204 165.323 12.0713 166.205 12.0713H176.059V14.6825H172.647V25.1276H170.105C170.035 24.3384 169.977 23.6421 169.931 23.0386C169.908 22.4351 169.884 21.8084 169.861 21.1585C169.861 20.4853 169.861 19.6729 169.861 18.7213L170.035 19.1043C169.896 19.9631 169.664 20.7755 169.339 21.5415C169.037 22.3074 168.631 22.9922 168.12 23.5956C167.633 24.1759 167.041 24.6402 166.345 24.9883C165.648 25.3133 164.848 25.4758 163.942 25.4758ZM164.848 22.7949C165.892 22.7949 166.786 22.5047 167.528 21.9244C168.271 21.3442 168.84 20.6014 169.234 19.6962C169.652 18.7677 169.861 17.816 169.861 16.8412V14.6825H166.205C164.534 14.6825 163.211 15.0771 162.236 15.8663C161.285 16.6323 160.809 17.6652 160.809 18.965C160.809 20.172 161.157 21.112 161.853 21.7852C162.573 22.4583 163.571 22.7949 164.848 22.7949Z" fill="#E0E0E0"/>
<path d="M139.879 22.3811C138.649 22.3811 137.477 22.0909 136.362 21.5107C135.272 20.9072 134.378 20.0484 133.682 18.9342C133.008 17.8201 132.672 16.4854 132.672 14.9303C132.672 13.3751 133.008 12.0405 133.682 10.9263C134.355 9.78897 135.237 8.91855 136.328 8.31506C137.419 7.68835 138.602 7.375 139.879 7.375C140.274 7.375 140.645 7.40982 140.993 7.47945C141.364 7.52587 141.713 7.60711 142.038 7.72317H149.105V10.7174C148.107 10.7174 147.109 10.5317 146.111 10.1604C145.136 9.78897 144.301 9.40599 143.604 9.0114L143.465 8.87213C144.278 9.31314 144.939 9.8354 145.45 10.4389C145.984 11.0424 146.378 11.7271 146.633 12.4931C146.912 13.2358 147.051 14.0482 147.051 14.9303C147.051 16.4854 146.715 17.8201 146.042 18.9342C145.392 20.0484 144.521 20.9072 143.43 21.5107C142.339 22.0909 141.156 22.3811 139.879 22.3811ZM144.997 32.095V31.329C144.997 30.0988 144.672 29.2052 144.022 28.6481C143.395 28.0911 142.444 27.8125 141.167 27.8125H137.686C136.92 27.8125 136.246 27.7429 135.666 27.6036C135.109 27.4876 134.645 27.3019 134.273 27.0466C133.902 26.7912 133.624 26.4779 133.438 26.1065C133.252 25.7351 133.159 25.3173 133.159 24.8531C133.159 23.9711 133.426 23.3095 133.96 22.8685C134.494 22.4043 135.155 22.1142 135.945 21.9981C136.734 21.882 137.488 21.882 138.208 21.9981L139.879 22.3811C138.626 22.4507 137.651 22.5784 136.954 22.7641C136.281 22.9498 135.945 23.3444 135.945 23.9478C135.945 24.296 136.072 24.5862 136.328 24.8183C136.606 25.0272 137.012 25.1316 137.546 25.1316H141.167C142.374 25.1316 143.477 25.2941 144.475 25.6191C145.473 25.9672 146.274 26.5359 146.877 27.3251C147.481 28.1375 147.782 29.24 147.782 30.6327V32.095H144.997ZM139.879 19.7698C140.645 19.7698 141.353 19.5841 142.003 19.2127C142.676 18.8414 143.221 18.2959 143.639 17.5764C144.057 16.8568 144.266 15.9748 144.266 14.9303C144.266 13.8858 144.057 13.0037 143.639 12.2842C143.245 11.5414 142.711 10.9844 142.038 10.613C141.365 10.2184 140.645 10.0211 139.879 10.0211C139.113 10.0211 138.393 10.2184 137.72 10.613C137.047 10.9844 136.502 11.5298 136.084 12.2494C135.666 12.9689 135.457 13.8626 135.457 14.9303C135.457 15.9748 135.666 16.8568 136.084 17.5764C136.502 18.2959 137.047 18.8414 137.72 19.2127C138.393 19.5841 139.113 19.7698 139.879 19.7698Z" fill="#E0E0E0"/>
<path d="M114.719 7.72317H117.504V25.1316H114.719V7.72317ZM123.493 7.375C124.421 7.375 125.257 7.51427 125.999 7.7928C126.742 8.07134 127.369 8.47754 127.88 9.01139C128.39 9.54525 128.785 10.1952 129.063 10.9611C129.342 11.7039 129.481 12.5511 129.481 13.5028V25.1316H126.696V14.1991C126.696 12.8529 126.382 11.8432 125.756 11.17C125.129 10.4969 124.189 10.1604 122.936 10.1604C121.984 10.1604 121.102 10.4041 120.289 10.8915C119.477 11.3789 118.804 12.0521 118.27 12.9109C117.759 13.7465 117.446 14.7214 117.33 15.8355L117.295 13.8161C117.411 12.8413 117.643 11.9592 117.992 11.17C118.363 10.3809 118.816 9.70773 119.349 9.15066C119.906 8.57038 120.533 8.12937 121.23 7.82762C121.949 7.52587 122.703 7.375 123.493 7.375Z" fill="#E0E0E0"/>
<path d="M110.73 0.757812V4.13505H107.109V0.757812H110.73ZM107.527 7.72119H110.313V25.1296H107.527V7.72119Z" fill="#E0E0E0"/>
<path d="M94.1016 7.72151H104.338V10.3328H94.1016V7.72151ZM97.827 3.19531H100.612V25.13H97.827V3.19531Z" fill="#E0E0E0"/>
<path d="M89.6985 19.5261H92.3098C92.1241 20.6635 91.7063 21.6847 91.0563 22.59C90.4296 23.472 89.594 24.18 88.5495 24.7138C87.5282 25.2245 86.3445 25.4798 84.9982 25.4798C83.3734 25.4798 81.9111 25.0968 80.6113 24.3308C79.3114 23.5416 78.2785 22.4739 77.5126 21.1277C76.7698 19.7582 76.3984 18.2031 76.3984 16.4622C76.3984 14.7214 76.7582 13.1662 77.4778 11.7967C78.2205 10.4273 79.2302 9.34796 80.5068 8.55878C81.7834 7.76959 83.2226 7.375 84.8241 7.375C86.5186 7.375 87.946 7.75799 89.1066 8.52396C90.2904 9.26672 91.1608 10.3693 91.7179 11.8316C92.2982 13.2707 92.5303 15.0463 92.4142 17.1586H79.1838C79.2998 18.2959 79.6132 19.294 80.1238 20.1528C80.6345 21.0116 81.3076 21.6847 82.1432 22.1722C82.9788 22.6364 83.9305 22.8685 84.9982 22.8685C86.182 22.8685 87.1801 22.5668 87.9925 21.9633C88.8281 21.3366 89.3967 20.5242 89.6985 19.5261ZM84.9286 9.98627C83.4895 9.98627 82.2825 10.4041 81.3076 11.2397C80.3327 12.0753 79.6828 13.2126 79.3579 14.6517H89.5592C89.4664 13.1198 88.9673 11.9592 88.0621 11.17C87.1801 10.3809 86.1356 9.98627 84.9286 9.98627Z" fill="#E0E0E0"/>
<path d="M60.7969 0.757812H63.5822V25.1296H60.7969V0.757812ZM75.2111 7.72119L66.5068 16.321L66.5765 14.5105L75.803 25.1296H72.2516L63.6519 15.4157L71.2419 7.72119H75.2111Z" fill="#E0E0E0"/>
<path d="M49.2422 7.72317H52.0275V25.1316H49.2422V7.72317ZM57.5982 10.3344C56.4145 10.3344 55.4164 10.6362 54.604 11.2397C53.8148 11.82 53.1881 12.5395 52.7239 13.3983C52.2829 14.2339 51.9927 15.0463 51.8535 15.8355L51.8186 13.8161C51.8186 13.6072 51.8651 13.2591 51.9579 12.7716C52.0508 12.2842 52.2248 11.7387 52.4802 11.1352C52.7355 10.5085 53.072 9.91663 53.4899 9.35956C53.9309 8.77928 54.4879 8.30345 55.1611 7.93207C55.8342 7.56069 56.6466 7.375 57.5982 7.375V10.3344Z" fill="#E0E0E0"/>
<path d="M36.3443 25.4798C34.9749 25.4798 33.7099 25.0968 32.5493 24.3308C31.4119 23.5416 30.4951 22.4739 29.7988 21.1277C29.1256 19.7582 28.7891 18.2031 28.7891 16.4622C28.7891 14.7214 29.1372 13.1662 29.8336 11.7967C30.5299 10.4273 31.47 9.34796 32.6537 8.55878C33.8607 7.76959 35.207 7.375 36.6925 7.375C38.3173 7.375 39.5475 7.7928 40.3831 8.62841C41.2419 9.4408 41.8222 10.5317 42.1239 11.9012C42.4489 13.2707 42.6114 14.791 42.6114 16.4622C42.6114 17.3442 42.5185 18.3075 42.3328 19.352C42.1471 20.3733 41.8222 21.3598 41.358 22.3115C40.917 23.2399 40.2902 24.0059 39.4779 24.6094C38.6655 25.1896 37.621 25.4798 36.3443 25.4798ZM37.0407 22.8337C38.2244 22.8337 39.1993 22.5436 39.9653 21.9633C40.7545 21.383 41.3348 20.617 41.7061 19.6654C42.0775 18.6905 42.2632 17.6228 42.2632 16.4622C42.2632 15.1856 42.0659 14.0715 41.6713 13.1198C41.2999 12.1449 40.7197 11.3906 39.9305 10.8567C39.1645 10.2996 38.2012 10.0211 37.0407 10.0211C35.2998 10.0211 33.9536 10.6362 33.0019 11.8664C32.0502 13.0734 31.5744 14.6053 31.5744 16.4622C31.5744 17.6924 31.8065 18.7949 32.2708 19.7698C32.7582 20.7215 33.4081 21.4758 34.2205 22.0329C35.0561 22.5668 35.9962 22.8337 37.0407 22.8337ZM42.2632 7.72317H45.0486V25.1316H42.5069C42.5069 25.1316 42.4837 24.9227 42.4373 24.5049C42.4141 24.0871 42.3793 23.5997 42.3328 23.0426C42.2864 22.4855 42.2632 22.0213 42.2632 21.6499V7.72317Z" fill="#E0E0E0"/>
<path d="M13.0912 23.4598H11.977L22.2828 2.5H25.0682V25.131H22.2828V7.33955L22.8399 7.47882L13.9268 25.131H11.1414L2.22828 7.51363L2.78535 7.37437V25.131H0V2.5H2.78535L13.0912 23.4598Z" fill="#E0E0E0"/>
</svg>
