<svg width="1361" height="278" viewBox="0 0 1361 278" fill="none" xmlns="http://www.w3.org/2000/svg">
<path d="M1098.02 99.224C1097.57 99.5227 1097.13 100.045 1096.68 100.792C1096.23 101.539 1096.01 102.211 1096.01 102.808L1097.35 174.712C1097.35 175.16 1097.35 175.757 1097.35 176.504C1097.5 177.251 1097.57 178.072 1097.57 178.968C1097.57 179.715 1097.43 180.387 1097.13 180.984C1096.83 181.432 1096.23 181.656 1095.33 181.656L1043.14 181.432C1042.55 181.432 1042.02 181.357 1041.57 181.208C1041.28 180.909 1041.28 180.387 1041.57 179.64C1042.02 178.595 1042.99 177.848 1044.49 177.4C1045.98 176.803 1047.62 176.429 1049.41 176.28C1051.36 175.981 1053.22 175.832 1055.01 175.832C1056.81 175.683 1058.15 175.608 1059.05 175.608C1060.69 175.608 1061.51 174.787 1061.51 173.144V26.872C1061.51 25.976 1061.29 25.4533 1060.84 25.304C1060.54 25.0053 1060.02 24.7067 1059.27 24.408C1058.37 24.2587 1057.11 24.1093 1055.46 23.96C1053.97 23.8107 1052.4 23.6613 1050.76 23.512C1049.12 23.3627 1047.55 23.2133 1046.05 23.064C1044.71 22.7653 1043.74 22.4667 1043.14 22.168C1042.4 21.5707 1042.1 20.8987 1042.25 20.152C1042.4 19.256 1042.92 18.808 1043.81 18.808H1131.85C1137.22 18.808 1142.52 19.6293 1147.75 21.272C1152.98 22.7653 1157.61 25.08 1161.64 28.216C1165.67 31.2027 1168.96 35.0107 1171.49 39.64C1174.03 44.12 1175.3 49.3467 1175.3 55.32C1175.3 64.5787 1171.79 72.344 1164.77 78.616C1162.39 80.7067 1159.85 82.648 1157.16 84.44C1154.47 86.0827 1151.63 87.5013 1148.65 88.696C1147.45 89.2933 1146.18 89.7413 1144.84 90.04C1143.64 90.3387 1142.45 90.8613 1141.25 91.608C1140.51 92.056 1139.69 92.728 1138.79 93.624C1138.04 94.52 1137.89 95.416 1138.34 96.312C1138.49 96.9093 1139.69 97.656 1141.93 98.552C1144.32 99.2987 1146.93 100.12 1149.77 101.016C1152.6 101.763 1155.29 102.509 1157.83 103.256C1160.52 104.003 1162.31 104.525 1163.21 104.824C1170.97 107.811 1176.65 111.992 1180.23 117.368C1183.81 122.595 1185.61 129.315 1185.61 137.528C1185.61 145.144 1183.67 151.715 1179.78 157.24C1176.05 162.765 1171.2 167.32 1165.22 170.904C1159.4 174.488 1152.98 177.176 1145.96 178.968C1138.94 180.611 1132.22 181.432 1125.8 181.432H1106.09C1104.59 181.432 1103.77 180.835 1103.62 179.64C1103.47 178.445 1104.22 177.624 1105.86 177.176C1106.61 176.877 1107.36 176.803 1108.1 176.952C1109 176.952 1109.82 176.952 1110.57 176.952C1112.06 176.653 1113.55 176.429 1115.05 176.28C1116.54 175.981 1118.03 175.683 1119.53 175.384C1129.38 173.144 1136.85 168.888 1141.93 162.616C1147.15 156.195 1149.77 147.832 1149.77 137.528C1149.77 131.555 1148.87 126.104 1147.08 121.176C1145.44 116.099 1142.23 111.619 1137.45 107.736C1134.76 105.496 1131.77 103.853 1128.49 102.808C1125.35 101.613 1122.07 100.792 1118.63 100.344C1115.2 99.7467 1111.69 99.448 1108.1 99.448C1104.67 99.2987 1101.31 99.224 1098.02 99.224ZM1097.35 90.936C1097.35 91.2347 1097.35 91.5333 1097.35 91.832C1097.5 92.1307 1097.72 92.3547 1098.02 92.504C1099.22 93.2507 1100.11 93.624 1100.71 93.624C1101.46 93.624 1102.43 93.624 1103.62 93.624C1115.27 93.624 1124.6 90.5627 1131.62 84.44C1138.79 78.168 1142.37 68.984 1142.37 56.888C1142.37 50.616 1141.33 45.3147 1139.24 40.984C1137.15 36.6533 1134.24 33.144 1130.5 30.456C1126.92 27.768 1122.66 25.9013 1117.73 24.856C1112.81 23.6613 1107.51 23.064 1101.83 23.064C1101.08 23.064 1100.11 23.3627 1098.92 23.96C1097.87 24.5573 1097.35 25.304 1097.35 26.2V90.936ZM1353.51 180.536C1353.06 181.133 1352.46 181.432 1351.72 181.432H1279.14C1277.5 181.432 1276.9 180.76 1277.35 179.416C1277.5 178.371 1278.39 177.699 1280.04 177.4C1281.83 176.952 1283.7 176.728 1285.64 176.728C1287.73 176.728 1289.74 176.877 1291.68 177.176C1293.63 177.325 1294.97 177.4 1295.72 177.4C1297.51 177.4 1298.63 176.504 1299.08 174.712C1299.08 174.413 1298.93 173.965 1298.63 173.368C1295.64 168.589 1292.66 163.811 1289.67 159.032C1286.83 154.104 1284.14 149.101 1281.6 144.024L1270.63 121.848C1269.28 119.011 1267.64 116.323 1265.7 113.784C1263.91 111.245 1262.34 108.557 1261 105.72C1254.43 92.728 1247.71 79.96 1240.84 67.416C1233.97 54.872 1227.17 42.104 1220.45 29.112C1219.71 27.6187 1218.88 26.4987 1217.99 25.752C1217.24 25.1547 1215.9 24.7067 1213.96 24.408C1212.16 24.1093 1210.22 23.8853 1208.13 23.736C1206.19 23.4373 1204.4 23.064 1202.76 22.616C1201.26 22.0187 1200.52 21.1973 1200.52 20.152C1200.52 19.256 1201.04 18.808 1202.08 18.808H1275.33C1276.23 18.808 1276.68 19.256 1276.68 20.152C1276.68 21.1973 1276.3 21.8693 1275.56 22.168C1274.66 22.616 1273.39 22.9147 1271.75 23.064C1270.26 23.2133 1268.61 23.3627 1266.82 23.512C1265.18 23.512 1263.54 23.512 1261.89 23.512C1260.25 23.3627 1258.91 23.288 1257.86 23.288C1256.82 23.288 1256.07 23.8107 1255.62 24.856C1255.47 26.648 1256.22 29.1867 1257.86 32.472C1259.5 35.608 1261.37 38.968 1263.46 42.552C1265.7 45.9867 1267.87 49.4213 1269.96 52.856C1272.2 56.1413 1273.76 58.7547 1274.66 60.696C1275.11 61.592 1275.78 63.16 1276.68 65.4C1277.57 67.64 1278.62 69.9547 1279.81 72.344C1281.01 74.7333 1282.13 76.8987 1283.17 78.84C1284.37 80.632 1285.41 81.528 1286.31 81.528C1286.61 81.528 1286.91 81.304 1287.2 80.856C1288.4 78.7653 1289.52 76.7493 1290.56 74.808C1291.76 72.8667 1293.03 70.8507 1294.37 68.76C1295.87 66.52 1297.88 63.5333 1300.42 59.8C1303.11 55.9173 1305.65 51.96 1308.04 47.928C1310.58 43.7467 1312.74 39.7147 1314.53 35.832C1316.32 31.9493 1317.22 28.7387 1317.22 26.2C1317.22 25.4533 1317.07 25.08 1316.77 25.08C1316.47 24.9307 1316.03 24.7813 1315.43 24.632C1314.53 24.4827 1313.11 24.3333 1311.17 24.184C1309.23 24.0347 1307.22 23.8853 1305.12 23.736C1303.03 23.4373 1301.17 23.064 1299.52 22.616C1297.88 22.168 1296.91 21.496 1296.61 20.6C1296.16 19.4053 1296.69 18.808 1298.18 18.808C1299.23 18.808 1301.09 18.808 1303.78 18.808C1306.62 18.808 1309.83 18.808 1313.41 18.808C1317 18.808 1320.73 18.808 1324.61 18.808C1328.5 18.808 1332.08 18.808 1335.36 18.808C1338.65 18.808 1341.41 18.8827 1343.65 19.032C1346.04 19.1813 1347.46 19.3307 1347.91 19.48V19.704C1348.8 20.6 1348.73 21.3467 1347.68 21.944C1346.94 22.392 1345.74 22.7653 1344.1 23.064C1342.46 23.2133 1340.67 23.4373 1338.72 23.736C1336.93 23.8853 1335.07 24.1093 1333.12 24.408C1331.18 24.7067 1329.54 25.2293 1328.2 25.976C1327 26.5733 1325.96 27.32 1325.06 28.216C1324.31 28.9627 1323.57 29.784 1322.82 30.68C1321.63 32.1733 1320.58 33.7413 1319.68 35.384C1318.79 37.0267 1317.82 38.6693 1316.77 40.312L1307.36 55.32C1304.83 59.5013 1302.14 63.608 1299.3 67.64C1296.61 71.672 1294 75.7787 1291.46 79.96C1289.82 82.7973 1289.37 85.8587 1290.12 89.144C1290.27 90.04 1290.71 91.2347 1291.46 92.728C1292.36 94.2213 1293.25 95.864 1294.15 97.656C1295.19 99.2987 1296.16 100.941 1297.06 102.584C1298.11 104.077 1298.85 105.272 1299.3 106.168C1303.78 114.68 1308.34 123.192 1312.96 131.704C1317.59 140.067 1322.15 148.504 1326.63 157.016C1327.08 157.763 1327.75 159.181 1328.64 161.272C1329.69 163.363 1330.81 165.453 1332 167.544C1333.2 169.635 1334.39 171.501 1335.59 173.144C1336.78 174.787 1337.83 175.608 1338.72 175.608C1339.17 175.608 1340.44 175.757 1342.53 176.056C1344.77 176.205 1346.94 176.504 1349.03 176.952C1351.12 177.251 1352.76 177.699 1353.96 178.296C1355.15 178.893 1355 179.64 1353.51 180.536ZM1228.74 174.04C1229.04 174.787 1229.56 175.309 1230.31 175.608C1231.35 175.907 1232.7 176.131 1234.34 176.28C1236.13 176.28 1238 176.355 1239.94 176.504C1241.88 176.504 1243.67 176.653 1245.32 176.952C1246.96 177.101 1248.23 177.475 1249.12 178.072C1249.87 178.52 1250.39 179.192 1250.69 180.088C1250.99 180.984 1250.39 181.432 1248.9 181.432H1204.1C1202.61 181.432 1201.86 180.611 1201.86 178.968C1201.86 177.773 1202.61 177.101 1204.1 176.952C1205.74 176.653 1207.61 176.429 1209.7 176.28C1211.79 175.981 1213.96 175.533 1216.2 174.936C1218.44 174.339 1220.15 173.069 1221.35 171.128L1254.05 120.504C1255.25 118.563 1256.29 118.115 1257.19 119.16C1258.23 120.056 1258.38 121.325 1257.64 122.968L1255.62 126.328C1250.84 134.243 1246.29 142.157 1241.96 150.072C1237.63 157.987 1233.22 165.976 1228.74 174.04Z" fill="#1C46F5"/>
<path d="M75.4657 91.5104C81.3621 93.7206 86.7742 95.131 91.5966 97.678C108.549 106.624 115.94 121.148 114.972 139.988C114.108 156.87 106.127 169.52 90.4384 175.983C82.1624 179.393 73.044 182.108 64.1993 182.508C43.2249 183.455 22.1873 182.803 0.0546875 181.729C1.08656 180.698 1.99208 178.93 3.19243 178.719C18.1651 176.046 18.1651 176.088 18.1651 160.785C18.1651 118.117 18.1651 75.4496 18.1651 32.782C18.1651 21.1205 16.1646 19.0787 4.68759 18.2367C3.21349 18.1314 1.84467 16.658 0.412685 15.837C1.80256 15.2266 3.19243 14.111 4.5823 14.0899C22.2926 14.0268 40.0451 13.3742 57.6712 14.4477C67.4424 15.0582 77.4663 17.4999 86.5847 21.1205C101.936 27.2038 109.433 39.7704 108.233 55.9155C107.075 71.5554 98.7987 82.6064 84.0787 88.5845C81.5096 89.616 78.8351 90.3737 75.4868 91.5104H75.4657ZM48.7633 95.1941C44.7201 95.1941 41.5613 95.3204 38.4235 95.152C35.2858 94.9836 34.0855 96.1413 34.1065 99.3619C34.1908 123.632 34.1908 147.902 34.1065 172.194C34.1065 175.414 35.2858 176.551 38.4025 176.404C46.4469 176.025 54.5545 176.319 62.5146 175.351C74.6655 173.857 85.6581 169.541 92.818 158.806C105.285 140.177 98.167 111.613 78.435 101.046C68.8954 95.9308 58.4924 94.8994 48.7633 95.1731V95.1941ZM34.1486 87.6583C47.8999 88.0583 60.8089 88.6056 73.1493 83.5116C85.8476 78.2702 93.3235 66.5456 92.8812 52.4423C92.439 38.3601 85.2369 28.0458 71.0855 24.6779C60.3456 22.1309 49.0582 21.8783 38.0234 20.6784C34.0012 20.2364 34.1486 23.0991 34.1486 25.8356C34.1486 42.7595 34.1486 59.6834 34.1486 76.6073C34.1486 80.0594 34.1486 83.5116 34.1486 87.6373V87.6583Z" fill="#1C46F5"/>
<path d="M583.08 76.3972C583.312 74.5238 583.544 73.5555 583.544 72.5662C583.544 54.2109 583.649 35.8556 583.522 17.5214C583.459 8.55425 579.858 5.27051 570.677 4.57587C568.255 4.38643 564.591 5.9862 564.128 1.75522C564.085 1.41843 568.466 0.155452 570.803 0.113353C580.216 -0.0760935 589.63 0.0291546 599.611 0.0291546V6.80713C599.611 59.0733 599.611 111.319 599.611 163.585C599.611 175.478 601.359 177.288 613.299 178.656C614.9 178.846 616.353 180.151 617.89 180.951C617.659 181.498 617.427 182.066 617.216 182.614H583.544V167.9C577.205 174.552 570.719 179.898 562.527 183.014C537.446 192.528 508.891 179.982 499.119 154.533C491.391 134.389 491.349 113.739 498.614 93.5105C512.26 55.3897 558.547 50.022 583.08 76.4182V76.3972ZM583.565 121.275C583.565 113.402 583.291 105.53 583.649 97.6784C584.007 89.9952 580.743 84.1855 575.289 79.302C554.125 60.3784 522.389 69.1772 513.734 96.7311C508.491 113.423 508.533 130.642 512.976 147.482C517.988 166.363 533.614 176.951 552.608 175.541C566.886 174.488 585.207 161.417 583.628 142.767C583.038 135.652 583.522 128.432 583.522 121.275H583.565Z" fill="#1C46F5"/>
<path d="M377.855 62.9843V82.4131C379.666 80.1819 380.698 78.961 381.688 77.698C396.113 59.3638 421.804 54.2277 441.073 66.247C453.224 73.8249 458.404 85.76 458.678 99.5475C459.099 121.229 458.804 142.91 458.825 164.591C458.825 174.779 461.416 177.515 471.629 178.463C473.967 178.673 477.525 177.726 476.346 182.63H424.142C426.142 180.673 427.069 178.926 428.311 178.694C442.673 176.063 443.305 175.389 443.305 160.886C443.305 142.531 443.389 124.155 443.242 105.799C443.2 101.463 442.842 97.0216 441.936 92.7906C437.535 72.3304 415.36 66.247 398.513 74.5616C392.47 77.5507 386.952 82.5184 382.656 87.7597C379.75 91.3171 378.234 96.9374 378.108 101.695C377.623 122.323 377.897 142.952 377.897 163.602C377.897 174.821 380.298 177.452 391.417 178.463C393.902 178.694 396.744 178.378 395.397 182.651H343.719C345.172 180.778 345.825 179.452 346.878 178.736C347.615 178.231 348.92 178.505 349.973 178.42C359.702 177.557 362.377 174.632 362.398 164.696C362.44 145.815 362.398 126.933 362.398 108.031C362.398 98.7687 362.461 89.4858 362.377 80.224C362.292 71.4252 359.218 68.2046 350.584 67.5732C350.057 67.5311 349.447 67.6363 349.026 67.4258C347.551 66.6259 346.14 65.7208 344.687 64.8578C346.098 64.2263 347.488 63.0685 348.92 63.0475C358.354 62.8791 367.81 62.9633 377.855 62.9633V62.9843Z" fill="#1C46F5"/>
<path d="M241.203 104.075H236.128C236.128 91.1501 236.086 78.4361 236.233 65.7221C236.233 64.817 237.686 63.3435 238.634 63.1962C239.392 63.0909 240.887 64.4591 241.161 65.4485C242.804 71.1108 243.793 71.7002 249.016 68.4375C263.61 59.323 279.109 57.4917 295.303 62.9436C307.98 67.2166 314.635 77.0468 317.246 89.5713C318.51 95.6757 318.931 102.054 318.994 108.327C319.204 127.376 319.015 146.447 319.12 165.518C319.141 169.728 317.941 175.096 323.332 176.822C329.292 178.717 331.355 173.412 333.882 169.476C334.072 169.202 334.367 169.013 334.725 168.676C338.41 169.118 339.105 170.907 337.504 174.338C333.314 183.305 324.132 187.873 314.466 185.579C306.759 183.747 303.916 179.39 302.947 167.918C302.273 167.223 301.578 166.55 300.904 165.855C300.546 167.202 300.61 168.907 299.788 169.876C287.28 184.674 268.243 190.02 249.9 183.663C239.54 180.064 231.853 173.391 229.895 162.087C227.536 148.616 231.643 137.186 242.319 128.471C251.353 121.104 262.241 117.736 273.276 114.768C280.709 112.768 288.164 110.81 295.513 108.579C300.968 106.937 303.474 103.485 303.284 97.2966C302.779 80.2464 294.734 69.6163 279.425 66.943C265.379 64.5012 248.953 74.4367 244.299 88.6452C242.698 93.5287 242.214 98.7911 241.182 104.096L241.203 104.075ZM303.116 112.957C292.649 116.241 282.815 119.104 273.107 122.409C264.747 125.272 257.018 129.292 251.522 136.617C243.12 147.837 244.046 164.592 253.923 171.56C263.231 178.127 273.507 177.832 283.447 173.412C293.639 168.886 301.936 161.645 302.905 149.921C303.895 137.775 303.137 125.503 303.137 112.957H303.116Z" fill="#1C46F5"/>
<path d="M165.187 81.2605C183.15 60.2741 203.093 54.296 219.434 64.7366C217.455 69.5149 215.433 74.4194 213.348 79.4292C212.106 79.1135 211.179 79.1556 210.842 78.7346C202.903 68.5887 187.804 70.1463 178.054 77.4927C169.967 83.576 165.103 91.3012 165.25 101.973C165.524 122.77 165.313 143.567 165.334 164.364C165.334 174.595 168.325 177.647 178.707 178.32C180.097 178.405 181.592 178.236 182.876 178.657C184.561 179.204 186.098 180.215 187.699 181.036C185.972 181.688 184.266 182.846 182.539 182.888C170.094 183.057 157.669 182.972 145.223 182.972C141.033 182.972 136.863 182.972 132.673 182.972C132.336 182.572 131.978 182.172 131.641 181.773C132.609 180.741 133.41 179.415 134.61 178.762C135.579 178.215 137.011 178.51 138.232 178.384C146.719 177.584 149.772 174.489 149.793 166.006C149.877 137.337 149.877 108.688 149.793 80.0186C149.772 71.3883 146.55 68.294 137.727 67.6204C136.674 67.5362 135.536 67.6204 134.61 67.2204C133.662 66.8205 132.925 65.9154 132.083 65.2418C133.031 64.505 133.957 63.1579 134.905 63.1579C144.865 63.0105 154.805 63.0526 165.166 63.0526V81.2816L165.187 81.2605Z" fill="#1C46F5"/>
<g clip-path="url(#clip0_77_3868)">
<path fill-rule="evenodd" clip-rule="evenodd" d="M645.816 185.856C639.491 185.856 635.825 183.77 634.834 179.564C633.844 175.375 634.785 170.209 637.642 164.1C638.484 162.295 639.524 160.424 640.763 158.487C642.001 156.566 643.323 154.579 644.726 152.543C651.431 143.486 660.068 133.336 670.603 122.11C681.139 110.884 690.965 100.85 700.064 92.0085C705.315 87.0247 709.708 83.4482 713.192 81.2958C716.677 79.1433 720.128 77.5538 723.546 76.5272C725.999 75.7906 728.784 74.9773 731.894 74.0689L731.895 74.0686L731.899 74.0673C733.122 73.7102 734.394 73.3384 735.717 72.9508C737.055 72.5038 738.343 72.156 739.581 71.9242C740.82 71.709 742.158 71.4772 743.627 71.2454C736.989 75.7821 729.871 81.2295 722.291 87.5711C714.695 93.9126 705.596 102.655 694.994 113.748C689.297 119.643 683.352 126.216 677.159 133.468C670.95 140.721 665.352 147.526 660.365 153.867C655.378 160.209 651.91 165.209 649.994 168.835C647.765 173.14 646.906 176.203 647.418 178.008C647.93 179.829 649.317 180.723 651.579 180.723C655.427 180.723 659.721 179.366 664.51 176.65C669.282 173.935 673.708 171.104 677.803 168.156C685.416 162.494 693.013 156.251 700.592 149.463C707.85 142.963 715.245 136.022 722.79 128.685C730.162 120.094 737.186 111.503 743.866 102.913C748.854 96.5713 753.428 90.3953 757.589 84.3849C761.751 78.3746 764.129 74.467 764.756 72.6622L765.07 71.9834C765.912 70.1786 767.019 69.715 768.422 70.6257C770.619 72.2152 771.576 74.5332 771.279 77.5964C770.982 80.6595 769.942 84.12 768.142 87.9614C766.127 92.2663 763.419 96.8693 760.017 101.737C756.615 106.622 753.213 110.976 749.844 114.834C754.683 110.761 759.769 106.622 765.12 102.416C770.47 98.227 776.068 94.2035 781.931 90.3456C788.899 85.5771 795.918 81.4543 802.986 77.9275C810.054 74.4173 816.742 72.6622 823.083 72.6622C829.424 72.6622 833.008 74.02 834.577 76.7354C836.129 79.4508 835.865 83.0769 833.751 87.6137C831.538 92.3822 827.641 97.8131 822.076 103.939C815.85 110.976 809.013 117.997 801.566 125.017C794.101 132.054 787.149 138.843 780.692 145.416C779.387 146.774 777.323 148.876 774.532 151.708C771.742 154.539 768.984 157.652 766.276 161.063C765.087 162.652 763.865 164.291 762.626 165.997C761.371 167.702 760.331 169.457 759.488 171.262C758.432 173.53 757.953 175.633 758.085 177.554C758.2 179.491 759.736 180.451 762.676 180.451C766.523 180.451 770.8 179.143 775.523 176.544C780.246 173.944 784.523 171.163 788.388 168.215C796.232 162.553 803.96 156.261 811.606 149.34C813.251 147.851 814.903 146.342 816.561 144.815C835.553 119.34 858.94 99.0116 886.692 83.8443C892.472 80.6652 898.962 78.1154 906.195 76.1947C913.412 74.2741 920.199 73.2972 926.54 73.2972C935.359 73.2972 942.146 75.2344 946.902 79.0757L948.388 78.0492C957.173 70.3499 965.381 63.876 973.026 58.6603C980.656 53.4447 988.45 50.0505 996.443 48.4609C984.85 56.8556 972.548 67.4524 959.584 80.2513C946.604 93.0668 933.905 106.611 921.487 120.883C909.069 135.172 897.492 148.716 886.775 161.515C876.058 174.331 866.992 185.027 859.593 193.653C874.984 187.312 890.226 178.752 905.303 167.973C920.381 157.21 934.384 145.471 947.315 132.772C950.37 129.593 952.814 128.003 954.614 128.003C955.06 128.003 955.126 128.351 954.812 129.03C954.382 129.94 953.359 131.182 951.707 132.772C944.26 140.024 936.597 147.11 928.737 154.031C920.876 160.952 912.636 167.344 904.015 173.238C896.502 178.686 888.575 183.669 880.252 188.206C871.913 192.743 863.226 196.7 854.193 200.111C842.848 212.811 831.652 224.484 820.571 235.13C809.507 245.776 798.311 254.734 787.015 261.986C775.72 269.238 763.946 274.106 751.709 276.606V276.64C747.663 277.55 743.832 277.997 740.215 277.997C733.428 277.997 729.118 276.342 727.252 273.063C725.386 269.768 725.568 265.745 727.797 260.993C729.696 256.92 733.098 252.548 737.969 247.896C742.857 243.243 748.852 239.104 755.969 235.478C765.201 230.709 773.358 226.917 780.443 224.086C787.527 221.255 795.124 218.423 803.232 215.592C811.34 212.761 821.579 208.969 833.98 204.201C840.982 196.948 848.347 188.67 856.059 179.381C863.788 170.092 871.401 160.903 878.898 151.846C886.395 142.789 893.149 134.957 899.16 128.384C897.823 129.295 894.916 131.679 890.408 135.52C885.9 139.378 882.498 142.325 880.186 144.362C874.687 148.899 867.933 154.396 859.957 160.853C851.964 167.311 844.087 172.808 836.325 177.344C826.335 183.239 818.408 186.186 812.529 186.186C806.65 186.186 803.628 183.802 802.802 179.05C801.977 174.281 803.248 168.287 806.617 161.035C807.318 159.536 808.08 158.036 808.903 156.536C801.761 162.806 793.932 168.863 785.415 174.673C781.105 177.62 776.498 180.236 771.593 182.488C766.688 184.756 761.866 185.882 757.127 185.882L757.077 185.849C750.521 185.849 746.327 183.813 744.494 179.723C742.661 175.65 743.173 170.55 746.03 164.424C747.4 161.477 749.547 158.082 752.487 154.224C760.298 144.257 769.958 134.339 781.452 124.471C792.945 114.602 803.217 104.8 812.283 95.0645C815.338 91.8855 817.452 89.0541 818.624 86.5705C819.797 84.0869 819.929 82.2159 819.037 80.9575C818.145 79.7157 816.692 79.0865 814.644 79.0865C811.705 79.0865 807.477 80.2787 801.962 82.663C796.446 85.0472 789.329 89.5178 780.61 96.0911C775.309 100.164 769.149 105.165 762.098 111.059C755.046 116.954 749.068 122.285 744.131 127.037C736.006 134.753 728.327 142.502 721.061 150.333C713.795 158.149 707.272 165.351 701.509 171.924C696.819 177.14 692.542 180.485 688.694 181.958C684.83 183.432 681.494 184.044 678.67 183.829C675.83 183.614 673.567 183.614 671.883 183.829C680.156 175.331 688.53 166.517 696.997 157.387C690.145 163.441 682.742 169.18 674.798 174.614C670.488 177.561 665.814 180.177 660.811 182.429C655.79 184.697 650.803 185.823 645.833 185.823L645.816 185.856ZM749.655 52.0387C747.046 52.0387 745.328 51.1446 744.486 49.3564C743.644 47.5682 743.792 45.4819 744.915 43.1142C746.468 39.7862 749.126 36.8721 752.908 34.3719C756.673 31.8717 760.174 30.4974 763.378 30.2656C765.987 30.2656 767.737 31.0935 768.613 32.7658C769.504 34.4381 769.339 36.574 768.117 39.1901C766.68 42.2864 764.071 45.2005 760.29 47.949C756.525 50.681 752.974 52.0553 749.655 52.0553V52.0387ZM779.782 256.406C770.997 262.649 762.08 267.003 752.997 269.503C750.635 270.182 748.505 270.629 746.59 270.861C744.674 271.093 742.924 271.209 741.338 271.209C737.045 271.209 734.353 270.182 733.263 268.146C732.173 266.109 732.322 263.609 733.692 260.662C735.179 257.483 737.837 254.088 741.668 250.462C745.516 246.82 750.371 243.309 756.25 239.915C769.461 232.431 782.524 226.586 795.454 222.397C808.384 218.208 819.184 214.301 827.887 210.675C820.918 218.837 813.355 226.934 805.197 234.981C797.039 243.028 788.568 250.164 779.782 256.406ZM842.056 168.685C834.922 173.337 829.092 175.656 824.568 175.656L824.535 175.672C821.826 175.672 820.538 174.43 820.687 171.93C820.836 169.43 821.694 166.483 823.28 163.088C825.294 158.783 827.804 154.578 830.843 150.505C836.259 143.253 843.806 134.808 853.5 125.172C863.193 115.535 873.845 106.528 885.437 98.1334C893.381 92.2389 901.423 87.4704 909.564 83.8443C917.705 80.2182 925.054 78.3969 931.61 78.3969C936.581 78.3969 940.693 79.5228 943.929 81.7911C935.672 88.8281 928.258 95.2855 921.669 101.18C918.088 104.383 914.624 107.484 911.272 110.485C908.456 113.005 905.719 115.456 903.058 117.837C899.441 121.248 894.19 126.066 887.337 132.291C880.483 138.534 873.003 144.991 864.911 151.68C856.803 158.37 849.19 164.049 842.056 168.685Z" fill="#1C46F5"/>
</g>
<defs>
<clipPath id="clip0_77_3868">
<rect width="361.965" height="247.733" fill="white" transform="translate(634.477 30.2656)"/>
</clipPath>
</defs>
</svg>
