<svg width="1384" height="303" viewBox="0 0 1384 303" fill="none" xmlns="http://www.w3.org/2000/svg">
<path d="M32.8325 229.316C33.1338 229.617 34.2638 229.693 36.2225 229.542C38.1812 229.391 40.3658 229.391 42.7765 229.542C45.1872 229.542 47.3718 229.843 49.3305 230.446C51.4398 230.898 52.7205 231.877 53.1725 233.384C53.6245 234.74 53.0218 235.418 51.3645 235.418H5.4865C3.82917 235.418 3.2265 234.74 3.6785 233.384C3.97983 232.48 4.8085 231.802 6.1645 231.35C7.67117 230.898 9.3285 230.597 11.1365 230.446C12.9445 230.145 14.6772 229.994 16.3345 229.994C18.1425 229.843 19.4985 229.617 20.4025 229.316C21.7585 228.864 22.5872 228.337 22.8885 227.734C23.3405 227.131 23.7925 226.227 24.2445 225.022C30.5725 204.833 36.9758 184.869 43.4545 165.132C49.9332 145.244 56.4118 125.205 62.8905 105.016C63.3425 103.509 63.6438 102.003 63.7945 100.496C64.0958 98.9893 64.6232 97.558 65.3765 96.202C66.1298 94.6953 66.8078 94.4693 67.4105 95.524C68.0132 96.428 68.3898 97.2567 68.5405 98.01C66.4312 107.502 63.8698 116.843 60.8565 126.034C57.8432 135.074 54.9805 144.265 52.2685 153.606C51.9672 154.661 51.5152 156.243 50.9125 158.352C50.3098 160.311 49.6318 162.42 48.8785 164.68C48.2758 166.94 47.7485 169.125 47.2965 171.234C46.8445 173.343 46.6185 174.85 46.6185 175.754C46.6185 176.658 46.6938 177.336 46.8445 177.788C47.1458 178.089 47.8238 178.24 48.8785 178.24H95.4345C96.1878 178.24 96.7905 178.014 97.2425 177.562V177.336C97.6945 176.884 97.7698 176.357 97.4685 175.754C96.7152 173.645 95.9618 171.611 95.2085 169.652C94.6058 167.693 93.9278 165.659 93.1745 163.55C91.5172 158.427 90.1612 153.305 89.1065 148.182C88.0518 142.909 86.8465 137.711 85.4905 132.588C84.4358 128.671 83.3812 124.829 82.3265 121.062C81.2718 117.295 80.1418 113.453 78.9365 109.536C78.0325 106.673 77.0532 103.811 75.9985 100.948C74.9438 98.0853 73.5878 95.3733 71.9305 92.812C71.1772 91.6067 70.4992 90.7027 69.8965 90.1C69.4445 89.3467 69.0678 88.292 68.7665 86.936C68.6158 87.2373 68.6158 87.0867 68.7665 86.484C68.9172 85.8813 68.9925 85.4293 68.9925 85.128L69.8965 82.19C70.4992 80.382 71.0265 78.574 71.4785 76.766C72.0812 74.8073 72.7592 72.9993 73.5125 71.342C73.8138 70.7393 74.0398 70.3627 74.1905 70.212C74.3412 69.9107 74.7932 69.76 75.5465 69.76H93.4005C94.1538 69.76 94.6058 69.9107 94.7565 70.212C94.9072 70.3627 95.1332 70.7393 95.4345 71.342L147.641 225.022C148.243 226.529 149.072 227.809 150.127 228.864C150.579 229.316 151.483 229.542 152.839 229.542C154.345 229.542 155.927 229.617 157.585 229.768C159.393 229.919 161.125 230.22 162.783 230.672C164.44 231.124 165.721 231.953 166.625 233.158C167.077 233.761 167.077 234.288 166.625 234.74C166.173 235.192 165.57 235.418 164.817 235.418H94.3045C92.7978 235.418 92.1952 234.966 92.4965 234.062C92.7978 233.158 93.3252 232.48 94.0785 232.028C94.5305 231.727 95.5098 231.501 97.0165 231.35C98.6738 231.049 100.407 230.823 102.215 230.672C104.023 230.371 105.755 230.145 107.413 229.994C109.07 229.843 110.351 229.693 111.255 229.542C111.857 229.391 112.309 229.241 112.611 229.09C112.912 228.939 113.138 228.487 113.289 227.734V225.7C113.289 224.796 112.837 223.44 111.933 221.632C111.029 219.824 110.426 218.393 110.125 217.338C109.522 215.831 108.693 213.345 107.639 209.88C106.735 206.415 105.755 202.874 104.701 199.258C103.646 195.491 102.516 192.101 101.311 189.088C100.256 186.075 99.3518 184.191 98.5985 183.438C98.1465 182.986 97.6192 182.76 97.0165 182.76H47.7485C46.9952 182.76 46.1665 183.212 45.2625 184.116C44.3585 185.02 43.7558 185.773 43.4545 186.376C42.8518 187.581 42.4752 188.787 42.3245 189.992C42.1738 191.197 41.9478 192.403 41.6465 193.608C40.8932 196.621 40.0645 199.559 39.1605 202.422C38.4072 205.285 37.5785 208.223 36.6745 211.236C36.5238 211.688 36.1472 212.667 35.5445 214.174C35.0925 215.53 34.5652 217.037 33.9625 218.694C33.3598 220.201 32.8325 221.632 32.3805 222.988C31.9285 224.193 31.7025 224.871 31.7025 225.022C31.7025 225.625 31.7025 226.227 31.7025 226.83C31.8532 227.433 31.9285 228.035 31.9285 228.638L32.8325 229.316ZM229.846 227.282C229.394 227.734 229.168 228.261 229.168 228.864C229.168 229.919 229.168 232.103 229.168 235.418C229.168 238.733 229.168 242.499 229.168 246.718C229.168 250.937 229.093 255.381 228.942 260.052C228.942 264.873 228.942 269.243 228.942 273.16C229.093 277.077 229.168 280.392 229.168 283.104C229.319 285.816 229.47 287.247 229.62 287.398C229.922 287.699 230.223 288.076 230.524 288.528C230.976 288.98 231.353 289.357 231.654 289.658C232.408 290.411 233.538 290.788 235.044 290.788C236.702 290.788 238.284 290.713 239.79 290.562C241.448 290.411 242.879 290.411 244.084 290.562C245.29 290.713 245.892 291.315 245.892 292.37C245.892 293.575 245.29 294.178 244.084 294.178H182.838C181.633 294.178 181.03 293.575 181.03 292.37C181.03 291.165 181.784 290.487 183.29 290.336C184.948 290.336 186.68 290.411 188.488 290.562C190.447 290.863 192.18 290.939 193.686 290.788C195.344 290.637 196.172 289.809 196.172 288.302V133.944C196.172 133.191 196.022 132.663 195.72 132.362C195.419 132.061 195.042 131.684 194.59 131.232C194.289 130.78 193.988 130.403 193.686 130.102C193.234 129.65 192.406 129.349 191.2 129.198C189.995 129.047 188.639 128.972 187.132 128.972C185.776 128.972 184.42 129.047 183.064 129.198C181.708 129.198 180.729 129.198 180.126 129.198C179.222 129.198 178.921 128.671 179.222 127.616C179.524 127.013 179.825 126.637 180.126 126.486C180.277 126.034 180.729 125.657 181.482 125.356L221.71 113.378C223.518 112.775 224.95 112.851 226.004 113.604C227.059 114.357 227.812 115.412 228.264 116.768C228.716 118.124 228.942 119.631 228.942 121.288C229.093 122.795 229.168 124.151 229.168 125.356C229.168 126.561 229.696 127.164 230.75 127.164C232.86 127.164 235.27 126.486 237.982 125.13C240.694 123.623 243.632 122.041 246.796 120.384C249.96 118.576 253.35 116.994 256.966 115.638C260.582 114.131 264.424 113.378 268.492 113.378C279.491 113.378 288.456 116.165 295.386 121.74C302.317 127.315 307.515 134.321 310.98 142.758C314.596 151.195 316.555 160.386 316.856 170.33C317.158 180.123 316.103 189.389 313.692 198.128C312.035 204.155 309.7 209.654 306.686 214.626C303.673 219.598 300.057 223.892 295.838 227.508C291.62 230.973 286.798 233.685 281.374 235.644C275.95 237.603 270.074 238.582 263.746 238.582C259.829 238.582 256.138 237.753 252.672 236.096C249.207 234.288 245.742 232.405 242.276 230.446C241.523 229.994 240.694 229.617 239.79 229.316C238.886 228.864 238.133 228.412 237.53 227.96C236.777 227.357 236.476 226.755 236.626 226.152C236.777 225.549 237.304 225.173 238.208 225.022C247.248 227.282 254.556 227.357 260.13 225.248C265.705 222.988 269.999 219.372 273.012 214.4C276.026 209.428 278.06 203.552 279.114 196.772C280.169 189.992 280.696 183.061 280.696 175.98C280.696 170.857 280.395 165.358 279.792 159.482C279.34 153.455 278.135 147.956 276.176 142.984C274.218 137.861 271.28 133.643 267.362 130.328C263.445 127.013 258.021 125.356 251.09 125.356C249.885 125.356 248.152 125.507 245.892 125.808C243.632 125.959 241.372 126.335 239.112 126.938C236.852 127.39 234.894 128.143 233.236 129.198C231.579 130.253 230.75 131.533 230.75 133.04V220.502C230.75 221.255 230.75 221.933 230.75 222.536C230.901 223.139 230.976 223.817 230.976 224.57L229.846 227.282ZM405.551 232.48C405.852 233.083 406.078 233.761 406.229 234.514C406.379 235.117 405.927 235.418 404.873 235.418H338.655C337.449 235.418 336.847 234.815 336.847 233.61C336.847 232.405 337.525 231.802 338.881 231.802C340.387 231.651 341.969 231.651 343.627 231.802C345.284 231.953 346.791 231.953 348.147 231.802C349.653 231.651 350.407 230.898 350.407 229.542V131.458C350.407 129.951 349.578 129.198 347.921 129.198C346.263 129.047 344.38 129.047 342.271 129.198C340.312 129.349 338.504 129.424 336.847 129.424C335.34 129.424 334.737 128.821 335.039 127.616C335.34 127.013 335.641 126.637 335.943 126.486C336.093 126.034 336.545 125.657 337.299 125.356L377.301 113.378C378.054 113.077 378.958 113.077 380.013 113.378C381.218 113.529 382.047 113.981 382.499 114.734C382.951 115.487 383.252 116.919 383.403 119.028C383.704 121.137 383.93 123.548 384.081 126.26C384.231 128.821 384.307 131.307 384.307 133.718C384.457 136.129 384.683 137.861 384.985 138.916C385.135 139.669 385.211 140.121 385.211 140.272C385.361 140.423 385.813 140.573 386.567 140.724C388.073 140.875 389.806 139.519 391.765 136.656C393.723 133.793 396.059 130.629 398.771 127.164C401.633 123.699 404.948 120.535 408.715 117.672C412.632 114.659 417.227 113.152 422.501 113.152C424.911 113.152 427.322 113.453 429.733 114.056C432.143 114.508 434.253 115.337 436.061 116.542C438.019 117.747 439.526 119.329 440.581 121.288C441.786 123.247 442.389 125.657 442.389 128.52C442.389 138.615 437.341 143.662 427.247 143.662C425.137 143.662 423.254 143.511 421.597 143.21C419.939 142.909 418.282 142.155 416.625 140.95C416.173 140.498 415.419 139.82 414.365 138.916C413.461 137.861 412.481 136.807 411.427 135.752C410.372 134.547 409.393 133.492 408.489 132.588C407.735 131.684 407.208 131.232 406.907 131.232C405.701 130.931 404.571 131.006 403.517 131.458C401.257 132.211 398.997 134.019 396.737 136.882C394.477 139.745 392.443 142.984 390.635 146.6C388.977 150.216 387.621 153.832 386.567 157.448C385.512 161.064 384.985 164.002 384.985 166.262V227.056C384.985 227.809 385.512 228.789 386.567 229.994C387.621 231.199 388.525 231.802 389.279 231.802H404.647L405.551 232.48ZM469.177 69.76C469.177 64.1853 470.909 59.9667 474.375 57.104C477.84 54.2413 481.682 52.81 485.901 52.81C490.119 52.81 493.961 54.2413 497.427 57.104C500.892 59.9667 502.625 64.1853 502.625 69.76C502.625 75.3347 500.892 79.5533 497.427 82.416C493.961 85.128 490.119 86.484 485.901 86.484C481.682 86.484 477.84 85.128 474.375 82.416C470.909 79.5533 469.177 75.3347 469.177 69.76ZM455.165 234.74C454.411 234.288 454.336 233.685 454.939 232.932C455.692 232.179 456.37 231.802 456.973 231.802H467.143C468.649 231.802 469.403 231.049 469.403 229.542V131.458C469.403 129.951 468.649 129.198 467.143 129.198H454.261C453.959 128.897 453.507 128.294 452.905 127.39C452.453 126.335 452.603 125.657 453.357 125.356L500.365 113.152C502.323 112.7 503.303 113.453 503.303 115.412V229.542C503.303 230.597 503.905 231.199 505.111 231.35C506.316 231.501 507.672 231.576 509.179 231.576C510.836 231.576 512.418 231.651 513.925 231.802C515.431 231.802 516.486 232.254 517.089 233.158C517.541 233.911 517.39 234.514 516.637 234.966C516.335 235.117 514.678 235.267 511.665 235.418C508.651 235.418 504.885 235.493 500.365 235.644C495.995 235.644 491.174 235.644 485.901 235.644C480.778 235.644 475.957 235.644 471.437 235.644C467.067 235.644 463.301 235.569 460.137 235.418C457.123 235.267 455.466 235.117 455.165 234.966V234.74ZM537.067 235.418C535.861 235.418 535.259 234.815 535.259 233.61C535.259 232.254 536.012 231.576 537.519 231.576C539.176 231.576 540.909 231.727 542.717 232.028C544.675 232.179 546.408 232.179 547.915 232.028C549.572 231.877 550.401 231.049 550.401 229.542V68.178C550.401 66.6713 549.647 65.918 548.141 65.918H537.067C535.861 65.918 535.259 65.3153 535.259 64.11C535.259 62.9047 535.861 62.1513 537.067 61.85L581.589 52.81C583.397 52.358 584.301 53.1113 584.301 55.07V228.638C584.301 229.391 584.602 230.145 585.205 230.898C585.958 231.501 586.711 231.802 587.465 231.802H597.409C598.614 231.802 599.367 232.405 599.669 233.61C599.97 234.815 599.292 235.418 597.635 235.418H537.067ZM666.838 230.22C667.441 230.521 668.42 230.823 669.776 231.124C671.132 231.275 672.413 231.501 673.618 231.802C674.824 231.953 675.878 232.179 676.782 232.48C677.837 232.781 678.364 233.233 678.364 233.836C678.364 234.891 677.912 235.418 677.008 235.418H619.83C618.625 235.418 618.022 234.815 618.022 233.61C618.022 232.405 618.7 231.802 620.056 231.802C621.563 231.651 623.145 231.651 624.802 231.802C626.46 231.953 627.966 231.953 629.322 231.802C630.829 231.651 631.582 230.898 631.582 229.542V131.458C631.582 129.951 630.829 129.198 629.322 129.198H617.118C616.516 129.198 616.214 129.047 616.214 128.746C616.214 128.294 616.214 127.917 616.214 127.616C616.516 127.013 616.817 126.637 617.118 126.486C617.269 126.034 617.721 125.657 618.474 125.356L658.702 113.378C659.305 113.227 660.209 113.152 661.414 113.152C662.62 113.152 663.448 113.378 663.9 113.83C664.051 113.981 664.202 114.885 664.352 116.542C664.654 118.199 664.88 120.083 665.03 122.192C665.332 124.151 665.558 126.109 665.708 128.068C666.01 129.876 666.16 131.006 666.16 131.458C666.462 133.115 666.537 134.923 666.386 136.882C666.386 138.69 666.386 140.423 666.386 142.08V229.316L666.838 230.22ZM743 229.542C743.904 230.295 745.034 230.823 746.39 231.124C747.897 231.425 749.253 231.727 750.458 232.028C751.814 232.179 752.944 232.405 753.848 232.706C754.752 232.857 755.204 233.233 755.204 233.836C755.204 234.891 754.752 235.418 753.848 235.418H696.67C695.164 235.418 694.636 234.815 695.088 233.61C695.39 232.405 696.218 231.802 697.574 231.802C699.081 231.651 700.588 231.651 702.094 231.802C703.752 231.953 705.183 231.953 706.388 231.802C707.744 231.651 708.422 230.898 708.422 229.542V140.498C708.422 138.238 707.895 136.279 706.84 134.622C705.334 132.362 703.45 130.705 701.19 129.65C698.93 128.445 696.52 127.767 693.958 127.616C691.548 127.315 689.062 127.465 686.5 128.068C683.939 128.671 681.528 129.424 679.268 130.328C678.364 130.78 677.234 131.458 675.878 132.362C674.673 133.115 673.694 133.643 672.94 133.944C671.735 134.396 670.831 134.396 670.228 133.944C669.776 133.492 670.002 132.663 670.906 131.458C671.66 130.554 672.564 129.575 673.618 128.52C674.824 127.465 675.803 126.561 676.556 125.808C681.528 121.439 686.425 118.275 691.246 116.316C696.068 114.357 701.793 113.378 708.422 113.378C713.846 113.378 718.366 114.508 721.982 116.768C725.598 118.877 728.687 121.288 731.248 124C733.81 126.712 735.994 129.198 737.802 131.458C739.61 133.567 741.418 134.622 743.226 134.622C743.829 134.622 744.582 134.17 745.486 133.266C746.541 132.362 747.294 131.684 747.746 131.232C750.76 128.219 753.924 125.507 757.238 123.096C760.704 120.535 764.395 118.35 768.312 116.542C772.682 114.433 777.654 113.378 783.228 113.378C787.598 113.378 791.741 113.83 795.658 114.734C799.576 115.638 803.041 117.145 806.054 119.254C809.068 121.213 811.478 123.849 813.286 127.164C815.245 130.479 816.45 134.471 816.902 139.142C818.108 153.907 818.635 168.673 818.484 183.438C818.484 198.053 818.484 212.743 818.484 227.508C818.484 227.96 818.56 228.261 818.71 228.412C818.861 228.713 818.936 229.015 818.936 229.316C819.087 229.617 819.238 229.919 819.388 230.22C819.84 231.275 820.744 231.877 822.1 232.028C823.607 232.028 825.038 231.953 826.394 231.802C827.901 231.651 829.182 231.651 830.236 231.802C831.442 231.953 832.044 232.555 832.044 233.61C832.044 234.815 831.442 235.418 830.236 235.418H773.51C772.305 235.418 771.702 234.815 771.702 233.61C771.702 232.405 772.38 231.802 773.736 231.802C775.243 231.651 776.825 231.651 778.482 231.802C780.14 231.953 781.646 231.953 783.002 231.802C784.509 231.651 785.262 230.898 785.262 229.542V146.6C785.262 141.176 784.132 136.957 781.872 133.944C779.763 130.931 777.126 128.972 773.962 128.068C770.798 127.013 767.258 126.787 763.34 127.39C759.574 127.842 756.108 128.897 752.944 130.554C749.78 132.061 747.068 133.944 744.808 136.204C742.699 138.313 741.644 140.498 741.644 142.758C741.644 157.373 741.87 171.837 742.322 186.15C742.774 200.463 743 214.927 743 229.542ZM936.771 238.356C934.963 237.753 933.079 236.774 931.121 235.418C929.162 234.062 927.354 232.48 925.697 230.672C924.039 228.864 922.608 226.981 921.403 225.022C920.348 222.913 919.821 220.879 919.821 218.92V214.4L920.499 170.104C920.499 168.899 919.896 168.07 918.691 167.618C917.787 167.317 916.657 167.241 915.301 167.392C913.945 167.543 912.513 167.844 911.007 168.296C909.651 168.748 908.295 169.2 906.939 169.652C905.583 170.104 904.528 170.556 903.775 171.008C894.584 175.528 888.03 182.609 884.113 192.252C882.606 195.717 881.627 199.484 881.175 203.552C880.873 207.469 881.25 211.161 882.305 214.626C883.51 218.091 885.469 220.954 888.181 223.214C890.893 225.474 894.659 226.604 899.481 226.604C900.083 226.604 901.213 226.378 902.871 225.926C904.679 225.323 906.411 224.871 908.069 224.57C909.726 224.118 911.007 223.967 911.911 224.118C912.965 224.269 913.116 225.097 912.363 226.604C910.404 230.371 907.089 233.233 902.419 235.192C897.899 237 892.927 237.979 887.503 238.13C882.229 238.431 877.031 238.055 871.909 237C866.937 235.795 862.944 233.987 859.931 231.576C856.465 228.864 854.13 225.625 852.925 221.858C851.719 218.091 851.117 214.099 851.117 209.88C851.117 203.251 852.774 197.601 856.089 192.93C859.403 188.109 863.622 184.041 868.745 180.726C873.867 177.411 879.367 174.775 885.243 172.816C891.269 170.857 896.995 169.275 902.419 168.07C903.323 167.919 904.528 167.769 906.035 167.618C907.541 167.317 909.123 167.015 910.781 166.714C912.438 166.413 913.945 166.111 915.301 165.81C916.807 165.509 917.862 165.207 918.465 164.906C920.122 164.153 920.875 162.947 920.725 161.29C920.725 159.482 920.725 157.9 920.725 156.544C920.725 153.983 920.725 151.195 920.725 148.182C920.725 145.169 920.574 142.155 920.273 139.142C919.971 135.978 919.369 133.04 918.465 130.328C917.711 127.465 916.506 124.904 914.849 122.644C912.589 119.48 909.5 117.898 905.583 117.898C904.679 117.898 903.247 117.898 901.289 117.898C899.481 117.747 897.597 117.672 895.639 117.672C893.68 117.672 891.872 117.747 890.215 117.898C888.557 118.049 887.427 118.275 886.825 118.576C886.222 118.877 885.845 120.007 885.695 121.966C885.544 123.774 885.318 126.034 885.017 128.746C884.866 131.458 884.489 134.321 883.887 137.334C883.435 140.197 882.606 142.909 881.401 145.47C880.195 148.031 878.463 150.141 876.203 151.798C874.093 153.455 871.306 154.284 867.841 154.284C863.923 154.284 860.91 153.38 858.801 151.572C856.842 149.613 855.637 147.278 855.185 144.566C854.883 141.703 855.26 138.765 856.315 135.752C857.369 132.739 858.951 130.102 861.061 127.842C863.923 124.829 867.163 122.343 870.779 120.384C874.545 118.425 878.538 116.919 882.757 115.864C886.975 114.809 891.194 114.131 895.413 113.83C899.782 113.378 903.925 113.152 907.843 113.152C909.952 113.152 912.061 113.227 914.171 113.378C916.28 113.378 918.389 113.378 920.499 113.378C925.019 113.378 929.237 114.357 933.155 116.316C937.223 118.275 940.688 120.911 943.551 124.226C946.564 127.39 948.899 131.081 950.557 135.3C952.214 139.519 953.043 143.813 953.043 148.182V223.44C953.043 224.495 953.344 225.399 953.947 226.152C954.7 226.755 955.453 227.282 956.207 227.734C957.563 228.638 958.693 229.241 959.597 229.542C960.651 229.693 961.555 229.693 962.309 229.542C963.213 229.391 964.117 229.09 965.021 228.638C965.925 228.186 967.055 227.734 968.411 227.282C969.616 226.83 970.445 226.604 970.897 226.604C971.499 226.604 971.65 227.433 971.349 229.09C971.198 229.843 970.897 230.521 970.445 231.124C969.993 231.727 969.541 232.254 969.089 232.706C967.281 234.514 965.021 235.87 962.309 236.774C959.747 237.527 957.035 238.055 954.173 238.356C951.31 238.657 948.447 238.733 945.585 238.582C942.722 238.582 940.085 238.582 937.675 238.582C937.223 238.582 936.921 238.507 936.771 238.356ZM1053.76 232.48C1054.06 233.083 1054.28 233.761 1054.43 234.514C1054.58 235.117 1054.13 235.418 1053.08 235.418H986.86C985.654 235.418 985.052 234.815 985.052 233.61C985.052 232.405 985.73 231.802 987.086 231.802C988.592 231.651 990.174 231.651 991.832 231.802C993.489 231.953 994.996 231.953 996.352 231.802C997.858 231.651 998.612 230.898 998.612 229.542V131.458C998.612 129.951 997.783 129.198 996.126 129.198C994.468 129.047 992.585 129.047 990.476 129.198C988.517 129.349 986.709 129.424 985.052 129.424C983.545 129.424 982.942 128.821 983.244 127.616C983.545 127.013 983.846 126.637 984.148 126.486C984.298 126.034 984.75 125.657 985.504 125.356L1025.51 113.378C1026.26 113.077 1027.16 113.077 1028.22 113.378C1029.42 113.529 1030.25 113.981 1030.7 114.734C1031.16 115.487 1031.46 116.919 1031.61 119.028C1031.91 121.137 1032.14 123.548 1032.29 126.26C1032.44 128.821 1032.51 131.307 1032.51 133.718C1032.66 136.129 1032.89 137.861 1033.19 138.916C1033.34 139.669 1033.42 140.121 1033.42 140.272C1033.57 140.423 1034.02 140.573 1034.77 140.724C1036.28 140.875 1038.01 139.519 1039.97 136.656C1041.93 133.793 1044.26 130.629 1046.98 127.164C1049.84 123.699 1053.15 120.535 1056.92 117.672C1060.84 114.659 1065.43 113.152 1070.71 113.152C1073.12 113.152 1075.53 113.453 1077.94 114.056C1080.35 114.508 1082.46 115.337 1084.27 116.542C1086.22 117.747 1087.73 119.329 1088.79 121.288C1089.99 123.247 1090.59 125.657 1090.59 128.52C1090.59 138.615 1085.55 143.662 1075.45 143.662C1073.34 143.662 1071.46 143.511 1069.8 143.21C1068.14 142.909 1066.49 142.155 1064.83 140.95C1064.38 140.498 1063.62 139.82 1062.57 138.916C1061.67 137.861 1060.69 136.807 1059.63 135.752C1058.58 134.547 1057.6 133.492 1056.69 132.588C1055.94 131.684 1055.41 131.232 1055.11 131.232C1053.91 130.931 1052.78 131.006 1051.72 131.458C1049.46 132.211 1047.2 134.019 1044.94 136.882C1042.68 139.745 1040.65 142.984 1038.84 146.6C1037.18 150.216 1035.83 153.832 1034.77 157.448C1033.72 161.064 1033.19 164.002 1033.19 166.262V227.056C1033.19 227.809 1033.72 228.789 1034.77 229.994C1035.83 231.199 1036.73 231.802 1037.48 231.802H1052.85L1053.76 232.48ZM1211.17 213.496C1211.17 216.359 1210.8 218.769 1210.04 220.728C1209.29 222.536 1207.86 224.344 1205.75 226.152C1203.94 227.809 1201.83 229.241 1199.42 230.446C1197.16 231.651 1194.75 232.706 1192.19 233.61C1189.63 234.514 1186.99 235.343 1184.28 236.096C1181.72 236.699 1179.31 237.151 1177.05 237.452C1166.65 238.959 1156.86 238.657 1147.67 236.548C1138.63 234.439 1130.72 230.747 1123.94 225.474C1117.31 220.05 1112.03 213.195 1108.12 204.908C1104.35 196.471 1102.47 186.828 1102.47 175.98C1102.47 166.488 1104.12 157.9 1107.44 150.216C1110.75 142.381 1115.35 135.752 1121.22 130.328C1127.1 124.904 1134.03 120.761 1142.02 117.898C1150 114.885 1158.66 113.378 1168.01 113.378C1168.46 113.378 1169.36 113.378 1170.72 113.378C1172.07 113.378 1173.43 113.378 1174.79 113.378C1176.29 113.378 1177.65 113.378 1178.85 113.378C1180.06 113.378 1180.74 113.378 1180.89 113.378C1182.7 114.131 1184.5 114.885 1186.31 115.638C1188.27 116.241 1190.15 116.919 1191.96 117.672C1194.67 118.727 1197.24 120.233 1199.65 122.192C1202.21 124 1204.39 126.185 1206.2 128.746C1208.16 131.157 1209.74 133.793 1210.95 136.656C1212.15 139.519 1212.75 142.381 1212.75 145.244C1212.75 147.956 1211.93 150.216 1210.27 152.024C1208.76 153.681 1206.88 154.887 1204.62 155.64C1202.36 156.243 1199.95 156.393 1197.39 156.092C1194.98 155.64 1192.87 154.736 1191.06 153.38C1188.2 151.271 1186.46 148.634 1185.86 145.47C1185.26 142.155 1184.88 138.765 1184.73 135.3C1184.73 131.835 1184.5 128.595 1184.05 125.582C1183.75 122.418 1182.32 119.932 1179.76 118.124C1179.61 117.973 1179.23 117.898 1178.63 117.898C1174.26 117.898 1170.27 118.124 1166.65 118.576C1163.18 118.877 1159.57 120.384 1155.8 123.096C1151.88 125.959 1148.8 129.499 1146.54 133.718C1144.28 137.786 1142.54 142.155 1141.34 146.826C1140.13 151.497 1139.38 156.318 1139.08 161.29C1138.78 166.111 1138.63 170.707 1138.63 175.076C1138.63 177.185 1138.55 179.219 1138.4 181.178C1138.4 183.137 1138.48 185.171 1138.63 187.28C1138.78 189.239 1139.38 191.8 1140.43 194.964C1141.64 197.977 1142.69 200.388 1143.6 202.196C1147.06 209.579 1151.73 215.53 1157.61 220.05C1163.64 224.419 1170.87 226.604 1179.31 226.604C1182.32 226.604 1185.26 226.303 1188.12 225.7C1190.98 225.097 1193.69 224.118 1196.26 222.762C1198.82 221.557 1201.23 220.125 1203.49 218.468C1205.75 216.66 1208.01 214.927 1210.27 213.27C1210.57 212.969 1210.87 213.044 1211.17 213.496ZM1278.32 53.262C1278.62 53.262 1278.99 53.262 1279.45 53.262C1279.9 53.262 1280.28 53.3373 1280.58 53.488C1281.18 53.6387 1281.48 54.0153 1281.48 54.618C1281.63 56.426 1281.71 59.7407 1281.71 64.562C1281.71 69.2327 1281.63 74.5813 1281.48 80.608C1281.33 86.484 1281.1 92.7367 1280.8 99.366C1280.65 105.845 1280.43 111.871 1280.12 117.446C1279.97 122.87 1279.9 127.465 1279.9 131.232C1279.9 134.848 1280.05 136.807 1280.35 137.108C1280.8 137.711 1281.25 138.163 1281.71 138.464C1282.16 138.765 1282.38 139.368 1282.38 140.272V229.542C1282.38 231.049 1283.14 231.802 1284.64 231.802H1293.23C1294.44 231.802 1295.04 232.405 1295.04 233.61C1295.04 234.815 1294.44 235.418 1293.23 235.418H1235.15C1233.95 235.418 1233.34 235.041 1233.34 234.288C1233.34 233.384 1233.72 232.631 1234.47 232.028C1235.08 231.576 1236.13 231.425 1237.64 231.576C1239.14 231.727 1240.65 231.877 1242.16 232.028C1243.81 232.179 1245.25 232.179 1246.45 232.028C1247.81 231.727 1248.48 230.898 1248.48 229.542V68.178C1248.48 66.6713 1247.66 65.918 1246 65.918C1244.49 65.7673 1242.76 65.7673 1240.8 65.918C1238.99 66.0687 1237.26 66.144 1235.6 66.144C1234.1 66.144 1233.34 65.466 1233.34 64.11C1233.34 62.9047 1233.95 62.1513 1235.15 61.85L1278.32 53.262ZM1312.22 233.158C1312.97 232.254 1314.1 231.802 1315.61 231.802C1317.26 231.802 1318.92 231.877 1320.58 232.028C1322.24 232.028 1323.67 231.953 1324.87 231.802C1326.08 231.651 1326.68 230.898 1326.68 229.542V151.12C1326.68 147.353 1326.23 143.813 1325.32 140.498C1324.42 137.033 1322.99 134.17 1321.03 131.91C1319.07 129.65 1316.51 128.143 1313.35 127.39C1310.33 126.486 1306.72 126.712 1302.5 128.068C1302.2 128.068 1300.99 128.671 1298.88 129.876C1296.92 130.931 1294.89 131.91 1292.78 132.814C1290.67 133.567 1288.94 134.019 1287.58 134.17C1286.38 134.17 1286.53 133.115 1288.03 131.006C1292.4 125.13 1297.75 120.761 1304.08 117.898C1310.56 114.885 1317.41 113.378 1324.65 113.378C1335.49 113.378 1344.16 116.467 1350.64 122.644C1357.27 128.671 1360.58 137.183 1360.58 148.182V229.542C1360.58 230.898 1361.26 231.651 1362.61 231.802C1363.97 231.953 1365.4 231.953 1366.91 231.802C1368.57 231.651 1370.07 231.651 1371.43 231.802C1372.78 231.802 1373.46 232.405 1373.46 233.61C1373.46 234.815 1372.86 235.418 1371.65 235.418H1314.02C1312.37 235.418 1311.76 234.665 1312.22 233.158Z" fill="#E0E0E0"/>
</svg>
