<svg width="1492" height="242" viewBox="0 0 1492 242" fill="none" xmlns="http://www.w3.org/2000/svg">
<path d="M1490.31 120.677C1490.31 136.891 1476.52 152.572 1450.96 166.995C1425.47 181.383 1388.53 194.365 1342.81 205.277C1251.4 227.098 1125.07 240.601 985.503 240.601C845.938 240.601 719.61 227.098 628.194 205.277C582.481 194.365 545.539 181.383 520.044 166.995C494.489 152.572 480.698 136.891 480.698 120.677C480.698 104.462 494.489 88.7816 520.044 74.3592C545.539 59.9712 582.481 46.9892 628.194 36.0773C719.61 14.2563 845.938 0.752378 985.503 0.752378C1125.07 0.752378 1251.4 14.2563 1342.81 36.0773C1388.53 46.9892 1425.47 59.9712 1450.96 74.3592C1476.52 88.7816 1490.31 104.462 1490.31 120.677Z" stroke="#1C46F5" stroke-width="1.50476"/>
<path d="M832.38 28.5813V94.7155C833.496 94.2538 834.207 94.1384 834.631 93.7537C860.365 69.6507 898.39 79.1726 908.026 112.74C913.681 132.438 912.816 152.251 900.545 169.756C886.812 189.339 864.558 193.628 840.766 186.722C839.554 186.376 838.381 185.818 837.208 185.337C820.128 178.528 819.436 177.528 819.436 159.388C819.436 122.089 819.436 84.7896 819.436 47.4906C819.436 36.5836 817.186 34.0252 806.569 32.4093C805.203 32.1977 803.972 31.1398 802.664 30.4665C803.933 29.8317 805.184 28.6775 806.472 28.6583C814.858 28.4851 823.244 28.5813 832.38 28.5813ZM896.275 134.361C896.275 131.861 896.39 128.764 896.255 125.686C895.198 102.66 880.003 88.2714 858.5 89.8295C842.92 90.9645 832.534 102.083 832.534 117.626C832.534 133.246 832.765 148.885 832.419 164.505C832.284 170.833 834.958 174.834 840.093 177.758C856.115 186.857 876.541 182.644 887.696 167.967C895.159 158.157 896.832 146.846 896.275 134.361Z" fill="#1C46F5"/>
<path d="M575.605 167.141C578.067 156.791 580.567 146.462 583.01 136.113C590.088 106.046 597.243 75.9993 604.109 45.8946C605.09 41.5857 606.975 40.0468 611.149 40.6431C612.399 40.8162 613.726 40.8355 614.977 40.6431C619.189 39.9891 620.939 41.7011 621.997 45.8946C631.825 85.0019 641.884 124.071 651.905 163.139C652.29 164.64 652.848 166.083 654.29 167.621C656.329 159.042 658.426 150.482 660.407 141.903C666.946 113.587 673.447 85.2519 679.929 56.917C681.794 48.7608 679.852 45.9715 671.543 44.4519C670.062 44.1826 668.677 43.4516 667.254 42.9322C667.369 42.3936 667.485 41.8742 667.6 41.3356H706.164C706.337 41.6819 706.51 42.0281 706.683 42.3744C705.606 43.0284 704.51 44.2403 703.432 44.221C693.95 44.0864 689.719 49.8573 687.661 57.9749C682.179 79.8273 676.755 101.68 671.389 123.551C666.234 144.538 661.195 165.544 656.137 186.377C655.579 186.685 655.271 186.973 654.963 186.992C642.962 187.704 642.904 187.723 639.923 176.182C630.267 138.902 620.67 101.583 611.034 64.3037C610.553 62.4378 609.995 60.5911 608.206 58.7252C603.052 80.0966 597.858 101.449 592.723 122.82C587.588 144.173 582.491 165.525 577.375 186.935H563.93C560.757 174.066 557.564 161.216 554.409 148.385C547.139 118.935 539.85 89.4839 532.618 60.014C530.54 51.5693 527.521 44.2403 516.923 44.1249C516.23 44.1249 515.557 42.9322 514.211 41.6819C516.173 41.201 517.288 40.7008 518.404 40.7008C530.637 40.6431 542.869 40.6046 555.083 40.7393C556.41 40.7393 557.718 41.855 559.026 42.4321C557.756 43.0861 556.525 44.1441 555.179 44.3365C547.178 45.5099 545.158 47.5104 546.793 54.3008C555.698 91.3883 564.776 128.437 573.816 165.505C573.932 166.025 574.201 166.506 574.413 166.987C574.816 167.025 575.201 167.064 575.605 167.102V167.141Z" fill="#1C46F5"/>
<path d="M1179.5 186.873H1137.53L1136.76 185.469C1138.11 184.7 1139.4 183.43 1140.84 183.257C1148.98 182.237 1150.44 180.448 1148.19 172.639C1145.36 162.866 1142.38 153.133 1139.11 143.496C1138.61 142.053 1136.17 140.341 1134.61 140.322C1120.01 140.072 1105.41 140.245 1090.82 140.11C1087.99 140.091 1086.56 140.976 1085.74 143.726C1082.79 153.652 1079.52 163.482 1076.62 173.427C1074.77 179.756 1077.2 182.257 1085.2 183.161C1087.16 183.392 1089.05 184.276 1090.97 184.873C1090.8 185.488 1090.62 186.123 1090.45 186.739H1050.58C1052.19 185.084 1053.1 183.372 1054 183.372C1062.95 183.411 1066.37 177.14 1068.83 170.292C1072.89 159.019 1076.56 147.593 1080.22 136.167C1089.89 106.062 1099.59 75.9572 1108.95 45.7563C1110.38 41.1973 1112.8 40.5625 1116.86 40.5625C1121.05 40.5625 1123.63 41.0819 1125.11 45.9486C1137.25 85.9408 1149.71 125.837 1162.11 165.752C1163.04 168.695 1164.11 171.6 1165.23 174.485C1167.23 179.698 1170.79 182.834 1176.62 183.276C1177.91 183.372 1179.12 184.546 1180.37 185.219L1179.52 186.893L1179.5 186.873ZM1136.44 133.589C1128.69 107.755 1121.19 82.7283 1113.68 57.702C1113.2 57.702 1112.74 57.702 1112.26 57.702C1104.53 82.863 1096.8 108.005 1088.95 133.57H1136.42L1136.44 133.589Z" fill="#1C46F5"/>
<path d="M0.466408 41.2608C1.4858 41.0685 2.52442 40.703 3.54381 40.703C16.315 40.6645 29.1054 40.626 41.8766 40.7414C43.223 40.7414 44.5501 41.7994 45.8773 42.3765C44.6078 43.0113 43.3961 44.0885 42.0882 44.2232C31.4904 45.2042 29.6825 47.0894 29.6632 57.8425C29.6632 84.4077 29.6055 110.992 29.7209 137.557C29.7402 142.636 30.1056 147.753 30.9326 152.754C34.1832 172.471 48.7239 183.84 68.9 182.763C90.9611 181.589 103.963 169.663 106.483 147.772C107.31 140.558 107.271 133.248 107.271 125.977C107.291 103.048 107.194 80.118 107.041 57.1692C106.983 47.3395 104.579 44.9349 94.9041 44.3194C94.0001 44.2617 92.9807 44.4733 92.1921 44.1463C91.365 43.8 90.7496 42.9536 90.0379 42.338C90.8265 41.7994 91.5574 41.0107 92.4421 40.7607C93.4615 40.4721 94.6155 40.6453 95.7119 40.6453C105.386 40.6453 115.061 40.6068 124.736 40.6645C126.601 40.6645 128.467 40.9723 130.313 41.1454C130.41 41.7033 130.486 42.2611 130.583 42.819C129.179 43.2999 127.813 44.0885 126.37 44.2232C116.523 45.1658 114.369 47.2241 114.33 57.1884C114.195 84.1192 114.426 111.069 114.08 138C113.984 144.829 113.041 151.869 111.099 158.39C105.156 178.434 90.211 189.591 69.2655 189.322C60.2833 189.207 50.8011 188.572 42.4729 185.61C24.951 179.377 17.469 164.507 16.7189 147.176C15.5072 119.014 15.8919 90.7941 15.5841 62.5938C15.5649 60.2277 15.5841 57.8617 15.5841 55.4956C15.5457 47.1663 13.4876 45.0696 5.00557 44.2809C3.33224 44.127 1.69737 43.396 0.0625 42.9151C0.197136 42.3573 0.331772 41.7994 0.447175 41.2416L0.466408 41.2608Z" fill="#1C46F5"/>
<path d="M278.016 41.3045C279.208 41.0929 280.401 40.7081 281.574 40.7081C294.172 40.6697 306.77 40.6312 319.368 40.7659C320.695 40.7659 322.022 41.8431 323.35 42.4202C322.061 43.055 320.83 44.113 319.503 44.2284C309.347 45.2094 307.52 46.9984 307.559 57.1359C307.674 87.5291 307.232 117.942 308.309 148.296C309.078 169.803 322.484 181.806 343.776 182.787C365.029 183.768 380.281 171.822 383.724 151.182C384.609 145.834 384.878 140.333 384.898 134.908C384.994 108.881 384.898 82.8547 384.859 56.8281C384.859 47.6332 382.205 44.9209 372.915 44.3438C372.011 44.2861 370.992 44.5169 370.203 44.1899C369.26 43.7667 368.51 42.9011 367.683 42.2278C368.51 41.7277 369.337 40.8043 370.184 40.7851C382.051 40.6889 393.918 40.6889 405.785 40.7851C406.555 40.7851 407.305 41.8816 408.074 42.4586C407.305 43.055 406.632 43.9975 405.766 44.1707C396.778 46.1328 392.27 51.7818 392.245 61.1178C392.226 86.6058 392.764 112.094 391.937 137.543C391.629 147.123 389.014 156.895 385.859 166.032C382.513 175.689 374.819 182.229 365.164 185.846C351.181 191.097 336.832 191.232 322.753 186.769C305.52 181.306 294.614 165.455 294.172 144.969C293.576 117.326 293.749 89.6451 293.576 61.9834C293.576 59.4442 293.633 56.8858 293.518 54.3466C293.191 47.3062 290.96 45.0748 283.92 44.3438C281.843 44.1322 279.824 43.6128 277.766 43.2473L278.073 41.266L278.016 41.3045Z" fill="#1C46F5"/>
<path d="M263.48 186.913H215.434L214.646 185.47C215.896 184.681 217.031 183.431 218.396 183.162C227.378 181.276 228.532 178.545 223.897 170.446C216.242 157.02 208.722 143.496 201.144 130.031C199.816 127.684 198.432 125.357 196.643 122.26C195.316 124.318 194.316 125.761 193.431 127.261C185.237 141.438 177.101 155.635 168.85 169.773C164.215 177.718 165.754 181.315 174.678 183.162C176.063 183.45 177.275 184.547 178.563 185.258C178.332 185.778 178.082 186.316 177.852 186.836H135.172C137.153 185.008 138.115 183.354 139.115 183.315C148.674 183.008 154.54 177.237 159.079 169.889C169.716 152.711 180.14 135.417 190.411 118.047C191.354 116.431 191.411 113.373 190.507 111.737C180.544 93.54 170.35 75.4964 160.176 57.4143C156.175 50.3162 151.155 44.5838 142.115 44.2375C141.25 44.199 140.423 43.1026 139.98 41.2751H189.007C188.045 42.5832 187.603 43.7566 186.795 44.1413C185.699 44.6607 184.295 44.4876 183.045 44.7184C174.716 46.2381 172.851 50.0661 176.986 57.2989C183.122 68.0327 189.353 78.7281 195.547 89.4234C197.431 92.6744 199.355 95.8868 201.855 100.1C207.395 90.6353 212.395 82.056 217.415 73.5151C220.724 67.8596 223.974 62.1849 227.398 56.6064C232.033 49.0273 230.821 46.1611 222.147 44.3337C221.012 44.0836 220.05 42.9872 219.012 42.2754C220.012 41.7368 220.993 40.7558 221.993 40.7558C234.226 40.6596 246.439 40.7173 258.672 40.7558C259.326 40.7558 259.98 41.179 262.268 41.9676C259.749 43.1795 258.479 44.276 257.152 44.3529C247.766 44.9493 240.977 49.7391 236.207 57.3951C226.494 72.9957 216.934 88.6925 207.548 104.485C206.664 105.967 206.721 108.814 207.548 110.352C218.742 130.551 230.148 150.633 241.554 170.735C245.689 178.006 251.709 182.45 260.307 183.2C261.73 183.316 263.076 184.47 264.461 185.143C264.134 185.739 263.826 186.336 263.499 186.932L263.48 186.913Z" fill="#1C46F5"/>
<path d="M465.126 186.811H418.33C418.118 186.272 417.907 185.753 417.695 185.214C419.042 184.56 420.369 183.502 421.773 183.348C433.659 182.001 434.929 180.674 434.929 168.767C434.929 131.833 434.929 94.919 434.929 57.9855C434.929 47.3478 432.928 45.1934 422.465 44.3085C420.907 44.1738 419.369 43.5775 417.83 43.1928C417.888 42.6349 417.965 42.0579 418.022 41.5H465.145C465.318 41.8463 465.491 42.2117 465.645 42.558C464.395 43.1351 463.183 44.0969 461.894 44.2508C450.258 45.5396 448.873 46.9823 448.873 58.4471C448.873 95.5538 448.873 132.661 448.873 169.767C448.873 180.616 450.527 182.29 461.279 183.329C462.818 183.483 464.279 184.579 465.76 185.233L465.106 186.811H465.126Z" fill="#1C46F5"/>
<path d="M715.164 129.211C714.356 142.099 714.818 153.948 721.55 164.663C735.379 186.65 765.153 187.246 782.886 165.933C785.098 163.278 786.848 160.239 789.176 157.699C790.041 156.738 791.945 156.718 794.407 155.949C781.001 190.228 742.784 200.75 717.203 178.744C710.51 172.992 705.894 165.779 703.586 157.411C697.662 135.963 697.892 114.957 712.568 96.7975C732.782 71.8097 774.981 76.0032 788.022 104.223C790.887 110.417 791.195 117.88 792.215 124.825C792.811 128.903 789.695 129.268 786.444 129.249C765.095 129.191 743.726 129.211 722.377 129.211C720.203 129.211 718.049 129.211 715.164 129.211ZM715.895 123.209C717.78 123.305 719.723 123.478 721.646 123.478C735.321 123.497 748.996 123.478 762.672 123.478C779.347 123.478 780.636 121.689 775.577 105.588C771.615 92.9888 759.248 84.9288 746.034 86.3523C728.916 88.1797 715.914 103.819 715.895 123.19V123.209Z" fill="#1C46F5"/>
<path d="M1187.61 83.7707H1215.69V97.2937C1217.11 96.3511 1217.8 96.1203 1218.13 95.6586C1233.75 73.4985 1274.21 74.4026 1288.41 104.931C1297.93 125.398 1297.78 146.904 1287.2 167.102C1273.77 192.763 1240.31 197.688 1219.19 177.836C1218.55 177.24 1217.9 176.643 1216.65 175.508C1216.34 177.259 1215.99 178.355 1215.98 179.452C1215.94 194.552 1215.9 209.672 1215.98 224.772C1216.01 234.256 1219.11 237.257 1228.82 237.891C1230.82 238.026 1232.8 238.815 1234.79 239.296C1234.67 239.95 1234.55 240.623 1234.44 241.277H1187.86C1187.61 240.873 1187.36 240.469 1187.09 240.065C1188.34 239.353 1189.51 238.161 1190.82 238.007C1201.13 236.68 1202.72 234.967 1202.72 224.464C1202.72 183.145 1202.72 141.826 1202.72 100.506C1202.72 90.0801 1201.28 88.5028 1190.78 86.8677C1189.57 86.6753 1188.41 86.0982 1187.22 85.7135C1187.34 85.0787 1187.45 84.4439 1187.57 83.8284L1187.61 83.7707ZM1215.96 136.92C1215.96 143.461 1216.13 150.001 1215.9 156.541C1215.71 162.389 1217.9 167.121 1221.78 171.276C1237.77 188.358 1265.6 184.184 1274.95 162.639C1282.37 145.519 1282.18 127.437 1276.1 109.97C1270.83 94.8123 1256.69 87.3871 1240.9 89.907C1229.17 91.7922 1214.96 102.122 1215.88 118.954C1216.21 124.936 1215.94 130.938 1215.94 136.94L1215.96 136.92Z" fill="#1C46F5"/>
<path d="M1338.23 175.1V186.315C1338.23 198.684 1338.23 211.072 1338.23 223.441C1338.23 234.733 1340.55 237.118 1351.79 237.868C1353.6 237.984 1355.36 238.907 1357.13 239.445C1356.98 240.08 1356.83 240.696 1356.67 241.331H1309.65C1309.45 240.792 1309.24 240.253 1309.05 239.715C1310.45 239.099 1311.8 238.08 1313.24 237.926C1322.98 236.849 1324.69 235.098 1324.69 225.114C1324.71 183.795 1324.69 142.495 1324.69 101.175C1324.69 89.6529 1323.74 88.5757 1312.45 86.7867C1311.36 86.6136 1310.32 86.0173 1308.99 85.5171C1312.09 82.8625 1329.69 82.1508 1338.13 84.0744V96.7895C1339.09 96.3279 1339.69 96.2509 1339.92 95.9047C1356.46 72.5134 1397.54 75.4373 1410.72 105.6C1419.78 126.356 1419.51 147.592 1408.93 167.752C1396.26 191.932 1363.25 197.28 1342.65 179.178C1341.48 178.14 1340.34 177.062 1338.21 175.1H1338.23ZM1338.23 136.782C1338.23 143.687 1337.71 150.651 1338.42 157.48C1338.86 161.75 1340.23 166.598 1342.84 169.849C1350.46 179.332 1361.08 183.141 1373.02 181.294C1386.08 179.275 1394.72 171.061 1398.68 158.749C1403.62 143.38 1403.78 127.625 1399.06 112.14C1394.16 96.0393 1379.73 87.383 1363.15 89.8645C1351.96 91.538 1336.8 101.849 1338.15 118.796C1338.63 124.759 1338.23 130.78 1338.23 136.782Z" fill="#1C46F5"/>
<path d="M998.598 165.052C1005 156.711 1008.4 147.593 1009.01 137.462C1009.18 134.423 1007.52 132.957 1003.9 132.698C1001.94 132.569 1000.82 132.138 1001.74 129.745H1026.16C1026.68 131.319 1026.96 132.547 1024.59 132.677C1020 132.914 1017.43 135.608 1015.82 139.747C1013.32 146.213 1010.78 152.701 1007.84 158.974C1006.34 162.207 1003.94 165.031 1001.46 168.76C1005.8 172.144 1010.02 175.744 1014.55 178.891C1017.09 180.658 1020.28 179.882 1022.61 177.619C1023.45 176.8 1024.16 175.873 1025.78 175.011C1025.73 175.787 1025.99 176.973 1025.56 177.296C1022.89 179.43 1020.22 181.628 1017.28 183.331C1012.03 186.371 1006.81 184.991 1001.94 182.232C999.244 180.702 996.895 178.568 994.331 176.649C991.636 178.395 988.899 180.486 985.904 182.038C978.727 185.789 970.989 186.909 963.058 185.379C947.648 182.383 940.471 166.303 948.251 152.55C952.088 145.782 957.799 140.889 964.222 136.815C966.399 135.436 966.722 134.272 965.709 131.922C963.23 126.21 961.614 120.282 962.605 113.923C964.157 104.008 973.554 97.1104 983.317 98.7917C991.895 100.279 996.68 108.75 993.813 117.394C991.658 123.882 986.787 127.891 981.119 131.06C978.921 132.289 978.317 133.323 979.459 135.802C984.093 145.955 989.611 155.504 997.197 163.738C997.52 164.082 997.887 164.406 998.598 165.052ZM990.71 172.877C981.636 162.854 975.257 151.085 969.287 138.647C962.433 144.187 957.282 150.416 956.549 159.405C956.14 164.492 957.239 169.148 960.795 173.006C967.67 180.464 982.283 180.486 990.688 172.877H990.71ZM976.14 129.271C980.321 125.93 983.834 122.546 984.998 117.739C985.774 114.527 985.731 111.014 985.473 107.672C985.235 104.827 983.296 102.758 980.343 102.413C977.412 102.068 975.257 103.62 973.942 106.164C973.231 107.543 972.627 109.03 972.39 110.561C971.334 117.135 973.834 122.977 976.162 129.292L976.14 129.271Z" fill="#1C46F5"/>
</svg>
