<svg width="401" height="144" viewBox="0 0 401 144" fill="none" xmlns="http://www.w3.org/2000/svg">
<path d="M321.06 137.859C317.724 137.859 315.672 135.5 315.672 131.602C315.672 127.704 317.724 125.345 321.06 125.345C322.753 125.345 323.779 125.755 325.113 127.242L324.241 128.063C323.215 126.883 322.394 126.524 321.111 126.524C319.726 126.524 318.597 127.089 317.878 128.166C317.263 129.038 317.057 130.012 317.057 131.653C317.057 133.295 317.263 134.269 317.878 135.141C318.597 136.218 319.777 136.782 321.111 136.782C322.394 136.782 323.215 136.423 324.241 135.244L325.113 136.064C323.779 137.5 322.753 137.962 321.06 137.962V137.859Z" fill="#111111"/>
<path d="M335.782 127.397C335.064 126.679 334.499 126.423 333.473 126.423C331.369 126.423 330.189 128.167 330.189 130.116V137.655H328.906V125.448H330.189V127.09C330.907 125.961 332.344 125.294 333.781 125.294C334.961 125.294 335.885 125.602 336.706 126.474L335.782 127.397Z" fill="#111111"/>
<path d="M339.892 131.858C339.892 134.936 341.277 136.68 343.894 136.68C345.331 136.68 346.255 136.218 347.281 135.192L348.256 135.962C347.024 137.193 345.895 137.859 343.843 137.859C340.456 137.859 338.66 135.705 338.66 131.602C338.66 127.499 340.507 125.345 343.535 125.345C346.562 125.345 348.41 127.55 348.41 131.294V131.858H339.892ZM346.665 128.525C346.152 127.242 344.869 126.473 343.484 126.473C342.098 126.473 340.867 127.242 340.302 128.525C339.994 129.294 339.943 129.653 339.892 130.833H347.075C347.075 129.653 346.973 129.294 346.665 128.525Z" fill="#111111"/>
<path d="M359.749 137.706V136.475C358.723 137.501 357.748 137.86 356.003 137.86C354.259 137.86 353.181 137.553 352.411 136.732C351.847 136.168 351.539 135.244 351.539 134.373C351.539 132.116 353.13 130.834 355.798 130.834H359.749V129.449C359.749 127.5 358.774 126.474 356.311 126.474C354.566 126.474 353.694 126.884 352.924 128.013L352.001 127.192C353.027 125.756 354.31 125.294 356.311 125.294C359.544 125.294 361.032 126.731 361.032 129.295V137.655H359.749V137.706ZM359.749 131.859H355.952C353.848 131.859 352.822 132.68 352.822 134.321C352.822 135.963 353.797 136.681 356.003 136.681C357.132 136.681 358.158 136.578 359.031 135.757C359.493 135.347 359.698 134.578 359.698 133.449V131.859H359.749Z" fill="#111111"/>
<path d="M369.142 137.7C367.192 137.7 366.217 136.367 366.217 134.52V126.468H364.523V125.493H366.217V121.595H367.5V125.493H370.27V126.468H367.5V134.572C367.5 135.854 368.064 136.623 369.398 136.623H370.27V137.752H369.142V137.7Z" fill="#111111"/>
<path d="M374.016 121.24V119.65H375.606V121.24H374.016ZM374.17 137.704V125.497H375.452V137.704H374.17Z" fill="#111111"/>
<path d="M384.024 137.697H382.742L378.277 125.49H379.714L383.409 136.21L387.103 125.49H388.54L384.076 137.697H384.024Z" fill="#111111"/>
<path d="M391.872 131.858C391.872 134.936 393.258 136.68 395.875 136.68C397.311 136.68 398.235 136.218 399.261 135.192L400.236 135.962C399.005 137.193 397.876 137.859 395.823 137.859C392.437 137.859 390.641 135.705 390.641 131.602C390.641 127.499 392.488 125.345 395.515 125.345C398.543 125.345 400.39 127.55 400.39 131.294V131.858H391.872ZM398.645 128.525C398.132 127.242 396.85 126.473 395.464 126.473C394.079 126.473 392.847 127.242 392.283 128.525C391.975 129.294 391.923 129.653 391.872 130.833H399.056C399.056 129.653 398.953 129.294 398.645 128.525Z" fill="#111111"/>
<path d="M16.2149 137.705V130.115C16.2149 127.755 15.0347 126.473 12.8282 126.473C10.6218 126.473 9.39028 127.807 9.39028 129.909V137.705H8.10745V130.115C8.10745 127.755 6.92728 126.473 4.72082 126.473C2.51436 126.473 1.28282 127.807 1.28282 130.115V137.705H0V125.499H1.28282V126.935C2.15514 125.909 3.438 125.345 4.92608 125.345C6.72203 125.345 8.10746 126.114 8.87715 127.55C9.80079 126.114 11.2375 125.345 13.0335 125.345C14.3676 125.345 15.4965 125.755 16.2662 126.524C17.0872 127.294 17.5491 128.473 17.5491 129.909V137.705H16.2662H16.2149Z" fill="#111111"/>
<path d="M29.4484 137.706V136.475C28.4221 137.501 27.4472 137.86 25.7025 137.86C23.9579 137.86 22.8803 137.553 22.1106 136.732C21.5462 136.168 21.2383 135.244 21.2383 134.373C21.2383 132.116 22.829 130.834 25.4973 130.834H29.4484V129.449C29.4484 127.5 28.4734 126.474 26.0104 126.474C24.2657 126.474 23.3934 126.884 22.6238 128.013L21.7001 127.192C22.7264 125.756 24.0092 125.294 26.0104 125.294C29.2431 125.294 30.7312 126.731 30.7312 129.295V137.655H29.4484V137.706ZM29.4484 131.859H25.6512C23.5474 131.859 22.5211 132.68 22.5211 134.321C22.5211 135.963 23.4961 136.681 25.7025 136.681C26.8314 136.681 27.909 136.578 28.73 135.757C29.1918 135.347 29.3971 134.578 29.3971 133.449V131.859H29.4484Z" fill="#111111"/>
<path d="M42.4892 127.397C41.7709 126.679 41.2064 126.423 40.1801 126.423C38.0763 126.423 36.8961 128.167 36.8961 130.116V137.655H35.6133V125.448H36.8961V127.09C37.6145 125.961 39.0512 125.294 40.488 125.294C41.6682 125.294 42.5919 125.602 43.4129 126.474L42.4892 127.397Z" fill="#111111"/>
<path d="M54.2887 137.704L50.0811 130.985L47.3102 134.216V137.704H46.0273V119.65H47.3102V132.37L53.3651 125.497H55.0071L50.9534 130.062L55.8794 137.704H54.2887Z" fill="#111111"/>
<path d="M59.9268 131.858C59.9268 134.936 61.3123 136.68 63.9293 136.68C65.366 136.68 66.2383 136.218 67.3159 135.192L68.2908 135.962C67.0593 137.193 65.9304 137.859 63.8779 137.859C60.4913 137.859 58.6953 135.705 58.6953 131.602C58.6953 127.499 60.5426 125.345 63.57 125.345C66.5975 125.345 68.4448 127.55 68.4448 131.294V131.858H59.9268ZM66.7001 128.525C66.187 127.242 64.9042 126.473 63.5187 126.473C62.1333 126.473 60.9018 127.242 60.3373 128.525C60.0294 129.294 59.9781 129.653 59.9268 130.833H67.1106C67.0593 129.653 67.008 129.294 66.7001 128.525Z" fill="#111111"/>
<path d="M75.8955 137.7C73.9456 137.7 72.9707 136.367 72.9707 134.52V126.468H71.2773V125.493H72.9707V121.595H74.2535V125.493H77.0244V126.468H74.2535V134.572C74.2535 135.854 74.818 136.623 76.1521 136.623H77.0244V137.752H75.8955V137.7Z" fill="#111111"/>
<path d="M80.7656 121.24V119.65H82.3563V121.24H80.7656ZM80.9196 137.704V125.497H82.2024V137.704H80.9196Z" fill="#111111"/>
<path d="M95.2403 137.705V130.115C95.2403 127.755 94.0601 126.473 91.8536 126.473C89.6471 126.473 88.4156 127.807 88.4156 130.115V137.705H87.1328V125.499H88.4156V126.935C89.3393 125.858 90.5708 125.345 92.0075 125.345C93.393 125.345 94.4706 125.755 95.2403 126.524C96.0613 127.294 96.5231 128.473 96.5231 129.909V137.705H95.2403Z" fill="#111111"/>
<path d="M105.086 143.652C103.239 143.652 102.366 143.19 101.032 142.011L101.904 141.139C102.879 142.011 103.546 142.472 105.086 142.472C107.651 142.472 108.78 140.626 108.78 138.215V136.01C107.703 137.446 106.523 137.754 105.137 137.754C103.854 137.754 102.777 137.343 102.161 136.677C100.929 135.446 100.57 133.394 100.57 131.496C100.57 129.599 100.878 127.547 102.161 126.316C102.777 125.701 103.906 125.239 105.137 125.239C106.523 125.239 107.703 125.547 108.78 126.983V125.393H110.063V138.318C110.063 141.395 108.216 143.601 105.086 143.601V143.652ZM105.342 126.419C102.366 126.419 101.904 128.983 101.904 131.548C101.904 134.112 102.366 136.677 105.342 136.677C108.319 136.677 108.78 134.112 108.78 131.548C108.78 128.983 108.319 126.419 105.342 126.419Z" fill="#111111"/>
<path d="M306.735 131.229H119.648V131.947H306.735V131.229Z" fill="#111111"/>
<path d="M127.047 50.5211L140.56 74.291L154.072 50.5211H158.103V85.5241H153.504V59.6981L142.215 79.6234H138.887L127.599 59.6981V85.5241H123V50.5211H127.03H127.047Z" fill="#111111"/>
<path d="M187.871 76.8653H171.03L167.535 85.5241H162.719L177.151 50.5211H182.001L196.383 85.5241H191.35L187.854 76.8653H187.871ZM186.249 72.8033L179.476 55.8869L172.653 72.8033H186.249Z" fill="#111111"/>
<path d="M216.168 73.0708C215.516 73.1209 214.863 73.1544 214.194 73.1544H205.665V85.5241H201.066V50.5211H214.178C223.008 50.5211 228.209 54.9341 228.209 61.8377C228.209 66.7689 225.55 70.4464 220.733 72.1514L216.134 73.0708H216.168ZM223.643 61.8377C223.643 57.1239 219.931 54.6332 213.843 54.6332H205.665V69.059H213.843C219.914 69.059 223.643 66.5683 223.643 61.8544V61.8377Z" fill="#111111"/>
<path d="M232.391 66.0244C232.391 56.5799 239.331 49.693 248.78 49.693C256.857 49.693 262.426 54.3734 264.065 60.926H259.884C258.563 56.5131 254.533 53.4708 248.847 53.4708C241.672 53.4708 236.488 58.7028 236.488 66.0244C236.488 73.3459 241.722 78.5779 248.847 78.5779C254.7 78.5779 259.065 75.1512 260.202 70.7048H264.383C263.012 77.2073 257.041 82.3557 248.78 82.3557C239.348 82.3557 232.391 75.4521 232.391 66.0244Z" fill="#111111"/>
<path d="M248.782 82.6376C239.132 82.6376 232.125 75.6504 232.125 66.022C232.125 56.3937 239.132 49.4065 248.782 49.4065C256.608 49.4065 262.579 53.786 264.351 60.8401L264.435 61.1912H259.702L259.635 60.9906C258.297 56.5274 254.167 53.7359 248.865 53.7359C241.858 53.7359 236.774 58.9011 236.774 66.0053C236.774 73.1095 241.858 78.2747 248.865 78.2747C254.334 78.2747 258.782 75.199 259.953 70.6022L260.003 70.3849H264.736L264.669 70.7192C263.181 77.8234 256.792 82.6041 248.798 82.6041L248.782 82.6376ZM248.782 49.9581C239.45 49.9581 232.677 56.7113 232.677 66.022C232.677 75.3328 239.45 82.0859 248.782 82.0859C256.391 82.0859 262.478 77.6395 264.034 70.9866H260.421C259.117 75.7005 254.501 78.8598 248.849 78.8598C241.524 78.8598 236.206 73.4606 236.206 66.022C236.206 58.5835 241.524 53.1843 248.849 53.1843C254.317 53.1843 258.615 56.026 260.087 60.6228H263.699C261.893 54.0368 256.207 49.9581 248.765 49.9581H248.782Z" fill="#111111"/>
<path d="M303.749 50.5211V85.5241H299.15V69.6942H278.814V85.5241H274.215V50.5211H278.814V65.5152H299.15V50.5211H303.749Z" fill="#111111"/>
<path d="M247.906 91.6405C245.916 91.6405 243.925 91.4566 241.935 91.0722C225.513 87.9797 215.729 73.2196 215.328 72.6012L219.074 70.1606C219.158 70.2944 228.272 83.9679 242.805 86.6926C251.2 88.2639 259.863 85.907 268.559 79.6887L271.168 83.3327C263.425 88.8657 255.632 91.6572 247.906 91.6572V91.6405Z" fill="#111111"/>
<path d="M165.594 37.8272H148.753L145.258 46.486H140.441L154.874 11.483H159.724L174.106 46.486H169.072L165.577 37.8272H165.594ZM163.971 33.7652L157.198 16.8488L150.375 33.7652H163.971Z" fill="#111111"/>
<path d="M191.215 11.483C200.312 11.483 205.647 16.3306 205.647 23.6354C205.647 30.9403 200.312 35.7879 191.215 35.7879H183.388V46.5027H178.789V11.4997H191.215V11.483ZM201.048 23.6354C201.048 18.4368 197.202 15.6453 190.863 15.6453H183.388V31.6423H190.863C197.202 31.6423 201.048 28.8508 201.048 23.6522V23.6354Z" fill="#111111"/>
<path d="M251.872 46.486H247.273V11.483H251.872V46.486Z" fill="#111111"/>
<path d="M265.982 42.3405H286.334V46.486H261.383V11.483H265.982V42.3405Z" fill="#111111"/>
<path d="M233.757 46.486L225.797 34.0327C225.144 34.0828 224.492 34.1163 223.823 34.1163H215.294V46.486H210.695V11.483H223.807C232.637 11.483 237.838 15.896 237.838 22.7996C237.838 27.7308 235.179 31.4083 230.362 33.1133L239.159 46.486H233.74H233.757ZM233.272 22.7996C233.272 18.0858 229.56 15.5951 223.472 15.5951H215.294V30.0209H223.472C229.543 30.0209 233.272 27.5302 233.272 22.8164V22.7996Z" fill="#111111"/>
<path d="M286.766 0V17.4723" stroke="#111111" stroke-width="2.68805"/>
<path d="M278.031 8.73486L295.504 8.73486" stroke="#111111" stroke-width="2.68805"/>
<path d="M280.59 2.55811L292.945 14.9129" stroke="#111111" stroke-width="2.68805"/>
<path d="M292.949 2.55811L280.594 14.9129" stroke="#111111" stroke-width="2.68805"/>
</svg>
