<svg width="618" height="187" viewBox="0 0 618 187" fill="none" xmlns="http://www.w3.org/2000/svg">
<path d="M75.4032 91.5103C81.2996 93.7205 86.7117 95.1308 91.5341 97.6778C108.486 106.624 115.878 121.148 114.909 139.988C114.046 156.869 106.065 169.52 90.3759 175.982C82.0999 179.392 72.9815 182.108 64.1368 182.508C43.1624 183.455 22.1248 182.803 -0.0078125 181.729C1.02406 180.698 1.92958 178.929 3.12993 178.719C18.1026 176.046 18.1026 176.088 18.1026 160.785C18.1026 118.117 18.1026 75.4494 18.1026 32.7818C18.1026 21.1203 16.1021 19.0785 4.62509 18.2365C3.15099 18.1313 1.78217 16.6578 0.350185 15.8369C1.74006 15.2264 3.12993 14.1108 4.5198 14.0897C22.2301 14.0266 39.9826 13.3741 57.6087 14.4476C67.3799 15.058 77.4038 17.4998 86.5222 21.1203C101.874 27.2037 109.371 39.7703 108.17 55.9154C107.012 71.5552 98.7362 82.6063 84.0162 88.5844C81.4471 89.6158 78.7726 90.3736 75.4243 91.5103H75.4032ZM48.7008 95.194C44.6576 95.194 41.4988 95.3203 38.361 95.1519C35.2233 94.9835 34.023 96.1412 34.044 99.3618C34.1283 123.632 34.1283 147.902 34.044 172.193C34.044 175.414 35.2233 176.551 38.34 176.403C46.3844 176.025 54.492 176.319 62.4521 175.351C74.603 173.856 85.5956 169.541 92.7555 158.806C105.222 140.177 98.1045 111.613 78.3725 101.046C68.8329 95.9307 58.4299 94.8993 48.7008 95.1729V95.194ZM34.0861 87.6582C47.8374 88.0581 60.7464 88.6054 73.0868 83.5114C85.7851 78.2701 93.261 66.5454 92.8187 52.4422C92.3765 38.36 85.1744 28.0457 71.023 24.6777C60.2831 22.1307 48.9957 21.8781 37.9609 20.6783C33.9387 20.2362 34.0861 23.099 34.0861 25.8354C34.0861 42.7593 34.0861 59.6832 34.0861 76.6071C34.0861 80.0593 34.0861 83.5114 34.0861 87.6371V87.6582Z" fill="#DDDDDD"/>
<path d="M583.018 76.3972C583.249 74.5238 583.481 73.5555 583.481 72.5662C583.481 54.2109 583.586 35.8556 583.46 17.5214C583.397 8.55425 579.796 5.27051 570.614 4.57587C568.192 4.38643 564.528 5.9862 564.065 1.75522C564.023 1.41843 568.403 0.155452 570.741 0.113353C580.154 -0.0760935 589.567 0.0291546 599.549 0.0291546V6.80713C599.549 59.0733 599.549 111.319 599.549 163.585C599.549 175.478 601.297 177.288 613.237 178.656C614.837 178.846 616.29 180.151 617.828 180.951C617.596 181.498 617.364 182.066 617.154 182.614H583.481V167.9C577.142 174.552 570.656 179.898 562.465 183.014C537.384 192.528 508.828 179.982 499.057 154.533C491.328 134.389 491.286 113.739 498.552 93.5105C512.198 55.3897 558.484 50.022 583.018 76.4182V76.3972ZM583.502 121.275C583.502 113.402 583.228 105.53 583.586 97.6784C583.944 89.9952 580.68 84.1855 575.226 79.302C554.062 60.3784 522.327 69.1772 513.672 96.7311C508.428 113.423 508.47 130.642 512.914 147.482C517.925 166.363 533.551 176.951 552.546 175.541C566.824 174.488 585.145 161.417 583.565 142.767C582.976 135.652 583.46 128.432 583.46 121.275H583.502Z" fill="#DDDDDD"/>
<path d="M377.792 62.9882V82.417C379.603 80.1858 380.635 78.9649 381.625 77.7019C396.05 59.3677 421.742 54.2316 441.01 66.2509C453.161 73.8288 458.342 85.7639 458.615 99.5514C459.037 121.233 458.742 142.914 458.763 164.595C458.763 174.783 461.353 177.519 471.566 178.466C473.904 178.677 477.463 177.73 476.284 182.634H424.079C426.08 180.677 427.006 178.93 428.249 178.698C442.611 176.067 443.243 175.393 443.243 160.89C443.243 142.535 443.327 124.158 443.179 105.803C443.137 101.467 442.779 97.0255 441.874 92.7945C437.473 72.3343 415.298 66.2509 398.451 74.5655C392.407 77.5546 386.89 82.5223 382.594 87.7637C379.688 91.321 378.171 96.9413 378.045 101.699C377.561 122.327 377.834 142.956 377.834 163.605C377.834 174.825 380.235 177.456 391.354 178.466C393.839 178.698 396.682 178.382 395.334 182.655H343.656C345.109 180.782 345.762 179.456 346.815 178.74C347.552 178.235 348.858 178.509 349.911 178.424C359.64 177.561 362.314 174.635 362.335 164.7C362.377 145.819 362.335 126.937 362.335 108.034C362.335 98.7726 362.398 89.4897 362.314 80.2279C362.23 71.4291 359.155 68.2086 350.521 67.5771C349.995 67.535 349.384 67.6402 348.963 67.4297C347.489 66.6298 346.078 65.7247 344.625 64.8617C346.036 64.2302 347.426 63.0724 348.858 63.0514C358.292 62.883 367.747 62.9672 377.792 62.9672V62.9882Z" fill="#DDDDDD"/>
<path d="M241.141 104.075H236.066C236.066 91.1501 236.023 78.4361 236.171 65.7221C236.171 64.817 237.624 63.3435 238.572 63.1962C239.33 63.0909 240.825 64.4591 241.099 65.4485C242.741 71.1108 243.731 71.7002 248.953 68.4375C263.547 59.323 279.046 57.4917 295.24 62.9436C307.918 67.2166 314.572 77.0468 317.183 89.5713C318.447 95.6757 318.868 102.054 318.931 108.327C319.142 127.376 318.952 146.447 319.058 165.518C319.079 169.728 317.878 175.096 323.269 176.822C329.229 178.717 331.293 173.412 333.82 169.476C334.009 169.202 334.304 169.013 334.662 168.676C338.347 169.118 339.042 170.907 337.442 174.338C333.251 183.305 324.07 187.873 314.404 185.579C306.696 183.747 303.853 179.39 302.885 167.918C302.211 167.223 301.516 166.55 300.842 165.855C300.484 167.202 300.547 168.907 299.726 169.876C287.217 184.674 268.18 190.02 249.838 183.663C239.477 180.064 231.791 173.391 229.832 162.087C227.474 148.616 231.58 137.186 242.257 128.471C251.291 121.104 262.178 117.736 273.213 114.768C280.647 112.768 288.102 110.81 295.451 108.579C300.905 106.937 303.411 103.485 303.222 97.2966C302.716 80.2464 294.672 69.6163 279.362 66.943C265.316 64.5012 248.89 74.4367 244.236 88.6452C242.636 93.5287 242.152 98.7911 241.12 104.096L241.141 104.075ZM303.053 112.957C292.587 116.241 282.753 119.104 273.045 122.409C264.684 125.272 256.956 129.292 251.459 136.617C243.057 147.837 243.984 164.592 253.86 171.56C263.168 178.127 273.445 177.832 283.384 173.412C293.577 168.886 301.874 161.645 302.843 149.921C303.832 137.775 303.074 125.503 303.074 112.957H303.053Z" fill="#DDDDDD"/>
<path d="M165.125 81.2605C183.088 60.2741 203.03 54.296 219.372 64.7366C217.392 69.5149 215.37 74.4194 213.286 79.4292C212.043 79.1135 211.117 79.1556 210.78 78.7346C202.841 68.5887 187.742 70.1463 177.991 77.4927C169.905 83.576 165.04 91.3012 165.188 101.973C165.462 122.77 165.251 143.567 165.272 164.364C165.272 174.595 168.262 177.647 178.644 178.32C180.034 178.405 181.529 178.236 182.814 178.657C184.499 179.204 186.036 180.215 187.636 181.036C185.909 181.688 184.204 182.846 182.477 182.888C170.031 183.057 157.607 182.972 145.161 182.972C140.97 182.972 136.801 182.972 132.61 182.972C132.273 182.572 131.915 182.172 131.578 181.773C132.547 180.741 133.347 179.415 134.547 178.762C135.516 178.215 136.948 178.51 138.169 178.384C146.656 177.584 149.71 174.489 149.731 166.006C149.815 137.337 149.815 108.688 149.731 80.0186C149.71 71.3883 146.488 68.294 137.664 67.6204C136.611 67.5362 135.474 67.6204 134.547 67.2204C133.6 66.8205 132.863 65.9154 132.02 65.2418C132.968 64.505 133.895 63.1579 134.842 63.1579C144.803 63.0105 154.743 63.0526 165.104 63.0526V81.2816L165.125 81.2605Z" fill="#DDDDDD"/>
</svg>
