<svg width="1303" height="178" viewBox="0 0 1303 178" fill="none" xmlns="http://www.w3.org/2000/svg">
<path fill-rule="evenodd" clip-rule="evenodd" d="M372.852 0H451.696V10.1719H451.703V94.543H463.931V116.375H463.93V143.395H442.151V116.375H368.875V143.395H347.096V116.375H347.062V94.543H347.408C353.16 94.4527 357.964 91.8911 361.821 88.6104C369.051 82.4069 372.859 73.0718 372.859 63.5279V21.8315H372.852V0ZM391.901 21.8315V73.4893C391.901 89.1857 381.69 94.4138 381.433 94.543H429.924V21.8315H391.901ZM310.719 0.685791V42.8445C303.064 30.3398 291.193 22.3086 277.865 22.3086C254.777 22.3086 236.062 46.4068 236.062 76.112C236.062 105.817 254.777 129.915 277.865 129.915C291.193 129.915 303.064 121.884 310.719 109.38V128.514H332.498V0.685791H310.719ZM283.786 41.4261C298.288 41.4261 310.132 56.1931 310.719 74.6747V77.5494C310.132 96.031 298.288 110.798 283.786 110.798C268.909 110.798 256.83 95.2594 256.83 76.112C256.83 56.9647 268.909 41.4261 283.786 41.4261ZM0 1.00183V128.74H22.8202V1.00183H0ZM103.258 24.0625V128.329H81.2014V24.0625H103.258ZM140.353 2.00391H103.258V24.0603H140.353V2.00391ZM46.125 2.00391H68.1814V24.0603H46.125V2.00391ZM206.361 53.9219H144.773V75.7534H206.361V53.9219ZM1280.55 128.516V109.343C1272.89 121.87 1261.01 129.917 1247.67 129.917C1224.58 129.917 1205.87 105.819 1205.87 76.114C1205.87 46.4088 1224.58 22.3105 1247.67 22.3105C1261.01 22.3105 1272.89 30.3581 1280.55 42.8848V0.687798H1302.33V128.516H1280.55ZM1253.59 41.4281C1268.47 41.4281 1280.55 56.9666 1280.55 76.114C1280.55 95.2613 1268.47 110.8 1253.59 110.8C1238.71 110.8 1226.63 95.2613 1226.63 76.114C1226.63 56.9666 1238.71 41.4281 1253.59 41.4281ZM731.969 128.514V0.685844H753.748V42.892C761.401 30.3601 773.285 22.3086 786.63 22.3086C809.719 22.3086 828.433 46.4068 828.433 76.112C828.433 105.817 809.719 129.915 786.63 129.915C773.285 129.915 761.401 121.864 753.748 109.332V128.514H731.969ZM807.666 76.112C807.666 95.2594 795.586 110.798 780.71 110.798C765.833 110.798 753.754 95.2594 753.754 76.112C753.754 56.9647 765.833 41.4261 780.71 41.4261C795.586 41.4261 807.666 56.9647 807.666 76.112ZM986.023 116.375V143.395H964.245V101.402H964.25V94.5454V94.543H964.564C970.316 94.4527 975.12 91.8911 978.978 88.6104C986.207 82.4069 990.016 73.0718 990.016 63.5279V21.8315H990.008V0H1068.85V10.1719H1068.89V94.543H1081.12V116.375H1081.12V143.368H1059.34V116.375H986.023ZM1009.06 21.8315H1047.11V94.543H998.589C998.847 94.4138 1009.06 89.1857 1009.06 73.4893V21.8315ZM839.32 64.5994C839.32 99.4345 865.562 127.768 897.814 127.768C930.066 127.768 956.307 99.4345 956.307 64.5994C956.307 29.7644 930.095 1.46094 897.844 1.46094C865.592 1.46094 839.35 29.7942 839.35 64.6293L839.32 64.5994ZM932.773 64.5994C932.773 88.459 917.094 107.845 897.844 107.845C878.594 107.845 862.914 88.4292 862.914 64.5994C862.914 40.7696 878.594 21.3539 897.844 21.3539C917.094 21.3539 932.773 40.7696 932.773 64.5994ZM519.731 109.901C513.364 109.901 506.729 108.768 499.827 106.531V106.501C492.924 104.265 486.527 101.103 480.577 97.0768L474.031 114.256C478.851 118.521 485.426 121.921 493.698 124.515C501.969 127.11 510.538 128.393 519.731 128.393C528.925 128.393 537.018 126.871 544.009 123.77C551.031 120.668 556.476 116.343 560.403 110.796C564.33 105.249 566.294 98.9259 566.294 91.8575C566.294 83.7751 563.2 76.8558 557.041 71.0698C550.882 65.3137 542.046 61.0488 530.502 58.3646L515.715 55.1734C510.121 53.9506 505.747 51.9225 502.624 49.119C499.499 46.3155 497.923 43.005 497.923 39.1874C497.923 32.8944 500.065 28.0032 504.379 24.4541C508.693 20.905 514.703 19.1453 522.439 19.1453C528.032 19.1453 533.774 20.1594 539.665 22.2471C545.527 24.3348 551.061 27.1681 556.208 30.7471L562.605 14.7611C558.35 10.4962 552.638 7.09624 545.467 4.56115C538.297 2.02607 530.621 0.773438 522.439 0.773438C513.483 0.773438 505.48 2.38396 498.488 5.57518C491.466 8.76641 486.022 13.2699 482.094 19.1155C478.167 24.9611 476.203 31.6418 476.203 39.1576C476.203 47.5681 479.297 54.6962 485.456 60.5418C491.645 66.3874 500.422 70.5926 511.847 73.1874C516.101 74.0821 521.04 75.2154 526.634 76.5575C532.346 77.8102 536.779 79.7786 539.904 82.4628C543.028 85.147 544.604 88.3084 544.604 91.8873C544.604 97.4943 542.432 101.908 538.059 105.1C533.685 108.291 527.556 109.901 519.731 109.901ZM606.613 54.6649H666.921V2.62109H688.432V126.572H666.921V73.1859H606.613V126.572H585.102V2.62109H606.613V54.6649ZM1148.24 0.683594H1098.13V127.706H1120.18V78.1677H1148.24C1148.42 78.1677 1148.61 78.167 1148.79 78.1656L1175.43 127.706H1198.85L1170.01 74.1352C1170.47 73.936 1170.93 73.7293 1171.38 73.5151C1177.99 70.3835 1183.08 65.9695 1186.62 60.2133C1190.16 54.4572 1191.94 47.6572 1191.94 39.8432C1191.94 32.0292 1190.19 25.1695 1186.71 19.2344C1183.23 13.2994 1178.17 8.73621 1171.56 5.51517C1164.96 2.29412 1157.19 0.683594 1148.24 0.683594ZM1170.61 39.873C1170.61 46.7625 1168.65 52.0712 1164.75 55.7397V55.7695C1160.82 59.4379 1155.32 61.287 1148.21 61.287H1120.15V19.6818H1148.21C1155.23 19.6818 1160.7 21.4116 1164.66 24.9309C1168.62 28.4502 1170.61 33.4309 1170.61 39.873Z" fill="#DDDDDD"/>
<path fill-rule="evenodd" clip-rule="evenodd" d="M253.098 174.932C254.497 176.403 256.349 177.139 258.656 177.139C260.471 177.139 262.041 176.663 263.365 175.711C264.689 174.759 265.523 173.504 265.865 171.947H263.544C263.246 172.913 262.658 173.685 261.78 174.262C260.902 174.824 259.876 175.105 258.7 175.105C257.064 175.105 255.754 174.557 254.772 173.461C253.79 172.365 253.299 170.901 253.299 169.07C253.299 167.238 253.79 165.774 254.772 164.678C255.754 163.582 257.064 163.034 258.7 163.034C259.876 163.034 260.888 163.329 261.736 163.921C262.584 164.498 263.157 165.291 263.454 166.3H265.798C265.5 164.699 264.704 163.416 263.41 162.449C262.13 161.483 260.583 161 258.767 161C256.461 161 254.586 161.75 253.143 163.25C251.714 164.735 251 166.683 251 169.091C251 171.514 251.699 173.461 253.098 174.932ZM349.958 176.714H355.229C357.582 176.714 359.486 175.99 360.941 174.541C362.397 173.092 363.124 171.201 363.124 168.868C363.124 166.521 362.389 164.622 360.919 163.173C359.449 161.724 357.523 161 355.141 161H349.958V176.714ZM352.12 162.956H354.987C356.81 162.956 358.243 163.485 359.287 164.543C360.346 165.601 360.875 167.042 360.875 168.868C360.875 170.665 360.353 172.092 359.309 173.15C358.265 174.208 356.854 174.736 355.075 174.736H352.12V162.956ZM391.756 165.826C391.534 166.045 391.261 166.155 390.943 166.155C390.624 166.155 390.352 166.045 390.13 165.826L390.128 165.824C389.908 165.595 389.796 165.327 389.796 165.022C389.796 164.707 389.908 164.437 390.13 164.218C390.352 163.999 390.624 163.89 390.943 163.89C391.261 163.89 391.534 163.999 391.756 164.218C391.978 164.437 392.09 164.707 392.09 165.022C392.09 165.327 391.977 165.595 391.758 165.824L391.756 165.826ZM390.07 176.376V167.944H391.85V176.376H390.07ZM391.696 165.765C391.902 165.551 392.005 165.304 392.005 165.022C392.005 165.013 392.005 165.004 392.004 164.995L392.004 165.004L392.004 165.016V165.02C392.004 165.301 391.902 165.549 391.696 165.763C391.491 165.966 391.24 166.067 390.943 166.067C390.646 166.067 390.395 165.966 390.189 165.763C390.01 165.576 389.909 165.364 389.886 165.126C389.908 165.365 390.01 165.578 390.189 165.765C390.395 165.968 390.646 166.07 390.943 166.07C391.24 166.07 391.491 165.968 391.696 165.765ZM390.155 176.291H391.765V168.029H391.765V176.289H390.155V176.291ZM403.529 167.898C403.283 167.136 402.822 166.556 402.146 166.158C401.482 165.748 400.695 165.544 399.786 165.544C398.36 165.544 397.235 165.987 396.411 166.874C395.588 167.761 395.176 168.944 395.176 170.422C395.176 170.449 395.176 170.477 395.177 170.504C395.176 170.476 395.176 170.448 395.176 170.419C395.176 168.941 395.588 167.759 396.411 166.872C397.235 165.985 398.36 165.541 399.786 165.541C400.695 165.541 401.482 165.746 402.146 166.155C402.822 166.553 403.283 167.133 403.528 167.895H405.446L405.446 167.898H403.529ZM403.897 171.204V171.207H399.435V171.204H403.897ZM405.593 176.526V169.723H405.594V176.528H404.082L404.082 176.526H405.593ZM403.952 174.854L403.953 174.857C403.939 174.878 403.924 174.899 403.91 174.92C403.899 174.936 403.887 174.951 403.876 174.967C403.507 175.473 402.961 175.886 402.238 176.204C401.476 176.545 400.615 176.716 399.657 176.716C397.764 176.716 396.227 176.136 395.047 174.976C394.633 174.569 394.292 174.116 394.023 173.618C394.292 174.115 394.633 174.567 395.047 174.974C396.227 176.133 397.763 176.713 399.656 176.713C400.615 176.713 401.476 176.543 402.238 176.202C403.012 175.861 403.584 175.411 403.952 174.854ZM402.272 176.282C401.498 176.628 400.625 176.801 399.657 176.801C397.745 176.801 396.186 176.214 394.988 175.037C393.789 173.858 393.192 172.306 393.192 170.388C393.192 168.48 393.802 166.917 395.024 165.705C396.247 164.493 397.849 163.89 399.823 163.89C401.3 163.89 402.565 164.252 403.614 164.979C404.664 165.708 405.304 166.676 405.53 167.882L405.548 167.983H403.467L403.448 167.924C403.208 167.181 402.76 166.618 402.103 166.231L402.101 166.23C401.453 165.83 400.682 165.629 399.786 165.629C398.379 165.629 397.278 166.065 396.474 166.932C395.668 167.8 395.261 168.96 395.261 170.422C395.261 171.872 395.674 173.002 396.49 173.824C397.319 174.636 398.421 175.045 399.804 175.045C400.994 175.045 401.958 174.753 402.702 174.176C403.439 173.593 403.812 172.727 403.812 171.565V171.292H399.35V169.638H405.679V176.613H404.003L403.886 175.095C403.508 175.58 402.968 175.975 402.272 176.282ZM416.139 176.375H418V164.314H416.179L409.923 173.322V164.314H408.062V176.375H409.882L416.139 167.367V176.375ZM416.224 176.29V176.29H417.911V164.398H417.915V176.29H416.224ZM416.219 167.096V167.103L409.838 176.29H408.147V176.29H409.833L416.219 167.096ZM409.838 173.586V164.398H409.833V173.593L409.838 173.586ZM380.211 164.96C379.412 165.607 379.012 166.459 379.012 167.515C379.012 169.309 380.064 170.439 382.167 170.905L384.265 171.365C385.44 171.626 386.027 172.245 386.027 173.221C386.027 173.835 385.775 174.323 385.269 174.686C384.776 175.038 384.106 175.214 383.26 175.214C382.461 175.214 381.821 175.044 381.339 174.703C380.869 174.351 380.622 173.88 380.598 173.29H378.836C378.883 174.346 379.306 175.18 380.105 175.794C380.904 176.407 381.956 176.713 383.26 176.713C384.623 176.713 385.71 176.384 386.521 175.725C387.343 175.067 387.755 174.187 387.755 173.085C387.755 171.359 386.709 170.263 384.617 169.798L382.52 169.321C381.333 169.048 380.739 168.429 380.739 167.464C380.739 166.862 380.98 166.38 381.462 166.016C381.944 165.653 382.584 165.471 383.383 165.471C384.1 165.471 384.67 165.641 385.093 165.982C385.516 166.323 385.751 166.8 385.798 167.413H387.543C387.473 166.345 387.067 165.505 386.327 164.892C385.587 164.279 384.611 163.972 383.401 163.972C382.085 163.972 381.021 164.301 380.211 164.96ZM370.548 176.713C368.726 176.713 367.242 176.128 366.095 174.957C364.965 173.786 364.399 172.26 364.399 170.38C364.399 168.483 364.956 166.941 366.069 165.753C367.2 164.566 368.659 163.972 370.447 163.972C372.201 163.972 373.609 164.516 374.672 165.605C375.735 166.693 376.266 168.137 376.266 169.934V170.8L366.702 170.825C366.786 172.095 367.157 173.077 367.815 173.769C368.49 174.445 369.418 174.784 370.598 174.784C372.488 174.784 373.643 174.074 374.065 172.656H376.291C375.988 173.959 375.338 174.965 374.343 175.674C373.348 176.367 372.083 176.713 370.548 176.713ZM370.447 165.927C369.418 165.927 368.583 166.215 367.942 166.792C367.301 167.37 366.904 168.194 366.753 169.267H373.888C373.888 168.26 373.576 167.452 372.952 166.842C372.327 166.232 371.492 165.927 370.447 165.927ZM336.998 176.713C335.176 176.713 333.692 176.128 332.545 174.957C331.415 173.786 330.85 172.26 330.85 170.38C330.85 168.483 331.406 166.941 332.52 165.753C333.65 164.566 335.109 163.972 336.897 163.972C338.651 163.972 340.06 164.516 341.122 165.605C342.185 166.693 342.716 168.137 342.716 169.934V170.8L333.152 170.825C333.237 172.095 333.608 173.077 334.265 173.769C334.94 174.445 335.868 174.784 337.049 174.784C338.938 174.784 340.093 174.074 340.515 172.656H342.742C342.438 173.959 341.789 174.965 340.793 175.674C339.798 176.367 338.533 176.713 336.998 176.713ZM336.897 165.927C335.868 165.927 335.033 166.215 334.392 166.792C333.751 167.37 333.355 168.194 333.203 169.267H340.338C340.338 168.26 340.026 167.452 339.402 166.842C338.778 166.232 337.943 165.927 336.897 165.927ZM324.712 174.511C324.638 174.246 324.562 173.985 324.482 173.73C324.547 173.937 324.609 174.148 324.67 174.361C324.684 174.411 324.698 174.46 324.712 174.51L324.712 174.511ZM323.811 176.713H325.613L330.418 163.975H330.42L325.614 176.716H323.812L323.811 176.713ZM323.753 176.801L318.83 163.89H320.867L323.997 172.085C324.26 172.757 324.5 173.466 324.716 174.212C324.941 173.484 325.184 172.769 325.446 172.069L325.446 172.068L328.559 163.89H330.543L325.673 176.801H323.753ZM316.618 166.139C316.915 166.139 317.166 166.034 317.371 165.825C317.577 165.603 317.68 165.347 317.68 165.056C317.68 165.029 317.679 165.002 317.677 164.976C317.679 165.003 317.68 165.031 317.68 165.058C317.68 165.349 317.577 165.606 317.372 165.827C317.166 166.037 316.915 166.142 316.618 166.142C316.321 166.142 316.07 166.037 315.865 165.827C315.677 165.625 315.575 165.395 315.559 165.135C315.576 165.393 315.678 165.624 315.864 165.825C316.07 166.034 316.321 166.139 316.618 166.139ZM317.44 176.713H315.83V176.716H317.44V168.169H317.44V176.713ZM317.432 165.887C317.211 166.113 316.937 166.227 316.618 166.227C316.299 166.227 316.026 166.113 315.804 165.887L315.802 165.885C315.583 165.649 315.471 165.372 315.471 165.058C315.471 164.734 315.582 164.456 315.804 164.23C316.026 164.003 316.299 163.89 316.618 163.89C316.937 163.89 317.211 164.003 317.432 164.23C317.654 164.456 317.765 164.734 317.765 165.058C317.765 165.372 317.653 165.649 317.434 165.885L317.432 165.887ZM315.745 176.801V168.084H317.525V176.801H315.745ZM314.708 163.975H314.703V165.558H310.726V176.713H308.935V176.716H310.731V165.561H314.708V163.975ZM304.94 165.561V165.558H308.93V165.561H304.94ZM304.855 165.646V163.89H314.793V165.646H310.816V176.801H308.85V165.646H304.855ZM294.182 175.724C294.956 176.383 296.014 176.713 297.355 176.713C298.37 176.713 299.273 176.515 300.064 176.12C300.873 175.707 301.44 175.155 301.767 174.462L302.025 176.416H304.089V168.821C304.089 167.238 303.616 166.034 302.67 165.209C301.741 164.384 300.469 163.972 298.852 163.972C297.218 163.972 295.902 164.36 294.904 165.135C293.924 165.894 293.434 166.9 293.434 168.153H295.549C295.549 167.427 295.825 166.858 296.375 166.446C296.943 166.034 297.734 165.828 298.749 165.828C300.727 165.828 301.716 166.743 301.716 168.574V168.92L297.742 169.217C296.246 169.332 295.085 169.728 294.259 170.405C293.451 171.064 293.047 171.947 293.047 173.052C293.047 174.157 293.425 175.048 294.182 175.724ZM300.761 173.918C300.107 174.577 299.204 174.907 298.052 174.907C297.244 174.907 296.616 174.742 296.169 174.413C295.721 174.083 295.498 173.604 295.498 172.978C295.498 171.708 296.504 170.982 298.516 170.8L301.741 170.553V171.196C301.741 172.334 301.415 173.241 300.761 173.918ZM285.178 176.713C283.356 176.713 281.872 176.128 280.725 174.957C279.595 173.786 279.03 172.26 279.03 170.38C279.03 168.483 279.586 166.941 280.7 165.753C281.83 164.566 283.289 163.972 285.077 163.972C286.831 163.972 288.239 164.516 289.302 165.605C290.365 166.693 290.896 168.137 290.896 169.934V170.8L281.332 170.825C281.416 172.095 281.787 173.077 282.445 173.769C283.12 174.445 284.048 174.784 285.229 174.784C287.118 174.784 288.273 174.074 288.695 172.656H290.921C290.618 173.959 289.968 174.965 288.973 175.674C287.978 176.367 286.713 176.713 285.178 176.713ZM285.077 165.927C284.048 165.927 283.213 166.215 282.572 166.792C281.931 167.37 281.534 168.194 281.383 169.267H288.518C288.518 168.26 288.206 167.452 287.582 166.842C286.958 166.232 286.123 165.927 285.077 165.927ZM276.905 176.713H275.093V176.716H276.91V163.975H276.905V176.713ZM275.089 171.676V171.673H271.66L269.157 176.713H267.143L267.142 176.716H269.162L271.664 171.676H275.089ZM269.861 171.339L269.862 171.338C269.569 171.247 269.3 171.133 269.055 170.998C269.278 171.122 269.521 171.227 269.784 171.315C269.81 171.323 269.835 171.331 269.861 171.339ZM275.089 165.523V165.525H271.85C271.009 165.525 270.354 165.725 269.885 166.125C269.415 166.512 269.18 167.076 269.18 167.816C269.18 168.545 269.415 169.115 269.885 169.526C270 169.63 270.128 169.721 270.268 169.798C270.126 169.72 269.997 169.628 269.88 169.523C269.411 169.112 269.176 168.542 269.176 167.814C269.176 167.074 269.411 166.51 269.88 166.122C270.35 165.723 271.005 165.523 271.845 165.523H275.089ZM275.008 176.801H276.995V163.89H271.85C270.403 163.89 269.263 164.233 268.44 164.932C267.603 165.631 267.186 166.59 267.186 167.799C267.186 168.695 267.419 169.46 267.889 170.087C268.329 170.691 268.949 171.125 269.746 171.391L267.003 176.801H269.215L271.717 171.761H275.008V176.801ZM269.942 169.463L269.941 169.462C269.493 169.07 269.265 168.525 269.265 167.816C269.265 167.096 269.493 166.558 269.939 166.19L269.94 166.189C270.389 165.807 271.022 165.61 271.85 165.61H275.008V170.058H271.831C271.004 170.058 270.378 169.855 269.942 169.463Z" fill="#DDDDDD"/>
</svg>
