<svg width="40" height="39" viewBox="0 0 40 39" fill="none" xmlns="http://www.w3.org/2000/svg">
<path d="M24.2107 14.7866C28.1878 18.7341 31.2141 22.8562 32.899 26.316C33.7426 28.0481 34.2373 29.5885 34.3619 30.8424C34.4869 32.1006 34.2346 32.993 33.6876 33.5441C33.1406 34.0952 32.2502 34.3542 30.9911 34.2387C29.7362 34.1235 28.1921 33.6403 26.4538 32.8098C22.9814 31.1508 18.8367 28.1556 14.8596 24.2081C10.8824 20.2607 7.8562 16.1386 6.17123 12.6788C5.32767 10.9467 4.83293 9.40627 4.70835 8.15231C4.58336 6.89411 4.83567 6.00176 5.38266 5.45065C5.92965 4.89954 6.82008 4.64054 8.07919 4.7561C9.33405 4.87127 10.8781 5.35444 12.6165 6.18499C16.0888 7.84397 20.2335 10.8392 24.2107 14.7866Z" stroke="black"/>
<path d="M24.232 24.1932C20.2697 28.1555 16.1362 31.1663 12.6702 32.8382C10.9349 33.6753 9.39263 34.1643 8.13821 34.2841C6.87955 34.4044 5.98816 34.1488 5.4391 33.5997C4.89005 33.0506 4.63439 32.1592 4.75467 30.9006C4.87454 29.6462 5.3635 28.1039 6.20056 26.3686C7.87255 22.9026 10.8833 18.7691 14.8456 14.8068C18.8079 10.8445 22.9414 7.83374 26.4074 6.16176C28.1427 5.3247 29.685 4.83574 30.9394 4.71587C32.1981 4.59559 33.0894 4.85124 33.6385 5.4003C34.1876 5.94935 34.4432 6.84075 34.3229 8.09941C34.2031 9.35383 33.7141 10.8961 32.877 12.6314C31.2051 16.0974 28.1943 20.2309 24.232 24.1932Z" stroke="black"/>
</svg>
