<svg width="568" height="568" viewBox="0 0 568 568" fill="none" xmlns="http://www.w3.org/2000/svg">
<line y1="139.5" x2="568" y2="139.5" stroke="black"/>
<rect x="268.5" y="253.5" width="64" height="63" fill="black"/>
<rect x="268.5" y="253.5" width="64" height="63" stroke="black"/>
<rect x="226.5" y="418.5" width="20" height="20" fill="black"/>
<rect x="226.5" y="418.5" width="20" height="20" stroke="black"/>
<rect x="60.5" y="418.5" width="20" height="20" fill="white"/>
<rect x="60.5" y="418.5" width="20" height="20" stroke="black"/>
<rect x="269.5" y="418.5" width="20" height="20" fill="black"/>
<rect x="269.5" y="418.5" width="20" height="20" stroke="black"/>
<rect x="203.5" y="253.5" width="64" height="63" fill="white"/>
<rect x="203.5" y="253.5" width="64" height="63" stroke="black"/>
<rect x="140.5" y="253.5" width="63" height="63" fill="#D2FF52"/>
<rect x="140.5" y="253.5" width="63" height="63" stroke="black"/>
<line y1="284.5" x2="568" y2="284.5" stroke="black"/>
<rect x="407.5" y="253.5" width="64" height="63" fill="#D2FF52"/>
<rect x="407.5" y="253.5" width="64" height="63" stroke="black"/>
<line y1="428.5" x2="568" y2="428.5" stroke="black"/>
<rect x="26.5" y="100.5" width="79" height="79" rx="39.5" fill="#78E8D3"/>
<rect x="26.5" y="100.5" width="79" height="79" rx="39.5" stroke="black"/>
<g clip-path="url(#clip0_1089_22803)">
<mask id="mask0_1089_22803" style="mask-type:luminance" maskUnits="userSpaceOnUse" x="26" y="99" width="80" height="81">
<path d="M66.0329 179.464C87.6182 179.464 105.117 161.65 105.117 139.675C105.117 117.7 87.6182 99.8857 66.0329 99.8857C44.4476 99.8857 26.9492 117.7 26.9492 139.675C26.9492 161.65 44.4476 179.464 66.0329 179.464Z" fill="white"/>
</mask>
<g mask="url(#mask0_1089_22803)">
<path d="M36.0572 96.0297H16.0742V102.744H36.0572V96.0297Z" fill="#1C46F5"/>
<path d="M76.0259 96.0297H56.043V102.744H76.0259V96.0297Z" fill="#1C46F5"/>
<path d="M115.991 96.0297H96.0078V102.744H115.991V96.0297Z" fill="#1C46F5"/>
<path d="M56.0416 96.0297H36.0586V102.744H56.0416V96.0297Z" fill="#92C8E9"/>
<path d="M96.0064 96.0297H76.0234V102.744H96.0064V96.0297Z" fill="#92C8E9"/>
<path d="M36.0572 102.742H16.0742V109.457H36.0572V102.742Z" fill="#92C8E9"/>
<path d="M76.0259 102.742H56.043V109.457H76.0259V102.742Z" fill="#92C8E9"/>
<path d="M115.991 102.742H96.0078V109.457H115.991V102.742Z" fill="#92C8E9"/>
<path d="M56.0416 102.742H36.0586V109.457H56.0416V102.742Z" fill="#1C46F5"/>
<path d="M96.0064 102.742H76.0234V109.457H96.0064V102.742Z" fill="#1C46F5"/>
<path d="M36.0572 109.462H16.0742V116.177H36.0572V109.462Z" fill="#1C46F5"/>
<path d="M76.0259 109.462H56.043V116.177H76.0259V109.462Z" fill="#1C46F5"/>
<path d="M115.991 109.462H96.0078V116.177H115.991V109.462Z" fill="#1C46F5"/>
<path d="M56.0416 109.462H36.0586V116.177H56.0416V109.462Z" fill="#92C8E9"/>
<path d="M96.0064 109.462H76.0234V116.177H96.0064V109.462Z" fill="#92C8E9"/>
<path d="M36.0572 116.179H16.0742V122.893H36.0572V116.179Z" fill="#92C8E9"/>
<path d="M76.0259 116.179H56.043V122.893H76.0259V116.179Z" fill="#92C8E9"/>
<path d="M115.991 116.179H96.0078V122.893H115.991V116.179Z" fill="#92C8E9"/>
<path d="M56.0416 116.179H36.0586V122.893H56.0416V116.179Z" fill="#1C46F5"/>
<path d="M96.0064 116.179H76.0234V122.893H96.0064V116.179Z" fill="#1C46F5"/>
<path d="M36.0572 122.891H16.0742V129.606H36.0572V122.891Z" fill="#1C46F5"/>
<path d="M76.0259 122.891H56.043V129.606H76.0259V122.891Z" fill="#1C46F5"/>
<path d="M115.991 122.891H96.0078V129.606H115.991V122.891Z" fill="#1C46F5"/>
<path d="M56.0416 122.891H36.0586V129.606H56.0416V122.891Z" fill="#92C8E9"/>
<path d="M96.0064 122.891H76.0234V129.606H96.0064V122.891Z" fill="#92C8E9"/>
<path d="M36.0572 129.607H16.0742V136.322H36.0572V129.607Z" fill="#92C8E9"/>
<path d="M76.0259 129.607H56.043V136.322H76.0259V129.607Z" fill="#92C8E9"/>
<path d="M115.991 129.607H96.0078V136.322H115.991V129.607Z" fill="#92C8E9"/>
<path d="M56.0416 129.607H36.0586V136.322H56.0416V129.607Z" fill="#1C46F5"/>
<path d="M96.0064 129.607H76.0234V136.322H96.0064V129.607Z" fill="#1C46F5"/>
<path d="M36.0572 136.324H16.0742V143.038H36.0572V136.324Z" fill="#1C46F5"/>
<path d="M76.0259 136.324H56.043V143.038H76.0259V136.324Z" fill="#1C46F5"/>
<path d="M115.991 136.324H96.0078V143.038H115.991V136.324Z" fill="#1C46F5"/>
<path d="M56.0416 136.324H36.0586V143.038H56.0416V136.324Z" fill="#92C8E9"/>
<path d="M96.0064 136.324H76.0234V143.038H96.0064V136.324Z" fill="#92C8E9"/>
<path d="M36.0572 143.04H16.0742V149.755H36.0572V143.04Z" fill="#92C8E9"/>
<path d="M76.0259 143.04H56.043V149.755H76.0259V143.04Z" fill="#92C8E9"/>
<path d="M115.991 143.04H96.0078V149.755H115.991V143.04Z" fill="#92C8E9"/>
<path d="M56.0416 143.04H36.0586V149.755H56.0416V143.04Z" fill="#1C46F5"/>
<path d="M96.0064 143.04H76.0234V149.755H96.0064V143.04Z" fill="#1C46F5"/>
<path d="M36.0572 149.756H16.0742V156.471H36.0572V149.756Z" fill="#1C46F5"/>
<path d="M76.0259 149.756H56.043V156.471H76.0259V149.756Z" fill="#1C46F5"/>
<path d="M115.991 149.756H96.0078V156.471H115.991V149.756Z" fill="#1C46F5"/>
<path d="M56.0416 149.756H36.0586V156.471H56.0416V149.756Z" fill="#92C8E9"/>
<path d="M96.0064 149.756H76.0234V156.471H96.0064V149.756Z" fill="#92C8E9"/>
<path d="M36.0572 156.469H16.0742V163.183H36.0572V156.469Z" fill="#92C8E9"/>
<path d="M76.0259 156.469H56.043V163.183H76.0259V156.469Z" fill="#92C8E9"/>
<path d="M115.991 156.469H96.0078V163.183H115.991V156.469Z" fill="#92C8E9"/>
<path d="M56.0416 156.469H36.0586V163.183H56.0416V156.469Z" fill="#1C46F5"/>
<path d="M96.0064 156.469H76.0234V163.183H96.0064V156.469Z" fill="#1C46F5"/>
<path d="M36.0572 163.185H16.0742V169.9H36.0572V163.185Z" fill="#1C46F5"/>
<path d="M76.0259 163.185H56.043V169.9H76.0259V163.185Z" fill="#1C46F5"/>
<path d="M115.991 163.185H96.0078V169.9H115.991V163.185Z" fill="#1C46F5"/>
<path d="M56.0416 163.185H36.0586V169.9H56.0416V163.185Z" fill="#92C8E9"/>
<path d="M96.0064 163.185H76.0234V169.9H96.0064V163.185Z" fill="#92C8E9"/>
<path d="M36.0572 169.901H16.0742V176.616H36.0572V169.901Z" fill="#92C8E9"/>
<path d="M76.0259 169.901H56.043V176.616H76.0259V169.901Z" fill="#92C8E9"/>
<path d="M115.991 169.901H96.0078V176.616H115.991V169.901Z" fill="#92C8E9"/>
<path d="M56.0416 169.901H36.0586V176.616H56.0416V169.901Z" fill="#1C46F5"/>
<path d="M96.0064 169.901H76.0234V176.616H96.0064V169.901Z" fill="#1C46F5"/>
<path d="M36.0572 176.614H16.0742V183.328H36.0572V176.614Z" fill="#1C46F5"/>
<path d="M76.0259 176.614H56.043V183.328H76.0259V176.614Z" fill="#1C46F5"/>
<path d="M115.991 176.614H96.0078V183.328H115.991V176.614Z" fill="#1C46F5"/>
<path d="M56.0416 176.614H36.0586V183.328H56.0416V176.614Z" fill="#92C8E9"/>
<path d="M96.0064 176.614H76.0234V183.328H96.0064V176.614Z" fill="#92C8E9"/>
</g>
</g>
<rect x="26.5" y="100.5" width="79" height="79" rx="39.5" stroke="black"/>
<rect x="70.5" y="100.5" width="79" height="79" rx="39.5" fill="white"/>
<rect x="70.5" y="100.5" width="79" height="79" rx="39.5" stroke="black"/>
<rect x="109.5" y="100.5" width="79" height="79" rx="39.5" fill="white"/>
<rect x="109.5" y="100.5" width="79" height="79" rx="39.5" stroke="black"/>
<rect x="176.5" y="100.5" width="79" height="79" rx="39.5" fill="white"/>
<rect x="176.5" y="100.5" width="79" height="79" rx="39.5" stroke="black"/>
<g clip-path="url(#clip1_1089_22803)">
<path d="M216 179.998C238.091 179.998 256 162.09 256 139.998C256 117.907 238.091 99.9984 216 99.9984C193.909 99.9984 176 117.907 176 139.998C176 162.09 193.909 179.998 216 179.998Z" fill="#F590B2"/>
<path d="M227.667 157C222.512 157 218.333 149.165 218.333 139.5C218.333 129.835 222.512 122 227.667 122C232.821 122 237 129.835 237 139.5C237 149.165 232.821 157 227.667 157Z" fill="white"/>
<path d="M231.75 145.333C228.851 145.333 226.5 142.395 226.5 138.771C226.5 135.147 228.851 132.208 231.75 132.208C234.649 132.208 237 135.147 237 138.771C237 142.395 234.649 145.333 231.75 145.333Z" fill="black"/>
<path d="M234.665 138.042C234.021 138.042 233.499 137.389 233.499 136.583C233.499 135.778 234.021 135.125 234.665 135.125C235.31 135.125 235.832 135.778 235.832 136.583C235.832 137.389 235.31 138.042 234.665 138.042Z" fill="white"/>
<path d="M204.335 157C199.18 157 195.001 149.165 195.001 139.5C195.001 129.835 199.18 122 204.335 122C209.489 122 213.668 129.835 213.668 139.5C213.668 149.165 209.489 157 204.335 157Z" fill="white"/>
<path d="M208.418 145.333C205.518 145.333 203.168 142.395 203.168 138.771C203.168 135.147 205.518 132.208 208.418 132.208C211.317 132.208 213.668 135.147 213.668 138.771C213.668 142.395 211.317 145.333 208.418 145.333Z" fill="black"/>
<path d="M211.333 138.042C210.689 138.042 210.167 137.389 210.167 136.583C210.167 135.778 210.689 135.125 211.333 135.125C211.978 135.125 212.5 135.778 212.5 136.583C212.5 137.389 211.978 138.042 211.333 138.042Z" fill="white"/>
</g>
<rect x="176.5" y="100.5" width="79" height="79" rx="39.5" stroke="black"/>
<rect x="345.5" y="389.5" width="79" height="79" rx="39.5" fill="white"/>
<rect x="345.5" y="389.5" width="79" height="79" rx="39.5" stroke="black"/>
<g clip-path="url(#clip2_1089_22803)">
<path d="M385 468.998C407.091 468.998 425 451.09 425 428.998C425 406.907 407.091 388.998 385 388.998C362.909 388.998 345 406.907 345 428.998C345 451.09 362.909 468.998 385 468.998Z" fill="#1C46F5"/>
<path d="M402.424 428.5C406.883 426.521 410 422.027 410 416.789C410 409.726 404.335 404 397.347 404C391.301 404 386.256 408.288 385.001 414.016C383.747 408.288 378.699 404 372.653 404C365.665 404 360 409.726 360 416.789C360 422.027 363.117 426.521 367.576 428.5C363.117 430.479 360 434.973 360 440.211C360 447.274 365.665 453 372.653 453C378.699 453 383.744 448.712 385.001 442.984C386.256 448.712 391.303 453 397.347 453C404.335 453 410 447.274 410 440.211C410 434.973 406.883 430.479 402.424 428.5Z" fill="#92C8E9"/>
</g>
<rect x="345.5" y="389.5" width="79" height="79" rx="39.5" stroke="black"/>
<g clip-path="url(#clip3_1089_22803)">
<path d="M431.996 468.922C454.047 468.922 471.922 451.047 471.922 428.996C471.922 406.946 454.047 389.07 431.996 389.07C409.946 389.07 392.07 406.946 392.07 428.996C392.07 451.047 409.946 468.922 431.996 468.922Z" fill="white" stroke="black" stroke-width="0.144975" stroke-miterlimit="10"/>
<path d="M434.227 391.266L435.3 394.586C435.375 394.871 435.518 394.972 435.787 394.987L435.781 395.114L434.491 395.042L434.497 394.914C434.833 394.934 434.987 394.902 434.996 394.743C434.996 394.702 434.99 394.65 434.972 394.589L434.691 393.717L433.16 393.63L432.844 394.352C432.809 394.447 432.783 394.523 432.78 394.584C432.769 394.766 432.914 394.824 433.25 394.844L433.244 394.972L432.137 394.908L432.145 394.781C432.424 394.795 432.531 394.737 432.714 394.282L433.946 391.368L434.233 391.266H434.227ZM434.024 391.603L433.218 393.485L434.642 393.566L434.024 391.603Z" fill="black"/>
<path d="M435.964 395.881L435.984 395.756C436.236 395.797 436.329 395.733 436.361 395.519L436.712 393.298C436.735 393.141 436.671 393.066 436.436 393.028L436.428 392.95L437.095 392.842L437.051 393.109C437.219 392.981 437.44 392.897 437.817 392.958C438.544 393.074 438.773 393.724 438.675 394.347C438.576 394.965 438.162 395.507 437.431 395.391C437.054 395.33 436.868 395.179 436.75 395.011L436.663 395.568C436.628 395.785 436.738 395.878 436.953 395.913L436.932 396.038L435.961 395.884L435.964 395.881ZM436.781 394.811C436.866 394.968 436.982 395.142 437.353 395.2C437.935 395.292 438.252 394.826 438.336 394.289C438.42 393.753 438.266 393.202 437.683 393.109C437.396 393.063 437.202 393.115 437.019 393.292L436.779 394.808L436.781 394.811Z" fill="black"/>
<path d="M438.902 395.638L438.931 395.513C439.129 395.56 439.273 395.525 439.32 395.334L439.679 393.814C439.72 393.64 439.685 393.574 439.43 393.516L439.424 393.435L440.106 393.339L439.961 393.954C440.329 393.765 440.793 393.501 441.12 393.58C441.265 393.614 441.35 393.759 441.323 393.872C441.297 393.985 441.155 394.072 441.013 394.041C440.851 394.003 440.848 393.861 440.732 393.832C440.587 393.797 440.222 393.983 439.92 394.13L439.619 395.403C439.572 395.598 439.633 395.679 439.888 395.74L439.859 395.864L438.905 395.638H438.902Z" fill="black"/>
<path d="M441.21 396.213L441.245 396.091C441.468 396.158 441.581 396.144 441.639 395.946L442.08 394.459C442.117 394.331 442.091 394.224 441.819 394.143L441.825 394.065L442.523 394.033L441.929 396.033C441.871 396.228 441.929 396.294 442.184 396.37L442.149 396.492L441.207 396.213H441.21ZM442.935 393.082C442.9 393.204 442.776 393.299 442.605 393.25C442.428 393.198 442.387 393.053 442.422 392.931C442.457 392.809 442.573 392.711 442.747 392.763C442.918 392.812 442.97 392.963 442.932 393.085L442.935 393.082Z" fill="black"/>
<path d="M442.582 396.628L442.623 396.507C442.857 396.588 442.971 396.524 443.04 396.321L443.922 393.746C443.971 393.601 443.927 393.494 443.681 393.41V393.335L444.386 393.329L443.327 396.42C443.258 396.623 443.324 396.747 443.565 396.828L443.524 396.95L442.582 396.625V396.628Z" fill="black"/>
<path d="M443.898 397.021L443.951 396.905C444.296 397.059 444.435 397.01 444.536 396.781L445.664 394.247C445.748 394.061 445.67 393.942 445.337 393.794L445.389 393.678L446.227 394.052L446.021 397.453L448.407 395.024L449.271 395.409L449.219 395.525C448.848 395.36 448.741 395.401 448.659 395.583L447.532 398.117C447.442 398.323 447.485 398.483 447.836 398.636L447.784 398.752L446.607 398.228L446.659 398.112C446.998 398.262 447.152 398.193 447.244 397.987L448.468 395.238L448.416 395.215L445.777 397.897L445.702 397.865L445.916 394.183L445.861 394.157L444.667 396.839C444.565 397.068 444.626 397.204 444.971 397.358L444.919 397.474L443.901 397.021H443.898Z" fill="black"/>
<path d="M450.184 399.991C450.019 400.06 449.88 400.101 449.706 400.002C449.509 399.886 449.552 399.718 449.642 399.564C449.358 399.628 449.074 399.634 448.717 399.428C448.291 399.182 448.227 398.842 448.393 398.558C448.619 398.167 449.251 398.132 450.248 398.523L450.428 398.21C450.582 397.946 450.556 397.697 450.292 397.543C449.958 397.349 449.773 397.367 449.561 397.543C449.468 397.619 449.37 397.68 449.26 397.616C449.146 397.549 449.123 397.442 449.193 397.323C449.32 397.103 449.796 397.114 450.373 397.448C450.756 397.671 450.889 398.019 450.669 398.402L449.961 399.622C449.886 399.756 449.837 399.869 449.906 399.909C449.964 399.941 450.037 399.962 450.167 399.927L450.182 399.993L450.184 399.991ZM450.179 398.639C449.549 398.364 448.917 398.32 448.688 398.715C448.572 398.912 448.639 399.144 448.903 399.298C449.225 399.483 449.431 399.503 449.718 399.434L450.179 398.637V398.639Z" fill="black"/>
<path d="M450.324 400.286L450.397 400.182C450.565 400.298 450.713 400.315 450.823 400.153L451.704 398.86C451.806 398.712 451.794 398.637 451.58 398.492L451.603 398.413L452.273 398.567L451.916 399.089C452.328 399.043 452.855 398.967 453.134 399.156C453.256 399.24 453.285 399.405 453.218 399.504C453.151 399.599 452.989 399.631 452.867 399.547C452.728 399.451 452.777 399.318 452.679 399.254C452.557 399.17 452.148 399.211 451.812 399.243L451.075 400.324C450.965 400.489 450.988 400.585 451.209 400.736L451.136 400.84L450.324 400.286Z" fill="black"/>
<path d="M454.341 402.556C453.956 402.672 453.547 402.738 453.15 402.422C452.663 402.037 452.605 401.309 453.016 400.79C453.524 400.152 454.318 400.1 454.82 400.5C455.11 400.732 455.348 401.17 455.15 401.419C455.078 401.512 454.968 401.526 454.872 401.451C454.727 401.338 454.814 401.21 454.843 401.071C454.878 400.865 454.869 400.709 454.634 400.523C454.318 400.274 453.788 400.364 453.344 400.92C452.941 401.428 452.903 401.967 453.35 402.321C453.588 402.509 453.834 402.576 454.312 402.474L454.344 402.559L454.341 402.556Z" fill="black"/>
<path d="M454.323 403.264L454.41 403.171C454.59 403.339 454.703 403.348 454.836 403.206L456.686 401.228C456.837 401.069 456.808 400.973 456.64 400.817L456.681 400.744L457.321 400.996L456.173 402.223C456.454 402.234 456.84 402.246 457.144 402.533C457.446 402.814 457.51 403.125 457.194 403.464L456.219 404.505C456.095 404.638 456.118 404.772 456.289 404.931L456.202 405.024L455.477 404.345L455.564 404.253C455.758 404.432 455.872 404.429 455.999 404.296L456.91 403.322C457.118 403.099 457.159 402.878 456.878 402.617C456.617 402.374 456.338 402.336 456.054 402.35L455.057 403.417C454.923 403.56 454.95 403.681 455.132 403.85L455.045 403.942L454.32 403.264H454.323Z" fill="black"/>
<path d="M457.15 405.727C457.04 405.831 456.875 405.866 456.744 405.727C456.614 405.587 456.657 405.425 456.768 405.321C456.875 405.219 457.034 405.187 457.168 405.329C457.301 405.471 457.261 405.628 457.153 405.729L457.15 405.727Z" fill="black"/>
<path d="M459.067 408.268C458.884 408.071 458.8 407.987 458.612 407.798L458.783 407.656C458.606 407.656 458.351 407.572 458.107 407.279C457.646 406.723 457.907 406.056 458.4 405.647C458.893 405.238 459.589 405.079 460.067 405.656C460.328 405.969 460.337 406.198 460.32 406.398L461.065 405.78C461.198 405.67 461.187 405.569 460.984 405.325L461.021 405.261L461.682 405.667L459.186 407.735C459.018 407.874 459 408.022 459.148 408.201L459.067 408.271V408.268ZM460.175 406.517C460.233 406.291 460.209 406.096 460.001 405.841C459.624 405.386 459.044 405.548 458.618 405.902C458.183 406.262 457.93 406.789 458.307 407.242C458.571 407.558 458.789 407.537 458.931 407.546L460.178 406.514L460.175 406.517Z" fill="black"/>
<path d="M460.552 408.185C459.824 408.689 459.836 409.223 460.114 409.623C460.34 409.947 460.648 410.107 461.056 410.133L461.048 410.226C460.648 410.232 460.256 410.139 459.929 409.666C459.526 409.086 459.671 408.402 460.303 407.964C460.882 407.561 461.604 407.616 462.005 408.193C462.387 408.744 462.271 409.336 461.651 409.765L460.555 408.185H460.552ZM461.578 409.411C462.083 409.023 462.161 408.634 461.9 408.26C461.654 407.903 461.123 407.828 460.671 408.103L461.578 409.411Z" fill="black"/>
<path d="M461.636 410.77C461.483 411.123 461.329 411.59 461.613 412.077C461.781 412.367 462.077 412.492 462.364 412.327C462.567 412.208 462.585 411.987 462.463 411.439C462.277 410.63 462.373 410.361 462.66 410.195C462.93 410.039 463.298 410.178 463.541 410.601C463.681 410.842 463.684 411.03 463.736 411.117C463.747 411.135 463.759 411.146 463.771 411.155L463.939 411.274L463.454 411.889L463.376 411.834C463.495 411.634 463.678 411.088 463.431 410.659C463.272 410.387 463.031 410.274 462.788 410.413C462.57 410.538 462.608 410.813 462.715 411.286C462.88 411.996 462.84 412.335 462.489 412.541C462.098 412.767 461.703 412.506 461.492 412.141C461.347 411.889 461.349 411.694 461.277 411.57C461.265 411.547 461.251 411.526 461.231 411.509L461.051 411.373L461.576 410.726L461.634 410.764L461.636 410.77Z" fill="black"/>
<path d="M462.238 413.337L462.351 413.279C462.456 413.488 462.543 413.558 462.725 413.468L464.114 412.772C464.233 412.714 464.294 412.618 464.166 412.363L464.227 412.314L464.729 412.804L462.862 413.737C462.679 413.827 462.673 413.917 462.792 414.155L462.679 414.213L462.238 413.334V413.337ZM465.703 412.456C465.59 412.514 465.434 412.488 465.355 412.328C465.274 412.163 465.349 412.035 465.465 411.977C465.581 411.919 465.729 411.937 465.81 412.099C465.892 412.259 465.816 412.398 465.703 412.453V412.456Z" fill="black"/>
<path d="M465.681 415.412C465.869 415.476 466.005 415.592 466.06 415.722C466.101 415.821 466.095 415.963 465.997 416.004C465.898 416.044 465.794 416.007 465.753 415.914C465.71 415.809 465.77 415.72 465.736 415.635C465.721 415.598 465.689 415.566 465.631 415.531C465.544 415.691 465.399 415.821 465.228 415.896C465.069 415.963 464.474 416.166 464.094 415.27C464.057 415.18 464.028 415.099 464.01 414.969C463.923 414.85 463.828 414.769 463.767 414.795C463.715 414.818 463.651 414.861 463.689 415.044C463.749 415.328 463.86 415.74 463.932 416.053C464.019 416.415 463.993 416.734 463.689 416.862C463.28 417.033 462.94 416.587 462.674 415.954C462.352 415.189 462.398 414.795 462.709 414.664C462.935 414.568 463.283 414.896 463.457 415.143C463.378 414.76 463.419 414.606 463.544 414.551C463.686 414.49 463.894 414.716 464.002 414.838C464.016 414.534 464.187 414.273 464.486 414.142C464.967 413.945 465.391 414.218 465.599 414.711C465.736 415.035 465.727 415.276 465.678 415.418L465.681 415.412ZM463.491 416.63C463.651 416.563 463.735 416.366 463.651 416.027C463.613 415.87 463.57 415.676 463.486 415.383C463.187 414.963 462.958 414.87 462.798 414.937C462.595 415.021 462.572 415.38 462.822 415.972C463.016 416.43 463.309 416.705 463.491 416.627V416.63ZM464.614 414.435C464.3 414.568 464.06 414.879 464.231 415.282C464.399 415.682 464.787 415.725 465.104 415.592C465.417 415.459 465.657 415.148 465.489 414.748C465.318 414.345 464.93 414.299 464.614 414.432V414.435Z" fill="black"/>
<path d="M463.98 417.235L464.102 417.194C464.181 417.435 464.279 417.49 464.491 417.42L465.906 416.959C466.103 416.895 466.146 416.823 466.062 416.571L466.135 416.53L466.523 417.078L466.097 417.217C466.346 417.371 466.677 417.568 466.807 417.965C466.938 418.363 466.749 418.664 466.32 418.803L465.076 419.209C464.862 419.279 464.821 419.395 464.897 419.627L464.775 419.667L464.47 418.734L464.592 418.693C464.668 418.925 464.769 418.989 464.981 418.919L466.239 418.51C466.509 418.423 466.668 418.27 466.564 417.945C466.462 417.632 466.236 417.435 465.946 417.267L464.586 417.71C464.375 417.78 464.331 417.899 464.407 418.128L464.285 418.168L463.98 417.235Z" fill="black"/>
<path d="M469.286 422.8L466.285 424.575C466.024 424.711 465.958 424.871 466.001 425.137L465.877 425.158L465.665 423.882L465.79 423.862C465.845 424.192 465.911 424.337 466.065 424.311C466.106 424.305 466.155 424.285 466.21 424.256L466.999 423.789L466.746 422.278L465.972 422.128C465.871 422.113 465.792 422.104 465.732 422.116C465.552 422.145 465.526 422.299 465.581 422.632L465.456 422.652L465.273 421.556L465.398 421.536C465.445 421.812 465.526 421.901 466.01 421.983L469.121 422.542L469.283 422.8H469.286ZM468.915 422.676L466.903 422.304L467.138 423.711L468.915 422.676Z" fill="black"/>
<path d="M465.171 425.518L465.298 425.509C465.316 425.764 465.397 425.84 465.614 425.825L467.859 425.68C468.015 425.669 468.076 425.59 468.062 425.35L468.137 425.324L468.386 425.95L468.117 425.967C468.279 426.104 468.41 426.301 468.433 426.681C468.482 427.417 467.896 427.782 467.267 427.823C466.641 427.864 466.023 427.579 465.974 426.843C465.948 426.463 466.058 426.246 466.194 426.095L465.632 426.133C465.414 426.147 465.345 426.275 465.359 426.492L465.232 426.501L465.168 425.521L465.171 425.518ZM466.397 426.08C466.261 426.196 466.119 426.347 466.142 426.724C466.18 427.313 466.705 427.519 467.247 427.484C467.792 427.449 468.294 427.176 468.253 426.588C468.233 426.298 468.14 426.121 467.928 425.982L466.394 426.083L466.397 426.08Z" fill="black"/>
<path d="M466.056 428.328H466.184C466.181 428.534 466.245 428.668 466.442 428.671L468.005 428.697C468.182 428.697 468.24 428.65 468.246 428.389L468.321 428.366L468.559 429.013L467.927 429.001C468.19 429.32 468.544 429.717 468.541 430.054C468.541 430.201 468.414 430.317 468.298 430.315C468.182 430.312 468.066 430.193 468.069 430.045C468.069 429.877 468.211 429.845 468.211 429.726C468.211 429.578 467.953 429.259 467.744 428.995L466.436 428.975C466.239 428.972 466.17 429.047 466.167 429.311H466.039L466.056 428.328Z" fill="black"/>
<path d="M466.001 430.707L466.129 430.716C466.114 430.951 466.152 431.055 466.355 431.067L467.903 431.165C468.037 431.174 468.135 431.125 468.153 430.841L468.231 430.829L468.417 431.505L466.335 431.371C466.132 431.36 466.08 431.432 466.065 431.696L465.938 431.687L465.998 430.707H466.001ZM469.437 431.69C469.31 431.682 469.188 431.583 469.199 431.406C469.211 431.223 469.344 431.151 469.469 431.16C469.597 431.168 469.718 431.258 469.707 431.441C469.695 431.618 469.562 431.702 469.437 431.693V431.69Z" fill="black"/>
<path d="M465.904 432.139L466.032 432.154C466.006 432.403 466.093 432.499 466.304 432.519L469.012 432.806C469.163 432.823 469.259 432.757 469.285 432.496L469.357 432.484L469.52 433.165L466.269 432.82C466.058 432.797 465.951 432.89 465.924 433.142L465.797 433.128L465.901 432.136L465.904 432.139Z" fill="black"/>
<path d="M465.814 433.505L465.938 433.528C465.866 433.899 465.944 434.024 466.191 434.07L468.913 434.607C469.113 434.647 469.212 434.546 469.282 434.186L469.406 434.209L469.229 435.108L465.866 435.665L468.768 437.448L468.586 438.379L468.461 438.356C468.539 437.956 468.475 437.86 468.281 437.822L465.559 437.286C465.338 437.242 465.193 437.323 465.121 437.697L464.996 437.674L465.245 436.41L465.37 436.433C465.298 436.799 465.402 436.932 465.622 436.976L468.574 437.555L468.586 437.5L465.385 435.526L465.399 435.445L469.038 434.833L469.05 434.772L466.167 434.204C465.924 434.154 465.802 434.247 465.73 434.615L465.605 434.592L465.82 433.499L465.814 433.505Z" fill="black"/>
<path d="M464.323 440.301C464.219 440.156 464.146 440.029 464.204 439.837C464.271 439.62 464.445 439.626 464.616 439.678C464.488 439.414 464.422 439.139 464.543 438.744C464.688 438.272 465.004 438.135 465.32 438.234C465.752 438.367 465.926 438.976 465.77 440.037L466.115 440.145C466.408 440.235 466.646 440.153 466.735 439.863C466.849 439.495 466.793 439.315 466.573 439.153C466.477 439.081 466.396 438.996 466.434 438.875C466.474 438.747 466.573 438.704 466.704 438.744C466.947 438.82 467.043 439.286 466.843 439.924C466.712 440.348 466.402 440.553 465.979 440.423L464.63 440.005C464.485 439.959 464.364 439.939 464.34 440.017C464.32 440.081 464.32 440.153 464.384 440.275L464.323 440.304V440.301ZM465.639 439.994C465.77 439.318 465.671 438.692 465.233 438.556C465.016 438.489 464.801 438.605 464.712 438.895C464.601 439.249 464.627 439.455 464.761 439.721L465.642 439.994H465.639Z" fill="black"/>
<path d="M464.064 440.499L464.183 440.545C464.107 440.734 464.122 440.882 464.307 440.954L465.763 441.525C465.928 441.589 466.001 441.563 466.093 441.322H466.175V442.015L465.586 441.786C465.722 442.178 465.916 442.677 465.792 442.987C465.737 443.123 465.58 443.19 465.473 443.146C465.366 443.103 465.299 442.952 465.351 442.816C465.412 442.659 465.554 442.677 465.597 442.566C465.653 442.43 465.519 442.039 465.415 441.72L464.197 441.241C464.011 441.169 463.922 441.215 463.826 441.462L463.707 441.415L464.067 440.502L464.064 440.499Z" fill="black"/>
<path d="M462.737 444.92C462.537 444.569 462.384 444.187 462.604 443.728C462.874 443.169 463.57 442.951 464.167 443.236C464.9 443.589 465.127 444.352 464.848 444.929C464.689 445.265 464.309 445.59 464.025 445.454C463.92 445.404 463.88 445.3 463.932 445.19C464.01 445.025 464.152 445.083 464.297 445.077C464.506 445.065 464.657 445.025 464.787 444.752C464.961 444.39 464.755 443.891 464.112 443.581C463.529 443.299 462.993 443.383 462.746 443.897C462.613 444.172 462.604 444.427 462.81 444.871L462.735 444.92H462.737Z" fill="black"/>
<path d="M462.053 445.052L462.163 445.115C462.038 445.327 462.056 445.44 462.221 445.539L464.558 446.907C464.747 447.017 464.833 446.968 464.949 446.771L465.031 446.794L464.926 447.476L463.477 446.629C463.526 446.907 463.601 447.284 463.39 447.644C463.181 448 462.891 448.131 462.494 447.896L461.264 447.177C461.108 447.084 460.983 447.136 460.864 447.336L460.754 447.273L461.256 446.417L461.366 446.481C461.232 446.71 461.261 446.82 461.418 446.913L462.569 447.586C462.833 447.739 463.056 447.731 463.25 447.4C463.43 447.093 463.404 446.812 463.329 446.539L462.067 445.803C461.899 445.704 461.789 445.756 461.661 445.971L461.551 445.907L462.053 445.052Z" fill="black"/>
<path d="M460.275 448.36C460.147 448.276 460.077 448.122 460.188 447.963C460.295 447.804 460.463 447.809 460.588 447.896C460.71 447.978 460.776 448.128 460.669 448.288C460.562 448.447 460.399 448.444 460.278 448.36H460.275Z" fill="black"/>
<path d="M458.223 450.791C458.376 450.567 458.44 450.469 458.579 450.243L458.756 450.379C458.716 450.205 458.742 449.938 458.977 449.637C459.417 449.066 460.125 449.173 460.632 449.564C461.14 449.956 461.447 450.596 460.992 451.191C460.742 451.513 460.522 451.574 460.322 451.6L461.087 452.191C461.224 452.296 461.322 452.264 461.514 452.011L461.586 452.035L461.337 452.768L458.771 450.791C458.597 450.657 458.452 450.672 458.307 450.857L458.223 450.794V450.791ZM460.174 451.484C460.406 451.49 460.592 451.426 460.792 451.165C461.151 450.698 460.864 450.167 460.426 449.831C459.98 449.486 459.411 449.355 459.049 449.825C458.797 450.153 458.869 450.359 458.89 450.498L460.171 451.487L460.174 451.484Z" fill="black"/>
<path d="M458.627 452.22C457.975 451.623 457.456 451.75 457.128 452.11C456.861 452.403 456.775 452.739 456.838 453.142L456.746 453.154C456.653 452.765 456.656 452.362 457.044 451.936C457.523 451.414 458.221 451.405 458.787 451.924C459.309 452.403 459.413 453.119 458.938 453.638C458.482 454.134 457.882 454.148 457.325 453.638L458.624 452.217L458.627 452.22ZM457.656 453.493C458.146 453.899 458.543 453.89 458.851 453.551C459.143 453.232 459.1 452.696 458.732 452.316L457.656 453.49V453.493Z" fill="black"/>
<path d="M456.348 453.845C455.968 453.772 455.481 453.726 455.066 454.111C454.82 454.341 454.765 454.657 454.991 454.897C455.15 455.068 455.371 455.036 455.878 454.796C456.626 454.433 456.91 454.471 457.134 454.712C457.345 454.941 457.29 455.329 456.934 455.663C456.728 455.854 456.548 455.898 456.472 455.967C456.458 455.982 456.449 455.996 456.444 456.011L456.365 456.202L455.658 455.866L455.693 455.776C455.913 455.848 456.487 455.906 456.849 455.57C457.081 455.355 457.136 455.094 456.945 454.889C456.777 454.706 456.516 454.802 456.081 455.01C455.426 455.329 455.084 455.367 454.808 455.068C454.501 454.735 454.666 454.297 454.976 454.007C455.188 453.81 455.382 453.769 455.487 453.674C455.504 453.656 455.524 453.639 455.536 453.613L455.629 453.407L456.374 453.775L456.351 453.839L456.348 453.845Z" fill="black"/>
<path d="M453.972 455.005L454.053 455.104C453.873 455.252 453.821 455.353 453.951 455.51L454.937 456.71C455.021 456.812 455.126 456.852 455.346 456.67L455.407 456.719L455.042 457.316L453.716 455.704C453.586 455.548 453.499 455.559 453.296 455.727L453.215 455.629L453.975 455.005H453.972ZM455.598 458.189C455.517 458.091 455.508 457.934 455.645 457.821C455.787 457.705 455.929 457.751 456.01 457.85C456.091 457.948 456.109 458.099 455.966 458.215C455.83 458.328 455.677 458.288 455.595 458.189H455.598Z" fill="black"/>
<path d="M452.718 458.818C452.698 459.015 452.617 459.175 452.501 459.256C452.414 459.32 452.275 459.343 452.214 459.256C452.15 459.169 452.164 459.059 452.248 458.998C452.338 458.931 452.443 458.972 452.515 458.917C452.547 458.894 452.573 458.856 452.594 458.792C452.42 458.743 452.257 458.633 452.147 458.479C452.046 458.34 451.718 457.803 452.504 457.235C452.582 457.177 452.654 457.131 452.779 457.087C452.875 456.974 452.933 456.864 452.892 456.812C452.86 456.765 452.802 456.713 452.634 456.791C452.37 456.913 451.993 457.113 451.706 457.252C451.373 457.418 451.057 457.464 450.863 457.197C450.604 456.838 450.964 456.409 451.521 456.006C452.193 455.521 452.591 455.478 452.788 455.751C452.93 455.948 452.689 456.362 452.489 456.588C452.843 456.426 453.002 456.432 453.084 456.542C453.173 456.667 452.999 456.922 452.907 457.052C453.208 457 453.498 457.107 453.692 457.368C453.991 457.792 453.82 458.267 453.388 458.58C453.104 458.786 452.866 458.833 452.715 458.815L452.718 458.818ZM451.042 456.957C451.144 457.096 451.353 457.134 451.666 456.977C451.808 456.905 451.99 456.818 452.254 456.673C452.596 456.287 452.637 456.046 452.536 455.904C452.408 455.727 452.051 455.782 451.532 456.156C451.126 456.449 450.926 456.794 451.042 456.957ZM453.431 457.563C453.231 457.287 452.875 457.122 452.521 457.38C452.17 457.632 452.214 458.024 452.411 458.299C452.611 458.575 452.968 458.74 453.318 458.485C453.672 458.23 453.632 457.838 453.431 457.563Z" fill="black"/>
<path d="M450.554 457.572L450.621 457.682C450.404 457.813 450.372 457.92 450.488 458.111L451.25 459.387C451.357 459.567 451.436 459.59 451.665 459.454L451.72 459.515L451.27 460.013L451.041 459.628C450.946 459.903 450.827 460.271 450.47 460.486C450.111 460.7 449.777 460.587 449.545 460.199L448.873 459.077C448.757 458.885 448.635 458.868 448.426 458.996L448.359 458.885L449.203 458.381L449.27 458.491C449.061 458.616 449.02 458.729 449.136 458.92L449.815 460.057C449.96 460.3 450.145 460.422 450.438 460.248C450.722 460.077 450.862 459.816 450.96 459.497L450.227 458.271C450.111 458.079 449.986 458.065 449.78 458.189L449.713 458.079L450.557 457.575L450.554 457.572Z" fill="black"/>
<path d="M446.316 463.986L443.915 461.457C443.724 461.234 443.553 461.205 443.303 461.307L443.254 461.188L444.448 460.695L444.498 460.814C444.188 460.941 444.063 461.037 444.121 461.182C444.135 461.22 444.164 461.263 444.208 461.312L444.84 461.976L446.258 461.394L446.232 460.608C446.223 460.506 446.214 460.428 446.191 460.373C446.122 460.205 445.965 460.213 445.655 460.341L445.605 460.222L446.632 459.799L446.681 459.918C446.423 460.025 446.353 460.124 446.382 460.614L446.533 463.771L446.319 463.986H446.316ZM446.353 463.597L446.266 461.553L444.947 462.095L446.353 463.597Z" fill="black"/>
<path d="M442.759 460.577L442.797 460.698C442.553 460.771 442.495 460.866 442.559 461.078L443.2 463.235C443.246 463.386 443.336 463.43 443.565 463.36L443.606 463.427L443.049 463.809L442.971 463.551C442.872 463.74 442.71 463.911 442.345 464.018C441.637 464.23 441.153 463.74 440.973 463.137C440.793 462.537 440.935 461.867 441.643 461.658C442.008 461.548 442.243 461.606 442.423 461.707L442.26 461.165C442.2 460.956 442.06 460.916 441.849 460.98L441.814 460.858L442.756 460.577H442.759ZM442.484 461.896C442.342 461.789 442.159 461.684 441.799 461.791C441.234 461.96 441.15 462.516 441.304 463.038C441.46 463.56 441.837 463.989 442.402 463.821C442.681 463.737 442.835 463.609 442.922 463.369L442.484 461.896Z" fill="black"/>
<path d="M440.204 462.064L440.23 462.188C440.03 462.232 439.917 462.325 439.957 462.519L440.288 464.047C440.325 464.221 440.386 464.264 440.642 464.209L440.682 464.279L440.108 464.659L439.975 464.041C439.722 464.372 439.415 464.807 439.087 464.879C438.942 464.911 438.803 464.815 438.777 464.702C438.754 464.589 438.841 464.447 438.986 464.418C439.151 464.383 439.215 464.511 439.328 464.485C439.473 464.453 439.725 464.128 439.934 463.864L439.659 462.586C439.618 462.391 439.528 462.342 439.27 462.4L439.244 462.275L440.204 462.07V462.064Z" fill="black"/>
<path d="M437.885 462.537L437.906 462.662C437.674 462.7 437.581 462.761 437.613 462.961L437.856 464.495C437.877 464.625 437.946 464.712 438.23 464.669L438.257 464.741L437.639 465.072L437.311 463.01C437.279 462.81 437.195 462.775 436.934 462.819L436.914 462.694L437.885 462.54V462.537ZM437.68 466.104C437.659 465.979 437.729 465.837 437.906 465.811C438.085 465.782 438.187 465.895 438.207 466.02C438.228 466.144 438.167 466.284 437.987 466.313C437.81 466.342 437.7 466.229 437.68 466.104Z" fill="black"/>
<path d="M436.458 462.755L436.473 462.883C436.227 462.912 436.151 463.019 436.174 463.231L436.49 465.936C436.508 466.087 436.595 466.165 436.853 466.136L436.882 466.206L436.253 466.516L435.876 463.269C435.852 463.057 435.739 462.973 435.487 463.002L435.473 462.874L436.464 462.758L436.458 462.755Z" fill="black"/>
<path d="M435.103 462.968V463.096C434.729 463.107 434.628 463.212 434.634 463.461L434.712 466.233C434.718 466.436 434.836 466.508 435.202 466.5V466.627L434.288 466.653L433.001 463.499L431.902 466.723L430.957 466.749V466.622C431.36 466.61 431.438 466.526 431.432 466.329L431.354 463.557C431.348 463.333 431.238 463.209 430.855 463.22V463.093L432.14 463.055V463.183C431.772 463.194 431.664 463.325 431.67 463.548L431.757 466.555H431.812L433.03 462.994H433.111L434.512 466.404H434.573L434.489 463.467C434.48 463.217 434.367 463.119 433.99 463.131V463.003L435.1 462.971L435.103 462.968Z" fill="black"/>
<path d="M428.147 463.017C428.266 462.884 428.374 462.785 428.574 462.8C428.803 462.817 428.835 462.988 428.82 463.165C429.049 462.982 429.304 462.855 429.713 462.887C430.206 462.924 430.409 463.2 430.383 463.53C430.348 463.983 429.794 464.287 428.727 464.368L428.698 464.728C428.675 465.032 428.806 465.247 429.11 465.27C429.496 465.299 429.655 465.206 429.768 464.954C429.818 464.847 429.881 464.748 430.009 464.757C430.142 464.769 430.206 464.853 430.194 464.992C430.174 465.247 429.742 465.441 429.075 465.392C428.635 465.357 428.362 465.102 428.397 464.661L428.504 463.255C428.516 463.104 428.51 462.98 428.429 462.974C428.362 462.968 428.29 462.982 428.185 463.072L428.145 463.017H428.147ZM428.739 464.232C429.426 464.209 430.015 463.974 430.049 463.516C430.067 463.287 429.907 463.107 429.603 463.084C429.232 463.055 429.038 463.127 428.809 463.313L428.739 464.232Z" fill="black"/>
<path d="M427.898 462.812L427.878 462.936C427.678 462.907 427.536 462.951 427.507 463.148L427.275 464.693C427.249 464.87 427.289 464.934 427.547 464.972L427.562 465.05L426.889 465.201L426.982 464.577C426.631 464.798 426.188 465.096 425.857 465.047C425.712 465.024 425.613 464.888 425.631 464.772C425.648 464.656 425.782 464.557 425.927 464.58C426.092 464.606 426.106 464.746 426.222 464.763C426.367 464.786 426.721 464.569 427.008 464.398L427.202 463.104C427.231 462.907 427.168 462.832 426.904 462.791L426.924 462.667L427.895 462.812H427.898Z" fill="black"/>
<path d="M423.291 462.509C423.586 462.236 423.929 462.002 424.424 462.112C425.03 462.248 425.399 462.88 425.254 463.527C425.074 464.321 424.381 464.713 423.755 464.571C423.392 464.489 422.989 464.194 423.059 463.886C423.085 463.773 423.178 463.709 423.296 463.735C423.476 463.776 423.45 463.927 423.488 464.066C423.546 464.266 423.621 464.405 423.914 464.469C424.305 464.559 424.746 464.246 424.906 463.55C425.048 462.921 424.851 462.416 424.294 462.289C423.995 462.222 423.746 462.268 423.36 462.567L423.296 462.506L423.291 462.509Z" fill="black"/>
<path d="M423.003 461.868L422.965 461.989C422.733 461.917 422.623 461.957 422.565 462.14L421.753 464.724C421.686 464.932 421.753 465.008 421.973 465.074L421.968 465.158L421.28 465.208L421.785 463.604C421.527 463.715 421.173 463.871 420.773 463.746C420.379 463.622 420.187 463.369 420.326 462.929L420.753 461.569C420.808 461.395 420.73 461.285 420.506 461.215L420.544 461.093L421.492 461.392L421.454 461.514C421.202 461.436 421.101 461.488 421.046 461.662L420.645 462.935C420.553 463.225 420.614 463.442 420.979 463.558C421.318 463.665 421.585 463.578 421.837 463.442L422.275 462.047C422.333 461.862 422.258 461.763 422.02 461.691L422.057 461.569L423.006 461.868H423.003Z" fill="black"/>
<path d="M419.394 460.874C419.449 460.732 419.582 460.631 419.762 460.7C419.942 460.77 419.971 460.935 419.916 461.077C419.863 461.214 419.733 461.312 419.553 461.243C419.373 461.173 419.342 461.013 419.394 460.877V460.874Z" fill="black"/>
<path d="M416.563 459.404C416.816 459.502 416.926 459.543 417.175 459.63L417.082 459.833C417.242 459.755 417.509 459.723 417.856 459.882C418.512 460.187 418.564 460.9 418.294 461.48C418.025 462.06 417.468 462.503 416.787 462.19C416.418 462.019 416.308 461.819 416.239 461.628L415.833 462.506C415.76 462.663 415.815 462.75 416.102 462.883L416.096 462.959L415.328 462.877L416.688 459.935C416.781 459.734 416.731 459.595 416.52 459.497L416.566 459.401L416.563 459.404ZM416.32 461.46C416.366 461.689 416.468 461.854 416.769 461.993C417.306 462.24 417.758 461.845 417.99 461.341C418.228 460.828 418.228 460.245 417.691 459.998C417.317 459.824 417.129 459.94 416.998 459.993L416.32 461.463V461.46Z" fill="black"/>
<path d="M415.264 460.122C415.702 459.351 415.464 458.875 415.041 458.635C414.696 458.437 414.351 458.429 413.968 458.58L413.936 458.493C414.296 458.316 414.69 458.229 415.189 458.516C415.803 458.867 415.969 459.545 415.586 460.215C415.235 460.83 414.559 461.09 413.951 460.743C413.368 460.409 413.217 459.826 413.591 459.171L415.264 460.125V460.122ZM413.809 459.458C413.519 460.026 413.617 460.409 414.014 460.638C414.391 460.853 414.905 460.693 415.192 460.25L413.806 459.461L413.809 459.458Z" fill="black"/>
<path d="M413.167 458.256C413.153 457.871 413.092 457.384 412.625 457.065C412.347 456.873 412.028 456.891 411.842 457.163C411.709 457.357 411.79 457.563 412.135 458.004C412.651 458.654 412.68 458.938 412.492 459.21C412.318 459.465 411.924 459.5 411.521 459.225C411.289 459.065 411.207 458.9 411.123 458.842C411.106 458.83 411.091 458.828 411.077 458.822L410.871 458.787L411.042 458.021L411.138 458.036C411.115 458.268 411.187 458.839 411.593 459.117C411.854 459.297 412.121 459.294 412.277 459.062C412.419 458.856 412.269 458.625 411.967 458.245C411.512 457.674 411.402 457.352 411.631 457.015C411.886 456.641 412.353 456.708 412.701 456.946C412.941 457.111 413.02 457.288 413.139 457.369C413.159 457.384 413.179 457.398 413.208 457.404L413.428 457.45L413.231 458.259L413.165 458.251L413.167 458.256Z" fill="black"/>
<path d="M408.773 458.492C408.851 458.391 409.002 458.347 409.141 458.457C409.286 458.57 409.271 458.721 409.193 458.82C409.115 458.921 408.973 458.97 408.828 458.857C408.686 458.747 408.691 458.591 408.77 458.492H408.773ZM411.518 456.201L411.44 456.303C411.255 456.158 411.147 456.132 411.023 456.294L410.069 457.521C409.987 457.625 409.973 457.735 410.196 457.912L410.161 457.982L409.497 457.756L410.779 456.106C410.904 455.943 410.872 455.862 410.663 455.7L410.741 455.598L411.518 456.201Z" fill="black"/>
<path d="M407.518 455.814C407.321 455.838 407.15 455.794 407.043 455.699C406.962 455.629 406.907 455.498 406.979 455.417C407.052 455.336 407.162 455.327 407.237 455.394C407.321 455.469 407.307 455.577 407.373 455.638C407.405 455.664 407.446 455.681 407.513 455.687C407.524 455.507 407.594 455.324 407.718 455.182C407.834 455.052 408.281 454.614 409.012 455.258C409.084 455.322 409.145 455.382 409.217 455.493C409.348 455.559 409.47 455.591 409.513 455.542C409.551 455.501 409.589 455.432 409.476 455.284C409.299 455.052 409.02 454.73 408.82 454.481C408.585 454.194 408.469 453.892 408.69 453.646C408.983 453.315 409.481 453.57 409.997 454.026C410.618 454.574 410.745 454.953 410.525 455.206C410.363 455.388 409.908 455.243 409.644 455.098C409.879 455.409 409.91 455.565 409.821 455.667C409.719 455.78 409.432 455.667 409.284 455.606C409.403 455.887 409.36 456.197 409.148 456.444C408.8 456.829 408.298 456.766 407.898 456.412C407.634 456.18 407.539 455.957 407.521 455.809L407.518 455.814ZM408.901 456.235C409.128 455.98 409.209 455.597 408.881 455.307C408.556 455.02 408.185 455.148 407.959 455.403C407.733 455.658 407.652 456.041 407.976 456.328C408.304 456.618 408.675 456.49 408.901 456.235ZM408.965 453.77C408.849 453.901 408.861 454.112 409.081 454.382C409.183 454.507 409.307 454.663 409.51 454.89C409.963 455.139 410.206 455.124 410.322 454.994C410.467 454.829 410.334 454.495 409.855 454.072C409.481 453.741 409.099 453.62 408.968 453.77H408.965Z" fill="black"/>
<path d="M408.256 453.431L408.163 453.518C407.986 453.335 407.876 453.326 407.714 453.483L406.638 454.509C406.487 454.654 406.481 454.736 406.664 454.927L406.615 454.994L406.029 454.666L406.354 454.356C406.064 454.324 405.678 454.289 405.391 453.988C405.101 453.686 405.139 453.332 405.467 453.022L406.412 452.117C406.574 451.964 406.563 451.839 406.394 451.662L406.487 451.575L407.166 452.286L407.073 452.373C406.905 452.196 406.786 452.181 406.623 452.338L405.667 453.251C405.461 453.448 405.382 453.654 405.62 453.901C405.849 454.141 406.136 454.22 406.47 454.243L407.505 453.254C407.667 453.1 407.653 452.973 407.487 452.799L407.58 452.712L408.259 453.422L408.256 453.431Z" fill="black"/>
<path d="M401.062 450.72L402.996 447.818C403.173 447.583 403.162 447.409 403.008 447.189L403.112 447.116L403.858 448.172L403.753 448.244C403.559 447.969 403.437 447.867 403.31 447.96C403.278 447.983 403.24 448.021 403.202 448.073L402.695 448.836L403.576 450.088L404.339 449.888C404.435 449.856 404.51 449.83 404.559 449.795C404.71 449.691 404.667 449.54 404.472 449.265L404.577 449.192L405.217 450.1L405.113 450.172C404.951 449.943 404.838 449.9 404.371 450.036L401.326 450.883L401.068 450.72H401.062ZM401.451 450.671L403.426 450.132L402.605 448.966L401.451 450.671Z" fill="black"/>
<path d="M403.597 446.49L403.486 446.553C403.362 446.333 403.254 446.298 403.063 446.406L401.103 447.513C400.967 447.591 400.946 447.69 401.062 447.899L401.004 447.954L400.509 447.499L400.743 447.365C400.538 447.313 400.335 447.191 400.149 446.861C399.787 446.217 400.152 445.637 400.703 445.327C401.248 445.02 401.932 445.008 402.295 445.649C402.483 445.982 402.477 446.223 402.419 446.42L402.912 446.142C403.104 446.034 403.109 445.889 403.002 445.701L403.112 445.637L403.597 446.493V446.49ZM402.248 446.516C402.321 446.353 402.382 446.153 402.199 445.826C401.909 445.312 401.347 445.353 400.874 445.623C400.401 445.892 400.065 446.353 400.355 446.869C400.497 447.122 400.659 447.241 400.912 447.275L402.251 446.519L402.248 446.516Z" fill="black"/>
<path d="M401.579 444.333L401.463 444.388C401.376 444.203 401.26 444.113 401.081 444.197L399.666 444.861C399.503 444.936 399.474 445.006 399.584 445.241L399.526 445.296L399.028 444.82L399.599 444.553C399.222 444.382 398.726 444.179 398.584 443.875C398.52 443.742 398.584 443.582 398.688 443.533C398.796 443.483 398.949 443.539 399.013 443.672C399.086 443.823 398.976 443.915 399.025 444.02C399.089 444.153 399.46 444.327 399.764 444.472L400.95 443.918C401.13 443.834 401.156 443.736 401.046 443.498L401.162 443.443L401.579 444.333Z" fill="black"/>
<path d="M397.07 442.774C397.189 442.728 397.34 442.765 397.406 442.931C397.476 443.102 397.386 443.223 397.27 443.27C397.151 443.316 397.003 443.29 396.934 443.119C396.867 442.954 396.951 442.82 397.07 442.774ZM400.593 442.177L400.474 442.223C400.387 442.006 400.306 441.927 400.117 442.006L398.676 442.586C398.555 442.635 398.485 442.722 398.592 442.989L398.528 443.032L398.067 442.504L400.001 441.724C400.19 441.649 400.204 441.559 400.106 441.316L400.225 441.269L400.593 442.18V442.177Z" fill="black"/>
<path d="M400.069 440.841L399.95 440.884C399.866 440.649 399.747 440.6 399.544 440.672L396.978 441.58C396.833 441.632 396.778 441.731 396.865 441.977L396.804 442.021L396.363 441.476L399.443 440.385C399.646 440.313 399.701 440.185 399.617 439.945L399.735 439.901L400.069 440.841Z" fill="black"/>
<path d="M399.555 439.566L399.43 439.598C399.337 439.233 399.21 439.155 398.969 439.219L396.284 439.911C396.087 439.961 396.043 440.094 396.133 440.451L396.011 440.483L395.782 439.595L398.575 437.641L395.188 437.285L394.953 436.368L395.075 436.336C395.176 436.731 395.275 436.789 395.469 436.739L398.154 436.046C398.372 435.991 398.467 435.855 398.372 435.487L398.493 435.455L398.815 436.702L398.693 436.734C398.601 436.374 398.45 436.299 398.232 436.354L395.318 437.105L395.333 437.16L399.073 437.557L399.094 437.635L396.078 439.758L396.093 439.816L398.937 439.082C399.178 439.021 399.25 438.885 399.154 438.523L399.279 438.491L399.558 439.569L399.555 439.566Z" fill="black"/>
<path d="M397.973 432.793C398.13 432.877 398.249 432.964 398.278 433.158C398.31 433.384 398.15 433.454 397.976 433.48C398.203 433.662 398.385 433.883 398.443 434.292C398.516 434.779 398.29 435.04 397.962 435.086C397.515 435.153 397.095 434.677 396.782 433.654L396.425 433.706C396.124 433.749 395.944 433.926 395.987 434.228C396.042 434.611 396.17 434.747 396.44 434.799C396.556 434.822 396.666 434.863 396.683 434.99C396.704 435.121 396.631 435.205 396.495 435.222C396.242 435.26 395.955 434.88 395.86 434.219C395.796 433.781 395.984 433.459 396.422 433.396L397.817 433.193C397.968 433.17 398.087 433.138 398.075 433.056C398.066 432.99 398.034 432.923 397.924 432.842L397.968 432.79L397.973 432.793ZM396.918 433.636C397.092 434.3 397.452 434.822 397.904 434.758C398.13 434.727 398.272 434.529 398.229 434.228C398.176 433.86 398.063 433.686 397.831 433.503L396.921 433.636H396.918Z" fill="black"/>
<path d="M398.115 432.503L397.987 432.512C397.973 432.309 397.898 432.181 397.7 432.196L396.143 432.309C395.967 432.32 395.914 432.375 395.932 432.636L395.856 432.668L395.561 432.048L396.19 432.001C395.897 431.705 395.508 431.34 395.485 431.007C395.474 430.859 395.587 430.734 395.706 430.725C395.824 430.717 395.946 430.824 395.958 430.972C395.969 431.14 395.836 431.184 395.845 431.302C395.856 431.45 396.143 431.746 396.375 431.99L397.68 431.894C397.877 431.879 397.938 431.798 397.921 431.534L398.048 431.526L398.118 432.506L398.115 432.503Z" fill="black"/>
<path d="M397.378 427.969C397.711 428.192 398.022 428.468 398.03 428.975C398.042 429.596 397.514 430.103 396.853 430.115C396.038 430.129 395.496 429.546 395.485 428.906C395.479 428.534 395.67 428.073 395.983 428.068C396.099 428.068 396.183 428.14 396.186 428.262C396.186 428.444 396.035 428.456 395.911 428.526C395.728 428.63 395.615 428.734 395.618 429.033C395.624 429.436 396.033 429.79 396.746 429.778C397.392 429.767 397.836 429.454 397.824 428.885C397.819 428.581 397.714 428.349 397.331 428.044L397.375 427.966L397.378 427.969Z" fill="black"/>
<path d="M397.961 427.524L397.833 427.513C397.854 427.269 397.79 427.174 397.596 427.156L394.896 426.939C394.679 426.921 394.621 427.003 394.603 427.232L394.519 427.246L394.316 426.585L395.992 426.718C395.827 426.489 395.595 426.182 395.63 425.764C395.662 425.353 395.868 425.109 396.329 425.147L397.749 425.26C397.932 425.274 398.022 425.176 398.039 424.941L398.167 424.95L398.089 425.938L397.961 425.927C397.981 425.663 397.909 425.576 397.723 425.562L396.395 425.454C396.091 425.431 395.894 425.535 395.862 425.918C395.833 426.275 395.978 426.515 396.163 426.73L397.619 426.846C397.813 426.861 397.891 426.765 397.912 426.518L398.039 426.53L397.961 427.519V427.524Z" fill="black"/>
<path d="M398.123 423.777C398.274 423.8 398.401 423.905 398.375 424.096C398.346 424.287 398.195 424.351 398.042 424.331C397.897 424.311 397.772 424.203 397.801 424.012C397.83 423.821 397.978 423.754 398.123 423.774V423.777Z" fill="black"/>
<path d="M398.923 420.696C398.882 420.963 398.868 421.079 398.839 421.345L398.618 421.299C398.729 421.438 398.821 421.69 398.743 422.065C398.595 422.772 397.911 422.981 397.282 422.85C396.652 422.717 396.099 422.273 396.252 421.54C396.336 421.142 396.507 420.989 396.679 420.879L395.733 420.679C395.565 420.644 395.493 420.716 395.426 421.024L395.351 421.035L395.258 420.267L398.43 420.934C398.644 420.98 398.769 420.902 398.818 420.673L398.923 420.696ZM396.864 420.916C396.652 421.012 396.513 421.148 396.444 421.473C396.322 422.05 396.809 422.404 397.354 422.517C397.908 422.633 398.476 422.502 398.598 421.925C398.682 421.522 398.528 421.366 398.45 421.25L396.867 420.916H396.864Z" fill="black"/>
<path d="M397.935 419.58C398.782 419.835 399.193 419.499 399.335 419.029C399.451 418.649 399.382 418.31 399.15 417.974L399.228 417.924C399.48 418.235 399.652 418.6 399.483 419.151C399.278 419.829 398.654 420.14 397.918 419.916C397.242 419.71 396.836 419.11 397.042 418.438C397.236 417.794 397.77 417.521 398.492 417.739L397.935 419.58ZM398.26 418.014C397.642 417.861 397.288 418.04 397.158 418.478C397.033 418.893 397.303 419.357 397.799 419.539L398.26 418.014Z" fill="black"/>
<path d="M399.286 417.135C399.66 417.036 400.118 416.868 400.327 416.34C400.449 416.027 400.365 415.72 400.057 415.598C399.84 415.511 399.654 415.636 399.301 416.07C398.782 416.72 398.512 416.81 398.205 416.688C397.915 416.575 397.796 416.198 397.976 415.746C398.077 415.485 398.222 415.369 398.26 415.273C398.268 415.256 398.268 415.238 398.268 415.221L398.257 415.015H399.04L399.046 415.108C398.817 415.137 398.271 415.334 398.092 415.792C397.976 416.085 398.037 416.346 398.297 416.447C398.529 416.54 398.721 416.34 399.025 415.963C399.48 415.392 399.77 415.212 400.15 415.36C400.571 415.525 400.611 415.995 400.455 416.389C400.347 416.659 400.191 416.778 400.139 416.911C400.13 416.934 400.121 416.958 400.121 416.987V417.213L399.292 417.201L399.286 417.135Z" fill="black"/>
<path d="M398.087 412.887C398.203 412.942 398.278 413.078 398.203 413.238C398.125 413.403 397.977 413.424 397.861 413.371C397.745 413.316 397.664 413.189 397.742 413.023C397.817 412.861 397.971 412.832 398.087 412.887ZM400.926 415.056L400.81 415.001C400.908 414.789 400.911 414.676 400.726 414.592L399.319 413.934C399.2 413.879 399.087 413.887 398.968 414.146L398.893 414.128L398.966 413.432L400.856 414.317C401.042 414.404 401.114 414.351 401.227 414.114L401.343 414.169L400.928 415.059L400.926 415.056Z" fill="black"/>
<path d="M400.416 411.075C400.349 410.89 400.355 410.71 400.422 410.585C400.474 410.493 400.587 410.409 400.683 410.461C400.779 410.513 400.81 410.617 400.761 410.707C400.706 410.806 400.599 410.814 400.555 410.896C400.535 410.93 400.529 410.974 400.538 411.044C400.718 411.015 400.909 411.044 401.074 411.133C401.225 411.218 401.753 411.557 401.286 412.409C401.24 412.493 401.193 412.569 401.1 412.661C401.063 412.804 401.06 412.928 401.118 412.96C401.167 412.986 401.242 413.009 401.361 412.867C401.547 412.644 401.799 412.299 401.999 412.05C402.228 411.757 402.495 411.577 402.785 411.737C403.174 411.948 403.031 412.493 402.704 413.096C402.307 413.824 401.964 414.033 401.672 413.871C401.457 413.755 401.498 413.276 401.582 412.986C401.332 413.285 401.184 413.349 401.066 413.285C400.932 413.212 400.979 412.905 401.005 412.748C400.755 412.925 400.445 412.954 400.158 412.801C399.706 412.548 399.656 412.044 399.912 411.577C400.08 411.27 400.274 411.125 400.416 411.075ZM400.312 412.516C400.61 412.679 401.002 412.673 401.213 412.29C401.422 411.91 401.213 411.577 400.915 411.415C400.616 411.252 400.225 411.258 400.016 411.638C399.807 412.021 400.013 412.354 400.312 412.519V412.516ZM402.727 412.035C402.576 411.951 402.37 412.009 402.156 412.285C402.057 412.409 401.933 412.569 401.756 412.815C401.611 413.311 401.68 413.546 401.834 413.63C402.025 413.734 402.324 413.531 402.631 412.969C402.872 412.531 402.904 412.131 402.73 412.035H402.727Z" fill="black"/>
<path d="M402.899 411.27L402.792 411.201C402.934 410.989 402.914 410.879 402.728 410.754L401.49 409.933C401.316 409.817 401.235 409.832 401.087 410.052L401.012 410.02L401.2 409.377L401.574 409.623C401.542 409.333 401.49 408.951 401.719 408.603C401.951 408.255 402.302 408.214 402.679 408.463L403.769 409.185C403.955 409.31 404.074 409.269 404.207 409.067L404.314 409.136L403.772 409.954L403.665 409.884C403.801 409.681 403.787 409.562 403.601 409.438L402.499 408.707C402.261 408.55 402.044 408.521 401.855 408.806C401.673 409.081 401.658 409.377 401.708 409.71L402.899 410.502C403.085 410.626 403.207 410.583 403.337 410.383L403.444 410.452L402.902 411.27H402.899Z" fill="black"/>
<path d="M403.957 403.658L407.213 404.902C407.483 405.021 407.648 404.974 407.831 404.771L407.926 404.855L407.062 405.815L406.967 405.731C407.193 405.482 407.262 405.34 407.146 405.235C407.117 405.209 407.071 405.183 407.013 405.157L406.158 404.829L405.131 405.966L405.494 406.665C405.546 406.752 405.589 406.818 405.633 406.859C405.769 406.981 405.905 406.905 406.129 406.656L406.224 406.74L405.482 407.564L405.386 407.479C405.575 407.271 405.592 407.152 405.355 406.726L403.855 403.942L403.957 403.655V403.658ZM404.09 404.026L405.053 405.833L406.007 404.774L404.09 404.026Z" fill="black"/>
<path d="M408.641 405.191L408.557 405.096C408.746 404.925 408.754 404.814 408.606 404.652L407.093 402.985C406.986 402.869 406.887 402.872 406.707 403.031L406.641 402.988L406.974 402.402L407.157 402.602C407.163 402.39 407.235 402.167 407.519 401.909C408.064 401.413 408.714 401.642 409.14 402.109C409.56 402.573 409.723 403.237 409.178 403.733C408.896 403.991 408.659 404.04 408.453 404.026L408.833 404.443C408.981 404.606 409.123 404.58 409.285 404.432L409.369 404.524L408.641 405.186V405.191ZM408.319 403.881C408.493 403.916 408.702 403.93 408.981 403.678C409.418 403.281 409.253 402.744 408.885 402.338C408.519 401.935 407.992 401.712 407.554 402.109C407.339 402.303 407.258 402.489 407.281 402.741L408.317 403.881H408.319Z" fill="black"/>
<path d="M410.298 402.745L410.22 402.644C410.379 402.519 410.443 402.385 410.321 402.229L409.361 400.997C409.251 400.857 409.179 400.843 408.973 401.002L408.906 400.959L409.26 400.367L409.649 400.866C409.733 400.46 409.82 399.932 410.083 399.727C410.199 399.637 410.368 399.66 410.44 399.753C410.513 399.845 410.492 400.008 410.376 400.101C410.243 400.205 410.13 400.118 410.04 400.191C409.924 400.28 409.837 400.683 409.765 401.011L410.568 402.043C410.689 402.2 410.791 402.206 411 402.043L411.078 402.145L410.304 402.748L410.298 402.745Z" fill="black"/>
<path d="M410.811 398.004C410.884 398.108 410.881 398.265 410.736 398.366C410.585 398.471 410.446 398.413 410.374 398.308C410.301 398.204 410.295 398.053 410.446 397.949C410.591 397.847 410.742 397.899 410.814 398.004H410.811ZM412.177 401.309L412.105 401.205C412.296 401.071 412.354 400.976 412.238 400.808L411.351 399.532C411.275 399.422 411.174 399.375 410.939 399.538L410.884 399.483L411.296 398.917L412.487 400.631C412.603 400.799 412.693 400.793 412.911 400.642L412.983 400.747L412.177 401.306V401.309Z" fill="black"/>
<path d="M413.368 400.494L413.299 400.386C413.51 400.253 413.531 400.125 413.417 399.946L411.959 397.643C411.878 397.516 411.768 397.481 411.547 397.62L411.492 397.571L411.927 397.02L413.676 399.78C413.789 399.96 413.928 399.989 414.142 399.853L414.212 399.96L413.368 400.494Z" fill="black"/>
<path d="M414.495 399.714L414.437 399.6C414.771 399.426 414.82 399.287 414.704 399.067L413.431 396.602C413.338 396.423 413.199 396.408 412.874 396.576L412.816 396.463L413.631 396.043L416.16 398.328L415.754 394.947L416.594 394.512L416.652 394.625C416.29 394.81 416.255 394.921 416.348 395.098L417.621 397.562C417.722 397.762 417.876 397.826 418.215 397.649L418.273 397.762L417.128 398.354L417.07 398.241C417.401 398.07 417.441 397.904 417.34 397.707L415.959 395.034L415.91 395.06L416.357 398.794L416.284 398.832L413.544 396.365L413.489 396.394L414.837 399.003C414.953 399.224 415.098 399.264 415.432 399.09L415.49 399.203L414.498 399.714H414.495Z" fill="black"/>
<path d="M420.742 396.66C420.693 396.831 420.638 396.967 420.452 397.04C420.238 397.124 420.136 396.982 420.069 396.817C419.942 397.078 419.768 397.304 419.382 397.454C418.921 397.634 418.62 397.472 418.501 397.165C418.338 396.741 418.707 396.228 419.632 395.694L419.501 395.358C419.391 395.074 419.179 394.938 418.895 395.048C418.536 395.187 418.431 395.344 418.44 395.616C418.44 395.735 418.428 395.851 418.309 395.897C418.185 395.947 418.089 395.897 418.04 395.767C417.947 395.529 418.254 395.167 418.875 394.923C419.286 394.764 419.643 394.877 419.803 395.289L420.313 396.602C420.368 396.744 420.426 396.851 420.501 396.822C420.562 396.799 420.623 396.753 420.678 396.628L420.739 396.66H420.742ZM419.687 395.819C419.078 396.138 418.649 396.605 418.814 397.031C418.898 397.246 419.118 397.339 419.402 397.228C419.748 397.095 419.892 396.944 420.017 396.677L419.684 395.819H419.687Z" fill="black"/>
<path d="M421.066 396.731L421.029 396.61C421.223 396.549 421.33 396.447 421.272 396.259L420.814 394.766C420.762 394.594 420.698 394.557 420.449 394.632L420.402 394.565L420.942 394.139L421.127 394.742C421.35 394.391 421.62 393.93 421.939 393.832C422.081 393.788 422.229 393.872 422.261 393.983C422.293 394.093 422.217 394.241 422.075 394.284C421.916 394.333 421.84 394.212 421.727 394.247C421.585 394.29 421.362 394.635 421.177 394.916L421.559 396.166C421.617 396.354 421.71 396.395 421.962 396.32L422 396.441L421.061 396.728L421.066 396.731Z" fill="black"/>
<path d="M425.339 395.023C425.188 395.397 424.982 395.757 424.486 395.87C423.88 396.006 423.274 395.598 423.129 394.951C422.95 394.157 423.408 393.504 424.031 393.362C424.393 393.281 424.883 393.371 424.953 393.678C424.979 393.791 424.924 393.89 424.802 393.916C424.623 393.956 424.579 393.809 424.486 393.701C424.347 393.545 424.219 393.455 423.93 393.522C423.538 393.611 423.274 394.084 423.431 394.777C423.573 395.406 423.97 395.777 424.527 395.65C424.825 395.583 425.031 395.432 425.249 394.994L425.333 395.023H425.339Z" fill="black"/>
<path d="M425.878 395.478L425.86 395.353C426.101 395.319 426.182 395.234 426.156 395.043L425.773 392.361C425.741 392.144 425.649 392.106 425.423 392.138L425.391 392.06L425.991 391.717L426.229 393.382C426.414 393.17 426.666 392.877 427.078 392.819C427.487 392.761 427.768 392.906 427.835 393.364L428.035 394.776C428.061 394.959 428.177 395.023 428.409 394.991L428.426 395.116L427.443 395.255L427.426 395.13C427.687 395.092 427.757 395 427.731 394.82L427.542 393.501C427.499 393.199 427.351 393.028 426.974 393.083C426.62 393.132 426.417 393.327 426.249 393.556L426.455 395.003C426.481 395.194 426.594 395.249 426.84 395.214L426.858 395.339L425.875 395.478H425.878Z" fill="black"/>
<path d="M431.996 399.619V458.378" stroke="black" stroke-width="0.362437" stroke-miterlimit="10"/>
<path d="M431.996 399.619V458.378" stroke="black" stroke-width="0.362437" stroke-miterlimit="10"/>
<path d="M424.395 400.62L439.602 457.378" stroke="black" stroke-width="0.362437" stroke-miterlimit="10"/>
<path d="M417.309 403.554L446.689 454.443" stroke="black" stroke-width="0.362437" stroke-miterlimit="10"/>
<path d="M411.219 408.223L452.769 449.773" stroke="black" stroke-width="0.362437" stroke-miterlimit="10"/>
<path d="M406.555 414.308L457.444 443.689" stroke="black" stroke-width="0.362437" stroke-miterlimit="10"/>
<path d="M403.621 421.394L460.379 436.602" stroke="black" stroke-width="0.362437" stroke-miterlimit="10"/>
<path d="M402.617 428.997H461.375" stroke="black" stroke-width="0.362437" stroke-miterlimit="10"/>
<path d="M403.621 436.602L460.379 421.394" stroke="black" stroke-width="0.362437" stroke-miterlimit="10"/>
<path d="M406.555 443.689L457.444 414.308" stroke="black" stroke-width="0.362437" stroke-miterlimit="10"/>
<path d="M411.219 449.773L452.769 408.223" stroke="black" stroke-width="0.362437" stroke-miterlimit="10"/>
<path d="M417.309 454.443L446.689 403.554" stroke="black" stroke-width="0.362437" stroke-miterlimit="10"/>
<path d="M424.395 457.378L439.602 400.62" stroke="black" stroke-width="0.362437" stroke-miterlimit="10"/>
</g>
<rect x="392.5" y="389.5" width="79" height="79" rx="39.5" stroke="black"/>
<defs>
<clipPath id="clip0_1089_22803">
<rect x="26" y="100" width="80" height="80" rx="40" fill="white"/>
</clipPath>
<clipPath id="clip1_1089_22803">
<rect x="176" y="100" width="80" height="80" rx="40" fill="white"/>
</clipPath>
<clipPath id="clip2_1089_22803">
<rect x="345" y="389" width="80" height="80" rx="40" fill="white"/>
</clipPath>
<clipPath id="clip3_1089_22803">
<rect x="392" y="389" width="80" height="80" rx="40" fill="white"/>
</clipPath>
</defs>
</svg>
