<svg width="568" height="568" viewBox="0 0 568 568" fill="none" xmlns="http://www.w3.org/2000/svg">
<path d="M528.5 375C528.5 376.844 527.684 378.685 526.047 380.511C524.408 382.34 521.967 384.129 518.782 385.848C512.413 389.287 503.163 392.399 491.691 395.019C468.755 400.256 437.044 403.5 402 403.5C366.956 403.5 335.245 400.256 312.309 395.019C300.837 392.399 291.587 389.287 285.218 385.848C282.033 384.129 279.592 382.34 277.953 380.511C276.316 378.685 275.5 376.844 275.5 375C275.5 373.156 276.316 371.315 277.953 369.489C279.592 367.66 282.033 365.871 285.218 364.152C291.587 360.713 300.837 357.601 312.309 354.981C335.245 349.744 366.956 346.5 402 346.5C437.044 346.5 468.755 349.744 491.691 354.981C503.163 357.601 512.413 360.713 518.782 364.152C521.967 365.871 524.408 367.66 526.047 369.489C527.684 371.315 528.5 373.156 528.5 375Z" fill="white" stroke="black"/>
<rect x="330.5" y="314.5" width="64" height="64" fill="#D2FF52"/>
<rect x="330.5" y="314.5" width="64" height="64" stroke="black"/>
<rect x="330.5" y="250.5" width="64" height="64" fill="white"/>
<rect x="330.5" y="250.5" width="64" height="64" stroke="black"/>
<rect x="406.5" y="186.5" width="64" height="64" rx="32" fill="white"/>
<rect x="406.5" y="186.5" width="64" height="64" rx="32" stroke="black"/>
<g opacity="0.2">
<rect x="83.5" y="393.5" width="50" height="50" rx="25" fill="#D2FF52"/>
<rect x="83.5" y="393.5" width="50" height="50" rx="25" stroke="black"/>
</g>
<rect x="406.5" y="250.5" width="64" height="64" fill="black"/>
<rect x="406.5" y="250.5" width="64" height="64" stroke="black"/>
<rect x="184.5" y="139.5" width="24" height="24" fill="#1C46F5"/>
<rect x="184.5" y="139.5" width="24" height="24" stroke="black"/>
<g opacity="0.2">
<rect x="154.5" y="347.5" width="24" height="24" fill="black"/>
<rect x="154.5" y="347.5" width="24" height="24" stroke="black"/>
</g>
<rect x="406.5" y="122.5" width="64" height="64" fill="#D2FF52"/>
<rect x="406.5" y="122.5" width="64" height="64" stroke="black"/>
<rect x="58.5" y="160.5" width="191" height="192" stroke="black" stroke-dasharray="3 3"/>
<g clip-path="url(#clip0_1089_23013)">
<path d="M414.166 310.773H397.93V316.229H414.166V310.773Z" fill="#1C46F5"/>
<path d="M446.642 310.773H430.406V316.229H446.642V310.773Z" fill="#1C46F5"/>
<path d="M479.111 310.773H462.875V316.229H479.111V310.773Z" fill="#1C46F5"/>
<path d="M430.404 310.773H414.168V316.229H430.404V310.773Z" fill="#92C8E9"/>
<path d="M462.873 310.773H446.637V316.229H462.873V310.773Z" fill="#92C8E9"/>
<path d="M414.166 316.227H397.93V321.682H414.166V316.227Z" fill="#92C8E9"/>
<path d="M446.642 316.227H430.406V321.682H446.642V316.227Z" fill="#92C8E9"/>
<path d="M479.111 316.227H462.875V321.682H479.111V316.227Z" fill="#92C8E9"/>
<path d="M430.404 316.227H414.168V321.682H430.404V316.227Z" fill="#1C46F5"/>
<path d="M462.873 316.227H446.637V321.682H462.873V316.227Z" fill="#1C46F5"/>
<path d="M414.166 321.688H397.93V327.143H414.166V321.688Z" fill="#1C46F5"/>
<path d="M446.642 321.688H430.406V327.143H446.642V321.688Z" fill="#1C46F5"/>
<path d="M479.111 321.688H462.875V327.143H479.111V321.688Z" fill="#1C46F5"/>
<path d="M430.404 321.688H414.168V327.143H430.404V321.688Z" fill="#92C8E9"/>
<path d="M462.873 321.688H446.637V327.143H462.873V321.688Z" fill="#92C8E9"/>
<path d="M414.166 327.145H397.93V332.6H414.166V327.145Z" fill="#92C8E9"/>
<path d="M446.642 327.145H430.406V332.6H446.642V327.145Z" fill="#92C8E9"/>
<path d="M479.111 327.145H462.875V332.6H479.111V327.145Z" fill="#92C8E9"/>
<path d="M430.404 327.145H414.168V332.6H430.404V327.145Z" fill="#1C46F5"/>
<path d="M462.873 327.145H446.637V332.6H462.873V327.145Z" fill="#1C46F5"/>
<path d="M414.166 332.598H397.93V338.053H414.166V332.598Z" fill="#1C46F5"/>
<path d="M446.642 332.598H430.406V338.053H446.642V332.598Z" fill="#1C46F5"/>
<path d="M479.111 332.598H462.875V338.053H479.111V332.598Z" fill="#1C46F5"/>
<path d="M430.404 332.598H414.168V338.053H430.404V332.598Z" fill="#92C8E9"/>
<path d="M462.873 332.598H446.637V338.053H462.873V332.598Z" fill="#92C8E9"/>
<path d="M414.166 338.055H397.93V343.51H414.166V338.055Z" fill="#92C8E9"/>
<path d="M446.642 338.055H430.406V343.51H446.642V338.055Z" fill="#92C8E9"/>
<path d="M479.111 338.055H462.875V343.51H479.111V338.055Z" fill="#92C8E9"/>
<path d="M430.404 338.055H414.168V343.51H430.404V338.055Z" fill="#1C46F5"/>
<path d="M462.873 338.055H446.637V343.51H462.873V338.055Z" fill="#1C46F5"/>
<path d="M414.166 343.512H397.93V348.967H414.166V343.512Z" fill="#1C46F5"/>
<path d="M446.642 343.512H430.406V348.967H446.642V343.512Z" fill="#1C46F5"/>
<path d="M479.111 343.512H462.875V348.967H479.111V343.512Z" fill="#1C46F5"/>
<path d="M430.404 343.512H414.168V348.967H430.404V343.512Z" fill="#92C8E9"/>
<path d="M462.873 343.512H446.637V348.967H462.873V343.512Z" fill="#92C8E9"/>
<path d="M414.166 348.969H397.93V354.425H414.166V348.969Z" fill="#92C8E9"/>
<path d="M446.642 348.969H430.406V354.425H446.642V348.969Z" fill="#92C8E9"/>
<path d="M479.111 348.969H462.875V354.425H479.111V348.969Z" fill="#92C8E9"/>
<path d="M430.404 348.969H414.168V354.425H430.404V348.969Z" fill="#1C46F5"/>
<path d="M462.873 348.969H446.637V354.425H462.873V348.969Z" fill="#1C46F5"/>
<path d="M414.166 354.426H397.93V359.882H414.166V354.426Z" fill="#1C46F5"/>
<path d="M446.642 354.426H430.406V359.882H446.642V354.426Z" fill="#1C46F5"/>
<path d="M479.111 354.426H462.875V359.882H479.111V354.426Z" fill="#1C46F5"/>
<path d="M430.404 354.426H414.168V359.882H430.404V354.426Z" fill="#92C8E9"/>
<path d="M462.873 354.426H446.637V359.882H462.873V354.426Z" fill="#92C8E9"/>
<path d="M414.166 359.883H397.93V365.339H414.166V359.883Z" fill="#92C8E9"/>
<path d="M446.642 359.883H430.406V365.339H446.642V359.883Z" fill="#92C8E9"/>
<path d="M479.111 359.883H462.875V365.339H479.111V359.883Z" fill="#92C8E9"/>
<path d="M430.404 359.883H414.168V365.339H430.404V359.883Z" fill="#1C46F5"/>
<path d="M462.873 359.883H446.637V365.339H462.873V359.883Z" fill="#1C46F5"/>
<path d="M414.166 365.336H397.93V370.792H414.166V365.336Z" fill="#1C46F5"/>
<path d="M446.642 365.336H430.406V370.792H446.642V365.336Z" fill="#1C46F5"/>
<path d="M479.111 365.336H462.875V370.792H479.111V365.336Z" fill="#1C46F5"/>
<path d="M430.404 365.336H414.168V370.792H430.404V365.336Z" fill="#92C8E9"/>
<path d="M462.873 365.336H446.637V370.792H462.873V365.336Z" fill="#92C8E9"/>
<path d="M414.166 370.793H397.93V376.249H414.166V370.793Z" fill="#92C8E9"/>
<path d="M446.642 370.793H430.406V376.249H446.642V370.793Z" fill="#92C8E9"/>
<path d="M479.111 370.793H462.875V376.249H479.111V370.793Z" fill="#92C8E9"/>
<path d="M430.404 370.793H414.168V376.249H430.404V370.793Z" fill="#1C46F5"/>
<path d="M462.873 370.793H446.637V376.249H462.873V370.793Z" fill="#1C46F5"/>
<path d="M414.166 376.25H397.93V381.706H414.166V376.25Z" fill="#1C46F5"/>
<path d="M446.642 376.25H430.406V381.706H446.642V376.25Z" fill="#1C46F5"/>
<path d="M479.111 376.25H462.875V381.706H479.111V376.25Z" fill="#1C46F5"/>
<path d="M430.404 376.25H414.168V381.706H430.404V376.25Z" fill="#92C8E9"/>
<path d="M462.873 376.25H446.637V381.706H462.873V376.25Z" fill="#92C8E9"/>
</g>
<rect x="406.5" y="314.5" width="64" height="64" stroke="black"/>
<defs>
<clipPath id="clip0_1089_23013">
<rect x="406" y="314" width="65" height="65" fill="white"/>
</clipPath>
</defs>
</svg>
