<svg width="568" height="568" viewBox="0 0 568 568" fill="none" xmlns="http://www.w3.org/2000/svg">
<line y1="180.5" x2="568" y2="180.5" stroke="black"/>
<rect x="129.5" y="302.5" width="20" height="20" fill="black"/>
<rect x="129.5" y="302.5" width="20" height="20" stroke="black"/>
<g opacity="0.2">
<rect x="60.5" y="418.5" width="20" height="20" fill="white"/>
<rect x="60.5" y="418.5" width="20" height="20" stroke="black"/>
</g>
<g opacity="0.6">
<rect x="198.5" y="345.5" width="20" height="20" fill="black"/>
<rect x="198.5" y="345.5" width="20" height="20" stroke="black"/>
</g>
<rect x="370.5" y="169.5" width="20" height="20" fill="black"/>
<rect x="370.5" y="169.5" width="20" height="20" stroke="black"/>
<rect x="40.5" y="141.5" width="79" height="79" rx="39.5" fill="white"/>
<rect x="40.5" y="141.5" width="79" height="79" rx="39.5" stroke="black"/>
<rect x="258.5" y="264.5" width="25" height="25" rx="12.5" fill="white"/>
<rect x="258.5" y="264.5" width="25" height="25" rx="12.5" stroke="black"/>
<g opacity="0.3">
<rect x="400.5" y="382.5" width="25" height="25" rx="12.5" fill="white"/>
<rect x="400.5" y="382.5" width="25" height="25" rx="12.5" stroke="black"/>
</g>
<g clip-path="url(#clip0_1089_22668)">
<g clip-path="url(#clip1_1089_22668)">
<path d="M486 219.998C508.091 219.998 526 202.09 526 179.998C526 157.907 508.091 139.998 486 139.998C463.909 139.998 446 157.907 446 179.998C446 202.09 463.909 219.998 486 219.998Z" fill="#D2FF52"/>
<path d="M474.333 197C479.488 197 483.667 189.165 483.667 179.5C483.667 169.835 479.488 162 474.333 162C469.179 162 465 169.835 465 179.5C465 189.165 469.179 197 474.333 197Z" fill="white"/>
<path d="M470.25 185.333C473.149 185.333 475.5 182.395 475.5 178.771C475.5 175.146 473.149 172.208 470.25 172.208C467.351 172.208 465 175.146 465 178.771C465 182.395 467.351 185.333 470.25 185.333Z" fill="black"/>
<path d="M467.335 178.042C467.979 178.042 468.501 177.389 468.501 176.583C468.501 175.778 467.979 175.125 467.335 175.125C466.69 175.125 466.168 175.778 466.168 176.583C466.168 177.389 466.69 178.042 467.335 178.042Z" fill="white"/>
<path d="M497.665 197C502.82 197 506.999 189.165 506.999 179.5C506.999 169.835 502.82 162 497.665 162C492.511 162 488.332 169.835 488.332 179.5C488.332 189.165 492.511 197 497.665 197Z" fill="white"/>
<path d="M493.582 185.333C496.482 185.333 498.832 182.395 498.832 178.771C498.832 175.146 496.482 172.208 493.582 172.208C490.683 172.208 488.332 175.146 488.332 178.771C488.332 182.395 490.683 185.333 493.582 185.333Z" fill="black"/>
<path d="M490.667 178.042C491.311 178.042 491.833 177.389 491.833 176.583C491.833 175.778 491.311 175.125 490.667 175.125C490.022 175.125 489.5 175.778 489.5 176.583C489.5 177.389 490.022 178.042 490.667 178.042Z" fill="white"/>
</g>
<rect x="446.5" y="140.5" width="79" height="79" rx="39.5" stroke="black"/>
</g>
<rect x="446.5" y="140.5" width="79" height="79" rx="39.5" stroke="black"/>
<g clip-path="url(#clip2_1089_22668)">
<mask id="mask0_1089_22668" style="mask-type:luminance" maskUnits="userSpaceOnUse" x="73" y="140" width="80" height="81">
<path d="M113.033 220.464C134.618 220.464 152.117 202.65 152.117 180.675C152.117 158.7 134.618 140.886 113.033 140.886C91.4476 140.886 73.9492 158.7 73.9492 180.675C73.9492 202.65 91.4476 220.464 113.033 220.464Z" fill="white"/>
</mask>
<g mask="url(#mask0_1089_22668)">
<path d="M83.0572 137.03H63.0742V143.745H83.0572V137.03Z" fill="#1C46F5"/>
<path d="M123.026 137.03H103.043V143.745H123.026V137.03Z" fill="#1C46F5"/>
<path d="M162.991 137.03H143.008V143.745H162.991V137.03Z" fill="#1C46F5"/>
<path d="M103.042 137.03H83.0586V143.745H103.042V137.03Z" fill="#92C8E9"/>
<path d="M143.006 137.03H123.023V143.745H143.006V137.03Z" fill="#92C8E9"/>
<path d="M83.0572 143.742H63.0742V150.457H83.0572V143.742Z" fill="#92C8E9"/>
<path d="M123.026 143.742H103.043V150.457H123.026V143.742Z" fill="#92C8E9"/>
<path d="M162.991 143.742H143.008V150.457H162.991V143.742Z" fill="#92C8E9"/>
<path d="M103.042 143.742H83.0586V150.457H103.042V143.742Z" fill="#1C46F5"/>
<path d="M143.006 143.742H123.023V150.457H143.006V143.742Z" fill="#1C46F5"/>
<path d="M83.0572 150.462H63.0742V157.177H83.0572V150.462Z" fill="#1C46F5"/>
<path d="M123.026 150.462H103.043V157.177H123.026V150.462Z" fill="#1C46F5"/>
<path d="M162.991 150.462H143.008V157.177H162.991V150.462Z" fill="#1C46F5"/>
<path d="M103.042 150.462H83.0586V157.177H103.042V150.462Z" fill="#92C8E9"/>
<path d="M143.006 150.462H123.023V157.177H143.006V150.462Z" fill="#92C8E9"/>
<path d="M83.0572 157.179H63.0742V163.893H83.0572V157.179Z" fill="#92C8E9"/>
<path d="M123.026 157.179H103.043V163.893H123.026V157.179Z" fill="#92C8E9"/>
<path d="M162.991 157.179H143.008V163.893H162.991V157.179Z" fill="#92C8E9"/>
<path d="M103.042 157.179H83.0586V163.893H103.042V157.179Z" fill="#1C46F5"/>
<path d="M143.006 157.179H123.023V163.893H143.006V157.179Z" fill="#1C46F5"/>
<path d="M83.0572 163.891H63.0742V170.606H83.0572V163.891Z" fill="#1C46F5"/>
<path d="M123.026 163.891H103.043V170.606H123.026V163.891Z" fill="#1C46F5"/>
<path d="M162.991 163.891H143.008V170.606H162.991V163.891Z" fill="#1C46F5"/>
<path d="M103.042 163.891H83.0586V170.606H103.042V163.891Z" fill="#92C8E9"/>
<path d="M143.006 163.891H123.023V170.606H143.006V163.891Z" fill="#92C8E9"/>
<path d="M83.0572 170.607H63.0742V177.322H83.0572V170.607Z" fill="#92C8E9"/>
<path d="M123.026 170.607H103.043V177.322H123.026V170.607Z" fill="#92C8E9"/>
<path d="M162.991 170.607H143.008V177.322H162.991V170.607Z" fill="#92C8E9"/>
<path d="M103.042 170.607H83.0586V177.322H103.042V170.607Z" fill="#1C46F5"/>
<path d="M143.006 170.607H123.023V177.322H143.006V170.607Z" fill="#1C46F5"/>
<path d="M83.0572 177.324H63.0742V184.038H83.0572V177.324Z" fill="#1C46F5"/>
<path d="M123.026 177.324H103.043V184.038H123.026V177.324Z" fill="#1C46F5"/>
<path d="M162.991 177.324H143.008V184.038H162.991V177.324Z" fill="#1C46F5"/>
<path d="M103.042 177.324H83.0586V184.038H103.042V177.324Z" fill="#92C8E9"/>
<path d="M143.006 177.324H123.023V184.038H143.006V177.324Z" fill="#92C8E9"/>
<path d="M83.0572 184.04H63.0742V190.755H83.0572V184.04Z" fill="#92C8E9"/>
<path d="M123.026 184.04H103.043V190.755H123.026V184.04Z" fill="#92C8E9"/>
<path d="M162.991 184.04H143.008V190.755H162.991V184.04Z" fill="#92C8E9"/>
<path d="M103.042 184.04H83.0586V190.755H103.042V184.04Z" fill="#1C46F5"/>
<path d="M143.006 184.04H123.023V190.755H143.006V184.04Z" fill="#1C46F5"/>
<path d="M83.0572 190.756H63.0742V197.471H83.0572V190.756Z" fill="#1C46F5"/>
<path d="M123.026 190.756H103.043V197.471H123.026V190.756Z" fill="#1C46F5"/>
<path d="M162.991 190.756H143.008V197.471H162.991V190.756Z" fill="#1C46F5"/>
<path d="M103.042 190.756H83.0586V197.471H103.042V190.756Z" fill="#92C8E9"/>
<path d="M143.006 190.756H123.023V197.471H143.006V190.756Z" fill="#92C8E9"/>
<path d="M83.0572 197.469H63.0742V204.183H83.0572V197.469Z" fill="#92C8E9"/>
<path d="M123.026 197.469H103.043V204.183H123.026V197.469Z" fill="#92C8E9"/>
<path d="M162.991 197.469H143.008V204.183H162.991V197.469Z" fill="#92C8E9"/>
<path d="M103.042 197.469H83.0586V204.183H103.042V197.469Z" fill="#1C46F5"/>
<path d="M143.006 197.469H123.023V204.183H143.006V197.469Z" fill="#1C46F5"/>
<path d="M83.0572 204.185H63.0742V210.9H83.0572V204.185Z" fill="#1C46F5"/>
<path d="M123.026 204.185H103.043V210.9H123.026V204.185Z" fill="#1C46F5"/>
<path d="M162.991 204.185H143.008V210.9H162.991V204.185Z" fill="#1C46F5"/>
<path d="M103.042 204.185H83.0586V210.9H103.042V204.185Z" fill="#92C8E9"/>
<path d="M143.006 204.185H123.023V210.9H143.006V204.185Z" fill="#92C8E9"/>
<path d="M83.0572 210.901H63.0742V217.616H83.0572V210.901Z" fill="#92C8E9"/>
<path d="M123.026 210.901H103.043V217.616H123.026V210.901Z" fill="#92C8E9"/>
<path d="M162.991 210.901H143.008V217.616H162.991V210.901Z" fill="#92C8E9"/>
<path d="M103.042 210.901H83.0586V217.616H103.042V210.901Z" fill="#1C46F5"/>
<path d="M143.006 210.901H123.023V217.616H143.006V210.901Z" fill="#1C46F5"/>
<path d="M83.0572 217.614H63.0742V224.328H83.0572V217.614Z" fill="#1C46F5"/>
<path d="M123.026 217.614H103.043V224.328H123.026V217.614Z" fill="#1C46F5"/>
<path d="M162.991 217.614H143.008V224.328H162.991V217.614Z" fill="#1C46F5"/>
<path d="M103.042 217.614H83.0586V224.328H103.042V217.614Z" fill="#92C8E9"/>
<path d="M143.006 217.614H123.023V224.328H143.006V217.614Z" fill="#92C8E9"/>
</g>
</g>
<rect x="73.5" y="141.5" width="79" height="79" rx="39.5" stroke="black"/>
<rect x="109.5" y="141.5" width="79" height="79" rx="39.5" fill="black"/>
<rect x="109.5" y="141.5" width="79" height="79" rx="39.5" stroke="black"/>
<rect x="176.5" y="141.5" width="79" height="79" rx="39.5" fill="white"/>
<rect x="176.5" y="141.5" width="79" height="79" rx="39.5" stroke="black"/>
<g clip-path="url(#clip3_1089_22668)">
<path d="M216 220.998C238.091 220.998 256 203.09 256 180.998C256 158.907 238.091 140.998 216 140.998C193.909 140.998 176 158.907 176 180.998C176 203.09 193.909 220.998 216 220.998Z" fill="white"/>
<path d="M239.793 204.325C239.793 204.325 235.446 198.425 233.635 194.599C231.823 190.769 230.374 187.149 230.322 186.632C230.322 186.632 229.744 183.717 231.025 180.697C232.45 177.344 235.188 174.417 234.274 172.257C233.62 170.718 231.515 170.8 230.726 171.36C229.936 171.92 228.208 174.327 228.028 174.862C227.848 175.399 227.453 174.112 227.378 172.989C227.302 171.865 227.149 166.073 227.378 163.344C227.607 160.615 225.897 160.307 225.389 160.307C224.878 160.307 223.908 160.307 223.424 161.175C222.939 162.043 223.679 160.051 222.529 159.262C221.382 158.472 220.056 158.905 219.672 159.262C219.289 159.619 218.984 159.95 218.932 160.307C218.88 160.664 217.861 159.285 215.973 160.127C214.086 160.969 214.391 162.781 214.417 163.213C214.443 163.646 213.346 163.315 212.478 164.209C211.61 165.103 211.38 168.114 211.38 171.25C211.38 174.388 211.305 181.865 212.275 186.405C213.244 190.946 214.928 196.637 218.093 200.336C221.258 204.035 225.032 207.124 228.783 208.219C232.534 209.316 238.812 209.827 240.138 208.219C241.465 206.61 239.796 204.316 239.796 204.316L239.793 204.325Z" fill="#BBF024"/>
<path d="M223.081 161.263C223.081 161.263 222.442 163.101 222.34 165.499C222.239 167.897 222.16 175.065 222.16 175.065" stroke="black" stroke-width="0.926181" stroke-linecap="round" stroke-linejoin="round"/>
<path d="M219.205 160.136C219.205 160.136 218.465 162.131 218.389 165.882C218.314 169.633 218.389 169.99 218.389 169.99" stroke="black" stroke-width="0.926181" stroke-linecap="round" stroke-linejoin="round"/>
<path d="M227.623 175.066C227.623 175.066 226.601 176.57 226.142 177.719C225.683 178.866 224.867 180.678 224.867 180.678" stroke="black" stroke-width="0.926181" stroke-linecap="round" stroke-linejoin="round"/>
<path d="M193.088 203.52C193.088 203.52 197.435 197.621 199.246 193.794C201.058 189.964 202.507 186.344 202.559 185.827C202.559 185.827 202.774 183.542 201.857 179.892C200.939 176.243 199.229 173.36 200.173 171.984C201.116 170.605 202.495 170.631 203.285 171.194C204.075 171.754 204.867 173.287 205.044 173.821C205.224 174.359 205.428 173.31 205.503 172.19C205.579 171.069 205.733 165.274 205.503 162.545C205.274 159.816 206.984 159.508 207.492 159.508C208 159.508 208.973 159.508 209.458 160.376C209.942 161.244 209.202 159.252 210.352 158.463C211.499 157.673 212.826 158.105 213.209 158.463C213.592 158.82 213.897 159.151 213.949 159.508C214.001 159.865 215.021 158.486 216.908 159.328C218.795 160.17 218.49 161.981 218.464 162.414C218.438 162.847 219.535 162.516 220.403 163.41C221.272 164.304 221.501 167.315 221.501 170.451C221.501 173.586 221.576 181.065 220.607 185.606C219.637 190.147 217.953 195.838 214.788 199.537C211.624 203.236 207.849 206.325 204.098 207.42C200.347 208.517 194.07 209.028 192.743 207.42C191.416 205.811 193.085 203.517 193.085 203.517L193.088 203.52Z" fill="black"/>
<path d="M205.041 174.378C205.041 174.378 204.797 178.571 203.68 182.197" stroke="#BBF024" stroke-width="0.926181" stroke-linecap="round" stroke-linejoin="round"/>
<path d="M209.297 160.136C209.297 160.136 208.714 160.703 208.714 164.732C208.714 168.762 208.638 175.141 208.586 175.498" stroke="#BBF024" stroke-width="0.926181" stroke-linecap="round" stroke-linejoin="round"/>
<path d="M214.025 159.401C214.025 159.401 213.273 159.758 213.183 161.111C213.093 162.464 212.597 172.286 212.571 173.587C212.545 174.887 212.391 175.5 212.391 175.5" stroke="#BBF024" stroke-width="0.926181" stroke-linecap="round" stroke-linejoin="round"/>
<path d="M218.668 162.974C218.668 162.974 216.601 162.872 216.346 164.632C216.09 166.391 215.962 173.51 215.887 174.48C215.811 175.45 215.684 176.445 215.684 176.445" stroke="#BBF024" stroke-width="0.926181" stroke-linecap="round" stroke-linejoin="round"/>
<path d="M193.461 185.129L195.63 183.683" stroke="#BBF024" stroke-width="0.926181" stroke-linecap="round" stroke-linejoin="round"/>
<path d="M191.531 179.908L194.101 179.589" stroke="#BBF024" stroke-width="0.926181" stroke-linecap="round" stroke-linejoin="round"/>
<path d="M189.199 171.552L192.817 172.194" stroke="#BBF024" stroke-width="0.926181" stroke-linecap="round" stroke-linejoin="round"/>
<path d="M191.531 161.991L195.628 163.919" stroke="#BBF024" stroke-width="0.926181" stroke-linecap="round" stroke-linejoin="round"/>
<path d="M198.039 152.749L200.048 156.204" stroke="#BBF024" stroke-width="0.926181" stroke-linecap="round" stroke-linejoin="round"/>
<path d="M235.963 153.071L232.668 155.481" stroke="black" stroke-width="0.926181" stroke-linecap="round" stroke-linejoin="round"/>
<path d="M240.648 158.817L236.688 160.138" stroke="black" stroke-width="0.926181" stroke-linecap="round" stroke-linejoin="round"/>
<path d="M242.793 171.552H239.66" stroke="black" stroke-width="0.926181" stroke-linecap="round" stroke-linejoin="round"/>
<path d="M240.301 182.879L237.328 181.111" stroke="black" stroke-width="0.926181" stroke-linecap="round" stroke-linejoin="round"/>
</g>
<rect x="176.5" y="141.5" width="79" height="79" rx="39.5" stroke="black"/>
<defs>
<clipPath id="clip0_1089_22668">
<rect x="446" y="140" width="80" height="80" rx="40" fill="white"/>
</clipPath>
<clipPath id="clip1_1089_22668">
<rect x="446" y="140" width="80" height="80" rx="40" fill="white"/>
</clipPath>
<clipPath id="clip2_1089_22668">
<rect x="73" y="141" width="80" height="80" rx="40" fill="white"/>
</clipPath>
<clipPath id="clip3_1089_22668">
<rect x="176" y="141" width="80" height="80" rx="40" fill="white"/>
</clipPath>
</defs>
</svg>
