<svg width="65" height="65" viewBox="0 0 65 65" fill="none" xmlns="http://www.w3.org/2000/svg">
<g clip-path="url(#clip0_1089_23024)">
<path d="M8.16586 -3.22656H-8.07031V2.22921H8.16586V-3.22656Z" fill="#1C46F5"/>
<path d="M40.6424 -3.22656H24.4062V2.22921H40.6424V-3.22656Z" fill="#1C46F5"/>
<path d="M73.1112 -3.22656H56.875V2.22921H73.1112V-3.22656Z" fill="#1C46F5"/>
<path d="M24.4041 -3.22656H8.16797V2.22921H24.4041V-3.22656Z" fill="#92C8E9"/>
<path d="M56.8729 -3.22656H40.6367V2.22921H56.8729V-3.22656Z" fill="#92C8E9"/>
<path d="M8.16586 2.22656H-8.07031V7.68234H8.16586V2.22656Z" fill="#92C8E9"/>
<path d="M40.6424 2.22656H24.4062V7.68234H40.6424V2.22656Z" fill="#92C8E9"/>
<path d="M73.1112 2.22656H56.875V7.68234H73.1112V2.22656Z" fill="#92C8E9"/>
<path d="M24.4041 2.22656H8.16797V7.68234H24.4041V2.22656Z" fill="#1C46F5"/>
<path d="M56.8729 2.22656H40.6367V7.68234H56.8729V2.22656Z" fill="#1C46F5"/>
<path d="M8.16586 7.6875H-8.07031V13.1433H8.16586V7.6875Z" fill="#1C46F5"/>
<path d="M40.6424 7.6875H24.4062V13.1433H40.6424V7.6875Z" fill="#1C46F5"/>
<path d="M73.1112 7.6875H56.875V13.1433H73.1112V7.6875Z" fill="#1C46F5"/>
<path d="M24.4041 7.6875H8.16797V13.1433H24.4041V7.6875Z" fill="#92C8E9"/>
<path d="M56.8729 7.6875H40.6367V13.1433H56.8729V7.6875Z" fill="#92C8E9"/>
<path d="M8.16586 13.1445H-8.07031V18.6003H8.16586V13.1445Z" fill="#92C8E9"/>
<path d="M40.6424 13.1445H24.4062V18.6003H40.6424V13.1445Z" fill="#92C8E9"/>
<path d="M73.1112 13.1445H56.875V18.6003H73.1112V13.1445Z" fill="#92C8E9"/>
<path d="M24.4041 13.1445H8.16797V18.6003H24.4041V13.1445Z" fill="#1C46F5"/>
<path d="M56.8729 13.1445H40.6367V18.6003H56.8729V13.1445Z" fill="#1C46F5"/>
<path d="M8.16586 18.5977H-8.07031V24.0534H8.16586V18.5977Z" fill="#1C46F5"/>
<path d="M40.6424 18.5977H24.4062V24.0534H40.6424V18.5977Z" fill="#1C46F5"/>
<path d="M73.1112 18.5977H56.875V24.0534H73.1112V18.5977Z" fill="#1C46F5"/>
<path d="M24.4041 18.5977H8.16797V24.0534H24.4041V18.5977Z" fill="#92C8E9"/>
<path d="M56.8729 18.5977H40.6367V24.0534H56.8729V18.5977Z" fill="#92C8E9"/>
<path d="M8.16586 24.0547H-8.07031V29.5105H8.16586V24.0547Z" fill="#92C8E9"/>
<path d="M40.6424 24.0547H24.4062V29.5105H40.6424V24.0547Z" fill="#92C8E9"/>
<path d="M73.1112 24.0547H56.875V29.5105H73.1112V24.0547Z" fill="#92C8E9"/>
<path d="M24.4041 24.0547H8.16797V29.5105H24.4041V24.0547Z" fill="#1C46F5"/>
<path d="M56.8729 24.0547H40.6367V29.5105H56.8729V24.0547Z" fill="#1C46F5"/>
<path d="M8.16586 29.5117H-8.07031V34.9675H8.16586V29.5117Z" fill="#1C46F5"/>
<path d="M40.6424 29.5117H24.4062V34.9675H40.6424V29.5117Z" fill="#1C46F5"/>
<path d="M73.1112 29.5117H56.875V34.9675H73.1112V29.5117Z" fill="#1C46F5"/>
<path d="M24.4041 29.5117H8.16797V34.9675H24.4041V29.5117Z" fill="#92C8E9"/>
<path d="M56.8729 29.5117H40.6367V34.9675H56.8729V29.5117Z" fill="#92C8E9"/>
<path d="M8.16586 34.9688H-8.07031V40.4245H8.16586V34.9688Z" fill="#92C8E9"/>
<path d="M40.6424 34.9688H24.4062V40.4245H40.6424V34.9688Z" fill="#92C8E9"/>
<path d="M73.1112 34.9688H56.875V40.4245H73.1112V34.9688Z" fill="#92C8E9"/>
<path d="M24.4041 34.9688H8.16797V40.4245H24.4041V34.9688Z" fill="#1C46F5"/>
<path d="M56.8729 34.9688H40.6367V40.4245H56.8729V34.9688Z" fill="#1C46F5"/>
<path d="M8.16586 40.4258H-8.07031V45.8816H8.16586V40.4258Z" fill="#1C46F5"/>
<path d="M40.6424 40.4258H24.4062V45.8816H40.6424V40.4258Z" fill="#1C46F5"/>
<path d="M73.1112 40.4258H56.875V45.8816H73.1112V40.4258Z" fill="#1C46F5"/>
<path d="M24.4041 40.4258H8.16797V45.8816H24.4041V40.4258Z" fill="#92C8E9"/>
<path d="M56.8729 40.4258H40.6367V45.8816H56.8729V40.4258Z" fill="#92C8E9"/>
<path d="M8.16586 45.8828H-8.07031V51.3386H8.16586V45.8828Z" fill="#92C8E9"/>
<path d="M40.6424 45.8828H24.4062V51.3386H40.6424V45.8828Z" fill="#92C8E9"/>
<path d="M73.1112 45.8828H56.875V51.3386H73.1112V45.8828Z" fill="#92C8E9"/>
<path d="M24.4041 45.8828H8.16797V51.3386H24.4041V45.8828Z" fill="#1C46F5"/>
<path d="M56.8729 45.8828H40.6367V51.3386H56.8729V45.8828Z" fill="#1C46F5"/>
<path d="M8.16586 51.3359H-8.07031V56.7917H8.16586V51.3359Z" fill="#1C46F5"/>
<path d="M40.6424 51.3359H24.4062V56.7917H40.6424V51.3359Z" fill="#1C46F5"/>
<path d="M73.1112 51.3359H56.875V56.7917H73.1112V51.3359Z" fill="#1C46F5"/>
<path d="M24.4041 51.3359H8.16797V56.7917H24.4041V51.3359Z" fill="#92C8E9"/>
<path d="M56.8729 51.3359H40.6367V56.7917H56.8729V51.3359Z" fill="#92C8E9"/>
<path d="M8.16586 56.793H-8.07031V62.2487H8.16586V56.793Z" fill="#92C8E9"/>
<path d="M40.6424 56.793H24.4062V62.2487H40.6424V56.793Z" fill="#92C8E9"/>
<path d="M73.1112 56.793H56.875V62.2487H73.1112V56.793Z" fill="#92C8E9"/>
<path d="M24.4041 56.793H8.16797V62.2487H24.4041V56.793Z" fill="#1C46F5"/>
<path d="M56.8729 56.793H40.6367V62.2487H56.8729V56.793Z" fill="#1C46F5"/>
<path d="M8.16586 62.25H-8.07031V67.7058H8.16586V62.25Z" fill="#1C46F5"/>
<path d="M40.6424 62.25H24.4062V67.7058H40.6424V62.25Z" fill="#1C46F5"/>
<path d="M73.1112 62.25H56.875V67.7058H73.1112V62.25Z" fill="#1C46F5"/>
<path d="M24.4041 62.25H8.16797V67.7058H24.4041V62.25Z" fill="#92C8E9"/>
<path d="M56.8729 62.25H40.6367V67.7058H56.8729V62.25Z" fill="#92C8E9"/>
</g>
<rect x="0.5" y="0.5" width="64" height="64" stroke="black"/>
<defs>
<clipPath id="clip0_1089_23024">
<rect width="65" height="65" fill="white"/>
</clipPath>
</defs>
</svg>
