<svg width="201" height="20" viewBox="0 0 201 20" fill="none" xmlns="http://www.w3.org/2000/svg">
<rect x="7.96875" y="16.625" width="2.46545" height="2.46545" fill="black"/>
<rect x="5.96875" y="16.625" width="3.6333" height="2.46545" fill="black"/>
<rect y="0.40625" width="2.46545" height="2.46545" fill="black"/>
<rect x="5.96875" y="0.40625" width="3.6333" height="2.46545" fill="black"/>
<rect y="16.625" width="3.50354" height="2.46545" fill="black"/>
<rect x="3.5" y="2.875" width="2.46545" height="16.2201" fill="black"/>
<path d="M61.6718 2.72842C63.3522 4.53005 64.1924 6.86003 64.1924 9.71838C64.1924 12.5767 63.3435 14.9154 61.6458 16.7343C59.9655 18.5359 57.7914 19.4368 55.1236 19.4368C52.4731 19.4368 50.3077 18.5359 48.6274 16.7343C46.9643 14.9154 46.1328 12.5767 46.1328 9.71838C46.1328 6.87735 46.973 4.54737 48.6534 2.72842C50.3337 0.909474 52.4991 0 55.1496 0C57.8174 0 59.9915 0.909474 61.6718 2.72842ZM61.5159 9.71838C61.5159 7.53564 60.9269 5.78599 59.7489 4.46941C58.5883 3.13552 57.0552 2.46857 55.1496 2.46857C53.244 2.46857 51.7109 3.13552 50.5503 4.46941C49.3896 5.78599 48.8093 7.53564 48.8093 9.71838C48.8093 11.9011 49.3896 13.6594 50.5503 14.9933C51.7109 16.3272 53.244 16.9942 55.1496 16.9942C57.0552 16.9942 58.5883 16.3272 59.7489 14.9933C60.9269 13.6421 61.5159 11.8838 61.5159 9.71838Z" fill="black"/>
<path d="M42.7544 11.1457H35.3747V19.1231H32.8281V0.335938H44.1576V2.67458H35.3747V8.83302H42.7544V11.1457Z" fill="black"/>
<path d="M16.2965 19.1231H13.75V0.335938H16.2965L25.911 14.8615V0.335938H28.4575V19.1231H25.911L16.2965 4.59747V19.1231Z" fill="black"/>
<path d="M169.203 2.67458V0.335938H183.053V2.67458H177.414V19.1231H174.868V2.67458H169.203Z" fill="black"/>
<path d="M152.245 6.28752C152.286 4.51326 152.976 3.09163 154.318 2.00823L154.318 2.00802C155.73 0.863109 157.602 0.282912 159.948 0.282912C162.266 0.282912 164.071 0.899219 165.381 2.11334L165.382 2.11436C166.713 3.32411 167.389 5.09829 167.389 7.46551V18.8097H164.703L164.347 15.9928L164.273 15.4106L164.031 15.9453C163.574 16.9565 162.778 17.7684 161.632 18.3788C160.509 18.9646 159.225 19.2596 157.774 19.2596C155.854 19.2596 154.362 18.7678 153.276 17.8031C152.215 16.8136 151.681 15.5103 151.681 13.8765C151.681 12.2458 152.251 10.9565 153.384 9.99115L153.385 9.99095C154.549 8.99608 156.198 8.40377 158.349 8.23056L164.12 7.7807L164.273 7.76878V7.61548V7.0906C164.273 5.67636 163.907 4.58561 163.145 3.85022C162.385 3.11587 161.258 2.76332 159.798 2.76332C158.302 2.76332 157.113 3.08001 156.25 3.73425L156.25 3.73424L156.248 3.73576C155.446 4.36283 155.027 5.21914 154.988 6.28752H152.245ZM162.841 15.3029L162.842 15.3014C163.826 14.2392 164.311 12.8208 164.311 11.0647V10.0899V9.91039L164.132 9.92471L159.447 10.2996L159.447 10.2996L159.445 10.2998C157.97 10.4386 156.838 10.7871 156.072 11.3634C155.297 11.9465 154.91 12.7529 154.91 13.7641C154.91 14.7561 155.252 15.5334 155.949 16.0699C156.638 16.5999 157.59 16.8541 158.786 16.8541C160.495 16.8541 161.854 16.3425 162.841 15.3029Z" fill="black" stroke="white" stroke-width="0.33145"/>
<path d="M184.769 6.28752C184.809 4.51326 185.499 3.09163 186.841 2.00823L186.842 2.00802C188.254 0.863109 190.125 0.282912 192.471 0.282912C194.79 0.282912 196.594 0.899219 197.905 2.11334L197.906 2.11436C199.236 3.32411 199.913 5.09829 199.913 7.46551V18.8097H197.227L196.87 15.9928L196.796 15.4106L196.555 15.9453C196.097 16.9565 195.302 17.7684 194.155 18.3788C193.033 18.9646 191.748 19.2596 190.297 19.2596C188.378 19.2596 186.885 18.7678 185.8 17.8031C184.739 16.8136 184.205 15.5103 184.205 13.8765C184.205 12.2458 184.774 10.9565 185.908 9.99115L185.908 9.99095C187.072 8.99608 188.721 8.40377 190.873 8.23056L196.644 7.7807L196.796 7.76878V7.61548V7.0906C196.796 5.67636 196.43 4.58561 195.668 3.85022C194.908 3.11587 193.782 2.76332 192.321 2.76332C190.826 2.76332 189.636 3.08001 188.773 3.73425L188.773 3.73424L188.771 3.73576C187.969 4.36283 187.55 5.21914 187.511 6.28752H184.769ZM195.364 15.3029L195.366 15.3014C196.35 14.2392 196.834 12.8208 196.834 11.0647V10.0899V9.91039L196.655 9.92471L191.971 10.2996L191.971 10.2996L191.968 10.2998C190.493 10.4386 189.362 10.7871 188.596 11.3634C187.821 11.9465 187.433 12.7529 187.433 13.7641C187.433 14.7561 187.775 15.5334 188.472 16.0699C189.161 16.5999 190.114 16.8541 191.309 16.8541C193.018 16.8541 194.377 16.3425 195.364 15.3029Z" fill="black" stroke="white" stroke-width="0.33145"/>
<path d="M139.594 19.0311H133.391V0.265625H139.49C142.293 0.265625 144.56 1.13079 146.29 2.86113C148.021 4.59147 148.886 6.85821 148.886 9.66136C148.886 12.4472 148.029 14.7053 146.316 16.4356C144.603 18.166 142.362 19.0311 139.594 19.0311ZM139.308 2.60158H135.934V16.6692H139.412C141.506 16.6692 143.167 16.0376 144.396 14.7745C145.624 13.5114 146.238 11.807 146.238 9.66136C146.238 7.48113 145.615 5.75945 144.37 4.4963C143.141 3.23315 141.454 2.60158 139.308 2.60158Z" fill="black"/>
<path fill-rule="evenodd" clip-rule="evenodd" d="M109.868 18.0048V10.83L104.796 15.9025L103.989 15.0961L109.184 9.9018L73.9766 9.90179V9.00146L109.177 9.00146L103.984 3.80781L104.79 3.00141L109.868 8.07953V0.898438H111.009V8.0768L116.086 3.00009L116.892 3.80649L111.697 9.00146L118.993 9.00146V9.9018L111.691 9.9018L116.886 15.0974L116.08 15.9039L111.009 10.8328V18.0048H109.868Z" fill="black"/>
</svg>
