<svg width="622" height="102" viewBox="0 0 622 102" fill="none" xmlns="http://www.w3.org/2000/svg">
<path d="M621.084 51.1807C621.084 57.9421 615.334 64.4758 604.692 70.4817C594.074 76.4741 578.689 81.8803 559.653 86.4243C521.585 95.5111 468.98 101.134 410.863 101.134C352.746 101.134 300.14 95.5111 262.072 86.4243C243.036 81.8803 227.652 76.4741 217.034 70.4817C206.391 64.4758 200.641 57.9421 200.641 51.1807C200.641 44.4193 206.391 37.8856 217.034 31.8797C227.652 25.8873 243.036 20.4811 262.072 15.9371C300.14 6.85026 352.746 1.22703 410.863 1.22703C468.98 1.22703 521.585 6.85026 559.653 15.9371C578.689 20.4811 594.074 25.8873 604.692 31.8797C615.334 37.8856 621.084 44.4193 621.084 51.1807Z" stroke="black" stroke-width="0.594686"/>
<path d="M347.101 12.8314V40.3703C347.565 40.1781 347.861 40.13 348.038 39.9698C358.754 29.9331 374.588 33.8981 378.6 47.8758C380.955 56.0782 380.595 64.3287 375.485 71.6179C369.766 79.7722 360.5 81.5585 350.593 78.6828C350.088 78.5387 349.599 78.3064 349.111 78.1061C341.999 75.2705 341.711 74.854 341.711 67.3004C341.711 51.7687 341.711 36.2371 341.711 20.7054C341.711 16.1636 340.773 15.0983 336.352 14.4254C335.784 14.3373 335.271 13.8968 334.727 13.6164C335.255 13.3521 335.776 12.8715 336.312 12.8634C339.804 12.7914 343.296 12.8314 347.101 12.8314ZM373.707 56.8792C373.707 55.8379 373.755 54.5483 373.699 53.2666C373.258 43.6785 366.931 37.6869 357.977 38.3357C351.49 38.8083 347.165 43.4382 347.165 49.9104C347.165 56.4146 347.261 62.9269 347.117 69.4311C347.061 72.0665 348.174 73.7326 350.312 74.9501C356.984 78.7389 365.49 76.9847 370.135 70.873C373.242 66.7878 373.939 62.0778 373.707 56.8792Z" fill="black"/>
<path d="M240.174 70.528C241.2 66.2185 242.241 61.917 243.258 57.6076C246.205 45.0877 249.185 32.5759 252.044 20.04C252.452 18.2457 253.237 17.6049 254.975 17.8532C255.496 17.9253 256.049 17.9333 256.569 17.8532C258.323 17.5809 259.052 18.2938 259.492 20.04C263.585 36.3246 267.774 52.5932 271.947 68.8618C272.107 69.4866 272.339 70.0874 272.94 70.7282C273.789 67.1557 274.662 63.5912 275.487 60.0186C278.21 48.2277 280.917 36.4287 283.616 24.6298C284.393 21.2335 283.584 20.072 280.124 19.4392C279.507 19.3271 278.931 19.0227 278.338 18.8064C278.386 18.5821 278.434 18.3659 278.482 18.1416H294.54C294.612 18.2858 294.684 18.4299 294.757 18.5741C294.308 18.8465 293.852 19.3511 293.403 19.3431C289.454 19.287 287.693 21.6901 286.836 25.0704C284.553 34.1699 282.294 43.2694 280.06 52.377C277.913 61.116 275.815 69.8631 273.709 78.5381C273.476 78.6663 273.348 78.7864 273.22 78.7944C268.222 79.0908 268.198 79.0988 266.957 74.2927C262.936 58.7691 258.94 43.2294 254.927 27.7057C254.727 26.9287 254.495 26.1597 253.75 25.3828C251.603 34.282 249.441 43.1733 247.303 52.0726C245.164 60.9638 243.042 69.8551 240.911 78.7704H235.313C233.991 73.4116 232.662 68.0608 231.348 62.7181C228.321 50.4545 225.286 38.191 222.274 25.9194C221.409 22.403 220.152 19.3511 215.739 19.303C215.45 19.303 215.17 18.8064 214.609 18.2858C215.426 18.0855 215.891 17.8772 216.355 17.8772C221.449 17.8532 226.543 17.8372 231.629 17.8933C232.181 17.8933 232.726 18.3578 233.271 18.5982C232.742 18.8705 232.229 19.3111 231.669 19.3912C228.337 19.8798 227.496 20.7128 228.177 23.5404C231.885 38.984 235.665 54.4115 239.43 69.8471C239.478 70.0634 239.59 70.2636 239.678 70.4639C239.846 70.4799 240.006 70.4959 240.174 70.5119V70.528Z" fill="black"/>
<path d="M491.646 78.7455H474.17L473.85 78.1608C474.41 77.8404 474.947 77.3117 475.548 77.2396C478.936 76.8151 479.544 76.0701 478.607 72.818C477.43 68.7488 476.188 64.6957 474.827 60.6826C474.619 60.0819 473.601 59.369 472.953 59.3609C466.874 59.2568 460.795 59.3289 454.716 59.2728C453.539 59.2648 452.946 59.6333 452.602 60.7787C451.376 64.912 450.015 69.0052 448.805 73.1464C448.036 75.7817 449.046 76.8231 452.377 77.1996C453.194 77.2957 453.979 77.6641 454.78 77.9125C454.708 78.1688 454.636 78.4331 454.564 78.6894H437.961C438.634 78.0006 439.01 77.2877 439.387 77.2877C443.111 77.3037 444.536 74.6924 445.562 71.8408C447.251 67.1468 448.781 62.3888 450.303 57.6307C454.332 45.0949 458.368 32.559 462.269 19.9831C462.861 18.0846 463.87 17.8203 465.56 17.8203C467.306 17.8203 468.38 18.0366 468.996 20.0632C474.05 36.7163 479.24 53.3293 484.406 69.9504C484.79 71.1759 485.239 72.3854 485.703 73.587C486.536 75.7577 488.018 77.0634 490.445 77.2476C490.981 77.2877 491.486 77.7763 492.006 78.0566L491.654 78.7535L491.646 78.7455ZM473.714 56.5574C470.486 45.7998 467.362 35.3786 464.239 24.9574C464.039 24.9574 463.846 24.9574 463.646 24.9574C460.426 35.4346 457.207 45.9039 453.939 56.5494H473.706L473.714 56.5574Z" fill="black"/>
<mask id="path-5-outside-1_216_4547" maskUnits="userSpaceOnUse" x="-0.484375" y="16.8281" width="56" height="64" fill="black">
<rect fill="white" x="-0.484375" y="16.8281" width="56" height="64"/>
<path d="M0.683816 18.1059C1.1083 18.0258 1.54079 17.8736 1.96527 17.8736C7.28332 17.8576 12.6094 17.8416 17.9274 17.8896C18.4881 17.8896 19.0407 18.3302 19.5933 18.5705C19.0647 18.8348 18.5601 19.2834 18.0155 19.3395C13.6025 19.748 12.8497 20.533 12.8416 25.0106C12.8416 36.0727 12.8176 47.1427 12.8657 58.2047C12.8737 60.3194 13.0259 62.4501 13.3702 64.5327C14.7238 72.7431 20.7787 77.4771 29.1802 77.0286C38.3667 76.5399 43.7808 71.5736 44.83 62.4581C45.1744 59.4543 45.1584 56.4104 45.1584 53.3826C45.1664 43.8345 45.1264 34.2864 45.0623 24.7303C45.0383 20.6371 44.0371 19.6358 40.0085 19.3795C39.6321 19.3555 39.2076 19.4436 38.8793 19.3074C38.5349 19.1632 38.2786 18.8108 37.9822 18.5545C38.3106 18.3302 38.615 18.0018 38.9834 17.8976C39.4079 17.7775 39.8884 17.8496 40.3449 17.8496C44.3735 17.8496 48.4021 17.8336 52.4307 17.8576C53.2076 17.8576 53.9844 17.9857 54.7533 18.0578C54.7934 18.2901 54.8254 18.5224 54.8654 18.7547C54.2808 18.955 53.7121 19.2834 53.1114 19.3395C49.0108 19.732 48.1138 20.589 48.0977 24.7383C48.0417 35.9525 48.1378 47.1747 47.9936 58.3889C47.9536 61.2325 47.5611 64.1643 46.7522 66.8797C44.2774 75.2263 38.0543 79.8722 29.3324 79.76C25.5921 79.712 21.6437 79.4476 18.1757 78.2141C10.8794 75.6188 7.76387 69.4269 7.45151 62.2098C6.94694 50.4829 7.10712 38.732 6.97898 26.9892C6.97097 26.0039 6.97898 25.0187 6.97898 24.0334C6.96296 20.565 6.10598 19.6919 2.57397 19.3635C1.87717 19.2994 1.1964 18.995 0.515625 18.7948C0.571689 18.5625 0.627753 18.3302 0.675807 18.0979L0.683816 18.1059Z"/>
</mask>
<path d="M0.683816 18.1059C1.1083 18.0258 1.54079 17.8736 1.96527 17.8736C7.28332 17.8576 12.6094 17.8416 17.9274 17.8896C18.4881 17.8896 19.0407 18.3302 19.5933 18.5705C19.0647 18.8348 18.5601 19.2834 18.0155 19.3395C13.6025 19.748 12.8497 20.533 12.8416 25.0106C12.8416 36.0727 12.8176 47.1427 12.8657 58.2047C12.8737 60.3194 13.0259 62.4501 13.3702 64.5327C14.7238 72.7431 20.7787 77.4771 29.1802 77.0286C38.3667 76.5399 43.7808 71.5736 44.83 62.4581C45.1744 59.4543 45.1584 56.4104 45.1584 53.3826C45.1664 43.8345 45.1264 34.2864 45.0623 24.7303C45.0383 20.6371 44.0371 19.6358 40.0085 19.3795C39.6321 19.3555 39.2076 19.4436 38.8793 19.3074C38.5349 19.1632 38.2786 18.8108 37.9822 18.5545C38.3106 18.3302 38.615 18.0018 38.9834 17.8976C39.4079 17.7775 39.8884 17.8496 40.3449 17.8496C44.3735 17.8496 48.4021 17.8336 52.4307 17.8576C53.2076 17.8576 53.9844 17.9857 54.7533 18.0578C54.7934 18.2901 54.8254 18.5224 54.8654 18.7547C54.2808 18.955 53.7121 19.2834 53.1114 19.3395C49.0108 19.732 48.1138 20.589 48.0977 24.7383C48.0417 35.9525 48.1378 47.1747 47.9936 58.3889C47.9536 61.2325 47.5611 64.1643 46.7522 66.8797C44.2774 75.2263 38.0543 79.8722 29.3324 79.76C25.5921 79.712 21.6437 79.4476 18.1757 78.2141C10.8794 75.6188 7.76387 69.4269 7.45151 62.2098C6.94694 50.4829 7.10712 38.732 6.97898 26.9892C6.97097 26.0039 6.97898 25.0187 6.97898 24.0334C6.96296 20.565 6.10598 19.6919 2.57397 19.3635C1.87717 19.2994 1.1964 18.995 0.515625 18.7948C0.571689 18.5625 0.627753 18.3302 0.675807 18.0979L0.683816 18.1059Z" fill="black"/>
<path d="M0.683816 18.1059C1.1083 18.0258 1.54079 17.8736 1.96527 17.8736C7.28332 17.8576 12.6094 17.8416 17.9274 17.8896C18.4881 17.8896 19.0407 18.3302 19.5933 18.5705C19.0647 18.8348 18.5601 19.2834 18.0155 19.3395C13.6025 19.748 12.8497 20.533 12.8416 25.0106C12.8416 36.0727 12.8176 47.1427 12.8657 58.2047C12.8737 60.3194 13.0259 62.4501 13.3702 64.5327C14.7238 72.7431 20.7787 77.4771 29.1802 77.0286C38.3667 76.5399 43.7808 71.5736 44.83 62.4581C45.1744 59.4543 45.1584 56.4104 45.1584 53.3826C45.1664 43.8345 45.1264 34.2864 45.0623 24.7303C45.0383 20.6371 44.0371 19.6358 40.0085 19.3795C39.6321 19.3555 39.2076 19.4436 38.8793 19.3074C38.5349 19.1632 38.2786 18.8108 37.9822 18.5545C38.3106 18.3302 38.615 18.0018 38.9834 17.8976C39.4079 17.7775 39.8884 17.8496 40.3449 17.8496C44.3735 17.8496 48.4021 17.8336 52.4307 17.8576C53.2076 17.8576 53.9844 17.9857 54.7533 18.0578C54.7934 18.2901 54.8254 18.5224 54.8654 18.7547C54.2808 18.955 53.7121 19.2834 53.1114 19.3395C49.0108 19.732 48.1138 20.589 48.0977 24.7383C48.0417 35.9525 48.1378 47.1747 47.9936 58.3889C47.9536 61.2325 47.5611 64.1643 46.7522 66.8797C44.2774 75.2263 38.0543 79.8722 29.3324 79.76C25.5921 79.712 21.6437 79.4476 18.1757 78.2141C10.8794 75.6188 7.76387 69.4269 7.45151 62.2098C6.94694 50.4829 7.10712 38.732 6.97898 26.9892C6.97097 26.0039 6.97898 25.0187 6.97898 24.0334C6.96296 20.565 6.10598 19.6919 2.57397 19.3635C1.87717 19.2994 1.1964 18.995 0.515625 18.7948C0.571689 18.5625 0.627753 18.3302 0.675807 18.0979L0.683816 18.1059Z" stroke="black" stroke-width="0.8" stroke-linejoin="round" mask="url(#path-5-outside-1_216_4547)"/>
<mask id="path-6-outside-2_216_4547" maskUnits="userSpaceOnUse" x="115.156" y="16.8594" width="56" height="64" fill="black">
<rect fill="white" x="115.156" y="16.8594" width="56" height="64"/>
<path d="M116.26 18.1228C116.757 18.0347 117.253 17.8745 117.742 17.8745C122.988 17.8585 128.234 17.8424 133.48 17.8985C134.033 17.8985 134.585 18.3471 135.138 18.5874C134.601 18.8517 134.089 19.2923 133.536 19.3403C129.307 19.7489 128.546 20.4938 128.562 24.7151C128.61 37.3712 128.426 50.0352 128.875 62.6752C129.195 71.6306 134.777 76.6289 143.644 77.0374C152.494 77.446 158.845 72.4717 160.278 63.8768C160.647 61.6499 160.759 59.359 160.767 57.1002C160.807 46.2624 160.767 35.4247 160.751 24.587C160.751 20.7581 159.646 19.6287 155.777 19.3884C155.401 19.3644 154.976 19.4605 154.648 19.3243C154.256 19.1481 153.943 18.7876 153.599 18.5073C153.943 18.299 154.288 17.9145 154.64 17.9065C159.582 17.8665 164.523 17.8665 169.465 17.9065C169.785 17.9065 170.098 18.3631 170.418 18.6034C170.098 18.8517 169.817 19.2442 169.457 19.3163C165.714 20.1333 163.837 22.4857 163.826 26.3732C163.818 36.9867 164.043 47.6001 163.698 58.1976C163.57 62.1866 162.481 66.2558 161.167 70.0606C159.774 74.0817 156.57 76.8051 152.55 78.3111C146.727 80.4978 140.752 80.5539 134.89 78.6955C127.713 76.4207 123.172 69.8203 122.988 61.2895C122.74 49.7789 122.812 38.2523 122.74 26.7337C122.74 25.6764 122.764 24.611 122.716 23.5537C122.58 20.622 121.65 19.6928 118.719 19.3884C117.854 19.3003 117.013 19.084 116.156 18.9318L116.284 18.1068L116.26 18.1228Z"/>
</mask>
<path d="M116.26 18.1228C116.757 18.0347 117.253 17.8745 117.742 17.8745C122.988 17.8585 128.234 17.8424 133.48 17.8985C134.033 17.8985 134.585 18.3471 135.138 18.5874C134.601 18.8517 134.089 19.2923 133.536 19.3403C129.307 19.7489 128.546 20.4938 128.562 24.7151C128.61 37.3712 128.426 50.0352 128.875 62.6752C129.195 71.6306 134.777 76.6289 143.644 77.0374C152.494 77.446 158.845 72.4717 160.278 63.8768C160.647 61.6499 160.759 59.359 160.767 57.1002C160.807 46.2624 160.767 35.4247 160.751 24.587C160.751 20.7581 159.646 19.6287 155.777 19.3884C155.401 19.3644 154.976 19.4605 154.648 19.3243C154.256 19.1481 153.943 18.7876 153.599 18.5073C153.943 18.299 154.288 17.9145 154.64 17.9065C159.582 17.8665 164.523 17.8665 169.465 17.9065C169.785 17.9065 170.098 18.3631 170.418 18.6034C170.098 18.8517 169.817 19.2442 169.457 19.3163C165.714 20.1333 163.837 22.4857 163.826 26.3732C163.818 36.9867 164.043 47.6001 163.698 58.1976C163.57 62.1866 162.481 66.2558 161.167 70.0606C159.774 74.0817 156.57 76.8051 152.55 78.3111C146.727 80.4978 140.752 80.5539 134.89 78.6955C127.713 76.4207 123.172 69.8203 122.988 61.2895C122.74 49.7789 122.812 38.2523 122.74 26.7337C122.74 25.6764 122.764 24.611 122.716 23.5537C122.58 20.622 121.65 19.6928 118.719 19.3884C117.854 19.3003 117.013 19.084 116.156 18.9318L116.284 18.1068L116.26 18.1228Z" fill="black"/>
<path d="M116.26 18.1228C116.757 18.0347 117.253 17.8745 117.742 17.8745C122.988 17.8585 128.234 17.8424 133.48 17.8985C134.033 17.8985 134.585 18.3471 135.138 18.5874C134.601 18.8517 134.089 19.2923 133.536 19.3403C129.307 19.7489 128.546 20.4938 128.562 24.7151C128.61 37.3712 128.426 50.0352 128.875 62.6752C129.195 71.6306 134.777 76.6289 143.644 77.0374C152.494 77.446 158.845 72.4717 160.278 63.8768C160.647 61.6499 160.759 59.359 160.767 57.1002C160.807 46.2624 160.767 35.4247 160.751 24.587C160.751 20.7581 159.646 19.6287 155.777 19.3884C155.401 19.3644 154.976 19.4605 154.648 19.3243C154.256 19.1481 153.943 18.7876 153.599 18.5073C153.943 18.299 154.288 17.9145 154.64 17.9065C159.582 17.8665 164.523 17.8665 169.465 17.9065C169.785 17.9065 170.098 18.3631 170.418 18.6034C170.098 18.8517 169.817 19.2442 169.457 19.3163C165.714 20.1333 163.837 22.4857 163.826 26.3732C163.818 36.9867 164.043 47.6001 163.698 58.1976C163.57 62.1866 162.481 66.2558 161.167 70.0606C159.774 74.0817 156.57 76.8051 152.55 78.3111C146.727 80.4978 140.752 80.5539 134.89 78.6955C127.713 76.4207 123.172 69.8203 122.988 61.2895C122.74 49.7789 122.812 38.2523 122.74 26.7337C122.74 25.6764 122.764 24.611 122.716 23.5537C122.58 20.622 121.65 19.6928 118.719 19.3884C117.854 19.3003 117.013 19.084 116.156 18.9318L116.284 18.1068L116.26 18.1228Z" stroke="black" stroke-width="0.8" stroke-linejoin="round" mask="url(#path-6-outside-2_216_4547)"/>
<mask id="path-7-outside-3_216_4547" maskUnits="userSpaceOnUse" x="55.7734" y="16.875" width="56" height="63" fill="black">
<rect fill="white" x="55.7734" y="16.875" width="56" height="63"/>
<path d="M110.202 78.758H90.1954L89.8671 78.1573C90.3877 77.8289 90.8602 77.3082 91.4288 77.1961C95.1691 76.4111 95.6497 75.2736 93.7195 71.9013C90.5318 66.3103 87.4003 60.6791 84.2447 55.072C83.692 54.0948 83.1154 53.1256 82.3705 51.8359C81.8179 52.693 81.4014 53.2938 81.033 53.9186C77.6211 59.822 74.2333 65.7335 70.7974 71.621C68.8672 74.9292 69.5079 76.4271 73.2241 77.1961C73.8008 77.3162 74.3054 77.7728 74.842 78.0692C74.7459 78.2854 74.6418 78.5097 74.5456 78.726H56.7734C57.5984 77.965 57.9988 77.2761 58.4153 77.2601C62.3958 77.132 64.8386 74.7289 66.7288 71.669C71.1578 64.516 75.4987 57.3149 79.7756 50.0817C80.168 49.4088 80.1921 48.1352 79.8156 47.4544C75.6669 39.8768 71.4221 32.3632 67.1853 24.8337C65.5194 21.878 63.429 19.4909 59.6647 19.3468C59.3043 19.3307 58.9599 18.8742 58.7757 18.1132H79.1909C78.7905 18.6579 78.6063 19.1465 78.2699 19.3067C77.8134 19.523 77.2287 19.4509 76.7081 19.547C73.2402 20.1798 72.4633 21.7738 74.1852 24.7856C76.7401 29.2553 79.3351 33.709 81.914 38.1626C82.6989 39.5163 83.4998 40.854 84.541 42.6082C86.8476 38.6672 88.93 35.0947 91.0204 31.5382C92.3979 29.1832 93.7515 26.8202 95.1771 24.4973C97.1073 21.3413 96.6027 20.1478 92.9906 19.3868C92.5181 19.2827 92.1176 18.8261 91.6851 18.5297C92.1016 18.3054 92.5101 17.8969 92.9266 17.8969C98.0203 17.8569 103.106 17.8809 108.2 17.8969C108.472 17.8969 108.745 18.0731 109.698 18.4016C108.648 18.9062 108.12 19.3628 107.567 19.3948C103.659 19.6431 100.832 21.6377 98.8453 24.8257C94.8007 31.3219 90.8202 37.8582 86.9117 44.4345C86.5433 45.0513 86.5673 46.2368 86.9117 46.8776C91.573 55.2883 96.3224 63.6509 101.072 72.0215C102.794 75.0493 105.301 76.8997 108.881 77.2121C109.473 77.2601 110.034 77.7407 110.611 78.0211C110.475 78.2694 110.346 78.5177 110.21 78.766L110.202 78.758Z"/>
</mask>
<path d="M110.202 78.758H90.1954L89.8671 78.1573C90.3877 77.8289 90.8602 77.3082 91.4288 77.1961C95.1691 76.4111 95.6497 75.2736 93.7195 71.9013C90.5318 66.3103 87.4003 60.6791 84.2447 55.072C83.692 54.0948 83.1154 53.1256 82.3705 51.8359C81.8179 52.693 81.4014 53.2938 81.033 53.9186C77.6211 59.822 74.2333 65.7335 70.7974 71.621C68.8672 74.9292 69.5079 76.4271 73.2241 77.1961C73.8008 77.3162 74.3054 77.7728 74.842 78.0692C74.7459 78.2854 74.6418 78.5097 74.5456 78.726H56.7734C57.5984 77.965 57.9988 77.2761 58.4153 77.2601C62.3958 77.132 64.8386 74.7289 66.7288 71.669C71.1578 64.516 75.4987 57.3149 79.7756 50.0817C80.168 49.4088 80.1921 48.1352 79.8156 47.4544C75.6669 39.8768 71.4221 32.3632 67.1853 24.8337C65.5194 21.878 63.429 19.4909 59.6647 19.3468C59.3043 19.3307 58.9599 18.8742 58.7757 18.1132H79.1909C78.7905 18.6579 78.6063 19.1465 78.2699 19.3067C77.8134 19.523 77.2287 19.4509 76.7081 19.547C73.2402 20.1798 72.4633 21.7738 74.1852 24.7856C76.7401 29.2553 79.3351 33.709 81.914 38.1626C82.6989 39.5163 83.4998 40.854 84.541 42.6082C86.8476 38.6672 88.93 35.0947 91.0204 31.5382C92.3979 29.1832 93.7515 26.8202 95.1771 24.4973C97.1073 21.3413 96.6027 20.1478 92.9906 19.3868C92.5181 19.2827 92.1176 18.8261 91.6851 18.5297C92.1016 18.3054 92.5101 17.8969 92.9266 17.8969C98.0203 17.8569 103.106 17.8809 108.2 17.8969C108.472 17.8969 108.745 18.0731 109.698 18.4016C108.648 18.9062 108.12 19.3628 107.567 19.3948C103.659 19.6431 100.832 21.6377 98.8453 24.8257C94.8007 31.3219 90.8202 37.8582 86.9117 44.4345C86.5433 45.0513 86.5673 46.2368 86.9117 46.8776C91.573 55.2883 96.3224 63.6509 101.072 72.0215C102.794 75.0493 105.301 76.8997 108.881 77.2121C109.473 77.2601 110.034 77.7407 110.611 78.0211C110.475 78.2694 110.346 78.5177 110.21 78.766L110.202 78.758Z" fill="black"/>
<path d="M110.202 78.758H90.1954L89.8671 78.1573C90.3877 77.8289 90.8602 77.3082 91.4288 77.1961C95.1691 76.4111 95.6497 75.2736 93.7195 71.9013C90.5318 66.3103 87.4003 60.6791 84.2447 55.072C83.692 54.0948 83.1154 53.1256 82.3705 51.8359C81.8179 52.693 81.4014 53.2938 81.033 53.9186C77.6211 59.822 74.2333 65.7335 70.7974 71.621C68.8672 74.9292 69.5079 76.4271 73.2241 77.1961C73.8008 77.3162 74.3054 77.7728 74.842 78.0692C74.7459 78.2854 74.6418 78.5097 74.5456 78.726H56.7734C57.5984 77.965 57.9988 77.2761 58.4153 77.2601C62.3958 77.132 64.8386 74.7289 66.7288 71.669C71.1578 64.516 75.4987 57.3149 79.7756 50.0817C80.168 49.4088 80.1921 48.1352 79.8156 47.4544C75.6669 39.8768 71.4221 32.3632 67.1853 24.8337C65.5194 21.878 63.429 19.4909 59.6647 19.3468C59.3043 19.3307 58.9599 18.8742 58.7757 18.1132H79.1909C78.7905 18.6579 78.6063 19.1465 78.2699 19.3067C77.8134 19.523 77.2287 19.4509 76.7081 19.547C73.2402 20.1798 72.4633 21.7738 74.1852 24.7856C76.7401 29.2553 79.3351 33.709 81.914 38.1626C82.6989 39.5163 83.4998 40.854 84.541 42.6082C86.8476 38.6672 88.93 35.0947 91.0204 31.5382C92.3979 29.1832 93.7515 26.8202 95.1771 24.4973C97.1073 21.3413 96.6027 20.1478 92.9906 19.3868C92.5181 19.2827 92.1176 18.8261 91.6851 18.5297C92.1016 18.3054 92.5101 17.8969 92.9266 17.8969C98.0203 17.8569 103.106 17.8809 108.2 17.8969C108.472 17.8969 108.745 18.0731 109.698 18.4016C108.648 18.9062 108.12 19.3628 107.567 19.3948C103.659 19.6431 100.832 21.6377 98.8453 24.8257C94.8007 31.3219 90.8202 37.8582 86.9117 44.4345C86.5433 45.0513 86.5673 46.2368 86.9117 46.8776C91.573 55.2883 96.3224 63.6509 101.072 72.0215C102.794 75.0493 105.301 76.8997 108.881 77.2121C109.473 77.2601 110.034 77.7407 110.611 78.0211C110.475 78.2694 110.346 78.5177 110.21 78.766L110.202 78.758Z" stroke="black" stroke-width="0.8" stroke-linejoin="round" mask="url(#path-7-outside-3_216_4547)"/>
<mask id="path-8-outside-4_216_4547" maskUnits="userSpaceOnUse" x="173.422" y="17.2031" width="22" height="62" fill="black">
<rect fill="white" x="173.422" y="17.2031" width="22" height="62"/>
<path d="M194.172 78.7118H174.686C174.598 78.4875 174.51 78.2712 174.422 78.0469C174.983 77.7746 175.535 77.334 176.12 77.27C181.069 76.7093 181.598 76.1566 181.598 71.1983C181.598 55.8188 181.598 40.4473 181.598 25.0678C181.598 20.6382 180.765 19.7411 176.408 19.3726C175.759 19.3165 175.119 19.0682 174.478 18.908C174.502 18.6757 174.534 18.4354 174.558 18.2031H194.18C194.252 18.3473 194.325 18.4995 194.389 18.6437C193.868 18.884 193.363 19.2845 192.827 19.3486C187.981 19.8853 187.405 20.486 187.405 25.2601C187.405 40.7116 187.405 56.1632 187.405 71.6148C187.405 76.1325 188.093 76.8294 192.571 77.262C193.211 77.326 193.82 77.7826 194.437 78.055L194.164 78.7118H194.172Z"/>
</mask>
<path d="M194.172 78.7118H174.686C174.598 78.4875 174.51 78.2712 174.422 78.0469C174.983 77.7746 175.535 77.334 176.12 77.27C181.069 76.7093 181.598 76.1566 181.598 71.1983C181.598 55.8188 181.598 40.4473 181.598 25.0678C181.598 20.6382 180.765 19.7411 176.408 19.3726C175.759 19.3165 175.119 19.0682 174.478 18.908C174.502 18.6757 174.534 18.4354 174.558 18.2031H194.18C194.252 18.3473 194.325 18.4995 194.389 18.6437C193.868 18.884 193.363 19.2845 192.827 19.3486C187.981 19.8853 187.405 20.486 187.405 25.2601C187.405 40.7116 187.405 56.1632 187.405 71.6148C187.405 76.1325 188.093 76.8294 192.571 77.262C193.211 77.326 193.82 77.7826 194.437 78.055L194.164 78.7118H194.172Z" fill="black"/>
<path d="M194.172 78.7118H174.686C174.598 78.4875 174.51 78.2712 174.422 78.0469C174.983 77.7746 175.535 77.334 176.12 77.27C181.069 76.7093 181.598 76.1566 181.598 71.1983C181.598 55.8188 181.598 40.4473 181.598 25.0678C181.598 20.6382 180.765 19.7411 176.408 19.3726C175.759 19.3165 175.119 19.0682 174.478 18.908C174.502 18.6757 174.534 18.4354 174.558 18.2031H194.18C194.252 18.3473 194.325 18.4995 194.389 18.6437C193.868 18.884 193.363 19.2845 192.827 19.3486C187.981 19.8853 187.405 20.486 187.405 25.2601C187.405 40.7116 187.405 56.1632 187.405 71.6148C187.405 76.1325 188.093 76.8294 192.571 77.262C193.211 77.326 193.82 77.7826 194.437 78.055L194.164 78.7118H194.172Z" stroke="black" stroke-width="0.8" stroke-linejoin="round" mask="url(#path-8-outside-4_216_4547)"/>
<path d="M298.295 54.7334C297.959 60.1002 298.151 65.0344 300.954 69.4961C306.713 78.6517 319.111 78.9 326.495 70.0247C327.416 68.9193 328.145 67.6537 329.114 66.5964C329.474 66.1959 330.267 66.1879 331.293 65.8675C325.71 80.1416 309.796 84.5231 299.144 75.3595C296.357 72.9645 294.435 69.9607 293.474 66.4762C291.007 57.5449 291.103 48.7978 297.214 41.2363C305.631 30.8311 323.203 32.5773 328.633 44.3282C329.827 46.9075 329.955 50.0154 330.379 52.9071C330.628 54.6052 329.33 54.7574 327.977 54.7494C319.087 54.7254 310.189 54.7334 301.298 54.7334C300.393 54.7334 299.496 54.7334 298.295 54.7334ZM298.599 52.2342C299.384 52.2743 300.193 52.3463 300.994 52.3463C306.689 52.3544 312.383 52.3463 318.077 52.3463C325.021 52.3463 325.558 51.6014 323.452 44.8969C321.802 39.6503 316.652 36.294 311.15 36.8868C304.021 37.6477 298.607 44.16 298.599 52.2262V52.2342Z" fill="black"/>
<path d="M495.021 35.8144H506.714V41.4455C507.307 41.053 507.595 40.9569 507.731 40.7646C514.235 31.5369 531.086 31.9134 536.997 44.6255C540.961 53.1483 540.897 62.1037 536.492 70.5143C530.902 81.1999 516.966 83.2505 508.172 74.984C507.908 74.7357 507.635 74.4874 507.115 74.0148C506.987 74.7437 506.842 75.2003 506.834 75.6568C506.818 81.9448 506.802 88.2408 506.834 94.5288C506.85 98.4778 508.14 99.7273 512.184 99.9917C513.017 100.048 513.842 100.376 514.667 100.576C514.619 100.849 514.571 101.129 514.523 101.401H495.125C495.021 101.233 494.917 101.065 494.805 100.897C495.325 100.6 495.814 100.104 496.358 100.04C500.651 99.487 501.316 98.7741 501.316 94.4006C501.316 77.1948 501.316 59.989 501.316 42.7832C501.316 38.4417 500.715 37.7849 496.342 37.104C495.838 37.0239 495.357 36.7836 494.861 36.6234C494.909 36.3591 494.957 36.0947 495.005 35.8384L495.021 35.8144ZM506.826 57.9464C506.826 60.6699 506.898 63.3933 506.802 66.1168C506.722 68.5518 507.635 70.5223 509.253 72.2525C515.909 79.3656 527.498 77.6273 531.39 68.656C534.482 61.5269 534.402 53.9974 531.871 46.7242C529.676 40.4122 523.79 37.3203 517.214 38.3696C512.329 39.1546 506.41 43.456 506.794 50.4649C506.931 52.9561 506.818 55.4553 506.818 57.9544L506.826 57.9464Z" fill="black"/>
<path d="M557.736 73.8442V78.5141C557.736 83.6647 557.736 88.8232 557.736 93.9737C557.736 98.6757 558.705 99.6689 563.383 99.9813C564.136 100.029 564.872 100.414 565.609 100.638C565.545 100.903 565.481 101.159 565.417 101.423H545.835C545.755 101.199 545.667 100.975 545.587 100.75C546.171 100.494 546.732 100.069 547.333 100.005C551.385 99.5568 552.098 98.8279 552.098 94.6706C552.106 77.4648 552.098 60.267 552.098 43.0612C552.098 38.2631 551.705 37.8146 547.004 37.0696C546.548 36.9975 546.115 36.7492 545.562 36.541C546.852 35.4356 554.18 35.1392 557.696 35.9402V41.2349C558.097 41.0427 558.345 41.0106 558.441 40.8664C565.329 31.1261 582.436 32.3436 587.923 44.9036C591.695 53.5465 591.583 62.3897 587.178 70.7843C581.9 80.8531 568.156 83.0799 559.578 75.5424C559.09 75.1098 558.617 74.6613 557.728 73.8442H557.736ZM557.736 57.888C557.736 60.7637 557.52 63.6633 557.816 66.5069C558.001 68.2852 558.569 70.3037 559.659 71.6575C562.83 75.6065 567.251 77.1925 572.225 76.4235C577.663 75.5824 581.259 72.1621 582.909 67.0356C584.967 60.6355 585.031 54.0752 583.069 47.627C581.027 40.9225 575.02 37.318 568.116 38.3513C563.455 39.0481 557.144 43.3416 557.704 50.3985C557.905 52.8817 557.736 55.3888 557.736 57.888Z" fill="black"/>
<path d="M416.314 69.6577C418.98 66.1841 420.398 62.3874 420.649 58.1687C420.721 56.9031 420.03 56.2928 418.522 56.1851C417.705 56.1312 417.239 55.9517 417.624 54.9554H427.793C428.008 55.6106 428.125 56.1222 427.138 56.1761C425.226 56.2748 424.158 57.3968 423.485 59.1202C422.444 61.8129 421.385 64.5146 420.164 67.1266C419.536 68.4729 418.54 69.6488 417.508 71.2016C419.312 72.6108 421.071 74.1098 422.955 75.4202C424.014 76.1562 425.343 75.8331 426.312 74.8906C426.662 74.5496 426.958 74.1636 427.631 73.8046C427.613 74.1277 427.721 74.6214 427.541 74.756C426.429 75.6446 425.316 76.5601 424.095 77.2692C421.905 78.5348 419.733 77.9604 417.705 76.8115C416.583 76.1742 415.605 75.2856 414.537 74.4867C413.415 75.2138 412.276 76.0844 411.028 76.7307C408.04 78.2925 404.818 78.7592 401.515 78.1219C395.098 76.8743 392.11 70.1783 395.349 64.4518C396.947 61.6334 399.325 59.5959 402 57.8994C402.906 57.325 403.041 56.8403 402.619 55.8619C401.587 53.4834 400.914 51.015 401.326 48.3671C401.973 44.2383 405.886 41.366 409.951 42.0661C413.523 42.6855 415.515 46.213 414.322 49.8123C413.424 52.514 411.396 54.1835 409.036 55.5029C408.12 56.0145 407.869 56.4454 408.345 57.4776C410.274 61.7052 412.572 65.6815 415.731 69.1102C415.865 69.2538 416.018 69.3885 416.314 69.6577ZM413.029 72.916C409.251 68.7422 406.595 63.8414 404.109 58.6624C401.255 60.9692 399.11 63.5632 398.805 67.3061C398.634 69.4244 399.092 71.3632 400.573 72.9698C403.436 76.0755 409.52 76.0844 413.02 72.916H413.029ZM406.963 54.7579C408.704 53.3667 410.166 51.9575 410.651 49.9559C410.974 48.6185 410.956 47.1554 410.849 45.7642C410.75 44.5794 409.942 43.7177 408.713 43.5741C407.492 43.4305 406.595 44.0767 406.047 45.1359C405.751 45.7103 405.5 46.3296 405.401 46.9669C404.961 49.7045 406.002 52.137 406.972 54.7669L406.963 54.7579Z" fill="black"/>
</svg>
