<svg width="449" height="128" viewBox="0 0 449 128" fill="none" xmlns="http://www.w3.org/2000/svg">
<path d="M57.0873 0.296875C57.0873 0.296875 10.3203 28.0809 1.9241 63.6254C-6.47207 99.1699 15.3296 124.586 15.3296 124.586C15.3296 124.586 3.09023 90.1346 13.697 60.418C24.3037 30.7015 40.0009 15.0995 57.0873 0.296875Z" fill="black"/>
<path d="M390.999 127.562C390.999 127.562 437.766 99.7785 446.162 64.234C454.558 28.6894 432.756 3.27305 432.756 3.27305C432.756 3.27305 444.996 37.7248 434.389 67.4414C423.782 97.1579 408.085 112.76 390.999 127.562Z" fill="black"/>
<path d="M385.759 91.5144C380.309 91.5144 375.346 90.233 370.871 87.6704C366.431 85.1077 362.93 81.5705 360.367 77.0588C357.805 72.5471 356.523 67.5481 356.523 62.0619C356.523 56.5034 357.805 51.4864 360.367 47.0108C362.93 42.5352 366.431 39.016 370.871 36.4534C375.346 33.8907 380.309 32.6094 385.759 32.6094C389.333 32.6094 392.671 33.1869 395.775 34.3419C398.916 35.4608 401.677 37.0489 404.059 39.1062C406.477 41.1636 408.426 43.6541 409.906 46.5777L400.053 51.0713C398.645 48.5087 396.714 46.5416 394.259 45.17C391.841 43.7623 389.008 43.0585 385.759 43.0585C382.222 43.0585 379.082 43.8706 376.339 45.4948C373.632 47.1191 371.502 49.3749 369.95 52.2624C368.434 55.1138 367.676 58.3803 367.676 62.0619C367.676 65.7434 368.434 69.028 369.95 71.9155C371.502 74.7669 373.632 77.0047 376.339 78.6289C379.082 80.2531 382.222 81.0652 385.759 81.0652C389.008 81.0652 391.841 80.3614 394.259 78.9537C396.714 77.5461 398.645 75.579 400.053 73.0524L409.906 77.5461C408.426 80.3975 406.477 82.8699 404.059 84.9634C401.677 87.0568 398.916 88.681 395.775 89.836C392.671 90.9549 389.333 91.5144 385.759 91.5144Z" fill="black"/>
<path d="M336.219 34.1262H347.372V89.9993H336.219V34.1262ZM341.796 23.5687C340.46 23.5687 339.251 23.262 338.168 22.6484C337.121 22.0348 336.273 21.2046 335.624 20.1579C335.01 19.0751 334.703 17.8659 334.703 16.5305C334.703 15.195 335.01 13.9859 335.624 12.903C336.273 11.8202 337.121 10.9901 338.168 10.4126C339.251 9.79898 340.46 9.49219 341.796 9.49219C343.131 9.49219 344.34 9.79898 345.423 10.4126C346.542 10.9901 347.39 11.8202 347.968 12.903C348.581 13.9859 348.888 15.195 348.888 16.5305C348.888 17.8659 348.581 19.0751 347.968 20.1579C347.39 21.2046 346.542 22.0348 345.423 22.6484C344.34 23.262 343.131 23.5687 341.796 23.5687Z" fill="black"/>
<path d="M276.391 11.6016H287.544V89.9972H276.391V11.6016ZM313.206 57.8918C313.206 53.0913 312.196 49.4278 310.174 46.9012C308.189 44.3386 305.338 43.0573 301.62 43.0573C299.094 43.0573 296.766 43.6889 294.636 44.9522C292.506 46.1794 290.792 48.0562 289.493 50.5828C288.193 53.0733 287.544 56.1773 287.544 59.895L286.136 50.637V42.2993H289.276L286.136 50.637C286.136 47.0998 286.912 43.9777 288.464 41.2706C290.052 38.5275 292.254 36.398 295.069 34.882C297.921 33.3661 301.169 32.6081 304.814 32.6081C308.965 32.6081 312.502 33.5466 315.426 35.4234C318.35 37.3003 320.569 40.0073 322.085 43.5445C323.601 47.0456 324.359 51.2505 324.359 56.1593V89.9972H313.206V57.8918Z" fill="black"/>
<path d="M211.469 34.1253H222.622V47.2273L220.24 62.0619L222.622 78.7372V113.387H211.469V34.1253ZM224.354 81.6066H217.533V42.5171H224.354L218.832 62.0619C218.832 55.7455 219.698 50.3855 221.431 45.9821C223.163 41.5787 225.654 38.258 228.902 36.0202C232.187 33.7463 236.121 32.6094 240.705 32.6094C245.83 32.6094 250.396 33.8907 254.402 36.4534C258.409 39.016 261.531 42.5352 263.769 47.0108C266.042 51.4864 267.179 56.5034 267.179 62.0619C267.179 67.5481 266.042 72.5471 263.769 77.0588C261.531 81.5705 258.409 85.1077 254.402 87.6704C250.396 90.233 245.83 91.5144 240.705 91.5144C236.121 91.5144 232.187 90.3955 228.902 88.1576C225.654 85.8837 223.163 82.5451 221.431 78.1416C219.698 73.7382 218.832 68.3783 218.832 62.0619L224.354 81.6066ZM239.026 81.0652C242.275 81.0652 245.18 80.2531 247.743 78.6289C250.306 77.0047 252.291 74.7488 253.698 71.8613C255.106 68.9377 255.81 65.6712 255.81 62.0619C255.81 58.3803 255.106 55.1138 253.698 52.2624C252.291 49.3749 250.306 47.1191 247.743 45.4948C245.18 43.8706 242.275 43.0585 239.026 43.0585C235.814 43.0585 232.926 43.8706 230.364 45.4948C227.801 47.1191 225.798 49.3749 224.354 52.2624C222.91 55.1138 222.189 58.3803 222.189 62.0619C222.189 65.7434 222.91 69.028 224.354 71.9155C225.798 74.7669 227.801 77.0047 230.364 78.6289C232.926 80.2531 235.814 81.0652 239.026 81.0652Z" fill="black"/>
<path d="M192.191 62.0619C192.191 68.3783 191.325 73.7382 189.593 78.1416C187.896 82.5451 185.406 85.8837 182.121 88.1576C178.873 90.3955 174.939 91.5144 170.319 91.5144C165.301 91.5144 160.772 90.233 156.729 87.6704C152.723 85.1077 149.565 81.5705 147.255 77.0588C144.981 72.5471 143.844 67.5481 143.844 62.0619C143.844 56.5034 144.981 51.4864 147.255 47.0108C149.565 42.5352 152.723 39.016 156.729 36.4534C160.772 33.8907 165.301 32.6094 170.319 32.6094C174.939 32.6094 178.873 33.7463 182.121 36.0202C185.406 38.258 187.896 41.5787 189.593 45.9821C191.325 50.3855 192.191 55.7455 192.191 62.0619L186.669 42.5171H193.491V81.6066H186.669L192.191 62.0619ZM172.051 81.0652C175.299 81.0652 178.187 80.2531 180.714 78.6289C183.276 77.0047 185.261 74.7669 186.669 71.9155C188.113 69.028 188.835 65.7434 188.835 62.0619C188.835 58.3803 188.113 55.1138 186.669 52.2624C185.261 49.3749 183.276 47.1191 180.714 45.4948C178.187 43.8706 175.299 43.0585 172.051 43.0585C168.766 43.0585 165.861 43.8706 163.334 45.4948C160.808 47.1191 158.823 49.3749 157.379 52.2624C155.935 55.1138 155.213 58.3803 155.213 62.0619C155.213 65.6712 155.935 68.9377 157.379 71.8613C158.823 74.7488 160.808 77.0047 163.334 78.6289C165.861 80.2531 168.766 81.0652 172.051 81.0652ZM188.401 89.9984V78.7372L190.784 62.0619L188.401 47.2273V34.1253H199.609V89.9984H188.401Z" fill="black"/>
<path d="M107.953 34.1253H119.106V89.9984H107.953V34.1253ZM117.319 52.6955V42.6254H120.839L117.319 52.6955C117.319 48.9779 118.077 45.5851 119.593 42.5171C121.109 39.4491 123.131 37.0309 125.657 35.2623C128.22 33.4937 131.053 32.6094 134.157 32.6094C136.106 32.6094 138.001 32.9703 139.842 33.6922V44.5745C137.785 43.9248 135.709 43.5999 133.616 43.5999C130.548 43.5999 127.931 44.3579 125.765 45.8738C123.636 47.3537 121.994 49.5554 120.839 52.479C119.684 55.3665 119.106 58.8676 119.106 62.9823L117.319 52.6955Z" fill="black"/>
<path d="M88.6757 61.1956C88.6757 67.2955 87.8094 72.493 86.077 76.7881C84.3805 81.0833 81.8901 84.3317 78.6055 86.5334C75.3571 88.6991 71.4229 89.7819 66.8029 89.7819C61.7859 89.7819 57.2561 88.5366 53.2136 86.0462C49.2072 83.5557 46.049 80.1268 43.739 75.7594C41.4651 71.3921 40.3281 66.5375 40.3281 61.1956C40.3281 55.8537 41.4651 50.9991 43.739 46.6318C46.049 42.2645 49.2072 38.8355 53.2136 36.3451C57.2561 33.8546 61.7859 32.6094 66.8029 32.6094C71.4229 32.6094 75.3571 33.7102 78.6055 35.912C81.8901 38.0776 84.3805 41.2899 86.077 45.549C87.8094 49.808 88.6757 55.0236 88.6757 61.1956L83.1534 42.1923H90.0834V80.199H83.1534L88.6757 61.1956ZM68.5354 79.441C71.7838 79.441 74.6713 78.665 77.1979 77.113C79.7605 75.5609 81.7457 73.3953 83.1534 70.6161C84.5971 67.8369 85.319 64.6967 85.319 61.1956C85.319 57.6223 84.5971 54.4641 83.1534 51.721C81.7457 48.9779 79.7605 46.8303 77.1979 45.2783C74.6713 43.7262 71.7838 42.9502 68.5354 42.9502C65.2509 42.9502 62.3453 43.7262 59.8187 45.2783C57.2922 46.8303 55.307 48.9959 53.8633 51.7752C52.4195 54.5544 51.6977 57.6945 51.6977 61.1956C51.6977 64.6967 52.4195 67.8369 53.8633 70.6161C55.307 73.3953 57.2922 75.5609 59.8187 77.113C62.3453 78.665 65.2509 79.441 68.5354 79.441ZM67.2902 114.903C61.7678 114.903 56.9132 113.766 52.7263 111.492C48.5395 109.254 44.7857 105.844 41.4651 101.26L49.8569 95.0335C52.2752 98.4263 54.8378 100.881 57.5448 102.397C60.288 103.913 63.4642 104.671 67.0736 104.671C72.8486 104.671 77.252 102.92 80.2839 99.4189C83.3519 95.9539 84.8859 90.9369 84.8859 84.3678V76.8964L87.3763 62.0619L84.8859 45.3866V34.1253H96.0388V84.3678C96.0388 90.6842 94.8838 96.1344 92.5738 100.718C90.2638 105.302 86.9432 108.803 82.6119 111.222C78.3168 113.676 73.2095 114.903 67.2902 114.903Z" fill="black"/>
</svg>
