<svg width="30" height="37" viewBox="0 0 30 37" fill="none" xmlns="http://www.w3.org/2000/svg">
<g opacity="0.3">
<rect x="4" y="3" width="26" height="34" fill="url(#paint0_linear_1072_21971)"/>
<rect x="8" y="6" width="8" height="4" fill="white"/>
<rect x="8" y="13" width="18" height="1" fill="white"/>
<rect x="8" y="16" width="18" height="1" fill="white"/>
<rect x="8" y="19" width="18" height="1" fill="white"/>
<rect x="8" y="22" width="18" height="1" fill="white"/>
<rect x="8" y="25" width="18" height="1" fill="white"/>
<rect x="8" y="28" width="9" height="1" fill="white"/>
</g>
<rect width="26" height="34" fill="url(#paint1_linear_1072_21971)"/>
<rect x="4" y="3" width="8" height="4" fill="white"/>
<rect x="4" y="10" width="18" height="1" fill="white"/>
<rect x="4" y="13" width="18" height="1" fill="white"/>
<rect x="4" y="16" width="18" height="1" fill="white"/>
<rect x="4" y="19" width="18" height="1" fill="white"/>
<rect x="4" y="22" width="18" height="1" fill="white"/>
<rect x="4" y="25" width="9" height="1" fill="white"/>
<defs>
<linearGradient id="paint0_linear_1072_21971" x1="17" y1="3" x2="17" y2="37" gradientUnits="userSpaceOnUse">
<stop stop-color="#4D89FF"/>
<stop offset="1" stop-color="#A2C1FA"/>
</linearGradient>
<linearGradient id="paint1_linear_1072_21971" x1="13" y1="0" x2="13" y2="34" gradientUnits="userSpaceOnUse">
<stop stop-color="#4D89FF"/>
<stop offset="1" stop-color="#A2C1FA"/>
</linearGradient>
</defs>
</svg>
