<svg width="15" height="15" viewBox="0 0 15 15" fill="none" xmlns="http://www.w3.org/2000/svg">
<path d="M7.5 15C11.6423 15 15 11.6423 15 7.5C15 3.35775 11.6423 0 7.5 0C3.35775 0 0 3.35775 0 7.5C0 11.6423 3.35775 15 7.5 15Z" fill="#6888FD"/>
<mask id="path-2-outside-1_1379_76021" maskUnits="userSpaceOnUse" x="3" y="3" width="9" height="9" fill="black">
<rect fill="white" x="3" y="3" width="9" height="9"/>
<path fill-rule="evenodd" clip-rule="evenodd" d="M7.88715 7.10938L7.88715 4H7.10938V7.10938H4V7.88715H7.10938V11H7.88715L7.88715 7.88715H11V7.10938H7.88715Z"/>
</mask>
<path fill-rule="evenodd" clip-rule="evenodd" d="M7.88715 7.10938L7.88715 4H7.10938V7.10938H4V7.88715H7.10938V11H7.88715L7.88715 7.88715H11V7.10938H7.88715Z" fill="white"/>
<path d="M7.88715 4L8.08715 4V3.8H7.88715V4ZM7.88715 7.10938H7.68715V7.30938H7.88715V7.10938ZM7.10938 4V3.8H6.90938V4H7.10938ZM7.10938 7.10938V7.30938H7.30938V7.10938H7.10938ZM4 7.10938V6.90937H3.8V7.10938H4ZM4 7.88715H3.8V8.08715H4V7.88715ZM7.10938 7.88715H7.30938V7.68715H7.10938V7.88715ZM7.10938 11H6.90937V11.2H7.10938V11ZM7.88715 11V11.2H8.08715V11H7.88715ZM7.88715 7.88715V7.68715H7.68715V7.88715H7.88715ZM11 7.88715V8.08715H11.2V7.88715H11ZM11 7.10938H11.2V6.90937H11V7.10938ZM7.68715 4L7.68715 7.10938H8.08715V4L7.68715 4ZM7.10938 4.2H7.88715V3.8H7.10938V4.2ZM7.30938 7.10938V4H6.90938V7.10938H7.30938ZM4 7.30938H7.10938V6.90937H4V7.30938ZM4.2 7.88715V7.10938H3.8V7.88715H4.2ZM7.10938 7.68715H4V8.08715H7.10938V7.68715ZM7.30938 11V7.88715H6.90937V11H7.30938ZM7.88715 10.8H7.10938V11.2H7.88715V10.8ZM7.68715 7.88715L7.68715 11H8.08715L8.08715 7.88715H7.68715ZM11 7.68715H7.88715V8.08715H11V7.68715ZM10.8 7.10938V7.88715H11.2V7.10938H10.8ZM7.88715 7.30938H11V6.90937H7.88715V7.30938Z" fill="white" mask="url(#path-2-outside-1_1379_76021)"/>
</svg>
