<svg width="436" height="96" viewBox="0 0 436 96" fill="none" xmlns="http://www.w3.org/2000/svg">
<path d="M73.2707 27.2963C75.2127 27.3384 77.0517 26.7581 78.4789 25.6117C79.8126 24.5401 80.5941 23.4545 80.5941 23.4545L78.3573 29.6079L75.6666 38.2649C73.4439 45.2372 71.3568 52.2751 69.3166 59.3317C67.9876 63.9222 66.4762 68.4707 65.6433 73.2343C65.4982 74.0626 65.3765 75.3401 65.4654 76.5099C65.5731 77.9091 66.4855 78.7327 67.7256 78.2554C69.0265 77.7547 70.2899 76.9966 71.2352 76.0794C73.9212 73.4636 75.339 71.7697 78.9703 65.9157L79.0545 66.8609C76.9534 70.4313 74.8009 73.9737 71.7733 76.8001C70.7298 77.7781 69.4664 78.611 68.114 79.1772C65.2408 80.3845 62.0962 78.2554 61.7359 74.947C61.6049 73.735 61.6704 71.896 61.633 70.6887L60.6456 71.8867C58.7036 74.5539 53.5984 78.3911 49.9671 79.1304C48.334 79.4627 46.5277 79.9493 44.7683 78.859C43.0696 77.8061 42.4847 76.2011 42.3864 74.4884C42.1759 70.8338 43.2334 67.605 44.1927 64.3528L53.9634 31.0445C54.3096 29.7857 54.684 28.5363 54.5951 27.0904C54.5389 26.1451 54.45 25.1999 53.4767 24.5401C52.7186 24.0254 51.5441 24.2219 50.7673 24.7085C49.05 25.7895 47.7865 27.3805 46.7524 29.0417C46.7524 29.0417 45.4702 31.2691 44.4594 35.8222C43.4487 40.3753 44.7402 30.1741 44.7402 30.1741C46.2704 27.6192 47.8988 25.0361 50.7439 23.6791C54.0897 22.0787 57.6882 23.5621 58.3714 27.4086C58.3714 27.4086 58.8674 30.6093 57.7724 34.4933L47.0846 70.4641C46.5465 72.3874 46.2283 73.8005 46.0551 76.4164C46.1347 77.984 47.1314 78.6625 48.6382 78.3724C48.9985 78.3022 50.159 77.9933 50.3976 77.9044C52.2647 77.2025 55.3625 75.4664 56.5511 74.4884C58.6756 72.7336 61.0106 70.3284 62.26 67.4973L74.0054 29.4395C74.216 28.7516 73.6872 28.2977 72.9057 27.9374C72.9057 27.9374 72.4472 27.7502 72.5267 27.4647C72.5875 27.2401 73.2707 27.2963 73.2707 27.2963Z" fill="white"/>
<path d="M79.883 28.993C81.5348 27.5517 83.1352 26.0356 84.9274 24.7721C86.6635 23.5461 89.2091 23.8643 90.7065 25.2541C91.7079 26.1853 92.204 27.3786 92.087 28.5999C91.8624 31.0285 91.7032 33.4993 91.1277 35.8203C89.284 43.1904 87.2625 50.4997 85.3111 57.8323C84.1132 62.334 82.9199 66.8356 81.7314 71.3419C81.6378 71.6928 81.591 72.0578 81.5255 72.4182C81.6378 72.4696 81.7501 72.5258 81.8624 72.5773C82.452 71.2717 83.0463 69.9661 83.6359 68.6559C85.4749 64.5614 87.3139 60.4715 89.1483 56.377C90.889 52.4884 92.5689 48.5671 94.3799 44.7159C96.5933 40.0177 99.3261 35.6565 102.414 31.5292C104.314 28.9883 106.312 26.5503 109.017 24.8189C109.766 24.3369 110.735 24.0187 111.656 23.9813C112.26 23.9579 113.21 24.4399 113.547 24.9546C113.884 25.474 113.912 26.4801 113.617 26.9761C113.215 27.6593 112.485 28.3004 111.717 28.5484C104.502 30.9022 100.089 36.2274 96.6213 42.4464C94.7028 45.8857 93.196 49.5825 91.5582 53.195C89.05 58.7261 86.5933 64.29 84.1179 69.8351C82.803 72.7831 81.4553 75.7125 80.1778 78.6792C79.8643 79.4092 79.401 79.6806 78.6102 79.6339C77.9457 79.5964 77.2812 79.5917 76.6261 79.6432C75.6762 79.7181 75.4188 79.4186 75.6668 78.4921C76.832 74.0981 77.9363 69.6854 79.0781 65.282C80.3229 60.4809 81.5863 55.6845 82.8357 50.8834C84.5016 44.4819 86.1862 38.0851 87.81 31.6696C88.1562 30.2938 88.3247 28.8385 88.4698 27.402C88.6523 25.5957 87.5386 24.6083 85.9616 25.4085C84.2068 26.2976 82.6907 27.6079 81.1652 28.8479L79.8877 29.0023L79.883 28.993Z" fill="white"/>
<path d="M40.0262 52.2277C37.5835 58.8397 34.0786 64.9417 29.4413 70.0985C28.0422 71.6567 26.5494 73.1307 24.921 74.4784C22.0431 76.8649 19.0202 79.0268 14.9819 79.5837C8.66462 80.4541 4.28466 76.5187 2.16956 70.9876C-0.94227 62.836 -0.259072 54.9137 1.43488 47.1692C3.1382 39.3592 6.24535 32.2231 10.761 25.845C14.5981 20.4262 19.2401 15.8778 25.7025 13.5007C29.6519 12.0454 34.0365 11.1563 38.2621 13.1918C43.6762 15.8029 49.4132 26.8043 40.0262 52.2277ZM40.5784 17.8993C39.8671 16.4581 37.9766 14.4412 36.2031 13.7674C34.0131 12.9344 31.9167 13.0046 29.8484 13.4398C25.3889 14.3757 21.9261 16.8511 18.9266 19.9302C14.9725 23.992 12.0619 28.8071 9.9421 34.1229C9.04365 36.3691 8.27622 38.6807 7.45732 41.1187C6.8256 42.9905 6.38105 44.9371 6.119 46.9352C5.19247 53.1729 4.79472 59.4855 6.23599 65.9431C6.76009 68.2922 7.76149 70.6787 8.97814 72.85C10.7844 76.0741 15.5153 77.3142 19.2401 75.9665C24.088 74.2117 27.476 70.7396 30.6159 66.9913C32.4689 64.778 34.1629 62.4195 35.4778 59.9207C49.1792 33.9638 40.5831 17.8993 40.5831 17.8993H40.5784Z" fill="white"/>
<path d="M121.87 79.896V78.648C123.395 78.1627 124.435 77.1573 124.99 75.632C125.545 74.1067 125.822 71.368 125.822 67.416V23.632C125.822 19.68 125.545 16.9413 124.99 15.416C124.435 13.8213 123.395 12.816 121.87 12.4V11.152C131.993 11.0827 138.822 11.048 142.358 11.048C147.142 11.048 151.302 11.6027 154.838 12.712C158.374 13.8213 161.113 15.3467 163.054 17.288C164.995 19.16 166.417 21.2053 167.318 23.424C168.219 25.5733 168.67 27.9307 168.67 30.496C168.67 37.2213 166.243 42.5947 161.39 46.616C156.606 50.6373 149.742 52.648 140.798 52.648H133.83V67.416C133.83 71.4373 134.107 74.2107 134.662 75.736C135.217 77.192 136.257 78.1627 137.782 78.648V79.896H121.87ZM133.83 51.192H140.59C146.83 51.192 151.614 49.5973 154.942 46.408C158.339 43.1493 160.038 38.608 160.038 32.784C160.038 30.0107 159.657 27.48 158.894 25.192C158.201 22.8347 157.057 20.72 155.462 18.848C153.937 16.9067 151.787 15.416 149.014 14.376C146.241 13.2667 142.947 12.712 139.134 12.712C137.47 12.712 135.702 12.712 133.83 12.712V51.192ZM198.55 29.456C200.006 29.8027 200.907 30.5307 201.254 31.64C201.67 32.68 201.566 33.6507 200.942 34.552C200.387 35.4533 199.59 35.904 198.55 35.904C197.926 35.904 197.059 35.7653 195.95 35.488C194.91 35.1413 194.008 34.9333 193.246 34.864C192.483 34.7253 191.304 34.8293 189.71 35.176C186.798 35.9387 184.614 38.3653 183.158 42.456V66.584C183.158 70.6053 183.435 73.4133 183.99 75.008C184.614 76.5333 185.688 77.5387 187.214 78.024V79.272H171.406V78.024C173 77.5387 174.04 76.5333 174.526 75.008C175.08 73.4827 175.358 70.6747 175.358 66.584V43.704C175.358 40.376 175.046 38.1573 174.422 37.048C173.867 35.8693 172.862 35.1413 171.406 34.864V33.408L181.91 29.456H183.158V38.92C184.683 35.8693 186.936 33.3733 189.918 31.432C192.899 29.4213 195.776 28.7627 198.55 29.456ZM225.925 28.832C229.184 28.832 232.304 29.352 235.285 30.392C238.266 31.3627 241.04 32.8187 243.605 34.76C246.17 36.7013 248.216 39.3707 249.741 42.768C251.266 46.096 252.029 49.8747 252.029 54.104C252.029 58.1947 251.232 61.9733 249.637 65.44C248.042 68.8373 245.962 71.6107 243.397 73.76C240.832 75.84 238.024 77.4693 234.973 78.648C231.992 79.8267 228.976 80.416 225.925 80.416C222.666 80.416 219.512 79.896 216.461 78.856C213.48 77.816 210.706 76.3253 208.141 74.384C205.645 72.3733 203.634 69.704 202.109 66.376C200.584 63.048 199.821 59.304 199.821 55.144C199.821 47.5867 202.421 41.312 207.621 36.32C212.821 31.328 218.922 28.832 225.925 28.832ZM228.941 78.232C234.002 78.232 237.85 76.4987 240.485 73.032C243.12 69.5653 244.437 65.232 244.437 60.032C244.437 55.5947 243.501 51.1227 241.629 46.616C239.826 42.04 237.157 38.192 233.621 35.072C230.154 31.952 226.376 30.496 222.285 30.704C217.432 30.912 213.757 32.784 211.261 36.32C208.765 39.7867 207.517 44.1547 207.517 49.424C207.517 53.792 208.349 58.16 210.013 62.528C211.677 66.896 214.208 70.6053 217.605 73.656C221.002 76.7067 224.781 78.232 228.941 78.232ZM302.241 65.44L303.177 66.272C296.313 75.7013 288.444 80.416 279.569 80.416C276.657 80.416 273.814 79.896 271.041 78.856C268.268 77.7467 265.737 76.2213 263.449 74.28C261.161 72.2693 259.324 69.6693 257.937 66.48C256.62 63.2907 255.961 59.7547 255.961 55.872C255.961 51.3653 257.001 47.032 259.081 42.872C261.161 38.712 264.038 35.3493 267.713 32.784C271.388 30.2187 275.34 28.936 279.569 28.936C284.076 28.936 288.062 29.9413 291.529 31.952C295.065 33.9627 297.422 36.1467 298.601 38.504C299.156 39.6133 298.982 40.584 298.081 41.416C297.18 42.1787 296.14 42.248 294.961 41.624C294.406 41.2773 293.817 40.6533 293.193 39.752C292.638 38.8507 292.049 37.9147 291.425 36.944C290.801 35.904 290.004 34.8987 289.033 33.928C288.132 32.888 286.884 32.056 285.289 31.432C283.764 30.7387 281.961 30.392 279.881 30.392C275.236 30.392 271.249 32.472 267.921 36.632C264.662 40.7227 263.033 45.5413 263.033 51.088C263.033 57.952 264.974 63.4987 268.857 67.728C272.809 71.9573 278.009 74.072 284.457 74.072C291.182 74.072 297.11 71.1947 302.241 65.44ZM352.084 65.44L353.02 66.272C346.156 75.7013 338.286 80.416 329.412 80.416C326.638 80.416 323.865 79.896 321.092 78.856C318.388 77.816 315.857 76.3253 313.5 74.384C311.212 72.4427 309.34 69.8773 307.884 66.688C306.497 63.4293 305.804 59.824 305.804 55.872C305.804 47.968 308.369 41.4853 313.5 36.424C318.7 31.3627 324.87 28.832 332.012 28.832C338.113 28.832 342.966 30.5307 346.572 33.928C350.177 37.3253 352.049 41.4853 352.188 46.408H313.188C312.98 47.9333 312.876 49.4933 312.876 51.088C312.876 57.952 314.817 63.4987 318.7 67.728C322.652 71.9573 327.852 74.072 334.3 74.072C341.025 74.072 346.953 71.1947 352.084 65.44ZM328.788 30.6C324.697 30.5307 321.334 31.848 318.7 34.552C316.065 37.256 314.332 40.792 313.5 45.16H344.18C343.625 41.416 341.961 38.0533 339.188 35.072C336.484 32.0907 333.017 30.6 328.788 30.6ZM377.259 49.944C377.536 50.0827 378.022 50.256 378.715 50.464C380.656 51.088 382.112 51.5733 383.083 51.92C384.123 52.2667 385.44 52.8907 387.035 53.792C388.699 54.624 389.947 55.4907 390.779 56.392C391.611 57.224 392.339 58.368 392.963 59.824C393.656 61.28 394.003 62.9093 394.003 64.712C394.003 69.1493 392.374 72.8587 389.115 75.84C385.926 78.8213 381.454 80.312 375.699 80.312C368.835 80.312 363.392 78.3707 359.371 74.488C356.875 72.1307 356.008 70.1893 356.771 68.664C356.979 68.3173 357.222 68.04 357.499 67.832C358.331 67.208 359.163 67.0693 359.995 67.416C360.896 67.6933 361.624 68.248 362.179 69.08C362.803 69.912 363.566 70.9173 364.467 72.096C365.438 73.2053 366.374 74.3147 367.275 75.424C368.176 76.464 369.355 77.3653 370.811 78.128C372.336 78.8213 373.966 79.168 375.699 79.168C379.651 79.168 382.806 78.2667 385.163 76.464C387.52 74.592 388.699 72.2347 388.699 69.392C388.699 68.0053 388.387 66.7573 387.763 65.648C387.208 64.4693 386.55 63.5333 385.787 62.84C385.094 62.0773 383.984 61.3493 382.459 60.656C380.934 59.8933 379.651 59.3387 378.611 58.992C377.571 58.576 376.046 58.056 374.035 57.432C371.4 56.6 369.112 55.768 367.171 54.936C365.23 54.0347 363.392 52.96 361.659 51.712C359.926 50.464 358.678 49.008 357.915 47.344C357.222 45.6107 357.048 43.704 357.395 41.624C357.88 38.3653 359.579 35.4533 362.491 32.888C365.403 30.2533 369.424 28.936 374.555 28.936C376.774 28.936 378.854 29.2133 380.795 29.768C382.736 30.2533 384.262 30.8773 385.371 31.64C386.55 32.4027 387.555 33.2347 388.387 34.136C389.288 35.0373 389.774 35.904 389.843 36.736C389.982 37.4987 389.982 38.1227 389.843 38.608C389.288 39.7173 388.387 40.0987 387.139 39.752C385.96 39.4053 384.99 38.4693 384.227 36.944C382.008 32.368 378.299 30.08 373.099 30.08C370.534 30.08 368.211 30.8773 366.131 32.472C364.051 34.0667 363.011 36.0773 363.011 38.504C363.011 39.96 363.323 41.2773 363.947 42.456C364.64 43.6347 365.715 44.7093 367.171 45.68C368.696 46.5813 370.152 47.344 371.539 47.968C372.995 48.5227 374.902 49.1813 377.259 49.944ZM418.571 49.944C418.848 50.0827 419.333 50.256 420.027 50.464C421.968 51.088 423.424 51.5733 424.395 51.92C425.435 52.2667 426.752 52.8907 428.347 53.792C430.011 54.624 431.259 55.4907 432.091 56.392C432.923 57.224 433.651 58.368 434.275 59.824C434.968 61.28 435.315 62.9093 435.315 64.712C435.315 69.1493 433.685 72.8587 430.427 75.84C427.237 78.8213 422.765 80.312 417.011 80.312C410.147 80.312 404.704 78.3707 400.683 74.488C398.187 72.1307 397.32 70.1893 398.083 68.664C398.291 68.3173 398.533 68.04 398.811 67.832C399.643 67.208 400.475 67.0693 401.307 67.416C402.208 67.6933 402.936 68.248 403.491 69.08C404.115 69.912 404.877 70.9173 405.779 72.096C406.749 73.2053 407.685 74.3147 408.587 75.424C409.488 76.464 410.667 77.3653 412.123 78.128C413.648 78.8213 415.277 79.168 417.011 79.168C420.963 79.168 424.117 78.2667 426.475 76.464C428.832 74.592 430.011 72.2347 430.011 69.392C430.011 68.0053 429.699 66.7573 429.075 65.648C428.52 64.4693 427.861 63.5333 427.099 62.84C426.405 62.0773 425.296 61.3493 423.771 60.656C422.245 59.8933 420.963 59.3387 419.923 58.992C418.883 58.576 417.357 58.056 415.347 57.432C412.712 56.6 410.424 55.768 408.483 54.936C406.541 54.0347 404.704 52.96 402.971 51.712C401.237 50.464 399.989 49.008 399.227 47.344C398.533 45.6107 398.36 43.704 398.707 41.624C399.192 38.3653 400.891 35.4533 403.803 32.888C406.715 30.2533 410.736 28.936 415.867 28.936C418.085 28.936 420.165 29.2133 422.107 29.768C424.048 30.2533 425.573 30.8773 426.683 31.64C427.861 32.4027 428.867 33.2347 429.699 34.136C430.6 35.0373 431.085 35.904 431.155 36.736C431.293 37.4987 431.293 38.1227 431.155 38.608C430.6 39.7173 429.699 40.0987 428.451 39.752C427.272 39.4053 426.301 38.4693 425.539 36.944C423.32 32.368 419.611 30.08 414.411 30.08C411.845 30.08 409.523 30.8773 407.443 32.472C405.363 34.0667 404.323 36.0773 404.323 38.504C404.323 39.96 404.635 41.2773 405.259 42.456C405.952 43.6347 407.027 44.7093 408.483 45.68C410.008 46.5813 411.464 47.344 412.851 47.968C414.307 48.5227 416.213 49.1813 418.571 49.944Z" fill="white"/>
</svg>
