<svg width="53" height="50" viewBox="0 0 53 50" fill="none" xmlns="http://www.w3.org/2000/svg">
<path fill-rule="evenodd" clip-rule="evenodd" d="M0.324298 13.4916C0.217529 13.1948 0.112231 12.8977 0.00839971 12.6005L190.748 -55.9965C190.857 -55.7012 190.965 -55.4051 191.072 -55.1083C210.015 -2.43445 182.672 55.6227 129.998 74.566C77.3247 93.5094 19.2677 66.1654 0.324298 13.4916ZM34.9415 109.761C34.8347 109.464 34.7294 109.167 34.6256 108.87L225.365 40.2731C225.474 40.5683 225.582 40.8644 225.689 41.1613C244.633 93.8351 217.289 151.892 164.615 170.836C111.942 189.779 53.8849 162.435 34.9415 109.761Z" fill="url(#paint0_linear_1133_40822)"/>
<defs>
<linearGradient id="paint0_linear_1133_40822" x1="95.376" y1="-21.6972" x2="164.618" y2="170.835" gradientUnits="userSpaceOnUse">
<stop stop-color="#5175F9"/>
<stop offset="1" stop-color="#5175F9" stop-opacity="0"/>
</linearGradient>
</defs>
</svg>
