<svg width="136" height="186" viewBox="0 0 136 186" fill="none" xmlns="http://www.w3.org/2000/svg">
<path fill-rule="evenodd" clip-rule="evenodd" d="M0.316485 44.4916C0.209717 44.1948 0.104419 43.8977 0.00058721 43.6005L190.74 -24.9965C190.849 -24.7012 190.957 -24.4051 191.064 -24.1083C210.008 28.5655 182.664 86.6227 129.99 105.566C77.3169 124.509 19.2599 97.1654 0.316485 44.4916ZM34.9337 140.761C34.8269 140.464 34.7216 140.167 34.6178 139.87L225.357 71.2731C225.466 71.5683 225.574 71.8644 225.681 72.1613C244.625 124.835 217.281 182.892 164.608 201.836C111.934 220.779 53.8771 193.435 34.9337 140.761Z" fill="url(#paint0_linear_1072_21880)"/>
<defs>
<linearGradient id="paint0_linear_1072_21880" x1="95.3681" y1="9.30279" x2="164.61" y2="201.835" gradientUnits="userSpaceOnUse">
<stop stop-color="#5175F9"/>
<stop offset="1" stop-color="#5175F9" stop-opacity="0"/>
</linearGradient>
</defs>
</svg>
