<svg width="151" height="137" viewBox="0 0 151 137" fill="none" xmlns="http://www.w3.org/2000/svg">
<path fill-rule="evenodd" clip-rule="evenodd" d="M0.316485 69.4916C0.209717 69.1948 0.104419 68.8977 0.00058721 68.6005L190.74 0.00352953C190.849 0.298793 190.957 0.594869 191.064 0.891747C210.008 53.5655 182.664 111.623 129.99 130.566C77.3169 149.509 19.2599 122.165 0.316485 69.4916ZM34.9337 165.761C34.8269 165.464 34.7216 165.167 34.6178 164.87L225.357 96.2731C225.466 96.5683 225.574 96.8644 225.681 97.1613C244.625 149.835 217.281 207.892 164.608 226.836C111.934 245.779 53.8771 218.435 34.9337 165.761Z" fill="url(#paint0_linear_1072_21898)"/>
<defs>
<linearGradient id="paint0_linear_1072_21898" x1="95.3681" y1="34.3028" x2="164.61" y2="226.835" gradientUnits="userSpaceOnUse">
<stop stop-color="#5175F9"/>
<stop offset="0.296008" stop-color="#5175F9" stop-opacity="0"/>
</linearGradient>
</defs>
</svg>
