<svg width="140" height="178" viewBox="0 0 140 178" fill="none" xmlns="http://www.w3.org/2000/svg">
<path fill-rule="evenodd" clip-rule="evenodd" d="M-33.6554 141.26C-16.5184 148.534 2.56171 144.617 15.4395 132.801C15.8871 150.272 26.325 166.717 43.4618 173.991C66.8457 183.915 93.8477 173.005 103.772 149.621C110.782 133.105 107.398 114.784 96.5662 101.95C113.32 100.822 128.846 90.5292 135.854 74.0154C145.779 50.6316 134.869 23.6296 111.485 13.7048C94.3495 6.43212 75.2715 10.3474 62.3938 22.1602C61.9463 4.68896 51.5084 -11.7562 34.3714 -19.0296C10.9876 -28.9544 -16.0144 -18.0437 -25.9392 5.34019C-32.9498 21.8578 -29.5643 40.1808 -18.73 53.015C-35.4863 54.1399 -51.0152 64.4336 -58.0251 80.9496C-67.9499 104.333 -57.0392 131.335 -33.6554 141.26Z" fill="url(#paint0_linear_1072_21892)"/>
<defs>
<linearGradient id="paint0_linear_1072_21892" x1="72.9321" y1="-2.66331" x2="4.9011" y2="157.625" gradientUnits="userSpaceOnUse">
<stop stop-color="#5175F9"/>
<stop offset="0.660946" stop-color="#5175F9" stop-opacity="0"/>
</linearGradient>
</defs>
</svg>
