<svg width="157" height="111" viewBox="0 0 157 111" fill="none" xmlns="http://www.w3.org/2000/svg">
<path id="Union" fill-rule="evenodd" clip-rule="evenodd" d="M-16.6554 164.26C0.481576 171.534 19.5617 167.617 32.4395 155.801C32.8871 173.272 43.325 189.717 60.4618 196.991C83.8457 206.915 110.848 196.005 120.772 172.621C127.782 156.105 124.398 137.784 113.566 124.95C130.32 123.822 145.846 113.529 152.854 97.0154C162.779 73.6316 151.869 46.6296 128.485 36.7048C111.35 29.4321 92.2715 33.3474 79.3938 45.1602C78.9463 27.689 68.5084 11.2438 51.3714 3.97043C27.9876 -5.95437 0.985615 4.95635 -8.93918 28.3402C-15.9498 44.8578 -12.5643 63.1808 -1.73003 76.015C-18.4863 77.1399 -34.0152 87.4336 -41.0251 103.95C-50.9499 127.333 -40.0392 154.335 -16.6554 164.26Z" fill="url(#paint0_linear_1072_21871)"/>
<defs>
<linearGradient id="paint0_linear_1072_21871" x1="89.9321" y1="20.3367" x2="21.9011" y2="180.625" gradientUnits="userSpaceOnUse">
<stop stop-color="#5175F9"/>
<stop offset="0.660946" stop-color="#5175F9" stop-opacity="0"/>
</linearGradient>
</defs>
</svg>
