<svg width="522" height="224" viewBox="0 0 522 224" fill="none" xmlns="http://www.w3.org/2000/svg">
<path d="M360.75 184.628C358.062 184.628 356.505 183.74 356.084 181.952C355.663 180.17 356.063 177.973 357.277 175.375C357.634 174.607 358.076 173.812 358.603 172.988C359.129 172.171 359.69 171.326 360.286 170.46C363.135 166.608 366.804 162.291 371.28 157.517C375.757 152.743 379.931 148.476 383.797 144.715C386.028 142.596 387.894 141.075 389.375 140.159C390.855 139.244 392.321 138.568 393.774 138.131C395.226 137.695 396.952 137.195 398.944 136.61C399.513 136.42 400.06 136.272 400.586 136.174C401.112 136.082 401.681 135.984 402.305 135.885C399.485 137.815 396.461 140.131 393.24 142.828C390.013 145.525 386.147 149.243 381.643 153.961C379.223 156.468 376.697 159.264 374.066 162.348C371.428 165.432 369.049 168.326 366.931 171.023C364.812 173.72 363.338 175.847 362.525 177.389C361.577 179.22 361.213 180.522 361.43 181.29C361.648 182.064 362.237 182.445 363.198 182.445C364.833 182.445 366.657 181.867 368.692 180.712C370.719 179.558 372.599 178.353 374.339 177.1C377.574 174.692 380.801 172.037 384.021 169.15C387.242 166.263 390.525 163.172 393.879 159.897C394.342 159.517 394.672 159.32 394.868 159.32C395.254 159.32 395.31 159.609 395.043 160.186C394.819 160.672 394.545 161.052 394.216 161.341C391.002 164.524 387.698 167.706 384.295 170.882C380.892 174.065 377.146 177.051 373.063 179.846C371.231 181.1 369.246 182.212 367.12 183.17C364.987 184.135 362.868 184.614 360.757 184.614L360.75 184.628ZM404.866 127.717C403.757 127.717 403.028 127.337 402.67 126.576C402.312 125.816 402.375 124.928 402.852 123.921C403.512 122.506 404.641 121.267 406.248 120.203C407.848 119.14 409.335 118.556 410.696 118.457C411.805 118.457 412.548 118.809 412.92 119.52C413.299 120.232 413.229 121.14 412.71 122.252C412.099 123.569 410.991 124.809 409.384 125.978C407.784 127.139 406.276 127.724 404.866 127.724V127.717Z" fill="black"/>
<path d="M408.023 184.622C405.238 184.622 403.456 183.756 402.677 182.016C401.898 180.284 402.116 178.115 403.33 175.51C403.912 174.256 404.824 172.813 406.073 171.172C409.392 166.933 413.496 162.715 418.379 158.518C423.262 154.321 427.626 150.153 431.478 146.012C432.776 144.66 433.674 143.456 434.172 142.4C434.67 141.344 434.726 140.548 434.347 140.013C433.968 139.485 433.351 139.217 432.481 139.217C431.232 139.217 429.436 139.724 427.093 140.738C424.749 141.752 421.726 143.653 418.021 146.449C415.769 148.181 413.152 150.308 410.156 152.815C407.16 155.321 404.621 157.589 402.523 159.61C399.071 162.891 395.809 166.187 392.722 169.517C389.635 172.841 386.863 175.904 384.415 178.7C382.422 180.918 380.605 182.34 378.97 182.967C377.329 183.594 375.911 183.854 374.712 183.763C373.505 183.671 372.544 183.671 371.828 183.763C376.985 178.46 382.233 172.869 387.565 166.989C392.897 161.11 397.843 155.23 402.411 149.35C404.529 146.653 406.473 144.027 408.241 141.47C410.009 138.914 411.019 137.252 411.286 136.485L411.419 136.196C411.777 135.429 412.247 135.231 412.843 135.619C413.776 136.295 414.183 137.281 414.057 138.583C413.931 139.886 413.489 141.358 412.724 142.991C411.868 144.822 410.718 146.78 409.272 148.85C407.827 150.927 406.382 152.779 404.95 154.42C407.006 152.688 409.167 150.927 411.44 149.139C413.713 147.357 416.092 145.646 418.582 144.005C421.543 141.977 424.525 140.224 427.528 138.724C430.531 137.231 433.372 136.485 436.066 136.485C438.76 136.485 440.283 137.062 440.949 138.217C441.609 139.372 441.496 140.914 440.598 142.844C439.658 144.872 438.003 147.181 435.638 149.787C432.993 152.779 430.089 155.765 426.924 158.751C423.753 161.743 420.799 164.63 418.056 167.426C417.502 168.003 416.625 168.898 415.439 170.102C414.254 171.306 413.082 172.63 411.931 174.08C411.426 174.756 410.907 175.454 410.381 176.179C409.848 176.904 409.406 177.651 409.048 178.418C408.599 179.383 408.395 180.277 408.451 181.094C408.5 181.918 409.153 182.326 410.402 182.326C412.037 182.326 413.854 181.77 415.86 180.664C417.867 179.559 419.684 178.376 421.326 177.122C424.658 174.714 427.942 172.038 431.19 169.095C434.431 166.158 437.729 163.046 441.083 159.765C441.553 159.384 441.833 159.187 441.931 159.187C442.317 159.187 442.303 159.624 441.903 160.49C441.637 161.067 441.335 161.504 441.012 161.793C437.799 164.975 434.53 168.081 431.197 171.123C427.857 174.158 424.146 177.08 420.063 179.869C418.232 181.122 416.274 182.235 414.19 183.192C412.107 184.157 410.058 184.636 408.044 184.636L408.023 184.622Z" fill="black"/>
<path d="M405.745 223.233C404.026 223.62 402.398 223.81 400.862 223.81C397.978 223.81 396.147 223.106 395.354 221.712C394.562 220.31 394.639 218.599 395.586 216.578C396.393 214.846 397.838 212.987 399.908 211.008C401.984 209.03 404.531 207.269 407.555 205.727C411.477 203.699 414.943 202.087 417.953 200.882C420.963 199.678 424.19 198.474 427.635 197.27C431.08 196.066 435.429 194.453 440.698 192.425C443.673 189.341 446.802 185.82 450.079 181.87C453.362 177.92 456.597 174.011 459.782 170.16C462.967 166.308 465.837 162.977 468.39 160.182C467.822 160.569 466.587 161.583 464.672 163.217C462.757 164.857 461.311 166.111 460.329 166.977C457.993 168.906 455.123 171.244 451.735 173.99C448.339 176.737 444.992 179.074 441.695 181.004C437.45 183.511 434.082 184.764 431.585 184.764C429.087 184.764 427.803 183.75 427.452 181.729C427.102 179.701 427.642 177.152 429.073 174.068C430.062 171.948 431.339 169.829 432.904 167.702C441.042 156.618 451.11 147.795 463.093 141.239C465.549 139.887 468.306 138.803 471.379 137.986C474.445 137.169 477.329 136.754 480.023 136.754C483.769 136.754 486.653 137.578 488.674 139.211L489.305 138.775C493.037 135.5 496.524 132.747 499.773 130.529C503.014 128.311 506.326 126.867 509.721 126.191C504.796 129.762 499.569 134.268 494.062 139.711C488.547 145.162 483.152 150.922 477.876 156.992C472.6 163.069 467.682 168.829 463.128 174.272C458.575 179.722 454.723 184.271 451.58 187.94C458.119 185.243 464.595 181.602 471 177.018C477.406 172.441 483.355 167.449 488.849 162.048C490.147 160.696 491.185 160.02 491.95 160.02C492.139 160.02 492.167 160.167 492.034 160.456C491.852 160.843 491.417 161.372 490.715 162.048C487.551 165.132 484.296 168.146 480.956 171.089C477.616 174.033 474.115 176.751 470.453 179.257C467.261 181.574 463.893 183.694 460.357 185.623C456.814 187.553 453.124 189.235 449.286 190.686C444.466 196.087 439.709 201.051 435.001 205.579C430.301 210.107 425.544 213.917 420.745 217.001C415.946 220.085 410.944 222.155 405.745 223.219V223.233ZM406.292 220.198C410.151 219.134 413.94 217.282 417.672 214.628C421.405 211.973 425.004 208.938 428.47 205.516C431.936 202.094 435.149 198.65 438.11 195.179C434.412 196.721 429.824 198.383 424.33 200.164C418.837 201.946 413.287 204.431 407.674 207.614C405.177 209.058 403.114 210.551 401.479 212.1C399.852 213.642 398.722 215.085 398.091 216.437C397.508 217.691 397.445 218.754 397.908 219.62C398.371 220.486 399.515 220.923 401.339 220.923C402.012 220.923 402.756 220.874 403.57 220.775C404.384 220.677 405.289 220.486 406.292 220.198ZM436.699 180.286C438.622 180.286 441.098 179.3 444.129 177.321C447.16 175.349 450.394 172.934 453.839 170.089C457.277 167.244 460.455 164.498 463.367 161.843C466.279 159.196 468.51 157.147 470.046 155.696C472.523 153.478 475.154 151.119 477.953 148.612C480.753 146.105 483.903 143.359 487.411 140.366C486.036 139.402 484.289 138.923 482.177 138.923C479.391 138.923 476.269 139.697 472.81 141.239C469.352 142.782 465.935 144.81 462.56 147.316C457.635 150.887 453.11 154.717 448.991 158.815C444.873 162.914 441.667 166.505 439.365 169.589C438.074 171.321 437.008 173.11 436.152 174.941C435.479 176.384 435.114 177.638 435.051 178.701C434.987 179.764 435.535 180.293 436.685 180.293L436.699 180.286Z" fill="black"/>
<path d="M482.055 196.754C480.858 199.519 477.599 201.263 472.672 202.021C467.75 202.778 461.196 202.545 453.464 201.386C438.003 199.068 417.856 193.052 396.689 183.885C375.523 174.718 357.353 164.138 345.085 154.446C338.95 149.599 334.297 144.978 331.482 140.871C328.664 136.758 327.707 133.188 328.904 130.423C330.101 127.659 333.36 125.915 338.288 125.157C343.209 124.4 349.763 124.633 357.495 125.792C372.957 128.11 393.104 134.126 414.27 143.293C435.436 152.46 453.607 163.04 465.875 172.732C472.009 177.579 476.663 182.2 479.477 186.307C482.296 190.42 483.253 193.99 482.055 196.754Z" stroke="black" stroke-width="0.205897"/>
<path d="M119.502 171.358C119.953 175.719 120.555 178.726 121.307 180.38C122.059 182.034 123.262 183.087 124.916 183.538V184.892H107.096V183.538C108.75 183.012 109.84 181.922 110.367 180.268C110.968 178.538 111.119 175.568 110.818 171.358C110.517 168.275 110.028 162.561 109.352 154.215C108.75 145.794 108.186 138.162 107.66 131.32L106.871 121.057L82.0584 185.004H80.0284L50.8177 120.38C48.2613 146.846 46.7576 162.674 46.3065 167.861C45.7801 173.576 45.7801 177.486 46.3065 179.591C46.908 181.621 48.3365 182.974 50.5922 183.651V185.004H36.8327V183.651C40.9681 182.448 43.4869 177.335 44.3892 168.313C45.2914 158.764 46.6072 145.38 48.3365 128.162C48.7125 125.004 48.7501 122.26 48.4493 119.929C47.8478 115.719 46.1561 113.125 43.3741 112.147V110.455H55.1035L84.5396 174.177L109.352 110.455H121.194V112.147C119.089 112.899 117.622 114.14 116.795 115.869C116.043 117.523 115.705 119.215 115.78 120.944C115.931 123.5 116.457 131.395 117.359 144.628C118.337 157.786 119.051 166.696 119.502 171.358ZM175.756 170.681C175.756 175.117 176.019 178.162 176.545 179.816C177.147 181.471 178.312 182.561 180.042 183.087V184.44H178.35C175.342 184.44 172.748 183.388 170.568 181.283C168.463 179.102 167.41 176.508 167.41 173.501V171.696C167.109 172.072 166.733 172.561 166.282 173.162C165.831 173.764 164.778 174.892 163.124 176.546C161.545 178.125 159.929 179.516 158.275 180.719C156.62 181.922 154.478 183.05 151.846 184.102C149.29 185.08 146.733 185.568 144.177 185.568C139.966 185.568 136.395 184.328 133.462 181.847C130.53 179.29 129.064 175.794 129.064 171.358C129.064 169.177 129.515 167.185 130.417 165.38C131.32 163.576 132.447 162.072 133.801 160.869C135.154 159.591 136.959 158.425 139.214 157.373C141.545 156.245 143.726 155.343 145.756 154.666C147.786 153.914 150.305 153.125 153.312 152.298L167.41 148.463C167.41 143.125 166.094 138.952 163.463 135.944C160.906 132.937 157.335 131.433 152.748 131.433C150.568 131.433 148.575 131.997 146.771 133.125C145.041 134.177 143.65 135.455 142.598 136.959C141.62 138.388 140.681 139.816 139.778 141.245C138.876 142.673 137.899 143.726 136.846 144.403C135.869 145.079 134.778 145.155 133.575 144.628C131.696 143.801 131.583 142.072 133.237 139.44C135.417 135.831 139.177 133.087 144.515 131.207C147.748 130.155 151.094 129.628 154.553 129.628C161.32 129.628 166.545 131.245 170.229 134.478C173.914 137.636 175.756 142.485 175.756 149.027V170.681ZM167.41 169.215V149.929L153.763 153.651C151.432 154.252 149.402 154.929 147.673 155.681C145.944 156.358 144.214 157.298 142.485 158.501C140.756 159.628 139.44 161.019 138.538 162.674C137.635 164.328 137.184 166.207 137.184 168.313C137.184 171.846 138.237 174.854 140.342 177.335C142.523 179.816 145.154 181.057 148.237 181.057C150.493 181.057 152.711 180.643 154.891 179.816C157.072 178.989 158.876 178.012 160.305 176.884C161.733 175.681 163.011 174.516 164.139 173.388C165.267 172.185 166.094 171.17 166.62 170.343L167.41 169.215ZM214.12 130.305C215.699 130.681 216.677 131.47 217.053 132.673C217.504 133.801 217.391 134.854 216.714 135.831C216.113 136.809 215.248 137.298 214.12 137.298C213.444 137.298 212.504 137.147 211.301 136.846C210.173 136.47 209.195 136.245 208.368 136.17C207.541 136.019 206.263 136.132 204.534 136.508C201.376 137.335 199.007 139.967 197.429 144.403V170.568C197.429 174.929 197.729 177.974 198.331 179.704C199.007 181.358 200.173 182.448 201.827 182.974V184.328H184.684V182.974C186.413 182.448 187.541 181.358 188.068 179.704C188.669 178.049 188.97 175.004 188.97 170.568V145.756C188.97 142.147 188.632 139.741 187.955 138.538C187.353 137.26 186.263 136.47 184.684 136.17V134.591L196.075 130.305H197.429V140.568C199.083 137.26 201.526 134.553 204.759 132.448C207.992 130.267 211.113 129.553 214.12 130.305ZM260.743 176.207C263.449 180.794 266.306 183.125 269.314 183.2V184.44H263.449C259.389 184.44 256.231 182.749 253.976 179.365L236.945 153.2L232.885 157.034V170.681C232.885 175.042 233.186 178.087 233.788 179.816C234.464 181.471 235.63 182.561 237.284 183.087V184.44H220.141V183.087C221.87 182.561 222.998 181.471 223.524 179.816C224.126 178.162 224.427 175.117 224.427 170.681V126.132C224.427 122.523 224.088 120.117 223.412 118.914C222.81 117.636 221.72 116.846 220.141 116.546V114.967L231.532 109.779H232.885V155.117C243.186 145.192 248.938 139.666 250.141 138.538C250.968 137.711 251.532 136.809 251.833 135.831C252.209 134.779 252.134 133.839 251.607 133.012C251.081 132.185 250.028 131.771 248.449 131.771V130.305H262.434V131.771C260.855 131.771 259.427 132.222 258.149 133.125C256.946 133.952 254.615 136.057 251.156 139.44L242.923 147.448L260.743 176.207ZM317.589 169.328L318.604 170.23C311.161 180.456 302.627 185.568 293.003 185.568C289.995 185.568 286.988 185.004 283.98 183.877C281.048 182.749 278.303 181.132 275.747 179.027C273.266 176.922 271.236 174.14 269.657 170.681C268.153 167.147 267.401 163.237 267.401 158.952C267.401 150.38 270.183 143.35 275.747 137.861C281.386 132.373 288.078 129.628 295.822 129.628C302.439 129.628 307.702 131.47 311.612 135.155C315.522 138.839 317.552 143.35 317.702 148.689H275.409C275.183 150.343 275.07 152.034 275.07 153.764C275.07 161.207 277.176 167.222 281.386 171.809C285.672 176.395 291.311 178.689 298.303 178.689C305.597 178.689 312.025 175.568 317.589 169.328ZM292.326 131.546C287.89 131.47 284.243 132.899 281.386 135.831C278.529 138.764 276.649 142.598 275.747 147.335H309.018C308.416 143.275 306.612 139.628 303.604 136.395C300.672 133.162 296.912 131.546 292.326 131.546ZM350.456 177.561C350.607 177.862 350.832 178.388 351.133 179.14C346.622 183.425 342.223 185.568 337.938 185.568C330.644 185.568 326.998 180.38 326.998 170.004V131.884H320.118V130.305C321.923 130.305 323.652 129.854 325.306 128.952C326.96 128.049 328.276 126.959 329.253 125.681C330.306 124.328 331.171 123.012 331.847 121.734C332.599 120.455 333.163 119.328 333.539 118.35L333.99 116.997H335.456V130.305H344.705V131.884H335.456V170.004C335.456 176.846 338.013 180.268 343.126 180.268C345.607 180.268 348.05 179.365 350.456 177.561Z" fill="black"/>
<path d="M56.7882 38.9628H72.8324V40.2211C71.3643 40.6406 70.3506 41.5844 69.7914 43.0525C69.2321 44.4507 68.9175 46.8975 68.8476 50.3929L69.0573 71.6803H67.5892C67.5193 71.5405 67.4144 71.3307 67.2746 71.0511C67.2047 70.7016 67.0299 70.1772 66.7503 69.4782C66.4707 68.7092 66.1561 68.045 65.8065 67.4857C65.457 66.9265 65.0026 66.4021 64.4433 65.9128C63.884 65.4234 63.3248 65.1787 62.7655 65.1787C61.9965 65.1787 60.9478 65.5632 59.6196 66.3322C58.3612 67.1012 56.998 67.9751 55.5299 68.9538C54.0618 69.9326 51.9296 70.8064 49.1332 71.5754C46.3368 72.3444 43.2958 72.7289 40.01 72.7289C33.2987 72.7289 27.0768 71.3657 21.3443 68.6392C15.6816 65.9128 11.0676 61.858 7.50225 56.475C4.00679 51.092 2.25906 44.94 2.25906 38.019C2.25906 32.9156 3.27274 28.0919 5.30011 23.5478C7.32747 19.0037 9.91411 15.1936 13.06 12.1176C16.2759 8.97173 19.8063 6.455 23.6513 4.56745C27.5662 2.60999 31.4462 1.49144 35.2912 1.2118C47.6651 0.302984 56.2989 2.88962 61.1925 8.97173C62.6606 10.9991 62.9403 12.8167 62.0314 14.4246C61.1925 16.0326 59.8642 16.8365 58.0466 16.8365C56.9281 16.8365 55.8445 16.3821 54.7958 15.4733C53.8171 14.4946 52.8384 13.3411 51.8596 12.0128C50.9508 10.6146 49.9371 9.25136 48.8186 7.92309C47.7 6.59482 46.232 5.47627 44.4143 4.56745C42.6666 3.58872 40.7091 3.09935 38.5419 3.09935C30.3626 3.09935 23.6513 5.79086 18.4081 11.1739C13.1649 16.487 10.5433 24.0372 10.5433 33.8245C10.5433 38.5084 11.2424 43.0175 12.6406 47.3519C14.1087 51.6863 16.136 55.5662 18.7227 58.9918C21.3093 62.4173 24.63 65.1787 28.6847 67.276C32.8094 69.3034 37.3884 70.3171 42.4219 70.3171C44.9386 70.3171 47.3855 69.9326 49.7624 69.1636C52.2092 68.3247 54.1666 67.3459 55.6347 66.2274C57.1727 65.1088 58.3612 64.1301 59.2001 63.2912C60.1089 62.3824 60.6682 61.7182 60.8779 61.2988L60.7731 51.5464C60.7731 47.4917 60.4934 44.6953 59.9342 43.1573C59.3749 41.6193 58.3262 40.6406 56.7882 40.2211V38.9628ZM103.036 20.1922C106.322 20.1922 109.468 20.7165 112.474 21.7651C115.48 22.7438 118.277 24.2119 120.863 26.1694C123.45 28.1269 125.512 30.8184 127.05 34.2439C128.588 37.5996 129.357 41.4096 129.357 45.6741C129.357 49.7987 128.553 53.6088 126.945 57.1042C125.338 60.5298 123.24 63.3261 120.654 65.4933C118.067 67.5906 115.236 69.2335 112.16 70.4219C109.154 71.6104 106.112 72.2046 103.036 72.2046C99.7507 72.2046 96.5699 71.6803 93.4939 70.6317C90.4878 69.583 87.6914 68.08 85.1048 66.1225C82.588 64.0951 80.5607 61.4036 79.0226 58.048C77.4846 54.6924 76.7156 50.9173 76.7156 46.7227C76.7156 39.1026 79.3372 32.7758 84.5804 27.7424C89.8236 22.7089 95.9756 20.1922 103.036 20.1922ZM106.078 70.0025C111.181 70.0025 115.061 68.2547 117.717 64.7593C120.374 61.2638 121.702 56.8945 121.702 51.6513C121.702 47.1771 120.758 42.668 118.871 38.1239C117.053 33.5099 114.362 29.6299 110.796 26.484C107.301 23.3381 103.491 21.87 99.3662 22.0797C94.4726 22.2894 90.7674 24.177 88.2507 27.7424C85.7339 31.2378 84.4756 35.6421 84.4756 40.9552C84.4756 45.3595 85.3145 49.7638 86.9923 54.168C88.6701 58.5723 91.2218 62.3125 94.6474 65.3885C98.0729 68.4645 101.883 70.0025 106.078 70.0025ZM165.186 20.8213H177.036V22.1846C173.75 22.1846 170.989 25.1208 168.752 30.9931C168.122 32.601 166.55 36.7606 164.033 43.4719C161.586 50.1133 159.279 56.4051 157.112 62.3474L153.861 71.156H150.191L135.824 32.7758C135.755 32.5661 135.58 32.1466 135.3 31.5175C135.09 30.8184 134.916 30.294 134.776 29.9445C134.636 29.525 134.426 29.0007 134.147 28.3715C133.867 27.7424 133.587 27.218 133.308 26.7986C133.098 26.3791 132.818 25.9247 132.469 25.4353C132.189 24.8761 131.875 24.4566 131.525 24.177C131.245 23.8274 130.931 23.4779 130.581 23.1283C130.232 22.7788 129.847 22.5341 129.428 22.3943C129.008 22.2545 128.589 22.1846 128.169 22.1846V20.8213H145.262V22.1846C142.046 22.1846 141.452 25.2256 143.479 31.3077C144.528 34.3138 146.031 38.4734 147.989 43.7865C149.946 49.0996 151.659 53.6787 153.127 57.5237L155.224 63.1863C161.726 45.0798 165.711 34.2439 167.179 30.6785C168.367 27.6025 168.752 25.4353 168.332 24.177C167.913 22.8487 166.899 22.1846 165.291 22.1846L165.186 20.8213ZM221.28 57.1042L222.224 57.9431C215.303 67.4508 207.368 72.2046 198.42 72.2046C195.624 72.2046 192.827 71.6803 190.031 70.6317C187.304 69.583 184.753 68.08 182.376 66.1225C180.069 64.1651 178.181 61.5784 176.713 58.3626C175.315 55.0769 174.616 51.4416 174.616 47.4568C174.616 39.4871 177.202 32.9506 182.376 27.8472C187.619 22.7438 193.841 20.1922 201.042 20.1922C207.194 20.1922 212.087 21.9049 215.722 25.3305C219.358 28.756 221.245 32.9506 221.385 37.9141H182.061C181.851 39.4521 181.747 41.0251 181.747 42.633C181.747 49.554 183.704 55.1468 187.619 59.4112C191.604 63.6757 196.847 65.8079 203.349 65.8079C210.13 65.8079 216.107 62.9067 221.28 57.1042ZM197.791 21.9748C193.666 21.9049 190.276 23.2332 187.619 25.9597C184.962 28.6861 183.215 32.2515 182.376 36.6558H213.311C212.751 32.8807 211.074 29.4901 208.277 26.484C205.551 23.4779 202.055 21.9748 197.791 21.9748ZM253.493 20.8213C254.961 21.1709 255.87 21.9049 256.22 23.0235C256.639 24.0721 256.534 25.0508 255.905 25.9597C255.346 26.8685 254.542 27.3229 253.493 27.3229C252.864 27.3229 251.99 27.1831 250.871 26.9034C249.823 26.5539 248.914 26.3442 248.145 26.2743C247.376 26.1344 246.188 26.2393 244.58 26.5888C241.643 27.3579 239.441 29.8047 237.973 33.9293V58.2577C237.973 62.3125 238.253 65.1438 238.812 66.7517C239.441 68.2897 240.525 69.3034 242.063 69.7927V71.0511H226.124V69.7927C227.732 69.3034 228.78 68.2897 229.27 66.7517C229.829 65.2137 230.108 62.3824 230.108 58.2577V35.1877C230.108 31.832 229.794 29.5949 229.165 28.4764C228.605 27.2879 227.592 26.5539 226.124 26.2743V24.8062L236.715 20.8213H237.973V30.3639C239.511 27.2879 241.783 24.7712 244.789 22.8138C247.795 20.7864 250.697 20.1222 253.493 20.8213ZM303.763 58.3626C303.763 62.4872 304.043 65.3186 304.602 66.8566C305.161 68.3946 306.21 69.4082 307.748 69.8976V71.156H291.913V69.8976C293.451 69.4082 294.5 68.3946 295.059 66.8566C295.619 65.3186 295.898 62.4872 295.898 58.3626V37.9141C295.898 32.9506 294.78 29.3153 292.543 27.0083C290.375 24.6314 287.404 23.4429 283.629 23.4429C281.602 23.4429 279.539 24.0721 277.442 25.3305C275.415 26.5189 273.877 27.7424 272.828 29.0007L271.255 30.7834V58.3626C271.255 62.4173 271.535 65.2486 272.094 66.8566C272.723 68.3946 273.807 69.4082 275.345 69.8976V71.156H259.406V69.8976C261.014 69.4082 262.062 68.3946 262.552 66.8566C263.111 65.3186 263.39 62.4872 263.39 58.3626V35.2925C263.39 31.9369 263.076 29.6649 262.447 28.4764C261.887 27.2879 260.874 26.5889 259.406 26.3791V24.911L269.997 20.8213H271.255V28.4764C271.395 28.2667 271.605 27.987 271.884 27.6375C272.234 27.218 272.898 26.5539 273.877 25.6451C274.925 24.6663 276.009 23.8274 277.128 23.1283C278.316 22.3593 279.854 21.6952 281.742 21.1359C283.699 20.5067 285.726 20.1922 287.824 20.1922C292.857 20.1922 296.772 21.6603 299.568 24.5964C302.365 27.5326 303.763 31.9019 303.763 37.7044V58.3626ZM383.872 58.3626C383.872 62.4872 384.151 65.3186 384.711 66.8566C385.27 68.3946 386.318 69.4082 387.856 69.8976V71.156H371.917V69.8976C373.525 69.4082 374.609 68.3946 375.168 66.8566C375.727 65.3186 376.007 62.4872 376.007 58.3626V37.9141C376.007 32.8807 375.063 29.2104 373.175 26.9034C371.288 24.5964 368.492 23.4429 364.786 23.4429C363.109 23.4429 361.396 23.9673 359.648 25.0159C357.9 26.0645 356.607 27.0782 355.768 28.0569C354.929 28.9658 354.16 29.9095 353.461 30.8883C354.02 33.0555 354.3 35.3275 354.3 37.7044V58.3626C354.3 62.4872 354.58 65.3186 355.139 66.8566C355.698 68.3946 356.747 69.4082 358.285 69.8976V71.156H342.45V69.8976C343.988 69.4082 345.037 68.3946 345.596 66.8566C346.156 65.3186 346.435 62.4872 346.435 58.3626V37.9141C346.435 32.8807 345.491 29.2104 343.604 26.9034C341.716 24.5964 338.92 23.4429 335.215 23.4429C333.956 23.4429 332.698 23.7226 331.44 24.2818C330.251 24.7712 329.203 25.3654 328.294 26.0645C327.455 26.7636 326.686 27.4977 325.987 28.2667C325.358 28.9658 324.868 29.56 324.519 30.0494L323.994 30.7834V58.3626C323.994 62.4173 324.274 65.2486 324.833 66.8566C325.462 68.3946 326.546 69.4082 328.084 69.8976V71.156H312.145V69.8976C313.753 69.4082 314.801 68.3946 315.291 66.8566C315.85 65.3186 316.13 62.4872 316.13 58.3626V35.2925C316.13 31.9369 315.815 29.6649 315.186 28.4764C314.627 27.2879 313.613 26.5889 312.145 26.3791V24.911L322.736 20.8213H323.994V28.4764C324.134 28.2667 324.344 27.987 324.624 27.6375C324.973 27.218 325.637 26.5539 326.616 25.6451C327.665 24.6663 328.748 23.8274 329.867 23.1283C330.985 22.3593 332.418 21.6952 334.166 21.1359C335.984 20.5067 337.801 20.1922 339.619 20.1922C346.26 20.1922 350.665 23.1283 352.832 29.0007C353.881 27.8123 354.999 26.6588 356.188 25.5402C357.446 24.4217 359.299 23.2682 361.745 22.0797C364.262 20.8213 366.744 20.1922 369.191 20.1922C373.735 20.1922 377.3 21.6603 379.887 24.5964C382.543 27.5326 383.872 31.9019 383.872 37.7044V58.3626ZM438.996 57.1042L439.939 57.9431C433.018 67.4508 425.084 72.2046 416.135 72.2046C413.339 72.2046 410.543 71.6803 407.746 70.6317C405.02 69.583 402.468 68.08 400.091 66.1225C397.784 64.1651 395.897 61.5784 394.428 58.3626C393.03 55.0769 392.331 51.4416 392.331 47.4568C392.331 39.4871 394.918 32.9506 400.091 27.8472C405.334 22.7438 411.556 20.1922 418.757 20.1922C424.909 20.1922 429.802 21.9049 433.438 25.3305C437.073 28.756 438.961 32.9506 439.1 37.9141H399.776C399.567 39.4521 399.462 41.0251 399.462 42.633C399.462 49.554 401.419 55.1468 405.334 59.4112C409.319 63.6757 414.562 65.8079 421.064 65.8079C427.845 65.8079 433.822 62.9067 438.996 57.1042ZM415.506 21.9748C411.381 21.9049 407.991 23.2332 405.334 25.9597C402.678 28.6861 400.93 32.2515 400.091 36.6558H431.026C430.467 32.8807 428.789 29.4901 425.992 26.484C423.266 23.4779 419.771 21.9748 415.506 21.9748ZM488.196 58.3626C488.196 62.4872 488.476 65.3186 489.035 66.8566C489.595 68.3946 490.643 69.4082 492.181 69.8976V71.156H476.347V69.8976C477.885 69.4082 478.933 68.3946 479.493 66.8566C480.052 65.3186 480.332 62.4872 480.332 58.3626V37.9141C480.332 32.9506 479.213 29.3153 476.976 27.0083C474.809 24.6314 471.838 23.4429 468.062 23.4429C466.035 23.4429 463.973 24.0721 461.876 25.3305C459.848 26.5189 458.31 27.7424 457.261 29.0007L455.689 30.7834V58.3626C455.689 62.4173 455.968 65.2486 456.527 66.8566C457.157 68.3946 458.24 69.4082 459.778 69.8976V71.156H443.839V69.8976C445.447 69.4082 446.495 68.3946 446.985 66.8566C447.544 65.3186 447.824 62.4872 447.824 58.3626V35.2925C447.824 31.9369 447.509 29.6649 446.88 28.4764C446.321 27.2879 445.307 26.5889 443.839 26.3791V24.911L454.43 20.8213H455.689V28.4764C455.828 28.2667 456.038 27.987 456.318 27.6375C456.667 27.218 457.331 26.5539 458.31 25.6451C459.359 24.6663 460.442 23.8274 461.561 23.1283C462.749 22.3593 464.287 21.6952 466.175 21.1359C468.132 20.5067 470.16 20.1922 472.257 20.1922C477.29 20.1922 481.205 21.6603 484.002 24.5964C486.798 27.5326 488.196 31.9019 488.196 37.7044V58.3626ZM520.451 64.7593C520.591 65.0389 520.801 65.5283 521.08 66.2274C516.886 70.2122 512.796 72.2046 508.811 72.2046C502.03 72.2046 498.639 67.3809 498.639 57.7334V22.2894H492.243V20.8213C493.92 20.8213 495.528 20.4019 497.066 19.563C498.604 18.7241 499.828 17.7104 500.737 16.5219C501.715 15.2636 502.519 14.0401 503.148 12.8517C503.848 11.6632 504.372 10.6146 504.721 9.70578L505.141 8.44741H506.504V20.8213H515.103V22.2894H506.504V57.7334C506.504 64.0951 508.881 67.276 513.635 67.276C515.942 67.276 518.214 66.4371 520.451 64.7593Z" fill="black"/>
</svg>
