<svg width="123" height="42" viewBox="0 0 123 42" fill="none" xmlns="http://www.w3.org/2000/svg">
<g clip-path="url(#clip0_1379_77875)">
<path d="M60.9631 26.5644V28.2847H47.0703V26.5644H53.0677V23.4073H48.1877V14.4609H50.0339V16.7598H57.981V14.4609H59.8457V23.4073H54.9509V26.5644H60.9668H60.9631ZM57.981 21.7253V18.4456H50.0339V21.7253H57.981Z" fill="#7D7D7D"/>
<path d="M69.8712 22.4405H67.9917V15.9845H62.4531V14.2489H69.8749V22.4443L69.8712 22.4405ZM63.4521 29.1263V23.406H65.3316V27.406H75.8353V29.1263H63.4521ZM73.6487 13.793H75.5282V23.8121H73.6487V19.2336H71.1736V17.5324H73.6487V13.7968V13.793Z" fill="#7D7D7D"/>
<path d="M91.8771 21.4748V23.1415H77.9844V21.4748H83.9818V20.107H79.1017V13.9844H80.9479V15.4403H88.8951V13.9844H90.7598V20.107H85.865V21.4748H91.8808H91.8771ZM90.7598 24.425V29.4786H88.8803V26.0763H78.7502V24.4288H90.7635L90.7598 24.425ZM88.8951 17.0533H80.9479V18.4748H88.8951V17.0533Z" fill="#7D7D7D"/>
<path d="M93.7536 16.475V14.7547H102.766V16.475H98.9703L103.173 26.7048L101.512 27.4405L98.2933 19.4405L95.0929 27.5631L93.3984 26.8275L97.6162 16.475H93.7536ZM104.968 13.793H106.847V29.4443H104.968V13.793Z" fill="#7D7D7D"/>
<path d="M109.086 23.6712H122.979V25.3916H116.963V29.426H115.083V25.3916H109.086V23.6712ZM112.049 16.0199H119.997V14.0391H121.861V21.5678H110.203V14.0391H112.049V16.0199ZM119.997 17.7057H112.049V19.8628H119.997V17.7057Z" fill="#7D7D7D"/>
<path d="M28.3138 20.1341C25.1282 17.8889 21.0437 18.8046 18.9015 22.1801C17.1108 25 14.4099 25.3487 13.3629 25.3487C9.95535 25.3487 7.62077 22.8659 6.92891 20.295C6.92151 20.2682 6.91781 20.249 6.91041 20.2222C6.90301 20.1916 6.89561 20.1648 6.88821 20.1341C6.61812 19.0613 6.55153 18.5479 6.55153 17.41C6.55153 11.2644 12.6377 4.42146 21.4099 4.42146C30.1822 4.42146 35.5284 11.5019 36.8529 15.4368C36.8307 15.3678 36.8085 15.2989 36.7863 15.2261C34.2372 7.53257 27.189 2 18.8941 2C8.45323 2 -0.015625 10.7663 -0.015625 21.5824C-0.015625 31.249 6.71802 39.5249 16.0563 39.5249C23.504 39.5249 28.5099 35.1992 30.8074 29.2375C32.0691 25.977 31.1774 22.1456 28.3138 20.1341Z" fill="#053561"/>
<path d="M36.9745 15.8204C35.8719 11.9813 30.6922 4.42578 21.4131 4.42578C12.6409 4.42578 6.55469 11.2687 6.55469 17.4143C6.55469 18.5522 6.62128 19.0656 6.89137 20.1384C6.77668 19.671 6.71748 19.1997 6.71748 18.74C6.71748 12.3415 12.9073 7.90471 19.2672 7.90471C27.8804 7.90471 34.8582 15.1346 34.8582 24.0503C34.8582 31.0426 30.9734 37.0886 25.3275 39.9967C32.6013 37.2725 37.7995 30.058 37.7995 21.5829C37.7995 19.579 37.5405 17.8089 36.9671 15.8204H36.9745Z" fill="#DB0827"/>
</g>
<defs>
<clipPath id="clip0_1379_77875">
<rect width="123" height="42" fill="white"/>
</clipPath>
</defs>
</svg>
