<svg width="115" height="42" viewBox="0 0 115 42" fill="none" xmlns="http://www.w3.org/2000/svg">
<g clip-path="url(#clip0_1379_77912)">
<mask id="mask0_1379_77912" style="mask-type:luminance" maskUnits="userSpaceOnUse" x="-1" y="2" width="116" height="40">
<path d="M-0.00781418 2.99219L-0.0078125 41.3242L114.988 41.3242L114.988 2.99219L-0.00781418 2.99219Z" fill="white"/>
</mask>
<g mask="url(#mask0_1379_77912)">
<path d="M85.383 25.3715L75.8131 28.235C74.8169 28.5317 74.6266 29.3531 75.4101 30.049L78.3315 32.6843C79.3612 33.597 80.2791 33.6996 81.4543 33.1406L88.8081 29.6497L88.8081 28.7598L85.3942 25.383L85.383 25.3715Z" fill="#EF8D00"/>
<path d="M88.7931 21.2374L79.7269 10.08C79.0441 9.2472 78.2942 9.3841 77.9696 10.4337L76.7496 14.4494C76.4473 15.4533 76.5593 16.6284 77.5442 17.6095L85.3793 25.3672L88.7931 24.3518L88.7931 21.2374Z" fill="#EF8D00"/>
</g>
<path d="M88.8045 24.3503L85.3906 25.3656L88.8045 28.7539L88.8045 24.3503Z" fill="#D54115"/>
<mask id="mask1_1379_77912" style="mask-type:luminance" maskUnits="userSpaceOnUse" x="-1" y="2" width="116" height="40">
<path d="M-0.00781418 2.99219L-0.0078125 41.3242L114.988 41.3242L114.988 2.99219L-0.00781418 2.99219Z" fill="white"/>
</mask>
<g mask="url(#mask1_1379_77912)">
<path d="M89.7031 29.6535L97.1688 40.674C97.762 41.541 98.6127 41.5638 99.1499 40.5713L100.683 37.7649C101.355 36.4985 101.187 35.5859 100.348 34.6504L97.1352 30.9541L89.7031 29.6535Z" fill="#D54115"/>
<path d="M97.1342 30.9508L108.73 32.9815C110.096 33.2096 110.98 32.8446 111.786 31.8292L114.64 28.2584C115.3 27.4484 114.976 26.7525 113.935 26.7183L96.5746 26.2277C96.306 27.186 95.7911 28.0074 95.0859 28.6007L97.123 30.9508L97.1342 30.9508Z" fill="#FBC400"/>
<path d="M111.671 20.3894C112.656 20.0129 112.768 19.2486 111.894 18.6553L108.1 16.0884L96.7616 25.3977C96.7281 25.6829 96.6609 25.9681 96.5938 26.2305L111.682 20.3894L111.671 20.3894Z" fill="#D54115"/>
<path d="M108.088 16.0889C107.327 15.5641 106.342 15.5755 105.29 16.146L95.8203 21.371C96.4471 22.238 96.8053 23.356 96.8053 24.5881C96.8053 24.8619 96.7941 25.1243 96.7605 25.3867L108.099 16.0775L108.088 16.0889Z" fill="#EF8D00"/>
<path d="M105.296 16.1464C106.348 15.5646 107.344 15.5646 108.094 16.0893L110.903 13.7849C111.978 12.9064 112.235 12.0622 111.922 10.7274L110.747 5.91309C110.5 4.89775 109.717 4.6924 109.001 5.45676L95.043 20.55C95.334 20.7896 95.6026 21.0748 95.8265 21.3828L105.296 16.1464Z" fill="#FBC400"/>
<path d="M99.0579 9.47328C99.5056 8.24118 99.2705 7.27147 98.3303 6.3588L95.2411 3.40404C94.4799 2.68531 93.7076 2.9363 93.5174 3.96305L92.7227 8.25259C93.6069 8.75455 93.8979 9.6444 93.8419 10.7624L93.2487 19.6723C93.9203 19.8321 94.5247 20.1287 95.0284 20.5508L99.0467 9.47328L99.0579 9.47328Z" fill="#D54115"/>
<path d="M89.0756 6.21412C88.1578 5.70074 87.4862 6.16848 87.5981 7.20664L88.807 19.5391L90.665 19.5391L92.7581 8.2448L89.0868 6.20271L89.0756 6.21412Z" fill="#FBC400"/>
<path d="M93.853 10.7466C93.9202 9.62863 93.6179 8.75018 92.7337 8.24822L90.6406 19.5425L92.1741 19.5425C92.5546 19.5425 92.9128 19.5881 93.2486 19.668L93.8418 10.7581L93.853 10.7466Z" fill="#EF8D00"/>
<path d="M95.0981 28.6108C94.3258 29.2725 93.3296 29.6604 92.188 29.6604L89.7031 29.6604L97.1352 30.9609L95.0981 28.6108Z" fill="#EF8D00"/>
<path d="M0.382812 32.448L0.382812 26.9606L1.40137 26.9606L1.40137 32.391C1.41256 34.433 2.47589 35.5739 4.24437 35.5739C6.01285 35.5739 7.03141 34.5243 7.0426 32.4594L7.0426 26.972L8.07235 26.972L8.07235 32.3795C8.07235 35.129 6.52773 36.5664 4.22199 36.5664C1.91624 36.5664 0.382812 35.1175 0.382812 32.448Z" fill="#908278"/>
</g>
<path d="M17.7067 26.9523L17.7067 36.3984L16.8897 36.3984L11.0693 28.675L11.0693 36.3984L10.0508 36.3984L10.0508 26.9523L11.0022 26.9523L16.6882 34.4932L16.6882 26.9523L17.7067 26.9523Z" fill="#908278"/>
<path d="M19.7891 26.9523L19.7891 36.3984L20.8076 36.3984L20.8076 26.9523L19.7891 26.9523Z" fill="#908278"/>
<path d="M55.8828 26.9523L55.8828 36.3984L56.9126 36.3984L56.9126 26.9523L55.8828 26.9523Z" fill="#908278"/>
<path d="M21.7031 26.9523L22.8448 26.9523L26.0684 35.0408L29.3031 26.9523L30.4 26.9523L26.5049 36.3984L25.5983 36.3984L21.7031 26.9523Z" fill="#908278"/>
<path d="M31.2969 26.9523L37.9343 26.9523L37.9343 27.9449L32.3154 27.9449L32.3154 31.1506L37.2627 31.1506L37.2627 32.1431L32.3154 32.1431L32.3154 35.4173L37.9343 35.4173L37.9343 36.3984L31.2969 36.3984L31.2969 26.9523Z" fill="#908278"/>
<mask id="mask2_1379_77912" style="mask-type:luminance" maskUnits="userSpaceOnUse" x="-1" y="2" width="116" height="40">
<path d="M-0.00781418 2.99219L-0.0078125 41.3242L114.988 41.3242L114.988 2.99219L-0.00781418 2.99219Z" fill="white"/>
</mask>
<g mask="url(#mask2_1379_77912)">
<path d="M53.2615 33.9539C53.2615 33.0755 52.8138 32.5735 50.911 32.1628C48.8291 31.695 47.8665 30.9877 47.8665 29.4362C47.8665 29.4362 47.7994 26.8351 50.8438 26.8351C52.1646 26.8351 53.1048 27.223 54.0338 27.9987L53.4294 28.8201C52.5899 28.1014 51.7505 27.8162 50.8214 27.8162C48.8067 27.8162 48.8963 29.3449 48.8963 29.3449C48.8963 30.2348 49.3664 30.7367 51.3587 31.1817C53.3734 31.638 54.3024 32.4138 54.3024 33.8512C54.3024 33.8512 54.448 36.5664 51.2132 36.5664C49.7805 36.5664 48.5941 36.053 47.5195 35.0491L48.1463 34.2619C49.0977 35.1518 49.9932 35.5853 51.258 35.5853C53.3734 35.5853 53.2727 33.9653 53.2727 33.9653" fill="#908278"/>
</g>
<path d="M60.8766 27.9449L58 27.9449L58 26.9523L64.7941 26.9523L64.7941 27.9449L61.9175 27.9449L61.9175 36.3984L60.8766 36.3984L60.8766 27.9449Z" fill="#908278"/>
<path d="M68.0951 32.6679L64.7148 26.9523L65.9573 26.9523L68.6324 31.6868L71.3187 26.9523L72.5051 26.9523L69.1249 32.6565L69.1249 36.3984L68.0951 36.3984L68.0951 32.6679Z" fill="#908278"/>
<mask id="mask3_1379_77912" style="mask-type:luminance" maskUnits="userSpaceOnUse" x="-1" y="2" width="116" height="40">
<path d="M-0.00781418 2.99219L-0.0078125 41.3242L114.988 41.3242L114.988 2.99219L-0.00781418 2.99219Z" fill="white"/>
</mask>
<g mask="url(#mask3_1379_77912)">
<path d="M40.6469 27.9449L43.5347 27.9449C44.8107 27.9449 45.4935 28.5267 45.4935 29.6675C45.4935 30.8083 44.8107 31.3559 43.5347 31.3559L40.6469 31.3559L40.6469 27.9334L40.6469 27.9449ZM45.5606 36.3984L46.7807 36.3984L44.4973 32.2458C45.6949 31.972 46.5232 31.1734 46.5232 29.6675C46.5232 27.7965 45.2248 26.9523 43.5347 26.9523L39.6172 26.9523L39.6172 36.3984L40.6469 36.3984L40.6469 32.3485L43.4004 32.3485L45.5606 36.3984Z" fill="#908278"/>
<path d="M63.0659 8.08712L63.0659 22.918L65.5507 22.918L65.5507 19.735C65.6291 19.6438 66.614 18.5486 66.8827 18.252L69.5914 22.918L72.5015 22.918L68.5056 16.4152L72.3448 12.1257L69.278 12.1257L65.5395 16.4608L65.5395 8.08712L63.0547 8.08712L63.0659 8.08712Z" fill="#908278"/>
<path d="M47.3062 18.6004C47.0152 19.2165 46.5003 19.5131 45.7392 19.5131C44.9781 19.5131 44.4632 19.2165 44.161 18.6004C43.9259 18.1441 43.814 17.8589 43.814 16.8778C43.814 15.8967 43.9259 15.6114 44.161 15.1437C44.452 14.5391 44.9669 14.2424 45.7392 14.2424C46.5115 14.2424 47.0152 14.5391 47.3062 15.1437C47.5189 15.6114 47.6308 15.8967 47.6308 16.8778C47.6308 17.8589 47.5189 18.1441 47.3062 18.6004ZM45.4929 25.5595C46.9033 25.5595 48.0449 25.126 48.8732 24.2818C49.7127 23.4376 50.1268 22.2169 50.1268 20.8707L50.1268 12.1319L47.8323 12.1319C47.8323 12.1319 47.7203 12.6225 47.7203 12.9419C47.0488 12.3144 46.2093 12.0064 45.2019 12.0064C44.0938 12.0064 43.2096 12.3258 42.5716 12.9647C41.7545 13.7747 41.3516 14.8129 41.3516 16.9006C41.3516 18.9883 41.7657 20.0151 42.5716 20.8365C43.2208 21.4867 44.0938 21.8176 45.1795 21.8176C46.1757 21.8176 46.9928 21.4982 47.6532 20.8935L47.6532 21.2129C47.6532 21.9203 47.4853 22.5021 47.1383 22.9242C46.7577 23.4148 46.1869 23.6429 45.4146 23.6429C43.9371 23.6429 43.1648 22.6618 43.1648 22.6618L41.7769 24.1107C41.7769 24.1107 42.7843 25.5937 45.5041 25.5937" fill="#908278"/>
<path d="M37.102 18.6004C36.811 19.2165 36.2961 19.5131 35.535 19.5131C34.7739 19.5131 34.259 19.2165 33.9568 18.6004C33.7218 18.1441 33.6098 17.8589 33.6098 16.8778C33.6098 15.8967 33.7218 15.6114 33.9568 15.1437C34.2478 14.5391 34.7627 14.2424 35.535 14.2424C36.3073 14.2424 36.811 14.5391 37.102 15.1437C37.3147 15.6114 37.4266 15.8967 37.4266 16.8778C37.4266 17.8589 37.3147 18.1441 37.102 18.6004ZM35.2888 25.5595C36.6991 25.5595 37.8296 25.126 38.669 24.2818C39.4973 23.4376 39.9226 22.2169 39.9226 20.8707L39.9226 12.1319L37.6169 12.1319C37.6169 12.1319 37.505 12.6225 37.505 12.9419C36.8334 12.3144 35.9939 12.0064 34.9754 12.0064C33.8673 12.0064 32.983 12.3258 32.345 12.9647C31.5391 13.7747 31.125 14.8129 31.125 16.9006C31.125 18.9883 31.5391 20.0151 32.345 20.8365C32.9942 21.4867 33.8673 21.8176 34.953 21.8176C35.9491 21.8176 36.7662 21.4982 37.4266 20.8935L37.4266 21.2129C37.4266 21.9203 37.2587 22.5021 36.9229 22.9242C36.5424 23.4148 35.9715 23.6429 35.1992 23.6429C33.7218 23.6429 32.9494 22.6618 32.9494 22.6618L31.5615 24.1107C31.5615 24.1107 32.5801 25.5937 35.2888 25.5937" fill="#908278"/>
<path d="M16.3513 20.2251C15.9819 20.6016 15.523 20.7841 14.9633 20.7841C14.4037 20.7841 13.956 20.6016 13.5866 20.2251C13.1501 19.7916 12.9262 18.8675 12.9262 17.5099C12.9262 16.1523 13.1501 15.2283 13.5866 14.7947C13.9448 14.4297 14.3925 14.2585 14.9633 14.2585C15.5342 14.2585 15.9931 14.4411 16.3513 14.7947C16.7878 15.2283 17.0117 16.1409 17.0117 17.5099C17.0117 18.8789 16.7878 19.7916 16.3513 20.2251ZM14.9633 11.9997C13.6426 11.9997 12.5457 12.4446 11.7062 13.3117C10.8779 14.1787 10.4414 15.5933 10.4414 17.5099C10.4414 19.4265 10.8667 20.864 11.7062 21.731C12.5457 22.598 13.6426 23.043 14.9633 23.043C16.2841 23.043 17.3922 22.598 18.2317 21.731C19.0712 20.864 19.4965 19.4379 19.4965 17.5099C19.4965 15.5819 19.0712 14.1787 18.2317 13.3117C17.3922 12.4446 16.2953 11.9997 14.9633 11.9997Z" fill="#908278"/>
<path d="M58.5003 12.1252L58.5003 18.6508C58.5003 19.3581 58.3212 19.8943 57.9519 20.2479C57.5825 20.6016 57.1236 20.7841 56.5527 20.7841C55.9819 20.7841 55.5566 20.6244 55.2208 20.2936C54.8514 19.9171 54.6723 19.3695 54.6723 18.6622L54.6723 12.1366L52.1875 12.1366L52.1875 18.9702C52.1875 20.2936 52.5569 21.3203 53.2844 22.039C53.956 22.7007 54.8514 23.043 55.9483 23.043C56.9557 23.043 57.7952 22.7007 58.4891 22.1075C58.4891 22.4041 58.5898 22.9289 58.5898 22.9289L60.9739 22.9289L60.9739 12.1366L58.4891 12.1366L58.5003 12.1252Z" fill="#908278"/>
<path d="M25.9212 12.0002C24.9138 12.0002 24.0632 12.331 23.358 12.9357C23.358 12.6391 23.2461 12.1257 23.2461 12.1257L20.918 12.1257L20.918 22.918L23.358 22.918L23.358 16.3696C23.358 15.6623 23.5483 15.1147 23.9401 14.7496C24.287 14.4073 24.7348 14.2476 25.328 14.2476C25.9212 14.2476 26.3465 14.4073 26.6711 14.7382C27.0405 15.1033 27.2308 15.6509 27.2308 16.3696L27.2308 22.918L29.7156 22.918L29.7156 16.073C29.7156 14.7496 29.3462 13.7114 28.6187 12.9927C27.9471 12.331 27.0405 11.9888 25.9324 11.9888" fill="#908278"/>
<path d="M5.90648 20.2251C5.53712 20.6016 5.07821 20.7841 4.51856 20.7841C3.95892 20.7841 3.52239 20.6016 3.14183 20.2251C2.70531 19.7916 2.48145 18.8675 2.48145 17.5099C2.48145 16.1523 2.70531 15.2283 3.14183 14.7947C3.50001 14.4297 3.94772 14.2585 4.51856 14.2585C5.0894 14.2585 5.54831 14.4297 5.90648 14.7947C6.34301 15.2283 6.56687 16.1409 6.56687 17.5099C6.56687 18.8789 6.34301 19.7916 5.90648 20.2251ZM6.53329 12.9352C5.8841 12.3419 4.91031 11.9997 3.88056 11.9997C2.77246 11.9997 1.87703 12.3305 1.22784 12.9808C0.399565 13.8136 0.00781216 15.2853 0.00781226 17.5099C0.00781236 19.7346 0.410758 21.229 1.21665 22.0619C1.86584 22.7121 2.76127 23.043 3.88056 23.043C4.88793 23.043 5.87291 22.7235 6.54448 22.1075C6.54448 22.4155 6.65641 22.9289 6.65641 22.9289L9.0405 22.9289L9.0405 8.09804L6.55567 8.09804L6.55567 12.9466L6.53329 12.9352Z" fill="#908278"/>
</g>
</g>
<defs>
<clipPath id="clip0_1379_77912">
<rect width="42" height="115" fill="white" transform="translate(0 42) rotate(-90)"/>
</clipPath>
</defs>
</svg>
