<svg width="172" height="42" viewBox="0 0 172 42" fill="none" xmlns="http://www.w3.org/2000/svg">
<g clip-path="url(#clip0_1379_78016)">
<path d="M37.4582 36.35H34.4568C32.7865 36.35 32.8236 34.6887 32.8236 34.6887V12.9456C32.7918 11.8021 32.0547 11.6294 32.0547 11.3166C32.0547 11.0037 32.4948 11.0361 32.4948 11.0361H39.7331H41.8966H43.7208C44.9988 11.0361 46.2025 11.3544 47.2578 11.9207C47.9895 12.3145 48.6524 12.8215 49.2198 13.4256C50.519 14.8011 51.3197 16.6566 51.3409 18.7063V19.8607C51.3197 21.9104 50.5137 23.7659 49.2198 25.1414C48.6524 25.7455 47.9895 26.2525 47.2578 26.6463C46.2025 27.2126 44.9988 27.5309 43.7208 27.5309H39.7702V23.4099H43.1799C43.2807 23.4099 43.3761 23.4099 43.4769 23.3991C45.5927 23.2427 47.2578 21.4788 47.2578 19.2889C47.2578 17.0989 45.5927 15.3351 43.4769 15.1787C43.3814 15.1733 43.2807 15.1679 43.1799 15.1679H37.4529V36.3608L37.4582 36.35Z" fill="#042275"/>
<path d="M27.4516 11.0235H9.40625V15.1444H16.9309V34.6598C16.9309 34.6598 16.8567 36.3374 18.5535 36.3374H21.5602V15.1498H29.0849V12.6848C29.0902 11.0019 27.4516 11.0235 27.4516 11.0235Z" fill="#042275"/>
<path d="M4.04371 11.0371H0.713568C0.713568 11.0371 0.273438 10.9939 0.273438 11.3176C0.273438 11.6412 1.04234 11.8084 1.04234 13.0221V34.6896C1.04234 34.6896 1.02113 36.351 2.6756 36.351H5.67167V12.6984C5.67167 10.9346 4.04371 11.0371 4.04371 11.0371Z" fill="#042275"/>
<path d="M85.6141 23.2281H87.889V11H85.6141V16.3616H83.4453V18.3142H85.6141V23.2281Z" fill="#042275"/>
<path d="M81.4651 11.1797H76.332V13.0784H81.4651V11.1797Z" fill="#042275"/>
<path d="M82.0044 13.8945H75.0047V15.7555H79.6288C80.106 15.7555 79.8674 16.1762 79.8674 16.1762C79.0083 17.6703 77.3433 18.7923 76.6539 19.2507C75.938 19.7254 74.9517 20.2217 74.0078 20.5885L75.2699 22.1527C77.1895 21.4245 78.4834 20.5345 79.6924 19.3694C80.2227 19.898 80.7795 20.3673 81.3628 20.788C81.9461 21.2088 82.593 21.5594 83.2559 21.883L84.5126 20.3403C84.0407 20.1569 81.665 18.803 80.9969 17.8861C81.8241 16.7695 82.4021 15.9065 82.6832 14.6659C82.6832 14.6659 82.8582 13.8999 81.9991 13.8999" fill="#042275"/>
<path d="M79.6409 26.1151H88.2155V28.0893H77.7425C76.9047 28.0893 76.9577 27.291 76.9577 27.291V22.8086H79.2273V25.689C79.2273 25.689 79.1902 26.1205 79.6356 26.1205" fill="#042275"/>
<path d="M63.7073 26.1151H72.2819V28.0893H61.8089C60.9711 28.0893 61.0241 27.291 61.0241 27.291V22.8086H63.2937V25.689C63.2937 25.689 63.2566 26.1205 63.7073 26.1205" fill="#042275"/>
<path d="M64.6552 20.3229C65.2226 20.0909 65.7051 19.7727 66.1135 19.3735C66.5218 18.9744 66.8346 18.4997 67.0627 17.9549C67.2907 17.4101 67.402 16.8276 67.402 16.2019C67.402 15.5762 67.2907 14.9505 67.0627 14.4003C66.8346 13.8501 66.5165 13.37 66.1135 12.9655C65.7051 12.561 65.2226 12.2373 64.6552 12.0054C64.0878 11.7734 63.4727 11.6602 62.8098 11.6602C62.147 11.6602 61.5372 11.7734 60.9804 12.0054C60.4236 12.2373 59.9516 12.5556 59.5486 12.9655C59.1456 13.37 58.838 13.8501 58.6153 14.4003C58.3926 14.9505 58.2812 15.5546 58.2812 16.2019C58.2812 16.8492 58.3926 17.4101 58.6153 17.9549C58.838 18.4997 59.1456 18.9744 59.538 19.3735C59.9304 19.7727 60.4077 20.0909 60.9698 20.3229C61.5319 20.5548 62.1417 20.6681 62.8045 20.6681C63.4674 20.6681 64.0825 20.5548 64.6499 20.3229M61.2296 17.8039C60.8425 17.4101 60.6463 16.8761 60.6463 16.1965C60.6463 15.4737 60.8425 14.9073 61.2349 14.5028C61.6273 14.0982 62.1629 13.8933 62.8416 13.8933C63.5204 13.8933 64.0401 14.0982 64.4484 14.5028C64.8567 14.9073 65.0582 15.4737 65.0582 16.1965C65.0582 16.8761 64.8567 17.4101 64.4484 17.8039C64.0454 18.1977 63.5098 18.3972 62.8416 18.3972C62.1735 18.3972 61.6114 18.1977 61.2243 17.8039" fill="#042275"/>
<path d="M71.9571 11H69.6875V23.2281H71.9571V11Z" fill="#042275"/>
<path d="M132.498 24.1757V20.8584H136.867V18.9058H128.6C128.16 18.9058 128.192 18.4851 128.192 18.4851V12.2227H125.885V20.0655C125.885 20.0655 125.811 20.8638 126.67 20.8638H130.191V24.1811H123.77V26.3225H138.925V24.1811H132.498V24.1757Z" fill="#042275"/>
<path d="M121.507 24.1758H106.352V26.3172H121.507V24.1758Z" fill="#042275"/>
<path d="M117.398 14.6018V16.9859H108.707V18.9062H117.398V22.7898H119.668V13.0159C119.668 12.1799 118.883 12.223 118.883 12.223H108.203V14.1757H116.979C116.979 14.1757 117.398 14.1379 117.398 14.6018Z" fill="#042275"/>
<path d="M173.831 24.1758H158.676V26.3172H173.831V24.1758Z" fill="#042275"/>
<path d="M169.716 14.9455V16.9089H160.961V18.8292H169.716V22.7884H171.986V13.3597C171.986 12.5236 171.201 12.5668 171.201 12.5668H160.516V14.5194H169.292C169.292 14.5194 169.711 14.4816 169.711 14.9455" fill="#042275"/>
<path d="M155.064 17.0844V11H152.773V28.0773H155.064V19.0748H157.594V17.0844H155.064Z" fill="#042275"/>
<path d="M149.984 21.7323V14.3641H151.643V12.4492H141.377V14.3641H143.042V21.8563H141.176V23.8089H146.961C147.985 23.8089 149.024 23.7658 150.084 23.6795C150.71 23.6255 151.299 23.5446 151.856 23.4367V21.4841C151.479 21.5542 151.103 21.6082 150.731 21.6513C150.477 21.6783 150.233 21.7053 149.984 21.7269M146.945 21.8617H145.19V14.3641H147.836V21.8455C147.55 21.8509 147.253 21.8563 146.945 21.8563" fill="#042275"/>
<path d="M98.5312 17.0398H96.4844V18.8953H98.5312V27.7522H100.642V11.3438H98.5312V17.0398Z" fill="#042275"/>
<path d="M104.096 11H101.938V28.0719H104.096V11Z" fill="#042275"/>
<path d="M96.3219 22.1958C95.5954 22.2982 94.0841 22.3576 93.1561 22.3738C93.1561 22.3738 92.7319 22.4169 92.7319 21.953V19.1266H95.6113V17.2495H92.7319V14.3206H96.4969V12.4219H90.457V23.5119C90.457 24.3749 91.2418 24.3102 91.2418 24.3102H93.1933C93.6864 24.3102 94.1849 24.294 94.6886 24.2617C95.1924 24.2293 95.6856 24.1861 96.1681 24.1214C96.6454 24.0621 97.1067 23.9812 97.5522 23.8841C97.5681 23.8841 97.5787 23.8787 97.5946 23.8733V21.9692C97.1704 22.0555 96.7461 22.131 96.3166 22.1904" fill="#042275"/>
<path d="M112.128 32.2743H110.808V36.3414H110.049V32.2743H108.734V31.6055H112.128V32.2743Z" fill="#0066AF"/>
<path d="M117.851 36.3375H115.273V31.6016H117.75V32.2704H116.037V33.6081H117.617V34.277H116.037V35.674H117.851V36.3375Z" fill="#0066AF"/>
<path d="M124.334 36.1407C123.99 36.3241 123.56 36.4158 123.046 36.4158C122.378 36.4158 121.847 36.2 121.444 35.7631C121.041 35.3262 120.84 34.7598 120.84 34.0586C120.84 33.2981 121.068 32.6885 121.519 32.2247C121.969 31.7554 122.537 31.5234 123.226 31.5234C123.672 31.5234 124.037 31.5882 124.329 31.7176V32.4997C124.022 32.311 123.677 32.2139 123.306 32.2139C122.812 32.2139 122.404 32.3811 122.097 32.7047C121.789 33.0338 121.635 33.4707 121.635 34.0208C121.635 34.571 121.778 34.9594 122.07 35.2669C122.356 35.5743 122.738 35.7307 123.205 35.7307C123.64 35.7307 124.016 35.6229 124.329 35.4125V36.1407H124.334Z" fill="#0066AF"/>
<path d="M131.37 36.3375H130.602V34.2824H128.443V36.3375H127.68V31.6016H128.443V33.5919H130.602V31.6016H131.37V36.3375Z" fill="#0066AF"/>
<path d="M138.72 36.3414H137.888L135.698 32.8623C135.645 32.776 135.597 32.6843 135.56 32.5872H135.539C135.555 32.6897 135.565 32.9054 135.565 33.2398V36.3414H134.828V31.6055H135.714L137.835 35.0037C137.925 35.1439 137.983 35.241 138.01 35.2949H138.02C137.999 35.1709 137.989 34.9551 137.989 34.6585V31.6055H138.72V36.3414Z" fill="#0066AF"/>
<path d="M144.204 36.4275C143.541 36.4275 143.011 36.2063 142.613 35.764C142.216 35.3217 142.02 34.7446 142.02 34.038C142.02 33.2774 142.221 32.6679 142.629 32.2148C143.032 31.7617 143.584 31.5352 144.279 31.5352C144.925 31.5352 145.445 31.7563 145.838 32.1932C146.23 32.6355 146.426 33.2073 146.426 33.9193C146.426 34.6906 146.225 35.3002 145.822 35.7532C145.419 36.2009 144.878 36.4275 144.204 36.4275ZM144.236 32.2202C143.817 32.2202 143.472 32.382 143.213 32.7057C142.948 33.0293 142.82 33.4554 142.82 33.984C142.82 34.5126 142.948 34.9334 143.202 35.257C143.457 35.5806 143.791 35.7371 144.204 35.7371C144.644 35.7371 144.989 35.586 145.244 35.2786C145.498 34.9711 145.625 34.545 145.625 33.9948C145.625 33.4446 145.503 32.9915 145.254 32.6841C145.01 32.3766 144.666 32.2202 144.236 32.2202Z" fill="#0066AF"/>
<path d="M150.379 34.6285V36.3492H149.621V31.6133H151.01C151.535 31.6133 151.944 31.7427 152.235 31.9909C152.527 32.2444 152.67 32.6004 152.67 33.0589C152.67 33.5174 152.516 33.8949 152.214 34.1862C151.912 34.4775 151.504 34.6231 150.984 34.6231H150.374L150.379 34.6285ZM150.379 32.2552V33.9866H150.873C151.201 33.9866 151.445 33.9111 151.62 33.7547C151.79 33.5983 151.875 33.3771 151.875 33.0912C151.875 32.5356 151.562 32.2552 150.931 32.2552H150.374H150.379Z" fill="#0066AF"/>
<path d="M159.35 36.3414H158.517L158.104 35.1331H156.301L155.903 36.3414H155.07L156.788 31.6055H157.647L159.35 36.3414ZM157.902 34.4966L157.266 32.6087C157.244 32.5494 157.229 32.4469 157.202 32.3121H157.186C157.165 32.4361 157.144 32.5386 157.122 32.6087L156.491 34.4966H157.897H157.902Z" fill="#0066AF"/>
<path d="M165.999 36.3375H165.108L164.377 35.0699C164.313 34.9566 164.244 34.8541 164.186 34.7732C164.122 34.6923 164.058 34.6222 163.995 34.5736C163.931 34.5197 163.857 34.4819 163.783 34.455C163.708 34.428 163.618 34.4172 163.523 34.4172H163.215V36.3375H162.457V31.6016H163.968C164.186 31.6016 164.382 31.6285 164.562 31.6825C164.743 31.7364 164.902 31.8173 165.034 31.9252C165.167 32.0331 165.273 32.1625 165.352 32.3244C165.427 32.4862 165.464 32.6696 165.464 32.8853C165.464 33.0525 165.442 33.209 165.389 33.3492C165.342 33.4895 165.273 33.6135 165.183 33.7214C165.093 33.8293 164.986 33.9264 164.864 34.0019C164.737 34.0774 164.599 34.1367 164.446 34.1799V34.1907C164.525 34.2392 164.599 34.2932 164.663 34.3525C164.727 34.4118 164.785 34.4712 164.838 34.5305C164.896 34.5952 164.949 34.6599 165.002 34.7409C165.055 34.8164 165.119 34.9081 165.183 35.016L165.999 36.3483V36.3375ZM163.21 32.2381V33.7753H163.841C163.958 33.7753 164.069 33.7538 164.17 33.716C164.271 33.6782 164.355 33.6243 164.43 33.5542C164.504 33.4841 164.557 33.3978 164.599 33.2953C164.642 33.1928 164.658 33.0795 164.658 32.9555C164.658 32.7289 164.589 32.5509 164.451 32.4214C164.313 32.292 164.112 32.2327 163.852 32.2327H163.21V32.2381Z" fill="#0066AF"/>
<path d="M70.0211 36.3414H69.1886L66.9986 32.8623C66.9455 32.776 66.8978 32.6843 66.8607 32.5872H66.8395C66.8554 32.6897 66.866 32.9054 66.866 33.2398V36.3414H66.1289V31.6055H67.0145L69.1303 35.0037C69.2204 35.1439 69.2788 35.241 69.3053 35.2949H69.3159C69.2947 35.1709 69.2841 34.9551 69.2841 34.6585V31.6055H70.0158V36.3414H70.0211Z" fill="#0066AF"/>
<path d="M76.4828 36.1407C76.1381 36.3241 75.7086 36.4158 75.1942 36.4158C74.5261 36.4158 73.9958 36.2 73.5928 35.7631C73.1898 35.3262 72.9883 34.7598 72.9883 34.0586C72.9883 33.2981 73.2163 32.6885 73.667 32.2247C74.1178 31.7554 74.6905 31.5234 75.3798 31.5234C75.8253 31.5234 76.1912 31.5882 76.4828 31.7176V32.4997C76.1753 32.311 75.8306 32.2139 75.4594 32.2139C74.9609 32.2139 74.5579 32.3811 74.2503 32.7047C73.9428 33.0338 73.789 33.4707 73.789 34.0208C73.789 34.571 73.9322 34.9594 74.2238 35.2669C74.5102 35.5743 74.892 35.7307 75.3586 35.7307C75.7935 35.7307 76.1647 35.6229 76.4828 35.4125V36.1407Z" fill="#0066AF"/>
<path d="M83.2415 36.3414H82.4779V34.2863H80.3144V36.3414H79.5508V31.6055H80.3144V33.5958H82.4779V31.6055H83.2415V36.3414Z" fill="#0066AF"/>
<path d="M89.3389 36.3414H86.7617V31.6055H89.2381V32.2743H87.52V33.612H89.1002V34.2809H87.52V35.6779H89.3389V36.3414Z" fill="#0066AF"/>
<path d="M94.6887 36.4275C94.0258 36.4275 93.4955 36.2063 93.0978 35.764C92.7001 35.3217 92.5039 34.7446 92.5039 34.038C92.5039 33.2774 92.7054 32.6679 93.1137 32.2148C93.5167 31.7617 94.0682 31.5352 94.7629 31.5352C95.4045 31.5352 95.9242 31.7563 96.3166 32.1932C96.709 32.6355 96.9052 33.2073 96.9052 33.9193C96.9052 34.6906 96.7037 35.3002 96.3007 35.7532C95.8977 36.2009 95.3568 36.4275 94.6833 36.4275M94.7258 32.2202C94.3069 32.2202 93.9622 32.382 93.7023 32.7057C93.4372 33.0293 93.3046 33.4554 93.3046 33.984C93.3046 34.5126 93.4319 34.9334 93.6917 35.257C93.9463 35.5806 94.2803 35.7371 94.694 35.7371C95.1341 35.7371 95.4788 35.586 95.7333 35.2786C95.9878 34.9711 96.1151 34.545 96.1151 33.9948C96.1151 33.4446 95.9931 32.9915 95.7439 32.6841C95.5 32.3766 95.1553 32.2202 94.7258 32.2202Z" fill="#0066AF"/>
<path d="M103.316 36.3375H102.483L100.288 32.8584C100.235 32.7721 100.187 32.6804 100.15 32.5833H100.129C100.144 32.6858 100.155 32.9015 100.155 33.2359V36.3375H99.418V31.6016H100.304L102.425 34.9998C102.515 35.14 102.573 35.2371 102.6 35.291H102.61C102.589 35.167 102.578 34.9512 102.578 34.6546V31.6016H103.31V36.3375H103.316Z" fill="#0066AF"/>
<path d="M61.7974 31.6016H61.0391V36.3375H61.7974V31.6016Z" fill="#0066AF"/>
<path d="M172.003 35.9445H171.179L169.849 33.9583C169.8 33.8842 169.769 33.8348 169.761 33.8051H169.752V35.9395H169.117V31.6016H169.752V33.6421H169.761C169.783 33.5976 169.813 33.5482 169.849 33.4939L171.131 31.6016H171.889L170.391 33.6816L172.003 35.9395V35.9445Z" fill="#0066AF"/>
</g>
<defs>
<clipPath id="clip0_1379_78016">
<rect width="172" height="42" fill="white"/>
</clipPath>
</defs>
</svg>
