<svg width="106" height="42" viewBox="0 0 106 42" fill="none" xmlns="http://www.w3.org/2000/svg">
<path d="M11.1203 35.3447C16.6912 35.3447 21.2056 30.9389 21.2344 25.4997C21.2248 26.937 20.6581 28.3743 19.5343 29.4734C17.2675 31.6904 13.5792 31.6904 11.3124 29.4734C9.04563 27.2564 9.04563 23.6585 11.3124 21.4321C13.5792 19.2151 17.2579 19.2151 19.5343 21.4321C20.6677 22.5406 21.2344 23.9872 21.2344 25.4245V12.5359C15.9516 10.2625 9.5547 11.2395 5.22282 15.4762C2.34131 18.3038 0.938978 22.0145 1.00621 25.7064C1.14068 31.0516 5.61663 35.3447 11.1203 35.3447Z" fill="url(#paint0_linear_1379_78081)"/>
<path d="M22.6384 7.80338C21.8603 8.19793 21.236 9.11855 21.236 9.87947V25.4548C21.236 30.9128 16.7024 35.3468 11.1219 35.3468C5.54139 35.3468 1.15189 31.0537 1.00781 25.7085C1.14228 33.374 7.54884 39.5553 15.4154 39.5553C23.2819 39.5553 29.8325 33.2425 29.8325 25.4548V4.21484L22.6287 7.80338H22.6384Z" fill="url(#paint1_linear_1379_78081)"/>
<path d="M49.9005 14.5898V17.7707H47.1879V19.507H49.9005V32.3692H52.1728V14.6037H49.9005V14.5898ZM44.035 16.59V14.5898H41.7627V16.59C41.7627 19.5764 39.3341 23.4657 37.1328 25.313L38.9649 26.2159C40.5555 24.7435 41.9757 22.8406 42.9131 20.9099C43.8362 22.8406 45.2564 24.7435 46.847 26.2159L48.6791 25.313C46.4636 23.4657 44.0492 19.5625 44.0492 16.59H44.035Z" fill="#727171"/>
<path d="M86.2396 23.7018V21.9655H71.3984V23.7018H77.69V24.938C75.8295 25.3964 74.4519 26.9521 74.4519 28.7995C74.4519 31.008 76.4118 32.7998 78.8261 32.7998C81.2405 32.7998 83.1862 31.008 83.1862 28.7995C83.1862 26.9521 81.8086 25.3964 79.9481 24.938V23.7018H86.2254H86.2396ZM80.9422 28.7995C80.9422 29.9385 79.9907 30.8552 78.8261 30.8552C77.6616 30.8552 76.71 29.9385 76.71 28.7995C76.71 27.6605 77.6474 26.7437 78.8261 26.7437C80.0049 26.7437 80.9422 27.6605 80.9422 28.7995ZM71.8387 20.0903L73.3725 21.4238C75.6307 20.4654 77.7894 18.5624 78.8261 17.3818C79.8629 18.5624 82.0216 20.4654 84.2797 21.4238L85.8136 20.0903C83.6691 19.118 81.7234 17.5901 80.7576 16.3261H85.4301V14.5898H72.2364V16.3261H76.9089C75.9431 17.5901 73.9974 19.118 71.8529 20.0903H71.8387Z" fill="#727171"/>
<path d="M101.472 23.4518V16.0761C101.472 15.2566 100.79 14.5898 99.9524 14.5898H88.7043V16.3261H99.1997V23.4518H87.4688V25.188H93.9591V32.3692H96.2314V25.188H102.722V23.4518H101.472Z" fill="#727171"/>
<path d="M62.1011 22.2781C64.6717 22.2781 66.7452 20.3752 66.7452 18.0277C66.7452 15.6803 64.6717 13.7773 62.1011 13.7773C59.5305 13.7773 57.457 15.6803 57.457 18.0277C57.457 20.3752 59.5447 22.2781 62.1011 22.2781ZM62.1011 15.7081C63.4077 15.7081 64.4729 16.7498 64.4729 18.0277C64.4729 19.3056 63.4077 20.3474 62.1011 20.3474C60.7945 20.3474 59.7294 19.3056 59.7294 18.0277C59.7294 16.7498 60.7945 15.7081 62.1011 15.7081Z" fill="#727171"/>
<path d="M69.7296 24.5878V22.8516H54.4766V24.5878H60.9669V25.5046H55.6979V27.2409H66.2501V28.1715H55.6979V30.8801C55.6979 31.6996 56.3796 32.3663 57.2176 32.3663H68.5082V30.63H57.9703V29.6994H68.5082V26.9908C68.5082 26.1713 67.8265 25.5046 66.9886 25.5046H63.2393V24.5878H69.7296Z" fill="#727171"/>
<defs>
<linearGradient id="paint0_linear_1379_78081" x1="5.32848" y1="15.3823" x2="19.3126" y2="29.69" gradientUnits="userSpaceOnUse">
<stop stop-color="#F6AB00"/>
<stop offset="1" stop-color="#FFD900"/>
</linearGradient>
<linearGradient id="paint1_linear_1379_78081" x1="15.425" y1="39.5553" x2="15.425" y2="11.2698" gradientUnits="userSpaceOnUse">
<stop stop-color="#B60005"/>
<stop offset="1" stop-color="#DF0615"/>
</linearGradient>
</defs>
</svg>
