<svg width="156" height="42" viewBox="0 0 156 42" fill="none" xmlns="http://www.w3.org/2000/svg">
<path d="M80.2969 13.1328V26.3751C80.2969 28.105 81.6505 29.5303 83.3075 29.5303H96.692V13.1328H80.2969ZM93.1796 25.7903H83.9143V16.8606H93.1796V25.7903Z" fill="#09003E"/>
<path d="M121.908 29.5303H108.733C107.076 29.5303 105.711 28.1172 105.711 26.3751V13.1328H121.908V16.8119H109.363V25.7416H121.908V29.5303Z" fill="#09003E"/>
<path d="M103.95 13.1484H100.473V30.9591H103.95V13.1484Z" fill="#09003E"/>
<path d="M129.013 13.1484H125.535V30.9591H129.013V13.1484Z" fill="#09003E"/>
<path d="M139.822 12.8906C134.909 12.8906 130.918 16.6672 130.918 21.3208C130.918 25.9745 134.909 29.7511 139.822 29.7511C144.734 29.7511 148.725 25.9745 148.725 21.3208C148.725 16.6672 144.734 12.8906 139.822 12.8906ZM139.95 26.0354C137.103 26.0354 134.804 23.9279 134.804 21.3208C134.804 18.7138 137.103 16.6063 139.95 16.6063C142.797 16.6063 145.108 18.7138 145.108 21.3208C145.108 23.9279 142.797 26.0354 139.95 26.0354Z" fill="#09003E"/>
<path d="M152.472 19.398V13.1484H155.937V30.9591H152.472V23.1989V23.0771H147.629V19.398H152.472Z" fill="#09003E"/>
<path d="M15.1427 30.9196L8.1062 21.6731L14.8976 13.1211H10.1133L3.64858 21.5879V13.1211H0.0078125V30.9196H3.64858V21.7706L9.98493 30.9196H15.1427Z" fill="#09003E"/>
<path d="M40.9528 20.0968C42.0031 20.0968 46.5073 20.8034 46.5073 25.4692C46.5073 30.4031 41.968 30.9391 41.968 30.9391H31.3608V28.0519H39.8909C42.3648 28.0519 42.3415 25.591 42.3415 25.591C42.3415 22.8865 39.4125 22.9962 39.4125 22.9962H36.1451C34.6398 22.9962 30.7773 22.4358 30.7773 18.2694C30.7773 13.2624 35.5734 13.1406 35.5734 13.1406H45.2821V15.9791H37.3121C34.7332 15.9791 34.7799 18.0745 34.7799 18.0745C34.7799 18.0745 34.8032 20.109 37.032 20.109H40.9412L40.9528 20.0968Z" fill="#09003E"/>
<path d="M25.7259 30.9196C28.2931 30.9196 30.6269 28.9582 30.6269 25.9492C30.6269 22.5137 28.1881 21.4417 28.1881 21.4417C28.1881 21.4417 30.1251 20.7473 29.9384 17.6651C29.6817 13.1942 24.839 13.1211 24.839 13.1211H15.457V30.9196C15.457 30.9196 23.5671 30.9196 25.7142 30.9196H25.7259ZM18.9111 16.0083H23.6021C23.6021 16.0083 26.1576 15.8865 26.1576 18.1037C26.1576 20.0041 24.559 20.1382 24.0338 20.1747H18.9111V16.0205V16.0083ZM23.1937 28.0202H18.9111V23.0132H24.1855C24.1855 23.0132 26.8578 23.1228 26.8578 25.4862C26.8578 27.8496 24.8624 28.0202 23.1937 28.0202Z" fill="#09003E"/>
<path d="M72.7766 18.8321C72.4965 17.8331 72.0881 16.8464 71.5397 15.8961C70.011 13.216 67.7355 11.3643 65.3784 10.5846C65.3784 10.5846 65.3784 10.5846 65.355 10.5846C65.3083 10.5724 65.25 10.5481 65.2033 10.5359C65.2033 10.5359 65.1917 10.5359 65.18 10.5359C64.1531 10.2191 59.4154 8.97654 56.8716 11.9125C56.8716 11.9125 56.8249 11.9734 56.8015 11.9978C53.4758 13.2282 50.9786 15.9571 50.3018 19.2707C50.3018 19.2707 50.1851 19.8798 50.1851 19.892C50.0451 20.8544 49.9284 22.4868 50.2435 24.5213C50.3135 24.8502 50.3952 25.1913 50.4769 25.5202C50.7569 26.5192 51.1654 27.506 51.7138 28.4562C53.2425 31.1363 55.5063 32.988 57.8751 33.7677C57.8751 33.7677 57.8751 33.7677 57.8984 33.7677C57.9451 33.7799 58.0035 33.8043 58.0501 33.8165C58.0501 33.8165 58.0618 33.8165 58.0735 33.8165C59.1004 34.1332 63.838 35.3758 66.3819 32.4398C66.3819 32.4398 66.4286 32.3911 66.4519 32.3546C69.5793 31.1972 71.9714 28.7242 72.8116 25.6786C72.975 25.1304 73.2434 23.9487 73.2317 22.4381C73.2667 21.2686 73.115 20.0382 72.7649 18.8199L72.7766 18.8321ZM55.9147 13.5815C56.3231 13.4231 56.7315 13.2647 57.1633 13.1307C60.7691 11.9734 64.4098 12.0831 67.2454 13.2282C69.7543 14.2393 71.6447 16.0545 72.3448 18.5032C72.3915 18.6372 72.4149 18.7834 72.4499 18.9174C72.4499 18.9539 72.4615 18.9905 72.4732 19.027C72.4732 19.0879 72.4499 19.1488 72.4032 19.1488C72.3682 19.1488 72.3332 19.1245 72.3098 19.0879C72.3098 19.0514 72.2865 19.027 72.2748 18.9905C71.7497 17.4799 70.7695 16.2372 69.4859 15.2992C66.4169 13.0698 61.5626 12.5582 56.7665 14.2759C56.3931 14.4099 56.0197 14.5561 55.658 14.7144C55.7046 14.3246 55.7863 13.9348 55.9147 13.5693V13.5815ZM50.3602 21.7681C50.3602 21.7681 50.3602 21.695 50.3602 21.6584C50.3602 21.6097 50.3952 21.5853 50.4302 21.5731C50.4652 21.5731 50.5002 21.6097 50.5119 21.6462C50.5119 21.6828 50.5119 21.7071 50.5352 21.7437C50.5936 22.0604 50.6752 22.3772 50.7686 22.6939C51.0253 23.498 51.4104 24.2167 51.8888 24.8502C54.1527 27.7983 58.6569 28.8826 63.4646 27.7862C64.1998 27.6522 64.9233 27.4329 65.6117 27.1527C65.7518 27.104 65.9035 27.043 66.0552 26.9821C66.3702 26.8603 66.662 26.7141 66.942 26.5557C67.0354 26.7019 67.1171 26.8481 67.1871 27.0065C67.3038 27.2501 67.3971 27.506 67.4788 27.774C67.012 27.9933 66.5453 28.1882 66.0552 28.3587C60.524 30.3201 55.1445 29.5161 52.3323 26.4339C51.6088 25.6421 51.0603 24.704 50.7103 23.632C50.5119 23.0228 50.4069 22.4015 50.3718 21.7802L50.3602 21.7681ZM67.3738 30.7709C66.9654 30.9292 66.5569 31.0876 66.1252 31.2216C62.5078 32.3789 58.8787 32.2693 56.0314 31.1241C53.5225 30.113 51.6438 28.31 50.932 25.8492C50.897 25.7152 50.862 25.569 50.8269 25.435C50.8269 25.3984 50.8153 25.3619 50.8036 25.3131C50.8036 25.2522 50.8269 25.2035 50.8736 25.1913C50.9086 25.1913 50.9436 25.2035 50.967 25.2522C50.967 25.2888 50.9903 25.3131 51.002 25.3497C51.5271 26.8603 52.4956 28.1029 53.7909 29.041C56.8599 31.2703 61.7143 31.782 66.5103 30.0643C66.8837 29.9303 67.2571 29.7841 67.6188 29.6257C67.5722 30.0155 67.4905 30.3932 67.3621 30.7709H67.3738ZM72.5549 25.3497C72.5549 25.3497 72.5432 25.435 72.5315 25.4715C72.5082 25.5202 72.4849 25.5324 72.4499 25.5324C72.4149 25.5324 72.3798 25.4837 72.3682 25.435C72.3682 25.3984 72.3682 25.3619 72.3682 25.3253C72.3682 24.6675 72.2632 24.0096 72.0298 23.3761C71.8897 22.9498 71.6914 22.5477 71.458 22.1823C71.1429 21.6828 70.7578 21.232 70.3144 20.83C67.7705 18.5885 63.2662 18.1133 58.937 19.8554C59.8355 20.1722 60.8507 20.2453 61.866 20.026C62.0293 19.9772 62.2044 19.9285 62.3677 19.892C63.5463 19.6118 64.8766 19.6118 66.2419 19.9407C68.2956 20.4402 69.6843 21.0615 70.6761 22.4868C70.6761 22.4868 70.9212 22.8279 70.6295 23.2787C69.6959 24.5456 68.4007 25.6786 66.8954 26.5192C66.6503 26.1172 66.3352 25.7639 65.9852 25.4471C65.5534 25.6542 65.0983 25.837 64.6315 26.0197C61.5742 27.1283 58.4936 27.2258 56.008 26.4826C54.1877 25.9344 52.694 24.9477 51.7371 23.5589C51.4337 23.1081 51.177 22.6208 51.002 22.097C50.6519 21.098 50.5702 20.0503 50.7336 19.0027C50.7336 18.9661 50.7453 18.9174 50.7569 18.8808C50.7803 18.8321 50.8036 18.8199 50.8386 18.8199C50.8736 18.8199 50.9086 18.8686 50.9203 18.9174C50.9203 18.9539 50.9203 18.9783 50.9203 19.027C50.9203 19.6849 51.037 20.3427 51.2587 20.9762C51.4104 21.4026 51.5971 21.8046 51.8305 22.1701C52.1456 22.6696 52.5306 23.1203 52.9741 23.5223C55.5179 25.7639 60.0222 26.239 64.3515 24.4969C63.453 24.1802 62.4377 24.1071 61.4225 24.3385C61.2592 24.3873 61.0958 24.436 60.9208 24.4726C59.7422 24.7527 58.4119 24.7649 57.0466 24.436C54.9812 23.9365 53.6042 23.3152 52.6123 21.8899C52.6123 21.8899 52.3789 21.5488 52.659 21.098C53.5925 19.8311 54.8878 18.6981 56.3931 17.8697C56.6382 18.2717 56.9532 18.625 57.3033 18.9296C57.7351 18.7225 58.1902 18.5397 58.6686 18.357C61.7259 17.2484 64.7949 17.1509 67.2921 17.8941C69.1008 18.4423 70.6061 19.429 71.563 20.8178C71.8781 21.2686 72.1231 21.7559 72.3098 22.2797C72.6599 23.2787 72.7299 24.3264 72.5782 25.374L72.5549 25.3497ZM72.8699 22.7792C72.8699 22.7792 72.7999 22.7548 72.7766 22.7061C72.7766 22.6696 72.7766 22.6452 72.7649 22.6086C72.7066 22.2919 72.6249 21.9752 72.5315 21.6584C72.2748 20.8544 71.8897 20.1356 71.4113 19.5143C69.1592 16.554 64.6432 15.4698 59.8355 16.5784C59.1004 16.7124 58.3769 16.9316 57.6884 17.2118C57.5484 17.2606 57.3967 17.3215 57.2566 17.3824C56.9416 17.5042 56.6382 17.6504 56.3698 17.7966C56.2764 17.6504 56.1947 17.5042 56.1247 17.3458C56.008 17.1022 55.9147 16.8464 55.833 16.5784C56.2998 16.3591 56.7782 16.1642 57.2566 15.9936C62.7878 14.0322 68.1673 14.8363 70.9795 17.9184C71.703 18.7103 72.2515 19.6483 72.6016 20.7204C72.7883 21.3295 72.905 21.9508 72.94 22.5721C72.94 22.6086 72.94 22.6452 72.94 22.6939C72.94 22.7427 72.905 22.767 72.8816 22.7792H72.8699Z" fill="#2282B9"/>
</svg>
