<svg width="190" height="42" viewBox="0 0 190 42" fill="none" xmlns="http://www.w3.org/2000/svg">
<g clip-path="url(#clip0_1379_78001)">
<path d="M17.3112 14.2382H20.1679V30.7382H17.3112V14.2382ZM20.8306 9.28667C20.8306 9.84277 20.6097 10.3379 20.1679 10.7645C19.7261 11.1911 19.208 11.4044 18.6215 11.4044C18.0349 11.4044 17.5321 11.1911 17.1131 10.7645C16.7018 10.3379 16.4961 9.84277 16.4961 9.28667C16.4961 8.70011 16.7018 8.20495 17.1131 7.80883C17.5245 7.40509 18.0273 7.20703 18.6215 7.20703C19.2157 7.20703 19.7261 7.40509 20.1679 7.80883C20.6097 8.20495 20.8306 8.70011 20.8306 9.28667Z" fill="#D10D22"/>
<path d="M40.7977 20.8393H37.781C37.1259 18.6759 34.9319 17.1066 32.5552 17.1066C29.6452 17.1066 27.2913 19.4681 27.2913 22.3781C27.2913 25.2881 29.6299 27.6267 32.5247 27.642C32.5247 27.642 32.5933 27.642 32.6313 27.642C38.2152 27.7334 42.9687 20.8774 42.9687 20.8774C47.9279 14.0443 52.6129 14.1205 53.0776 14.151C53.0776 14.151 53.1309 14.151 53.1614 14.151C57.7092 14.151 61.3962 17.838 61.3962 22.3857C61.3962 26.9335 57.7092 30.6129 53.1614 30.6129C51.3407 30.6129 49.2687 30.0187 47.9051 29.0208V39H44.9265V24.8767C44.9265 24.8767 44.9265 24.8767 44.9265 24.8691H47.9051H48.126C49.0097 26.5222 51.1503 27.6496 53.1614 27.6496C56.0714 27.6496 58.4329 25.2957 58.4329 22.3857C58.4329 19.4758 56.0714 17.1143 53.1614 17.1143C53.1309 17.1143 53.108 17.1143 53.0776 17.1143C49.261 17.0229 44.5075 23.4751 44.5075 23.4751C39.1522 30.5367 33.1875 30.6205 32.5856 30.6129C32.5704 30.6129 32.5628 30.6129 32.5476 30.6129C27.9997 30.6129 24.3203 26.9259 24.3203 22.3857C24.3203 17.8456 28.0073 14.151 32.5476 14.151C34.4672 14.151 36.4098 14.8061 37.8115 15.903V6H40.79V20.8393H40.7977Z" fill="#D10D22"/>
<path d="M14.0057 30.7321L3.97302 22.3983L13.7848 14.2474H9.32073L2.39614 19.9988V10.0195H-0.445312V30.7398H2.39614V24.8055L9.54164 30.7321H14.0057Z" fill="#D10D22"/>
<path d="M72.6802 21.331C72.2231 21.7805 71.6746 22.009 71.0347 22.009C70.3948 22.009 69.8464 21.7805 69.3893 21.331C68.9322 20.8816 68.7037 20.3331 68.7037 19.6932C68.7037 19.0533 68.9322 18.5048 69.3893 18.0478C69.8464 17.5907 70.3948 17.3545 71.0347 17.3545C71.6746 17.3545 72.2231 17.5831 72.6802 18.0478C73.1373 18.5048 73.3658 19.0533 73.3658 19.6932C73.3658 20.3331 73.1373 20.8739 72.6802 21.331ZM77.0833 25.9016H79.0411V18.2534H80.557V16.6537H79.0411V14.1627H77.0833V25.9016ZM71.0347 25.3684H69.077V30.5256H79.0335V28.9259H71.0347V25.3684ZM67.5153 17.8878C67.1954 18.4591 67.0354 19.0914 67.0354 19.777C67.0354 20.8816 67.4239 21.8262 68.2085 22.6108C68.9932 23.3878 69.9378 23.7839 71.0347 23.7839C72.1317 23.7839 73.0763 23.3954 73.861 22.6108C74.6456 21.8262 75.0341 20.8816 75.0341 19.777C75.0341 19.0914 74.8741 18.4591 74.5618 17.8878C74.2342 17.3088 73.8152 16.8442 73.282 16.4785H75.4835V14.8712H72.0327V13.8047H70.0749V14.8712H66.5859V16.4785H68.7951C68.2619 16.8442 67.8353 17.3165 67.5153 17.8878Z" fill="#56351E"/>
<path d="M94.5873 20.2645H95.2957V21.8719H90.1385V23.8296H94.5873V30.3199H92.6295V25.4293H83.3815V23.8296H88.1807V21.8719H83.0234V20.2645H92.6295V15.5568H83.0234V13.957H94.5873V20.2645Z" fill="#56351E"/>
<path d="M110.461 30.5152H108.511V24.8172H99.0195V14.1523H106.843V15.7521H100.977V23.2251H108.511V14.1523H110.461V30.5152Z" fill="#56351E"/>
<path d="M114.093 14.1523H122.991V15.7521H119.609L123.913 24.2001L122.328 25L118.534 17.5803L114.726 25.0152L113.156 24.2001L117.468 15.7521H114.086V14.1523H114.093ZM124.591 14.1523H126.548V16.6433H128.057V18.2431H126.548V30.5228H124.591V14.1523Z" fill="#56351E"/>
<path d="M136.818 20.1262C136.316 20.629 135.699 20.8804 134.975 20.8804C134.251 20.8804 133.634 20.629 133.131 20.1262C132.629 19.6235 132.377 19.0064 132.377 18.2827C132.377 17.559 132.629 16.9496 133.131 16.4392C133.634 15.9441 134.251 15.6851 134.975 15.6851C135.699 15.6851 136.308 15.9441 136.818 16.4392C137.321 16.9496 137.573 17.559 137.573 18.2827C137.573 19.0064 137.321 19.6235 136.818 20.1262ZM138.045 15.1823C137.199 14.3291 136.179 13.9102 134.975 13.9102C133.771 13.9102 132.758 14.3367 131.905 15.1823C131.059 16.0279 130.633 17.0563 130.633 18.2523C130.633 19.4482 131.052 20.4766 131.905 21.3146C132.758 22.1602 133.779 22.5944 134.975 22.5944C136.171 22.5944 137.199 22.1678 138.045 21.3146C138.891 20.469 139.317 19.4406 139.317 18.2523C139.317 17.0639 138.891 16.0279 138.045 15.1823ZM143.118 14.1539H141.168V25.9005H143.118V14.1539ZM143.103 28.9247H134.922V24.4759H132.964V30.5244H143.103V28.9247Z" fill="#56351E"/>
<path d="M159.573 25.9178H157.615V14.1637H159.573V25.9178ZM151.041 24.4781H149.083V30.5266H159.573V28.9192H151.033V24.4781H151.041ZM156.892 22.3223L155.398 23.244L151.574 16.9594L147.743 23.2212L146.227 22.3146L150.256 15.7482H147.118V14.1484H155.833V15.7482H152.862L156.884 22.3146L156.892 22.3223Z" fill="#56351E"/>
<path d="M170.083 29.0091C169.747 29.3367 169.351 29.5042 168.871 29.5042C168.392 29.5042 167.995 29.329 167.668 29.0091C167.333 28.6739 167.173 28.2702 167.173 27.7979C167.173 27.3256 167.333 26.9218 167.668 26.5867C167.995 26.2515 168.399 26.0915 168.871 26.0915C169.344 26.0915 169.747 26.2591 170.083 26.5867C170.418 26.9218 170.585 27.3256 170.585 27.7979C170.585 28.2702 170.418 28.6739 170.083 29.0091ZM171.34 25.3145C170.654 24.6289 169.839 24.2861 168.879 24.2861C167.919 24.2861 167.096 24.6289 166.411 25.3145C165.725 25.9925 165.39 26.8152 165.39 27.775C165.39 28.7349 165.733 29.5576 166.411 30.2355C167.096 30.9135 167.919 31.2563 168.879 31.2563C169.839 31.2563 170.662 30.9135 171.34 30.2355C172.025 29.55 172.368 28.7349 172.368 27.775C172.368 26.8152 172.025 25.9925 171.34 25.3145ZM170.166 19.5098C169.816 19.8602 169.397 20.0354 168.91 20.0354C168.422 20.0354 168.003 19.8602 167.66 19.5098C167.302 19.1594 167.135 18.7404 167.135 18.2605C167.135 17.7806 167.31 17.354 167.66 17.0036C168.003 16.6531 168.422 16.4779 168.91 16.4779C169.397 16.4779 169.816 16.6531 170.166 17.0036C170.517 17.354 170.684 17.7729 170.684 18.2605C170.684 18.748 170.509 19.1594 170.166 19.5098ZM175.461 22.2293H162.312V23.829H175.461V22.2293ZM165.535 17.3616C165.443 17.6815 165.39 18.0167 165.39 18.3595C165.39 19.3193 165.733 20.1421 166.411 20.82C167.096 21.5056 167.919 21.8484 168.879 21.8484C169.839 21.8484 170.662 21.5056 171.34 20.82C172.025 20.1421 172.368 19.3193 172.368 18.3595C172.368 18.0167 172.322 17.6815 172.223 17.3616C172.124 17.0493 171.995 16.7522 171.812 16.4779H174.036V14.8706H169.877V13.6289H167.919V14.8706H163.722V16.4779H165.946C165.763 16.7522 165.626 17.0493 165.535 17.3616Z" fill="#56351E"/>
<path d="M184.155 19.0527C183.736 19.4717 183.233 19.685 182.647 19.685C182.06 19.685 181.565 19.4717 181.139 19.0527C180.72 18.6338 180.514 18.131 180.514 17.5444C180.514 16.9579 180.727 16.4475 181.139 16.0361C181.565 15.6171 182.068 15.4115 182.647 15.4115C183.226 15.4115 183.744 15.6171 184.155 16.0361C184.574 16.4475 184.78 16.9579 184.78 17.5444C184.78 18.131 184.574 18.6261 184.155 19.0527ZM185.465 14.7792C184.696 14.0174 183.774 13.6289 182.685 13.6289C181.596 13.6289 180.674 14.0098 179.904 14.7792C179.135 15.541 178.747 16.4703 178.747 17.5597C178.747 18.649 179.135 19.5631 179.904 20.3325C180.674 21.1019 181.603 21.4904 182.685 21.4904C183.767 21.4904 184.704 21.1019 185.465 20.3325C186.227 19.5631 186.608 18.6414 186.608 17.5597C186.608 16.4779 186.227 15.541 185.465 14.7792ZM190.28 14.1621H188.322V21.7342H178V23.3339H182.076V26.2591H184.033V23.3339H188.322V24.2099H185.656V25.6344H188.322V26.6095H190.28V14.1545V14.1621ZM190.28 28.9253H181.558V24.8346H179.6V30.5326H190.28V28.9253Z" fill="#56351E"/>
</g>
<defs>
<clipPath id="clip0_1379_78001">
<rect width="190" height="42" fill="white"/>
</clipPath>
</defs>
</svg>
