<svg width="142" height="42" viewBox="0 0 142 42" fill="none" xmlns="http://www.w3.org/2000/svg">
<path d="M10.8216 28.1227C10.8216 28.1227 10.8739 28.2009 10.8999 28.24C10.8739 28.2009 10.8477 28.1488 10.8216 28.1097V28.1227ZM10.8086 15.636L10.8477 15.5969C12.8419 12.6121 16.2307 10.6439 20.0626 10.6439C26.2016 10.6439 31.1806 15.6751 31.1806 21.8663C31.1806 28.0576 26.2016 33.0888 20.0626 33.0888C16.2698 33.0888 12.92 31.1597 10.9128 28.227C13.1286 32.2546 17.3908 34.9657 22.2654 34.9657C29.4471 34.9657 35.2602 29.0873 35.2602 21.8403C35.2602 14.5933 29.4341 8.71484 22.2654 8.71484C17.3126 8.71484 12.9983 11.5172 10.8086 15.636Z" fill="#9D9D9D"/>
<mask id="mask0_1379_77958" style="mask-type:luminance" maskUnits="userSpaceOnUse" x="10" y="8" width="26" height="27">
<path d="M10.8138 28.111C10.8138 28.111 10.866 28.1892 10.8921 28.2283C10.866 28.1892 10.8399 28.1371 10.8138 28.098V28.111ZM10.8008 15.6243L10.8399 15.5852C12.8341 12.6003 16.2229 10.6322 20.0548 10.6322C26.1938 10.6322 31.1728 15.6634 31.1728 21.8546C31.1728 28.0458 26.1938 33.077 20.0548 33.077C16.262 33.077 12.9122 31.148 10.905 28.2153C13.1208 32.2429 17.383 34.954 22.2576 34.954C29.4393 34.954 35.2524 29.0755 35.2524 21.8285C35.2524 14.5815 29.4263 8.70312 22.2576 8.70312C17.3048 8.70312 12.9905 11.5055 10.8008 15.6243Z" fill="white"/>
</mask>
<g mask="url(#mask0_1379_77958)">
<path d="M35.2446 8.72656H10.793V34.9904H35.2446V8.72656Z" fill="url(#paint0_linear_1379_77958)"/>
</g>
<path d="M5.61674 20.7978L7.91072 25.4771C8.26264 25.842 8.70577 26.0115 8.70577 26.0115C9.14893 26.2722 8.74491 26.3113 8.74491 26.3113H8.31469H6.19016H5.78619C5.78619 26.3113 5.38218 26.2722 5.82533 26.0115C5.82533 26.0115 5.96861 25.8811 5.89041 25.6987L5.86431 25.6596C5.86431 25.6596 5.83837 25.6205 5.82533 25.6074L5.85143 25.6335L4.23507 22.3228C4.07867 22.01 3.89634 22.3228 3.89634 22.3228L3.00996 23.3786C3.00996 23.3786 2.87966 23.6002 2.87966 23.8217V25.5553C2.97089 25.9333 3.29667 26.0375 3.29667 26.0375C3.73982 26.2982 3.33581 26.3373 3.33581 26.3373H0.168503C0.168503 26.3373 -0.23551 26.2982 0.207643 26.0375C0.207643 26.0375 0.533579 25.9463 0.624817 25.5553V18.1128C0.533579 17.7348 0.207643 17.6435 0.207643 17.6435C-0.23551 17.3828 0.168503 17.3438 0.168503 17.3438H3.33581C3.33581 17.3438 3.73982 17.3828 3.29667 17.6435C3.29667 17.6435 2.97089 17.7348 2.87966 18.1128V20.9933C2.87966 20.9933 2.90565 21.2019 3.12722 20.9933L5.61674 18.0085L5.5776 18.0606C5.76008 17.826 5.5776 17.6566 5.5776 17.6566C5.13445 17.3959 5.53847 17.3568 5.53847 17.3568H6.2293H7.5066H8.19743C8.19743 17.3568 8.60145 17.3959 8.15829 17.6566C8.15829 17.6566 7.72821 17.826 7.37629 18.1779L5.64284 20.2504C5.64284 20.2504 5.4343 20.4198 5.64284 20.8108" fill="#003365"/>
<path d="M19.4521 26.0262C19.4521 26.0262 19.1263 25.935 19.0351 25.544V18.1015C19.1263 17.7235 19.4521 17.6322 19.4521 17.6322C19.8822 17.3715 19.4912 17.3324 19.4912 17.3324H16.5325C16.5325 17.3324 16.2067 17.3064 16.0763 17.6713L14.3949 22.6113C14.2776 22.9762 14.1082 22.6113 14.1082 22.6113L12.544 17.6192C12.4528 17.3324 12.1531 17.3324 12.1531 17.3324H11.1495H10.0937H9.40299C9.40299 17.3324 8.99882 17.3715 9.44197 17.6322C9.44197 17.6322 9.76791 17.7235 9.85915 18.1015V25.544C9.76791 25.922 9.44197 26.0262 9.44197 26.0262C8.99882 26.2869 9.40299 26.326 9.40299 26.326H11.5926C11.5926 26.326 11.9966 26.2869 11.5535 26.0262C11.5535 26.0262 11.2277 25.935 11.1364 25.544V20.0827C11.1364 19.8089 11.2928 20.0827 11.2928 20.0827L13.1568 26.0393C13.1568 26.0393 13.2218 26.326 13.5216 26.326H14.2907C14.5514 26.326 14.6035 26.0393 14.6035 26.0393L14.7469 25.6091L16.6367 20.0957C16.6367 20.0957 16.7801 19.835 16.7801 20.0957V25.557C16.6888 25.935 16.3631 26.0393 16.3631 26.0393C15.9329 26.2999 16.3239 26.339 16.3239 26.339H19.4912C19.4912 26.339 19.8952 26.2999 19.4521 26.0393" fill="#003365"/>
<path d="M23.7616 26.0258C23.7616 26.0258 23.4357 25.9346 23.3445 25.5436V18.101C23.4357 17.7231 23.7616 17.6318 23.7616 17.6318C24.2048 17.3711 23.8006 17.332 23.8006 17.332H20.6335C20.6335 17.332 20.2293 17.3711 20.6724 17.6318C20.6724 17.6318 20.9984 17.7231 21.0896 18.101V25.5436C20.9984 25.9215 20.6724 26.0258 20.6724 26.0258C20.2293 26.2865 20.6335 26.3256 20.6335 26.3256H23.8006C23.8006 26.3256 24.2048 26.2865 23.7616 26.0258Z" fill="#003365"/>
<path d="M51.2081 15.2519V10.6117C51.3384 10.3902 51.5078 10.3641 51.5078 10.3641H52.4723C52.8764 10.3641 52.7592 9.96004 52.7592 9.96004C52.7331 9.77756 52.4854 9.81666 52.4854 9.81666H51.547C51.3775 9.79059 51.2602 9.56901 51.2081 9.38653V7.2359C51.182 7.05342 50.9995 7.02734 50.9995 7.02734H49.266C49.0445 7.10555 49.253 7.22285 49.253 7.22285C49.631 7.32712 49.8134 7.84849 49.8916 8.13524V15.2258C49.8916 15.2258 49.8526 15.4865 50.1133 15.4865H51.0125C51.0125 15.4865 51.2602 15.5647 51.2081 15.2258" fill="#525252"/>
<path d="M50.9038 18.3443H45.8858C45.6512 18.24 45.4296 17.9793 45.4296 17.3928V14.3298C45.4296 14.1473 45.2863 14.0039 45.1038 14.0039H44.439C44.439 14.0039 44.3868 14.0039 44.3608 14.0039H43.4615C43.1878 14.1212 43.4615 14.2646 43.4615 14.2646C43.8916 14.3819 44.048 14.8772 44.1001 15.0988V17.7838C44.1001 17.7838 43.8915 19.2046 45.7945 19.0482H50.9038C51.0341 19.0482 51.1514 18.9308 51.1514 18.8005V18.5919C51.1514 18.4486 51.0341 18.3443 50.9038 18.3443Z" fill="#525252"/>
<path d="M48.1988 9.02802H48.1727C48.1596 8.83251 48.2509 8.70217 48.3552 8.62396H48.7983C48.7983 8.62396 49.098 8.74128 49.098 8.35026C49.098 8.35026 49.072 8.07653 48.8505 8.07653H46.7519C46.7519 8.07653 46.3479 8.07653 46.3479 7.67247V7.33359C46.3479 7.33359 46.4262 7.08594 46.0873 7.08594H44.5884C44.5884 7.08594 44.1974 7.30751 44.445 7.42482C44.445 7.42482 44.7187 7.42481 44.7448 7.7246C44.7448 7.7246 44.9142 8.0244 44.445 8.0244H42.4899C42.4899 8.0244 42.2683 8.07653 42.2683 8.24598C42.2683 8.24598 42.1901 8.61094 42.4638 8.63701H42.92C43.0112 8.70218 43.1155 8.83251 43.1155 9.01499C42.7375 9.34085 42.2422 10.2272 42.2422 10.7616C42.2422 12.2084 43.7541 13.3684 45.631 13.3684C47.5079 13.3684 49.0199 12.1953 49.0199 10.7616C49.0199 10.1099 48.7071 9.51029 48.1857 9.05409M45.6571 12.7428C44.7317 12.7428 43.9887 11.8565 43.9887 10.7746C43.9887 9.69278 44.7317 8.80644 45.6571 8.80644C46.5825 8.80644 47.3254 9.69278 47.3254 10.7746C47.3254 11.8565 46.5825 12.7428 45.6571 12.7428Z" fill="#525252"/>
<path d="M63.0243 11.2502H62.6201L62.6984 11.2241C62.4508 11.2241 62.3595 11.1198 62.3204 11.0286V7.62664C62.3204 7.45719 62.2031 7.32685 62.0337 7.30078H62.0076C62.0076 7.30078 62.0076 7.30078 61.9945 7.30078H54.4087C54.2653 7.30078 54.1611 7.41809 54.1611 7.54843V7.73091C54.1611 7.87429 54.2653 7.97856 54.4087 7.97856H60.4956C60.665 8.01767 60.7432 8.10891 60.7693 8.30442V10.5593C60.7693 10.7027 60.7041 11.1589 60.1437 11.2371H53.5094C53.3791 11.2371 53.2617 11.3544 53.2617 11.4848V11.8497C53.2617 11.9931 53.3791 12.0974 53.5094 12.0974H57.2632C57.3936 12.1886 57.5369 12.345 57.563 12.5927V13.4138C57.563 13.4138 57.6672 13.7006 57.0807 13.9091H54.4218C54.2784 13.9091 54.1742 14.0264 54.1742 14.1568V14.3262C54.1742 14.4696 54.2914 14.5739 54.4218 14.5739H60.5347C60.7954 14.7303 60.8475 14.9258 60.8475 15.004V18.7709C60.8475 18.9533 60.9909 19.0967 61.1734 19.0967H61.9163C62.0987 19.0967 62.2421 18.9533 62.2421 18.7709V14.1698C62.2421 14.0395 62.1249 13.9221 61.9945 13.9221H59.4789C59.4789 13.9221 58.9838 13.9091 58.9577 13.466V12.5796C58.9577 12.5796 58.8794 12.3059 59.3095 12.1104H63.0112C63.1416 12.1104 63.2588 11.9931 63.2588 11.8627V11.4978C63.2588 11.3674 63.1416 11.2502 63.0112 11.2502" fill="#525252"/>
<path d="M73.834 7.01953H72.674C72.674 7.01953 72.4916 7.11076 72.648 7.21504C72.648 7.21504 72.8304 7.37145 72.8434 7.60607V10.7343C72.7652 10.9167 72.674 10.9037 72.674 10.9037H72.5306C72.4003 10.8907 72.3091 10.7994 72.2569 10.7343V7.34539C72.2569 7.16291 72.1136 7.01953 71.9311 7.01953H70.6277C70.3931 7.11077 70.6277 7.26718 70.6277 7.26718C70.7841 7.37146 70.9275 7.43662 70.9405 7.60607V18.6721C70.9405 18.8546 71.0839 18.998 71.2664 18.998H71.9311C72.1136 18.998 72.2569 18.8546 72.2569 18.6721V12.0768C72.283 11.8422 72.4915 11.8422 72.4915 11.8422H72.7001C72.8565 11.8813 72.8434 12.0116 72.8434 12.0116V18.6721C72.8434 18.8546 72.9868 18.998 73.1693 18.998H73.834C74.0165 18.998 74.1598 18.8546 74.1598 18.6721V7.34539C74.1598 7.16291 74.0165 7.01953 73.834 7.01953Z" fill="#525252"/>
<path d="M118.477 7.02734H117.33C117.33 7.02734 117.148 7.11858 117.304 7.22285C117.304 7.22285 117.487 7.37926 117.5 7.61388V10.7421C117.421 10.9246 117.317 10.9115 117.317 10.9115H117.187C117.057 10.8985 116.965 10.8072 116.913 10.7421V7.3532C116.913 7.17072 116.77 7.02734 116.587 7.02734H115.284C115.049 7.11858 115.284 7.275 115.284 7.275C115.44 7.37927 115.584 7.44443 115.597 7.61388V18.6799C115.597 18.8624 115.74 19.0058 115.923 19.0058H116.587C116.77 19.0058 116.913 18.8624 116.913 18.6799V12.0846C116.939 11.85 117.148 11.85 117.148 11.85H117.356C117.513 11.8891 117.5 12.0194 117.5 12.0194V18.6799C117.5 18.8624 117.643 19.0058 117.826 19.0058H118.49C118.673 19.0058 118.816 18.8624 118.816 18.6799V7.3532C118.816 7.17072 118.673 7.02734 118.49 7.02734" fill="#525252"/>
<path d="M68.5271 8.9529C67.4192 8.4967 66.585 9.16145 66.585 9.16145C65.6596 9.78709 65.0078 11.1687 65.0078 12.7589C65.0078 14.9486 66.2331 16.7213 67.732 16.7213C69.2309 16.7213 70.4561 14.9486 70.4561 12.7589C70.4561 10.9602 69.6349 9.44821 68.514 8.96595M67.6407 15.848C66.8978 15.848 66.3112 14.4664 66.3112 12.7589C66.3112 11.0514 66.9108 9.66978 67.6407 9.66978C68.3706 9.66978 68.9702 11.0514 68.9702 12.7589C68.9702 14.4664 68.3706 15.848 67.6407 15.848Z" fill="#525252"/>
<path d="M79.2544 7C77.547 7 76.1523 8.32949 76.1523 9.97179C76.1523 11.6141 77.5339 12.9436 79.2544 12.9436C80.9749 12.9436 82.3565 11.6141 82.3565 9.97179C82.3565 8.32949 80.9749 7 79.2544 7ZM79.2283 12.3701C78.329 12.3701 77.5991 11.3273 77.5991 10.05C77.5991 8.77264 78.329 7.72991 79.2283 7.72991C80.1277 7.72991 80.8576 8.77264 80.8576 10.05C80.8576 11.3273 80.1277 12.3701 79.2283 12.3701Z" fill="#525252"/>
<path d="M81.2877 13.5039C79.111 13.5039 77.3516 14.7943 77.3516 16.3714C77.3516 17.9486 79.111 19.2389 81.2877 19.2389C83.4643 19.2389 85.2239 17.9486 85.2239 16.3714C85.2239 14.7943 83.4643 13.5039 81.2877 13.5039ZM81.2487 18.5612C79.9453 18.5612 78.8895 17.5445 78.8895 16.2932C78.8895 15.0419 79.9453 14.0253 81.2487 14.0253C82.5521 14.0253 83.6077 15.0419 83.6077 16.2932C83.6077 17.5445 82.5521 18.5612 81.2487 18.5612Z" fill="#525252"/>
<path d="M85.0577 9.32663H86.5306C86.6218 9.32663 86.7 9.24841 86.7 9.15718V8.80525C86.7 8.71401 86.6218 8.63582 86.5306 8.63582H85.0577C85.0577 8.63582 85.0318 8.63582 85.0187 8.63582V7.22812C85.0187 7.08475 84.9144 6.98047 84.771 6.98047H83.246C83.246 6.98047 83.0375 7.05867 83.1679 7.20205C83.1679 7.20205 83.6241 7.43667 83.6632 7.73645V13.2108C83.6632 13.3411 83.7804 13.4585 83.9107 13.4585H84.7841C84.9274 13.4585 85.0318 13.3542 85.0318 13.2108V11.008C85.0318 11.008 85.0577 11.008 85.0708 11.008H86.5436C86.6348 11.008 86.7131 10.9298 86.7131 10.8386V10.4867C86.7131 10.3954 86.6348 10.3172 86.5436 10.3172H85.0708C85.0708 10.3172 85.0448 10.3172 85.0318 10.3172V9.26145C85.0318 9.26145 85.0577 9.26145 85.0708 9.26145" fill="#525252"/>
<path d="M96.9696 13.3828H87.2202C87.129 13.3828 87.0508 13.461 87.0508 13.5522V13.8781C87.0508 13.9693 87.129 14.0475 87.2202 14.0475H91.2346C91.2346 14.0475 91.2087 14.1127 91.2087 14.1518V18.8572C91.2087 19.0005 91.3259 19.1048 91.4562 19.1048H92.486C92.6293 19.1048 92.7335 18.9875 92.7335 18.8572V14.1518C92.7335 14.1518 92.7335 14.0867 92.7075 14.0475H96.9696C97.0608 14.0475 97.139 13.9693 97.139 13.8781V13.5522C97.139 13.461 97.0608 13.3828 96.9696 13.3828Z" fill="#525252"/>
<path d="M92.612 6.92969H90.8525C90.8525 6.92969 90.3049 7.03397 90.735 7.42499C90.735 7.42499 91.6735 8.03761 91.1261 8.85876C91.1261 8.85876 89.914 11.4004 87.5418 11.7263C87.5418 11.7263 86.9292 12.1173 87.5418 12.391C87.5418 12.391 89.9661 12.2867 92.1167 10.2404C92.1167 10.2404 93.7199 11.9479 96.5744 12.4432C96.5744 12.4432 97.0696 12.1173 96.5222 11.8306C96.5222 11.8306 93.3288 10.5662 93.0551 8.68931L92.9509 7.47712C92.9509 7.47712 93.2246 7.03396 92.6251 6.92969" fill="#525252"/>
<path d="M101.475 7.05469H99.885C99.885 7.05469 99.5201 7.15896 100.015 7.49784C100.015 7.49784 100.511 7.8237 100.289 9.53117C100.289 9.53117 100.12 11.0171 97.7604 12.2293C97.7604 12.2293 97.5389 12.7767 97.8126 12.8288C97.8126 12.8288 99.0248 12.9461 101.227 10.4566C101.227 10.4566 101.944 12.1119 104.147 12.6594C104.147 12.6594 104.786 12.8288 104.421 12.3075C104.421 12.3075 102.218 11.2387 101.918 9.3096C101.918 9.3096 101.801 7.74549 101.84 7.49784C101.84 7.49784 101.905 7.08076 101.488 7.05469" fill="#525252"/>
<path d="M108.817 9.60289H107.279C107.279 9.60289 107.24 9.60289 107.227 9.60289V7.36101C107.227 7.17853 107.084 7.03516 106.901 7.03516H105.389C105.389 7.03516 105.168 7.06124 105.441 7.33496C105.441 7.33496 105.833 7.63474 106.015 7.99969V15.1685C106.015 15.351 106.158 15.4943 106.341 15.4943H106.901C107.084 15.4943 107.227 15.351 107.227 15.1685V10.2807C107.227 10.2807 107.266 10.2807 107.279 10.2807H108.817C108.909 10.2807 108.987 10.2025 108.987 10.1112V9.7593C108.987 9.66806 108.909 9.58986 108.817 9.58986" fill="#525252"/>
<path d="M106.996 18.3747H102.03C101.665 18.3226 101.535 18.088 101.482 17.9446V13.904C101.482 13.7215 101.339 13.5781 101.157 13.5781H99.7749C99.7749 13.5781 99.5793 13.6563 99.7488 13.8258C99.7488 13.8258 100.166 14.1516 100.192 14.3471V18.2965C100.192 18.2965 100.179 18.4008 100.179 18.4399C100.179 18.8309 100.492 19.1437 100.883 19.1437C100.922 19.1437 100.948 19.1437 100.987 19.1437C101.013 19.1437 101.052 19.1568 101.078 19.1568H106.996C107.126 19.1568 107.243 19.0394 107.243 18.9091V18.6354C107.243 18.5051 107.126 18.3877 106.996 18.3877" fill="#525252"/>
<path d="M141.587 18.3873H136.621H136.634C136.269 18.3351 136.126 18.1005 136.087 17.9571V14.3727C136.087 14.1903 135.943 14.0469 135.761 14.0469H134.197C134.197 14.0469 134.001 14.1251 134.171 14.2945C134.171 14.2945 134.588 14.6204 134.614 14.8159V18.296C134.614 18.296 134.601 18.3873 134.601 18.4394C134.601 18.8304 134.914 19.1432 135.305 19.1432C135.344 19.1432 135.37 19.1432 135.409 19.1432C135.435 19.1563 135.474 19.1563 135.5 19.1563H141.613C141.743 19.1563 141.861 19.039 141.861 18.9086V18.6349C141.861 18.4915 141.743 18.3873 141.613 18.3873" fill="#525252"/>
<path d="M114.634 7.65781C114.634 7.51443 114.516 7.41016 114.386 7.41016H110.006C109.876 7.41016 109.759 7.52747 109.759 7.65781V7.94456C109.759 8.0749 109.876 8.19222 110.006 8.19222H113.148C113.643 15.3089 109.472 16.13 109.472 16.13C109.185 16.4168 109.681 16.5471 109.681 16.5471C114.321 15.2698 114.66 10.1213 114.62 8.24434C114.62 8.24434 114.62 8.24436 114.62 8.21829" fill="#525252"/>
<path d="M131.809 9.28098H130.272C130.272 9.28098 130.232 9.28098 130.219 9.28098V7.32585C130.219 7.14338 130.076 7 129.893 7H128.382C128.382 7 128.16 7.02606 128.434 7.29978C128.434 7.29978 128.668 7.46923 128.851 7.87329V12.3962C128.851 12.5265 128.955 12.6438 129.098 12.6438H129.92C130.063 12.6438 130.167 12.5395 130.167 12.3962V9.95877H131.809C131.901 9.95877 131.979 9.88055 131.979 9.78931V9.43739C131.979 9.34615 131.901 9.26796 131.809 9.26796" fill="#525252"/>
<path d="M127.189 7.41016H125.325C125.325 7.41016 125.13 7.55353 125.378 7.73601C125.378 7.73601 125.69 7.90545 125.899 8.24434V9.24798H122.732V7.73601C122.732 7.55353 122.588 7.41016 122.406 7.41016H120.542C120.542 7.41016 120.346 7.55353 120.594 7.73601C120.594 7.73601 120.907 7.90545 121.116 8.24434V11.4117C121.116 11.4117 121.142 12.4023 121.806 12.4935C121.832 12.4935 121.858 12.4935 121.884 12.4935C122.21 12.4935 122.262 12.4935 122.21 12.4935H126.107C126.107 12.4935 126.186 12.5196 126.238 12.5196H127.202C127.385 12.5196 127.528 12.3762 127.528 12.1937V7.73601C127.528 7.55353 127.385 7.41016 127.202 7.41016M125.912 9.96487V11.7245H123.318C123.123 11.6854 122.862 11.542 122.745 11.0076V9.96487H125.912Z" fill="#525252"/>
<path d="M130.326 18.448H125.047C124.799 18.448 124.734 18.2264 124.721 18.1091V16.3104C124.799 16.2061 124.903 16.193 124.903 16.193H129.087C129.087 16.193 129.126 16.193 129.152 16.193H130.195C130.378 16.193 130.521 16.0497 130.521 15.8542V13.6514C130.521 13.4689 130.378 13.3125 130.195 13.3125H130.026C130.026 13.3125 130.013 13.3125 130 13.3125H122.87C122.727 13.3125 122.622 13.4298 122.622 13.5602V13.886C122.622 14.0294 122.74 14.1336 122.87 14.1336H128.514C128.514 14.1336 128.787 14.1858 128.814 14.4334V15.1764C128.761 15.2546 128.644 15.3458 128.396 15.3458H122.857C122.714 15.3458 122.609 15.4501 122.609 15.5935V15.9193C122.609 16.0366 122.688 16.1279 122.792 16.1539C122.857 16.2321 122.974 16.3755 123 16.4928V18.0439H122.961C122.961 18.0439 122.831 19.0475 124.591 19.0475H130.312C130.443 19.0475 130.56 18.9302 130.56 18.7999V18.6565C130.56 18.5262 130.443 18.4089 130.312 18.4089" fill="#525252"/>
<path d="M141.978 7.29726V7.14086C141.978 6.95838 141.769 6.90625 141.769 6.90625H140.036C139.814 6.98446 140.023 7.10175 140.023 7.10175C140.401 7.20603 140.583 7.72739 140.661 8.01414V12.133C140.609 12.2372 140.518 12.3024 140.453 12.3285H133.115C133.024 12.3285 132.945 12.4067 132.945 12.4979V13.0323C132.945 13.1236 133.024 13.2018 133.115 13.2018H136.66C136.738 13.2539 136.829 13.3321 136.869 13.4494V15.8477C136.869 16.0302 137.012 16.1736 137.194 16.1736H137.898C138.081 16.1736 138.224 16.0302 138.224 15.8477V13.4755C138.289 13.3582 138.42 13.2539 138.498 13.2018H140.466C140.466 13.2018 140.609 13.2669 140.661 13.3582V13.6058C140.661 13.6058 140.583 13.684 140.544 13.7101H139.267C139.137 13.7101 139.019 13.8274 139.019 13.9577V14.2054C139.019 14.3357 139.137 14.453 139.267 14.453H140.557C140.557 14.453 140.635 14.5312 140.674 14.5834V15.978C140.674 15.978 140.635 16.2387 140.896 16.2387H141.795C141.795 16.2387 142.043 16.3169 141.991 15.978" fill="#525252"/>
<path d="M136.505 6.92188C134.667 6.92188 133.168 8.02977 133.168 9.39836C133.168 10.767 134.667 11.8749 136.505 11.8749C138.343 11.8749 139.841 10.767 139.841 9.39836C139.841 8.02977 138.343 6.92188 136.505 6.92188ZM136.479 11.171C135.579 11.171 134.862 10.389 134.862 9.43746C134.862 8.48597 135.592 7.70393 136.479 7.70393C137.365 7.70393 138.095 8.48597 138.095 9.43746C138.095 10.389 137.365 11.171 136.479 11.171Z" fill="#525252"/>
<path d="M70.1328 8.09487H68.4905V7.24765C68.4905 7.10428 68.3733 7 68.2429 7H66.4573C66.4573 7 66.2095 7.00001 66.3268 7.19552C66.3268 7.19552 66.4833 7.23461 66.5224 7.29978C66.5224 7.29978 66.718 7.48227 66.7831 7.67778V8.09487H65.2842C65.1408 8.09487 65.0234 8.21219 65.0234 8.35557C65.0234 8.49894 65.1408 8.61625 65.2842 8.61625H70.1458C70.2892 8.61625 70.4064 8.49894 70.4064 8.35557C70.4064 8.21219 70.2892 8.09487 70.1458 8.09487" fill="#525252"/>
<path d="M48.5603 30.3405V34.1465C48.5603 34.4202 48.4822 34.6678 48.3127 34.8894C48.1433 35.111 47.9478 35.2153 47.7132 35.2153H47.1527C47.0614 35.2153 46.9832 35.1892 46.9311 35.1371C46.8789 35.0849 46.8529 35.0067 46.8529 34.8894V30.3275H43.2034C42.9948 30.3275 42.8646 30.3144 42.8255 30.2883C42.7864 30.2623 42.7343 30.1971 42.6691 30.1189L42.2911 29.5584C42.2259 29.4151 42.2259 29.2977 42.2911 29.2195C42.3562 29.1413 42.4605 29.1413 42.5778 29.2195C42.7733 29.3238 42.9427 29.389 43.06 29.415C43.1773 29.4411 43.412 29.4411 43.7509 29.4411H52.679C53.044 29.4411 53.2135 29.5975 53.2135 29.8973C53.2135 30.1971 53.031 30.3535 52.679 30.3535M47.661 26.2999C47.1266 26.7561 46.514 27.1732 45.8232 27.5381C45.1324 27.9031 44.4417 28.2029 43.7639 28.4245C43.4902 28.5157 43.3076 28.4636 43.2034 28.2941C43.1121 28.1247 43.1773 27.9813 43.3989 27.864C44.0636 27.5251 44.8065 27.0037 45.6277 26.2738C46.4488 25.5439 46.8789 24.9443 46.918 24.4881C46.931 24.2665 46.866 24.1101 46.6965 24.0189C46.5271 23.9277 46.3838 23.8495 46.2534 23.8104C46.1622 23.7713 46.1229 23.6931 46.1099 23.5627C46.1099 23.4324 46.1751 23.3672 46.3185 23.3672L48.8731 23.5888C49.0556 23.5888 49.16 23.667 49.1861 23.7973C49.2252 23.9277 49.2121 24.0841 49.173 24.2405C49.1078 24.4621 49.0036 24.6967 48.8472 24.9183C48.7038 25.1529 48.5213 25.3745 48.3258 25.6091C48.6516 25.7785 48.9123 25.8958 49.1078 25.961C49.3033 26.0262 49.4987 26.0783 49.6942 26.1304C50.0201 26.1956 50.2417 26.2217 50.372 26.2087C50.5024 26.1956 50.6588 26.2477 50.8543 26.3651C51.2844 26.6518 51.6102 26.9386 51.8449 27.2383C52.0664 27.5381 52.1447 27.8119 52.0665 28.0595C52.0274 28.2159 51.9231 28.3202 51.7667 28.3723C51.6103 28.4245 51.4018 28.4114 51.115 28.3463C50.6458 28.2289 50.1243 28.0074 49.5248 27.6554C48.9383 27.3035 48.2997 26.8604 47.6349 26.2869" fill="#525252"/>
<path d="M61.1858 27.5787C60.7557 28.1913 60.2734 28.7518 59.739 29.2341C59.2047 29.7294 58.6963 30.0943 58.214 30.342C57.9794 30.4593 57.8361 30.4463 57.7579 30.3029C57.6797 30.1595 57.7187 30.0161 57.8751 29.8858C58.6702 29.1559 59.3088 28.3086 59.7911 27.3571C60.2733 26.3926 60.5211 25.6236 60.5341 25.0371C60.5341 24.8024 60.3906 24.62 60.1169 24.4766C59.8432 24.3332 59.6608 24.242 59.5696 24.2289C59.4653 24.1898 59.4263 24.0986 59.4393 23.9552C59.4523 23.8119 59.5435 23.7467 59.6869 23.7597L62.2936 24.0074C62.4109 24.0074 62.4892 24.0725 62.5283 24.1638C62.5674 24.255 62.5803 24.3593 62.5673 24.4766C62.5152 24.8676 62.4109 25.2717 62.2545 25.6757C62.0981 26.0798 61.9026 26.4708 61.668 26.8749C61.8505 27.0574 62.059 27.2268 62.3067 27.3832C62.5543 27.5396 62.7759 27.6569 62.9845 27.7351C63.206 27.8003 63.3755 27.8524 63.4667 27.8916C63.558 27.9176 63.6883 28.0219 63.8448 28.2044C64.0924 28.4781 64.2617 28.7648 64.379 29.0777C64.4963 29.3905 64.4833 29.6381 64.3529 29.8076C64.2487 29.951 64.0923 30.0292 63.8707 30.0292C63.6621 30.0292 63.4277 29.964 63.1931 29.7946C62.9063 29.599 62.5543 29.2601 62.1111 28.7648C61.668 28.2695 61.3552 27.8785 61.1727 27.6178M59.8302 30.8503L61.9939 31.0328C62.1503 31.098 62.2155 31.1892 62.2155 31.3326V33.1965C62.2155 33.4832 62.2676 33.6918 62.3458 33.8221C62.424 33.9394 62.6195 34.0046 62.9192 34.0046H66.9207C67.2466 34.0046 67.403 34.148 67.403 34.4347C67.403 34.7215 67.2336 34.8648 66.9207 34.8648H61.7202C61.5117 34.8648 61.2639 34.7866 60.9772 34.6302C60.6905 34.4738 60.5471 34.148 60.5471 33.6527V31.9452C60.5471 31.7366 60.4429 31.5802 60.2343 31.489C60.0258 31.3978 59.8694 31.3195 59.7782 31.2674C59.6478 31.2022 59.5956 31.111 59.6347 31.0067C59.6738 30.9024 59.739 30.8503 59.8172 30.8633M67.2074 26.8619L68.55 26.7576C68.7976 26.7445 68.9148 26.927 68.9279 27.318C68.9279 27.7091 68.8107 27.9046 68.55 27.9046H67.2074V30.8242C67.2074 31.098 67.1292 31.3456 66.9728 31.5672C66.8164 31.7888 66.6209 31.8931 66.3863 31.8931H65.9041C65.7998 31.8931 65.7215 31.867 65.6694 31.8149C65.6172 31.7627 65.5913 31.6845 65.5913 31.5672V24.4766C65.5913 24.2029 65.487 24.0074 65.2785 23.8901C65.0699 23.7728 64.8874 23.6685 64.7571 23.5903C64.6528 23.5251 64.6137 23.4339 64.6528 23.3166C64.692 23.2123 64.7441 23.1602 64.8223 23.1602L66.9858 23.4208C67.1161 23.4469 67.1944 23.486 67.2074 23.5512C67.2205 23.6163 67.2205 23.6685 67.2205 23.6945V26.8619H67.2074Z" fill="#525252"/>
<path d="M79.2142 26.0329H81.065V24.4297C81.065 24.156 80.9608 23.9605 80.7392 23.8432C80.5176 23.7259 80.3481 23.6216 80.2178 23.5434C80.1005 23.4782 80.0614 23.387 80.1005 23.2697C80.1396 23.1654 80.1918 23.1133 80.27 23.1133L82.4596 23.374C82.5769 23.387 82.6551 23.4391 82.6682 23.5043C82.6812 23.5695 82.6943 23.6216 82.6943 23.6477V28.705C82.6943 28.9787 82.616 29.2263 82.4596 29.4479C82.3032 29.6695 82.1077 29.7737 81.8731 29.7737H81.3517C81.2605 29.7737 81.1822 29.7477 81.1301 29.6955C81.078 29.6434 81.052 29.5652 81.052 29.4479V27.0235H79.1881C79.0708 27.7013 78.7449 28.2618 78.2105 28.705C77.6892 29.1481 77.0506 29.3827 76.3076 29.3827C75.4604 29.3827 74.7696 29.096 74.2092 28.5355C73.6487 27.975 73.375 27.2842 73.375 26.4761C73.375 25.668 73.6487 24.9772 74.2092 24.4167C74.7696 23.8562 75.4604 23.5695 76.3076 23.5695C77.0636 23.5695 77.7153 23.8041 78.2497 24.2733C78.7841 24.7295 79.0968 25.3161 79.2011 26.0199M77.2199 31.755H80.9347V31.403C80.9347 31.1293 80.8826 30.9338 80.7783 30.8295C80.6741 30.7252 80.5698 30.634 80.4655 30.5558C80.3352 30.4646 80.283 30.3603 80.2961 30.23C80.3221 30.0996 80.3741 30.0475 80.4784 30.0605C80.7521 30.0996 81.3517 30.1778 82.2641 30.3212C82.3944 30.3342 82.4727 30.3864 82.4857 30.4515C82.4987 30.5167 82.5118 30.5688 82.5118 30.5949V34.049C82.5118 34.44 82.4075 34.6876 82.212 34.7789C82.0035 34.8701 81.7949 34.9222 81.5603 34.9222H76.5554C76.3338 34.9222 76.1121 34.8701 75.9165 34.7789C75.721 34.7007 75.6168 34.453 75.6168 34.049V31.5594C75.6168 31.2857 75.5647 31.1032 75.4604 30.999C75.3561 30.8947 75.2519 30.8165 75.1476 30.7383C75.0173 30.647 74.9651 30.5428 74.9912 30.4124C75.0173 30.2821 75.0824 30.2299 75.1606 30.243C75.3822 30.2821 75.9948 30.3603 76.9593 30.5037C77.0897 30.5167 77.1679 30.621 77.2071 30.7904V31.768L77.2199 31.755ZM75.0434 26.4761C75.0434 26.9844 75.1607 27.4406 75.3953 27.8316C75.6299 28.2227 75.9296 28.4182 76.3076 28.4182C76.6856 28.4182 76.9853 28.2227 77.2199 27.8316C77.4545 27.4406 77.5719 26.9844 77.5719 26.4761C77.5719 25.9678 77.4545 25.4985 77.2199 25.1075C76.9853 24.7165 76.6726 24.521 76.3076 24.521C75.9427 24.521 75.6299 24.7165 75.3953 25.1075C75.1607 25.4985 75.0434 25.9547 75.0434 26.4761ZM80.9347 32.6804H77.2199V33.5667C77.2199 33.7622 77.2461 33.8926 77.3113 33.9708C77.3634 34.049 77.4938 34.0881 77.6893 34.0881H80.4655C80.635 34.0881 80.7652 34.062 80.8304 33.9838C80.8955 33.9056 80.9347 33.7622 80.9347 33.5797V32.6804Z" fill="#525252"/>
<path d="M96.6247 26.4265L97.9672 26.3222C98.2149 26.3092 98.3453 26.4917 98.3453 26.8827C98.3453 27.2737 98.2279 27.4693 97.9672 27.4693H96.6247V30.793C96.6247 31.0667 96.5466 31.3143 96.3902 31.5359C96.2338 31.7575 96.0383 31.8618 95.7907 31.8618H95.3343C95.2431 31.8618 95.165 31.8357 95.1129 31.7966C95.0607 31.7445 95.0346 31.6662 95.0346 31.5489V29.659C94.6957 29.9457 94.3047 30.1022 93.8485 30.1413C93.3923 30.1804 92.8579 30.2064 92.2192 30.2064H88.1006C87.9833 30.2064 87.892 30.2064 87.8268 30.1934C87.7616 30.1934 87.6966 30.1412 87.6314 30.063L87.2012 29.4374C87.136 29.3462 87.136 29.2549 87.1751 29.1637C87.2142 29.0725 87.2925 29.0594 87.4098 29.0985C87.5923 29.1898 87.7617 29.2549 87.9312 29.281C88.0876 29.3071 88.3222 29.3201 88.622 29.3201H89.5865V27.9385C89.5865 27.743 89.5604 27.5866 89.4952 27.4693C89.43 27.3519 89.3388 27.2477 89.2085 27.1825C89.0521 27.0913 88.9869 26.987 88.9999 26.8566C89.026 26.7263 89.1042 26.6742 89.2476 26.6872L90.955 26.8697C91.0201 26.8697 91.0723 26.9088 91.0983 26.9739C91.1244 27.0261 91.1375 27.0782 91.1375 27.1304V29.3462H91.9325C92.6103 29.3462 93.236 29.3331 93.8225 29.294C94.4091 29.2549 94.813 29.1116 95.0215 28.8639V24.4844C95.0215 24.2107 94.9173 24.0152 94.6957 23.8979C94.4741 23.7806 94.3047 23.6763 94.1743 23.5981C94.057 23.5329 94.018 23.4417 94.0571 23.3244C94.0962 23.2201 94.1483 23.168 94.2265 23.168L96.3641 23.4286C96.4944 23.4417 96.5727 23.4938 96.5857 23.559C96.5987 23.6242 96.6116 23.6763 96.6116 23.7024M88.8304 25.2274C88.661 25.2274 88.5306 25.2013 88.4655 25.1622C88.4003 25.1231 88.3352 25.0579 88.2701 24.9797L87.9051 24.4844C87.8399 24.3801 87.8268 24.2889 87.8659 24.2237C87.905 24.1586 87.9833 24.1455 88.1137 24.1846C88.2961 24.2498 88.4785 24.2889 88.661 24.315C88.8304 24.3411 89.0651 24.3541 89.3518 24.3541H93.5879C93.7573 24.3541 93.8616 24.4323 93.9267 24.5626C93.9789 24.693 94.0049 24.8363 94.0049 24.9797C93.9136 25.7096 93.7572 26.3483 93.5357 26.9218C93.3141 27.4823 93.0665 27.9255 92.8058 28.2252C92.6625 28.3947 92.493 28.4859 92.3106 28.512C92.115 28.5381 92.0368 28.4077 92.0628 28.134C92.115 27.769 92.1542 27.3519 92.1802 26.9088C92.2063 26.4656 92.2192 25.9052 92.2192 25.2534H88.8565L88.8304 25.2274ZM88.7523 31.0537L90.9419 31.2361C91.0853 31.3013 91.1636 31.4056 91.1636 31.5359V33.2173C91.1636 33.5041 91.2157 33.7126 91.2939 33.843C91.3721 33.9603 91.5677 34.0254 91.8674 34.0254H96.3249C96.6508 34.0254 96.8072 34.1688 96.8072 34.4556C96.8072 34.7423 96.6508 34.8857 96.3249 34.8857H90.6552C90.4467 34.8857 90.1991 34.8075 89.9124 34.6511C89.6256 34.4947 89.4821 34.1688 89.4821 33.6735V32.2919C89.4821 32.0834 89.3779 31.9009 89.1693 31.7575C88.9608 31.6141 88.8044 31.5098 88.7132 31.4577C88.5828 31.3925 88.5438 31.3013 88.5698 31.197C88.6089 31.0928 88.6741 31.0406 88.7523 31.0537Z" fill="#525252"/>
<path d="M113.448 28.9737C113.813 28.9737 113.982 29.1301 113.982 29.4299C113.982 29.7297 113.799 29.8861 113.448 29.8861H103.776C103.568 29.8861 103.438 29.873 103.398 29.8339C103.359 29.8079 103.307 29.7427 103.242 29.6645L102.838 29.104C102.773 28.9607 102.773 28.8433 102.838 28.7651C102.903 28.6869 103.007 28.6869 103.125 28.7521C103.333 28.8564 103.49 28.9215 103.62 28.9346C103.75 28.9476 103.972 28.9607 104.311 28.9607M108.443 26.5493C107.895 26.9925 107.23 27.3574 106.461 27.6312C105.692 27.9049 105.041 28.0874 104.493 28.1525C104.246 28.1786 104.102 28.1134 104.063 27.944C104.024 27.7876 104.115 27.6572 104.35 27.566C105.015 27.3183 105.679 26.9794 106.331 26.5232C106.996 26.0801 107.4 25.6369 107.543 25.2068H105.249C105.041 25.2068 104.91 25.2068 104.871 25.1677C104.832 25.1416 104.78 25.0895 104.715 24.9983L104.311 24.4508C104.246 24.3074 104.246 24.1901 104.311 24.1119C104.376 24.0337 104.48 24.0337 104.597 24.1119C104.806 24.2032 105.002 24.2683 105.184 24.2944C105.367 24.3205 105.575 24.3335 105.784 24.3335H107.648C107.634 23.9686 107.582 23.7209 107.491 23.5775C107.4 23.4342 107.309 23.3429 107.191 23.2908C107.087 23.2517 107.048 23.1735 107.048 23.0562C107.048 22.9389 107.126 22.8867 107.256 22.8867L109.238 23.0301C109.316 23.0301 109.381 23.0562 109.433 23.0953C109.485 23.1344 109.498 23.1995 109.485 23.2777C109.485 23.3429 109.485 23.4863 109.485 23.7079C109.485 23.9295 109.485 24.138 109.472 24.3335H111.936C112.287 24.3335 112.457 24.4899 112.457 24.7897C112.457 25.0895 112.287 25.2459 111.936 25.2459H109.381C109.355 25.3632 109.316 25.4805 109.251 25.5848C109.186 25.7021 109.12 25.8064 109.029 25.9237C109.342 26.041 109.589 26.1192 109.811 26.1713C110.02 26.2235 110.215 26.2626 110.385 26.3017C110.58 26.3408 110.776 26.3538 110.958 26.3538C111.154 26.3538 111.284 26.3668 111.388 26.4059C111.766 26.5233 112.066 26.7318 112.288 27.0316C112.509 27.3183 112.6 27.553 112.574 27.7354C112.522 27.9049 112.431 28.0352 112.314 28.1004C112.196 28.1656 112.001 28.1916 111.753 28.1656C111.31 28.1134 110.815 27.944 110.241 27.6572C109.668 27.3705 109.068 27.0055 108.416 26.5754M112.235 33.7703C112.235 34.2004 112.144 34.5523 111.975 34.826C111.805 35.0998 111.571 35.2301 111.284 35.2301H110.854C110.75 35.2301 110.671 35.204 110.619 35.1519C110.567 35.0998 110.541 35.0215 110.541 34.9042V31.9715H105.158C104.976 31.9715 104.858 31.9455 104.806 31.9064C104.754 31.8673 104.702 31.8021 104.637 31.7239L104.259 31.1895C104.194 31.0722 104.194 30.9809 104.246 30.9027C104.298 30.8245 104.376 30.8115 104.467 30.8376C104.663 30.9288 104.832 30.981 104.962 31.0201C105.106 31.0461 105.262 31.0592 105.445 31.0592H112.001C112.092 31.0592 112.144 31.0852 112.183 31.1243C112.222 31.1634 112.235 31.2286 112.235 31.3329V33.7572V33.7703Z" fill="#525252"/>
<path d="M121.473 27.8523C121.108 28.3737 120.717 28.8429 120.287 29.2731C119.857 29.7032 119.414 30.0551 118.97 30.3288C118.801 30.4331 118.645 30.4331 118.527 30.3158C118.41 30.1985 118.436 30.0551 118.632 29.8596C119.296 29.1688 119.844 28.3346 120.287 27.3701C120.717 26.4055 120.926 25.6365 120.899 25.076C120.899 24.8545 120.782 24.672 120.574 24.5156C120.365 24.3722 120.209 24.281 120.091 24.2419C120 24.2028 119.961 24.1246 119.974 23.9942C119.974 23.8639 120.052 23.8117 120.196 23.8248L122.503 24.0855C122.633 24.1115 122.724 24.1637 122.776 24.2419C122.829 24.3331 122.842 24.4243 122.829 24.5547C122.776 24.9718 122.672 25.4019 122.516 25.8451C122.359 26.2752 122.164 26.7053 121.942 27.1094C122.073 27.2397 122.229 27.357 122.411 27.4743C122.594 27.5917 122.763 27.6959 122.894 27.7481C123.115 27.8393 123.259 27.8914 123.337 27.9045C123.415 27.9045 123.506 27.9827 123.611 28.113C123.832 28.3737 124.015 28.6735 124.145 28.9863C124.288 29.3122 124.314 29.5598 124.223 29.7293C124.158 29.8726 124.028 29.9508 123.858 29.9639C123.689 29.9769 123.506 29.9248 123.324 29.8075C123.011 29.6119 122.659 29.2861 122.294 28.869C121.929 28.4389 121.655 28.1 121.473 27.8523ZM120.665 30.6286L122.868 30.8111C123.011 30.8763 123.089 30.9675 123.089 31.1109V33.1442C123.089 33.431 123.141 33.6395 123.22 33.7699C123.298 33.8872 123.493 33.9523 123.793 33.9523H127.899C128.211 33.9523 128.368 34.0957 128.368 34.3825C128.368 34.6692 128.211 34.8126 127.899 34.8126H122.555C122.333 34.8126 122.086 34.7344 121.799 34.578C121.512 34.4216 121.382 34.0957 121.382 33.6004V31.7235C121.382 31.5149 121.277 31.3585 121.069 31.2673C120.86 31.163 120.717 31.0978 120.613 31.0457C120.482 30.9675 120.43 30.8893 120.469 30.785C120.508 30.6807 120.574 30.6286 120.652 30.6416M124.81 27.2788H123.585C123.585 27.2788 123.493 27.2788 123.441 27.2528C123.402 27.2267 123.376 27.2006 123.337 27.1485L122.959 26.575C122.92 26.5098 122.881 26.4316 122.868 26.3534C122.855 26.2752 122.868 26.21 122.92 26.1449C123.011 26.0536 123.141 26.0406 123.324 26.1318C123.506 26.2231 123.676 26.2622 123.845 26.2622H124.797V24.5547C124.797 24.281 124.744 24.0985 124.64 23.9942C124.536 23.8899 124.419 23.7987 124.262 23.7075C124.106 23.6162 124.028 23.4989 124.041 23.3816C124.041 23.2643 124.132 23.2122 124.288 23.2382L125.996 23.4989C126.126 23.512 126.204 23.5641 126.217 23.6293C126.23 23.6944 126.243 23.7466 126.243 23.7726V30.7198C126.243 30.9936 126.165 31.2282 126.022 31.4367C125.878 31.6453 125.683 31.7496 125.448 31.7496H125.11C125.005 31.7496 124.927 31.7235 124.875 31.6714C124.823 31.6192 124.797 31.541 124.797 31.4237V27.2788H124.81ZM126.4 23.1079L128.146 23.3686C128.277 23.3816 128.355 23.4337 128.368 23.4989C128.368 23.5641 128.381 23.6162 128.381 23.6423V30.8632C128.381 31.1369 128.303 31.3716 128.159 31.5801C128.016 31.7887 127.82 31.8929 127.586 31.8929H127.208C127.117 31.8929 127.038 31.8669 126.986 31.8147C126.934 31.7626 126.908 31.6844 126.908 31.5671V24.4504C126.908 24.1767 126.856 23.9812 126.752 23.8769C126.647 23.7596 126.517 23.6684 126.374 23.5771C126.204 23.4598 126.126 23.3425 126.165 23.2382C126.204 23.134 126.283 23.0949 126.4 23.1079Z" fill="#525252"/>
<path d="M133.593 30.6041V25.8727C133.593 25.6771 133.567 25.5338 133.502 25.4165C133.45 25.3122 133.372 25.2209 133.28 25.1427C133.189 25.0776 133.098 25.0124 133.007 24.9603C132.915 24.9081 132.863 24.856 132.863 24.8039C132.863 24.7517 132.863 24.6996 132.902 24.6344C132.928 24.5823 132.968 24.5432 133.046 24.5432H138.494C138.794 24.5432 138.937 24.6865 138.937 24.9603C138.937 25.234 138.794 25.3774 138.494 25.3774H135.209V27.6975H137.464C137.751 27.6975 137.894 27.8539 137.894 28.1536C137.894 28.4534 137.751 28.6098 137.464 28.6098H135.209V30.3304C135.222 30.578 135.287 30.7475 135.379 30.7996C135.47 30.8648 135.6 30.8908 135.744 30.8778H136.93C137.555 30.8778 138.077 30.8387 138.494 30.7474C138.911 30.6692 139.25 30.565 139.511 30.4346C139.68 30.3564 139.784 30.3825 139.836 30.4998C139.889 30.6171 139.849 30.7344 139.719 30.8647C139.55 31.0342 139.25 31.2167 138.82 31.4383C138.403 31.6468 137.647 31.7511 136.565 31.7511H134.623C134.128 31.7511 133.828 31.5947 133.724 31.2949C133.632 30.9951 133.58 30.7474 133.567 30.565M140.384 28.4143H139.002C139.002 28.4143 138.911 28.4013 138.872 28.3883C138.833 28.3622 138.807 28.3361 138.768 28.284L138.377 27.7235C138.324 27.6584 138.298 27.5801 138.285 27.4889C138.285 27.4107 138.285 27.3325 138.351 27.2673C138.442 27.1761 138.572 27.163 138.755 27.2673C138.937 27.3586 139.12 27.3977 139.276 27.3977H140.384V24.3868C140.384 24.113 140.28 23.9175 140.071 23.8002C139.863 23.6829 139.68 23.5786 139.537 23.5004C139.432 23.4353 139.393 23.344 139.432 23.2267C139.472 23.1094 139.524 23.0703 139.602 23.0703L141.726 23.331C141.844 23.344 141.922 23.3831 141.935 23.4613C141.948 23.5265 141.961 23.5787 141.961 23.6047V34.1233C141.961 34.397 141.883 34.6447 141.726 34.8663C141.57 35.0878 141.374 35.1921 141.14 35.1921H140.697C140.592 35.1921 140.36 35.1164 140.308 35.0773C140.256 35.0251 140.384 34.9966 140.384 34.8793V28.4274V28.4143Z" fill="#525252"/>
<defs>
<linearGradient id="paint0_linear_1379_77958" x1="23.0188" y1="8.72656" x2="23.0188" y2="34.9904" gradientUnits="userSpaceOnUse">
<stop stop-color="#7CBAE1"/>
<stop offset="1" stop-color="#003365"/>
</linearGradient>
</defs>
</svg>
