<svg width="141" height="42" viewBox="0 0 141 42" fill="none" xmlns="http://www.w3.org/2000/svg">
<g clip-path="url(#clip0_1379_78068)">
<path d="M19.954 5.06265C20.0227 5.17569 20.1142 5.27259 20.1218 5.38564C20.221 5.71671 20.5109 5.91858 20.549 6.24964C20.5643 6.36269 20.7016 6.41114 20.7702 6.45959C20.8465 6.56456 20.7931 6.68568 20.9456 6.8391C21.0143 6.88755 20.9609 7.00867 20.9762 7.12172C21.0448 7.17017 21.1211 7.21862 21.1897 7.26707C21.8381 8.34102 21.8991 9.58453 21.1516 10.7392C21.0296 10.8684 20.9151 11.0461 20.8694 11.2237C20.8083 11.2883 20.6787 11.3529 20.6176 11.4175C20.6329 11.5306 20.7016 11.579 20.7778 11.684C20.4498 11.7728 20.4117 12.0635 20.1676 12.2573C20.099 12.2573 19.9693 12.2734 19.9006 12.2815C19.7176 12.4753 19.5269 12.548 19.3362 12.6772C19.2752 12.7418 19.2904 12.9114 19.298 12.9679C18.9853 13.2263 18.5353 13.3878 18.0623 13.3716C18.0013 13.3716 17.9479 13.5573 17.8869 13.5573C17.5513 13.5896 17.1546 13.5735 16.819 13.6058C16.6817 13.5654 16.6054 13.4604 16.4605 13.412C16.3308 13.4281 16.1935 13.4362 16.0562 13.3958C15.8426 13.2424 15.568 13.2182 15.3545 13.1213C15.2172 13.0809 14.9654 13.2182 14.8205 13.1213C14.3705 12.7095 13.9281 12.2977 13.684 11.8697C13.5238 11.6032 13.2416 11.5144 13.15 11.2399C13.1348 11.1268 13.1882 10.9492 13.0509 10.9088C12.7763 10.82 12.8907 10.6423 12.8754 10.4728C12.7915 10.3113 12.7763 10.1982 12.6313 10.0448C12.5474 9.8833 12.6542 9.64106 12.5703 9.42304C12.5703 9.36652 12.6237 9.30192 12.6161 9.24539C12.5169 8.91433 12.6771 8.55904 12.6466 8.27642C12.6313 8.10685 12.6695 7.87268 12.7229 7.70311C12.8907 7.34782 13.0432 6.92793 13.3407 6.55648C13.3407 6.49996 13.3255 6.38691 13.3178 6.33039C13.3789 6.26579 13.4475 6.25772 13.5009 6.19312C13.6077 5.90243 13.7145 5.66018 13.8899 5.41794C14.1264 5.1111 14.5001 4.84463 14.8053 4.52971C14.9883 4.34399 15.24 4.19864 15.4079 3.89988C15.4689 3.83528 15.6825 3.93218 15.7435 3.86758C15.9265 3.68186 16.1935 3.70608 16.3842 3.57688C16.5749 3.44769 16.5368 3.73031 16.7275 3.65763C16.8571 3.64148 16.9182 3.58496 17.0478 3.51229C17.2385 3.43961 17.4597 3.58496 17.6657 3.61726C17.864 3.60111 18.07 3.63341 18.2835 3.78683C18.5734 3.9887 19.237 3.91603 19.3438 4.31169C19.504 4.57816 19.7938 4.78003 19.954 5.0465V5.06265Z" fill="#C2002F"/>
<path d="M31.1784 9.51654C31.1784 9.3389 31.1784 9.23392 31.1098 9.0482C31.0945 8.87056 31.2242 8.67676 31.1632 8.43452C31.125 8.36992 31.0411 8.29725 31.0488 8.24072C31.1632 7.86928 31.1708 7.53014 31.1403 7.13448C31.1098 7.01336 31.0716 6.94876 31.0335 6.88416C31.0411 6.82763 31.064 6.72266 31.0793 6.60961C31.0869 6.27047 30.9877 6.02015 30.8886 5.71331C30.8581 5.59219 30.7742 5.51952 30.7589 5.34187C30.7208 5.27727 30.6369 5.19653 30.6445 5.14C30.7284 4.64744 30.5072 4.25985 30.4385 3.79151C30.3317 3.25857 29.8588 2.91943 29.7063 2.37842C29.7139 2.3219 29.8741 2.34612 29.9198 2.3542C30.2936 2.72564 30.7131 3.16168 30.8123 3.69461C30.8809 3.88033 30.8504 4.04183 30.9267 4.17103C31.2471 4.58284 31.3005 5.1077 31.3615 5.63256C31.3539 5.68909 31.453 5.65679 31.4912 5.72139C31.4835 5.77791 31.4607 5.88288 31.4988 5.94748C31.7429 6.2301 31.5903 6.53694 31.6437 6.82763C31.6742 6.94876 31.7047 7.01335 31.7429 7.07795C31.7353 7.13448 31.6132 7.27982 31.598 7.32827C31.7963 7.60282 31.8802 7.95811 31.8268 8.28917C32.0556 8.40222 31.9488 8.71714 32.0022 8.95131C32.0404 9.01591 32.0861 9.02398 32.1319 9.04013C32.1929 8.94323 32.2616 8.84633 32.2845 8.73329C32.315 8.28917 32.3302 7.89351 32.2539 7.48169C32.1929 7.29597 32.17 7.11833 32.2921 6.98106C32.2006 6.95683 32.17 6.83571 32.1319 6.77111C31.9641 6.05245 31.8954 5.24497 31.6895 4.51017C31.6895 4.51017 31.7429 4.46979 31.7581 4.41327C31.6895 3.76729 31.2242 3.16168 31.003 2.51569C30.9648 2.40265 30.7894 2.2573 30.7055 2.13618C30.7055 2.13618 30.7055 2.07965 30.7208 2.02313C30.9572 2.05543 31.1403 2.29767 31.2623 2.48339C31.514 2.85483 31.7963 3.26665 31.8726 3.68654C32.0022 4.05798 32.2006 4.44557 32.2768 4.80894C32.3302 5.05118 32.4904 5.2046 32.6048 5.40647C32.6658 5.59219 32.6353 5.75369 32.6506 5.93133C32.7192 6.35122 32.8337 6.74689 32.9099 7.16678C33.0015 7.47362 33.0472 7.82084 32.9481 8.07923C32.8184 8.55564 33.1159 9.0805 33.2379 9.50847C33.3066 9.69419 33.2227 9.90413 33.1464 10.0576C33.1388 10.1141 33.2227 10.1868 33.2074 10.2433C33.1235 10.4532 33.1922 10.6389 33.154 10.857C33.1006 10.8973 33.2227 11.0427 33.154 11.1396C33.1006 11.188 33.0549 11.1719 32.9938 11.2203C32.9176 11.3737 32.9862 11.5595 32.9557 11.721C32.8032 12.0278 32.8794 12.4396 32.5972 12.6576C32.4904 12.6899 32.4828 12.7465 32.4294 12.7868C32.4752 12.7949 32.5133 12.8595 32.5514 12.9322C32.498 12.9726 32.4446 12.9645 32.3912 13.0049C32.376 13.1098 32.5743 13.2471 32.6125 13.3117C32.5362 13.7477 32.2311 14.1273 32.2387 14.644C32.2158 14.749 32.1929 14.9186 32.17 15.0236C32.0785 15.2819 31.8954 15.4677 31.8039 15.7341C31.7887 15.8391 31.5903 15.8553 31.5674 15.9602C31.4454 16.0975 31.453 16.3317 31.3691 16.5416C31.3005 16.6385 31.1632 16.6062 31.0488 16.695C30.9191 16.8888 30.9343 17.0665 30.8504 17.2683C30.7055 17.5187 30.5377 17.7932 30.4004 18.0435C30.2402 18.4069 29.9732 18.746 29.6834 19.0206C29.6376 19.0125 29.5308 19.0448 29.4774 19.0852C29.3249 19.392 29.1571 19.6181 28.8367 19.7715C28.7909 19.7635 28.7223 19.9976 28.6612 20.038C28.44 20.2076 28.318 20.4094 28.051 20.5709C27.9519 20.6032 27.8985 20.6436 27.7841 20.4498C27.4332 21.1039 26.9679 21.6126 26.4644 22.0648C26.1975 22.2263 25.9305 22.2101 25.7551 22.3958C25.1753 22.9934 24.26 23.6313 24.1608 23.7201C24.1151 23.712 23.9396 23.9866 23.9396 23.9866C23.7566 24.0027 23.8634 24.0189 23.6879 23.9866C23.6879 23.9866 23.6803 24.2934 23.4438 24.3419C22.948 24.4468 22.8183 25.0525 22.7802 25.3028C22.7573 25.432 22.681 25.3431 22.62 25.3916C22.5666 25.44 22.6048 25.5208 22.5437 25.5692C22.3302 25.7065 22.1395 25.9891 21.964 26.2071C21.9106 26.2556 21.8725 26.1829 21.8115 26.2314C21.7581 26.2798 21.4911 26.627 21.3996 26.9339C21.1707 27.4668 20.9267 27.9432 20.6139 28.3147C20.5376 28.4035 20.7894 28.7588 20.7741 28.8799C20.7054 29.0495 20.5605 29.0737 20.4919 29.2433C20.4308 29.6551 20.408 30.1234 20.3393 30.5675C20.2249 30.9955 20.3698 31.3023 20.4232 31.6899C20.4842 32.0129 20.408 32.4328 20.4232 32.7477C20.4461 32.9981 20.6063 33.2807 20.5834 33.5229C20.591 33.9024 20.5071 33.854 20.5834 34.1689C20.5758 34.3546 20.5148 34.5403 20.5529 34.6615C20.5376 34.9118 20.4995 35.0652 20.4919 35.3074C20.4385 35.364 20.3393 35.4851 20.3393 35.5416C20.3012 36.1634 19.9198 36.7044 19.5231 37.1162C19.2714 37.2858 19.0578 37.5442 18.7756 37.5199C18.6307 37.5119 18.1578 37.8268 17.9976 37.8672C17.578 37.9883 17.2424 37.9964 16.8381 37.9318C16.3957 37.8026 16.0372 37.6895 15.7321 37.205C15.549 36.987 15.2363 37.0677 15.1219 36.7367C15.0838 36.6075 14.832 36.5348 14.7863 36.4702C14.5498 36.2522 14.4278 35.9777 14.2523 35.7031C14.1379 35.372 14.2218 35.146 14.0769 34.831C13.932 34.6372 13.8709 34.5 13.726 34.2981C13.5353 34.0397 13.7718 33.6683 13.6268 33.4099C13.5277 33.3372 13.4285 33.208 13.3828 33.0788C13.2912 32.8285 13.3141 32.457 13.1692 32.1906C13.0929 31.8676 13.1387 30.6967 13.1997 30.3818C13.2073 30.3172 13.0395 30.2284 13.0471 30.1638C13.07 29.7116 13.2226 29.2675 13.1844 28.7992C13.2302 28.5488 13.2073 28.347 13.4209 28.1289C13.4209 28.1289 13.3217 28.0401 13.3294 27.9755C13.4514 27.6122 13.4514 27.3295 13.5201 26.95C13.5277 26.8854 13.6574 26.8451 13.665 26.7885C13.5963 26.514 13.5887 25.9488 13.6345 25.6984C13.6574 25.5692 13.9625 25.3835 14.0387 25.2705C14.0464 25.2059 13.993 25.0444 14.1074 24.8264C14.1379 24.7698 14.2142 24.786 14.2752 24.7375C14.2828 24.6729 14.2447 24.6003 14.2599 24.5357C14.2905 24.3499 14.5879 24.2127 14.6108 24.0835C14.7329 23.6555 14.9312 23.4779 15.1448 23.1306C15.2211 22.9772 15.2516 22.8157 15.3736 22.6704C15.427 22.63 15.4575 22.6704 15.4651 22.6139C15.4728 22.5573 15.4499 22.4362 15.4575 22.3878C15.5796 22.2424 15.7397 22.1132 15.7703 21.9517C15.8542 21.7418 15.9228 21.5964 16.0449 21.4511C16.2661 21.2734 16.4873 21.1039 16.6246 20.8536C16.7466 20.7082 16.8839 20.7405 16.9983 20.6032C17.1738 20.4175 17.2195 20.143 17.3492 19.9492C17.6543 19.5697 17.9823 19.3032 18.3103 19.0448C18.5849 18.8268 18.9358 18.738 19.2028 18.5765C19.4774 18.3584 19.6452 17.9466 19.9122 17.7851C20.0723 17.6559 20.2707 17.6398 20.4385 17.5106C20.6063 17.3814 20.7436 17.1311 20.9877 17.0746C21.5369 16.9211 21.1402 17.0826 21.6589 16.8646C21.9793 16.6547 21.8496 16.5981 22.17 16.3963C22.7039 16.0652 22.9785 15.8633 23.0243 15.8714C23.0777 15.831 23.1311 15.7826 23.154 15.6776C23.2836 15.4838 23.9625 14.9751 24.0617 14.9428C24.1608 14.9105 24.2829 15.0478 24.3973 14.9105C24.4583 14.8136 24.3363 14.7248 24.3973 14.6279C24.5727 14.4422 24.7406 14.1918 24.9084 14.0627C24.9618 14.0223 25.0991 14.103 25.1982 14.0707C25.2516 14.0304 25.2745 13.9173 25.3279 13.8769C25.3965 13.78 25.2745 13.6347 25.3355 13.5378C25.4118 13.3844 25.4881 13.2309 25.5872 13.1987C25.7474 13.126 25.961 13.0049 25.9381 12.8837C25.9763 12.6657 26.0602 12.4558 26.2737 12.3346C26.2814 12.2781 26.2966 12.2216 26.3043 12.1732C26.4263 12.0278 26.5407 11.9471 26.6628 11.8017C26.7924 11.6079 26.739 11.3657 26.8153 11.2122C27.0594 10.9296 27.2959 10.7035 27.3569 10.3159C27.3416 10.1383 27.2349 9.88798 27.3111 9.73456C27.3722 9.63766 27.5781 9.57307 27.601 9.46809C27.6391 9.25007 27.5323 8.99975 27.5247 8.77366C27.5552 8.61216 27.723 8.47489 27.7001 8.30532C27.6849 7.84506 27.7078 7.40095 27.6468 6.93261C27.7917 6.90838 27.8146 6.80341 27.8298 6.69036C27.7917 6.34315 27.601 6.02015 27.5171 5.65679C27.5094 5.43069 27.6849 5.24497 27.6773 5.01888C27.6544 4.84123 27.5018 4.63936 27.3264 4.48594C27.1662 4.276 27.273 3.96108 27.212 3.72691C27.1662 3.43622 26.9602 3.21013 26.9221 2.86291C26.9069 2.68526 26.7085 2.70141 26.6399 2.51569C26.5865 2.27345 26.5255 2.03928 26.5255 1.74859C26.495 1.62747 26.35 1.65169 26.2661 1.57902C26.0754 1.24795 26.1441 0.585816 25.7322 0.432395C25.7703 0.214376 25.5796 0.165927 25.5186 -0.0117188C25.7627 -0.0117188 25.9915 0.0932536 26.1288 0.416245C26.167 0.480844 26.3043 0.513143 26.35 0.529293C26.4721 0.666564 26.4644 1.00571 26.5941 1.09453C26.7619 1.24795 27.0136 1.19143 27.0823 1.37715C27.1738 1.68399 27.395 1.84548 27.4942 2.0958C27.4866 2.15233 27.5095 2.27345 27.5476 2.33805C27.7154 2.49147 27.7383 2.66104 27.8527 2.80639C28.1349 3.1536 28.4172 3.50889 28.2875 3.98531C28.2036 4.19525 28.4553 4.13873 28.5316 4.26792C28.7223 4.59899 28.646 5.03503 28.8901 5.31765C28.8443 5.87481 29.096 6.38352 29.2562 6.87608C28.9816 7.3202 29.1342 8.10345 29.3478 8.55564C29.3478 8.55564 29.5003 8.53142 29.5079 8.48297C29.5537 8.2165 30.019 8.1196 29.9427 7.99041C29.8512 7.68356 29.7063 7.04565 29.7063 6.76304C29.7368 6.31085 29.752 5.92326 29.6834 5.45492C29.6452 5.39032 29.6071 5.32572 29.569 5.26112C29.5156 5.01888 29.4545 4.77664 29.5003 4.51017C29.4698 4.38905 29.3859 4.31637 29.3554 4.19525C29.363 4.13873 29.3859 4.03375 29.3935 3.97723C29.5003 3.94493 29.63 4.03375 29.7215 4.05798C29.8054 4.13065 29.7291 4.28407 29.7673 4.34867C29.9198 4.60707 30.141 4.72011 30.1868 5.01081C30.1792 5.06733 30.1563 5.1723 30.1487 5.22882C30.1868 5.57604 30.3851 5.85058 30.4309 6.14128C30.4538 6.31085 30.3089 6.56117 30.3775 6.75496C30.5911 7.19908 30.5987 7.71586 30.5682 8.2165C30.5301 8.43452 30.7894 8.61216 30.7208 8.75751C30.6445 8.91093 30.7436 8.93516 30.6674 9.08858C30.6597 9.1451 30.5529 9.1774 30.5453 9.23392C30.6826 9.54884 30.4767 10.0253 30.4233 10.2998C30.4156 10.3563 30.5835 10.4128 30.6216 10.211C30.6445 10.0899 30.8352 10.0899 30.942 10.0576C31.0564 9.96873 31.1403 9.75879 31.1327 9.53269L31.1784 9.51654ZM32.1929 10.6066C32.2006 10.3321 32.3226 10.1302 32.2768 9.83146C32.1853 9.52462 31.9717 9.83146 31.8192 9.84761C31.9031 10.211 31.7658 10.4532 31.659 10.7762C31.598 10.8731 31.5446 11.1477 31.6971 11.1234C31.9336 11.18 32.1853 10.9377 32.1929 10.6066ZM31.7887 12.1005C31.8497 12.0117 31.8192 11.834 31.7353 11.7613C31.6056 11.6725 31.4378 11.8098 31.3615 11.9551C31.2852 12.1086 31.3462 12.3508 31.5446 12.3346C31.5903 12.3427 31.7276 12.1974 31.7963 12.1005H31.7887Z" fill="#0081C8"/>
<path d="M29.0275 2.79494C29.2792 2.99681 29.3784 3.32788 29.5767 3.60242L29.5538 3.71547C29.2106 4.03038 28.9055 3.50552 28.8139 3.19868C28.6766 2.88376 28.5317 2.56884 28.28 2.33468C28.2876 2.27815 28.3029 2.2297 28.3105 2.17318C28.1884 2.02783 28.0283 1.82596 28.1884 1.74522C28.2571 1.64832 28.3715 1.84211 28.5012 1.93094C28.6995 2.20548 28.7376 2.5527 29.0351 2.79494H29.0275Z" fill="#0081C8"/>
<path d="M30.4545 1.40008C30.4545 1.4566 30.3706 1.5535 30.3629 1.60195C30.2027 1.44045 30.0349 1.27896 29.8976 1.01249C29.8519 0.99634 29.7603 0.972115 29.7222 0.907517C29.6764 0.891367 29.6841 0.842919 29.6993 0.786395C29.8519 0.770245 29.9663 0.915592 30.096 1.01249C30.1417 1.02864 30.2027 0.988265 30.2485 0.99634C30.3782 1.08516 30.4468 1.22243 30.4621 1.40008H30.4545Z" fill="#0081C8"/>
<path d="M9.26025 11.4392C9.30601 11.4796 9.37466 11.5441 9.40518 11.5926C9.48145 11.6491 9.55773 11.6491 9.64164 11.6168C9.71792 11.6168 9.78657 11.8348 9.87047 11.8429C9.98489 11.8994 10.0535 12.1094 10.168 12.2144C10.2442 12.2628 10.3205 12.3436 10.3968 12.392C10.5036 12.5373 10.5722 12.6827 10.6866 12.7796C10.7553 12.8765 10.8773 12.8442 10.9612 12.8442C11.1138 12.9007 11.1748 13.1349 11.2816 13.2802C11.3198 13.2802 11.3884 13.4256 11.3884 13.474C11.4647 13.5225 11.5333 13.6194 11.6478 13.6759C11.6783 13.7243 11.6783 13.8132 11.7088 13.8616C11.991 14.3461 12.3648 14.6529 12.6012 15.1697C12.6012 15.1697 12.6317 15.2666 12.6317 15.307C12.9216 15.6058 13.0513 16.0337 13.303 16.3729C13.3716 16.5182 13.4327 16.7524 13.5013 16.9381C13.5776 17.035 13.6462 17.0915 13.7225 17.1884C13.8293 17.3822 13.9285 17.6164 13.9513 17.8506C13.9513 17.9394 13.8903 18.2139 13.7378 18.0605C13.5547 17.8586 13.57 17.5922 13.3869 17.4388C13.3869 17.3903 13.3411 17.2773 13.303 17.2288C13.2267 17.1319 13.097 17.14 13.0665 17.0027C13.0742 16.8654 12.9292 16.7524 12.8606 16.6636C12.6775 16.381 12.4029 16.276 12.1817 15.9934C12.1436 15.9934 12.0978 15.9934 12.0597 16.0337C12.0215 16.1226 11.8995 16.2518 12.0063 16.3971C12.1588 16.494 12.2351 16.6797 12.4258 16.7847C12.5402 16.8816 12.5707 17.1561 12.6394 17.3903C12.7156 17.4872 12.7919 17.576 12.9063 17.6325C13.0208 17.7294 12.975 17.8748 13.0818 18.0201C13.0818 18.0686 13.036 18.109 13.036 18.1493C13.1047 18.2947 13.2648 18.2624 13.3716 18.4077C13.4555 18.327 13.57 18.3916 13.6386 18.5208C13.5089 18.65 13.5471 18.7388 13.4937 18.8761C13.364 19.0941 13.6615 19.304 13.8522 19.409C13.9742 19.4171 13.9513 19.6432 14.0658 19.7481C14.1344 19.8935 14.3327 19.9096 14.4319 20.1034C14.4624 20.2003 14.3861 20.2326 14.3404 20.3215C14.3327 20.4587 14.4853 20.5153 14.5616 20.5718C14.6379 20.6283 14.6684 20.7171 14.6989 20.814C14.5768 20.8463 14.348 20.6767 14.226 20.6687C14.1497 20.6364 14.0124 20.4587 13.8598 20.4184C13.8064 20.4022 13.7683 20.5395 13.7149 20.5233C13.6462 20.5072 13.57 20.491 13.4937 20.4749C13.4098 20.4587 13.2115 20.2246 13.1275 20.2165C13.0284 20.2003 12.9063 20.3861 12.8148 20.3699C12.4639 20.3053 12.4487 20.2811 12.3343 20.2326C12.2046 20.1761 12.0749 20.1115 11.9605 20.0388C11.8842 19.9985 11.9071 19.8854 11.8308 19.837C11.7622 19.7885 11.602 19.7885 11.5333 19.7401C11.2511 19.5543 10.9841 19.1425 10.74 19.0053C10.5799 18.9164 10.4502 18.8276 10.2671 18.7388C10.1832 18.6823 10.1146 18.5531 10.0078 18.5127C9.67215 18.3916 9.40518 18.1736 9.03141 18.0605C8.3144 17.8425 7.71943 18.2785 7.13209 18.6015C7.10158 18.6015 7.04056 18.6015 7.01004 18.6177C6.87274 18.7388 6.72019 18.8034 6.58289 18.9003C6.39982 19.0537 6.1481 19.0941 5.94978 19.2152C5.88876 19.2556 5.88113 19.3767 5.82011 19.4171C5.72857 19.4736 5.55313 19.4898 5.4616 19.5463C5.37769 19.6028 5.37007 19.7078 5.28616 19.7804C5.11835 19.9258 4.95816 20.0388 4.72933 20.1519C4.59966 20.2246 3.52414 20.4184 3.3487 20.4184C3.0741 20.4184 2.87577 20.6606 2.46387 20.6606C1.83839 20.6606 1.20528 20.6444 0.686594 20.2326C0.579804 20.1357 0.556921 19.8531 0.480643 19.8047C0.251809 19.6512 0.274692 19.3283 0.21367 19.0941C0.137392 19.0456 -0.0151646 19.0295 -0.0075368 18.8922C0.0763691 18.2139 0.396737 17.6002 0.785755 17.1319C0.877289 16.9543 1.07561 16.8816 1.0985 16.6555C1.0985 16.6555 1.44937 16.1387 1.66295 15.9288C1.70872 15.8399 1.64007 15.6946 1.68584 15.6138C2.0062 14.9517 2.58592 14.4995 3.06647 13.902C3.19614 13.7728 3.28005 13.6032 3.486 13.5709C3.5699 13.5709 3.64618 13.5871 3.69195 13.4983C3.78348 13.2802 3.95129 13.1591 4.07334 13.0703C4.53101 12.7392 4.9124 12.2467 5.43109 12.1578C5.51499 12.1175 5.56076 12.0286 5.63704 11.9883C5.72095 11.9075 5.8735 12.0044 5.95741 11.9721C6.34643 11.7864 6.6973 11.3907 7.09395 11.3342C7.17786 11.2938 7.22362 11.205 7.26176 11.2131C7.61264 11.2454 8.03217 10.9143 8.36017 11.2615C8.65765 11.1969 9.10769 11.2615 9.29076 11.4311L9.26025 11.4392ZM11.9605 15.4362C11.9605 15.3878 11.9605 15.3474 11.9605 15.2989C11.8079 15.202 11.7393 14.9194 11.541 14.8629C11.5028 14.8629 11.4189 14.9033 11.4189 14.9517C11.4113 15.2263 11.5181 15.412 11.6249 15.6461C11.6706 15.4685 11.7851 15.4766 11.8613 15.6138C11.8995 15.5735 11.9452 15.4847 11.9452 15.4362H11.9605Z" fill="#00943B"/>
<path d="M49.6035 28.1972L47.8262 30.1593L42.8834 25.0561C42.2351 26.2754 41.457 27.3089 40.5569 28.1649C39.6569 29.0127 38.7568 29.7071 37.8643 30.2401L36.1328 28.1487C37.1092 27.6319 37.9406 27.0344 38.6271 26.348C39.3136 25.6617 39.8781 24.9349 40.3205 24.184C40.7553 23.4249 41.0756 22.6578 41.2816 21.8665C41.4799 21.0752 41.5867 20.3 41.5867 19.549V15.9396H44.3174V19.0323C44.3174 19.6379 44.2793 20.2112 44.2107 20.7603C44.1344 21.3094 44.0428 21.8423 43.9284 22.3591L49.6035 28.2133V28.1972ZM55.2557 37.0633H52.6699V23.2392H47.2847V20.6068H52.6699V13.5898H55.2557V37.0552V37.0633Z" fill="#222222"/>
<path d="M78.6273 26.8057H69.3977V28.0977H73.9744V34.1538H65.1337V35.3166H74.5617V37.9489H62.4564V31.6587H71.2741V30.6251H62.3343V28.0977H66.789V26.8057H57.75V24.2299H78.6273V26.8057ZM73.7531 18.5048C73.7531 19.2477 73.6006 19.9179 73.3031 20.5316C73.0056 21.1453 72.6013 21.6701 72.0979 22.1143C71.5792 22.5422 70.9614 22.8814 70.2596 23.1236C69.5502 23.3659 68.7874 23.487 67.956 23.487C67.178 23.487 66.4457 23.3739 65.7516 23.1478C65.0574 22.9217 64.4472 22.5988 63.9133 22.1708C63.3946 21.7428 62.9827 21.218 62.6852 20.6124C62.3877 19.9987 62.2351 19.3123 62.2351 18.5371C62.2351 17.7619 62.3801 17.0594 62.6699 16.4377C62.9598 15.8078 63.3717 15.2749 63.8904 14.8227C64.3938 14.3786 64.9964 14.0314 65.6906 13.7891C66.3847 13.5469 67.1398 13.4258 67.956 13.4258C68.7722 13.4258 69.5045 13.5469 70.2062 13.7891C70.9156 14.0314 71.5258 14.3705 72.0445 14.8227C72.5632 15.2507 72.9751 15.7836 73.2878 16.4054C73.593 17.0352 73.7531 17.7377 73.7531 18.5048ZM71.0758 18.4806C71.0758 17.6731 70.7707 17.0352 70.1528 16.575C69.535 16.1066 68.8027 15.8805 67.9636 15.8805C67.1246 15.8805 66.3542 16.1066 65.7592 16.5669C65.1642 17.0191 64.8744 17.6651 64.8744 18.4887C64.8744 19.3123 65.1719 19.9018 65.7592 20.3459C66.3542 20.79 67.0864 21.0161 67.9636 21.0161C68.8408 21.0161 69.535 20.8142 70.1528 20.4024C70.7707 19.9906 71.0758 19.3527 71.0758 18.4968V18.4806Z" fill="#222222"/>
<path d="M100.554 28.5009H79.707V25.9009H100.554V28.5009ZM96.0229 37.9565H93.4142V32.5787H84.0854V29.9463H96.0229V37.9565ZM95.9771 24.5604H84.1846V14.4023H95.8246V17.0024H86.7628V18.1087H95.5347V20.7411H86.7628V21.9523H95.9695V24.5524L95.9771 24.5604Z" fill="#222222"/>
<path d="M112.256 25.5814H102.34V14.8581H104.918V17.9508H109.647V14.8581H112.256V25.5814ZM109.647 22.9733V20.5508H104.918V22.9733H109.647ZM119.586 37.9278H107.626V31.4518H116.322V30.1114H107.504V27.5032H118.999V33.9792H110.357V35.3197H119.586V37.9197V37.9278ZM119.785 26.7604H117.229V24.2572H113.042V21.6732H117.229V19.816H113.042V17.2079H117.229V13.5742H119.785V26.7523V26.7604Z" fill="#222222"/>
<path d="M135.666 28.2774L133.889 30.2396L128.969 25.1121C128.336 26.3475 127.565 27.3972 126.665 28.2451C125.765 29.0929 124.85 29.7874 123.927 30.3203L122.195 28.2289C123.187 27.6637 124.026 27.0339 124.72 26.3475C125.407 25.6611 125.971 24.9425 126.413 24.2077C126.833 23.4486 127.146 22.6896 127.352 21.9144C127.558 21.1393 127.657 20.3721 127.657 19.6212V15.931H130.388V19.1044C130.388 19.71 130.349 20.2752 130.281 20.8163C130.205 21.3573 130.113 21.8741 129.999 22.3747L135.674 28.2774H135.666ZM140.998 37.0708H138.389V13.6055H140.998V37.0708Z" fill="#222222"/>
</g>
<defs>
<clipPath id="clip0_1379_78068">
<rect width="141" height="42" fill="white"/>
</clipPath>
</defs>
</svg>
