<svg width="108" height="42" viewBox="0 0 108 42" fill="none" xmlns="http://www.w3.org/2000/svg">
<path d="M46.9695 31.2873C46.9695 31.5761 47.0777 32.1174 47.7995 32.1174C48.1844 32.1174 48.6176 31.9971 48.6176 31.4557C48.6176 31.0467 48.3288 30.9505 47.9198 30.8181L47.4987 30.6858C46.8732 30.4933 46.2597 30.3129 46.2597 29.17C46.2597 28.5926 46.4882 27.582 47.7634 27.582C48.9664 27.582 49.2792 28.6166 49.2912 29.2422H48.5093C48.4852 29.0136 48.4251 28.4723 47.7033 28.4723C47.3905 28.4723 47.0176 28.6287 47.0176 29.0858C47.0176 29.4828 47.2702 29.567 47.4265 29.6272L48.3769 29.94C48.9063 30.1084 49.3995 30.3971 49.3995 31.3234C49.3995 32.8753 48.2085 33.0076 47.8597 33.0076C46.4401 33.0076 46.1875 31.9249 46.1875 31.2873H46.9695Z" fill="#015CAC"/>
<path d="M52.9533 28.633H50.8721V29.7037H52.7728V30.618H50.8721V31.9533H53.0375V32.8677H50.0781V27.7188H52.9533V28.633Z" fill="#015CAC"/>
<path d="M57.4769 32.8677H56.7191V28.5608H56.707L55.9732 32.8677H55.1672L54.4574 28.5608H54.4454V32.8677H53.6875V27.7188H54.8784L55.5882 31.7729H55.6003L56.298 27.7188H57.4769V32.8677Z" fill="#015CAC"/>
<path d="M60.0915 32.8677H59.2734V30.9187L57.9141 27.7188H58.8885L59.6945 29.9563L60.4764 27.7188H61.4028L60.0915 30.9308V32.8677Z" fill="#015CAC"/>
<path d="M65.0307 31.0631C65.0307 32.4225 64.4052 33 63.4188 33C63.0579 33 62.5285 32.8917 62.1797 32.3744C61.9631 32.0616 61.8789 31.6406 61.8789 31.1233V27.7188H62.709V31.0631C62.709 31.7729 63.0218 32.0977 63.4067 32.0977C63.9721 32.0977 64.2007 31.7368 64.2007 31.1233V27.7308H65.0307V31.0751V31.0631Z" fill="#015CAC"/>
<path d="M67.7816 27.7188H68.5395V32.8677H67.7215L66.1215 29.1984H66.1095V32.8677H65.3516V27.7188H66.2178L67.7696 31.3037H67.7816V27.7188Z" fill="#015CAC"/>
<path d="M71.1616 30.0922H72.7977V32.8712H72.2563L72.1721 32.2215C71.9676 32.5343 71.6669 33.0035 70.9451 33.0035C70.0068 33.0035 69.1406 32.1133 69.1406 30.3088C69.1406 28.9012 69.73 27.5779 71.0533 27.5899C72.2563 27.5899 72.7255 28.6125 72.7736 29.3223H71.9556C71.9556 29.1178 71.6789 28.4801 71.1015 28.4801C70.5241 28.4801 69.9707 29.0095 69.9707 30.3328C69.9707 31.7403 70.5601 32.1012 71.1135 32.1012C71.2939 32.1012 71.8955 32.005 72.0639 30.9704H71.1496V30.1042L71.1616 30.0922Z" fill="#015CAC"/>
<path d="M78.2104 31.0631C78.2104 32.4225 77.5848 33 76.5984 33C76.2375 33 75.7082 32.8917 75.3593 32.3744C75.1428 32.0616 75.0586 31.6406 75.0586 31.1233V27.7188H75.8887V31.0631C75.8887 31.7729 76.2015 32.0977 76.5864 32.0977C77.1518 32.0977 77.3804 31.7368 77.3804 31.1233V27.7308H78.2104V31.0751V31.0631Z" fill="#015CAC"/>
<path d="M81.4066 27.7188H82.1644V32.8677H81.3464L79.7465 29.1984H79.7345V32.8677H78.9766V27.7188H79.8306L81.3946 31.3037H81.4066V27.7188Z" fill="#015CAC"/>
<path d="M83.7094 27.7188H82.8906V32.8677H83.7094V27.7188Z" fill="#015CAC"/>
<path d="M86.7349 27.7188H87.5769L86.2537 32.8677H85.4717L84.1484 27.7188H85.0266L85.8687 31.6165H85.8807L86.7349 27.7188Z" fill="#015CAC"/>
<path d="M90.981 28.633H88.8998V29.7037H90.8125V30.618H88.8998V31.9533H91.0652V32.8677H88.0938V27.7188H90.981V28.633Z" fill="#015CAC"/>
<path d="M91.7425 32.8677H92.5365V30.8586H93.3786C93.9801 30.8586 94.0162 31.1353 94.0162 31.833C94.0162 32.3624 94.0523 32.627 94.1004 32.8677H95.0026V32.7353C94.8222 32.6511 94.8222 32.4586 94.8222 31.7127C94.8222 30.7503 94.6538 30.5939 94.329 30.4014C94.7139 30.233 94.9424 29.7398 94.9424 29.1744C94.9424 28.7293 94.75 27.7188 93.7034 27.7188H91.7305V32.8677H91.7425ZM92.5365 29.9804V28.5969H93.547C94.0282 28.5969 94.1244 28.9939 94.1244 29.2706C94.1244 29.7759 93.9199 29.9804 93.4989 29.9804H92.5365Z" fill="#015CAC"/>
<path d="M96.2507 31.2873C96.2507 31.5761 96.359 32.1174 97.0808 32.1174C97.4657 32.1174 97.8988 31.9971 97.8988 31.4557C97.8988 31.0467 97.6101 30.9505 97.2011 30.8181L96.78 30.6858C96.1425 30.4933 95.5409 30.3129 95.5409 29.17C95.5409 28.5926 95.7695 27.582 97.0447 27.582C98.2477 27.582 98.5605 28.6166 98.5725 29.2422H97.7906C97.7665 29.0136 97.7063 28.4723 96.9845 28.4723C96.6718 28.4723 96.2988 28.6287 96.2988 29.0858C96.2988 29.4828 96.5515 29.567 96.7079 29.6272L97.6582 29.94C98.1875 30.1084 98.6808 30.3971 98.6808 31.3234C98.6808 32.8753 97.4898 33.0076 97.1409 33.0076C95.7214 33.0076 95.4688 31.9249 95.4688 31.2873H96.2507Z" fill="#015CAC"/>
<path d="M100.499 27.7188H99.6797V32.8677H100.499V27.7188Z" fill="#015CAC"/>
<path d="M102.927 32.8677H102.109V28.633H100.93V27.7188H104.106V28.633H102.927V32.8677Z" fill="#015CAC"/>
<path d="M106.816 27.7188L106.046 29.9563L105.228 27.7188H104.266L105.613 30.9187V32.8677H106.431V30.9428L107.742 27.7188H106.816Z" fill="#015CAC"/>
<path d="M52.2209 23.6082V18.3269H50.7412V16.8352H52.2209V12.372H54.0013V26.0383H52.2209V23.6924L51.1623 24.8352C51.1623 24.8352 51.066 24.7631 50.8976 24.6428C50.7292 24.5225 50.5247 24.342 50.2721 24.0894C49.7909 23.6443 49.418 23.1871 49.1172 22.718C48.8285 22.2488 48.6721 22.0082 48.648 21.9721C48.624 22.0082 48.4555 22.2848 48.1187 22.8021C47.7819 23.3074 47.421 23.7405 47.024 24.1014C46.8315 24.2819 46.627 24.4503 46.4465 24.5947C46.2541 24.7511 46.1579 24.8352 46.1338 24.8352L45.0391 23.6202C45.0391 23.6202 45.1834 23.4999 45.4361 23.2954C45.6767 23.0909 45.9774 22.7781 46.3504 22.333C47.1443 21.3706 47.5654 20.3961 47.6135 19.3856C47.6616 18.3871 47.6857 17.7615 47.6857 17.5089V12.6367H49.6104V17.4608C49.6104 17.6893 49.6345 18.3149 49.6826 19.3375C49.7307 20.3601 50.1518 21.3585 50.9458 22.3209C51.2465 22.6939 51.5112 22.9826 51.7397 23.1751C51.9683 23.3676 52.1127 23.4999 52.2089 23.56M54.7351 12.3359H56.5155V26.0022H54.7351V12.3359Z" fill="#015CAC"/>
<path d="M67.1445 18.3368V20.7308C66.6873 20.5263 66.2062 20.3699 65.6889 20.2737C65.1716 20.1774 64.6904 20.1293 64.2212 20.1293C63.7521 20.1293 63.2829 20.1774 62.7776 20.2616C62.2724 20.3458 61.7792 20.4902 61.31 20.6947C60.7085 20.9473 60.1912 21.2842 59.7701 21.7172C59.3491 22.1503 59.1446 22.6797 59.1446 23.3173C59.1446 23.9549 59.3732 24.5203 59.8183 24.9534C60.2634 25.3985 60.8047 25.7353 61.4423 25.988C61.8874 26.1805 62.3566 26.3128 62.8498 26.397C63.343 26.4812 63.8002 26.5173 64.2453 26.5173C64.7145 26.5173 65.1956 26.4692 65.7009 26.3729C66.2061 26.2767 66.6873 26.1203 67.1445 25.9158C67.6978 25.6632 68.1671 25.3143 68.54 24.8812C68.9129 24.4481 69.1054 23.9308 69.1054 23.3173C69.1054 22.7519 68.9489 22.2706 68.6362 21.8616C68.3234 21.4526 67.9265 21.1278 67.4212 20.8872H69.0813V12.418H67.1445V13.7653H65.6648V12.7067H58.6875V19.5398H65.6648V18.3488H67.1445V18.3368ZM65.6648 15.3653H67.1445V16.7127H65.6648V15.3653ZM66.2663 22.1143C66.7716 22.4511 67.0362 22.8481 67.0362 23.2932C67.0362 23.7383 66.7836 24.1473 66.2784 24.4962C65.7731 24.8451 65.0874 25.0135 64.2333 25.0135C63.3791 25.0135 62.6573 24.8451 62.0919 24.4962C61.5265 24.1473 61.2378 23.7503 61.2378 23.2932C61.2378 22.8361 61.5265 22.4511 62.0919 22.1143C62.6573 21.7774 63.3791 21.5969 64.2333 21.5969C65.0874 21.5969 65.7611 21.7654 66.2784 22.1143M63.752 18.036H60.6363V14.1744H63.752V18.036Z" fill="#015CAC"/>
<path d="M76.1463 12.6875V14.1672H73.3193V23.0935H74.7749C75.0035 23.0935 75.2561 23.0935 75.5208 23.0935C75.7975 23.0935 76.05 23.0695 76.2906 23.0214C76.5793 22.9732 76.7959 22.9131 76.9403 22.8529C77.0847 22.7928 77.1689 22.7687 77.1809 22.7687V12.3867H79.1177V16.8379H80.1523V12.3867H82.1011V26.0529H80.1523V18.3296H79.1177V26.0529H77.1809V24.2845C77.1809 24.2845 77.0606 24.3206 76.844 24.3807C76.6275 24.4289 76.423 24.477 76.2305 24.489C75.9899 24.5131 75.7493 24.5251 75.4846 24.5371C75.232 24.5492 74.9433 24.5612 74.6185 24.5612H71.3945V12.6754H76.1343L76.1463 12.6875Z" fill="#015CAC"/>
<path d="M84.2834 15.4336C84.0308 15.8306 83.8984 16.2998 83.8984 16.8532C83.8984 17.8156 84.2594 18.6216 84.9932 19.2712C85.715 19.9208 86.6052 20.2457 87.6398 20.2457C88.6744 20.2457 89.5645 19.9208 90.3104 19.2712C91.0562 18.6216 91.4292 17.8156 91.4292 16.8532C91.4292 16.2998 91.3089 15.8426 91.0683 15.4817C90.8277 15.1208 90.5269 14.784 90.142 14.4832H91.3449V13.0035H88.6864V12.1133H86.5931V13.0035H83.9827V14.4832H85.1135C84.8007 14.7359 84.524 15.0486 84.2714 15.4456M92.4998 12.402V20.2818H94.4366V16.5644H95.8441V15.0847H94.4366V12.414H92.4998V12.402ZM84.6203 22.4351H92.4998V26.0803H94.4366V20.9554H84.6203V22.4351ZM88.915 15.4216C89.3119 15.7344 89.5044 16.2155 89.5044 16.8652C89.5044 17.5148 89.2999 18.0201 88.9029 18.3328C88.5059 18.6456 88.0849 18.8141 87.6398 18.8141C87.1947 18.8141 86.7977 18.6577 86.4127 18.3328C86.0278 18.0201 85.8473 17.5268 85.8473 16.8652C85.8473 16.2035 86.0398 15.7464 86.4127 15.4216C86.7856 15.1088 87.2067 14.9404 87.6638 14.9404C88.1209 14.9404 88.5299 15.0968 88.9269 15.4216" fill="#015CAC"/>
<path d="M98.6984 24.2884V18.0448H100.479V24.2884H101.682V18.0448H103.462V24.2884H104.557C104.557 24.2884 104.617 24.1441 104.701 23.9276C104.786 23.711 104.846 23.5065 104.882 23.302C104.954 22.8689 105.002 22.4238 105.038 21.9666C105.074 21.5095 105.086 21.0162 105.086 20.4749V14.1711H97.8082V12.6914H107.011V20.7877C107.011 21.3892 106.987 21.9426 106.939 22.4358C106.879 22.9651 106.807 23.3982 106.71 23.7351C106.626 24.0719 106.578 24.2523 106.566 24.2764H107.757V25.7561H97.2188V24.2764H98.6864L98.6984 24.2884Z" fill="#015CAC"/>
<path d="M38.5685 12V31.573H35.2964V12H31.3867V35.0016H42.4782V12H38.5685Z" fill="#015CAC"/>
<path d="M0 12V24.1986H6.448V31.573H0V35.0016H10.3698V20.782H3.90971V15.4286H10.3698V12H0Z" fill="#015CAC"/>
<path d="M12.6797 12V35.0016H16.6014V15.4286H18.9231V35.0016H22.8328V15.4286H25.1547V35.0016H29.0644V12H12.6797Z" fill="#015CAC"/>
</svg>
