<svg width="98" height="42" viewBox="0 0 98 42" fill="none" xmlns="http://www.w3.org/2000/svg">
<path d="M73.4713 10.9961H70.5787V23.6883C69.6625 24.0305 68.3298 24.3381 67.2924 24.3381V15.0102H69.3407V12.1611H56.5247V15.0102H58.5654V24.4765H56.1953V27.3256H65.3993C66.4178 27.318 68.5683 27.2295 70.5787 26.6682V32.4433C70.5787 33.2546 71.2299 33.9121 72.025 33.9121C72.8201 33.9121 73.4713 33.2546 73.4713 32.4433V20.7008H76.7841V17.8517H73.4713V10.9961ZM64.396 24.4765H61.458V15.0102H64.396V24.4765Z" fill="#007046"/>
<path d="M94.4023 22.0493C95.0421 19.9038 95.1405 17.343 95.1481 16.2472V12.1523H79.6062V15.0015H92.2517V16.2395C92.248 17.1123 92.1571 20.1306 91.3317 22.0531H77.5352V24.8984H85.9933V32.4307C85.9933 32.4307 85.9933 32.4307 85.9933 32.4345C85.9933 33.2458 86.6407 33.9033 87.4396 33.9033C88.2385 33.9033 88.8859 33.2458 88.8859 32.4345C88.8859 32.4345 88.8859 32.4345 88.8859 32.4307V24.8984H97.912V22.0531H94.3985L94.4023 22.0493Z" fill="#007046"/>
<path d="M46.0587 18.9844H43.1396V22.0603H34.1211V24.9325H38.9332C38.3615 25.8169 38.0284 26.8435 38.0284 27.9431C38.0284 31.2383 40.9739 33.9182 44.5972 33.9182C48.2205 33.9182 51.1661 31.2383 51.1661 27.9431C51.1661 26.8435 50.833 25.8207 50.2613 24.9325H55.0734V22.0603H46.0549V18.9844H46.0587ZM46.3086 30.5308C45.8012 30.7576 45.2182 30.8884 44.5972 30.8884C43.7302 30.8884 42.9351 30.6346 42.3142 30.2155C41.5154 29.6734 41.008 28.8544 41.008 27.9393C41.008 26.3129 42.6171 24.9902 44.601 24.9902C46.5849 24.9902 48.1903 26.3129 48.1903 27.9393C48.1903 29.0582 47.4292 30.031 46.3123 30.5308" fill="#007046"/>
<path d="M44.5928 15.1717C46.8076 18.8475 50.6543 20.4086 52.9828 20.7738V17.6902C51.3661 17.3095 47.1863 15.8677 46.1186 10.9961H43.067C41.9955 15.8792 37.7967 17.3172 36.1914 17.6902V20.7738C38.5199 20.4124 42.3741 18.8513 44.5928 15.1717Z" fill="#007046"/>
<path d="M25.6877 13.3169C24.8858 12.065 23.9977 11.0218 23.093 10.0257C21.0915 9.47715 18.9309 8.68967 16.9128 7.4849L16.2335 7.05078L15.5542 7.4849C13.556 8.67958 11.4087 9.46032 9.41712 10.0122C8.50915 11.0117 7.61443 12.0583 6.8125 13.3102C9.53641 12.8323 12.9894 11.9102 16.2368 10.1132C19.4976 11.917 22.9671 12.8424 25.6943 13.3169" fill="#007046"/>
<path d="M28.2691 19.1177C28.004 18.1115 27.6594 17.1557 27.2584 16.2471C24.4815 15.8567 20.4718 14.9448 16.9161 12.8213L16.2368 12.4141L15.5575 12.8213C12.025 14.9313 8.03195 15.8433 5.24839 16.237C4.84742 17.1456 4.50279 18.1047 4.23438 19.111C7.06101 18.8249 11.8361 17.9903 16.2368 15.5572C20.6508 17.9971 25.4458 18.8316 28.2691 19.1143" fill="#007046"/>
<path d="M28.7664 21.8473C26.1054 21.595 21.1812 20.794 16.9097 18.2431L16.2304 17.8359L15.5511 18.2431C11.3095 20.7772 6.39847 21.5849 3.72426 21.8406C3.61822 22.8098 3.58177 23.7252 3.61159 24.5934C6.31562 24.3679 11.495 23.6007 16.2337 20.9825C20.989 23.6108 26.1883 24.3747 28.8823 24.5968C28.9089 23.7319 28.8724 22.8165 28.7664 21.8473Z" fill="#007046"/>
<path d="M16.228 23.25L15.5487 23.6572C11.4065 26.1307 6.62472 26.9585 3.91406 27.2379C4.11289 28.2003 4.40119 29.082 4.75907 29.8931C7.62548 29.5599 12.0957 28.6816 16.228 26.3965C20.3735 28.6883 24.857 29.5633 27.7234 29.8964C28.0847 29.0888 28.3729 28.2071 28.5718 27.2446C25.8711 26.972 21.0794 26.1509 16.9073 23.6606L16.228 23.2534V23.25Z" fill="#007046"/>
<path d="M26.2526 32.3389C23.5618 31.8779 20.0591 30.9491 16.9111 29.0713L16.2318 28.6641L15.5524 29.0713C12.4044 30.9525 8.8984 31.8813 6.21094 32.3389C6.92008 33.2408 7.66568 33.9274 8.55377 34.56C10.5023 34.1124 12.7523 33.3586 14.893 32.3389V38.3123H17.5738V32.3389C19.7145 33.3586 21.9646 34.1124 23.9131 34.56C24.8011 33.9307 25.5434 33.2442 26.2559 32.3389" fill="#B47C4E"/>
</svg>
