<svg width="57" height="49" viewBox="0 0 57 49" fill="none" xmlns="http://www.w3.org/2000/svg">
<path d="M39.1854 37.2228C38.3606 31.1027 35.3485 26.0942 32.2765 26.0703C29.1927 26.0703 24.6743 31.0668 22.0686 37.2347C19.4509 43.3907 22.4152 48.3752 29.0133 48.3752C35.6592 48.3035 39.9982 43.3548 39.1973 37.2228" fill="#9C9C9C"/>
<path d="M7.69217 20.9028C3.75961 20.9028 0.878906 24.0226 0.878906 27.9672C0.878906 31.9118 3.75961 34.9241 7.69217 34.9241C9.89153 34.9241 11.9594 33.9319 13.322 32.2226C13.1905 32.0911 12.7961 31.2783 11.5291 31.2783C10.3338 31.2783 10.0589 32.4736 7.69217 32.4736C5.32546 32.4736 3.44885 30.5013 3.44885 27.9433C3.44885 25.3853 5.37327 23.3293 7.69217 23.3293C9.80786 23.3293 10.3218 24.5964 11.4096 24.5964C12.4973 24.5964 13.1308 23.7238 13.2742 23.5804C11.9116 21.871 9.87958 20.8789 7.69217 20.8789" fill="#9C9C9C"/>
<path d="M21.5979 21.3125H16.0517C15.1193 21.3125 14.4619 21.8743 14.4619 22.7828V23.5956H16.9362C16.9362 23.5956 17.0198 31.951 16.9123 32.8475C16.8764 33.5408 16.5896 35.1784 14.9998 35.9195C13.6969 36.5291 13.673 37.1148 13.6133 38.0232C13.6372 38.083 13.661 38.1308 13.6969 38.1308H13.7208C13.7208 38.1308 15.0117 37.8081 15.191 37.7364C16.3624 37.3658 18.1554 36.5769 19.0041 34.9034C19.0041 34.9034 19.8169 33.6722 19.781 31.0306V23.5836H19.9005C20.8329 23.5836 21.586 23.0218 21.586 22.1253V21.3125H21.5979Z" fill="#9C9C9C"/>
<path d="M50.1906 16.9295C44.4053 14.6584 38.5602 14.8975 37.078 17.5869C35.6317 20.3243 37.7952 26.6356 41.8951 31.919C45.995 37.1904 51.8042 37.0111 55.0076 31.2376C58.1752 25.4881 55.9519 19.2006 50.1906 16.9295Z" fill="#9C9C9C"/>
<path d="M20.7868 18.7823C25.9266 22.2727 31.6761 23.3366 33.6961 21.0654C35.7521 18.7823 35.0468 12.0885 32.202 6.02814C29.3691 -0.0321946 23.6675 -1.15581 19.2688 3.75701C14.9178 8.66983 15.6709 15.28 20.7749 18.7823" fill="#9C9C9C"/>
</svg>
