<svg width="99" height="30" viewBox="0 0 99 30" fill="none" xmlns="http://www.w3.org/2000/svg">
<path d="M47.3927 3.35744C47.8828 2.99884 48.5164 2.80759 49.2695 2.80759C49.8552 2.78368 50.4288 3.02274 50.8352 3.45306C51.2416 3.88338 51.4329 4.4691 51.4329 5.2102C51.4448 5.70029 51.3732 6.20233 51.2178 6.66851C51.0744 7.07492 50.9429 7.37376 50.2974 7.8997L50.2018 7.95947H53.1422C54.7918 5.79592 53.9192 4.34956 53.1183 3.5726C53.1064 3.56064 53.0944 3.54869 53.0824 3.54869C52.9509 3.4172 52.7956 3.29767 52.6521 3.20204C52.6282 3.19009 52.6164 3.16618 52.5924 3.15423C52.5685 3.14228 52.5565 3.14228 52.5446 3.13032C52.3892 3.02274 52.2817 2.97493 52.2817 2.97493V2.99884C51.9589 2.83149 51.6003 2.7 51.2417 2.61633C50.7158 2.50875 50.1898 2.46094 49.6519 2.46094C48.3729 2.46094 47.2732 2.72391 46.3528 3.2379C45.4324 3.7758 44.6556 4.50496 44.0699 5.37755C43.4364 6.33382 42.9702 7.40962 42.6953 8.52128C42.3845 9.76442 42.1933 11.0434 42.1455 12.3344C42.1096 13.0755 42.0498 13.8525 41.9781 14.7011C41.8944 15.5498 41.7748 16.3866 41.5836 17.2233C41.4043 18.0481 41.1532 18.837 40.8305 19.602C40.5197 20.3312 40.1015 21.0245 39.5995 21.6221C39.0974 22.2078 38.4758 22.686 37.7826 23.0207C37.0773 23.3673 36.2407 23.5466 35.2725 23.5466C34.6987 23.5466 34.1129 23.4868 33.5511 23.3673C32.9774 23.2478 32.4156 23.0565 31.9136 22.7696C31.4355 22.5067 31.0171 22.1361 30.6943 21.6819C30.5031 21.395 30.3597 21.0723 30.288 20.7376C30.2402 20.3909 30.2042 20.0204 30.2281 19.6737V19.5183C30.527 15.7291 34.9617 13.4341 34.9617 13.4341H31.3398C27.2758 16.2192 28.5189 19.7215 28.5189 19.7215C28.6146 20.104 28.758 20.4626 28.9373 20.7973C29.3198 21.4906 29.8338 22.0763 30.4553 22.5425C31.1008 23.0087 31.8418 23.3673 32.6188 23.5705C33.4196 23.7857 34.2564 23.9052 35.0931 23.9052C36.7905 23.9052 38.2248 23.6183 39.3842 23.0565C40.4481 22.5545 41.4162 21.8373 42.1932 20.9527C42.8865 20.1519 43.4245 19.2195 43.795 18.2393C44.1177 17.3667 44.3448 16.4583 44.4523 15.5379C44.5719 14.5936 44.6555 13.6253 44.7392 12.6213C44.8229 11.6291 44.9065 10.6729 45.0261 9.74051C45.1456 8.80815 45.289 7.91166 45.4683 7.06297C45.6118 6.29796 45.8747 5.55685 46.2214 4.8516C46.5082 4.27784 46.9266 3.76385 47.4406 3.35744H47.3927Z" fill="#9C9C9C"/>
<path d="M56.293 16.6322C56.3872 16.491 56.3518 16.5263 56.293 16.6322Z" fill="#9C9C9C"/>
<path d="M56.2961 16.6328C56.1297 16.8941 55.7136 17.5355 56.2961 16.6328Z" fill="#9C9C9C"/>
<path d="M60.1157 11.4242C60.3548 11.4123 60.57 11.3286 60.7732 11.233L62.7455 10.0018C62.7455 10.0018 64.0483 9.22483 64.8253 7.94582C65.0404 7.59918 65.6022 6.66682 66.3075 5.53125H63.2953L59.5898 11.4242H60.1157Z" fill="#9C9C9C"/>
<path d="M77.2796 21.7598C77.4828 21.4251 79.8017 18.2335 79.981 17.9945L80.0169 17.9467C80.2918 17.5522 80.5668 17.1697 80.7939 16.7752L81.8099 15.2691C83.2323 12.6035 80.3277 12.6035 80.3277 12.6035H78.7977C77.6741 12.6035 76.7418 13.4642 76.7418 13.4642L73.9209 16.1417L74.2676 15.0779C75.2238 12.5916 72.7734 12.6155 72.7734 12.6155H71.2315C70.1079 12.6155 69.1756 13.4761 69.1756 13.4761L67.1554 15.3886L69.2592 12.1254H68.7333C68.4942 12.1373 68.279 12.221 68.0758 12.3166L66.1035 13.5478C66.1035 13.5478 64.8007 14.3248 64.0237 15.6038C63.8086 15.9504 63.2468 16.8828 62.5535 18.0184C62.4937 18.126 62.4101 18.2335 62.3145 18.377C62.0515 18.8073 61.7766 19.2376 61.5256 19.656C61.3463 19.8472 61.1788 20.0385 60.9876 20.2297C59.9238 21.3055 59.0393 22.0706 58.3221 22.5367C57.6049 22.979 57.079 23.1942 56.6845 23.1942C56.5291 23.1942 56.3738 23.1105 56.2901 22.979C56.1945 22.8117 56.1467 22.6204 56.1586 22.4052C56.1826 22.0108 56.2901 21.6402 56.4694 21.2816C56.6607 20.8394 58.37 18.1977 59.0274 17.1219L62.1711 12.1134H61.6451C61.406 12.1254 61.1908 12.2091 60.9876 12.3047L59.0274 13.5359C59.0274 13.5359 57.7244 14.3128 56.9474 15.5918C56.8279 15.7831 56.6009 16.1656 56.2901 16.6557L56.1945 16.7991C55.7762 17.4566 55.4295 18.0303 55.1307 18.5443C54.4733 19.3093 53.7919 20.0265 53.1106 20.7198C52.4292 21.4251 51.6762 22.0466 50.8753 22.5845C50.1701 23.0268 49.6083 23.242 49.2138 23.242C48.7835 23.242 48.5803 22.979 48.5803 22.465C48.5803 21.951 48.7955 21.3055 49.2378 20.5047C49.68 19.7038 50.2777 18.6878 51.0427 17.4566L60.0314 3.14844H59.5054C59.2664 3.16039 59.0513 3.24406 58.8481 3.33969L56.8878 4.57088C56.8878 4.57088 55.5849 5.34785 54.8079 6.62686C54.031 7.90586 48.7119 16.6437 48.7119 16.6437C47.8752 18.0303 47.2655 19.142 46.8711 19.9668C46.4766 20.8035 46.2734 21.4729 46.2734 22.0227C46.2734 23.1822 46.9309 23.7679 48.2457 23.7679C49.202 23.756 50.1463 23.4691 50.9352 22.9192C51.8077 22.3574 52.7998 21.4968 53.9115 20.3612C54.0908 20.1819 54.27 20.0026 54.4493 19.7875C54.3059 20.0743 54.1744 20.3612 54.0669 20.6601C53.9234 21.0545 53.8636 21.449 53.8516 21.8673C53.8277 22.3694 54.0191 22.8714 54.3777 23.23C54.7243 23.5767 55.2263 23.756 55.8598 23.756C56.5411 23.756 57.2822 23.5408 58.0831 23.0985C58.8122 22.6921 59.6847 21.9988 60.6888 21.0306C60.1867 21.8195 59.6848 22.6204 59.1828 23.4213H60.0554C60.0554 23.4213 62.0037 23.4213 63.0676 21.7956C63.4859 21.1621 63.94 20.4688 64.454 19.7277C64.9799 18.9866 65.5298 18.2574 66.1155 17.5163C66.7012 16.7752 67.2869 16.1178 67.8726 15.5082C68.3746 14.9583 68.9364 14.4802 69.5341 14.0379C70.072 13.6554 70.5382 13.4642 70.9326 13.4642C71.1836 13.4522 71.4227 13.5598 71.5662 13.751C71.6977 13.9303 71.7693 14.1575 71.7693 14.3846C71.7693 14.7312 71.6139 15.2093 71.3151 15.807C71.0162 16.4047 70.6098 17.098 70.1198 17.8869C69.6297 18.6758 69.068 19.5364 68.4345 20.4688C67.801 21.4012 67.1555 22.3455 66.4981 23.3974H67.2272C67.2272 23.3974 69.4863 23.2659 70.5143 21.7717C70.9087 21.1382 71.363 20.4449 71.877 19.7157C72.3909 18.9866 72.9408 18.2455 73.5026 17.5044C73.9329 16.9545 74.3631 16.4405 74.7934 15.9744L75.5824 15.1496C75.9888 14.7432 76.431 14.3726 76.8972 14.0499C77.4351 13.6674 77.9013 13.4761 78.2958 13.4761C78.499 13.4761 78.7021 13.5598 78.8456 13.6913C79.0129 13.8586 79.0965 14.0857 79.0846 14.3128C79.0846 14.6714 78.8815 15.1615 78.4512 15.7592C78.0208 16.3569 73.897 22.3216 73.1798 23.4213H73.9089C73.9687 23.3854 76.2277 23.242 77.2677 21.7478L77.2796 21.7598Z" fill="#9C9C9C"/>
<path d="M97.3794 2.12049C96.4351 1.21204 95.192 0.757812 93.674 0.757812C92.4787 0.757812 91.2714 1.11641 90.0283 1.84557C88.7851 2.58667 87.6497 3.50708 86.6815 4.60678C85.6894 5.70649 84.8646 6.94964 84.243 8.28841C83.6095 9.62718 83.2987 10.9062 83.2987 12.1015C83.2987 13.4044 83.6813 14.4922 84.4223 15.3767C85.1754 16.2613 86.2271 16.7036 87.5898 16.7036C89.06 16.7036 90.3151 16.321 91.3431 15.556C92.383 14.791 93.2795 13.8587 94.0205 12.7948L94.1043 12.8785C93.6142 13.7989 92.9806 14.8388 92.2276 15.9864C91.4387 17.1936 90.5782 18.3651 89.6698 19.5006C88.7135 20.684 87.6615 21.8435 86.5618 22.9671C85.498 24.0548 84.3386 25.0589 83.1074 25.9674C81.9599 26.8161 80.7168 27.5333 79.402 28.0831C78.2067 28.6091 76.9277 28.872 75.6367 28.884V29.3143C77.1548 29.2187 78.649 28.9079 80.0834 28.4059C81.972 27.7604 83.7649 26.8997 85.4623 25.8598C87.2672 24.7601 88.9764 23.4691 90.5303 22.0228C92.1201 20.5884 93.5425 18.9986 94.7975 17.2654C95.9928 15.6158 96.9731 13.8348 97.7141 11.9342C98.4194 10.1651 98.7898 8.27646 98.7898 6.38783C98.8018 4.45139 98.3357 3.0409 97.3914 2.12049H97.3794ZM95.0247 8.39599C94.702 9.43593 94.2597 10.452 93.6979 11.3843C93.172 12.2808 92.5146 13.0697 91.7376 13.7511C90.9846 14.3846 90.1717 14.7073 89.2991 14.7073C88.9166 14.7193 88.558 14.6237 88.2353 14.4324C87.9604 14.2531 87.7333 14.0141 87.554 13.7272C87.3747 13.4283 87.2552 13.0936 87.2074 12.747C87.1476 12.4004 87.1118 12.0418 87.1118 11.6951C87.1357 10.7388 87.2671 9.77062 87.5301 8.83826C87.805 7.76246 88.2234 6.72252 88.7493 5.74235C89.2514 4.80999 89.9206 3.9613 90.7215 3.25606C91.4745 2.59863 92.4428 2.24003 93.4349 2.25198C94.0086 2.25198 94.5586 2.51495 94.8932 2.96918C95.2877 3.44731 95.4909 4.296 95.4909 5.51524C95.4789 6.49541 95.3235 7.45168 95.0247 8.37208V8.39599Z" fill="#9C9C9C"/>
<path d="M21.3572 5.37594H21.2974C17.7234 6.03337 14.2331 7.16894 10.946 8.73483C8.55539 9.8943 6.95375 10.9581 6.69079 11.1494L6.65489 11.1733H6.64293C6.53535 11.2809 6.48753 11.3885 6.48753 11.52V8.68701C6.47558 8.53162 6.54733 8.37623 6.66686 8.2806C6.66686 8.2806 10.5636 5.01734 18.8471 3.2363L19.0981 3.17653H19.1459C14.0659 -0.708303 6.81029 0.247963 2.92554 5.31617C-0.253978 9.47593 -0.242014 15.2494 2.9375 19.3972C6.0453 18.8234 9.0695 17.903 11.9741 16.636C12.9303 16.2057 13.8028 15.7753 14.5559 15.3689C14.6395 15.3331 14.7233 15.3211 14.807 15.357C15.6556 15.6319 16.4086 15.8949 16.9225 16.0861C16.9584 16.0981 17.4127 16.3491 17.1617 16.7316C16.1218 17.4966 12.2609 20.0427 5.28026 21.5368L5.13683 21.5727C10.193 25.4814 17.4605 24.5491 21.3572 19.4928C24.5726 15.3331 24.5726 9.52375 21.3572 5.35203V5.37594ZM13.9821 14.1616L9.89413 12.9185C8.99765 12.6436 8.39999 12.4762 8.39999 12.4762H8.43589L7.86216 12.3089C7.6231 12.2252 7.32433 12.0579 7.32433 11.8786C7.32433 11.7471 7.57528 11.5797 7.70677 11.4841C8.12512 11.2092 8.54353 10.9342 9.54759 10.3605C9.63126 10.3246 9.71489 10.3127 9.81052 10.3366L14.5439 11.7829H14.5559C14.5559 11.7829 17.1737 12.524 17.4725 12.6675C17.855 12.8468 17.819 13.1097 17.819 13.1097V15.8829C17.819 15.4526 17.3888 15.3211 17.1737 15.2374C16.4445 14.9625 15.2491 14.58 13.9702 14.1736L13.9821 14.1616Z" fill="#9C9C9C"/>
</svg>
