<svg width="66" height="25" viewBox="0 0 66 25" fill="none" xmlns="http://www.w3.org/2000/svg">
<path d="M12.2617 0L0.0117188 0V12.2503H3.99243L6.13314 9.1859L8.281 12.2503H12.2617V0Z" fill="#9C9C9C"/>
<path d="M12.2541 12.25H8.27344L12.2541 17.942V12.25Z" fill="#9C9C9C"/>
<path d="M9.43629 20.327L6.12858 15.6016L2.82086 20.327C2.24094 21.1575 1.08825 21.358 0.257744 20.778C0.164669 20.7136 0.0787551 20.6348 0 20.5561L0 24.5082H12.2571V20.5561C12.1784 20.6348 12.0925 20.7136 11.9994 20.778C11.1689 21.358 10.0234 21.1575 9.43629 20.327Z" fill="#9C9C9C"/>
<path d="M0.0078125 12.25V17.942L3.98852 12.25H0.0078125Z" fill="#9C9C9C"/>
<path d="M47.1573 3.92969H44.9522V13.4593C44.2505 13.717 43.2339 13.9461 42.4463 13.9461V6.94392H44.0071V4.80317H34.2343V6.94392H35.7879V14.0535H33.9766V16.1943H41.0001C41.7805 16.1943 43.42 16.1227 44.9522 15.7002V20.039C44.9522 20.6476 45.4462 21.1416 46.0547 21.1416C46.6633 21.1416 47.1573 20.6476 47.1573 20.039V11.2183H49.6846V9.07752H47.1573V3.92969ZM40.234 14.0535H37.9931V6.94392H40.234V14.0535Z" fill="#9C9C9C"/>
<path d="M63.1268 12.2358C63.6136 10.6249 63.6924 8.69891 63.6924 7.87555V4.79688H51.8362V6.93763H61.4801V7.86839C61.4801 8.51992 61.4085 10.7895 60.7784 12.2358H50.2539V14.3766H56.7047V20.0327C56.7047 20.6413 57.1987 21.1353 57.8072 21.1353C58.4158 21.1353 58.9098 20.6413 58.9098 20.0327V14.3766H65.7901V12.2358H63.1125H63.1268Z" fill="#9C9C9C"/>
<path d="M26.2437 9.92969H24.017V12.2423H17.1367V14.3973H20.8096C20.3728 15.0632 20.1222 15.8293 20.1222 16.6598C20.1222 19.1371 22.3703 21.1489 25.1339 21.1489C27.8975 21.1489 30.1456 19.1371 30.1456 16.6598C30.1456 15.8364 29.895 15.0632 29.4583 14.3973H33.124V12.2423H26.2437V9.92969ZM26.437 18.6001C26.0504 18.7719 25.6065 18.865 25.1339 18.865C24.4753 18.865 23.8667 18.6717 23.3942 18.3567C22.7856 17.9486 22.399 17.3328 22.399 16.6455C22.399 15.4212 23.6304 14.4331 25.1411 14.4331C26.6518 14.4331 27.876 15.4283 27.876 16.6455C27.876 17.4832 27.2961 18.2206 26.4441 18.5929L26.437 18.6001Z" fill="#9C9C9C"/>
<path d="M25.1305 7.06629C26.8201 9.82994 29.7555 10.997 31.5311 11.2762V8.96361C30.2996 8.67722 27.1136 7.59611 26.2975 3.9375H23.9706C23.1544 7.60327 19.9469 8.68438 18.7227 8.96361V11.2762C20.4982 11.0041 23.4408 9.82994 25.1305 7.06629Z" fill="#9C9C9C"/>
</svg>
