<svg width="96" height="32" viewBox="0 0 96 32" fill="none" xmlns="http://www.w3.org/2000/svg">
<path d="M19.7474 23.3561C18.313 22.3042 16.2929 22.627 15.253 24.0853C15.0737 24.3363 14.751 24.6351 14.4641 24.7547C13.2688 25.2448 12.3364 24.7069 11.9539 24.2168C11.5117 23.655 11.3085 22.9856 11.3085 22.2564V6.80078L3.74219 11.8929V22.2445C3.74219 23.5235 4.00515 24.7427 4.51913 25.9022C5.03311 27.0736 5.73834 28.0897 6.64677 28.9622C7.54325 29.8348 8.58319 30.5401 9.76654 31.066C11.3802 31.7832 13.8425 32.1418 16.1734 31.2931C18.4803 30.3369 19.7593 28.9144 20.4884 27.8984C21.5284 26.4401 21.2056 24.3961 19.7713 23.3322" fill="#9C9C9C"/>
<path d="M41.4985 15.6482C41.4985 14.4529 42.4547 13.4846 43.6381 13.4846C44.8214 13.4846 45.7538 14.4409 45.7657 15.6243V15.6482V27.9362H52.6626V15.6482C52.6626 15.6482 52.6626 15.6243 52.6626 15.6123C52.6746 14.429 53.6309 13.4846 54.7903 13.4846C55.9498 13.4846 56.9299 14.4529 56.9299 15.6482V27.9123H63.8149V15.6482C63.8149 10.6039 59.7628 6.50391 54.7903 6.50391C52.6866 6.50391 50.7502 7.24501 49.2083 8.4762C47.6663 7.24501 45.7299 6.50391 43.6261 6.50391C38.6536 6.50391 34.6016 10.6039 34.6016 15.6482V27.9362H41.4865V15.6482H41.4985Z" fill="#9C9C9C"/>
<path d="M41.4865 27.4982C41.4865 29.4227 39.9446 30.9886 38.0441 30.9886C36.1435 30.9886 34.6016 29.4227 34.6016 27.4982C34.6016 25.5737 36.1435 24.0078 38.0441 24.0078C39.9446 24.0078 41.4865 25.5737 41.4865 27.4982Z" fill="#9C9C9C"/>
<path d="M52.6506 27.5412C52.6506 29.4656 51.1087 31.0315 49.2082 31.0315C47.3076 31.0315 45.7656 29.4656 45.7656 27.5412C45.7656 25.6167 47.3076 24.0508 49.2082 24.0508C51.1087 24.0508 52.6506 25.6167 52.6506 27.5412Z" fill="#9C9C9C"/>
<path d="M63.7951 27.5412C63.7951 29.4656 62.2532 31.0315 60.3526 31.0315C58.4521 31.0315 56.9102 29.4656 56.9102 27.5412C56.9102 25.6167 58.4521 24.0508 60.3526 24.0508C62.2532 24.0508 63.7951 25.6167 63.7951 27.5412Z" fill="#9C9C9C"/>
<path d="M94.0122 18.9606C94.0122 18.1478 93.8807 17.5143 93.044 16.558C92.4463 15.8647 91.2988 15.7213 90.7012 15.8886C89.5059 16.2233 89.0038 16.9644 88.5855 18.0761C88.1193 19.3312 87.7727 20.6461 86.9957 21.7577C85.6451 23.6942 83.4696 25.2361 81.2224 25.5708C79.7522 25.786 78.3417 25.6784 77.1583 25.26C76.5248 25.0329 76.0228 24.746 75.3773 24.3516C75.0546 24.1603 74.5526 23.73 74.2537 23.4192C73.2975 22.451 72.6879 21.3752 72.3293 20.0364C72.2337 19.642 72.162 19.1997 72.1261 18.7096C71.9946 16.9286 72.7716 14.5499 74.5167 13.4741C75.0785 13.1274 75.5447 12.9123 75.9272 12.8286C76.7759 12.6373 77.5648 12.6134 78.2581 12.7569C79.2621 12.972 80.0749 13.486 80.6128 14.251L80.6965 14.3586C80.816 14.526 80.9355 14.7411 81.0311 15.0041C81.2343 15.5659 81.2702 16.1755 81.1148 16.6536C81.0431 16.8808 80.9116 17.2035 80.6725 17.3948C80.5769 17.4784 80.3857 17.5741 80.1825 17.6099C80.063 17.6338 79.9673 17.6099 79.9075 17.5741C79.8119 17.5143 79.6805 17.323 79.6685 17.2154C79.5251 16.4504 79.2262 15.5061 78.1385 15.0399C77.6484 14.8367 77.1225 14.765 76.6085 14.8487C75.6045 14.9921 74.7438 15.6735 74.3494 16.6178C73.7637 18.0283 74.0983 19.4746 74.6123 20.3711C75.1382 21.3154 76.0945 22.6183 78.3417 23.2041C79.2979 23.4551 80.051 23.4551 80.9475 23.3236C81.9396 23.1802 83.4098 22.6662 84.641 21.3274C88.4659 17.1676 86.7805 12.6612 85.2984 10.7607C82.1308 6.31401 77.0388 6.69652 75.5567 6.91168C74.6363 7.04317 73.7517 7.29419 73.0106 7.61693C71.3014 8.36999 69.4725 9.99564 68.6836 11.1312C66.6755 14.0359 65.9464 17.4187 66.5919 20.9329C67.2134 24.3277 69.4605 27.6387 72.3054 29.372L72.413 29.4437C72.6999 29.611 72.9867 29.7903 73.2855 29.9457C75.3773 31.0454 77.6604 31.5594 80.0988 31.5116C80.6845 31.4997 81.2821 31.4519 81.8559 31.3682C81.9874 31.3443 82.1308 31.3204 82.2743 31.2965C83.864 31.0096 85.4418 30.4478 87.0794 29.5752C88.944 28.5831 90.6773 26.802 91.251 25.9414C92.2312 24.4592 92.7451 23.7181 93.3189 22.1163C93.6894 21.0764 94.0361 19.9886 94.0242 18.9606" fill="#9C9C9C"/>
<path d="M3.05131 16.8392C1.90381 16.7435 0.875831 15.9785 0.493332 14.7951C-0.00869651 13.2412 0.828027 11.5558 2.36997 11.0537C2.4656 11.0179 2.6449 10.9701 2.89591 10.9222C4.33028 10.6354 5.68097 9.60739 6.88823 7.8383C7.80862 6.48757 7.82055 9.41613 9.14734 10.3604C10.4741 11.2928 12.6137 9.89427 11.6934 11.245C9.57766 14.317 6.99582 16.1698 4.0195 16.7555C4.06731 16.7555 4.13903 16.7196 4.19879 16.6957C3.81629 16.8152 3.43378 16.8631 3.06324 16.8392" fill="#9C9C9C"/>
<path d="M10.5116 6.77719C9.90199 7.64979 9.10113 8.12792 8.71863 7.86495C8.34809 7.59002 8.53935 6.66961 9.14896 5.79702C9.75857 4.92443 10.5594 4.4463 10.9419 4.70927C11.3125 4.9842 11.1212 5.9046 10.5116 6.77719ZM16.1654 3.62152C15.4004 2.19907 14.0616 1.23085 12.4121 0.896158C10.2247 0.441932 7.97753 1.12327 6.54316 2.68916C4.42747 4.9842 3.99717 7.93667 3.60272 10.5544C3.57881 10.6859 3.56687 10.8174 3.54297 10.9489H6.07701V19.6629C7.11693 19.6748 8.02537 18.9935 8.25248 17.8938C8.44373 16.9734 8.41981 16.0052 8.38395 15.1087C10.2725 14.4632 12.4002 13.7101 14.1334 12.3355C16.4045 10.5425 18.0062 7.04017 16.1534 3.62152" fill="#9C9C9C"/>
<path d="M30.8466 4.27388C30.8466 6.16251 29.3404 7.68058 27.4877 7.68058C25.635 7.68058 24.1289 6.15056 24.1289 4.27388C24.1289 2.39721 25.635 0.867188 27.4877 0.867188C29.3404 0.867188 30.8466 2.39721 30.8466 4.27388Z" fill="#9C9C9C"/>
<path d="M95.1825 9.80904C95.1825 11.6977 93.6764 13.2157 91.8237 13.2157C89.9709 13.2157 88.4648 11.6857 88.4648 9.80904C88.4648 7.93237 89.9709 6.40234 91.8237 6.40234C93.6764 6.40234 95.1825 7.93237 95.1825 9.80904Z" fill="#9C9C9C"/>
<path d="M31.0581 12.6476C31.0581 11.6913 30.7354 10.8785 30.0779 10.1493C29.4325 9.44406 28.6794 9.10938 27.6873 9.10938C26.5159 9.10938 25.6195 9.45602 24.9381 10.1613C24.2449 10.8904 23.9102 11.6793 23.9102 12.6356V18.4688H31.0461V12.6356L31.0581 12.6476Z" fill="#9C9C9C"/>
<path d="M23.9258 27.4583C23.9258 28.4026 24.2604 29.2034 24.9537 29.9326C25.6351 30.6498 26.5316 30.9845 27.703 30.9845C28.6951 30.9845 29.4481 30.6617 30.0936 29.9445C30.751 29.2154 31.0737 28.4026 31.0737 27.4583V15.2539H23.9377V27.4583H23.9258Z" fill="#9C9C9C"/>
</svg>
