<svg width="113" height="28" viewBox="0 0 113 28" fill="none" xmlns="http://www.w3.org/2000/svg">
<path d="M45.6896 22.6688H33.4258V5.38431H37.4181V19.3099H45.6896V22.6688ZM61.396 21.2464C59.9735 22.2385 57.3439 22.9318 54.6664 22.9318C48.8213 22.9318 46.1678 19.8 46.1678 14.0027C46.1678 8.20529 49.1082 5.13329 54.6903 5.13329C57.1646 5.13329 59.8182 5.79072 61.3362 7.95427L58.85 10.2374C57.9057 9.04202 56.7701 8.4085 54.774 8.4085C51.1761 8.4085 50.0405 10.4884 50.0405 14.0266C50.0405 17.5648 51.2359 19.5609 54.8337 19.5609C55.9454 19.5609 57.1168 19.3338 57.7144 19.1067V16.0825H54.4632V12.8551H61.396V21.2344V21.2464ZM75.7875 19.6924C77.5326 19.6924 79.3614 19.286 80.6045 18.6644L81.4652 21.5452C79.9352 22.4537 77.676 22.9557 75.5245 22.9557C69.7512 22.9557 67.3725 19.6446 67.3725 14.0385C67.3725 8.4324 70.4683 5.12133 75.5723 5.12133C77.7956 5.12133 80.222 5.74291 81.7281 7.40442L79.6363 9.8429C78.704 8.88663 77.3414 8.16943 75.7277 8.16943C72.9904 8.16943 71.2214 10.0461 71.2214 13.9907C71.2214 17.3735 72.1776 19.6924 75.7994 19.6924H75.7875ZM98.6776 22.6688H91.96L87.0473 8.38459H86.5811V22.6688H82.9474V5.38431H89.6769L94.6494 19.4414H95.0797V5.38431H98.6776V22.6688ZM106.124 22.9557C104.116 22.9557 101.714 22.4058 99.9207 21.3779L101.236 18.4732C102.646 19.286 104.594 19.8837 106.1 19.8837C108.3 19.8837 109.125 19.1665 109.125 17.9712C109.125 17.0149 108.575 16.3455 107.188 15.963C106.328 15.7239 105.192 15.3414 104.164 14.9589C102.084 14.1461 100.184 12.628 100.184 10.0939C100.184 7.16535 102.311 5.10938 106.901 5.10938C108.646 5.10938 111.097 5.5636 112.722 6.51987L111.479 9.28109C110.332 8.61171 108.67 8.03795 106.973 8.03795C104.618 8.03795 103.925 8.85077 103.925 9.89071C103.925 11.3012 105.096 11.8511 107.236 12.4368C107.881 12.628 109.101 13.0105 109.734 13.2735C111.408 13.9907 112.902 14.9948 112.902 17.8038C112.902 20.7802 110.392 22.9318 106.112 22.9318L106.124 22.9557Z" fill="#9C9C9C"/>
<path d="M95.0777 19.4597H94.6474L89.6749 5.39062H82.9453V22.6751H86.579V8.40286H87.0572L91.9579 22.6751H98.6755V5.39062H95.0777V19.4597Z" fill="#9C9C9C"/>
<path d="M109.743 13.3086C109.098 13.0457 107.878 12.6632 107.245 12.4719C105.105 11.8743 103.934 11.3244 103.934 9.92586C103.934 8.87397 104.627 8.07309 106.982 8.07309C108.679 8.07309 110.341 8.64685 111.488 9.31624L112.731 6.55502C111.106 5.59876 108.655 5.14453 106.91 5.14453C102.308 5.14453 100.193 7.2005 100.193 10.1291C100.193 12.6512 102.105 14.1812 104.173 14.9941C105.201 15.3766 106.348 15.7591 107.197 15.9981C108.584 16.3807 109.134 17.05 109.134 18.0063C109.134 19.2016 108.297 19.9188 106.109 19.9188C104.603 19.9188 102.655 19.3212 101.245 18.5084L99.9297 21.413C101.723 22.441 104.125 22.9908 106.133 22.9908C110.424 22.9908 112.923 20.8392 112.923 17.8629C112.923 15.0538 111.417 14.0498 109.755 13.3326L109.743 13.3086Z" fill="#9C9C9C"/>
<path d="M75.7263 8.1731C77.3519 8.1731 78.7026 8.89029 79.6349 9.84656L81.7267 7.40808C80.2206 5.73462 77.7942 5.125 75.5709 5.125C70.4669 5.125 67.3711 8.17311 67.3711 14.0422C67.3711 19.9113 69.7498 22.9594 75.5231 22.9594C77.6627 22.9594 79.9338 22.4573 81.4638 21.5489L80.6031 18.6681C79.36 19.2897 77.5312 19.6961 75.7861 19.6961C72.1643 19.6961 71.208 17.3772 71.208 13.9944C71.208 10.0617 72.9771 8.1731 75.7143 8.1731H75.7263Z" fill="#9C9C9C"/>
<path d="M27.411 14.026C27.411 6.69862 21.4704 0.757812 14.1312 0.757812C6.792 0.757812 0.875234 6.68666 0.863281 14.0021V14.0499C0.875234 21.3654 6.81591 27.2942 14.1312 27.2942C21.4465 27.2942 27.411 21.3534 27.411 14.014V14.026ZM18.9722 18.7954V19.8353H13.6053V9.25663C13.3423 10.4639 12.2665 11.3724 10.9875 11.3724C9.50535 11.3724 8.31004 10.1651 8.31004 8.69482C8.31004 7.22456 9.50535 6.01728 10.9875 6.01728C12.3024 6.01728 13.3901 6.96159 13.6172 8.20474H15.1352V18.7954H18.9602H18.9722ZM14.1312 25.1306C11.1668 25.1306 8.38176 23.9831 6.27802 21.8793C4.18623 19.7756 3.02679 16.9904 3.02679 14.026C3.02679 7.90591 8.01122 2.90941 14.1312 2.90941C14.2627 2.90941 14.5256 2.90941 14.6691 2.90941V3.94936C14.5376 3.94936 14.2507 3.94936 14.1312 3.94936C11.4417 3.94936 8.91965 5.00124 7.00716 6.90182C5.10662 8.8024 4.05475 11.3365 4.05475 14.026C4.05475 16.7155 5.10662 19.2496 7.00716 21.1502C8.9077 23.0508 11.4417 24.1027 14.1312 24.1027C19.4623 24.1027 23.8371 19.9429 24.1837 14.7073V14.552H17.3107V13.512H25.2475V14.014C25.2475 16.9785 24.0881 19.7756 21.9963 21.8674C19.8926 23.9712 17.1075 25.1187 14.1312 25.1187V25.1306Z" fill="#9C9C9C"/>
<path d="M54.4634 16.0743H57.7146V19.0984C57.117 19.3256 55.9456 19.5527 54.8339 19.5527C51.2361 19.5527 50.0408 17.7238 50.0408 14.0183C50.0408 10.3127 51.1763 8.40021 54.7742 8.40021C56.7703 8.40021 57.9059 9.02178 58.8502 10.2291L61.3364 7.94599C59.8184 5.78243 57.1767 5.125 54.6905 5.125C49.0965 5.125 46.168 8.1731 46.168 13.9944C46.168 19.8156 48.8216 22.9235 54.6666 22.9235C57.3441 22.9235 59.9738 22.2422 61.3962 21.2381V12.8588H54.4634V16.0862V16.0743Z" fill="#9C9C9C"/>
<path d="M37.4181 5.39062H33.4258V22.6751H45.6896V19.3163H37.4181V5.39062Z" fill="#9C9C9C"/>
</svg>
