<svg width="125" height="23" viewBox="0 0 125 23" fill="none" xmlns="http://www.w3.org/2000/svg">
<path d="M33.9406 10.4663V8.49404H38.0525V0.4375C39.0924 0.4375 40.0606 0.4375 41.0288 0.449454C41.1483 0.449454 41.3156 0.640706 41.3634 0.784146C41.4232 0.951493 41.3874 1.1547 41.3874 1.334V22.6826H38.0644V16.8733C35.2793 17.6144 32.5182 17.1363 29.7809 17.2678C29.255 17.2917 28.7291 17.2678 28.1912 17.2678C26.972 17.2678 26.4102 16.706 26.4102 15.4628C26.4102 11.6497 26.4102 7.83661 26.4102 4.0235V2.17073H35.889V3.67685H33.4864C32.4823 3.67685 31.4783 3.6888 30.4742 3.67685C30.008 3.67685 29.8168 3.80834 29.8168 4.31038C29.8287 7.75293 29.8168 11.1955 29.8168 14.6381C29.8168 15.2955 30.1156 15.7138 30.8089 15.7138C32.6377 15.7138 34.4546 15.678 36.2834 15.6541C36.4388 15.6541 36.6061 15.6302 36.7615 15.5943C38.0644 15.3672 38.0763 15.3553 38.0763 14.0404V10.4663H33.9526H33.9406Z" fill="#9C9C9C"/>
<path d="M20.2541 10.0032C17.995 10.0032 15.8793 10.0271 13.7636 9.99125C13.142 9.99125 12.8552 10.1108 12.891 10.816C12.9628 12.5014 12.6878 12.2385 14.3135 12.2504C16.6204 12.2624 18.9154 12.2504 21.2223 12.2504H22.1188V13.7685H0.316406V12.2504H9.41269V10.0032H8.25324C6.79497 10.0032 5.3367 10.0152 3.89038 10.0032C2.76679 9.97929 2.18109 9.38163 2.16914 8.26997C2.14523 7.08659 2.16914 5.90321 2.16914 4.6003H3.17319C7.33286 4.6003 11.4806 4.57639 15.6402 4.6242C16.4172 4.6242 16.6921 4.38514 16.5965 3.63208C16.5487 3.24957 16.5965 2.85511 16.5965 2.40089H2.24085V0.882812H19.9792V6.20204H5.59966C5.59966 6.63236 5.59966 6.96706 5.59966 7.30175C5.62357 8.16239 5.88653 8.42536 6.77106 8.42536C10.0821 8.42536 13.3931 8.42536 16.7041 8.42536H20.29V10.0152L20.2541 10.0032Z" fill="#9C9C9C"/>
<path d="M46.7117 0.476562H43.4844V22.6858H46.7117V0.476562Z" fill="#9C9C9C"/>
<path d="M122.671 11.255C121.823 12.7372 121.775 12.7731 120.292 12.283C117.579 11.3865 115.236 9.89234 113.324 7.76464C113.168 7.58534 113.001 7.418 112.846 7.25065C112.045 8.07543 111.304 8.92412 110.467 9.66522C109.021 10.9442 107.347 11.8407 105.495 12.3786C104.132 12.7731 104.012 12.7133 103.379 11.3387C107.909 9.4142 111.352 6.68884 110.957 1.04688H114.579C114.579 1.40547 114.603 1.74017 114.579 2.07486C114.388 4.31013 115.356 6.06727 116.838 7.6212C118.464 9.31858 120.376 10.5378 122.683 11.267" fill="#9C9C9C"/>
<path d="M11.0614 18.2805C8.94566 20.4202 6.42356 21.8068 3.59069 22.6435C2.13241 23.0738 2.09656 23.038 1.35547 21.6155C2.18023 21.2928 3.04084 21.0298 3.82974 20.6473C6.2084 19.4759 8.14481 17.8861 9.06519 15.2803C9.12496 15.1129 9.38793 14.9217 9.55527 14.9097C10.5832 14.8738 11.6232 14.8738 12.6511 14.9097C12.8065 14.9097 13.0456 15.089 13.0934 15.2324C14.4202 18.7348 17.2052 20.468 20.5999 21.484C20.6716 21.5079 20.7314 21.5438 20.8031 21.5797C20.2293 23.0021 20.062 23.0977 18.6276 22.6674C15.9263 21.8546 13.4759 20.5995 11.4439 18.6033C11.3363 18.4957 11.2048 18.4001 11.0614 18.2925" fill="#9C9C9C"/>
<path d="M72.3861 0.46875H69.2305V13.0915H72.3861V0.46875Z" fill="#9C9C9C"/>
<path d="M101.861 18.3352C101.813 18.2396 101.777 18.1917 101.777 18.1439C101.69 17.2355 102.1 16.7812 103.008 16.7812C109.786 16.7812 116.563 16.7812 123.341 16.7812C123.675 16.7812 124.01 16.8052 124.38 16.8291V18.3352H101.873H101.861Z" fill="#9C9C9C"/>
<path d="M86.144 14.8169C84.6858 14.781 83.2394 14.8049 81.7812 14.8169C81.3509 14.8169 81.0281 14.6973 81.0281 14.2192C81.0281 12.235 81.0281 10.2627 81.0281 8.15888H85.0324C86.1958 8.15888 86.7775 8.74061 86.7775 9.90406C86.7775 11.3026 86.7656 12.7131 86.7775 14.1116C86.7775 14.5898 86.6939 14.8408 86.1321 14.8288M97.4516 0.83149C97.4038 0.68805 97.2365 0.484844 97.1289 0.484844C96.1846 0.460937 95.2523 0.460938 94.2841 0.460938C94.2841 2.60058 94.2721 4.60874 94.296 6.62885C94.296 7.19066 94.1167 7.38191 93.5669 7.34605C93.017 7.31019 92.4553 7.34605 91.8935 7.34605C90.6025 7.34605 89.9571 6.69659 89.9571 5.39766V1.0586H86.7417V6.44955H80.9923V1.04665H77.8008V1.82362C77.8008 5.94751 77.8008 10.0834 77.8008 14.2073C77.8008 15.7971 78.4343 16.4186 80.0121 16.4186C83.0362 16.4186 86.0484 16.4186 89.0606 16.4186C89.3355 16.4186 89.6224 16.3947 89.981 16.3708V9.04343H94.296V22.6941H97.4995V21.9411C97.4995 15.0799 97.4995 8.2306 97.4995 1.36939C97.4995 1.17814 97.5353 0.986883 97.4756 0.819536" fill="#9C9C9C"/>
<path d="M58.2521 10.2663C57.2839 10.2663 56.4353 10.3141 55.5986 10.2305C55.3475 10.2066 54.9411 9.81211 54.9292 9.57304C54.8814 7.45731 54.9053 5.35352 54.8933 3.23778C54.8933 2.81941 55.0965 2.68793 55.479 2.69988C56.2201 2.71183 56.9612 2.67597 57.6903 2.72379C57.8816 2.73574 58.2163 3.02262 58.2163 3.17801C58.2521 5.49696 58.2402 7.81591 58.2402 10.2544M63.9179 0.476562V5.1025C63.3441 5.1025 62.8421 5.06664 62.3401 5.1025C61.7066 5.16227 61.5034 4.9232 61.5273 4.30163C61.5751 3.24973 61.5273 2.2098 61.5273 1.134H51.678C51.6421 1.24158 51.5823 1.3133 51.5823 1.38502C51.5823 4.24186 51.5465 7.09871 51.5823 9.9675C51.6062 11.2107 52.3234 11.8322 53.5785 11.8561C54.977 11.88 56.3874 11.8561 57.786 11.8561H61.5153V10.9238C61.5153 9.72844 61.4914 8.54506 61.5392 7.34973C61.5392 7.13457 61.7664 6.76401 61.9217 6.74011C62.5672 6.66839 63.2127 6.7162 63.9418 6.7162V7.69637C63.9418 9.28617 63.9298 10.876 63.9657 12.4657C63.9657 12.6809 64.2287 13.0754 64.396 13.0873C65.2806 13.1471 66.189 13.1232 67.1452 13.1232V0.476562H63.894H63.9179Z" fill="#9C9C9C"/>
<path d="M69.0178 21.2716C68.7907 21.2955 68.5635 21.3314 68.3364 21.3314C65.6111 21.3314 62.8978 21.3314 60.1725 21.3314C59.0847 21.3314 58.8696 21.1162 58.8696 20.0404C58.8696 18.7255 58.8696 17.4107 58.8696 16.0719H69.0178V21.2716ZM72.0299 14.4104C66.7347 14.4104 61.4395 14.4104 56.1443 14.3984C55.6064 14.3984 55.5586 14.6853 55.5586 15.1037C55.5586 16.9325 55.5586 18.7614 55.5586 20.5783C55.5586 22.443 56.0606 22.9331 57.9134 22.9451C62.4914 22.9451 67.0694 22.9451 71.6474 22.9451C71.8984 22.9451 72.1495 22.9092 72.4005 22.8973V14.4941C72.2212 14.4582 72.1255 14.4104 72.018 14.4104" fill="#9C9C9C"/>
</svg>
