<svg width="131" height="26" viewBox="0 0 131 26" fill="none" xmlns="http://www.w3.org/2000/svg">
<path d="M77.4027 7.67319C74.2829 7.67319 72.3465 10.0758 72.3465 12.9805C72.3465 15.8851 74.2829 18.3595 77.4027 18.3595C80.5224 18.3595 82.4349 15.909 82.4349 12.9805C82.4349 10.0519 80.5941 7.67319 77.4027 7.67319ZM77.4027 22.1487C71.8564 22.1487 68.0195 18.1802 68.0195 12.9685C68.0195 7.75686 71.8564 3.82422 77.4027 3.82422C82.9489 3.82422 86.7619 7.78077 86.7619 12.9685C86.7619 18.1563 83.0804 22.1487 77.4027 22.1487Z" fill="#9C9C9C"/>
<path d="M59.2394 11.7733H57.9962C57.53 11.7733 57.1476 11.3908 57.1476 10.9246V8.10366C57.1476 7.63748 57.53 7.25498 57.9962 7.25498H59.2154C61.3789 7.25498 62.1439 8.13952 62.1439 9.34681C62.1439 10.829 61.4029 11.7853 59.2394 11.7853M59.825 4.01562H53.6572C53.191 4.01562 52.8086 4.39813 52.8086 4.86431V18.4911C52.8086 18.9573 53.0835 19.6147 53.4062 19.9494L54.7211 21.2643C55.0557 21.599 55.7012 21.8619 56.1674 21.8619H56.2869C56.7531 21.8619 57.1356 21.4794 57.1356 21.0133V16.0407C57.1356 15.5745 57.5181 15.192 57.9842 15.192H60.0999C63.5663 15.192 66.4709 12.7176 66.4709 9.33486C66.4709 6.33457 64.2596 4.01562 59.8131 4.01562" fill="#9C9C9C"/>
<path d="M90.3447 3.97656C89.8785 3.97656 89.4961 4.35907 89.4961 4.82525V18.464C89.4961 18.9302 89.771 19.5876 90.0937 19.9223L91.3966 21.2252C91.7313 21.5599 92.3887 21.8229 92.8549 21.8229H92.9864C93.4525 21.8229 93.835 21.4404 93.835 20.9742V4.82525C93.835 4.35907 93.4525 3.97656 92.9864 3.97656H90.3447Z" fill="#9C9C9C"/>
<path d="M110.452 3.99995C109.985 3.99995 109.603 4.38245 109.603 4.84863V12.6661C109.603 13.1323 109.316 13.2638 108.958 12.9649C108.958 12.9649 98.9647 4.3705 98.6181 4.05971C98.2595 3.74893 97.9727 3.89237 97.9727 4.35855V18.4874C97.9727 18.9536 98.2356 19.611 98.5703 19.9457L99.8852 21.2606C100.22 21.5952 100.865 21.8582 101.343 21.8582H101.475C101.953 21.8582 102.324 21.4757 102.324 21.0095V13.1442C102.324 12.6781 102.61 12.5466 102.969 12.8574C103.328 13.1681 112.938 21.4279 113.285 21.7387C113.631 22.0495 113.93 21.918 113.93 21.4518V4.87254C113.93 4.40636 113.547 4.02385 113.081 4.02385H110.452V3.99995Z" fill="#9C9C9C"/>
<path d="M116.903 4C116.437 4 116.055 4.38251 116.055 4.84869V6.39067C116.055 6.85685 116.437 7.23935 116.903 7.23935H120.262C120.728 7.23935 121.111 7.62186 121.111 8.08804V18.4755C121.111 18.9417 121.386 19.5991 121.72 19.9338L123.035 21.2487C123.37 21.5833 124.015 21.8463 124.482 21.8463H124.589C125.055 21.8463 125.438 21.4638 125.438 20.9976V8.08804C125.438 7.62186 125.82 7.23935 126.286 7.23935H129.657C130.123 7.23935 130.506 6.85685 130.506 6.39067V4.84869C130.506 4.38251 130.123 4 129.657 4H116.891H116.903Z" fill="#9C9C9C"/>
<path d="M37.0545 18.2759C36.5884 18.2759 36.2059 17.8934 36.2059 17.4273V4.86431C36.2059 4.39813 35.8234 4.01562 35.3572 4.01562H32.7275C32.2614 4.01562 31.8789 4.39813 31.8789 4.86431V18.4911C31.8789 18.9573 32.1538 19.6147 32.4766 19.9494L33.7914 21.2643C34.1261 21.599 34.7715 21.8619 35.2377 21.8619H44.334C44.8002 21.8619 45.1827 21.4794 45.1827 21.0133V19.1246C45.1827 18.6585 44.8002 18.2759 44.334 18.2759H37.0545Z" fill="#9C9C9C"/>
<path d="M48.7692 21.8631C48.5182 21.8631 48.3389 21.8033 48.2074 21.7436C48.1715 21.7316 47.7891 21.5523 47.5739 21.4686L47.4424 21.4089C47.2989 21.3372 47.1914 21.1818 47.1914 21.0264V19.1617C47.1914 19.0302 47.2631 18.9226 47.3826 18.8628C47.3826 18.8628 48.3389 18.4086 48.4106 18.3727C48.5181 18.313 48.6497 18.2891 48.7812 18.2891C48.9127 18.2891 49.0441 18.313 49.1517 18.3727C49.2234 18.4086 50.1677 18.8628 50.1797 18.8628C50.2992 18.9226 50.3709 19.0302 50.3709 19.1617V21.0264C50.3709 21.1818 50.2634 21.3372 50.1199 21.4089L50.0362 21.4447C49.845 21.5284 49.4027 21.7316 49.3549 21.7436C49.2115 21.8033 49.0441 21.8631 48.7931 21.8631" fill="#9C9C9C"/>
<path d="M20.3253 19.417C20.3253 19.7875 20.0384 20.2417 19.6918 20.3971C19.644 20.421 14.8508 22.5607 14.4803 22.728C13.3567 23.2181 12.4363 23.4213 11.3366 23.4213C10.2369 23.4213 9.31654 23.2181 8.181 22.728C7.81045 22.5607 3.01729 20.421 2.96948 20.3971C2.62284 20.2417 2.33593 19.7875 2.33593 19.417V7.368C2.33593 7.12894 2.45547 6.97354 2.64672 6.97354C2.70649 6.97354 2.79015 6.99745 2.86187 7.02136L9.20894 9.85429C9.74683 10.0934 10.4162 10.3324 11.3366 10.3324C12.257 10.3324 12.9263 10.0934 13.4642 9.85429L19.8113 7.02136C19.883 6.9855 19.9547 6.97354 20.0265 6.97354C20.2177 6.97354 20.3373 7.12894 20.3373 7.368V19.417H20.3253ZM20.8154 4.69046C20.8154 4.69046 14.3249 1.57064 13.8467 1.33157C13.0937 0.96102 12.2211 0.757812 11.3127 0.757812C10.4043 0.757812 9.56758 0.949066 8.80258 1.33157C8.33641 1.55869 1.88173 4.66655 1.83392 4.69046C0.997206 5.09687 0.542969 5.82602 0.542969 6.75838V19.417C0.542969 20.4928 1.26021 21.5925 2.24036 22.0347C2.24036 22.0347 7.20081 24.2461 7.47573 24.3776C8.43198 24.784 9.63929 25.2143 11.3366 25.2143C13.034 25.2143 14.2412 24.796 15.1974 24.3776C15.4963 24.2461 20.4329 22.0347 20.4329 22.0347C21.413 21.5925 22.1302 20.4928 22.1302 19.417V6.75838C22.1302 5.82602 21.676 5.09687 20.8274 4.69046" fill="#9C9C9C"/>
<path d="M11.2583 21.1397C8.93944 21.1397 6.75201 20.2432 5.11444 18.6295C4.7439 18.2589 4.73194 17.6493 5.11444 17.2668C5.48499 16.8962 6.09461 16.8843 6.47711 17.2668C7.75609 18.5338 9.46539 19.2271 11.2703 19.2271C13.0752 19.2271 14.7845 18.5338 16.0754 17.2668C16.4579 16.8962 17.0675 16.8962 17.4381 17.2668C17.8086 17.6493 17.8086 18.247 17.4381 18.6295C15.7885 20.2432 13.6131 21.1397 11.2942 21.1397" fill="#9C9C9C"/>
</svg>
