<svg width="129" height="20" viewBox="0 0 129 20" fill="none" xmlns="http://www.w3.org/2000/svg">
<path d="M76.7694 12.9764H69.1792V5.95981H76.7694V12.9764ZM66.2148 3.03125V13.4306C66.2148 14.7933 67.3265 15.905 68.6891 15.905H79.674V3.03125H66.2268H66.2148Z" fill="#9C9C9C"/>
<path d="M100.342 15.905H89.5368C88.1741 15.905 87.0625 14.7933 87.0625 13.4306V3.03125H100.354V5.92395H90.0627V12.9405H100.354V15.9169L100.342 15.905Z" fill="#9C9C9C"/>
<path d="M85.587 3.01953H82.7422V17.0169H85.587V3.01953Z" fill="#9C9C9C"/>
<path d="M106.142 3.01953H103.297V17.0169H106.142V3.01953Z" fill="#9C9C9C"/>
<path d="M115.122 13.1636C112.791 13.1636 110.89 11.5021 110.89 9.45809C110.89 7.41407 112.779 5.7645 115.122 5.7645C117.453 5.7645 119.353 7.41407 119.353 9.45809C119.353 11.5021 117.465 13.1636 115.122 13.1636ZM115.014 2.83594C110.986 2.83594 107.711 5.80037 107.711 9.45809C107.711 13.1158 110.986 16.0802 115.014 16.0802C119.054 16.0802 122.318 13.1158 122.318 9.45809C122.318 5.80037 119.054 2.83594 115.014 2.83594Z" fill="#9C9C9C"/>
<path d="M125.383 3.01953V7.93235H121.402V10.8251H125.383V10.9207V17.0169H128.228V3.01953H125.383Z" fill="#9C9C9C"/>
<path d="M8.64284 3.01953L3.33568 9.67753V3.01953H0.359375V17.0169H3.33568V9.82097L8.53527 17.0169H12.7666L6.99331 9.74925L12.5634 3.01953H8.64284Z" fill="#9C9C9C"/>
<path d="M33.9446 8.49024C34.8052 8.49024 38.4987 9.05206 38.4987 12.7098C38.4987 16.5827 34.7813 17.001 34.7813 17.001H26.0914V14.7299H33.0839C35.116 14.7299 35.0921 12.7934 35.0921 12.7934C35.0921 10.6777 32.6895 10.7614 32.6895 10.7614H30.012C28.7808 10.7614 25.6133 10.3191 25.6133 7.0439C25.6133 3.11125 29.5458 3.01562 29.5458 3.01562H37.5066V5.2509H30.9683C28.8526 5.2509 28.8884 6.8885 28.8884 6.8885C28.8884 6.8885 28.9004 8.49024 30.7411 8.49024H33.9565H33.9446Z" fill="#9C9C9C"/>
<path d="M19.3783 14.7262H15.8641V10.7936H20.1911C20.1911 10.7936 22.3785 10.8772 22.3785 12.73C22.3785 14.5947 20.741 14.7143 19.3664 14.7143M15.8522 5.27113H19.7011C19.7011 5.27113 21.7929 5.17551 21.7929 6.90874C21.7929 8.40291 20.478 8.49854 20.0477 8.5344H15.8522V5.27113ZM21.4462 16.9854C23.5499 16.9854 25.4624 15.4434 25.4624 13.0767C25.4624 10.3752 23.4663 9.53847 23.4663 9.53847C23.4663 9.53847 25.056 8.98862 24.9006 6.57405C24.6855 3.05977 20.7171 3 20.7171 3H13.0312V16.9734C13.0312 16.9734 19.6771 16.9734 21.4462 16.9734" fill="#9C9C9C"/>
<path d="M61.0881 9.91431C61.0881 9.91431 61.0642 9.91431 61.0523 9.87845C61.0523 9.8665 61.0523 9.85455 61.0523 9.83065C60.8012 8.83852 60.2873 7.97788 59.5701 7.27264C57.5142 5.22862 53.7967 4.41578 49.8642 5.3601C49.5653 5.43182 49.2665 5.5155 48.9797 5.61112C48.3581 5.81433 47.7605 6.05339 47.1987 6.31637C47.3182 6.54348 47.4616 6.74669 47.629 6.93794C48.8004 6.38809 50.1152 5.98166 51.4898 5.80236C52.4102 5.68283 53.3186 5.65894 54.1792 5.74261C56.5101 5.95777 58.5302 6.86622 59.7733 8.24085C60.5622 9.1254 61.0403 10.2012 61.0523 11.3965V11.4922C61.0523 11.4922 61.0523 11.5519 61.0523 11.5758C61.0523 11.6236 61.0164 11.6236 60.9925 11.6236C60.9806 11.6236 60.9567 11.6117 60.9567 11.5997C60.9567 11.5758 60.9567 11.54 60.9567 11.5161C60.8252 10.5598 60.4426 9.69916 59.845 8.97001C59.068 8.00179 57.9325 7.27263 56.5699 6.8184C54.9442 6.2805 52.972 6.16098 50.8683 6.56739C49.9001 6.74669 48.9797 7.03357 48.119 7.38021C48.3461 7.57147 48.5971 7.73881 48.8601 7.88225C49.8283 7.45193 50.928 7.15311 52.1233 7.03357C54.49 6.79451 56.7133 7.28458 58.3031 8.28866C58.9127 8.67117 59.4386 9.1254 59.8331 9.63939C60.3829 10.3446 60.6937 11.1694 60.7056 12.0659C60.7056 12.568 60.6339 13.058 60.4666 13.5242C60.4666 13.5362 60.4546 13.5601 60.4546 13.572C60.4427 13.5959 60.4187 13.6079 60.4068 13.5959C60.3948 13.5959 60.3829 13.572 60.3829 13.5481C60.3829 13.5362 60.3829 13.5123 60.3829 13.5003C60.4666 13.1298 60.4905 12.7353 60.4666 12.3408C60.4068 11.6117 60.1438 10.9423 59.7374 10.3446C59.6418 10.2131 59.5581 10.0936 59.4506 9.97408C57.9206 8.19304 54.8964 7.26067 51.705 7.85834C51.1073 7.95396 50.5216 8.09741 49.9837 8.27671C50.4857 8.38429 51.0117 8.4082 51.5496 8.33648C51.5496 8.33648 52.4221 8.21694 52.7807 8.14522C52.8524 8.14522 52.96 8.12131 53.0078 8.12131H53.0318C53.5457 8.0735 55.1235 7.97788 56.785 8.57555C56.785 8.57555 58.6497 9.20908 59.4506 10.6196C59.4506 10.6196 59.6298 10.8825 59.3669 11.2411C59.1159 11.5519 58.8529 11.8508 58.5541 12.1376C58.2672 12.4006 57.7652 12.7473 57.7652 12.7473C57.311 13.058 56.8328 13.333 56.3189 13.584C56.3189 13.584 56.2471 13.6079 56.2113 13.6318C56.2352 13.6677 56.2471 13.7035 56.271 13.7394C56.3308 13.8589 56.3905 13.9904 56.4384 14.1219C55.5897 14.5283 54.6574 14.863 53.6772 15.1021C49.8761 16.0583 46.2663 15.3889 44.1626 13.5242C43.1705 12.6516 42.5011 11.5041 42.3099 10.1534C42.3099 10.1295 42.3099 10.1056 42.3099 10.0817C42.3099 10.0458 42.3218 10.0339 42.3338 10.0339C42.3457 10.0339 42.3577 10.0339 42.3696 10.0697C42.3696 10.0817 42.3696 10.0936 42.3696 10.1175C42.6206 11.1096 43.1346 11.9703 43.8518 12.6755C45.9077 14.7195 49.6251 15.5324 53.5577 14.5761C53.8565 14.5044 54.1434 14.4207 54.4303 14.3251C55.0518 14.1219 55.6495 13.8948 56.2113 13.6199C56.0918 13.3927 55.9483 13.1895 55.781 12.9983C54.6096 13.5481 53.2947 13.9545 51.9201 14.1338C50.9997 14.2534 50.0913 14.2773 49.2307 14.1936C46.8998 13.9784 44.8798 13.07 43.6486 11.6954C42.8597 10.8108 42.3816 9.73502 42.3696 8.53969V8.44406C42.3696 8.44406 42.3696 8.3843 42.3696 8.36039C42.3696 8.31258 42.4055 8.31257 42.4294 8.31257C42.4413 8.31257 42.4653 8.32453 42.4653 8.33648C42.4653 8.36039 42.4653 8.39624 42.4653 8.42015C42.5967 9.37641 42.9792 10.2371 43.5769 10.9662C44.3538 11.9225 45.4894 12.6636 46.852 13.1178C48.4896 13.6557 50.4499 13.7752 52.5536 13.3688C53.5218 13.1895 54.4542 12.9146 55.3028 12.556C55.0757 12.3648 54.8247 12.1855 54.5618 12.054C53.5936 12.4843 52.4939 12.7831 51.2986 12.9026C48.9318 13.1417 46.7086 12.6516 45.1188 11.6595C44.5092 11.277 43.9833 10.8228 43.5888 10.2968C43.039 9.59158 42.7282 8.7668 42.7163 7.8703C42.7163 7.36826 42.788 6.87818 42.9553 6.412C42.9553 6.40004 42.9553 6.37613 42.9673 6.36417C42.9792 6.34027 42.9912 6.32833 43.0151 6.34028C43.027 6.34028 43.039 6.36418 43.039 6.38808C43.039 6.40004 43.039 6.42395 43.039 6.43591C42.9553 6.81841 42.9314 7.2009 42.9553 7.59536C43.0151 8.32452 43.278 8.99391 43.6845 9.57962C43.7681 9.71111 43.8637 9.83064 43.9713 9.95017C45.5013 11.7312 48.5254 12.6516 51.7169 12.0659C52.3265 11.9703 52.9003 11.8269 53.4382 11.6595C52.9361 11.5519 52.4102 11.528 51.8723 11.5997C51.8723 11.5997 50.9997 11.7193 50.6411 11.791C50.5694 11.791 50.4618 11.8149 50.4021 11.8269H50.3782C49.8642 11.8747 48.2864 11.9703 46.6249 11.3726C46.6249 11.3726 44.7722 10.7391 43.9594 9.32861C43.9594 9.32861 43.7801 9.06563 44.043 8.70703C44.294 8.39625 44.557 8.09741 44.8559 7.81053C45.1427 7.54756 45.6328 7.20092 45.6328 7.20092C46.087 6.89013 46.5651 6.61519 47.0791 6.36417C47.0791 6.36417 47.1508 6.34027 47.1867 6.31637C47.1747 6.28051 47.1509 6.24465 47.1269 6.20879C47.0672 6.08926 47.0074 5.95776 46.9596 5.82628C47.8202 5.41986 48.7406 5.08517 49.7207 4.8461C53.5218 3.88984 57.1317 4.55922 59.2354 6.42394C60.2275 7.29654 60.8969 8.44406 61.0881 9.79479C61.0881 9.8187 61.0881 9.8426 61.0881 9.86651C61.0881 9.90237 61.0762 9.90236 61.0642 9.91431M56.6057 15.5443C55.7092 15.9508 54.7649 16.2854 53.7489 16.5365C50.5096 17.3373 47.5931 16.9429 45.5013 15.7475C44.043 14.9108 42.9912 13.6916 42.4772 12.2213C42.4772 12.1974 42.4652 12.1855 42.4533 12.1615C42.4294 12.0898 42.4533 12.0659 42.4891 12.054C42.5011 12.054 42.525 12.054 42.537 12.0779C42.537 12.0898 42.537 12.1137 42.5609 12.1257C43.0151 13.2254 43.804 14.1697 44.82 14.8988C46.9596 16.405 50.163 16.9668 53.7609 16.0225C54.753 15.7475 55.6973 15.4009 56.5699 14.9825C56.5699 15.0184 56.5699 15.0542 56.5818 15.0901C56.5938 15.2455 56.6057 15.3889 56.6057 15.5443ZM56.1993 17.17C55.4224 17.5286 54.5618 17.8155 53.5936 17.9948C52.1472 18.2817 50.7368 18.3295 49.4458 18.1621C46.5891 17.7796 44.2821 16.3572 43.1824 14.1817C43.1824 14.1697 43.1585 14.1458 43.1585 14.1219C43.1585 14.098 43.1585 14.0741 43.1705 14.0621C43.1824 14.0621 43.2183 14.0621 43.2422 14.086C43.2422 14.098 43.2661 14.1219 43.2781 14.1458C44.1745 15.5563 45.6089 16.6201 47.3541 17.2298C49.1231 17.8513 51.2268 18.0187 53.4262 17.6242C54.5378 17.433 55.53 17.1102 56.3906 16.6799C56.3308 16.8472 56.271 17.0146 56.1874 17.17M46.7205 4.47555C47.6051 4.06914 48.5613 3.73444 49.5653 3.48342C52.8046 2.68255 55.7212 3.07702 57.813 4.27235C59.2713 5.10908 60.3351 6.32833 60.8371 7.79859C60.8371 7.82249 60.8491 7.83443 60.861 7.85834C60.8849 7.94201 60.861 7.96593 60.8252 7.96593C60.8132 7.96593 60.7893 7.96593 60.7893 7.94202C60.7893 7.93007 60.7774 7.90615 60.7654 7.8942C60.3112 6.79449 59.5342 5.85019 58.5063 5.12103C56.3667 3.60296 53.1632 3.0531 49.5653 3.99742C48.5732 4.27234 47.629 4.61899 46.7564 5.03736C46.7564 5.0015 46.7564 4.96564 46.7444 4.92978C46.7325 4.77438 46.7205 4.63095 46.7325 4.47555M47.1389 2.8499C47.9158 2.4913 48.7765 2.20442 49.7447 2.02512C51.191 1.73824 52.6015 1.69042 53.8924 1.85777C56.7492 2.24028 59.0561 3.66273 60.1558 5.83824C60.1558 5.85019 60.1797 5.87409 60.1797 5.88605C60.1797 5.90995 60.1797 5.93386 60.1677 5.94582C60.1438 5.94582 60.1199 5.94581 60.096 5.9219C60.096 5.898 60.0721 5.88604 60.0602 5.86213C59.1637 4.46359 57.7293 3.3878 55.9842 2.77818C54.2151 2.15661 52.1114 1.98926 49.912 2.38372C48.8004 2.57497 47.8083 2.89771 46.9477 3.32803C47.0074 3.16069 47.0672 3.00529 47.1508 2.83794M61.2196 9.71111C61.2076 9.34055 61.1718 8.97001 61.112 8.59946C61.0522 8.19304 60.9566 7.79857 60.8371 7.39216C60.61 6.60324 60.2634 5.82628 59.8211 5.07322C58.5541 2.94553 56.6775 1.48722 54.7172 0.889554C54.7172 0.889554 50.2587 -0.592662 47.8441 1.85777C47.7963 1.90558 47.7604 1.9534 47.7126 2.00121C46.1587 2.55107 44.82 3.48343 43.8518 4.66681C43.1107 5.57526 42.5848 6.6391 42.3457 7.78662C42.3218 7.88225 42.274 8.16912 42.274 8.19303C42.0947 9.28078 42.1425 10.1773 42.1425 10.1773C42.1425 10.1773 42.1425 10.2371 42.1425 10.2729C42.1664 11.0499 42.2859 11.8508 42.525 12.6516C42.7521 13.4286 43.0988 14.2056 43.541 14.9586C44.808 17.0863 46.6847 18.5446 48.645 19.1423C48.645 19.1423 53.1035 20.6245 55.518 18.1741C55.5658 18.1263 55.6017 18.0784 55.6495 18.0306C57.2034 17.4808 58.5421 16.5484 59.5103 15.365C59.9526 14.8152 60.3231 14.2175 60.598 13.584C61.1957 12.2333 61.2674 10.7511 61.2316 9.72307" fill="#9C9C9C"/>
</svg>
