<svg width="135" height="43" viewBox="0 0 135 43" fill="none" xmlns="http://www.w3.org/2000/svg">
<path d="M105.4 23.2523V20.6226L95.1797 8.28672C94.4267 7.39022 93.6139 7.54562 93.2553 8.66923L91.9165 13.08C91.5818 14.1678 91.7133 15.4348 92.7891 16.4867L101.061 24.4954L105.208 23.2881C105.28 23.2762 105.34 23.2642 105.412 23.2642" fill="#9C9C9C"/>
<path d="M133.372 26.5338L113.948 26.0078C113.721 26.7967 113.338 27.49 112.824 28.0638C112.824 28.0638 112.848 28.0757 112.86 28.0877C112.86 28.0877 114.27 29.6775 115.693 31.2792L127.67 33.3232C129.164 33.5743 130.132 33.1798 131.017 32.0801L134.16 28.1833C134.878 27.2988 134.531 26.5577 133.384 26.5338" fill="#9C9C9C"/>
<path d="M131.528 18.0741L127.189 15.4922L114.375 25.8318L131.289 19.9508C132.4 19.5205 132.603 18.6837 131.528 18.0741Z" fill="#9C9C9C"/>
<path d="M112.884 18.1541L116.768 7.61123C117.259 6.28441 117.031 5.36401 115.98 4.2643L112.573 0.845648C111.748 0.020868 110.888 0.343608 110.684 1.45527L109.848 5.91386C109.979 5.97362 110.063 6.02144 110.063 6.02144C111.21 6.66692 111.748 7.80248 111.653 9.39228L110.971 19.1462C111.21 19.2418 111.425 19.3494 111.641 19.4689L112.872 18.1421L112.884 18.1541Z" fill="#9C9C9C"/>
<path d="M101.643 25.0726L91.1479 28.1446C90.0483 28.4673 89.8451 29.3399 90.7057 30.093L93.9091 32.9259C95.0327 33.9061 96.0487 34.0256 97.3277 33.416L105.396 29.6507V23.9609L101.643 25.0606V25.0726Z" fill="#9C9C9C"/>
<path d="M130.753 9.31897L129.474 4.14318C129.199 3.04347 128.339 2.82831 127.55 3.65309L112.25 19.8977C112.573 20.1606 112.848 20.4595 113.099 20.7942C113.792 21.7265 114.174 22.9338 114.174 24.2606C114.174 24.5595 114.151 24.8344 114.115 25.1213L129.63 12.6181C130.801 11.6738 131.088 10.7653 130.741 9.31897" fill="#9C9C9C"/>
<path d="M104.074 5.5326L105.401 18.8127H109.118C109.537 18.8127 109.931 18.8606 110.302 18.9442L110.959 9.35766C111.031 8.16233 110.708 7.20606 109.74 6.66816L105.724 4.46875C104.708 3.93085 103.979 4.42094 104.098 5.54455" fill="#9C9C9C"/>
<path d="M106.395 29.682L114.582 41.5397C115.228 42.472 116.16 42.4959 116.758 41.444L118.443 38.4199C119.184 37.0572 119.005 36.065 118.073 35.0729L112.311 28.5703C111.463 29.2756 110.375 29.6939 109.12 29.6939H106.395V29.682Z" fill="#9C9C9C"/>
<path d="M5.8914 34.0193C5.8914 33.314 5.80774 32.7881 5.6404 32.4415C5.41329 31.9753 4.99491 31.7362 4.42116 31.7362C3.84742 31.7362 3.42907 31.9753 3.20196 32.4415C3.02267 32.7881 2.93899 33.314 2.93899 34.0193C2.93899 34.7245 3.02267 35.2385 3.20196 35.5852C3.42907 36.0514 3.84742 36.2904 4.42116 36.2904C4.99491 36.2904 5.41329 36.0633 5.6404 35.5852C5.80774 35.2385 5.8914 34.7126 5.8914 34.0193ZM6.75203 36.9957H5.8914V36.2785C5.49695 36.7925 4.93517 37.0554 4.21798 37.0554C3.60837 37.0554 3.13024 36.8761 2.7836 36.5295C2.30547 36.0514 2.06641 35.2027 2.06641 34.0073C2.06641 32.812 2.30547 31.9633 2.7836 31.4852C3.13024 31.1385 3.60837 30.9712 4.21798 30.9712C4.93517 30.9712 5.49694 31.2222 5.87944 31.7362V29.4531H6.74006V36.9837L6.75203 36.9957Z" fill="#9C9C9C"/>
<path d="M11.6633 34.0127C11.6633 33.1043 11.5079 32.4827 11.1971 32.1719C10.9102 31.885 10.5516 31.7416 10.1213 31.7416C9.69102 31.7416 9.34439 31.885 9.04556 32.1719C8.72283 32.4946 8.56741 33.1043 8.56741 34.0127C8.56741 34.9212 8.72283 35.5308 9.04556 35.8416C9.33243 36.1284 9.69102 36.2838 10.1213 36.2838C10.5516 36.2838 10.9222 36.1284 11.221 35.8296C11.5198 35.5308 11.6752 34.9212 11.6752 34.0127M12.5239 34.0127C12.5239 35.1005 12.2848 35.8894 11.8067 36.3795C11.3764 36.8337 10.8027 37.0488 10.1213 37.0488C9.44 37.0488 8.8782 36.8217 8.43594 36.3795C7.95782 35.8894 7.71875 35.1005 7.71875 34.0127C7.71875 32.925 7.95782 32.136 8.43594 31.6459C8.8782 31.1917 9.44 30.9766 10.1213 30.9766C10.8027 30.9766 11.3764 31.2037 11.8067 31.6459C12.2848 32.136 12.5239 32.925 12.5239 34.0127Z" fill="#9C9C9C"/>
<path d="M18.0714 36.9778H17.2227V33.3201C17.2227 32.2682 16.7327 31.7303 15.7645 31.7303C15.3102 31.7303 14.9516 31.8618 14.6887 32.1367C14.4257 32.4117 14.2942 32.8061 14.2942 33.3082V36.9659H13.4336V31.0251H14.2942V31.6706C14.7126 31.1805 15.2624 30.9414 15.9437 30.9414C16.5773 30.9414 17.0793 31.1327 17.4498 31.5032C17.8562 31.9096 18.0594 32.4595 18.0594 33.1647V36.9659L18.0714 36.9778Z" fill="#9C9C9C"/>
<path d="M22.8287 33.8217C22.8287 33.1403 22.745 32.7817 22.5776 32.4351C22.3505 31.9809 21.9441 31.7418 21.3584 31.7418C20.7727 31.7418 20.3663 31.9689 20.1273 32.4351C19.9599 32.7817 19.8762 33.1403 19.8762 33.8217C19.8762 34.503 19.9599 34.8616 20.1273 35.1963C20.3544 35.6625 20.7727 35.9016 21.3584 35.9016C21.9441 35.9016 22.3505 35.6625 22.5776 35.1963C22.745 34.8616 22.8287 34.503 22.8287 33.8217ZM23.6773 36.2602C23.6773 37.0132 23.4622 37.6228 23.0199 38.101C22.5776 38.5791 21.98 38.8182 21.215 38.8182C20.7847 38.8182 20.4261 38.7584 20.1392 38.6389C19.8523 38.5193 19.5415 38.3042 19.2188 38.0173L19.7806 37.4555C20.0197 37.6707 20.2229 37.8261 20.3902 37.9097C20.6054 38.0054 20.8803 38.0532 21.1911 38.0532C21.7409 38.0532 22.1473 37.8739 22.4342 37.5153C22.6852 37.1925 22.8167 36.7622 22.8167 36.2124V35.8896C22.4222 36.4036 21.8605 36.6546 21.1552 36.6546C20.5576 36.6546 20.0795 36.4753 19.7328 36.1167C19.2547 35.6386 19.0156 34.9573 19.0156 33.7978C19.0156 32.6383 19.2547 31.957 19.7328 31.4788C20.0795 31.1322 20.5576 30.9648 21.1672 30.9648C21.8724 30.9648 22.4222 31.2159 22.8167 31.7299V31.0485H23.6654V36.2602H23.6773Z" fill="#9C9C9C"/>
<path d="M28.4227 33.8178C28.4227 33.1364 28.339 32.7778 28.1716 32.4312C27.9445 31.977 27.5381 31.7379 26.9524 31.7379C26.3667 31.7379 25.9603 31.965 25.7212 32.4312C25.5539 32.7778 25.4702 33.1364 25.4702 33.8178C25.4702 34.4991 25.5539 34.8577 25.7212 35.1924C25.9603 35.6586 26.3667 35.8977 26.9524 35.8977C27.5381 35.8977 27.9445 35.6586 28.1716 35.1924C28.339 34.8577 28.4227 34.4991 28.4227 33.8178ZM29.2833 36.2563C29.2833 37.0093 29.0681 37.6189 28.6258 38.0971C28.1836 38.5752 27.5859 38.8143 26.8209 38.8143C26.3906 38.8143 26.032 38.7545 25.7332 38.635C25.4344 38.5154 25.1355 38.3003 24.8128 38.0134L25.3746 37.4516C25.6137 37.6668 25.8169 37.8221 25.9842 37.9058C26.1994 38.0014 26.4743 38.0493 26.7851 38.0493C27.3349 38.0493 27.7413 37.87 28.0163 37.5114C28.2792 37.1886 28.3987 36.7583 28.3987 36.2084V35.8857C27.9923 36.3997 27.4425 36.6507 26.7373 36.6507C26.1396 36.6507 25.6615 36.4714 25.3148 36.1128C24.8367 35.6347 24.5977 34.9533 24.5977 33.7939C24.5977 32.6344 24.8367 31.9531 25.3148 31.4749C25.6615 31.1283 26.1396 30.9609 26.7492 30.9609C27.4544 30.9609 28.0162 31.212 28.3987 31.7259V31.0446H29.2593V36.2563H29.2833Z" fill="#9C9C9C"/>
<path d="M35.0909 36.9757H34.2303V36.3183C33.8119 36.8084 33.2501 37.0474 32.5688 37.0474C31.9353 37.0474 31.4333 36.8681 31.0508 36.4976C30.6563 36.1031 30.4531 35.5533 30.4531 34.8361V31.0469H31.3018V34.7046C31.3018 35.7565 31.7799 36.2824 32.7481 36.2824C33.2023 36.2824 33.5609 36.1509 33.8239 35.876C34.0868 35.6011 34.2183 35.2186 34.2183 34.7046V31.0469H35.079V36.9877L35.0909 36.9757Z" fill="#9C9C9C"/>
<path d="M41.1866 36.9837H40.1228L38.2462 33.9476L37.0987 35.2744V36.9837H36.25V29.4531H37.0987V34.1388L39.7642 31.0549H40.84L38.8438 33.326L41.1866 36.9837Z" fill="#9C9C9C"/>
<path d="M48.7511 36.9757H47.8905V36.3183C47.4721 36.8084 46.9103 37.0474 46.229 37.0474C45.5954 37.0474 45.0815 36.8681 44.7109 36.4976C44.3165 36.1031 44.1133 35.5533 44.1133 34.8361V31.0469H44.9619V34.7046C44.9619 35.7565 45.4401 36.2824 46.4082 36.2824C46.8625 36.2824 47.2211 36.1509 47.4841 35.876C47.747 35.6011 47.8785 35.2186 47.8785 34.7046V31.0469H48.7391V36.9877L48.7511 36.9757Z" fill="#9C9C9C"/>
<path d="M54.5594 36.9778H53.6988V33.3201C53.6988 32.2682 53.2207 31.7303 52.2525 31.7303C51.7983 31.7303 51.4397 31.8618 51.1767 32.1367C50.9138 32.4117 50.7823 32.8061 50.7823 33.3082V36.9659H49.9336V31.0251H50.7823V31.6706C51.2006 31.1805 51.7505 30.9414 52.4318 30.9414C53.0653 30.9414 53.5673 31.1327 53.9379 31.5032C54.3443 31.9096 54.5475 32.4595 54.5475 33.1647V36.9659L54.5594 36.9778Z" fill="#9C9C9C"/>
<path d="M55.7236 36.9879H56.5851V31.0471H55.7236V36.9879ZM55.6758 30.4255H56.6449V29.4453H55.6758V30.4255Z" fill="#9C9C9C"/>
<path d="M62.26 31.0469L60.0964 36.9757H59.3315L57.168 31.0469H58.1123L59.7021 35.8043L61.3277 31.0469H62.26Z" fill="#9C9C9C"/>
<path d="M66.3785 33.595C66.3546 33.1767 66.2949 32.842 66.1993 32.6029C65.9482 32.0053 65.494 31.7064 64.8127 31.7064C64.1313 31.7064 63.6891 32.0053 63.4381 32.6029C63.3425 32.842 63.2827 33.1767 63.2588 33.595H66.3785ZM67.2392 34.2525H63.2588C63.2588 34.898 63.4022 35.412 63.713 35.7586C64.0118 36.1172 64.4422 36.2965 65.004 36.2965C65.5657 36.2965 66.1036 36.0694 66.5459 35.6152L67.1316 36.1291C66.8088 36.4519 66.5101 36.679 66.2112 36.8105C65.8646 36.9659 65.4581 37.0376 64.98 37.0376C64.1672 37.0376 63.5576 36.7985 63.1153 36.2965C62.6492 35.7825 62.4102 35.0175 62.4102 33.9895C62.4102 33.0332 62.6253 32.2802 63.0556 31.7423C63.4859 31.2044 64.0835 30.9414 64.8246 30.9414C65.5657 30.9414 66.1753 31.1924 66.6056 31.7184C67.0359 32.2324 67.2511 32.9376 67.2511 33.8222V34.2286L67.2392 34.2525Z" fill="#9C9C9C"/>
<path d="M71.2519 32.0009C71.0128 31.8216 70.7379 31.7379 70.4391 31.7379C70.0207 31.7379 69.6741 31.8933 69.4111 32.1921C69.1482 32.491 69.0167 32.8735 69.0167 33.3396V36.9854H68.168V31.0446H69.0167V31.7618C69.3633 31.2239 69.9131 30.9609 70.6662 30.9609C71.0128 30.9609 71.3236 31.0207 71.5986 31.1641L71.2399 32.0009H71.2519Z" fill="#9C9C9C"/>
<path d="M76.028 35.2322C76.028 35.794 75.8128 36.2363 75.3706 36.559C74.9403 36.8817 74.3545 37.0371 73.6254 37.0371C72.5974 37.0371 71.7966 36.7503 71.2109 36.1884L71.7847 35.6147C72.215 36.0689 72.8246 36.296 73.6135 36.296C74.6534 36.296 75.1794 35.9494 75.1794 35.2441C75.1794 34.7182 74.8566 34.4313 74.1992 34.3835L73.231 34.2998C72.0596 34.1922 71.4858 33.6663 71.4858 32.71C71.4858 32.1721 71.689 31.7538 72.0835 31.443C72.4899 31.1322 73.0039 30.9648 73.6493 30.9648C74.5458 30.9648 75.2391 31.18 75.7651 31.6103L75.2032 32.1841C74.7968 31.8733 74.2828 31.7059 73.6493 31.7059C72.7768 31.7059 72.3345 32.0287 72.3345 32.6861C72.3345 33.2001 72.6812 33.487 73.3625 33.5587L74.3067 33.6424C75.4542 33.75 76.028 34.2759 76.028 35.2441" fill="#9C9C9C"/>
<path d="M76.9581 36.9879H77.8194V31.0471H76.9581V36.9879ZM76.9102 30.4255H77.8792V29.4453H76.9102V30.4255Z" fill="#9C9C9C"/>
<path d="M81.3997 36.9879H80.7902C80.3001 36.9879 79.9295 36.8325 79.6666 36.5217C79.4155 36.2348 79.2841 35.8642 79.2841 35.3981V31.7523H78.543V31.0829H79.2841V29.4453H80.1446V31.0829H81.4117V31.7523H80.1446V35.3622C80.1446 35.936 80.4196 36.2348 80.9574 36.2348H81.4117V36.9879H81.3997Z" fill="#9C9C9C"/>
<path d="M86.5014 31.0859L84.0869 37.6961C83.9793 38.0069 83.8359 38.234 83.6685 38.3894C83.3816 38.6643 82.9991 38.8078 82.521 38.8078H82.1504V38.0428H82.4135C82.7003 38.0428 82.9036 37.995 83.035 37.8874C83.1546 37.7798 83.2741 37.5885 83.3816 37.3136L83.6446 36.5845L81.6484 31.0979H82.5688L84.0749 35.5326L85.5691 31.0979H86.4894L86.5014 31.0859Z" fill="#9C9C9C"/>
<path d="M8.52909 26.1522C7.23816 26.1522 6.22215 25.2438 6.22215 24.0962C6.22215 22.9487 7.23816 22.0403 8.52909 22.0403C9.82002 22.0403 10.86 22.9607 10.86 24.0962C10.86 25.2318 9.79611 26.1522 8.52909 26.1522ZM8.50519 20.1875C5.93528 20.1875 3.85547 21.9446 3.85547 24.0962C3.85547 26.2478 6.03091 28.005 8.50519 28.005C10.9795 28.005 13.2027 26.212 13.2027 24.0962C13.2027 21.9805 11.0512 20.1875 8.50519 20.1875Z" fill="#9C9C9C"/>
<path d="M16.492 20.1877V18.2513H9.76243V16.8767H14.8664V14.9641H4.87363V12.8962H14.8664V11.0195H2.36352V16.1595C2.36352 16.5778 2.55477 16.8647 3.03289 16.8647H7.26425V18.2393H0.558594V20.1758H16.4801L16.492 20.1877Z" fill="#9C9C9C"/>
<path d="M47.5431 26.4708C47.6387 25.9449 47.6985 25.2874 47.6985 24.5463V18.0915H48.9057V27.3075H51.0931H51.1051C51.2007 26.7935 51.2605 26.0644 51.2605 25.3233V11.0391H48.9057V15.9638H47.6985V11.0391H45.3437V19.502C43.7181 19.8009 42.726 19.7889 42.4511 19.7889H39.4747V13.86H43.7779V11.828H36.9766V20.8049C36.9766 21.5699 37.5742 21.8449 37.9448 21.8449H42.4511C42.7857 21.8449 43.754 21.8807 45.3437 21.4385V26.4708H47.5311H47.5431Z" fill="#9C9C9C"/>
<path d="M70.2922 16.1073V14.1469H68.2601V11.0391H65.75V20.2909H68.0928C68.1884 19.7769 68.2601 19.0717 68.2601 18.3306V16.1073H70.2922Z" fill="#9C9C9C"/>
<path d="M59.1802 13.7987C60.3994 13.7987 61.272 14.767 61.272 15.9025C61.272 17.0381 60.3277 18.0183 59.2041 18.0183C58.0805 18.0183 57.1601 17.0978 57.1601 15.9025C57.1601 14.7072 58.0447 13.7987 59.1802 13.7987ZM64.2005 13.7987V11.8384H60.4353V10.3203H57.9729C57.9729 10.392 57.9729 11.8384 57.9729 11.8384H54.1719V13.7987H55.6421C55.2596 14.4203 55.0205 15.1853 55.0205 15.9025C55.0205 18.0422 56.9569 19.9188 59.1682 19.9188C61.3796 19.9188 63.3518 18.078 63.3638 15.9025C63.3638 15.1973 63.1127 14.4323 62.7183 13.7987H64.1886H64.2005Z" fill="#9C9C9C"/>
<path d="M73.125 13.6309H83.309V18.1014C83.309 19.6195 83.2253 21.3767 83.1417 22.0938H85.4964C85.6876 21.3049 85.7833 20.1813 85.8192 18.1014V12.5551C85.8192 11.802 85.2932 11.5391 84.8032 11.5391H73.137V13.6309H73.125Z" fill="#9C9C9C"/>
<path d="M81.5836 16.9844H79.0854V23.6663H76.9936V16.9844H74.4835V23.6663H71.3398V25.7581H87.1777V23.6663H81.5836V16.9844Z" fill="#9C9C9C"/>
<path d="M68.101 27.3289C68.2086 26.8388 68.2564 26.1096 68.2564 25.3327V21.7227C68.2205 21.3522 67.9696 20.9219 67.3839 20.9219H55.5742V22.9659H65.7583V27.3169H68.089L68.101 27.3289Z" fill="#9C9C9C"/>
<path d="M29.7408 27.331V22.98H20.2859V20.9359H24.9835V18.8561H18.2539V16.824H29.6452C29.7647 16.0351 29.7408 15.6406 29.7528 15.2701V12.9392H20.2979V11.0625H31.1632C31.7967 11.0625 32.2509 11.4331 32.2509 12.21V14.9234C32.2509 15.2223 32.2509 15.5689 32.0597 16.836H34.1754V18.868H27.4936V20.9479H31.1991C31.988 20.9479 32.239 21.3304 32.239 21.8324V25.3587C32.239 26.1237 32.1792 26.8528 32.0836 27.3429H29.7408V27.331Z" fill="#9C9C9C"/>
</svg>
