<svg width="229" height="219" viewBox="0 0 229 219" fill="none" xmlns="http://www.w3.org/2000/svg">
<rect x="0.0546875" y="0.923828" width="228.143" height="217.322" rx="7.214" fill="#1C1C1C"/>
<path d="M64.7008 199.718C66.8008 199.718 68.5032 198.205 68.5032 196.338C68.5032 194.471 66.8008 192.958 64.7008 192.958C62.6008 192.958 60.8984 194.471 60.8984 196.338C60.8984 198.205 62.6008 199.718 64.7008 199.718Z" fill="#A1ED4C"/>
<path d="M102.386 197.151V195.051C102.386 194.894 102.358 194.759 102.301 194.645C102.244 194.531 102.157 194.443 102.04 194.38C101.926 194.318 101.783 194.287 101.609 194.287C101.449 194.287 101.311 194.314 101.194 194.368C101.078 194.422 100.987 194.495 100.922 194.588C100.857 194.68 100.824 194.784 100.824 194.901H99.8476C99.8476 194.727 99.8897 194.559 99.9737 194.396C100.058 194.234 100.18 194.089 100.34 193.961C100.5 193.834 100.691 193.733 100.913 193.66C101.136 193.587 101.385 193.55 101.662 193.55C101.993 193.55 102.286 193.606 102.541 193.717C102.798 193.828 103 193.996 103.147 194.222C103.296 194.444 103.371 194.723 103.371 195.06V197.016C103.371 197.217 103.384 197.397 103.411 197.557C103.441 197.715 103.483 197.852 103.537 197.968V198.033H102.533C102.486 197.928 102.45 197.793 102.423 197.631C102.398 197.465 102.386 197.305 102.386 197.151ZM102.528 195.357L102.537 195.963H101.833C101.651 195.963 101.491 195.98 101.353 196.016C101.215 196.048 101.099 196.097 101.007 196.162C100.915 196.227 100.846 196.306 100.8 196.398C100.753 196.49 100.73 196.595 100.73 196.711C100.73 196.828 100.758 196.935 100.812 197.033C100.866 197.127 100.945 197.202 101.048 197.256C101.153 197.311 101.281 197.338 101.43 197.338C101.631 197.338 101.806 197.297 101.955 197.216C102.107 197.132 102.226 197.03 102.313 196.911C102.4 196.788 102.446 196.673 102.451 196.565L102.769 197C102.736 197.111 102.68 197.231 102.602 197.358C102.523 197.485 102.42 197.608 102.293 197.724C102.168 197.838 102.017 197.932 101.841 198.005C101.667 198.078 101.467 198.115 101.239 198.115C100.951 198.115 100.695 198.058 100.47 197.944C100.245 197.827 100.069 197.671 99.9412 197.476C99.8137 197.278 99.75 197.054 99.75 196.805C99.75 196.572 99.7934 196.365 99.8802 196.186C99.9697 196.005 100.1 195.853 100.271 195.731C100.444 195.609 100.656 195.517 100.905 195.454C101.155 195.389 101.44 195.357 101.76 195.357H102.528Z" fill="white"/>
<path d="M96.7848 192.899L95.0152 198.032H93.9453L96.1746 192.109H96.8581L96.7848 192.899ZM98.2656 198.032L96.4919 192.899L96.4146 192.109H97.1021L99.3396 198.032H98.2656ZM98.1802 195.836V196.645H94.9583V195.836H98.1802Z" fill="white"/>
<path d="M90.3002 197.151V195.051C90.3002 194.894 90.2717 194.759 90.2147 194.645C90.1578 194.531 90.071 194.443 89.9544 194.38C89.8405 194.318 89.6967 194.287 89.5232 194.287C89.3632 194.287 89.2248 194.314 89.1082 194.368C88.9916 194.422 88.9008 194.495 88.8357 194.588C88.7706 194.68 88.738 194.784 88.738 194.901H87.7617C87.7617 194.727 87.8037 194.559 87.8878 194.396C87.9719 194.234 88.0939 194.089 88.2539 193.961C88.4139 193.834 88.6051 193.733 88.8275 193.66C89.0499 193.587 89.2994 193.55 89.5761 193.55C89.9069 193.55 90.1998 193.606 90.4548 193.717C90.7124 193.828 90.9145 193.996 91.0609 194.222C91.2101 194.444 91.2846 194.723 91.2846 195.06V197.016C91.2846 197.217 91.2982 197.397 91.3253 197.557C91.3552 197.715 91.3972 197.852 91.4514 197.968V198.033H90.4466C90.4005 197.928 90.3639 197.793 90.3368 197.631C90.3124 197.465 90.3002 197.305 90.3002 197.151ZM90.4426 195.357L90.4507 195.963H89.7469C89.5652 195.963 89.4052 195.98 89.2669 196.016C89.1286 196.048 89.0133 196.097 88.9211 196.162C88.8289 196.227 88.7597 196.306 88.7136 196.398C88.6675 196.49 88.6445 196.595 88.6445 196.711C88.6445 196.828 88.6716 196.935 88.7258 197.033C88.7801 197.127 88.8587 197.202 88.9618 197.256C89.0675 197.311 89.195 197.338 89.3442 197.338C89.5449 197.338 89.7198 197.297 89.869 197.216C90.0208 197.132 90.1402 197.03 90.2269 196.911C90.3137 196.788 90.3598 196.673 90.3653 196.565L90.6826 197C90.65 197.111 90.5944 197.231 90.5158 197.358C90.4371 197.485 90.3341 197.608 90.2066 197.724C90.0819 197.838 89.9313 197.932 89.7551 198.005C89.5815 198.078 89.3808 198.115 89.153 198.115C88.8655 198.115 88.6092 198.058 88.3841 197.944C88.159 197.827 87.9827 197.671 87.8553 197.476C87.7278 197.278 87.6641 197.054 87.6641 196.805C87.6641 196.572 87.7075 196.365 87.7942 196.186C87.8837 196.005 88.0139 195.853 88.1848 195.731C88.3583 195.609 88.5699 195.517 88.8194 195.454C89.0689 195.389 89.3537 195.357 89.6737 195.357H90.4426Z" fill="white"/>
<path d="M87.0596 193.631V194.347H84.5781V193.631H87.0596ZM85.2941 192.553H86.2745V196.817C86.2745 196.952 86.2935 197.057 86.3315 197.13C86.3721 197.2 86.4277 197.248 86.4983 197.272C86.5688 197.297 86.6515 197.309 86.7464 197.309C86.8142 197.309 86.8793 197.305 86.9417 197.297C87.0041 197.288 87.0542 197.28 87.0922 197.272L87.0963 198.021C87.0149 198.045 86.92 198.067 86.8115 198.086C86.7057 198.105 86.5837 198.114 86.4454 198.114C86.2203 198.114 86.0209 198.075 85.8474 197.996C85.6738 197.915 85.5382 197.783 85.4406 197.602C85.3429 197.42 85.2941 197.179 85.2941 196.878V192.553Z" fill="white"/>
<path d="M83.0345 197.151V195.051C83.0345 194.894 83.0061 194.759 82.9491 194.645C82.8922 194.531 82.8054 194.443 82.6888 194.38C82.5749 194.318 82.4311 194.287 82.2575 194.287C82.0975 194.287 81.9592 194.314 81.8426 194.368C81.726 194.422 81.6351 194.495 81.57 194.588C81.505 194.68 81.4724 194.784 81.4724 194.901H80.4961C80.4961 194.727 80.5381 194.559 80.6222 194.396C80.7063 194.234 80.8283 194.089 80.9883 193.961C81.1483 193.834 81.3395 193.733 81.5619 193.66C81.7843 193.587 82.0338 193.55 82.3104 193.55C82.6413 193.55 82.9342 193.606 83.1891 193.717C83.4468 193.828 83.6488 193.996 83.7953 194.222C83.9444 194.444 84.019 194.723 84.019 195.06V197.016C84.019 197.217 84.0326 197.397 84.0597 197.557C84.0895 197.715 84.1316 197.852 84.1858 197.968V198.033H83.181C83.1349 197.928 83.0983 197.793 83.0712 197.631C83.0468 197.465 83.0345 197.305 83.0345 197.151ZM83.1769 195.357L83.1851 195.963H82.4813C82.2996 195.963 82.1396 195.98 82.0013 196.016C81.8629 196.048 81.7477 196.097 81.6555 196.162C81.5633 196.227 81.4941 196.306 81.448 196.398C81.4019 196.49 81.3788 196.595 81.3788 196.711C81.3788 196.828 81.406 196.935 81.4602 197.033C81.5144 197.127 81.5931 197.202 81.6962 197.256C81.8019 197.311 81.9294 197.338 82.0786 197.338C82.2792 197.338 82.4542 197.297 82.6033 197.216C82.7552 197.132 82.8745 197.03 82.9613 196.911C83.0481 196.788 83.0942 196.673 83.0996 196.565L83.4169 197C83.3844 197.111 83.3288 197.231 83.2502 197.358C83.1715 197.485 83.0684 197.608 82.941 197.724C82.8162 197.838 82.6657 197.932 82.4894 198.005C82.3159 198.078 82.1152 198.115 81.8874 198.115C81.5999 198.115 81.3436 198.058 81.1185 197.944C80.8934 197.827 80.7171 197.671 80.5896 197.476C80.4622 197.278 80.3984 197.054 80.3984 196.805C80.3984 196.572 80.4418 196.365 80.5286 196.186C80.6181 196.005 80.7483 195.853 80.9192 195.731C81.0927 195.609 81.3043 195.517 81.5538 195.454C81.8033 195.389 82.088 195.357 82.4081 195.357H83.1769Z" fill="white"/>
<path d="M76.9239 198.032H75.6587L75.6669 197.223H76.9239C77.29 197.223 77.5965 197.143 77.8433 196.983C78.0928 196.823 78.2799 196.594 78.4047 196.295C78.5322 195.997 78.5959 195.642 78.5959 195.23V194.908C78.5959 194.588 78.5593 194.305 78.4861 194.058C78.4155 193.811 78.3098 193.604 78.1687 193.436C78.0304 193.267 77.8596 193.14 77.6562 193.053C77.4555 192.966 77.2236 192.923 76.9605 192.923H75.6343V192.109H76.9605C77.3538 192.109 77.7131 192.176 78.0386 192.309C78.364 192.439 78.6447 192.627 78.8807 192.874C79.1193 193.121 79.3024 193.417 79.4299 193.761C79.5573 194.105 79.6211 194.491 79.6211 194.916V195.23C79.6211 195.655 79.5573 196.04 79.4299 196.385C79.3024 196.729 79.1193 197.025 78.8807 197.272C78.642 197.516 78.3572 197.704 78.0264 197.837C77.6982 197.967 77.3307 198.032 76.9239 198.032ZM76.2242 192.109V198.032H75.2031V192.109H76.2242Z" fill="white"/>
<path d="M135.255 199.718C137.122 199.718 138.635 198.205 138.635 196.338C138.635 194.471 137.122 192.958 135.255 192.958C133.388 192.958 131.875 194.471 131.875 196.338C131.875 198.205 133.388 199.718 135.255 199.718Z" fill="#EF6E59"/>
<path d="M169.883 191.786H170.863V197.094L170.77 198.034H169.883V191.786ZM173.735 195.793V195.878C173.735 196.204 173.699 196.503 173.625 196.777C173.555 197.048 173.446 197.284 173.3 197.485C173.156 197.686 172.977 197.842 172.763 197.953C172.551 198.061 172.306 198.116 172.027 198.116C171.753 198.116 171.514 198.064 171.311 197.961C171.107 197.858 170.936 197.711 170.798 197.522C170.663 197.332 170.553 197.105 170.469 196.842C170.385 196.579 170.325 196.289 170.29 195.972V195.699C170.325 195.379 170.385 195.089 170.469 194.829C170.553 194.565 170.663 194.339 170.798 194.149C170.936 193.957 171.106 193.809 171.307 193.706C171.51 193.603 171.747 193.551 172.019 193.551C172.301 193.551 172.549 193.605 172.763 193.714C172.98 193.822 173.16 193.977 173.304 194.178C173.448 194.376 173.555 194.612 173.625 194.886C173.699 195.159 173.735 195.462 173.735 195.793ZM172.755 195.878V195.793C172.755 195.595 172.739 195.409 172.706 195.235C172.674 195.059 172.619 194.904 172.543 194.772C172.47 194.639 172.37 194.534 172.242 194.458C172.118 194.38 171.962 194.34 171.774 194.34C171.601 194.34 171.452 194.37 171.327 194.43C171.202 194.49 171.098 194.571 171.014 194.674C170.93 194.777 170.863 194.896 170.814 195.032C170.768 195.168 170.737 195.314 170.721 195.471V196.208C170.745 196.411 170.797 196.598 170.875 196.769C170.957 196.937 171.071 197.073 171.217 197.176C171.364 197.276 171.552 197.326 171.783 197.326C171.964 197.326 172.118 197.29 172.242 197.217C172.367 197.143 172.466 197.042 172.539 196.911C172.615 196.779 172.669 196.624 172.702 196.448C172.737 196.271 172.755 196.082 172.755 195.878Z" fill="white"/>
<path d="M166.932 195.356H165.423L165.415 194.612H166.733C166.955 194.612 167.144 194.579 167.298 194.514C167.456 194.446 167.575 194.35 167.656 194.225C167.738 194.098 167.778 193.945 167.778 193.766C167.778 193.568 167.74 193.406 167.664 193.281C167.588 193.157 167.472 193.066 167.315 193.009C167.16 192.952 166.962 192.923 166.721 192.923H165.732V198.033H164.711V192.11H166.721C167.046 192.11 167.336 192.141 167.591 192.203C167.849 192.266 168.067 192.363 168.246 192.496C168.428 192.627 168.565 192.792 168.657 192.993C168.752 193.193 168.799 193.432 168.799 193.709C168.799 193.953 168.741 194.176 168.624 194.38C168.508 194.581 168.336 194.745 168.108 194.872C167.88 195 167.597 195.075 167.258 195.1L166.932 195.356ZM166.887 198.033H165.101L165.561 197.223H166.887C167.118 197.223 167.31 197.185 167.465 197.11C167.62 197.031 167.735 196.924 167.811 196.788C167.889 196.65 167.929 196.488 167.929 196.304C167.929 196.111 167.895 195.945 167.827 195.804C167.759 195.66 167.652 195.55 167.506 195.474C167.359 195.396 167.168 195.356 166.932 195.356H165.785L165.793 194.612H167.286L167.518 194.892C167.843 194.903 168.11 194.975 168.319 195.108C168.531 195.241 168.688 195.413 168.791 195.625C168.894 195.836 168.946 196.064 168.946 196.308C168.946 196.685 168.863 197.001 168.698 197.256C168.535 197.511 168.3 197.705 167.994 197.838C167.687 197.968 167.319 198.033 166.887 198.033Z" fill="white"/>
<path d="M160.527 197.151V195.051C160.527 194.894 160.498 194.759 160.441 194.645C160.384 194.531 160.298 194.443 160.181 194.38C160.067 194.318 159.923 194.287 159.75 194.287C159.59 194.287 159.451 194.314 159.335 194.368C159.218 194.422 159.127 194.495 159.062 194.588C158.997 194.68 158.965 194.784 158.965 194.901H157.988C157.988 194.727 158.03 194.559 158.114 194.396C158.198 194.234 158.32 194.089 158.48 193.961C158.641 193.834 158.832 193.733 159.054 193.66C159.276 193.587 159.526 193.55 159.803 193.55C160.133 193.55 160.426 193.606 160.681 193.717C160.939 193.828 161.141 193.996 161.287 194.222C161.437 194.444 161.511 194.723 161.511 195.06V197.016C161.511 197.217 161.525 197.397 161.552 197.557C161.582 197.715 161.624 197.852 161.678 197.968V198.033H160.673C160.627 197.928 160.59 197.793 160.563 197.631C160.539 197.465 160.527 197.305 160.527 197.151ZM160.669 195.357L160.677 195.963H159.973C159.792 195.963 159.632 195.98 159.493 196.016C159.355 196.048 159.24 196.097 159.148 196.162C159.055 196.227 158.986 196.306 158.94 196.398C158.894 196.49 158.871 196.595 158.871 196.711C158.871 196.828 158.898 196.935 158.952 197.033C159.007 197.127 159.085 197.202 159.188 197.256C159.294 197.311 159.422 197.338 159.571 197.338C159.771 197.338 159.946 197.297 160.096 197.216C160.247 197.132 160.367 197.03 160.454 196.911C160.54 196.788 160.586 196.673 160.592 196.565L160.909 197C160.877 197.111 160.821 197.231 160.742 197.358C160.664 197.485 160.561 197.608 160.433 197.724C160.308 197.838 160.158 197.932 159.982 198.005C159.808 198.078 159.607 198.115 159.38 198.115C159.092 198.115 158.836 198.058 158.611 197.944C158.386 197.827 158.209 197.671 158.082 197.476C157.954 197.278 157.891 197.054 157.891 196.805C157.891 196.572 157.934 196.365 158.021 196.186C158.11 196.005 158.24 195.853 158.411 195.731C158.585 195.609 158.796 195.517 159.046 195.454C159.295 195.389 159.58 195.357 159.9 195.357H160.669Z" fill="white"/>
<path d="M157.294 193.632V194.348H154.812V193.632H157.294ZM155.528 192.554H156.509V196.817C156.509 196.953 156.528 197.057 156.566 197.13C156.607 197.201 156.662 197.248 156.733 197.273C156.803 197.297 156.886 197.309 156.981 197.309C157.049 197.309 157.114 197.305 157.176 197.297C157.238 197.289 157.289 197.281 157.327 197.273L157.331 198.021C157.249 198.046 157.154 198.067 157.046 198.086C156.94 198.105 156.818 198.115 156.68 198.115C156.455 198.115 156.255 198.075 156.082 197.997C155.908 197.915 155.773 197.784 155.675 197.602C155.577 197.42 155.528 197.179 155.528 196.878V192.554Z" fill="white"/>
<path d="M153.269 197.151V195.051C153.269 194.894 153.24 194.759 153.183 194.645C153.127 194.531 153.04 194.443 152.923 194.38C152.809 194.318 152.665 194.287 152.492 194.287C152.332 194.287 152.194 194.314 152.077 194.368C151.96 194.422 151.87 194.495 151.804 194.588C151.739 194.68 151.707 194.784 151.707 194.901H150.73C150.73 194.727 150.772 194.559 150.857 194.396C150.941 194.234 151.063 194.089 151.223 193.961C151.383 193.834 151.574 193.733 151.796 193.66C152.019 193.587 152.268 193.55 152.545 193.55C152.876 193.55 153.169 193.606 153.424 193.717C153.681 193.828 153.883 193.996 154.03 194.222C154.179 194.444 154.253 194.723 154.253 195.06V197.016C154.253 197.217 154.267 197.397 154.294 197.557C154.324 197.715 154.366 197.852 154.42 197.968V198.033H153.415C153.369 197.928 153.333 197.793 153.306 197.631C153.281 197.465 153.269 197.305 153.269 197.151ZM153.411 195.357L153.419 195.963H152.716C152.534 195.963 152.374 195.98 152.236 196.016C152.097 196.048 151.982 196.097 151.89 196.162C151.798 196.227 151.728 196.306 151.682 196.398C151.636 196.49 151.613 196.595 151.613 196.711C151.613 196.828 151.64 196.935 151.695 197.033C151.749 197.127 151.827 197.202 151.931 197.256C152.036 197.311 152.164 197.338 152.313 197.338C152.514 197.338 152.689 197.297 152.838 197.216C152.99 197.132 153.109 197.03 153.196 196.911C153.282 196.788 153.329 196.673 153.334 196.565L153.651 197C153.619 197.111 153.563 197.231 153.485 197.358C153.406 197.485 153.303 197.608 153.175 197.724C153.051 197.838 152.9 197.932 152.724 198.005C152.55 198.078 152.35 198.115 152.122 198.115C151.834 198.115 151.578 198.058 151.353 197.944C151.128 197.827 150.951 197.671 150.824 197.476C150.697 197.278 150.633 197.054 150.633 196.805C150.633 196.572 150.676 196.365 150.763 196.186C150.852 196.005 150.983 195.853 151.154 195.731C151.327 195.609 151.539 195.517 151.788 195.454C152.038 195.389 152.322 195.357 152.642 195.357H153.411Z" fill="white"/>
<path d="M147.158 198.033H145.893L145.901 197.223H147.158C147.524 197.223 147.831 197.143 148.078 196.983C148.327 196.823 148.514 196.594 148.639 196.296C148.767 195.998 148.83 195.642 148.83 195.23V194.909C148.83 194.589 148.794 194.305 148.72 194.058C148.65 193.812 148.544 193.604 148.403 193.436C148.265 193.268 148.094 193.14 147.891 193.054C147.69 192.967 147.458 192.923 147.195 192.923H145.869V192.11H147.195C147.588 192.11 147.948 192.176 148.273 192.309C148.598 192.439 148.879 192.628 149.115 192.875C149.354 193.121 149.537 193.417 149.664 193.762C149.792 194.106 149.855 194.491 149.855 194.917V195.23C149.855 195.656 149.792 196.041 149.664 196.385C149.537 196.73 149.354 197.025 149.115 197.272C148.876 197.516 148.592 197.705 148.261 197.838C147.933 197.968 147.565 198.033 147.158 198.033ZM146.459 192.11V198.033H145.438V192.11H146.459Z" fill="white"/>
<path fill-rule="evenodd" clip-rule="evenodd" d="M76.7031 163.34V58.7368H77.6049V163.34H76.7031Z" fill="#F6F7FB"/>
<path fill-rule="evenodd" clip-rule="evenodd" d="M113.68 163.34V58.7368H114.581V163.34H113.68Z" fill="#F6F7FB"/>
<path fill-rule="evenodd" clip-rule="evenodd" d="M42.3478 58.8811H40.6172V58.0361H42.3478V58.8811ZM49.27 58.8811H45.8089V58.0361H49.27V58.8811ZM56.1923 58.8811H52.7312V58.0361H56.1923V58.8811ZM63.1146 58.8811H59.6535V58.0361H63.1146V58.8811ZM70.0369 58.8811H66.5757V58.0361H70.0369V58.8811ZM76.9591 58.8811H73.498V58.0361H76.9591V58.8811ZM83.8814 58.8811H80.4203V58.0361H83.8814V58.8811ZM90.8037 58.8811H87.3426V58.0361H90.8037V58.8811ZM97.726 58.8811H94.2648V58.0361H97.726V58.8811ZM104.648 58.8811H101.187V58.0361H104.648V58.8811ZM111.571 58.8811H108.109V58.0361H111.571V58.8811ZM118.493 58.8811H115.032V58.0361H118.493V58.8811ZM125.415 58.8811H121.954V58.0361H125.415V58.8811ZM132.337 58.8811H128.876V58.0361H132.337V58.8811ZM139.26 58.8811H135.799V58.0361H139.26V58.8811ZM146.182 58.8811H142.721V58.0361H146.182V58.8811ZM153.104 58.8811H149.643V58.0361H153.104V58.8811ZM160.026 58.8811H156.565V58.0361H160.026V58.8811ZM166.949 58.8811H163.488V58.0361H166.949V58.8811ZM173.871 58.8811H170.41V58.0361H173.871V58.8811ZM180.793 58.8811H177.332V58.0361H180.793V58.8811ZM187.716 58.8811H184.254V58.0361H187.716V58.8811ZM194.638 58.8811H191.177V58.0361H194.638V58.8811ZM201.56 58.8811H198.099V58.0361H201.56V58.8811ZM208.482 58.8811H205.021V58.0361H208.482V58.8811ZM215.405 58.8811H211.944V58.0361H215.405V58.8811ZM220.596 58.8811H218.866V58.0361H220.596V58.8811Z" fill="#E5E5E5"/>
<path fill-rule="evenodd" clip-rule="evenodd" d="M42.3396 84.2288H40.6172V83.3838H42.3396V84.2288ZM49.2294 84.2288H45.7845V83.3838H49.2294V84.2288ZM56.1192 84.2288H52.6743V83.3838H56.1192V84.2288ZM63.009 84.2288H59.5641V83.3838H63.009V84.2288ZM69.8987 84.2288H66.4539V83.3838H69.8987V84.2288ZM76.7885 84.2288H73.3436V83.3838H76.7885V84.2288ZM83.6783 84.2288H80.2334V83.3838H83.6783V84.2288ZM90.5681 84.2288H87.1232V83.3838H90.5681V84.2288ZM97.4579 84.2288H94.013V83.3838H97.4579V84.2288ZM104.348 84.2288H100.903V83.3838H104.348V84.2288ZM111.237 84.2288H107.793V83.3838H111.237V84.2288ZM118.127 84.2288H114.682V83.3838H118.127V84.2288ZM125.017 84.2288H121.572V83.3838H125.017V84.2288ZM131.907 84.2288H128.462V83.3838H131.907V84.2288ZM138.797 84.2288H135.352V83.3838H138.797V84.2288ZM145.686 84.2288H142.241V83.3838H145.686V84.2288ZM152.576 84.2288H149.131V83.3838H152.576V84.2288ZM159.466 84.2288H156.021V83.3838H159.466V84.2288ZM166.356 84.2288H162.911V83.3838H166.356V84.2288ZM173.245 84.2288H169.801V83.3838H173.245V84.2288ZM180.135 84.2288H176.69V83.3838H180.135V84.2288ZM187.025 84.2288H183.58V83.3838H187.025V84.2288ZM193.915 84.2288H190.47V83.3838H193.915V84.2288ZM200.804 84.2288H197.36V83.3838H200.804V84.2288ZM207.694 84.2288H204.249V83.3838H207.694V84.2288ZM214.584 84.2288H211.139V83.3838H214.584V84.2288ZM219.751 84.2288H218.029V83.3838H219.751V84.2288Z" fill="#E5E5E5"/>
<path fill-rule="evenodd" clip-rule="evenodd" d="M42.3396 109.58H40.6172V108.735H42.3396V109.58ZM49.2294 109.58H45.7845V108.735H49.2294V109.58ZM56.1192 109.58H52.6743V108.735H56.1192V109.58ZM63.009 109.58H59.5641V108.735H63.009V109.58ZM69.8987 109.58H66.4539V108.735H69.8987V109.58ZM76.7885 109.58H73.3436V108.735H76.7885V109.58ZM83.6783 109.58H80.2334V108.735H83.6783V109.58ZM90.5681 109.58H87.1232V108.735H90.5681V109.58ZM97.4579 109.58H94.013V108.735H97.4579V109.58ZM104.348 109.58H100.903V108.735H104.348V109.58ZM111.237 109.58H107.793V108.735H111.237V109.58ZM118.127 109.58H114.682V108.735H118.127V109.58ZM125.017 109.58H121.572V108.735H125.017V109.58ZM131.907 109.58H128.462V108.735H131.907V109.58ZM138.797 109.58H135.352V108.735H138.797V109.58ZM145.686 109.58H142.241V108.735H145.686V109.58ZM152.576 109.58H149.131V108.735H152.576V109.58ZM159.466 109.58H156.021V108.735H159.466V109.58ZM166.356 109.58H162.911V108.735H166.356V109.58ZM173.245 109.58H169.801V108.735H173.245V109.58ZM180.135 109.58H176.69V108.735H180.135V109.58ZM187.025 109.58H183.58V108.735H187.025V109.58ZM193.915 109.58H190.47V108.735H193.915V109.58ZM200.804 109.58H197.36V108.735H200.804V109.58ZM207.694 109.58H204.249V108.735H207.694V109.58ZM214.584 109.58H211.139V108.735H214.584V109.58ZM219.751 109.58H218.029V108.735H219.751V109.58Z" fill="#E5E5E5"/>
<path fill-rule="evenodd" clip-rule="evenodd" d="M42.3396 134.931H40.6172V134.086H42.3396V134.931ZM49.2294 134.931H45.7845V134.086H49.2294V134.931ZM56.1192 134.931H52.6743V134.086H56.1192V134.931ZM63.009 134.931H59.5641V134.086H63.009V134.931ZM69.8987 134.931H66.4539V134.086H69.8987V134.931ZM76.7885 134.931H73.3436V134.086H76.7885V134.931ZM83.6783 134.931H80.2334V134.086H83.6783V134.931ZM90.5681 134.931H87.1232V134.086H90.5681V134.931ZM97.4579 134.931H94.013V134.086H97.4579V134.931ZM104.348 134.931H100.903V134.086H104.348V134.931ZM111.237 134.931H107.793V134.086H111.237V134.931ZM118.127 134.931H114.682V134.086H118.127V134.931ZM125.017 134.931H121.572V134.086H125.017V134.931ZM131.907 134.931H128.462V134.086H131.907V134.931ZM138.797 134.931H135.352V134.086H138.797V134.931ZM145.686 134.931H142.241V134.086H145.686V134.931ZM152.576 134.931H149.131V134.086H152.576V134.931ZM159.466 134.931H156.021V134.086H159.466V134.931ZM166.356 134.931H162.911V134.086H166.356V134.931ZM173.245 134.931H169.801V134.086H173.245V134.931ZM180.135 134.931H176.69V134.086H180.135V134.931ZM187.025 134.931H183.58V134.086H187.025V134.931ZM193.915 134.931H190.47V134.086H193.915V134.931ZM200.804 134.931H197.36V134.086H200.804V134.931ZM207.694 134.931H204.249V134.086H207.694V134.931ZM214.584 134.931H211.139V134.086H214.584V134.931ZM219.751 134.931H218.029V134.086H219.751V134.931Z" fill="#E5E5E5"/>
<path fill-rule="evenodd" clip-rule="evenodd" d="M219.751 163.283H40.6172V162.438H219.751V163.283Z" fill="#F6F7FB"/>
<path d="M50.3495 171.824V175.21H49.3906V170.905H50.2938L50.3495 171.824ZM50.1784 172.898L49.8681 172.894C49.8707 172.589 49.9132 172.309 49.9954 172.055C50.0803 171.8 50.197 171.581 50.3455 171.398C50.4967 171.215 50.6771 171.075 50.8866 170.976C51.0961 170.876 51.3295 170.825 51.5868 170.825C51.7937 170.825 51.9807 170.854 52.1478 170.913C52.3176 170.968 52.4621 171.06 52.5815 171.187C52.7035 171.315 52.7963 171.48 52.86 171.685C52.9237 171.886 52.9555 172.134 52.9555 172.429V175.21H51.9927V172.425C51.9927 172.218 51.9622 172.055 51.9011 171.935C51.8428 171.813 51.7566 171.727 51.6425 171.677C51.5311 171.624 51.3919 171.597 51.2248 171.597C51.0603 171.597 50.9131 171.632 50.7831 171.7C50.6532 171.769 50.5431 171.864 50.4529 171.983C50.3654 172.102 50.2978 172.24 50.25 172.397C50.2023 172.553 50.1784 172.72 50.1784 172.898Z" fill="#9C9C9C"/>
<path d="M47.4375 174.346V172.293C47.4375 172.139 47.4097 172.007 47.354 171.895C47.2983 171.784 47.2134 171.698 47.0993 171.637C46.9879 171.576 46.8474 171.545 46.6776 171.545C46.5211 171.545 46.3858 171.572 46.2718 171.625C46.1577 171.678 46.0689 171.75 46.0052 171.84C45.9416 171.93 45.9097 172.032 45.9097 172.146H44.9549C44.9549 171.976 44.996 171.812 45.0782 171.653C45.1604 171.494 45.2798 171.352 45.4363 171.227C45.5928 171.102 45.7798 171.004 45.9973 170.933C46.2148 170.861 46.4588 170.825 46.7293 170.825C47.0529 170.825 47.3394 170.88 47.5887 170.988C47.8407 171.097 48.0383 171.262 48.1815 171.482C48.3274 171.699 48.4004 171.972 48.4004 172.301V174.215C48.4004 174.411 48.4136 174.588 48.4402 174.744C48.4693 174.898 48.5104 175.032 48.5635 175.146V175.21H47.5808C47.5357 175.106 47.4999 174.975 47.4733 174.816C47.4495 174.654 47.4375 174.497 47.4375 174.346ZM47.5768 172.592L47.5847 173.185H46.8964C46.7187 173.185 46.5622 173.202 46.427 173.236C46.2917 173.268 46.179 173.316 46.0888 173.379C45.9986 173.443 45.931 173.52 45.8859 173.61C45.8408 173.7 45.8182 173.803 45.8182 173.917C45.8182 174.031 45.8448 174.135 45.8978 174.231C45.9508 174.324 46.0278 174.397 46.1286 174.45C46.232 174.503 46.3567 174.529 46.5026 174.529C46.6988 174.529 46.8699 174.49 47.0158 174.41C47.1643 174.328 47.281 174.228 47.3659 174.112C47.4508 173.992 47.4959 173.879 47.5012 173.773L47.8115 174.199C47.7797 174.308 47.7253 174.425 47.6484 174.549C47.5715 174.674 47.4707 174.793 47.346 174.907C47.224 175.019 47.0768 175.11 46.9044 175.182C46.7346 175.253 46.5384 175.289 46.3156 175.289C46.0344 175.289 45.7837 175.234 45.5636 175.122C45.3434 175.008 45.171 174.856 45.0464 174.665C44.9217 174.471 44.8594 174.252 44.8594 174.008C44.8594 173.78 44.9018 173.578 44.9867 173.403C45.0742 173.226 45.2015 173.077 45.3686 172.958C45.5384 172.838 45.7453 172.748 45.9893 172.687C46.2333 172.624 46.5118 172.592 46.8248 172.592H47.5768Z" fill="#9C9C9C"/>
<path d="M42.9569 173.47V169.416H43.9516V173.47C43.9516 173.855 43.8694 174.182 43.7049 174.453C43.5405 174.724 43.3163 174.93 43.0325 175.074C42.7487 175.217 42.4264 175.288 42.0657 175.288C41.697 175.288 41.3694 175.226 41.083 175.101C40.7992 174.977 40.5764 174.786 40.4146 174.529C40.2528 174.271 40.1719 173.945 40.1719 173.55H41.1745C41.1745 173.778 41.2103 173.962 41.2819 174.103C41.3562 174.241 41.4596 174.342 41.5922 174.405C41.7275 174.466 41.8853 174.497 42.0657 174.497C42.2381 174.497 42.3906 174.458 42.5233 174.381C42.6585 174.302 42.7646 174.186 42.8415 174.035C42.9185 173.881 42.9569 173.693 42.9569 173.47Z" fill="#9C9C9C"/>
<path d="M80.8828 169.096H81.8417V174.288L81.7502 175.207H80.8828V169.096ZM84.6506 173.015V173.098C84.6506 173.417 84.6148 173.71 84.5432 173.977C84.4742 174.243 84.3681 174.473 84.2249 174.67C84.0843 174.866 83.9092 175.019 83.6997 175.127C83.4928 175.233 83.2528 175.286 82.9796 175.286C82.7117 175.286 82.4782 175.236 82.2793 175.135C82.0804 175.034 81.9133 174.891 81.778 174.706C81.6454 174.52 81.538 174.298 81.4557 174.041C81.3735 173.784 81.3152 173.5 81.2807 173.19V172.923C81.3152 172.61 81.3735 172.326 81.4557 172.072C81.538 171.814 81.6454 171.593 81.778 171.407C81.9133 171.219 82.0791 171.074 82.2753 170.974C82.4743 170.873 82.7064 170.822 82.9716 170.822C83.2475 170.822 83.4901 170.875 83.6997 170.982C83.9119 171.088 84.0883 171.239 84.2288 171.435C84.3694 171.629 84.4742 171.86 84.5432 172.127C84.6148 172.395 84.6506 172.691 84.6506 173.015ZM83.6917 173.098V173.015C83.6917 172.821 83.6758 172.639 83.644 172.47C83.6122 172.297 83.5591 172.146 83.4848 172.016C83.4132 171.886 83.3151 171.784 83.1904 171.71C83.0684 171.633 82.9159 171.594 82.7329 171.594C82.5631 171.594 82.4172 171.623 82.2952 171.682C82.1732 171.74 82.0711 171.82 81.9889 171.921C81.9066 172.021 81.8417 172.138 81.7939 172.271C81.7488 172.403 81.7183 172.547 81.7024 172.7V173.42C81.7263 173.619 81.7767 173.802 81.8536 173.97C81.9332 174.134 82.0446 174.267 82.1878 174.367C82.331 174.466 82.5154 174.515 82.7408 174.515C82.9186 174.515 83.0684 174.479 83.1904 174.407C83.3124 174.336 83.4092 174.236 83.4809 174.109C83.5551 173.979 83.6082 173.828 83.64 173.655C83.6745 173.483 83.6917 173.297 83.6917 173.098Z" fill="#9C9C9C"/>
<path d="M78.4048 175.285C78.0865 175.285 77.7988 175.234 77.5415 175.13C77.2868 175.024 77.0693 174.877 76.889 174.689C76.7113 174.5 76.5747 174.279 76.4792 174.024C76.3837 173.769 76.3359 173.495 76.3359 173.201V173.041C76.3359 172.705 76.385 172.399 76.4831 172.126C76.5813 171.853 76.7179 171.62 76.8929 171.426C77.068 171.23 77.2749 171.08 77.5136 170.976C77.7523 170.873 78.0109 170.821 78.2895 170.821C78.5971 170.821 78.8664 170.873 79.0971 170.976C79.3279 171.08 79.5189 171.226 79.67 171.414C79.8239 171.6 79.9379 171.821 80.0122 172.079C80.0891 172.336 80.1276 172.62 80.1276 172.93V173.34H76.8014V172.651H79.1807V172.576C79.1754 172.403 79.1409 172.242 79.0772 172.09C79.0162 171.939 78.9221 171.817 78.7947 171.724C78.6674 171.632 78.4977 171.585 78.2855 171.585C78.1263 171.585 77.9844 171.62 77.8598 171.689C77.7377 171.755 77.6356 171.852 77.5534 171.979C77.4712 172.106 77.4075 172.26 77.3624 172.441C77.32 172.618 77.2988 172.819 77.2988 173.041V173.201C77.2988 173.389 77.324 173.564 77.3744 173.726C77.4274 173.885 77.5043 174.024 77.6051 174.143C77.7059 174.263 77.8279 174.357 77.9712 174.426C78.1144 174.492 78.2775 174.525 78.4605 174.525C78.6913 174.525 78.8969 174.479 79.0772 174.386C79.2576 174.293 79.4141 174.162 79.5467 173.992L80.052 174.482C79.9592 174.617 79.8385 174.747 79.6899 174.872C79.5414 174.994 79.3597 175.093 79.1449 175.17C78.9327 175.247 78.686 175.285 78.4048 175.285Z" fill="#9C9C9C"/>
<path d="M73.2018 169.416V175.209H72.2031V169.416H73.2018ZM75.5651 171.95V172.742H72.9471V171.95H75.5651ZM75.8953 169.416V170.212H72.9471V169.416H75.8953Z" fill="#9C9C9C"/>
<path d="M116.217 171.724V175.21H115.258V170.905H116.173L116.217 171.724ZM117.534 170.877L117.526 171.768C117.467 171.758 117.404 171.75 117.335 171.744C117.268 171.739 117.202 171.736 117.136 171.736C116.971 171.736 116.827 171.76 116.702 171.808C116.577 171.853 116.473 171.919 116.388 172.007C116.306 172.092 116.242 172.195 116.197 172.317C116.152 172.439 116.125 172.576 116.117 172.727L115.898 172.743C115.898 172.472 115.925 172.222 115.978 171.991C116.031 171.76 116.111 171.557 116.217 171.382C116.325 171.207 116.461 171.071 116.622 170.972C116.787 170.874 116.977 170.825 117.191 170.825C117.25 170.825 117.312 170.831 117.378 170.841C117.447 170.852 117.499 170.864 117.534 170.877Z" fill="#9C9C9C"/>
<path d="M113.289 174.346V172.293C113.289 172.139 113.261 172.007 113.206 171.895C113.15 171.784 113.065 171.698 112.951 171.637C112.84 171.576 112.699 171.545 112.529 171.545C112.373 171.545 112.237 171.572 112.123 171.625C112.009 171.678 111.92 171.75 111.857 171.84C111.793 171.93 111.761 172.032 111.761 172.146H110.806C110.806 171.976 110.848 171.812 110.93 171.653C111.012 171.494 111.131 171.352 111.288 171.227C111.444 171.102 111.631 171.004 111.849 170.933C112.066 170.861 112.31 170.825 112.581 170.825C112.904 170.825 113.191 170.88 113.44 170.988C113.692 171.097 113.89 171.262 114.033 171.482C114.179 171.699 114.252 171.972 114.252 172.301V174.215C114.252 174.411 114.265 174.588 114.292 174.744C114.321 174.898 114.362 175.032 114.415 175.146V175.21H113.432C113.387 175.106 113.351 174.975 113.325 174.816C113.301 174.654 113.289 174.497 113.289 174.346ZM113.428 172.592L113.436 173.185H112.748C112.57 173.185 112.414 173.202 112.279 173.236C112.143 173.268 112.031 173.316 111.94 173.379C111.85 173.443 111.783 173.52 111.737 173.61C111.692 173.7 111.67 173.803 111.67 173.917C111.67 174.031 111.696 174.135 111.749 174.231C111.802 174.324 111.879 174.397 111.98 174.45C112.084 174.503 112.208 174.529 112.354 174.529C112.55 174.529 112.721 174.49 112.867 174.41C113.016 174.328 113.133 174.228 113.217 174.112C113.302 173.992 113.347 173.879 113.353 173.773L113.663 174.199C113.631 174.308 113.577 174.425 113.5 174.549C113.423 174.674 113.322 174.793 113.198 174.907C113.076 175.019 112.928 175.11 112.756 175.182C112.586 175.253 112.39 175.289 112.167 175.289C111.886 175.289 111.635 175.234 111.415 175.122C111.195 175.008 111.023 174.856 110.898 174.665C110.773 174.471 110.711 174.252 110.711 174.008C110.711 173.78 110.753 173.578 110.838 173.403C110.926 173.226 111.053 173.077 111.22 172.958C111.39 172.838 111.597 172.748 111.841 172.687C112.085 172.624 112.363 172.592 112.676 172.592H113.428Z" fill="#9C9C9C"/>
<path d="M104.234 169.416H105.125L106.8 173.884L108.471 169.416H109.362L107.15 175.209H106.442L104.234 169.416ZM103.828 169.416H104.676L104.823 173.283V175.209H103.828V169.416ZM108.921 169.416H109.772V175.209H108.774V173.283L108.921 169.416Z" fill="#9C9C9C"/>
<path d="M24.5095 154.578V155.422C24.5095 155.826 24.4693 156.171 24.389 156.457C24.311 156.74 24.1976 156.971 24.0488 157.148C23.8999 157.325 23.7215 157.455 23.5136 157.538C23.3081 157.62 23.0777 157.662 22.8226 157.662C22.6194 157.662 22.4304 157.636 22.2555 157.584C22.0831 157.532 21.9271 157.45 21.7877 157.339C21.6483 157.228 21.529 157.085 21.4298 156.91C21.3329 156.733 21.2573 156.522 21.203 156.276C21.151 156.03 21.125 155.746 21.125 155.422V154.578C21.125 154.172 21.1652 153.829 21.2455 153.551C21.3258 153.269 21.4404 153.041 21.5893 152.867C21.7381 152.689 21.9153 152.561 22.1209 152.48C22.3288 152.4 22.5603 152.36 22.8155 152.36C23.021 152.36 23.21 152.386 23.3825 152.438C23.5573 152.487 23.7133 152.567 23.8503 152.675C23.9897 152.784 24.1078 152.926 24.2047 153.101C24.3039 153.273 24.3795 153.482 24.4315 153.728C24.4835 153.971 24.5095 154.255 24.5095 154.578ZM23.6554 155.542V154.451C23.6554 154.245 23.6436 154.065 23.62 153.909C23.5963 153.75 23.5609 153.617 23.5136 153.508C23.4687 153.397 23.412 153.307 23.3435 153.239C23.275 153.168 23.197 153.117 23.1096 153.086C23.0222 153.053 22.9242 153.037 22.8155 153.037C22.6832 153.037 22.565 153.063 22.4611 153.115C22.3571 153.164 22.2697 153.245 22.1988 153.356C22.1279 153.467 22.0736 153.613 22.0358 153.795C22.0004 153.975 21.9826 154.193 21.9826 154.451V155.542C21.9826 155.75 21.9945 155.933 22.0181 156.092C22.0417 156.25 22.0771 156.386 22.1244 156.499C22.1717 156.61 22.2284 156.702 22.2945 156.776C22.363 156.847 22.441 156.899 22.5284 156.932C22.6182 156.965 22.7162 156.981 22.8226 156.981C22.9572 156.981 23.0765 156.955 23.1805 156.903C23.2845 156.851 23.3719 156.769 23.4428 156.655C23.5136 156.539 23.5668 156.389 23.6022 156.205C23.6377 156.021 23.6554 155.8 23.6554 155.542Z" fill="#9C9C9C"/>
<path d="M17.9145 155.191L17.2341 155.024L17.514 152.43H20.296V153.153H18.2228L18.0811 154.418C18.1614 154.371 18.2724 154.325 18.4142 154.28C18.556 154.233 18.7178 154.209 18.8997 154.209C19.1431 154.209 19.3604 154.249 19.5518 154.33C19.7455 154.408 19.9098 154.522 20.0444 154.674C20.1791 154.822 20.2819 155.004 20.3527 155.219C20.4236 155.432 20.4591 155.672 20.4591 155.939C20.4591 156.177 20.4236 156.401 20.3527 156.609C20.2842 156.816 20.1803 157 20.0409 157.158C19.9015 157.316 19.7255 157.44 19.5128 157.53C19.3026 157.617 19.0533 157.661 18.7651 157.661C18.5501 157.661 18.3433 157.63 18.1449 157.569C17.9488 157.505 17.7727 157.412 17.6168 157.289C17.4609 157.164 17.3357 157.01 17.2411 156.828C17.1466 156.644 17.0923 156.432 17.0781 156.194H17.9145C17.9358 156.362 17.9818 156.505 18.0527 156.623C18.126 156.738 18.2228 156.827 18.3433 156.888C18.4638 156.95 18.6032 156.981 18.7615 156.981C18.9056 156.981 19.0297 156.956 19.1336 156.906C19.2376 156.854 19.3238 156.781 19.3923 156.686C19.4632 156.59 19.5152 156.476 19.5483 156.346C19.5837 156.216 19.6014 156.072 19.6014 155.914C19.6014 155.763 19.5813 155.624 19.5412 155.499C19.5034 155.374 19.4455 155.265 19.3675 155.173C19.2919 155.081 19.1962 155.01 19.0805 154.961C18.9647 154.909 18.8312 154.883 18.68 154.883C18.4768 154.883 18.3209 154.912 18.2122 154.971C18.1059 155.03 18.0066 155.104 17.9145 155.191Z" fill="#9C9C9C"/>
<path d="M14.9468 151.603V152.662H14.401V151.603H14.9468ZM14.8794 157.39V158.34H14.3372V157.39H14.8794ZM15.4146 156.245C15.4146 156.108 15.3862 155.989 15.3295 155.887C15.2752 155.783 15.1854 155.69 15.0602 155.607C14.935 155.522 14.7672 155.443 14.5569 155.37C14.2545 155.263 13.9899 155.144 13.7631 155.012C13.5386 154.877 13.3638 154.712 13.2386 154.516C13.1157 154.317 13.0543 154.07 13.0543 153.775C13.0543 153.484 13.1204 153.233 13.2528 153.02C13.3874 152.807 13.5741 152.643 13.8127 152.528C14.0513 152.412 14.3301 152.354 14.6491 152.354C14.8948 152.354 15.1157 152.39 15.3118 152.464C15.5103 152.537 15.6792 152.644 15.8186 152.786C15.958 152.928 16.0643 153.103 16.1375 153.311C16.2131 153.516 16.2509 153.753 16.2509 154.02H15.4004C15.4004 153.868 15.3827 153.734 15.3472 153.616C15.3142 153.495 15.2645 153.393 15.1984 153.311C15.1322 153.226 15.0519 153.161 14.9574 153.116C14.8653 153.071 14.7601 153.048 14.642 153.048C14.4742 153.048 14.336 153.08 14.2273 153.144C14.1187 153.206 14.0383 153.291 13.9864 153.399C13.9367 153.508 13.9119 153.632 13.9119 153.771C13.9119 153.906 13.9379 154.024 13.9899 154.126C14.0419 154.227 14.1305 154.32 14.2557 154.402C14.3833 154.483 14.5581 154.564 14.7802 154.647C15.085 154.755 15.3484 154.877 15.5705 155.012C15.795 155.144 15.9674 155.308 16.0879 155.504C16.2108 155.698 16.2722 155.943 16.2722 156.238C16.2722 156.543 16.2013 156.802 16.0596 157.014C15.9202 157.227 15.7241 157.389 15.4713 157.5C15.2208 157.608 14.9291 157.663 14.5959 157.663C14.3856 157.663 14.1765 157.636 13.9686 157.581C13.7631 157.525 13.5764 157.432 13.4087 157.305C13.2409 157.177 13.1075 157.008 13.0082 156.798C12.909 156.585 12.8594 156.325 12.8594 156.018H13.717C13.717 156.203 13.7418 156.356 13.7914 156.479C13.8411 156.602 13.9084 156.699 13.9934 156.77C14.0785 156.841 14.173 156.891 14.277 156.922C14.3833 156.953 14.4896 156.968 14.5959 156.968C14.7731 156.968 14.922 156.939 15.0425 156.88C15.1653 156.818 15.2575 156.733 15.3189 156.624C15.3827 156.513 15.4146 156.387 15.4146 156.245Z" fill="#9C9C9C"/>
<path d="M28.6345 130.209V131.052C28.6345 131.456 28.5943 131.801 28.514 132.087C28.436 132.371 28.3226 132.601 28.1738 132.778C28.0249 132.955 27.8465 133.085 27.6386 133.168C27.4331 133.251 27.2027 133.292 26.9476 133.292C26.7444 133.292 26.5554 133.266 26.3805 133.214C26.2081 133.162 26.0521 133.081 25.9127 132.97C25.7733 132.858 25.654 132.716 25.5548 132.541C25.4579 132.363 25.3823 132.152 25.328 131.906C25.276 131.661 25.25 131.376 25.25 131.052V130.209C25.25 129.802 25.2902 129.46 25.3705 129.181C25.4508 128.9 25.5654 128.672 25.7143 128.497C25.8631 128.32 26.0403 128.191 26.2459 128.111C26.4538 128.03 26.6853 127.99 26.9405 127.99C27.146 127.99 27.335 128.016 27.5075 128.068C27.6823 128.118 27.8383 128.197 27.9753 128.306C28.1147 128.414 28.2328 128.556 28.3297 128.731C28.4289 128.903 28.5045 129.112 28.5565 129.358C28.6085 129.602 28.6345 129.885 28.6345 130.209ZM27.7804 131.173V130.081C27.7804 129.876 27.7686 129.695 27.745 129.539C27.7213 129.381 27.6859 129.247 27.6386 129.138C27.5937 129.027 27.537 128.938 27.4685 128.869C27.4 128.798 27.322 128.747 27.2346 128.717C27.1472 128.684 27.0492 128.667 26.9405 128.667C26.8082 128.667 26.69 128.693 26.5861 128.745C26.4821 128.795 26.3947 128.875 26.3238 128.986C26.2529 129.097 26.1986 129.244 26.1608 129.426C26.1254 129.605 26.1076 129.824 26.1076 130.081V131.173C26.1076 131.381 26.1195 131.564 26.1431 131.722C26.1667 131.88 26.2021 132.016 26.2494 132.13C26.2967 132.241 26.3534 132.333 26.4195 132.406C26.488 132.477 26.566 132.529 26.6534 132.562C26.7432 132.595 26.8412 132.612 26.9476 132.612C27.0822 132.612 27.2015 132.586 27.3055 132.534C27.4095 132.482 27.4969 132.399 27.5678 132.286C27.6386 132.17 27.6918 132.02 27.7272 131.835C27.7627 131.651 27.7804 131.43 27.7804 131.173Z" fill="#9C9C9C"/>
<path d="M24.5095 130.209V131.052C24.5095 131.456 24.4693 131.801 24.389 132.087C24.311 132.371 24.1976 132.601 24.0488 132.778C23.8999 132.955 23.7215 133.085 23.5136 133.168C23.3081 133.251 23.0777 133.292 22.8226 133.292C22.6194 133.292 22.4304 133.266 22.2555 133.214C22.0831 133.162 21.9271 133.081 21.7877 132.97C21.6483 132.858 21.529 132.716 21.4298 132.541C21.3329 132.363 21.2573 132.152 21.203 131.906C21.151 131.661 21.125 131.376 21.125 131.052V130.209C21.125 129.802 21.1652 129.46 21.2455 129.181C21.3258 128.9 21.4404 128.672 21.5893 128.497C21.7381 128.32 21.9153 128.191 22.1209 128.111C22.3288 128.03 22.5603 127.99 22.8155 127.99C23.021 127.99 23.21 128.016 23.3825 128.068C23.5573 128.118 23.7133 128.197 23.8503 128.306C23.9897 128.414 24.1078 128.556 24.2047 128.731C24.3039 128.903 24.3795 129.112 24.4315 129.358C24.4835 129.602 24.5095 129.885 24.5095 130.209ZM23.6554 131.173V130.081C23.6554 129.876 23.6436 129.695 23.62 129.539C23.5963 129.381 23.5609 129.247 23.5136 129.138C23.4687 129.027 23.412 128.938 23.3435 128.869C23.275 128.798 23.197 128.747 23.1096 128.717C23.0222 128.684 22.9242 128.667 22.8155 128.667C22.6832 128.667 22.565 128.693 22.4611 128.745C22.3571 128.795 22.2697 128.875 22.1988 128.986C22.1279 129.097 22.0736 129.244 22.0358 129.426C22.0004 129.605 21.9826 129.824 21.9826 130.081V131.173C21.9826 131.381 21.9945 131.564 22.0181 131.722C22.0417 131.88 22.0771 132.016 22.1244 132.13C22.1717 132.241 22.2284 132.333 22.2945 132.406C22.363 132.477 22.441 132.529 22.5284 132.562C22.6182 132.595 22.7162 132.612 22.8226 132.612C22.9572 132.612 23.0765 132.586 23.1805 132.534C23.2845 132.482 23.3719 132.399 23.4428 132.286C23.5136 132.17 23.5668 132.02 23.6022 131.835C23.6377 131.651 23.6554 131.43 23.6554 131.173Z" fill="#9C9C9C"/>
<path d="M19.3537 128.04V133.217H18.4996V129.053L17.2344 129.482V128.777L19.2509 128.04H19.3537Z" fill="#9C9C9C"/>
<path d="M14.9468 127.233V128.293H14.401V127.233H14.9468ZM14.8794 133.02V133.97H14.3372V133.02H14.8794ZM15.4146 131.876C15.4146 131.738 15.3862 131.619 15.3295 131.518C15.2752 131.414 15.1854 131.32 15.0602 131.238C14.935 131.153 14.7672 131.073 14.5569 131C14.2545 130.894 13.9899 130.775 13.7631 130.642C13.5386 130.508 13.3638 130.342 13.2386 130.146C13.1157 129.948 13.0543 129.701 13.0543 129.405C13.0543 129.115 13.1204 128.863 13.2528 128.65C13.3874 128.438 13.5741 128.274 13.8127 128.158C14.0513 128.042 14.3301 127.984 14.6491 127.984C14.8948 127.984 15.1157 128.021 15.3118 128.094C15.5103 128.167 15.6792 128.275 15.8186 128.417C15.958 128.558 16.0643 128.733 16.1375 128.941C16.2131 129.147 16.2509 129.383 16.2509 129.65H15.4004C15.4004 129.499 15.3827 129.364 15.3472 129.246C15.3142 129.125 15.2645 129.024 15.1984 128.941C15.1322 128.856 15.0519 128.791 14.9574 128.746C14.8653 128.701 14.7601 128.679 14.642 128.679C14.4742 128.679 14.336 128.711 14.2273 128.775C14.1187 128.836 14.0383 128.921 13.9864 129.03C13.9367 129.138 13.9119 129.262 13.9119 129.402C13.9119 129.536 13.9379 129.655 13.9899 129.756C14.0419 129.858 14.1305 129.95 14.2557 130.033C14.3833 130.113 14.5581 130.194 14.7802 130.277C15.085 130.386 15.3484 130.508 15.5705 130.642C15.795 130.775 15.9674 130.939 16.0879 131.135C16.2108 131.329 16.2722 131.573 16.2722 131.868C16.2722 132.173 16.2013 132.432 16.0596 132.645C15.9202 132.857 15.7241 133.019 15.4713 133.13C15.2208 133.239 14.9291 133.293 14.5959 133.293C14.3856 133.293 14.1765 133.266 13.9686 133.212C13.7631 133.155 13.5764 133.063 13.4087 132.935C13.2409 132.808 13.1075 132.639 13.0082 132.428C12.909 132.216 12.8594 131.956 12.8594 131.649H13.717C13.717 131.833 13.7418 131.987 13.7914 132.109C13.8411 132.232 13.9084 132.329 13.9934 132.4C14.0785 132.471 14.173 132.522 14.277 132.552C14.3833 132.583 14.4896 132.598 14.5959 132.598C14.7731 132.598 14.922 132.569 15.0425 132.51C15.1653 132.448 15.2575 132.363 15.3189 132.255C15.3827 132.144 15.4146 132.017 15.4146 131.876Z" fill="#9C9C9C"/>
<path d="M28.6345 105.837V106.68C28.6345 107.084 28.5943 107.429 28.514 107.715C28.436 107.999 28.3226 108.229 28.1738 108.406C28.0249 108.583 27.8465 108.713 27.6386 108.796C27.4331 108.879 27.2027 108.92 26.9476 108.92C26.7444 108.92 26.5554 108.894 26.3805 108.842C26.2081 108.79 26.0521 108.708 25.9127 108.597C25.7733 108.486 25.654 108.343 25.5548 108.169C25.4579 107.991 25.3823 107.78 25.328 107.534C25.276 107.289 25.25 107.004 25.25 106.68V105.837C25.25 105.43 25.2902 105.088 25.3705 104.809C25.4508 104.528 25.5654 104.3 25.7143 104.125C25.8631 103.948 26.0403 103.819 26.2459 103.739C26.4538 103.658 26.6853 103.618 26.9405 103.618C27.146 103.618 27.335 103.644 27.5075 103.696C27.6823 103.746 27.8383 103.825 27.9753 103.934C28.1147 104.042 28.2328 104.184 28.3297 104.359C28.4289 104.531 28.5045 104.74 28.5565 104.986C28.6085 105.229 28.6345 105.513 28.6345 105.837ZM27.7804 106.801V105.709C27.7804 105.504 27.7686 105.323 27.745 105.167C27.7213 105.009 27.6859 104.875 27.6386 104.766C27.5937 104.655 27.537 104.566 27.4685 104.497C27.4 104.426 27.322 104.375 27.2346 104.345C27.1472 104.312 27.0492 104.295 26.9405 104.295C26.8082 104.295 26.69 104.321 26.5861 104.373C26.4821 104.423 26.3947 104.503 26.3238 104.614C26.2529 104.725 26.1986 104.872 26.1608 105.053C26.1254 105.233 26.1076 105.452 26.1076 105.709V106.801C26.1076 107.009 26.1195 107.192 26.1431 107.35C26.1667 107.508 26.2021 107.644 26.2494 107.758C26.2967 107.869 26.3534 107.961 26.4195 108.034C26.488 108.105 26.566 108.157 26.6534 108.19C26.7432 108.223 26.8412 108.239 26.9476 108.239C27.0822 108.239 27.2015 108.214 27.3055 108.162C27.4095 108.11 27.4969 108.027 27.5678 107.913C27.6386 107.798 27.6918 107.648 27.7272 107.463C27.7627 107.279 27.7804 107.058 27.7804 106.801Z" fill="#9C9C9C"/>
<path d="M24.5095 105.837V106.68C24.5095 107.084 24.4693 107.429 24.389 107.715C24.311 107.999 24.1976 108.229 24.0488 108.406C23.8999 108.583 23.7215 108.713 23.5136 108.796C23.3081 108.879 23.0777 108.92 22.8226 108.92C22.6194 108.92 22.4304 108.894 22.2555 108.842C22.0831 108.79 21.9271 108.708 21.7877 108.597C21.6483 108.486 21.529 108.343 21.4298 108.169C21.3329 107.991 21.2573 107.78 21.203 107.534C21.151 107.289 21.125 107.004 21.125 106.68V105.837C21.125 105.43 21.1652 105.088 21.2455 104.809C21.3258 104.528 21.4404 104.3 21.5893 104.125C21.7381 103.948 21.9153 103.819 22.1209 103.739C22.3288 103.658 22.5603 103.618 22.8155 103.618C23.021 103.618 23.21 103.644 23.3825 103.696C23.5573 103.746 23.7133 103.825 23.8503 103.934C23.9897 104.042 24.1078 104.184 24.2047 104.359C24.3039 104.531 24.3795 104.74 24.4315 104.986C24.4835 105.229 24.5095 105.513 24.5095 105.837ZM23.6554 106.801V105.709C23.6554 105.504 23.6436 105.323 23.62 105.167C23.5963 105.009 23.5609 104.875 23.5136 104.766C23.4687 104.655 23.412 104.566 23.3435 104.497C23.275 104.426 23.197 104.375 23.1096 104.345C23.0222 104.312 22.9242 104.295 22.8155 104.295C22.6832 104.295 22.565 104.321 22.4611 104.373C22.3571 104.423 22.2697 104.503 22.1988 104.614C22.1279 104.725 22.0736 104.872 22.0358 105.053C22.0004 105.233 21.9826 105.452 21.9826 105.709V106.801C21.9826 107.009 21.9945 107.192 22.0181 107.35C22.0417 107.508 22.0771 107.644 22.1244 107.758C22.1717 107.869 22.2284 107.961 22.2945 108.034C22.363 108.105 22.441 108.157 22.5284 108.19C22.6182 108.223 22.7162 108.239 22.8226 108.239C22.9572 108.239 23.0765 108.214 23.1805 108.162C23.2845 108.11 23.3719 108.027 23.4428 107.913C23.5136 107.798 23.5668 107.648 23.6022 107.463C23.6377 107.279 23.6554 107.058 23.6554 106.801Z" fill="#9C9C9C"/>
<path d="M17.9145 106.449L17.2341 106.283L17.514 103.688H20.296V104.411H18.2228L18.0811 105.677C18.1614 105.629 18.2724 105.583 18.4142 105.538C18.556 105.491 18.7178 105.468 18.8997 105.468C19.1431 105.468 19.3604 105.508 19.5518 105.588C19.7455 105.666 19.9098 105.781 20.0444 105.932C20.1791 106.081 20.2819 106.263 20.3527 106.478C20.4236 106.69 20.4591 106.93 20.4591 107.197C20.4591 107.436 20.4236 107.659 20.3527 107.867C20.2842 108.075 20.1803 108.258 20.0409 108.416C19.9015 108.574 19.7255 108.698 19.5128 108.788C19.3026 108.876 19.0533 108.919 18.7651 108.919C18.5501 108.919 18.3433 108.889 18.1449 108.827C17.9488 108.763 17.7727 108.67 17.6168 108.547C17.4609 108.422 17.3357 108.268 17.2411 108.087C17.1466 107.902 17.0923 107.691 17.0781 107.452H17.9145C17.9358 107.62 17.9818 107.763 18.0527 107.881C18.126 107.997 18.2228 108.085 18.3433 108.147C18.4638 108.208 18.6032 108.239 18.7615 108.239C18.9056 108.239 19.0297 108.214 19.1336 108.165C19.2376 108.113 19.3238 108.039 19.3923 107.945C19.4632 107.848 19.5152 107.735 19.5483 107.605C19.5837 107.475 19.6014 107.33 19.6014 107.172C19.6014 107.021 19.5813 106.883 19.5412 106.758C19.5034 106.632 19.4455 106.524 19.3675 106.432C19.2919 106.339 19.1962 106.268 19.0805 106.219C18.9647 106.167 18.8312 106.141 18.68 106.141C18.4768 106.141 18.3209 106.17 18.2122 106.229C18.1059 106.289 18.0066 106.362 17.9145 106.449Z" fill="#9C9C9C"/>
<path d="M14.9468 102.864V103.924H14.401V102.864H14.9468ZM14.8794 108.652V109.601H14.3372V108.652H14.8794ZM15.4146 107.507C15.4146 107.37 15.3862 107.251 15.3295 107.149C15.2752 107.045 15.1854 106.952 15.0602 106.869C14.935 106.784 14.7672 106.705 14.5569 106.631C14.2545 106.525 13.9899 106.406 13.7631 106.274C13.5386 106.139 13.3638 105.973 13.2386 105.777C13.1157 105.579 13.0543 105.332 13.0543 105.037C13.0543 104.746 13.1204 104.494 13.2528 104.282C13.3874 104.069 13.5741 103.905 13.8127 103.789C14.0513 103.673 14.3301 103.616 14.6491 103.616C14.8948 103.616 15.1157 103.652 15.3118 103.725C15.5103 103.799 15.6792 103.906 15.8186 104.048C15.958 104.19 16.0643 104.365 16.1375 104.572C16.2131 104.778 16.2509 105.014 16.2509 105.281H15.4004C15.4004 105.13 15.3827 104.995 15.3472 104.877C15.3142 104.757 15.2645 104.655 15.1984 104.572C15.1322 104.487 15.0519 104.422 14.9574 104.378C14.8653 104.333 14.7601 104.31 14.642 104.31C14.4742 104.31 14.336 104.342 14.2273 104.406C14.1187 104.467 14.0383 104.552 13.9864 104.661C13.9367 104.77 13.9119 104.894 13.9119 105.033C13.9119 105.168 13.9379 105.286 13.9899 105.388C14.0419 105.489 14.1305 105.581 14.2557 105.664C14.3833 105.744 14.5581 105.826 14.7802 105.909C15.085 106.017 15.3484 106.139 15.5705 106.274C15.795 106.406 15.9674 106.57 16.0879 106.766C16.2108 106.96 16.2722 107.204 16.2722 107.5C16.2722 107.805 16.2013 108.063 16.0596 108.276C15.9202 108.489 15.7241 108.65 15.4713 108.761C15.2208 108.87 14.9291 108.924 14.5959 108.924C14.3856 108.924 14.1765 108.897 13.9686 108.843C13.7631 108.786 13.5764 108.694 13.4087 108.566C13.2409 108.439 13.1075 108.27 13.0082 108.06C12.909 107.847 12.8594 107.587 12.8594 107.28H13.717C13.717 107.464 13.7418 107.618 13.7914 107.741C13.8411 107.864 13.9084 107.96 13.9934 108.031C14.0785 108.102 14.173 108.153 14.277 108.184C14.3833 108.214 14.4896 108.23 14.5959 108.23C14.7731 108.23 14.922 108.2 15.0425 108.141C15.1653 108.08 15.2575 107.995 15.3189 107.886C15.3827 107.775 15.4146 107.649 15.4146 107.507Z" fill="#9C9C9C"/>
<path d="M28.6345 81.4671V82.3105C28.6345 82.7145 28.5943 83.0595 28.514 83.3454C28.436 83.6289 28.3226 83.8592 28.1738 84.0364C28.0249 84.2136 27.8465 84.3436 27.6386 84.4263C27.4331 84.509 27.2027 84.5503 26.9476 84.5503C26.7444 84.5503 26.5554 84.5243 26.3805 84.4723C26.2081 84.4204 26.0521 84.3388 25.9127 84.2278C25.7733 84.1168 25.654 83.9738 25.5548 83.799C25.4579 83.6218 25.3823 83.4103 25.328 83.1646C25.276 82.9189 25.25 82.6342 25.25 82.3105V81.4671C25.25 81.0607 25.2902 80.7181 25.3705 80.4393C25.4508 80.1582 25.5654 79.9302 25.7143 79.7553C25.8631 79.5781 26.0403 79.4494 26.2459 79.369C26.4538 79.2887 26.6853 79.2485 26.9405 79.2485C27.146 79.2485 27.335 79.2745 27.5075 79.3265C27.6823 79.3761 27.8383 79.4553 27.9753 79.5639C28.1147 79.6726 28.2328 79.8144 28.3297 79.9892C28.4289 80.1617 28.5045 80.3708 28.5565 80.6165C28.6085 80.8599 28.6345 81.1434 28.6345 81.4671ZM27.7804 82.431V81.3395C27.7804 81.1339 27.7686 80.9532 27.745 80.7972C27.7213 80.639 27.6859 80.5055 27.6386 80.3968C27.5937 80.2857 27.537 80.196 27.4685 80.1274C27.4 80.0566 27.322 80.0058 27.2346 79.975C27.1472 79.942 27.0492 79.9254 26.9405 79.9254C26.8082 79.9254 26.69 79.9514 26.5861 80.0034C26.4821 80.053 26.3947 80.1333 26.3238 80.2444C26.2529 80.3554 26.1986 80.5019 26.1608 80.6838C26.1254 80.8634 26.1076 81.0819 26.1076 81.3395V82.431C26.1076 82.6389 26.1195 82.822 26.1431 82.9803C26.1667 83.1386 26.2021 83.2745 26.2494 83.3879C26.2967 83.4989 26.3534 83.5911 26.4195 83.6643C26.488 83.7352 26.566 83.7872 26.6534 83.8202C26.7432 83.8533 26.8412 83.8699 26.9476 83.8699C27.0822 83.8699 27.2015 83.8439 27.3055 83.7919C27.4095 83.7399 27.4969 83.6572 27.5678 83.5438C27.6386 83.4281 27.6918 83.278 27.7272 83.0937C27.7627 82.9095 27.7804 82.6885 27.7804 82.431Z" fill="#9C9C9C"/>
<path d="M24.5095 81.4671V82.3105C24.5095 82.7145 24.4693 83.0595 24.389 83.3454C24.311 83.6289 24.1976 83.8592 24.0488 84.0364C23.8999 84.2136 23.7215 84.3436 23.5136 84.4263C23.3081 84.509 23.0777 84.5503 22.8226 84.5503C22.6194 84.5503 22.4304 84.5243 22.2555 84.4723C22.0831 84.4204 21.9271 84.3388 21.7877 84.2278C21.6483 84.1168 21.529 83.9738 21.4298 83.799C21.3329 83.6218 21.2573 83.4103 21.203 83.1646C21.151 82.9189 21.125 82.6342 21.125 82.3105V81.4671C21.125 81.0607 21.1652 80.7181 21.2455 80.4393C21.3258 80.1582 21.4404 79.9302 21.5893 79.7553C21.7381 79.5781 21.9153 79.4494 22.1209 79.369C22.3288 79.2887 22.5603 79.2485 22.8155 79.2485C23.021 79.2485 23.21 79.2745 23.3825 79.3265C23.5573 79.3761 23.7133 79.4553 23.8503 79.5639C23.9897 79.6726 24.1078 79.8144 24.2047 79.9892C24.3039 80.1617 24.3795 80.3708 24.4315 80.6165C24.4835 80.8599 24.5095 81.1434 24.5095 81.4671ZM23.6554 82.431V81.3395C23.6554 81.1339 23.6436 80.9532 23.62 80.7972C23.5963 80.639 23.5609 80.5055 23.5136 80.3968C23.4687 80.2857 23.412 80.196 23.3435 80.1274C23.275 80.0566 23.197 80.0058 23.1096 79.975C23.0222 79.942 22.9242 79.9254 22.8155 79.9254C22.6832 79.9254 22.565 79.9514 22.4611 80.0034C22.3571 80.053 22.2697 80.1333 22.1988 80.2444C22.1279 80.3554 22.0736 80.5019 22.0358 80.6838C22.0004 80.8634 21.9826 81.0819 21.9826 81.3395V82.431C21.9826 82.6389 21.9945 82.822 22.0181 82.9803C22.0417 83.1386 22.0771 83.2745 22.1244 83.3879C22.1717 83.4989 22.2284 83.5911 22.2945 83.6643C22.363 83.7352 22.441 83.7872 22.5284 83.8202C22.6182 83.8533 22.7162 83.8699 22.8226 83.8699C22.9572 83.8699 23.0765 83.8439 23.1805 83.7919C23.2845 83.7399 23.3719 83.6572 23.4428 83.5438C23.5136 83.4281 23.5668 83.278 23.6022 83.0937C23.6377 82.9095 23.6554 82.6885 23.6554 82.431Z" fill="#9C9C9C"/>
<path d="M20.4509 79.3188V79.7867L18.3883 84.4789H17.4881L19.5471 79.9993H16.875V79.3188H20.4509Z" fill="#9C9C9C"/>
<path d="M14.9468 78.4946V79.5543H14.401V78.4946H14.9468ZM14.8794 84.2819V85.2317H14.3372V84.2819H14.8794ZM15.4146 83.1372C15.4146 83.0002 15.3862 82.8809 15.3295 82.7793C15.2752 82.6753 15.1854 82.582 15.0602 82.4993C14.935 82.4143 14.7672 82.3351 14.5569 82.2619C14.2545 82.1555 13.9899 82.0362 13.7631 81.9039C13.5386 81.7693 13.3638 81.6039 13.2386 81.4078C13.1157 81.2093 13.0543 80.9624 13.0543 80.6671C13.0543 80.3765 13.1204 80.1249 13.2528 79.9122C13.3874 79.6996 13.5741 79.5354 13.8127 79.4196C14.0513 79.3038 14.3301 79.2459 14.6491 79.2459C14.8948 79.2459 15.1157 79.2826 15.3118 79.3558C15.5103 79.4291 15.6792 79.5366 15.8186 79.6783C15.958 79.8201 16.0643 79.9949 16.1375 80.2028C16.2131 80.4084 16.2509 80.6446 16.2509 80.9116H15.4004C15.4004 80.7604 15.3827 80.6257 15.3472 80.5076C15.3142 80.3871 15.2645 80.2855 15.1984 80.2028C15.1322 80.1178 15.0519 80.0528 14.9574 80.0079C14.8653 79.963 14.7601 79.9406 14.642 79.9406C14.4742 79.9406 14.336 79.9725 14.2273 80.0363C14.1187 80.0977 14.0383 80.1827 13.9864 80.2914C13.9367 80.4001 13.9119 80.5241 13.9119 80.6635C13.9119 80.7982 13.9379 80.9163 13.9899 81.0179C14.0419 81.1195 14.1305 81.2117 14.2557 81.2944C14.3833 81.3747 14.5581 81.4562 14.7802 81.5389C15.085 81.6476 15.3484 81.7693 15.5705 81.9039C15.795 82.0362 15.9674 82.2004 16.0879 82.3965C16.2108 82.5903 16.2722 82.8348 16.2722 83.1301C16.2722 83.4349 16.2013 83.6936 16.0596 83.9063C15.9202 84.1189 15.7241 84.2807 15.4713 84.3918C15.2208 84.5005 14.9291 84.5548 14.5959 84.5548C14.3856 84.5548 14.1765 84.5276 13.9686 84.4733C13.7631 84.4166 13.5764 84.3245 13.4087 84.1969C13.2409 84.0693 13.1075 83.9004 13.0082 83.6901C12.909 83.4774 12.8594 83.2176 12.8594 82.9104H13.717C13.717 83.0947 13.7418 83.2483 13.7914 83.3711C13.8411 83.494 13.9084 83.5908 13.9934 83.6617C14.0785 83.7326 14.173 83.7834 14.277 83.8141C14.3833 83.8448 14.4896 83.8602 14.5959 83.8602C14.7731 83.8602 14.922 83.8307 15.0425 83.7716C15.1653 83.7102 15.2575 83.6251 15.3189 83.5164C15.3827 83.4054 15.4146 83.279 15.4146 83.1372Z" fill="#9C9C9C"/>
<path d="M22.0608 54.6675V60.111H21.2031V54.6675H22.0608ZM24.4423 56.2764L22.7731 58.1264L21.8588 59.062L21.6355 58.339L22.3266 57.4849L23.411 56.2764H24.4423ZM23.5953 60.111L22.3514 58.3107L22.8901 57.7117L24.5841 60.111H23.5953Z" fill="#9C9C9C"/>
<path d="M19.3537 54.9351V60.1128H18.4996V55.9486L17.2344 56.3775V55.6722L19.2509 54.9351H19.3537Z" fill="#9C9C9C"/>
<path d="M14.9468 54.125V55.1846H14.401V54.125H14.9468ZM14.8794 59.9123V60.8621H14.3372V59.9123H14.8794ZM15.4146 58.7676C15.4146 58.6306 15.3862 58.5112 15.3295 58.4097C15.2752 58.3057 15.1854 58.2124 15.0602 58.1297C14.935 58.0446 14.7672 57.9655 14.5569 57.8922C14.2545 57.7859 13.9899 57.6666 13.7631 57.5343C13.5386 57.3996 13.3638 57.2342 13.2386 57.0381C13.1157 56.8397 13.0543 56.5928 13.0543 56.2975C13.0543 56.0068 13.1204 55.7552 13.2528 55.5426C13.3874 55.3299 13.5741 55.1657 13.8127 55.05C14.0513 54.9342 14.3301 54.8763 14.6491 54.8763C14.8948 54.8763 15.1157 54.9129 15.3118 54.9862C15.5103 55.0594 15.6792 55.1669 15.8186 55.3087C15.958 55.4504 16.0643 55.6253 16.1375 55.8332C16.2131 56.0387 16.2509 56.275 16.2509 56.542H15.4004C15.4004 56.3908 15.3827 56.2561 15.3472 56.138C15.3142 56.0175 15.2645 55.9159 15.1984 55.8332C15.1322 55.7481 15.0519 55.6832 14.9574 55.6383C14.8653 55.5934 14.7601 55.5709 14.642 55.5709C14.4742 55.5709 14.336 55.6028 14.2273 55.6666C14.1187 55.7281 14.0383 55.8131 13.9864 55.9218C13.9367 56.0305 13.9119 56.1545 13.9119 56.2939C13.9119 56.4286 13.9379 56.5467 13.9899 56.6483C14.0419 56.7499 14.1305 56.842 14.2557 56.9247C14.3833 57.0051 14.5581 57.0866 14.7802 57.1693C15.085 57.2779 15.3484 57.3996 15.5705 57.5343C15.795 57.6666 15.9674 57.8308 16.0879 58.0269C16.2108 58.2206 16.2722 58.4652 16.2722 58.7605C16.2722 59.0653 16.2013 59.324 16.0596 59.5366C15.9202 59.7493 15.7241 59.9111 15.4713 60.0222C15.2208 60.1308 14.9291 60.1852 14.5959 60.1852C14.3856 60.1852 14.1765 60.158 13.9686 60.1037C13.7631 60.047 13.5764 59.9548 13.4087 59.8272C13.2409 59.6997 13.1075 59.5307 13.0082 59.3205C12.909 59.1078 12.8594 58.8479 12.8594 58.5408H13.717C13.717 58.7251 13.7418 58.8786 13.7914 59.0015C13.8411 59.1244 13.9084 59.2212 13.9934 59.2921C14.0785 59.363 14.173 59.4138 14.277 59.4445C14.3833 59.4752 14.4896 59.4906 14.5959 59.4906C14.7731 59.4906 14.922 59.461 15.0425 59.402C15.1653 59.3405 15.2575 59.2555 15.3189 59.1468C15.3827 59.0358 15.4146 58.9094 15.4146 58.7676Z" fill="#9C9C9C"/>
<path fill-rule="evenodd" clip-rule="evenodd" d="M179.025 96.5298C176.394 96.2691 173.739 97.3747 171.055 99.8515L170.912 99.6918L171.055 99.8516C169.028 101.722 167.002 104.355 164.962 107.007C164.292 107.879 163.62 108.752 162.946 109.602C161.589 111.311 160.225 112.919 158.858 114.191C157.492 115.461 156.106 116.413 154.701 116.789C153.292 117.167 151.892 116.959 150.515 116.494C149.33 116.094 148.146 115.497 146.977 114.909C146.792 114.816 146.607 114.723 146.423 114.631C143.698 113.271 141.083 112.143 138.478 113.473C137.175 114.139 135.846 115.696 134.489 117.601C133.814 118.548 133.139 119.572 132.461 120.6L132.448 120.619C131.775 121.639 131.1 122.664 130.424 123.615C129.07 125.518 127.688 127.167 126.281 127.897C125.57 128.267 124.839 128.409 124.099 128.218C123.363 128.029 122.649 127.517 121.953 126.643C121.242 125.75 120.572 125.203 119.933 124.888C119.297 124.574 118.679 124.486 118.062 124.528C117.441 124.571 116.819 124.746 116.174 124.964C115.966 125.034 115.753 125.11 115.538 125.186C115.096 125.344 114.642 125.505 114.185 125.636C111.178 126.497 108.345 125.461 105.885 124.563C105.555 124.442 105.232 124.324 104.916 124.213C103.563 123.739 102.355 123.402 101.284 123.52C100.235 123.635 99.2904 124.189 98.4686 125.574L98.2869 125.463L98.4686 125.575C97.0834 127.909 95.6981 130.758 94.3077 133.617C94.2469 133.742 94.1862 133.866 94.1255 133.991C92.6764 136.97 91.2214 139.936 89.7634 142.294C87.0465 146.694 84.2872 149.035 81.4706 149.274C78.6451 149.513 75.8715 147.63 73.1481 143.869L73.1481 143.869C67.7292 136.38 62.3092 128.964 56.8901 122.244L56.8901 122.244C53.7338 118.327 50.5986 117.354 48.0264 117.379C45.0967 117.408 42.7066 119.463 40.9531 121.773L40.6172 121.509C42.3942 119.169 44.8924 116.979 48.0222 116.947H48.0223C50.7288 116.921 53.9841 117.957 57.2183 121.97C62.6452 128.7 68.0712 136.124 73.4898 143.613C76.1895 147.341 78.8389 149.064 81.4353 148.844C84.0407 148.623 86.7022 146.44 89.4041 142.065L89.4041 142.065C90.8485 139.729 92.2939 136.783 93.7451 133.8C93.807 133.673 93.869 133.546 93.9309 133.418C95.3182 130.565 96.7106 127.702 98.1052 125.352C98.985 123.869 100.039 123.222 101.238 123.091C102.415 122.962 103.705 123.333 105.054 123.805C105.377 123.919 105.705 124.038 106.036 124.159C108.507 125.059 111.203 126.041 114.07 125.221C114.515 125.094 114.947 124.94 115.381 124.785C115.599 124.708 115.818 124.63 116.04 124.555C116.693 124.334 117.357 124.144 118.033 124.098C118.714 124.051 119.407 124.149 120.118 124.5C120.828 124.849 121.544 125.444 122.283 126.371L122.118 126.507L122.283 126.371C122.942 127.201 123.584 127.641 124.203 127.8C124.819 127.959 125.444 127.848 126.088 127.513C127.393 126.836 128.722 125.271 130.08 123.362C130.751 122.417 131.423 121.398 132.098 120.375L132.108 120.36C132.786 119.333 133.465 118.302 134.146 117.348C135.499 115.448 136.881 113.807 138.287 113.088L138.287 113.088C141.105 111.649 143.913 112.898 146.61 114.244C146.796 114.337 146.983 114.43 147.168 114.524C148.34 115.113 149.495 115.694 150.649 116.084C151.983 116.535 153.293 116.721 154.593 116.372L154.647 116.581L154.593 116.372C155.9 116.022 157.226 115.124 158.571 113.873C159.915 112.623 161.262 111.036 162.616 109.331C163.278 108.496 163.943 107.632 164.608 106.767C166.654 104.107 168.713 101.43 170.769 99.5321C173.508 97.0049 176.276 95.8241 179.066 96.1004C181.852 96.3764 184.608 98.1001 187.336 101.267C190.063 104.43 192.785 109.059 195.493 113.713C195.585 113.871 195.677 114.029 195.769 114.187C198.391 118.693 201 123.179 203.605 126.387C206.295 129.698 208.98 131.513 211.323 132.576C213.311 133.478 215.054 133.84 216.37 134.113C216.608 134.163 216.831 134.209 217.04 134.255L219.751 134.855L219.661 135.277L216.95 134.677L216.995 134.466L216.95 134.677C216.746 134.632 216.526 134.586 216.291 134.538C214.975 134.264 213.184 133.893 211.15 132.97C208.749 131.88 206.011 130.025 203.278 126.662L203.442 126.524L203.278 126.662C200.651 123.427 198.027 118.915 195.414 114.423L195.128 113.932C192.414 109.269 189.713 104.678 187.017 101.551L187.177 101.409L187.017 101.551C184.326 98.4278 181.662 96.7909 179.025 96.5298Z" fill="#EF6E59" stroke="#EF6E59" stroke-width="0.90175" stroke-miterlimit="10"/>
<path d="M219.743 148.132L214.866 147.54C212.186 146.948 206.823 145.769 201.461 139.18C196.098 132.592 190.739 120.596 185.376 114.386C180.013 108.177 174.65 107.751 169.292 112.691C163.929 117.631 158.57 127.929 153.208 129.364C147.845 130.799 142.486 123.368 137.123 126.106C131.76 128.84 126.402 141.744 121.039 135.015C115.676 128.287 110.313 101.93 104.955 97.2749C99.5917 92.6244 94.2331 109.681 88.8702 118.343C83.5073 127.005 78.1487 127.277 72.7859 119.884C67.423 112.491 62.0644 97.4368 56.7015 90.7975C51.3387 84.1581 45.9801 85.9298 43.2965 86.8156L40.6172 87.7014V162.812H219.751V148.128L219.743 148.132Z" fill="url(#paint0_linear_1072_21046)"/>
<path fill-rule="evenodd" clip-rule="evenodd" d="M49.302 86.6592C47.0365 86.3942 45.0892 87.03 43.7473 87.4706L41.0655 88.3512C40.8866 88.41 40.6937 88.3136 40.6345 88.136C40.5754 87.9584 40.6724 87.7668 40.8513 87.7081L43.5445 86.8237C44.8849 86.3835 46.9576 85.7029 49.3818 85.9865C51.8288 86.2727 54.5903 87.5341 57.3235 90.8949C60.0373 94.2319 62.7379 99.6653 65.4148 105.139C65.5372 105.389 65.6596 105.64 65.782 105.89C68.3469 111.139 70.8931 116.349 73.4339 119.826C76.1 123.477 78.6838 125.117 81.1805 124.907C83.6922 124.696 86.2966 122.602 88.9674 118.314C90.2991 116.178 91.6338 113.518 92.9763 110.788C93.1318 110.472 93.2873 110.155 93.4429 109.838C94.6282 107.421 95.8188 104.994 97.0101 102.891C98.3524 100.52 99.7207 98.5134 101.118 97.3949C101.821 96.8323 102.558 96.4721 103.325 96.4286C104.102 96.3846 104.857 96.6683 105.581 97.2916C106.295 97.9068 106.989 98.8609 107.667 100.045C108.347 101.234 109.024 102.678 109.698 104.29C111.045 107.515 112.39 111.444 113.731 115.426C113.865 115.826 114 116.226 114.135 116.627C115.342 120.217 116.546 123.798 117.75 126.912C119.092 130.384 120.418 133.23 121.724 134.857C122.371 135.663 122.999 136.152 123.604 136.408C124.203 136.662 124.8 136.696 125.406 136.559C126.644 136.278 127.925 135.282 129.264 133.93C130.109 133.076 130.946 132.113 131.792 131.141C132.283 130.576 132.777 130.008 133.278 129.456C134.619 127.976 135.997 126.62 137.402 125.909C140.259 124.463 143.1 125.726 145.76 127.043C145.946 127.135 146.131 127.227 146.315 127.319C147.475 127.897 148.609 128.463 149.742 128.843C151.048 129.28 152.316 129.456 153.568 129.123C154.831 128.787 156.124 127.923 157.45 126.7C158.772 125.48 160.1 123.929 161.439 122.256C162.089 121.444 162.743 120.601 163.399 119.756C165.427 117.141 167.477 114.497 169.525 112.625C172.252 110.13 175.027 108.947 177.84 109.223C180.644 109.499 183.401 111.218 186.114 114.338C188.823 117.453 191.522 122.008 194.2 126.572C194.288 126.722 194.377 126.873 194.465 127.023C197.064 131.453 199.644 135.852 202.22 138.995C207.507 145.446 212.771 146.603 215.431 147.186L220.296 147.772C220.483 147.795 220.617 147.964 220.594 148.149C220.571 148.335 220.401 148.467 220.214 148.445L215.316 147.854L215.3 147.851C212.582 147.255 207.129 146.059 201.691 139.423C199.08 136.238 196.476 131.798 193.891 127.39C193.797 127.231 193.704 127.072 193.611 126.913C190.923 122.333 188.257 117.838 185.598 114.781C182.943 111.728 180.334 110.149 177.772 109.897C175.219 109.646 172.628 110.707 169.987 113.123C167.986 114.952 165.989 117.527 163.97 120.13C163.307 120.985 162.642 121.842 161.973 122.678C160.629 124.357 159.275 125.941 157.914 127.196C156.556 128.448 155.166 129.399 153.745 129.777C152.315 130.157 150.9 129.945 149.524 129.484C148.341 129.089 147.159 128.499 146.003 127.921C145.82 127.83 145.638 127.739 145.456 127.649C142.75 126.31 140.223 125.241 137.712 126.513C136.432 127.161 135.127 128.428 133.785 129.909C133.305 130.438 132.82 130.996 132.332 131.557C131.474 132.543 130.608 133.538 129.75 134.405C128.405 135.764 127.004 136.891 125.558 137.219C124.823 137.386 124.078 137.346 123.336 137.031C122.599 136.719 121.885 136.146 121.19 135.279C119.812 133.561 118.454 130.623 117.113 127.155C115.903 124.026 114.694 120.43 113.488 116.843C113.353 116.442 113.218 116.041 113.084 115.64C111.742 111.656 110.404 107.749 109.067 104.55C108.399 102.95 107.735 101.535 107.073 100.38C106.41 99.2202 105.761 98.344 105.134 97.8033C104.515 97.2707 103.929 97.073 103.364 97.105C102.789 97.1375 102.185 97.4108 101.546 97.9223C100.26 98.9519 98.9453 100.855 97.6047 103.223C96.4241 105.308 95.243 107.715 94.0563 110.134C93.9007 110.451 93.7451 110.768 93.5894 111.085C92.2487 113.812 90.8999 116.501 89.5475 118.671C89.5475 118.671 89.5476 118.671 89.5475 118.671C86.8546 122.994 84.0933 125.342 81.238 125.582C78.3677 125.823 75.5836 123.924 72.8817 120.224C72.8817 120.224 72.8817 120.224 72.8817 120.224C70.3042 116.697 67.7342 111.437 65.1828 106.216C65.0555 105.955 64.9283 105.695 64.8011 105.435C62.1121 99.9365 59.4469 94.5841 56.7927 91.3205C54.1579 88.0806 51.5514 86.9224 49.302 86.6592Z" fill="#A1ED4C"/>
<path d="M153.568 129.123C152.316 129.456 151.048 129.28 149.742 128.843C148.609 128.463 147.475 127.897 146.315 127.319C146.131 127.227 145.946 127.135 145.76 127.043C143.1 125.726 140.259 124.463 137.402 125.909C135.997 126.62 134.619 127.976 133.278 129.456C132.777 130.008 132.283 130.576 131.792 131.141C130.946 132.113 130.109 133.076 129.264 133.93C127.925 135.282 126.644 136.278 125.406 136.559C124.8 136.696 124.203 136.662 123.604 136.408C122.999 136.152 122.371 135.663 121.724 134.857C120.418 133.23 119.092 130.384 117.75 126.912C116.546 123.798 115.342 120.217 114.135 116.627C114 116.226 113.865 115.826 113.731 115.426C112.39 111.444 111.045 107.515 109.698 104.29C109.024 102.678 108.347 101.234 107.667 100.045C106.989 98.8609 106.295 97.9068 105.581 97.2916C104.857 96.6683 104.102 96.3846 103.325 96.4286C102.558 96.4721 101.821 96.8323 101.118 97.3949C99.7207 98.5134 98.3524 100.52 97.0101 102.891C95.8188 104.994 94.6282 107.421 93.4429 109.838C93.2873 110.155 93.1318 110.472 92.9763 110.788C91.6338 113.518 90.2991 116.178 88.9674 118.314C86.2966 122.602 83.6922 124.696 81.1805 124.907C78.6838 125.117 76.1 123.477 73.4339 119.826C70.8931 116.349 68.3469 111.139 65.782 105.89C65.6596 105.64 65.5372 105.389 65.4148 105.139C62.7379 99.6653 60.0373 94.2319 57.3235 90.8949C54.5903 87.5341 51.8288 86.2727 49.3818 85.9865C46.9576 85.7029 44.8849 86.3835 43.5445 86.8237L40.8513 87.7081C40.6724 87.7668 40.5754 87.9584 40.6345 88.136C40.6937 88.3136 40.8866 88.41 41.0655 88.3512L43.7473 87.4706C45.0892 87.03 47.0365 86.3942 49.302 86.6592C51.5514 86.9224 54.1579 88.0806 56.7927 91.3205C59.4469 94.5841 62.1121 99.9365 64.8011 105.435C64.9283 105.695 65.0555 105.955 65.1828 106.216C67.7342 111.437 70.3042 116.697 72.8817 120.224M153.568 129.123L153.656 129.45M153.568 129.123C154.831 128.787 156.124 127.923 157.45 126.7C158.772 125.48 160.1 123.929 161.439 122.256C162.089 121.444 162.743 120.601 163.399 119.756C165.427 117.141 167.477 114.497 169.525 112.625C172.252 110.13 175.027 108.947 177.84 109.223C180.644 109.499 183.401 111.218 186.114 114.338C188.823 117.453 191.522 122.008 194.2 126.572C194.288 126.722 194.377 126.873 194.465 127.023C197.064 131.453 199.644 135.852 202.22 138.995C207.507 145.446 212.771 146.603 215.431 147.186L220.296 147.772C220.483 147.795 220.617 147.964 220.594 148.149C220.571 148.335 220.401 148.467 220.214 148.445L215.316 147.854L215.3 147.851C212.582 147.255 207.129 146.059 201.691 139.423C199.08 136.238 196.476 131.798 193.891 127.39C193.797 127.231 193.704 127.072 193.611 126.913C190.923 122.333 188.257 117.838 185.598 114.781C182.943 111.728 180.334 110.149 177.772 109.897C175.219 109.646 172.628 110.707 169.987 113.123C167.986 114.952 165.989 117.527 163.97 120.13C163.307 120.985 162.642 121.842 161.973 122.678C160.629 124.357 159.275 125.941 157.914 127.196C156.556 128.448 155.166 129.399 153.745 129.777C152.315 130.157 150.9 129.945 149.524 129.484C148.341 129.089 147.159 128.499 146.003 127.921C145.82 127.83 145.638 127.739 145.456 127.649C142.75 126.31 140.223 125.241 137.712 126.513C136.432 127.161 135.127 128.428 133.785 129.909C133.305 130.438 132.82 130.996 132.332 131.557C131.474 132.543 130.608 133.538 129.75 134.405C128.405 135.764 127.004 136.891 125.558 137.219C124.823 137.386 124.078 137.346 123.336 137.031C122.599 136.719 121.885 136.146 121.19 135.279C119.812 133.561 118.454 130.623 117.113 127.155C115.903 124.026 114.694 120.43 113.488 116.843C113.353 116.442 113.218 116.041 113.084 115.64C111.742 111.656 110.404 107.749 109.067 104.55C108.399 102.95 107.735 101.535 107.073 100.38C106.41 99.2202 105.761 98.344 105.134 97.8033C104.515 97.2707 103.929 97.073 103.364 97.105C102.789 97.1375 102.185 97.4108 101.546 97.9223C100.26 98.9519 98.9453 100.855 97.6047 103.223C96.4241 105.308 95.243 107.715 94.0563 110.134C93.9007 110.451 93.7451 110.768 93.5894 111.085C92.2487 113.812 90.8999 116.501 89.5475 118.671M89.5475 118.671L89.2575 118.493M89.5475 118.671C89.5476 118.671 89.5475 118.671 89.5475 118.671ZM89.5475 118.671C86.8546 122.994 84.0933 125.342 81.238 125.582C78.3677 125.823 75.5836 123.924 72.8817 120.224M72.8817 120.224C72.8817 120.224 72.8817 120.224 72.8817 120.224ZM72.8817 120.224L73.1578 120.025" stroke="#A1ED4C" stroke-width="0.90175" stroke-linecap="round"/>
<circle cx="15.3849" cy="18.0568" r="2.70525" fill="#D2FF52"/>
<path d="M109.327 36.8857L110.761 31.7734H111.928L111.552 33.7814L110.117 38.6706H109.142L109.327 36.8857ZM108.6 31.7734L109.626 36.8794L109.722 38.6706H108.575L106.828 31.7734H108.6ZM113.241 36.7965L114.242 31.7734H116.02L114.273 38.6706H113.132L113.241 36.7965ZM112.087 31.7734L113.515 36.8475L113.713 38.6706H112.731L111.297 33.7878L110.933 31.7734H112.087Z" fill="white"/>
<path d="M103.483 38.7986C102.947 38.7986 102.467 38.7136 102.042 38.5436C101.617 38.3694 101.256 38.1293 100.958 37.8233C100.665 37.5173 100.44 37.1625 100.283 36.7588C100.125 36.3508 100.047 35.9173 100.047 35.4584V35.2034C100.047 34.6807 100.121 34.2026 100.27 33.7692C100.419 33.3357 100.631 32.9596 100.907 32.6409C101.188 32.3222 101.528 32.0778 101.927 31.9078C102.327 31.7336 102.777 31.6465 103.279 31.6465C103.767 31.6465 104.201 31.7272 104.579 31.8887C104.957 32.0502 105.274 32.2797 105.529 32.5772C105.788 32.8746 105.984 33.2316 106.115 33.6481C106.247 34.0603 106.313 34.5192 106.313 35.0249V35.7899H100.831V34.566H104.509V34.4257C104.509 34.1708 104.462 33.9434 104.369 33.7437C104.279 33.5397 104.144 33.3782 103.961 33.2592C103.778 33.1402 103.544 33.0807 103.26 33.0807C103.017 33.0807 102.809 33.1339 102.635 33.2401C102.461 33.3463 102.318 33.4951 102.208 33.6863C102.102 33.8775 102.021 34.1028 101.966 34.362C101.915 34.617 101.889 34.8974 101.889 35.2034V35.4584C101.889 35.7346 101.927 35.9896 102.004 36.2233C102.085 36.4571 102.197 36.6589 102.342 36.8289C102.49 36.9989 102.669 37.1306 102.877 37.2241C103.09 37.3176 103.33 37.3643 103.597 37.3643C103.929 37.3643 104.237 37.3006 104.522 37.1731C104.811 37.0414 105.059 36.8438 105.268 36.5803L106.16 37.5492C106.015 37.7574 105.818 37.9572 105.567 38.1484C105.321 38.3396 105.023 38.4969 104.675 38.6201C104.326 38.7391 103.929 38.7986 103.483 38.7986Z" fill="white"/>
<path d="M98.7773 31.7722V38.6693H96.9351V31.7722H98.7773ZM96.8203 29.9746C96.8203 29.7069 96.9138 29.4859 97.1008 29.3116C97.2878 29.1374 97.5385 29.0503 97.853 29.0503C98.1632 29.0503 98.4118 29.1374 98.5988 29.3116C98.79 29.4859 98.8856 29.7069 98.8856 29.9746C98.8856 30.2423 98.79 30.4633 98.5988 30.6375C98.4118 30.8118 98.1632 30.8989 97.853 30.8989C97.5385 30.8989 97.2878 30.8118 97.1008 30.6375C96.9138 30.4633 96.8203 30.2423 96.8203 29.9746Z" fill="white"/>
<path d="M92.5784 37.3319L94.1083 31.7734H96.027L93.7003 38.6706H92.5402L92.5784 37.3319ZM91.5266 31.7734L93.0629 37.3383L93.0947 38.6706H91.9282L89.6016 31.7734H91.5266Z" fill="white"/>
<path d="M87.1718 33.2783V38.6711H85.3359V31.774H87.0634L87.1718 33.2783ZM89.2498 31.7294L89.218 33.4313C89.1287 33.4186 89.0204 33.408 88.8929 33.3995C88.7696 33.3867 88.657 33.3803 88.555 33.3803C88.2958 33.3803 88.0706 33.4143 87.8793 33.4823C87.6923 33.5461 87.5351 33.6417 87.4076 33.7692C87.2844 33.8967 87.1909 34.0518 87.1272 34.2345C87.0677 34.4172 87.0337 34.6255 87.0252 34.8592L86.6554 34.7445C86.6554 34.2982 86.7001 33.8882 86.7893 33.5142C86.8785 33.136 87.0082 32.8066 87.1781 32.5262C87.3524 32.2457 87.5649 32.0289 87.8156 31.876C88.0663 31.723 88.3532 31.6465 88.6761 31.6465C88.7781 31.6465 88.8822 31.655 88.9885 31.672C89.0947 31.6847 89.1818 31.7039 89.2498 31.7294Z" fill="white"/>
<path d="M81.4593 38.7986C80.9238 38.7986 80.4436 38.7136 80.0186 38.5436C79.5937 38.3694 79.2325 38.1293 78.935 37.8233C78.6418 37.5173 78.4165 37.1625 78.2593 36.7588C78.1021 36.3508 78.0234 35.9173 78.0234 35.4584V35.2034C78.0234 34.6807 78.0978 34.2026 78.2465 33.7692C78.3953 33.3357 78.6078 32.9596 78.884 32.6409C79.1645 32.3222 79.5044 32.0778 79.9039 31.9078C80.3034 31.7336 80.7538 31.6465 81.2553 31.6465C81.744 31.6465 82.1774 31.7272 82.5557 31.8887C82.9339 32.0502 83.2505 32.2797 83.5054 32.5772C83.7647 32.8746 83.9602 33.2316 84.0919 33.6481C84.2236 34.0603 84.2895 34.5192 84.2895 35.0249V35.7899H78.8075V34.566H82.4855V34.4257C82.4855 34.1708 82.4388 33.9434 82.3453 33.7437C82.2561 33.5397 82.1201 33.3782 81.9373 33.2592C81.7546 33.1402 81.5209 33.0807 81.2361 33.0807C80.9939 33.0807 80.7857 33.1339 80.6115 33.2401C80.4372 33.3463 80.2949 33.4951 80.1844 33.6863C80.0781 33.8775 79.9974 34.1028 79.9421 34.362C79.8911 34.617 79.8656 34.8974 79.8656 35.2034V35.4584C79.8656 35.7346 79.9039 35.9896 79.9804 36.2233C80.0611 36.4571 80.1737 36.6589 80.3182 36.8289C80.467 36.9989 80.6455 37.1306 80.8537 37.2241C81.0662 37.3176 81.3063 37.3643 81.574 37.3643C81.9055 37.3643 82.2136 37.3006 82.4983 37.1731C82.7873 37.0414 83.0359 36.8438 83.2441 36.5803L84.1365 37.5492C83.992 37.7574 83.7944 37.9572 83.5437 38.1484C83.2972 38.3396 82.9997 38.4969 82.6513 38.6201C82.3028 38.7391 81.9055 38.7986 81.4593 38.7986Z" fill="white"/>
<path d="M74.1019 37.3319L75.6317 31.7734H77.5504L75.2238 38.6706H74.0636L74.1019 37.3319ZM73.0501 31.7734L74.5863 37.3383L74.6182 38.6706H73.4517L71.125 31.7734H73.0501Z" fill="white"/>
<path d="M70.4902 33.8096V34.2495C70.4902 34.9549 70.3946 35.5881 70.2034 36.1491C70.0121 36.71 69.7423 37.1881 69.3938 37.5833C69.0454 37.9743 68.6289 38.2739 68.1444 38.4821C67.6642 38.6903 67.1309 38.7944 66.5445 38.7944C65.9623 38.7944 65.4289 38.6903 64.9445 38.4821C64.4643 38.2739 64.0478 37.9743 63.6951 37.5833C63.3424 37.1881 63.0683 36.71 62.8728 36.1491C62.6816 35.5881 62.5859 34.9549 62.5859 34.2495V33.8096C62.5859 33.1 62.6816 32.4668 62.8728 31.9101C63.064 31.3491 63.3339 30.871 63.6823 30.4758C64.0351 30.0806 64.4515 29.7789 64.9317 29.5706C65.4162 29.3624 65.9495 29.2583 66.5317 29.2583C67.1182 29.2583 67.6515 29.3624 68.1317 29.5706C68.6161 29.7789 69.0326 30.0806 69.3811 30.4758C69.7338 30.871 70.0058 31.3491 70.197 31.9101C70.3925 32.4668 70.4902 33.1 70.4902 33.8096ZM68.5588 34.2495V33.7969C68.5588 33.3039 68.5142 32.8705 68.4249 32.4965C68.3357 32.1225 68.2039 31.8081 68.0297 31.5531C67.8555 31.2981 67.643 31.1069 67.3923 30.9794C67.1415 30.8477 66.8547 30.7818 66.5317 30.7818C66.2087 30.7818 65.9219 30.8477 65.6712 30.9794C65.4247 31.1069 65.2143 31.2981 65.0401 31.5531C64.8701 31.8081 64.7405 32.1225 64.6513 32.4965C64.562 32.8705 64.5174 33.3039 64.5174 33.7969V34.2495C64.5174 34.7382 64.562 35.1716 64.6513 35.5499C64.7405 35.9238 64.8722 36.2404 65.0465 36.4996C65.2207 36.7546 65.4332 36.948 65.6839 37.0797C65.9346 37.2115 66.2215 37.2773 66.5445 37.2773C66.8674 37.2773 67.1543 37.2115 67.405 37.0797C67.6557 36.948 67.8661 36.7546 68.0361 36.4996C68.2061 36.2404 68.3357 35.9238 68.4249 35.5499C68.5142 35.1716 68.5588 34.7382 68.5588 34.2495Z" fill="white"/>
<path d="M55.6311 38.7986C55.0957 38.7986 54.6155 38.7136 54.1905 38.5436C53.7655 38.3694 53.4043 38.1293 53.1069 37.8233C52.8136 37.5173 52.5884 37.1625 52.4312 36.7588C52.2739 36.3508 52.1953 35.9173 52.1953 35.4584V35.2034C52.1953 34.6807 52.2697 34.2026 52.4184 33.7692C52.5672 33.3357 52.7796 32.9596 53.0559 32.6409C53.3363 32.3222 53.6763 32.0778 54.0758 31.9078C54.4752 31.7336 54.9257 31.6465 55.4271 31.6465C55.9159 31.6465 56.3493 31.7272 56.7275 31.8887C57.1057 32.0502 57.4223 32.2797 57.6773 32.5772C57.9365 32.8746 58.132 33.2316 58.2638 33.6481C58.3955 34.0603 58.4614 34.5192 58.4614 35.0249V35.7899H52.9794V34.566H56.6574V34.4257C56.6574 34.1708 56.6107 33.9434 56.5172 33.7437C56.4279 33.5397 56.2919 33.3782 56.1092 33.2592C55.9265 33.1402 55.6927 33.0807 55.408 33.0807C55.1658 33.0807 54.9576 33.1339 54.7833 33.2401C54.6091 33.3463 54.4667 33.4951 54.3562 33.6863C54.25 33.8775 54.1693 34.1028 54.114 34.362C54.063 34.617 54.0375 34.8974 54.0375 35.2034V35.4584C54.0375 35.7346 54.0758 35.9896 54.1523 36.2233C54.233 36.4571 54.3456 36.6589 54.4901 36.8289C54.6388 36.9989 54.8173 37.1306 55.0256 37.2241C55.238 37.3176 55.4781 37.3643 55.7459 37.3643C56.0773 37.3643 56.3854 37.3006 56.6702 37.1731C56.9591 37.0414 57.2077 36.8438 57.416 36.5803L58.3084 37.5492C58.1639 37.7574 57.9663 37.9572 57.7156 38.1484C57.4691 38.3396 57.1716 38.4969 56.8231 38.6201C56.4747 38.7391 56.0773 38.7986 55.6311 38.7986Z" fill="white"/>
<path d="M48.502 37.3643C48.7272 37.3643 48.9269 37.3218 49.1012 37.2369C49.2754 37.1476 49.4114 37.0244 49.5091 36.8671C49.6111 36.7057 49.6642 36.5165 49.6685 36.2998H51.396C51.3917 36.7843 51.2621 37.2156 51.0071 37.5938C50.7521 37.9678 50.41 38.2631 49.9808 38.4799C49.5516 38.6923 49.0714 38.7986 48.5402 38.7986C48.0048 38.7986 47.5373 38.7093 47.1378 38.5309C46.7426 38.3524 46.4133 38.1059 46.1498 37.7914C45.8863 37.4727 45.6887 37.103 45.557 36.6823C45.4252 36.2573 45.3594 35.8026 45.3594 35.3182V35.1333C45.3594 34.6446 45.4252 34.1899 45.557 33.7692C45.6887 33.3442 45.8863 32.9745 46.1498 32.66C46.4133 32.3413 46.7426 32.0927 47.1378 31.9142C47.5331 31.7357 47.9963 31.6465 48.5275 31.6465C49.0927 31.6465 49.5877 31.7548 50.0127 31.9716C50.4419 32.1883 50.7776 32.4985 51.0199 32.9022C51.2663 33.3017 51.3917 33.7755 51.396 34.3237H49.6685C49.6642 34.0943 49.6154 33.886 49.5219 33.699C49.4326 33.5121 49.3009 33.3633 49.1267 33.2528C48.9567 33.1381 48.7463 33.0807 48.4956 33.0807C48.2279 33.0807 48.009 33.1381 47.839 33.2528C47.669 33.3633 47.5373 33.5163 47.4438 33.7118C47.3503 33.903 47.2845 34.1219 47.2462 34.3684C47.2122 34.6106 47.1952 34.8656 47.1952 35.1333V35.3182C47.1952 35.5859 47.2122 35.843 47.2462 36.0895C47.2802 36.3359 47.3439 36.5548 47.4374 36.746C47.5352 36.9373 47.669 37.0881 47.839 37.1986C48.009 37.3091 48.23 37.3643 48.502 37.3643Z" fill="white"/>
<path d="M40.1249 33.2465V38.6711H38.2891V31.774H40.0102L40.1249 33.2465ZM39.8572 34.9803H39.36C39.36 34.4704 39.4258 34.0114 39.5576 33.6034C39.6893 33.1912 39.8742 32.8406 40.1121 32.5517C40.3501 32.2584 40.6327 32.0353 40.9599 31.8823C41.2914 31.7251 41.6611 31.6465 42.0691 31.6465C42.3921 31.6465 42.6874 31.6932 42.9551 31.7867C43.2229 31.8802 43.4523 32.0289 43.6436 32.2329C43.8391 32.4369 43.9878 32.7068 44.0898 33.0425C44.196 33.3782 44.2492 33.7883 44.2492 34.2727V38.6711H42.4006V34.2664C42.4006 33.9604 42.3581 33.7224 42.2731 33.5524C42.1881 33.3825 42.0627 33.2635 41.897 33.1955C41.7355 33.1232 41.5358 33.0871 41.2978 33.0871C41.0513 33.0871 40.8367 33.136 40.654 33.2337C40.4755 33.3315 40.3268 33.4674 40.2078 33.6417C40.093 33.8117 40.0059 34.0114 39.9464 34.2409C39.8869 34.4704 39.8572 34.7168 39.8572 34.9803Z" fill="white"/>
<path d="M35.0628 37.1157V34.0433C35.0628 33.8223 35.0266 33.6332 34.9544 33.4759C34.8822 33.3145 34.7695 33.1891 34.6166 33.0999C34.4678 33.0106 34.2745 32.966 34.0365 32.966C33.8325 32.966 33.6561 33.0021 33.5074 33.0744C33.3587 33.1423 33.2439 33.2422 33.1632 33.374C33.0824 33.5014 33.0421 33.6523 33.0421 33.8265H31.2062C31.2062 33.5333 31.2742 33.255 31.4102 32.9915C31.5462 32.728 31.7438 32.4964 32.003 32.2967C32.2623 32.0927 32.5704 31.9333 32.9273 31.8186C33.2885 31.7039 33.6923 31.6465 34.1385 31.6465C34.6739 31.6465 35.1499 31.7357 35.5663 31.9142C35.9828 32.0927 36.31 32.3604 36.548 32.7174C36.7902 33.0744 36.9113 33.5206 36.9113 34.056V37.0074C36.9113 37.3856 36.9347 37.6958 36.9815 37.938C37.0282 38.176 37.0962 38.3843 37.1854 38.5627V38.6711H35.3305C35.2412 38.4841 35.1733 38.2504 35.1265 37.9699C35.084 37.6852 35.0628 37.4005 35.0628 37.1157ZM35.305 34.4704L35.3177 35.5094H34.2915C34.0492 35.5094 33.8389 35.537 33.6604 35.5923C33.4819 35.6475 33.3353 35.7261 33.2206 35.8281C33.1058 35.9258 33.0208 36.0406 32.9656 36.1723C32.9146 36.3041 32.8891 36.4486 32.8891 36.6058C32.8891 36.763 32.9252 36.9054 32.9974 37.0329C33.0697 37.1561 33.1738 37.2539 33.3098 37.3261C33.4458 37.3941 33.6051 37.4281 33.7879 37.4281C34.0641 37.4281 34.3042 37.3728 34.5082 37.2624C34.7122 37.1519 34.8694 37.0159 34.9799 36.8544C35.0946 36.6929 35.1541 36.5399 35.1584 36.3954L35.6428 37.1731C35.5748 37.3473 35.4814 37.528 35.3624 37.7149C35.2476 37.9019 35.101 38.0783 34.9225 38.244C34.744 38.4055 34.5294 38.5394 34.2787 38.6456C34.028 38.7476 33.7305 38.7986 33.3863 38.7986C32.9486 38.7986 32.5512 38.7115 32.1943 38.5372C31.8416 38.3588 31.5611 38.1144 31.3528 37.8042C31.1489 37.4897 31.0469 37.1327 31.0469 36.7333C31.0469 36.3721 31.1149 36.0512 31.2509 35.7707C31.3868 35.4903 31.5866 35.2544 31.8501 35.0632C32.1178 34.8677 32.4514 34.7211 32.8508 34.6233C33.2503 34.5214 33.7135 34.4704 34.2405 34.4704H35.305Z" fill="white"/>
<path d="M29.8344 28.8779V38.669H27.9922V28.8779H29.8344Z" fill="white"/>
<path d="M24.6253 37.1157V34.0433C24.6253 33.8223 24.5891 33.6332 24.5169 33.4759C24.4447 33.3145 24.332 33.1891 24.1791 33.0999C24.0303 33.0106 23.837 32.966 23.599 32.966C23.395 32.966 23.2186 33.0021 23.0699 33.0744C22.9212 33.1423 22.8064 33.2422 22.7257 33.374C22.6449 33.5014 22.6046 33.6523 22.6046 33.8265H20.7687C20.7687 33.5333 20.8367 33.255 20.9727 32.9915C21.1087 32.728 21.3063 32.4964 21.5655 32.2967C21.8248 32.0927 22.1329 31.9333 22.4898 31.8186C22.851 31.7039 23.2548 31.6465 23.701 31.6465C24.2364 31.6465 24.7124 31.7357 25.1288 31.9142C25.5453 32.0927 25.8725 32.3604 26.1105 32.7174C26.3527 33.0744 26.4738 33.5206 26.4738 34.056V37.0074C26.4738 37.3856 26.4972 37.6958 26.544 37.938C26.5907 38.176 26.6587 38.3843 26.7479 38.5627V38.6711H24.893C24.8037 38.4841 24.7358 38.2504 24.689 37.9699C24.6465 37.6852 24.6253 37.4005 24.6253 37.1157ZM24.8675 34.4704L24.8802 35.5094H23.854C23.6117 35.5094 23.4014 35.537 23.2229 35.5923C23.0444 35.6475 22.8978 35.7261 22.7831 35.8281C22.6683 35.9258 22.5833 36.0406 22.5281 36.1723C22.4771 36.3041 22.4516 36.4486 22.4516 36.6058C22.4516 36.763 22.4877 36.9054 22.5599 37.0329C22.6322 37.1561 22.7363 37.2539 22.8723 37.3261C23.0083 37.3941 23.1676 37.4281 23.3504 37.4281C23.6266 37.4281 23.8667 37.3728 24.0707 37.2624C24.2747 37.1519 24.4319 37.0159 24.5424 36.8544C24.6571 36.6929 24.7166 36.5399 24.7209 36.3954L25.2053 37.1731C25.1373 37.3473 25.0439 37.528 24.9249 37.7149C24.8101 37.9019 24.6635 38.0783 24.485 38.244C24.3065 38.4055 24.0919 38.5394 23.8412 38.6456C23.5905 38.7476 23.293 38.7986 22.9488 38.7986C22.5111 38.7986 22.1137 38.7115 21.7568 38.5372C21.4041 38.3588 21.1236 38.1144 20.9153 37.8042C20.7114 37.4897 20.6094 37.1327 20.6094 36.7333C20.6094 36.3721 20.6774 36.0512 20.8134 35.7707C20.9493 35.4903 21.1491 35.2544 21.4126 35.0632C21.6803 34.8677 22.0139 34.7211 22.4133 34.6233C22.8128 34.5214 23.276 34.4704 23.803 34.4704H24.8675Z" fill="white"/>
<path d="M16.3131 34.5966H13.9291L13.9163 33.2834H15.9179C16.2706 33.2834 16.5596 33.2388 16.7848 33.1496C17.01 33.0561 17.1779 32.9222 17.2884 32.748C17.4031 32.5695 17.4605 32.3528 17.4605 32.0978C17.4605 31.8088 17.4053 31.5751 17.2948 31.3966C17.1885 31.2181 17.0207 31.0885 16.7912 31.0078C16.566 30.927 16.2749 30.8867 15.9179 30.8867H14.592V38.6698H12.6797V29.3887H15.9179C16.4576 29.3887 16.9399 29.4397 17.3649 29.5417C17.7941 29.6436 18.1574 29.7988 18.4549 30.007C18.7524 30.2152 18.9797 30.4787 19.137 30.7974C19.2942 31.1119 19.3728 31.4859 19.3728 31.9193C19.3728 32.3018 19.2857 32.6545 19.1115 32.9775C18.9415 33.3004 18.6716 33.5639 18.3019 33.7679C17.9365 33.9719 17.4584 34.0845 16.8677 34.1057L16.3131 34.5966ZM16.2302 38.6698H13.4064L14.1522 37.1782H16.2302C16.566 37.1782 16.8401 37.1251 17.0525 37.0189C17.265 36.9084 17.4223 36.7596 17.5243 36.5726C17.6262 36.3857 17.6772 36.1711 17.6772 35.9288C17.6772 35.6569 17.6305 35.421 17.537 35.2213C17.4478 35.0215 17.3033 34.8686 17.1035 34.7623C16.9038 34.6518 16.6403 34.5966 16.3131 34.5966H14.4709L14.4836 33.2834H16.7784L17.2183 33.7998C17.7835 33.7913 18.2382 33.8911 18.5824 34.0994C18.9309 34.3034 19.1837 34.569 19.341 34.8962C19.5024 35.2234 19.5832 35.574 19.5832 35.948C19.5832 36.5429 19.4536 37.0444 19.1944 37.4523C18.9351 37.856 18.5548 38.1599 18.0533 38.3639C17.5561 38.5678 16.9484 38.6698 16.2302 38.6698Z" fill="white"/>
<defs>
<linearGradient id="paint0_linear_1072_21046" x1="130.176" y1="118.249" x2="130.176" y2="171.798" gradientUnits="userSpaceOnUse">
<stop stop-color="#A1ED4C" stop-opacity="0.2"/>
<stop offset="1" stop-color="white" stop-opacity="0"/>
</linearGradient>
</defs>
</svg>
