<svg width="253" height="241" viewBox="0 0 253 241" fill="none" xmlns="http://www.w3.org/2000/svg">
<rect width="253" height="241" rx="16" fill="#1C1C1C"/>
<path d="M71.6854 220.449C74.0142 220.449 75.9021 218.771 75.9021 216.701C75.9021 214.631 74.0142 212.953 71.6854 212.953C69.3566 212.953 67.4688 214.631 67.4688 216.701C67.4688 218.771 69.3566 220.449 71.6854 220.449Z" fill="#A1ED4C"/>
<path d="M113.478 217.602V215.274C113.478 215.1 113.446 214.949 113.383 214.823C113.32 214.697 113.224 214.599 113.095 214.53C112.968 214.461 112.809 214.426 112.616 214.426C112.439 214.426 112.286 214.456 112.156 214.516C112.027 214.576 111.926 214.658 111.854 214.76C111.782 214.862 111.746 214.978 111.746 215.107H110.663C110.663 214.915 110.71 214.728 110.803 214.548C110.896 214.367 111.031 214.206 111.209 214.065C111.386 213.924 111.598 213.812 111.845 213.731C112.092 213.65 112.368 213.609 112.675 213.609C113.042 213.609 113.367 213.671 113.649 213.794C113.935 213.918 114.159 214.104 114.322 214.354C114.487 214.6 114.57 214.91 114.57 215.283V217.453C114.57 217.676 114.585 217.876 114.615 218.053C114.648 218.227 114.695 218.379 114.755 218.509V218.581H113.64C113.589 218.464 113.549 218.315 113.519 218.134C113.492 217.951 113.478 217.773 113.478 217.602ZM113.636 215.612L113.645 216.285H112.864C112.663 216.285 112.486 216.304 112.332 216.343C112.179 216.379 112.051 216.433 111.949 216.506C111.846 216.578 111.77 216.665 111.719 216.767C111.667 216.87 111.642 216.985 111.642 217.115C111.642 217.244 111.672 217.363 111.732 217.471C111.792 217.576 111.88 217.659 111.994 217.719C112.111 217.779 112.252 217.809 112.418 217.809C112.64 217.809 112.834 217.764 113 217.674C113.168 217.581 113.301 217.468 113.397 217.336C113.493 217.2 113.544 217.073 113.55 216.952L113.902 217.435C113.866 217.558 113.804 217.691 113.717 217.832C113.63 217.973 113.516 218.109 113.374 218.238C113.236 218.364 113.069 218.468 112.874 218.549C112.681 218.63 112.458 218.671 112.206 218.671C111.887 218.671 111.603 218.608 111.353 218.482C111.104 218.352 110.908 218.179 110.767 217.963C110.625 217.743 110.555 217.495 110.555 217.218C110.555 216.96 110.603 216.731 110.699 216.533C110.798 216.331 110.943 216.163 111.132 216.027C111.325 215.892 111.559 215.79 111.836 215.721C112.113 215.648 112.428 215.612 112.783 215.612H113.636Z" fill="white"/>
<path d="M107.266 212.891L105.304 218.584H104.117L106.589 212.016H107.347L107.266 212.891ZM108.908 218.584L106.941 212.891L106.856 212.016H107.618L110.099 218.584H108.908ZM108.813 216.148V217.046H105.241V216.148H108.813Z" fill="white"/>
<path d="M100.068 217.602V215.274C100.068 215.1 100.036 214.949 99.9731 214.823C99.91 214.697 99.8137 214.599 99.6844 214.53C99.5581 214.461 99.3987 214.426 99.2062 214.426C99.0288 214.426 98.8754 214.456 98.746 214.516C98.6167 214.576 98.516 214.658 98.4438 214.76C98.3716 214.862 98.3355 214.978 98.3355 215.107H97.2528C97.2528 214.915 97.2994 214.728 97.3927 214.548C97.4859 214.367 97.6212 214.206 97.7987 214.065C97.9761 213.924 98.1881 213.812 98.4348 213.731C98.6814 213.65 98.9581 213.609 99.2648 213.609C99.6318 213.609 99.9566 213.671 100.239 213.794C100.525 213.918 100.749 214.104 100.911 214.354C101.077 214.6 101.16 214.91 101.16 215.283V217.453C101.16 217.676 101.175 217.876 101.205 218.053C101.238 218.227 101.284 218.379 101.345 218.509V218.581H100.23C100.179 218.464 100.139 218.315 100.108 218.134C100.081 217.951 100.068 217.773 100.068 217.602ZM100.226 215.612L100.235 216.285H99.4543C99.2528 216.285 99.0754 216.304 98.922 216.343C98.7686 216.379 98.6408 216.433 98.5385 216.506C98.4363 216.578 98.3596 216.665 98.3084 216.767C98.2573 216.87 98.2318 216.985 98.2318 217.115C98.2318 217.244 98.2618 217.363 98.322 217.471C98.3821 217.576 98.4694 217.659 98.5836 217.719C98.7009 217.779 98.8423 217.809 99.0077 217.809C99.2303 217.809 99.4242 217.764 99.5897 217.674C99.7581 217.581 99.8904 217.468 99.9867 217.336C100.083 217.2 100.134 217.073 100.14 216.952L100.492 217.435C100.456 217.558 100.394 217.691 100.307 217.832C100.22 217.973 100.105 218.109 99.9641 218.238C99.8258 218.364 99.6588 218.468 99.4633 218.549C99.2709 218.63 99.0483 218.671 98.7957 218.671C98.4769 218.671 98.1927 218.608 97.943 218.482C97.6934 218.352 97.4979 218.179 97.3566 217.963C97.2152 217.743 97.1445 217.495 97.1445 217.218C97.1445 216.96 97.1927 216.731 97.2889 216.533C97.3881 216.331 97.5325 216.163 97.722 216.027C97.9145 215.892 98.1491 215.79 98.4257 215.721C98.7024 215.648 99.0182 215.612 99.3731 215.612H100.226Z" fill="white"/>
<path d="M96.4785 213.703V214.497H93.7266V213.703H96.4785ZM94.5206 212.508H95.6078V217.236C95.6078 217.386 95.6288 217.502 95.6709 217.583C95.7161 217.661 95.7777 217.714 95.8559 217.741C95.9341 217.768 96.0258 217.782 96.1311 217.782C96.2063 217.782 96.2785 217.777 96.3476 217.768C96.4168 217.759 96.4724 217.75 96.5146 217.741L96.5191 218.571C96.4288 218.598 96.3236 218.622 96.2033 218.643C96.086 218.664 95.9506 218.675 95.7973 218.675C95.5476 218.675 95.3266 218.631 95.1341 218.544C94.9416 218.454 94.7912 218.308 94.683 218.106C94.5747 217.905 94.5206 217.637 94.5206 217.303V212.508Z" fill="white"/>
<path d="M92.0132 217.602V215.274C92.0132 215.1 91.9816 214.949 91.9184 214.823C91.8553 214.697 91.759 214.599 91.6297 214.53C91.5034 214.461 91.344 214.426 91.1515 214.426C90.9741 214.426 90.8207 214.456 90.6914 214.516C90.562 214.576 90.4613 214.658 90.3891 214.76C90.3169 214.862 90.2808 214.978 90.2808 215.107H89.1981C89.1981 214.915 89.2447 214.728 89.338 214.548C89.4312 214.367 89.5665 214.206 89.744 214.065C89.9214 213.924 90.1335 213.812 90.3801 213.731C90.6267 213.65 90.9034 213.609 91.2102 213.609C91.5771 213.609 91.9019 213.671 92.1846 213.794C92.4703 213.918 92.6944 214.104 92.8568 214.354C93.0222 214.6 93.1049 214.91 93.1049 215.283V217.453C93.1049 217.676 93.1199 217.876 93.15 218.053C93.1831 218.227 93.2297 218.379 93.2899 218.509V218.581H92.1756C92.1245 218.464 92.0838 218.315 92.0538 218.134C92.0267 217.951 92.0132 217.773 92.0132 217.602ZM92.1711 215.612L92.1801 216.285H91.3996C91.1981 216.285 91.0207 216.304 90.8673 216.343C90.7139 216.379 90.5861 216.433 90.4838 216.506C90.3816 216.578 90.3049 216.665 90.2538 216.767C90.2026 216.87 90.1771 216.985 90.1771 217.115C90.1771 217.244 90.2071 217.363 90.2673 217.471C90.3274 217.576 90.4147 217.659 90.529 217.719C90.6462 217.779 90.7876 217.809 90.953 217.809C91.1756 217.809 91.3696 217.764 91.535 217.674C91.7034 217.581 91.8357 217.468 91.932 217.336C92.0282 217.2 92.0793 217.073 92.0854 216.952L92.4372 217.435C92.4011 217.558 92.3395 217.691 92.2523 217.832C92.1651 217.973 92.0508 218.109 91.9094 218.238C91.7711 218.364 91.6041 218.468 91.4087 218.549C91.2162 218.63 90.9936 218.671 90.741 218.671C90.4222 218.671 90.138 218.608 89.8883 218.482C89.6387 218.352 89.4432 218.179 89.3019 217.963C89.1605 217.743 89.0898 217.495 89.0898 217.218C89.0898 216.96 89.138 216.731 89.2342 216.533C89.3335 216.331 89.4778 216.163 89.6673 216.027C89.8598 215.892 90.0944 215.79 90.3711 215.721C90.6477 215.648 90.9635 215.612 91.3184 215.612H92.1711Z" fill="white"/>
<path d="M85.2403 218.584H83.8373L83.8463 217.686H85.2403C85.6463 217.686 85.9862 217.598 86.2599 217.42C86.5366 217.243 86.7441 216.989 86.8824 216.658C87.0238 216.327 87.0945 215.933 87.0945 215.476V215.119C87.0945 214.765 87.0539 214.45 86.9727 214.177C86.8945 213.903 86.7772 213.673 86.6208 213.486C86.4674 213.3 86.2779 213.158 86.0524 213.062C85.8298 212.966 85.5726 212.918 85.2809 212.918H83.8102V212.016H85.2809C85.717 212.016 86.1155 212.089 86.4764 212.237C86.8373 212.381 87.1486 212.59 87.4103 212.864C87.6749 213.137 87.8779 213.465 88.0193 213.847C88.1606 214.229 88.2313 214.656 88.2313 215.128V215.476C88.2313 215.948 88.1606 216.375 88.0193 216.757C87.8779 217.139 87.6749 217.467 87.4103 217.74C87.1456 218.011 86.8298 218.22 86.4629 218.368C86.099 218.512 85.6914 218.584 85.2403 218.584ZM84.4644 212.016V218.584H83.332V212.016H84.4644Z" fill="white"/>
<path d="M149.928 220.449C151.998 220.449 153.676 218.771 153.676 216.701C153.676 214.631 151.998 212.953 149.928 212.953C147.858 212.953 146.18 214.631 146.18 216.701C146.18 218.771 147.858 220.449 149.928 220.449Z" fill="#EF6E59"/>
<path d="M188.328 211.656H189.415V217.544L189.312 218.586H188.328V211.656ZM192.6 216.1V216.195C192.6 216.556 192.56 216.888 192.479 217.192C192.4 217.492 192.28 217.754 192.118 217.977C191.958 218.199 191.76 218.372 191.522 218.495C191.288 218.616 191.015 218.676 190.706 218.676C190.402 218.676 190.137 218.619 189.912 218.504C189.686 218.39 189.497 218.228 189.343 218.017C189.193 217.807 189.071 217.556 188.978 217.264C188.885 216.972 188.818 216.65 188.779 216.298V215.996C188.818 215.641 188.885 215.319 188.978 215.031C189.071 214.739 189.193 214.488 189.343 214.277C189.497 214.064 189.685 213.9 189.907 213.786C190.133 213.671 190.396 213.614 190.697 213.614C191.009 213.614 191.285 213.674 191.522 213.795C191.763 213.915 191.963 214.086 192.122 214.309C192.282 214.528 192.4 214.79 192.479 215.094C192.56 215.398 192.6 215.733 192.6 216.1ZM191.513 216.195V216.1C191.513 215.88 191.495 215.674 191.459 215.482C191.423 215.286 191.363 215.115 191.279 214.968C191.197 214.82 191.086 214.704 190.945 214.62C190.806 214.533 190.633 214.489 190.426 214.489C190.233 214.489 190.068 214.522 189.93 214.589C189.791 214.655 189.676 214.745 189.582 214.859C189.489 214.974 189.415 215.106 189.361 215.256C189.31 215.407 189.275 215.569 189.257 215.743V216.56C189.285 216.786 189.342 216.993 189.429 217.183C189.519 217.369 189.645 217.519 189.808 217.634C189.97 217.745 190.179 217.801 190.435 217.801C190.636 217.801 190.806 217.76 190.945 217.679C191.083 217.598 191.193 217.485 191.274 217.34C191.358 217.193 191.418 217.022 191.454 216.826C191.494 216.631 191.513 216.42 191.513 216.195Z" fill="white"/>
<path d="M185.057 215.616H183.383L183.374 214.79H184.836C185.082 214.79 185.292 214.754 185.463 214.682C185.637 214.607 185.77 214.5 185.86 214.362C185.95 214.22 185.995 214.05 185.995 213.852C185.995 213.632 185.953 213.453 185.869 213.315C185.785 213.177 185.655 213.076 185.481 213.013C185.31 212.949 185.09 212.918 184.822 212.918H183.726V218.584H182.594V212.016H184.822C185.183 212.016 185.505 212.05 185.788 212.119C186.073 212.189 186.316 212.297 186.514 212.444C186.716 212.589 186.867 212.772 186.97 212.995C187.075 213.217 187.128 213.482 187.128 213.789C187.128 214.059 187.063 214.307 186.934 214.533C186.804 214.755 186.613 214.937 186.361 215.079C186.108 215.22 185.794 215.304 185.418 215.331L185.057 215.616ZM185.007 218.584H183.027L183.537 217.686H185.007C185.263 217.686 185.476 217.644 185.648 217.56C185.819 217.473 185.947 217.354 186.031 217.204C186.119 217.05 186.162 216.871 186.162 216.667C186.162 216.453 186.125 216.268 186.049 216.112C185.974 215.952 185.855 215.831 185.693 215.746C185.531 215.659 185.319 215.616 185.057 215.616H183.785L183.794 214.79H185.449L185.707 215.101C186.067 215.113 186.364 215.193 186.595 215.34C186.83 215.488 187.004 215.679 187.119 215.913C187.233 216.148 187.29 216.401 187.29 216.671C187.29 217.089 187.198 217.44 187.015 217.722C186.834 218.005 186.574 218.22 186.234 218.368C185.895 218.512 185.485 218.584 185.007 218.584Z" fill="white"/>
<path d="M177.955 217.61V215.282C177.955 215.107 177.923 214.957 177.86 214.831C177.797 214.704 177.7 214.607 177.571 214.537C177.445 214.468 177.285 214.434 177.093 214.434C176.915 214.434 176.762 214.464 176.633 214.524C176.503 214.584 176.403 214.665 176.331 214.768C176.258 214.87 176.222 214.986 176.222 215.115H175.14C175.14 214.922 175.186 214.736 175.279 214.556C175.373 214.375 175.508 214.214 175.685 214.073C175.863 213.931 176.075 213.82 176.321 213.739C176.568 213.658 176.845 213.617 177.152 213.617C177.518 213.617 177.843 213.679 178.126 213.802C178.412 213.925 178.636 214.112 178.798 214.362C178.964 214.608 179.046 214.918 179.046 215.291V217.461C179.046 217.683 179.061 217.883 179.091 218.061C179.125 218.235 179.171 218.387 179.231 218.516V218.589H178.117C178.066 218.471 178.025 218.322 177.995 218.142C177.968 217.959 177.955 217.781 177.955 217.61ZM178.112 215.62L178.121 216.292H177.341C177.14 216.292 176.962 216.312 176.809 216.351C176.655 216.387 176.528 216.441 176.425 216.513C176.323 216.586 176.246 216.673 176.195 216.775C176.144 216.877 176.118 216.993 176.118 217.122C176.118 217.252 176.149 217.371 176.209 217.479C176.269 217.584 176.356 217.667 176.47 217.727C176.588 217.787 176.729 217.817 176.894 217.817C177.117 217.817 177.311 217.772 177.476 217.682C177.645 217.589 177.777 217.476 177.873 217.344C177.97 217.208 178.021 217.08 178.027 216.96L178.379 217.443C178.343 217.566 178.281 217.698 178.194 217.84C178.106 217.981 177.992 218.116 177.851 218.246C177.712 218.372 177.546 218.476 177.35 218.557C177.158 218.638 176.935 218.679 176.682 218.679C176.364 218.679 176.079 218.616 175.83 218.489C175.58 218.36 175.385 218.187 175.243 217.971C175.102 217.751 175.031 217.503 175.031 217.226C175.031 216.968 175.079 216.739 175.176 216.541C175.275 216.339 175.419 216.171 175.609 216.035C175.801 215.9 176.036 215.798 176.312 215.728C176.589 215.656 176.905 215.62 177.26 215.62H178.112Z" fill="white"/>
<path d="M174.365 213.703V214.497H171.613V213.703H174.365ZM172.407 212.508H173.494V217.236C173.494 217.386 173.516 217.502 173.558 217.583C173.603 217.661 173.664 217.714 173.743 217.741C173.821 217.768 173.913 217.782 174.018 217.782C174.093 217.782 174.165 217.777 174.234 217.768C174.304 217.759 174.359 217.75 174.401 217.741L174.406 218.571C174.316 218.598 174.21 218.622 174.09 218.643C173.973 218.664 173.837 218.675 173.684 218.675C173.434 218.675 173.213 218.631 173.021 218.544C172.828 218.454 172.678 218.308 172.57 218.106C172.461 217.905 172.407 217.637 172.407 217.303V212.508Z" fill="white"/>
<path d="M169.9 217.61V215.282C169.9 215.107 169.868 214.957 169.805 214.831C169.742 214.704 169.646 214.607 169.516 214.537C169.39 214.468 169.231 214.434 169.038 214.434C168.861 214.434 168.707 214.464 168.578 214.524C168.449 214.584 168.348 214.665 168.276 214.768C168.204 214.87 168.168 214.986 168.168 215.115H167.085C167.085 214.922 167.131 214.736 167.225 214.556C167.318 214.375 167.453 214.214 167.631 214.073C167.808 213.931 168.02 213.82 168.267 213.739C168.513 213.658 168.79 213.617 169.097 213.617C169.464 213.617 169.789 213.679 170.071 213.802C170.357 213.925 170.581 214.112 170.744 214.362C170.909 214.608 170.992 214.918 170.992 215.291V217.461C170.992 217.683 171.007 217.883 171.037 218.061C171.07 218.235 171.116 218.387 171.177 218.516V218.589H170.062C170.011 218.471 169.971 218.322 169.94 218.142C169.913 217.959 169.9 217.781 169.9 217.61ZM170.058 215.62L170.067 216.292H169.286C169.085 216.292 168.907 216.312 168.754 216.351C168.601 216.387 168.473 216.441 168.371 216.513C168.268 216.586 168.192 216.673 168.14 216.775C168.089 216.877 168.064 216.993 168.064 217.122C168.064 217.252 168.094 217.371 168.154 217.479C168.214 217.584 168.301 217.667 168.416 217.727C168.533 217.787 168.674 217.817 168.84 217.817C169.062 217.817 169.256 217.772 169.422 217.682C169.59 217.589 169.722 217.476 169.819 217.344C169.915 217.208 169.966 217.08 169.972 216.96L170.324 217.443C170.288 217.566 170.226 217.698 170.139 217.84C170.052 217.981 169.937 218.116 169.796 218.246C169.658 218.372 169.491 218.476 169.295 218.557C169.103 218.638 168.88 218.679 168.628 218.679C168.309 218.679 168.025 218.616 167.775 218.489C167.525 218.36 167.33 218.187 167.189 217.971C167.047 217.751 166.977 217.503 166.977 217.226C166.977 216.968 167.025 216.739 167.121 216.541C167.22 216.339 167.365 216.171 167.554 216.035C167.746 215.9 167.981 215.798 168.258 215.728C168.534 215.656 168.85 215.62 169.205 215.62H170.058Z" fill="white"/>
<path d="M163.127 218.584H161.724L161.733 217.686H163.127C163.533 217.686 163.873 217.598 164.147 217.42C164.423 217.243 164.631 216.989 164.769 216.658C164.911 216.327 164.981 215.933 164.981 215.476V215.119C164.981 214.765 164.941 214.45 164.859 214.177C164.781 213.903 164.664 213.673 164.507 213.486C164.354 213.3 164.165 213.158 163.939 213.062C163.717 212.966 163.459 212.918 163.168 212.918H161.697V212.016H163.168C163.604 212.016 164.002 212.089 164.363 212.237C164.724 212.381 165.035 212.59 165.297 212.864C165.562 213.137 165.765 213.465 165.906 213.847C166.047 214.229 166.118 214.656 166.118 215.128V215.476C166.118 215.948 166.047 216.375 165.906 216.757C165.765 217.139 165.562 217.467 165.297 217.74C165.032 218.011 164.717 218.22 164.35 218.368C163.986 218.512 163.578 218.584 163.127 218.584ZM162.351 212.016V218.584H161.219V212.016H162.351Z" fill="white"/>
<path fill-rule="evenodd" clip-rule="evenodd" d="M85 180.117V64.1172H86V180.117H85Z" fill="#F6F7FB"/>
<path fill-rule="evenodd" clip-rule="evenodd" d="M126 180.117V64.1172H127V180.117H126Z" fill="#F6F7FB"/>
<path fill-rule="evenodd" clip-rule="evenodd" d="M46.8957 64.273H44.9766V63.3359H46.8957V64.273ZM54.5722 64.273H50.7339V63.3359H54.5722V64.273ZM62.2487 64.273H58.4104V63.3359H62.2487V64.273ZM69.9252 64.273H66.0869V63.3359H69.9252V64.273ZM77.6017 64.273H73.7634V63.3359H77.6017V64.273ZM85.2782 64.273H81.4399V63.3359H85.2782V64.273ZM92.9547 64.273H89.1164V63.3359H92.9547V64.273ZM100.631 64.273H96.7929V63.3359H100.631V64.273ZM108.308 64.273H104.469V63.3359H108.308V64.273ZM115.984 64.273H112.146V63.3359H115.984V64.273ZM123.661 64.273H119.822V63.3359H123.661V64.273ZM131.337 64.273H127.499V63.3359H131.337V64.273ZM139.014 64.273H135.175V63.3359H139.014V64.273ZM146.69 64.273H142.852V63.3359H146.69V64.273ZM154.367 64.273H150.528V63.3359H154.367V64.273ZM162.043 64.273H158.205V63.3359H162.043V64.273ZM169.72 64.273H165.881V63.3359H169.72V64.273ZM177.396 64.273H173.558V63.3359H177.396V64.273ZM185.073 64.273H181.234V63.3359H185.073V64.273ZM192.749 64.273H188.911V63.3359H192.749V64.273ZM200.426 64.273H196.587V63.3359H200.426V64.273ZM208.102 64.273H204.264V63.3359H208.102V64.273ZM215.779 64.273H211.94V63.3359H215.779V64.273ZM223.455 64.273H219.617V63.3359H223.455V64.273ZM231.132 64.273H227.293V63.3359H231.132V64.273ZM238.808 64.273H234.97V63.3359H238.808V64.273ZM244.565 64.273H242.646V63.3359H244.565V64.273Z" fill="#E5E5E5"/>
<path fill-rule="evenodd" clip-rule="evenodd" d="M46.8867 92.3823H44.9766V91.4453H46.8867V92.3823ZM54.5271 92.3823H50.7069V91.4453H54.5271V92.3823ZM62.1676 92.3823H58.3474V91.4453H62.1676V92.3823ZM69.808 92.3823H65.9878V91.4453H69.808V92.3823ZM77.4485 92.3823H73.6283V91.4453H77.4485V92.3823ZM85.089 92.3823H81.2687V91.4453H85.089V92.3823ZM92.7294 92.3823H88.9092V91.4453H92.7294V92.3823ZM100.37 92.3823H96.5496V91.4453H100.37V92.3823ZM108.01 92.3823H104.19V91.4453H108.01V92.3823ZM115.651 92.3823H111.831V91.4453H115.651V92.3823ZM123.291 92.3823H119.471V91.4453H123.291V92.3823ZM130.932 92.3823H127.111V91.4453H130.932V92.3823ZM138.572 92.3823H134.752V91.4453H138.572V92.3823ZM146.213 92.3823H142.392V91.4453H146.213V92.3823ZM153.853 92.3823H150.033V91.4453H153.853V92.3823ZM161.494 92.3823H157.673V91.4453H161.494V92.3823ZM169.134 92.3823H165.314V91.4453H169.134V92.3823ZM176.774 92.3823H172.954V91.4453H176.774V92.3823ZM184.415 92.3823H180.595V91.4453H184.415V92.3823ZM192.055 92.3823H188.235V91.4453H192.055V92.3823ZM199.696 92.3823H195.876V91.4453H199.696V92.3823ZM207.336 92.3823H203.516V91.4453H207.336V92.3823ZM214.977 92.3823H211.156V91.4453H214.977V92.3823ZM222.617 92.3823H218.797V91.4453H222.617V92.3823ZM230.258 92.3823H226.437V91.4453H230.258V92.3823ZM237.898 92.3823H234.078V91.4453H237.898V92.3823ZM243.628 92.3823H241.718V91.4453H243.628V92.3823Z" fill="#E5E5E5"/>
<path fill-rule="evenodd" clip-rule="evenodd" d="M46.8867 120.492H44.9766V119.555H46.8867V120.492ZM54.5271 120.492H50.7069V119.555H54.5271V120.492ZM62.1676 120.492H58.3474V119.555H62.1676V120.492ZM69.808 120.492H65.9878V119.555H69.808V120.492ZM77.4485 120.492H73.6283V119.555H77.4485V120.492ZM85.089 120.492H81.2687V119.555H85.089V120.492ZM92.7294 120.492H88.9092V119.555H92.7294V120.492ZM100.37 120.492H96.5496V119.555H100.37V120.492ZM108.01 120.492H104.19V119.555H108.01V120.492ZM115.651 120.492H111.831V119.555H115.651V120.492ZM123.291 120.492H119.471V119.555H123.291V120.492ZM130.932 120.492H127.111V119.555H130.932V120.492ZM138.572 120.492H134.752V119.555H138.572V120.492ZM146.213 120.492H142.392V119.555H146.213V120.492ZM153.853 120.492H150.033V119.555H153.853V120.492ZM161.494 120.492H157.673V119.555H161.494V120.492ZM169.134 120.492H165.314V119.555H169.134V120.492ZM176.774 120.492H172.954V119.555H176.774V120.492ZM184.415 120.492H180.595V119.555H184.415V120.492ZM192.055 120.492H188.235V119.555H192.055V120.492ZM199.696 120.492H195.876V119.555H199.696V120.492ZM207.336 120.492H203.516V119.555H207.336V120.492ZM214.977 120.492H211.156V119.555H214.977V120.492ZM222.617 120.492H218.797V119.555H222.617V120.492ZM230.258 120.492H226.437V119.555H230.258V120.492ZM237.898 120.492H234.078V119.555H237.898V120.492ZM243.628 120.492H241.718V119.555H243.628V120.492Z" fill="#E5E5E5"/>
<path fill-rule="evenodd" clip-rule="evenodd" d="M46.8867 148.609H44.9766V147.672H46.8867V148.609ZM54.5271 148.609H50.7069V147.672H54.5271V148.609ZM62.1676 148.609H58.3474V147.672H62.1676V148.609ZM69.808 148.609H65.9878V147.672H69.808V148.609ZM77.4485 148.609H73.6283V147.672H77.4485V148.609ZM85.089 148.609H81.2687V147.672H85.089V148.609ZM92.7294 148.609H88.9092V147.672H92.7294V148.609ZM100.37 148.609H96.5496V147.672H100.37V148.609ZM108.01 148.609H104.19V147.672H108.01V148.609ZM115.651 148.609H111.831V147.672H115.651V148.609ZM123.291 148.609H119.471V147.672H123.291V148.609ZM130.932 148.609H127.111V147.672H130.932V148.609ZM138.572 148.609H134.752V147.672H138.572V148.609ZM146.213 148.609H142.392V147.672H146.213V148.609ZM153.853 148.609H150.033V147.672H153.853V148.609ZM161.494 148.609H157.673V147.672H161.494V148.609ZM169.134 148.609H165.314V147.672H169.134V148.609ZM176.774 148.609H172.954V147.672H176.774V148.609ZM184.415 148.609H180.595V147.672H184.415V148.609ZM192.055 148.609H188.235V147.672H192.055V148.609ZM199.696 148.609H195.876V147.672H199.696V148.609ZM207.336 148.609H203.516V147.672H207.336V148.609ZM214.977 148.609H211.156V147.672H214.977V148.609ZM222.617 148.609H218.797V147.672H222.617V148.609ZM230.258 148.609H226.437V147.672H230.258V148.609ZM237.898 148.609H234.078V147.672H237.898V148.609ZM243.628 148.609H241.718V147.672H243.628V148.609Z" fill="#E5E5E5"/>
<path fill-rule="evenodd" clip-rule="evenodd" d="M243.628 180.054H44.9766V179.117H243.628V180.054Z" fill="#F6F7FB"/>
<path d="M55.7704 189.522V193.276H54.707V188.502H55.7086L55.7704 189.522ZM55.5806 190.713L55.2365 190.708C55.2394 190.37 55.2865 190.06 55.3777 189.777C55.4718 189.495 55.6012 189.252 55.7659 189.049C55.9336 188.846 56.1336 188.691 56.366 188.582C56.5984 188.47 56.8572 188.414 57.1425 188.414C57.372 188.414 57.5793 188.446 57.7646 188.511C57.9529 188.573 58.1132 188.674 58.2456 188.816C58.3809 188.957 58.4838 189.141 58.5544 189.367C58.625 189.591 58.6603 189.866 58.6603 190.192V193.276H57.5926V190.188C57.5926 189.958 57.5587 189.777 57.4911 189.645C57.4264 189.51 57.3308 189.414 57.2043 189.358C57.0808 189.299 56.9263 189.27 56.741 189.27C56.5587 189.27 56.3954 189.308 56.2513 189.385C56.1071 189.461 55.9851 189.566 55.8851 189.698C55.788 189.83 55.713 189.983 55.6601 190.157C55.6071 190.33 55.5806 190.516 55.5806 190.713Z" fill="#9C9C9C"/>
<path d="M52.5388 192.319V190.042C52.5388 189.872 52.5079 189.724 52.4461 189.601C52.3843 189.477 52.2902 189.382 52.1637 189.314C52.0402 189.246 51.8843 189.213 51.696 189.213C51.5225 189.213 51.3725 189.242 51.246 189.301C51.1195 189.36 51.021 189.439 50.9504 189.539C50.8798 189.639 50.8445 189.752 50.8445 189.879H49.7856C49.7856 189.691 49.8312 189.508 49.9224 189.332C50.0135 189.155 50.1459 188.998 50.3194 188.86C50.493 188.721 50.7004 188.613 50.9416 188.533C51.1828 188.454 51.4534 188.414 51.7534 188.414C52.1122 188.414 52.4299 188.474 52.7064 188.595C52.9858 188.716 53.205 188.898 53.3638 189.142C53.5256 189.383 53.6065 189.686 53.6065 190.051V192.173C53.6065 192.391 53.6212 192.586 53.6506 192.76C53.683 192.931 53.7286 193.079 53.7874 193.206V193.276H52.6976C52.6476 193.162 52.6079 193.016 52.5785 192.839C52.552 192.66 52.5388 192.486 52.5388 192.319ZM52.6932 190.373L52.702 191.03H51.9387C51.7416 191.03 51.5681 191.05 51.4181 191.088C51.2681 191.123 51.143 191.176 51.043 191.247C50.943 191.317 50.868 191.403 50.818 191.503C50.768 191.603 50.743 191.716 50.743 191.842C50.743 191.969 50.7724 192.085 50.8313 192.191C50.8901 192.294 50.9754 192.375 51.0872 192.434C51.2019 192.492 51.3401 192.522 51.5019 192.522C51.7196 192.522 51.9093 192.478 52.0711 192.389C52.2358 192.298 52.3652 192.188 52.4593 192.058C52.5535 191.926 52.6035 191.801 52.6093 191.683L52.9535 192.156C52.9182 192.276 52.8579 192.406 52.7726 192.544C52.6873 192.682 52.5755 192.814 52.4373 192.941C52.302 193.064 52.1387 193.166 51.9475 193.245C51.7593 193.325 51.5416 193.364 51.2945 193.364C50.9827 193.364 50.7048 193.303 50.4606 193.179C50.2165 193.053 50.0253 192.884 49.8871 192.672C49.7488 192.457 49.6797 192.214 49.6797 191.944C49.6797 191.691 49.7268 191.467 49.8209 191.273C49.9179 191.076 50.0591 190.911 50.2444 190.779C50.4327 190.647 50.6621 190.547 50.9327 190.479C51.2033 190.408 51.5122 190.373 51.8593 190.373H52.6932Z" fill="#9C9C9C"/>
<path d="M47.5729 191.348V186.852H48.6759V191.348C48.6759 191.774 48.5847 192.137 48.4024 192.437C48.22 192.737 47.9714 192.967 47.6567 193.126C47.342 193.284 46.9846 193.364 46.5846 193.364C46.1757 193.364 45.8124 193.295 45.4948 193.157C45.18 193.018 44.9329 192.806 44.7535 192.521C44.5741 192.236 44.4844 191.874 44.4844 191.436H45.5962C45.5962 191.689 45.6359 191.893 45.7154 192.049C45.7977 192.202 45.9124 192.314 46.0595 192.384C46.2095 192.452 46.3845 192.486 46.5846 192.486C46.7757 192.486 46.9449 192.443 47.0919 192.358C47.242 192.27 47.3596 192.142 47.4449 191.974C47.5302 191.803 47.5729 191.595 47.5729 191.348Z" fill="#9C9C9C"/>
<path d="M89.625 186.5H90.6883V192.258L90.5868 193.277H89.625V186.5ZM93.8033 190.846V190.939C93.8033 191.292 93.7636 191.617 93.6842 191.914C93.6077 192.208 93.49 192.464 93.3312 192.681C93.1753 192.899 92.9812 193.068 92.7488 193.189C92.5194 193.306 92.2532 193.365 91.9502 193.365C91.6531 193.365 91.3943 193.309 91.1737 193.198C90.9531 193.086 90.7677 192.927 90.6177 192.721C90.4707 192.515 90.3515 192.27 90.2603 191.984C90.1692 191.699 90.1045 191.384 90.0662 191.04V190.744C90.1045 190.397 90.1692 190.083 90.2603 189.8C90.3515 189.515 90.4707 189.269 90.6177 189.063C90.7677 188.855 90.9516 188.694 91.1692 188.583C91.3899 188.471 91.6472 188.415 91.9414 188.415C92.2473 188.415 92.5164 188.474 92.7488 188.591C92.9841 188.709 93.1797 188.877 93.3356 189.094C93.4915 189.309 93.6077 189.565 93.6842 189.862C93.7636 190.159 93.8033 190.487 93.8033 190.846ZM92.74 190.939V190.846C92.74 190.631 92.7223 190.43 92.687 190.241C92.6517 190.05 92.5929 189.883 92.5105 189.739C92.4311 189.594 92.3223 189.481 92.184 189.399C92.0487 189.313 91.8796 189.271 91.6766 189.271C91.4884 189.271 91.3266 189.303 91.1913 189.368C91.056 189.433 90.9428 189.521 90.8516 189.633C90.7604 189.744 90.6883 189.874 90.6354 190.021C90.5854 190.168 90.5515 190.327 90.5339 190.497V191.296C90.5604 191.517 90.6163 191.72 90.7016 191.905C90.7898 192.087 90.9133 192.234 91.0722 192.346C91.231 192.455 91.4354 192.509 91.6855 192.509C91.8825 192.509 92.0487 192.47 92.184 192.39C92.3193 192.311 92.4267 192.2 92.5061 192.059C92.5885 191.915 92.6473 191.747 92.6826 191.556C92.7208 191.365 92.74 191.159 92.74 190.939Z" fill="#9C9C9C"/>
<path d="M86.8842 193.364C86.5312 193.364 86.212 193.307 85.9267 193.192C85.6443 193.075 85.4031 192.911 85.2031 192.703C85.0061 192.494 84.8546 192.248 84.7487 191.966C84.6428 191.683 84.5898 191.379 84.5898 191.053V190.876C84.5898 190.502 84.6443 190.164 84.7531 189.861C84.8619 189.558 85.0134 189.299 85.2075 189.085C85.4017 188.867 85.6311 188.701 85.8958 188.586C86.1606 188.471 86.4474 188.414 86.7562 188.414C87.0974 188.414 87.396 188.471 87.6519 188.586C87.9078 188.701 88.1196 188.863 88.2872 189.071C88.4578 189.277 88.5843 189.523 88.6667 189.808C88.752 190.094 88.7946 190.408 88.7946 190.752V191.207H85.1061V190.444H87.7445V190.36C87.7386 190.169 87.7004 189.989 87.6298 189.822C87.5622 189.654 87.4577 189.519 87.3165 189.416C87.1754 189.313 86.9871 189.261 86.7518 189.261C86.5753 189.261 86.4179 189.299 86.2797 189.376C86.1444 189.449 86.0311 189.557 85.94 189.698C85.8488 189.839 85.7782 190.01 85.7282 190.21C85.6811 190.407 85.6576 190.629 85.6576 190.876V191.053C85.6576 191.261 85.6855 191.455 85.7414 191.635C85.8002 191.811 85.8855 191.966 85.9973 192.098C86.1091 192.231 86.2444 192.335 86.4032 192.411C86.5621 192.485 86.743 192.522 86.9459 192.522C87.2018 192.522 87.4298 192.47 87.6298 192.367C87.8298 192.264 88.0034 192.119 88.1504 191.931L88.7108 192.473C88.6078 192.623 88.474 192.767 88.3093 192.906C88.1446 193.041 87.9431 193.151 87.7048 193.237C87.4695 193.322 87.1959 193.364 86.8842 193.364Z" fill="#9C9C9C"/>
<path d="M81.1114 186.852V193.276H80.0039V186.852H81.1114ZM83.7322 189.662V190.54H80.829V189.662H83.7322ZM84.0984 186.852V187.734H80.829V186.852H84.0984Z" fill="#9C9C9C"/>
<path d="M128.817 189.411V193.276H127.754V188.502H128.769L128.817 189.411ZM130.278 188.471L130.269 189.46C130.204 189.448 130.134 189.439 130.057 189.433C129.984 189.427 129.91 189.424 129.836 189.424C129.654 189.424 129.494 189.451 129.356 189.504C129.217 189.554 129.101 189.627 129.007 189.724C128.916 189.819 128.845 189.933 128.795 190.069C128.745 190.204 128.716 190.355 128.707 190.523L128.464 190.541C128.464 190.241 128.494 189.963 128.553 189.707C128.611 189.451 128.7 189.226 128.817 189.032C128.938 188.838 129.088 188.686 129.267 188.577C129.45 188.468 129.66 188.414 129.898 188.414C129.963 188.414 130.032 188.42 130.106 188.432C130.182 188.443 130.239 188.457 130.278 188.471Z" fill="#9C9C9C"/>
<path d="M125.57 192.319V190.042C125.57 189.872 125.539 189.724 125.477 189.601C125.416 189.477 125.321 189.382 125.195 189.314C125.071 189.246 124.916 189.213 124.727 189.213C124.554 189.213 124.404 189.242 124.277 189.301C124.151 189.36 124.052 189.439 123.982 189.539C123.911 189.639 123.876 189.752 123.876 189.879H122.817C122.817 189.691 122.862 189.508 122.954 189.332C123.045 189.155 123.177 188.998 123.351 188.86C123.524 188.721 123.732 188.613 123.973 188.533C124.214 188.454 124.485 188.414 124.785 188.414C125.143 188.414 125.461 188.474 125.738 188.595C126.017 188.716 126.236 188.898 126.395 189.142C126.557 189.383 126.638 189.686 126.638 190.051V192.173C126.638 192.391 126.652 192.586 126.682 192.76C126.714 192.931 126.76 193.079 126.819 193.206V193.276H125.729C125.679 193.162 125.639 193.016 125.61 192.839C125.583 192.66 125.57 192.486 125.57 192.319ZM125.724 190.373L125.733 191.03H124.97C124.773 191.03 124.599 191.05 124.449 191.088C124.299 191.123 124.174 191.176 124.074 191.247C123.974 191.317 123.899 191.403 123.849 191.503C123.799 191.603 123.774 191.716 123.774 191.842C123.774 191.969 123.804 192.085 123.863 192.191C123.921 192.294 124.007 192.375 124.118 192.434C124.233 192.492 124.371 192.522 124.533 192.522C124.751 192.522 124.941 192.478 125.102 192.389C125.267 192.298 125.396 192.188 125.491 192.058C125.585 191.926 125.635 191.801 125.641 191.683L125.985 192.156C125.949 192.276 125.889 192.406 125.804 192.544C125.719 192.682 125.607 192.814 125.469 192.941C125.333 193.064 125.17 193.166 124.979 193.245C124.791 193.325 124.573 193.364 124.326 193.364C124.014 193.364 123.736 193.303 123.492 193.179C123.248 193.053 123.057 192.884 122.918 192.672C122.78 192.457 122.711 192.214 122.711 191.944C122.711 191.691 122.758 191.467 122.852 191.273C122.949 191.076 123.09 190.911 123.276 190.779C123.464 190.647 123.693 190.547 123.964 190.479C124.235 190.408 124.543 190.373 124.891 190.373H125.724Z" fill="#9C9C9C"/>
<path d="M115.528 186.852H116.516L118.374 191.806L120.227 186.852H121.215L118.762 193.276H117.977L115.528 186.852ZM115.078 186.852H116.018L116.181 191.14V193.276H115.078V186.852ZM120.726 186.852H121.67V193.276H120.562V191.14L120.726 186.852Z" fill="#9C9C9C"/>
<path d="M27.1126 170.39V171.325C27.1126 171.773 27.0681 172.156 26.979 172.473C26.8925 172.787 26.7668 173.043 26.6017 173.239C26.4366 173.436 26.2388 173.58 26.0083 173.672C25.7803 173.763 25.5249 173.809 25.2419 173.809C25.0166 173.809 24.807 173.78 24.6131 173.723C24.4218 173.665 24.2489 173.575 24.0943 173.451C23.9397 173.328 23.8074 173.17 23.6974 172.976C23.5899 172.779 23.5061 172.545 23.4458 172.272C23.3882 172 23.3594 171.684 23.3594 171.325V170.39C23.3594 169.939 23.4039 169.559 23.493 169.25C23.5821 168.938 23.7092 168.686 23.8742 168.492C24.0393 168.295 24.2358 168.152 24.4637 168.063C24.6943 167.974 24.9511 167.93 25.234 167.93C25.462 167.93 25.6716 167.959 25.8628 168.016C26.0567 168.071 26.2297 168.159 26.3816 168.279C26.5362 168.4 26.6672 168.557 26.7746 168.751C26.8847 168.942 26.9685 169.174 27.0262 169.447C27.0838 169.717 27.1126 170.031 27.1126 170.39ZM26.1655 171.459V170.248C26.1655 170.02 26.1524 169.82 26.1262 169.647C26.1 169.472 26.0607 169.324 26.0083 169.203C25.9585 169.08 25.8956 168.98 25.8196 168.904C25.7436 168.826 25.6572 168.769 25.5602 168.735C25.4633 168.699 25.3546 168.68 25.234 168.68C25.0873 168.68 24.9563 168.709 24.841 168.767C24.7257 168.822 24.6288 168.911 24.5502 169.034C24.4716 169.157 24.4113 169.32 24.3694 169.521C24.3301 169.721 24.3105 169.963 24.3105 170.248V171.459C24.3105 171.689 24.3236 171.893 24.3498 172.068C24.376 172.244 24.4153 172.394 24.4677 172.52C24.5201 172.643 24.5829 172.745 24.6563 172.827C24.7323 172.905 24.8188 172.963 24.9157 173C25.0153 173.036 25.124 173.055 25.2419 173.055C25.3912 173.055 25.5235 173.026 25.6388 172.968C25.7541 172.91 25.8511 172.819 25.9297 172.693C26.0083 172.565 26.0672 172.398 26.1065 172.194C26.1458 171.989 26.1655 171.745 26.1655 171.459Z" fill="#9C9C9C"/>
<path d="M19.8025 171.069L19.0479 170.885L19.3584 168.008H22.4435V168.81H20.1444L19.9872 170.213C20.0763 170.16 20.1994 170.109 20.3566 170.059C20.5139 170.007 20.6933 169.981 20.8951 169.981C21.1649 169.981 21.406 170.025 21.6182 170.114C21.8331 170.201 22.0151 170.328 22.1645 170.496C22.3138 170.661 22.4278 170.862 22.5064 171.101C22.585 171.337 22.6243 171.603 22.6243 171.899C22.6243 172.163 22.585 172.411 22.5064 172.641C22.4304 172.872 22.3151 173.075 22.1606 173.251C22.006 173.426 21.8108 173.564 21.575 173.663C21.3418 173.76 21.0654 173.809 20.7457 173.809C20.5073 173.809 20.278 173.775 20.058 173.706C19.8405 173.636 19.6453 173.532 19.4724 173.396C19.2995 173.257 19.1606 173.087 19.0558 172.885C18.951 172.681 18.8907 172.446 18.875 172.182H19.8025C19.8261 172.368 19.8772 172.526 19.9558 172.657C20.037 172.786 20.1444 172.884 20.278 172.952C20.4117 173.02 20.5663 173.054 20.7418 173.054C20.9016 173.054 21.0392 173.027 21.1545 172.972C21.2697 172.914 21.3654 172.833 21.4414 172.728C21.52 172.62 21.5776 172.495 21.6143 172.351C21.6536 172.206 21.6732 172.047 21.6732 171.871C21.6732 171.703 21.651 171.55 21.6064 171.411C21.5645 171.272 21.5003 171.152 21.4138 171.05C21.33 170.948 21.2239 170.869 21.0955 170.814C20.9671 170.756 20.8191 170.727 20.6514 170.727C20.4261 170.727 20.2532 170.76 20.1326 170.826C20.0147 170.891 19.9047 170.972 19.8025 171.069Z" fill="#9C9C9C"/>
<path d="M16.5101 167.094V168.269H15.9049V167.094H16.5101ZM16.4355 173.512V174.565H15.8342V173.512H16.4355ZM17.0289 172.242C17.0289 172.09 16.9975 171.958 16.9346 171.845C16.8743 171.73 16.7748 171.626 16.6359 171.535C16.497 171.44 16.311 171.353 16.0778 171.271C15.7425 171.154 15.449 171.021 15.1975 170.875C14.9486 170.725 14.7547 170.542 14.6158 170.324C14.4796 170.104 14.4115 169.83 14.4115 169.503C14.4115 169.181 14.4848 168.902 14.6316 168.666C14.7809 168.43 14.9879 168.248 15.2525 168.12C15.5171 167.991 15.8263 167.927 16.18 167.927C16.4525 167.927 16.6975 167.968 16.9149 168.049C17.135 168.13 17.3224 168.249 17.4769 168.406C17.6315 168.564 17.7494 168.757 17.8307 168.988C17.9145 169.216 17.9564 169.478 17.9564 169.774H17.0132C17.0132 169.606 16.9935 169.457 16.9542 169.326C16.9176 169.192 16.8625 169.08 16.7892 168.988C16.7158 168.894 16.6267 168.822 16.5219 168.772C16.4197 168.722 16.3032 168.697 16.1722 168.697C15.9861 168.697 15.8329 168.733 15.7123 168.803C15.5918 168.871 15.5027 168.966 15.4451 169.086C15.3901 169.207 15.3626 169.344 15.3626 169.499C15.3626 169.648 15.3914 169.779 15.449 169.892C15.5067 170.005 15.6049 170.107 15.7438 170.199C15.8853 170.288 16.0791 170.378 16.3254 170.47C16.6634 170.59 16.9556 170.725 17.2018 170.875C17.4507 171.021 17.642 171.203 17.7756 171.421C17.9119 171.636 17.98 171.907 17.98 172.234C17.98 172.572 17.9014 172.859 17.7442 173.095C17.5896 173.331 17.3721 173.51 17.0918 173.633C16.8141 173.754 16.4905 173.814 16.1211 173.814C15.8879 173.814 15.656 173.784 15.4254 173.724C15.1975 173.661 14.9905 173.559 14.8045 173.417C14.6185 173.276 14.4704 173.088 14.3604 172.855C14.2503 172.619 14.1953 172.331 14.1953 171.991H15.1464C15.1464 172.195 15.1739 172.365 15.2289 172.502C15.2839 172.638 15.3586 172.745 15.4529 172.824C15.5473 172.902 15.6521 172.959 15.7674 172.993C15.8853 173.027 16.0032 173.044 16.1211 173.044C16.3176 173.044 16.4826 173.011 16.6163 172.946C16.7525 172.878 16.8547 172.783 16.9228 172.663C16.9935 172.54 17.0289 172.399 17.0289 172.242Z" fill="#9C9C9C"/>
<path d="M31.6868 143.374V144.31C31.6868 144.758 31.6423 145.14 31.5532 145.457C31.4668 145.772 31.341 146.027 31.1759 146.224C31.0109 146.42 30.813 146.564 30.5825 146.656C30.3545 146.748 30.0991 146.793 29.8161 146.793C29.5908 146.793 29.3812 146.765 29.1873 146.707C28.996 146.649 28.8231 146.559 28.6685 146.436C28.5139 146.313 28.3816 146.154 28.2716 145.96C28.1642 145.764 28.0803 145.529 28.0201 145.257C27.9624 144.984 27.9336 144.669 27.9336 144.31V143.374C27.9336 142.924 27.9781 142.544 28.0672 142.235C28.1563 141.923 28.2834 141.67 28.4484 141.476C28.6135 141.28 28.81 141.137 29.038 141.048C29.2685 140.959 29.5253 140.914 29.8083 140.914C30.0362 140.914 30.2458 140.943 30.4371 141.001C30.631 141.056 30.8039 141.143 30.9558 141.264C31.1104 141.384 31.2414 141.542 31.3488 141.735C31.4589 141.927 31.5427 142.159 31.6004 142.431C31.658 142.701 31.6868 143.015 31.6868 143.374ZM30.7397 144.443V143.233C30.7397 143.005 30.7266 142.804 30.7004 142.632C30.6742 142.456 30.6349 142.308 30.5825 142.187C30.5327 142.064 30.4698 141.965 30.3938 141.889C30.3179 141.81 30.2314 141.754 30.1344 141.72C30.0375 141.683 29.9288 141.665 29.8083 141.665C29.6615 141.665 29.5305 141.694 29.4152 141.751C29.3 141.806 29.203 141.895 29.1244 142.018C29.0458 142.142 28.9855 142.304 28.9436 142.506C28.9043 142.705 28.8847 142.947 28.8847 143.233V144.443C28.8847 144.674 28.8978 144.877 28.924 145.052C28.9502 145.228 28.9895 145.379 29.0419 145.504C29.0943 145.628 29.1572 145.73 29.2305 145.811C29.3065 145.89 29.393 145.947 29.4899 145.984C29.5895 146.021 29.6982 146.039 29.8161 146.039C29.9655 146.039 30.0978 146.01 30.2131 145.952C30.3283 145.895 30.4253 145.803 30.5039 145.677C30.5825 145.549 30.6414 145.383 30.6807 145.178C30.72 144.974 30.7397 144.729 30.7397 144.443Z" fill="#9C9C9C"/>
<path d="M27.1126 143.374V144.31C27.1126 144.758 27.0681 145.14 26.979 145.457C26.8925 145.772 26.7668 146.027 26.6017 146.224C26.4366 146.42 26.2388 146.564 26.0083 146.656C25.7803 146.748 25.5249 146.793 25.2419 146.793C25.0166 146.793 24.807 146.765 24.6131 146.707C24.4218 146.649 24.2489 146.559 24.0943 146.436C23.9397 146.313 23.8074 146.154 23.6974 145.96C23.5899 145.764 23.5061 145.529 23.4458 145.257C23.3882 144.984 23.3594 144.669 23.3594 144.31V143.374C23.3594 142.924 23.4039 142.544 23.493 142.235C23.5821 141.923 23.7092 141.67 23.8742 141.476C24.0393 141.28 24.2358 141.137 24.4637 141.048C24.6943 140.959 24.9511 140.914 25.234 140.914C25.462 140.914 25.6716 140.943 25.8628 141.001C26.0567 141.056 26.2297 141.143 26.3816 141.264C26.5362 141.384 26.6672 141.542 26.7746 141.735C26.8847 141.927 26.9685 142.159 27.0262 142.431C27.0838 142.701 27.1126 143.015 27.1126 143.374ZM26.1655 144.443V143.233C26.1655 143.005 26.1524 142.804 26.1262 142.632C26.1 142.456 26.0607 142.308 26.0083 142.187C25.9585 142.064 25.8956 141.965 25.8196 141.889C25.7436 141.81 25.6572 141.754 25.5602 141.72C25.4633 141.683 25.3546 141.665 25.234 141.665C25.0873 141.665 24.9563 141.694 24.841 141.751C24.7257 141.806 24.6288 141.895 24.5502 142.018C24.4716 142.142 24.4113 142.304 24.3694 142.506C24.3301 142.705 24.3105 142.947 24.3105 143.233V144.443C24.3105 144.674 24.3236 144.877 24.3498 145.052C24.376 145.228 24.4153 145.379 24.4677 145.504C24.5201 145.628 24.5829 145.73 24.6563 145.811C24.7323 145.89 24.8188 145.947 24.9157 145.984C25.0153 146.021 25.124 146.039 25.2419 146.039C25.3912 146.039 25.5235 146.01 25.6388 145.952C25.7541 145.895 25.8511 145.803 25.9297 145.677C26.0083 145.549 26.0672 145.383 26.1065 145.178C26.1458 144.974 26.1655 144.729 26.1655 144.443Z" fill="#9C9C9C"/>
<path d="M21.3971 140.977V146.718H20.4499V142.101L19.0469 142.576V141.794L21.2831 140.977H21.3971Z" fill="#9C9C9C"/>
<path d="M16.5101 140.078V141.253H15.9049V140.078H16.5101ZM16.4355 146.496V147.549H15.8342V146.496H16.4355ZM17.0289 145.227C17.0289 145.075 16.9975 144.942 16.9346 144.83C16.8743 144.714 16.7748 144.611 16.6359 144.519C16.497 144.425 16.311 144.337 16.0778 144.256C15.7425 144.138 15.449 144.006 15.1975 143.859C14.9486 143.71 14.7547 143.526 14.6158 143.309C14.4796 143.089 14.4115 142.815 14.4115 142.487C14.4115 142.165 14.4848 141.886 14.6316 141.65C14.7809 141.414 14.9879 141.232 15.2525 141.104C15.5171 140.975 15.8263 140.911 16.18 140.911C16.4525 140.911 16.6975 140.952 16.9149 141.033C17.135 141.114 17.3224 141.234 17.4769 141.391C17.6315 141.548 17.7494 141.742 17.8307 141.972C17.9145 142.2 17.9564 142.462 17.9564 142.758H17.0132C17.0132 142.591 16.9935 142.441 16.9542 142.31C16.9176 142.177 16.8625 142.064 16.7892 141.972C16.7158 141.878 16.6267 141.806 16.5219 141.756C16.4197 141.706 16.3032 141.682 16.1722 141.682C15.9861 141.682 15.8329 141.717 15.7123 141.788C15.5918 141.856 15.5027 141.95 15.4451 142.071C15.3901 142.191 15.3626 142.329 15.3626 142.483C15.3626 142.633 15.3914 142.764 15.449 142.876C15.5067 142.989 15.6049 143.091 15.7438 143.183C15.8853 143.272 16.0791 143.362 16.3254 143.454C16.6634 143.575 16.9556 143.71 17.2018 143.859C17.4507 144.006 17.642 144.188 17.7756 144.405C17.9119 144.62 17.98 144.891 17.98 145.219C17.98 145.557 17.9014 145.844 17.7442 146.079C17.5896 146.315 17.3721 146.495 17.0918 146.618C16.8141 146.738 16.4905 146.799 16.1211 146.799C15.8879 146.799 15.656 146.768 15.4254 146.708C15.1975 146.645 14.9905 146.543 14.8045 146.402C14.6185 146.26 14.4704 146.073 14.3604 145.84C14.2503 145.604 14.1953 145.316 14.1953 144.975H15.1464C15.1464 145.179 15.1739 145.35 15.2289 145.486C15.2839 145.622 15.3586 145.73 15.4529 145.808C15.5473 145.887 15.6521 145.943 15.7674 145.977C15.8853 146.011 16.0032 146.028 16.1211 146.028C16.3176 146.028 16.4826 145.996 16.6163 145.93C16.7525 145.862 16.8547 145.768 16.9228 145.647C16.9935 145.524 17.0289 145.384 17.0289 145.227Z" fill="#9C9C9C"/>
<path d="M31.6868 116.343V117.278C31.6868 117.726 31.6423 118.109 31.5532 118.426C31.4668 118.74 31.341 118.996 31.1759 119.192C31.0109 119.389 30.813 119.533 30.5825 119.625C30.3545 119.716 30.0991 119.762 29.8161 119.762C29.5908 119.762 29.3812 119.733 29.1873 119.676C28.996 119.618 28.8231 119.528 28.6685 119.405C28.5139 119.281 28.3816 119.123 28.2716 118.929C28.1642 118.733 28.0803 118.498 28.0201 118.226C27.9624 117.953 27.9336 117.637 27.9336 117.278V116.343C27.9336 115.892 27.9781 115.512 28.0672 115.203C28.1563 114.892 28.2834 114.639 28.4484 114.445C28.6135 114.248 28.81 114.106 29.038 114.016C29.2685 113.927 29.5253 113.883 29.8083 113.883C30.0362 113.883 30.2458 113.912 30.4371 113.969C30.631 114.024 30.8039 114.112 30.9558 114.233C31.1104 114.353 31.2414 114.51 31.3488 114.704C31.4589 114.895 31.5427 115.127 31.6004 115.4C31.658 115.67 31.6868 115.984 31.6868 116.343ZM30.7397 117.412V116.202C30.7397 115.974 30.7266 115.773 30.7004 115.6C30.6742 115.425 30.6349 115.277 30.5825 115.156C30.5327 115.033 30.4698 114.933 30.3938 114.857C30.3179 114.779 30.2314 114.723 30.1344 114.688C30.0375 114.652 29.9288 114.633 29.8083 114.633C29.6615 114.633 29.5305 114.662 29.4152 114.72C29.3 114.775 29.203 114.864 29.1244 114.987C29.0458 115.11 28.9855 115.273 28.9436 115.475C28.9043 115.674 28.8847 115.916 28.8847 116.202V117.412C28.8847 117.643 28.8978 117.846 28.924 118.021C28.9502 118.197 28.9895 118.347 29.0419 118.473C29.0943 118.596 29.1572 118.698 29.2305 118.78C29.3065 118.858 29.393 118.916 29.4899 118.953C29.5895 118.989 29.6982 119.008 29.8161 119.008C29.9655 119.008 30.0978 118.979 30.2131 118.921C30.3283 118.864 30.4253 118.772 30.5039 118.646C30.5825 118.518 30.6414 118.351 30.6807 118.147C30.72 117.943 30.7397 117.698 30.7397 117.412Z" fill="#9C9C9C"/>
<path d="M27.1126 116.343V117.278C27.1126 117.726 27.0681 118.109 26.979 118.426C26.8925 118.74 26.7668 118.996 26.6017 119.192C26.4366 119.389 26.2388 119.533 26.0083 119.625C25.7803 119.716 25.5249 119.762 25.2419 119.762C25.0166 119.762 24.807 119.733 24.6131 119.676C24.4218 119.618 24.2489 119.528 24.0943 119.405C23.9397 119.281 23.8074 119.123 23.6974 118.929C23.5899 118.733 23.5061 118.498 23.4458 118.226C23.3882 117.953 23.3594 117.637 23.3594 117.278V116.343C23.3594 115.892 23.4039 115.512 23.493 115.203C23.5821 114.892 23.7092 114.639 23.8742 114.445C24.0393 114.248 24.2358 114.106 24.4637 114.016C24.6943 113.927 24.9511 113.883 25.234 113.883C25.462 113.883 25.6716 113.912 25.8628 113.969C26.0567 114.024 26.2297 114.112 26.3816 114.233C26.5362 114.353 26.6672 114.51 26.7746 114.704C26.8847 114.895 26.9685 115.127 27.0262 115.4C27.0838 115.67 27.1126 115.984 27.1126 116.343ZM26.1655 117.412V116.202C26.1655 115.974 26.1524 115.773 26.1262 115.6C26.1 115.425 26.0607 115.277 26.0083 115.156C25.9585 115.033 25.8956 114.933 25.8196 114.857C25.7436 114.779 25.6572 114.723 25.5602 114.688C25.4633 114.652 25.3546 114.633 25.234 114.633C25.0873 114.633 24.9563 114.662 24.841 114.72C24.7257 114.775 24.6288 114.864 24.5502 114.987C24.4716 115.11 24.4113 115.273 24.3694 115.475C24.3301 115.674 24.3105 115.916 24.3105 116.202V117.412C24.3105 117.643 24.3236 117.846 24.3498 118.021C24.376 118.197 24.4153 118.347 24.4677 118.473C24.5201 118.596 24.5829 118.698 24.6563 118.78C24.7323 118.858 24.8188 118.916 24.9157 118.953C25.0153 118.989 25.124 119.008 25.2419 119.008C25.3912 119.008 25.5235 118.979 25.6388 118.921C25.7541 118.864 25.8511 118.772 25.9297 118.646C26.0083 118.518 26.0672 118.351 26.1065 118.147C26.1458 117.943 26.1655 117.698 26.1655 117.412Z" fill="#9C9C9C"/>
<path d="M19.8025 117.022L19.0479 116.838L19.3584 113.961H22.4435V114.763H20.1444L19.9872 116.166C20.0763 116.113 20.1994 116.062 20.3566 116.012C20.5139 115.96 20.6933 115.934 20.8951 115.934C21.1649 115.934 21.406 115.978 21.6182 116.067C21.8331 116.154 22.0151 116.281 22.1645 116.449C22.3138 116.614 22.4278 116.815 22.5064 117.054C22.585 117.29 22.6243 117.556 22.6243 117.852C22.6243 118.116 22.585 118.364 22.5064 118.595C22.4304 118.825 22.3151 119.028 22.1606 119.204C22.006 119.379 21.8108 119.517 21.575 119.616C21.3418 119.713 21.0654 119.762 20.7457 119.762C20.5073 119.762 20.278 119.728 20.058 119.66C19.8405 119.589 19.6453 119.485 19.4724 119.349C19.2995 119.21 19.1606 119.04 19.0558 118.838C18.951 118.634 18.8907 118.399 18.875 118.135H19.8025C19.8261 118.321 19.8772 118.479 19.9558 118.61C20.037 118.739 20.1444 118.837 20.278 118.905C20.4117 118.973 20.5663 119.007 20.7418 119.007C20.9016 119.007 21.0392 118.98 21.1545 118.925C21.2697 118.867 21.3654 118.786 21.4414 118.681C21.52 118.574 21.5776 118.448 21.6143 118.304C21.6536 118.16 21.6732 118 21.6732 117.824C21.6732 117.657 21.651 117.503 21.6064 117.364C21.5645 117.226 21.5003 117.105 21.4138 117.003C21.33 116.901 21.2239 116.822 21.0955 116.767C20.9671 116.709 20.8191 116.681 20.6514 116.681C20.4261 116.681 20.2532 116.713 20.1326 116.779C20.0147 116.844 19.9047 116.926 19.8025 117.022Z" fill="#9C9C9C"/>
<path d="M16.5101 113.047V114.222H15.9049V113.047H16.5101ZM16.4355 119.465V120.518H15.8342V119.465H16.4355ZM17.0289 118.195C17.0289 118.043 16.9975 117.911 16.9346 117.798C16.8743 117.683 16.7748 117.58 16.6359 117.488C16.497 117.394 16.311 117.306 16.0778 117.225C15.7425 117.107 15.449 116.974 15.1975 116.828C14.9486 116.678 14.7547 116.495 14.6158 116.277C14.4796 116.057 14.4115 115.784 14.4115 115.456C14.4115 115.134 14.4848 114.855 14.6316 114.619C14.7809 114.383 14.9879 114.201 15.2525 114.073C15.5171 113.944 15.8263 113.88 16.18 113.88C16.4525 113.88 16.6975 113.921 16.9149 114.002C17.135 114.083 17.3224 114.202 17.4769 114.36C17.6315 114.517 17.7494 114.711 17.8307 114.941C17.9145 115.169 17.9564 115.431 17.9564 115.727H17.0132C17.0132 115.56 16.9935 115.41 16.9542 115.279C16.9176 115.146 16.8625 115.033 16.7892 114.941C16.7158 114.847 16.6267 114.775 16.5219 114.725C16.4197 114.675 16.3032 114.65 16.1722 114.65C15.9861 114.65 15.8329 114.686 15.7123 114.756C15.5918 114.825 15.5027 114.919 15.4451 115.039C15.3901 115.16 15.3626 115.298 15.3626 115.452C15.3626 115.601 15.3914 115.732 15.449 115.845C15.5067 115.958 15.6049 116.06 15.7438 116.152C15.8853 116.241 16.0791 116.331 16.3254 116.423C16.6634 116.543 16.9556 116.678 17.2018 116.828C17.4507 116.974 17.642 117.156 17.7756 117.374C17.9119 117.589 17.98 117.86 17.98 118.187C17.98 118.525 17.9014 118.812 17.7442 119.048C17.5896 119.284 17.3721 119.463 17.0918 119.587C16.8141 119.707 16.4905 119.767 16.1211 119.767C15.8879 119.767 15.656 119.737 15.4254 119.677C15.1975 119.614 14.9905 119.512 14.8045 119.37C14.6185 119.229 14.4704 119.042 14.3604 118.808C14.2503 118.573 14.1953 118.284 14.1953 117.944H15.1464C15.1464 118.148 15.1739 118.318 15.2289 118.455C15.2839 118.591 15.3586 118.698 15.4529 118.777C15.5473 118.856 15.6521 118.912 15.7674 118.946C15.8853 118.98 16.0032 118.997 16.1211 118.997C16.3176 118.997 16.4826 118.964 16.6163 118.899C16.7525 118.831 16.8547 118.736 16.9228 118.616C16.9935 118.493 17.0289 118.353 17.0289 118.195Z" fill="#9C9C9C"/>
<path d="M31.6868 89.3196V90.255C31.6868 90.703 31.6423 91.0855 31.5532 91.4026C31.4668 91.717 31.341 91.9724 31.1759 92.1689C31.0109 92.3654 30.813 92.5095 30.5825 92.6012C30.3545 92.693 30.0991 92.7388 29.8161 92.7388C29.5908 92.7388 29.3812 92.71 29.1873 92.6523C28.996 92.5947 28.8231 92.5043 28.6685 92.3812C28.5139 92.258 28.3816 92.0995 28.2716 91.9056C28.1642 91.7091 28.0803 91.4746 28.0201 91.2021C27.9624 90.9296 27.9336 90.6139 27.9336 90.255V89.3196C27.9336 88.869 27.9781 88.4891 28.0672 88.1799C28.1563 87.8681 28.2834 87.6153 28.4484 87.4214C28.6135 87.2249 28.81 87.0821 29.038 86.993C29.2685 86.9039 29.5253 86.8594 29.8083 86.8594C30.0362 86.8594 30.2458 86.8882 30.4371 86.9458C30.631 87.0009 30.8039 87.0886 30.9558 87.2092C31.1104 87.3297 31.2414 87.4869 31.3488 87.6808C31.4589 87.872 31.5427 88.1039 31.6004 88.3764C31.658 88.6463 31.6868 88.9607 31.6868 89.3196ZM30.7397 90.3886V89.1781C30.7397 88.9502 30.7266 88.7498 30.7004 88.5768C30.6742 88.4013 30.6349 88.2532 30.5825 88.1327C30.5327 88.0096 30.4698 87.91 30.3938 87.834C30.3179 87.7554 30.2314 87.6991 30.1344 87.665C30.0375 87.6284 29.9288 87.61 29.8083 87.61C29.6615 87.61 29.5305 87.6388 29.4152 87.6965C29.3 87.7515 29.203 87.8406 29.1244 87.9637C29.0458 88.0869 28.9855 88.2493 28.9436 88.4511C28.9043 88.6502 28.8847 88.8925 28.8847 89.1781V90.3886C28.8847 90.6192 28.8978 90.8222 28.924 90.9978C28.9502 91.1733 28.9895 91.324 29.0419 91.4497C29.0943 91.5729 29.1572 91.6751 29.2305 91.7563C29.3065 91.8349 29.393 91.8925 29.4899 91.9292C29.5895 91.9659 29.6982 91.9842 29.8161 91.9842C29.9655 91.9842 30.0978 91.9554 30.2131 91.8978C30.3283 91.8401 30.4253 91.7484 30.5039 91.6227C30.5825 91.4943 30.6414 91.3279 30.6807 91.1235C30.72 90.9192 30.7397 90.6742 30.7397 90.3886Z" fill="#9C9C9C"/>
<path d="M27.1126 89.3196V90.255C27.1126 90.703 27.0681 91.0855 26.979 91.4026C26.8925 91.717 26.7668 91.9724 26.6017 92.1689C26.4366 92.3654 26.2388 92.5095 26.0083 92.6012C25.7803 92.693 25.5249 92.7388 25.2419 92.7388C25.0166 92.7388 24.807 92.71 24.6131 92.6523C24.4218 92.5947 24.2489 92.5043 24.0943 92.3812C23.9397 92.258 23.8074 92.0995 23.6974 91.9056C23.5899 91.7091 23.5061 91.4746 23.4458 91.2021C23.3882 90.9296 23.3594 90.6139 23.3594 90.255V89.3196C23.3594 88.869 23.4039 88.4891 23.493 88.1799C23.5821 87.8681 23.7092 87.6153 23.8742 87.4214C24.0393 87.2249 24.2358 87.0821 24.4637 86.993C24.6943 86.9039 24.9511 86.8594 25.234 86.8594C25.462 86.8594 25.6716 86.8882 25.8628 86.9458C26.0567 87.0009 26.2297 87.0886 26.3816 87.2092C26.5362 87.3297 26.6672 87.4869 26.7746 87.6808C26.8847 87.872 26.9685 88.1039 27.0262 88.3764C27.0838 88.6463 27.1126 88.9607 27.1126 89.3196ZM26.1655 90.3886V89.1781C26.1655 88.9502 26.1524 88.7498 26.1262 88.5768C26.1 88.4013 26.0607 88.2532 26.0083 88.1327C25.9585 88.0096 25.8956 87.91 25.8196 87.834C25.7436 87.7554 25.6572 87.6991 25.5602 87.665C25.4633 87.6284 25.3546 87.61 25.234 87.61C25.0873 87.61 24.9563 87.6388 24.841 87.6965C24.7257 87.7515 24.6288 87.8406 24.5502 87.9637C24.4716 88.0869 24.4113 88.2493 24.3694 88.4511C24.3301 88.6502 24.3105 88.8925 24.3105 89.1781V90.3886C24.3105 90.6192 24.3236 90.8222 24.3498 90.9978C24.376 91.1733 24.4153 91.324 24.4677 91.4497C24.5201 91.5729 24.5829 91.6751 24.6563 91.7563C24.7323 91.8349 24.8188 91.8925 24.9157 91.9292C25.0153 91.9659 25.124 91.9842 25.2419 91.9842C25.3912 91.9842 25.5235 91.9554 25.6388 91.8978C25.7541 91.8401 25.8511 91.7484 25.9297 91.6227C26.0083 91.4943 26.0672 91.3279 26.1065 91.1235C26.1458 90.9192 26.1655 90.6742 26.1655 90.3886Z" fill="#9C9C9C"/>
<path d="M22.61 86.9375V87.4563L20.3227 92.6597H19.3244L21.6078 87.6921H18.6445V86.9375H22.61Z" fill="#9C9C9C"/>
<path d="M16.5101 86.0234V87.1985H15.9049V86.0234H16.5101ZM16.4355 92.4413V93.4946H15.8342V92.4413H16.4355ZM17.0289 91.1719C17.0289 91.0199 16.9975 90.8876 16.9346 90.7749C16.8743 90.6596 16.7748 90.5562 16.6359 90.4644C16.497 90.3701 16.311 90.2824 16.0778 90.2011C15.7425 90.0832 15.449 89.9509 15.1975 89.8042C14.9486 89.6548 14.7547 89.4714 14.6158 89.254C14.4796 89.0339 14.4115 88.7601 14.4115 88.4326C14.4115 88.1103 14.4848 87.8313 14.6316 87.5955C14.7809 87.3597 14.9879 87.1776 15.2525 87.0492C15.5171 86.9208 15.8263 86.8566 16.18 86.8566C16.4525 86.8566 16.6975 86.8972 16.9149 86.9785C17.135 87.0597 17.3224 87.1789 17.4769 87.3361C17.6315 87.4933 17.7494 87.6872 17.8307 87.9177C17.9145 88.1457 17.9564 88.4077 17.9564 88.7038H17.0132C17.0132 88.5361 16.9935 88.3867 16.9542 88.2557C16.9176 88.1221 16.8625 88.0094 16.7892 87.9177C16.7158 87.8234 16.6267 87.7514 16.5219 87.7016C16.4197 87.6518 16.3032 87.6269 16.1722 87.6269C15.9861 87.6269 15.8329 87.6623 15.7123 87.733C15.5918 87.8012 15.5027 87.8955 15.4451 88.016C15.3901 88.1365 15.3626 88.2741 15.3626 88.4287C15.3626 88.578 15.3914 88.709 15.449 88.8217C15.5067 88.9343 15.6049 89.0365 15.7438 89.1282C15.8853 89.2173 16.0791 89.3077 16.3254 89.3994C16.6634 89.5199 16.9556 89.6548 17.2018 89.8042C17.4507 89.9509 17.642 90.133 17.7756 90.3505C17.9119 90.5653 17.98 90.8365 17.98 91.164C17.98 91.502 17.9014 91.7889 17.7442 92.0247C17.5896 92.2605 17.3721 92.44 17.0918 92.5631C16.8141 92.6836 16.4905 92.7439 16.1211 92.7439C15.8879 92.7439 15.656 92.7138 15.4254 92.6535C15.1975 92.5906 14.9905 92.4884 14.8045 92.347C14.6185 92.2055 14.4704 92.0181 14.3604 91.785C14.2503 91.5492 14.1953 91.2609 14.1953 90.9203H15.1464C15.1464 91.1247 15.1739 91.295 15.2289 91.4313C15.2839 91.5675 15.3586 91.6749 15.4529 91.7535C15.5473 91.8321 15.6521 91.8885 15.7674 91.9225C15.8853 91.9566 16.0032 91.9736 16.1211 91.9736C16.3176 91.9736 16.4826 91.9409 16.6163 91.8754C16.7525 91.8072 16.8547 91.7129 16.9228 91.5924C16.9935 91.4692 17.0289 91.3291 17.0289 91.1719Z" fill="#9C9C9C"/>
<path d="M24.3964 59.6016V65.6382H23.4453V59.6016H24.3964ZM27.0374 61.3858L25.1863 63.4373L24.1724 64.4749L23.9248 63.6731L24.6912 62.726L25.8938 61.3858H27.0374ZM26.0981 65.6382L24.7187 63.6417L25.316 62.9775L27.1946 65.6382H26.0981Z" fill="#9C9C9C"/>
<path d="M21.3971 59.8984V65.6403H20.4499V61.0224L19.0469 61.498V60.7159L21.2831 59.8984H21.3971Z" fill="#9C9C9C"/>
<path d="M16.5101 59V60.1751H15.9049V59H16.5101ZM16.4355 65.4179V66.4711H15.8342V65.4179H16.4355ZM17.0289 64.1484C17.0289 63.9965 16.9975 63.8642 16.9346 63.7515C16.8743 63.6362 16.7748 63.5327 16.6359 63.441C16.497 63.3467 16.311 63.2589 16.0778 63.1777C15.7425 63.0598 15.449 62.9275 15.1975 62.7808C14.9486 62.6314 14.7547 62.448 14.6158 62.2305C14.4796 62.0105 14.4115 61.7367 14.4115 61.4092C14.4115 61.0869 14.4848 60.8078 14.6316 60.572C14.7809 60.3362 14.9879 60.1541 15.2525 60.0258C15.5171 59.8974 15.8263 59.8332 16.18 59.8332C16.4525 59.8332 16.6975 59.8738 16.9149 59.955C17.135 60.0362 17.3224 60.1554 17.4769 60.3127C17.6315 60.4699 17.7494 60.6637 17.8307 60.8943C17.9145 61.1223 17.9564 61.3843 17.9564 61.6803H17.0132C17.0132 61.5126 16.9935 61.3633 16.9542 61.2323C16.9176 61.0987 16.8625 60.986 16.7892 60.8943C16.7158 60.8 16.6267 60.7279 16.5219 60.6782C16.4197 60.6284 16.3032 60.6035 16.1722 60.6035C15.9861 60.6035 15.8329 60.6389 15.7123 60.7096C15.5918 60.7777 15.5027 60.872 15.4451 60.9926C15.3901 61.1131 15.3626 61.2506 15.3626 61.4052C15.3626 61.5546 15.3914 61.6856 15.449 61.7982C15.5067 61.9109 15.6049 62.0131 15.7438 62.1048C15.8853 62.1939 16.0791 62.2843 16.3254 62.376C16.6634 62.4965 16.9556 62.6314 17.2018 62.7808C17.4507 62.9275 17.642 63.1096 17.7756 63.327C17.9119 63.5419 17.98 63.8131 17.98 64.1406C17.98 64.4786 17.9014 64.7655 17.7442 65.0013C17.5896 65.2371 17.3721 65.4165 17.0918 65.5397C16.8141 65.6602 16.4905 65.7205 16.1211 65.7205C15.8879 65.7205 15.656 65.6903 15.4254 65.6301C15.1975 65.5672 14.9905 65.465 14.8045 65.3235C14.6185 65.182 14.4704 64.9947 14.3604 64.7615C14.2503 64.5257 14.1953 64.2375 14.1953 63.8969H15.1464C15.1464 64.1013 15.1739 64.2716 15.2289 64.4078C15.2839 64.5441 15.3586 64.6515 15.4529 64.7301C15.5473 64.8087 15.6521 64.865 15.7674 64.8991C15.8853 64.9331 16.0032 64.9502 16.1211 64.9502C16.3176 64.9502 16.4826 64.9174 16.6163 64.8519C16.7525 64.7838 16.8547 64.6895 16.9228 64.5689C16.9935 64.4458 17.0289 64.3056 17.0289 64.1484Z" fill="#9C9C9C"/>
<path fill-rule="evenodd" clip-rule="evenodd" d="M198.465 106.02C195.546 105.731 192.602 106.957 189.626 109.704L189.468 109.526L189.626 109.704C187.378 111.778 185.132 114.698 182.87 117.639C182.126 118.606 181.381 119.574 180.634 120.516C179.129 122.412 177.617 124.194 176.1 125.605C174.585 127.014 173.048 128.069 171.491 128.487C169.928 128.906 168.376 128.674 166.849 128.159C165.535 127.715 164.221 127.054 162.925 126.401C162.719 126.298 162.515 126.195 162.31 126.093C159.289 124.585 156.388 123.334 153.499 124.809C152.055 125.548 150.582 127.274 149.077 129.386C148.328 130.437 147.579 131.572 146.827 132.713L146.813 132.733C146.067 133.865 145.318 135.001 144.568 136.056C143.067 138.167 141.534 139.995 139.974 140.805C139.185 141.215 138.374 141.372 137.554 141.161C136.738 140.951 135.946 140.384 135.174 139.414C134.386 138.424 133.643 137.817 132.935 137.468C132.229 137.12 131.544 137.022 130.859 137.069C130.17 137.116 129.481 137.31 128.765 137.552C128.535 137.63 128.299 137.714 128.061 137.799C127.571 137.973 127.067 138.152 126.56 138.298C123.225 139.252 120.083 138.104 117.356 137.107C116.99 136.973 116.632 136.842 116.281 136.72C114.781 136.194 113.441 135.82 112.253 135.951C111.09 136.078 110.043 136.693 109.131 138.229L108.93 138.106L109.131 138.229C107.595 140.818 106.059 143.977 104.517 147.148C104.45 147.286 104.382 147.425 104.315 147.563C102.708 150.866 101.094 154.156 99.4775 156.771C96.4646 161.649 93.4046 164.246 90.2811 164.511C87.1478 164.776 84.072 162.687 81.0519 158.517L81.0518 158.517C75.0426 150.212 69.032 141.988 63.0225 134.535L63.0225 134.535C59.5223 130.192 56.0455 129.113 53.193 129.14C49.9442 129.173 47.2936 131.452 45.3491 134.013L44.9766 133.721C46.9471 131.125 49.7176 128.697 53.1884 128.662H53.1885C56.1898 128.633 59.7999 129.782 63.3864 134.232C69.4047 141.696 75.4218 149.929 81.4308 158.233C84.4246 162.368 87.3627 164.278 90.2421 164.034C93.1313 163.789 96.0828 161.368 99.079 156.516L99.0791 156.516C100.681 153.926 102.284 150.659 103.893 147.351C103.962 147.21 104.03 147.069 104.099 146.927C105.638 143.764 107.182 140.589 108.728 137.982C109.704 136.337 110.872 135.621 112.202 135.475C113.507 135.332 114.938 135.743 116.434 136.267C116.793 136.393 117.156 136.525 117.523 136.659C120.264 137.658 123.253 138.747 126.432 137.837C126.926 137.696 127.405 137.525 127.886 137.354C128.128 137.268 128.371 137.181 128.617 137.098C129.342 136.853 130.077 136.643 130.828 136.591C131.583 136.54 132.351 136.649 133.14 137.037C133.926 137.425 134.721 138.084 135.54 139.113L135.357 139.263L135.54 139.113C136.271 140.032 136.983 140.52 137.67 140.697C138.353 140.873 139.046 140.75 139.76 140.379C141.207 139.628 142.681 137.892 144.186 135.776C144.931 134.728 145.677 133.598 146.425 132.464L146.436 132.446C147.187 131.307 147.941 130.165 148.696 129.106C150.196 126.999 151.728 125.179 153.288 124.382L153.288 124.382C156.413 122.786 159.527 124.171 162.518 125.664C162.725 125.767 162.931 125.871 163.137 125.975C164.436 126.628 165.717 127.273 166.997 127.705C168.476 128.204 169.929 128.411 171.371 128.024L171.431 128.255L171.371 128.024C172.82 127.636 174.29 126.64 175.782 125.252C177.272 123.866 178.766 122.107 180.268 120.215C181.002 119.29 181.739 118.332 182.477 117.372C184.746 114.422 187.029 111.453 189.309 109.349C192.347 106.547 195.416 105.237 198.511 105.544C201.6 105.85 204.656 107.761 207.682 111.273C210.706 114.78 213.724 119.915 216.727 125.075C216.829 125.25 216.931 125.425 217.033 125.601C219.94 130.598 222.834 135.572 225.723 139.13C228.706 142.801 231.684 144.815 234.282 145.994C236.486 146.994 238.419 147.395 239.878 147.698C240.142 147.753 240.39 147.805 240.622 147.856L243.628 148.521L243.528 148.988L240.521 148.323L240.571 148.09L240.521 148.323C240.296 148.273 240.052 148.223 239.791 148.169C238.332 147.866 236.345 147.454 234.09 146.43C231.427 145.222 228.391 143.164 225.36 139.435L225.541 139.282L225.36 139.435C222.447 135.847 219.537 130.844 216.639 125.863L216.322 125.319C213.313 120.147 210.317 115.055 207.328 111.588L207.505 111.43L207.328 111.588C204.344 108.125 201.389 106.309 198.465 106.02Z" fill="#EF6E59" stroke="#EF6E59" stroke-miterlimit="10"/>
<path d="M243.623 163.249L238.214 162.593C235.243 161.936 229.296 160.628 223.349 153.322C217.401 146.016 211.459 132.712 205.512 125.826C199.565 118.941 193.617 118.468 187.675 123.947C181.728 129.425 175.785 140.845 169.838 142.436C163.891 144.028 157.949 135.787 152.001 138.823C146.054 141.855 140.112 156.165 134.165 148.703C128.217 141.241 122.27 112.012 116.328 106.851C110.381 101.693 104.438 120.608 98.4909 130.214C92.5437 139.82 86.6013 140.122 80.6541 131.923C74.7069 123.725 68.7645 107.03 62.8173 99.6673C56.8701 92.3046 50.9276 94.2693 47.9517 95.2516L44.9805 96.2339V179.528H243.632V163.244L243.623 163.249Z" fill="url(#paint0_linear_485_2552)"/>
<path fill-rule="evenodd" clip-rule="evenodd" d="M54.6115 95.0782C52.0993 94.7844 49.9397 95.4893 48.4517 95.978L45.4776 96.9546C45.2792 97.0197 45.0653 96.9128 44.9997 96.7159C44.9341 96.5189 45.0417 96.3064 45.2401 96.2413L48.2267 95.2606C49.7131 94.7725 52.0117 94.0177 54.7 94.3321C57.4136 94.6496 60.476 96.0484 63.507 99.7754C66.5165 103.476 69.5113 109.501 72.4799 115.572C72.6157 115.849 72.7514 116.127 72.8871 116.405C75.7315 122.225 78.5551 128.003 81.3727 131.859C84.3293 135.907 87.1947 137.726 89.9634 137.493C92.7487 137.259 95.6369 134.938 98.5987 130.182C100.075 127.813 101.556 124.864 103.044 121.836C103.217 121.485 103.389 121.134 103.562 120.782C104.876 118.103 106.197 115.411 107.518 113.078C109.006 110.45 110.524 108.224 112.073 106.984C112.852 106.36 113.67 105.96 114.521 105.912C115.382 105.863 116.22 106.178 117.022 106.869C117.814 107.551 118.583 108.609 119.335 109.923C120.09 111.241 120.841 112.842 121.588 114.63C123.081 118.206 124.573 122.564 126.06 126.979C126.209 127.422 126.359 127.867 126.508 128.311C127.847 132.292 129.182 136.264 130.517 139.717C132.006 143.567 133.476 146.724 134.924 148.528C135.641 149.422 136.338 149.964 137.009 150.248C137.673 150.529 138.335 150.567 139.008 150.414C140.38 150.103 141.801 148.999 143.285 147.499C144.223 146.552 145.151 145.485 146.089 144.407C146.634 143.78 147.182 143.15 147.737 142.538C149.224 140.897 150.753 139.393 152.31 138.605C155.478 137 158.629 138.402 161.579 139.862C161.785 139.964 161.99 140.066 162.194 140.168C163.481 140.81 164.738 141.437 165.995 141.858C167.444 142.343 168.85 142.538 170.238 142.168C171.639 141.796 173.072 140.838 174.542 139.481C176.009 138.129 177.482 136.409 178.967 134.554C179.688 133.653 180.412 132.718 181.14 131.781C183.389 128.881 185.663 125.949 187.934 123.873C190.958 121.106 194.035 119.794 197.154 120.1C200.264 120.406 203.321 122.312 206.33 125.773C209.334 129.227 212.327 134.279 215.297 139.34C215.395 139.507 215.493 139.673 215.59 139.84C218.472 144.753 221.334 149.631 224.191 153.116C230.054 160.27 235.892 161.553 238.841 162.2L244.237 162.85C244.444 162.875 244.592 163.062 244.567 163.268C244.541 163.474 244.353 163.621 244.145 163.596L238.714 162.941L238.696 162.937C235.681 162.277 229.635 160.95 223.604 153.591C220.709 150.058 217.821 145.135 214.954 140.247C214.85 140.071 214.747 139.894 214.644 139.718C211.663 134.639 208.706 129.655 205.757 126.264C202.813 122.878 199.92 121.127 197.079 120.848C194.248 120.57 191.374 121.746 188.446 124.426C186.227 126.454 184.012 129.309 181.774 132.196C181.038 133.144 180.3 134.095 179.559 135.021C178.068 136.883 176.567 138.64 175.057 140.032C173.552 141.421 172.009 142.475 170.434 142.894C168.848 143.316 167.279 143.081 165.753 142.569C164.442 142.13 163.131 141.476 161.848 140.836C161.646 140.735 161.443 140.634 161.242 140.534C158.241 139.049 155.438 137.864 152.654 139.274C151.235 139.993 149.788 141.398 148.299 143.04C147.767 143.627 147.229 144.246 146.688 144.868C145.737 145.961 144.776 147.065 143.825 148.026C142.334 149.533 140.78 150.783 139.176 151.147C138.361 151.332 137.535 151.287 136.712 150.939C135.894 150.592 135.103 149.956 134.332 148.996C132.804 147.091 131.298 143.832 129.811 139.986C128.47 136.517 127.129 132.529 125.791 128.551C125.642 128.106 125.492 127.661 125.342 127.217C123.854 122.798 122.371 118.465 120.889 114.918C120.148 113.144 119.411 111.575 118.678 110.294C117.941 109.008 117.223 108.036 116.526 107.437C115.841 106.846 115.19 106.627 114.564 106.662C113.927 106.698 113.256 107.001 112.548 107.568C111.122 108.71 109.664 110.821 108.177 113.447C106.868 115.758 105.558 118.428 104.242 121.111C104.07 121.462 103.897 121.814 103.724 122.166C102.238 125.189 100.742 128.172 99.242 130.578C99.242 130.578 99.2421 130.578 99.242 130.578C96.2557 135.372 93.1935 137.976 90.0271 138.242C86.8442 138.509 83.7566 136.403 80.7603 132.3C80.7603 132.3 80.7604 132.3 80.7603 132.3C77.9021 128.389 75.052 122.556 72.2226 116.766C72.0815 116.477 71.9404 116.188 71.7994 115.9C68.8174 109.802 65.8617 103.867 62.9184 100.247C59.9965 96.6545 57.106 95.37 54.6115 95.0782Z" fill="#A1ED4C"/>
<path d="M170.238 142.168C168.85 142.538 167.444 142.343 165.995 141.858C164.738 141.437 163.481 140.81 162.194 140.168C161.99 140.066 161.785 139.964 161.579 139.862C158.629 138.402 155.478 137 152.31 138.605C150.753 139.393 149.224 140.897 147.737 142.538C147.182 143.15 146.634 143.78 146.089 144.407C145.151 145.485 144.223 146.552 143.285 147.499C141.801 148.999 140.38 150.103 139.008 150.414C138.335 150.567 137.673 150.529 137.009 150.248C136.338 149.964 135.641 149.422 134.924 148.528C133.476 146.724 132.006 143.567 130.517 139.717C129.182 136.264 127.847 132.292 126.508 128.311C126.359 127.867 126.209 127.422 126.06 126.979C124.573 122.564 123.081 118.206 121.588 114.63C120.841 112.842 120.09 111.241 119.335 109.923C118.583 108.609 117.814 107.551 117.022 106.869C116.22 106.178 115.382 105.863 114.521 105.912C113.67 105.96 112.852 106.36 112.073 106.984C110.524 108.224 109.006 110.45 107.518 113.078C106.197 115.411 104.876 118.103 103.562 120.782C103.389 121.134 103.217 121.485 103.044 121.836C101.556 124.864 100.075 127.813 98.5987 130.182C95.6369 134.938 92.7487 137.259 89.9634 137.493C87.1947 137.726 84.3293 135.907 81.3727 131.859C78.5551 128.003 75.7315 122.225 72.8871 116.405C72.7514 116.127 72.6157 115.849 72.4799 115.572C69.5113 109.501 66.5165 103.476 63.507 99.7754C60.476 96.0484 57.4136 94.6496 54.7 94.3321C52.0117 94.0177 49.7131 94.7725 48.2267 95.2606L45.2401 96.2413C45.0417 96.3064 44.9341 96.5189 44.9997 96.7159C45.0653 96.9128 45.2792 97.0197 45.4776 96.9546L48.4517 95.978C49.9397 95.4893 52.0993 94.7844 54.6115 95.0782C57.106 95.37 59.9965 96.6545 62.9184 100.247C65.8617 103.867 68.8174 109.802 71.7994 115.9C71.9404 116.188 72.0815 116.477 72.2226 116.766C75.052 122.556 77.9021 128.389 80.7603 132.3M170.238 142.168L170.336 142.531M170.238 142.168C171.639 141.796 173.072 140.838 174.542 139.481C176.009 138.129 177.482 136.409 178.967 134.554C179.688 133.653 180.412 132.718 181.14 131.781C183.389 128.881 185.663 125.949 187.934 123.873C190.958 121.106 194.035 119.794 197.154 120.1C200.264 120.406 203.321 122.312 206.33 125.773C209.334 129.227 212.327 134.279 215.297 139.34C215.395 139.507 215.493 139.673 215.59 139.84C218.472 144.753 221.334 149.631 224.191 153.116C230.054 160.27 235.892 161.553 238.841 162.2L244.237 162.85C244.444 162.875 244.592 163.062 244.567 163.268C244.541 163.474 244.353 163.621 244.145 163.596L238.714 162.941L238.696 162.937C235.681 162.277 229.635 160.95 223.604 153.591C220.709 150.058 217.821 145.135 214.954 140.247C214.85 140.071 214.747 139.894 214.644 139.718C211.663 134.639 208.706 129.655 205.757 126.264C202.813 122.878 199.92 121.127 197.079 120.848C194.248 120.57 191.374 121.746 188.446 124.426C186.227 126.454 184.012 129.309 181.774 132.196C181.038 133.144 180.3 134.095 179.559 135.021C178.068 136.883 176.567 138.64 175.057 140.032C173.552 141.421 172.009 142.475 170.434 142.894C168.848 143.316 167.279 143.081 165.753 142.569C164.442 142.13 163.131 141.476 161.848 140.836C161.646 140.735 161.443 140.634 161.242 140.534C158.241 139.049 155.438 137.864 152.654 139.274C151.235 139.993 149.788 141.398 148.299 143.04C147.767 143.627 147.229 144.246 146.688 144.868C145.737 145.961 144.776 147.065 143.825 148.026C142.334 149.533 140.78 150.783 139.176 151.147C138.361 151.332 137.535 151.287 136.712 150.939C135.894 150.592 135.103 149.956 134.332 148.996C132.804 147.091 131.298 143.832 129.811 139.986C128.47 136.517 127.129 132.529 125.791 128.551C125.642 128.106 125.492 127.661 125.342 127.217C123.854 122.798 122.371 118.465 120.889 114.918C120.148 113.144 119.411 111.575 118.678 110.294C117.941 109.008 117.223 108.036 116.526 107.437C115.841 106.846 115.19 106.627 114.564 106.662C113.927 106.698 113.256 107.001 112.548 107.568C111.122 108.71 109.664 110.821 108.177 113.447C106.868 115.758 105.558 118.428 104.242 121.111C104.07 121.462 103.897 121.814 103.724 122.166C102.238 125.189 100.742 128.172 99.242 130.578M99.242 130.578L98.9204 130.38M99.242 130.578C99.2421 130.578 99.242 130.578 99.242 130.578ZM99.242 130.578C96.2557 135.372 93.1935 137.976 90.0271 138.242C86.8442 138.509 83.7566 136.403 80.7603 132.3M80.7603 132.3C80.7604 132.3 80.7603 132.3 80.7603 132.3ZM80.7603 132.3L81.0666 132.08" stroke="#A1ED4C" stroke-linecap="round"/>
<circle cx="17" cy="19" r="3" fill="#D2FF52"/>
<path d="M121.177 39.8802L122.768 34.2109H124.061L123.644 36.4377L122.054 41.8595H120.972L121.177 39.8802ZM120.371 34.2109L121.51 39.8732L121.616 41.8595H120.343L118.406 34.2109H120.371ZM125.518 39.7813L126.627 34.2109H128.6L126.663 41.8595H125.397L125.518 39.7813ZM124.238 34.2109L125.822 39.8378L126.041 41.8595H124.952L123.362 36.4447L122.959 34.2109H124.238Z" fill="white"/>
<path d="M114.693 42.0017C114.099 42.0017 113.567 41.9074 113.095 41.7189C112.624 41.5257 112.224 41.2594 111.894 40.9201C111.569 40.5808 111.319 40.1873 111.144 39.7396C110.97 39.2872 110.883 38.8065 110.883 38.2975V38.0148C110.883 37.4351 110.965 36.905 111.13 36.4243C111.295 35.9436 111.531 35.5265 111.837 35.1731C112.148 34.8196 112.525 34.5486 112.968 34.3601C113.411 34.1669 113.911 34.0703 114.467 34.0703C115.009 34.0703 115.489 34.1599 115.909 34.3389C116.328 34.518 116.679 34.7725 116.962 35.1024C117.25 35.4323 117.466 35.8281 117.612 36.29C117.759 36.7471 117.832 37.2561 117.832 37.8169V38.6651H111.752V37.3079H115.831V37.1524C115.831 36.8696 115.779 36.6175 115.676 36.396C115.577 36.1698 115.426 35.9907 115.223 35.8588C115.021 35.7268 114.761 35.6608 114.446 35.6608C114.177 35.6608 113.946 35.7197 113.753 35.8376C113.56 35.9554 113.402 36.1203 113.279 36.3324C113.161 36.5444 113.072 36.7942 113.011 37.0817C112.954 37.3644 112.926 37.6755 112.926 38.0148V38.2975C112.926 38.6039 112.968 38.8866 113.053 39.1458C113.143 39.405 113.267 39.6289 113.428 39.8174C113.593 40.0059 113.791 40.152 114.021 40.2556C114.257 40.3593 114.523 40.4112 114.82 40.4112C115.188 40.4112 115.529 40.3405 115.845 40.1991C116.166 40.053 116.441 39.8339 116.672 39.5417L117.662 40.6162C117.502 40.8471 117.283 41.0686 117.005 41.2806C116.731 41.4927 116.401 41.6671 116.015 41.8037C115.628 41.9357 115.188 42.0017 114.693 42.0017Z" fill="white"/>
<path d="M109.487 34.2059V41.8545H107.444V34.2059H109.487ZM107.316 32.2125C107.316 31.9156 107.42 31.6705 107.627 31.4773C107.835 31.2841 108.113 31.1875 108.462 31.1875C108.806 31.1875 109.081 31.2841 109.289 31.4773C109.501 31.6705 109.607 31.9156 109.607 32.2125C109.607 32.5094 109.501 32.7545 109.289 32.9477C109.081 33.1409 108.806 33.2375 108.462 33.2375C108.113 33.2375 107.835 33.1409 107.627 32.9477C107.42 32.7545 107.316 32.5094 107.316 32.2125Z" fill="white"/>
<path d="M102.606 40.3751L104.302 34.2109H106.43L103.85 41.8595H102.563L102.606 40.3751ZM101.44 34.2109L103.143 40.3821L103.178 41.8595H101.885L99.3047 34.2109H101.44Z" fill="white"/>
<path d="M96.6101 35.88V41.8603H94.5742V34.2117H96.4899L96.6101 35.88ZM98.9146 34.1622L98.8792 36.0496C98.7802 36.0355 98.6601 36.0237 98.5187 36.0143C98.382 36.0001 98.2571 35.9931 98.144 35.9931C97.8566 35.9931 97.6068 36.0308 97.3947 36.1062C97.1874 36.1769 97.013 36.2829 96.8716 36.4243C96.735 36.5657 96.6313 36.7377 96.5606 36.9403C96.4946 37.143 96.4569 37.3739 96.4475 37.6331L96.0375 37.5058C96.0375 37.011 96.087 36.5562 96.1859 36.1415C96.2849 35.7221 96.4286 35.3569 96.6171 35.0458C96.8104 34.7348 97.046 34.4944 97.324 34.3248C97.6021 34.1551 97.9202 34.0703 98.2783 34.0703C98.3915 34.0703 98.5069 34.0797 98.6247 34.0986C98.7425 34.1127 98.8392 34.1339 98.9146 34.1622Z" fill="white"/>
<path d="M90.275 42.0017C89.6812 42.0017 89.1487 41.9074 88.6774 41.7189C88.2062 41.5257 87.8056 41.2594 87.4757 40.9201C87.1505 40.5808 86.9008 40.1873 86.7264 39.7396C86.552 39.2872 86.4648 38.8065 86.4648 38.2975V38.0148C86.4648 37.4351 86.5473 36.905 86.7123 36.4243C86.8772 35.9436 87.1128 35.5265 87.4192 35.1731C87.7302 34.8196 88.1072 34.5486 88.5502 34.3601C88.9932 34.1669 89.4927 34.0703 90.0488 34.0703C90.5908 34.0703 91.0714 34.1599 91.4909 34.3389C91.9103 34.518 92.2614 34.7725 92.5441 35.1024C92.8316 35.4323 93.0484 35.8281 93.1945 36.29C93.3406 36.7471 93.4136 37.2561 93.4136 37.8169V38.6651H87.3343V37.3079H91.4131V37.1524C91.4131 36.8696 91.3613 36.6175 91.2576 36.396C91.1586 36.1698 91.0078 35.9907 90.8052 35.8588C90.6025 35.7268 90.3433 35.6608 90.0276 35.6608C89.759 35.6608 89.5281 35.7197 89.3348 35.8376C89.1416 35.9554 88.9837 36.1203 88.8612 36.3324C88.7434 36.5444 88.6539 36.7942 88.5926 37.0817C88.536 37.3644 88.5078 37.6755 88.5078 38.0148V38.2975C88.5078 38.6039 88.5502 38.8866 88.635 39.1458C88.7246 39.405 88.8494 39.6289 89.0097 39.8174C89.1746 40.0059 89.3725 40.152 89.6035 40.2556C89.8391 40.3593 90.1054 40.4112 90.4023 40.4112C90.7698 40.4112 91.1115 40.3405 91.4272 40.1991C91.7477 40.053 92.0234 39.8339 92.2543 39.5417L93.244 40.6162C93.0837 40.8471 92.8646 41.0686 92.5866 41.2806C92.3132 41.4927 91.9833 41.6671 91.5969 41.8037C91.2105 41.9357 90.7698 42.0017 90.275 42.0017Z" fill="white"/>
<path d="M82.1176 40.3751L83.8142 34.2109H85.9419L83.3617 41.8595H82.0752L82.1176 40.3751ZM80.9512 34.2109L82.6548 40.3821L82.6902 41.8595H81.3966L78.8164 34.2109H80.9512Z" fill="white"/>
<path d="M78.1132 36.4691V36.9569C78.1132 37.7392 78.0071 38.4413 77.7951 39.0634C77.583 39.6855 77.2837 40.2157 76.8973 40.6539C76.5109 41.0875 76.049 41.4197 75.5118 41.6506C74.9793 41.8816 74.3878 41.997 73.7375 41.997C73.0918 41.997 72.5004 41.8816 71.9632 41.6506C71.4306 41.4197 70.9688 41.0875 70.5777 40.6539C70.1865 40.2157 69.8825 39.6855 69.6658 39.0634C69.4537 38.4413 69.3477 37.7392 69.3477 36.9569V36.4691C69.3477 35.6821 69.4537 34.9799 69.6658 34.3626C69.8778 33.7405 70.1771 33.2103 70.5635 32.772C70.9547 32.3338 71.4165 31.9992 71.949 31.7683C72.4863 31.5373 73.0777 31.4219 73.7233 31.4219C74.3737 31.4219 74.9651 31.5373 75.4976 31.7683C76.0349 31.9992 76.4967 32.3338 76.8832 32.772C77.2743 33.2103 77.5759 33.7405 77.788 34.3626C78.0048 34.9799 78.1132 35.6821 78.1132 36.4691ZM75.9713 36.9569V36.455C75.9713 35.9083 75.9218 35.4276 75.8228 35.0129C75.7239 34.5982 75.5778 34.2495 75.3845 33.9667C75.1913 33.6839 74.9557 33.4719 74.6776 33.3305C74.3996 33.1844 74.0815 33.1114 73.7233 33.1114C73.3652 33.1114 73.0471 33.1844 72.769 33.3305C72.4957 33.4719 72.2624 33.6839 72.0692 33.9667C71.8807 34.2495 71.737 34.5982 71.638 35.0129C71.539 35.4276 71.4895 35.9083 71.4895 36.455V36.9569C71.4895 37.4988 71.539 37.9795 71.638 38.3989C71.737 38.8136 71.8831 39.1647 72.0763 39.4522C72.2695 39.735 72.5051 39.9494 72.7832 40.0955C73.0612 40.2416 73.3793 40.3146 73.7375 40.3146C74.0956 40.3146 74.4137 40.2416 74.6918 40.0955C74.9698 39.9494 75.2031 39.735 75.3916 39.4522C75.5801 39.1647 75.7239 38.8136 75.8228 38.3989C75.9218 37.9795 75.9713 37.4988 75.9713 36.9569Z" fill="white"/>
<path d="M61.6344 42.0017C61.0406 42.0017 60.5081 41.9074 60.0368 41.7189C59.5655 41.5257 59.165 41.2594 58.8351 40.9201C58.5099 40.5808 58.2601 40.1873 58.0858 39.7396C57.9114 39.2872 57.8242 38.8065 57.8242 38.2975V38.0148C57.8242 37.4351 57.9067 36.905 58.0716 36.4243C58.2366 35.9436 58.4722 35.5265 58.7785 35.1731C59.0896 34.8196 59.4666 34.5486 59.9096 34.3601C60.3525 34.1669 60.8521 34.0703 61.4082 34.0703C61.9501 34.0703 62.4308 34.1599 62.8502 34.3389C63.2697 34.518 63.6208 34.7725 63.9035 35.1024C64.191 35.4323 64.4078 35.8281 64.5539 36.29C64.7 36.7471 64.773 37.2561 64.773 37.8169V38.6651H58.6937V37.3079H62.7725V37.1524C62.7725 36.8696 62.7206 36.6175 62.617 36.396C62.518 36.1698 62.3672 35.9907 62.1646 35.8588C61.9619 35.7268 61.7027 35.6608 61.387 35.6608C61.1184 35.6608 60.8874 35.7197 60.6942 35.8376C60.501 35.9554 60.3431 36.1203 60.2206 36.3324C60.1028 36.5444 60.0132 36.7942 59.952 37.0817C59.8954 37.3644 59.8671 37.6755 59.8671 38.0148V38.2975C59.8671 38.6039 59.9096 38.8866 59.9944 39.1458C60.0839 39.405 60.2088 39.6289 60.369 39.8174C60.534 40.0059 60.7319 40.152 60.9628 40.2556C61.1985 40.3593 61.4647 40.4112 61.7616 40.4112C62.1292 40.4112 62.4709 40.3405 62.7866 40.1991C63.1071 40.053 63.3828 39.8339 63.6137 39.5417L64.6033 40.6162C64.4431 40.8471 64.224 41.0686 63.9459 41.2806C63.6726 41.4927 63.3427 41.6671 62.9563 41.8037C62.5698 41.9357 62.1292 42.0017 61.6344 42.0017Z" fill="white"/>
<path d="M53.7233 40.4112C53.973 40.4112 54.1945 40.364 54.3878 40.2698C54.581 40.1708 54.7318 40.0342 54.8402 39.8598C54.9533 39.6807 55.0122 39.471 55.0169 39.2306H56.9326C56.9279 39.7679 56.7841 40.2462 56.5014 40.6656C56.2186 41.0804 55.8392 41.4079 55.3633 41.6482C54.8873 41.8839 54.3548 42.0017 53.7657 42.0017C53.1719 42.0017 52.6535 41.9027 52.2105 41.7048C51.7722 41.5069 51.407 41.2335 51.1148 40.8848C50.8226 40.5313 50.6035 40.1213 50.4574 39.6548C50.3113 39.1835 50.2383 38.6793 50.2383 38.142V37.937C50.2383 37.3951 50.3113 36.8908 50.4574 36.4243C50.6035 35.953 50.8226 35.543 51.1148 35.1943C51.407 34.8408 51.7722 34.5651 52.2105 34.3672C52.6488 34.1693 53.1625 34.0703 53.7516 34.0703C54.3783 34.0703 54.9274 34.1905 55.3986 34.4308C55.8746 34.6712 56.2469 35.0152 56.5155 35.4629C56.7888 35.9059 56.9279 36.4313 56.9326 37.0393H55.0169C55.0122 36.7848 54.958 36.5539 54.8543 36.3465C54.7553 36.1392 54.6093 35.9742 54.416 35.8517C54.2275 35.7244 53.9943 35.6608 53.7162 35.6608C53.4193 35.6608 53.1766 35.7244 52.9881 35.8517C52.7996 35.9742 52.6535 36.1439 52.5498 36.3607C52.4462 36.5727 52.3731 36.8154 52.3307 37.0888C52.293 37.3574 52.2741 37.6401 52.2741 37.937V38.142C52.2741 38.4389 52.293 38.724 52.3307 38.9974C52.3684 39.2707 52.4391 39.5134 52.5428 39.7255C52.6512 39.9375 52.7996 40.1048 52.9881 40.2274C53.1766 40.3499 53.4217 40.4112 53.7233 40.4112Z" fill="white"/>
<path d="M44.4343 35.8446V41.8603H42.3984V34.2117H44.3071L44.4343 35.8446ZM44.1374 37.7674H43.586C43.586 37.2019 43.6591 36.6929 43.8052 36.2405C43.9513 35.7834 44.1563 35.3946 44.4202 35.0741C44.6841 34.7489 44.9975 34.5015 45.3603 34.3319C45.7279 34.1575 46.1379 34.0703 46.5903 34.0703C46.9485 34.0703 47.276 34.1222 47.5729 34.2258C47.8698 34.3295 48.1243 34.4944 48.3364 34.7207C48.5531 34.9469 48.7181 35.2461 48.8312 35.6184C48.949 35.9907 49.0079 36.4455 49.0079 36.9827V41.8603H46.9579V36.9757C46.9579 36.6363 46.9108 36.3724 46.8165 36.1839C46.7223 35.9954 46.5833 35.8635 46.3995 35.7881C46.2204 35.708 45.9989 35.6679 45.735 35.6679C45.4617 35.6679 45.2237 35.7221 45.021 35.8305C44.8231 35.9389 44.6581 36.0897 44.5262 36.2829C44.399 36.4714 44.3023 36.6929 44.2364 36.9474C44.1704 37.2019 44.1374 37.4752 44.1374 37.7674Z" fill="white"/>
<path d="M38.8245 40.1355V36.7282C38.8245 36.4832 38.7845 36.2735 38.7044 36.0991C38.6242 35.92 38.4994 35.781 38.3297 35.682C38.1648 35.5831 37.9503 35.5336 37.6864 35.5336C37.4602 35.5336 37.2647 35.5736 37.0997 35.6538C36.9348 35.7292 36.8075 35.8399 36.718 35.986C36.6284 36.1274 36.5837 36.2947 36.5837 36.4879H34.5478C34.5478 36.1627 34.6232 35.854 34.774 35.5619C34.9248 35.2697 35.144 35.0128 35.4314 34.7913C35.7189 34.5651 36.0606 34.3884 36.4564 34.2612C36.857 34.1339 37.3047 34.0703 37.7995 34.0703C38.3933 34.0703 38.9211 34.1693 39.383 34.3672C39.8448 34.5651 40.2077 34.862 40.4716 35.2579C40.7402 35.6538 40.8745 36.1486 40.8745 36.7424V40.0153C40.8745 40.4347 40.9004 40.7787 40.9523 41.0474C41.0041 41.3113 41.0795 41.5422 41.1785 41.7401V41.8603H39.1214C39.0225 41.6529 38.9471 41.3937 38.8952 41.0827C38.8481 40.767 38.8245 40.4512 38.8245 40.1355ZM39.0932 37.2019L39.1073 38.3541H37.9692C37.7006 38.3541 37.4673 38.3847 37.2694 38.446C37.0714 38.5073 36.9088 38.5944 36.7816 38.7075C36.6544 38.8159 36.5601 38.9432 36.4988 39.0893C36.4423 39.2354 36.414 39.3956 36.414 39.57C36.414 39.7443 36.4541 39.9022 36.5342 40.0436C36.6143 40.1802 36.7298 40.2886 36.8806 40.3687C37.0314 40.4442 37.2081 40.4819 37.4107 40.4819C37.7171 40.4819 37.9833 40.4206 38.2095 40.2981C38.4357 40.1755 38.6101 40.0247 38.7326 39.8456C38.8599 39.6666 38.9259 39.4969 38.9306 39.3367L39.4678 40.1991C39.3924 40.3923 39.2887 40.5926 39.1568 40.8C39.0295 41.0073 38.8669 41.2029 38.669 41.3867C38.4711 41.5658 38.2331 41.7142 37.9551 41.832C37.677 41.9451 37.3471 42.0017 36.9654 42.0017C36.48 42.0017 36.0394 41.9051 35.6435 41.7118C35.2524 41.5139 34.9413 41.2429 34.7104 40.8989C34.4842 40.5502 34.3711 40.1543 34.3711 39.7113C34.3711 39.3108 34.4465 38.955 34.5973 38.6439C34.7481 38.3329 34.9696 38.0713 35.2618 37.8593C35.5587 37.6425 35.9286 37.4799 36.3716 37.3715C36.8146 37.2584 37.3283 37.2019 37.9126 37.2019H39.0932Z" fill="white"/>
<path d="M33.0195 31V41.8579H30.9766V31H33.0195Z" fill="white"/>
<path d="M27.2503 40.1355V36.7282C27.2503 36.4832 27.2103 36.2735 27.1301 36.0991C27.05 35.92 26.9251 35.781 26.7555 35.682C26.5905 35.5831 26.3761 35.5336 26.1122 35.5336C25.886 35.5336 25.6904 35.5736 25.5255 35.6538C25.3605 35.7292 25.2333 35.8399 25.1438 35.986C25.0542 36.1274 25.0095 36.2947 25.0095 36.4879H22.9736C22.9736 36.1627 23.049 35.854 23.1998 35.5619C23.3506 35.2697 23.5697 35.0128 23.8572 34.7913C24.1447 34.5651 24.4864 34.3884 24.8822 34.2612C25.2828 34.1339 25.7305 34.0703 26.2253 34.0703C26.8191 34.0703 27.3469 34.1693 27.8088 34.3672C28.2706 34.5651 28.6335 34.862 28.8974 35.2579C29.166 35.6538 29.3003 36.1486 29.3003 36.7424V40.0153C29.3003 40.4347 29.3262 40.7787 29.3781 41.0474C29.4299 41.3113 29.5053 41.5422 29.6043 41.7401V41.8603H27.5472C27.4482 41.6529 27.3728 41.3937 27.321 41.0827C27.2739 40.767 27.2503 40.4512 27.2503 40.1355ZM27.5189 37.2019L27.5331 38.3541H26.395C26.1264 38.3541 25.8931 38.3847 25.6951 38.446C25.4972 38.5073 25.3346 38.5944 25.2074 38.7075C25.0801 38.8159 24.9859 38.9432 24.9246 39.0893C24.8681 39.2354 24.8398 39.3956 24.8398 39.57C24.8398 39.7443 24.8799 39.9022 24.96 40.0436C25.0401 40.1802 25.1555 40.2886 25.3064 40.3687C25.4572 40.4442 25.6339 40.4819 25.8365 40.4819C26.1428 40.4819 26.4091 40.4206 26.6353 40.2981C26.8615 40.1755 27.0359 40.0247 27.1584 39.8456C27.2857 39.6666 27.3516 39.4969 27.3563 39.3367L27.8936 40.1991C27.8182 40.3923 27.7145 40.5926 27.5826 40.8C27.4553 41.0073 27.2927 41.2029 27.0948 41.3867C26.8969 41.5658 26.6589 41.7142 26.3808 41.832C26.1028 41.9451 25.7729 42.0017 25.3912 42.0017C24.9058 42.0017 24.4651 41.9051 24.0693 41.7118C23.6781 41.5139 23.3671 41.2429 23.1362 40.8989C22.91 40.5502 22.7969 40.1543 22.7969 39.7113C22.7969 39.3108 22.8723 38.955 23.0231 38.6439C23.1739 38.3329 23.3954 38.0713 23.6876 37.8593C23.9845 37.6425 24.3544 37.4799 24.7974 37.3715C25.2404 37.2584 25.7541 37.2019 26.3384 37.2019H27.5189Z" fill="white"/>
<path d="M18.0293 37.3378H15.3855L15.3714 35.8816H17.591C17.9822 35.8816 18.3026 35.8321 18.5524 35.7332C18.8022 35.6295 18.9883 35.4811 19.1109 35.2878C19.2381 35.0899 19.3017 34.8496 19.3017 34.5668C19.3017 34.2463 19.2404 33.9872 19.1179 33.7892C19.0001 33.5913 18.814 33.4476 18.5595 33.358C18.3097 33.2685 17.9869 33.2237 17.591 33.2237H16.1207V41.8549H14V31.5625H17.591C18.1895 31.5625 18.7244 31.6191 19.1957 31.7322C19.6717 31.8453 20.0746 32.0173 20.4045 32.2482C20.7344 32.4791 20.9865 32.7713 21.1608 33.1247C21.3352 33.4735 21.4224 33.8882 21.4224 34.3689C21.4224 34.793 21.3258 35.1842 21.1326 35.5423C20.9441 35.9005 20.6448 36.1927 20.2348 36.4189C19.8295 36.6451 19.2994 36.77 18.6443 36.7935L18.0293 37.3378ZM17.9374 41.8549H14.8059L15.6329 40.2008H17.9374C18.3097 40.2008 18.6137 40.1419 18.8493 40.024C19.0849 39.9015 19.2593 39.7366 19.3724 39.5292C19.4855 39.3219 19.5421 39.0839 19.5421 38.8152C19.5421 38.5136 19.4902 38.2521 19.3865 38.0306C19.2876 37.8091 19.1273 37.6394 18.9059 37.5216C18.6844 37.3991 18.3922 37.3378 18.0293 37.3378H15.9864L16.0005 35.8816H18.5453L19.0331 36.4542C19.6599 36.4448 20.1641 36.5555 20.5458 36.7865C20.9323 37.0127 21.2127 37.3072 21.3871 37.6701C21.5661 38.0329 21.6557 38.4217 21.6557 38.8365C21.6557 39.4962 21.5119 40.0523 21.2245 40.5047C20.937 40.9524 20.5152 41.2894 19.9591 41.5156C19.4077 41.7418 18.7338 41.8549 17.9374 41.8549Z" fill="white"/>
<defs>
<linearGradient id="paint0_linear_485_2552" x1="144.297" y1="130.11" x2="144.297" y2="189.493" gradientUnits="userSpaceOnUse">
<stop stop-color="#A1ED4C" stop-opacity="0.2"/>
<stop offset="1" stop-color="white" stop-opacity="0"/>
</linearGradient>
</defs>
</svg>
