<svg width="1531" height="1514" viewBox="0 0 1531 1514" fill="none" xmlns="http://www.w3.org/2000/svg">
<g clip-path="url(#clip0_615_2689)">
<rect width="1530.67" height="1513.63" fill="url(#paint0_linear_615_2689)"/>
<circle cx="16.7288" cy="12.4358" r="187.826" fill="#121212"/>
<circle cx="16.7288" cy="388.092" r="187.826" fill="#121212"/>
<circle cx="16.7288" cy="763.74" r="187.826" fill="#121212"/>
<circle cx="16.7288" cy="1139.4" r="187.826" fill="#121212"/>
<circle cx="16.7288" cy="1515.05" r="187.826" fill="#121212"/>
<circle cx="392.381" cy="12.4358" r="187.826" fill="#121212"/>
<circle cx="392.381" cy="388.092" r="187.826" fill="#121212"/>
<circle cx="392.381" cy="763.74" r="187.826" fill="#121212"/>
<circle cx="392.381" cy="1139.4" r="187.826" fill="#121212"/>
<circle cx="392.381" cy="1515.05" r="187.826" fill="#121212"/>
<circle cx="768.033" cy="12.4358" r="187.826" fill="#121212"/>
<circle cx="768.033" cy="388.092" r="187.826" fill="#121212"/>
<circle cx="768.033" cy="763.74" r="187.826" fill="#121212"/>
<circle cx="768.033" cy="1139.4" r="187.826" fill="#121212"/>
<circle cx="768.033" cy="1515.05" r="187.826" fill="#121212"/>
<circle cx="1143.69" cy="12.4358" r="187.826" fill="#121212"/>
<circle cx="1143.69" cy="388.092" r="187.826" fill="#121212"/>
<circle cx="1143.69" cy="763.74" r="187.826" fill="#121212"/>
<circle cx="1143.69" cy="1139.4" r="187.826" fill="#121212"/>
<circle cx="1143.69" cy="1515.05" r="187.826" fill="#121212"/>
<circle cx="1519.34" cy="12.4358" r="187.826" fill="#121212"/>
<circle cx="1519.34" cy="388.092" r="187.826" fill="#121212"/>
<circle cx="1519.34" cy="763.74" r="187.826" fill="#121212"/>
<circle cx="1519.34" cy="1139.4" r="187.826" fill="#121212"/>
<circle cx="1519.34" cy="1515.05" r="187.826" fill="#121212"/>
</g>
<defs>
<linearGradient id="paint0_linear_615_2689" x1="765.337" y1="0" x2="765.337" y2="1513.63" gradientUnits="userSpaceOnUse">
<stop offset="0.284445" stop-color="#121212"/>
<stop offset="0.719145" stop-color="#3B3B3B"/>
<stop offset="0.906538" stop-color="#121212"/>
</linearGradient>
<clipPath id="clip0_615_2689">
<rect width="1530.67" height="1513.63" fill="white"/>
</clipPath>
</defs>
</svg>
