<svg width="180" height="42" viewBox="0 0 180 42" fill="none" xmlns="http://www.w3.org/2000/svg">
<path d="M73.4104 34.6825H54V7.32577H60.3188V29.3663H73.4104V34.6825ZM98.2693 32.4312C96.018 34.0014 91.856 35.0987 87.6182 35.0987C78.3671 35.0987 74.1671 30.142 74.1671 20.9663C74.1671 11.7906 78.8211 6.92847 87.656 6.92847C91.5722 6.92847 95.7721 7.96901 98.1747 11.3933L94.2397 15.0068C92.7451 13.115 90.9479 12.1123 87.7885 12.1123C82.094 12.1123 80.2967 15.4042 80.2967 21.0042C80.2967 26.6042 82.1886 29.7636 87.8831 29.7636C89.6425 29.7636 91.4965 29.4042 92.4424 29.0447V24.2582H87.2966V19.1501H98.2693V32.4123V32.4312ZM121.047 29.9717C123.809 29.9717 126.704 29.3285 128.671 28.3447L130.034 32.9041C127.612 34.342 124.036 35.1366 120.631 35.1366C111.493 35.1366 107.729 29.896 107.729 21.0231C107.729 12.1501 112.628 6.90955 120.707 6.90955C124.226 6.90955 128.066 7.89334 130.45 10.5231L127.139 14.3825C125.663 12.869 123.507 11.7339 120.953 11.7339C116.62 11.7339 113.82 14.7042 113.82 20.9474C113.82 26.3015 115.334 29.9717 121.066 29.9717H121.047ZM157.276 34.6825H146.644L138.868 12.0744H138.131V34.6825H132.379V7.32577H143.031L150.901 29.5744H151.582V7.32577H157.276V34.6825ZM169.062 35.1366C165.884 35.1366 162.081 34.2663 159.244 32.6393L161.325 28.042C163.557 29.3285 166.641 30.2744 169.025 30.2744C172.506 30.2744 173.811 29.1393 173.811 27.2474C173.811 25.7339 172.941 24.6744 170.746 24.069C169.384 23.6906 167.587 23.0852 165.96 22.4798C162.668 21.1933 159.66 18.7906 159.66 14.7798C159.66 10.1447 163.027 6.89062 170.292 6.89062C173.054 6.89062 176.933 7.60954 179.505 9.12306L177.538 13.4933C175.722 12.4339 173.092 11.5258 170.406 11.5258C166.679 11.5258 165.581 12.8122 165.581 14.4582C165.581 16.6906 167.435 17.5609 170.822 18.4879C171.843 18.7906 173.773 19.396 174.776 19.8123C177.424 20.9474 179.789 22.5366 179.789 26.9825C179.789 31.6934 175.816 35.0987 169.044 35.0987L169.062 35.1366Z" fill="#9C9C9C"/>
<path d="M151.577 29.6035H150.896L143.026 7.33594H132.375V34.6927H138.126V12.1035H138.883L146.64 34.6927H157.272V7.33594H151.577V29.6035Z" fill="#9C9C9C"/>
<path d="M174.79 19.8708C173.768 19.4546 171.839 18.8492 170.836 18.5465C167.45 17.6006 165.596 16.7303 165.596 14.5168C165.596 12.8519 166.693 11.5843 170.42 11.5843C173.106 11.5843 175.736 12.4925 177.552 13.5519L179.52 9.18165C176.947 7.66814 173.068 6.94922 170.306 6.94922C163.023 6.94922 159.674 10.2033 159.674 14.8384C159.674 18.8303 162.701 21.2519 165.974 22.5384C167.601 23.1438 169.417 23.7492 170.76 24.1276C172.955 24.733 173.825 25.7925 173.825 27.306C173.825 29.1979 172.501 30.333 169.039 30.333C166.655 30.333 163.571 29.3871 161.339 28.1006L159.258 32.6979C162.096 34.3249 165.898 35.1952 169.077 35.1952C175.868 35.1952 179.822 31.7897 179.822 27.0789C179.822 22.633 177.439 21.0438 174.809 19.9087L174.79 19.8708Z" fill="#9C9C9C"/>
<path d="M120.955 11.7423C123.527 11.7423 125.665 12.8774 127.141 14.3909L130.452 10.5315C128.068 7.88283 124.227 6.91797 120.709 6.91797C112.63 6.91797 107.73 11.7423 107.73 21.0315C107.73 30.3207 111.495 35.145 120.633 35.145C124.019 35.145 127.614 34.3504 130.035 32.9126L128.673 28.3531C126.706 29.3369 123.811 29.9801 121.049 29.9801C115.317 29.9801 113.803 26.3099 113.803 20.9558C113.803 14.7315 116.603 11.7423 120.936 11.7423H120.955Z" fill="#9C9C9C"/>
<path d="M87.2935 24.2477H92.4394V29.0342C91.4934 29.3937 89.6394 29.7531 87.88 29.7531C82.1855 29.7531 80.2937 26.8585 80.2937 20.9937C80.2937 15.1288 82.0909 12.1017 87.7854 12.1017C90.9448 12.1017 92.742 13.0855 94.2366 14.9963L98.1717 11.3828C95.769 7.95851 91.588 6.91797 87.653 6.91797C78.7991 6.91797 74.1641 11.7423 74.1641 20.9558C74.1641 30.1693 78.364 35.0882 87.6151 35.0882C91.8529 35.0882 96.0149 34.0099 98.2663 32.4207V19.1585H87.2935V24.2666V24.2477Z" fill="#9C9C9C"/>
<path d="M60.3188 7.33594H54V34.6927H73.4104V29.3765H60.3188V7.33594Z" fill="#9C9C9C"/>
<g clip-path="url(#clip0_855_10843)">
<path d="M21 42C32.6001 42 42 32.5911 42 20.9972C42 9.40329 32.6001 0 21 0C9.39993 0 0 9.39714 0 20.9972C0 32.5973 9.40273 42 21 42Z" fill="#9C9C9C"/>
<path d="M20.168 11.7812V30.1908H26.0186V28.5521H21.8386V11.7812H20.168Z" fill="white"/>
<path d="M14.2951 16.8061C15.6878 16.8061 16.8161 15.6778 16.8161 14.2917C16.8161 12.9057 15.6878 11.7695 14.2951 11.7695C12.9023 11.7695 11.7812 12.8984 11.7812 14.2917C11.7812 15.6851 12.9129 16.8061 14.2951 16.8061Z" fill="white"/>
<path d="M21.8387 3.42525C21.624 3.41631 21.2052 3.41016 21.0034 3.41016C11.3155 3.41016 3.42969 11.2977 3.42969 20.9911C3.42969 25.6872 5.25298 30.097 8.56744 33.4159C11.8987 36.7371 16.3157 38.5637 21.0034 38.5637C25.6911 38.5637 30.1092 36.7371 33.4399 33.4159C36.7516 30.097 38.5754 25.6866 38.5754 20.9911V20.1888L37.8749 20.1944H26.0316V21.8259H36.9076V22.0624C36.349 30.3519 29.4293 36.9238 21.0034 36.9238C16.7491 36.9238 12.7491 35.2677 9.7388 32.2591C6.72738 29.2499 5.06959 25.2466 5.06959 20.9917C5.06959 16.7368 6.72738 12.7318 9.7388 9.72486C12.7485 6.70953 16.7491 5.05397 21.0034 5.05397C21.1957 5.05397 21.6475 5.05788 21.8387 5.06236V3.42525Z" fill="white"/>
</g>
<defs>
<clipPath id="clip0_855_10843">
<rect width="42" height="42" fill="white"/>
</clipPath>
</defs>
</svg>
