<svg width="197" height="37" viewBox="0 0 197 37" fill="none" xmlns="http://www.w3.org/2000/svg">
<path d="M53.5046 16.3261V13.2045H60.0126V0.453125C61.6585 0.453125 63.1909 0.453125 64.7233 0.472044C64.9125 0.472044 65.1773 0.774747 65.253 1.00177C65.3476 1.26664 65.2909 1.58826 65.2909 1.87204V35.6612H60.0315V26.4666C55.6234 27.6396 51.2533 26.8829 46.9209 27.091C46.0885 27.1288 45.2561 27.091 44.4048 27.091C42.4751 27.091 41.5859 26.2018 41.5859 24.2342C41.5859 18.1991 41.5859 12.1639 41.5859 6.1288V3.19637H56.5883V5.58015H52.7857C51.1965 5.58015 49.6074 5.59907 48.0183 5.58015C47.2804 5.58015 46.9777 5.78826 46.9777 6.58286C46.9966 12.0315 46.9777 17.4802 46.9777 22.9288C46.9777 23.9693 47.4507 24.6315 48.548 24.6315C51.4425 24.6315 54.3181 24.5748 57.2126 24.5369C57.4586 24.5369 57.7234 24.4991 57.9694 24.4423C60.0315 24.0829 60.0504 24.0639 60.0504 21.9829V16.3261H53.5235H53.5046Z" fill="#9C9C9C"/>
<path d="M31.8452 15.5914C28.2696 15.5914 24.921 15.6292 21.5724 15.5725C20.5886 15.5725 20.1346 15.7617 20.1914 16.8779C20.3049 19.5454 19.8697 19.1292 22.4427 19.1481C26.0939 19.1671 29.7263 19.1481 33.3776 19.1481H34.7964V21.5508H0.289062V19.1481H14.6861V15.5914H12.851C10.5429 15.5914 8.23485 15.6103 5.94571 15.5914C4.16737 15.5535 3.24036 14.6076 3.22144 12.8481C3.1836 10.9752 3.22144 9.1022 3.22144 7.04004H4.81059C11.3942 7.04004 17.959 7.0022 24.5426 7.07787C25.7723 7.07787 26.2074 6.69949 26.0561 5.5076C25.9804 4.9022 26.0561 4.27787 26.0561 3.55895H3.33494V1.15625H31.41V9.57517H8.65104C8.65104 10.2563 8.65104 10.786 8.65104 11.3157C8.68888 12.6779 9.10508 13.0941 10.505 13.0941C15.7455 13.0941 20.9859 13.0941 26.2264 13.0941H31.9019V15.6103L31.8452 15.5914Z" fill="#9C9C9C"/>
<path d="M73.7212 0.515625H68.6133V35.667H73.7212V0.515625Z" fill="#9C9C9C"/>
<path d="M193.945 17.5708C192.601 19.9168 192.526 19.9735 190.18 19.1979C185.885 17.7789 182.177 15.4141 179.15 12.0465C178.904 11.7627 178.64 11.4978 178.394 11.233C177.126 12.5384 175.953 13.8816 174.629 15.0546C172.34 17.0789 169.691 18.4979 166.759 19.3492C164.602 19.9735 164.413 19.8789 163.41 17.7033C170.58 14.6573 176.029 10.3438 175.404 1.41406H181.137C181.137 1.98163 181.175 2.51136 181.137 3.04109C180.834 6.57893 182.367 9.36001 184.712 11.8195C187.285 14.506 190.312 16.4357 193.964 17.5897" fill="#9C9C9C"/>
<path d="M17.2993 28.698C13.9507 32.0845 9.95894 34.2791 5.47525 35.6034C3.16719 36.2845 3.11045 36.2277 1.9375 33.9764C3.24288 33.4656 4.605 33.0494 5.85362 32.444C9.6184 30.5899 12.6832 28.0737 14.1399 23.9494C14.2345 23.6845 14.6507 23.3818 14.9156 23.3629C16.5426 23.3061 18.1885 23.3061 19.8155 23.3629C20.0614 23.3629 20.4398 23.6467 20.5155 23.8737C22.6154 29.4169 27.0234 32.1602 32.3963 33.7683C32.5098 33.8061 32.6044 33.8629 32.7179 33.9196C31.8098 36.171 31.545 36.3223 29.2747 35.6413C24.9992 34.3548 21.1209 32.3683 17.9047 29.2088C17.7345 29.0386 17.5263 28.8872 17.2993 28.7169" fill="#9C9C9C"/>
<path d="M114.354 0.5H109.359V20.4784H114.354V0.5Z" fill="#9C9C9C"/>
<path d="M161.01 28.7876C160.934 28.6362 160.878 28.5606 160.878 28.4849C160.739 27.047 161.388 26.3281 162.826 26.3281C173.553 26.3281 184.28 26.3281 195.007 26.3281C195.536 26.3281 196.066 26.366 196.653 26.4038V28.7876H161.029H161.01Z" fill="#9C9C9C"/>
<path d="M136.135 23.2216C133.827 23.1649 131.538 23.2027 129.23 23.2216C128.549 23.2216 128.038 23.0324 128.038 22.2757C128.038 19.1351 128.038 16.0135 128.038 12.6838H134.375C136.217 12.6838 137.138 13.6045 137.138 15.4459C137.138 17.6595 137.119 19.8919 137.138 22.1054C137.138 22.8622 137.005 23.2595 136.116 23.2405M154.032 1.08649C153.956 0.859459 153.691 0.537837 153.521 0.537837C152.026 0.499999 150.551 0.5 149.018 0.5C149.018 3.88649 148.999 7.06487 149.037 10.2622C149.037 11.1514 148.753 11.4541 147.883 11.3973C147.013 11.3405 146.124 11.3973 145.235 11.3973C143.191 11.3973 142.17 10.3694 142.17 8.31351V1.44595H137.081V9.97838H127.981V1.42703H122.93V2.65676C122.93 9.18379 122.93 15.7297 122.93 22.2568C122.93 24.773 123.932 25.7568 126.43 25.7568C131.216 25.7568 135.983 25.7568 140.751 25.7568C141.186 25.7568 141.64 25.7189 142.208 25.6811V14.0838H149.037V35.6892H154.107V34.4973C154.107 23.6378 154.107 12.7973 154.107 1.93784C154.107 1.63513 154.164 1.33243 154.07 1.06757" fill="#9C9C9C"/>
<path d="M91.988 16.0102C90.4556 16.0102 89.1124 16.0859 87.7881 15.9535C87.3908 15.9156 86.7476 15.2913 86.7286 14.9129C86.653 11.5643 86.6908 8.23455 86.6719 4.8859C86.6719 4.22373 86.9935 4.01562 87.5989 4.03454C88.7718 4.05346 89.9448 3.99671 91.0988 4.07238C91.4015 4.0913 91.9312 4.54536 91.9312 4.7913C91.988 8.46157 91.969 12.1318 91.969 15.9913M100.955 0.515625V7.83725C100.047 7.83725 99.2527 7.78049 98.4581 7.83725C97.4555 7.93184 97.1338 7.55346 97.1716 6.56968C97.2473 4.90481 97.1716 3.25887 97.1716 1.55617H81.5828C81.526 1.72644 81.4315 1.83995 81.4315 1.95346C81.4315 6.47509 81.3747 10.9967 81.4315 15.5372C81.4693 17.5048 82.6044 18.4886 84.5908 18.5264C86.8043 18.5643 89.0367 18.5264 91.2501 18.5264H97.1528V17.0508C97.1528 15.1589 97.1149 13.2859 97.1906 11.394C97.1906 11.0535 97.55 10.467 97.796 10.4291C98.8176 10.3156 99.8392 10.3913 100.993 10.3913V11.9427C100.993 14.4589 100.974 16.9751 101.031 19.4913C101.031 19.8318 101.447 20.4562 101.712 20.4751C103.112 20.5697 104.55 20.5318 106.063 20.5318V0.515625H100.918H100.955Z" fill="#9C9C9C"/>
<path d="M109.029 33.4253C108.669 33.4631 108.31 33.5199 107.95 33.5199C103.637 33.5199 99.3425 33.5199 95.0291 33.5199C93.3075 33.5199 92.967 33.1793 92.967 31.4766C92.967 29.3955 92.967 27.3144 92.967 25.1955H109.029V33.4253ZM113.796 22.5658C105.415 22.5658 97.0345 22.5658 88.6536 22.5469C87.8022 22.5469 87.7266 23.0009 87.7266 23.6631C87.7266 26.5577 87.7266 29.4523 87.7266 32.328C87.7266 35.2793 88.5211 36.055 91.4535 36.0739C98.6993 36.0739 105.945 36.0739 113.191 36.0739C113.588 36.0739 113.985 36.0171 114.383 35.9982V22.6982C114.099 22.6415 113.948 22.5658 113.777 22.5658" fill="#9C9C9C"/>
</svg>
