<svg width="858" height="273" viewBox="0 0 858 273" fill="none" xmlns="http://www.w3.org/2000/svg">
<circle cx="713.302" cy="12.3016" r="12.3016" fill="#D2FF52"/>
<path d="M247.056 269.154V267.182C249.479 266.393 251.113 264.815 252.015 262.392C252.916 259.969 253.311 255.631 253.311 249.32V179.846C253.311 173.592 252.86 169.197 252.015 166.718C251.113 164.239 249.479 162.661 247.056 161.985V160.013C263.115 159.9 273.989 159.844 279.568 159.844C287.174 159.844 293.767 160.745 299.401 162.492C305.036 164.239 309.374 166.662 312.417 169.704C315.46 172.747 317.77 175.959 319.178 179.452C320.587 182.945 321.319 186.72 321.319 190.777C321.319 201.483 317.488 209.991 309.825 216.358C302.162 222.725 291.231 225.937 277.032 225.937H265.988V249.376C265.988 255.744 266.439 260.138 267.284 262.505C268.186 264.871 269.82 266.449 272.243 267.182V269.154H247H247.056ZM266.045 223.57H276.807C286.723 223.57 294.33 220.978 299.683 215.907C305.036 210.78 307.684 203.624 307.684 194.383C307.684 189.989 307.12 185.932 305.937 182.269C304.754 178.607 302.951 175.226 300.472 172.183C297.993 169.141 294.555 166.774 290.161 165.084C285.766 163.394 280.525 162.492 274.497 162.492H266.101V223.57H266.045Z" fill="black"/>
<path d="M345.49 248.195C345.49 254.562 345.941 259.013 346.899 261.492C347.857 263.971 349.491 265.605 351.914 266.338V268.31H326.84V266.338C329.375 265.549 331.066 263.971 331.855 261.549C332.643 259.126 333.094 254.674 333.094 248.195V182.947C333.094 177.65 332.643 174.101 331.686 172.297C330.728 170.494 329.15 169.368 326.84 168.917V166.607L343.518 159H345.49V248.195Z" fill="black"/>
<path d="M427.356 248.199C427.356 254.678 427.751 259.13 428.596 261.552C429.441 263.975 431.075 265.553 433.611 266.342V268.314H431.132C426.737 268.314 422.961 266.736 419.806 263.637C416.651 260.482 415.073 256.707 415.073 252.312V249.664C414.622 250.227 414.059 250.903 413.439 251.805C412.819 252.706 411.242 254.284 408.875 256.65C406.509 259.017 404.086 261.102 401.719 262.848C399.296 264.595 396.197 266.229 392.366 267.694C388.534 269.159 384.816 269.948 381.04 269.948C374.899 269.948 369.659 268.089 365.376 264.426C361.094 260.764 358.953 255.636 358.953 249.156C358.953 245.945 359.629 243.071 360.925 240.423C362.221 237.775 363.912 235.577 365.884 233.718C367.856 231.858 370.56 230.224 373.885 228.59C377.265 227.013 380.421 225.66 383.407 224.646C386.393 223.632 390.056 222.449 394.451 221.266L415.073 215.631C415.073 207.799 413.157 201.714 409.382 197.319C405.607 192.924 400.311 190.726 393.606 190.726C390.394 190.726 387.52 191.515 384.928 193.093C382.336 194.671 380.308 196.586 378.843 198.727C377.378 200.869 375.969 203.01 374.617 205.094C373.265 207.179 371.913 208.701 370.391 209.715C368.926 210.729 367.292 210.842 365.546 210.053C362.785 208.87 362.616 206.334 365.038 202.446C368.25 197.15 373.716 193.149 381.548 190.388C386.281 188.867 391.183 188.078 396.254 188.078C406.171 188.078 413.834 190.445 419.186 195.121C424.595 199.798 427.3 206.954 427.3 216.476V248.199H427.356ZM415.186 246.057V217.828L395.183 223.294C391.746 224.195 388.816 225.153 386.281 226.168C383.745 227.238 381.21 228.59 378.674 230.281C376.138 231.971 374.223 234.056 372.87 236.479C371.574 238.902 370.898 241.663 370.898 244.762C370.898 249.945 372.476 254.34 375.575 257.946C378.73 261.609 382.562 263.412 387.069 263.412C390.394 263.412 393.606 262.792 396.817 261.609C400.029 260.426 402.677 258.961 404.762 257.214C406.847 255.523 408.706 253.777 410.396 252.086C412.087 250.396 413.27 248.931 414.003 247.691L415.186 246.057Z" fill="black"/>
<path d="M478.064 258.281C478.29 258.732 478.628 259.521 479.078 260.591C472.486 266.846 466.063 270.001 459.752 270.001C449.046 270.001 443.75 262.395 443.75 247.238V191.399H433.664V189.089C436.312 189.089 438.848 188.413 441.271 187.117C443.694 185.821 445.666 184.187 447.131 182.215C448.596 180.299 449.892 178.384 450.906 176.524C451.976 174.665 452.765 173.031 453.272 171.566L453.948 169.594H456.09V189.089H469.612V191.399H456.09V247.238C456.09 257.267 459.808 262.282 467.302 262.282C470.908 262.282 474.514 260.986 478.008 258.338L478.064 258.281Z" fill="black"/>
<path d="M523.541 160.365C527.372 159.914 531.147 160.365 534.866 161.661C538.529 162.957 541.289 164.704 543.149 166.845C544.952 168.986 545.459 170.958 544.557 172.705C543.656 174.114 542.473 174.846 541.008 174.79C539.543 174.79 538.303 174.114 537.289 172.874C536.725 172.31 535.824 171.015 534.584 168.93C533.288 166.845 532.049 165.211 530.809 164.028C529.57 162.844 527.992 162.281 526.133 162.281C523.597 162.281 521.456 163.013 519.766 164.422C518.075 165.831 516.836 168.028 516.047 170.958C515.258 173.888 514.751 176.818 514.469 179.861C514.187 182.903 514.075 186.679 514.075 191.186H530.753V193.327H514.075V250.292C514.075 256.659 514.525 261.111 515.483 263.59C516.441 266.069 518.075 267.703 520.498 268.436V270.408H495.424V268.436C497.96 267.647 499.65 266.069 500.552 263.646C501.453 261.223 501.848 256.772 501.848 250.292L501.679 193.327H490.297V191.186H501.679C501.904 183.241 503.989 176.311 507.877 170.395C511.764 164.422 517.061 161.098 523.653 160.309L523.541 160.365Z" fill="black"/>
<path d="M568.445 190.227C573.629 190.227 578.587 191.015 583.32 192.593C588.053 194.171 592.448 196.537 596.505 199.636C600.562 202.735 603.83 206.905 606.253 212.258C608.676 217.61 609.859 223.639 609.859 230.344C609.859 237.05 608.619 242.797 606.084 248.262C603.548 253.728 600.224 258.123 596.167 261.447C592.11 264.828 587.659 267.42 582.869 269.279C578.08 271.138 573.291 272.096 568.445 272.096C563.261 272.096 558.303 271.251 553.514 269.617C548.724 267.983 544.329 265.56 540.329 262.461C536.328 259.306 533.06 255.136 530.694 249.84C528.271 244.543 527.031 238.627 527.031 231.978C527.031 219.977 531.144 210.004 539.427 202.115C547.71 194.171 557.345 190.227 568.501 190.227H568.445ZM573.234 268.659C581.292 268.659 587.377 265.898 591.547 260.377C595.716 254.855 597.801 247.981 597.801 239.754C597.801 232.711 596.336 225.611 593.406 218.399C590.476 211.187 586.25 205.102 580.672 200.143C575.094 195.185 569.065 192.875 562.585 193.213C554.866 193.551 549.062 196.481 545.062 202.059C541.118 207.637 539.145 214.568 539.145 222.963C539.145 229.894 540.441 236.824 543.09 243.755C545.738 250.685 549.738 256.601 555.148 261.391C560.557 266.236 566.529 268.659 573.122 268.659H573.234Z" fill="black"/>
<path d="M660.739 191.241C663.049 191.804 664.514 192.931 665.134 194.622C665.753 196.312 665.584 197.89 664.627 199.298C663.669 200.707 662.373 201.44 660.739 201.44C659.724 201.44 658.372 201.214 656.682 200.707C654.991 200.2 653.526 199.862 652.287 199.693C651.047 199.524 649.188 199.693 646.652 200.256C642.032 201.496 638.539 205.327 636.228 211.807V250.122C636.228 256.489 636.679 260.94 637.637 263.419C638.595 265.899 640.229 267.533 642.652 268.265V270.237H617.578V268.265C620.114 267.476 621.804 265.899 622.593 263.476C623.382 261.053 623.832 256.602 623.832 250.122V213.779C623.832 208.483 623.382 204.933 622.424 203.13C621.466 201.327 619.888 200.2 617.578 199.749V197.439L634.256 191.185H636.228V206.229C638.651 201.383 642.201 197.383 646.934 194.284C651.667 191.185 656.231 190.114 660.626 191.241H660.739Z" fill="black"/>
<path d="M782.892 250.35C782.892 256.83 783.343 261.281 784.188 263.704C785.033 266.127 786.723 267.705 789.146 268.494V270.466H764.073V268.494C766.608 267.705 768.299 266.127 769.2 263.704C770.102 261.281 770.496 256.83 770.496 250.35V218.177C770.496 210.232 769.031 204.485 766.045 200.823C763.059 197.217 758.664 195.357 752.86 195.357C750.212 195.357 747.507 196.202 744.746 197.836C741.985 199.471 739.957 201.048 738.661 202.513C737.365 203.978 736.125 205.499 734.999 207.077C735.9 210.514 736.294 214.064 736.294 217.783V250.294C736.294 256.774 736.745 261.225 737.59 263.648C738.492 266.071 740.126 267.648 742.549 268.437V270.409H717.588V268.437C720.011 267.648 721.645 266.071 722.546 263.648C723.448 261.225 723.842 256.774 723.842 250.294V218.121C723.842 210.176 722.377 204.429 719.391 200.766C716.405 197.16 712.01 195.301 706.206 195.301C704.234 195.301 702.262 195.695 700.346 196.541C698.43 197.386 696.74 198.344 695.388 199.414C694.035 200.541 692.796 201.668 691.782 202.795C690.711 203.978 689.922 204.936 689.359 205.668L688.514 206.852V250.294C688.514 256.661 688.964 261.112 689.922 263.591C690.88 266.071 692.514 267.705 694.937 268.437V270.409H669.863V268.437C672.399 267.648 674.089 266.071 674.878 263.648C675.667 261.225 676.118 256.774 676.118 250.294V213.951C676.118 208.655 675.667 205.105 674.709 203.189C673.751 201.33 672.173 200.203 669.863 199.865V197.555L686.542 191.131H688.514V203.189C688.739 202.851 689.077 202.4 689.584 201.781C690.091 201.161 691.106 200.147 692.74 198.625C694.317 197.16 696.008 195.808 697.754 194.681C699.501 193.554 701.811 192.484 704.628 191.526C707.446 190.568 710.263 190.117 713.137 190.117C723.617 190.117 730.547 194.738 733.928 203.978C735.562 202.119 737.365 200.316 739.281 198.513C741.197 196.766 744.126 194.907 748.014 192.991C751.902 191.075 755.79 190.117 759.678 190.117C766.834 190.117 772.468 192.427 776.581 197.048C780.695 201.668 782.779 208.542 782.779 217.67V250.181L782.892 250.35Z" fill="black"/>
<path d="M4.11006 119.998C6.36873 119.279 7.90873 117.791 8.73006 115.532C9.5514 113.273 9.96206 109.218 9.96206 103.366V38.532C9.96206 32.68 9.5514 28.6247 8.73006 26.366C7.90873 24.0047 6.36873 22.516 4.11006 21.9V20.052H38.9141C46.6141 20.052 53.6467 21.0787 60.0121 23.132C66.3774 25.0827 71.6647 27.752 75.8741 31.14C80.0834 34.4253 83.6254 38.3267 86.5001 42.844C89.3747 47.2587 91.4281 51.8273 92.6601 56.55C93.9947 61.17 94.7134 65.8927 94.8161 70.718C94.8161 86.118 90.0421 98.4893 80.4941 107.832C70.9461 117.175 58.2154 121.846 42.3021 121.846H4.11006V119.998ZM21.8201 109.064C21.8201 112.76 22.4361 115.481 23.6681 117.226C25.0027 118.869 27.5694 119.69 31.3681 119.69H41.9941C54.6221 119.69 64.3754 115.378 71.2541 106.754C78.1327 98.13 81.5721 86.118 81.5721 70.718C81.5721 63.7367 80.3401 57.2173 77.8761 51.16C75.5147 45 72.3321 39.8667 68.3281 35.76C64.4267 31.6533 59.8581 28.4707 54.6221 26.212C49.3861 23.8507 43.9961 22.67 38.4521 22.67H21.8201V109.064ZM165.466 102.288C165.466 108.345 165.825 112.503 166.544 114.762C167.365 117.021 168.957 118.509 171.318 119.228V121.076H169.008C164.901 121.076 161.359 119.639 158.382 116.764C155.507 113.787 154.07 110.245 154.07 106.138V103.674C153.659 104.187 153.146 104.855 152.53 105.676C151.914 106.497 150.477 108.037 148.218 110.296C146.062 112.452 143.855 114.351 141.596 115.994C139.337 117.637 136.411 119.177 132.818 120.614C129.327 121.949 125.837 122.616 122.346 122.616C116.597 122.616 111.72 120.922 107.716 117.534C103.712 114.043 101.71 109.269 101.71 103.212C101.71 100.235 102.326 97.514 103.558 95.05C104.79 92.586 106.33 90.5327 108.178 88.89C110.026 87.1447 112.49 85.5533 115.57 84.116C118.753 82.576 121.73 81.344 124.502 80.42C127.274 79.3933 130.713 78.3153 134.82 77.186L154.07 71.95C154.07 64.6607 152.273 58.9627 148.68 54.856C145.189 50.7493 140.313 48.696 134.05 48.696C131.073 48.696 128.352 49.466 125.888 51.006C123.527 52.4433 121.627 54.1887 120.19 56.242C118.855 58.1927 117.572 60.1433 116.34 62.094C115.108 64.0447 113.773 65.482 112.336 66.406C111.001 67.33 109.513 67.4327 107.87 66.714C105.303 65.5847 105.149 63.2233 107.408 59.63C110.385 54.702 115.519 50.9547 122.808 48.388C127.223 46.9507 131.791 46.232 136.514 46.232C145.754 46.232 152.889 48.4393 157.92 52.854C162.951 57.166 165.466 63.788 165.466 72.72V102.288ZM154.07 100.286V73.952L135.436 79.034C132.253 79.8553 129.481 80.7793 127.12 81.806C124.759 82.73 122.397 84.0133 120.036 85.656C117.675 87.196 115.878 89.0953 114.646 91.354C113.414 93.6127 112.798 96.1793 112.798 99.054C112.798 103.879 114.235 107.986 117.11 111.374C120.087 114.762 123.681 116.456 127.89 116.456C130.97 116.456 133.999 115.891 136.976 114.762C139.953 113.633 142.417 112.298 144.368 110.758C146.319 109.115 148.064 107.524 149.604 105.984C151.144 104.341 152.273 102.955 152.992 101.826L154.07 100.286ZM208.611 77.494C209.022 77.6993 209.741 77.956 210.767 78.264C213.642 79.188 215.798 79.9067 217.235 80.42C218.775 80.9333 220.726 81.8573 223.087 83.192C225.551 84.424 227.399 85.7073 228.631 87.042C229.863 88.274 230.941 89.968 231.865 92.124C232.892 94.28 233.405 96.6927 233.405 99.362C233.405 105.933 230.993 111.425 226.167 115.84C221.445 120.255 214.823 122.462 206.301 122.462C196.137 122.462 188.078 119.587 182.123 113.838C178.427 110.347 177.144 107.473 178.273 105.214C178.581 104.701 178.941 104.29 179.351 103.982C180.583 103.058 181.815 102.853 183.047 103.366C184.382 103.777 185.46 104.598 186.281 105.83C187.205 107.062 188.335 108.551 189.669 110.296C191.107 111.939 192.493 113.581 193.827 115.224C195.162 116.764 196.907 118.099 199.063 119.228C201.322 120.255 203.735 120.768 206.301 120.768C212.153 120.768 216.825 119.433 220.315 116.764C223.806 113.992 225.551 110.501 225.551 106.292C225.551 104.239 225.089 102.391 224.165 100.748C223.344 99.0027 222.369 97.6167 221.239 96.59C220.213 95.4607 218.57 94.3827 216.311 93.356C214.053 92.2267 212.153 91.4053 210.613 90.892C209.073 90.276 206.815 89.506 203.837 88.582C199.936 87.35 196.548 86.118 193.673 84.886C190.799 83.5513 188.078 81.96 185.511 80.112C182.945 78.264 181.097 76.108 179.967 73.644C178.941 71.0773 178.684 68.254 179.197 65.174C179.916 60.3487 182.431 56.0367 186.743 52.238C191.055 48.3367 197.01 46.386 204.607 46.386C207.893 46.386 210.973 46.7967 213.847 47.618C216.722 48.3367 218.981 49.2607 220.623 50.39C222.369 51.5193 223.857 52.7513 225.089 54.086C226.424 55.4207 227.143 56.704 227.245 57.936C227.451 59.0653 227.451 59.9893 227.245 60.708C226.424 62.3507 225.089 62.9153 223.241 62.402C221.496 61.8887 220.059 60.5027 218.929 58.244C215.644 51.468 210.151 48.08 202.451 48.08C198.653 48.08 195.213 49.2607 192.133 51.622C189.053 53.9833 187.513 56.9607 187.513 60.554C187.513 62.71 187.975 64.6607 188.899 66.406C189.926 68.1513 191.517 69.7427 193.673 71.18C195.932 72.5147 198.088 73.644 200.141 74.568C202.297 75.3893 205.121 76.3647 208.611 77.494ZM305.05 102.288C305.05 108.345 305.461 112.503 306.282 114.762C307.103 117.021 308.643 118.509 310.902 119.228V121.076H287.648V119.228C289.907 118.509 291.447 117.021 292.268 114.762C293.089 112.503 293.5 108.345 293.5 102.288V72.258C293.5 64.9687 291.857 59.63 288.572 56.242C285.389 52.7513 281.026 51.006 275.482 51.006C272.505 51.006 269.476 51.93 266.396 53.778C263.419 55.5233 261.16 57.32 259.62 59.168L257.31 61.786V102.288C257.31 108.243 257.721 112.401 258.542 114.762C259.466 117.021 261.057 118.509 263.316 119.228V121.076H239.908V119.228C242.269 118.509 243.809 117.021 244.528 114.762C245.349 112.503 245.76 108.345 245.76 102.288V40.226C245.76 35.4007 245.298 32.1153 244.374 30.37C243.553 28.6247 242.064 27.5467 239.908 27.136V24.98L255.462 19.128H257.31V58.398C257.515 58.09 257.823 57.6793 258.234 57.166C258.747 56.55 259.723 55.5747 261.16 54.24C262.7 52.8027 264.291 51.5707 265.934 50.544C267.679 49.4147 269.938 48.4393 272.71 47.618C275.585 46.694 278.562 46.232 281.642 46.232C289.034 46.232 294.783 48.388 298.89 52.7C302.997 57.012 305.05 63.4287 305.05 71.95V102.288ZM359.126 46.232C368.468 46.232 376.168 49.62 382.226 56.396C388.283 63.172 391.312 71.796 391.312 82.268C391.312 89.2493 389.874 95.7687 387 101.826C384.125 107.781 379.659 112.709 373.602 116.61C367.647 120.409 360.717 122.359 352.812 122.462C348.192 122.462 343.726 121.641 339.414 119.998C335.102 118.253 331.457 116.097 328.48 113.53L322.166 121.076H320.01V41.458C320.01 36.53 319.548 33.2447 318.624 31.602C317.802 29.8567 316.314 28.7787 314.158 28.368V26.212L329.712 19.128H331.56V56.088C341.416 49.5173 350.604 46.232 359.126 46.232ZM357.586 119.382C365.08 119.382 370.727 116.867 374.526 111.836C378.427 106.703 380.378 99.67 380.378 90.738C380.378 86.426 379.864 82.0627 378.838 77.648C377.811 73.2333 376.22 68.9727 374.064 64.866C372.01 60.7593 369.084 57.4227 365.286 54.856C361.487 52.2893 357.124 51.006 352.196 51.006C345.625 51.006 338.746 53.47 331.56 58.398V97.052C331.97 102.493 334.794 107.575 340.03 112.298C345.368 117.021 351.22 119.382 357.586 119.382ZM437.539 46.232C442.365 46.232 446.985 47.002 451.399 48.542C455.814 49.9793 459.921 52.1353 463.719 55.01C467.518 57.8847 470.547 61.8373 472.805 66.868C475.064 71.796 476.193 77.3913 476.193 83.654C476.193 89.7113 475.013 95.3067 472.651 100.44C470.29 105.471 467.21 109.577 463.411 112.76C459.613 115.84 455.455 118.253 450.937 119.998C446.523 121.743 442.057 122.616 437.539 122.616C432.714 122.616 428.043 121.846 423.525 120.306C419.111 118.766 415.004 116.559 411.205 113.684C407.509 110.707 404.532 106.754 402.273 101.826C400.015 96.898 398.885 91.354 398.885 85.194C398.885 74.0033 402.735 64.712 410.435 57.32C418.135 49.928 427.17 46.232 437.539 46.232ZM442.005 119.382C449.5 119.382 455.198 116.815 459.099 111.682C463.001 106.549 464.951 100.132 464.951 92.432C464.951 85.8613 463.565 79.2393 460.793 72.566C458.124 65.79 454.171 60.092 448.935 55.472C443.802 50.852 438.207 48.696 432.149 49.004C424.963 49.312 419.521 52.084 415.825 57.32C412.129 62.4533 410.281 68.9213 410.281 76.724C410.281 83.192 411.513 89.66 413.977 96.128C416.441 102.596 420.189 108.089 425.219 112.606C430.25 117.123 435.845 119.382 442.005 119.382ZM547.157 102.288C547.157 108.345 547.517 112.503 548.235 114.762C549.057 117.021 550.648 118.509 553.009 119.228V121.076H550.699C546.593 121.076 543.051 119.639 540.073 116.764C537.199 113.787 535.761 110.245 535.761 106.138V103.674C535.351 104.187 534.837 104.855 534.221 105.676C533.605 106.497 532.168 108.037 529.909 110.296C527.753 112.452 525.546 114.351 523.287 115.994C521.029 117.637 518.103 119.177 514.509 120.614C511.019 121.949 507.528 122.616 504.037 122.616C498.288 122.616 493.411 120.922 489.407 117.534C485.403 114.043 483.401 109.269 483.401 103.212C483.401 100.235 484.017 97.514 485.249 95.05C486.481 92.586 488.021 90.5327 489.869 88.89C491.717 87.1447 494.181 85.5533 497.261 84.116C500.444 82.576 503.421 81.344 506.193 80.42C508.965 79.3933 512.405 78.3153 516.511 77.186L535.761 71.95C535.761 64.6607 533.965 58.9627 530.371 54.856C526.881 50.7493 522.004 48.696 515.741 48.696C512.764 48.696 510.043 49.466 507.579 51.006C505.218 52.4433 503.319 54.1887 501.881 56.242C500.547 58.1927 499.263 60.1433 498.031 62.094C496.799 64.0447 495.465 65.482 494.027 66.406C492.693 67.33 491.204 67.4327 489.561 66.714C486.995 65.5847 486.841 63.2233 489.099 59.63C492.077 54.702 497.21 50.9547 504.499 48.388C508.914 46.9507 513.483 46.232 518.205 46.232C527.445 46.232 534.581 48.4393 539.611 52.854C544.642 57.166 547.157 63.788 547.157 72.72V102.288ZM535.761 100.286V73.952L517.127 79.034C513.945 79.8553 511.173 80.7793 508.811 81.806C506.45 82.73 504.089 84.0133 501.727 85.656C499.366 87.196 497.569 89.0953 496.337 91.354C495.105 93.6127 494.489 96.1793 494.489 99.054C494.489 103.879 495.927 107.986 498.801 111.374C501.779 114.762 505.372 116.456 509.581 116.456C512.661 116.456 515.69 115.891 518.667 114.762C521.645 113.633 524.109 112.298 526.059 110.758C528.01 109.115 529.755 107.524 531.295 105.984C532.835 104.341 533.965 102.955 534.683 101.826L535.761 100.286ZM599.543 47.156C601.699 47.6693 603.033 48.7473 603.547 50.39C604.163 51.93 604.009 53.3673 603.085 54.702C602.263 56.0367 601.083 56.704 599.543 56.704C598.619 56.704 597.335 56.4987 595.693 56.088C594.153 55.5747 592.818 55.2667 591.689 55.164C590.559 54.9587 588.814 55.1127 586.453 55.626C582.141 56.7553 578.907 60.3487 576.751 66.406V102.134C576.751 108.089 577.161 112.247 577.983 114.608C578.907 116.867 580.498 118.355 582.757 119.074V120.922H559.349V119.074C561.71 118.355 563.25 116.867 563.969 114.608C564.79 112.349 565.201 108.191 565.201 102.134V68.254C565.201 63.326 564.739 60.0407 563.815 58.398C562.993 56.6527 561.505 55.5747 559.349 55.164V53.008L574.903 47.156H576.751V61.17C579.009 56.6527 582.346 52.9567 586.761 50.082C591.175 47.1047 595.436 46.1293 599.543 47.156ZM673.501 102.288C673.501 108.243 673.912 112.401 674.733 114.762C675.554 117.021 677.146 118.509 679.507 119.228V121.076H673.809C670.524 121.076 667.7 119.947 665.339 117.688C663.08 115.327 661.951 112.503 661.951 109.218V108.756C652.814 118.201 644.036 122.873 635.617 122.77C626.377 122.667 618.626 119.125 612.363 112.144C606.1 105.06 602.969 96.3333 602.969 85.964C602.969 78.9827 604.458 72.566 607.435 66.714C610.412 60.7593 614.93 55.8827 620.987 52.084C627.147 48.2853 634.282 46.386 642.393 46.386C649.477 46.386 655.996 48.1827 661.951 51.776V41.458C661.951 36.53 661.489 33.2447 660.565 31.602C659.744 29.8567 658.255 28.7787 656.099 28.368V26.212L671.653 19.128H673.501V102.288ZM661.951 102.288V67.33C660.719 62.6073 657.742 58.398 653.019 54.702C648.399 51.006 643.317 49.158 637.773 49.158C630.278 49.158 624.426 51.776 620.217 57.012C616.11 62.248 614.057 68.9213 614.057 77.032C614.057 81.5493 614.57 86.0153 615.597 90.43C616.726 94.742 618.369 98.8487 620.525 102.75C622.681 106.549 625.607 109.629 629.303 111.99C633.102 114.351 637.414 115.532 642.239 115.532C649.118 115.532 655.688 112.401 661.951 106.138C661.951 105.317 661.951 104.033 661.951 102.288Z" fill="black"/>
<g clip-path="url(#clip0_721_2503)">
<path d="M115.939 181.1C121.871 176.373 126.254 173.191 132.225 169.177C139.64 164.371 145.85 160.543 152.735 157.11C159.62 153.703 166.135 152 172.318 152C178.502 152 181.984 153.32 183.52 155.961C185.029 158.602 184.778 162.127 182.712 166.537C180.554 171.171 176.754 176.452 171.338 182.394C165.274 189.233 158.614 196.046 151.358 202.872C144.089 209.712 137.31 216.3 131.021 222.69C129.749 224.011 127.737 226.057 125.023 228.803C122.308 231.55 119.62 234.573 116.972 237.887C115.82 239.432 114.629 241.03 113.41 242.68C112.192 244.331 111.173 246.047 110.352 247.79C109.319 249.995 108.856 252.041 108.988 253.903C109.107 255.791 110.603 256.715 113.463 256.715C117.211 256.715 121.381 255.448 125.976 252.913C130.584 250.391 134.741 247.684 138.515 244.819C146.155 239.313 153.689 233.2 161.143 226.48C168.571 219.772 176.145 212.656 183.824 205.17C184.897 204.298 185.546 203.849 185.771 203.849C186.658 203.849 186.618 204.853 185.705 206.82C185.095 208.14 184.407 209.131 183.665 209.791C176.29 217.066 168.796 224.156 161.156 231.101C153.503 238.033 144.989 244.713 135.615 251.077C131.418 253.943 126.929 256.478 122.149 258.669C117.369 260.874 113.013 261.508 108.008 261.931C103.175 262.34 99.3754 261.68 97.8394 258.458C96.052 254.497 97.7733 248.965 100.554 243.023C101.891 240.158 104.142 236.382 107.015 232.632C114.629 222.941 122.639 214.438 134.41 203.691C145.228 193.273 154.033 184.388 162.864 174.934C165.844 171.845 167.697 168.306 168.849 165.903C169.988 163.487 169.26 161.256 168.399 160.028C167.525 158.826 166.108 158.206 164.122 158.206C161.262 158.206 157.144 159.367 151.769 161.678C146.393 163.989 139.455 168.332 130.968 174.723C130.968 174.723 109.491 190.593 79.0642 221.066C57.0185 243.155 36.7338 260.095 24.6318 262.036C12.5298 263.977 10.0273 259.514 10.0273 259.514C10.0273 259.514 18.7662 261.785 25.36 258.854C28.5775 257.428 36.7205 254.114 49.4316 242.786C62.8179 230.863 81.6196 210.411 115.966 181.047L115.939 181.1Z" fill="black"/>
<path d="M213.974 186.793C209.551 189.803 204.798 193.434 199.753 197.646C194.682 201.858 188.618 207.681 181.547 215.048C177.747 218.969 173.788 223.34 169.657 228.159C165.513 232.978 161.779 237.507 158.456 241.719C155.132 245.931 152.815 249.258 151.544 251.674C150.061 254.539 149.479 256.572 149.823 257.774C150.167 258.989 151.094 259.583 152.603 259.583C155.172 259.583 158.032 258.685 161.223 256.876C164.401 255.067 167.353 253.192 170.081 251.225C175.152 247.462 180.223 243.303 185.281 238.801C190.339 234.285 195.49 229.453 200.746 224.33C201.475 223.736 201.991 223.432 202.296 223.432C202.905 223.432 202.984 223.881 202.574 224.792C202.216 225.558 201.792 226.152 201.276 226.601C196.231 231.579 191.041 236.556 185.705 241.521C180.369 246.498 174.49 251.159 168.082 255.543C165.208 257.497 162.097 259.239 158.76 260.745C155.41 262.25 152.087 263.002 148.777 263.002V263.029C144.553 263.029 142.104 261.642 141.441 258.843C140.779 256.057 141.415 252.625 143.308 248.558C143.865 247.357 144.566 246.115 145.387 244.821C146.208 243.541 149.796 238.576 150.736 237.216C155.861 230.443 165.288 220.633 165.288 220.633C172.319 213.173 194.788 191.546 213.987 186.806M217.986 174.025C216.251 174.025 215.099 173.431 214.543 172.243C213.987 171.055 214.08 169.668 214.835 168.097C215.867 165.879 217.642 163.951 220.171 162.288C222.686 160.624 225.017 159.713 227.148 159.555C228.883 159.555 230.061 160.109 230.644 161.218C231.24 162.327 231.134 163.753 230.313 165.496C229.36 167.556 227.612 169.497 225.096 171.319C222.58 173.141 220.223 174.052 217.999 174.052L217.986 174.025Z" fill="black"/>
<path d="M127.328 219.07H79.0391V221.104H127.328V219.07Z" fill="black"/>
</g>
<path d="M778.182 121.172H816.656V118.706H778.182V121.172Z" fill="black"/>
<path d="M794.482 119.938H800.363V114.056H794.482V119.938Z" fill="black"/>
<path d="M808.835 93.6562H783.59V96.1221H808.835V93.6562Z" fill="black"/>
<path d="M779.223 84.1953L780.445 85.8426H785.923V84.1953H779.223Z" fill="black"/>
<path d="M785.921 85.2031H780.434V108.376H785.921V85.2031Z" fill="black"/>
<path d="M807.621 84.1953L808.844 85.8426H814.321V84.1953H807.621Z" fill="black"/>
<path d="M814.32 85.2031H808.832V107.457H814.32V85.2031Z" fill="black"/>
<path d="M814.322 106.539H780.527V108.378H814.322V106.539Z" fill="black"/>
<path d="M717.859 84.5469L719.173 86.3154H725.045V84.5469H717.859Z" fill="black"/>
<path d="M725.054 86.3125H719.172V121.552H725.054V86.3125Z" fill="black"/>
<path d="M726.348 84.5469L727.651 86.3154H733.533V84.5469H726.348Z" fill="black"/>
<path d="M733.53 86.3125H727.648V121.552H733.53V86.3125Z" fill="black"/>
<path d="M729.691 102.094H722.102V104.448H729.691V102.094Z" fill="black"/>
<path d="M704.488 84.5625H699V121.551H704.488V84.5625Z" fill="black"/>
<path d="M715.403 84.5156H699.082V86.3549H715.403V84.5156Z" fill="black"/>
<path d="M715.403 119.719H699.082V121.558H715.403V119.719Z" fill="black"/>
<path d="M819.182 121.172H857.656V118.706H819.182V121.172Z" fill="black"/>
<path d="M826.921 84.6484H821.434V108.367H826.921V84.6484Z" fill="black"/>
<path d="M855.322 84H821.527V85.8393H855.322V84Z" fill="black"/>
<path d="M855.322 106.539H821.527V108.378H855.322V106.539Z" fill="black"/>
<path d="M765.016 84.5469L766.329 86.3154H772.201V84.5469H765.016Z" fill="black"/>
<path d="M772.202 86.3125H766.32V121.179H772.202V86.3125Z" fill="black"/>
<path d="M757.839 120.968C760.305 120.968 762.303 119.046 762.303 116.675C762.303 114.305 760.305 112.383 757.839 112.383C755.374 112.383 753.375 114.305 753.375 116.675C753.375 119.046 755.374 120.968 757.839 120.968Z" fill="black"/>
<path d="M754.727 84.5156H748.855V94.3084H754.727V84.5156Z" fill="black"/>
<path d="M748.856 94.3047C748.856 94.3047 749.584 115.912 735.273 121.541C735.273 121.541 754.728 122.865 754.728 94.3047" fill="black"/>
<defs>
<clipPath id="clip0_721_2503">
<rect width="221" height="111" fill="white" transform="translate(10 152)"/>
</clipPath>
</defs>
</svg>
