<svg width="498" height="176" viewBox="0 0 498 176" fill="none" xmlns="http://www.w3.org/2000/svg">
<path d="M95.5429 68.648C97.0682 68.1627 98.1082 67.1573 98.6629 65.632C99.2175 64.1067 99.4949 61.368 99.4949 57.416V13.632C99.4949 9.68 99.2175 6.94133 98.6629 5.41599C98.1082 3.82133 97.0682 2.816 95.5429 2.4V1.15199H119.047C124.247 1.15199 128.996 1.84533 133.295 3.232C137.594 4.54933 141.164 6.352 144.007 8.64C146.85 10.8587 149.242 13.4933 151.183 16.544C153.124 19.5253 154.511 22.6107 155.343 25.8C156.244 28.92 156.73 32.1093 156.799 35.368C156.799 45.768 153.575 54.1227 147.127 60.432C140.679 66.7413 132.082 69.896 121.335 69.896H95.5429V68.648ZM107.503 61.264C107.503 63.76 107.919 65.5973 108.751 66.776C109.652 67.8853 111.386 68.44 113.951 68.44H121.127C129.655 68.44 136.242 65.528 140.887 59.704C145.532 53.88 147.855 45.768 147.855 35.368C147.855 30.6533 147.023 26.2507 145.359 22.16C143.764 18 141.615 14.5333 138.911 11.76C136.276 8.98666 133.191 6.83733 129.655 5.312C126.119 3.71733 122.479 2.92 118.735 2.92H107.503V61.264ZM207.839 55.44L208.775 56.272C201.911 65.7013 194.041 70.416 185.167 70.416C182.393 70.416 179.62 69.896 176.847 68.856C174.143 67.816 171.612 66.3253 169.255 64.384C166.967 62.4427 165.095 59.8773 163.639 56.688C162.252 53.4293 161.559 49.824 161.559 45.872C161.559 37.968 164.124 31.4853 169.255 26.424C174.455 21.3627 180.625 18.832 187.767 18.832C193.868 18.832 198.721 20.5307 202.327 23.928C205.932 27.3253 207.804 31.4853 207.943 36.408H168.943C168.735 37.9333 168.631 39.4933 168.631 41.088C168.631 47.952 170.572 53.4987 174.455 57.728C178.407 61.9573 183.607 64.072 190.055 64.072C196.78 64.072 202.708 61.1947 207.839 55.44ZM184.543 20.6C180.452 20.5307 177.089 21.848 174.455 24.552C171.82 27.256 170.087 30.792 169.255 35.16H199.935C199.38 31.416 197.716 28.0533 194.943 25.072C192.239 22.0907 188.772 20.6 184.543 20.6ZM234.054 39.944C234.331 40.0827 234.816 40.256 235.51 40.464C237.451 41.088 238.907 41.5733 239.878 41.92C240.918 42.2667 242.235 42.8907 243.83 43.792C245.494 44.624 246.742 45.4907 247.574 46.392C248.406 47.224 249.134 48.368 249.758 49.824C250.451 51.28 250.798 52.9093 250.798 54.712C250.798 59.1493 249.168 62.8587 245.91 65.84C242.72 68.8213 238.248 70.312 232.494 70.312C225.63 70.312 220.187 68.3707 216.166 64.488C213.67 62.1307 212.803 60.1893 213.566 58.664C213.774 58.3173 214.016 58.04 214.294 57.832C215.126 57.208 215.958 57.0693 216.79 57.416C217.691 57.6933 218.419 58.248 218.974 59.08C219.598 59.912 220.36 60.9173 221.262 62.096C222.232 63.2053 223.168 64.3147 224.07 65.424C224.971 66.464 226.15 67.3653 227.606 68.128C229.131 68.8213 230.76 69.168 232.494 69.168C236.446 69.168 239.6 68.2667 241.958 66.464C244.315 64.592 245.494 62.2347 245.494 59.392C245.494 58.0053 245.182 56.7573 244.558 55.648C244.003 54.4693 243.344 53.5333 242.582 52.84C241.888 52.0773 240.779 51.3493 239.254 50.656C237.728 49.8933 236.446 49.3387 235.406 48.992C234.366 48.576 232.84 48.056 230.83 47.432C228.195 46.6 225.907 45.768 223.966 44.936C222.024 44.0347 220.187 42.96 218.454 41.712C216.72 40.464 215.472 39.008 214.71 37.344C214.016 35.6107 213.843 33.704 214.19 31.624C214.675 28.3653 216.374 25.4533 219.286 22.888C222.198 20.2533 226.219 18.936 231.35 18.936C233.568 18.936 235.648 19.2133 237.59 19.768C239.531 20.2533 241.056 20.8773 242.166 21.64C243.344 22.4027 244.35 23.2347 245.182 24.136C246.083 25.0373 246.568 25.904 246.638 26.736C246.776 27.4987 246.776 28.1227 246.638 28.608C246.083 29.7173 245.182 30.0987 243.934 29.752C242.755 29.4053 241.784 28.4693 241.022 26.944C238.803 22.368 235.094 20.08 229.894 20.08C227.328 20.08 225.006 20.8773 222.926 22.472C220.846 24.0667 219.806 26.0773 219.806 28.504C219.806 29.96 220.118 31.2773 220.742 32.456C221.435 33.6347 222.51 34.7093 223.966 35.68C225.491 36.5813 226.947 37.344 228.334 37.968C229.79 38.5227 231.696 39.1813 234.054 39.944ZM266.629 9.992C265.589 11.032 264.307 11.552 262.781 11.552C261.256 11.552 259.939 11.032 258.829 9.992C257.789 8.88266 257.269 7.6 257.269 6.144C257.269 4.54933 257.789 3.232 258.829 2.192C259.939 1.08266 261.256 0.527996 262.781 0.527996C264.376 0.527996 265.693 1.08266 266.733 2.192C267.773 3.232 268.293 4.54933 268.293 6.144C268.293 7.6 267.739 8.88266 266.629 9.992ZM267.253 56.688C267.253 60.7093 267.531 63.5173 268.085 65.112C268.709 66.6373 269.784 67.6427 271.309 68.128V69.376H255.501V68.128C257.096 67.6427 258.136 66.6373 258.621 65.112C259.176 63.5867 259.453 60.7787 259.453 56.688V34.536C259.453 31.2773 259.141 29.0587 258.517 27.88C257.963 26.7013 256.957 25.9733 255.501 25.696V24.24L266.005 19.456H267.253V56.688ZM307.43 62.616C318.038 63.24 323.342 66.4987 323.342 72.392C323.342 75.9973 321.921 79.2213 319.078 82.064C316.305 84.976 312.803 87.16 308.574 88.616C304.414 90.072 300.046 90.8 295.47 90.8C289.646 90.8 284.654 89.7253 280.494 87.576C276.334 85.4267 273.838 82.376 273.006 78.424C272.729 77.9387 272.659 77.3493 272.798 76.656C272.937 75.9627 273.006 75.3733 273.006 74.888C273.006 74.472 273.145 73.952 273.422 73.328C273.769 72.7733 274.011 72.288 274.15 71.872C274.358 71.5253 274.705 71.1093 275.19 70.624C275.675 70.1387 276.022 69.7573 276.23 69.48C276.507 69.1333 276.889 68.752 277.374 68.336C277.929 67.8507 278.345 67.504 278.622 67.296C278.899 67.088 279.281 66.8107 279.766 66.464C280.251 66.048 280.563 65.7707 280.702 65.632C279.454 64.384 278.83 62.824 278.83 60.952C278.83 59.288 279.454 57.7973 280.702 56.48C281.95 55.1627 283.753 53.7067 286.11 52.112C280.286 49.1307 277.374 44.2773 277.374 37.552C277.374 32.4213 279.35 28.0187 283.302 24.344C287.323 20.6 291.934 18.728 297.134 18.728C299.907 18.728 302.473 19.0747 304.83 19.768C308.505 15.0533 312.075 12.904 315.542 13.32C316.582 13.4587 317.241 14.0133 317.518 14.984C317.795 15.8853 317.622 16.7173 316.998 17.48C316.443 18.1733 315.646 18.416 314.606 18.208C310.515 17.168 307.638 17.8613 305.974 20.288C309.233 21.536 311.833 23.4427 313.774 26.008C315.785 28.5733 316.79 31.8667 316.79 35.888C316.79 39.4933 315.715 42.7867 313.566 45.768C311.417 48.7493 308.851 50.968 305.87 52.424C302.889 53.88 299.977 54.608 297.134 54.608C293.737 54.608 290.513 53.984 287.462 52.736C286.561 53.36 285.902 53.8453 285.486 54.192C285.07 54.5387 284.689 54.9893 284.342 55.544C283.995 56.0293 283.822 56.5493 283.822 57.104C283.961 59.8773 287.635 61.4373 294.846 61.784L307.43 62.616ZM284.654 33.184C284.654 36.2347 285.174 39.2507 286.214 42.232C287.323 45.144 288.987 47.6747 291.206 49.824C293.494 51.9733 296.094 53.048 299.006 53.048C302.542 53.048 305.177 51.8693 306.91 49.512C308.713 47.0853 309.614 44.0347 309.614 40.36C309.614 37.24 309.025 34.1547 307.846 31.104C306.667 27.984 304.899 25.3493 302.542 23.2C300.185 21.0507 297.585 20.0453 294.742 20.184C291.345 20.3227 288.814 21.6053 287.15 24.032C285.486 26.3893 284.654 29.44 284.654 33.184ZM296.094 89.448C299.561 89.448 303.062 88.928 306.598 87.888C310.134 86.848 313.15 85.288 315.646 83.208C318.211 81.1973 319.494 78.944 319.494 76.448C319.494 74.16 318.558 72.5653 316.686 71.664C314.814 70.832 311.694 70.2773 307.326 70C300.323 69.7227 295.678 69.48 293.39 69.272C288.051 68.9947 284.238 68.0587 281.95 66.464C280.217 67.712 279.315 69.6187 279.246 72.184C279.177 74.8187 279.731 77.384 280.91 79.88C282.158 82.4453 284.134 84.664 286.838 86.536C289.611 88.4773 292.697 89.448 296.094 89.448ZM370.079 56.688C370.079 60.7787 370.357 63.5867 370.911 65.112C371.466 66.6373 372.506 67.6427 374.031 68.128V69.376H358.327V68.128C359.853 67.6427 360.893 66.6373 361.447 65.112C362.002 63.5867 362.279 60.7787 362.279 56.688V36.408C362.279 31.4853 361.17 27.88 358.951 25.592C356.802 23.2347 353.855 22.056 350.111 22.056C348.101 22.056 346.055 22.68 343.975 23.928C341.965 25.1067 340.439 26.32 339.399 27.568L337.839 29.336V56.688C337.839 60.7093 338.117 63.5173 338.671 65.112C339.295 66.6373 340.37 67.6427 341.895 68.128V69.376H326.087V68.128C327.682 67.6427 328.722 66.6373 329.207 65.112C329.762 63.5867 330.039 60.7787 330.039 56.688V33.808C330.039 30.48 329.727 28.2267 329.103 27.048C328.549 25.8693 327.543 25.176 326.087 24.968V23.512L336.591 19.456H337.839V27.048C337.978 26.84 338.186 26.5627 338.463 26.216C338.81 25.8 339.469 25.1413 340.439 24.24C341.479 23.2693 342.554 22.4373 343.663 21.744C344.842 20.9813 346.367 20.3227 348.239 19.768C350.181 19.144 352.191 18.832 354.271 18.832C359.263 18.832 363.146 20.288 365.919 23.2C368.693 26.112 370.079 30.4453 370.079 36.2V56.688Z" fill="#111111"/>
<path d="M28.1776 104.608C26.2363 104.608 24.0523 104.608 21.6256 104.608C19.2683 104.608 17.3616 104.608 15.9056 104.608H13.7216V134.352H26.3056C31.6443 134.352 35.3536 133.832 37.4336 132.792C39.583 131.752 40.9696 130.053 41.5936 127.696H42.7376V142.464H41.5936C40.9696 140.107 39.583 138.408 37.4336 137.368C35.3536 136.328 31.6443 135.808 26.3056 135.808H13.7216V159.416C13.7216 163.437 13.999 166.211 14.5536 167.736C15.1083 169.192 16.1483 170.163 17.6736 170.648V171.896H1.76163V170.648C3.28696 170.163 4.32696 169.157 4.88163 167.632C5.43629 166.107 5.71363 163.368 5.71363 159.416V115.632C5.71363 111.68 5.43629 108.941 4.88163 107.416C4.32696 105.821 3.28696 104.816 1.76163 104.4V103.152H26.9296H47.4176L48.5616 115.84L47.4176 116.152C45.7536 111.923 43.3963 108.941 40.3456 107.208C37.3643 105.475 33.3083 104.608 28.1776 104.608ZM95.5656 163.264C95.5656 165.552 95.8082 167.285 96.2936 168.464C96.8482 169.573 97.9229 170.128 99.5176 170.128V171.376H95.6696C93.4509 171.376 91.5789 170.613 90.0536 169.088C88.5282 167.563 87.7656 165.691 87.7656 163.472V162.328C81.3176 169.053 74.8349 172.416 68.3176 172.416C58.1256 172.416 53.0296 166.349 53.0296 154.216V135.704C53.0296 132.376 52.7176 130.157 52.0936 129.048C51.5389 127.869 50.5336 127.141 49.0776 126.864V125.408L59.5816 121.456H60.8296V152.448C60.8296 158.133 61.6962 162.293 63.4296 164.928C65.1629 167.563 68.0056 168.88 71.9576 168.88C77.1576 168.88 82.4269 166.072 87.7656 160.456V135.704C87.7656 132.376 87.4536 130.157 86.8296 129.048C86.2749 127.869 85.2696 127.141 83.8136 126.864V125.408L94.2136 121.456H95.5656V163.264ZM115.574 158.688C115.574 162.709 115.852 165.517 116.406 167.112C117.03 168.637 118.105 169.643 119.63 170.128V171.376H103.822V170.128C105.417 169.643 106.457 168.637 106.942 167.112C107.497 165.587 107.774 162.779 107.774 158.688V117.608C107.774 114.28 107.462 112.061 106.838 110.952C106.284 109.773 105.278 109.045 103.822 108.768V107.312L114.326 102.528H115.574V158.688ZM135.582 158.688C135.582 162.709 135.859 165.517 136.414 167.112C137.038 168.637 138.113 169.643 139.638 170.128V171.376H123.83V170.128C125.425 169.643 126.465 168.637 126.95 167.112C127.505 165.587 127.782 162.779 127.782 158.688V117.608C127.782 114.28 127.47 112.061 126.846 110.952C126.291 109.773 125.286 109.045 123.83 108.768V107.312L134.334 102.528H135.582V158.688ZM218.91 133.416C221.683 134.456 223.832 135.323 225.358 136.016C226.952 136.709 228.824 137.68 230.974 138.928C233.123 140.176 234.752 141.424 235.862 142.672C236.971 143.851 237.942 145.376 238.774 147.248C239.606 149.051 240.022 151.027 240.022 153.176C240.022 159.069 237.734 163.853 233.158 167.528C228.582 171.133 223.208 172.936 217.038 172.936C213.64 172.936 210.035 172.243 206.222 170.856C202.408 169.469 199.184 167.771 196.55 165.76C193.984 163.749 192.563 161.808 192.286 159.936C192.008 158.48 192.32 157.301 193.222 156.4C194.123 155.499 195.198 155.083 196.446 155.152C197.763 155.152 198.838 155.603 199.67 156.504C200.016 156.851 200.814 157.96 202.062 159.832C203.379 161.635 204.627 163.299 205.806 164.824C207.054 166.349 208.787 167.805 211.006 169.192C213.224 170.509 215.547 171.168 217.974 171.168C222.064 171.168 225.704 169.955 228.894 167.528C232.083 165.032 233.678 161.877 233.678 158.064C233.678 156.539 233.4 155.117 232.846 153.8C232.36 152.413 231.528 151.165 230.35 150.056C229.24 148.947 228.166 147.976 227.126 147.144C226.086 146.312 224.664 145.445 222.862 144.544C221.059 143.643 219.638 142.984 218.598 142.568C217.558 142.083 216.102 141.459 214.23 140.696C213.814 140.557 213.502 140.453 213.294 140.384C210.035 139.067 207.4 137.888 205.39 136.848C203.379 135.808 201.438 134.56 199.566 133.104C197.763 131.579 196.446 129.845 195.614 127.904C194.782 125.963 194.366 123.744 194.366 121.248C194.366 115.493 196.55 110.917 200.918 107.52C205.286 104.123 211.11 102.424 218.39 102.424C221.094 102.424 224.214 102.875 227.75 103.776C231.355 104.608 234.059 105.856 235.862 107.52C237.179 108.629 237.352 109.912 236.382 111.368C235.48 112.755 234.094 113.171 232.222 112.616C231.528 112.408 230.558 111.819 229.31 110.848C228.131 109.877 226.952 108.907 225.774 107.936C224.595 106.896 223.035 105.995 221.094 105.232C219.152 104.4 217.176 103.984 215.166 103.984C210.936 103.984 207.435 105.163 204.662 107.52C201.888 109.808 200.502 112.963 200.502 116.984C200.502 118.648 200.848 120.243 201.542 121.768C202.304 123.224 203.171 124.437 204.142 125.408C205.112 126.379 206.499 127.419 208.302 128.528C210.174 129.568 211.664 130.331 212.774 130.816C213.952 131.301 215.651 131.995 217.87 132.896C218.355 133.104 218.702 133.277 218.91 133.416ZM290.878 157.44L291.814 158.272C284.95 167.701 277.08 172.416 268.206 172.416C265.432 172.416 262.659 171.896 259.886 170.856C257.182 169.816 254.651 168.325 252.294 166.384C250.006 164.443 248.134 161.877 246.678 158.688C245.291 155.429 244.598 151.824 244.598 147.872C244.598 139.968 247.163 133.485 252.294 128.424C257.494 123.363 263.664 120.832 270.806 120.832C276.907 120.832 281.76 122.531 285.366 125.928C288.971 129.325 290.843 133.485 290.982 138.408H251.982C251.774 139.933 251.67 141.493 251.67 143.088C251.67 149.952 253.611 155.499 257.494 159.728C261.446 163.957 266.646 166.072 273.094 166.072C279.819 166.072 285.747 163.195 290.878 157.44ZM267.582 122.6C263.491 122.531 260.128 123.848 257.494 126.552C254.859 129.256 253.126 132.792 252.294 137.16H282.974C282.419 133.416 280.755 130.053 277.982 127.072C275.278 124.091 271.811 122.6 267.582 122.6ZM322.825 121.456C324.281 121.803 325.182 122.531 325.529 123.64C325.945 124.68 325.841 125.651 325.217 126.552C324.662 127.453 323.865 127.904 322.825 127.904C322.201 127.904 321.334 127.765 320.225 127.488C319.185 127.141 318.284 126.933 317.521 126.864C316.758 126.725 315.58 126.829 313.985 127.176C311.073 127.939 308.889 130.365 307.433 134.456V158.584C307.433 162.605 307.71 165.413 308.265 167.008C308.889 168.533 309.964 169.539 311.489 170.024V171.272H295.681V170.024C297.276 169.539 298.316 168.533 298.801 167.008C299.356 165.483 299.633 162.675 299.633 158.584V135.704C299.633 132.376 299.321 130.157 298.697 129.048C298.142 127.869 297.137 127.141 295.681 126.864V125.408L306.185 121.456H307.433V130.92C308.958 127.869 311.212 125.373 314.193 123.432C317.174 121.421 320.052 120.763 322.825 121.456ZM363.113 121.456H374.865V122.808C371.606 122.808 368.868 125.72 366.649 131.544C366.025 133.139 364.465 137.264 361.969 143.92C359.542 150.507 357.254 156.747 355.105 162.64L351.881 171.376H348.241L333.993 133.312C333.924 133.104 333.75 132.688 333.473 132.064C333.265 131.371 333.092 130.851 332.953 130.504C332.814 130.088 332.606 129.568 332.329 128.944C332.052 128.32 331.774 127.8 331.497 127.384C331.289 126.968 331.012 126.517 330.665 126.032C330.388 125.477 330.076 125.061 329.729 124.784C329.452 124.437 329.14 124.091 328.793 123.744C328.446 123.397 328.065 123.155 327.649 123.016C327.233 122.877 326.817 122.808 326.401 122.808V121.456H343.353V122.808C340.164 122.808 339.574 125.824 341.585 131.856C342.625 134.837 344.116 138.963 346.057 144.232C347.998 149.501 349.697 154.043 351.153 157.856L353.233 163.472C359.681 145.515 363.633 134.768 365.089 131.232C366.268 128.181 366.649 126.032 366.233 124.784C365.817 123.467 364.812 122.808 363.217 122.808L363.113 121.456ZM388.364 111.992C387.324 113.032 386.041 113.552 384.516 113.552C382.99 113.552 381.673 113.032 380.564 111.992C379.524 110.883 379.004 109.6 379.004 108.144C379.004 106.549 379.524 105.232 380.564 104.192C381.673 103.083 382.99 102.528 384.516 102.528C386.11 102.528 387.428 103.083 388.468 104.192C389.508 105.232 390.028 106.549 390.028 108.144C390.028 109.6 389.473 110.883 388.364 111.992ZM388.988 158.688C388.988 162.709 389.265 165.517 389.82 167.112C390.444 168.637 391.518 169.643 393.044 170.128V171.376H377.236V170.128C378.83 169.643 379.87 168.637 380.356 167.112C380.91 165.587 381.188 162.779 381.188 158.688V136.536C381.188 133.277 380.876 131.059 380.252 129.88C379.697 128.701 378.692 127.973 377.236 127.696V126.24L387.74 121.456H388.988V158.688ZM443.932 157.44L444.868 158.272C438.004 167.701 430.135 172.416 421.26 172.416C418.348 172.416 415.506 171.896 412.732 170.856C409.959 169.747 407.428 168.221 405.14 166.28C402.852 164.269 401.015 161.669 399.628 158.48C398.311 155.291 397.652 151.755 397.652 147.872C397.652 143.365 398.692 139.032 400.772 134.872C402.852 130.712 405.73 127.349 409.404 124.784C413.079 122.219 417.031 120.936 421.26 120.936C425.767 120.936 429.754 121.941 433.22 123.952C436.756 125.963 439.114 128.147 440.292 130.504C440.847 131.613 440.674 132.584 439.772 133.416C438.871 134.179 437.831 134.248 436.652 133.624C436.098 133.277 435.508 132.653 434.884 131.752C434.33 130.851 433.74 129.915 433.116 128.944C432.492 127.904 431.695 126.899 430.724 125.928C429.823 124.888 428.575 124.056 426.98 123.432C425.455 122.739 423.652 122.392 421.572 122.392C416.927 122.392 412.94 124.472 409.612 128.632C406.354 132.723 404.724 137.541 404.724 143.088C404.724 149.952 406.666 155.499 410.548 159.728C414.5 163.957 419.7 166.072 426.148 166.072C432.874 166.072 438.802 163.195 443.932 157.44ZM494.815 157.44L495.751 158.272C488.887 167.701 481.018 172.416 472.143 172.416C469.37 172.416 466.596 171.896 463.823 170.856C461.119 169.816 458.588 168.325 456.231 166.384C453.943 164.443 452.071 161.877 450.615 158.688C449.228 155.429 448.535 151.824 448.535 147.872C448.535 139.968 451.1 133.485 456.231 128.424C461.431 123.363 467.602 120.832 474.743 120.832C480.844 120.832 485.698 122.531 489.303 125.928C492.908 129.325 494.78 133.485 494.919 138.408H455.919C455.711 139.933 455.607 141.493 455.607 143.088C455.607 149.952 457.548 155.499 461.431 159.728C465.383 163.957 470.583 166.072 477.031 166.072C483.756 166.072 489.684 163.195 494.815 157.44ZM471.519 122.6C467.428 122.531 464.066 123.848 461.431 126.552C458.796 129.256 457.063 132.792 456.231 137.16H486.911C486.356 133.416 484.692 130.053 481.919 127.072C479.215 124.091 475.748 122.6 471.519 122.6Z" fill="#111111"/>
<line x1="150" y1="139.5" x2="180" y2="139.5" stroke="black" stroke-width="5"/>
</svg>
