<svg width="52" height="35" viewBox="0 0 52 35" fill="none" xmlns="http://www.w3.org/2000/svg">
<path d="M1 5.53125H51.4878V32.7053C51.4878 33.5523 50.8269 34.2342 50.0173 34.2342H2.47047C1.65582 34.2342 1 33.547 1 32.7053V5.53125Z" fill="#F5F5F5" stroke="black" stroke-width="0.7" stroke-miterlimit="10"/>
<path d="M2.5273 1H50.0291C50.8536 1 51.5173 1.44455 51.5173 1.98903V5.01471H1.03906V1.98903C1.03906 1.44455 1.70799 1 2.5273 1Z" fill="black" stroke="black" stroke-width="0.7" stroke-miterlimit="10"/>
<path d="M4.79383 4.80256C5.49114 4.80256 6.05642 4.22765 6.05642 3.51847C6.05642 2.80928 5.49114 2.23438 4.79383 2.23438C4.09653 2.23438 3.53125 2.80928 3.53125 3.51847C3.53125 4.22765 4.09653 4.80256 4.79383 4.80256Z" fill="#F5F5F5" stroke="black" stroke-width="0.7" stroke-miterlimit="10"/>
<path d="M8.57508 4.80256C9.27239 4.80256 9.83767 4.22765 9.83767 3.51847C9.83767 2.80928 9.27239 2.23438 8.57508 2.23438C7.87778 2.23438 7.3125 2.80928 7.3125 3.51847C7.3125 4.22765 7.87778 4.80256 8.57508 4.80256Z" fill="#F5F5F5" stroke="black" stroke-width="0.7" stroke-miterlimit="10"/>
<path d="M12.1024 4.80256C12.7997 4.80256 13.365 4.22765 13.365 3.51847C13.365 2.80928 12.7997 2.23438 12.1024 2.23438C11.4051 2.23438 10.8398 2.80928 10.8398 3.51847C10.8398 4.22765 11.4051 4.80256 12.1024 4.80256Z" fill="#F5F5F5" stroke="black" stroke-width="0.7" stroke-miterlimit="10"/>
<path d="M32.9997 12.3984H12.1992V26H32.9997V12.3984Z" fill="black" stroke="black" stroke-width="0.7" stroke-miterlimit="10"/>
<path d="M28 10H8V22H28V10Z" fill="#F5F5F5" stroke="black" stroke-width="0.7" stroke-miterlimit="10"/>
<path d="M36.0166 20.1519L39.8174 28.9296C39.858 29.0368 40.0303 29.0173 40.0404 28.9004L40.5674 23.9416C40.5674 23.8929 40.608 23.8539 40.6586 23.8442L45.9088 22.831C46.0304 22.8115 46.0304 22.6459 45.9088 22.6166L36.1484 20.0057C36.0572 19.9765 35.9761 20.0642 36.0065 20.1519H36.0166Z" fill="#D2FF52" stroke="black" stroke-width="0.7" stroke-miterlimit="10"/>
</svg>
