<svg width="40" height="42" viewBox="0 0 40 42" fill="none" xmlns="http://www.w3.org/2000/svg">
<path d="M19.5065 39.7188L3.19727 30.5594L3.37445 11.9543L36.5674 11.8906L36.2216 30.1515L19.5065 39.7188Z" fill="#F5F5F5" stroke="black" stroke-width="0.7" stroke-miterlimit="10"/>
<path d="M19.5065 39.722L3.19727 30.5626L3.37445 11.9574L19.8523 2.60156L19.5065 20.8625V39.722Z" fill="black" stroke="black" stroke-width="0.7" stroke-miterlimit="10"/>
<path d="M19.5905 21.0421L3.28125 11.8798L19.9935 2.3125L36.3056 11.4719L19.5905 21.0421Z" fill="#F5F5F5" stroke="black" stroke-width="0.7" stroke-miterlimit="10"/>
<path d="M19.5898 21.0391V39.8207" stroke="black" stroke-width="0.7" stroke-miterlimit="10"/>
<path d="M20.5287 38.9922H18.9141V40.6268H20.5287V38.9922Z" fill="#F2F2F2" stroke="black" stroke-width="0.7" stroke-miterlimit="10"/>
<path d="M4.95508 29H1.95508V32.037H4.95508V29Z" fill="#F5F5F5" stroke="black" stroke-width="0.5" stroke-miterlimit="10"/>
<path d="M4.95508 10H1.95508V13.037H4.95508V10Z" fill="#F5F5F5" stroke="black" stroke-width="0.5" stroke-miterlimit="10"/>
<path d="M38.2915 28.5703H35.3281V31.5703H38.2915V28.5703Z" fill="#F5F5F5" stroke="black" stroke-width="0.5" stroke-miterlimit="10"/>
<path d="M38.2915 10.0781H35.3281V13.0781H38.2915V10.0781Z" fill="#F5F5F5" stroke="black" stroke-width="0.5" stroke-miterlimit="10"/>
<path d="M4.00195 39.8047H35.4888" stroke="black" stroke-width="0.7" stroke-miterlimit="10"/>
<path d="M3.35702 40.4934C3.75159 40.4934 4.07146 40.1696 4.07146 39.7701C4.07146 39.3707 3.75159 39.0469 3.35702 39.0469C2.96244 39.0469 2.64258 39.3707 2.64258 39.7701C2.64258 40.1696 2.96244 40.4934 3.35702 40.4934Z" fill="#F2F2F2" stroke="black" stroke-width="0.7" stroke-miterlimit="10"/>
<path d="M36.2203 40.634C36.6149 40.634 36.9347 40.3102 36.9347 39.9108C36.9347 39.5113 36.6149 39.1875 36.2203 39.1875C35.8257 39.1875 35.5059 39.5113 35.5059 39.9108C35.5059 40.3102 35.8257 40.634 36.2203 40.634Z" fill="#F2F2F2" stroke="black" stroke-width="0.7" stroke-miterlimit="10"/>
<path d="M21.7173 37.8281H18.7539V40.8281H21.7173V37.8281Z" fill="#F2F2F2" stroke="black" stroke-width="0.5" stroke-miterlimit="10"/>
<path d="M4.00195 2.49219H35.4888" stroke="black" stroke-width="0.7" stroke-miterlimit="10"/>
<path d="M3.35702 3.17308C3.75159 3.17308 4.07146 2.84927 4.07146 2.44982C4.07146 2.05038 3.75159 1.72656 3.35702 1.72656C2.96244 1.72656 2.64258 2.05038 2.64258 2.44982C2.64258 2.84927 2.96244 3.17308 3.35702 3.17308Z" fill="#F2F2F2" stroke="black" stroke-width="0.7" stroke-miterlimit="10"/>
<path d="M36.2203 3.31371C36.6149 3.31371 36.9347 2.98989 36.9347 2.59045C36.9347 2.191 36.6149 1.86719 36.2203 1.86719C35.8257 1.86719 35.5059 2.191 35.5059 2.59045C35.5059 2.98989 35.8257 3.31371 36.2203 3.31371Z" fill="#F2F2F2" stroke="black" stroke-width="0.7" stroke-miterlimit="10"/>
<path d="M19.5 22.25C20.4665 22.25 21.25 21.4665 21.25 20.5C21.25 19.5335 20.4665 18.75 19.5 18.75C18.5335 18.75 17.75 19.5335 17.75 20.5C17.75 21.4665 18.5335 22.25 19.5 22.25Z" fill="#D2FF52" stroke="black" stroke-width="0.5" stroke-miterlimit="10"/>
<path d="M21.7154 0.507812H18.752V3.50781H21.7154V0.507812Z" fill="#F2F2F2" stroke="black" stroke-width="0.5" stroke-miterlimit="10"/>
</svg>
