<svg width="77" height="39" viewBox="0 0 77 39" fill="none" xmlns="http://www.w3.org/2000/svg">
<path d="M62.474 4H18.526C17.6832 4 17 4.69827 17 5.55963V36.4404C17 37.3017 17.6832 38 18.526 38H62.474C63.3168 38 64 37.3017 64 36.4404V5.55963C64 4.69827 63.3168 4 62.474 4Z" fill="#F5F5F5" stroke="#0C0E12" stroke-width="0.7" stroke-miterlimit="10"/>
<path d="M62.474 4H18.526C17.6832 4 17 4.53397 17 5.19266V28.8073L17 28.8377C16.9998 29.4824 16.9996 30 17.8294 30H63.027C63.8697 30 64 29.466 64 28.8073V5.19266C64 4.53397 63.3168 4 62.474 4Z" fill="#F5F5F5" stroke="#0C0E12" stroke-width="0.7" stroke-miterlimit="10"/>
<path d="M37.9894 12.8984L46.8465 17.4761C47.3189 17.7212 47.3189 18.275 46.8465 18.5201L37.9894 23.0978C37.4774 23.3624 36.8008 23.0659 36.8008 22.5758V13.4179C36.8008 12.9278 37.4744 12.6313 37.9894 12.896V12.8984Z" fill="#D2FF52" stroke="#111111" stroke-width="0.91"/>
<path d="M26 34L59 34" stroke="#0C0E12" stroke-width="0.6" stroke-miterlimit="10"/>
<path d="M21.0664 32.8672V34.887" stroke="#0C0E12" stroke-width="0.5" stroke-miterlimit="10"/>
<path d="M22.3672 32.8672V34.887" stroke="#0C0E12" stroke-width="0.5" stroke-miterlimit="10"/>
<g clip-path="url(#clip0_2054_93139)">
<path d="M64.618 25.9096C63.9963 25.9096 63.5118 25.7545 63.1787 25.4477C62.8883 25.1814 61.449 23.0797 61.2619 22.7182C61.1942 22.586 61.1159 22.3709 61.098 22.2175C60.9466 20.8722 62.9382 18.7934 63.1662 18.5606C64.2813 17.4216 66.0787 16.0745 67.8582 15.0448C69.4009 14.1509 71.6311 13.0859 73.4873 13.0859C73.7082 13.0859 73.9201 13.1018 74.1179 13.1318C74.2978 13.16 74.7556 13.3786 74.8856 13.4985C75.0584 13.659 76.6402 16.0181 76.7632 16.2685C77.2869 17.3246 76.3249 18.7687 75.4254 19.7949C73.7046 21.7573 70.8901 23.7691 68.2555 24.9169C66.7271 25.5834 65.5371 25.9079 64.6198 25.9079L64.618 25.9096ZM73.3394 13.6766C70.2755 13.7524 64.4933 17.5362 62.5748 20.2022C61.848 21.2125 61.5826 21.9759 61.8088 22.4097C61.9567 22.6936 62.3218 22.8381 62.8919 22.8381C63.2731 22.8381 63.7416 22.7729 64.2831 22.6424C67.388 21.9019 72.1459 18.7052 73.8863 16.1909C74.5187 15.2758 74.7574 14.5159 74.5365 14.1033C74.3851 13.8194 74.0128 13.6748 73.4303 13.6748C73.4 13.6748 73.3697 13.6748 73.3394 13.6748V13.6766ZM71.428 19.541C71.9518 19.6274 72.3775 19.8936 72.6162 20.2921C72.8139 20.6253 72.8567 21.015 72.7445 21.417C73.5959 20.7488 76.1076 18.6541 76.2858 17.1184C76.3517 16.5506 75.9633 16.0428 75.5875 15.5526C75.4521 15.3763 75.3131 15.1929 75.1974 15.0113C74.4919 16.8997 72.9493 18.2503 71.428 19.5427V19.541Z" fill="black"/>
<path d="M73.487 13.1763C73.7007 13.1763 73.9056 13.1904 74.1033 13.2222C74.2636 13.2468 74.7072 13.4584 74.823 13.5677C74.9762 13.7088 76.5544 16.0538 76.6827 16.313C77.2206 17.4009 76.061 18.9402 75.3574 19.7442C73.5778 21.7754 70.7027 23.7607 68.2178 24.8433C67.3681 25.2136 65.845 25.8272 64.6177 25.8272C64.0726 25.8272 63.5845 25.7055 63.2389 25.3899C62.9681 25.1413 61.5342 23.0572 61.34 22.6852C61.2741 22.5565 61.2011 22.3537 61.185 22.2144C61.0603 21.1071 62.4818 19.3916 63.2282 18.6299C65.2589 16.5528 70.2431 13.1763 73.487 13.1763ZM62.8915 22.9285C63.2745 22.9285 63.7466 22.8633 64.3041 22.731C67.3752 21.9976 72.1705 18.8291 73.959 16.2425C74.7107 15.1564 75.377 13.5889 73.43 13.5889C73.3997 13.5889 73.3676 13.5889 73.3355 13.5889C70.1113 13.6682 64.3487 17.5843 62.5014 20.1515C61.2296 21.92 61.3774 22.9268 62.8915 22.9268M72.5518 21.6784C73.7542 20.7739 76.1964 18.6616 76.3727 17.1312C76.476 16.246 75.5693 15.5372 75.1774 14.8037C74.4934 16.8261 72.8011 18.2631 71.214 19.6084C72.3416 19.6878 73.0523 20.6082 72.55 21.6802M73.487 13C71.6112 13 69.3649 14.072 67.8116 14.9712C66.0249 16.0045 64.2204 17.3586 63.1 18.5012C62.8702 18.7374 60.8519 20.8444 61.0087 22.2285C61.0283 22.4013 61.112 22.6253 61.1832 22.761C61.3721 23.126 62.8256 25.2454 63.1196 25.5151C63.4705 25.836 63.9746 26 64.6194 26C65.5493 26 66.7517 25.6738 68.2908 25.002C70.9379 23.8489 73.7648 21.8283 75.4927 19.857C76.4101 18.8115 77.3881 17.3322 76.843 16.2337C76.7183 15.9816 75.1204 13.5995 74.9459 13.439C74.8016 13.305 74.3295 13.0793 74.1318 13.0494C73.9287 13.0176 73.7132 13.0018 73.4887 13.0018L73.487 13ZM62.8915 22.7522C62.3571 22.7522 62.0187 22.6235 61.8869 22.3714C61.6802 21.9746 61.9492 21.2218 62.6457 20.2555C64.5553 17.6055 70.2984 13.841 73.3409 13.767C73.3712 13.767 73.4015 13.767 73.43 13.767C73.9768 13.767 74.3242 13.8957 74.4578 14.1478C74.6609 14.5304 74.4257 15.2569 73.8129 16.1438C72.0815 18.644 67.352 21.823 64.2632 22.56C63.727 22.6887 63.2656 22.7522 62.8915 22.7522ZM71.6219 19.4938C73.0096 18.3125 74.497 16.9742 75.2166 15.204C75.3111 15.3398 75.4144 15.4755 75.5159 15.6078C75.8811 16.0838 76.2569 16.5775 76.1964 17.11C76.1073 17.8735 75.1792 19.381 72.8795 21.2024C72.9258 20.8638 72.8617 20.5376 72.6925 20.2502C72.4698 19.8764 72.0904 19.612 71.6237 19.4938H71.6219Z" fill="black"/>
<path d="M72.5508 21.6811C73.0532 20.6109 72.3424 19.6887 71.2148 19.6094C72.8002 18.2641 74.4925 16.8271 75.1783 14.8047C75.5702 15.5382 76.4769 16.247 76.3736 17.1321C76.1955 18.6625 73.755 20.7748 72.5526 21.6794L72.5508 21.6811Z" fill="white"/>
<path d="M62.8918 23.1949C62.1775 23.1949 61.7054 22.9869 61.4917 22.5761C61.196 22.0083 61.4632 21.1426 62.2844 20.0018C64.0942 17.4875 69.8836 13.4128 73.3305 13.3281C73.3643 13.3281 73.3981 13.3281 73.4302 13.3281C74.157 13.3281 74.6344 13.5362 74.8517 13.9435C75.2205 14.6346 74.6896 15.6573 74.1802 16.3943C72.4006 18.965 67.5393 22.2322 64.3667 22.9904C63.7967 23.1262 63.2997 23.1949 62.8918 23.1949Z" fill="white"/>
<path d="M73.4293 13.5915C75.3763 13.5915 74.7101 15.1589 73.9584 16.2451C72.1681 18.8317 67.3746 22.0001 64.3035 22.7336C63.746 22.8676 63.2739 22.9311 62.8909 22.9311C61.3768 22.9311 61.2289 21.9243 62.5008 20.1558C64.3498 17.5886 70.1107 13.6726 73.3367 13.5932C73.3688 13.5932 73.4008 13.5932 73.4311 13.5932M73.4311 13.0625C73.3955 13.0625 73.3599 13.0625 73.3242 13.0625C69.8043 13.1507 63.9063 17.2924 62.0662 19.849C61.1701 21.0938 60.9047 22.0266 61.2539 22.6966C61.4356 23.0439 61.8666 23.46 62.8909 23.46C63.3202 23.46 63.8386 23.3877 64.4282 23.2467C67.7112 22.4638 72.5565 19.2055 74.3984 16.543C75.2 15.3846 75.4316 14.4678 75.086 13.8189C74.8188 13.3164 74.2612 13.0625 73.4275 13.0625H73.4311Z" fill="black"/>
</g>
<g clip-path="url(#clip1_2054_93139)">
<path d="M10.7183 19.6248C11.1827 19.5829 11.5339 19.4314 11.7615 19.1739C11.9599 18.9503 12.8897 17.2431 13.0044 16.9536C13.0458 16.8477 13.0895 16.6776 13.0922 16.5589C13.1123 15.518 11.4809 14.0597 11.2945 13.8968C10.3828 13.0993 8.94702 12.1885 7.54654 11.5196C6.33242 10.9388 4.59286 10.2733 3.20638 10.3985C3.04139 10.4134 2.88414 10.4398 2.73852 10.4761C2.60608 10.5099 2.27924 10.7082 2.1904 10.8088C2.07243 10.9434 1.05402 12.8575 0.979523 13.0576C0.661372 13.902 1.47976 14.9435 2.22268 15.669C3.64376 17.0564 5.88523 18.4079 7.93257 19.1096C9.12031 19.5171 10.0316 19.6855 10.7168 19.6236L10.7183 19.6248ZM3.35767 10.841C5.65154 10.6925 10.2323 13.2014 11.8498 15.1145C12.4625 15.8395 12.7136 16.4065 12.5746 16.754C12.4838 16.9815 12.221 17.1169 11.7952 17.1553C11.5105 17.181 11.156 17.1626 10.7425 17.0992C8.37205 16.7412 4.59695 14.613 3.12307 12.8041C2.58742 12.1457 2.35656 11.5796 2.49302 11.2486C2.58649 11.0209 2.85459 10.8851 3.28969 10.8458C3.31231 10.8438 3.33493 10.8417 3.35755 10.8397L3.35767 10.841ZM5.19098 15.2049C4.80576 15.3064 4.50616 15.5391 4.35542 15.8605C4.23077 16.1291 4.22578 16.4305 4.33741 16.7309C3.65517 16.2764 1.63417 14.841 1.3949 13.6765C1.3064 13.246 1.56135 12.8307 1.80821 12.4299C1.89714 12.2857 1.98824 12.1358 2.06217 11.9889C2.71969 13.388 3.96539 14.3187 5.1911 15.2063L5.19098 15.2049Z" fill="black"/>
<path d="M3.21225 10.4615C3.05258 10.4759 2.90053 10.5005 2.75503 10.5381C2.63699 10.5679 2.3203 10.7599 2.24137 10.8514C2.1367 10.9698 1.11997 12.8728 1.04209 13.08C0.715493 13.9498 1.68817 15.0508 2.26936 15.6193C3.7391 17.0555 6.02398 18.3826 7.95503 19.0444C8.61534 19.2708 9.79543 19.6382 10.7122 19.5554C11.1194 19.5187 11.4755 19.3926 11.7118 19.1275C11.8969 18.9187 12.8239 17.2254 12.9432 16.9273C12.9835 16.8242 13.0241 16.664 13.0264 16.5562C13.043 15.6995 11.8625 14.481 11.2523 13.9478C9.59178 12.4934 5.63526 10.2427 3.21225 10.4615ZM11.8011 17.2183C11.515 17.2441 11.1579 17.226 10.7323 17.1623C8.38759 16.8074 4.5865 14.7034 3.0717 12.8423C2.43507 12.0609 1.82902 10.905 3.28336 10.7737C3.30598 10.7717 3.32993 10.7695 3.35388 10.7673C5.76775 10.6107 10.3431 13.2223 11.9004 15.0645C12.9728 16.3336 12.932 17.1149 11.801 17.217M4.49881 16.912C3.53811 16.3001 1.56777 14.8465 1.3302 13.6859C1.19181 13.0148 1.82006 12.4106 2.06207 11.8222C2.71288 13.3255 4.07633 14.3123 5.35493 15.2359C4.51815 15.3728 4.0509 16.1258 4.50027 16.9132M3.20005 10.3264C4.60117 10.1999 6.35319 10.8697 7.57566 11.4539C8.9817 12.125 10.4232 13.0407 11.3392 13.8405C11.5272 14.006 13.1805 15.4841 13.1591 16.5551C13.1564 16.6888 13.1094 16.866 13.0655 16.9748C12.9497 17.2671 12.0105 18.9888 11.8097 19.2153C11.5697 19.4848 11.2045 19.6445 10.7228 19.6879C10.0283 19.7506 9.10755 19.5818 7.91146 19.1709C5.85444 18.466 3.60304 17.1086 2.17603 15.7149C1.41847 14.9758 0.585661 13.9084 0.916853 13.0301C0.992558 12.8285 2.02136 10.8958 2.14066 10.7611C2.23917 10.6487 2.57617 10.444 2.72179 10.4077C2.87128 10.3697 3.03119 10.343 3.19884 10.3279L3.20005 10.3264ZM11.7889 17.0832C12.1881 17.0472 12.432 16.9258 12.513 16.7237C12.6399 16.4059 12.3869 15.8472 11.7998 15.1539C10.1902 13.2524 5.63998 10.7557 3.36221 10.9041C3.33959 10.9062 3.31697 10.9082 3.29568 10.9101C2.88718 10.947 2.63662 11.069 2.55426 11.2712C2.42904 11.578 2.65491 12.1187 3.17398 12.7569C4.64023 14.5555 8.39282 16.6721 10.751 17.0285C11.1605 17.0909 11.5095 17.1085 11.7889 17.0832ZM5.0423 15.1756C3.92406 14.3642 2.72046 13.4392 2.06047 12.1315C1.99934 12.2419 1.93156 12.3529 1.86486 12.461C1.62501 12.8504 1.3784 13.2539 1.46047 13.6578C1.5798 14.2367 2.3773 15.3291 4.22106 16.5694C4.16305 16.3131 4.18839 16.0589 4.29492 15.8273C4.4354 15.5259 4.70052 15.2977 5.04097 15.1758L5.0423 15.1756Z" fill="black"/>
<path d="M4.49911 16.9129C4.04986 16.1269 4.517 15.3725 5.35378 15.2356C4.0765 14.3119 2.71306 13.3251 2.06091 11.8219C1.81891 12.4103 1.19066 13.0145 1.32905 13.6856C1.56795 14.8461 3.53695 16.2998 4.49766 16.9117L4.49911 16.9129Z" fill="white"/>
<path d="M11.817 17.4192C12.3505 17.371 12.6888 17.1798 12.82 16.8507C13.0016 16.3958 12.7422 15.7505 12.0499 14.9319C10.5241 13.1277 5.91786 10.3964 3.3373 10.564C3.31202 10.5663 3.28674 10.5685 3.26279 10.5707C2.71991 10.6197 2.37769 10.8113 2.24353 11.138C2.0159 11.6924 2.48314 12.44 2.91466 12.9703C4.42172 14.8198 8.27887 16.9951 10.7011 17.362C11.1363 17.4275 11.5123 17.4467 11.817 17.4192Z" fill="white"/>
<path d="M3.28229 10.7753C1.82795 10.9066 2.434 12.0625 3.07063 12.844C4.58676 14.7049 8.38652 16.809 10.7312 17.1639C11.1569 17.229 11.5139 17.2457 11.8 17.2199C12.931 17.1178 12.9718 16.3365 11.8995 15.0674C10.3408 13.2254 5.7668 10.6137 3.3516 10.7704C3.32765 10.7726 3.3037 10.7747 3.28108 10.7768M3.24438 10.3702C3.27099 10.3678 3.2976 10.3654 3.32421 10.363C5.95957 10.1932 10.6516 12.9685 12.2029 14.8031C12.9583 15.6964 13.2211 16.393 13.0066 16.9299C12.8949 17.2082 12.6017 17.5561 11.8366 17.6252C11.5159 17.6541 11.1237 17.6337 10.6735 17.5654C8.16711 17.187 4.32255 15.0174 2.76258 13.1019C2.08369 12.2685 1.84731 11.5817 2.06057 11.0613C2.2254 10.6583 2.62432 10.4262 3.24704 10.3699L3.24438 10.3702Z" fill="black"/>
</g>
<defs>
<clipPath id="clip0_2054_93139">
<rect width="16" height="13" fill="white" transform="translate(61 13)"/>
</clipPath>
<clipPath id="clip1_2054_93139">
<rect width="12" height="10" fill="white" transform="matrix(-0.99595 0.0899077 0.0899077 0.99595 12.5273 9.48438)"/>
</clipPath>
</defs>
</svg>
