<svg width="46" height="46" viewBox="0 0 46 46" fill="none" xmlns="http://www.w3.org/2000/svg">
<g clip-path="url(#clip0_2054_93074)">
<path d="M20.1501 16.636C32.2674 15.304 40.436 30.678 30.8609 38.3446C23.2341 44.4353 11.5648 37.9481 10.7313 28.9392C10.1999 23.1536 13.9716 17.3274 20.1501 16.6461V16.636ZM21.0149 19.1576C8.38703 20.2964 11.4711 39.7478 24.5782 38.5887C36.956 37.4905 33.7886 18.0086 21.0149 19.1576Z" fill="white" stroke="black" stroke-width="0.4" stroke-miterlimit="10"/>
<path d="M10.0854 36.7897C10.5438 36.2304 12.1483 35.539 12.7005 34.8984L14.1592 36.6575C14.1592 36.8405 11.4502 38.6911 11.1273 38.7216C10.2416 38.7928 9.4498 37.5726 10.0854 36.7897Z" fill="white"/>
<path d="M21.0148 19.1591C33.7885 17.9999 36.9559 37.492 24.5781 38.5901C11.4709 39.7493 8.38691 20.3081 21.0148 19.1591ZM21.1711 19.82C18.4517 20.2064 15.9303 22.484 15.1489 25.026C12.1899 34.5941 25.8284 41.5287 30.8816 33.1604C34.7262 26.7952 28.5165 18.793 21.1711 19.82Z" fill="black"/>
<path d="M21.1724 19.8162C28.5178 18.7893 34.738 26.7915 30.8829 33.1566C25.8193 41.5249 12.1912 34.5903 15.1502 25.0222C15.9316 22.4802 18.4531 20.2026 21.1724 19.8162Z" fill="white"/>
<path d="M9.37711 12.4127L13.3363 12.25L13.0863 20.2929C11.1588 22.6722 10.2211 25.8243 10.5128 28.9357C10.5857 29.7491 10.7628 30.5829 11.0233 31.4065L9.15831 31.4878H8.68945L9.36669 12.4127H9.37711Z" fill="white"/>
<path d="M13.1182 12.4661L12.8786 20.2243C10.9511 22.6443 10.0134 25.8167 10.3051 28.9586C10.378 29.711 10.5239 30.4635 10.7427 31.2159L9.15901 31.2871H8.89853L9.56535 12.6085L13.1078 12.4661M13.5558 12.0391L9.17984 12.2221L8.49219 31.704H9.17984L11.3157 31.6124C11.024 30.7482 10.8156 29.8534 10.7323 28.9383C10.4405 25.8269 11.3991 22.7053 13.3058 20.387L13.5558 12.0594V12.0391Z" fill="black"/>
<path d="M16.5978 6.36754L21.005 6.0625V6.52006L20.4945 15.4171C19.9006 15.5492 17.8064 16.0678 16.0664 17.3388L16.5874 6.36754H16.5978Z" fill="white"/>
<path d="M20.8078 6.27316V6.48669L20.3077 15.2413C19.5992 15.404 17.8801 15.8819 16.3172 16.9191L16.8069 6.5477L20.8078 6.26299M21.2246 5.83594L16.411 6.17148L15.8796 17.4986C15.9004 17.6003 15.8171 17.7528 15.6816 17.9155C17.7342 16.1259 20.7036 15.5769 20.7036 15.5769L21.2141 6.50703V5.83594H21.2246Z" fill="black"/>
<path d="M14.9414 18.5846C15.0039 18.5541 15.0769 18.5032 15.1498 18.4219C15.0769 18.4829 15.0039 18.5337 14.9414 18.5846Z" fill="black"/>
<path d="M35.2282 21.1692C34.5718 20.1118 33.0194 17.9257 30.7168 16.6343L30.8835 11.5707L35.8013 11.2656L35.2387 21.1794L35.2282 21.1692Z" fill="white"/>
<path d="M35.5819 11.4763L35.0609 20.5258C34.2795 19.3768 32.8729 17.6381 30.935 16.5196L31.0913 11.761L35.5819 11.4763ZM36.0195 11.0391L30.6849 11.3746L30.5078 16.7535C33.6023 18.4312 35.3943 21.868 35.3943 21.868L36.0091 11.0391H36.0195Z" fill="black"/>
<path d="M36.1749 23.0508L36.873 11.7135H36.0082V11.0424L35.3935 21.8714C35.3935 21.8714 33.6014 18.4346 30.507 16.7569L28.8712 15.9231L29.8297 0.721928L28.9858 0.61008L28.7149 0L27.7564 15.4147C27.7564 15.4147 25.0057 14.7436 23.1095 14.9164L21.557 15.0791L22.0676 6.51768H21.2028L20.6923 15.5875C20.6923 15.5875 17.7228 16.1366 15.6703 17.9262C15.5348 18.0889 15.3473 18.2719 15.1493 18.4346C15.066 18.5159 15.0035 18.5769 14.941 18.5973C14.7117 18.7701 14.5034 18.9125 14.42 18.943C14.0553 19.0955 14.1908 18.7294 14.2012 18.5668C14.3992 16.5637 14.295 14.5606 14.5034 12.5575L13.649 12.5371L13.5448 12.0389L13.2947 20.3665C14.941 18.3634 17.2852 16.9399 20.14 16.6247C32.2574 15.2927 40.4259 30.6667 30.8508 38.3333C24.0055 43.8037 13.9095 39.1366 11.3047 31.6021L9.16881 31.6936V32.3647L11.3776 32.3952L12.5967 34.6322C12.5967 34.7542 10.6796 36.1269 10.5545 36.1574C10.0128 36.2997 8.73121 35.7303 8.07481 36.2591C6.0431 38.13 2.34435 39.9094 0.552277 41.8515C-1.08351 43.6207 1.167 46.2339 3.40709 45.9797C3.98014 45.9085 4.13642 45.7051 4.57402 45.4408C6.94956 44.0172 9.21049 42.0141 11.586 40.5195C12.232 39.9195 12.2633 39.0858 12.3049 38.2825L14.2741 36.92C17.8479 40.0924 22.3697 41.7803 27.2041 40.4788C29.7776 39.7874 33.8932 36.6353 35.2997 34.439C37.6023 30.8497 37.3314 26.9757 36.1749 23.0508ZM11.1276 38.7197C10.242 38.7909 9.45013 37.5707 10.0857 36.7878C10.5441 36.2286 12.1487 35.5371 12.7009 34.8966L14.1595 36.6556C14.1595 36.8386 11.4506 38.6892 11.1276 38.7197Z" fill="black"/>
<path d="M27.568 15.1633C26.9429 15.021 25.255 14.6854 23.7755 14.6854C23.6296 14.6854 23.4733 14.6854 23.3379 14.6956L24.0047 0.653618L28.4953 0.226562L27.568 15.1633Z" fill="#D2FF52"/>
<path d="M28.2668 0.447392L27.3708 14.9063C26.6102 14.7436 25.1098 14.4691 23.7658 14.4691C23.6928 14.4691 23.6199 14.4691 23.547 14.4691L24.193 0.823607L28.2668 0.437224M28.7148 0L23.797 0.467728L23.1094 14.9164C23.3178 14.8961 23.5366 14.8859 23.7658 14.8859C25.5787 14.8859 27.7563 15.4147 27.7563 15.4147L28.7148 0Z" fill="black"/>
<path d="M39.8318 3.00581L44.8955 2.71094L43.0513 31.9948L38.0502 32.1473C38.0502 32.1473 37.9981 32.1473 37.9668 32.1473L39.8318 2.98547V3.00581Z" fill="#D2FF52"/>
<path d="M44.6669 2.93722L42.854 31.8143L38.2384 31.9567H38.1759L40.02 3.21176L44.6669 2.94739M45.1149 2.5L39.6345 2.81521L37.7383 32.3736C37.9154 32.3736 38.2592 32.3736 38.2592 32.3532L43.2499 32.2007L45.1149 2.5Z" fill="black"/>
<path d="M45.3031 3.07958L45.1156 2.5L43.2506 32.2007L37.916 32.3736C38.1973 32.5159 38.4682 32.9735 38.687 33.0446H43.9382L46.0012 2.98806L45.3031 3.08974V3.07958Z" fill="black"/>
<path d="M18.2115 24.6059C18.5179 24.619 18.8792 24.9795 19.0582 25.2056C19.9497 26.3394 20.5485 27.9615 21.5673 29.2068C22.7754 30.6814 24.5651 31.635 25.4462 33.2374C25.2914 33.6307 24.985 33.8011 24.5651 33.8666C21.3298 34.3713 16.3564 28.7677 16.9931 25.8381C17.1136 25.2908 17.5232 24.5699 18.2115 24.6026V24.6059ZM17.8983 24.891C17.6264 24.9664 17.358 25.3858 17.2994 25.6414C16.6765 28.2958 19.9703 32.1134 22.3589 33.2047C23.2056 33.5914 24.2416 33.9715 25.1021 33.398C25.2914 33.1588 25.1399 33.0081 25.0126 32.8082C24.5307 32.0512 22.8821 31.0157 22.1627 30.2783C21.7153 29.8196 21.1095 29.0528 20.7344 28.5252C20.2938 27.9058 18.8448 25.1302 18.4662 24.9467C18.27 24.8517 18.1083 24.8353 17.8983 24.891Z" fill="black"/>
<path d="M17.8985 24.8927C18.1119 24.8337 18.2703 24.8534 18.4664 24.9484C18.845 25.1319 20.294 27.9075 20.7346 28.5269C21.1098 29.0545 21.7155 29.8213 22.163 30.2801C22.8823 31.0174 24.5309 32.0529 25.0128 32.8099C25.1401 33.0098 25.2916 33.1605 25.1023 33.3997C24.2418 33.9732 23.2058 33.5931 22.3591 33.2064C19.9671 32.1152 16.6767 28.2975 17.2997 25.6432C17.3582 25.3876 17.6266 24.9681 17.8985 24.8927Z" fill="white"/>
</g>
<defs>
<clipPath id="clip0_2054_93074">
<rect width="46" height="46" fill="white"/>
</clipPath>
</defs>
</svg>
