<svg width="50" height="44" viewBox="0 0 50 44" fill="none" xmlns="http://www.w3.org/2000/svg">
<path d="M20.4503 43.1069C31.2636 43.1069 40.0295 34.0727 40.0295 22.9285C40.0295 11.7842 31.2636 2.75 20.4503 2.75C9.637 2.75 0.871094 11.7842 0.871094 22.9285C0.871094 34.0727 9.637 43.1069 20.4503 43.1069Z" fill="black" stroke="black" stroke-miterlimit="10"/>
<path d="M20.5792 41.3569C31.3925 41.3569 40.1584 32.3227 40.1584 21.1785C40.1584 10.0342 31.3925 1 20.5792 1C9.76591 1 1 10.0342 1 21.1785C1 32.3227 9.76591 41.3569 20.5792 41.3569Z" fill="#F5F5F5" stroke="black" stroke-width="0.7" stroke-miterlimit="10"/>
<path d="M20.536 35.3956C28.2134 35.3956 34.4372 28.9813 34.4372 21.0689C34.4372 13.1565 28.2134 6.74219 20.536 6.74219C12.8586 6.74219 6.63477 13.1565 6.63477 21.0689C6.63477 28.9813 12.8586 35.3956 20.536 35.3956Z" fill="#F5F5F5" stroke="black" stroke-width="0.7" stroke-miterlimit="10"/>
<path d="M20.5353 29.3432C24.9687 29.3432 28.5628 25.6392 28.5628 21.07C28.5628 16.5009 24.9687 12.7969 20.5353 12.7969C16.1018 12.7969 12.5078 16.5009 12.5078 21.07C12.5078 25.6392 16.1018 29.3432 20.5353 29.3432Z" fill="#D2FF52" stroke="#111111" stroke-width="0.7" stroke-miterlimit="10"/>
<path d="M20.5 24C22.433 24 24 22.433 24 20.5C24 18.567 22.433 17 20.5 17C18.567 17 17 18.567 17 20.5C17 22.433 18.567 24 20.5 24Z" fill="black" stroke="black" stroke-width="0.7" stroke-miterlimit="10"/>
<path d="M20.8438 21.3203H48.65" stroke="black" stroke-width="0.7" stroke-miterlimit="10"/>
<path d="M36.1289 21.483L38.2944 17.375H47.387L44.9748 21.483H36.1289Z" fill="#D2FF52"/>
<path d="M47.049 17.5651L44.8601 21.2955H36.4488L38.4107 17.5651H47.049ZM47.7225 17.1875H38.1718L35.8105 21.6731H45.0911L47.7265 17.1875H47.7225Z" fill="black" stroke="black" stroke-width="0.2"/>
<path d="M38.4311 25.265L36.2656 21.4922H45.1115L47.5237 25.265H38.4311Z" fill="#D2FF52"/>
<path d="M44.9987 21.6671L47.1877 25.0932H38.5493L36.5875 21.6671H44.9987ZM45.2259 21.3203H35.9453L38.3066 25.4399H47.8573L45.2219 21.3203H45.2259Z" fill="black" stroke="black" stroke-width="0.2"/>
</svg>
