<svg width="64" height="61" viewBox="0 0 64 61" fill="none" xmlns="http://www.w3.org/2000/svg">
<path d="M26.5873 50.945C25.8269 47.9036 22.8364 31.5557 24.7116 33.8368L24.7117 29.2746L31.555 23.572C39.9191 12.9271 43.2647 19.3146 39.9191 22.0519L38.7532 29.2746C39.8498 29.4433 41.6088 30.1959 42.4833 31.9359C42.8698 32.261 46.8174 32.3081 46.2897 36.1179C47.9596 36.2446 50.8431 37.2584 49.0182 40.2999C48.149 41.7486 47.1694 42.5242 46.2897 42.8263L46.3569 43.3414C46.3569 45.7745 44.0758 49.4243 42.9353 50.945C43.062 51.5787 43.2394 53.3782 42.9353 55.5073C42.5551 58.1685 33.4306 58.9289 30.009 58.5487C26.5873 58.1685 27.3477 53.9865 26.5873 50.945Z" fill="#F2F2F2"/>
<path fill-rule="evenodd" clip-rule="evenodd" d="M37.0402 18.7582C35.6534 19.5833 33.907 21.1441 31.8305 23.7869L31.8077 23.8159L25.0619 29.4372L25.0618 34.8123L24.4971 34.1252C24.4876 34.184 24.4791 34.2539 24.4722 34.3359C24.4549 34.543 24.4498 34.8028 24.4568 35.1107C24.4848 36.3469 24.7037 38.2532 25.0077 40.3434C25.6151 44.5193 26.5509 49.354 26.9271 50.859C27.1239 51.6463 27.221 52.5013 27.3098 53.3241C27.3144 53.3668 27.319 53.4094 27.3236 53.4519C27.4082 54.2384 27.4891 54.9905 27.6418 55.6666C27.8027 56.3792 28.0357 56.9688 28.404 57.3994C28.7627 57.8187 29.2724 58.1136 30.0479 58.1998C31.7198 58.3856 34.8227 58.2934 37.5535 57.8226C38.919 57.5871 40.1685 57.2608 41.0912 56.8392C42.0427 56.4046 42.522 55.9271 42.5892 55.4566C42.8877 53.3669 42.7114 51.6073 42.5925 51.0125L42.5618 50.8591L42.6556 50.7339C43.2154 49.9876 44.0596 48.7122 44.762 47.326C45.4661 45.9366 46.0003 44.4884 46.0073 43.3624L45.9949 43.2678C45.3529 43.3985 44.754 43.3074 44.2815 43.0332C43.8663 42.7922 43.5631 42.4167 43.4266 41.9615C43.2884 42.0143 43.1493 42.0433 43.0099 42.0471C42.7017 42.0553 42.4374 41.9387 42.2251 41.7662C41.9775 41.565 41.7872 41.2783 41.6459 40.976C41.5137 41.0657 41.3617 41.1167 41.1874 41.1045C40.9971 41.0913 40.8363 41.0021 40.7085 40.8951C40.5807 40.7881 40.4665 40.6476 40.3633 40.4928L40.9456 40.1046C41.0282 40.2284 41.0998 40.3099 41.1577 40.3584C41.2026 40.396 41.2277 40.4043 41.2346 40.406C41.2402 40.4041 41.252 40.3984 41.2714 40.3829C41.3163 40.3468 41.383 40.2713 41.464 40.1272C41.6342 39.8245 41.8197 39.3075 42.0121 38.5071C42.203 37.7129 42.3956 36.6619 42.5892 35.3068C42.7836 33.9456 42.5748 32.8954 42.1709 32.0918C41.3632 30.4845 39.7252 29.7769 38.7003 29.6192L38.3519 29.5656L39.5951 21.8638L39.6978 21.7798C40.4615 21.1549 40.8277 20.3347 40.8504 19.6252C40.8731 18.9165 40.5608 18.351 39.9942 18.1155C39.4098 17.8725 38.4349 17.9284 37.0402 18.7582ZM42.1453 40.3351C42.2681 40.7152 42.4524 41.0491 42.6664 41.223C42.7765 41.3124 42.8823 41.3503 42.9912 41.3474C43.1038 41.3444 43.2652 41.2962 43.4796 41.1276C43.942 40.7639 44.5488 39.9204 45.2763 38.2575C45.6524 37.3977 45.8594 36.6753 45.9434 36.0686C46.0668 35.1777 45.9253 34.5392 45.6661 34.0712C45.4053 33.6001 45.0069 33.2687 44.5621 33.0261C44.1152 32.7823 43.6348 32.6354 43.2264 32.5278C43.1811 32.5159 43.135 32.504 43.0891 32.4923C43.3525 33.306 43.4441 34.2715 43.282 35.4058C43.0868 36.7726 42.8905 37.8471 42.6926 38.6707C42.5176 39.3986 42.3372 39.9487 42.1453 40.3351ZM42.743 31.6745C42.7756 31.6859 42.8182 31.6989 42.8731 31.7141C42.9514 31.7358 43.0344 31.7567 43.1296 31.7806C43.211 31.8011 43.3012 31.8238 43.4048 31.8511C43.8289 31.9628 44.3748 32.1267 44.8972 32.4116C45.4216 32.6977 45.9354 33.1127 46.2784 33.7321C46.5813 34.2793 46.737 34.9605 46.6749 35.806C47.4986 35.9186 48.519 36.225 49.2026 36.8579C49.6069 37.2322 49.8983 37.7265 49.9459 38.3535C49.9928 38.9729 49.7986 39.6789 49.3186 40.4787C48.5017 41.8403 47.57 42.661 46.6725 43.0514L46.7072 43.3174V43.3402C46.7072 44.6442 46.1033 46.2276 45.3863 47.6424C44.7001 48.9965 43.8848 50.245 43.307 51.0307C43.4355 51.8029 43.5704 53.5367 43.282 55.5556C43.1591 56.4157 42.3553 57.0313 41.382 57.4758C40.3801 57.9335 39.0633 58.2725 37.6725 58.5123C34.8906 58.9919 31.7205 59.0898 29.9707 58.8954C29.0354 58.7915 28.3569 58.421 27.8722 57.8543C27.3969 57.2988 27.1309 56.5814 26.9591 55.8208C26.7972 55.1039 26.7123 54.3141 26.6291 53.5401C26.6241 53.4931 26.619 53.4461 26.614 53.3992C26.5245 52.5705 26.4315 51.7622 26.2481 51.0288C25.864 49.4923 24.9243 44.6322 24.3151 40.4441C24.0109 38.3522 23.7862 36.4091 23.7571 35.1266C23.7498 34.8048 23.7546 34.5182 23.7748 34.2775C23.7944 34.0437 23.8303 33.8261 23.8992 33.6582C23.9561 33.5193 24.0933 33.2911 24.362 33.2697L24.3621 29.1094L31.303 23.3255C33.3988 20.6631 35.1994 19.0391 36.6824 18.1567C38.1629 17.2758 39.3835 17.1037 40.2628 17.4692C41.1599 17.8421 41.5795 18.7213 41.5499 19.6476C41.5215 20.5372 41.0857 21.5002 40.2442 22.2342L39.153 28.9947C40.2957 29.2607 41.8772 30.0473 42.743 31.6745ZM46.581 36.4995C46.4646 37.1025 46.2498 37.7785 45.9175 38.538C45.2388 40.0894 44.6219 41.0441 44.0549 41.5571C44.1 41.9354 44.3111 42.2412 44.6328 42.4279C45.001 42.6416 45.5416 42.712 46.1764 42.4941C46.9574 42.2259 47.8789 41.5179 48.7185 40.1187C49.151 39.3978 49.2806 38.8365 49.248 38.4064C49.2159 37.9839 49.0243 37.6466 48.7271 37.3714C48.1895 36.8737 47.3265 36.6013 46.581 36.4995Z" fill="#111111"/>
<path fill-rule="evenodd" clip-rule="evenodd" d="M37.1497 29.9924C36.5305 30.3171 35.9238 30.7581 35.5574 31.0633L35.1094 30.5257C35.5034 30.1973 36.1512 29.7258 36.8247 29.3726C37.1613 29.196 37.5153 29.0431 37.8546 28.9552C38.1882 28.8688 38.5456 28.8351 38.8657 28.9418L38.6444 29.6057C38.5083 29.5604 38.3049 29.5615 38.0302 29.6327C37.7612 29.7024 37.4595 29.8299 37.1497 29.9924Z" fill="#111111"/>
<path d="M45.5967 45.6221L40.6543 43.341L41.0345 40.6797H41.7949L42.9354 41.4401H43.6958L44.8363 42.9608H46.7373L45.5967 45.6221Z" fill="#111111"/>
<g clip-path="url(#clip0_2054_92924)">
<path d="M51.12 18.1333L62.9891 20.688L54.3519 27.779L6.86148 42.1696L3.88383 31.9535L51.12 18.1333Z" fill="#D2FF52"/>
<path fill-rule="evenodd" clip-rule="evenodd" d="M63.7716 20.4998L54.5202 28.0949L6.62463 42.6083L3.4502 31.7171L51.1071 17.7738L63.7716 20.4998ZM51.1333 18.4954L4.31776 32.1924L7.09861 41.7334L54.1839 27.4656L62.2069 20.8789L51.1333 18.4954Z" fill="black"/>
<path d="M51.1214 18.1327L51.1214 22.0513L52.0855 25.0928L54.3533 27.7784L6.86282 42.169L3.88518 31.9529L51.1214 18.1327Z" fill="#D2FF52"/>
<path fill-rule="evenodd" clip-rule="evenodd" d="M51.4712 17.6674L51.4712 21.9988L52.3979 24.9221L54.9637 27.9607L6.62573 42.6081L3.4513 31.7168L51.4712 17.6674ZM4.31886 32.1922L7.09971 41.7332L53.7426 27.5994L51.773 25.2668L50.7713 22.1071L50.7713 18.6014L4.31886 32.1922Z" fill="black"/>
<path d="M58.5022 19.7265L59.6618 23.4228L62.9896 20.6871L58.5022 19.7265Z" fill="black"/>
<path d="M52.0845 25.0878L54.352 27.7733L6.86153 42.1639L5.70166 38.7732L52.0845 25.0878Z" fill="black"/>
</g>
<path d="M28.4883 28.1355C28.4883 29.6562 28.7417 39.6678 28.8685 44.4834L39.1335 48.2856C41.0344 46.3847 41.4146 39.1611 39.5137 37.2602C37.6127 35.3593 34.5712 31.177 34.5712 28.5157C34.5712 25.8544 33.0505 22.0525 30.7694 22.4327C28.4883 22.8129 28.4883 26.2345 28.4883 28.1355Z" fill="#F2F2F2"/>
<path fill-rule="evenodd" clip-rule="evenodd" d="M33.218 24.4985C32.5676 23.2907 31.7301 22.6264 30.8272 22.7769C29.8987 22.9316 29.3878 23.6994 29.1132 24.7977C28.8404 25.8892 28.8385 27.1758 28.8385 28.1345C28.8385 29.6492 29.0918 39.6534 29.2186 44.4732L28.519 44.4916C28.3924 39.6801 28.1387 29.6613 28.1387 28.1345L28.1387 28.1175C28.1387 27.1758 28.1386 25.8104 28.4343 24.6279C28.73 23.4451 29.3597 22.3119 30.7122 22.0865C32.0904 21.8568 33.1539 22.9033 33.8342 24.1667C34.5283 25.4558 34.9215 27.1289 34.9215 28.5147C34.9215 29.7405 35.6339 31.3791 36.6277 32.9882C37.6119 34.5817 38.8308 36.0811 39.7614 37.0118C40.3093 37.5596 40.6599 38.4489 40.8665 39.4455C41.0756 40.4539 41.1476 41.6241 41.0992 42.7865C41.0508 43.9492 40.8812 45.1171 40.5994 46.1217C40.3206 47.1158 39.9201 47.9932 39.3812 48.532L38.8864 48.0371C39.298 47.6255 39.6578 46.8871 39.9255 45.9327C40.1903 44.9889 40.3534 43.8757 40.4 42.7573C40.4466 41.6386 40.3761 40.5276 40.1812 39.5876C39.9839 38.6357 39.6692 37.9093 39.2665 37.5066C38.2963 36.5364 37.044 34.9941 36.0322 33.356C35.03 31.7333 34.2216 29.9501 34.2216 28.5147C34.2216 27.2391 33.8545 25.6807 33.218 24.4985Z" fill="#111111"/>
<defs>
<clipPath id="clip0_2054_92924">
<rect width="50.4071" height="43.3501" fill="white" transform="translate(17.6465) rotate(24.0216)"/>
</clipPath>
</defs>
</svg>
