<svg width="52" height="50" viewBox="0 0 52 50" fill="none" xmlns="http://www.w3.org/2000/svg">
<path d="M10.9472 4.82507L10.9913 4.78111C11.7937 3.98109 13.21 2.92072 14.7187 2.10413C15.4737 1.69547 16.2558 1.34568 16.9995 1.12025C17.7412 0.89539 18.4554 0.790903 19.0699 0.883973C19.0699 0.883977 19.07 0.883981 19.07 0.883984L19.0475 1.03229C19.1648 1.04991 19.4891 1.20089 19.5737 1.27889L10.9472 4.82507ZM10.9472 4.82507V4.82794M10.9472 4.82507L11.0972 4.88734V4.88985M14.8028 9.46295C16.6368 8.68321 18.7581 7.25463 20.0761 5.78648L20.0761 5.78642C20.3362 5.4964 20.687 5.06701 20.9229 4.60643C21.1554 4.15268 21.2981 3.6255 21.0673 3.17007L21.0673 3.17004C21.0387 3.11369 20.9424 2.96502 20.822 2.78463C20.6983 2.5993 20.5413 2.36892 20.3838 2.14141C20.2264 1.91394 20.0681 1.68869 19.9419 1.51371C19.8789 1.42631 19.8234 1.35076 19.7798 1.2935C19.7415 1.24319 19.7023 1.19329 19.6754 1.16858L14.7442 9.32491M14.8028 9.46295L14.7442 9.32491M14.8028 9.46295C14.8029 9.46294 14.8029 9.46292 14.803 9.4629L14.7442 9.32491M14.8028 9.46295C14.3524 9.65492 13.6359 9.94087 12.925 10.0853C12.5694 10.1575 12.2085 10.1958 11.8791 10.1661C11.5497 10.1365 11.2407 10.0377 11.0037 9.82544L11.0036 9.8254C10.9411 9.7694 10.829 9.6298 10.7039 9.46549C10.5743 9.29529 10.4193 9.0831 10.2665 8.86876C9.96439 8.44486 9.66011 7.99742 9.58405 7.85388L9.58377 7.85334L9.58377 7.85334C9.53052 7.75185 9.46891 7.58907 9.45431 7.46529L9.45427 7.46491C9.42749 7.23279 9.48441 6.98156 9.58211 6.73575C9.68048 6.48823 9.82491 6.23449 9.98678 5.99283C10.2937 5.53461 10.6722 5.10671 10.9472 4.82794M14.7442 9.32491C13.8467 9.7074 11.9243 10.4485 11.1037 9.71369C10.9058 9.53629 9.85726 8.04912 9.7166 7.78365C9.66841 7.6918 9.615 7.54711 9.60328 7.44772C9.51211 6.65759 10.5515 5.43338 11.0972 4.88985M10.9472 4.82794V4.88734V4.88985H11.0972M10.9472 4.82794C10.9623 4.8127 10.977 4.7979 10.9914 4.78357L11.0947 4.88734L11.0972 4.88985M19.8667 2.49015C19.9043 2.5423 19.9433 2.59366 19.9823 2.64415C20.0113 2.68152 20.0401 2.71824 20.0686 2.75461C20.143 2.8495 20.2156 2.94203 20.2833 3.03748C20.4712 3.30236 20.5887 3.54666 20.5579 3.80385L20.5579 3.80407C20.5296 4.04402 20.4077 4.32021 20.214 4.61658C20.0216 4.91098 19.7657 5.21447 19.4833 5.50749C19.056 5.95094 18.5746 6.36381 18.1771 6.67689C18.2003 6.41848 18.1339 6.17777 17.9931 5.97685C17.8322 5.74726 17.582 5.5807 17.2817 5.49686C18.2893 4.65891 19.34 3.73011 19.8667 2.49015ZM18.4911 1.44521L18.4911 1.44521C18.8542 1.43642 19.067 1.50009 19.1854 1.58611C19.2947 1.66553 19.3424 1.7781 19.3405 1.93049C19.3386 2.08946 19.2813 2.28238 19.184 2.49106C19.0877 2.69761 18.9573 2.90865 18.821 3.10075L18.8209 3.10083C18.1828 4.00147 16.9972 5.01591 15.6833 5.87282C14.3701 6.72934 12.9488 7.41538 11.8499 7.67154C11.3525 7.78746 10.9623 7.82659 10.6753 7.80169C10.3857 7.77656 10.2285 7.68936 10.1539 7.58187C10.0802 7.47577 10.057 7.30623 10.1392 7.04382C10.221 6.78297 10.3998 6.45627 10.6865 6.06719C11.3455 5.17347 12.7181 4.02889 14.2278 3.09868C14.9806 2.63481 15.7628 2.22722 16.5007 1.93254C17.2406 1.63708 17.927 1.45875 18.4911 1.44521Z" fill="black" stroke="black" stroke-width="0.3"/>
<path d="M18.4877 1.29773C19.996 1.26124 19.5023 2.40366 18.9436 3.19002C17.6346 5.03576 14.1296 7.2967 11.8841 7.8201C9.86531 8.29065 9.40033 7.56217 10.566 5.98065C11.9167 4.14875 16.1302 1.35435 18.4877 1.29773Z" fill="#F5F5F5"/>
<path d="M44.1271 36.1149L31.6521 29.9281L31.4751 29.9845L30.1276 31.9139C28.7865 30.9442 27.2852 30.1523 25.671 29.7013C23.8003 29.1788 21.0527 28.917 19.3296 29.9569C19.186 30.0433 18.8424 30.2025 18.9001 30.3616C20.2617 32.3324 22.4221 33.787 24.694 34.6027C26.6043 35.288 29.9392 35.7842 31.5405 34.2456C31.6918 34.1003 32.0072 33.5653 32.0816 33.5189C32.1316 33.4876 32.1713 33.4763 32.2277 33.5001L44.19 39.5467L44.163 39.8148C42.8001 42.0049 42.0514 44.6936 39.9974 46.3938C37.2985 48.629 33.3099 49.075 29.9033 48.9009L33.0432 44.6711C33.106 44.5144 32.6239 44.5771 32.5444 44.5909L29.3891 48.8056C29.1532 48.9096 28.0916 48.7468 27.7647 48.7029C21.4041 47.8497 15.1947 44.8941 10.3624 40.8509L13.2074 36.9343L12.9395 36.6888L10.0303 40.5051C9.93673 40.5302 9.92391 40.4801 9.87006 40.4437C9.54184 40.222 8.74436 39.4164 8.42767 39.0969C4.79157 35.4471 1.45292 29.9719 3.90562 24.845C4.53899 23.5207 5.37622 21.9483 6.10831 20.6703C9.31875 15.0611 17.1948 15.1538 22.84 16.433C23.9003 16.6736 24.9363 17.0194 25.9851 17.2599L31.3559 7.0625L31.5226 7.06626C36.5318 9.63347 41.2924 13.1341 44.5708 17.6872C47.0286 21.0988 48.8774 25.479 47.4209 29.6575C46.4645 31.8738 45.5449 33.3205 44.5 35.498L44.1271 36.1149ZM28.3686 21.0199L46.8286 30.2075C47.0068 30.096 47.3966 28.7065 47.4504 28.4296C48.6133 22.4557 43.7207 16.2714 39.3923 12.5978C37.0165 10.5819 34.3625 8.89175 31.588 7.44213L31.4444 7.43211L26.6441 16.6234C26.5979 16.8991 27.0057 17.1234 27.18 17.3276C28.0442 18.3412 28.725 19.678 28.3686 21.0186V21.0199ZM25.3504 25.2222C25.2773 24.4115 24.8466 23.6698 24.3517 23.0358C24.1952 22.8354 23.5734 22.2565 23.5234 22.1513C23.5003 22.1024 23.4798 22.0573 23.4914 22.0022L25.7338 17.6157C24.9055 17.2599 23.9273 17.0144 23.0324 16.8089C18.3077 15.7188 12.7113 15.467 8.55589 18.271L8.62256 18.4226L18.877 25.5692C20.8412 24.3301 23.2106 24.6533 25.3504 25.2222ZM18.6193 25.7246L8.31485 18.5905C8.23535 18.5604 8.19433 18.6018 8.13535 18.6406C7.88918 18.8023 7.2494 19.5202 7.05324 19.777C3.47867 24.4566 7.38018 30.9505 10.9253 34.4636L13.0241 36.3643L20.3501 32.5504C20.3758 32.459 20.3245 32.4464 20.2873 32.3938C20.0976 32.1244 19.636 31.7937 19.3898 31.5168C18.0039 29.9531 16.8974 27.5626 18.6167 25.8148L18.6193 25.7246ZM46.6298 30.4906L28.2673 21.283L25.5427 26.3886L25.5504 26.4976L43.8579 35.7403L43.9976 35.6464C44.4413 34.738 44.9605 33.8672 45.4272 32.9714C45.7747 32.3048 46.3324 31.3852 46.5837 30.7187C46.6119 30.6447 46.6568 30.5746 46.6298 30.4906ZM32.5316 44.2037L28.8352 35.5699C26.2748 35.6727 23.717 34.7944 21.613 33.4187C21.4143 33.2884 20.7989 32.7446 20.6399 32.7446L13.3639 36.5635C13.3459 36.6512 13.351 36.6437 13.4049 36.6925C13.7652 37.0271 14.4242 37.4743 14.8447 37.7763C19.8847 41.3947 26.2415 43.8993 32.5316 44.2037ZM43.8117 39.6344L32.2418 33.876C31.5687 34.8633 30.4635 35.3933 29.2622 35.4973L32.9752 44.2401C36.5972 44.3202 40.9423 43.5522 43.2643 40.5665C43.3668 40.435 43.8874 39.7409 43.8117 39.6356V39.6344Z" fill="black" stroke="black" stroke-width="0.3" stroke-miterlimit="10"/>
<path d="M28.3687 21.0228C28.7238 19.6809 28.0443 18.3453 27.1802 17.3317C27.0058 17.1275 26.5981 16.9032 26.6442 16.6276L31.4445 7.4375L31.5881 7.44752C34.3613 8.89589 37.0153 10.5861 39.3924 12.6032C43.7209 16.2768 48.6134 22.4611 47.4506 28.435C47.3967 28.7106 47.0069 30.1014 46.8287 30.2129L28.3687 21.0253V21.0228Z" fill="#D2FF52" stroke="black" stroke-width="0.5" stroke-miterlimit="10"/>
<path d="M18.619 25.7225L18.6164 25.8127C16.8971 27.5605 18.0048 29.9511 19.3895 31.5147C19.6357 31.7916 20.0973 32.1224 20.287 32.3918C20.3242 32.4444 20.3742 32.4569 20.3498 32.5484L13.0238 36.3622L10.9249 34.4616C7.37986 30.9484 3.47836 24.4546 7.05292 19.775C7.24909 19.5181 7.88886 18.8002 8.13503 18.6386C8.19401 18.5997 8.23504 18.5584 8.31453 18.5885L18.619 25.7225Z" fill="white" stroke="black" stroke-width="0.5" stroke-miterlimit="10"/>
<path d="M46.6301 30.4889C46.6583 30.5728 46.6121 30.643 46.5839 30.7169C46.3339 31.3835 45.7749 32.3043 45.4274 32.9696C44.9607 33.8655 44.4402 34.7362 43.9979 35.6446L43.8581 35.7386L25.5507 26.4959L25.543 26.3869L28.2675 21.2812L46.6301 30.4889Z" fill="white" stroke="black" stroke-width="0.5" stroke-miterlimit="10"/>
<path d="M32.5325 44.2091C26.2437 43.9046 19.8857 41.4001 14.8456 37.7817C14.4251 37.4797 13.7661 37.0324 13.4058 36.6979C13.352 36.6478 13.3468 36.6566 13.3648 36.5689L20.6408 32.75C20.7998 32.75 21.4152 33.2938 21.614 33.4241C23.7179 34.7998 26.2758 35.678 28.8362 35.5753L32.5325 44.2091Z" fill="white" stroke="black" stroke-width="0.5" stroke-miterlimit="10"/>
<path d="M25.3492 25.2263C23.2094 24.6574 20.8387 24.3342 18.8758 25.5733L8.62136 18.4267L8.55469 18.2751C12.7101 15.4711 18.3065 15.7217 23.0312 16.813C23.9261 17.0197 24.9043 17.264 25.7326 17.6199L23.4902 22.0063C23.4799 22.0614 23.4991 22.1065 23.5222 22.1554C23.5722 22.2606 24.194 22.8395 24.3505 23.0399C24.8454 23.6739 25.2762 24.4156 25.3492 25.2263Z" fill="white" stroke="black" stroke-width="0.5" stroke-miterlimit="10"/>
<path d="M43.8113 39.6346C43.8869 39.7399 43.3651 40.4352 43.2638 40.5655C40.9406 43.5525 36.5968 44.3205 32.9747 44.2391L29.2617 35.4963C30.4631 35.391 31.5683 34.8623 32.2414 33.875L43.8113 39.6334V39.6346Z" fill="white"/>
</svg>
