<svg width="44" height="34" viewBox="0 0 44 34" fill="none" xmlns="http://www.w3.org/2000/svg">
<g clip-path="url(#clip0_2054_93117)">
<path d="M5.42982 26.8836C6.2238 26.8836 6.86745 26.2416 6.86745 25.4496C6.86745 24.6576 6.2238 24.0156 5.42982 24.0156C4.63584 24.0156 3.99219 24.6576 3.99219 25.4496C3.99219 26.2416 4.63584 26.8836 5.42982 26.8836Z" stroke="black" stroke-width="0.87037" stroke-miterlimit="10"/>
<path d="M1.11858 5.53125H42.0112C42.5416 5.53125 42.9697 5.95826 42.9697 6.48725V11.9046H0.160156V6.48725C0.160156 5.95826 0.588251 5.53125 1.11858 5.53125Z" stroke="black" stroke-width="0.7" stroke-miterlimit="10"/>
<path d="M0.160156 29.1094H42.9697V31.34C42.9697 31.869 42.5416 32.296 42.0112 32.296H1.11858C0.588251 32.296 0.160156 31.869 0.160156 31.34V29.1094Z" stroke="black" stroke-width="0.7" stroke-miterlimit="10"/>
<path d="M42.9697 11.8984H0.160156V29.1064H42.9697V11.8984Z" fill="#F5F5F5" stroke="black" stroke-width="0.7" stroke-miterlimit="10"/>
<path d="M3.35463 2.98438H10.3831C10.5588 2.98438 10.7025 3.12777 10.7025 3.30304V5.53371H3.03516V3.30304C3.03516 3.12777 3.17892 2.98438 3.35463 2.98438Z" fill="#D2FF52" stroke="black" stroke-width="0.7" stroke-miterlimit="10"/>
<path d="M25.1855 31.8301C31.3609 31.8301 36.3671 26.8366 36.3671 20.6768C36.3671 14.5169 31.3609 9.52344 25.1855 9.52344C19.0101 9.52344 14.0039 14.5169 14.0039 20.6768C14.0039 26.8366 19.0101 31.8301 25.1855 31.8301Z" fill="black" stroke="black" stroke-width="0.87037" stroke-miterlimit="10"/>
<path d="M36.2611 5.53H17.4121L19.8784 0.918893C19.9328 0.813733 20.0414 0.75 20.1596 0.75H33.5136C33.6318 0.75 33.7404 0.813733 33.7947 0.918893L36.2611 5.53Z" stroke="black" stroke-width="0.7" stroke-miterlimit="10"/>
<path d="M21.8454 0.84375L19.3249 5.60474L17.6445 5.32468L19.885 0.84375H21.8454Z" fill="black"/>
<path d="M26.3574 31.3379C32.5328 31.3379 37.539 26.3444 37.539 20.1846C37.539 14.0248 32.5328 9.03125 26.3574 9.03125C20.1819 9.03125 15.1758 14.0248 15.1758 20.1846C15.1758 26.3444 20.1819 31.3379 26.3574 31.3379Z" fill="#F5F5F5" stroke="black" stroke-width="0.7" stroke-miterlimit="10"/>
<path d="M26.1967 27.835C30.4312 27.835 33.864 24.4109 33.864 20.1871C33.864 15.9632 30.4312 12.5391 26.1967 12.5391C21.9621 12.5391 18.5293 15.9632 18.5293 20.1871C18.5293 24.4109 21.9621 27.835 26.1967 27.835Z" fill="#111111" stroke="#111111" stroke-width="0.87037" stroke-miterlimit="10"/>
<path d="M28.5658 21.8464C30.4218 21.8464 31.9265 20.3418 31.9265 18.4857C31.9265 16.6296 30.4218 15.125 28.5658 15.125C26.7097 15.125 25.2051 16.6296 25.2051 18.4857C25.2051 20.3418 26.7097 21.8464 28.5658 21.8464Z" fill="#D2FF52" stroke="black" stroke-width="1.74074" stroke-miterlimit="10"/>
</g>
<defs>
<clipPath id="clip0_2054_93117">
<rect width="43.129" height="33.0469" fill="white"/>
</clipPath>
</defs>
</svg>
