<svg width="45" height="43" viewBox="0 0 45 43" fill="none" xmlns="http://www.w3.org/2000/svg">
<g clip-path="url(#clip0_2054_92975)">
<path d="M16.3422 16.8438L1.04209 27.2165C0.824878 27.3642 0.695312 27.6157 0.695312 27.8872V31.796C0.695312 32.1353 0.901093 32.4388 1.20595 32.5506L28.3042 42.3963L43.7568 32.2152L43.9511 26.4858L16.3422 16.8438Z" fill="#F5F5F5" stroke="black" stroke-width="0.7" stroke-miterlimit="10"/>
<path d="M43.9516 32.2743V26.8906L29.0211 36.2748C28.5753 36.5663 28.3047 37.0774 28.3047 37.6283L28.6363 42.0965L43.9516 32.2743Z" fill="#F5F5F5" stroke="black" stroke-width="0.5" stroke-miterlimit="10"/>
<path d="M2.60156 28.2188L26.2282 36.6032" stroke="black" stroke-width="0.5" stroke-miterlimit="10"/>
<path d="M16.8513 10.9922L3.06646 20.3365C2.93731 20.4243 2.864 20.5816 2.88146 20.7425L3.24449 24.6009C3.25845 24.7691 3.36666 24.9081 3.51676 24.9666L27.5573 33.8502L41.5515 24.7947V19.6197L16.8513 10.9922Z" fill="black" stroke="black" stroke-width="0.7" stroke-miterlimit="10"/>
<path d="M41.5528 24.2238V19.9844L27.7506 28.6646C27.6319 28.7451 27.5586 28.8804 27.5586 29.0303V33.0753C27.5586 33.4117 27.9112 33.6202 28.1869 33.441L41.5563 24.7915L41.5528 24.2238Z" fill="#F5F5F5" stroke="black" stroke-width="0.7" stroke-miterlimit="10"/>
<path d="M17.1942 3.3125L3.17898 12.8141C2.98001 12.9494 2.86133 13.1798 2.86133 13.4285V17.009C2.86133 17.3199 3.04983 17.5978 3.32908 17.7002L28.1515 26.7191L42.3063 17.393L42.4844 12.1448L17.1942 3.3125Z" fill="#F5F5F5" stroke="black" stroke-width="0.7" stroke-miterlimit="10"/>
<path d="M42.4852 17.448V12.4219L28.8086 21.1126C28.4002 21.3796 28.1523 21.8477 28.1523 22.3524V26.7229L42.4852 17.448Z" fill="#F5F5F5" stroke="black" stroke-width="0.5" stroke-miterlimit="10"/>
<path d="M4.60547 13.7344L26.2479 21.4147" stroke="black" stroke-width="0.5" stroke-miterlimit="10"/>
<path d="M19.2674 0.203125L7.57698 8.12844C7.46877 8.20159 7.40593 8.33325 7.4199 8.47222L7.72708 11.7455C7.74104 11.8881 7.8318 12.0088 7.95747 12.0564L28.3432 19.5903L40.2116 11.9101V7.52133L19.2674 0.203125Z" fill="#D2FF52" stroke="black" stroke-width="0.7" stroke-miterlimit="10"/>
<path d="M40.2122 11.9065V7.875L28.5078 15.1907C28.4066 15.2566 28.3438 15.3736 28.3438 15.5016V18.9321C28.3438 19.2174 28.644 19.3929 28.8778 19.243L40.2122 11.9065Z" fill="#F5F5F5" stroke="black" stroke-width="0.5" stroke-miterlimit="10"/>
<path d="M8.76562 8.48438L26.8825 14.8435" stroke="black" stroke-width="0.5" stroke-miterlimit="10"/>
</g>
<defs>
<clipPath id="clip0_2054_92975">
<rect width="45" height="43" fill="white"/>
</clipPath>
</defs>
</svg>
