<svg width="62" height="41" viewBox="0 0 62 41" fill="none" xmlns="http://www.w3.org/2000/svg">
<g clip-path="url(#clip0_2054_93165)">
<path d="M31.4493 25.2752L1.58984 13.2526L31.4493 1.23438L60.4306 13.2526L31.4493 25.2752Z" fill="#F5F5F5" stroke="black" stroke-width="0.7" stroke-miterlimit="10"/>
<path d="M31.4493 32.744L1.58984 20.7214L31.4493 8.70312L60.4306 20.7214L31.4493 32.744Z" fill="black" stroke="black" stroke-width="0.7" stroke-miterlimit="10"/>
<path d="M31.4493 39.7596L1.58984 27.737L31.4493 15.7188L60.4306 27.737L31.4493 39.7596Z" fill="#F5F5F5" stroke="black" stroke-width="0.7" stroke-miterlimit="10"/>
<path d="M50.281 19.0841L50.2808 19.0843L50.281 19.0841ZM45.3804 15.2C45.2607 14.8315 44.7393 14.8315 44.6196 15.2L43.435 18.8459H39.6014C39.2139 18.8459 39.0528 19.3417 39.3663 19.5695L42.4677 21.8228L41.2831 25.4687C41.1633 25.8372 41.5851 26.1437 41.8986 25.9159L45 23.6626L48.1014 25.9159C48.4149 26.1437 48.8367 25.8372 48.7169 25.4687L47.5323 21.8228L50.6337 19.5695C50.9472 19.3417 50.7861 18.8459 50.3986 18.8459H46.565L45.3804 15.2Z" fill="#D2FF52" stroke="black" stroke-width="0.6"/>
</g>
<defs>
<clipPath id="clip0_2054_93165">
<rect width="60" height="41" fill="white" transform="translate(1)"/>
</clipPath>
</defs>
</svg>
