<svg width="324" height="57" viewBox="0 0 324 57" fill="none" xmlns="http://www.w3.org/2000/svg">
<path d="M135.682 12.5312H140.131V13.0705C139.502 13.2502 139.052 13.6547 138.783 14.2838C138.543 14.8829 138.423 15.9164 138.423 17.3844C138.423 33.9508 138.423 42.234 138.423 42.234H137.884L118.247 17.0249L118.202 36.8417C118.202 38.5493 118.322 39.7326 118.561 40.3916C118.831 41.0507 119.28 41.4851 119.909 41.6948V42.234H115.82V41.6948C116.479 41.4851 116.929 41.0507 117.168 40.3916C117.408 39.7326 117.528 38.5493 117.528 36.8417V17.2046C117.528 15.8266 117.393 14.838 117.123 14.2388C116.854 13.6397 116.419 13.2502 115.82 13.0705V12.5312H119.46L137.704 36.1227V17.4742C137.704 14.9278 137.03 13.4599 135.682 13.0705V12.5312Z" fill="#111111"/>
<path d="M107.281 28.2139H114.156V28.7531C113.527 28.9329 113.093 29.3373 112.853 29.9664C112.613 30.5655 112.478 31.614 112.448 33.1119L112.538 42.2339H111.909C111.879 42.174 111.834 42.0842 111.774 41.9643C111.744 41.8145 111.67 41.5899 111.55 41.2903C111.43 40.9608 111.295 40.6762 111.145 40.4365C110.996 40.1968 110.801 39.9722 110.561 39.7625C110.322 39.5528 110.082 39.4479 109.842 39.4479C109.513 39.4479 109.063 39.6127 108.494 39.9422C107.955 40.2717 107.371 40.6462 106.742 41.0656C106.113 41.485 105.199 41.8595 104.001 42.189C102.802 42.5185 101.499 42.6833 100.091 42.6833C97.2152 42.6833 94.5489 42.0991 92.0924 40.9308C89.6659 39.7625 87.6887 38.0249 86.1609 35.7182C84.663 33.4115 83.9141 30.7752 83.9141 27.8095C83.9141 25.6226 84.3484 23.5555 85.2172 21.6083C86.086 19.661 87.1944 18.0284 88.5425 16.7102C89.9205 15.3622 91.4334 14.2837 93.081 13.4748C94.7586 12.636 96.4213 12.1567 98.0689 12.0369C103.371 11.6474 107.071 12.7559 109.168 15.3622C109.797 16.2309 109.917 17.0098 109.528 17.6988C109.168 18.3878 108.599 18.7324 107.82 18.7324C107.341 18.7324 106.876 18.5376 106.427 18.1482C106.008 17.7288 105.588 17.2345 105.169 16.6653C104.779 16.0662 104.345 15.482 103.866 14.9128C103.386 14.3436 102.757 13.8643 101.978 13.4748C101.229 13.0554 100.391 12.8457 99.462 12.8457C95.9569 12.8457 93.081 13.9991 90.8342 16.3058C88.5874 18.5826 87.464 21.818 87.464 26.012C87.464 28.0192 87.7636 29.9514 88.3627 31.8088C88.9918 33.6661 89.8606 35.3288 90.969 36.7967C92.0775 38.2646 93.5004 39.4479 95.238 40.3466C97.0054 41.2154 98.9677 41.6498 101.125 41.6498C102.203 41.6498 103.252 41.485 104.27 41.1555C105.319 40.796 106.157 40.3766 106.787 39.8973C107.446 39.4179 107.955 38.9985 108.314 38.6391C108.704 38.2496 108.943 37.965 109.033 37.7853L108.988 33.6062C108.988 31.8687 108.869 30.6704 108.629 30.0113C108.389 29.3523 107.94 28.9329 107.281 28.7531V28.2139Z" fill="#111111"/>
<path d="M81.8908 13.0705C81.2617 13.2502 80.8124 13.6547 80.5428 14.2838C80.3031 14.8829 80.1833 15.9164 80.1833 17.3844V36.8417C80.1833 38.5493 80.3031 39.7326 80.5428 40.3916C80.7824 41.0507 81.2318 41.4851 81.8908 41.6948V42.234H75.0156V41.6948C75.6747 41.4851 76.124 41.0507 76.3637 40.3916C76.6034 39.7326 76.7232 38.5493 76.7232 36.8417V17.2046C76.7232 15.8266 76.5884 14.838 76.3188 14.2388C76.0492 13.6397 75.6148 13.2502 75.0156 13.0705V12.5312H81.8908V13.0705Z" fill="#111111"/>
<path d="M63.9131 25.6097C65.1114 26.0591 66.0401 26.4335 66.6992 26.7331C67.3882 27.0327 68.197 27.4521 69.1257 27.9913C70.0544 28.5306 70.7584 29.0698 71.2377 29.609C71.717 30.1183 72.1364 30.7774 72.4959 31.5862C72.8554 32.3651 73.0352 33.2189 73.0352 34.1476C73.0352 36.694 72.0466 38.761 70.0694 40.3488C68.0922 41.9065 65.7705 42.6854 63.1043 42.6854C61.6364 42.6854 60.0786 42.3859 58.4309 41.7867C56.7833 41.1876 55.3902 40.4536 54.2519 39.5848C53.1434 38.7161 52.5293 37.8773 52.4095 37.0684C52.2897 36.4393 52.4245 35.93 52.8139 35.5406C53.2034 35.1511 53.6677 34.9714 54.2069 35.0014C54.7761 35.0014 55.2405 35.1961 55.5999 35.5855C55.7497 35.7353 56.0942 36.2146 56.6335 37.0235C57.2027 37.8024 57.7419 38.5213 58.2512 39.1804C58.7904 39.8395 59.5393 40.4686 60.498 41.0677C61.4566 41.6369 62.4602 41.9215 63.5087 41.9215C65.2762 41.9215 66.849 41.3973 68.227 40.3488C69.605 39.2703 70.2941 37.9072 70.2941 36.2596C70.2941 35.6005 70.1742 34.9864 69.9346 34.4172C69.7249 33.818 69.3654 33.2788 68.8561 32.7995C68.3768 32.3202 67.9124 31.9008 67.4631 31.5413C67.0137 31.1818 66.3996 30.8073 65.6207 30.4179C64.8418 30.0284 64.2277 29.7438 63.7783 29.5641C63.329 29.3544 62.6998 29.0848 61.891 28.7552C61.7113 28.6953 61.5764 28.6504 61.4866 28.6204C60.0786 28.0512 58.9402 27.542 58.0714 27.0926C57.2027 26.6432 56.3639 26.104 55.555 25.4749C54.7761 24.8158 54.2069 24.0669 53.8474 23.2281C53.4879 22.3893 53.3082 21.4307 53.3082 20.3522C53.3082 17.8657 54.2519 15.8885 56.1392 14.4206C58.0265 12.9527 60.5429 12.2188 63.6884 12.2188C64.8568 12.2188 66.2049 12.4135 67.7327 12.8029C69.2905 13.1624 70.4588 13.7016 71.2377 14.4206C71.8069 14.8999 71.8818 15.4541 71.4624 16.0833C71.0729 16.6824 70.4738 16.8621 69.6649 16.6225C69.3654 16.5326 68.946 16.278 68.4067 15.8586C67.8975 15.4392 67.3882 15.0198 66.8789 14.6004C66.3696 14.151 65.6956 13.7616 64.8568 13.432C64.018 13.0725 63.1642 12.8928 62.2954 12.8928C60.468 12.8928 58.9552 13.4021 57.7569 14.4206C56.5586 15.4092 55.9594 16.7723 55.9594 18.5098C55.9594 19.2288 56.1092 19.9178 56.4088 20.5769C56.7383 21.206 57.1128 21.7302 57.5322 22.1496C57.9516 22.569 58.5507 23.0184 59.3296 23.4977C60.1385 23.9471 60.7826 24.2766 61.2619 24.4863C61.7712 24.696 62.5051 24.9956 63.4638 25.385C63.6735 25.4749 63.8233 25.5498 63.9131 25.6097Z" fill="#111111"/>
<path d="M29.3281 41.6948C29.9872 41.4851 30.4365 41.0507 30.6762 40.3916C30.9159 39.7326 31.0357 38.5493 31.0357 36.8417V17.9236C31.0357 16.216 30.9159 15.0327 30.6762 14.3736C30.4365 13.6846 29.9872 13.2502 29.3281 13.0705V12.5312H49.0551L49.5494 18.0135L49.0551 18.1483C48.3361 16.3209 47.3175 15.0327 45.9994 14.2838C44.7113 13.5348 42.9587 13.1604 40.7419 13.1604C39.9031 13.1604 38.9594 13.1604 37.9109 13.1604C36.8924 13.1604 36.0685 13.1454 35.4394 13.1154H34.4958V26.0121H39.933C42.2398 26.0121 43.8425 25.7874 44.7412 25.338C45.6699 24.8887 46.269 24.1547 46.5387 23.1362H47.033V29.5171H46.5387C46.269 28.4985 45.6699 27.7646 44.7412 27.3152C43.8425 26.8659 42.2398 26.6412 39.933 26.6412H34.4958V39.6727C34.4958 40.9608 35.1399 41.6049 36.428 41.6049H41.9552C44.0821 41.6049 45.7897 41.2304 47.0779 40.4815C48.3661 39.7326 49.3846 38.3995 50.1335 36.4822L50.5829 36.5721L50.2683 42.234H29.3281V41.6948Z" fill="#111111"/>
<path d="M0.804688 41.6948C1.46375 41.4851 1.91311 41.0507 2.15277 40.3916C2.39243 39.7326 2.51226 38.5493 2.51226 36.8417V17.9236C2.51226 16.216 2.39243 15.0327 2.15277 14.3736C1.91311 13.6846 1.46375 13.2502 0.804688 13.0705V12.5312H10.9602C13.2071 12.5312 15.2591 12.8308 17.1165 13.43C18.9739 13.9992 20.5167 14.7781 21.7449 15.7667C22.9732 16.7253 24.0067 17.8637 24.8455 19.1818C25.6843 20.47 26.2835 21.8031 26.6429 23.1811C27.0324 24.5292 27.2421 25.9072 27.2721 27.3152C27.2721 31.8088 25.879 35.4187 23.093 38.1448C20.307 40.871 16.5922 42.234 11.9488 42.234H0.804688V41.6948ZM5.97234 38.5043C5.97234 39.5828 6.15208 40.3767 6.51157 40.8859C6.90102 41.3653 7.64995 41.6049 8.75838 41.6049H11.859C15.5437 41.6049 18.3897 40.3467 20.3968 37.8303C22.404 35.3139 23.4075 31.8088 23.4075 27.3152C23.4075 25.2781 23.0481 23.3758 22.3291 21.6083C21.6401 19.8109 20.7114 18.313 19.543 17.1147C18.4047 15.9164 17.0716 14.9878 15.5437 14.3287C14.0159 13.6397 12.4431 13.2952 10.8254 13.2952H5.97234V38.5043Z" fill="#111111"/>
<path d="M296.961 41.7026C297.62 41.4929 298.069 41.0585 298.309 40.3995C298.549 39.7404 298.669 38.5571 298.669 36.8495V17.9314C298.669 16.2238 298.549 15.0405 298.309 14.3814C298.069 13.6924 297.62 13.258 296.961 13.0783V12.5391H307.116C309.363 12.5391 311.415 12.8386 313.273 13.4378C315.13 14.007 316.673 14.7859 317.901 15.7745C319.129 16.7331 320.163 17.8715 321.002 19.1896C321.841 20.4778 322.44 21.8109 322.799 23.1889C323.189 24.537 323.398 25.915 323.428 27.323C323.428 31.8167 322.035 35.4265 319.249 38.1526C316.463 40.8788 312.748 42.2418 308.105 42.2418H296.961V41.7026ZM302.129 38.5121C302.129 39.5906 302.308 40.3845 302.668 40.8937C303.057 41.3731 303.806 41.6127 304.915 41.6127H308.015C311.7 41.6127 314.546 40.3545 316.553 37.8381C318.56 35.3217 319.564 31.8167 319.564 27.323C319.564 25.2859 319.204 23.3836 318.485 21.6162C317.796 19.8187 316.868 18.3208 315.699 17.1225C314.561 15.9243 313.228 14.9956 311.7 14.3365C310.172 13.6475 308.599 13.303 306.982 13.303H302.129V38.5121Z" fill="#111111"/>
<path d="M290.409 12.5391H294.857V13.0783C294.228 13.258 293.779 13.6625 293.509 14.2916C293.27 14.8907 293.15 15.9243 293.15 17.3922C293.15 33.9586 293.15 42.2418 293.15 42.2418H292.611L272.973 17.0327L272.928 36.8495C272.928 38.5571 273.048 39.7404 273.288 40.3995C273.558 41.0585 274.007 41.4929 274.636 41.7026V42.2418H270.547V41.7026C271.206 41.4929 271.655 41.0585 271.895 40.3995C272.135 39.7404 272.254 38.5571 272.254 36.8495V17.2124C272.254 15.8344 272.12 14.8458 271.85 14.2466C271.58 13.6475 271.146 13.258 270.547 13.0783V12.5391H274.187L292.431 36.1305V17.482C292.431 14.9357 291.757 13.4677 290.409 13.0783V12.5391Z" fill="#111111"/>
<path d="M266.574 37.4317C267.173 38.8697 267.698 39.8882 268.147 40.4874C268.596 41.0566 269.091 41.461 269.63 41.7007V42.2399H263.024V41.7007C263.444 41.6108 263.713 41.2513 263.833 40.6222C263.983 39.9631 263.923 39.2741 263.653 38.5551L260.778 31.0508H248.465C247.087 34.436 246.173 36.6978 245.724 37.8362C245.364 38.7349 245.185 39.4688 245.185 40.038C245.185 40.5773 245.29 40.9667 245.499 41.2064C245.709 41.4161 246.038 41.5808 246.488 41.7007V42.2399H241.68V41.7007C242.399 41.461 242.998 41.0865 243.477 40.5773C243.986 40.068 244.526 39.0794 245.095 37.6115L254.082 14.3346L253.588 13.0314V12.4922H256.778C262.051 26.003 265.316 34.3162 266.574 37.4317ZM248.735 30.3768H260.508L254.442 15.1434L248.735 30.3768Z" fill="#111111"/>
<path d="M240.916 41.5658C240.976 41.5658 241.051 41.5658 241.14 41.5658C241.23 41.5658 241.305 41.5658 241.365 41.5658C241.425 41.5658 241.455 41.5658 241.455 41.5658V42.195C241.126 42.195 240.541 42.2099 239.703 42.2399C238.894 42.2399 238.339 42.2399 238.04 42.2399C237.65 42.2399 237.276 42.165 236.917 42.0152C236.557 41.8654 236.257 41.7007 236.018 41.5209C235.808 41.3412 235.553 41.0416 235.254 40.6222C234.984 40.2028 234.775 39.8882 234.625 39.6785C234.505 39.4389 234.295 39.0195 233.996 38.4203C233.726 37.8212 233.531 37.4167 233.411 37.207C233.352 37.0573 233.127 36.563 232.737 35.7242C232.378 34.8853 231.944 33.9417 231.434 32.8932C230.955 31.8147 230.506 30.886 230.086 30.1071C230.056 30.0472 229.996 29.9424 229.906 29.7926C229.457 28.9837 229.113 28.4295 228.873 28.13C228.663 27.8004 228.364 27.5158 227.974 27.2762C227.585 27.0365 227.09 26.9167 226.491 26.9167C225.862 26.9167 225.173 26.9167 224.424 26.9167C223.675 26.9167 223.091 26.9167 222.672 26.9167H222.043V36.8476C222.043 38.5851 222.162 39.7834 222.402 40.4424C222.642 41.0716 223.091 41.491 223.75 41.7007V42.2399H216.875V41.7007C217.534 41.491 217.983 41.0716 218.223 40.4424C218.463 39.7834 218.583 38.5851 218.583 36.8476V17.9295C218.583 16.1919 218.463 14.9936 218.223 14.3346C217.983 13.6755 217.534 13.2561 216.875 13.0764V12.5371C221.608 12.5072 224.364 12.4922 225.143 12.4922C232.663 12.4922 236.422 14.9187 236.422 19.7718C236.422 23.3967 234.115 25.6585 229.502 26.5572C230.491 26.707 231.359 27.1114 232.108 27.7705C232.887 28.4295 233.606 29.4481 234.265 30.8261C234.535 31.3953 234.879 32.1742 235.299 33.1628C235.748 34.1514 236.048 34.7805 236.198 35.0501C236.467 35.5594 236.767 36.1436 237.096 36.8026C237.426 37.4617 237.68 37.971 237.86 38.3304C238.04 38.66 238.25 39.0344 238.489 39.4539C238.729 39.8733 238.924 40.1878 239.073 40.3975C239.253 40.6072 239.448 40.8169 239.658 41.0266C239.867 41.2363 240.062 41.3861 240.242 41.476C240.451 41.5359 240.676 41.5658 240.916 41.5658ZM222.043 13.2561V26.2876H225.638C227.974 26.2876 229.742 25.7334 230.94 24.6249C232.168 23.4866 232.782 21.9887 232.782 20.1313C232.782 18.0942 232.138 16.4466 230.85 15.1884C229.592 13.9002 227.645 13.2561 225.008 13.2561H222.043Z" fill="#111111"/>
<path d="M192.562 41.7026C193.222 41.4929 193.671 41.0585 193.911 40.3995C194.15 39.7404 194.27 38.5571 194.27 36.8495V17.9314C194.27 16.2238 194.15 15.0405 193.911 14.3814C193.671 13.6924 193.222 13.258 192.562 13.0783V12.5391H202.493C205.309 12.5391 207.541 13.0483 209.189 14.0669C210.866 15.0555 211.705 16.4036 211.705 18.1111C211.705 19.6689 211.151 21.032 210.043 22.2003C208.964 23.3387 207.287 24.1176 205.01 24.537C208.305 24.6868 210.792 25.4956 212.469 26.9636C214.147 28.4315 215.001 30.2738 215.031 32.4907C215.061 33.719 214.821 34.9023 214.312 36.0406C213.832 37.1491 213.068 38.1826 212.02 39.1412C211.001 40.0999 209.563 40.8638 207.706 41.433C205.849 41.9722 203.692 42.2418 201.235 42.2418H192.562V41.7026ZM197.73 24.4471H201.685C203.692 24.4471 205.22 23.9379 206.268 22.9193C207.317 21.8708 207.841 20.5227 207.841 18.8751C207.841 17.0177 207.242 15.6097 206.043 14.6511C204.845 13.6625 203.167 13.1682 201.01 13.1682C200.681 13.1682 200.247 13.1682 199.707 13.1682C199.168 13.1682 198.704 13.1831 198.314 13.2131H197.73V24.4471ZM197.73 37.928C197.73 39.4558 197.865 40.4594 198.135 40.9387C198.434 41.388 199.033 41.6127 199.932 41.6127H201.595C204.92 41.6127 207.346 40.8937 208.874 39.4558C210.402 38.0178 211.166 36.0406 211.166 33.5242C211.166 30.9479 210.417 28.8958 208.919 27.368C207.421 25.8402 205.145 25.0762 202.089 25.0762H197.73V37.928Z" fill="#111111"/>
<path d="M182.938 38.8304C183.123 38.7715 183.249 38.6494 183.316 38.4641C183.384 38.2789 183.417 37.9463 183.417 37.4663V32.1486C183.417 31.6686 183.384 31.3359 183.316 31.1507C183.249 30.957 183.123 30.8349 182.938 30.7844V30.6328H188.483L188.622 32.1738L188.483 32.2117C188.28 31.698 187.994 31.3359 187.624 31.1254C187.262 30.9149 186.769 30.8096 186.146 30.8096C185.91 30.8096 185.645 30.8096 185.35 30.8096C185.064 30.8096 184.832 30.8054 184.655 30.797H184.39V34.4222H185.918C186.567 34.4222 187.017 34.359 187.27 34.2327C187.531 34.1064 187.699 33.9001 187.775 33.6138H187.914V35.4074H187.775C187.699 35.1211 187.531 34.9148 187.27 34.7885C187.017 34.6622 186.567 34.599 185.918 34.599H184.39V38.262C184.39 38.6241 184.571 38.8052 184.933 38.8052H186.487C187.085 38.8052 187.565 38.6999 187.927 38.4894C188.289 38.2789 188.575 37.9042 188.786 37.3652L188.912 37.3905L188.824 38.982H182.938V38.8304Z" fill="#111111"/>
<path d="M178.899 39.1124C178.09 39.1124 177.341 38.9482 176.65 38.6198C175.968 38.2913 175.413 37.8029 174.983 37.1545C174.562 36.5061 174.352 35.7651 174.352 34.9314C174.352 34.3167 174.474 33.7357 174.718 33.1883C174.962 32.641 175.274 32.1821 175.653 31.8116C176.04 31.4326 176.465 31.1295 176.928 30.9021C177.4 30.6663 177.867 30.5316 178.33 30.4979C179.821 30.3884 180.861 30.7 181.45 31.4326C181.627 31.6768 181.661 31.8958 181.551 32.0894C181.45 32.2831 181.29 32.38 181.071 32.38C180.937 32.38 180.806 32.3252 180.68 32.2157C180.562 32.0979 180.444 31.9589 180.326 31.7989C180.217 31.6305 180.095 31.4663 179.96 31.3063C179.825 31.1463 179.648 31.0116 179.429 30.9021C179.219 30.7842 178.983 30.7253 178.722 30.7253C177.737 30.7253 176.928 31.0495 176.297 31.6979C175.665 32.3378 175.349 33.2473 175.349 34.4262C175.349 34.9904 175.434 35.5335 175.602 36.0556C175.77 36.5777 176.01 37.0451 176.322 37.4577C176.642 37.8703 177.046 38.2029 177.535 38.4555C178.031 38.6997 178.583 38.8219 179.189 38.8219C179.543 38.8219 179.892 38.7461 180.238 38.5945C180.591 38.4345 180.895 38.2408 181.147 38.0135C181.4 37.7861 181.614 37.5629 181.791 37.344C181.968 37.1251 182.094 36.9314 182.17 36.763L182.372 36.9019C182.271 37.0619 182.204 37.1714 182.17 37.2303C182.137 37.2808 182.044 37.4029 181.892 37.5966C181.741 37.7903 181.61 37.9377 181.501 38.0387C181.4 38.1313 181.244 38.2619 181.033 38.4303C180.831 38.5903 180.633 38.7124 180.44 38.7966C180.246 38.8808 180.015 38.9524 179.745 39.0113C179.476 39.0787 179.194 39.1124 178.899 39.1124Z" fill="#111111"/>
<path d="M173.526 30.7844C173.349 30.8349 173.223 30.9486 173.147 31.1254C173.08 31.2938 173.046 31.5844 173.046 31.997V37.4663C173.046 37.9463 173.08 38.2789 173.147 38.4641C173.215 38.6494 173.341 38.7715 173.526 38.8304V38.982H171.594V38.8304C171.779 38.7715 171.905 38.6494 171.973 38.4641C172.04 38.2789 172.074 37.9463 172.074 37.4663V31.9465C172.074 31.5591 172.036 31.2812 171.96 31.1128C171.884 30.9444 171.762 30.8349 171.594 30.7844V30.6328H173.526V30.7844Z" fill="#111111"/>
<path d="M169.979 30.6172H171.115V30.7435C170.812 30.8614 170.539 31.2277 170.294 31.8424L167.478 39.0422H167.149L164.421 32.1708C164.092 31.3624 163.773 30.8993 163.461 30.7814V30.6298H165.394V30.7814C165.234 30.8235 165.149 30.933 165.141 31.1098C165.141 31.2782 165.2 31.5098 165.318 31.8045C165.326 31.8298 165.528 32.3561 165.924 33.3834C166.328 34.4023 166.728 35.417 167.124 36.4275L167.705 37.9433C169.263 33.8592 170.046 31.8129 170.054 31.8045C170.164 31.5014 170.214 31.2614 170.206 31.0845C170.206 30.9077 170.13 30.7982 169.979 30.7561V30.6172Z" fill="#111111"/>
<path d="M164.133 38.7896C164.15 38.7896 164.171 38.7896 164.196 38.7896C164.221 38.7896 164.242 38.7896 164.259 38.7896C164.276 38.7896 164.284 38.7896 164.284 38.7896V38.9664C164.192 38.9664 164.027 38.9706 163.792 38.979C163.564 38.979 163.408 38.979 163.324 38.979C163.215 38.979 163.11 38.958 163.009 38.9159C162.907 38.8738 162.823 38.8274 162.756 38.7769C162.697 38.7264 162.625 38.6422 162.541 38.5243C162.465 38.4064 162.406 38.318 162.364 38.259C162.331 38.1917 162.272 38.0738 162.187 37.9054C162.112 37.737 162.057 37.6233 162.023 37.5643C162.006 37.5222 161.943 37.3833 161.834 37.1475C161.733 36.9117 161.611 36.6465 161.468 36.3517C161.333 36.0486 161.206 35.7875 161.089 35.5686C161.08 35.5518 161.063 35.5223 161.038 35.4802C160.912 35.2528 160.815 35.097 160.748 35.0128C160.689 34.9202 160.604 34.8402 160.495 34.7728C160.385 34.7055 160.246 34.6718 160.078 34.6718C159.901 34.6718 159.708 34.6718 159.497 34.6718C159.287 34.6718 159.122 34.6718 159.004 34.6718H158.828V37.4633C158.828 37.9517 158.861 38.2885 158.929 38.4738C158.996 38.6506 159.122 38.7685 159.308 38.8274V38.979H157.375V38.8274C157.56 38.7685 157.687 38.6506 157.754 38.4738C157.821 38.2885 157.855 37.9517 157.855 37.4633V32.1456C157.855 31.6572 157.821 31.3203 157.754 31.1351C157.687 30.9498 157.56 30.8319 157.375 30.7814V30.6298C158.705 30.6214 159.48 30.6172 159.699 30.6172C161.813 30.6172 162.87 31.2993 162.87 32.6634C162.87 33.6824 162.221 34.3181 160.924 34.5707C161.202 34.6128 161.446 34.7265 161.657 34.9118C161.876 35.097 162.078 35.3833 162.263 35.7707C162.339 35.9307 162.436 36.1496 162.554 36.4275C162.68 36.7054 162.764 36.8822 162.806 36.958C162.882 37.1012 162.966 37.2654 163.059 37.4507C163.152 37.6359 163.223 37.7791 163.274 37.8801C163.324 37.9727 163.383 38.078 163.451 38.1959C163.518 38.3138 163.573 38.4022 163.615 38.4611C163.665 38.5201 163.72 38.579 163.779 38.638C163.838 38.6969 163.893 38.739 163.943 38.7643C164.002 38.7811 164.065 38.7896 164.133 38.7896ZM158.828 30.8319V34.495H159.838C160.495 34.495 160.992 34.3392 161.329 34.0276C161.674 33.7076 161.846 33.2866 161.846 32.7645C161.846 32.1919 161.665 31.7287 161.303 31.3751C160.95 31.013 160.402 30.8319 159.661 30.8319H158.828Z" fill="#111111"/>
<path d="M150.594 38.8304C150.779 38.7715 150.905 38.6494 150.973 38.4641C151.04 38.2789 151.074 37.9463 151.074 37.4663V32.1486C151.074 31.6686 151.04 31.3359 150.973 31.1507C150.905 30.957 150.779 30.8349 150.594 30.7844V30.6328H156.139L156.278 32.1738L156.139 32.2117C155.937 31.698 155.65 31.3359 155.28 31.1254C154.918 30.9149 154.425 30.8096 153.802 30.8096C153.566 30.8096 153.301 30.8096 153.006 30.8096C152.72 30.8096 152.488 30.8054 152.312 30.797H152.046V34.4222H153.575C154.223 34.4222 154.674 34.359 154.926 34.2327C155.187 34.1064 155.356 33.9001 155.431 33.6138H155.57V35.4074H155.431C155.356 35.1211 155.187 34.9148 154.926 34.7885C154.674 34.6622 154.223 34.599 153.575 34.599H152.046V38.262C152.046 38.6241 152.227 38.8052 152.589 38.8052H154.143C154.741 38.8052 155.221 38.6999 155.583 38.4894C155.945 38.2789 156.231 37.9042 156.442 37.3652L156.568 37.3905L156.48 38.982H150.594V38.8304Z" fill="#111111"/>
<path d="M147.222 34.3032C147.559 34.4295 147.82 34.5347 148.005 34.6189C148.199 34.7031 148.426 34.821 148.687 34.9726C148.948 35.1242 149.146 35.2758 149.281 35.4273C149.416 35.5705 149.534 35.7557 149.635 35.9831C149.736 36.202 149.786 36.442 149.786 36.7031C149.786 37.4188 149.508 37.9999 148.953 38.4462C148.397 38.8841 147.744 39.103 146.995 39.103C146.582 39.103 146.144 39.0188 145.681 38.8504C145.218 38.682 144.826 38.4756 144.506 38.2314C144.195 37.9872 144.022 37.7515 143.988 37.5241C143.955 37.3473 143.993 37.2041 144.102 37.0946C144.212 36.9852 144.342 36.9346 144.494 36.9431C144.654 36.9431 144.784 36.9978 144.885 37.1073C144.927 37.1494 145.024 37.2841 145.176 37.5115C145.336 37.7304 145.487 37.9325 145.631 38.1178C145.782 38.303 145.993 38.4799 146.262 38.6483C146.532 38.8083 146.814 38.8883 147.108 38.8883C147.605 38.8883 148.047 38.7409 148.435 38.4462C148.822 38.143 149.016 37.7599 149.016 37.2967C149.016 37.1115 148.982 36.9389 148.915 36.7789C148.856 36.6104 148.755 36.4589 148.611 36.3241C148.477 36.1894 148.346 36.0715 148.22 35.9705C148.094 35.8694 147.921 35.7642 147.702 35.6547C147.483 35.5452 147.31 35.4652 147.184 35.4147C147.058 35.3557 146.881 35.28 146.654 35.1873C146.603 35.1705 146.565 35.1579 146.54 35.1494C146.144 34.9894 145.824 34.8463 145.58 34.72C145.336 34.5937 145.1 34.4421 144.873 34.2653C144.654 34.08 144.494 33.8695 144.393 33.6337C144.292 33.3979 144.241 33.1285 144.241 32.8253C144.241 32.1264 144.506 31.5706 145.037 31.158C145.567 30.7454 146.275 30.5391 147.159 30.5391C147.487 30.5391 147.866 30.5938 148.296 30.7033C148.734 30.8043 149.062 30.9559 149.281 31.158C149.441 31.2927 149.462 31.4485 149.344 31.6253C149.235 31.7938 149.066 31.8443 148.839 31.7769C148.755 31.7517 148.637 31.6801 148.485 31.5622C148.342 31.4443 148.199 31.3264 148.056 31.2085C147.913 31.0822 147.723 30.9727 147.487 30.8801C147.252 30.7791 147.012 30.7285 146.767 30.7285C146.254 30.7285 145.828 30.8717 145.492 31.158C145.155 31.4359 144.986 31.819 144.986 32.3074C144.986 32.5095 145.028 32.7032 145.113 32.8885C145.205 33.0653 145.311 33.2127 145.428 33.3306C145.546 33.4484 145.715 33.5748 145.934 33.7095C146.161 33.8358 146.342 33.9284 146.477 33.9874C146.62 34.0463 146.826 34.1305 147.096 34.24C147.155 34.2653 147.197 34.2863 147.222 34.3032Z" fill="#111111"/>
<path d="M179.712 24.9724L179.838 24.9977L179.623 26.3492H174.078V26.1976C174.263 26.1387 174.39 26.0166 174.457 25.8313C174.524 25.6461 174.558 25.3134 174.558 24.8335V19.3136C174.558 18.9263 174.52 18.6484 174.444 18.48C174.377 18.3116 174.255 18.2021 174.078 18.1516V18H176.011V18.1516C175.834 18.2021 175.708 18.3158 175.632 18.4926C175.564 18.661 175.531 18.9515 175.531 19.3642V25.6166C175.531 25.9787 175.712 26.1597 176.074 26.1597H177.489C178.095 26.1597 178.579 26.0713 178.941 25.8945C179.303 25.7092 179.56 25.4019 179.712 24.9724Z" fill="#111111"/>
<path d="M173.399 24.9724L173.525 24.9977L173.311 26.3492H167.766V26.1976C167.951 26.1387 168.077 26.0166 168.145 25.8313C168.212 25.6461 168.246 25.3134 168.246 24.8335V19.3136C168.246 18.9263 168.208 18.6484 168.132 18.48C168.065 18.3116 167.942 18.2021 167.766 18.1516V18H169.698V18.1516C169.521 18.2021 169.395 18.3158 169.319 18.4926C169.252 18.661 169.218 18.9515 169.218 19.3642V25.6166C169.218 25.9787 169.399 26.1597 169.761 26.1597H171.176C171.782 26.1597 172.267 26.0713 172.629 25.8945C172.991 25.7092 173.248 25.4019 173.399 24.9724Z" fill="#111111"/>
<path d="M165.815 18H166.965V18.1516C166.796 18.2021 166.674 18.3242 166.599 18.5179C166.523 18.7031 166.485 19.0021 166.485 19.4147V23.1661C166.485 23.7472 166.409 24.2566 166.258 24.6945C166.106 25.124 165.891 25.465 165.613 25.7176C165.344 25.9703 165.032 26.1597 164.679 26.286C164.333 26.4039 163.946 26.4629 163.517 26.4629C163.062 26.4629 162.641 26.4082 162.253 26.2987C161.875 26.1892 161.521 26.0166 161.192 25.7808C160.864 25.5366 160.603 25.204 160.409 24.7829C160.224 24.3535 160.131 23.8482 160.131 23.2672V19.301C160.131 18.9221 160.094 18.6484 160.018 18.48C159.95 18.3116 159.832 18.2021 159.664 18.1516V18H161.597V18.1516C161.428 18.2021 161.306 18.3116 161.23 18.48C161.163 18.64 161.125 18.9137 161.117 19.301V23.204C161.117 24.2482 161.369 25.0145 161.875 25.5029C162.38 25.9829 163.053 26.2229 163.896 26.2229C164.173 26.2229 164.443 26.1724 164.704 26.0713C164.973 25.9703 165.23 25.8103 165.474 25.5913C165.719 25.3724 165.916 25.0608 166.068 24.6566C166.22 24.244 166.295 23.7598 166.295 23.204L166.283 19.3768C166.283 18.981 166.245 18.6905 166.169 18.5052C166.102 18.32 165.984 18.2021 165.815 18.1516V18Z" fill="#111111"/>
<path d="M156.552 18.1768C156.316 18.1768 156.051 18.1768 155.756 18.1768C155.47 18.1768 155.238 18.1768 155.062 18.1768H154.796V21.7894H156.325C156.973 21.7894 157.424 21.7262 157.676 21.5999C157.937 21.4736 158.106 21.2673 158.181 20.981H158.32V22.7746H158.181C158.106 22.4883 157.937 22.282 157.676 22.1557C157.424 22.0293 156.973 21.9662 156.325 21.9662H154.796V24.8335C154.796 25.3219 154.83 25.6587 154.897 25.844C154.965 26.0208 155.091 26.1387 155.276 26.1976V26.3492H153.344V26.1976C153.529 26.1387 153.655 26.0166 153.723 25.8313C153.79 25.6461 153.824 25.3134 153.824 24.8335V19.5157C153.824 19.0358 153.79 18.7031 153.723 18.5179C153.655 18.3242 153.529 18.2021 153.344 18.1516V18H156.4H158.889L159.028 19.541L158.889 19.5789C158.687 19.0652 158.4 18.7031 158.03 18.4926C157.668 18.2821 157.175 18.1768 156.552 18.1768Z" fill="#111111"/>
</svg>
