<svg width="353" height="99" viewBox="0 0 353 99" fill="none" xmlns="http://www.w3.org/2000/svg">
<g clip-path="url(#clip0_2054_92852)">
<path d="M145.137 9.07658C146.014 9.07658 147.586 9.053 148.363 9.12964C149.029 9.1945 149.429 9.54826 149.511 10.0258C149.635 10.7452 149.294 11.7711 148.775 12.3135C148.257 12.8559 147.298 13.0033 146.509 13.251C144.854 13.7757 144.03 14.7014 144.312 16.3994C144.624 18.2685 145.184 20.108 145.784 21.9122C147.845 28.0912 149.994 34.2467 152.073 40.4198C154.934 48.9101 157.755 57.4121 160.604 65.9024C161.988 70.0355 163.372 74.1686 164.826 78.2722C165.05 78.8972 165.668 79.3807 166.104 79.929C166.569 79.416 167.246 78.9738 167.47 78.3724C169.23 73.6497 170.908 68.8917 172.61 64.1454C173.387 61.9815 174.082 59.7823 174.936 57.6479C175.789 55.5313 175.801 53.4264 175.065 51.3274C171.668 41.6226 168.235 31.9295 164.802 22.2365C164.084 20.2083 163.383 18.1682 162.518 16.199C161.647 14.2179 160.133 12.8618 157.937 12.4432C156.712 12.2133 155.865 11.5942 155.971 10.3147C156.082 8.95276 157.125 8.39264 158.373 8.44571C160.822 8.55183 163.266 8.91149 165.709 8.91149C168.936 8.91149 172.162 8.70513 175.383 8.53415C176.484 8.47519 177.621 8.19807 178.097 9.56595C178.574 10.9279 178.027 11.8595 176.461 12.5081C176.054 12.679 175.636 12.8205 175.224 12.9797C173.364 13.6814 172.633 14.7544 172.975 16.7178C173.281 18.4984 173.676 20.2849 174.253 22.0006C175.907 26.9238 177.391 31.9118 179.405 36.6994C179.581 37.1121 179.823 37.743 179.976 38.0909C180.17 38.539 180.894 40.2842 180.894 40.2842C180.894 40.2842 181.824 38.3208 182.078 37.7076C184.209 32.5132 186.464 25.5736 188.649 19.542C188.749 19.2649 188.796 18.9701 188.855 18.6871C189.785 14.3889 189.685 14.2415 185.793 12.2899C185.145 11.9656 184.48 11.376 184.18 10.7393C183.544 9.38317 184.339 8.28651 185.84 8.28651C186.523 8.28651 187.212 8.38085 187.883 8.51056C191.704 9.27704 195.496 9.06479 199.276 8.26293C199.753 8.1627 200.248 8.07426 200.731 8.08605C201.826 8.10963 202.668 8.56363 202.815 9.74283C202.945 10.8336 202.309 11.4763 201.337 11.83C200.925 11.9833 200.507 12.1425 200.077 12.2368C196.35 13.0564 194.154 15.5681 192.894 18.9583C190.539 25.2965 188.289 31.6701 185.999 38.0319C185.369 39.783 184.227 42.8136 183.673 44.6826C182.861 47.4361 183.067 48.4914 184.091 51.2685C186.323 57.3355 188.213 63.5204 190.256 69.6522C191.151 72.3467 192.034 75.0471 193.023 77.7121C193.253 78.3253 193.889 78.7911 194.342 79.3217C194.802 78.7557 195.49 78.2604 195.697 77.6119C198.028 70.23 200.271 62.8188 202.574 55.4311C205.429 46.2627 208.361 37.1239 211.17 27.9379C212.3 24.2411 213.313 20.4972 214.126 16.7178C214.709 13.9821 214.226 13.4337 211.665 12.3607C211.347 12.2309 211.035 12.0835 210.723 11.9479C209.527 11.4409 208.915 10.5565 209.256 9.26525C209.621 7.89738 210.77 7.80894 211.877 8.06247C216.228 9.05889 220.538 8.81716 224.871 7.93865C225.548 7.80304 226.402 7.85021 226.979 8.16859C227.474 8.43391 227.945 9.21219 227.945 9.76641C227.945 10.3088 227.456 11.0517 226.961 11.3406C226.137 11.8241 225.148 12.0482 224.212 12.3312C222.021 12.9974 220.544 14.4537 219.36 16.3641C216.87 20.3851 215.804 24.9428 214.367 29.353C212.518 35.0367 210.823 40.7677 209.05 46.475C206.201 55.6433 203.345 64.8116 200.483 73.974C198.222 81.2202 195.95 88.4664 193.665 95.7067C193.447 96.4025 193.159 97.0923 192.788 97.7232C192.535 98.1536 191.999 98.8198 191.752 98.755C191.281 98.6371 190.733 98.1359 190.55 97.6701C189.985 96.2138 189.597 94.6867 189.096 93.2009C186.876 86.5561 184.645 79.9231 182.419 73.2783C181.442 70.3539 180.464 67.4294 179.487 64.505C179.363 64.1336 179.234 63.7503 179.098 63.3966C178.875 62.8129 178.145 60.6313 177.997 60.2481C177.791 60.7846 176.938 62.8541 176.749 63.3848C173.051 73.7618 169.401 84.1623 165.739 94.5511C165.379 95.5652 165.05 96.6088 164.532 97.5463C164.214 98.1241 163.578 98.5191 163.083 99.0026C162.677 98.4897 162.1 98.0357 161.894 97.4578C161.128 95.2881 160.528 93.0594 159.792 90.8838C158.037 85.6894 156.241 80.5127 154.469 75.3242C151.478 66.5686 148.499 57.8013 145.496 49.0516C142.493 40.296 139.473 31.5463 136.428 22.7966C135.692 20.674 134.951 18.5515 134.038 16.4997C133.078 14.3417 131.235 13.1625 128.974 12.6083C128.639 12.5257 128.297 12.4845 127.967 12.3901C126.937 12.0777 125.706 11.889 125.824 10.4268C125.936 9.01172 127.273 9.17681 127.903 9.14733C128.668 9.11196 129.728 9.10606 130.276 9.08837L145.113 9.07658H145.137Z" fill="black"/>
<path d="M336.66 91.0529C336.642 90.6755 336.542 90.2982 336.401 89.9326C335.748 88.2169 334.876 86.5896 333.899 85.0331C329.889 78.6418 325.809 72.3036 321.758 65.9417C320.68 64.2437 320.221 64.1494 318.702 65.5467C317.554 66.608 316.323 67.6398 315.44 68.9016C314.757 69.8862 314.233 71.1951 314.198 72.3743C314.062 76.9791 314.133 81.5898 314.18 86.2005L314.268 96.0409C314.274 96.8015 313.662 97.4206 312.902 97.4206H300.997C300.349 97.4206 299.825 96.884 299.843 96.2296V96.0291C299.843 96.0291 299.978 94.5905 302.104 94.0186C304.347 93.4172 306.06 91.5481 306.208 89.2251C306.278 88.1049 306.249 86.9787 306.243 85.8526C306.231 72.7575 306.208 59.6684 306.214 46.5733C306.214 36.1315 306.261 25.6838 306.243 15.2419C306.243 13.8799 306.113 12.4944 305.837 11.1619C305.377 8.98034 303.988 7.97801 301.739 7.96032C300.838 7.95443 299.701 8.25513 299.537 6.89904C299.384 5.60781 300.279 5.14792 301.403 4.8885C305.007 4.04537 308.433 2.80131 311.507 0.649265C313.15 -0.500459 313.827 -0.152594 314.068 1.7813C314.127 2.2294 314.139 2.68339 314.139 3.13738C314.139 22.4586 314.127 41.7858 314.156 61.107C314.156 61.956 314.168 63.8133 314.156 64.7331C314.904 64.0904 316.217 62.7697 316.788 62.1742C322.347 56.3077 327.899 50.4352 333.381 44.4979C334.311 43.4897 335.053 42.228 335.6 40.9544C336.06 39.8873 335.547 38.8319 334.423 38.5489C333.298 38.2658 332.115 38.1951 331.084 37.7411C330.554 37.5053 330.266 36.7211 329.865 36.1846C330.413 35.8072 330.931 35.1528 331.508 35.1056C332.662 34.9995 333.852 35.3119 335.023 35.3002C339.722 35.253 344.426 35.1469 349.125 35.0584C349.614 35.0466 350.102 34.9582 350.591 34.9287C353.029 34.7813 353.146 34.911 352.887 37.4109C349.066 38.089 345.268 38.9026 342.36 41.7563C338.621 45.4236 334.947 49.1558 331.255 52.8703C330.219 53.9139 329.188 54.9634 328.17 56.0246C326.762 57.4869 326.704 57.988 327.793 59.7391C330.001 63.2709 332.232 66.779 334.44 70.3107C337.897 75.8294 341.276 81.3952 344.809 86.8608C346.752 89.8678 348.954 92.7038 352.434 94.1719C352.699 94.2839 352.911 94.7674 352.952 95.1034C353.035 95.7756 352.976 96.4713 352.976 97.3027H336.272C335.694 97.3027 335.229 96.8369 335.229 96.2591V92.7627C336.048 92.6153 336.69 91.9019 336.654 91.0706L336.66 91.0529Z" fill="black"/>
<path d="M211.482 65.4867C211.535 58.8891 212.536 52.4742 215.662 46.59C221.774 35.0868 232.973 29.7038 246.032 32.6282C257.131 35.1163 262.996 42.7635 265.704 53.3291C267.376 59.8442 267.512 66.436 266.44 73.0218C265.027 81.7361 261.488 89.3361 253.84 94.3772C247.663 98.4454 240.786 99.6541 233.568 98.3747C223.529 96.5941 217.611 90.0377 214.126 80.9166C212.236 75.9639 211.441 70.799 211.482 65.4985V65.4867ZM258.02 66.3416C257.879 58.8714 257.396 50.8587 253.357 43.5594C250.961 39.2376 247.722 35.8533 242.676 34.8392C234.61 33.2178 227.191 37.345 223.729 45.1042C221.963 49.0545 221.044 53.1876 220.644 57.4504C219.707 67.5444 220.143 77.4674 225.03 86.6711C229.293 94.7015 236.806 98.2921 245.626 94.725C251.585 92.3136 254.405 87.1487 256.177 81.3529C257.608 76.6773 257.938 71.8249 258.02 66.3416Z" fill="black"/>
<path d="M290.041 97.3675C290.665 97.2909 291.501 96.4831 291.677 95.8463C291.948 94.8912 291 94.5728 290.188 94.449C288.881 94.2544 287.532 94.2367 286.255 93.9301C283.252 93.2108 281.362 92.3441 281.244 88.9775C281.209 88.0459 281.109 87.1202 281.109 86.1887C281.097 77.9519 281.038 69.7152 281.132 61.4785C281.168 58.5953 281.362 55.6827 281.874 52.8526C282.575 48.9966 283.635 45.1996 286.549 42.2751C288.91 39.9049 291.442 39.7929 293.968 41.9685C295.081 42.9296 296.111 43.985 297.271 44.8812C298.649 45.9484 300.503 46.0309 301.817 45.1052C304.16 43.4543 304.819 41.0724 304.478 38.372C304.189 36.0489 302.87 34.404 300.715 33.5137C298.39 32.5526 295.97 32.6823 293.656 33.4724C289.475 34.8992 286.696 38.0536 284.206 41.5087C283.311 42.7468 282.469 43.9201 281.591 45.2821L280.808 46.5439L280.655 43.3364C280.62 40.5889 280.667 37.8472 280.59 35.0997C280.573 34.4806 280.184 33.8733 279.966 33.2542C274.09 40.3589 267.649 43.5074 267.649 43.5074C268.249 43.814 268.85 44.1324 269.456 44.4331C270.469 44.9342 271.782 45.1878 272.412 45.9837C273.03 46.7679 273.136 48.0945 273.142 49.1853C273.189 61.7851 273.178 74.3848 273.154 86.9846C273.154 88.0518 272.936 89.1249 272.813 90.1921C272.542 92.5151 271.193 93.7591 268.926 94.1365C268.302 94.2426 267.596 94.3134 267.101 94.6553C266.577 95.015 265.882 95.7461 265.959 96.1942C266.047 96.6954 266.883 97.3439 267.46 97.4147L290.035 97.3616L290.041 97.3675Z" fill="black"/>
<path d="M92.1875 31.4685C94.631 31.5215 96.9449 30.7904 98.7407 29.3459C100.419 27.9957 101.402 26.6278 101.402 26.6278L98.5877 34.3811L95.2021 45.2887C92.4053 54.0738 89.7793 62.9414 87.2122 71.8326C85.54 77.6166 83.6382 83.3475 82.5901 89.3497C82.4076 90.3933 82.2545 92.0029 82.3664 93.4769C82.5018 95.2398 83.6499 96.2775 85.2103 95.6761C86.8471 95.0452 88.4368 94.0901 89.6262 92.9344C93.0059 89.6386 94.7899 87.5042 99.359 80.1283L99.465 81.3193C96.8213 85.8179 94.1128 90.2812 90.3033 93.8424C88.9903 95.0747 87.4006 96.1242 85.699 96.8376C82.0838 98.3588 78.1271 95.6761 77.6737 91.5076C77.5088 89.9805 77.5912 87.6634 77.5441 86.1422L76.3018 87.6516C73.8583 91.0123 67.4345 95.8471 62.8655 96.7786C60.8106 97.1973 58.5379 97.8104 56.324 96.4367C54.1867 95.1101 53.4507 93.0877 53.327 90.9298C53.0621 86.325 54.3927 82.2568 55.5998 78.159L67.8938 36.1912C68.3295 34.6052 68.8005 33.0309 68.6887 31.2091C68.618 30.0181 68.5061 28.8271 67.2815 27.9957C66.3276 27.3472 64.8497 27.5948 63.8723 28.208C61.7115 29.57 60.1217 31.5746 58.8205 33.6677C58.8205 33.6677 57.2072 36.4742 55.9354 42.211C54.6636 47.9478 56.2887 35.0945 56.2887 35.0945C58.214 31.8753 60.263 28.6207 63.8429 26.9109C68.0528 24.8944 72.5806 26.7635 73.4402 31.61C73.4402 31.61 74.0644 35.6429 72.6866 40.5365L59.2385 85.8592C58.5614 88.2825 58.161 90.0631 57.9432 93.359C58.0433 95.3341 59.2974 96.189 61.1933 95.8235C61.6467 95.735 63.1069 95.3459 63.4072 95.2339C65.7565 94.3495 69.6543 92.1621 71.1498 90.9298C73.823 88.7188 76.761 85.6882 78.3331 82.1211L93.1119 34.1689C93.3768 33.3021 92.7115 32.7302 91.7282 32.2762C91.7282 32.2762 91.1512 32.0404 91.2513 31.6807C91.3278 31.3977 92.1875 31.4685 92.1875 31.4685Z" fill="black"/>
<path d="M100.512 33.6047C102.591 31.7888 104.604 29.8784 106.86 28.2865C109.044 26.7418 112.247 27.1427 114.131 28.8938C115.391 30.0671 116.015 31.5706 115.868 33.1095C115.585 36.1695 115.385 39.2826 114.661 42.207C112.341 51.4932 109.798 60.7028 107.342 69.9419C105.835 75.6138 104.334 81.2858 102.838 86.9637C102.72 87.4059 102.661 87.8658 102.579 88.3198C102.72 88.3846 102.862 88.4554 103.003 88.5202C103.745 86.8752 104.493 85.2302 105.234 83.5793C107.548 78.4203 109.862 73.2672 112.17 68.1082C114.361 63.2086 116.475 58.2678 118.753 53.4153C121.538 47.4957 124.977 42.0007 128.863 36.8004C131.253 33.5988 133.767 30.527 137.171 28.3455C138.113 27.7382 139.332 27.3373 140.491 27.2901C141.251 27.2606 142.446 27.8679 142.87 28.5165C143.294 29.1709 143.329 30.4386 142.959 31.0635C142.452 31.9244 141.534 32.7321 140.568 33.0446C131.489 36.0103 125.936 42.72 121.574 50.5558C119.159 54.8893 117.264 59.5472 115.203 64.0989C112.047 71.068 108.956 78.0784 105.841 85.0652C104.186 88.7796 102.491 92.4705 100.883 96.2086C100.489 97.1284 99.9059 97.4704 98.9108 97.4114C98.0747 97.3642 97.2386 97.3583 96.4143 97.4232C95.2191 97.5175 94.8952 97.1402 95.2073 95.9728C96.6734 90.4364 98.0629 84.8765 99.4996 79.3283C101.066 73.279 102.656 67.2356 104.228 61.1863C106.324 53.1205 108.443 45.0607 110.487 36.9772C110.922 35.2438 111.134 33.4102 111.317 31.6001C111.546 29.3242 110.145 28.0802 108.161 29.0884C105.953 30.2086 104.045 31.8595 102.126 33.4219L100.518 33.6165L100.512 33.6047Z" fill="black"/>
<path d="M50.3614 62.8815C47.2879 71.2126 42.8778 78.901 37.0429 85.3984C35.2824 87.3618 33.4041 89.219 31.3551 90.9171C27.734 93.924 23.9304 96.648 18.8491 97.3496C10.9004 98.4463 5.38926 93.4878 2.72791 86.5187C-1.18757 76.2478 -0.327933 66.2658 1.8035 56.5079C3.94672 46.6675 7.85631 37.6761 13.5382 29.6398C18.3663 22.8122 24.2071 17.0813 32.3384 14.0861C37.3078 12.2525 42.8248 11.1322 48.1416 13.697C54.954 16.987 62.1726 30.8485 50.3614 62.8815ZM51.0562 19.6284C50.1612 17.8124 47.7825 15.2712 45.5509 14.4222C42.7954 13.3727 40.1576 13.4611 37.5551 14.0095C31.9439 15.1887 27.5868 18.3077 23.8126 22.1872C18.8373 27.305 15.175 33.372 12.5078 40.0699C11.3773 42.8999 10.4117 45.8126 9.38129 48.8844C8.58642 51.2428 8.02706 53.6955 7.69734 56.2131C6.53152 64.0725 6.03105 72.0263 7.84454 80.1628C8.50399 83.1226 9.76401 86.1295 11.2949 88.8653C13.5676 92.9276 19.5203 94.4901 24.2071 92.792C30.307 90.581 34.5699 86.2062 38.5207 81.4835C40.8524 78.6946 42.9838 75.7231 44.6383 72.5746C61.8782 39.8694 51.0621 19.6284 51.0621 19.6284H51.0562Z" fill="black"/>
</g>
<defs>
<clipPath id="clip0_2054_92852">
<rect width="353" height="99" fill="white"/>
</clipPath>
</defs>
</svg>
