<svg width="746" height="133" viewBox="0 0 746 133" fill="none" xmlns="http://www.w3.org/2000/svg">
<path d="M2.82803 96.648C4.35336 96.1627 5.39336 95.1573 5.94803 93.632C6.5027 92.1067 6.78003 89.368 6.78003 85.416V41.632C6.78003 37.68 6.5027 34.9413 5.94803 33.416C5.39336 31.8213 4.35336 30.816 2.82803 30.4V29.152H26.332C31.532 29.152 36.2814 29.8453 40.58 31.232C44.8787 32.5493 48.4494 34.352 51.292 36.64C54.1347 38.8587 56.5267 41.4933 58.468 44.544C60.4094 47.5253 61.796 50.6107 62.628 53.8C63.5294 56.92 64.0147 60.1093 64.084 63.368C64.084 73.768 60.86 82.1227 54.412 88.432C47.964 94.7413 39.3667 97.896 28.62 97.896H2.82803V96.648ZM14.788 89.264C14.788 91.76 15.204 93.5973 16.036 94.776C16.9374 95.8853 18.6707 96.44 21.236 96.44H28.412C36.94 96.44 43.5267 93.528 48.172 87.704C52.8174 81.88 55.14 73.768 55.14 63.368C55.14 58.6533 54.308 54.2507 52.644 50.16C51.0494 46 48.9 42.5333 46.196 39.76C43.5614 36.9867 40.476 34.8373 36.94 33.312C33.404 31.7173 29.764 30.92 26.02 30.92H14.788V89.264ZM68.8437 96.648C70.369 96.1627 71.409 95.1573 71.9637 93.632C72.5183 92.1067 72.7957 89.368 72.7957 85.416V41.632C72.7957 37.68 72.5183 34.9413 71.9637 33.416C71.409 31.8213 70.369 30.816 68.8437 30.4V29.152H114.5L115.644 41.84L114.5 42.152C112.836 37.9227 110.478 34.9413 107.428 33.208C104.446 31.4747 100.39 30.608 95.2597 30.608C93.3183 30.608 91.1343 30.608 88.7077 30.608C86.3503 30.608 84.4437 30.5733 82.9877 30.504H80.8037V60.352H93.3877C98.7263 60.352 102.436 59.832 104.516 58.792C106.665 57.752 108.052 56.0533 108.676 53.696H109.82V68.464H108.676C108.052 66.1067 106.665 64.408 104.516 63.368C102.436 62.328 98.7263 61.808 93.3877 61.808H80.8037V91.968C80.8037 94.9493 82.2943 96.44 85.2757 96.44H98.0677C102.99 96.44 106.942 95.5733 109.924 93.84C112.905 92.1067 115.262 89.0213 116.996 84.584L118.036 84.792L117.308 97.896H68.8437V96.648ZM148.882 59.416C151.656 60.456 153.805 61.3227 155.33 62.016C156.925 62.7093 158.797 63.68 160.946 64.928C163.096 66.176 164.725 67.424 165.834 68.672C166.944 69.8507 167.914 71.376 168.746 73.248C169.578 75.0507 169.994 77.0267 169.994 79.176C169.994 85.0693 167.706 89.8533 163.13 93.528C158.554 97.1333 153.181 98.936 147.01 98.936C143.613 98.936 140.008 98.2427 136.194 96.856C132.381 95.4693 129.157 93.7707 126.522 91.76C123.957 89.7493 122.536 87.808 122.258 85.936C121.981 84.48 122.293 83.3013 123.194 82.4C124.096 81.4987 125.17 81.0827 126.418 81.152C127.736 81.152 128.81 81.6027 129.642 82.504C129.989 82.8507 130.786 83.96 132.034 85.832C133.352 87.6347 134.6 89.2987 135.778 90.824C137.026 92.3493 138.76 93.8053 140.978 95.192C143.197 96.5093 145.52 97.168 147.946 97.168C152.037 97.168 155.677 95.9547 158.866 93.528C162.056 91.032 163.65 87.8773 163.65 84.064C163.65 82.5387 163.373 81.1173 162.818 79.8C162.333 78.4133 161.501 77.1653 160.322 76.056C159.213 74.9467 158.138 73.976 157.098 73.144C156.058 72.312 154.637 71.4453 152.834 70.544C151.032 69.6427 149.61 68.984 148.57 68.568C147.53 68.0827 146.074 67.4587 144.202 66.696C143.786 66.5573 143.474 66.4533 143.266 66.384C140.008 65.0667 137.373 63.888 135.362 62.848C133.352 61.808 131.41 60.56 129.538 59.104C127.736 57.5787 126.418 55.8453 125.586 53.904C124.754 51.9627 124.338 49.744 124.338 47.248C124.338 41.4933 126.522 36.9173 130.89 33.52C135.258 30.1227 141.082 28.424 148.362 28.424C151.066 28.424 154.186 28.8747 157.722 29.776C161.328 30.608 164.032 31.856 165.834 33.52C167.152 34.6293 167.325 35.912 166.354 37.368C165.453 38.7547 164.066 39.1707 162.194 38.616C161.501 38.408 160.53 37.8187 159.282 36.848C158.104 35.8773 156.925 34.9067 155.746 33.936C154.568 32.896 153.008 31.9947 151.066 31.232C149.125 30.4 147.149 29.984 145.138 29.984C140.909 29.984 137.408 31.1627 134.634 33.52C131.861 35.808 130.474 38.9627 130.474 42.984C130.474 44.648 130.821 46.2427 131.514 47.768C132.277 49.224 133.144 50.4373 134.114 51.408C135.085 52.3787 136.472 53.4187 138.274 54.528C140.146 55.568 141.637 56.3307 142.746 56.816C143.925 57.3013 145.624 57.9947 147.842 58.896C148.328 59.104 148.674 59.2773 148.882 59.416ZM190.482 30.4C189.026 30.816 187.986 31.752 187.362 33.208C186.808 34.5947 186.53 36.9867 186.53 40.384V85.416C186.53 89.368 186.808 92.1067 187.362 93.632C187.917 95.1573 188.957 96.1627 190.482 96.648V97.896H174.57V96.648C176.096 96.1627 177.136 95.1573 177.69 93.632C178.245 92.1067 178.522 89.368 178.522 85.416V39.968C178.522 36.7787 178.21 34.4907 177.586 33.104C176.962 31.7173 175.957 30.816 174.57 30.4V29.152H190.482V30.4ZM249.26 65.448H265.172V66.696C263.716 67.112 262.711 68.048 262.156 69.504C261.601 70.8907 261.289 73.3173 261.22 76.784L261.428 97.896H259.972C259.903 97.7573 259.799 97.5493 259.66 97.272C259.591 96.9253 259.417 96.4053 259.14 95.712C258.863 94.9493 258.551 94.2907 258.204 93.736C257.857 93.1813 257.407 92.6613 256.852 92.176C256.297 91.6907 255.743 91.448 255.188 91.448C254.425 91.448 253.385 91.8293 252.068 92.592C250.82 93.3547 249.468 94.2213 248.012 95.192C246.556 96.1627 244.441 97.0293 241.668 97.792C238.895 98.5547 235.879 98.936 232.62 98.936C225.964 98.936 219.793 97.584 214.108 94.88C208.492 92.176 203.916 88.1547 200.38 82.816C196.913 77.4773 195.18 71.376 195.18 64.512C195.18 59.4507 196.185 54.6667 198.196 50.16C200.207 45.6533 202.772 41.8747 205.892 38.824C209.081 35.704 212.583 33.208 216.396 31.336C220.279 29.3947 224.127 28.2853 227.94 28.008C240.212 27.1067 248.775 29.672 253.628 35.704C255.084 37.7147 255.361 39.5173 254.46 41.112C253.628 42.7067 252.311 43.504 250.508 43.504C249.399 43.504 248.324 43.0533 247.284 42.152C246.313 41.1813 245.343 40.0373 244.372 38.72C243.471 37.3333 242.465 35.9813 241.356 34.664C240.247 33.3467 238.791 32.2373 236.988 31.336C235.255 30.3653 233.313 29.88 231.164 29.88C223.052 29.88 216.396 32.5493 211.196 37.888C205.996 43.1573 203.396 50.6453 203.396 60.352C203.396 64.9973 204.089 69.4693 205.476 73.768C206.932 78.0667 208.943 81.9147 211.508 85.312C214.073 88.7093 217.367 91.448 221.388 93.528C225.479 95.5387 230.02 96.544 235.012 96.544C237.508 96.544 239.935 96.1627 242.292 95.4C244.719 94.568 246.66 93.5973 248.116 92.488C249.641 91.3787 250.82 90.408 251.652 89.576C252.553 88.6747 253.108 88.016 253.316 87.6L253.212 77.928C253.212 73.9067 252.935 71.1333 252.38 69.608C251.825 68.0827 250.785 67.112 249.26 66.696V65.448ZM314.991 29.152H325.287V30.4C323.831 30.816 322.791 31.752 322.167 33.208C321.613 34.5947 321.335 36.9867 321.335 40.384C321.335 78.7253 321.335 97.896 321.335 97.896H320.087L274.639 39.552L274.535 85.416C274.535 89.368 274.813 92.1067 275.367 93.632C275.991 95.1573 277.031 96.1627 278.487 96.648V97.896H269.023V96.648C270.549 96.1627 271.589 95.1573 272.143 93.632C272.698 92.1067 272.975 89.368 272.975 85.416V39.968C272.975 36.7787 272.663 34.4907 272.039 33.104C271.415 31.7173 270.41 30.816 269.023 30.4V29.152H277.447L319.671 83.752V40.592C319.671 34.6987 318.111 31.3013 314.991 30.4V29.152Z" fill="#111111"/>
<path d="M442.68 96.648C444.205 96.1627 445.245 95.1573 445.8 93.632C446.354 92.1067 446.632 89.368 446.632 85.416V41.632C446.632 37.68 446.354 34.9413 445.8 33.416C445.245 31.8213 444.205 30.816 442.68 30.4V29.152H465.664C472.181 29.152 477.346 30.3307 481.16 32.688C485.042 34.976 486.984 38.096 486.984 42.048C486.984 45.6533 485.701 48.808 483.136 51.512C480.64 54.1467 476.757 55.9493 471.488 56.92C479.114 57.2667 484.869 59.1387 488.752 62.536C492.634 65.9333 494.61 70.1973 494.68 75.328C494.749 78.1707 494.194 80.9093 493.016 83.544C491.906 86.1093 490.138 88.5013 487.712 90.72C485.354 92.9387 482.026 94.7067 477.728 96.024C473.429 97.272 468.437 97.896 462.752 97.896H442.68V96.648ZM454.64 56.712H463.792C468.437 56.712 471.973 55.5333 474.4 53.176C476.826 50.7493 478.04 47.6293 478.04 43.816C478.04 39.5173 476.653 36.2587 473.88 34.04C471.106 31.752 467.224 30.608 462.232 30.608C461.469 30.608 460.464 30.608 459.216 30.608C457.968 30.608 456.893 30.6427 455.992 30.712H454.64V56.712ZM454.64 87.912C454.64 91.448 454.952 93.7707 455.576 94.88C456.269 95.92 457.656 96.44 459.736 96.44H463.584C471.28 96.44 476.896 94.776 480.432 91.448C483.968 88.12 485.736 83.544 485.736 77.72C485.736 71.7573 484.002 67.008 480.536 63.472C477.069 59.936 471.8 58.168 464.728 58.168H454.64V87.912ZM554.585 96.336C554.724 96.336 554.897 96.336 555.105 96.336C555.313 96.336 555.487 96.336 555.625 96.336C555.764 96.336 555.833 96.336 555.833 96.336V97.792C555.071 97.792 553.719 97.8267 551.777 97.896C549.905 97.896 548.623 97.896 547.929 97.896C547.028 97.896 546.161 97.7227 545.329 97.376C544.497 97.0293 543.804 96.648 543.249 96.232C542.764 95.816 542.175 95.1227 541.481 94.152C540.857 93.1813 540.372 92.4533 540.025 91.968C539.748 91.4133 539.263 90.4427 538.569 89.056C537.945 87.6693 537.495 86.7333 537.217 86.248C537.079 85.9013 536.559 84.7573 535.657 82.816C534.825 80.8747 533.82 78.6907 532.641 76.264C531.532 73.768 530.492 71.6187 529.521 69.816C529.452 69.6773 529.313 69.4347 529.105 69.088C528.065 67.216 527.268 65.9333 526.713 65.24C526.228 64.4773 525.535 63.8187 524.633 63.264C523.732 62.7093 522.588 62.432 521.201 62.432C519.745 62.432 518.151 62.432 516.417 62.432C514.684 62.432 513.332 62.432 512.361 62.432H510.905V85.416C510.905 89.4373 511.183 92.2107 511.737 93.736C512.292 95.192 513.332 96.1627 514.857 96.648V97.896H498.945V96.648C500.471 96.1627 501.511 95.192 502.065 93.736C502.62 92.2107 502.897 89.4373 502.897 85.416V41.632C502.897 37.6107 502.62 34.8373 502.065 33.312C501.511 31.7867 500.471 30.816 498.945 30.4V29.152C509.9 29.0827 516.279 29.048 518.081 29.048C535.484 29.048 544.185 34.664 544.185 45.896C544.185 54.2853 538.847 59.52 528.169 61.6C530.457 61.9467 532.468 62.8827 534.201 64.408C536.004 65.9333 537.668 68.2907 539.193 71.48C539.817 72.7973 540.615 74.6 541.585 76.888C542.625 79.176 543.319 80.632 543.665 81.256C544.289 82.4347 544.983 83.7867 545.745 85.312C546.508 86.8373 547.097 88.016 547.513 88.848C547.929 89.6107 548.415 90.4773 548.969 91.448C549.524 92.4187 549.975 93.1467 550.321 93.632C550.737 94.1173 551.188 94.6027 551.673 95.088C552.159 95.5733 552.609 95.92 553.025 96.128C553.511 96.2667 554.031 96.336 554.585 96.336ZM510.905 30.816V60.976H519.225C524.633 60.976 528.724 59.6933 531.497 57.128C534.34 54.4933 535.761 51.0267 535.761 46.728C535.761 42.0133 534.271 38.2 531.289 35.288C528.377 32.3067 523.871 30.816 517.769 30.816H510.905ZM613.972 86.768C615.359 90.096 616.572 92.4533 617.612 93.84C618.652 95.1573 619.796 96.0933 621.044 96.648V97.896H605.756V96.648C606.727 96.44 607.351 95.608 607.628 94.152C607.975 92.6267 607.836 91.032 607.212 89.368L600.556 72H572.06C568.871 79.8347 566.756 85.0693 565.716 87.704C564.884 89.784 564.468 91.4827 564.468 92.8C564.468 94.048 564.711 94.9493 565.196 95.504C565.682 95.9893 566.444 96.3707 567.484 96.648V97.896H556.356V96.648C558.02 96.0933 559.407 95.2267 560.516 94.048C561.695 92.8693 562.943 90.5813 564.26 87.184L585.06 33.312L583.916 30.296V29.048H591.3C603.503 60.3173 611.06 79.5573 613.972 86.768ZM572.684 70.44H599.932L585.892 35.184L572.684 70.44ZM669.124 29.152H679.42V30.4C677.964 30.816 676.924 31.752 676.3 33.208C675.745 34.5947 675.468 36.9867 675.468 40.384C675.468 78.7253 675.468 97.896 675.468 97.896H674.22L628.772 39.552L628.668 85.416C628.668 89.368 628.945 92.1067 629.5 93.632C630.124 95.1573 631.164 96.1627 632.62 96.648V97.896H623.156V96.648C624.681 96.1627 625.721 95.1573 626.276 93.632C626.831 92.1067 627.108 89.368 627.108 85.416V39.968C627.108 36.7787 626.796 34.4907 626.172 33.104C625.548 31.7173 624.543 30.816 623.156 30.4V29.152H631.58L673.804 83.752V40.592C673.804 34.6987 672.244 31.3013 669.124 30.4V29.152ZM684.297 96.648C685.822 96.1627 686.862 95.1573 687.417 93.632C687.971 92.1067 688.249 89.368 688.249 85.416V41.632C688.249 37.68 687.971 34.9413 687.417 33.416C686.862 31.8213 685.822 30.816 684.297 30.4V29.152H707.801C713.001 29.152 717.75 29.8453 722.049 31.232C726.347 32.5493 729.918 34.352 732.761 36.64C735.603 38.8587 737.995 41.4933 739.937 44.544C741.878 47.5253 743.265 50.6107 744.097 53.8C744.998 56.92 745.483 60.1093 745.553 63.368C745.553 73.768 742.329 82.1227 735.881 88.432C729.433 94.7413 720.835 97.896 710.089 97.896H684.297V96.648ZM696.257 89.264C696.257 91.76 696.673 93.5973 697.505 94.776C698.406 95.8853 700.139 96.44 702.705 96.44H709.881C718.409 96.44 724.995 93.528 729.641 87.704C734.286 81.88 736.609 73.768 736.609 63.368C736.609 58.6533 735.777 54.2507 734.113 50.16C732.518 46 730.369 42.5333 727.665 39.76C725.03 36.9867 721.945 34.8373 718.409 33.312C714.873 31.7173 711.233 30.92 707.489 30.92H696.257V89.264Z" fill="#111111"/>
<path d="M367.589 49.04C367.216 49.04 366.796 49.04 366.329 49.04C365.876 49.04 365.509 49.04 365.229 49.04H364.809V54.76H367.229C368.256 54.76 368.969 54.66 369.369 54.46C369.782 54.26 370.049 53.9333 370.169 53.48H370.389V56.32H370.169C370.049 55.8667 369.782 55.54 369.369 55.34C368.969 55.14 368.256 55.04 367.229 55.04H364.809V59.58C364.809 60.3533 364.862 60.8867 364.969 61.18C365.076 61.46 365.276 61.6467 365.569 61.74V61.98H362.509V61.74C362.802 61.6467 363.002 61.4533 363.109 61.16C363.216 60.8667 363.269 60.34 363.269 59.58V51.16C363.269 50.4 363.216 49.8733 363.109 49.58C363.002 49.2733 362.802 49.08 362.509 49V48.76H367.349H371.289L371.509 51.2L371.289 51.26C370.969 50.4467 370.516 49.8733 369.929 49.54C369.356 49.2067 368.576 49.04 367.589 49.04ZM382.256 48.76H384.076V49C383.809 49.08 383.616 49.2733 383.496 49.58C383.376 49.8733 383.316 50.3467 383.316 51V56.94C383.316 57.86 383.196 58.6667 382.956 59.36C382.716 60.04 382.376 60.58 381.936 60.98C381.509 61.38 381.016 61.68 380.456 61.88C379.909 62.0667 379.296 62.16 378.616 62.16C377.896 62.16 377.229 62.0733 376.616 61.9C376.016 61.7267 375.456 61.4533 374.936 61.08C374.416 60.6933 374.003 60.1667 373.696 59.5C373.403 58.82 373.256 58.02 373.256 57.1V50.82C373.256 50.22 373.196 49.7867 373.076 49.52C372.969 49.2533 372.783 49.08 372.516 49V48.76H375.576V49C375.309 49.08 375.116 49.2533 374.996 49.52C374.889 49.7733 374.829 50.2067 374.816 50.82V57C374.816 58.6533 375.216 59.8667 376.016 60.64C376.816 61.4 377.883 61.78 379.216 61.78C379.656 61.78 380.083 61.7 380.496 61.54C380.923 61.38 381.329 61.1267 381.716 60.78C382.103 60.4333 382.416 59.94 382.656 59.3C382.896 58.6467 383.016 57.88 383.016 57L382.996 50.94C382.996 50.3133 382.936 49.8533 382.816 49.56C382.709 49.2667 382.523 49.08 382.256 49V48.76ZM394.26 59.8L394.46 59.84L394.12 61.98H385.34V61.74C385.633 61.6467 385.833 61.4533 385.94 61.16C386.047 60.8667 386.1 60.34 386.1 59.58V50.84C386.1 50.2267 386.04 49.7867 385.92 49.52C385.813 49.2533 385.62 49.08 385.34 49V48.76H388.4V49C388.12 49.08 387.92 49.26 387.8 49.54C387.693 49.8067 387.64 50.2667 387.64 50.92V60.82C387.64 61.3933 387.927 61.68 388.5 61.68H390.74C391.7 61.68 392.467 61.54 393.04 61.26C393.613 60.9667 394.02 60.48 394.26 59.8ZM404.27 59.8L404.47 59.84L404.13 61.98H395.35V61.74C395.643 61.6467 395.843 61.4533 395.95 61.16C396.056 60.8667 396.11 60.34 396.11 59.58V50.84C396.11 50.2267 396.05 49.7867 395.93 49.52C395.823 49.2533 395.63 49.08 395.35 49V48.76H398.41V49C398.13 49.08 397.93 49.26 397.81 49.54C397.703 49.8067 397.65 50.2667 397.65 50.92V60.82C397.65 61.3933 397.936 61.68 398.51 61.68H400.75C401.71 61.68 402.476 61.54 403.05 61.26C403.623 60.9667 404.03 60.48 404.27 59.8ZM352.819 77.58C353.352 77.78 353.765 77.9467 354.059 78.08C354.365 78.2133 354.725 78.4 355.139 78.64C355.552 78.88 355.865 79.12 356.079 79.36C356.292 79.5867 356.479 79.88 356.639 80.24C356.799 80.5867 356.879 80.9667 356.879 81.38C356.879 82.5133 356.439 83.4333 355.559 84.14C354.679 84.8333 353.645 85.18 352.459 85.18C351.805 85.18 351.112 85.0467 350.379 84.78C349.645 84.5133 349.025 84.1867 348.519 83.8C348.025 83.4133 347.752 83.04 347.699 82.68C347.645 82.4 347.705 82.1733 347.879 82C348.052 81.8267 348.259 81.7467 348.499 81.76C348.752 81.76 348.959 81.8467 349.119 82.02C349.185 82.0867 349.339 82.3 349.579 82.66C349.832 83.0067 350.072 83.3267 350.299 83.62C350.539 83.9133 350.872 84.1933 351.299 84.46C351.725 84.7133 352.172 84.84 352.639 84.84C353.425 84.84 354.125 84.6067 354.739 84.14C355.352 83.66 355.659 83.0533 355.659 82.32C355.659 82.0267 355.605 81.7533 355.499 81.5C355.405 81.2333 355.245 80.9933 355.019 80.78C354.805 80.5667 354.599 80.38 354.399 80.22C354.199 80.06 353.925 79.8933 353.579 79.72C353.232 79.5467 352.959 79.42 352.759 79.34C352.559 79.2467 352.279 79.1267 351.919 78.98C351.839 78.9533 351.779 78.9333 351.739 78.92C351.112 78.6667 350.605 78.44 350.219 78.24C349.832 78.04 349.459 77.8 349.099 77.52C348.752 77.2267 348.499 76.8933 348.339 76.52C348.179 76.1467 348.099 75.72 348.099 75.24C348.099 74.1333 348.519 73.2533 349.359 72.6C350.199 71.9467 351.319 71.62 352.719 71.62C353.239 71.62 353.839 71.7067 354.519 71.88C355.212 72.04 355.732 72.28 356.079 72.6C356.332 72.8133 356.365 73.06 356.179 73.34C356.005 73.6067 355.739 73.6867 355.379 73.58C355.245 73.54 355.059 73.4267 354.819 73.24C354.592 73.0533 354.365 72.8667 354.139 72.68C353.912 72.48 353.612 72.3067 353.239 72.16C352.865 72 352.485 71.92 352.099 71.92C351.285 71.92 350.612 72.1467 350.079 72.6C349.545 73.04 349.279 73.6467 349.279 74.42C349.279 74.74 349.345 75.0467 349.479 75.34C349.625 75.62 349.792 75.8533 349.979 76.04C350.165 76.2267 350.432 76.4267 350.779 76.64C351.139 76.84 351.425 76.9867 351.639 77.08C351.865 77.1733 352.192 77.3067 352.619 77.48C352.712 77.52 352.779 77.5533 352.819 77.58ZM358.159 84.74C358.452 84.6467 358.652 84.4533 358.759 84.16C358.865 83.8667 358.919 83.34 358.919 82.58V74.16C358.919 73.4 358.865 72.8733 358.759 72.58C358.652 72.2733 358.452 72.08 358.159 72V71.76H366.939L367.159 74.2L366.939 74.26C366.619 73.4467 366.165 72.8733 365.579 72.54C365.005 72.2067 364.225 72.04 363.239 72.04C362.865 72.04 362.445 72.04 361.979 72.04C361.525 72.04 361.159 72.0333 360.879 72.02H360.459V77.76H362.879C363.905 77.76 364.619 77.66 365.019 77.46C365.432 77.26 365.699 76.9333 365.819 76.48H366.039V79.32H365.819C365.699 78.8667 365.432 78.54 365.019 78.34C364.619 78.14 363.905 78.04 362.879 78.04H360.459V83.84C360.459 84.4133 360.745 84.7 361.319 84.7H363.779C364.725 84.7 365.485 84.5333 366.059 84.2C366.632 83.8667 367.085 83.2733 367.419 82.42L367.619 82.46L367.479 84.98H358.159V84.74ZM379.591 84.68C379.617 84.68 379.651 84.68 379.691 84.68C379.731 84.68 379.764 84.68 379.791 84.68C379.817 84.68 379.831 84.68 379.831 84.68V84.96C379.684 84.96 379.424 84.9667 379.051 84.98C378.691 84.98 378.444 84.98 378.311 84.98C378.137 84.98 377.971 84.9467 377.811 84.88C377.651 84.8133 377.517 84.74 377.411 84.66C377.317 84.58 377.204 84.4467 377.071 84.26C376.951 84.0733 376.857 83.9333 376.791 83.84C376.737 83.7333 376.644 83.5467 376.511 83.28C376.391 83.0133 376.304 82.8333 376.251 82.74C376.224 82.6733 376.124 82.4533 375.951 82.08C375.791 81.7067 375.597 81.2867 375.371 80.82C375.157 80.34 374.957 79.9267 374.771 79.58C374.757 79.5533 374.731 79.5067 374.691 79.44C374.491 79.08 374.337 78.8333 374.231 78.7C374.137 78.5533 374.004 78.4267 373.831 78.32C373.657 78.2133 373.437 78.16 373.171 78.16C372.891 78.16 372.584 78.16 372.251 78.16C371.917 78.16 371.657 78.16 371.471 78.16H371.191V82.58C371.191 83.3533 371.244 83.8867 371.351 84.18C371.457 84.46 371.657 84.6467 371.951 84.74V84.98H368.891V84.74C369.184 84.6467 369.384 84.46 369.491 84.18C369.597 83.8867 369.651 83.3533 369.651 82.58V74.16C369.651 73.3867 369.597 72.8533 369.491 72.56C369.384 72.2667 369.184 72.08 368.891 72V71.76C370.997 71.7467 372.224 71.74 372.571 71.74C375.917 71.74 377.591 72.82 377.591 74.98C377.591 76.5933 376.564 77.6 374.511 78C374.951 78.0667 375.337 78.2467 375.671 78.54C376.017 78.8333 376.337 79.2867 376.631 79.9C376.751 80.1533 376.904 80.5 377.091 80.94C377.291 81.38 377.424 81.66 377.491 81.78C377.611 82.0067 377.744 82.2667 377.891 82.56C378.037 82.8533 378.151 83.08 378.231 83.24C378.311 83.3867 378.404 83.5533 378.511 83.74C378.617 83.9267 378.704 84.0667 378.771 84.16C378.851 84.2533 378.937 84.3467 379.031 84.44C379.124 84.5333 379.211 84.6 379.291 84.64C379.384 84.6667 379.484 84.68 379.591 84.68ZM371.191 72.08V77.88H372.791C373.831 77.88 374.617 77.6333 375.151 77.14C375.697 76.6333 375.971 75.9667 375.971 75.14C375.971 74.2333 375.684 73.5 375.111 72.94C374.551 72.3667 373.684 72.08 372.511 72.08H371.191ZM388.855 71.74H390.655V71.94C390.175 72.1267 389.742 72.7067 389.355 73.68L384.895 85.08H384.375L380.055 74.2C379.535 72.92 379.029 72.1867 378.535 72V71.76H381.595V72C381.342 72.0667 381.209 72.24 381.195 72.52C381.195 72.7867 381.289 73.1533 381.475 73.62C381.489 73.66 381.809 74.4933 382.435 76.12C383.075 77.7333 383.709 79.34 384.335 80.94L385.255 83.34C387.722 76.8733 388.962 73.6333 388.975 73.62C389.149 73.14 389.229 72.76 389.215 72.48C389.215 72.2 389.095 72.0267 388.855 71.96V71.74ZM394.469 72C394.189 72.08 393.989 72.26 393.869 72.54C393.763 72.8067 393.709 73.2667 393.709 73.92V82.58C393.709 83.34 393.763 83.8667 393.869 84.16C393.976 84.4533 394.176 84.6467 394.469 84.74V84.98H391.409V84.74C391.703 84.6467 391.903 84.4533 392.009 84.16C392.116 83.8667 392.169 83.34 392.169 82.58V73.84C392.169 73.2267 392.109 72.7867 391.989 72.52C391.869 72.2533 391.676 72.08 391.409 72V71.76H394.469V72ZM402.973 85.18C401.693 85.18 400.506 84.92 399.413 84.4C398.333 83.88 397.453 83.1067 396.773 82.08C396.106 81.0533 395.773 79.88 395.773 78.56C395.773 77.5867 395.966 76.6667 396.353 75.8C396.739 74.9333 397.233 74.2067 397.833 73.62C398.446 73.02 399.119 72.54 399.853 72.18C400.599 71.8067 401.339 71.5933 402.073 71.54C404.433 71.3667 406.079 71.86 407.013 73.02C407.293 73.4067 407.346 73.7533 407.173 74.06C407.013 74.3667 406.759 74.52 406.413 74.52C406.199 74.52 405.993 74.4333 405.793 74.26C405.606 74.0733 405.419 73.8533 405.233 73.6C405.059 73.3333 404.866 73.0733 404.653 72.82C404.439 72.5667 404.159 72.3533 403.813 72.18C403.479 71.9933 403.106 71.9 402.693 71.9C401.133 71.9 399.853 72.4133 398.853 73.44C397.853 74.4533 397.353 75.8933 397.353 77.76C397.353 78.6533 397.486 79.5133 397.753 80.34C398.019 81.1667 398.399 81.9067 398.893 82.56C399.399 83.2133 400.039 83.74 400.813 84.14C401.599 84.5267 402.473 84.72 403.433 84.72C403.993 84.72 404.546 84.6 405.093 84.36C405.653 84.1067 406.133 83.8 406.533 83.44C406.933 83.08 407.273 82.7267 407.553 82.38C407.833 82.0333 408.033 81.7267 408.153 81.46L408.473 81.68C408.313 81.9333 408.206 82.1067 408.153 82.2C408.099 82.28 407.953 82.4733 407.713 82.78C407.473 83.0867 407.266 83.32 407.093 83.48C406.933 83.6267 406.686 83.8333 406.353 84.1C406.033 84.3533 405.719 84.5467 405.413 84.68C405.106 84.8133 404.739 84.9267 404.313 85.02C403.886 85.1267 403.439 85.18 402.973 85.18ZM409.377 84.74C409.671 84.6467 409.871 84.4533 409.977 84.16C410.084 83.8667 410.137 83.34 410.137 82.58V74.16C410.137 73.4 410.084 72.8733 409.977 72.58C409.871 72.2733 409.671 72.08 409.377 72V71.76H418.157L418.377 74.2L418.157 74.26C417.837 73.4467 417.384 72.8733 416.797 72.54C416.224 72.2067 415.444 72.04 414.457 72.04C414.084 72.04 413.664 72.04 413.197 72.04C412.744 72.04 412.377 72.0333 412.097 72.02H411.677V77.76H414.097C415.124 77.76 415.837 77.66 416.237 77.46C416.651 77.26 416.917 76.9333 417.037 76.48H417.257V79.32H417.037C416.917 78.8667 416.651 78.54 416.237 78.34C415.837 78.14 415.124 78.04 414.097 78.04H411.677V83.84C411.677 84.4133 411.964 84.7 412.537 84.7H414.997C415.944 84.7 416.704 84.5333 417.277 84.2C417.851 83.8667 418.304 83.2733 418.637 82.42L418.837 82.46L418.697 84.98H409.377V84.74Z" fill="#111111"/>
</svg>
