<svg width="136" height="11" viewBox="0 0 136 11" fill="none" xmlns="http://www.w3.org/2000/svg">
<path d="M63.8571 7.66284H56.6494V0.359375H54.2109V6.82609C54.2109 8.72667 55.7529 10.2687 57.6534 10.2687H62.8649C64.7655 10.2687 66.3074 8.72667 66.3074 6.82609V0.359375H63.869V7.66284H63.8571Z" fill="#9C9C9C"/>
<path d="M123.488 10.0491H135.107V7.62262H125.771V2.81736H135.107V0.378906H123.488V10.0491Z" fill="#9C9C9C"/>
<path d="M92.8398 10.0473H104.386V7.6208H95.2782V0.472656H92.8398V10.0473Z" fill="#9C9C9C"/>
<path d="M108.133 0.472656H105.707V10.1549H108.133V0.472656Z" fill="#9C9C9C"/>
<path d="M111.766 0.359375H109.34V10.1372H111.766V0.359375Z" fill="#9C9C9C"/>
<path d="M122.204 0.359375H119.777V10.1372H122.204V0.359375Z" fill="#9C9C9C"/>
<path d="M113.833 1.48546L111.938 3L117.197 9.5841L119.093 8.06956L113.833 1.48546Z" fill="#9C9C9C"/>
<path d="M135.111 4.08594H125.465V6.5125H135.111V4.08594Z" fill="#9C9C9C"/>
<path d="M78.6617 4.75269V2.66086C78.6617 1.20256 77.3588 0.473404 76.5938 0.270197L76.4384 0.234375H67.4258V10.1437H69.8523V7.14336H76.1515C76.1874 7.26289 76.2232 7.44222 76.2232 7.69324V10.1437H78.6497V7.69324C78.6497 6.92823 78.4705 6.35445 78.2912 5.95999C78.4944 5.58944 78.6139 5.15911 78.6497 4.75269M69.8403 2.66086H76.0559C76.0559 2.66086 76.1754 2.72065 76.2113 2.75651V4.58533C76.2113 4.58533 76.1874 4.68101 76.1754 4.71687H69.8284V2.66086H69.8403Z" fill="#9C9C9C"/>
<path d="M89.5107 10.3097H80.4025V7.88311H89.3673C89.451 7.78748 89.6064 7.52457 89.6064 7.04643C89.6064 6.78346 89.4032 6.59217 89.2598 6.48459H82.2792C81.0719 6.48459 79.793 5.44468 79.793 3.53215C79.793 1.73915 81.1915 0.914341 81.9325 0.735041L82.076 0.699219H91.1842V3.12571H82.4346C82.2194 3.23329 82.2194 3.44848 82.2194 3.53215C82.2194 3.84294 82.2911 4.01029 82.3509 4.0581H89.8096L90.0367 4.15368C90.7778 4.46446 92.0449 5.42072 92.0449 7.05833C92.0449 9.06648 90.7419 10.3216 89.5227 10.3216" fill="#9C9C9C"/>
<path d="M3.70516 7.69642V2.91509H12.7656V0.476562H4.25499C2.35445 0.476562 0.8125 2.01855 0.8125 3.91913V6.70427C0.8125 8.60485 2.35445 10.1468 4.25499 10.1468H12.7656V7.70838H3.70516V7.69642Z" fill="#9C9C9C"/>
<path d="M17.3753 0.717197L13.168 8.95703L15.329 10.0606L19.5364 1.82072L17.3753 0.717197Z" fill="#9C9C9C"/>
<path d="M21.7661 0.731678L19.6055 1.83594L23.8157 10.0743L25.9764 8.97001L21.7661 0.731678Z" fill="#9C9C9C"/>
<path d="M28.9069 0.359375H26.4805V10.1372H28.9069V0.359375Z" fill="#9C9C9C"/>
<path d="M30.0881 0.597998L27.8789 1.60156L31.7546 10.1339L33.9639 9.13032L30.0881 0.597998Z" fill="#9C9C9C"/>
<path d="M40.1569 0.359375H37.7305V10.1372H40.1569V0.359375Z" fill="#9C9C9C"/>
<path d="M36.5296 0.593321L32.6523 9.125L34.8614 10.129L38.7387 1.59729L36.5296 0.593321Z" fill="#9C9C9C"/>
<path d="M41.3906 5.9268V6.52446V10.1463H43.8171V6.52446H52.5548V4.08594H41.3906V5.9268Z" fill="#9C9C9C"/>
<path d="M52.5548 0.378906H41.3906V2.80539H52.5548V0.378906Z" fill="#9C9C9C"/>
</svg>
