<svg width="127" height="31" viewBox="0 0 127 31" fill="none" xmlns="http://www.w3.org/2000/svg">
<path d="M73.9469 11.1656C74.3772 13.0661 75.8354 14.4408 77.2937 15.1341L76.6124 15.9349C75.5844 15.6122 73.8631 14.644 72.7873 13.0781C71.7235 14.6082 70.0382 15.6839 68.9504 16.0186L68.293 15.2178C69.7751 14.5125 71.2096 13.114 71.616 11.1775H68.7114V10.1496H71.7235V8.5H73.8512V10.1496H76.9112V11.1775H73.9707L73.9469 11.1656ZM78.9073 19.2819V17.7399H70.9347V16.7H80.9155V20.262H72.9308V21.4335C72.9308 21.6726 73.0264 21.7801 73.2894 21.7801H81.1306V22.8081H72.2016C71.3769 22.8081 70.9586 22.3061 70.9586 21.553V19.27H78.9073V19.2819ZM80.9155 15.8394H78.8834V8.87055H80.9155V15.8394Z" fill="#9C9C9C"/>
<path d="M88.5624 10.4809C88.5624 12.9313 90.1043 14.4733 92.0048 15.4415L91.3234 16.2543C90.2955 15.9316 88.5862 15.059 87.4985 13.4931C86.4347 15.059 84.7255 16.087 83.6616 16.4097L82.9922 15.6089C84.7254 14.7961 86.3868 12.9791 86.3868 10.5168V9.2497H88.5624V10.4809ZM94.9453 20.1033C94.9453 21.992 93.2838 23.247 91.1084 23.247C88.9329 23.247 87.2713 21.992 87.2713 20.1033C87.2713 18.2147 88.9449 16.9715 91.1084 16.9715C93.2719 16.9715 94.9453 18.2386 94.9453 20.1033ZM89.3034 20.1033C89.3034 21.215 89.925 22.1952 91.0964 22.1952C92.2678 22.1952 92.9133 21.203 92.9133 20.1033C92.9133 19.0036 92.2917 18.0115 91.0964 18.0115C89.9011 18.0115 89.3034 19.0395 89.3034 20.1033ZM95.5668 8.86719V16.8879H93.5467V12.5847H90.7378V11.5567H93.5467V8.87915H95.5668V8.86719Z" fill="#9C9C9C"/>
<path d="M111.45 16.8103H97.8594V15.7823H111.45V16.8103ZM109.597 18.0176V22.8228H100.728C99.9152 22.8228 99.473 22.3208 99.473 21.5677V18.0176H109.597ZM108.737 11.6465C108.737 13.7742 106.573 14.7185 104.601 14.7185C102.629 14.7185 100.465 13.7622 100.465 11.6465C100.465 9.53074 102.617 8.5625 104.601 8.5625C106.585 8.5625 108.737 9.49488 108.737 11.6465ZM101.457 21.4482C101.457 21.6873 101.553 21.7948 101.816 21.7948H107.637V19.0456H101.457V21.4482ZM102.437 11.6465C102.437 12.7462 103.286 13.6905 104.601 13.6905C105.916 13.6905 106.764 12.7462 106.764 11.6465C106.764 10.5468 105.892 9.59047 104.601 9.59047C103.31 9.59047 102.437 10.5229 102.437 11.6465Z" fill="#9C9C9C"/>
<path d="M123.06 17.56V19.9865H126.407V21.0264H112.84V19.9865H116.235V17.56H115.458C114.896 17.56 114.43 17.1416 114.43 16.5439V13.3046H122.606V11.153H114.43V10.125H124.566V14.3326H116.426V16.0897C116.426 16.3885 116.533 16.5081 116.808 16.5081H124.733V17.548H123.048L123.06 17.56ZM118.255 19.9865H121.028V17.56H118.255V19.9865Z" fill="#9C9C9C"/>
<path d="M63.7078 22.8287H65.7877V8.87915H63.7078V22.8287ZM60.3729 13.9115H57.7672V15.1427H60.3729V18.0832C59.8589 18.2864 59.4047 18.394 58.7234 18.394H55.759C55.4841 18.394 55.2571 18.1669 55.2571 17.8919V10.9471H59.07V9.94302H53.1055V18.394C53.1055 18.9558 53.5596 19.3981 54.0975 19.3981H58.7234C59.4286 19.3981 60.0023 19.2785 60.3729 19.0395V22.8167H62.4527V8.86719H60.3729V13.8996V13.9115Z" fill="#9C9C9C"/>
<path d="M44.7479 16.2451V14.8705H49.3378V13.8783H40.6958C40.4209 13.8783 40.1937 13.6632 40.1937 13.3763V12.5037H49.1585V9.13281H38.0422V10.125H46.9951V11.4996H38.0422V13.8903C38.0422 14.4521 38.4964 14.8824 39.0462 14.8824H42.5963V16.257H36.8828V17.2611H50.5092V16.257H44.7598L44.7479 16.2451ZM44.8077 17.8946H42.3932C41.7477 20.5483 38.604 21.8751 37.4565 22.0425L38.0662 22.927C39.2495 22.7836 41.927 21.8273 43.6124 19.9865C45.2858 21.8273 47.9633 22.7836 49.1467 22.927L49.7443 22.0425C48.5849 21.8751 45.4412 20.5483 44.8077 17.8946Z" fill="#9C9C9C"/>
<path d="M27.5069 9.67312L21.2316 3.39762C17.8369 0.00287628 12.2668 0.00287628 8.87215 3.39762L2.59678 9.67312C-0.797887 13.0679 -0.797887 18.6381 2.59678 22.0329L8.87215 28.3203C12.2668 31.715 17.8369 31.715 21.2316 28.3203L27.5069 22.0329C30.9016 18.6381 30.9016 13.0798 27.5069 9.67312ZM11.3583 25.069C11.3583 25.069 11.3345 25.069 11.3226 25.069C10.8206 25.069 10.4141 24.6745 10.4022 24.1725C10.4022 23.9215 10.4738 23.6944 10.6412 23.5031C10.8085 23.3238 11.0357 23.2162 11.2867 23.2043C11.8007 23.1804 12.2309 23.5748 12.2548 24.1008C12.2787 24.6148 11.8723 25.0451 11.3583 25.069ZM22.5106 21.1961C21.2317 23.2163 19.5582 24.6387 18.0163 24.9973C18.0163 24.9973 17.9923 24.9973 17.9804 24.9973C17.6935 25.0451 17.4187 25.081 17.1557 25.081C16.1636 25.081 15.4582 24.6984 14.9562 24.3757C14.4661 24.053 14.0001 23.6107 13.5817 23.0728C10.9281 19.6661 10.7488 13.271 10.7369 12.5538C10.713 10.8565 10.952 8.54953 12.2787 7.23467C12.9242 6.58919 13.737 6.26645 14.6933 6.26645H14.8487C15.8049 6.26645 16.6178 6.58919 17.2632 7.23467C18.59 8.54953 18.8411 10.8565 18.8052 12.5538C18.7813 14.3229 18.4585 17.7536 16.6177 20.8376C16.4623 21.0886 16.1874 21.2439 15.9006 21.2439C15.7571 21.2439 15.6017 21.2081 15.4703 21.1244C15.0758 20.8854 14.9443 20.3833 15.1834 19.9769C16.4743 17.8253 17.0959 15.4585 17.1437 12.518C17.1796 10.5696 16.809 9.11131 16.0918 8.40607C15.7691 8.08333 15.3507 7.91601 14.8487 7.91601H14.7052C14.1913 7.91601 13.7848 8.07137 13.4621 8.40607C12.7449 9.11131 12.3743 10.5696 12.4102 12.518C12.4461 14.9206 13.0199 19.6183 14.9085 22.0448C15.2193 22.4392 15.542 22.7501 15.8886 22.9772C16.2233 23.1923 16.5938 23.4075 17.1795 23.4075C17.3349 23.4075 17.5023 23.3955 17.6816 23.3597C18.7573 23.0967 20.12 21.9014 21.124 20.2996C21.2794 20.0606 21.5424 19.9052 21.8292 19.9052C21.9846 19.9052 22.14 19.953 22.2715 20.0366C22.4627 20.1562 22.5943 20.3355 22.6421 20.5626C22.6899 20.7777 22.6421 21.0049 22.5346 21.1961H22.5106Z" fill="#9C9C9C"/>
</svg>
