<svg width="131" height="12" viewBox="0 0 131 12" fill="none" xmlns="http://www.w3.org/2000/svg">
<path d="M4.45842 0.382812H0.800781V11.356H4.45842V0.382812Z" fill="#9C9C9C"/>
<path d="M19.0951 0.382812H15.4375V11.356H19.0951V0.382812Z" fill="#9C9C9C"/>
<path d="M26.3959 0.382812H22.7383V11.356H26.3959V0.382812Z" fill="#9C9C9C"/>
<path d="M33.7162 0.382812H30.0586V11.356H33.7162V0.382812Z" fill="#9C9C9C"/>
<path d="M41.0326 0.382812H37.375V11.356H41.0326V0.382812Z" fill="#9C9C9C"/>
<path d="M48.3529 0.382812H44.6953V11.356H48.3529V0.382812Z" fill="#9C9C9C"/>
<path d="M62.9819 0.382812H59.3242V11.356H62.9819V0.382812Z" fill="#9C9C9C"/>
<path d="M13.6161 4.03906H6.30078V7.69678H13.6161V4.03906Z" fill="#9C9C9C"/>
<path d="M51.2495 0.385358L48.6641 2.97266L53.8385 8.14364L56.424 5.55634L51.2495 0.385358Z" fill="#9C9C9C"/>
<path d="M98.9901 8.19941C99.014 9.38279 99.8866 10.3869 101.046 10.3869C102.206 10.3869 103.174 9.49042 103.174 8.24727C103.174 7.66156 102.899 7.0758 102.468 6.70525C101.99 6.28688 101.464 6.14347 100.879 5.98808C100.245 5.80878 99.5878 5.64143 99.0738 5.16329C98.5 4.6493 98.2132 3.92014 98.2132 3.14318C98.2132 1.39799 99.5161 0.226562 101.13 0.226562C102.743 0.226562 103.963 1.50559 103.951 3.16711H102.875C102.803 2.0674 102.05 1.2665 100.998 1.2665C99.9942 1.2665 99.2412 2.13912 99.2412 3.16711C99.2412 4.47002 100.269 4.78078 101.273 5.07961C102.002 5.29477 102.648 5.42628 103.245 6.00004C103.855 6.56185 104.202 7.41049 104.202 8.27113C104.202 10.0641 102.743 11.4508 101.082 11.4508C99.3368 11.4508 97.8905 10.112 97.9024 8.22334H99.0021L98.9901 8.19941Z" fill="#9C9C9C"/>
<path d="M125.232 9.59885L128.782 0.382812H130.443V11.356H129.379V1.80526L125.71 11.356H124.742L121.06 1.81723V11.356H119.996V0.382812H121.622L125.232 9.59885Z" fill="#9C9C9C"/>
<path d="M112.824 0.382812H118.502V1.36299H113.888V5.15218H118.442V6.19211H113.888V10.3518H118.502V11.356H112.824V0.382812Z" fill="#9C9C9C"/>
<path d="M87.9414 11.356H88.9933V1.70961L95.3882 11.356H96.4401V0.382812H95.3882V9.38363L89.3519 0.382812H87.9414V11.356Z" fill="#9C9C9C"/>
<path d="M75.0547 0.382812H76.1782V11.356H75.0547V6.20408H69.5443V11.356H68.4805V0.382812H69.5443V5.21193H75.0547V0.382812Z" fill="#9C9C9C"/>
<path d="M106.037 8.19941C106.061 9.38279 106.934 10.3869 108.093 10.3869C109.252 10.3869 110.221 9.49042 110.221 8.24727C110.221 7.66156 109.946 7.0758 109.515 6.70525C109.037 6.28688 108.511 6.14347 107.926 5.98808C107.292 5.80878 106.635 5.64143 106.121 5.16329C105.547 4.6493 105.26 3.92014 105.26 3.14318C105.26 1.39799 106.563 0.226562 108.177 0.226562C109.79 0.226562 111.009 1.50559 110.998 3.16711H109.922C109.85 2.0674 109.097 1.2665 108.045 1.2665C107.053 1.2665 106.288 2.13912 106.288 3.16711C106.288 4.47002 107.316 4.78078 108.32 5.07961C109.049 5.29477 109.695 5.42628 110.292 6.00004C110.902 6.56185 111.249 7.41049 111.249 8.27113C111.249 10.0641 109.79 11.4508 108.129 11.4508C106.384 11.4508 104.937 10.112 104.949 8.22334H106.049L106.037 8.19941Z" fill="#9C9C9C"/>
<path d="M87.1742 11.356H86.0267L84.4608 7.59063H79.6079L78.0421 11.356H76.8945L81.4606 0.382812H82.632L87.1742 11.356ZM82.0463 1.64986L80.0024 6.63438H84.0544L82.0463 1.64986Z" fill="#9C9C9C"/>
</svg>
