<svg width="140" height="34" viewBox="0 0 140 34" fill="none" xmlns="http://www.w3.org/2000/svg">
<path d="M6.21638 0.951362C4.26803 0.951362 2.30773 0.903517 0.359375 0.84375C0.431093 1.09477 0.466953 1.32192 0.466953 1.54903C0.466953 1.80005 0.431093 2.05105 0.359375 2.27816C1.6264 2.12277 3.64647 2.02712 5.21232 2.02712C5.26013 3.593 5.28404 5.15895 5.28404 6.72484V10.6335C5.28404 12.5819 5.18842 14.5543 5.10474 16.5146C5.48724 16.4429 5.85779 16.395 6.21638 16.395C6.57497 16.395 6.94552 16.4429 7.32801 16.5146C7.24434 14.5543 7.14872 12.5819 7.14872 10.6335V6.72484C7.14872 5.15895 7.17262 3.593 7.22044 2.02712C8.78629 2.02712 10.8064 2.12277 12.0734 2.27816C12.0017 2.05105 11.9539 1.80007 11.9539 1.57296C11.9539 1.32194 12.0017 1.09477 12.0734 0.84375C10.125 0.91547 8.16473 0.951362 6.21638 0.951362Z" fill="#9C9C9C"/>
<path d="M29.4374 3.00457V2.96875H29.4015C29.031 3.04047 28.7321 3.07629 28.4453 3.07629C28.1584 3.07629 27.8596 3.04048 27.501 2.98071H27.4651V3.00457C27.5488 4.65413 27.6205 6.36351 27.6205 8.06088V8.7183L26.2937 8.74223L23.5684 8.77805L20.8431 8.74223C20.8431 8.74223 19.5522 8.7183 19.5044 8.7183V8.06088C19.5044 6.44718 19.5761 4.80952 19.6598 3.00457V2.96875H19.6358C19.2653 3.02852 18.9665 3.0644 18.6796 3.0644C18.3927 3.0644 18.0939 3.02852 17.7234 2.96875H17.6875V2.99268V3.05243C17.7592 4.69004 17.8429 6.3874 17.8429 8.04891V11.4078C17.8429 13.0693 17.7592 14.7667 17.6875 16.4162V16.4999H17.7114C18.082 16.4282 18.3808 16.4043 18.6677 16.4043C18.9545 16.4043 19.2534 16.4402 19.6239 16.4999H19.6598V16.476C19.5761 14.671 19.5044 13.0335 19.5044 11.4198V9.68651H19.6956L23.5565 9.65062L27.4293 9.68651C27.4293 9.68651 27.5846 9.68651 27.6205 9.68651V11.4198C27.6205 13.1291 27.5488 14.8264 27.4651 16.476V16.4999H27.501C27.8715 16.4282 28.1703 16.3923 28.4453 16.3923C28.7202 16.3923 29.031 16.4282 29.4015 16.488H29.4374V16.464C29.3537 14.8025 29.282 13.0813 29.282 11.4078V8.04891C29.282 6.36349 29.3537 4.65419 29.4374 2.99268" fill="#9C9C9C"/>
<path d="M45.5303 15.2802H45.4944C44.323 15.5073 42.1834 15.5432 40.247 15.5432C40.2351 15.1248 40.2112 14.2043 40.2112 12.6385C40.2112 10.8096 40.2112 10.2956 40.2351 9.82945C41.0359 9.82945 43.558 9.86534 44.9565 10.0088H44.9924V9.97289C44.9565 9.78164 44.9326 9.59041 44.9326 9.39915C44.9326 9.2079 44.9565 8.98079 44.9924 8.80149V8.76559H44.9685C43.7732 8.87317 42.5062 8.96885 40.247 8.96885C40.247 8.92104 40.247 8.14407 40.247 8.14407V6.41082L40.2709 4.88076C40.2709 4.88076 40.3068 4.00822 40.3068 3.9604C42.291 3.9604 43.2831 4.04403 44.4306 4.13966L45.4466 4.22334V4.18752C45.3988 3.98431 45.3749 3.793 45.3749 3.60175C45.3749 3.41049 45.3988 3.21926 45.4347 3.02801V2.99219H45.4107C44.1437 3.05195 43.0082 3.08776 41.9324 3.08776C40.8566 3.08776 39.745 3.05195 38.4302 2.99219H38.4062V3.01604C38.4899 4.79709 38.5616 6.41082 38.5616 8.04842V11.4073C38.5616 13.1405 38.478 14.9216 38.4062 16.4875V16.5114H38.4302C39.7689 16.4397 40.8925 16.4157 41.9802 16.4157C43.0679 16.4157 44.2274 16.4516 45.4944 16.5114H45.5303V16.4755C45.4944 16.3082 45.4705 16.105 45.4705 15.9137C45.4705 15.7464 45.4944 15.4954 45.5303 15.3161V15.2802Z" fill="#9C9C9C"/>
<path d="M55.6254 3.91352C55.6254 2.21615 56.8805 1.0328 58.6256 1.0328C60.3708 1.0328 61.064 2.35963 61.3868 3.20831H61.6617C61.8529 2.32377 62.0083 1.79781 62.2952 1.25991C61.3629 0.518809 60.3229 0.160156 58.8527 0.160156C55.7688 0.160156 53.8085 1.97711 53.8085 4.54708C53.8085 10.0098 61.1238 8.16892 61.1238 12.4482C61.1238 14.3129 59.8687 15.8191 57.8008 15.8191C55.733 15.8191 54.6452 14.4922 54.1312 13.3925H53.8444C53.7607 14.277 53.689 14.7433 53.4141 15.4605C54.2269 16.106 55.3266 16.7873 57.251 16.7873C60.825 16.7873 62.9407 14.3966 62.9407 11.5637C62.9407 6.42375 55.6254 8.24061 55.6254 3.90155" fill="#9C9C9C"/>
<path d="M82.2453 3.32002V2.9734H82.2333C81.8628 3.03316 81.5639 3.06897 81.2771 3.06897C80.9902 3.06897 80.7033 3.03316 80.3208 2.9734H80.2969V2.99725C80.3806 4.64681 80.4523 6.35619 80.4523 8.05356V8.71098L79.1255 8.73491L76.4002 8.77073L73.6749 8.73491C73.6749 8.73491 72.384 8.71098 72.3481 8.71098V8.05356C72.3481 6.38009 72.4318 4.67074 72.5035 3.02118V2.9375C72.133 2.99727 71.7983 3.05708 71.5234 3.05708C71.2484 3.05708 70.9377 3.0212 70.5671 2.96143H70.5312V2.98536V3.10486C70.6149 4.73052 70.6866 6.404 70.6866 8.05356V11.4124C70.6866 13.062 70.6149 14.7354 70.5312 16.3611V16.5046H70.5552C70.9257 16.4448 71.2245 16.4089 71.5114 16.4089C71.7983 16.4089 72.0851 16.4448 72.4676 16.5046H72.4916V16.4567C72.4198 14.8072 72.3362 13.0859 72.3362 11.4124V9.67919H72.5274L76.4002 9.6433L80.261 9.67919C80.261 9.67919 80.4164 9.67919 80.4523 9.67919V11.4124C80.4523 13.1098 80.3806 14.8191 80.2969 16.4687V16.4926H80.3208C80.6914 16.4209 80.9902 16.397 81.2771 16.397C81.5639 16.397 81.8628 16.4328 82.2333 16.4926H82.2692L82.2572 16.1459C82.1855 14.592 82.1138 12.9783 82.1138 11.4005V8.04159C82.1138 6.46376 82.1855 4.86198 82.2572 3.30805" fill="#9C9C9C"/>
<path d="M93.2689 3.1839V2.96875H93.245C92.8744 3.04047 92.5756 3.0644 92.3007 3.0644C92.0258 3.0644 91.715 3.04047 91.3445 2.96875H91.3086V2.99268C91.3923 4.64224 91.464 6.35154 91.464 8.04891V11.4078C91.464 13.1171 91.3923 14.8145 91.3086 16.464V16.488H91.3445C91.715 16.4162 92.0138 16.3803 92.3007 16.3803C92.5876 16.3803 92.8744 16.4162 93.245 16.476H93.2809V16.2728C93.2091 14.6711 93.1374 13.0095 93.1374 11.3839V8.02498C93.1374 6.41128 93.2091 4.74975 93.2809 3.14801" fill="#9C9C9C"/>
<path d="M109.74 15.2807H109.704C107.756 15.5317 106.178 15.5437 104.337 15.5437C104.337 15.4959 104.325 14.2288 104.325 14.2288L104.29 8.06088C104.29 6.39937 104.361 4.71389 104.445 3.07629V2.96875H104.421C104.05 3.02852 103.752 3.0644 103.465 3.0644C103.178 3.0644 102.879 3.02852 102.509 2.96875H102.473V2.99268V3.17194C102.544 4.77368 102.628 6.42326 102.628 8.04891V11.4078C102.628 13.0334 102.556 14.683 102.485 16.2967V16.4999H102.497C103.859 16.4282 105.007 16.4043 106.106 16.4043C107.206 16.4043 108.377 16.4402 109.704 16.4999H109.74L109.728 16.464C109.668 16.2489 109.633 16.0576 109.633 15.8903C109.633 15.7229 109.656 15.5198 109.728 15.3166V15.2807H109.74Z" fill="#9C9C9C"/>
<path d="M123.127 15.2807H123.091C121.154 15.5317 119.565 15.5437 117.736 15.5437C117.736 15.4959 117.724 14.4201 117.724 14.4201L117.676 8.06088C117.676 6.35155 117.76 4.57046 117.831 3.00457V2.96875H117.807C117.437 3.04047 117.138 3.07629 116.851 3.07629C116.564 3.07629 116.278 3.04048 115.895 2.98071H115.871V3.00457C115.955 4.80952 116.026 6.43523 116.026 8.06088V11.4198C116.026 13.0454 115.955 14.671 115.871 16.476V16.4999H115.895C117.258 16.4282 118.405 16.4043 119.505 16.4043C120.605 16.4043 121.788 16.4402 123.103 16.4999H123.139L123.127 16.464C123.067 16.2369 123.031 16.0576 123.031 15.8903C123.031 15.7229 123.067 15.5317 123.127 15.3166V15.2807Z" fill="#9C9C9C"/>
<path d="M133.769 2.82648C133.649 2.5157 133.578 2.3125 133.578 2.3125C133.255 2.80259 132.454 3.67519 132.227 3.89035C132.227 3.89035 132.37 4.14132 132.573 4.51187L127.23 16.5608C128.055 16.2859 128.725 16.5848 128.725 16.5848C128.725 16.5848 129.729 13.8713 130.601 11.6719C131.569 11.5882 134.259 11.6839 134.259 11.6839C134.259 11.6839 134.319 11.4328 134.378 11.2177C134.438 11.0025 134.594 10.7037 134.594 10.7037C134.594 10.7037 131.916 10.7754 130.972 10.7396C131.677 9.00635 133.099 5.57573 133.099 5.57573C133.099 5.57573 134.163 8.02617 135.454 11.1101C137.032 14.8874 137.534 16.5489 137.534 16.5489C138.765 16.2859 139.65 16.5608 139.65 16.5608L133.757 2.80255L133.769 2.82648Z" fill="#9C9C9C"/>
<path d="M39.496 29.506C39.496 28.3824 39.0776 27.4022 38.2529 26.7567C37.3564 26.0515 36.2089 26.0156 35.2885 26.0156C34.6311 26.0156 33.9976 26.0754 33.4119 26.0754C33.125 26.0754 32.8142 26.0395 32.5273 26.0156C32.5512 26.4938 32.5632 26.9599 32.5871 27.4261C32.623 28.1074 32.611 28.7768 32.611 29.4582C32.611 30.7491 32.611 30.9882 32.611 31.4663L32.5513 33.4506C32.8859 33.4267 33.2326 33.3909 33.5673 33.3909C34.2247 33.3909 34.8941 33.4506 35.5515 33.4506C36.436 33.4506 37.1412 33.3191 37.9062 32.829C38.9222 32.1836 39.5199 31.048 39.5199 29.5179M33.9498 27.964C33.9498 27.5337 33.9856 27.0915 34.0095 26.6492C34.3801 26.6133 34.7506 26.6014 35.1212 26.6014C37.3683 26.6014 38.0377 28.1673 38.0377 29.5658C38.0377 32.3509 36.1969 32.8769 35.4798 32.8769C35.2048 32.8769 34.2486 32.841 34.0095 32.829C33.9856 32.327 33.9498 31.8249 33.9498 31.3229V27.964Z" fill="#9C9C9C"/>
<path d="M44.9971 26.8284C44.9612 27.6532 44.9612 28.6932 44.9612 29.6256C44.9612 31.3468 44.9851 31.7413 45.2959 32.1597C45.6067 32.578 46.1924 32.8171 46.9455 32.8171C47.818 32.8171 48.5113 32.3629 48.7504 31.7054C48.834 31.4664 48.8938 31.1317 48.8938 30.2471C48.8938 28.8367 48.8938 27.4261 48.7982 26.0156C48.9536 26.0395 49.109 26.0754 49.2883 26.0754C49.4675 26.0754 49.6349 26.0276 49.7903 26.0156L49.7544 26.5296C49.6947 27.462 49.6708 29.6854 49.6468 30.7851C49.6229 32.0641 49.2524 32.6497 48.5472 33.1039C48.0332 33.4267 47.316 33.5701 46.7303 33.5701C45.4274 33.5701 43.8735 33.1518 43.6345 31.4783C43.6105 31.3229 43.6105 31.0002 43.6105 30.9046V27.964C43.6105 27.4142 43.5866 26.5655 43.5508 26.0156C43.8018 26.0515 44.0767 26.0754 44.3158 26.0754C44.5548 26.0754 44.8059 26.0395 45.021 26.0156L44.9852 26.8404L44.9971 26.8284Z" fill="#9C9C9C"/>
<path d="M56.9533 31.9488C56.9533 32.7736 57.0012 33.1322 57.0251 33.431C56.7143 33.3952 56.3676 33.3593 56.2362 33.3593C56.0569 33.3593 55.8895 33.3832 55.4951 33.431C55.5429 32.6062 55.6026 31.7695 55.6026 30.9447V27.9206C55.6026 27.5141 55.5787 27.1436 55.5787 26.7252H55.0409C54.9452 26.7252 53.9053 26.7491 53.3555 26.7969C53.3794 26.6655 53.4033 26.522 53.4033 26.3905C53.4033 26.259 53.3794 26.1156 53.3555 25.9961C54.2041 26.0559 55.4114 26.0558 56.2481 26.0558C57.1446 26.0558 58.1008 26.0559 59.1408 25.9961C59.1049 26.1873 59.081 26.3188 59.081 26.4144C59.081 26.534 59.1049 26.6296 59.1408 26.7969C58.5072 26.7372 57.7303 26.7252 56.9892 26.7252C56.9773 27.1197 56.9653 27.5261 56.9653 27.9325V31.9369L56.9533 31.9488Z" fill="#9C9C9C"/>
<path d="M66.1373 30.9327C66.1373 31.8412 66.1732 32.4269 66.221 33.431C65.97 33.4071 65.719 33.3593 65.468 33.3593C65.2528 33.3593 64.954 33.4071 64.7388 33.431C64.7747 32.5823 64.7986 31.1718 64.7986 30.4905L64.1531 29.3908C63.6033 28.4345 62.6829 26.9404 62.1211 25.9961C62.5155 26.0439 62.7666 26.0558 63.0056 26.0558C63.2686 26.0558 63.5794 26.0559 63.8901 25.9961C64.4519 27.1795 64.8703 28.0401 65.7787 29.6538C66.6991 28.076 66.8784 27.7054 67.6554 25.9961C67.8347 26.032 68.0498 26.0558 68.2889 26.0558C68.504 26.0558 68.6236 26.032 68.7431 25.9961C68.5758 26.283 67.7868 27.55 67.6315 27.801C67.1414 28.578 66.723 29.3908 66.2688 30.1678C66.1851 30.2993 66.1254 30.4188 66.1254 30.5144V30.9209L66.1373 30.9327Z" fill="#9C9C9C"/>
<path d="M79.2866 29.1918H80.0277C80.8405 29.1918 81.3186 29.1559 81.7609 29.1439C81.7251 29.2515 81.7012 29.3711 81.7012 29.5026C81.7012 29.6221 81.7251 29.7297 81.7609 29.8731L81.1633 29.8492C80.5656 29.8253 80.4341 29.8253 79.2747 29.8253V31.2716C79.2747 32.3713 79.2747 32.5268 79.2747 32.8614C79.2747 33.1125 79.2747 33.1961 79.3105 33.4232C79.0595 33.3634 78.8324 33.3515 78.5336 33.3515C78.2348 33.3515 78.0316 33.3754 77.8284 33.4232C77.912 31.6063 77.924 31.3075 77.924 29.5862C77.924 28.2116 77.8642 27.0402 77.8164 25.9883C78.1989 26.0122 79.3344 26.048 79.8604 26.048C80.5537 26.048 81.3067 26.0002 81.9044 25.9883C81.8685 26.1437 81.8446 26.2751 81.8446 26.4066C81.8446 26.4783 81.8446 26.5859 81.9044 26.7652C80.9242 26.7054 80.219 26.6696 79.2508 26.6696V29.1918H79.2866Z" fill="#9C9C9C"/>
<path d="M89.1605 29.757C90.1526 29.5658 91.049 28.9562 91.049 27.7489C91.049 27.2946 90.8817 26.8524 90.547 26.5416C90.0808 26.0993 89.5549 26.0156 88.8497 26.0156C88.5987 26.0156 87.3436 26.0754 87.0567 26.0754C86.5069 26.0754 86.22 26.0395 85.9809 26.0156C86.0527 27.4142 86.0527 27.5696 86.0527 28.9801C86.0527 31.0719 86.0527 31.311 85.957 33.4387C86.1961 33.4028 86.4591 33.3669 86.7101 33.3669C86.985 33.3669 87.2241 33.4148 87.4392 33.4387C87.4392 33.1518 87.4034 31.7652 87.4034 31.4425V29.9124H87.6663C88.252 30.7372 88.9214 31.6815 89.4712 32.5422C89.6386 32.7932 89.8657 33.1876 90.033 33.4387C90.3558 33.3909 90.4872 33.3669 90.9176 33.3669C91.312 33.3669 91.575 33.4028 91.8858 33.4387C91.2044 32.578 90.9056 32.2075 90.0569 31.0002C89.8896 30.7731 89.6505 30.4145 89.4951 30.1874L89.1844 29.757H89.1605ZM87.3914 26.6014C87.5587 26.5894 87.9532 26.5416 88.1564 26.5416C88.515 26.5416 88.8736 26.6014 89.1605 26.8166C89.543 27.0915 89.6147 27.4859 89.6147 27.9402C89.6147 28.6454 89.2083 29.4343 88.1325 29.4343C87.8456 29.4343 87.5946 29.4104 87.3914 29.3984V26.5894V26.6014Z" fill="#9C9C9C"/>
<path d="M96.8794 29.211C97.4293 29.211 98.6485 29.2111 99.2222 29.1393C99.1864 29.2589 99.1625 29.3665 99.1625 29.5338C99.1625 29.6892 99.1864 29.8207 99.2222 29.9044C98.9354 29.8805 98.6605 29.8566 98.3855 29.8446C97.8835 29.8446 97.3815 29.8207 96.8794 29.8207V32.7612C97.1663 32.7612 98.5529 32.7254 99.4613 32.6895C99.4255 32.7851 99.4135 32.8927 99.4135 33.0481C99.4135 33.2154 99.4135 33.323 99.4613 33.4426C98.8159 33.3948 98.1704 33.3709 97.4771 33.3709C96.8316 33.3709 96.1503 33.3948 95.457 33.4426C95.4809 32.9883 95.5048 32.5461 95.5168 32.0918C95.5407 31.4583 95.5646 30.1435 95.5646 29.6414C95.5646 29.1872 95.5407 27.0953 95.469 26.0195C95.9949 26.0554 96.8436 26.0793 97.4293 26.0793C97.9313 26.0793 98.6365 26.0315 99.4254 26.0195C99.4015 26.151 99.3776 26.2347 99.3776 26.3662C99.3776 26.5336 99.4015 26.677 99.4254 26.7726L98.4094 26.7248C98.003 26.7009 97.8955 26.7009 96.9034 26.7009V29.2469L96.8794 29.211Z" fill="#9C9C9C"/>
<path d="M104.989 29.211C105.539 29.211 106.746 29.2111 107.332 29.1393C107.296 29.2589 107.272 29.3665 107.272 29.5338C107.272 29.6892 107.296 29.8207 107.332 29.9044C107.045 29.8805 106.77 29.8566 106.495 29.8446C105.993 29.8446 105.479 29.8207 104.989 29.8207V32.7612C105.276 32.7612 106.651 32.7254 107.571 32.6895C107.523 32.7851 107.523 32.8927 107.523 33.0481C107.523 33.2154 107.523 33.323 107.571 33.4426C106.925 33.3948 106.268 33.3709 105.575 33.3709C104.929 33.3709 104.248 33.3948 103.555 33.4426C103.579 32.9883 103.603 32.5461 103.614 32.0918C103.638 31.4583 103.65 30.1435 103.65 29.6414C103.65 29.1872 103.626 27.0953 103.555 26.0195C104.081 26.0554 104.929 26.0793 105.515 26.0793C106.017 26.0793 106.722 26.0315 107.511 26.0195C107.475 26.151 107.451 26.2347 107.451 26.3662C107.451 26.5336 107.475 26.677 107.511 26.7726L106.495 26.7248C106.089 26.7009 105.981 26.7009 104.989 26.7009V29.2469V29.211Z" fill="#9C9C9C"/>
</svg>
