<svg width="186" height="26" viewBox="0 0 186 26" fill="none" xmlns="http://www.w3.org/2000/svg">
<path d="M95.9937 15.4297C89.3717 15.4297 85.3555 17.1988 85.3555 17.1988C87.1604 21.3108 91.2484 24.1556 96.0057 24.1556C100.763 24.1556 104.863 21.3108 106.668 17.1988C106.668 17.1988 102.64 15.4297 96.0177 15.4297" fill="#9C9C9C"/>
<path d="M93.3462 11.0391C93.3462 11.0391 93.2383 11.087 93.2383 11.1229C93.2383 11.1469 93.2862 11.1948 93.3462 11.1948C93.4061 11.1948 93.4541 11.1589 93.4541 11.1229C93.4541 11.087 93.4061 11.0391 93.3462 11.0391Z" fill="#9C9C9C"/>
<path d="M88.1113 13.3894C88.1113 13.3894 88.0765 13.4819 88.0302 13.4819C87.9839 13.4819 87.9492 13.4472 87.9492 13.3894C87.9492 13.3431 87.9839 13.2969 88.0302 13.2969C88.0765 13.2969 88.1113 13.3431 88.1113 13.3894Z" fill="#9C9C9C"/>
<path d="M99.5379 11.1293C99.5379 11.1293 99.4771 11.2508 99.392 11.2508C99.3069 11.2508 99.2461 11.1779 99.2461 11.1293C99.2461 11.0686 99.3069 11.0078 99.392 11.0078C99.4771 11.0078 99.5379 11.0686 99.5379 11.1293Z" fill="#9C9C9C"/>
<path d="M92.007 11.124C92.007 11.1957 91.9234 11.2793 91.8278 11.2793C91.7321 11.2793 91.6484 11.1957 91.6484 11.124C91.6484 11.0404 91.7321 10.9688 91.8278 10.9688C91.9234 10.9688 92.007 11.0524 92.007 11.124Z" fill="#9C9C9C"/>
<path d="M101.811 11.8445C101.811 11.9296 101.751 12.0025 101.665 12.0025C101.58 12.0025 101.52 11.9296 101.52 11.8445C101.52 11.7595 101.592 11.7109 101.665 11.7109C101.738 11.7109 101.811 11.7595 101.811 11.8445Z" fill="#9C9C9C"/>
<path d="M85.9282 15.6478C85.9282 15.7434 85.8565 15.827 85.7609 15.827C85.6652 15.827 85.6055 15.7434 85.6055 15.6478C85.6055 15.5523 85.6652 15.4688 85.7609 15.4688C85.8565 15.4688 85.9282 15.5523 85.9282 15.6478Z" fill="#9C9C9C"/>
<path d="M106.723 15.4203C106.58 15.6344 106.652 16.0151 106.95 16.0151C106.985 16.0151 107.009 16.0151 107.033 15.9794C107.092 15.92 107.259 15.3846 107.2 15.3132C107.14 15.2657 107.033 15.2537 106.95 15.2775C106.866 15.3013 106.783 15.337 106.723 15.4203Z" fill="#9C9C9C"/>
<path d="M84.8908 16.082C84.8908 16.082 84.8789 16.1533 84.8789 16.1771C84.8789 16.284 84.9859 16.6641 85.1523 16.6165C85.188 16.6165 85.2237 16.5453 85.2355 16.5097C85.295 16.284 85.1285 16.1177 84.9383 16.082C84.9146 16.082 84.9027 16.082 84.8789 16.082" fill="#9C9C9C"/>
<path d="M89.5586 11.6719C89.4511 11.6719 89.3555 11.7315 89.3555 11.851C89.3555 11.9704 89.4511 12.0659 89.5586 12.0659C89.6662 12.0659 89.7618 11.9704 89.7618 11.851C89.7618 11.7315 89.6782 11.6719 89.5586 11.6719Z" fill="#9C9C9C"/>
<path d="M90.5657 11.1321C90.5657 11.239 90.4587 11.3578 90.3161 11.3578C90.1734 11.3578 90.0664 11.239 90.0664 11.1321C90.0664 11.0133 90.1734 10.8945 90.3161 10.8945C90.4587 10.8945 90.5657 11.0133 90.5657 11.1321Z" fill="#9C9C9C"/>
<path d="M95.2552 8.11546C95.2552 8.34149 95.0646 8.53181 94.8384 8.53181C94.6122 8.53181 94.4336 8.34149 94.4336 8.11546C94.4336 7.88942 94.6241 7.71094 94.8384 7.71094C95.0527 7.71094 95.2552 7.90132 95.2552 8.11546Z" fill="#9C9C9C"/>
<path d="M96.7786 8.11546C96.7786 8.34149 96.5881 8.53181 96.3619 8.53181C96.1357 8.53181 95.957 8.34149 95.957 8.11546C95.957 7.88942 96.1476 7.71094 96.3619 7.71094C96.5762 7.71094 96.7786 7.90132 96.7786 8.11546Z" fill="#9C9C9C"/>
<path d="M98.2745 8.11546C98.2745 8.34149 98.0841 8.53181 97.8697 8.53181C97.6554 8.53181 97.4648 8.34149 97.4648 8.11546C97.4648 7.88942 97.6554 7.71094 97.8697 7.71094C98.0841 7.71094 98.2745 7.90132 98.2745 8.11546Z" fill="#9C9C9C"/>
<path d="M100.551 8.86098C100.551 9.08702 100.384 9.2655 100.17 9.2655C99.9556 9.2655 99.8008 9.08702 99.8008 8.86098C99.8008 8.67063 99.9794 8.49219 100.17 8.49219C100.36 8.49219 100.551 8.67063 100.551 8.86098Z" fill="#9C9C9C"/>
<path d="M104.321 11.1229C104.321 11.3132 104.154 11.4917 103.94 11.4917C103.725 11.4917 103.559 11.3013 103.559 11.1229C103.559 10.9206 103.725 10.7422 103.94 10.7422C104.154 10.7422 104.321 10.9206 104.321 11.1229Z" fill="#9C9C9C"/>
<path d="M103.551 10.3889C103.551 10.5792 103.372 10.7577 103.17 10.7577C102.967 10.7577 102.801 10.5792 102.801 10.3889C102.801 10.1629 102.967 9.98438 103.17 9.98438C103.372 9.98438 103.551 10.1629 103.551 10.3889Z" fill="#9C9C9C"/>
<path d="M105.078 11.8454C105.078 12.0714 104.912 12.2499 104.697 12.2499C104.483 12.2499 104.316 12.0714 104.316 11.8454C104.316 11.655 104.483 11.4766 104.697 11.4766C104.912 11.4766 105.078 11.655 105.078 11.8454Z" fill="#9C9C9C"/>
<path d="M95.9282 8.85229C95.9282 9.04264 95.7853 9.19727 95.6067 9.19727C95.4281 9.19727 95.2852 9.04264 95.2852 8.85229C95.2852 8.68574 95.4281 8.54297 95.6067 8.54297C95.7853 8.54297 95.9282 8.68574 95.9282 8.85229Z" fill="#9C9C9C"/>
<path d="M94.4404 8.8526C94.4404 9.05484 94.2975 9.2214 94.107 9.2214C93.9165 9.2214 93.7617 9.05484 93.7617 8.8526C93.7617 8.67415 93.9046 8.51953 94.107 8.51953C94.3094 8.51953 94.4404 8.67415 94.4404 8.8526Z" fill="#9C9C9C"/>
<path d="M97.4637 8.8526C97.4637 9.05484 97.3208 9.2214 97.1303 9.2214C96.9398 9.2214 96.7969 9.05484 96.7969 8.8526C96.7969 8.67415 96.9398 8.51953 97.1303 8.51953C97.3208 8.51953 97.4637 8.67415 97.4637 8.8526Z" fill="#9C9C9C"/>
<path d="M100.908 9.27344C100.717 9.27344 100.551 9.41617 100.551 9.61842C100.551 9.82066 100.717 9.96339 100.908 9.96339C101.098 9.96339 101.265 9.82066 101.265 9.61842C101.265 9.41617 101.11 9.27344 100.908 9.27344Z" fill="#9C9C9C"/>
<path d="M98.9918 8.85689C98.9918 9.07103 98.837 9.23759 98.6345 9.23759C98.4321 9.23759 98.2773 9.07103 98.2773 8.85689C98.2773 8.66654 98.4321 8.5 98.6345 8.5C98.837 8.5 98.9918 8.66654 98.9918 8.85689Z" fill="#9C9C9C"/>
<path d="M92.5683 8.5C92.3659 8.5 92.1992 8.66654 92.1992 8.85689C92.1992 9.07103 92.354 9.23759 92.5683 9.23759C92.7827 9.23759 92.9255 9.07103 92.9255 8.85689C92.9255 8.66654 92.7589 8.5 92.5683 8.5Z" fill="#9C9C9C"/>
<path d="M90.6957 9.61879C90.6957 9.84483 90.529 9.98759 90.3146 9.98759C90.1003 9.98759 89.9336 9.84483 89.9336 9.61879C89.9336 9.39276 90.1003 9.25 90.3146 9.25C90.529 9.25 90.6957 9.40465 90.6957 9.61879Z" fill="#9C9C9C"/>
<path d="M92.1629 9.62592C92.1629 9.81627 92.02 9.94715 91.8295 9.94715C91.639 9.94715 91.4961 9.81627 91.4961 9.62592C91.4961 9.43557 91.6509 9.30469 91.8295 9.30469C92.0081 9.30469 92.1629 9.43557 92.1629 9.62592Z" fill="#9C9C9C"/>
<path d="M99.3989 9.3125C99.2206 9.3125 99.0898 9.44317 99.0898 9.62133C99.0898 9.7995 99.2324 9.93017 99.3989 9.93017C99.5653 9.93017 99.708 9.7995 99.708 9.62133C99.708 9.44317 99.5653 9.3125 99.3989 9.3125Z" fill="#9C9C9C"/>
<path d="M93.6296 9.62507C93.6296 9.80324 93.4988 9.92202 93.3324 9.92202C93.1659 9.92202 93.0352 9.80324 93.0352 9.62507C93.0352 9.4469 93.1778 9.32812 93.3324 9.32812C93.4869 9.32812 93.6296 9.4469 93.6296 9.62507Z" fill="#9C9C9C"/>
<path d="M97.8791 9.32812C97.7126 9.32812 97.5938 9.4469 97.5938 9.62507C97.5938 9.80324 97.7245 9.92202 97.8791 9.92202C98.0336 9.92202 98.1763 9.80324 98.1763 9.62507C98.1763 9.4469 98.0336 9.32812 97.8791 9.32812Z" fill="#9C9C9C"/>
<path d="M100.16 10.1055C100.017 10.1055 99.8984 10.2362 99.8984 10.3906C99.8984 10.5331 100.017 10.64 100.16 10.64C100.314 10.64 100.422 10.5331 100.422 10.3906C100.422 10.2362 100.303 10.1055 100.16 10.1055Z" fill="#9C9C9C"/>
<path d="M102.426 10.8242C102.26 10.8242 102.129 10.9667 102.129 11.1093C102.129 11.2518 102.26 11.3824 102.426 11.3824C102.593 11.3824 102.723 11.2399 102.723 11.1093C102.723 10.9667 102.593 10.8242 102.426 10.8242Z" fill="#9C9C9C"/>
<path d="M103.433 11.8469C103.433 12.0014 103.314 12.1201 103.183 12.1201C103.053 12.1201 102.934 12.0014 102.934 11.8469C102.934 11.7163 103.041 11.6094 103.183 11.6094C103.326 11.6094 103.433 11.7163 103.433 11.8469Z" fill="#9C9C9C"/>
<path d="M103.933 12.375C103.803 12.375 103.684 12.4938 103.684 12.6363C103.684 12.7789 103.791 12.8976 103.933 12.8976C104.076 12.8976 104.183 12.7789 104.183 12.6363C104.183 12.4938 104.076 12.375 103.933 12.375Z" fill="#9C9C9C"/>
<path d="M104.917 13.3897C104.917 13.5203 104.821 13.5916 104.691 13.5916C104.56 13.5916 104.465 13.5203 104.465 13.3897C104.465 13.259 104.56 13.1641 104.691 13.1641C104.821 13.1641 104.917 13.2709 104.917 13.3897Z" fill="#9C9C9C"/>
<path d="M105.694 14.1282C105.694 14.2589 105.587 14.3776 105.457 14.3776C105.326 14.3776 105.207 14.2589 105.207 14.1282C105.207 14.0094 105.314 13.8906 105.457 13.8906C105.599 13.8906 105.694 14.0094 105.694 14.1282Z" fill="#9C9C9C"/>
<path d="M106.489 14.8904C106.489 15.0685 106.358 15.1992 106.192 15.1992C106.025 15.1992 105.906 15.0566 105.906 14.8904C105.906 14.7359 106.025 14.6172 106.192 14.6172C106.358 14.6172 106.489 14.7359 106.489 14.8904Z" fill="#9C9C9C"/>
<path d="M101.983 10.3841C101.983 10.5507 101.84 10.6934 101.661 10.6934C101.483 10.6934 101.34 10.5507 101.34 10.3841C101.34 10.1938 101.483 10.0391 101.661 10.0391C101.84 10.0391 101.983 10.1938 101.983 10.3841Z" fill="#9C9C9C"/>
<path d="M94.8514 9.35156C94.7087 9.35156 94.5898 9.47032 94.5898 9.62473C94.5898 9.77914 94.7087 9.8979 94.8514 9.8979C95.0059 9.8979 95.1129 9.77914 95.1129 9.62473C95.1129 9.47032 94.994 9.35156 94.8514 9.35156Z" fill="#9C9C9C"/>
<path d="M96.6442 9.62473C96.6442 9.77914 96.5253 9.8979 96.3827 9.8979C96.24 9.8979 96.1211 9.77914 96.1211 9.62473C96.1211 9.47032 96.24 9.35156 96.3827 9.35156C96.5253 9.35156 96.6442 9.47032 96.6442 9.62473Z" fill="#9C9C9C"/>
<path d="M100.913 10.9297C100.794 10.9297 100.699 11.0366 100.699 11.1317C100.699 11.2267 100.794 11.3217 100.913 11.3217C101.032 11.3217 101.127 11.2148 101.127 11.1317C101.127 11.0366 101.032 10.9297 100.913 10.9297Z" fill="#9C9C9C"/>
<path d="M98.6282 10.1562C98.5093 10.1562 98.4023 10.2632 98.4023 10.3938C98.4023 10.5126 98.5093 10.5957 98.6282 10.5957C98.759 10.5957 98.8541 10.5126 98.8541 10.3938C98.8541 10.2632 98.7471 10.1562 98.6282 10.1562Z" fill="#9C9C9C"/>
<path d="M97.3161 10.3906C97.3161 10.4981 97.2325 10.5697 97.1249 10.5697C97.0173 10.5697 96.9336 10.4981 96.9336 10.3906C96.9336 10.2831 97.0293 10.1875 97.1249 10.1875C97.2325 10.1875 97.3161 10.2831 97.3161 10.3906Z" fill="#9C9C9C"/>
<path d="M95.6172 10.1875C95.5097 10.1875 95.4141 10.2831 95.4141 10.3906C95.4141 10.4981 95.5097 10.5697 95.6172 10.5697C95.7248 10.5697 95.8085 10.4981 95.8085 10.3906C95.8085 10.2831 95.7129 10.1875 95.6172 10.1875Z" fill="#9C9C9C"/>
<path d="M94.3186 10.3858C94.3186 10.4927 94.2116 10.5759 94.1046 10.5759C93.9976 10.5759 93.8906 10.4927 93.8906 10.3858C93.8906 10.2552 93.9857 10.1602 94.1046 10.1602C94.2235 10.1602 94.3186 10.2552 94.3186 10.3858Z" fill="#9C9C9C"/>
<path d="M92.8235 10.3785C92.8235 10.5092 92.7047 10.6042 92.5739 10.6042C92.4431 10.6042 92.3242 10.5092 92.3242 10.3785C92.3242 10.236 92.4312 10.1172 92.5739 10.1172C92.7166 10.1172 92.8235 10.236 92.8235 10.3785Z" fill="#9C9C9C"/>
<path d="M91.3637 10.3946C91.3637 10.5371 91.2329 10.6678 91.0783 10.6678C90.9238 10.6678 90.793 10.549 90.793 10.3946C90.793 10.2283 90.9238 10.0977 91.0783 10.0977C91.2329 10.0977 91.3637 10.2283 91.3637 10.3946Z" fill="#9C9C9C"/>
<path d="M89.8976 10.3844C89.8976 10.551 89.7428 10.7175 89.5523 10.7175C89.3618 10.7175 89.207 10.551 89.207 10.3844C89.207 10.1822 89.3618 10.0156 89.5523 10.0156C89.7428 10.0156 89.8976 10.1822 89.8976 10.3844Z" fill="#9C9C9C"/>
<path d="M88.802 10.8203C88.6234 10.8203 88.4805 10.975 88.4805 11.1415C88.4805 11.2962 88.6115 11.4509 88.802 11.4509C88.9925 11.4509 89.1354 11.2962 89.1354 11.1415C89.1354 10.975 88.9925 10.8203 88.802 10.8203Z" fill="#9C9C9C"/>
<path d="M86.1045 14.1185C86.1045 14.3088 85.9497 14.4635 85.7592 14.4635C85.5687 14.4635 85.4258 14.2969 85.4258 14.1185C85.4258 13.94 85.5806 13.7734 85.7592 13.7734C85.9378 13.7734 86.1045 13.94 86.1045 14.1185Z" fill="#9C9C9C"/>
<path d="M88.04 11.5469C87.8733 11.5469 87.7305 11.6896 87.7305 11.8443C87.7305 12.0227 87.8733 12.1774 88.04 12.1774C88.2067 12.1774 88.3496 12.0227 88.3496 11.8443C88.3496 11.7015 88.2186 11.5469 88.04 11.5469Z" fill="#9C9C9C"/>
<path d="M86.5517 13.0547C86.3731 13.0547 86.2422 13.2093 86.2422 13.3878C86.2422 13.5424 86.385 13.6852 86.5517 13.6852C86.7184 13.6852 86.8613 13.5424 86.8613 13.3878C86.8613 13.2093 86.7184 13.0547 86.5517 13.0547Z" fill="#9C9C9C"/>
<path d="M87.5944 12.6332C87.5944 12.8114 87.4636 12.9302 87.2972 12.9302C87.1308 12.9302 87 12.8114 87 12.6332C87 12.4551 87.1308 12.3125 87.2972 12.3125C87.4636 12.3125 87.5944 12.4551 87.5944 12.6332Z" fill="#9C9C9C"/>
<path d="M88.81 12.4922C88.737 12.4922 88.6641 12.553 88.6641 12.638C88.6641 12.7231 88.7248 12.7838 88.81 12.7838C88.8951 12.7838 88.9437 12.7231 88.9437 12.638C88.9437 12.553 88.8829 12.4922 88.81 12.4922Z" fill="#9C9C9C"/>
<path d="M106.895 12.1235C106.787 12.1235 106.704 12.0279 106.704 11.9204C106.704 11.8128 106.787 11.7291 106.895 11.7291C107.002 11.7291 107.086 11.8008 107.086 11.9204C107.086 12.0399 107.002 12.1235 106.895 12.1235ZM106.201 11.3824C106.058 11.3824 105.939 11.251 105.939 11.1315C105.939 11 106.046 10.8685 106.201 10.8685C106.357 10.8685 106.476 11 106.476 11.1315C106.476 11.251 106.357 11.3824 106.201 11.3824ZM105.448 10.6653C105.281 10.6653 105.162 10.5458 105.162 10.3904C105.162 10.223 105.293 10.0796 105.448 10.0796C105.604 10.0796 105.735 10.223 105.735 10.3904C105.735 10.5338 105.604 10.6653 105.448 10.6653ZM104.695 9.9481C104.516 9.9481 104.373 9.81659 104.373 9.62534C104.373 9.43408 104.516 9.30257 104.695 9.30257C104.875 9.30257 105.018 9.43408 105.018 9.62534C105.018 9.81659 104.875 9.9481 104.695 9.9481ZM103.93 9.20693C103.751 9.20693 103.608 9.05156 103.608 8.86031C103.608 8.69296 103.751 8.54951 103.93 8.54951C104.11 8.54951 104.253 8.69296 104.253 8.86031C104.253 9.05156 104.11 9.20693 103.93 9.20693ZM103.165 8.41804C103.01 8.41804 102.879 8.28656 102.879 8.13117C102.879 7.97578 103.01 7.8443 103.165 7.8443C103.321 7.8443 103.452 7.97578 103.452 8.13117C103.452 8.28656 103.321 8.41804 103.165 8.41804ZM102.412 7.65301C102.269 7.65301 102.137 7.54547 102.137 7.40203C102.137 7.24664 102.257 7.12706 102.412 7.12706C102.568 7.12706 102.675 7.24664 102.675 7.40203C102.675 7.54547 102.556 7.65301 102.412 7.65301ZM101.659 8.52565C101.444 8.52565 101.265 8.33438 101.265 8.13117C101.265 7.92796 101.444 7.73669 101.659 7.73669C101.874 7.73669 102.054 7.92796 102.054 8.13117C102.054 8.33438 101.874 8.52565 101.659 8.52565ZM100.894 7.73669C100.703 7.73669 100.548 7.58133 100.548 7.40203C100.548 7.19883 100.703 7.03148 100.894 7.03148C101.086 7.03148 101.241 7.18687 101.241 7.40203C101.241 7.58133 101.086 7.73669 100.894 7.73669ZM101.659 6.42185C101.767 6.42185 101.863 6.50552 101.863 6.637C101.863 6.76849 101.767 6.85216 101.659 6.85216C101.552 6.85216 101.456 6.76849 101.456 6.637C101.456 6.50552 101.552 6.42185 101.659 6.42185ZM100.153 6.93584C99.9978 6.93584 99.8544 6.80435 99.8544 6.637C99.8544 6.46966 99.9978 6.32621 100.153 6.32621C100.321 6.32621 100.452 6.4577 100.452 6.637C100.452 6.8163 100.321 6.93584 100.153 6.93584ZM99.3883 7.77258C99.1731 7.77258 98.9938 7.59328 98.9938 7.39007C98.9938 7.16296 99.1731 6.98362 99.3883 6.98362C99.6035 6.98362 99.7827 7.16296 99.7827 7.39007C99.7827 7.59328 99.6035 7.77258 99.3883 7.77258ZM98.6233 6.97166C98.432 6.97166 98.2766 6.81629 98.2766 6.62504C98.2766 6.43379 98.432 6.27842 98.6233 6.27842C98.8145 6.27842 98.9699 6.43379 98.9699 6.62504C98.9699 6.81629 98.8265 6.97166 98.6233 6.97166ZM99.3883 5.64486C99.5078 5.64486 99.6154 5.75244 99.6154 5.87197C99.6154 5.99151 99.5198 6.11105 99.3883 6.11105C99.2568 6.11105 99.1612 6.00346 99.1612 5.87197C99.1612 5.74049 99.2568 5.64486 99.3883 5.64486ZM97.8702 6.17081C97.7029 6.17081 97.5834 6.03932 97.5834 5.87197C97.5834 5.70463 97.7148 5.58511 97.8702 5.58511C98.0256 5.58511 98.1571 5.71658 98.1571 5.87197C98.1571 6.02737 98.0256 6.17081 97.8702 6.17081ZM97.1292 6.99559C96.9259 6.99559 96.7706 6.84021 96.7706 6.637C96.7706 6.4338 96.9259 6.26645 97.1292 6.26645C97.3324 6.26645 97.4877 6.4338 97.4877 6.637C97.4877 6.84021 97.3324 6.99559 97.1292 6.99559ZM97.1292 5.02326C97.1889 5.02326 97.2487 5.07112 97.2487 5.14284C97.2487 5.20261 97.2009 5.26234 97.1292 5.26234C97.0694 5.26234 97.0096 5.20261 97.0096 5.14284C97.0096 5.07112 97.0694 5.02326 97.1292 5.02326ZM96.3641 6.17081C96.2087 6.17081 96.0773 6.03932 96.0773 5.87197C96.0773 5.70463 96.2207 5.58511 96.3641 5.58511C96.5076 5.58511 96.651 5.71658 96.651 5.87197C96.651 6.02737 96.5195 6.17081 96.3641 6.17081ZM95.6111 6.99559C95.4079 6.99559 95.2525 6.84021 95.2525 6.637C95.2525 6.4338 95.4079 6.26645 95.6111 6.26645C95.8143 6.26645 95.9697 6.4338 95.9697 6.637C95.9697 6.84021 95.8143 6.99559 95.6111 6.99559ZM95.6111 4.97547C95.7067 4.97547 95.7904 5.05918 95.7904 5.1548C95.7904 5.25043 95.7067 5.32209 95.6111 5.32209C95.5155 5.32209 95.4318 5.25043 95.4318 5.1548C95.4318 5.05918 95.5155 4.97547 95.6111 4.97547ZM94.8461 6.17081C94.6907 6.17081 94.5592 6.03932 94.5592 5.87197C94.5592 5.70463 94.6907 5.58511 94.8461 5.58511C95.0134 5.58511 95.133 5.71658 95.133 5.87197C95.133 6.02737 95.0015 6.17081 94.8461 6.17081ZM94.105 6.99559C93.9018 6.99559 93.7344 6.84021 93.7344 6.637C93.7344 6.4338 93.8898 6.26645 94.105 6.26645C94.3201 6.26645 94.4517 6.4338 94.4517 6.637C94.4517 6.84021 94.3082 6.99559 94.105 6.99559ZM94.105 5.02326C94.1648 5.02326 94.2246 5.07112 94.2246 5.14284C94.2246 5.20261 94.1648 5.26234 94.105 5.26234C94.0452 5.26234 93.9855 5.20261 93.9855 5.14284C93.9855 5.07112 94.0452 5.02326 94.105 5.02326ZM93.34 6.15884C93.1966 6.15884 93.0651 6.02737 93.0651 5.87197C93.0651 5.71658 93.1847 5.60904 93.34 5.60904C93.4954 5.60904 93.6149 5.72853 93.6149 5.87197C93.6149 6.02737 93.4954 6.15884 93.34 6.15884ZM92.587 6.97166C92.4077 6.97166 92.2642 6.82826 92.2642 6.637C92.2642 6.44575 92.4077 6.31424 92.587 6.31424C92.7663 6.31424 92.9097 6.4577 92.9097 6.637C92.9097 6.8163 92.7663 6.97166 92.587 6.97166ZM91.8339 7.76062C91.6307 7.76062 91.4634 7.59323 91.4634 7.41393C91.4634 7.19877 91.6307 7.03148 91.8339 7.03148C92.0372 7.03148 92.2045 7.19877 92.2045 7.41393C92.2045 7.60518 92.0372 7.76062 91.8339 7.76062ZM91.8339 5.70461C91.9415 5.70461 92.0252 5.78831 92.0252 5.88394C92.0252 5.97957 91.9415 6.07516 91.8339 6.07516C91.7264 6.07516 91.6546 5.99152 91.6546 5.88394C91.6546 5.77636 91.7383 5.70461 91.8339 5.70461ZM91.0929 6.92387C90.9375 6.92387 90.8179 6.80436 90.8179 6.64897C90.8179 6.49358 90.9375 6.37399 91.0929 6.37399C91.2483 6.37399 91.3678 6.49358 91.3678 6.64897C91.3678 6.80436 91.2483 6.92387 91.0929 6.92387ZM90.3279 7.72472C90.1486 7.72472 90.0051 7.58127 90.0051 7.41393C90.0051 7.22267 90.1486 7.06731 90.3279 7.06731C90.5071 7.06731 90.6625 7.22267 90.6625 7.41393C90.6625 7.58127 90.5191 7.72472 90.3279 7.72472ZM89.5628 8.50172C89.3716 8.50172 89.2043 8.33438 89.2043 8.13117C89.2043 7.92796 89.3716 7.77258 89.5628 7.77258C89.7541 7.77258 89.9214 7.93992 89.9214 8.13117C89.9214 8.32242 89.766 8.50172 89.5628 8.50172ZM88.8218 9.25479C88.6186 9.25479 88.4632 9.08743 88.4632 8.87227C88.4632 8.68102 88.6186 8.51368 88.8218 8.51368C89.025 8.51368 89.1923 8.68102 89.1923 8.87227C89.1923 9.08743 89.025 9.25479 88.8218 9.25479ZM88.8218 7.22271C88.9174 7.22271 88.9891 7.30641 88.9891 7.40203C88.9891 7.48571 88.9174 7.55743 88.8218 7.55743C88.7261 7.55743 88.6424 7.48571 88.6424 7.40203C88.6424 7.30641 88.7261 7.22271 88.8218 7.22271ZM88.0567 8.34632C87.9372 8.34632 87.8416 8.2507 87.8416 8.13117C87.8416 8.01164 87.9372 7.92798 88.0567 7.92798C88.1763 7.92798 88.2719 8.02359 88.2719 8.13117C88.2719 8.23875 88.1763 8.34632 88.0567 8.34632ZM87.3157 9.12332C87.1842 9.12332 87.0766 9.01571 87.0766 8.87227C87.0766 8.75274 87.1842 8.65712 87.3157 8.65712C87.4471 8.65712 87.5547 8.75274 87.5547 8.87227C87.5547 9.00376 87.4471 9.12332 87.3157 9.12332ZM86.5506 9.86442C86.4311 9.86442 86.3355 9.75683 86.3355 9.6373C86.3355 9.51777 86.4311 9.41018 86.5506 9.41018C86.6702 9.41018 86.7659 9.50581 86.7659 9.6373C86.7659 9.76879 86.6702 9.86442 86.5506 9.86442ZM85.7618 10.5577C85.6661 10.5577 85.5944 10.4979 85.5944 10.4023C85.5944 10.3066 85.6661 10.211 85.7618 10.211C85.8574 10.211 85.9411 10.2947 85.9411 10.4023C85.9411 10.5098 85.8574 10.5577 85.7618 10.5577ZM85.1044 12.9483C84.937 12.9483 84.8055 12.8288 84.8055 12.6495C84.8055 12.4702 84.937 12.3388 85.1044 12.3388C85.2717 12.3388 85.4032 12.4821 85.4032 12.6495C85.4032 12.8168 85.2717 12.9483 85.1044 12.9483ZM96.0056 0.875492C89.5748 0.875492 84.3633 6.08713 84.3633 12.518C84.3633 13.5101 84.4828 14.4425 84.7099 15.351H84.8175C85.0924 15.351 85.3554 15.2912 85.3793 14.9684C85.4032 14.7891 85.3553 14.5979 85.1282 14.5621C84.8413 14.5262 84.7816 14.4066 84.7458 14.3708C84.7099 14.311 84.6979 14.2034 84.6979 14.1556C84.7218 13.9405 84.8892 13.821 85.1282 13.821C85.2238 13.821 85.3195 13.821 85.3793 13.7492C85.5227 13.5699 85.3434 13.2591 85.5227 13.1037C85.6661 12.9722 85.9052 13.1515 86.0845 12.9603C86.216 12.7929 86.2996 12.3985 85.8932 12.3148C85.4151 12.1953 85.3554 11.6693 85.7737 11.6096C86.0606 11.5617 86.1682 11.753 86.1562 12.028C86.1562 12.0997 86.1442 12.1594 86.1801 12.2192C86.204 12.267 86.2638 12.3029 86.3116 12.3148C86.5627 12.3507 86.7778 12.2909 86.8973 12.0758C86.9451 11.9921 86.9451 11.8845 86.9331 11.7769C86.9331 11.7291 86.8973 11.6215 86.8256 11.5737C86.6463 11.4542 86.4431 11.6574 86.2757 11.4064C86.2279 11.3346 86.204 11.2629 86.204 11.1793C86.204 11.0956 86.2518 10.988 86.3475 10.9163C86.4431 10.8446 86.5507 10.8087 86.6702 10.8326C86.9093 10.8924 86.9212 11.0597 86.9212 11.251C86.9212 11.3227 86.9212 11.3945 86.9571 11.4423C87.0288 11.5379 87.1842 11.5618 87.3037 11.5618C87.4352 11.5618 87.5547 11.49 87.6264 11.3824C87.6862 11.2749 87.7101 11.1912 87.6982 11.0956C87.6623 10.6772 87.4113 10.8924 87.1483 10.7967C86.9092 10.7131 86.8973 10.3664 87.0527 10.1991C87.1244 10.1034 87.244 10.0676 87.3635 10.0676C87.483 10.0796 87.6265 10.1632 87.6623 10.2828C87.6862 10.3545 87.6742 10.4621 87.6742 10.5338C87.6742 10.5936 87.6743 10.6533 87.7101 10.7131C87.7699 10.8087 87.9134 10.8326 88.0329 10.8207C88.1763 10.8207 88.2839 10.7728 88.3675 10.6653C88.4392 10.5816 88.4512 10.4979 88.4512 10.3664C88.4512 10.2708 88.4512 10.1154 88.3556 10.0676C88.3078 10.0437 88.248 10.0437 88.2002 10.0437C87.9611 10.0437 87.8058 10.0437 87.7221 9.84049C87.6862 9.73291 87.6982 9.62531 87.7341 9.52969C87.8536 9.27867 88.248 9.2548 88.4034 9.49387C88.4871 9.62535 88.3676 9.87634 88.4632 9.98392C88.5468 10.0795 88.8576 10.0676 88.9771 10.0198C89.3716 9.87638 89.0608 9.46995 89.2401 9.33847C89.4194 9.20698 89.766 9.39818 89.9094 9.20693C89.9334 9.17107 89.9334 9.11137 89.9334 9.0516C89.9334 8.84839 89.9214 8.70494 90.0648 8.5854C90.1485 8.52564 90.2681 8.52565 90.3876 8.52565C90.4713 8.52565 90.5908 8.52564 90.6506 8.5854C90.7104 8.65712 90.6745 8.7527 90.6745 8.83638C90.6745 9.13521 90.8179 9.31458 91.1287 9.27872C91.5829 9.2309 91.5351 8.62128 91.2124 8.52565C91.1048 8.48979 90.9613 8.52561 90.8776 8.48975C90.8179 8.46585 90.7223 8.42997 90.6984 8.32239C90.6745 8.23872 90.6864 8.14313 90.6984 8.05945C90.7462 7.77257 91.0929 7.67693 91.308 7.82037C91.5829 8.01162 91.2721 8.4061 91.6427 8.51368C91.7263 8.53759 91.8698 8.53759 91.9654 8.51368C92.4077 8.41806 92.073 7.97575 92.2882 7.80841C92.3957 7.71278 92.6348 7.72475 92.8021 7.74865C92.8619 7.74865 92.9217 7.77256 92.9456 7.82037C92.9695 7.89209 92.9575 7.98774 92.9575 8.07142C92.9575 8.31048 93.0531 8.46587 93.2922 8.51368C93.4476 8.53759 93.5671 8.46587 93.6627 8.35829C93.7464 8.26266 93.7584 8.16702 93.7584 8.04749C93.7584 7.65303 93.5313 7.73669 93.2205 7.73669C93.1488 7.73669 93.0771 7.7367 93.0293 7.67694C92.9695 7.60522 92.9694 7.47373 92.9814 7.3781C92.9814 7.24662 93.0292 7.12706 93.1488 7.05534C93.2205 6.99557 93.352 6.98364 93.4595 6.99559C93.5671 6.99559 93.6866 7.10317 93.7225 7.22271C93.7703 7.39005 93.6986 7.56933 93.854 7.72472C93.9736 7.84426 94.3202 7.8443 94.4158 7.6889C94.5353 7.53351 94.3919 7.25855 94.5951 7.05534C94.6668 6.99557 94.7266 6.98362 94.8222 6.98362C95.133 6.98362 95.2286 7.10314 95.2286 7.41393C95.2286 7.48565 95.2167 7.56938 95.2525 7.62915C95.3242 7.78454 95.6709 7.79648 95.7784 7.76062C95.8741 7.72476 95.9338 7.68891 95.9577 7.61719C96.0414 7.41398 95.8979 7.19877 96.1131 7.04338C96.1848 7.00752 96.2327 6.98362 96.3283 6.98362C97.0694 6.98362 96.4239 7.65304 97.0335 7.76062C97.1172 7.77257 97.2367 7.77255 97.3204 7.73669C97.5953 7.61716 97.416 7.40198 97.4997 7.19878C97.5356 7.10315 97.6192 7.04341 97.7029 7.00755C97.7865 6.97169 97.918 6.97169 98.0137 7.00755C98.4081 7.15099 98.1212 7.56938 98.3125 7.70087C98.444 7.80845 98.8862 7.65301 98.9699 7.80841C99.0058 7.88013 98.9938 7.97578 98.9938 8.05945C98.9938 8.27461 99.0655 8.47784 99.2927 8.52565C99.4959 8.56151 99.711 8.50173 99.7707 8.28657C99.7946 8.2268 99.7707 8.16699 99.7707 8.09527C99.7707 7.90402 99.8425 7.76061 100.046 7.74865C100.141 7.74865 100.249 7.74869 100.333 7.78455C100.667 7.9519 100.404 8.32238 100.584 8.46582C100.727 8.5734 101.169 8.43002 101.253 8.59737C101.289 8.65713 101.277 8.7408 101.265 8.81252C101.253 9.00377 101.289 9.18308 101.444 9.26675C101.528 9.30261 101.623 9.31453 101.731 9.30257C101.815 9.30257 101.958 9.24281 101.994 9.15914C102.078 8.94398 101.934 8.74075 102.161 8.60926C102.221 8.56145 102.293 8.52565 102.377 8.52565C102.496 8.52565 102.616 8.57346 102.687 8.66908C102.759 8.75276 102.783 8.83643 102.783 8.96792C102.759 9.56558 102.185 9.00375 102.018 9.54165C101.982 9.66119 102.018 9.8046 102.066 9.88827C102.137 9.97195 102.293 10.0317 102.412 10.0317C102.496 10.0317 102.568 10.0078 102.639 9.98392C102.95 9.82853 102.651 9.44604 102.903 9.3265C102.986 9.29064 103.082 9.29061 103.189 9.29061C103.512 9.29061 103.536 9.5297 103.536 9.76877C103.536 9.76877 103.488 10.0198 103.739 10.0317C104.026 10.0198 104.301 10.0198 104.301 10.4142C104.301 10.5218 104.277 10.6772 104.361 10.749C104.397 10.7848 104.468 10.7848 104.528 10.7848C104.731 10.7848 104.911 10.7848 105.03 10.9641C105.126 11.1075 104.97 11.3466 105.114 11.4901C105.162 11.5379 105.233 11.5259 105.293 11.5259C105.568 11.5259 105.783 11.5618 105.831 11.8486C105.843 11.9682 105.843 12.1714 105.759 12.2431C105.711 12.279 105.664 12.2789 105.604 12.2789C105.365 12.2789 105.174 12.3029 105.114 12.53C105.078 12.6734 105.114 12.793 105.197 12.9005C105.269 12.9603 105.377 13.0081 105.496 13.0081C105.64 13.0081 105.795 12.9484 105.831 12.8288C105.855 12.7451 105.843 12.6376 105.855 12.5419C105.855 12.4702 105.855 12.3866 105.891 12.3388C105.939 12.3149 106.022 12.3148 106.094 12.3148C106.213 12.3148 106.309 12.3148 106.393 12.3507C106.476 12.4104 106.536 12.5419 106.536 12.6615C106.536 12.8288 106.476 12.9962 106.309 13.0081C106.213 13.0081 106.106 12.9961 106.022 13.032C105.819 13.1276 105.735 13.4384 105.879 13.6297C105.986 13.809 106.309 13.9404 106.524 13.6894C106.644 13.546 106.5 13.3189 106.715 13.1635C106.751 13.1396 106.787 13.1157 106.835 13.1037C107.122 13.0559 107.337 13.3667 107.194 13.6058C107.146 13.7014 107.098 13.7372 107.002 13.7731C106.883 13.809 106.704 13.7253 106.644 13.809C106.512 13.9524 106.548 14.2154 106.584 14.3349C106.608 14.4067 106.656 14.4784 106.704 14.5262C106.704 14.5262 106.715 14.5262 106.727 14.5381C106.835 14.6099 107.002 14.5501 107.11 14.5979C107.206 14.6457 107.241 14.7413 107.349 14.7653H107.409C107.552 14.06 107.636 13.283 107.636 12.4941C107.636 6.0632 102.424 0.851562 95.9936 0.851562" fill="#9C9C9C"/>
<path d="M17.7482 4.14402C22.386 4.57434 21.4298 8.80585 18.3937 9.10468C14.9153 9.43937 16.9832 5.44693 17.7482 4.14402ZM17.7124 11.3997C21.0592 11.1606 24.167 6.6662 21.7046 3.72568C20.6647 2.48253 18.9674 2.18368 17.3896 1.98047C16.4094 2.88892 15.5847 3.73761 15.1185 4.9688C14.1981 7.2997 14.234 11.6388 17.7243 11.3997" fill="#9C9C9C"/>
<path d="M149.719 15.7772H152.253C152.468 15.8011 152.659 15.8729 152.815 16.1239C152.934 16.3152 152.922 16.9845 152.922 16.9845V21.5507C152.958 21.981 153.161 22.7341 154.739 22.7939H166.381V21.1802H156.46C155.839 21.216 155.767 20.9172 155.755 20.5347V16.7096C155.755 16.3391 155.707 15.9924 155.373 15.7892H167.648V14.1875H149.731V15.7892L149.719 15.7772Z" fill="#9C9C9C"/>
<path d="M159.094 4.58267C161.03 4.58267 162.596 5.80192 162.596 7.73836C162.596 9.6748 161.03 10.8941 159.094 10.8941C157.158 10.8941 155.592 9.6748 155.592 7.73836C155.592 5.80192 157.158 4.58267 159.094 4.58267ZM159.094 12.5197C162.632 12.5197 165.489 10.5952 165.489 7.73836C165.489 4.88152 162.62 2.95703 159.094 2.95703C155.568 2.95703 152.699 4.88152 152.699 7.73836C152.699 10.5952 155.568 12.5197 159.094 12.5197Z" fill="#9C9C9C"/>
<path d="M111.496 16.4232H119.122V23.3084H122.063V16.4232H129.689V14.7617H111.496V16.4232Z" fill="#9C9C9C"/>
<path d="M120.589 4.62363C122.621 4.62363 124.27 5.91454 124.27 7.93465C124.27 9.95476 122.621 11.2457 120.589 11.2457C118.557 11.2457 116.907 9.95476 116.907 7.93465C116.907 5.91454 118.557 4.62363 120.589 4.62363ZM120.589 12.9551C124.294 12.9551 127.306 10.923 127.306 7.92276C127.306 4.92247 124.306 2.90234 120.589 2.90234C116.871 2.90234 113.871 4.92247 113.871 7.92276C113.871 10.923 116.883 12.9551 120.589 12.9551Z" fill="#9C9C9C"/>
<path d="M171.528 9.28088C171.528 7.67913 172.604 6.6631 173.931 6.6631C175.258 6.6631 176.345 7.67913 176.345 9.28088C176.345 10.8826 175.27 11.8986 173.931 11.8986C172.592 11.8986 171.528 10.8826 171.528 9.28088ZM172.712 3.92574V4.51144H168.684V6.11322H170.596C169.592 6.85433 168.947 7.954 168.947 9.29277C168.947 11.791 171.182 13.4884 173.919 13.4884C176.656 13.4884 178.891 11.803 178.891 9.29277C178.891 7.954 178.258 6.85433 177.242 6.11322H179.023V4.51144H175.198V3.61494C175.198 3.17267 175.055 2.93359 174.457 2.93359H172.461C172.461 2.93359 172.688 3.06511 172.688 3.93771" fill="#9C9C9C"/>
<path d="M179.437 21.6209C177.608 21.6209 176.126 20.4615 176.126 18.6446C176.126 16.8276 177.608 15.6682 179.437 15.6682C181.266 15.6682 182.748 16.8276 182.748 18.6446C182.748 20.4615 181.266 21.6209 179.437 21.6209ZM179.437 14.0664C176.031 14.0664 173.27 15.9072 173.27 18.6326C173.27 21.3579 176.031 23.1988 179.437 23.1988C182.844 23.1988 185.605 21.3579 185.605 18.6326C185.605 15.9072 182.844 14.0664 179.437 14.0664Z" fill="#9C9C9C"/>
<path d="M183.333 4.8635V7.15852H182.269V3.91914C182.269 3.48882 182.126 3.26172 181.492 3.26172H179.711C179.711 3.26172 179.95 3.47691 179.95 4.8635V13.2069H182.269V8.82005H183.333V13.2069H185.652V3.91914C185.652 3.48882 185.508 3.26172 184.875 3.26172H183.094C183.094 3.26172 183.333 3.48886 183.333 4.8635Z" fill="#9C9C9C"/>
<path d="M144.192 22.774H146.93V3.91157C146.93 3.48125 146.643 3.24219 145.997 3.24219H143.941C143.941 3.24219 144.18 3.4335 144.18 4.8679V22.774H144.192Z" fill="#9C9C9C"/>
<path d="M144.203 14.4859C144.203 15.992 141.884 15.9561 141.884 15.9561H135.154C134.532 16.004 134.461 15.6932 134.449 15.3107V11.2585H140.258C140.903 11.2585 141.047 11.0194 141.047 10.5891V4.51679C141.047 4.08647 140.903 3.85938 140.258 3.85938H131.281V5.47305H138.19V9.64482H131.341C131.341 9.64482 131.592 9.95557 131.592 10.8043V16.3506C131.628 16.7809 131.831 17.534 133.409 17.5937H141.286C141.286 17.5937 144.37 17.6894 144.37 16.7092" fill="#9C9C9C"/>
<path d="M10.5469 12.6719C7.29568 11.883 4.0444 11.0821 0.793167 10.2812C-0.198938 16.1623 11.6346 15.5527 15.9496 15.6961C15.9496 18.9714 15.8302 22.0314 16.3083 25.0795C17.0255 25.0795 17.0016 23.9081 17.1331 23.2984C17.6112 21.0632 17.1809 18.6008 18.0893 16.5687C18.675 15.2299 24.4005 15.6244 26.1696 14.4888C26.7075 14.4888 26.5282 14.2617 26.5282 13.7597C20.719 13.7597 15.8899 13.6282 10.5349 12.6719" fill="#9C9C9C"/>
<path d="M41.0252 7.74976C40.2841 7.00866 39.0051 10.5707 39.0051 10.5827C37.5229 13.4156 36.8894 14.7783 33.4111 16.0334C32.6819 16.0932 33.3632 14.8261 33.3632 14.8261C34.439 13.057 35.6343 9.48296 35.467 8.53865C34.9769 5.75353 31.1639 4.02032 28.6657 3.78125V5.9448C29.6936 5.9448 30.889 6.62615 31.9169 7.45093C31.9169 7.45093 33.6023 8.84948 32.7775 9.48301C32.6939 9.51887 32.6221 9.56667 32.5385 9.61448C32.1321 9.85355 31.7138 10.1046 31.1878 10.1524C28.6418 10.3915 25.7133 8.92122 25.6057 11.2163C25.5818 11.2521 24.6375 12.3757 27.1238 12.4235C28.8091 12.543 31.5703 12.4235 32.2875 12.4235C32.2875 12.6745 31.8452 13.3559 31.6779 13.7384C31.2356 14.6707 29.8132 17.2048 31.4985 17.9818C32.7297 18.5556 34.1641 17.8981 35.3235 16.9897C35.3235 16.9897 36.5786 16.3561 37.7022 14.9815C37.7022 16.0214 37.6425 17.1571 37.6783 18.2329C37.6783 18.2329 37.5109 19.5477 38.1564 19.5477C38.8019 19.5477 39.1963 18.8903 39.2083 17.4798C39.4115 14.6827 40.4992 12.5191 41.0849 10.0687C41.0849 10.0687 41.7902 8.46694 41.0491 7.72583" fill="#9C9C9C"/>
<path d="M53.3685 11.7299C53.7271 10.4151 54.0857 9.0763 54.4443 7.76143C54.4443 7.11595 53.5478 7.12786 52.9979 7.04419C51.958 10.2477 49.9021 13.0089 46.7704 14.3716C46.5672 14.4553 46.352 14.5509 46.1369 14.6226C46.1369 14.6226 46.1369 14.6346 46.1249 14.6466C45.0372 14.9215 45.1687 13.6544 45.1687 13.6424C45.4795 11.8255 46.3759 10.3911 46.9497 8.71768C47.7625 7.31914 46.9497 6.78125 46.9497 6.78125C46.0891 6.78125 45.1448 8.9089 45.1448 8.9089C44.0451 10.6302 42.7541 13.26 43.6626 15.5311C44.4993 17.6229 46.7943 16.7025 48.5634 15.4832C48.8503 15.28 50.2966 14.3119 51.1811 13.6066V17.2643C51.1811 17.4675 51.205 17.8859 51.205 17.8859C51.2408 18.3281 51.3245 18.8302 51.5397 18.8302C51.8624 18.8302 52.2449 17.8739 52.2688 17.8739C52.2688 17.8739 52.1254 15.2442 53.0936 13.6783C53.7988 12.5667 55.6993 12.7101 56.7392 12.8894C56.811 12.8655 56.8827 12.8416 56.9544 12.8177C56.9544 12.7101 57.2771 12.5308 57.2771 12.0407C55.9623 12.0407 54.6714 11.7419 53.3446 11.7419" fill="#9C9C9C"/>
<path d="M75.9197 12.47V12.4461C75.7762 12.4461 75.6328 12.4222 75.4893 12.4222C75.4893 12.4222 75.4774 12.4222 75.4655 12.4222C73.9355 12.3146 72.3935 12.207 70.8635 12.0875C70.8635 10.414 72.1305 7.97552 73.027 6.6726V6.63678C73.6366 5.89568 73.0988 5.85981 72.5609 5.95543C72.2979 5.96739 72.0588 6.02712 71.8436 6.14666C70.1104 6.99534 69.5607 10.4499 68.6044 11.6572C67.9828 12.4222 66.9668 12.9601 66.1421 13.3187C65.7118 13.498 65.2217 13.8207 64.7077 13.6294C64.3013 13.4741 65.7356 11.8604 65.891 11.6692C66.5724 10.7966 67.7557 9.88807 67.8991 8.78837C68.2697 5.71636 63.1179 3.91144 60.2253 3.51698C60.2253 3.51698 59.8188 3.3855 59.4244 3.44526C59.4005 3.44526 59.3647 3.44526 59.3408 3.44526C59.018 3.54089 58.7192 3.75605 58.7192 4.34176C58.7192 5.46538 59.3647 5.8957 59.9862 5.99133C60.0101 5.99133 60.034 6.01519 60.046 6.01519C61.8389 6.18253 63.0701 6.73239 64.3372 7.50935C64.3491 7.50935 64.361 7.52133 64.373 7.53328C64.7435 7.7604 67.1939 9.40998 62.8191 9.64904C60.7751 9.44584 58.2411 8.8601 57.1653 10.2945C57.1653 10.2945 55.0496 11.9799 60.3687 11.6452C61.2293 11.6811 62.0899 11.705 62.9386 11.7409C62.9386 11.9919 60.9783 15.4344 62.0302 16.1755C63.7395 17.3469 66.8234 14.8607 67.9948 13.9044H68.3534C68.3534 15.2671 67.9469 16.7971 68.0426 18.2315C68.0426 18.2315 67.9589 19.6539 68.3534 20.3592V20.3951H68.3773C68.4968 20.6102 68.6761 20.7417 68.9032 20.7417C69.9073 20.7417 69.4889 19.7377 69.4889 19.7377C69.6085 18.4228 69.8953 15.5778 70.1583 14.9802C70.1583 14.4064 73.5171 13.7131 75.0232 13.3306C75.0232 13.3306 76.2902 13.1752 76.4337 12.8166C76.5054 12.6254 76.2184 12.5298 75.9316 12.482" fill="#9C9C9C"/>
</svg>
