<svg width="101" height="28" viewBox="0 0 101 28" fill="none" xmlns="http://www.w3.org/2000/svg">
<path d="M21.3375 9.6133C20.1541 9.6133 19.1142 9.6133 17.9309 9.6133V15.4465L21.1821 9.86434L21.3375 9.62526V9.6133ZM17.9309 15.4465C17.0105 15.4465 15.4805 15.4465 14.5003 15.4465V21.3276L17.9309 15.4465ZM14.5003 21.3276H11.1176V27.2564C11.5838 26.4555 11.8706 25.9535 12.1934 25.4156L14.4884 21.3276H14.5003ZM31.7725 27.2564H22.5447H11.5599H0.933594L7.67511 15.5661L14.333 4.04308L16.1977 0.851562H16.2455L24.4333 14.8967L31.653 27.0532L31.7725 27.2445V27.2564Z" fill="#9C9C9C"/>
<path d="M36.7539 7.94659C36.7539 5.75914 36.5507 5.52001 35.3913 5.42439L34.9012 5.38856C34.7816 5.30489 34.8175 4.9582 34.937 4.89844C36.0845 4.9343 36.7539 4.95826 37.5787 4.95826C38.4034 4.95826 39.0369 4.9343 39.8258 4.89844C39.9454 4.9582 39.9812 5.31684 39.8617 5.38856L39.5629 5.42439C38.4034 5.57978 38.3556 5.85476 38.3556 7.94659V15.262C38.3556 16.816 38.2719 18.1787 37.9014 19.0871C37.2559 20.6649 35.8454 21.9319 34.0166 21.9319C33.7776 21.9319 33.168 21.9081 33.168 21.5136C33.168 21.1789 33.4668 20.6051 33.8732 20.6051C34.1123 20.6051 34.3513 20.641 34.6024 20.7247C34.8773 20.8084 35.1522 20.8681 35.4271 20.8681C35.8455 20.8681 36.0725 20.6291 36.216 20.3542C36.6702 19.4218 36.73 16.4693 36.73 15.4055V7.94659H36.7539Z" fill="#9C9C9C"/>
<path d="M47.9935 13.4022C47.8501 12.9719 47.7784 12.9121 47.1807 12.9121H44.2044C43.7143 12.9121 43.5948 12.9719 43.4514 13.3902L42.7581 15.4581C42.4592 16.3427 42.3278 16.8806 42.3278 17.0957C42.3278 17.3348 42.4234 17.4543 42.9015 17.4902L43.5469 17.55C43.6904 17.6456 43.6904 17.9684 43.5111 18.0401C42.9971 18.0042 42.3875 18.0042 41.4552 17.9803C40.8097 17.9803 40.0926 18.0162 39.5666 18.0401C39.4471 17.9564 39.4112 17.6456 39.5307 17.55L40.1762 17.4902C40.6543 17.4543 41.0847 17.2392 41.3596 16.522C41.7182 15.6135 42.268 14.3345 43.0928 12.1232L45.1009 6.80393C45.3758 6.09868 45.4953 5.7162 45.4355 5.40541C45.9137 5.26197 46.2483 4.91532 46.4635 4.65234C46.583 4.65234 46.7145 4.68816 46.7623 4.8316C47.0133 5.70419 47.3361 6.60072 47.6349 7.47331L50.3363 15.3984C50.9101 17.0957 51.1611 17.3946 52.0097 17.4902L52.5357 17.55C52.6791 17.6456 52.6313 17.9684 52.5357 18.0401C51.7229 18.0042 51.0415 17.9803 50.1451 17.9803C49.2008 17.9803 48.4478 18.0162 47.874 18.0401C47.7186 17.9564 47.6947 17.6456 47.8381 17.55L48.4118 17.4902C48.8302 17.4543 49.1051 17.3348 49.1051 17.1316C49.1051 16.9165 49.0095 16.5579 48.8541 16.0917L47.9816 13.4142L47.9935 13.4022ZM44.0848 11.645C43.9295 12.0992 43.9414 12.1232 44.5032 12.1232H46.9297C47.5034 12.1232 47.5393 12.0395 47.36 11.5135L46.2962 8.29809C46.1408 7.81996 45.9615 7.29404 45.842 7.05497H45.8061C45.7463 7.1506 45.5551 7.6287 45.328 8.21441L44.0848 11.645Z" fill="#9C9C9C"/>
<path d="M58.1651 7.9107C58.1651 5.84277 58.1293 5.52001 56.9818 5.42439L56.4917 5.38856C56.3721 5.30489 56.408 4.9582 56.5276 4.89844C57.4958 4.9343 58.1292 4.95826 59.0137 4.95826C59.7787 4.95826 60.4482 4.9343 61.2968 4.89844C61.4164 4.9582 61.4522 5.31684 61.3326 5.38856L60.9621 5.42439C59.8146 5.54392 59.7788 5.84277 59.7788 7.9107V10.1819C59.7788 10.5524 59.8146 10.9349 60.0298 10.9349C60.2091 10.9349 60.4481 10.8154 60.5796 10.7198C60.8545 10.4807 61.3685 9.96667 61.5837 9.77542L63.7114 7.65973C64.0819 7.30113 65.0501 6.29698 65.2533 6.02205C65.3489 5.87861 65.3967 5.78305 65.3967 5.71133C65.3967 5.63961 65.313 5.56785 65.062 5.52003L64.5242 5.40053C64.3807 5.25709 64.4046 5.00603 64.56 4.9104C65.2533 4.94626 66.0422 4.97023 66.7235 4.97023C67.4048 4.97023 68.0861 4.94626 68.6718 4.9104C68.8153 5.00603 68.8273 5.281 68.7077 5.40053C68.1938 5.43639 67.4287 5.63955 66.8789 5.95034C66.329 6.26112 65.2174 7.19352 64.1177 8.23346L62.3487 9.90688C62.0738 10.1818 61.8945 10.3611 61.8945 10.5165C61.8945 10.66 62.014 10.8154 62.265 11.1261C64.1416 13.2777 65.6597 15.0469 67.1897 16.6725C67.6678 17.1506 68.0981 17.4017 68.7675 17.4853L69.3054 17.5451C69.4488 17.6407 69.401 17.9754 69.2695 18.0352C68.7555 17.9993 67.9905 17.9754 67.0582 17.9754C66.2454 17.9754 65.5641 17.9993 64.6556 18.0352C64.5122 17.9993 64.4524 17.6646 64.5719 17.5451L65.0262 17.4614C65.3011 17.4255 65.5043 17.3658 65.5043 17.2702C65.5043 17.1506 65.3608 16.9952 65.2294 16.8159C64.8588 16.3378 64.3448 15.8119 63.5918 14.9632L62.014 13.194C60.8904 11.927 60.5796 11.5326 60.1015 11.5326C59.8027 11.5326 59.7668 11.7836 59.7668 12.4769V15.0229C59.7668 17.0909 59.8027 17.3658 60.9143 17.4853L61.4522 17.5451C61.5717 17.6288 61.5359 17.9754 61.4163 18.0352C60.4481 17.9993 59.7787 17.9754 59.0137 17.9754C58.2009 17.9754 57.5316 17.9993 56.7307 18.0352C56.6112 17.9754 56.5753 17.6766 56.6948 17.5451L57.0893 17.4853C58.1292 17.3299 58.1771 17.0909 58.1771 15.0229V7.92266L58.1651 7.9107Z" fill="#9C9C9C"/>
<path d="M77.481 14.0214C77.481 16.4838 75.7837 18.2649 73.3214 18.2649C71.0503 18.2649 69.2812 16.6631 69.2812 14.2007C69.2812 11.7383 71.1579 9.94531 73.4768 9.94531C75.7957 9.94531 77.481 11.6069 77.481 14.0214ZM73.2377 10.531C71.9348 10.531 70.9666 11.7742 70.9666 13.9378C70.9666 15.7308 71.7794 17.6672 73.5126 17.6672C75.2458 17.6672 75.7837 15.8502 75.7837 14.3322C75.7837 12.6587 75.1143 10.531 73.2377 10.531Z" fill="#9C9C9C"/>
<path d="M80.1172 12.314C80.1172 11.549 80.1172 11.4415 79.5793 11.0948L79.4001 10.9752C79.3164 10.8916 79.3164 10.6764 79.4239 10.6167C79.8782 10.4613 80.9181 9.94727 81.4201 9.64844C81.5158 9.67234 81.5755 9.7082 81.5755 9.79187V10.9394C81.5755 11.035 81.5994 11.0948 81.6353 11.1187C82.3286 10.5449 83.0697 9.93531 83.7988 9.93531C84.2889 9.93531 84.6833 10.2461 84.6833 10.7243C84.6833 11.3697 84.1574 11.6327 83.8346 11.6327C83.6434 11.6327 83.5358 11.5729 83.4043 11.4892C83.1055 11.298 82.8067 11.1784 82.5318 11.1784C82.221 11.1784 81.9819 11.3577 81.8265 11.5729C81.6353 11.8478 81.5755 12.4216 81.5755 13.091V15.7685C81.5755 17.191 81.6114 17.43 82.3644 17.4779L83.0697 17.5376C83.2131 17.6332 83.1653 17.968 83.0338 18.0277C82.1014 17.9919 81.5396 17.968 80.8464 17.968C80.1531 17.968 79.5435 17.9919 79.0295 18.0277C78.8861 17.968 78.8502 17.6332 78.9936 17.5376L79.3642 17.4779C80.0933 17.3583 80.1172 17.179 80.1172 15.7685V12.314Z" fill="#9C9C9C"/>
<path d="M87.0951 12.9336C86.5812 12.9336 86.5572 12.9695 86.5572 13.4716C86.5572 15.4678 87.7167 17.1651 89.8324 17.1651C90.4778 17.1651 91.0397 16.9619 91.6493 16.1969C91.8405 16.1371 91.9839 16.2567 92.0078 16.436C91.3624 17.7747 89.9399 18.2649 88.912 18.2649C87.633 18.2649 86.629 17.715 86.0552 16.9619C85.4576 16.1969 85.2305 15.2645 85.2305 14.4039C85.2305 11.9774 86.8321 9.94531 89.1988 9.94531C90.8962 9.94531 91.9959 11.1048 91.9959 12.2882C91.9959 12.5631 91.96 12.7185 91.9122 12.8022C91.8524 12.9217 91.5775 12.9456 90.7528 12.9456H87.107L87.0951 12.9336ZM88.3143 12.3479C89.7726 12.3479 90.2029 12.2643 90.3703 12.1567C90.43 12.1209 90.4898 12.0371 90.4898 11.7861C90.4898 11.2362 90.1192 10.543 88.9717 10.543C87.8242 10.543 86.8083 11.6068 86.7844 12.2523C86.7844 12.2882 86.7843 12.3479 86.9278 12.3479H88.3263H88.3143Z" fill="#9C9C9C"/>
<path d="M97.0033 13.8828C97.3022 13.7872 97.338 13.6079 97.338 13.3091L97.3619 12.4006C97.3858 11.6715 97.1467 10.6793 95.9275 10.6793C95.3777 10.6793 94.7083 10.9543 94.6605 11.5639C94.6366 11.8747 94.6247 12.1137 94.4693 12.2333C94.1705 12.4723 93.6445 12.6038 93.3457 12.6038C93.1664 12.6038 93.0708 12.5082 93.0708 12.3289C93.0708 11.3009 95.294 9.90234 96.7403 9.90234C98.1867 9.90234 98.8561 10.7272 98.7963 12.2094L98.6768 15.64C98.6409 16.5485 98.8202 17.3493 99.5852 17.3493C99.7884 17.3493 99.9558 17.2895 100.075 17.2297C100.171 17.17 100.266 17.0863 100.326 17.0863C100.41 17.0863 100.47 17.2059 100.47 17.3374C100.47 17.433 99.7765 18.2099 98.8083 18.2099C98.3301 18.2099 97.864 18.0306 97.5293 17.6003C97.4456 17.4808 97.338 17.3254 97.2185 17.3254C97.075 17.3254 96.8479 17.5047 96.4535 17.7199C96.0232 17.9589 95.5809 18.2099 95.0311 18.2099C94.4812 18.2099 93.9912 18.0545 93.6565 17.7557C93.2859 17.421 93.0469 16.931 93.0469 16.3811C93.0469 15.6161 93.4174 15.1618 94.6844 14.7076L97.0273 13.8589L97.0033 13.8828ZM95.7841 17.3493C96.1786 17.3493 96.7882 17.0504 96.9914 16.8592C97.2304 16.6201 97.2305 16.3452 97.2424 15.9269L97.2782 14.7674C97.2782 14.5522 97.1946 14.5164 97.087 14.5164C96.9794 14.5164 96.6328 14.6 96.2742 14.7196C95.1148 15.114 94.541 15.4128 94.541 16.1778C94.541 16.5125 94.78 17.3613 95.7841 17.3613" fill="#9C9C9C"/>
</svg>
