<svg width="104" height="45" viewBox="0 0 104 45" fill="none" xmlns="http://www.w3.org/2000/svg">
<path d="M57.1386 12.4006C57.3298 12.4006 57.5211 12.4006 57.6765 12.3767C57.8438 12.3528 57.9992 12.3289 58.1427 12.2931C58.2861 12.2572 58.4295 12.2094 58.561 12.1615C58.6925 12.1137 58.824 12.054 58.9435 11.9823V10.3685H57.808C57.7482 10.3685 57.6884 10.3446 57.6526 10.3088C57.6167 10.2729 57.5928 10.2251 57.5928 10.1773V9.61547H59.84V12.4245C59.6607 12.556 59.4694 12.6755 59.2662 12.7712C59.063 12.8668 58.8479 12.9505 58.6327 13.0222C58.4056 13.0939 58.1665 13.1417 57.9036 13.1656C57.6406 13.2015 57.3657 13.2134 57.0669 13.2134C56.5409 13.2134 56.0509 13.1178 55.6086 12.9385C55.1663 12.7592 54.7838 12.5082 54.4611 12.1735C54.1384 11.8508 53.8873 11.4563 53.72 10.9901C53.5407 10.5359 53.457 10.0219 53.457 9.47204C53.457 8.92219 53.5407 8.40823 53.72 7.94205C53.8993 7.48782 54.1503 7.09338 54.473 6.75868C54.7958 6.42399 55.1902 6.17295 55.6564 5.99365C56.1106 5.81435 56.6366 5.71875 57.1983 5.71875C57.4852 5.71875 57.7602 5.74264 57.9992 5.7785C58.2502 5.82632 58.4773 5.88604 58.6925 5.95776C58.9076 6.04143 59.0989 6.13712 59.2782 6.2447C59.4575 6.36423 59.6248 6.4837 59.7802 6.62714L59.5053 7.08137C59.4455 7.177 59.3738 7.22481 59.2782 7.22481C59.2184 7.22481 59.1586 7.20092 59.0989 7.16506C59.0152 7.11724 58.9196 7.05746 58.812 6.99769C58.7044 6.92597 58.5729 6.86624 58.4295 6.80647C58.2741 6.7467 58.0948 6.68693 57.8916 6.65107C57.6884 6.60326 57.4374 6.57935 57.1625 6.57935C56.7561 6.57935 56.3736 6.65105 56.0509 6.78254C55.7162 6.91403 55.4293 7.10533 55.2022 7.35635C54.9631 7.60737 54.7838 7.90621 54.6643 8.26481C54.5328 8.62341 54.473 9.01787 54.473 9.46015C54.473 9.90242 54.5328 10.3327 54.6643 10.6913C54.7958 11.0499 54.9751 11.3607 55.2141 11.6117C55.4532 11.8628 55.7281 12.054 56.0628 12.1855C56.3855 12.317 56.7441 12.3887 57.1386 12.3887" fill="#9C9C9C"/>
<path d="M61.2659 13.1227V7.95893H61.7798C61.8755 7.95893 61.9472 7.98282 61.9831 8.01868C62.0189 8.05454 62.0428 8.12623 62.0548 8.2099L62.1145 9.01075C62.2938 8.65215 62.509 8.36532 62.772 8.16211C63.0349 7.95891 63.3338 7.86328 63.6923 7.86328C63.8358 7.86328 63.9673 7.87521 64.0748 7.91107C64.1944 7.94693 64.3019 7.98277 64.3976 8.04254L64.278 8.72389C64.2541 8.80756 64.2063 8.85543 64.1226 8.85543C64.0748 8.85543 64.0031 8.84343 63.9075 8.80757C63.8119 8.77171 63.6684 8.75978 63.4891 8.75978C63.1783 8.75978 62.9154 8.85538 62.7003 9.03468C62.4851 9.21398 62.3058 9.48889 62.1624 9.83554V13.1227H61.2539H61.2659Z" fill="#9C9C9C"/>
<path d="M67.517 12.4848C68.031 12.4848 68.4135 12.3175 68.6645 11.9708C68.9155 11.6361 69.047 11.158 69.047 10.5364C69.047 9.91484 68.9155 9.4367 68.6645 9.102C68.4135 8.75536 68.031 8.58802 67.517 8.58802C67.254 8.58802 67.0389 8.63581 66.8476 8.71949C66.6564 8.81511 66.501 8.93466 66.3695 9.102C66.238 9.26935 66.1424 9.47258 66.0826 9.7236C66.0229 9.96267 65.987 10.2376 65.987 10.5484C65.987 10.8592 66.0229 11.1221 66.0826 11.3732C66.1424 11.6122 66.238 11.8154 66.3695 11.9828C66.501 12.1501 66.6564 12.2816 66.8476 12.3653C67.0389 12.449 67.266 12.4968 67.517 12.4968M67.517 7.88281C67.8876 7.88281 68.2342 7.94255 68.545 8.07403C68.8438 8.20552 69.1068 8.38483 69.3219 8.61195C69.5371 8.83906 69.6925 9.12596 69.812 9.4487C69.9315 9.78339 69.9793 10.142 69.9793 10.5484C69.9793 10.9548 69.9196 11.3253 69.812 11.6481C69.6925 11.9708 69.5371 12.2577 69.3219 12.4848C69.1068 12.7119 68.8557 12.8912 68.545 13.0227C68.2342 13.1423 67.8995 13.2139 67.517 13.2139C67.1345 13.2139 66.7998 13.1542 66.489 13.0227C66.1902 12.9032 65.9272 12.7239 65.7121 12.4848C65.4969 12.2577 65.3296 11.9708 65.222 11.6481C65.1025 11.3253 65.0547 10.9548 65.0547 10.5484C65.0547 10.142 65.1144 9.77144 65.222 9.4487C65.3415 9.12596 65.4969 8.83906 65.7121 8.61195C65.9272 8.38483 66.1902 8.20552 66.489 8.07403C66.7879 7.9545 67.1345 7.88281 67.517 7.88281Z" fill="#9C9C9C"/>
<path d="M70.4575 7.94946H71.1747C71.2464 7.94946 71.3062 7.97336 71.354 8.00922C71.4018 8.04508 71.4376 8.09287 71.4496 8.14069L72.4417 11.4637C72.4656 11.5833 72.4895 11.7028 72.5134 11.8223C72.5373 11.9299 72.5612 12.0494 72.5732 12.169C72.5971 12.0494 72.633 11.9419 72.6688 11.8223C72.7047 11.7028 72.7405 11.5952 72.7764 11.4637L73.8641 8.11676C73.8641 8.11676 73.9119 8.02115 73.9597 7.98529C74.0075 7.94943 74.0554 7.9375 74.1151 7.9375H74.5096C74.5813 7.9375 74.6291 7.94943 74.6769 7.98529C74.7247 8.02115 74.7486 8.05699 74.7725 8.11676L75.8364 11.4637C75.8722 11.5833 75.9081 11.7028 75.932 11.8104C75.9559 11.9299 75.9918 12.0375 76.0157 12.157C76.0276 12.0494 76.0515 11.9299 76.0874 11.8104C76.1232 11.6908 76.1471 11.5713 76.1711 11.4637L77.1751 8.14069C77.1751 8.14069 77.2229 8.04508 77.2707 8.00922C77.3185 7.97336 77.3783 7.96143 77.4381 7.96143H78.1194L76.446 13.1252H75.7288C75.6451 13.1252 75.5734 13.0655 75.5495 12.9579L74.402 9.4556C74.3781 9.37192 74.3542 9.30019 74.3303 9.21651C74.3183 9.13284 74.2944 9.06111 74.2824 8.97743C74.2705 9.06111 74.2466 9.13284 74.2347 9.21651C74.2227 9.30019 74.1988 9.38388 74.1629 9.4556L73.0035 12.9579C72.9676 13.0774 72.8959 13.1252 72.7883 13.1252H72.107L70.4336 7.96143L70.4575 7.94946Z" fill="#9C9C9C"/>
<path d="M80.5723 13.2105C80.1659 13.2105 79.8551 13.103 79.628 12.8639C79.4128 12.6368 79.2933 12.3021 79.2933 11.8837V8.71612H78.6717C78.6717 8.71612 78.5761 8.70412 78.5403 8.66826C78.5044 8.6324 78.4805 8.58458 78.4805 8.51286V8.15427L79.3291 8.04673L79.5443 6.44495C79.5443 6.44495 79.5682 6.34934 79.616 6.31348C79.6519 6.27763 79.6997 6.26562 79.7595 6.26562H80.2137V8.04673H81.6958V8.70415H80.2137V11.8C80.2137 12.0152 80.2615 12.1826 80.3691 12.2901C80.4767 12.3977 80.6081 12.4455 80.7755 12.4455C80.8711 12.4455 80.9548 12.4336 81.0265 12.4097C81.0982 12.3857 81.158 12.3618 81.2058 12.326C81.2536 12.2901 81.3014 12.2662 81.3373 12.2423C81.3731 12.2184 81.409 12.2065 81.4329 12.2065C81.4807 12.2065 81.5285 12.2304 81.5644 12.2901L81.8274 12.7205C81.672 12.8639 81.4807 12.9834 81.2656 13.0671C81.0504 13.1507 80.8233 13.1986 80.5842 13.1986" fill="#9C9C9C"/>
<path d="M82.8518 13.1319V5.61328H83.7603V8.6494C83.9874 8.41033 84.2264 8.23107 84.5013 8.08763C84.7643 7.94419 85.0751 7.87248 85.4337 7.87248C85.7205 7.87248 85.9596 7.92028 86.1748 8.01591C86.3899 8.11154 86.5692 8.24305 86.7127 8.41039C86.8561 8.57774 86.9637 8.79285 87.0354 9.03192C87.1071 9.27098 87.143 9.54596 87.143 9.83284V13.12H86.2345V9.83284C86.2345 9.43838 86.1509 9.13954 85.9716 8.92438C85.7923 8.70922 85.5174 8.60161 85.1468 8.60161C84.8719 8.60161 84.6328 8.66135 84.3938 8.79283C84.1547 8.92432 83.9395 9.09167 83.7483 9.31878V13.12H82.8398L82.8518 13.1319Z" fill="#9C9C9C"/>
<path d="M53.9459 25.798V21.4112L53.3721 21.3394C53.3004 21.3274 53.2406 21.2917 53.1928 21.2558C53.145 21.2199 53.1211 21.1721 53.1211 21.1004V20.7298H53.9339V20.2278C53.9339 19.9289 53.9698 19.666 54.0534 19.4389C54.1371 19.2118 54.2567 19.0205 54.412 18.8532C54.5674 18.6978 54.7467 18.5783 54.9738 18.4946C55.189 18.4109 55.44 18.375 55.703 18.375C55.9301 18.375 56.1452 18.4109 56.3484 18.4826L56.3245 18.9368C56.3245 19.0086 56.2887 19.0444 56.2409 19.0563C56.1811 19.0683 56.1094 19.0803 56.0138 19.0803H55.8584C55.703 19.0803 55.5595 19.1042 55.428 19.14C55.2965 19.1759 55.189 19.2476 55.0933 19.3432C54.9977 19.4388 54.926 19.5584 54.8782 19.7018C54.8304 19.8572 54.8065 20.0365 54.8065 20.2517V20.7298H56.3006V21.3873H54.8423V25.798H53.9339H53.9459Z" fill="#9C9C9C"/>
<path d="M57.2424 25.7907V20.6269H57.7564C57.852 20.6269 57.9238 20.6508 57.9596 20.6866C57.9955 20.7225 58.0194 20.7943 58.0313 20.8779L58.0911 21.6788C58.2704 21.3202 58.4856 21.0333 58.7485 20.8301C59.0115 20.6269 59.3103 20.5312 59.6689 20.5312C59.8123 20.5312 59.9438 20.5433 60.0514 20.5791C60.1709 20.615 60.2785 20.6508 60.3741 20.7106L60.2546 21.3919C60.2307 21.4756 60.1829 21.5234 60.0992 21.5234C60.0514 21.5234 59.9797 21.5115 59.8841 21.4756C59.7884 21.4397 59.645 21.4277 59.4657 21.4277C59.1549 21.4277 58.892 21.5234 58.6768 21.7027C58.4617 21.882 58.2824 22.1569 58.1389 22.5036V25.7907H57.2305H57.2424Z" fill="#9C9C9C"/>
<path d="M63.4743 25.1528C63.9883 25.1528 64.3708 24.9854 64.6218 24.6388C64.8728 24.3041 65.0043 23.826 65.0043 23.2045C65.0043 22.5829 64.8728 22.1047 64.6218 21.77C64.3708 21.4234 63.9883 21.2561 63.4743 21.2561C63.2113 21.2561 62.9962 21.3039 62.8049 21.3875C62.6137 21.4712 62.4583 21.6027 62.3268 21.77C62.1953 21.9374 62.0997 22.1405 62.0399 22.3916C61.9801 22.6306 61.9443 22.9056 61.9443 23.2163C61.9443 23.5271 61.9801 23.7901 62.0399 24.0411C62.0997 24.2802 62.1953 24.4834 62.3268 24.6508C62.4583 24.8181 62.6137 24.9496 62.8049 25.0333C62.9962 25.117 63.2233 25.1647 63.4743 25.1647M63.4743 20.5508C63.8568 20.5508 64.1915 20.6105 64.5023 20.742C64.8011 20.8735 65.0641 21.0409 65.2792 21.2799C65.4944 21.507 65.6498 21.7939 65.7693 22.1167C65.8769 22.4514 65.9366 22.8099 65.9366 23.2163C65.9366 23.6228 65.8769 23.9934 65.7693 24.3161C65.6617 24.6388 65.4944 24.9257 65.2792 25.1528C65.0641 25.3799 64.8131 25.5592 64.5023 25.6907C64.2035 25.8102 63.8568 25.882 63.4743 25.882C63.0918 25.882 62.7571 25.8222 62.4463 25.6907C62.1475 25.5712 61.8845 25.3918 61.6694 25.1528C61.4542 24.9257 61.2869 24.6388 61.1793 24.3161C61.0598 23.9934 61 23.6228 61 23.2163C61 22.8099 61.0598 22.4394 61.1793 22.1167C61.2989 21.7939 61.4542 21.507 61.6694 21.2799C61.8845 21.0528 62.1475 20.8735 62.4463 20.742C62.7571 20.6225 63.0918 20.5508 63.4743 20.5508Z" fill="#9C9C9C"/>
<path d="M67.0938 25.7983V20.6345H67.6317C67.7631 20.6345 67.8468 20.6942 67.8707 20.8257L67.9424 21.3516C68.1337 21.1126 68.3488 20.9213 68.5879 20.7779C68.8269 20.6225 69.1019 20.5508 69.4126 20.5508C69.7593 20.5508 70.0462 20.6464 70.2613 20.8376C70.4765 21.0289 70.6319 21.2919 70.7275 21.6266C70.7992 21.4354 70.8948 21.2799 71.0144 21.1484C71.1339 21.017 71.2654 20.8975 71.4088 20.8138C71.5523 20.7301 71.7076 20.6584 71.875 20.6225C72.0423 20.5866 72.2097 20.5627 72.377 20.5627C72.6519 20.5627 72.891 20.6105 73.1061 20.6942C73.3213 20.7779 73.5006 20.9094 73.644 21.0767C73.7875 21.2441 73.907 21.4473 73.9787 21.6864C74.0624 21.9254 74.0983 22.2123 74.0983 22.5231V25.8103H73.1898V22.5231C73.1898 22.1167 73.1062 21.8059 72.9269 21.6027C72.7476 21.3875 72.4965 21.2919 72.1618 21.2919C72.0065 21.2919 71.875 21.3158 71.7315 21.3756C71.6001 21.4234 71.4805 21.5071 71.373 21.6027C71.2654 21.7103 71.1937 21.8298 71.1339 21.9852C71.0741 22.1406 71.0502 22.3199 71.0502 22.5231V25.8103H70.1418V22.5231C70.1418 22.1047 70.0581 21.7939 69.8908 21.5907C69.7234 21.3875 69.4844 21.2799 69.1616 21.2799C68.9345 21.2799 68.7313 21.3397 68.5401 21.4592C68.3488 21.5788 68.1695 21.7461 68.0141 21.9493V25.7983H67.1057H67.0938Z" fill="#9C9C9C"/>
<path d="M54.9767 34.3712H55.3473C55.4788 34.3712 55.5744 34.3593 55.658 34.3234C55.7298 34.2876 55.8015 34.2397 55.8732 34.1561L58.2997 31.4068C58.3714 31.3231 58.4431 31.2633 58.5148 31.2275C58.5866 31.1916 58.6702 31.1797 58.7778 31.1797H59.6145L56.8295 34.3234C56.7577 34.4071 56.686 34.4668 56.6262 34.5266C56.5665 34.5864 56.4948 34.6222 56.4231 34.6581C56.5187 34.6939 56.6023 34.7298 56.6741 34.7895C56.7458 34.8493 56.8175 34.933 56.9012 35.0167L59.8058 38.4832H58.9451C58.8854 38.4832 58.8256 38.4831 58.7778 38.4712C58.73 38.4712 58.6941 38.4473 58.6583 38.4354C58.6224 38.4234 58.5985 38.3995 58.5746 38.3636C58.5507 38.3278 58.5149 38.3039 58.491 38.28L55.9688 35.3753C55.9688 35.3753 55.8971 35.3036 55.8613 35.2677C55.8254 35.2438 55.7895 35.2199 55.7537 35.196C55.7059 35.1721 55.6581 35.1602 55.6103 35.1482C55.5505 35.1482 55.4907 35.1362 55.407 35.1362H54.9528V38.4832H53.9727V31.1797H54.9528V34.3832L54.9767 34.3712Z" fill="#9C9C9C"/>
<path d="M60.7346 38.466V33.3022H61.2725C61.404 33.3022 61.4876 33.362 61.5235 33.4935L61.5952 34.0553C61.8223 33.8042 62.0733 33.601 62.3483 33.4576C62.6232 33.3022 62.9459 33.2305 63.3045 33.2305C63.5914 33.2305 63.8305 33.2783 64.0456 33.3739C64.2608 33.4695 64.44 33.601 64.5835 33.7684C64.7269 33.9357 64.8345 34.1509 64.9062 34.39C64.9779 34.629 65.0138 34.892 65.0138 35.1908V38.478H64.1054V35.1908C64.1054 34.7964 64.0217 34.4975 63.8424 34.2824C63.6631 34.0672 63.3882 33.9597 63.0296 33.9597C62.7547 33.9597 62.5156 34.0194 62.2765 34.1509C62.0375 34.2824 61.8223 34.4497 61.6311 34.6768V38.478H60.7227L60.7346 38.466Z" fill="#9C9C9C"/>
<path d="M68.5522 37.8328C69.0662 37.8328 69.4487 37.6655 69.6997 37.3188C69.9507 36.9841 70.0822 36.506 70.0822 35.8844C70.0822 35.2628 69.9507 34.7847 69.6997 34.45C69.4487 34.1033 69.0662 33.936 68.5522 33.936C68.2892 33.936 68.0741 33.9838 67.8828 34.0675C67.6916 34.1511 67.5362 34.2826 67.4047 34.45C67.2732 34.6173 67.1776 34.8205 67.1178 35.0596C67.0581 35.2987 67.0222 35.5736 67.0222 35.8844C67.0222 36.1952 67.0581 36.4701 67.1178 36.7092C67.1776 36.9482 67.2732 37.1515 67.4047 37.3188C67.5362 37.4862 67.6916 37.6176 67.8828 37.7012C68.0741 37.7849 68.3012 37.8328 68.5522 37.8328ZM68.5522 33.2188C68.9227 33.2188 69.2694 33.2786 69.5802 33.41C69.879 33.5415 70.1419 33.7208 70.3571 33.948C70.5723 34.1751 70.7276 34.4619 70.8472 34.7846C70.9667 35.1193 71.0145 35.478 71.0145 35.8844C71.0145 36.2908 70.9548 36.6613 70.8472 36.9841C70.7276 37.3068 70.5723 37.5937 70.3571 37.8208C70.1419 38.0479 69.8909 38.2273 69.5802 38.3587C69.2694 38.4783 68.9347 38.55 68.5522 38.55C68.1697 38.55 67.835 38.4902 67.5242 38.3587C67.2254 38.2392 66.9624 38.0599 66.7473 37.8208C66.5321 37.5937 66.3648 37.3068 66.2572 36.9841C66.1377 36.6613 66.0898 36.2908 66.0898 35.8844C66.0898 35.478 66.1496 35.1074 66.2572 34.7846C66.3767 34.4619 66.5321 34.1751 66.7473 33.948C66.9624 33.7208 67.2254 33.5415 67.5242 33.41C67.8231 33.2905 68.1697 33.2188 68.5522 33.2188Z" fill="#9C9C9C"/>
<path d="M71.5002 33.301H72.2174C72.2892 33.301 72.3489 33.325 72.3967 33.3609C72.4445 33.3967 72.4804 33.4445 72.4923 33.4923L73.4845 36.8153C73.5084 36.9348 73.5323 37.0544 73.5562 37.1739C73.5801 37.2934 73.604 37.4011 73.6159 37.5206C73.6398 37.4011 73.6757 37.2934 73.7116 37.1739C73.7474 37.0544 73.7833 36.9468 73.8191 36.8153L74.9069 33.4684C74.9069 33.4684 74.9547 33.3728 75.0025 33.3369C75.0503 33.3011 75.0981 33.2891 75.1579 33.2891H75.5524C75.6241 33.2891 75.6719 33.3011 75.7197 33.3369C75.7675 33.3728 75.7914 33.4086 75.8153 33.4684L76.8791 36.8153C76.915 36.9348 76.9508 37.0544 76.9747 37.162C76.9986 37.2815 77.0345 37.3891 77.0584 37.5086C77.0704 37.401 77.0943 37.2815 77.1301 37.162C77.166 37.0425 77.1899 36.9229 77.2138 36.8153L78.2179 33.4923C78.2179 33.4923 78.2657 33.3967 78.3135 33.3609C78.3613 33.325 78.4211 33.313 78.4808 33.313H79.1622L77.4887 38.4768H76.7716C76.6879 38.4768 76.6162 38.4171 76.5923 38.3095L75.4447 34.8072C75.4208 34.7354 75.3969 34.6518 75.373 34.5681C75.3611 34.4844 75.3372 34.4127 75.3252 34.3291C75.3133 34.4127 75.2894 34.4844 75.2774 34.5681C75.2655 34.6518 75.2416 34.7354 75.2057 34.8072L74.0463 38.3095C74.0104 38.429 73.9387 38.4768 73.843 38.4768H73.1617L71.4883 33.313L71.5002 33.301Z" fill="#9C9C9C"/>
<path d="M81.0382 30.9648H80.1289V38.4835H81.0382V30.9648Z" fill="#9C9C9C"/>
<path d="M84.759 33.8881C84.3167 33.8881 83.9701 34.0196 83.719 34.2706C83.468 34.5217 83.3126 34.8803 83.2529 35.3225H86.0618C86.0618 35.1074 86.038 34.9162 85.9782 34.7488C85.9184 34.5695 85.8347 34.4261 85.7272 34.2946C85.6196 34.1631 85.4761 34.0675 85.3208 33.9957C85.1534 33.924 84.9741 33.8881 84.7709 33.8881M84.747 33.2188C85.0578 33.2188 85.3446 33.2666 85.6076 33.3741C85.8706 33.4817 86.0977 33.6252 86.2889 33.8284C86.4802 34.0196 86.6236 34.2707 86.7312 34.5576C86.8388 34.8445 86.8866 35.1671 86.8866 35.5377C86.8866 35.6811 86.8746 35.7768 86.8388 35.8246C86.8029 35.8725 86.7551 35.8964 86.6595 35.8964H83.217C83.217 36.2191 83.2648 36.5059 83.3485 36.745C83.4322 36.9841 83.5398 37.1873 83.6832 37.3546C83.8266 37.522 83.994 37.6415 84.1972 37.7132C84.4004 37.7969 84.6155 37.8328 84.8546 37.8328C85.0817 37.8328 85.2849 37.8089 85.4403 37.7491C85.6076 37.7013 85.7511 37.6415 85.8706 37.5817C85.9901 37.522 86.0857 37.4622 86.1694 37.4144C86.2531 37.3666 86.3129 37.3307 86.3726 37.3307C86.4443 37.3307 86.5041 37.3546 86.54 37.4144L86.791 37.7491C86.6834 37.8806 86.54 38.0001 86.3846 38.1077C86.2292 38.2033 86.0618 38.287 85.8825 38.3587C85.7033 38.4185 85.524 38.4663 85.3327 38.5022C85.1415 38.538 84.9502 38.55 84.7709 38.55C84.4123 38.55 84.0896 38.4902 83.7788 38.3706C83.48 38.2511 83.217 38.0719 83.0019 37.8448C82.7867 37.6176 82.6074 37.3188 82.4879 36.9841C82.3684 36.6374 82.3086 36.243 82.3086 35.8007C82.3086 35.4421 82.3683 35.1074 82.4759 34.7846C82.5835 34.4738 82.7508 34.1989 82.954 33.9718C83.1572 33.7447 83.4202 33.5655 83.719 33.434C84.0179 33.3025 84.3526 33.2427 84.7231 33.2427" fill="#9C9C9C"/>
<path d="M89.9506 37.8141C90.2494 37.8141 90.5004 37.7424 90.7275 37.6109C90.9546 37.4794 91.1578 37.2761 91.3371 37.0371V34.5389C91.1698 34.3118 90.9905 34.1564 90.7873 34.0727C90.5841 33.9771 90.3689 33.9412 90.1298 33.9412C89.6517 33.9412 89.2812 34.1085 89.0182 34.4552C88.7552 34.8018 88.6357 35.2919 88.6357 35.9254C88.6357 36.2601 88.6596 36.547 88.7194 36.7861C88.7792 37.0252 88.8628 37.2164 88.9704 37.3838C89.078 37.5392 89.2214 37.6467 89.3888 37.7184C89.5561 37.7902 89.7354 37.826 89.9506 37.826M91.7077 38.4835C91.5762 38.4835 91.4925 38.4237 91.4686 38.2922L91.3849 37.6587C91.1578 37.9336 90.9068 38.1368 90.6319 38.3041C90.345 38.4595 90.0223 38.5432 89.6517 38.5432C89.3529 38.5432 89.0899 38.4834 88.8509 38.3758C88.6118 38.2683 88.4086 38.089 88.2293 37.8738C88.062 37.6467 87.9305 37.3718 87.8349 37.049C87.7392 36.7144 87.6914 36.3438 87.6914 35.9135C87.6914 35.531 87.7392 35.1724 87.8468 34.8497C87.9544 34.5269 88.0978 34.24 88.2891 34.001C88.4803 33.7619 88.7194 33.5707 88.9943 33.4272C89.2692 33.2957 89.58 33.224 89.9386 33.224C90.2613 33.224 90.5243 33.2718 90.7514 33.3794C90.9785 33.4869 91.1698 33.6423 91.3491 33.8336V30.9648H92.2575V38.4835H91.7196H91.7077Z" fill="#9C9C9C"/>
<path d="M95.5783 35.9441C95.7576 35.9441 95.9249 35.9202 96.0683 35.8724C96.2118 35.8246 96.3313 35.7529 96.427 35.6573C96.5226 35.5616 96.5943 35.454 96.6421 35.3225C96.6899 35.1911 96.7138 35.0596 96.7138 34.9042C96.7138 34.5934 96.6182 34.3304 96.427 34.1511C96.2357 33.9599 95.9488 33.8643 95.5902 33.8643C95.2316 33.8643 94.9448 33.9599 94.7535 34.1511C94.5623 34.3424 94.4666 34.5934 94.4666 34.9042C94.4666 35.0596 94.4905 35.203 94.5384 35.3225C94.5862 35.454 94.6579 35.5616 94.7535 35.6573C94.8492 35.7529 94.9687 35.8246 95.1121 35.8724C95.2556 35.9202 95.4109 35.9441 95.5902 35.9441M97.2039 38.7293C97.2039 38.5978 97.168 38.4902 97.0963 38.4185C97.0246 38.3348 96.929 38.275 96.8095 38.2392C96.6899 38.1913 96.5465 38.1675 96.3911 38.1436C96.2357 38.1197 96.0684 38.1077 95.8891 38.1077H95.3512C95.1719 38.1077 94.9926 38.0838 94.8253 38.036C94.634 38.1316 94.4786 38.2391 94.3471 38.3706C94.2276 38.5021 94.1678 38.6575 94.1678 38.8488C94.1678 38.9683 94.1917 39.0759 94.2515 39.1716C94.3113 39.2672 94.4069 39.3628 94.5264 39.4345C94.646 39.5062 94.8013 39.566 94.9926 39.6138C95.1719 39.6497 95.399 39.6736 95.65 39.6736C95.901 39.6736 96.1162 39.6497 96.3074 39.6019C96.4987 39.554 96.666 39.4943 96.7975 39.4106C96.929 39.327 97.0366 39.2313 97.1083 39.1118C97.18 38.9923 97.2159 38.8727 97.2159 38.7293M95.6022 33.2188C95.8293 33.2188 96.0325 33.2427 96.2357 33.2905C96.4389 33.3383 96.6063 33.4101 96.7736 33.5057H98.1721V33.8403C98.1721 33.9479 98.1004 34.0196 97.957 34.0555L97.3713 34.1392C97.4908 34.3543 97.5386 34.6054 97.5386 34.8803C97.5386 35.1313 97.4908 35.3584 97.3952 35.5616C97.2995 35.7648 97.1681 35.9441 96.9888 36.0876C96.8214 36.231 96.6182 36.3506 96.3791 36.4223C96.1401 36.494 95.8771 36.5418 95.6022 36.5418C95.3631 36.5418 95.136 36.5179 94.9209 36.4581C94.8133 36.5298 94.7296 36.6016 94.6699 36.6852C94.6101 36.7689 94.5862 36.8407 94.5862 36.9243C94.5862 37.0558 94.634 37.1514 94.7416 37.2112C94.8372 37.2829 94.9687 37.3188 95.136 37.3546C95.3034 37.3785 95.4826 37.4024 95.6978 37.4024H96.3313C96.5465 37.4024 96.7616 37.4264 96.9648 37.4622C97.168 37.4981 97.3593 37.5578 97.5266 37.6535C97.694 37.7371 97.8255 37.8567 97.9211 38.012C98.0167 38.1674 98.0645 38.3587 98.0645 38.5977C98.0645 38.8249 98.0047 39.0401 97.8972 39.2433C97.7896 39.4584 97.6223 39.6377 97.419 39.805C97.2158 39.9724 96.9529 40.1039 96.6541 40.1995C96.3552 40.2952 96.0206 40.343 95.6381 40.343C95.2556 40.343 94.9328 40.3071 94.646 40.2354C94.3591 40.1637 94.132 40.0561 93.9407 39.9366C93.7495 39.8051 93.618 39.6616 93.5224 39.5062C93.4267 39.3389 93.3789 39.1715 93.3789 38.9922C93.3789 38.7412 93.4626 38.5141 93.618 38.3468C93.7734 38.1675 94.0005 38.0241 94.2874 37.9165C94.1439 37.8448 94.0244 37.761 93.9407 37.6415C93.857 37.522 93.8092 37.3785 93.8092 37.1873C93.8092 37.1155 93.8212 37.0319 93.8451 36.9601C93.869 36.8765 93.9168 36.8048 93.9646 36.7211C94.0244 36.6375 94.0841 36.5657 94.1678 36.494C94.2515 36.4223 94.3471 36.3625 94.4547 36.3027C94.2037 36.1593 94.0005 35.9681 93.8571 35.729C93.7136 35.4899 93.6419 35.215 93.6419 34.9042C93.6419 34.6532 93.6897 34.4261 93.7853 34.2229C93.881 34.0197 94.0124 33.8404 94.1917 33.6969C94.371 33.5535 94.5742 33.4459 94.8133 33.3623C95.0524 33.2786 95.3153 33.2427 95.6022 33.2427" fill="#9C9C9C"/>
<path d="M101.169 33.892C100.726 33.892 100.38 34.0235 100.129 34.2746C99.8777 34.5256 99.7223 34.8842 99.6626 35.3265H102.472C102.472 35.1113 102.448 34.9201 102.388 34.7527C102.328 34.5734 102.244 34.43 102.137 34.2985C102.029 34.167 101.886 34.0714 101.73 33.9997C101.563 33.9279 101.384 33.892 101.181 33.892M101.157 33.2227C101.467 33.2227 101.754 33.2705 102.017 33.3781C102.28 33.4856 102.507 33.6291 102.699 33.8323C102.89 34.0235 103.033 34.2746 103.141 34.5615C103.248 34.8484 103.308 35.1711 103.308 35.5416C103.308 35.685 103.296 35.7807 103.26 35.8285C103.225 35.8764 103.177 35.9003 103.081 35.9003H99.6387C99.6387 36.223 99.6865 36.5098 99.7701 36.7489C99.8538 36.988 99.9614 37.1912 100.105 37.3585C100.248 37.5259 100.416 37.6454 100.619 37.7171C100.822 37.8008 101.037 37.8367 101.276 37.8367C101.503 37.8367 101.695 37.8128 101.862 37.753C102.029 37.7052 102.173 37.6454 102.292 37.5856C102.412 37.5259 102.507 37.4661 102.591 37.4183C102.675 37.3705 102.734 37.3346 102.794 37.3346C102.866 37.3346 102.926 37.3585 102.962 37.4183L103.213 37.753C103.105 37.8845 102.962 38.004 102.806 38.1116C102.651 38.2072 102.483 38.2909 102.304 38.3626C102.125 38.4224 101.946 38.4702 101.754 38.5061C101.563 38.5419 101.372 38.5539 101.193 38.5539C100.834 38.5539 100.511 38.4941 100.212 38.3745C99.9136 38.255 99.6506 38.0758 99.4354 37.8487C99.2203 37.6215 99.041 37.3227 98.9215 36.988C98.8019 36.6413 98.7422 36.2469 98.7422 35.8046C98.7422 35.446 98.8019 35.1113 98.9095 34.7885C99.0171 34.4778 99.1844 34.2028 99.3876 33.9757C99.5908 33.7486 99.8538 33.5694 100.153 33.4379C100.451 33.3064 100.786 33.2466 101.157 33.2466" fill="#9C9C9C"/>
<path d="M44.1539 0.46875L31.6869 12.9361L39.8389 0.46875H0.632812V44.0147H44.1779V0.46875H44.1539ZM15.8012 29.1567C15.8012 30.125 15.0004 31.0692 11.5938 31.0692C7.32653 31.0692 3.91991 28.4037 3.91991 22.439C3.91991 16.4743 7.80466 13.4261 12.8489 13.4261H13.3628C14.582 13.4261 15.0004 13.5935 15.0004 14.3346C15.0004 14.9562 14.8331 15.3387 14.3908 15.3387H13.1357C8.79675 15.3387 6.2627 17.8967 6.2627 22.415C6.2627 26.9334 8.31863 29.2524 11.6296 29.2524C13.2672 29.2524 13.6258 28.9296 13.6258 28.1168V22.8932C13.6258 22.4987 13.9485 22.3075 14.7135 22.3075C15.4785 22.3075 15.8012 22.4987 15.8012 22.8932V29.1567ZM22.3874 23.443C21.73 23.443 21.1921 22.9051 21.1921 22.2477C21.1921 21.5902 21.73 21.0523 22.3874 21.0523C23.0448 21.0523 23.5827 21.5902 23.5827 22.2477C23.5827 22.9051 23.0448 23.443 22.3874 23.443ZM25.2083 15.3387H24.6346C21.5148 15.3387 20.3912 16.5221 20.3912 19.3789V30.3281C20.3912 30.7106 20.0685 30.9019 19.3035 30.9019C18.5385 30.9019 18.2158 30.7106 18.2158 30.3281V19.1876C18.2158 14.9801 20.714 13.4381 24.1923 13.4381C25.4115 13.4381 25.8299 13.5935 25.8299 14.3346C25.8299 14.9442 25.6745 15.3267 25.2203 15.3267L25.2083 15.3387ZM30.1808 30.3281C30.1808 30.7106 29.858 30.9019 29.093 30.9019C28.3281 30.9019 28.0054 30.7106 28.0054 30.3281V14.0119C28.0054 13.6294 28.3281 13.4381 29.093 13.4381C29.858 13.4381 30.1808 13.6294 30.1808 14.0119V30.3281ZM34.1253 22.7856L40.317 29.6229C40.5441 29.8739 40.6995 30.0652 40.6995 30.2684C40.6995 30.6509 39.8628 31.0454 39.3129 31.0454C38.9304 31.0454 38.6077 30.7585 38.3208 30.4357L31.5434 22.9171C31.2207 22.5585 31.1609 22.3672 31.1609 22.176C31.1609 21.9847 31.2327 21.7935 31.5434 21.4349L38.3208 13.9162C38.6077 13.5935 38.9304 13.3066 39.3129 13.3066C39.8628 13.3066 40.6995 13.7011 40.6995 14.0836C40.6995 14.2749 40.5441 14.4661 40.317 14.7291L34.1253 21.5663C33.8384 21.8891 33.6711 22.0445 33.6711 22.176C33.6711 22.3074 33.8265 22.4628 34.1253 22.7856Z" fill="#9C9C9C"/>
</svg>
