<svg width="50" height="43" viewBox="0 0 50 43" fill="none" xmlns="http://www.w3.org/2000/svg">
<path d="M26.2048 39.6729C25.9538 39.6729 25.7267 39.5892 25.5594 39.4219C25.3203 39.1947 25.3203 38.9557 25.3203 38.4536C25.3203 37.9516 25.3203 37.7125 25.5594 37.4854C25.7267 37.3181 25.9538 37.2344 26.2048 37.2344C26.659 37.2344 27.0057 37.4974 27.0894 37.9516H26.8144C26.7427 37.6528 26.5276 37.4615 26.2168 37.4615C26.0494 37.4615 25.8821 37.5213 25.7745 37.6289C25.6191 37.7842 25.5952 37.9516 25.5952 38.4536C25.5952 38.9557 25.6072 39.123 25.7745 39.2784C25.8821 39.386 26.0494 39.4458 26.2168 39.4458C26.5395 39.4458 26.7547 39.2545 26.8264 38.9557H27.1013C27.0176 39.4099 26.671 39.6729 26.2168 39.6729" fill="#9C9C9C"/>
<path d="M28.3761 37.6127L27.898 38.8798H28.8542L28.3881 37.6127H28.3761ZM29.1291 39.6448L28.9259 39.1069H27.8143L27.6111 39.6448H27.3242L28.2566 37.2422H28.4837L29.416 39.6448H29.1291Z" fill="#9C9C9C"/>
<path d="M30.7685 37.4693H30.0872V38.3538H30.7685C31.0673 38.3538 31.2705 38.2104 31.2705 37.9116C31.2705 37.6127 31.0554 37.4693 30.7685 37.4693ZM31.2825 39.6448L30.7087 38.581H30.0992V39.6448H29.8242V37.2422H30.8044C31.2466 37.2422 31.5574 37.4932 31.5574 37.9116C31.5574 38.2582 31.3303 38.4973 31.0076 38.557L31.6052 39.6448H31.2825Z" fill="#9C9C9C"/>
<path d="M32.168 39.6448V37.2422H33.7457V37.4693H32.4429V38.318H33.5545V38.5451H32.4429V39.4177H33.7457V39.6448H32.168Z" fill="#9C9C9C"/>
<path d="M34.3008 39.6448V37.2422H35.8786V37.4693H34.5757V38.318H35.6873V38.5451H34.5757V39.4177H35.8786V39.6448H34.3008Z" fill="#9C9C9C"/>
<path d="M37.3935 37.4693H36.7122V38.3538H37.3935C37.6923 38.3538 37.8955 38.2104 37.8955 37.9116C37.8955 37.6127 37.6804 37.4693 37.3935 37.4693ZM37.9075 39.6448L37.3337 38.581H36.7241V39.6448H36.4492V37.2422H37.4294C37.8716 37.2422 38.1824 37.4932 38.1824 37.9116C38.1824 38.2582 37.9553 38.4973 37.6326 38.557L38.2302 39.6448H37.9075Z" fill="#9C9C9C"/>
<path d="M40.2176 38.1709C39.8347 38.1709 39.7749 38.4817 39.7749 38.8044C39.7749 39.1271 39.8347 39.438 40.2176 39.438C40.6004 39.438 40.6602 39.1271 40.6602 38.8044C40.6602 38.4817 40.6004 38.1709 40.2176 38.1709ZM40.6602 39.6292V39.426C40.5167 39.6053 40.3492 39.6412 40.1577 39.6412C39.9783 39.6412 39.8228 39.5814 39.7271 39.4977C39.5476 39.3304 39.5117 39.0554 39.5117 38.7924C39.5117 38.5295 39.5476 38.2546 39.7271 38.0872C39.8228 38.0036 39.9783 37.9438 40.1577 37.9438C40.3492 37.9438 40.5167 37.9797 40.6602 38.159V37.2266H40.9115V39.6292H40.6602Z" fill="#9C9C9C"/>
<path d="M42.6087 38.4036C42.5369 38.2482 42.3814 38.1527 42.202 38.1527C42.0225 38.1527 41.855 38.2482 41.7952 38.4036C41.7593 38.4993 41.7473 38.5471 41.7473 38.6786H42.6805C42.6805 38.5471 42.6686 38.4873 42.6207 38.4036M41.7473 38.8579C41.7473 39.2165 41.9268 39.4317 42.2618 39.4317C42.4652 39.4317 42.5848 39.3719 42.7284 39.2404L42.9078 39.3838C42.7284 39.5512 42.5609 39.6349 42.2618 39.6349C41.7952 39.6349 41.4961 39.3719 41.4961 38.7861C41.4961 38.2482 41.7713 37.9375 42.2139 37.9375C42.6566 37.9375 42.9317 38.2483 42.9317 38.7384V38.8459H41.7473V38.8579Z" fill="#9C9C9C"/>
<path d="M44.0147 39.6664C43.7156 39.6664 43.4883 39.6066 43.2969 39.4273L43.4644 39.26C43.608 39.4034 43.7874 39.4512 44.0147 39.4512C44.3019 39.4512 44.4813 39.3556 44.4813 39.1524C44.4813 39.0089 44.3976 38.9253 44.1822 38.9134L43.8951 38.8894C43.5481 38.8655 43.3687 38.7221 43.3687 38.4472C43.3687 38.1483 43.6438 37.957 44.0147 37.957C44.266 37.957 44.4933 38.0168 44.6488 38.1364L44.4813 38.2918C44.3617 38.1961 44.1942 38.1603 44.0147 38.1603C43.7635 38.1603 43.6199 38.2678 43.6199 38.4352C43.6199 38.5786 43.7036 38.6623 43.931 38.6743L44.2181 38.6982C44.5292 38.7221 44.7326 38.8416 44.7326 39.1524C44.7326 39.4632 44.4454 39.6545 44.0147 39.6545" fill="#9C9C9C"/>
<path d="M45.2385 39.6448H45.4898V37.9833H45.2385V39.6448ZM45.2266 37.5171H45.5137V37.2422H45.2266V37.5171Z" fill="#9C9C9C"/>
<path d="M46.7411 38.1724C46.3582 38.1724 46.2984 38.4832 46.2984 38.794C46.2984 39.1047 46.3582 39.4155 46.7411 39.4155C47.1239 39.4155 47.1717 39.1047 47.1717 38.794C47.1717 38.4832 47.1119 38.1724 46.7411 38.1724ZM46.7052 40.3957C46.442 40.3957 46.2984 40.336 46.107 40.1686L46.2744 40.0132C46.4061 40.1208 46.4898 40.1806 46.6932 40.1806C47.0282 40.1806 47.1717 39.9535 47.1717 39.6666V39.4036C47.0282 39.5709 46.8726 39.6187 46.6812 39.6187C46.5018 39.6187 46.3462 39.559 46.2505 39.4753C46.0711 39.308 46.0352 39.0569 46.0352 38.782C46.0352 38.5071 46.0711 38.2561 46.2505 38.0887C46.3462 38.0051 46.5018 37.9453 46.6812 37.9453C46.8726 37.9453 47.0282 37.9812 47.1717 38.1605V37.9692H47.423V39.6785C47.423 40.0849 47.1478 40.3838 46.6932 40.3838" fill="#9C9C9C"/>
<path d="M49.3275 39.6464V38.6304C49.3275 38.3316 49.16 38.1881 48.8968 38.1881C48.6336 38.1881 48.4661 38.3435 48.4661 38.6304V39.6464H48.2148V37.9849H48.4661V38.1642C48.5857 38.0327 48.7652 37.9609 48.9566 37.9609C49.148 37.9609 49.3036 38.0088 49.4112 38.1163C49.5309 38.2359 49.5907 38.3913 49.5907 38.5825V39.6464H49.3395H49.3275Z" fill="#9C9C9C"/>
<path d="M42.0435 0.46875C40.5972 0.46875 39.4258 1.58043 39.4258 2.95506C39.4258 4.32969 40.5972 5.44137 42.0435 5.44137C43.4898 5.44137 44.6612 4.32969 44.6612 2.95506C44.6612 1.58043 43.4898 0.46875 42.0435 0.46875Z" fill="#9C9C9C"/>
<path d="M3.85087 36.7411C3.67158 36.6216 3.49228 36.4901 3.32493 36.3586C3.22931 36.2869 3.09783 36.2988 3.02611 36.3944L0.659387 39.1796C0.587668 39.2633 0.59962 39.3947 0.695244 39.4665C3.12172 41.3192 6.03826 42.4907 9.13411 42.8493C9.81543 42.9329 10.5087 42.9688 11.202 42.9688C11.8953 42.9688 12.5886 42.9329 13.2699 42.8493C16.3657 42.4907 19.2823 41.3192 21.7088 39.4665C21.8044 39.3947 21.8163 39.2633 21.7446 39.1796L19.3779 36.3944C19.3062 36.3108 19.1747 36.2989 19.0791 36.3586C18.9117 36.4901 18.7324 36.6216 18.5531 36.7411C16.8438 37.9126 14.8596 38.6417 12.7679 38.8927C12.2539 38.9525 11.7279 38.9884 11.214 38.9884C10.7 38.9884 10.174 38.9525 9.66005 38.8927C7.56826 38.6537 5.58405 37.9126 3.87476 36.7411" fill="#9C9C9C"/>
<path d="M4.48255 24.115C4.42279 23.7803 4.39887 23.4456 4.39887 23.1229C4.39887 22.8001 4.42279 22.4534 4.48255 22.1187C4.99654 19.2021 7.66206 17.0625 10.7818 17.0625C12.4791 17.0625 14.0928 17.696 15.3001 18.8316L15.7901 19.2858C15.8738 19.3695 16.0053 19.3695 16.089 19.2858L18.7545 16.7637C18.8382 16.68 18.8382 16.5605 18.7545 16.4768L18.2644 16.0226C16.2683 14.134 13.5908 13.082 10.7818 13.082C5.45074 13.082 0.932469 16.8474 0.27505 21.8678C0.215285 22.2742 0.191406 22.6925 0.191406 23.1109C0.191406 23.5293 0.215285 23.9357 0.27505 24.3541C0.932469 29.3745 5.45074 33.1397 10.7818 33.1397C13.6027 33.1397 16.2802 32.0878 18.2644 30.1992L18.7545 29.745C18.8382 29.6613 18.8382 29.5418 18.7545 29.4581L16.089 26.936C16.0053 26.8523 15.8738 26.8523 15.7901 26.936L15.3001 27.3902C14.0928 28.5258 12.4791 29.1593 10.7818 29.1593C7.66206 29.1593 4.99654 27.0196 4.48255 24.103" fill="#9C9C9C"/>
<path d="M32.2013 13.1653C26.9061 13.7869 22.9258 18.0662 22.9258 23.1105C22.9258 28.1548 26.9061 32.446 32.2013 33.0557C32.6316 33.1035 33.0739 33.1274 33.5162 33.1274C33.9584 33.1274 34.3888 33.1035 34.831 33.0557C40.1262 32.4341 44.1066 28.1548 44.1066 23.1105V7.92975C44.1066 7.82217 44.011 7.72656 43.8914 7.72656H40.1143C39.9948 7.72656 39.8991 7.82217 39.8991 7.92975V23.1105C39.8991 26.063 37.64 28.5971 34.5681 29.0752C34.2214 29.135 33.8628 29.1589 33.5162 29.1589C33.1695 29.1589 32.8109 29.135 32.4643 29.0752H32.3807C29.3446 28.5492 27.1332 26.0271 27.1332 23.1105C27.1332 20.1939 29.3924 17.6239 32.4643 17.1458C32.8109 17.086 33.1695 17.0621 33.5162 17.0621C33.8628 17.0621 34.2214 17.086 34.5681 17.1458H34.6517C35.6438 17.3251 36.5762 17.7196 37.377 18.2933C37.4488 18.3411 37.5205 18.3531 37.6041 18.3172C37.6759 18.2813 37.7237 18.2216 37.7237 18.1379V14.0498C37.7237 13.9662 37.6759 13.8945 37.5922 13.8586C36.7077 13.512 35.7873 13.2848 34.831 13.1653C34.4007 13.1175 33.9584 13.0936 33.5162 13.0936C33.0739 13.0936 32.6436 13.1175 32.2013 13.1653Z" fill="#9C9C9C"/>
</svg>
