<svg width="146" height="74" viewBox="0 0 146 74" fill="none" xmlns="http://www.w3.org/2000/svg">
<path d="M116.8 71.9437C110.08 71.9437 103.85 70.5787 98.11 67.8487C92.44 65.1187 87.82 61.0587 84.25 55.6687C80.75 50.2787 79 44.1187 79 37.1887C79 32.0787 80.015 27.2487 82.045 22.6987C84.075 18.1487 86.665 14.3337 89.815 11.2537C93.035 8.1037 96.57 5.5837 100.42 3.6937C104.34 1.7337 108.225 0.613701 112.075 0.3337C124.465 -0.576301 133.11 2.0137 138.01 8.1037C139.48 10.1337 139.76 11.9537 138.85 13.5637C138.01 15.1737 136.68 15.9787 134.86 15.9787C133.74 15.9787 132.655 15.5237 131.605 14.6137C130.625 13.6337 129.645 12.4787 128.665 11.1487C127.755 9.7487 126.74 8.3837 125.62 7.0537C124.5 5.7237 123.03 4.6037 121.21 3.6937C119.46 2.7137 117.5 2.2237 115.33 2.2237C107.14 2.2237 100.42 4.9187 95.17 10.3087C89.92 15.6287 87.295 23.1887 87.295 32.9887C87.295 37.6787 87.995 42.1937 89.395 46.5337C90.795 50.8737 92.79 54.7587 95.38 58.1887C98.04 61.6187 101.4 64.3837 105.46 66.4837C109.59 68.5137 114.175 69.5287 119.215 69.5287C122.155 69.5287 125.06 68.8987 127.93 67.6387C130.87 66.3087 133.39 64.6987 135.49 62.8087C137.59 60.9187 139.375 59.0637 140.845 57.2437C142.315 55.4237 143.365 53.8137 143.995 52.4137L145.675 53.5687C144.835 54.8987 144.275 55.8087 143.995 56.2987C143.715 56.7187 142.945 57.7337 141.685 59.3437C140.425 60.9537 139.34 62.1787 138.43 63.0187C137.59 63.7887 136.295 64.8737 134.545 66.2737C132.865 67.6037 131.22 68.6187 129.61 69.3187C128 70.0187 126.075 70.6137 123.835 71.1037C121.595 71.6637 119.25 71.9437 116.8 71.9437Z" fill="#D2FF52"/>
<path d="M72.8398 55.7168C72.4492 56.8887 71.8145 58.1908 70.9355 59.623C70.0892 61.0553 68.9173 62.4062 67.4199 63.6758C65.9551 64.9453 64.1159 66.0033 61.9023 66.8496C59.7214 67.696 57.1009 68.1191 54.041 68.1191C51.7949 68.1191 49.6628 67.8262 47.6445 67.2402C45.6589 66.6543 43.7871 65.8405 42.0293 64.7988C39.1973 66.459 36.2025 67.8099 33.0449 68.8516C29.9199 69.8932 26.6484 70.4141 23.2305 70.4141C19.9753 70.4141 17.1758 69.9746 14.832 69.0957C12.4883 68.1842 10.5514 66.9961 9.02148 65.5312C7.52409 64.0664 6.41732 62.4062 5.70117 60.5508C4.98503 58.6953 4.62695 56.8073 4.62695 54.8867C4.62695 51.957 5.19661 49.3854 6.33594 47.1719C7.47526 44.9583 8.97266 43.0215 10.8281 41.3613C12.6836 39.6686 14.7995 38.1875 17.1758 36.918C19.5846 35.6159 22.0423 34.4115 24.5488 33.3047C24.2884 31.7747 24.0931 30.2611 23.9629 28.7637C23.8652 27.2663 23.8164 25.7852 23.8164 24.3203C23.8164 21.3581 24.207 18.7051 24.9883 16.3613C25.7695 14.0176 26.8438 12.0319 28.2109 10.4043C29.6107 8.77669 31.2546 7.53971 33.1426 6.69336C35.0632 5.84701 37.1302 5.42383 39.3438 5.42383C40.8086 5.42383 42.0781 5.68424 43.1523 6.20508C44.2591 6.69336 45.1706 7.3444 45.8867 8.1582C46.6029 8.97201 47.14 9.88346 47.498 10.8926C47.8561 11.8691 48.0352 12.8457 48.0352 13.8223C48.0352 16.4264 47.498 18.7214 46.4238 20.707C45.3496 22.6927 43.9336 24.4668 42.1758 26.0293C40.4505 27.5592 38.4811 28.9264 36.2676 30.1309C34.054 31.3353 31.8079 32.4583 29.5293 33.5C30.0501 36.2995 30.75 39.0501 31.6289 41.752C32.5078 44.4538 33.5495 47.0091 34.7539 49.418C35.9909 51.8268 37.3743 54.0566 38.9043 56.1074C40.4668 58.1257 42.2083 59.8509 44.1289 61.2832C46.2122 59.7858 48.1165 58.1419 49.8418 56.3516C51.5671 54.5612 53.0482 52.7546 54.2852 50.9316C55.5221 49.0762 56.4661 47.2858 57.1172 45.5605C57.8008 43.8353 58.1426 42.2891 58.1426 40.9219C58.1426 39.9128 58.0286 39.0664 57.8008 38.3828C57.5729 37.6992 57.2637 37.1458 56.873 36.7227C56.4824 36.2995 56.0267 35.9902 55.5059 35.7949C54.985 35.5996 54.4316 35.502 53.8457 35.502C53.3574 35.502 52.8529 35.5996 52.332 35.7949C51.8112 35.9902 51.3392 36.2832 50.916 36.6738C50.5254 37.0319 50.1999 37.5039 49.9395 38.0898C49.679 38.6432 49.5488 39.3105 49.5488 40.0918C49.5488 40.7103 49.7116 41.3939 50.0371 42.1426C50.3952 42.8587 51.0299 43.4121 51.9414 43.8027L51.1113 45.4141C50.4603 45.1211 49.9232 44.7793 49.5 44.3887C49.0768 43.9655 48.735 43.5098 48.4746 43.0215C48.2142 42.5332 48.0189 42.0449 47.8887 41.5566C47.791 41.0358 47.7422 40.5475 47.7422 40.0918C47.7422 39.0176 47.9538 38.0898 48.377 37.3086C48.8327 36.4948 49.3861 35.8275 50.0371 35.3066C50.7207 34.7533 51.4531 34.3464 52.2344 34.0859C53.0156 33.8255 53.748 33.6953 54.4316 33.6953C56.3848 33.6953 57.9473 34.2975 59.1191 35.502C60.3236 36.7064 60.9258 38.4316 60.9258 40.6777C60.9258 42.11 60.5514 43.7376 59.8027 45.5605C59.0866 47.3835 58.0612 49.2715 56.7266 51.2246C55.3919 53.1777 53.7806 55.1309 51.8926 57.084C50.0046 59.0371 47.9212 60.8438 45.6426 62.5039C47.3027 63.5456 49.0443 64.3594 50.8672 64.9453C52.7227 65.5312 54.7083 65.8242 56.8242 65.8242C58.9076 65.8242 60.7467 65.4661 62.3418 64.75C63.9694 64.0339 65.3691 63.1387 66.541 62.0645C67.7129 60.9902 68.6732 59.8346 69.4219 58.5977C70.1706 57.3281 70.7077 56.1562 71.0332 55.082L72.8398 55.7168ZM25.7207 67.582C28.3574 67.582 30.8965 67.2402 33.3379 66.5566C35.7793 65.873 38.1068 64.9128 40.3203 63.6758C38.2695 62.1784 36.4141 60.4043 34.7539 58.3535C33.0938 56.2702 31.6126 54.0078 30.3105 51.5664C29.041 49.125 27.9505 46.5534 27.0391 43.8516C26.1602 41.1172 25.4603 38.3665 24.9395 35.5996C22.7259 36.6738 20.7077 37.8132 18.8848 39.0176C17.0944 40.1895 15.5645 41.5078 14.2949 42.9727C13.0254 44.4049 12.0488 46.0163 11.3652 47.8066C10.6816 49.597 10.3398 51.6315 10.3398 53.9102C10.3398 56.319 10.7956 58.3861 11.707 60.1113C12.651 61.804 13.8555 63.2201 15.3203 64.3594C16.7852 65.4661 18.429 66.2799 20.252 66.8008C22.0749 67.3216 23.8978 67.582 25.7207 67.582ZM28.3574 21.0977C28.3574 22.7578 28.4062 24.4505 28.5039 26.1758C28.6341 27.8685 28.8457 29.5775 29.1387 31.3027C31.3197 30.3262 33.4355 29.3008 35.4863 28.2266C37.5371 27.1198 39.36 25.8991 40.9551 24.5645C42.5501 23.1973 43.8197 21.6836 44.7637 20.0234C45.7402 18.3307 46.2285 16.4264 46.2285 14.3105C46.2285 13.4316 46.082 12.569 45.7891 11.7227C45.5286 10.8763 45.1055 10.1113 44.5195 9.42773C43.9661 8.74414 43.25 8.20703 42.3711 7.81641C41.5247 7.39323 40.5156 7.18164 39.3438 7.18164C37.7812 7.18164 36.3164 7.53971 34.9492 8.25586C33.6146 8.97201 32.459 9.96484 31.4824 11.2344C30.5059 12.4714 29.7409 13.9362 29.1875 15.6289C28.6341 17.3216 28.3574 19.1445 28.3574 21.0977Z" fill="#D2FF52"/>
</svg>
