<svg width="218" height="190" viewBox="0 0 218 190" fill="none" xmlns="http://www.w3.org/2000/svg">
<path d="M138.773 130.681C109.945 154.763 80.5073 172.559 56.2186 181.866C44.0737 186.519 33.2226 189.048 24.3824 189.182C15.541 189.316 8.73024 187.056 4.63605 182.155C0.54186 177.254 -0.470414 170.15 1.23497 161.474C2.94011 152.798 7.35917 142.57 14.0995 131.447C27.5795 109.202 50.3297 83.4005 79.1567 59.3187C107.984 35.2368 137.422 17.4408 161.711 8.13423C173.856 3.48071 184.707 0.952173 193.547 0.817909C202.388 0.683627 209.199 2.94387 213.293 7.84479C217.387 12.7457 218.4 19.8499 216.694 28.5264C214.989 37.2016 210.57 47.4297 203.83 58.5527C190.35 80.7977 167.6 106.599 138.773 130.681Z" stroke="#738E28" stroke-width="0.232091"/>
</svg>
