<svg width="376" height="326" viewBox="0 0 376 326" fill="none" xmlns="http://www.w3.org/2000/svg">
<path d="M239.359 224.481C189.677 265.985 138.941 296.656 97.081 312.695C76.1497 320.715 57.4482 325.073 42.2124 325.305C26.9746 325.536 15.2365 321.641 8.18037 313.194C1.1242 304.748 -0.620417 292.504 2.31875 277.55C5.25751 262.599 12.8736 244.971 24.4903 225.801C47.7225 187.463 86.9316 142.994 136.614 101.49C186.296 59.9862 237.032 29.3155 278.892 13.2759C299.823 5.25577 318.525 0.897924 333.761 0.666525C348.999 0.435095 360.737 4.33054 367.793 12.7771C374.849 21.2236 376.594 33.4675 373.654 48.421C370.716 63.3724 363.1 81.0001 351.483 100.17C328.251 138.509 289.041 182.977 239.359 224.481Z" stroke="#738E28" stroke-width="0.4"/>
</svg>
