<svg width="92" height="72" viewBox="0 0 92 72" fill="none" xmlns="http://www.w3.org/2000/svg">
<path d="M90.725 56.2998L91.67 57.1398C84.74 66.6598 76.795 71.4198 67.835 71.4198C65.035 71.4198 62.235 70.8948 59.435 69.8448C56.705 68.7948 54.15 67.2898 51.77 65.3298C49.46 63.3698 47.57 60.7798 46.1 57.5598C44.7 54.2698 44 50.6298 44 46.6398C44 38.6598 46.59 32.1148 51.77 27.0048C57.02 21.8948 63.25 19.3398 70.46 19.3398C76.62 19.3398 81.52 21.0548 85.16 24.4848C88.8 27.9148 90.69 32.1148 90.83 37.0848H51.455C51.245 38.6248 51.14 40.1998 51.14 41.8098C51.14 48.7398 53.1 54.3398 57.02 58.6098C61.01 62.8798 66.26 65.0148 72.77 65.0148C79.56 65.0148 85.545 62.1098 90.725 56.2998ZM67.205 21.1248C63.075 21.0548 59.68 22.3848 57.02 25.1148C54.36 27.8448 52.61 31.4148 51.77 35.8248H82.745C82.185 32.0448 80.505 28.6498 77.705 25.6398C74.975 22.6298 71.475 21.1248 67.205 21.1248Z" fill="#D2FF52"/>
<path d="M37.8 62.7044C40.32 66.9744 42.98 69.1444 45.78 69.2144V70.3694H40.32C36.54 70.3694 33.6 68.7944 31.5 65.6444L15.645 41.2844L11.865 44.8544V57.5594C11.865 61.6194 12.145 64.4544 12.705 66.0644C13.335 67.6044 14.42 68.6194 15.96 69.1094V70.3694H0V69.1094C1.61 68.6194 2.65999 67.6044 3.14999 66.0644C3.70999 64.5244 3.98999 61.6894 3.98999 57.5594V16.0844C3.98999 12.7244 3.675 10.4844 3.045 9.36438C2.485 8.17438 1.47 7.43938 0 7.15938V5.68937L10.605 0.859375H11.865V43.0694C21.455 33.8294 26.81 28.6844 27.93 27.6344C28.7 26.8644 29.225 26.0244 29.505 25.1144C29.855 24.1344 29.785 23.2594 29.295 22.4894C28.805 21.7194 27.825 21.3344 26.355 21.3344V19.9694H39.375V21.3344C37.905 21.3344 36.575 21.7544 35.385 22.5944C34.265 23.3644 32.095 25.3244 28.875 28.4744L21.21 35.9294L37.8 62.7044Z" fill="#D2FF52"/>
</svg>
