<svg width="170" height="87" viewBox="0 0 170 87" fill="none" xmlns="http://www.w3.org/2000/svg">
<path d="M4.72736 47.9902L17.3289 70.1574L29.9305 47.9902H33.6891V80.6331H29.4002V56.5485L18.8729 75.1303H15.7693L5.24202 56.5485V80.6331H0.953125V47.9902H4.71177H4.72736Z" fill="#D2FF52"/>
<path d="M61.45 72.5532H45.7449L42.4853 80.6282H37.9937L51.453 47.9854H55.9758L69.3884 80.6282H64.694L61.4344 72.5532H61.45ZM59.9372 68.7652L53.6208 52.9893L47.2577 68.7652H59.9372Z" fill="#D2FF52"/>
<path d="M87.8332 69.0146C87.2249 69.0613 86.6167 69.0925 85.9929 69.0925H78.0389V80.6282H73.75V47.9854H85.9773C94.2119 47.9854 99.0623 52.1008 99.0623 58.5389C99.0623 63.1376 96.5825 66.5672 92.0909 68.1572L87.802 69.0146H87.8332ZM94.8046 58.5389C94.8046 54.1429 91.3423 51.8202 85.6653 51.8202H78.0389V65.2733H85.6653C91.3267 65.2733 94.8046 62.9506 94.8046 58.5545V58.5389Z" fill="#D2FF52"/>
<path d="M102.972 62.4382C102.972 53.6306 109.444 47.208 118.256 47.208C125.789 47.208 130.982 51.5729 132.51 57.6837H128.611C127.379 53.5682 123.621 50.7311 118.318 50.7311C111.627 50.7311 106.793 55.6104 106.793 62.4382C106.793 69.2661 111.674 74.1454 118.318 74.1454C123.777 74.1454 127.847 70.9497 128.908 66.8031H132.807C131.528 72.8671 125.96 77.6684 118.256 77.6684C109.46 77.6684 102.972 71.2303 102.972 62.4382Z" fill="#D2FF52"/>
<path d="M118.252 77.9358C109.253 77.9358 102.719 71.4197 102.719 62.4405C102.719 53.4614 109.253 46.9453 118.252 46.9453C125.551 46.9453 131.119 51.0296 132.772 57.608L132.85 57.9354H128.437L128.374 57.7483C127.126 53.5861 123.274 50.9828 118.33 50.9828C111.796 50.9828 107.054 55.7997 107.054 62.4249C107.054 69.0502 111.796 73.8671 118.33 73.8671C123.43 73.8671 127.579 70.9988 128.67 66.7119L128.717 66.5092H133.131L133.069 66.821C131.681 73.4462 125.723 77.9046 118.268 77.9046L118.252 77.9358ZM118.252 47.4597C109.55 47.4597 103.233 53.7576 103.233 62.4405C103.233 71.1235 109.55 77.4213 118.252 77.4213C125.349 77.4213 131.025 73.2747 132.476 67.0704H129.107C127.891 71.4664 123.586 74.4127 118.315 74.4127C111.484 74.4127 106.524 69.3775 106.524 62.4405C106.524 55.5035 111.484 50.4684 118.315 50.4684C123.415 50.4684 127.423 53.1185 128.795 57.4054H132.164C130.48 51.2634 125.177 47.4597 118.237 47.4597H118.252Z" fill="#D2FF52"/>
<path d="M169.514 47.9854V80.6282H165.225V65.8657H146.261V80.6282H141.972V47.9854H146.261V61.9685H165.225V47.9854H169.514Z" fill="#D2FF52"/>
<path d="M117.443 86.3353C115.588 86.3353 113.732 86.1638 111.876 85.8053C96.5605 82.9213 87.4368 69.1565 87.0625 68.5797L90.556 66.3037C90.634 66.4284 99.1338 79.18 112.687 81.721C120.516 83.1863 128.595 80.9883 136.705 75.1893L139.138 78.5877C131.917 83.7475 124.649 86.3509 117.443 86.3509V86.3353Z" fill="#D2FF52"/>
<path d="M40.6751 36.1519H24.97L21.7104 44.2268H17.2188L30.6781 11.584H35.2009L48.6135 44.2268H43.9191L40.6595 36.1519H40.6751ZM39.1623 32.3638L32.8459 16.588L26.4828 32.3638H39.1623Z" fill="#D2FF52"/>
<path d="M64.5722 11.584C73.0564 11.584 78.0315 16.1047 78.0315 22.917C78.0315 29.7293 73.0564 34.25 64.5722 34.25H57.2733V44.2424H52.9844V11.5996H64.5722V11.584ZM73.7426 22.917C73.7426 18.0689 70.1556 15.4656 64.2447 15.4656H57.2733V30.384H64.2447C70.1556 30.384 73.7426 27.7807 73.7426 22.9326V22.917Z" fill="#D2FF52"/>
<path d="M121.136 44.2268H116.847V11.584H121.136V44.2268Z" fill="#D2FF52"/>
<path d="M134.298 40.3608H153.278V44.2268H130.009V11.584H134.298V40.3608Z" fill="#D2FF52"/>
<path d="M104.238 44.2268L96.8146 32.6132C96.2064 32.66 95.5981 32.6912 94.9743 32.6912H87.0203V44.2268H82.7314V11.584H94.9587C103.193 11.584 108.044 15.6994 108.044 22.1376C108.044 26.7362 105.564 30.1658 101.072 31.7558L109.276 44.2268H104.223H104.238ZM103.786 22.1376C103.786 17.7415 100.324 15.4188 94.6468 15.4188H87.0203V28.8719H94.6468C100.308 28.8719 103.786 26.5492 103.786 22.1532V22.1376Z" fill="#D2FF52"/>
<path d="M153.691 0.875V17.1692" stroke="#D2FF52" stroke-width="2.5068"/>
<path d="M145.544 9.02148L161.839 9.02148" stroke="#D2FF52" stroke-width="2.5068"/>
<path d="M147.926 3.26074L159.448 14.7825" stroke="#D2FF52" stroke-width="2.5068"/>
<path d="M159.457 3.26074L147.935 14.7825" stroke="#D2FF52" stroke-width="2.5068"/>
</svg>
