<svg width="169" height="71" viewBox="0 0 169 71" fill="none" xmlns="http://www.w3.org/2000/svg">
<path d="M165.053 18.9684C166.523 19.3184 167.433 20.0534 167.783 21.1734C168.203 22.2234 168.098 23.2035 167.468 24.1135C166.908 25.0235 166.103 25.4784 165.053 25.4784C164.423 25.4784 163.548 25.3384 162.428 25.0584C161.378 24.7084 160.468 24.4984 159.698 24.4285C158.928 24.2885 157.738 24.3934 156.128 24.7434C153.188 25.5134 150.983 27.9635 149.513 32.0934V56.4534C149.513 60.5135 149.793 63.3484 150.353 64.9585C150.983 66.4985 152.068 67.5135 153.608 68.0035V69.2635H137.648V68.0035C139.258 67.5135 140.308 66.4985 140.798 64.9585C141.358 63.4184 141.638 60.5835 141.638 56.4534V33.3535C141.638 29.9935 141.323 27.7535 140.693 26.6335C140.133 25.4435 139.118 24.7085 137.648 24.4285V22.9585L148.253 18.9684H149.513V28.5235C151.053 25.4435 153.328 22.9235 156.338 20.9635C159.348 18.9335 162.253 18.2684 165.053 18.9684Z" fill="#D2FF52"/>
<path d="M129.337 56.5598C129.337 60.6898 129.582 63.5248 130.072 65.0648C130.632 66.6048 131.717 67.6198 133.327 68.1098V69.3698H131.752C128.952 69.3698 126.537 68.3898 124.507 66.4298C122.547 64.3998 121.567 61.9848 121.567 59.1848V57.5048C121.287 57.8548 120.937 58.3098 120.517 58.8698C120.097 59.4298 119.117 60.4798 117.577 62.0198C116.107 63.4898 114.602 64.7848 113.062 65.9048C111.522 67.0248 109.527 68.0748 107.077 69.0548C104.697 69.9648 102.317 70.4198 99.9372 70.4198C96.0172 70.4198 92.6922 69.2648 89.9622 66.9548C87.2322 64.5748 85.8672 61.3198 85.8672 57.1898C85.8672 55.1598 86.2872 53.3048 87.1272 51.6248C87.9672 49.9448 89.0172 48.5448 90.2772 47.4248C91.5372 46.2348 93.2172 45.1498 95.3172 44.1698C97.4872 43.1198 99.5172 42.2798 101.407 41.6498C103.297 40.9498 105.642 40.2148 108.442 39.4448L121.567 35.8748C121.567 30.9048 120.342 27.0198 117.892 24.2198C115.512 21.4198 112.187 20.0198 107.917 20.0198C105.887 20.0198 104.032 20.5448 102.352 21.5948C100.742 22.5748 99.4472 23.7648 98.4672 25.1648C97.5572 26.4948 96.6822 27.8248 95.8422 29.1548C95.0022 30.4848 94.0922 31.4648 93.1122 32.0948C92.2022 32.7248 91.1872 32.7948 90.0672 32.3048C88.3172 31.5348 88.2122 29.9248 89.7522 27.4748C91.7822 24.1148 95.2822 21.5598 100.252 19.8098C103.262 18.8298 106.377 18.3398 109.597 18.3398C115.897 18.3398 120.762 19.8448 124.192 22.8548C127.622 25.7948 129.337 30.3098 129.337 36.3998V56.5598ZM121.567 55.1948V37.2398L108.862 40.7048C106.692 41.2648 104.802 41.8948 103.192 42.5948C101.582 43.2248 99.9722 44.0998 98.3622 45.2198C96.7522 46.2698 95.5272 47.5648 94.6872 49.1048C93.8472 50.6448 93.4272 52.3948 93.4272 54.3548C93.4272 57.6448 94.4072 60.4448 96.3672 62.7548C98.3972 65.0648 100.847 66.2198 103.717 66.2198C105.817 66.2198 107.882 65.8348 109.912 65.0648C111.942 64.2948 113.622 63.3848 114.952 62.3348C116.282 61.2148 117.472 60.1298 118.522 59.0798C119.572 57.9598 120.342 57.0148 120.832 56.2448L121.567 55.1948Z" fill="#D2FF52"/>
<path d="M76.965 57.1883C77.385 61.2483 77.945 64.0483 78.645 65.5883C79.345 67.1283 80.465 68.1083 82.005 68.5283V69.7883H65.415V68.5283C66.955 68.0383 67.97 67.0233 68.46 65.4833C69.02 63.8733 69.16 61.1083 68.88 57.1883C68.6 54.3183 68.145 48.9983 67.515 41.2283C66.955 33.3883 66.43 26.2833 65.94 19.9133L65.205 10.3583L42.105 69.8933H40.215L13.02 9.72829C10.64 34.3683 9.24 49.1033 8.82 53.9333C8.33 59.2533 8.33 62.8933 8.82 64.8533C9.38 66.7433 10.71 68.0033 12.81 68.6333V69.8933H0V68.6333C3.85 67.5133 6.195 62.7533 7.035 54.3533C7.875 45.4633 9.1 33.0033 10.71 16.9733C11.06 14.0333 11.095 11.4783 10.815 9.30829C10.255 5.38829 8.68 2.97329 6.09 2.06329V0.488281H17.01L44.415 59.8133L67.515 0.488281H78.54V2.06329C76.58 2.76329 75.215 3.91828 74.445 5.52829C73.745 7.06829 73.43 8.64329 73.5 10.2533C73.64 12.6333 74.13 19.9833 74.97 32.3033C75.88 44.5533 76.545 52.8483 76.965 57.1883Z" fill="#D2FF52"/>
</svg>
