<svg width="130" height="53" viewBox="0 0 130 53" fill="none" xmlns="http://www.w3.org/2000/svg">
<path d="M125.294 38.5598C125.294 42.6898 125.539 45.5248 126.029 47.0648C126.589 48.6048 127.674 49.6198 129.284 50.1098V51.3698H127.709C124.909 51.3698 122.494 50.3898 120.464 48.4298C118.504 46.3998 117.524 43.9848 117.524 41.1848V39.5048C117.244 39.8548 116.894 40.3098 116.474 40.8698C116.054 41.4298 115.074 42.4798 113.534 44.0198C112.064 45.4898 110.559 46.7848 109.019 47.9048C107.479 49.0248 105.484 50.0748 103.034 51.0548C100.654 51.9648 98.2742 52.4198 95.8942 52.4198C91.9742 52.4198 88.6492 51.2648 85.9192 48.9548C83.1892 46.5748 81.8242 43.3198 81.8242 39.1898C81.8242 37.1598 82.2442 35.3048 83.0842 33.6248C83.9242 31.9448 84.9742 30.5448 86.2342 29.4248C87.4942 28.2348 89.1742 27.1498 91.2742 26.1698C93.4442 25.1198 95.4742 24.2798 97.3642 23.6498C99.2542 22.9498 101.599 22.2148 104.399 21.4448L117.524 17.8748C117.524 12.9048 116.299 9.01984 113.849 6.21984C111.469 3.41984 108.144 2.01984 103.874 2.01984C101.844 2.01984 99.9892 2.54484 98.3092 3.59484C96.6992 4.57484 95.4042 5.76484 94.4242 7.16484C93.5142 8.49484 92.6392 9.82484 91.7992 11.1548C90.9592 12.4848 90.0492 13.4648 89.0692 14.0948C88.1592 14.7248 87.1442 14.7948 86.0242 14.3048C84.2742 13.5348 84.1692 11.9248 85.7092 9.47484C87.7392 6.11484 91.2392 3.55984 96.2092 1.80984C99.2192 0.829844 102.334 0.339844 105.554 0.339844C111.854 0.339844 116.719 1.84484 120.149 4.85484C123.579 7.79484 125.294 12.3098 125.294 18.3998V38.5598ZM117.524 37.1948V19.2398L104.819 22.7048C102.649 23.2648 100.759 23.8948 99.1492 24.5948C97.5392 25.2248 95.9292 26.0998 94.3192 27.2198C92.7092 28.2698 91.4842 29.5648 90.6442 31.1048C89.8042 32.6448 89.3842 34.3948 89.3842 36.3548C89.3842 39.6448 90.3642 42.4448 92.3242 44.7548C94.3542 47.0648 96.8042 48.2198 99.6742 48.2198C101.774 48.2198 103.839 47.8348 105.869 47.0648C107.899 46.2948 109.579 45.3848 110.909 44.3348C112.239 43.2148 113.429 42.1298 114.479 41.0798C115.529 39.9598 116.299 39.0148 116.789 38.2448L117.524 37.1948Z" fill="#D2FF52"/>
<path d="M76.4633 37.2998L77.4083 38.1398C70.4783 47.6598 62.5333 52.4198 53.5733 52.4198C50.7733 52.4198 47.9733 51.8948 45.1733 50.8448C42.4433 49.7948 39.8883 48.2898 37.5083 46.3298C35.1983 44.3698 33.3083 41.7798 31.8383 38.5598C30.4383 35.2698 29.7383 31.6298 29.7383 27.6398C29.7383 19.6598 32.3283 13.1148 37.5083 8.00484C42.7583 2.89484 48.9883 0.339844 56.1983 0.339844C62.3583 0.339844 67.2583 2.05484 70.8983 5.48484C74.5383 8.91484 76.4283 13.1148 76.5683 18.0848H37.1933C36.9833 19.6248 36.8783 21.1998 36.8783 22.8098C36.8783 29.7398 38.8383 35.3398 42.7583 39.6098C46.7483 43.8798 51.9983 46.0148 58.5083 46.0148C65.2983 46.0148 71.2833 43.1098 76.4633 37.2998ZM52.9433 2.12484C48.8133 2.05484 45.4183 3.38484 42.7583 6.11484C40.0983 8.84484 38.3483 12.4148 37.5083 16.8248H68.4833C67.9233 13.0448 66.2433 9.64984 63.4433 6.63984C60.7133 3.62984 57.2133 2.12484 52.9433 2.12484Z" fill="#D2FF52"/>
<path d="M27.405 0.968449C28.875 1.31845 29.785 2.05345 30.135 3.17345C30.555 4.22345 30.45 5.20345 29.82 6.11345C29.26 7.02345 28.455 7.47845 27.405 7.47845C26.775 7.47845 25.9 7.33845 24.78 7.05845C23.73 6.70845 22.82 6.49845 22.05 6.42845C21.28 6.28845 20.09 6.39345 18.48 6.74345C15.54 7.51345 13.335 9.96345 11.865 14.0934V38.4534C11.865 42.5135 12.145 45.3484 12.705 46.9585C13.335 48.4985 14.42 49.5135 15.96 50.0035V51.2635H0V50.0035C1.61 49.5135 2.66 48.4985 3.15 46.9585C3.71 45.4184 3.99 42.5835 3.99 38.4534V15.3535C3.99 11.9935 3.675 9.75345 3.045 8.63345C2.485 7.44345 1.47 6.70845 0 6.42845V4.95845L10.605 0.968449H11.865V10.5235C13.405 7.44345 15.68 4.92345 18.69 2.96345C21.7 0.93345 24.605 0.26845 27.405 0.968449Z" fill="#D2FF52"/>
</svg>
