<svg width="154" height="92" viewBox="0 0 154 92" fill="none" xmlns="http://www.w3.org/2000/svg">
<path d="M136.953 63.5437C147.663 64.1737 153.018 67.4637 153.018 73.4137C153.018 77.0537 151.583 80.3087 148.713 83.1787C145.913 86.1187 142.378 88.3237 138.108 89.7937C133.908 91.2637 129.498 91.9987 124.878 91.9987C118.998 91.9987 113.958 90.9137 109.758 88.7437C105.558 86.5737 103.038 83.4937 102.198 79.5037C101.918 79.0137 101.848 78.4187 101.988 77.7187C102.128 77.0187 102.198 76.4237 102.198 75.9337C102.198 75.5137 102.338 74.9887 102.618 74.3587C102.968 73.7987 103.213 73.3087 103.353 72.8887C103.563 72.5387 103.913 72.1187 104.403 71.6287C104.893 71.1387 105.243 70.7537 105.453 70.4737C105.733 70.1237 106.118 69.7387 106.608 69.3187C107.168 68.8287 107.588 68.4787 107.868 68.2687C108.148 68.0587 108.533 67.7787 109.023 67.4287C109.513 67.0087 109.828 66.7287 109.968 66.5887C108.708 65.3287 108.078 63.7537 108.078 61.8637C108.078 60.1837 108.708 58.6787 109.968 57.3487C111.228 56.0187 113.048 54.5487 115.428 52.9387C109.548 49.9287 106.608 45.0287 106.608 38.2387C106.608 33.0587 108.603 28.6137 112.593 24.9037C116.653 21.1237 121.308 19.2337 126.558 19.2337C129.358 19.2337 131.948 19.5837 134.328 20.2837C138.038 15.5237 141.643 13.3537 145.143 13.7737C146.193 13.9137 146.858 14.4737 147.138 15.4537C147.418 16.3637 147.243 17.2037 146.613 17.9737C146.053 18.6737 145.248 18.9187 144.198 18.7087C140.068 17.6587 137.163 18.3587 135.483 20.8087C138.773 22.0687 141.398 23.9937 143.358 26.5837C145.388 29.1737 146.403 32.4987 146.403 36.5587C146.403 40.1987 145.318 43.5237 143.148 46.5337C140.978 49.5437 138.388 51.7837 135.378 53.2537C132.368 54.7237 129.428 55.4587 126.558 55.4587C123.128 55.4587 119.873 54.8287 116.793 53.5687C115.883 54.1987 115.218 54.6887 114.798 55.0387C114.378 55.3887 113.993 55.8437 113.643 56.4037C113.293 56.8937 113.118 57.4187 113.118 57.9787C113.258 60.7787 116.968 62.3537 124.248 62.7037L136.953 63.5437ZM113.958 33.8287C113.958 36.9087 114.483 39.9537 115.533 42.9637C116.653 45.9037 118.333 48.4587 120.573 50.6287C122.883 52.7987 125.508 53.8837 128.448 53.8837C132.018 53.8837 134.678 52.6937 136.428 50.3137C138.248 47.8637 139.158 44.7837 139.158 41.0737C139.158 37.9237 138.563 34.8087 137.373 31.7287C136.183 28.5787 134.398 25.9187 132.018 23.7487C129.638 21.5787 127.013 20.5637 124.143 20.7037C120.713 20.8437 118.158 22.1387 116.478 24.5887C114.798 26.9687 113.958 30.0487 113.958 33.8287ZM125.508 90.6337C129.008 90.6337 132.543 90.1087 136.113 89.0587C139.683 88.0087 142.728 86.4337 145.248 84.3337C147.838 82.3037 149.133 80.0287 149.133 77.5087C149.133 75.1987 148.188 73.5887 146.298 72.6787C144.408 71.8387 141.258 71.2787 136.848 70.9987C129.778 70.7187 125.088 70.4737 122.778 70.2637C117.388 69.9837 113.538 69.0387 111.228 67.4287C109.478 68.6887 108.568 70.6137 108.498 73.2037C108.428 75.8637 108.988 78.4537 110.178 80.9737C111.438 83.5637 113.433 85.8037 116.163 87.6937C118.963 89.6537 122.078 90.6337 125.508 90.6337Z" fill="#D2FF52"/>
<path d="M96.6415 57.5598C96.6415 61.6898 96.9216 64.5248 97.4816 66.0648C98.0416 67.6048 99.0916 68.6198 100.632 69.1098V70.3698H84.7766V69.1098C86.3166 68.6198 87.3665 67.6048 87.9265 66.0648C88.4865 64.5248 88.7666 61.6898 88.7666 57.5598V37.0848C88.7666 32.1148 87.6466 28.4748 85.4066 26.1648C83.2366 23.7848 80.2616 22.5948 76.4816 22.5948C74.4516 22.5948 72.3866 23.2248 70.2866 24.4848C68.2566 25.6748 66.7166 26.8998 65.6666 28.1598L64.0916 29.9448V57.5598C64.0916 61.6198 64.3715 64.4548 64.9315 66.0648C65.5615 67.6048 66.6466 68.6198 68.1866 69.1098V70.3698H52.2266V69.1098C53.8366 68.6198 54.8866 67.6048 55.3766 66.0648C55.9366 64.5248 56.2166 61.6898 56.2166 57.5598V34.4598C56.2166 31.0998 55.9015 28.8248 55.2715 27.6348C54.7115 26.4448 53.6966 25.7448 52.2266 25.5348V24.0648L62.8315 19.9698H64.0916V27.6348C64.2316 27.4248 64.4416 27.1448 64.7216 26.7948C65.0716 26.3748 65.7366 25.7098 66.7166 24.7998C67.7666 23.8198 68.8516 22.9798 69.9716 22.2798C71.1616 21.5098 72.7016 20.8448 74.5916 20.2848C76.5516 19.6548 78.5815 19.3398 80.6815 19.3398C85.7215 19.3398 89.6416 20.8098 92.4416 23.7498C95.2416 26.6898 96.6415 31.0648 96.6415 36.8748V57.5598Z" fill="#D2FF52"/>
<path d="M42.9537 10.4144C41.9037 11.4644 40.6088 11.9894 39.0688 11.9894C37.5288 11.9894 36.1987 11.4644 35.0787 10.4144C34.0287 9.29437 33.5038 7.99937 33.5038 6.52938C33.5038 4.91938 34.0287 3.58938 35.0787 2.53938C36.1987 1.41938 37.5288 0.859375 39.0688 0.859375C40.6788 0.859375 42.0087 1.41938 43.0587 2.53938C44.1087 3.58938 44.6337 4.91938 44.6337 6.52938C44.6337 7.99937 44.0737 9.29437 42.9537 10.4144ZM43.5837 57.5594C43.5837 61.6194 43.8637 64.4544 44.4237 66.0644C45.0537 67.6044 46.1387 68.6194 47.6787 69.1094V70.3694H31.7188V69.1094C33.3288 68.6194 34.3787 67.6044 34.8687 66.0644C35.4287 64.5244 35.7087 61.6894 35.7087 57.5594V35.1944C35.7087 31.9044 35.3937 29.6644 34.7637 28.4744C34.2037 27.2844 33.1888 26.5494 31.7188 26.2694V24.7994L42.3237 19.9694H43.5837V57.5594Z" fill="#D2FF52"/>
<path d="M28.245 63.9631C28.385 64.2431 28.595 64.7331 28.875 65.4331C24.675 69.4231 20.58 71.4181 16.59 71.4181C9.8 71.4181 6.405 66.5881 6.405 56.9281V21.4381H0V19.9681C1.68 19.9681 3.28999 19.5481 4.82999 18.7081C6.36999 17.8681 7.59501 16.8531 8.505 15.6631C9.485 14.4031 10.29 13.1781 10.92 11.9881C11.62 10.7981 12.145 9.74812 12.495 8.83813L12.915 7.57812H14.28V19.9681H22.89V21.4381H14.28V56.9281C14.28 63.2981 16.66 66.4831 21.42 66.4831C23.73 66.4831 26.005 65.6431 28.245 63.9631Z" fill="#D2FF52"/>
</svg>
