<svg width="145" height="72" viewBox="0 0 145 72" fill="none" xmlns="http://www.w3.org/2000/svg">
<path d="M143.147 56.2998L144.092 57.1398C137.162 66.6598 129.217 71.4198 120.257 71.4198C117.457 71.4198 114.657 70.8948 111.857 69.8448C109.127 68.7948 106.572 67.2898 104.192 65.3298C101.882 63.3698 99.9919 60.7798 98.5219 57.5598C97.1219 54.2698 96.4219 50.6298 96.4219 46.6398C96.4219 38.6598 99.0119 32.1148 104.192 27.0048C109.442 21.8948 115.672 19.3398 122.882 19.3398C129.042 19.3398 133.942 21.0548 137.582 24.4848C141.222 27.9148 143.112 32.1148 143.252 37.0848H103.877C103.667 38.6248 103.562 40.1998 103.562 41.8098C103.562 48.7398 105.522 54.3398 109.442 58.6098C113.432 62.8798 118.682 65.0148 125.192 65.0148C131.982 65.0148 137.967 62.1098 143.147 56.2998ZM119.627 21.1248C115.497 21.0548 112.102 22.3848 109.442 25.1148C106.782 27.8448 105.032 31.4148 104.192 35.8248H135.167C134.607 32.0448 132.927 28.6498 130.127 25.6398C127.397 22.6298 123.897 21.1248 119.627 21.1248Z" fill="#D2FF52"/>
<path d="M86.983 19.9688H98.848V21.3338C95.558 21.3338 92.793 24.2738 90.553 30.1537C89.923 31.7638 88.348 35.9288 85.828 42.6488C83.378 49.2988 81.068 55.5988 78.898 61.5488L75.643 70.3688H71.968L57.583 31.9388C57.513 31.7288 57.338 31.3088 57.058 30.6788C56.848 29.9788 56.673 29.4537 56.533 29.1038C56.393 28.6837 56.183 28.1588 55.903 27.5287C55.623 26.8988 55.343 26.3738 55.063 25.9538C54.853 25.5338 54.573 25.0787 54.223 24.5887C53.943 24.0288 53.628 23.6088 53.278 23.3288C52.998 22.9788 52.683 22.6288 52.333 22.2788C51.983 21.9288 51.598 21.6838 51.178 21.5438C50.758 21.4038 50.338 21.3338 49.918 21.3338V19.9688H67.033V21.3338C63.813 21.3338 63.218 24.3788 65.248 30.4688C66.298 33.4788 67.803 37.6438 69.763 42.9638C71.723 48.2838 73.438 52.8688 74.908 56.7188L77.008 62.3888C83.518 44.2588 87.508 33.4088 88.978 29.8388C90.168 26.7588 90.553 24.5888 90.133 23.3288C89.713 21.9988 88.698 21.3338 87.088 21.3338L86.983 19.9688Z" fill="#D2FF52"/>
<path d="M42.9538 10.4144C41.9038 11.4644 40.6088 11.9894 39.0688 11.9894C37.5288 11.9894 36.1988 11.4644 35.0788 10.4144C34.0288 9.29437 33.5038 7.99937 33.5038 6.52938C33.5038 4.91938 34.0288 3.58938 35.0788 2.53938C36.1988 1.41938 37.5288 0.859375 39.0688 0.859375C40.6788 0.859375 42.0088 1.41938 43.0588 2.53938C44.1088 3.58938 44.6338 4.91938 44.6338 6.52938C44.6338 7.99937 44.0738 9.29437 42.9538 10.4144ZM43.5838 57.5594C43.5838 61.6194 43.8638 64.4544 44.4238 66.0644C45.0538 67.6044 46.1388 68.6194 47.6788 69.1094V70.3694H31.7188V69.1094C33.3288 68.6194 34.3788 67.6044 34.8688 66.0644C35.4288 64.5244 35.7088 61.6894 35.7088 57.5594V35.1944C35.7088 31.9044 35.3938 29.6644 34.7638 28.4744C34.2038 27.2844 33.1888 26.5494 31.7188 26.2694V24.7994L42.3238 19.9694H43.5838V57.5594Z" fill="#D2FF52"/>
<path d="M28.245 63.9631C28.385 64.2431 28.595 64.7331 28.875 65.4331C24.675 69.4231 20.58 71.4181 16.59 71.4181C9.8 71.4181 6.405 66.5881 6.405 56.9281V21.4381H0V19.9681C1.68 19.9681 3.28999 19.5481 4.82999 18.7081C6.36999 17.8681 7.59499 16.8531 8.50499 15.6631C9.48499 14.4031 10.29 13.1781 10.92 11.9881C11.62 10.7981 12.145 9.74812 12.495 8.83813L12.915 7.57812H14.28V19.9681H22.89V21.4381H14.28V56.9281C14.28 63.2981 16.66 66.4831 21.42 66.4831C23.73 66.4831 26.005 65.6431 28.245 63.9631Z" fill="#D2FF52"/>
</svg>
