<svg width="131" height="30" viewBox="0 0 131 30" fill="none" xmlns="http://www.w3.org/2000/svg">
<path d="M10.1956 19.5563C10.1956 19.5563 10.2434 19.628 10.2673 19.6639C10.2434 19.628 10.2195 19.5802 10.1956 19.5443V19.5563ZM10.1836 8.10503L10.2195 8.06917C12.0483 5.33186 15.156 3.5269 18.6702 3.5269C24.3001 3.5269 28.8662 8.14088 28.8662 13.8187C28.8662 19.4965 24.3001 24.1105 18.6702 24.1105C15.1919 24.1105 12.1199 22.3414 10.2792 19.6519C12.3112 23.3455 16.2199 25.8318 20.6904 25.8318C27.2765 25.8318 32.6076 20.4409 32.6076 13.7948C32.6076 7.14875 27.2646 1.75781 20.6904 1.75781C16.1482 1.75781 12.1917 4.32777 10.1836 8.10503Z" fill="#9C9C9C"/>
<mask id="mask0_263_445" style="mask-type:luminance" maskUnits="userSpaceOnUse" x="10" y="1" width="23" height="25">
<path d="M10.1917 19.5407C10.1917 19.5407 10.2395 19.6124 10.2634 19.6483C10.2395 19.6124 10.2156 19.5646 10.1917 19.5287V19.5407ZM10.1797 8.0894L10.2156 8.05354C12.0444 5.31623 15.1521 3.51127 18.6663 3.51127C24.2962 3.51127 28.8623 8.12526 28.8623 13.8031C28.8623 19.4809 24.2962 24.0949 18.6663 24.0949C15.188 24.0949 12.116 22.3258 10.2753 19.6363C12.3073 23.3299 16.216 25.8162 20.6865 25.8162C27.2726 25.8162 32.6037 20.4252 32.6037 13.7792C32.6037 7.13313 27.2607 1.74219 20.6865 1.74219C16.1443 1.74219 12.1878 4.31215 10.1797 8.0894Z" fill="white"/>
</mask>
<g mask="url(#mask0_263_445)">
<path d="M32.5958 1.76562H10.1719V25.8516H32.5958V1.76562Z" fill="#9C9C9C"/>
</g>
<path d="M5.42051 12.8395L7.52426 17.1308C7.84699 17.4654 8.25338 17.6208 8.25338 17.6208C8.65978 17.8599 8.28927 17.8958 8.28927 17.8958H7.89473H5.94637H5.5759C5.5759 17.8958 5.20539 17.8599 5.6118 17.6208C5.6118 17.6208 5.74319 17.5013 5.67148 17.334L5.64755 17.2981C5.64755 17.2981 5.62375 17.2622 5.6118 17.2503L5.63573 17.2742L4.15341 14.2381C4.00998 13.9512 3.84277 14.2381 3.84277 14.2381L3.02989 15.2063C3.02989 15.2063 2.91039 15.4095 2.91039 15.6127V17.2025C2.99406 17.5491 3.29283 17.6447 3.29283 17.6447C3.69923 17.8838 3.32872 17.9197 3.32872 17.9197H0.424061C0.424061 17.9197 0.0535508 17.8838 0.459955 17.6447C0.459955 17.6447 0.758864 17.5611 0.842535 17.2025V10.3771C0.758864 10.0305 0.459955 9.9468 0.459955 9.9468C0.0535508 9.70773 0.424061 9.67188 0.424061 9.67188H3.32872C3.32872 9.67188 3.69923 9.70773 3.29283 9.9468C3.29283 9.9468 2.99406 10.0305 2.91039 10.3771V13.0188C2.91039 13.0188 2.93423 13.2101 3.13743 13.0188L5.42051 10.2815L5.38461 10.3293C5.55196 10.1142 5.38461 9.95876 5.38461 9.95876C4.97821 9.71969 5.34872 9.68382 5.34872 9.68382H5.98227H7.15365H7.78719C7.78719 9.68382 8.1577 9.71969 7.7513 9.95876C7.7513 9.95876 7.35688 10.1141 7.03414 10.4369L5.44444 12.3375C5.44444 12.3375 5.25319 12.4929 5.44444 12.8515" fill="#9C9C9C"/>
<path d="M18.1087 17.6373C18.1087 17.6373 17.8099 17.5536 17.7263 17.195V10.3697C17.8099 10.023 18.1087 9.93936 18.1087 9.93936C18.5031 9.70029 18.1446 9.66444 18.1446 9.66444H15.4312C15.4312 9.66444 15.1324 9.64052 15.0129 9.97522L13.4709 14.5055C13.3633 14.8402 13.208 14.5055 13.208 14.5055L11.7735 9.92741C11.6898 9.66444 11.415 9.66444 11.415 9.66444H10.4946H9.52632H8.89291C8.89291 9.66444 8.52226 9.70029 8.92866 9.93936C8.92866 9.93936 9.22757 10.023 9.31124 10.3697V17.195C9.22757 17.5417 8.92866 17.6373 8.92866 17.6373C8.52226 17.8764 8.89291 17.9122 8.89291 17.9122H10.9009C10.9009 17.9122 11.2715 17.8764 10.8651 17.6373C10.8651 17.6373 10.5663 17.5536 10.4826 17.195V12.1866C10.4826 11.9356 10.6261 12.1866 10.6261 12.1866L12.3354 17.6492C12.3354 17.6492 12.3951 17.9122 12.67 17.9122H13.3753C13.6144 17.9122 13.6622 17.6492 13.6622 17.6492L13.7936 17.2548L15.5268 12.1985C15.5268 12.1985 15.6582 11.9595 15.6582 12.1985V17.207C15.5746 17.5536 15.2758 17.6492 15.2758 17.6492C14.8814 17.8883 15.2399 17.9242 15.2399 17.9242H18.1446C18.1446 17.9242 18.5151 17.8883 18.1087 17.6492" fill="#9C9C9C"/>
<path d="M22.0586 17.6369C22.0586 17.6369 21.7596 17.5532 21.676 17.1946V10.3693C21.7596 10.0227 22.0586 9.93898 22.0586 9.93898C22.465 9.69992 22.0943 9.66406 22.0943 9.66406H19.1898C19.1898 9.66406 18.8191 9.69992 19.2255 9.93898C19.2255 9.93898 19.5244 10.0227 19.6081 10.3693V17.1946C19.5244 17.5413 19.2255 17.6369 19.2255 17.6369C18.8191 17.876 19.1898 17.9118 19.1898 17.9118H22.0943C22.0943 17.9118 22.465 17.876 22.0586 17.6369Z" fill="#9C9C9C"/>
<path d="M47.2339 7.75348V3.4981C47.3534 3.2949 47.5088 3.27099 47.5088 3.27099H48.3933C48.7639 3.27099 48.6564 2.90044 48.6564 2.90044C48.6325 2.73309 48.4053 2.76895 48.4053 2.76895H47.5447C47.3893 2.74504 47.2817 2.54183 47.2339 2.37449V0.402195C47.21 0.234849 47.0426 0.210938 47.0426 0.210938H45.4529C45.2497 0.282657 45.4409 0.39023 45.4409 0.39023C45.7876 0.485857 45.9549 0.963986 46.0266 1.22696V7.72957C46.0266 7.72957 45.9908 7.96865 46.2299 7.96865H47.0546C47.0546 7.96865 47.2817 8.04036 47.2339 7.72957" fill="#9C9C9C"/>
<path d="M46.9523 10.5898H42.3504C42.1353 10.4942 41.9321 10.2551 41.9321 9.71725V6.90821C41.9321 6.74086 41.8006 6.60938 41.6333 6.60938H41.0237C41.0237 6.60938 40.9758 6.60938 40.9519 6.60938H40.1272C39.8762 6.71695 40.1272 6.84846 40.1272 6.84846C40.5216 6.95604 40.6651 7.41026 40.7129 7.61347V10.0759C40.7129 10.0759 40.5215 11.3788 42.2667 11.2353H46.9523C47.0719 11.2353 47.1794 11.1277 47.1794 11.0082V10.817C47.1794 10.6855 47.0719 10.5898 46.9523 10.5898Z" fill="#9C9C9C"/>
<path d="M44.4744 2.05057H44.4504C44.4385 1.87127 44.5222 1.75174 44.6178 1.68002H45.0241C45.0241 1.68002 45.299 1.78761 45.299 1.42901C45.299 1.42901 45.2752 1.17798 45.072 1.17798H43.1474C43.1474 1.17798 42.777 1.17798 42.777 0.807427V0.496647C42.777 0.496647 42.8487 0.269531 42.538 0.269531H41.1633C41.1633 0.269531 40.8048 0.472731 41.0319 0.580311C41.0319 0.580311 41.2829 0.580306 41.3068 0.855233C41.3068 0.855233 41.4622 1.13017 41.0319 1.13017H39.2389C39.2389 1.13017 39.0356 1.17798 39.0356 1.33338C39.0356 1.33338 38.964 1.66807 39.215 1.69198H39.6333C39.717 1.75175 39.8126 1.87127 39.8126 2.03862C39.466 2.33745 39.0117 3.15027 39.0117 3.64036C39.0117 4.96718 40.3982 6.03103 42.1195 6.03103C43.8407 6.03103 45.2274 4.95523 45.2274 3.64036C45.2274 3.04269 44.9405 2.49284 44.4624 2.07448M42.1434 5.45727C41.2947 5.45727 40.6134 4.64445 40.6134 3.65233C40.6134 2.6602 41.2947 1.84736 42.1434 1.84736C42.9921 1.84736 43.6734 2.6602 43.6734 3.65233C43.6734 4.64445 42.9921 5.45727 42.1434 5.45727Z" fill="#9C9C9C"/>
<path d="M58.0702 4.08281H57.6996L57.7713 4.0589C57.5442 4.0589 57.4605 3.96326 57.4247 3.87959V0.759771C57.4247 0.604377 57.3171 0.484844 57.1617 0.460938H57.1378C57.1378 0.460938 57.1378 0.460938 57.1258 0.460938H50.1691C50.0376 0.460938 49.942 0.56852 49.942 0.688054V0.855399C49.942 0.986886 50.0376 1.08252 50.1691 1.08252H55.7512C55.9066 1.11838 55.9783 1.20205 56.0022 1.38135V3.44927C56.0022 3.58076 55.9424 3.99913 55.4284 4.07085H49.3444C49.2248 4.07085 49.1172 4.17843 49.1172 4.29796V4.63266C49.1172 4.76414 49.2248 4.85977 49.3444 4.85977H52.7869C52.9064 4.94344 53.0379 5.08689 53.0618 5.314V6.06705C53.0618 6.06705 53.1574 6.33003 52.6195 6.52128H50.181C50.0495 6.52128 49.954 6.62887 49.954 6.7484V6.90378C49.954 7.03527 50.0615 7.1309 50.181 7.1309H55.7871C56.0262 7.27434 56.074 7.45364 56.074 7.52536V10.9799C56.074 11.1472 56.2054 11.2787 56.3728 11.2787H57.054C57.2214 11.2787 57.3529 11.1472 57.3529 10.9799V6.76035C57.3529 6.64081 57.2454 6.53323 57.1258 6.53323H54.8188C54.8188 6.53323 54.3647 6.52129 54.3408 6.11487V5.30204C54.3408 5.30204 54.269 5.05102 54.6634 4.87172H58.0582C58.1777 4.87172 58.2852 4.76414 58.2852 4.6446V4.30991C58.2852 4.19038 58.1777 4.08281 58.0582 4.08281" fill="#9C9C9C"/>
<path d="M67.9774 0.207031H66.9136C66.9136 0.207031 66.7464 0.290697 66.8898 0.386324C66.8898 0.386324 67.057 0.529767 67.069 0.744927V3.61372C66.9973 3.78106 66.9136 3.76912 66.9136 3.76912H66.7821C66.6626 3.75716 66.579 3.67348 66.5312 3.61372V0.505864C66.5312 0.338518 66.3997 0.207031 66.2323 0.207031H65.037C64.8219 0.290705 65.037 0.434147 65.037 0.434147C65.1805 0.529774 65.3119 0.589534 65.3239 0.744927V10.8933C65.3239 11.0607 65.4554 11.1921 65.6227 11.1921H66.2323C66.3997 11.1921 66.5312 11.0607 66.5312 10.8933V4.84493C66.5551 4.62977 66.7462 4.62976 66.7462 4.62976H66.9375C67.081 4.66562 67.069 4.78516 67.069 4.78516V10.8933C67.069 11.0607 67.2005 11.1921 67.3678 11.1921H67.9774C68.1448 11.1921 68.2763 11.0607 68.2763 10.8933V0.505864C68.2763 0.338518 68.1448 0.207031 67.9774 0.207031Z" fill="#9C9C9C"/>
<path d="M108.926 0.210938H107.875C107.875 0.210938 107.707 0.294603 107.851 0.39023C107.851 0.39023 108.018 0.533674 108.03 0.748834V3.61762C107.958 3.78497 107.863 3.77302 107.863 3.77302H107.743C107.624 3.76107 107.54 3.67739 107.492 3.61762V0.509771C107.492 0.342424 107.361 0.210938 107.193 0.210938H105.998C105.783 0.294611 105.998 0.438054 105.998 0.438054C106.141 0.53368 106.273 0.59344 106.285 0.748834V10.8972C106.285 11.0646 106.416 11.196 106.584 11.196H107.193C107.361 11.196 107.492 11.0646 107.492 10.8972V4.84883C107.516 4.63367 107.707 4.63366 107.707 4.63366H107.898C108.042 4.66952 108.03 4.78906 108.03 4.78906V10.8972C108.03 11.0646 108.161 11.196 108.329 11.196H108.938C109.106 11.196 109.237 11.0646 109.237 10.8972V0.509771C109.237 0.342424 109.106 0.210938 108.938 0.210938" fill="#9C9C9C"/>
<path d="M63.118 1.97479C62.102 1.55643 61.337 2.16605 61.337 2.16605C60.4884 2.73981 59.8906 4.00686 59.8906 5.46516C59.8906 7.47332 61.0143 9.09898 62.3889 9.09898C63.7635 9.09898 64.8871 7.47332 64.8871 5.46516C64.8871 3.8156 64.134 2.42903 63.1061 1.98676M62.3052 8.29811C61.6238 8.29811 61.0859 7.03105 61.0859 5.46516C61.0859 3.89928 61.6358 2.63223 62.3052 2.63223C62.9745 2.63223 63.5244 3.89928 63.5244 5.46516C63.5244 7.03105 62.9745 8.29811 62.3052 8.29811Z" fill="#9C9C9C"/>
<path d="M72.9503 0.1875C71.3845 0.1875 70.1055 1.40674 70.1055 2.91286C70.1055 4.41898 71.3725 5.63821 72.9503 5.63821C74.5281 5.63821 75.7951 4.41898 75.7951 2.91286C75.7951 1.40674 74.5281 0.1875 72.9503 0.1875ZM72.9264 5.11226C72.1016 5.11226 71.4322 4.156 71.4322 2.98457C71.4322 1.81315 72.1016 0.856883 72.9264 0.856883C73.7511 0.856883 74.4205 1.81315 74.4205 2.98457C74.4205 4.156 73.7511 5.11226 72.9264 5.11226Z" fill="#9C9C9C"/>
<path d="M74.8167 6.15234C72.8206 6.15234 71.207 7.33572 71.207 8.78207C71.207 10.2284 72.8206 11.4118 74.8167 11.4118C76.8129 11.4118 78.4266 10.2284 78.4266 8.78207C78.4266 7.33572 76.8129 6.15234 74.8167 6.15234ZM74.781 10.7902C73.5857 10.7902 72.6174 9.85787 72.6174 8.71035C72.6174 7.56284 73.5857 6.63047 74.781 6.63047C75.9763 6.63047 76.9444 7.56284 76.9444 8.71035C76.9444 9.85787 75.9763 10.7902 74.781 10.7902Z" fill="#9C9C9C"/>
<path d="M78.2764 2.32348H79.6271C79.7107 2.32348 79.7825 2.25175 79.7825 2.16808V1.84533C79.7825 1.76166 79.7107 1.68995 79.6271 1.68995H78.2764C78.2764 1.68995 78.2526 1.68995 78.2406 1.68995V0.398991C78.2406 0.267505 78.1449 0.171875 78.0134 0.171875H76.6149C76.6149 0.171875 76.4237 0.243593 76.5432 0.375079C76.5432 0.375079 76.9616 0.590244 76.9974 0.86517V5.88556C76.9974 6.0051 77.1049 6.11268 77.2245 6.11268H78.0254C78.1569 6.11268 78.2526 6.01705 78.2526 5.88556V3.86545C78.2526 3.86545 78.2764 3.86545 78.2883 3.86545H79.639C79.7227 3.86545 79.7944 3.79372 79.7944 3.71005V3.38732C79.7944 3.30365 79.7227 3.23192 79.639 3.23192H78.2883C78.2883 3.23192 78.2645 3.23192 78.2526 3.23192V2.26371C78.2526 2.26371 78.2764 2.26371 78.2883 2.26371" fill="#9C9C9C"/>
<path d="M89.2017 6.03906H80.2609C80.1772 6.03906 80.1055 6.11077 80.1055 6.19444V6.49328C80.1055 6.57695 80.1772 6.64868 80.2609 6.64868H83.9424C83.9424 6.64868 83.9186 6.70844 83.9186 6.7443V11.0595C83.9186 11.1909 84.0261 11.2866 84.1456 11.2866H85.09C85.2214 11.2866 85.317 11.179 85.317 11.0595V6.7443C85.317 6.7443 85.317 6.68454 85.2931 6.64868H89.2017C89.2854 6.64868 89.3571 6.57695 89.3571 6.49328V6.19444C89.3571 6.11077 89.2854 6.03906 89.2017 6.03906Z" fill="#9C9C9C"/>
<path d="M85.2041 0.125H83.5905C83.5905 0.125 83.0884 0.220632 83.4828 0.579232C83.4828 0.579232 84.3435 1.14105 83.8415 1.89411C83.8415 1.89411 82.7298 4.225 80.5544 4.52383C80.5544 4.52383 79.9926 4.88243 80.5544 5.13345C80.5544 5.13345 82.7777 5.03783 84.7499 3.16116C84.7499 3.16116 86.2202 4.72704 88.8379 5.18127C88.8379 5.18127 89.2921 4.88244 88.7901 4.61946C88.7901 4.61946 85.8615 3.45999 85.6105 1.73871L85.5149 0.627038C85.5149 0.627038 85.7659 0.220627 85.2161 0.125" fill="#9C9C9C"/>
<path d="M93.332 0.238281H91.8736C91.8736 0.238281 91.5391 0.333903 91.9933 0.64469C91.9933 0.64469 92.4475 0.94352 92.2442 2.50941C92.2442 2.50941 92.0888 3.87209 89.9253 4.98375C89.9253 4.98375 89.7221 5.48578 89.9731 5.5336C89.9731 5.5336 91.0848 5.64118 93.1048 3.3581C93.1048 3.3581 93.7622 4.87616 95.7823 5.3782C95.7823 5.3782 96.3681 5.5336 96.0334 5.05547C96.0334 5.05547 94.0133 4.07529 93.7384 2.3062C93.7384 2.3062 93.6307 0.871803 93.6666 0.64469C93.6666 0.64469 93.7265 0.262188 93.344 0.238281" fill="#9C9C9C"/>
<path d="M100.053 2.57356H98.6429C98.6429 2.57356 98.607 2.57356 98.595 2.57356V0.517583C98.595 0.350237 98.4635 0.21875 98.2962 0.21875H96.9098C96.9098 0.21875 96.7065 0.24267 96.9575 0.49369C96.9575 0.49369 97.3161 0.76861 97.4835 1.1033V7.67763C97.4835 7.84498 97.615 7.97646 97.7823 7.97646H98.2962C98.4635 7.97646 98.595 7.84498 98.595 7.67763V3.19513C98.595 3.19513 98.6309 3.19513 98.6429 3.19513H100.053C100.137 3.19513 100.209 3.12341 100.209 3.03974V2.71699C100.209 2.63332 100.137 2.56161 100.053 2.56161" fill="#9C9C9C"/>
<path d="M98.3929 10.6176H93.8387C93.5041 10.5698 93.3846 10.3546 93.3368 10.2231V6.51758C93.3368 6.35024 93.2053 6.21875 93.038 6.21875H91.7709C91.7709 6.21875 91.5916 6.29047 91.747 6.44587C91.747 6.44587 92.1294 6.74469 92.1533 6.92399V10.5458C92.1533 10.5458 92.1415 10.6415 92.1415 10.6773C92.1415 11.0359 92.4283 11.3228 92.7869 11.3228C92.8227 11.3228 92.8467 11.3228 92.8826 11.3228C92.9065 11.3228 92.9423 11.3348 92.9662 11.3348H98.3929C98.5125 11.3348 98.62 11.2272 98.62 11.1077V10.8566C98.62 10.7371 98.5125 10.6295 98.3929 10.6295" fill="#9C9C9C"/>
<path d="M130.115 10.6289H125.561H125.573C125.238 10.5811 125.106 10.3659 125.07 10.2344V6.94727C125.07 6.77992 124.939 6.64844 124.772 6.64844H123.337C123.337 6.64844 123.158 6.72016 123.313 6.87555C123.313 6.87555 123.696 7.17438 123.72 7.35368V10.5452C123.72 10.5452 123.708 10.6289 123.708 10.6767C123.708 11.0353 123.995 11.3222 124.353 11.3222C124.389 11.3222 124.413 11.3222 124.449 11.3222C124.473 11.3341 124.509 11.3341 124.533 11.3341H130.139C130.258 11.3341 130.366 11.2266 130.366 11.107V10.856C130.366 10.7245 130.258 10.6289 130.139 10.6289" fill="#9C9C9C"/>
<path d="M105.397 0.793522C105.397 0.662036 105.29 0.566406 105.17 0.566406H101.154C101.034 0.566406 100.927 0.673989 100.927 0.793522V1.0565C100.927 1.17603 101.034 1.28361 101.154 1.28361H104.035C104.489 7.81013 100.664 8.56319 100.664 8.56319C100.401 8.82616 100.855 8.9457 100.855 8.9457C105.11 7.77428 105.421 3.0527 105.385 1.33142C105.385 1.33142 105.385 1.33143 105.385 1.30753" fill="#9C9C9C"/>
<path d="M121.147 2.27933H119.737C119.737 2.27933 119.701 2.27933 119.689 2.27933V0.486333C119.689 0.318987 119.557 0.1875 119.39 0.1875H118.003C118.003 0.1875 117.8 0.211402 118.051 0.462421C118.051 0.462421 118.266 0.617818 118.434 0.988371V5.13618C118.434 5.25571 118.529 5.36329 118.661 5.36329H119.414C119.545 5.36329 119.641 5.26766 119.641 5.13618V2.90091H121.147C121.231 2.90091 121.302 2.82918 121.302 2.74551V2.42277C121.302 2.33909 121.231 2.26739 121.147 2.26739" fill="#9C9C9C"/>
<path d="M116.917 0.566406H115.208C115.208 0.566406 115.029 0.697893 115.256 0.865239C115.256 0.865239 115.543 1.02063 115.734 1.33142V2.25183H112.829V0.865239C112.829 0.697893 112.698 0.566406 112.53 0.566406H110.821C110.821 0.566406 110.642 0.697893 110.869 0.865239C110.869 0.865239 111.156 1.02063 111.347 1.33142V4.23609C111.347 4.23609 111.371 5.14454 111.981 5.22821C112.004 5.22821 112.028 5.22821 112.052 5.22821C112.351 5.22821 112.399 5.22821 112.351 5.22821H115.925C115.925 5.22821 115.997 5.25211 116.045 5.25211H116.929C117.097 5.25211 117.228 5.12062 117.228 4.95327V0.865239C117.228 0.697893 117.097 0.566406 116.929 0.566406M115.746 2.90927V4.52295H113.367C113.188 4.48709 112.949 4.35562 112.841 3.86554V2.90927H115.746Z" fill="#9C9C9C"/>
<path d="M119.783 10.6862H114.942C114.715 10.6862 114.655 10.483 114.643 10.3754V8.72583C114.715 8.6302 114.811 8.61824 114.811 8.61824H118.648C118.648 8.61824 118.684 8.61824 118.707 8.61824H119.664C119.831 8.61824 119.962 8.48676 119.962 8.30746V6.28734C119.962 6.12 119.831 5.97656 119.664 5.97656H119.508C119.508 5.97656 119.496 5.97656 119.484 5.97656H112.946C112.815 5.97656 112.719 6.08415 112.719 6.20368V6.50251C112.719 6.634 112.827 6.72961 112.946 6.72961H118.122C118.122 6.72961 118.373 6.77744 118.397 7.00455V7.68588C118.349 7.7576 118.241 7.84128 118.014 7.84128H112.934C112.803 7.84128 112.707 7.93691 112.707 8.06839V8.36723C112.707 8.47481 112.779 8.55847 112.874 8.58238C112.934 8.6541 113.042 8.7856 113.066 8.89318V10.3156H113.03C113.03 10.3156 112.91 11.236 114.524 11.236H119.771C119.891 11.236 119.998 11.1284 119.998 11.0089V10.8774C119.998 10.7579 119.891 10.6503 119.771 10.6503" fill="#9C9C9C"/>
<path d="M130.479 0.460148V0.316714C130.479 0.149367 130.288 0.101562 130.288 0.101562H128.698C128.495 0.173282 128.686 0.280855 128.686 0.280855C129.033 0.376482 129.2 0.854611 129.272 1.11758V4.89484C129.224 4.99047 129.14 5.05023 129.08 5.07413H122.351C122.267 5.07413 122.195 5.14586 122.195 5.22953V5.71962C122.195 5.8033 122.267 5.87502 122.351 5.87502H125.602C125.674 5.92283 125.757 5.99454 125.793 6.10212V8.30154C125.793 8.46889 125.925 8.60038 126.092 8.60038H126.738C126.905 8.60038 127.036 8.46889 127.036 8.30154V6.12603C127.096 6.01845 127.216 5.92283 127.287 5.87502H129.092C129.092 5.87502 129.224 5.93478 129.272 6.01845V6.24557C129.272 6.24557 129.2 6.31729 129.164 6.3412H127.993C127.873 6.3412 127.765 6.44876 127.765 6.5683V6.79541C127.765 6.91495 127.873 7.02253 127.993 7.02253H129.176C129.176 7.02253 129.248 7.09426 129.284 7.14207V8.42107C129.284 8.42107 129.248 8.66013 129.487 8.66013H130.311C130.311 8.66013 130.539 8.73185 130.491 8.42107" fill="#9C9C9C"/>
<path d="M125.451 0.117188C123.765 0.117188 122.391 1.13321 122.391 2.38831C122.391 3.64341 123.765 4.65946 125.451 4.65946C127.136 4.65946 128.511 3.64341 128.511 2.38831C128.511 1.13321 127.136 0.117188 125.451 0.117188ZM125.427 4.01397C124.602 4.01397 123.945 3.29676 123.945 2.42417C123.945 1.55158 124.614 0.834394 125.427 0.834394C126.24 0.834394 126.909 1.55158 126.909 2.42417C126.909 3.29676 126.24 4.01397 125.427 4.01397Z" fill="#9C9C9C"/>
<path d="M64.588 1.19158H63.0819V0.414616C63.0819 0.28313 62.9744 0.1875 62.8549 0.1875H61.2173C61.2173 0.1875 60.9901 0.187511 61.0977 0.366811C61.0977 0.366811 61.2411 0.402655 61.277 0.462421C61.277 0.462421 61.4564 0.629778 61.5161 0.809078V1.19158H60.1415C60.01 1.19158 59.9023 1.29917 59.9023 1.43066C59.9023 1.56214 60.01 1.66972 60.1415 1.66972H64.6C64.7314 1.66972 64.839 1.56214 64.839 1.43066C64.839 1.29917 64.7314 1.19158 64.6 1.19158" fill="#9C9C9C"/>
<path d="M44.8059 21.5943V25.0846C44.8059 25.3356 44.7342 25.5628 44.5789 25.766C44.4235 25.9692 44.2442 26.0648 44.0291 26.0648H43.515C43.4313 26.0648 43.3596 26.0409 43.3118 25.9931C43.2639 25.9453 43.2401 25.8736 43.2401 25.766V21.5823H39.8932C39.702 21.5823 39.5825 21.5703 39.5467 21.5464C39.5108 21.5225 39.463 21.4628 39.4032 21.3911L39.0565 20.877C38.9968 20.7456 38.9968 20.638 39.0565 20.5663C39.1163 20.4945 39.2119 20.4945 39.3195 20.5663C39.4988 20.6619 39.6542 20.7217 39.7617 20.7456C39.8693 20.7695 40.0845 20.7695 40.3953 20.7695H48.5831C48.9178 20.7695 49.0732 20.9129 49.0732 21.1878C49.0732 21.4628 48.9058 21.6062 48.5831 21.6062M43.9812 17.8887C43.4911 18.3071 42.9293 18.6896 42.2958 19.0243C41.6623 19.359 41.0288 19.6339 40.4072 19.8371C40.1562 19.9208 39.9888 19.873 39.8932 19.7176C39.8095 19.5622 39.8693 19.4307 40.0725 19.3231C40.6821 19.0123 41.3634 18.5342 42.1165 17.8648C42.8695 17.1954 43.2639 16.6456 43.2998 16.2272C43.3117 16.024 43.2521 15.8806 43.0967 15.7969C42.9413 15.7132 42.8099 15.6415 42.6903 15.6056C42.6067 15.5698 42.5707 15.4981 42.5587 15.3785C42.5587 15.259 42.6185 15.1992 42.75 15.1992L45.0928 15.4024C45.2601 15.4024 45.3559 15.4741 45.3798 15.5937C45.4156 15.7132 45.4037 15.8566 45.3678 16.0001C45.308 16.2033 45.2124 16.4185 45.069 16.6217C44.9375 16.8368 44.7701 17.04 44.5908 17.2552C44.8896 17.4106 45.1287 17.5182 45.308 17.5779C45.4873 17.6377 45.6665 17.6855 45.8458 17.7333C46.1446 17.7931 46.3479 17.817 46.4674 17.8051C46.5869 17.7931 46.7303 17.8409 46.9096 17.9485C47.3041 18.2115 47.6029 18.4744 47.8181 18.7494C48.0213 19.0243 48.0931 19.2753 48.0213 19.5024C47.9855 19.6459 47.8899 19.7415 47.7464 19.7893C47.603 19.8371 47.4118 19.8252 47.1488 19.7654C46.7185 19.6578 46.2403 19.4546 45.6904 19.1319C45.1525 18.8091 44.5669 18.4027 43.9573 17.8768" fill="#9C9C9C"/>
<path d="M56.3788 19.06C55.9843 19.6218 55.5421 20.1358 55.052 20.578C54.5619 21.0323 54.0957 21.367 53.6534 21.5941C53.4383 21.7017 53.3068 21.6897 53.2351 21.5582C53.1634 21.4267 53.1992 21.2952 53.3426 21.1757C54.0718 20.5063 54.6574 19.7294 55.0997 18.8568C55.542 17.9722 55.7691 17.267 55.7811 16.7291C55.7811 16.5139 55.6495 16.3466 55.3985 16.2151C55.1475 16.0836 54.9803 15.9999 54.8966 15.988C54.801 15.9521 54.7651 15.8685 54.7771 15.737C54.789 15.6055 54.8726 15.5457 55.0041 15.5577L57.3947 15.7848C57.5023 15.7848 57.5741 15.8445 57.61 15.9282C57.6458 16.0119 57.6577 16.1075 57.6457 16.2151C57.5979 16.5737 57.5023 16.9442 57.3588 17.3148C57.2154 17.6853 57.0362 18.0439 56.821 18.4145C56.9884 18.5818 57.1796 18.7372 57.4067 18.8807C57.6338 19.0241 57.837 19.1317 58.0283 19.2034C58.2315 19.2632 58.3869 19.311 58.4705 19.3469C58.5542 19.3708 58.6738 19.4664 58.8172 19.6337C59.0443 19.8848 59.1996 20.1477 59.3072 20.4346C59.4148 20.7215 59.4028 20.9486 59.2833 21.104C59.1876 21.2355 59.0442 21.3072 58.841 21.3072C58.6498 21.3072 58.4347 21.2474 58.2196 21.0921C57.9566 20.9128 57.6338 20.602 57.2274 20.1477C56.821 19.6935 56.5341 19.3349 56.3668 19.0958M55.1356 22.0603L57.1198 22.2276C57.2633 22.2874 57.3231 22.371 57.3231 22.5025V24.2119C57.3231 24.4748 57.3709 24.6661 57.4426 24.7856C57.5143 24.8932 57.6935 24.953 57.9685 24.953H61.6381C61.937 24.953 62.0804 25.0845 62.0804 25.3474C62.0804 25.6104 61.925 25.7419 61.6381 25.7419H56.8689C56.6776 25.7419 56.4504 25.6702 56.1875 25.5267C55.9245 25.3833 55.7931 25.0845 55.7931 24.6302V23.0643C55.7931 22.8731 55.6975 22.7297 55.5062 22.646C55.315 22.5623 55.1715 22.4906 55.0879 22.4428C54.9683 22.383 54.9204 22.2993 54.9563 22.2037C54.9921 22.1081 55.0519 22.0603 55.1236 22.0722M61.9011 18.4026L63.1323 18.3069C63.3594 18.295 63.4669 18.4623 63.4788 18.8209C63.4788 19.1795 63.3713 19.3588 63.1323 19.3588H61.9011V22.0364C61.9011 22.2874 61.8293 22.5145 61.6858 22.7177C61.5424 22.9209 61.3632 23.0165 61.148 23.0165H60.7058C60.6101 23.0165 60.5384 22.9926 60.4905 22.9448C60.4427 22.897 60.4189 22.8253 60.4189 22.7177V16.2151C60.4189 15.9641 60.3233 15.7848 60.132 15.6772C59.9408 15.5696 59.7734 15.474 59.6539 15.4023C59.5583 15.3425 59.5225 15.2588 59.5583 15.1512C59.5942 15.0556 59.642 15.0078 59.7137 15.0078L61.6978 15.2469C61.8173 15.2708 61.8891 15.3066 61.9011 15.3664C61.913 15.4262 61.913 15.474 61.913 15.4979V18.4026H61.9011Z" fill="#9C9C9C"/>
<path d="M72.9175 17.6424H74.6148V16.1721C74.6148 15.9211 74.5192 15.7418 74.316 15.6342C74.1128 15.5266 73.9574 15.431 73.8379 15.3593C73.7303 15.2995 73.6945 15.2159 73.7303 15.1083C73.7662 15.0127 73.814 14.9648 73.8857 14.9648L75.8938 15.2039C76.0013 15.2159 76.0731 15.2637 76.085 15.3234C76.097 15.3832 76.109 15.431 76.109 15.4549V20.0928C76.109 20.3438 76.0372 20.571 75.8938 20.7742C75.7503 20.9774 75.5711 21.073 75.3559 21.073H74.8778C74.7941 21.073 74.7223 21.0491 74.6745 21.0013C74.6267 20.9535 74.6029 20.8817 74.6029 20.7742V18.5508H72.8935C72.7859 19.1724 72.4871 19.6864 71.997 20.0928C71.5189 20.4992 70.9333 20.7144 70.2519 20.7144C69.475 20.7144 68.8415 20.4514 68.3275 19.9374C67.8135 19.4234 67.5625 18.7899 67.5625 18.0488C67.5625 17.3077 67.8135 16.6742 68.3275 16.1602C68.8415 15.6462 69.475 15.3832 70.2519 15.3832C70.9452 15.3832 71.5429 15.5984 72.0329 16.0287C72.523 16.4471 72.8099 16.985 72.9055 17.6304M71.0886 22.8899H74.4953V22.5672C74.4953 22.3161 74.4475 22.1368 74.3519 22.0412C74.2563 21.9456 74.1607 21.8619 74.065 21.7902C73.9455 21.7065 73.8977 21.6109 73.9096 21.4914C73.9336 21.3718 73.9812 21.324 74.0769 21.336C74.3279 21.3718 74.8777 21.4435 75.7144 21.575C75.834 21.587 75.9057 21.6348 75.9177 21.6946C75.9296 21.7543 75.9416 21.8022 75.9416 21.8261V24.9937C75.9416 25.3523 75.846 25.5794 75.6667 25.6631C75.4755 25.7467 75.2842 25.7946 75.0691 25.7946H70.4791C70.2759 25.7946 70.0726 25.7467 69.8933 25.6631C69.714 25.5913 69.6184 25.3642 69.6184 24.9937V22.7106C69.6184 22.4596 69.5706 22.2922 69.475 22.1966C69.3793 22.101 69.2837 22.0293 69.1881 21.9575C69.0686 21.8739 69.0208 21.7782 69.0447 21.6587C69.0686 21.5392 69.1283 21.4914 69.2001 21.5033C69.4033 21.5392 69.9651 21.6109 70.8496 21.7424C70.9691 21.7543 71.0409 21.85 71.0768 22.0054V22.9019L71.0886 22.8899ZM69.0925 18.0488C69.0925 18.515 69.2001 18.9333 69.4153 19.2919C69.6304 19.6505 69.9053 19.8299 70.2519 19.8299C70.5986 19.8299 70.8734 19.6505 71.0886 19.2919C71.3038 18.9333 71.4114 18.515 71.4114 18.0488C71.4114 17.5826 71.3038 17.1523 71.0886 16.7937C70.8734 16.4351 70.5866 16.2558 70.2519 16.2558C69.9173 16.2558 69.6304 16.4351 69.4153 16.7937C69.2001 17.1523 69.0925 17.5707 69.0925 18.0488ZM74.4953 23.7386H71.0886V24.5514C71.0886 24.7307 71.1126 24.8502 71.1723 24.922C71.2202 24.9937 71.3397 25.0295 71.519 25.0295H74.065C74.2204 25.0295 74.3399 25.0056 74.3996 24.9339C74.4594 24.8622 74.4953 24.7307 74.4953 24.5634V23.7386Z" fill="#9C9C9C"/>
<path d="M88.8818 18.004L90.113 17.9083C90.3402 17.8964 90.4597 18.0637 90.4597 18.4223C90.4597 18.7809 90.3521 18.9602 90.113 18.9602H88.8818V22.0083C88.8818 22.2593 88.8102 22.4865 88.6668 22.6897C88.5233 22.8929 88.3441 22.9885 88.117 22.9885H87.6985C87.6148 22.9885 87.5432 22.9646 87.4954 22.9287C87.4476 22.8809 87.4236 22.8092 87.4236 22.7016V20.9684C87.1128 21.2313 86.7542 21.3748 86.3358 21.4107C85.9175 21.4465 85.4274 21.4704 84.8417 21.4704H81.0646C80.9571 21.4704 80.8733 21.4704 80.8135 21.4585C80.7538 21.4585 80.6941 21.4106 80.6343 21.3389L80.2398 20.7652C80.18 20.6815 80.18 20.5978 80.2159 20.5142C80.2517 20.4305 80.3235 20.4185 80.4311 20.4544C80.5984 20.5381 80.7539 20.5978 80.9092 20.6217C81.0527 20.6456 81.2679 20.6576 81.5428 20.6576H82.4273V19.3905C82.4273 19.2112 82.4033 19.0678 82.3436 18.9602C82.2838 18.8526 82.2001 18.757 82.0806 18.6973C81.9372 18.6136 81.8774 18.518 81.8893 18.3984C81.9132 18.2789 81.985 18.2311 82.1165 18.243L83.6823 18.4104C83.7421 18.4104 83.7898 18.4462 83.8138 18.506C83.8377 18.5538 83.8496 18.6016 83.8496 18.6494V20.6815H84.5788C85.2003 20.6815 85.7742 20.6695 86.3121 20.6337C86.8499 20.5978 87.2204 20.4663 87.4116 20.2392V16.2229C87.4116 15.9719 87.316 15.7926 87.1128 15.685C86.9096 15.5774 86.7542 15.4818 86.6347 15.4101C86.5271 15.3503 86.4913 15.2666 86.5271 15.1591C86.563 15.0634 86.6108 15.0156 86.6825 15.0156L88.6428 15.2547C88.7624 15.2666 88.8341 15.3145 88.8461 15.3742C88.858 15.434 88.8699 15.4818 88.8699 15.5057M81.7339 16.9043C81.5785 16.9043 81.459 16.8803 81.3992 16.8445C81.3394 16.8086 81.2798 16.7489 81.22 16.6771L80.8853 16.2229C80.8255 16.1273 80.8136 16.0436 80.8494 15.9838C80.8853 15.9241 80.9571 15.9121 81.0766 15.948C81.2439 16.0077 81.4112 16.0436 81.5785 16.0675C81.7339 16.0914 81.9491 16.1034 82.2121 16.1034H86.0968C86.2522 16.1034 86.3479 16.1751 86.4076 16.2946C86.4554 16.4142 86.4793 16.5457 86.4793 16.6771C86.3956 17.3465 86.2522 17.9322 86.049 18.4582C85.8458 18.9722 85.6187 19.3786 85.3797 19.6535C85.2482 19.8089 85.0928 19.8926 84.9255 19.9165C84.7462 19.9404 84.6744 19.8209 84.6983 19.5698C84.7461 19.2351 84.782 18.8526 84.806 18.4462C84.8299 18.0398 84.8417 17.5258 84.8417 16.9282H81.7579L81.7339 16.9043ZM81.6623 22.2474L83.6703 22.4147C83.8018 22.4745 83.8736 22.5701 83.8736 22.6897V24.2316C83.8736 24.4946 83.9214 24.6859 83.9931 24.8054C84.0648 24.913 84.2442 24.9727 84.5191 24.9727H88.6069C88.9058 24.9727 89.0492 25.1042 89.0492 25.3672C89.0492 25.6302 88.9058 25.7617 88.6069 25.7617H83.4074C83.2161 25.7617 82.9891 25.6899 82.7261 25.5465C82.4632 25.4031 82.3316 25.1042 82.3316 24.65V23.383C82.3316 23.1917 82.236 23.0243 82.0447 22.8929C81.8535 22.7614 81.7101 22.6658 81.6264 22.6179C81.5069 22.5582 81.471 22.4745 81.4949 22.3789C81.5308 22.2833 81.5906 22.2354 81.6623 22.2474Z" fill="#9C9C9C"/>
<path d="M104.302 20.34C104.637 20.34 104.792 20.4835 104.792 20.7584C104.792 21.0333 104.625 21.1767 104.302 21.1767H95.4328C95.2415 21.1767 95.1221 21.1648 95.0862 21.1289C95.0504 21.105 95.0025 21.0453 94.9428 20.9735L94.5722 20.4596C94.5124 20.3281 94.5124 20.2205 94.5722 20.1488C94.6319 20.077 94.7275 20.077 94.8351 20.1368C95.0263 20.2324 95.1698 20.2922 95.2893 20.3042C95.4089 20.3161 95.6121 20.3281 95.9229 20.3281M99.712 18.1167C99.21 18.5231 98.6004 18.8578 97.8952 19.1088C97.1899 19.3598 96.5923 19.5272 96.0902 19.5869C95.8631 19.6109 95.7317 19.5511 95.6958 19.3957C95.66 19.2523 95.7436 19.1327 95.9588 19.0491C96.5684 18.8219 97.178 18.5111 97.7757 18.0928C98.3853 17.6864 98.7557 17.28 98.8872 16.8855H96.7835C96.5922 16.8855 96.4728 16.8855 96.4369 16.8496C96.4011 16.8257 96.3533 16.7779 96.2935 16.6942L95.9229 16.1922C95.8631 16.0607 95.8631 15.9531 95.9229 15.8814C95.9826 15.8097 96.0782 15.8097 96.1858 15.8814C96.3771 15.9651 96.5564 16.0249 96.7238 16.0488C96.8911 16.0727 97.0823 16.0846 97.2736 16.0846H98.9829C98.971 15.7499 98.9232 15.5228 98.8395 15.3913C98.7558 15.2599 98.6722 15.1762 98.5646 15.1284C98.469 15.0925 98.433 15.0208 98.433 14.9132C98.433 14.8056 98.5047 14.7578 98.6243 14.7578L100.441 14.8893C100.513 14.8893 100.573 14.9132 100.62 14.9491C100.668 14.9849 100.68 15.0447 100.668 15.1164C100.668 15.1762 100.668 15.3077 100.668 15.5109C100.668 15.7141 100.668 15.9053 100.656 16.0846H102.915C103.238 16.0846 103.394 16.2281 103.394 16.503C103.394 16.7779 103.238 16.9214 102.915 16.9214H100.573C100.549 17.0289 100.513 17.1365 100.453 17.2322C100.393 17.3397 100.334 17.4354 100.25 17.5429C100.537 17.6505 100.764 17.7222 100.967 17.7701C101.158 17.8179 101.338 17.8537 101.493 17.8896C101.672 17.9254 101.852 17.9374 102.019 17.9374C102.198 17.9374 102.318 17.9493 102.413 17.9852C102.76 18.0928 103.035 18.284 103.238 18.559C103.441 18.8219 103.525 19.0371 103.501 19.2045C103.453 19.3598 103.37 19.4794 103.262 19.5391C103.154 19.5989 102.975 19.6228 102.748 19.5989C102.342 19.5511 101.888 19.3957 101.362 19.1327C100.836 18.8698 100.286 18.5351 99.6881 18.1406M103.19 24.7388C103.19 25.1333 103.107 25.456 102.951 25.7071C102.796 25.9581 102.581 26.0776 102.318 26.0776H101.923C101.828 26.0776 101.756 26.0537 101.708 26.0059C101.66 25.9581 101.636 25.8864 101.636 25.7788V23.0893H96.6998C96.5325 23.0893 96.4249 23.0654 96.3771 23.0295C96.3293 22.9937 96.2815 22.9339 96.2217 22.8622L95.8752 22.3721C95.8154 22.2645 95.8154 22.1808 95.8632 22.1091C95.911 22.0374 95.9826 22.0254 96.0663 22.0493C96.2456 22.133 96.401 22.1808 96.5205 22.2167C96.652 22.2406 96.7954 22.2526 96.9628 22.2526H102.975C103.059 22.2526 103.107 22.2765 103.143 22.3123C103.178 22.3482 103.19 22.4079 103.19 22.5036V24.7269V24.7388Z" fill="#9C9C9C"/>
<path d="M111.676 19.3142C111.341 19.7923 110.983 20.2226 110.588 20.6171C110.194 21.0115 109.787 21.3343 109.381 21.5853C109.226 21.6809 109.082 21.6809 108.975 21.5733C108.867 21.4658 108.891 21.3343 109.07 21.155C109.68 20.5215 110.182 19.7564 110.588 18.8719C110.983 17.9874 111.174 17.2821 111.15 16.7681C111.15 16.5649 111.042 16.3976 110.851 16.2541C110.66 16.1226 110.517 16.0389 110.409 16.0031C110.325 15.9672 110.289 15.8955 110.301 15.776C110.301 15.6565 110.373 15.6086 110.505 15.6206L112.62 15.8597C112.74 15.8836 112.824 15.9314 112.871 16.0031C112.919 16.0868 112.931 16.1704 112.919 16.29C112.871 16.6725 112.776 17.0669 112.632 17.4734C112.489 17.8678 112.31 18.2623 112.106 18.6328C112.226 18.7524 112.369 18.8599 112.537 18.9675C112.704 19.0751 112.859 19.1707 112.979 19.2185C113.182 19.3022 113.314 19.35 113.385 19.362C113.457 19.362 113.541 19.4337 113.636 19.5532C113.84 19.7923 114.007 20.0672 114.126 20.3541C114.258 20.6529 114.282 20.8801 114.198 21.0354C114.138 21.1669 114.019 21.2386 113.863 21.2506C113.708 21.2626 113.541 21.2147 113.373 21.1072C113.086 20.9279 112.764 20.629 112.429 20.2465C112.094 19.8521 111.843 19.5413 111.676 19.3142ZM110.935 21.8602L112.955 22.0276C113.086 22.0873 113.158 22.171 113.158 22.3025V24.1672C113.158 24.4302 113.206 24.6215 113.278 24.741C113.349 24.8486 113.529 24.9083 113.804 24.9083H117.569C117.856 24.9083 117.999 25.0398 117.999 25.3028C117.999 25.5658 117.856 25.6972 117.569 25.6972H112.668C112.465 25.6972 112.238 25.6255 111.975 25.4821C111.712 25.3386 111.592 25.0398 111.592 24.5856V22.8643C111.592 22.6731 111.497 22.5296 111.305 22.4459C111.114 22.3503 110.983 22.2905 110.887 22.2427C110.768 22.171 110.72 22.0993 110.756 22.0037C110.791 21.908 110.851 21.8602 110.923 21.8722M114.736 18.7882H113.612C113.612 18.7882 113.529 18.7882 113.481 18.7643C113.445 18.7404 113.421 18.7165 113.385 18.6687L113.039 18.1427C113.003 18.083 112.967 18.0113 112.955 17.9395C112.943 17.8678 112.955 17.8081 113.003 17.7483C113.086 17.6646 113.206 17.6527 113.373 17.7363C113.541 17.82 113.696 17.8559 113.851 17.8559H114.724V16.29C114.724 16.039 114.676 15.8716 114.581 15.776C114.485 15.6804 114.377 15.5967 114.234 15.513C114.091 15.4293 114.019 15.3218 114.031 15.2142C114.031 15.1066 114.115 15.0588 114.258 15.0827L115.824 15.3218C115.943 15.3337 116.015 15.3815 116.027 15.4413C116.039 15.5011 116.051 15.5489 116.051 15.5728V21.9439C116.051 22.1949 115.979 22.4101 115.848 22.6013C115.716 22.7926 115.537 22.8882 115.322 22.8882H115.011C114.915 22.8882 114.844 22.8643 114.796 22.8165C114.748 22.7687 114.724 22.697 114.724 22.5894V18.7882H114.736ZM116.194 14.9632L117.796 15.2022C117.916 15.2142 117.987 15.262 117.999 15.3218C117.999 15.3815 118.011 15.4293 118.011 15.4532V22.0754C118.011 22.3264 117.939 22.5416 117.808 22.7328C117.676 22.9241 117.497 23.0197 117.282 23.0197H116.935C116.852 23.0197 116.78 22.9958 116.732 22.948C116.684 22.9002 116.66 22.8285 116.66 22.7209V16.1943C116.66 15.9433 116.613 15.764 116.517 15.6684C116.421 15.5608 116.302 15.4771 116.17 15.3935C116.015 15.2859 115.943 15.1783 115.979 15.0827C116.015 14.9871 116.087 14.9512 116.194 14.9632Z" fill="#9C9C9C"/>
<path d="M122.783 21.8309V17.4918C122.783 17.3125 122.759 17.1811 122.699 17.0735C122.651 16.9779 122.579 16.8942 122.496 16.8224C122.412 16.7627 122.328 16.7029 122.245 16.6551C122.161 16.6073 122.113 16.5595 122.113 16.5117C122.113 16.4639 122.113 16.416 122.149 16.3563C122.173 16.3085 122.209 16.2726 122.281 16.2726H127.277C127.552 16.2726 127.683 16.4041 127.683 16.6551C127.683 16.9061 127.552 17.0376 127.277 17.0376H124.265V19.1653H126.333C126.596 19.1653 126.727 19.3087 126.727 19.5837C126.727 19.8586 126.596 20.002 126.333 20.002H124.265V21.5799C124.277 21.807 124.336 21.9624 124.42 22.0102C124.504 22.07 124.623 22.0939 124.755 22.0819H125.843C126.416 22.0819 126.894 22.0461 127.277 21.9624C127.659 21.8907 127.97 21.795 128.209 21.6755C128.365 21.6038 128.46 21.6277 128.508 21.7353C128.556 21.8428 128.52 21.9504 128.401 22.07C128.245 22.2254 127.97 22.3927 127.576 22.5959C127.193 22.7872 126.5 22.8828 125.508 22.8828H123.727C123.273 22.8828 122.998 22.7393 122.902 22.4644C122.819 22.1895 122.771 21.9624 122.759 21.795M129.01 19.8227H127.743C127.743 19.8227 127.659 19.8108 127.624 19.7988C127.588 19.7749 127.564 19.751 127.528 19.7032L127.169 19.1892C127.122 19.1295 127.098 19.0577 127.086 18.9741C127.086 18.9023 127.086 18.8306 127.145 18.7708C127.229 18.6872 127.349 18.6752 127.516 18.7708C127.683 18.8545 127.851 18.8904 127.994 18.8904H129.01V16.1292C129.01 15.8781 128.915 15.6988 128.723 15.5913C128.532 15.4837 128.365 15.3881 128.233 15.3163C128.138 15.2566 128.102 15.1729 128.138 15.0653C128.174 14.9577 128.221 14.9219 128.293 14.9219L130.241 15.1609C130.349 15.1729 130.421 15.2088 130.433 15.2805C130.445 15.3402 130.457 15.3881 130.457 15.412V25.0583C130.457 25.3093 130.385 25.5364 130.241 25.7396C130.098 25.9428 129.919 26.0385 129.703 26.0385H129.297C129.201 26.0385 124.348 29.3615 124.301 29.3256C124.253 29.2778 129.01 25.8592 129.01 25.7516V19.8347V19.8227Z" fill="#9C9C9C"/>
</svg>
