<svg width="89" height="18" viewBox="0 0 89 18" fill="none" xmlns="http://www.w3.org/2000/svg">
<path d="M10.8771 5.57241C10.7814 8.40535 8.66575 8.33363 8.66575 8.33363H5.96435V4.52051C5.96435 3.22955 8.092 3.373 8.092 3.373C11.2476 3.373 10.8771 5.58436 10.8771 5.58436M14.4391 3.97067C14.1402 3.45668 13.7219 2.97853 13.184 2.56017C12.7059 2.15375 12.1321 1.89078 11.4747 1.7593C10.8173 1.62781 10.1479 1.54414 9.4666 1.52023C9.32316 1.50828 9.17973 1.49633 9.04824 1.48438C8.90481 1.48438 8.77332 1.48438 8.62989 1.48438H1.23094C1.07555 1.48438 0.956015 1.52024 0.872344 1.58C0.788672 1.65172 0.740859 1.73539 0.740859 1.85493C0.740859 1.97446 0.800624 2.07007 0.908202 2.14179C1.02773 2.22547 1.01578 2.28524 1.17117 2.33305C1.42219 2.40477 1.50586 2.48845 1.72101 2.58408C1.93617 2.67971 2.13937 2.82314 2.30671 3.02635C2.43819 3.19369 2.53382 3.373 2.55773 3.57621C2.59359 3.79137 2.60554 4.06628 2.60554 4.38902V13.3062C2.60554 13.617 2.56968 13.9158 2.50991 14.1908C2.45015 14.4657 2.34257 14.6689 2.21109 14.8123C1.99593 15.0394 1.93617 15.1948 1.72101 15.2546C1.51781 15.3144 1.43414 15.398 1.18312 15.4817C0.991875 15.5415 0.848437 15.6132 0.752813 15.6969C0.657188 15.7806 0.609375 15.8881 0.609375 16.0077C0.609375 16.1272 0.657189 16.2109 0.77672 16.2826C0.884297 16.3543 1.01578 16.3902 1.17117 16.3902H7.56606C7.73341 16.3902 7.87684 16.3543 7.98442 16.2706C8.092 16.187 8.15176 16.0913 8.15176 15.9718C8.15176 15.8164 8.092 15.6969 7.97247 15.6252C7.85294 15.5534 7.69755 15.4817 7.51825 15.41C7.26724 15.3263 7.02817 15.2307 6.80106 15.147C6.57396 15.0633 6.37076 14.9199 6.1556 14.7287C6.01216 14.5733 5.92849 14.3701 5.89263 14.131C5.85677 13.8919 5.83287 13.6051 5.83287 13.2704V10.294L8.31911 10.3418C9.53832 10.3418 10.9488 10.2223 12.5146 9.6485C14.0924 9.07474 14.8813 7.77182 14.8813 6.05054C14.8813 5.3692 14.7379 4.4727 14.4391 3.94676" fill="#9C9C9C"/>
<path d="M54.0622 12.5214C53.6917 13.4777 53.2016 14.159 52.5681 14.5534C51.9465 14.9479 51.2413 15.1392 50.4524 15.1272C49.6037 15.1152 48.8746 14.8881 48.265 14.4459C47.6554 14.0156 47.1533 13.2744 46.7828 12.2345C46.4003 11.1946 46.233 9.87969 46.2569 8.31381C46.2808 7.2141 46.4362 6.22198 46.7469 5.31353C47.0577 4.41703 47.5239 3.73569 48.1694 3.28147C48.8148 2.82724 49.5798 2.61208 50.4882 2.62403C51.2771 2.63598 51.9226 2.79138 52.3888 3.09021C52.8669 3.38904 53.2733 3.81935 53.6199 4.36921C53.9666 4.93101 54.2296 5.6004 54.3969 6.38932C54.5762 7.17824 54.6479 8.03888 54.636 8.98319C54.6121 10.3698 54.4089 11.5412 54.0503 12.4975M56.1062 2.92286C54.5762 1.30916 52.7235 0.484375 50.548 0.484375C48.3726 0.484375 46.5437 1.29721 45.0137 2.92286C43.4837 4.53656 42.7188 6.48496 42.7188 8.75609C42.7188 11.0272 43.4837 12.9756 45.0018 14.5893C46.5198 16.203 48.3726 17.0158 50.548 17.0158C52.7235 17.0158 54.5762 16.203 56.1062 14.5893C57.6362 12.9756 58.4012 11.0272 58.4012 8.75609C58.4012 6.48496 57.6362 4.54852 56.1062 2.92286Z" fill="#9C9C9C"/>
<path d="M65.4991 14.5898C65.4991 14.5898 63.2639 14.5898 63.228 12.4382V4.6327C63.228 4.6327 63.4193 3.06682 65.4991 3.16244C65.4991 3.16244 69.4556 3.10267 69.4675 8.94785C69.4675 8.94785 69.336 14.3508 65.4991 14.5779M72.5873 6.01929C72.0733 4.19043 70.6867 3.09072 70.1967 2.67235C68.6667 1.36944 65.5589 1.48897 65.0568 1.47702L63.8615 1.45312H58.7217C58.5783 1.45312 58.4587 1.48897 58.3631 1.54874C58.2794 1.62046 58.2316 1.70414 58.2316 1.82368C58.2316 1.94321 58.2675 2.08664 58.4109 2.13446C58.9966 2.37352 59.6899 3.03095 59.8334 3.23416C59.9648 3.38955 60.0605 3.56885 60.0963 3.77206C60.1441 3.96331 60.168 4.22629 60.168 4.56098V13.1554C60.168 13.3586 60.1322 13.5738 60.0963 13.8009C59.9529 14.793 59.2835 15.2114 58.7815 15.4265C58.5902 15.5102 58.4348 15.57 58.3273 15.6656C58.2197 15.7613 58.1719 15.8688 58.1719 15.9884C58.1719 16.1079 58.2197 16.1916 58.3273 16.2752C58.4348 16.347 58.5544 16.3828 58.7098 16.3828H64.3636C65.1764 16.3828 66.4553 16.4306 67.1606 16.2992C67.8658 16.1557 68.5471 15.9884 69.1687 15.6776C69.9337 15.307 70.7226 14.6137 71.2844 13.9085C72.2167 12.7251 72.4199 12.235 72.6709 11.0995C72.8383 10.3344 72.922 9.54553 72.922 8.8881C72.922 7.90792 72.8263 6.86797 72.5873 6.03123" fill="#9C9C9C"/>
<path d="M79.0975 5.4157L76.946 10.46H80.9861L79.0975 5.4157ZM87.9548 15.6478C88.0145 15.7792 88.0504 15.8749 88.0504 15.9466C88.0504 16.0661 88.0026 16.1617 87.907 16.2574C87.7994 16.341 87.6918 16.3889 87.5723 16.3889H81.3567C81.2491 16.3889 81.1415 16.353 81.022 16.2693C80.9144 16.1857 80.8546 16.102 80.8546 15.9944C80.8546 15.8749 80.8786 15.7912 80.9383 15.7314C80.9861 15.6716 81.0937 15.6238 81.2491 15.576C81.536 15.5043 82.0739 15.2413 82.289 15.1337C82.5042 15.0142 82.7791 14.572 82.4325 13.8189L81.6674 12.0976H76.2647L75.8105 13.281C75.5355 13.9504 75.5953 14.2612 75.5953 14.4405C75.5953 14.7274 75.8224 15.0381 76.0615 15.1696C76.2886 15.2892 76.6352 15.3967 76.9699 15.4804C77.1253 15.5163 77.3404 15.576 77.4122 15.6717C77.4839 15.7673 77.4719 15.8749 77.4719 15.9944C77.4719 16.09 77.3643 16.1856 77.2807 16.2574C77.185 16.3291 77.0775 16.365 76.9579 16.365H71.9855C71.842 16.365 71.7345 16.341 71.6508 16.2813C71.5671 16.2215 71.5312 16.1259 71.5312 16.0064C71.5312 15.9227 71.5552 15.839 71.6149 15.7434C71.6747 15.6597 71.7703 15.6238 71.9018 15.588C72.6668 15.4087 73.1091 14.7632 73.3601 14.4763C73.6111 14.1775 73.8501 13.783 74.0653 13.2929L78.3326 3.65856C78.4043 3.45536 78.3923 3.2641 78.2608 3.07284C78.1413 2.88159 77.962 2.71425 77.7588 2.57081C77.5556 2.43932 77.3285 2.3198 77.0536 2.18831C76.7906 2.06878 76.6472 1.93728 76.6472 1.78188C76.6472 1.62649 76.695 1.53088 76.7906 1.45916C76.8743 1.38744 76.9818 1.35156 77.1133 1.35156H81.0698L85.5044 13.1615C85.6717 13.6157 85.8271 13.9504 85.9706 14.1894C86.114 14.4285 86.3291 14.6556 86.628 14.8588C86.7475 14.9425 86.7834 15.0501 87.0344 15.1696C87.2854 15.2892 87.4766 15.3609 87.632 15.3967C87.7994 15.4206 87.9189 15.5043 87.9787 15.6358" fill="#9C9C9C"/>
<path d="M19.3475 5.4157L17.2079 10.46H21.2481L19.3475 5.4157ZM28.2048 15.6478C28.2645 15.7792 28.3004 15.8749 28.3004 15.9466C28.3004 16.0661 28.2526 16.1617 28.157 16.2574C28.0613 16.341 27.9418 16.3889 27.8223 16.3889H21.6067C21.4991 16.3889 21.3915 16.353 21.272 16.2693C21.1525 16.1857 21.1046 16.102 21.1046 15.9944C21.1046 15.8749 21.1286 15.7912 21.1883 15.7314C21.2481 15.6716 21.3437 15.6238 21.4991 15.576C21.786 15.5043 22.3358 15.2413 22.539 15.1337C22.7542 15.0142 23.0291 14.572 22.6825 13.8189L21.9294 12.0976H16.5266L16.0724 13.281C15.7975 13.9504 15.8572 14.2612 15.8572 14.4405C15.8572 14.7274 16.0844 15.0381 16.3234 15.1696C16.5505 15.2892 16.8972 15.3967 17.2318 15.4804C17.3872 15.5163 17.6024 15.576 17.6741 15.6717C17.7458 15.7673 17.7219 15.8749 17.7219 15.9944C17.7219 16.09 17.6143 16.1856 17.5307 16.2574C17.4351 16.3291 17.3275 16.365 17.2079 16.365H12.2355C12.092 16.365 11.9845 16.341 11.9008 16.2813C11.8171 16.2215 11.7812 16.1259 11.7812 16.0064C11.7812 15.9227 11.8052 15.839 11.853 15.7434C11.9127 15.6597 12.0084 15.6238 12.1398 15.588C12.9048 15.4087 13.3471 14.7632 13.5981 14.4763C13.8491 14.1775 14.0882 13.783 14.3033 13.2929L18.5706 3.65856C18.6423 3.45536 18.6184 3.2641 18.4989 3.07284C18.3793 2.88159 18.212 2.71425 17.9968 2.57081C17.7936 2.43932 17.5665 2.3198 17.2916 2.18831C17.0286 2.06878 16.8972 1.93728 16.8972 1.78188C16.8972 1.62649 16.945 1.53088 17.0406 1.45916C17.1362 1.38744 17.2438 1.35156 17.3633 1.35156H21.3198L25.7544 13.1615C25.9217 13.6157 26.0891 13.9504 26.2206 14.1894C26.364 14.4285 26.5911 14.6556 26.878 14.8588C26.9975 14.9425 27.0334 15.0501 27.2844 15.1696C27.5234 15.2892 27.7266 15.3609 27.882 15.3967C28.0494 15.4206 28.157 15.5043 28.2287 15.6358" fill="#9C9C9C"/>
<path d="M30.3305 1.90837C32.0756 0.820614 33.9762 0.402256 35.9962 0.796716C36.8449 0.964063 37.6697 1.19118 38.4466 1.58564C39.2355 1.9801 39.3311 1.69321 39.8212 1.04773C40.2276 0.497873 40.6699 0.473973 40.8253 1.16727C41.0165 2.06377 40.9807 3.02003 40.9807 3.92848C40.9807 4.28708 41.16 5.36289 40.8253 5.63782C40.5743 5.84102 40.132 5.47047 39.9886 5.30312C39.0084 4.21537 38.2434 3.2352 36.6776 3.07981C35.1834 2.92441 33.9164 2.9005 32.8167 4.01216C31.8366 4.99234 31.3465 6.13985 31.2389 7.53839C31.1194 9.15209 31.1672 11.0766 31.9202 12.5468C32.6494 13.9693 34.3467 14.8658 35.9365 14.555C37.5023 14.2442 38.1358 12.8457 37.849 11.3874C37.7175 10.718 37.4067 9.74976 36.6895 9.48679C36.3429 9.3553 35.4344 9.37919 35.6496 8.72176C35.8528 8.10019 36.9764 8.29146 37.4426 8.29146H40.3471C40.7177 8.29146 41.9369 8.1002 41.9369 8.73372C41.9369 9.16404 41.4588 9.12818 41.2914 9.43896C41.0882 9.82147 41.1361 10.3713 41.1241 10.7777C41.1002 11.8535 41.1241 12.9174 41.136 13.9932C41.136 14.6387 41.2197 15.4037 40.9926 16.0252C40.7655 16.6229 40.0842 16.336 39.63 16.1926C38.3271 15.7623 37.2035 16.3241 35.9126 16.5273C31.7409 17.1847 27.9877 14.6148 27.0792 10.5267C26.6967 8.79349 26.9239 7.12002 27.5096 5.44656C28.0355 3.94044 29.0635 2.87659 30.3066 1.90837" fill="#9C9C9C"/>
</svg>
