<svg width="95" height="36" viewBox="0 0 95 36" fill="none" xmlns="http://www.w3.org/2000/svg">
<path d="M0.152344 12.278H3.28404L4.93357 15.2544L7.59908 12.2422H10.6591L5.8898 17.669L4.99332 23.1317H2.35174L3.31994 17.6092L0.152344 12.278Z" fill="#9C9C9C"/>
<path d="M11.8733 12.2422L10.1641 23.1914L16.3677 23.1556L16.6785 20.9562H13.2599L13.5707 18.7926L16.9534 18.8524L17.3598 16.5812H13.9532L14.3237 14.5133H17.8858L18.1607 12.2422H11.8733Z" fill="#9C9C9C"/>
<path d="M25.8303 14.6951C25.8303 14.6951 25.7945 14.0137 24.0613 13.8942C24.0613 13.8942 22.7584 13.9301 22.5074 14.9461C22.5074 14.9461 22.0771 16.3446 24.5873 16.7152C24.5873 16.7152 26.6313 17.1455 26.6313 19.4166C26.6313 19.4166 26.4758 21.3411 25.1729 22.2735C25.1729 22.2735 23.9657 23.3254 21.862 23.3612C21.862 23.3612 20.1526 23.6362 18.1445 22.3093L19.5669 20.1697C19.5669 20.1697 20.6188 21.6878 22.1727 21.3531C22.1727 21.3531 23.5952 21.1977 23.8821 19.8709C23.8821 19.8709 24.2167 18.6277 21.7066 18.4484C21.7066 18.4484 19.5431 18.1974 19.6268 15.7231C19.6268 15.7231 19.8419 13.679 21.0253 12.9977C21.0253 12.9977 21.9576 12.0414 23.9059 12.0056C23.9059 12.0056 25.3044 11.7904 27.1333 12.8782L25.8303 14.7429V14.6951Z" fill="#9C9C9C"/>
<path d="M37.6135 2.82265C37.6135 2.82265 38.1394 0.467844 39.5977 0.431984C39.5977 0.431984 41.5461 0.264639 41.0201 2.78679C41.0201 2.78679 40.3149 4.89058 39.9922 6.07396C39.9922 6.07396 39.4185 7.92672 39.3467 8.12993C39.3467 8.12993 39.2032 8.84713 38.0079 8.82322C38.0079 8.82322 36.4302 8.82321 36.4899 7.18561C36.6931 5.93051 36.741 5.95441 36.9442 5.09377L37.6135 2.81068V2.82265Z" fill="#9C9C9C"/>
<path d="M45.1489 2.83412C45.1489 2.83412 45.6748 0.479329 47.1331 0.455423C47.1331 0.455423 49.0815 0.288059 48.5555 2.81021C48.5555 2.81021 47.8503 4.914 47.5276 6.09738C47.5276 6.09738 46.9538 7.95014 46.8702 8.15335C46.8702 8.15335 46.7267 8.87056 45.5314 8.85861C45.5314 8.85861 43.9536 8.8586 44.0134 7.22099C44.2285 5.95394 44.2644 5.97785 44.4676 5.12916L45.137 2.83412H45.1489Z" fill="#9C9C9C"/>
<path d="M31.3367 15.9889H34.2173C34.2173 15.9889 33.9783 14.1361 35.7712 14.1361C35.7712 14.1361 37.0024 13.9927 37.0502 15.69C37.0502 15.69 37.0263 16.9929 35.7712 18.0687L33.3567 20.4833L30.1055 23.3641H38.9388L39.1062 21.2244H35.4246C35.4246 21.2244 37.361 19.6346 38.114 18.7501C38.114 18.7501 39.8114 17.4233 39.7396 15.6303C39.7396 15.6303 39.8114 14.2795 38.9508 13.1918C38.9508 13.1918 38.2694 11.9725 36.094 11.9964C36.094 11.9964 33.8468 12.0204 32.6874 13.5384C32.6874 13.5384 31.9104 14.5305 31.3367 15.9769" fill="#9C9C9C"/>
<path d="M53.2539 22.1553C53.2539 22.1553 53.2539 20.2069 55.0588 20.2428C55.0588 20.2428 56.4335 20.1711 56.5291 21.6174C56.5291 21.6174 56.302 23.4224 54.6644 23.4224C54.6644 23.4224 53.4571 23.518 53.2539 22.1553Z" fill="#9C9C9C"/>
<path d="M66.7813 19.9082L66.2674 22.9204C66.2674 22.9204 65.1199 23.4463 63.6138 23.4224C63.6138 23.4224 61.1275 23.4224 59.6812 21.6175C59.6812 21.6175 58.6174 20.2309 58.6055 18.6052C58.6055 18.6052 58.6772 15.593 60.6853 13.8957C60.6853 13.8957 61.4264 13.0709 62.5978 12.521C62.5978 12.521 63.7931 11.8875 65.0482 11.9233C65.0482 11.9233 66.6738 11.8755 67.7854 12.6405L67.4149 15.2225C67.4149 15.2225 66.614 14.1945 64.9047 14.1945C64.9047 14.1945 63.4225 14.1825 62.1794 15.605C62.1794 15.605 61.0917 16.7286 61.1873 18.151C61.1873 18.151 61.0439 19.4898 62.0121 20.3385C62.0121 20.3385 62.4663 20.8286 63.9246 20.9123C63.9246 20.9123 66.1956 20.9959 66.7694 19.8962" fill="#9C9C9C"/>
<path d="M80.8945 23.1799L83.3808 23.168L85.5802 16.5937L87.2775 23.168H88.2696L92.1663 16.51V23.1799H94.6764L94.7003 12.2188H92.1544L88.7119 18.3269L87.158 12.2307H84.7912L80.8945 23.1799Z" fill="#9C9C9C"/>
<path d="M25.3764 27.6418C25.3764 27.6418 24.3843 26.3628 26.1175 25.4663C26.1175 25.4663 27.3128 24.6415 28.2093 25.9564C28.2093 25.9564 29.5241 28.2992 31.5083 29.9966C31.5083 29.9966 33.8153 32.0526 39.493 32.2558C39.493 32.2558 45.5412 32.7459 48.8761 29.6619C48.8761 29.6619 50.5974 28.3471 52.1632 25.6336C52.1632 25.6336 53.0238 24.6893 54.255 25.5978C54.255 25.5978 55.5698 26.5421 54.3387 28.1917C54.3387 28.1917 52.8565 30.4987 50.0953 32.5905C50.0953 32.5905 46.5931 35.4712 39.5647 35.4354C39.5647 35.4354 34.9986 35.8059 30.6357 33.1284C30.6357 33.1284 27.5519 31.694 25.3644 27.6538" fill="#9C9C9C"/>
<path d="M45.9372 19.1502L43.4748 19.1143L46.8815 14.6438L45.9372 19.1502ZM48.5429 19.1143L49.6068 12.4922H46.1404L40.4388 19.4371L40.1758 21.1703H45.5308L45.2798 23.4654H47.8377L48.1126 21.1703L49.6068 21.1344L49.8578 19.1143H48.5429Z" fill="#9C9C9C"/>
<path d="M76.8531 19.8271C76.8531 19.8271 75.6937 21.0344 74.1756 21.0344C74.1756 21.0344 72.2871 21.1659 71.5101 19.5043C71.5101 19.5043 71.2711 19.1577 71.2352 17.9385C71.2352 17.9385 71.1754 16.8388 72.2392 15.5239C72.2392 15.5239 73.4465 14.0775 75.1677 14.1732C75.1677 14.1732 76.8412 14.1971 77.7138 15.488C77.7138 15.488 78.1321 16.253 78.1441 17.0659C78.1441 17.0659 78.3234 18.4166 76.8412 19.839M80.8455 16.3009C80.714 14.9621 80.0327 14.1134 80.0327 14.1134C79.0047 12.5834 77.403 12.1172 77.403 12.1172C75.5622 11.5195 73.7931 12.1172 73.7931 12.1172C71.3188 12.5714 69.3586 15.488 69.3586 15.488C68.4023 16.7192 68.4023 18.6676 68.4023 18.6676C68.4023 20.4726 69.7052 21.8233 69.7052 21.8233C70.9005 23.6282 73.829 23.425 73.829 23.425C76.0523 23.4011 77.6181 22.3134 77.6181 22.3134C78.7895 21.5603 79.9131 19.7673 79.9131 19.7673C81.0725 17.8667 80.8455 16.3009 80.8455 16.3009Z" fill="#9C9C9C"/>
</svg>
