<svg width="82" height="47" viewBox="0 0 82 47" fill="none" xmlns="http://www.w3.org/2000/svg">
<path d="M25.9573 36.4437L28.4436 41.4043H23.471L25.9573 36.4437ZM24.6545 34.1367C24.6186 34.2084 18.6779 45.5163 18.5703 45.7195H21.3075C21.3434 45.6478 22.5507 43.293 22.5507 43.293H29.3161C29.3161 43.293 30.5473 45.6478 30.5831 45.7195H33.3563C33.2487 45.5282 27.32 34.2084 27.2722 34.1367H24.6305H24.6545Z" fill="#9C9C9C"/>
<path d="M42.2645 37.5547V43.4477L42.2286 43.4716C41.3919 43.9019 40.6508 44.1768 39.587 44.1768C38.0331 44.1768 37.3518 43.5194 37.3518 42.0491V37.5547H34.9492V42.3719C34.9492 44.7984 36.2641 45.9698 38.9774 45.9698C40.2086 45.934 41.5473 45.5036 42.3242 44.906L42.4079 44.8343C42.4079 44.8343 42.5633 45.6232 42.5753 45.7188H44.6671V37.5547H42.2645Z" fill="#9C9C9C"/>
<path d="M49.7121 41.6239C49.7121 40.0102 50.6803 39.1256 52.4255 39.1256C53.7164 39.1256 54.5053 39.4005 55.3061 39.8189L55.342 39.8428V43.4527L55.3061 43.4766C54.5053 43.895 53.7164 44.158 52.4255 44.158C50.7042 44.158 49.7121 43.2376 49.7121 41.6358M55.342 34.1411V38.1574L55.2344 38.0857C54.4574 37.5836 53.2741 37.2848 52.0429 37.2848C49.0069 37.2848 47.2617 38.8626 47.2617 41.6119C47.2617 44.3612 48.9591 45.9629 51.9234 45.9629C53.2502 45.9629 54.6009 45.5087 55.3778 44.8154L55.4615 44.7317C55.4615 44.7317 55.6289 45.6043 55.6528 45.6999H57.7446V34.1172H55.342V34.1411Z" fill="#9C9C9C"/>
<path d="M61.043 45.7195H63.4455V37.5554H61.043V45.7195ZM61.043 36.2046H63.4455V34.1367H61.043V36.2046Z" fill="#9C9C9C"/>
<path d="M23.5729 41.3458H28.3302L25.9516 36.6003L23.5729 41.3458ZM24.6128 34.0781H27.3262L33.4701 45.7924H30.5416L29.2745 43.3659H22.5927L21.3497 45.7924H18.457L24.6128 34.0781Z" fill="#9C9C9C"/>
<path d="M42.3459 44.975C41.5809 45.5726 40.2302 46.0268 38.9632 46.0508C36.8116 46.0508 34.8633 45.3455 34.8633 42.3811V37.4922H37.4093V42.0583C37.4093 43.4449 38.0428 44.1143 39.5728 44.1143C40.6366 44.1143 41.3657 43.8394 42.1786 43.421V37.4922H44.7246V45.7878H42.5013L42.3339 44.963L42.3459 44.975Z" fill="#9C9C9C"/>
<path d="M55.2639 43.4137V39.8874C54.3913 39.4332 53.6144 39.2061 52.419 39.2061C50.6978 39.2061 49.7774 40.0787 49.7774 41.6326C49.7774 43.1866 50.6978 44.095 52.419 44.095C53.6144 44.095 54.3913 43.8679 55.2639 43.4137ZM47.1836 41.6326C47.1836 38.8953 48.9048 37.2338 52.0365 37.2338C53.2677 37.2338 54.4869 37.5446 55.2639 38.0466V34.0781H57.8099V45.7924H55.5866L55.4073 44.8839C54.6304 45.5772 53.2677 46.0434 51.9051 46.0434C48.9049 46.0434 47.1836 44.3938 47.1836 41.6207" fill="#9C9C9C"/>
<path d="M60.9648 37.4968H63.5108V45.7924H60.9648V37.4968ZM60.9648 34.0781H63.5108V36.2775H60.9648V34.0781Z" fill="#9C9C9C"/>
<path d="M23.5669 21.0738C26.3041 17.8105 26.2922 11.6665 23.543 8.63037C20.7819 11.6426 20.7938 18.1452 23.5669 21.0738ZM58.4221 8.58255C55.6251 11.798 55.6728 18.4799 58.434 21.0499C61.1473 17.7508 61.1593 12.1685 58.4221 8.58255ZM40.9825 21.0618C43.7317 17.7866 43.7556 11.8936 40.9825 8.64232C38.2214 11.6067 38.2333 18.1213 40.9825 21.0618ZM55.9597 23.572C52.0272 17.7269 52.0272 11.9295 55.9597 6.14408C52.4216 3.20356 46.2538 3.5263 43.4568 6.20385C47.3894 12.0132 47.3057 17.8105 43.409 23.572C46.9949 26.3213 52.3977 26.3213 55.9597 23.572ZM38.5441 23.584C34.6116 17.7388 34.5996 11.9414 38.5202 6.14408C35.257 3.35895 28.8143 3.37091 26.0173 6.17994C29.9259 11.9893 29.902 17.7866 25.9934 23.5601C29.3881 26.3093 34.8387 26.3213 38.5441 23.584ZM21.1046 6.14408C17.1959 2.94059 10.7532 3.50239 7.08363 7.33941C3.11521 11.4872 3.00761 17.7986 6.83259 22.0779C10.4902 26.1779 16.8493 26.8472 21.1165 23.584C17.2079 17.8105 17.16 12.0132 21.1046 6.14408ZM60.8605 6.17994C64.793 11.9773 64.7452 17.7747 60.8365 23.5601C65.044 26.9309 71.6182 26.142 75.3356 21.8388C79.0411 17.5475 78.6825 10.9493 74.5587 7.04058C70.148 2.86887 63.8487 3.56216 60.8605 6.17994ZM58.4221 3.7295C62.6774 0.66945 67.2554 -0.0716593 72.1322 1.70939C78.037 3.86099 81.8262 10.0767 81.1209 16.2566C80.356 22.807 75.4791 27.8872 69.132 28.7598C65.4504 29.2738 62.0797 28.4729 59.0436 26.3572C58.5655 26.0344 58.2667 26.0105 57.7885 26.3572C52.9236 29.7758 46.6244 29.8117 41.7356 26.4289C41.1499 26.0225 40.8032 26.0703 40.2414 26.4528C35.4722 29.7638 29.0534 29.7519 24.3319 26.4528C23.7701 26.0583 23.4235 26.0464 22.8378 26.4408C18.1163 29.5248 13.1438 29.8834 8.18329 27.2058C3.31839 24.5881 0.808294 20.2968 0.8322 14.7983C0.856107 9.25193 3.44986 4.97264 8.38648 2.41463C13.4307 -0.179244 18.4151 0.274988 23.1246 3.46653C23.2561 3.5502 23.3876 3.64582 23.5311 3.74145C29.3642 -0.215103 35.1853 -0.227043 41.0184 3.71755C46.2539 -0.17923 53.1507 -0.179243 58.4579 3.74145" fill="#9C9C9C"/>
</svg>
