<svg width="113" height="21" viewBox="0 0 113 21" fill="none" xmlns="http://www.w3.org/2000/svg">
<path d="M47.1547 9.06723C47.2623 6.055 45.4454 3.55676 42.756 3.04276C40.2578 2.56463 37.8911 4.01098 36.9588 6.60485C35.7515 9.91592 37.401 13.8844 40.3176 14.6733C43.8796 15.6416 46.9994 13.0955 47.1428 9.0792M44.2023 17.3987C45.6726 17.7214 47.1428 18.0442 48.5652 18.355C47.6089 20.3153 47.0352 20.5783 44.8837 19.8731C44.2502 19.6698 43.6286 19.3949 43.0429 19.0841C41.3814 18.1757 39.7199 17.2433 38.0824 16.2871C32.9306 13.2629 32.9545 4.47716 38.1063 1.48883C42.8516 -1.26044 48.7445 1.91915 49.3541 7.56112C49.8203 11.8285 48.3979 14.4821 44.1904 17.4107" fill="#9C9C9C"/>
<path d="M86.7277 7.83518C88.425 7.69174 90.2658 8.37308 91.234 6.63984C91.6165 5.9346 91.5687 4.51215 91.0905 3.91449C89.9909 2.53985 88.2936 3.01798 86.7397 3.02993V7.83518H86.7277ZM91.3416 9.64012C92.8118 12.0427 94.2581 14.3976 95.7164 16.7643C93.6724 17.4098 93.1704 17.2066 92.1424 15.5331C91.2459 14.0748 90.3973 12.5687 89.3215 11.2419C88.7956 10.5964 87.8274 10.3095 86.7157 9.65209V16.9436H84.2773V0.878332C86.6919 0.854425 89.1541 0.388247 91.5328 1.27279C93.0628 1.84655 93.9832 3.04189 94.1505 4.7273C94.3298 6.58007 93.8278 8.13402 92.1544 9.15005C91.8795 9.3174 91.6046 9.49669 91.3535 9.65209" fill="#9C9C9C"/>
<path d="M6.85224 7.98404H13.1635V9.77704H6.82831V14.6659H13.6894V16.9012H4.31819V9.84876H0.935452C0.899593 9.20328 0.875703 8.7132 0.839844 8.07967C1.99929 8.03186 3.06312 7.98404 4.24648 7.92427V0.835938H13.4145V3.01145H6.84027V7.97208L6.85224 7.98404Z" fill="#9C9C9C"/>
<path d="M112.365 7.97989V9.77289H103.675V14.7216H110.5V16.921H101.129V0.84375H110.237V2.98339H103.699V7.97989H112.365Z" fill="#9C9C9C"/>
<path d="M55.1289 0.835938H57.4717C57.4717 2.43768 57.4478 3.99162 57.4717 5.54555C57.4956 7.60152 57.4358 9.65751 57.639 11.7015C57.8661 13.9607 59.5874 15.1441 62.0139 14.9767C64.2491 14.8213 65.6595 13.4228 65.6954 11.1875C65.7432 8.07966 65.7074 4.97179 65.7193 1.86392C65.7193 1.57704 65.7552 1.29017 65.7791 0.895708H67.9665C68.0023 1.13477 68.0741 1.40971 68.0741 1.67268C68.0741 4.87618 68.11 8.07966 68.0741 11.2832C68.0143 14.9289 65.54 17.2359 61.7868 17.2479C57.7466 17.2598 55.2364 15.0724 55.1647 11.3429C55.105 7.90036 55.1528 4.46976 55.1528 0.847902" fill="#9C9C9C"/>
<path d="M28.9634 4.0871C27.5768 3.66874 26.2978 3.17865 24.971 2.92763C23.9311 2.73638 22.8673 3.08302 22.4729 4.15882C22.0425 5.31829 22.927 6.02356 23.7877 6.58536C24.7081 7.18303 25.748 7.60139 26.6205 8.24687C27.5529 8.95212 28.5808 9.69323 29.1665 10.6734C30.6965 13.1716 29.31 16.3273 26.4532 16.9728C25.4492 17.1999 24.3614 17.2238 23.3334 17.0923C20.1898 16.674 19.7117 16.0046 19.9746 12.5859C20.4408 13.0043 20.7755 13.3509 21.158 13.6498C22.5326 14.7256 24.0387 15.3711 25.7958 14.7256C27.266 14.1877 27.6366 12.8011 26.5966 11.6536C26.0348 11.032 25.2818 10.5658 24.5646 10.0996C23.6562 9.49001 22.6521 9.01189 21.7676 8.37836C20.0703 7.15912 19.4487 5.50956 19.9746 3.77632C20.5603 1.86379 22.0067 0.955332 23.8713 0.668452C24.5766 0.560872 25.3057 0.584792 26.011 0.644558C28.7363 0.871671 29.2383 1.51715 28.9275 4.09907" fill="#9C9C9C"/>
<path d="M77.2052 16.9581H74.707V15.3803C74.707 11.2325 74.707 7.08468 74.707 2.92492C74.707 1.36302 75.5397 0.673714 77.2052 0.856999V16.9462V16.9581Z" fill="#9C9C9C"/>
</svg>
