<svg width="176" height="19" viewBox="0 0 176 19" fill="none" xmlns="http://www.w3.org/2000/svg">
<path d="M108.187 7.76256H109.49L109.645 3.9375H104.434V5.04915H108.294L108.187 7.76256Z" fill="#9C9C9C"/>
<path d="M110.543 3.61719V9.89268H108.727V10.9446H110.543V12.6658H111.93V3.61719H110.543Z" fill="#9C9C9C"/>
<path d="M106.296 9.91406H104.945V14.4205H111.938V13.2729H106.296V9.91406Z" fill="#9C9C9C"/>
<path d="M106.914 11.8687H108.181V9.32261H110.236V8.21094H104.152V9.32261H106.914V11.8687Z" fill="#9C9C9C"/>
<path d="M103.178 8.21094H95.0742V9.28675H103.178V8.21094Z" fill="#9C9C9C"/>
<path d="M82.457 3.61719V9.29502H83.8555V7.01193H85.0269V5.85245H83.8555V3.61719H82.457Z" fill="#9C9C9C"/>
<path d="M77.2734 9.75781H83.8476V14.4077H77.2734V9.75781ZM82.4969 10.8934H78.6122V13.2721H82.4969V10.8934Z" fill="#9C9C9C"/>
<path d="M93.304 3.61719V9.29502H91.9294V7.01193H90.1484V5.85245H91.9055V3.61719H93.304Z" fill="#9C9C9C"/>
<path d="M89.8605 14.7126C87.8524 14.7126 86.2148 13.5412 86.2148 12.0829C86.2148 10.6245 87.8404 9.45312 89.8605 9.45312C91.8806 9.45312 93.4943 10.6365 93.4943 12.0829C93.4943 13.5292 91.8686 14.7126 89.8605 14.7126ZM92.1197 12.0829C92.1197 11.27 91.1036 10.6126 89.8605 10.6126C88.6174 10.6126 87.6014 11.27 87.6014 12.0829C87.6014 12.8957 88.6174 13.5531 89.8605 13.5531C91.1036 13.5531 92.1197 12.8957 92.1197 12.0829Z" fill="#9C9C9C"/>
<path d="M79.1526 3.82812C79.1526 3.82812 78.9733 6.90013 81.4595 8.17914L80.7423 9.17126C80.7423 9.17126 78.9135 7.96398 78.5071 6.64911C78.0887 7.97593 76.2719 9.17126 76.2719 9.17126L75.5547 8.17914C78.0529 6.91208 77.8617 3.82812 77.8617 3.82812H79.1526Z" fill="#9C9C9C"/>
<path d="M87.797 6.62958C87.3906 7.9564 85.7172 9.04414 85.7172 9.04414L85 8.05201C87.3428 6.88058 87.1515 3.80859 87.1515 3.80859H88.4425C88.4425 3.80859 88.2632 6.88058 90.606 8.05201L89.8888 9.04414C89.8888 9.04414 88.2153 7.94445 87.8089 6.62958" fill="#9C9C9C"/>
<path d="M99.1367 14.7049C97.1525 14.7049 95.5508 13.5694 95.5508 12.1708C95.5508 10.7723 97.1644 9.63672 99.1367 9.63672C101.109 9.63672 102.723 10.7723 102.723 12.1708C102.723 13.5694 101.121 14.7049 99.1367 14.7049ZM101.372 12.1708C101.372 11.3939 100.368 10.7603 99.1367 10.7603C97.9055 10.7603 96.9015 11.3939 96.9015 12.1708C96.9015 12.9478 97.9055 13.5933 99.1367 13.5933C100.368 13.5933 101.372 12.9598 101.372 12.1708Z" fill="#9C9C9C"/>
<path d="M95.5085 3.96875V5.11628H98.2816C98.2816 5.11628 97.9589 6.3116 95.4727 6.69411L95.7237 7.79383C95.7237 7.79383 98.5924 7.29177 99.1303 5.96495C99.6682 7.29177 102.525 7.79383 102.525 7.79383L102.776 6.69411C100.278 6.3116 99.967 5.11628 99.967 5.11628H102.74V3.96875H95.5085Z" fill="#9C9C9C"/>
<path d="M175.98 4.68662C175.263 0.550771 162.832 -0.740193 148.225 1.80587C142.093 2.86971 136.559 4.44755 132.232 6.22859C132.889 6.24055 133.391 6.39594 133.69 6.69477C133.917 6.93384 134.037 7.25658 134.037 7.65104V8.05745H132.602V7.69887C132.602 7.40003 132.423 7.20877 132.1 7.20877C131.825 7.20877 131.658 7.32831 131.61 7.56738C131.598 7.6391 131.586 7.74667 131.61 7.85425C131.766 8.48777 133.893 8.87029 134.12 10.0298C134.156 10.1732 134.192 10.4959 134.12 10.9502C133.989 11.8825 133.164 12.2411 132.124 12.2411C130.666 12.2411 130.08 11.5478 130.08 10.6035V10.1612H131.622V10.7231C131.622 11.0338 131.849 11.2131 132.16 11.2131C132.471 11.2131 132.626 11.0936 132.686 10.8426C132.71 10.735 132.722 10.5677 132.674 10.4362C132.387 9.71897 130.403 9.39623 130.164 8.23676C130.104 7.97379 130.104 7.75862 130.152 7.4837C130.176 7.3283 130.224 7.19681 130.284 7.08923C125.502 9.32451 122.693 11.7869 123.064 13.9146C123.793 18.0504 136.212 19.3414 150.819 16.7953C157.238 15.6717 163.011 13.9983 167.398 12.1335C167.338 12.1335 167.278 12.1335 167.207 12.1335C166.202 12.1335 165.306 11.763 165.222 10.735C165.198 10.5437 165.198 10.472 165.198 10.3645V8.00965C165.198 7.91402 165.21 7.73472 165.222 7.63909C165.342 6.64697 166.119 6.24056 167.207 6.24056C168.043 6.24056 169.071 6.47962 169.179 7.63909C169.191 7.78253 169.191 7.93792 169.191 7.98573V8.21285H167.744V7.8901C167.744 7.8901 167.744 7.75862 167.721 7.6869C167.697 7.56737 167.601 7.29244 167.183 7.29244C166.764 7.29244 166.669 7.56737 166.645 7.6869C166.645 7.74667 166.621 7.84229 166.621 7.94987V10.5079C166.621 10.5916 166.621 10.6633 166.633 10.7231C166.633 10.7589 166.716 11.1056 167.183 11.1056C167.649 11.1056 167.721 10.7589 167.732 10.7231C167.744 10.6513 167.744 10.5677 167.744 10.5079V9.71898H167.171V8.87029H169.179V10.3884C169.179 10.4959 169.179 10.5677 169.155 10.7589C169.131 11.0219 169.047 11.249 168.916 11.4522C173.578 9.24084 176.291 6.81431 175.92 4.72248M138.041 12.0499L137.312 7.07729H137.288L136.535 12.0499H134.993L136.033 6.43182H138.555L139.583 12.0499H138.041ZM145.476 12.0499L145.44 7.17292H145.416L144.508 12.0499H143.061L142.153 7.17292H142.129L142.093 12.0499H140.659L140.778 6.43182H143.097L143.767 10.6155H143.802L144.472 6.43182H146.779L146.898 12.0499H145.476ZM152.241 10.9621C152.086 12.0499 151.022 12.2411 150.269 12.2411C149.014 12.2411 148.237 11.7032 148.237 10.6155V10.1732H149.755V10.7231C149.755 11.0219 149.97 11.2012 150.293 11.2012C150.58 11.2012 150.759 11.0816 150.819 10.8426C150.843 10.735 150.855 10.5676 150.819 10.4481C150.532 9.75482 148.572 9.40819 148.333 8.27262C148.273 8.00965 148.273 7.79448 148.321 7.51955C148.488 6.49157 149.48 6.27642 150.269 6.27642C150.986 6.27642 151.5 6.43181 151.811 6.7426C152.038 6.96971 152.158 7.29244 152.158 7.6869V8.09333H150.747V7.73472C150.747 7.42394 150.556 7.25658 150.245 7.25658C149.97 7.25658 149.803 7.37612 149.755 7.61518C149.755 7.663 149.731 7.78252 149.755 7.8901C149.91 8.51168 152.014 8.89419 152.253 10.0417C152.277 10.1851 152.325 10.5079 152.253 10.9502M157.513 10.4481C157.513 10.5557 157.513 10.7589 157.501 10.8187C157.417 11.7391 156.748 12.2172 155.528 12.2172C154.309 12.2172 153.652 11.7391 153.556 10.8187C153.556 10.7589 153.544 10.5557 153.544 10.4481V6.41985H154.991V10.5677C154.991 10.6633 154.991 10.735 155.002 10.7709C155.014 10.8665 155.11 11.1653 155.516 11.1653C155.923 11.1653 156.018 10.8665 156.042 10.7709C156.042 10.723 156.042 10.6513 156.042 10.5677V6.41985H157.489V10.4481H157.513ZM163.764 11.9901H161.744L160.393 7.54347H160.369L160.441 11.9901H159.031V6.41985H161.134L162.389 10.6991H162.413L162.342 6.41985H163.764V11.9901Z" fill="#9C9C9C"/>
<path d="M53.103 6.9815H52.063V5.53516H51.2383V9.57539H51.6925C51.8957 9.57539 52.063 9.40802 52.063 9.20482V7.69871H53.103V6.96955V6.9815Z" fill="#9C9C9C"/>
<path d="M51.6938 12.758C51.897 12.758 52.0644 12.5907 52.0644 12.3875V9.96094H51.2396V10.7379H48.6099V9.96094H47.7852V12.3875C47.7852 12.5907 47.9525 12.758 48.1557 12.758H51.6818H51.6938ZM48.6219 12.0886V11.4073H51.2516V12.0886H48.6219Z" fill="#9C9C9C"/>
<path d="M47.813 8.61716V6.52533H50.2873V5.83203H47.3588C47.1556 5.83203 46.9883 5.99937 46.9883 6.20258V8.72473C46.9883 9.04747 47.2512 9.31045 47.574 9.31045H50.0961C50.2993 9.31045 50.4666 9.14309 50.4666 8.93989V8.61716H47.813Z" fill="#9C9C9C"/>
<path d="M20.2266 5.55078H21.0521V11.9339C21.0521 12.2925 20.7649 12.5793 20.406 12.5793H20.2266V5.55078Z" fill="#9C9C9C"/>
<path d="M18.8574 5.5471V8.11706H18.2478C18.2119 7.34009 17.9848 5.98937 16.6102 5.98937C14.9846 5.98937 14.9727 7.88995 14.9727 8.47566C14.9727 9.06138 14.9966 10.962 16.6102 10.962C17.9848 10.962 18.2 9.61123 18.2478 8.83427H18.8574V12.5637H19.3116C19.5148 12.5637 19.6821 12.3964 19.6821 12.1932V5.53516H18.8574V5.5471ZM16.6222 10.2567C16.168 10.2567 15.7615 9.96982 15.7615 8.48761C15.7615 7.0054 16.168 6.71852 16.6222 6.71852C17.0764 6.71852 17.4828 7.01735 17.4828 8.48761C17.4828 9.95787 17.0764 10.2567 16.6222 10.2567Z" fill="#9C9C9C"/>
<path d="M5.86328 5.55469H6.6888V10.3121C6.6888 10.6707 6.40167 10.9576 6.04275 10.9576H5.86328V5.56663V5.55469Z" fill="#9C9C9C"/>
<path d="M2.93719 8.33372C3.53484 9.23022 4.59865 9.81592 4.61061 9.81592L5.1246 9.26608C3.42726 8.19028 3.35555 7.60457 3.35555 6.93519V5.85938H2.53079V6.93519C2.53079 7.61652 2.45905 8.19028 0.761719 9.26608L1.27571 9.81592C1.27571 9.81592 2.35148 9.21827 2.94913 8.33372H2.93719Z" fill="#9C9C9C"/>
<path d="M3.14897 12.0981V10.4844H2.32422V12.2176C2.32422 12.5403 2.58717 12.8033 2.90991 12.8033H6.44802C6.65123 12.8033 6.81857 12.636 6.81857 12.4328V12.11H3.14897V12.0981Z" fill="#9C9C9C"/>
<path d="M12.9888 5.54688V10.2923C12.188 10.4836 11.399 10.6151 10.646 10.6868V9.75445H11.8891C12.0923 9.75445 12.2597 9.58709 12.2597 9.38388V9.06116H9.15186V8.27223H12.1282V6.46729C12.1282 6.26408 11.9608 6.09672 11.7576 6.09672H8.33906V6.79001H11.3154V7.57894H8.33906V9.16873C8.33906 9.49147 8.60202 9.75445 8.92475 9.75445H9.8332V10.7585C9.16383 10.7944 8.53031 10.8063 7.98047 10.8063V11.4996C9.31921 11.4996 11.148 11.4757 12.9888 11.0215V12.5874H13.443C13.6462 12.5874 13.8136 12.42 13.8136 12.2168V5.55882H12.9888V5.54688Z" fill="#9C9C9C"/>
<path d="M56.0958 6.47946V5.53516H55.2711V6.47946H53.5977V7.17276H57.3987C57.6019 7.17276 57.7693 7.00541 57.7693 6.80221V6.47946H56.0958Z" fill="#9C9C9C"/>
<path d="M55.6668 7.52344C54.579 7.52344 53.9336 8.14502 53.9336 9.26863C53.9336 10.3922 54.591 11.0138 55.6668 11.0138C56.7425 11.0138 57.4 10.3922 57.4 9.26863C57.4 8.14502 56.7425 7.52344 55.6668 7.52344ZM56.6111 9.26863C56.6111 9.5316 56.5872 10.3564 55.6668 10.3564C54.7464 10.3564 54.7225 9.5316 54.7225 9.26863C54.7225 9.00566 54.7464 8.18087 55.6668 8.18087C56.5872 8.18087 56.6111 9.00566 56.6111 9.26863Z" fill="#9C9C9C"/>
<path d="M60.2089 7.878H59.1451V5.53516H58.3203V12.5637H58.7745C58.9777 12.5637 59.1451 12.3964 59.1451 12.1932V8.60715H60.2089V7.878Z" fill="#9C9C9C"/>
<path d="M30.2909 7.878H29.2271V5.53516H28.4023V12.5637H28.8566C29.0598 12.5637 29.2271 12.3964 29.2271 12.1932V8.60715H30.2909V7.878Z" fill="#9C9C9C"/>
<path d="M26.9705 6.07031H24.2213V6.76361H26.5044V7.82745C26.5044 8.96302 25.4405 9.81171 24.0898 10.4811L24.5919 11.019C26.7673 10.0269 27.3291 8.67614 27.3291 7.82745V6.42892C27.3291 6.23766 27.1737 6.08226 26.9825 6.08226L26.9705 6.07031Z" fill="#9C9C9C"/>
<path d="M35.7461 5.54688H36.5716V11.9419C36.5716 12.3005 36.2845 12.5874 35.9255 12.5874H35.7461V5.55882V5.54688Z" fill="#9C9C9C"/>
<path d="M33.2227 8.14074V7.18447H34.4658C34.6691 7.18447 34.8364 7.01713 34.8364 6.81392V6.49118H33.2227V5.54688H32.398V6.49118H30.7843V7.18447H32.398V8.14074C32.398 8.82208 32.3262 9.39584 30.6289 10.4716L31.1429 11.0215C31.1429 11.0215 32.2187 10.4238 32.8163 9.53928C33.414 10.4358 34.4778 11.0215 34.4897 11.0215L35.0037 10.4716C33.3064 9.39584 33.2347 8.81013 33.2347 8.14074H33.2227Z" fill="#9C9C9C"/>
<path d="M41.0076 11.0344V10.0901H42.7168C42.9201 10.0901 43.0874 9.92274 43.0874 9.71953V9.39679H39.0951V8.44052H42.92V6.46822C42.92 6.26502 42.7527 6.09766 42.5495 6.09766H38.2703V6.79095H42.0953V7.74722H38.2703V9.50436C38.2703 9.8271 38.5333 10.0901 38.856 10.0901H40.1947V11.0344H37.4336V11.7277H43.5655C43.7687 11.7277 43.9361 11.5603 43.9361 11.3571V11.0344H41.0076Z" fill="#9C9C9C"/>
<path d="M60.9219 10.0388C60.9219 10.3616 61.1848 10.6245 61.5076 10.6245H64.3763C64.5795 10.6245 64.7468 10.4572 64.7468 10.254V9.85951H61.7466V6.76361H64.2568V6.07031H61.3043C61.1011 6.07031 60.9338 6.23766 60.9338 6.44086V10.0269L60.9219 10.0388Z" fill="#9C9C9C"/>
<path d="M67.2128 7.878H66.149V5.53516H65.3242V12.5637H65.7784C65.9816 12.5637 66.149 12.3964 66.149 12.1932V8.60715H67.2128V7.878Z" fill="#9C9C9C"/>
</svg>
