<svg width="83" height="37" viewBox="0 0 83 37" fill="none" xmlns="http://www.w3.org/2000/svg">
<path d="M18.4363 0.429688C8.4555 0.429688 0.363281 8.52208 0.363281 18.5031C0.363281 28.4841 8.4555 36.5765 18.4363 36.5765C28.4171 36.5765 36.5094 28.4841 36.5094 18.5031C36.5094 8.52208 28.4171 0.429688 18.4363 0.429688ZM22.823 24.8145V26.4999H17.5995V10.4824H19.2849V24.8145H22.823ZM33.6765 18.5031C33.6765 26.9063 26.8393 33.7436 18.4363 33.7436C10.0333 33.7436 3.19615 26.9063 3.19615 18.5031C3.19615 10.0999 10.0333 3.26262 18.4363 3.26262H19.273V4.94804H18.4363C10.9656 4.94804 4.88143 11.0323 4.88143 18.5031C4.88143 25.9739 10.9656 32.0582 18.4363 32.0582C25.907 32.0582 31.5249 26.4282 31.9552 19.3518H22.835V17.6664H33.6645V18.5031H33.6765ZM14.9938 12.8611C14.9938 14.1521 13.9419 15.204 12.6509 15.204C11.36 15.204 10.3082 14.1521 10.3082 12.8611C10.3082 11.5702 11.36 10.5183 12.6509 10.5183C13.9419 10.5183 14.9938 11.5702 14.9938 12.8611Z" fill="#9C9C9C"/>
<path d="M49.9044 6.80078H44.418V30.038H60.961V25.4719H49.9044V6.80078Z" fill="#9C9C9C"/>
<path d="M72.7836 16.7957V21.1706H77.278V25.2467C76.274 25.4499 74.7679 25.9281 72.5087 25.9281C69.6639 25.9281 66.831 23.9677 66.831 18.4214C66.831 15.7319 67.5363 10.8788 72.6881 10.8788C75.4851 10.8788 77.5051 11.7036 78.7482 13.2456L82.0592 10.329C79.824 7.56776 77.027 6.50391 72.6881 6.50391C66.0183 6.50391 61.7031 10.4724 61.7031 18.4214C61.7031 26.3703 65.6357 30.303 72.5087 30.303C79.3818 30.303 82.2625 28.0797 82.2625 28.0797V16.7957H72.7836Z" fill="#9C9C9C"/>
</svg>
