<svg width="106" height="32" viewBox="0 0 106 32" fill="none" xmlns="http://www.w3.org/2000/svg">
<path d="M40.9437 5.24609H36.6166L42.0672 11.414L36.2461 17.9764H40.3579L45.8564 11.414" fill="#9C9C9C"/>
<path d="M14.816 11.6365H14.7563L5.54045 0.101562H0.6875V18.175H5.15795V6.54439H5.21771L14.816 18.175H19.2745V0.101562H14.816V11.6365ZM30.1518 16.0353C27.8449 16.1549 25.3108 15.2584 25.4662 12.7362H35.961V12.1505C35.961 6.24556 31.9567 4.89482 28.6816 4.89482C25.4064 4.89482 20.9121 6.62808 20.9121 11.6843C20.9121 16.7406 25.6933 18.4499 28.8011 18.4499C31.5025 18.4499 33.666 17.7088 33.666 17.7088L35.9491 14.1706C35.9491 14.1706 33.1401 16.0473 30.1518 16.0473M28.6457 7.71582C30.4387 7.71582 31.4427 8.5884 31.6818 10.4292H25.526C25.8846 8.52864 27.1635 7.71582 28.6457 7.71582ZM43.8739 15.0671L46.145 18.0076H51.0338L46.3482 12.1266L43.8739 15.0671ZM50.7948 5.26537H46.0853L44.1369 7.96683L46.3602 10.728L50.7948 5.26537ZM35.9491 5.26537L40.8976 11.4333L35.5666 18.0076H36.2001L42.0332 11.4333L36.5826 5.26537" fill="#9C9C9C"/>
<path d="M61.337 11.338H66.3453C66.3692 14.8164 64.0742 16.8366 60.6079 16.8366C56.6275 16.8366 53.9141 14.0753 53.9141 9.25815C53.9141 4.44096 56.9622 1.99051 60.5481 1.99051C63.632 1.99051 65.2217 3.29341 66.2019 6.12635L68.1024 5.7558C67.0386 2.31324 64.4926 0.484375 60.572 0.484375C55.5637 0.484375 51.918 3.91501 51.918 9.32987C51.918 14.7447 55.0019 18.3188 60.4286 18.3188C63.7037 18.3188 65.4967 16.8724 66.417 15.3663H66.4768V17.996H68.2698V9.91557H61.325" fill="#9C9C9C"/>
<path d="M82.0925 15.0059V9.44754C82.0925 7.00906 80.6701 5.55078 77.3591 5.55078C74.4545 5.55078 72.3986 6.48315 70.6415 7.83387L71.6695 8.82598C73.2114 7.71432 74.8609 6.90151 77.1918 6.90151C79.1282 6.90151 80.192 7.71431 80.192 9.41168V10.0333C72.6974 10.9895 70.1992 12.7467 70.1992 15.1612C70.1992 17.0618 71.7412 18.2332 74.3708 18.2332C76.5822 18.2332 78.4827 17.5639 80.192 16.2848C80.192 16.9781 80.3354 17.5161 80.5267 18.0301H82.5109C82.2001 17.4085 82.0925 16.5 82.0925 15.0178M80.192 14.9939C78.6859 16.2012 76.869 16.9184 74.7892 16.9184C73.1397 16.9184 72.0998 16.249 72.0998 14.97C72.0998 13.3683 73.8569 12.0653 80.192 11.1808V14.9939Z" fill="#9C9C9C"/>
<path d="M91.5979 6.98635L91.8011 5.49219H91.4664C88.5499 5.49219 86.7689 6.62775 85.6094 8.14583H85.5497V5.73127H83.6133V17.9715H85.5497V10.0105C86.6972 8.08606 88.5977 6.97439 91.0122 6.97439C91.072 6.97439 91.5979 6.99832 91.5979 6.99832" fill="#9C9C9C"/>
<path d="M103.703 15.0048V0.828125H101.766V7.45028C100.619 6.38643 98.9096 5.5497 97.009 5.5497C93.4829 5.5497 90.7695 7.64154 90.7695 11.9089C90.7695 16.1762 93.447 18.2322 96.8417 18.2322C99.053 18.2322 100.571 17.2998 101.766 16.236C101.766 16.8815 101.934 17.6106 102.101 18.029H104.145C103.81 17.4074 103.703 16.4989 103.703 15.0167M101.766 14.8733C100.368 16.1045 98.9932 16.8695 97.1764 16.8695C94.714 16.8695 92.694 15.3156 92.694 11.9447C92.694 8.5739 94.5706 6.91236 97.1764 6.91236C98.8857 6.91236 100.308 7.62957 101.766 8.93248V14.8733Z" fill="#9C9C9C"/>
<path d="M9.23191 30.2267C10.6304 30.2267 11.2042 29.7486 11.2042 28.9716C11.2042 28.1468 10.5348 27.6926 8.90918 27.5731L4.116 27.1906C1.92859 27.0232 0.697422 26.2343 0.697422 24.513C0.697422 22.5885 2.26327 21.8594 4.22358 21.8594H12.1724V23.2818H4.08014C2.9446 23.2818 2.31109 23.6404 2.31109 24.4652C2.31109 25.2183 2.82507 25.6247 4.5224 25.7562L9.14824 26.1267C11.4552 26.318 12.8417 27.0471 12.8417 28.9238C12.8417 30.5494 11.754 31.6611 9.13629 31.6611H0.589844V30.2387" fill="#9C9C9C"/>
<path d="M24.6293 21.875C27.1395 21.875 28.3348 23.3214 28.3348 25.0666C28.3348 26.8117 27.1275 28.27 24.6293 28.27H17.8161V31.6648H16.2383V21.875H24.6293ZM24.7011 26.8715C26.1474 26.8715 26.7092 25.8913 26.7092 25.0666C26.7092 24.2418 26.1354 23.2736 24.7011 23.2736H17.8161V26.8715" fill="#9C9C9C"/>
<path d="M35.7672 23.3692C33.5917 23.3692 32.8148 24.2896 32.7072 26.0587H43.2856V27.4691H32.7072C32.8267 29.2263 33.5917 30.1348 35.7672 30.1348H43.4889V31.6528H35.7672C32.3605 31.6528 31.1055 30.0033 31.1055 26.7639C31.1055 23.5246 32.3605 21.875 35.7672 21.875H43.4889V23.3811" fill="#9C9C9C"/>
<path d="M58.9847 23.3623H51.275C48.7648 23.3623 48.2269 24.5098 48.2269 26.7212C48.2269 28.9325 48.7887 30.0681 51.275 30.0681H58.9847V31.6101H51.275C47.8803 31.6101 46.6133 29.9725 46.6133 26.7092C46.6133 23.446 47.8684 21.8203 51.275 21.8203H58.9847" fill="#9C9C9C"/>
<path d="M66.3999 31.6726V23.3172H61.3438V21.8828H73.0219V23.3172H67.9777V31.6726" fill="#9C9C9C"/>
<path d="M76.0273 21.875H84.4782C86.8688 21.875 88.1836 23.0464 88.1836 24.8633C88.1836 26.2738 87.4067 27.1584 86.0799 27.4931C87.3588 27.8636 87.9446 28.7123 87.9446 29.7761V31.6528H86.3189V29.7522C86.3189 28.9633 85.8169 28.2102 84.4303 28.2102H77.6171V31.6648H76.0393V21.875H76.0273ZM84.5857 26.8117C86.0799 26.8117 86.57 25.8435 86.57 25.0307C86.57 24.2178 86.0918 23.2736 84.5857 23.2736H77.6051V26.8117" fill="#9C9C9C"/>
<path d="M104.55 31.6674H102.864L101.537 29.0018H93.8755L92.5487 31.6674H90.8633L94.7958 23.7901C95.4294 22.523 96.1824 21.7461 97.7124 21.7461C99.2424 21.7461 99.9835 22.523 100.629 23.7901L104.561 31.6674H104.55ZM99.0631 24.1248C98.7643 23.5271 98.3937 23.1566 97.6885 23.1566C96.9833 23.1566 96.6247 23.5271 96.3258 24.1248L94.5807 27.6032H100.796L99.0631 24.1248Z" fill="#9C9C9C"/>
<path d="M102.688 21.9766V22.1798H103.166V23.5424H103.405V22.1798H103.883V21.9766H102.688ZM105.329 21.9766L104.887 23.2436L104.457 21.9766H104.146V23.5424H104.361V22.3471L104.791 23.5424H104.994L105.413 22.3471V23.5424H105.652V21.9766H105.341H105.329Z" fill="#9C9C9C"/>
</svg>
