<svg width="186" height="16" viewBox="0 0 186 16" fill="none" xmlns="http://www.w3.org/2000/svg">
<path d="M29.4712 1.49C30.8032 1.49 31.9672 1.748 32.9632 2.264C33.9712 2.768 34.7452 3.5 35.2852 4.46C35.8372 5.408 36.1132 6.518 36.1132 7.79C36.1132 9.062 35.8372 10.166 35.2852 11.102C34.7452 12.038 33.9712 12.758 32.9632 13.262C31.9672 13.754 30.8032 14 29.4712 14H25.3852V1.49H29.4712ZM29.4712 12.326C30.9352 12.326 32.0572 11.93 32.8372 11.138C33.6172 10.346 34.0072 9.23 34.0072 7.79C34.0072 6.338 33.6172 5.204 32.8372 4.388C32.0572 3.572 30.9352 3.164 29.4712 3.164H27.4372V12.326H29.4712ZM37.4629 8.996C37.4629 8 37.6669 7.118 38.0749 6.35C38.4949 5.582 39.0589 4.988 39.7669 4.568C40.4869 4.136 41.2789 3.92 42.1429 3.92C42.9229 3.92 43.6009 4.076 44.1769 4.388C44.7649 4.688 45.2329 5.066 45.5809 5.522V4.082H47.6509V14H45.5809V12.524C45.2329 12.992 44.7589 13.382 44.1589 13.694C43.5589 14.006 42.8749 14.162 42.1069 14.162C41.2549 14.162 40.4749 13.946 39.7669 13.514C39.0589 13.07 38.4949 12.458 38.0749 11.678C37.6669 10.886 37.4629 9.992 37.4629 8.996ZM45.5809 9.032C45.5809 8.348 45.4369 7.754 45.1489 7.25C44.8729 6.746 44.5069 6.362 44.0509 6.098C43.5949 5.834 43.1029 5.702 42.5749 5.702C42.0469 5.702 41.5549 5.834 41.0989 6.098C40.6429 6.35 40.2709 6.728 39.9829 7.232C39.7069 7.724 39.5689 8.312 39.5689 8.996C39.5689 9.68 39.7069 10.28 39.9829 10.796C40.2709 11.312 40.6429 11.708 41.0989 11.984C41.5669 12.248 42.0589 12.38 42.5749 12.38C43.1029 12.38 43.5949 12.248 44.0509 11.984C44.5069 11.72 44.8729 11.336 45.1489 10.832C45.4369 10.316 45.5809 9.716 45.5809 9.032ZM52.7401 5.756V11.246C52.7401 11.618 52.8241 11.888 52.9921 12.056C53.1721 12.212 53.4721 12.29 53.8921 12.29H55.1521V14H53.5321C52.6081 14 51.9001 13.784 51.4081 13.352C50.9161 12.92 50.6701 12.218 50.6701 11.246V5.756H49.5001V4.082H50.6701V1.616H52.7401V4.082H55.1521V5.756H52.7401ZM56.3594 8.996C56.3594 8 56.5634 7.118 56.9714 6.35C57.3914 5.582 57.9554 4.988 58.6634 4.568C59.3834 4.136 60.1754 3.92 61.0394 3.92C61.8194 3.92 62.4974 4.076 63.0734 4.388C63.6614 4.688 64.1294 5.066 64.4774 5.522V4.082H66.5474V14H64.4774V12.524C64.1294 12.992 63.6554 13.382 63.0554 13.694C62.4554 14.006 61.7714 14.162 61.0034 14.162C60.1514 14.162 59.3714 13.946 58.6634 13.514C57.9554 13.07 57.3914 12.458 56.9714 11.678C56.5634 10.886 56.3594 9.992 56.3594 8.996ZM64.4774 9.032C64.4774 8.348 64.3334 7.754 64.0454 7.25C63.7694 6.746 63.4034 6.362 62.9474 6.098C62.4914 5.834 61.9994 5.702 61.4714 5.702C60.9434 5.702 60.4514 5.834 59.9954 6.098C59.5394 6.35 59.1674 6.728 58.8794 7.232C58.6034 7.724 58.4654 8.312 58.4654 8.996C58.4654 9.68 58.6034 10.28 58.8794 10.796C59.1674 11.312 59.5394 11.708 59.9954 11.984C60.4634 12.248 60.9554 12.38 61.4714 12.38C61.9994 12.38 62.4914 12.248 62.9474 11.984C63.4034 11.72 63.7694 11.336 64.0454 10.832C64.3334 10.316 64.4774 9.716 64.4774 9.032ZM77.7524 12.164L80.5604 4.082H82.7384L78.9584 14H76.5104L72.7484 4.082H74.9444L77.7524 12.164ZM85.3335 2.768C84.9615 2.768 84.6495 2.642 84.3975 2.39C84.1455 2.138 84.0195 1.826 84.0195 1.454C84.0195 1.082 84.1455 0.769999 84.3975 0.518C84.6495 0.265999 84.9615 0.139999 85.3335 0.139999C85.6935 0.139999 85.9995 0.265999 86.2515 0.518C86.5035 0.769999 86.6295 1.082 86.6295 1.454C86.6295 1.826 86.5035 2.138 86.2515 2.39C85.9995 2.642 85.6935 2.768 85.3335 2.768ZM86.3415 4.082V14H84.2895V4.082H86.3415ZM92.6355 14.162C91.8555 14.162 91.1535 14.024 90.5295 13.748C89.9175 13.46 89.4315 13.076 89.0715 12.596C88.7115 12.104 88.5195 11.558 88.4955 10.958H90.6195C90.6555 11.378 90.8535 11.732 91.2135 12.02C91.5855 12.296 92.0475 12.434 92.5995 12.434C93.1755 12.434 93.6195 12.326 93.9315 12.11C94.2555 11.882 94.4175 11.594 94.4175 11.246C94.4175 10.874 94.2375 10.598 93.8775 10.418C93.5295 10.238 92.9715 10.04 92.2035 9.824C91.4595 9.62 90.8535 9.422 90.3855 9.23C89.9175 9.038 89.5095 8.744 89.1615 8.348C88.8255 7.952 88.6575 7.43 88.6575 6.782C88.6575 6.254 88.8135 5.774 89.1255 5.342C89.4375 4.898 89.8815 4.55 90.4575 4.298C91.0455 4.046 91.7175 3.92 92.4735 3.92C93.6015 3.92 94.5075 4.208 95.1915 4.784C95.8875 5.348 96.2595 6.122 96.3075 7.106H94.2555C94.2195 6.662 94.0395 6.308 93.7155 6.044C93.3915 5.78 92.9535 5.648 92.4015 5.648C91.8615 5.648 91.4475 5.75 91.1595 5.954C90.8715 6.158 90.7275 6.428 90.7275 6.764C90.7275 7.028 90.8235 7.25 91.0155 7.43C91.2075 7.61 91.4415 7.754 91.7175 7.862C91.9935 7.958 92.4015 8.084 92.9415 8.24C93.6615 8.432 94.2495 8.63 94.7055 8.834C95.1735 9.026 95.5755 9.314 95.9115 9.698C96.2475 10.082 96.4215 10.592 96.4335 11.228C96.4335 11.792 96.2775 12.296 95.9655 12.74C95.6535 13.184 95.2095 13.532 94.6335 13.784C94.0695 14.036 93.4035 14.162 92.6355 14.162ZM107.633 4.082V14H105.581V12.83C105.257 13.238 104.831 13.562 104.303 13.802C103.787 14.03 103.235 14.144 102.647 14.144C101.867 14.144 101.165 13.982 100.541 13.658C99.9288 13.334 99.4428 12.854 99.0828 12.218C98.7348 11.582 98.5608 10.814 98.5608 9.914V4.082H100.595V9.608C100.595 10.496 100.817 11.18 101.261 11.66C101.705 12.128 102.311 12.362 103.079 12.362C103.847 12.362 104.453 12.128 104.897 11.66C105.353 11.18 105.581 10.496 105.581 9.608V4.082H107.633ZM109.656 8.996C109.656 8 109.86 7.118 110.268 6.35C110.688 5.582 111.252 4.988 111.96 4.568C112.68 4.136 113.472 3.92 114.336 3.92C115.116 3.92 115.794 4.076 116.37 4.388C116.958 4.688 117.426 5.066 117.774 5.522V4.082H119.844V14H117.774V12.524C117.426 12.992 116.952 13.382 116.352 13.694C115.752 14.006 115.068 14.162 114.3 14.162C113.448 14.162 112.668 13.946 111.96 13.514C111.252 13.07 110.688 12.458 110.268 11.678C109.86 10.886 109.656 9.992 109.656 8.996ZM117.774 9.032C117.774 8.348 117.63 7.754 117.342 7.25C117.066 6.746 116.7 6.362 116.244 6.098C115.788 5.834 115.296 5.702 114.768 5.702C114.24 5.702 113.748 5.834 113.292 6.098C112.836 6.35 112.464 6.728 112.176 7.232C111.9 7.724 111.762 8.312 111.762 8.996C111.762 9.68 111.9 10.28 112.176 10.796C112.464 11.312 112.836 11.708 113.292 11.984C113.76 12.248 114.252 12.38 114.768 12.38C115.296 12.38 115.788 12.248 116.244 11.984C116.7 11.72 117.066 11.336 117.342 10.832C117.63 10.316 117.774 9.716 117.774 9.032ZM124.591 0.68V14H122.539V0.68H124.591ZM128.33 2.768C127.958 2.768 127.646 2.642 127.394 2.39C127.142 2.138 127.016 1.826 127.016 1.454C127.016 1.082 127.142 0.769999 127.394 0.518C127.646 0.265999 127.958 0.139999 128.33 0.139999C128.69 0.139999 128.996 0.265999 129.248 0.518C129.5 0.769999 129.626 1.082 129.626 1.454C129.626 1.826 129.5 2.138 129.248 2.39C128.996 2.642 128.69 2.768 128.33 2.768ZM129.338 4.082V14H127.286V4.082H129.338ZM133.85 12.326H138.35V14H131.474V12.326L135.992 5.756H131.474V4.082H138.35V5.756L133.85 12.326ZM139.82 8.996C139.82 8 140.024 7.118 140.432 6.35C140.852 5.582 141.416 4.988 142.124 4.568C142.844 4.136 143.636 3.92 144.5 3.92C145.28 3.92 145.958 4.076 146.534 4.388C147.122 4.688 147.59 5.066 147.938 5.522V4.082H150.008V14H147.938V12.524C147.59 12.992 147.116 13.382 146.516 13.694C145.916 14.006 145.232 14.162 144.464 14.162C143.612 14.162 142.832 13.946 142.124 13.514C141.416 13.07 140.852 12.458 140.432 11.678C140.024 10.886 139.82 9.992 139.82 8.996ZM147.938 9.032C147.938 8.348 147.794 7.754 147.506 7.25C147.23 6.746 146.864 6.362 146.408 6.098C145.952 5.834 145.46 5.702 144.932 5.702C144.404 5.702 143.912 5.834 143.456 6.098C143 6.35 142.628 6.728 142.34 7.232C142.064 7.724 141.926 8.312 141.926 8.996C141.926 9.68 142.064 10.28 142.34 10.796C142.628 11.312 143 11.708 143.456 11.984C143.924 12.248 144.416 12.38 144.932 12.38C145.46 12.38 145.952 12.248 146.408 11.984C146.864 11.72 147.23 11.336 147.506 10.832C147.794 10.316 147.938 9.716 147.938 9.032ZM155.098 5.756V11.246C155.098 11.618 155.182 11.888 155.35 12.056C155.53 12.212 155.83 12.29 156.25 12.29H157.51V14H155.89C154.966 14 154.258 13.784 153.766 13.352C153.274 12.92 153.028 12.218 153.028 11.246V5.756H151.858V4.082H153.028V1.616H155.098V4.082H157.51V5.756H155.098ZM160.445 2.768C160.073 2.768 159.761 2.642 159.509 2.39C159.257 2.138 159.131 1.826 159.131 1.454C159.131 1.082 159.257 0.769999 159.509 0.518C159.761 0.265999 160.073 0.139999 160.445 0.139999C160.805 0.139999 161.111 0.265999 161.363 0.518C161.615 0.769999 161.741 1.082 161.741 1.454C161.741 1.826 161.615 2.138 161.363 2.39C161.111 2.642 160.805 2.768 160.445 2.768ZM161.453 4.082V14H159.401V4.082H161.453ZM168.449 14.162C167.513 14.162 166.667 13.952 165.911 13.532C165.155 13.1 164.561 12.5 164.129 11.732C163.697 10.952 163.481 10.052 163.481 9.032C163.481 8.024 163.703 7.13 164.147 6.35C164.591 5.57 165.197 4.97 165.965 4.55C166.733 4.13 167.591 3.92 168.539 3.92C169.487 3.92 170.345 4.13 171.113 4.55C171.881 4.97 172.487 5.57 172.931 6.35C173.375 7.13 173.597 8.024 173.597 9.032C173.597 10.04 173.369 10.934 172.913 11.714C172.457 12.494 171.833 13.1 171.041 13.532C170.261 13.952 169.397 14.162 168.449 14.162ZM168.449 12.38C168.977 12.38 169.469 12.254 169.925 12.002C170.393 11.75 170.771 11.372 171.059 10.868C171.347 10.364 171.491 9.752 171.491 9.032C171.491 8.312 171.353 7.706 171.077 7.214C170.801 6.71 170.435 6.332 169.979 6.08C169.523 5.828 169.031 5.702 168.503 5.702C167.975 5.702 167.483 5.828 167.027 6.08C166.583 6.332 166.229 6.71 165.965 7.214C165.701 7.706 165.569 8.312 165.569 9.032C165.569 10.1 165.839 10.928 166.379 11.516C166.931 12.092 167.621 12.38 168.449 12.38ZM180.629 3.92C181.409 3.92 182.105 4.082 182.717 4.406C183.341 4.73 183.827 5.21 184.175 5.846C184.523 6.482 184.697 7.25 184.697 8.15V14H182.663V8.456C182.663 7.568 182.441 6.89 181.997 6.422C181.553 5.942 180.947 5.702 180.179 5.702C179.411 5.702 178.799 5.942 178.343 6.422C177.899 6.89 177.677 7.568 177.677 8.456V14H175.625V4.082H177.677V5.216C178.013 4.808 178.439 4.49 178.955 4.262C179.483 4.034 180.041 3.92 180.629 3.92Z" fill="black"/>
<path d="M0 0.998695L0 15.2344H2.54318L2.54318 0.998695H0Z" fill="black"/>
<path d="M11.5078 15.1902V3.57031H9.04976V15.1902H11.5078Z" fill="black"/>
<path d="M15.6418 1.10938H11.5078V3.56743H15.6418V1.10938Z" fill="black"/>
<path d="M7.59868 1.10938H5.14062V3.56743H7.59868V1.10938Z" fill="black"/>
<path d="M23.0042 6.89844H16.1406V9.33143H23.0042V6.89844Z" fill="black"/>
</svg>
