<svg width="290" height="39" viewBox="0 0 290 39" fill="none" xmlns="http://www.w3.org/2000/svg">
<path fill-rule="evenodd" clip-rule="evenodd" d="M20.9609 11.7708V0.34375H26.8603V34.969H20.9609V29.7801C18.8877 33.1711 15.6703 35.3494 12.0576 35.3494C5.80362 35.3494 0.734375 28.8218 0.734375 20.7754C0.734375 12.7291 5.80362 6.20147 12.0576 6.20147C15.6703 6.20147 18.8877 8.37978 20.9609 11.7708ZM20.9609 20.5498C20.8677 15.4674 17.6324 11.3799 13.6614 11.3799C9.63175 11.3799 6.3597 15.5889 6.3597 20.7754C6.3597 25.962 9.63175 30.171 13.6614 30.171C17.6324 30.171 20.8677 26.0835 20.9609 21.0011V20.5498Z" fill="black"/>
<path d="M283.656 0.343468V34.9688H289.556V0.343468H283.656Z" fill="black"/>
<path d="M274.753 35.3511C281.007 35.3511 286.076 28.8235 286.076 20.7771C286.076 12.7307 281.007 6.20312 274.753 6.20312C268.499 6.20312 263.43 12.7307 263.43 20.7771C263.43 28.8235 268.499 35.3511 274.753 35.3511ZM276.357 11.3816C280.386 11.3816 283.658 15.5906 283.658 20.7771C283.658 25.9636 280.386 30.1726 276.357 30.1726C272.327 30.1726 269.055 25.9636 269.055 20.7771C269.055 15.5906 272.327 11.3816 276.357 11.3816Z" fill="black"/>
<path fill-rule="evenodd" clip-rule="evenodd" d="M135.062 34.969V0.34375H140.962V11.7761C143.035 8.38155 146.254 6.20059 149.869 6.20059C156.123 6.20059 161.192 12.7282 161.192 20.7746C161.192 28.8209 156.123 35.3485 149.869 35.3485C146.254 35.3485 143.035 33.1676 140.962 29.773V34.969H135.062ZM148.265 30.1701C152.295 30.1701 155.567 25.9611 155.567 20.7746C155.567 15.588 152.295 11.379 148.265 11.379C144.236 11.379 140.964 15.588 140.964 20.7746C140.964 25.9611 144.236 30.1701 148.265 30.1701Z" fill="black"/>
<path fill-rule="evenodd" clip-rule="evenodd" d="M59.1499 0.15625H37.793V2.91016H37.7898V17.3629C37.7898 19.9481 36.7582 22.4768 34.7999 24.1571C33.7768 25.0272 32.5079 25.7106 30.993 25.7617H30.8047V31.6753H30.8135V38.9979H36.7129V31.6753H56.5615V38.9979H62.4608V31.6753H62.4613V25.7617H59.1504V2.91016H59.1499V0.15625ZM40.117 25.7617H53.251V6.06986H42.9477V20.0612C42.9477 24.2511 40.2617 25.6874 40.117 25.7617Z" fill="black"/>
<path fill-rule="evenodd" clip-rule="evenodd" d="M226.315 0.15625H204.958V6.06986H204.961V17.3629C204.961 19.9481 203.929 22.4768 201.971 24.1571C200.948 25.0272 199.679 25.7106 198.164 25.7617H197.981V25.7648V27.623H197.977V38.9979H203.876V31.6753H223.74V38.992H229.64V27.6172H229.638V25.7617H226.329V2.91016H226.315V0.15625ZM207.288 25.7617H220.43V6.06986H210.119V20.0612C210.119 24.2511 207.433 25.6874 207.288 25.7617Z" fill="black"/>
<path d="M164.141 17.6495C164.141 27.0854 171.249 34.7602 179.985 34.7602C188.721 34.7602 195.829 27.0854 195.829 17.6495C195.829 8.21356 188.729 0.546875 179.993 0.546875C171.257 0.546875 164.149 8.22164 164.149 17.6576L164.141 17.6495ZM189.455 17.6495C189.455 24.1124 185.207 29.3636 179.993 29.3636C174.779 29.3636 170.532 24.1044 170.532 17.6495C170.532 11.1946 174.779 5.93537 179.993 5.93537C185.207 5.93537 189.455 11.1946 189.455 17.6495Z" fill="black"/>
<path d="M72.1748 29.0142C74.0446 29.6202 75.8418 29.9271 77.5665 29.9271C79.686 29.9271 81.3462 29.4909 82.5309 28.6265C83.7156 27.7621 84.304 26.5664 84.304 25.0476C84.304 24.0782 83.8768 23.2218 83.0306 22.4947C82.1844 21.7677 80.9836 21.2345 79.4362 20.8952C77.9211 20.5316 76.5832 20.2246 75.4308 19.9823C72.336 19.2794 69.9586 18.1403 68.2822 16.5569C66.614 14.9735 65.7758 13.0427 65.7758 10.7645C65.7758 8.72864 66.3077 6.91901 67.3716 5.33559C68.4354 3.75216 69.9102 2.53228 71.8122 1.66786C73.7061 0.803437 75.874 0.367188 78.2998 0.367188C80.5161 0.367188 82.5954 0.706493 84.5377 1.39318C86.48 2.07987 88.0273 3.00084 89.1798 4.1561L87.4471 8.48628C86.0528 7.51683 84.5538 6.74936 82.9661 6.18385C81.3704 5.61834 79.815 5.34366 78.2998 5.34366C76.2045 5.34366 74.5765 5.82031 73.4079 6.78167C72.2393 7.74304 71.659 9.06794 71.659 10.7725C71.659 11.8066 72.0862 12.7034 72.9324 13.4628C73.7786 14.2222 74.9633 14.7715 76.4785 15.1027L80.4839 15.9672C83.6109 16.6942 86.0045 17.8495 87.6727 19.4087C89.341 20.9759 90.1791 22.8502 90.1791 25.0395C90.1791 26.9542 89.6472 28.6669 88.5834 30.1695C87.5196 31.6721 86.0448 32.8436 84.1428 33.6837C82.2489 34.5239 80.0568 34.9359 77.5665 34.9359C75.0762 34.9359 72.7551 34.5885 70.5146 33.8857C68.2742 33.1829 66.4931 32.2619 65.1875 31.1066L66.9605 26.4533C68.5724 27.5439 70.3051 28.4003 72.1748 29.0062V29.0142Z" fill="black"/>
<path d="M101.1 14.9645H117.436V0.867188H123.263V34.4423H117.436V19.9814H101.1V34.4423H95.2734V0.867188H101.1V14.9645Z" fill="black"/>
<path d="M234.25 0.34375H247.822C250.248 0.34375 252.351 0.78 254.14 1.6525C255.929 2.525 257.299 3.76104 258.242 5.3687C259.185 6.97636 259.661 8.83446 259.661 10.9511C259.661 13.0677 259.177 14.9096 258.218 16.4688C257.259 18.028 255.881 19.2237 254.092 20.0719C252.303 20.9202 250.215 21.3322 247.822 21.3322H240.222V34.7509H234.25V0.34375ZM252.295 15.257C253.35 14.2633 253.882 12.8253 253.882 10.9592C253.882 9.21416 253.342 7.86502 252.27 6.91173C251.199 5.95844 249.716 5.48988 247.814 5.48988H240.214V16.7597H247.814C249.74 16.7597 251.231 16.2588 252.295 15.2651V15.257ZM247.773 20.9606L252.673 18.2946L261.53 34.7509H255.188L247.773 20.9606Z" fill="black"/>
</svg>
