<svg width="56" height="55" viewBox="0 0 56 55" fill="none" xmlns="http://www.w3.org/2000/svg">
<path d="M43.4072 33.0192C43.4072 44.9739 33.716 54.6651 21.7614 54.6651C9.80666 54.6651 0.115461 44.9739 0.115461 33.0192C0.115461 21.0645 9.80666 11.3733 21.7614 11.3733C33.716 11.3733 43.4072 21.0645 43.4072 33.0192Z" stroke="#171B08" stroke-width="0.230922"/>
<path d="M49.083 27.3239C49.083 39.2786 39.3918 48.9698 27.4371 48.9698C15.4824 48.9698 5.79124 39.2786 5.79124 27.3239C5.79124 15.3692 15.4824 5.67796 27.4371 5.67796C39.3918 5.67796 49.083 15.3692 49.083 27.3239Z" stroke="#171B08" stroke-width="0.230922"/>
<path d="M55.3408 22.1403C55.3408 34.095 45.6496 43.7862 33.6949 43.7862C21.7403 43.7862 12.0491 34.095 12.0491 22.1403C12.0491 10.1856 21.7403 0.494367 33.6949 0.494367C45.6496 0.494367 55.3408 10.1856 55.3408 22.1403Z" stroke="#171B08" stroke-width="0.230922"/>
</svg>
