<svg width="67" height="66" viewBox="0 0 67 66" fill="none" xmlns="http://www.w3.org/2000/svg">
<path d="M41.7936 24.3522C48.5235 31.0318 53.6673 38.0282 56.545 43.937C57.984 46.8919 58.8535 49.5688 59.0746 51.7946C59.2958 54.0213 58.8671 55.7784 57.7337 56.9203C56.6004 58.0622 54.8465 58.5041 52.6182 58.2996C50.3909 58.0952 47.7075 57.2458 44.7419 55.829C38.8117 52.9957 31.7769 47.9045 25.047 41.2249C18.3171 34.5453 13.1733 27.5489 10.2957 21.6401C8.85658 18.6852 7.98715 16.0083 7.76603 13.7825C7.54481 11.5558 7.97356 9.79866 9.10691 8.65678C10.2403 7.51489 11.9941 7.07299 14.2224 7.2775C16.4498 7.48192 19.1332 8.33125 22.0988 9.74812C28.0289 12.5814 35.0637 17.6726 41.7936 24.3522Z" stroke="black" stroke-width="0.230922"/>
<path d="M41.8312 41.1958C35.1264 47.9007 28.1107 53.0182 22.1912 55.8737C19.231 57.3016 16.5508 58.161 14.3242 58.3738C12.0967 58.5867 10.3412 58.1513 9.20356 57.0137C8.06594 55.8761 7.6306 54.1206 7.84347 51.893C8.05624 49.6665 8.91563 46.9863 10.3436 44.026C13.1991 38.1065 18.3166 31.0909 25.0214 24.386C31.7262 17.6812 38.7419 12.5637 44.6614 9.70824C47.6216 8.28025 50.3018 7.42087 52.5284 7.20809C54.7559 6.99523 56.5114 7.43056 57.649 8.56819C58.7867 9.70581 59.222 11.4613 59.0091 13.6889C58.7963 15.9154 57.937 18.5956 56.509 21.5559C53.6535 27.4754 48.536 34.491 41.8312 41.1958Z" stroke="black" stroke-width="0.230922"/>
</svg>
