<svg width="61" height="36" viewBox="0 0 61 36" fill="none" xmlns="http://www.w3.org/2000/svg">
<g clip-path="url(#clip0_2054_93280)">
<mask id="mask0_2054_93280" style="mask-type:luminance" maskUnits="userSpaceOnUse" x="0" y="0" width="61" height="36">
<path d="M61 0.0234375H0V35.9813H61V0.0234375Z" fill="white"/>
</mask>
<g mask="url(#mask0_2054_93280)">
<path d="M30.1984 0.347656H0.431641V30.4285H30.1984V0.347656Z" fill="#3B5EC9"/>
<path d="M4.55154 35.6159V30.8116H0V0.0234375H30.6349V30.8116H11.0093L4.5574 35.6159H4.55154ZM2.65115 28.1472H7.20269V30.3283L10.1295 28.1472H27.9779V2.68786H2.65115V28.1472Z" fill="#3B5EC9"/>
<path d="M15.3751 18.352C13.7504 18.352 12.4248 17.0198 12.4248 15.3869C12.4248 13.7541 13.7504 12.4219 15.3751 12.4219C16.9998 12.4219 18.3254 13.7541 18.3254 15.3869C18.3254 17.0198 16.9998 18.352 15.3751 18.352ZM15.3751 14.0429C14.6361 14.0429 14.0378 14.6442 14.0378 15.3869C14.0378 16.1297 14.6361 16.7309 15.3751 16.7309C16.1141 16.7309 16.7124 16.1297 16.7124 15.3869C16.7124 14.6442 16.1141 14.0429 15.3751 14.0429Z" fill="#040A45"/>
<path d="M15.3799 22.108C11.6964 22.108 8.69336 19.0958 8.69336 15.388C8.69336 11.6802 11.6906 8.66797 15.3799 8.66797C17.5032 8.66797 19.4505 9.64649 20.7233 11.3501L19.4329 12.3227C18.4651 11.0259 16.987 10.2831 15.374 10.2831C12.5762 10.2831 10.3005 12.5703 10.3005 15.3821C10.3005 18.1939 12.5762 20.481 15.374 20.481C16.9401 20.481 18.3947 19.7737 19.3625 18.5358L20.6294 19.5379C19.3508 21.1648 17.4386 22.1021 15.374 22.1021L15.3799 22.108Z" fill="white"/>
<path d="M15.3828 25.6267C11.277 25.6267 7.59353 23.1745 5.99228 19.3724L7.47623 18.7417C8.8194 21.9425 11.9222 24.0057 15.3828 24.0057C20.1103 24.0057 23.958 20.1387 23.958 15.3876C23.958 10.6364 20.1103 6.76946 15.3828 6.76946C13.629 6.76946 11.9398 7.29999 10.5028 8.30209C9.09507 9.28062 8.02171 10.6423 7.39998 12.2339L5.89844 11.6385C6.63748 9.7463 7.91026 8.13114 9.5819 6.96988C11.2887 5.77917 13.2947 5.14844 15.3828 5.14844C21.0018 5.14844 25.5709 9.74041 25.5709 15.3876C25.5709 21.0347 21.0018 25.6267 15.3828 25.6267Z" fill="white"/>
<path d="M21.2553 16.7468C22.0036 16.7468 22.6102 16.1372 22.6102 15.3851C22.6102 14.6331 22.0036 14.0234 21.2553 14.0234C20.507 14.0234 19.9004 14.6331 19.9004 15.3851C19.9004 16.1372 20.507 16.7468 21.2553 16.7468Z" fill="#040A45"/>
<path d="M6.17324 16.6374C6.92155 16.6374 7.52814 16.0278 7.52814 15.2757C7.52814 14.5238 6.92155 13.9141 6.17324 13.9141C5.42497 13.9141 4.81836 14.5238 4.81836 15.2757C4.81836 16.0278 5.42497 16.6374 6.17324 16.6374Z" fill="#040A45"/>
<path d="M41.9799 3.92578H43.106V10.9406H42.3084V4.88073H42.2849L38.9006 10.9406H38.1674L34.7889 4.86894H34.7655V10.9406H33.9678V3.92578H35.1291L38.5486 10.0269L41.9682 3.92578H41.9799Z" fill="#040A45"/>
<path d="M41.9799 3.92578H43.106V10.9406H42.3084V4.88073H42.2849L38.9006 10.9406H38.1674L34.7889 4.86894H34.7655V10.9406H33.9678V3.92578H35.1291L38.5486 10.0269L41.9682 3.92578H41.9799Z" stroke="#D9D9D9" stroke-width="0.224737"/>
<path d="M41.9799 3.92578H43.106V10.9406H42.3084V4.88073H42.2849L38.9006 10.9406H38.1674L34.7889 4.86894H34.7655V10.9406H33.9678V3.92578H35.1291L38.5486 10.0269L41.9682 3.92578H41.9799Z" stroke="#040A45" stroke-width="0.224737"/>
<path d="M44.5599 5.83873C44.7828 5.37304 45.0878 4.98399 45.4808 4.67157C45.8738 4.35915 46.3137 4.12925 46.8122 3.97599C47.3108 3.82273 47.8387 3.74609 48.3959 3.74609C48.9531 3.74609 49.481 3.82273 49.9795 3.97599C50.4781 4.12925 50.9239 4.36504 51.311 4.67157C51.704 4.98399 52.009 5.37304 52.2318 5.83873C52.4547 6.3044 52.5662 6.83493 52.5662 7.4303C52.5662 8.02567 52.4547 8.55619 52.2318 9.02188C52.009 9.48756 51.704 9.87661 51.311 10.189C50.918 10.5015 50.4781 10.7314 49.9795 10.8846C49.481 11.0379 48.9531 11.1145 48.3959 11.1145C47.8387 11.1145 47.3108 11.0379 46.8122 10.8846C46.3137 10.7314 45.8679 10.4956 45.4808 10.189C45.0878 9.87661 44.7828 9.48756 44.5599 9.02188C44.337 8.55619 44.2256 8.02567 44.2256 7.4303C44.2256 6.83493 44.337 6.3044 44.5599 5.83873ZM45.3576 8.7743C45.5394 9.15746 45.7799 9.46988 46.0966 9.71746C46.4075 9.96504 46.7594 10.1478 47.1583 10.2657C47.5513 10.3895 47.9677 10.4484 48.4076 10.4484C48.8475 10.4484 49.2581 10.3895 49.6569 10.2716C50.0499 10.1537 50.4018 9.97093 50.7186 9.72335C51.0294 9.47577 51.2758 9.15746 51.4576 8.7743C51.6336 8.39114 51.7274 7.94314 51.7274 7.4303C51.7274 6.91746 51.6394 6.46946 51.4576 6.0863C51.2758 5.70315 51.0353 5.38483 50.7186 5.13725C50.4077 4.88967 50.0558 4.70694 49.6569 4.58904C49.264 4.47115 48.8475 4.4122 48.4076 4.4122C47.9677 4.4122 47.5513 4.47115 47.1583 4.58904C46.7653 4.70694 46.4134 4.88967 46.0966 5.13725C45.7858 5.38483 45.5394 5.70315 45.3576 6.0863C45.1758 6.46946 45.0878 6.91746 45.0878 7.4303C45.0878 7.94314 45.1758 8.38525 45.3576 8.7743Z" fill="#040A45"/>
<path d="M44.5599 5.83873C44.7828 5.37304 45.0878 4.98399 45.4808 4.67157C45.8738 4.35915 46.3137 4.12925 46.8122 3.97599C47.3108 3.82273 47.8387 3.74609 48.3959 3.74609C48.9531 3.74609 49.481 3.82273 49.9795 3.97599C50.4781 4.12925 50.9239 4.36504 51.311 4.67157C51.704 4.98399 52.009 5.37304 52.2318 5.83873C52.4547 6.3044 52.5662 6.83493 52.5662 7.4303C52.5662 8.02567 52.4547 8.55619 52.2318 9.02188C52.009 9.48756 51.704 9.87661 51.311 10.189C50.918 10.5015 50.4781 10.7314 49.9795 10.8846C49.481 11.0379 48.9531 11.1145 48.3959 11.1145C47.8387 11.1145 47.3108 11.0379 46.8122 10.8846C46.3137 10.7314 45.8679 10.4956 45.4808 10.189C45.0878 9.87661 44.7828 9.48756 44.5599 9.02188C44.337 8.55619 44.2256 8.02567 44.2256 7.4303C44.2256 6.83493 44.337 6.3044 44.5599 5.83873ZM45.3576 8.7743C45.5394 9.15746 45.7799 9.46988 46.0966 9.71746C46.4075 9.96504 46.7594 10.1478 47.1583 10.2657C47.5513 10.3895 47.9677 10.4484 48.4076 10.4484C48.8475 10.4484 49.2581 10.3895 49.6569 10.2716C50.0499 10.1537 50.4018 9.97093 50.7186 9.72335C51.0294 9.47577 51.2758 9.15746 51.4576 8.7743C51.6336 8.39114 51.7274 7.94314 51.7274 7.4303C51.7274 6.91746 51.6394 6.46946 51.4576 6.0863C51.2758 5.70315 51.0353 5.38483 50.7186 5.13725C50.4077 4.88967 50.0558 4.70694 49.6569 4.58904C49.264 4.47115 48.8475 4.4122 48.4076 4.4122C47.9677 4.4122 47.5513 4.47115 47.1583 4.58904C46.7653 4.70694 46.4134 4.88967 46.0966 5.13725C45.7858 5.38483 45.5394 5.70315 45.3576 6.0863C45.1758 6.46946 45.0878 6.91746 45.0878 7.4303C45.0878 7.94314 45.1758 8.38525 45.3576 8.7743Z" stroke="#D9D9D9" stroke-width="0.224737"/>
<path d="M44.5599 5.83873C44.7828 5.37304 45.0878 4.98399 45.4808 4.67157C45.8738 4.35915 46.3137 4.12925 46.8122 3.97599C47.3108 3.82273 47.8387 3.74609 48.3959 3.74609C48.9531 3.74609 49.481 3.82273 49.9795 3.97599C50.4781 4.12925 50.9239 4.36504 51.311 4.67157C51.704 4.98399 52.009 5.37304 52.2318 5.83873C52.4547 6.3044 52.5662 6.83493 52.5662 7.4303C52.5662 8.02567 52.4547 8.55619 52.2318 9.02188C52.009 9.48756 51.704 9.87661 51.311 10.189C50.918 10.5015 50.4781 10.7314 49.9795 10.8846C49.481 11.0379 48.9531 11.1145 48.3959 11.1145C47.8387 11.1145 47.3108 11.0379 46.8122 10.8846C46.3137 10.7314 45.8679 10.4956 45.4808 10.189C45.0878 9.87661 44.7828 9.48756 44.5599 9.02188C44.337 8.55619 44.2256 8.02567 44.2256 7.4303C44.2256 6.83493 44.337 6.3044 44.5599 5.83873ZM45.3576 8.7743C45.5394 9.15746 45.7799 9.46988 46.0966 9.71746C46.4075 9.96504 46.7594 10.1478 47.1583 10.2657C47.5513 10.3895 47.9677 10.4484 48.4076 10.4484C48.8475 10.4484 49.2581 10.3895 49.6569 10.2716C50.0499 10.1537 50.4018 9.97093 50.7186 9.72335C51.0294 9.47577 51.2758 9.15746 51.4576 8.7743C51.6336 8.39114 51.7274 7.94314 51.7274 7.4303C51.7274 6.91746 51.6394 6.46946 51.4576 6.0863C51.2758 5.70315 51.0353 5.38483 50.7186 5.13725C50.4077 4.88967 50.0558 4.70694 49.6569 4.58904C49.264 4.47115 48.8475 4.4122 48.4076 4.4122C47.9677 4.4122 47.5513 4.47115 47.1583 4.58904C46.7653 4.70694 46.4134 4.88967 46.0966 5.13725C45.7858 5.38483 45.5394 5.70315 45.3576 6.0863C45.1758 6.46946 45.0878 6.91746 45.0878 7.4303C45.0878 7.94314 45.1758 8.38525 45.3576 8.7743Z" stroke="#040A45" stroke-width="0.224737"/>
<path d="M53.8223 3.92578H57.9632C58.2741 3.92578 58.5615 3.96115 58.8373 4.03778C59.113 4.11441 59.3593 4.23231 59.5763 4.39147C59.7933 4.55062 59.9634 4.76283 60.0866 5.0281C60.2098 5.28747 60.2743 5.59989 60.2743 5.95361C60.2743 6.61382 60.0456 7.12076 59.5881 7.47445C59.1306 7.82813 58.4676 7.99908 57.6113 7.99908H54.62V10.9464H53.8223V3.92578ZM54.62 7.32708H57.6934C58.3269 7.32708 58.7669 7.20918 59.025 6.9675C59.2831 6.72582 59.4121 6.38982 59.4121 5.94771C59.4121 5.45252 59.2772 5.09883 59.0015 4.89841C58.7258 4.69799 58.3445 4.59189 57.8518 4.59189H54.6141V7.32118L54.62 7.32708Z" fill="#040A45"/>
<path d="M53.8223 3.92578H57.9632C58.2741 3.92578 58.5615 3.96115 58.8373 4.03778C59.113 4.11441 59.3593 4.23231 59.5763 4.39147C59.7933 4.55062 59.9634 4.76283 60.0866 5.0281C60.2098 5.28747 60.2743 5.59989 60.2743 5.95361C60.2743 6.61382 60.0456 7.12076 59.5881 7.47445C59.1306 7.82813 58.4676 7.99908 57.6113 7.99908H54.62V10.9464H53.8223V3.92578ZM54.62 7.32708H57.6934C58.3269 7.32708 58.7669 7.20918 59.025 6.9675C59.2831 6.72582 59.4121 6.38982 59.4121 5.94771C59.4121 5.45252 59.2772 5.09883 59.0015 4.89841C58.7258 4.69799 58.3445 4.59189 57.8518 4.59189H54.6141V7.32118L54.62 7.32708Z" stroke="#D9D9D9" stroke-width="0.224737"/>
<path d="M53.8223 3.92578H57.9632C58.2741 3.92578 58.5615 3.96115 58.8373 4.03778C59.113 4.11441 59.3593 4.23231 59.5763 4.39147C59.7933 4.55062 59.9634 4.76283 60.0866 5.0281C60.2098 5.28747 60.2743 5.59989 60.2743 5.95361C60.2743 6.61382 60.0456 7.12076 59.5881 7.47445C59.1306 7.82813 58.4676 7.99908 57.6113 7.99908H54.62V10.9464H53.8223V3.92578ZM54.62 7.32708H57.6934C58.3269 7.32708 58.7669 7.20918 59.025 6.9675C59.2831 6.72582 59.4121 6.38982 59.4121 5.94771C59.4121 5.45252 59.2772 5.09883 59.0015 4.89841C58.7258 4.69799 58.3445 4.59189 57.8518 4.59189H54.6141V7.32118L54.62 7.32708Z" stroke="#040A45" stroke-width="0.224737"/>
<path d="M33.9805 13.9414H34.2679L35.7225 16.4526L37.1771 13.9414H37.4645V16.6766H37.271V14.189H37.2651L35.8163 16.6766H35.6228L34.174 14.189H34.1682V16.6766H33.9746V13.9414H33.9805Z" fill="#040A45"/>
<path d="M33.9805 13.9414H34.2679L35.7225 16.4526L37.1771 13.9414H37.4645V16.6766H37.271V14.189H37.2651L35.8163 16.6766H35.6228L34.174 14.189H34.1682V16.6766H33.9746V13.9414H33.9805Z" stroke="#D9D9D9" stroke-width="0.134842"/>
<path d="M33.9805 13.9414H34.2679L35.7225 16.4526L37.1771 13.9414H37.4645V16.6766H37.271V14.189H37.2651L35.8163 16.6766H35.6228L34.174 14.189H34.1682V16.6766H33.9746V13.9414H33.9805Z" stroke="#040A45" stroke-width="0.134842"/>
<path d="M37.9435 15.3224C37.9787 15.0748 38.0725 14.9038 38.225 14.8036C38.3775 14.7034 38.6121 14.6562 38.9406 14.6562C39.269 14.6562 39.5154 14.6975 39.6796 14.7859C39.8438 14.8744 39.926 15.0217 39.926 15.2339V16.3304C39.926 16.4188 39.9318 16.4777 39.9494 16.5131C39.967 16.5485 40.0022 16.5661 40.0667 16.5661C40.1254 16.5661 40.1899 16.5544 40.2544 16.5367V16.6899C40.1958 16.7076 40.1137 16.7194 40.0198 16.7194C39.9025 16.7194 39.8263 16.6899 39.7969 16.6251C39.7676 16.5603 39.7559 16.4483 39.7559 16.2891H39.75C39.6913 16.3834 39.621 16.46 39.5388 16.5249C39.4509 16.5838 39.3629 16.631 39.269 16.6664C39.1752 16.6958 39.0813 16.7194 38.9934 16.7312C38.9054 16.743 38.8174 16.7489 38.7294 16.7489C38.6414 16.7489 38.5593 16.7489 38.4772 16.7371C38.3951 16.7253 38.3013 16.7076 38.2015 16.6664C38.1018 16.6251 38.0197 16.5661 37.9493 16.4836C37.8789 16.4011 37.8438 16.2891 37.8438 16.1476C37.8438 16.0533 37.8672 15.9649 37.9083 15.8941C37.9493 15.8234 38.008 15.7645 38.0842 15.7232C38.1605 15.6819 38.2426 15.6466 38.3364 15.623C38.4303 15.5994 38.5359 15.5876 38.6532 15.5817L39.4039 15.5346C39.5271 15.5287 39.6151 15.5051 39.662 15.4756C39.7089 15.4403 39.7324 15.3695 39.7324 15.2575C39.7324 15.1101 39.6737 15.004 39.5564 14.9274C39.4391 14.8508 39.2338 14.8154 38.9347 14.8154C38.659 14.8154 38.4655 14.8567 38.354 14.9333C38.2367 15.0099 38.1663 15.1455 38.137 15.3283H37.9435V15.3224ZM39.7324 15.5817H39.7265C39.6679 15.6407 39.5506 15.676 39.3805 15.6878L38.6532 15.735C38.4537 15.7468 38.3012 15.7821 38.1957 15.847C38.0901 15.9059 38.0373 16.0061 38.0373 16.1476C38.0373 16.2419 38.0608 16.3186 38.1018 16.3775C38.1488 16.4365 38.2074 16.4836 38.2778 16.5131C38.3482 16.5426 38.4244 16.5661 38.5007 16.572C38.5769 16.5779 38.6532 16.5897 38.7353 16.5897C38.8526 16.5897 38.964 16.5779 39.0813 16.5544C39.1987 16.5308 39.3042 16.4895 39.4039 16.4365C39.5037 16.3834 39.5799 16.3186 39.6386 16.236C39.6972 16.1535 39.7265 16.0592 39.7265 15.9472V15.5876L39.7324 15.5817Z" fill="#040A45"/>
<path d="M37.9435 15.3224C37.9787 15.0748 38.0725 14.9038 38.225 14.8036C38.3775 14.7034 38.6121 14.6562 38.9406 14.6562C39.269 14.6562 39.5154 14.6975 39.6796 14.7859C39.8438 14.8744 39.926 15.0217 39.926 15.2339V16.3304C39.926 16.4188 39.9318 16.4777 39.9494 16.5131C39.967 16.5485 40.0022 16.5661 40.0667 16.5661C40.1254 16.5661 40.1899 16.5544 40.2544 16.5367V16.6899C40.1958 16.7076 40.1137 16.7194 40.0198 16.7194C39.9025 16.7194 39.8263 16.6899 39.7969 16.6251C39.7676 16.5603 39.7559 16.4483 39.7559 16.2891H39.75C39.6913 16.3834 39.621 16.46 39.5388 16.5249C39.4509 16.5838 39.3629 16.631 39.269 16.6664C39.1752 16.6958 39.0813 16.7194 38.9934 16.7312C38.9054 16.743 38.8174 16.7489 38.7294 16.7489C38.6414 16.7489 38.5593 16.7489 38.4772 16.7371C38.3951 16.7253 38.3013 16.7076 38.2015 16.6664C38.1018 16.6251 38.0197 16.5661 37.9493 16.4836C37.8789 16.4011 37.8438 16.2891 37.8438 16.1476C37.8438 16.0533 37.8672 15.9649 37.9083 15.8941C37.9493 15.8234 38.008 15.7645 38.0842 15.7232C38.1605 15.6819 38.2426 15.6466 38.3364 15.623C38.4303 15.5994 38.5359 15.5876 38.6532 15.5817L39.4039 15.5346C39.5271 15.5287 39.6151 15.5051 39.662 15.4756C39.7089 15.4403 39.7324 15.3695 39.7324 15.2575C39.7324 15.1101 39.6737 15.004 39.5564 14.9274C39.4391 14.8508 39.2338 14.8154 38.9347 14.8154C38.659 14.8154 38.4655 14.8567 38.354 14.9333C38.2367 15.0099 38.1663 15.1455 38.137 15.3283H37.9435V15.3224ZM39.7324 15.5817H39.7265C39.6679 15.6407 39.5506 15.676 39.3805 15.6878L38.6532 15.735C38.4537 15.7468 38.3012 15.7821 38.1957 15.847C38.0901 15.9059 38.0373 16.0061 38.0373 16.1476C38.0373 16.2419 38.0608 16.3186 38.1018 16.3775C38.1488 16.4365 38.2074 16.4836 38.2778 16.5131C38.3482 16.5426 38.4244 16.5661 38.5007 16.572C38.5769 16.5779 38.6532 16.5897 38.7353 16.5897C38.8526 16.5897 38.964 16.5779 39.0813 16.5544C39.1987 16.5308 39.3042 16.4895 39.4039 16.4365C39.5037 16.3834 39.5799 16.3186 39.6386 16.236C39.6972 16.1535 39.7265 16.0592 39.7265 15.9472V15.5876L39.7324 15.5817Z" stroke="#D9D9D9" stroke-width="0.134842"/>
<path d="M37.9435 15.3224C37.9787 15.0748 38.0725 14.9038 38.225 14.8036C38.3775 14.7034 38.6121 14.6562 38.9406 14.6562C39.269 14.6562 39.5154 14.6975 39.6796 14.7859C39.8438 14.8744 39.926 15.0217 39.926 15.2339V16.3304C39.926 16.4188 39.9318 16.4777 39.9494 16.5131C39.967 16.5485 40.0022 16.5661 40.0667 16.5661C40.1254 16.5661 40.1899 16.5544 40.2544 16.5367V16.6899C40.1958 16.7076 40.1137 16.7194 40.0198 16.7194C39.9025 16.7194 39.8263 16.6899 39.7969 16.6251C39.7676 16.5603 39.7559 16.4483 39.7559 16.2891H39.75C39.6913 16.3834 39.621 16.46 39.5388 16.5249C39.4509 16.5838 39.3629 16.631 39.269 16.6664C39.1752 16.6958 39.0813 16.7194 38.9934 16.7312C38.9054 16.743 38.8174 16.7489 38.7294 16.7489C38.6414 16.7489 38.5593 16.7489 38.4772 16.7371C38.3951 16.7253 38.3013 16.7076 38.2015 16.6664C38.1018 16.6251 38.0197 16.5661 37.9493 16.4836C37.8789 16.4011 37.8438 16.2891 37.8438 16.1476C37.8438 16.0533 37.8672 15.9649 37.9083 15.8941C37.9493 15.8234 38.008 15.7645 38.0842 15.7232C38.1605 15.6819 38.2426 15.6466 38.3364 15.623C38.4303 15.5994 38.5359 15.5876 38.6532 15.5817L39.4039 15.5346C39.5271 15.5287 39.6151 15.5051 39.662 15.4756C39.7089 15.4403 39.7324 15.3695 39.7324 15.2575C39.7324 15.1101 39.6737 15.004 39.5564 14.9274C39.4391 14.8508 39.2338 14.8154 38.9347 14.8154C38.659 14.8154 38.4655 14.8567 38.354 14.9333C38.2367 15.0099 38.1663 15.1455 38.137 15.3283H37.9435V15.3224ZM39.7324 15.5817H39.7265C39.6679 15.6407 39.5506 15.676 39.3805 15.6878L38.6532 15.735C38.4537 15.7468 38.3012 15.7821 38.1957 15.847C38.0901 15.9059 38.0373 16.0061 38.0373 16.1476C38.0373 16.2419 38.0608 16.3186 38.1018 16.3775C38.1488 16.4365 38.2074 16.4836 38.2778 16.5131C38.3482 16.5426 38.4244 16.5661 38.5007 16.572C38.5769 16.5779 38.6532 16.5897 38.7353 16.5897C38.8526 16.5897 38.964 16.5779 39.0813 16.5544C39.1987 16.5308 39.3042 16.4895 39.4039 16.4365C39.5037 16.3834 39.5799 16.3186 39.6386 16.236C39.6972 16.1535 39.7265 16.0592 39.7265 15.9472V15.5876L39.7324 15.5817Z" stroke="#040A45" stroke-width="0.134842"/>
<path d="M40.4609 14.7152H40.6545V15.1809H40.6604C40.7308 15.0099 40.8422 14.8803 41.0006 14.7918C41.1531 14.7034 41.3407 14.6562 41.5519 14.6562C41.5988 14.6562 41.6516 14.6621 41.7103 14.6798V14.8567C41.7103 14.8567 41.6575 14.8449 41.6223 14.839C41.5871 14.8331 41.546 14.839 41.4874 14.839C41.2234 14.839 41.0182 14.9156 40.8715 15.0689C40.7249 15.2221 40.6486 15.4108 40.6486 15.623V16.684H40.4551V14.7211L40.4609 14.7152Z" fill="#040A45"/>
<path d="M40.4609 14.7152H40.6545V15.1809H40.6604C40.7308 15.0099 40.8422 14.8803 41.0006 14.7918C41.1531 14.7034 41.3407 14.6562 41.5519 14.6562C41.5988 14.6562 41.6516 14.6621 41.7103 14.6798V14.8567C41.7103 14.8567 41.6575 14.8449 41.6223 14.839C41.5871 14.8331 41.546 14.839 41.4874 14.839C41.2234 14.839 41.0182 14.9156 40.8715 15.0689C40.7249 15.2221 40.6486 15.4108 40.6486 15.623V16.684H40.4551V14.7211L40.4609 14.7152Z" stroke="#D9D9D9" stroke-width="0.134842"/>
<path d="M40.4609 14.7152H40.6545V15.1809H40.6604C40.7308 15.0099 40.8422 14.8803 41.0006 14.7918C41.1531 14.7034 41.3407 14.6562 41.5519 14.6562C41.5988 14.6562 41.6516 14.6621 41.7103 14.6798V14.8567C41.7103 14.8567 41.6575 14.8449 41.6223 14.839C41.5871 14.8331 41.546 14.839 41.4874 14.839C41.2234 14.839 41.0182 14.9156 40.8715 15.0689C40.7249 15.2221 40.6486 15.4108 40.6486 15.623V16.684H40.4551V14.7211L40.4609 14.7152Z" stroke="#040A45" stroke-width="0.134842"/>
<path d="M41.9346 13.9434H42.1281V15.759L43.659 14.7156H43.9464L42.8613 15.4524L44.0461 16.6727H43.7822L42.7088 15.5644L42.1281 15.9535V16.6727H41.9346V13.9375V13.9434Z" fill="#040A45"/>
<path d="M41.9346 13.9434H42.1281V15.759L43.659 14.7156H43.9464L42.8613 15.4524L44.0461 16.6727H43.7822L42.7088 15.5644L42.1281 15.9535V16.6727H41.9346V13.9375V13.9434Z" stroke="#D9D9D9" stroke-width="0.134842"/>
<path d="M41.9346 13.9434H42.1281V15.759L43.659 14.7156H43.9464L42.8613 15.4524L44.0461 16.6727H43.7822L42.7088 15.5644L42.1281 15.9535V16.6727H41.9346V13.9375V13.9434Z" stroke="#040A45" stroke-width="0.134842"/>
<path d="M44.3283 15.735C44.3283 15.9885 44.428 16.1948 44.6099 16.348C44.7917 16.5072 45.038 16.5838 45.3548 16.5838C45.5131 16.5838 45.6422 16.5661 45.7536 16.5249C45.8651 16.4836 45.953 16.4365 46.0176 16.3775C46.0821 16.3186 46.1349 16.2596 46.1701 16.2066C46.2052 16.1476 46.2346 16.0887 46.2639 16.0238H46.4575C46.3695 16.2655 46.2287 16.4483 46.0469 16.5603C45.8651 16.6723 45.6246 16.7371 45.3313 16.7371C44.9677 16.7371 44.6744 16.6428 44.4574 16.4541C44.2403 16.2655 44.1348 16.0061 44.1348 15.6819C44.1348 15.5699 44.1582 15.452 44.1993 15.34C44.2403 15.228 44.3107 15.1101 44.4046 15.004C44.4984 14.8979 44.6216 14.8154 44.78 14.7506C44.9383 14.6857 45.1202 14.6562 45.3372 14.6562C45.7008 14.6562 45.9882 14.7565 46.1994 14.9569C46.4105 15.1573 46.5161 15.4167 46.5161 15.7409H44.3283V15.735ZM46.2991 15.5817C46.258 15.3224 46.1525 15.1278 45.9765 15.004C45.8005 14.8803 45.5777 14.8095 45.3137 14.8095C45.0498 14.8095 44.821 14.8803 44.6509 15.0158C44.4808 15.1514 44.3752 15.3459 44.3283 15.5817H46.2991Z" fill="#040A45"/>
<path d="M44.3283 15.735C44.3283 15.9885 44.428 16.1948 44.6099 16.348C44.7917 16.5072 45.038 16.5838 45.3548 16.5838C45.5131 16.5838 45.6422 16.5661 45.7536 16.5249C45.8651 16.4836 45.953 16.4365 46.0176 16.3775C46.0821 16.3186 46.1349 16.2596 46.1701 16.2066C46.2052 16.1476 46.2346 16.0887 46.2639 16.0238H46.4575C46.3695 16.2655 46.2287 16.4483 46.0469 16.5603C45.8651 16.6723 45.6246 16.7371 45.3313 16.7371C44.9677 16.7371 44.6744 16.6428 44.4574 16.4541C44.2403 16.2655 44.1348 16.0061 44.1348 15.6819C44.1348 15.5699 44.1582 15.452 44.1993 15.34C44.2403 15.228 44.3107 15.1101 44.4046 15.004C44.4984 14.8979 44.6216 14.8154 44.78 14.7506C44.9383 14.6857 45.1202 14.6562 45.3372 14.6562C45.7008 14.6562 45.9882 14.7565 46.1994 14.9569C46.4105 15.1573 46.5161 15.4167 46.5161 15.7409H44.3283V15.735ZM46.2991 15.5817C46.258 15.3224 46.1525 15.1278 45.9765 15.004C45.8005 14.8803 45.5777 14.8095 45.3137 14.8095C45.0498 14.8095 44.821 14.8803 44.6509 15.0158C44.4808 15.1514 44.3752 15.3459 44.3283 15.5817H46.2991Z" stroke="#D9D9D9" stroke-width="0.134842"/>
<path d="M44.3283 15.735C44.3283 15.9885 44.428 16.1948 44.6099 16.348C44.7917 16.5072 45.038 16.5838 45.3548 16.5838C45.5131 16.5838 45.6422 16.5661 45.7536 16.5249C45.8651 16.4836 45.953 16.4365 46.0176 16.3775C46.0821 16.3186 46.1349 16.2596 46.1701 16.2066C46.2052 16.1476 46.2346 16.0887 46.2639 16.0238H46.4575C46.3695 16.2655 46.2287 16.4483 46.0469 16.5603C45.8651 16.6723 45.6246 16.7371 45.3313 16.7371C44.9677 16.7371 44.6744 16.6428 44.4574 16.4541C44.2403 16.2655 44.1348 16.0061 44.1348 15.6819C44.1348 15.5699 44.1582 15.452 44.1993 15.34C44.2403 15.228 44.3107 15.1101 44.4046 15.004C44.4984 14.8979 44.6216 14.8154 44.78 14.7506C44.9383 14.6857 45.1202 14.6562 45.3372 14.6562C45.7008 14.6562 45.9882 14.7565 46.1994 14.9569C46.4105 15.1573 46.5161 15.4167 46.5161 15.7409H44.3283V15.735ZM46.2991 15.5817C46.258 15.3224 46.1525 15.1278 45.9765 15.004C45.8005 14.8803 45.5777 14.8095 45.3137 14.8095C45.0498 14.8095 44.821 14.8803 44.6509 15.0158C44.4808 15.1514 44.3752 15.3459 44.3283 15.5817H46.2991Z" stroke="#040A45" stroke-width="0.134842"/>
<path d="M47.0366 14.0547H47.2302V14.7149H47.8695V14.8682H47.2302V16.2829C47.2302 16.3949 47.2595 16.4715 47.324 16.5069C47.3886 16.5423 47.4883 16.56 47.6173 16.56C47.6584 16.56 47.717 16.56 47.7991 16.5423C47.8285 16.5423 47.8578 16.5423 47.8871 16.5364V16.6897C47.805 16.7074 47.6994 16.7132 47.5587 16.7132C47.3416 16.7132 47.2009 16.672 47.1363 16.5954C47.0718 16.5187 47.0366 16.3831 47.0366 16.1827V14.8682H46.5498V14.7149H47.0366V14.0547Z" fill="#040A45"/>
<path d="M47.0366 14.0547H47.2302V14.7149H47.8695V14.8682H47.2302V16.2829C47.2302 16.3949 47.2595 16.4715 47.324 16.5069C47.3886 16.5423 47.4883 16.56 47.6173 16.56C47.6584 16.56 47.717 16.56 47.7991 16.5423C47.8285 16.5423 47.8578 16.5423 47.8871 16.5364V16.6897C47.805 16.7074 47.6994 16.7132 47.5587 16.7132C47.3416 16.7132 47.2009 16.672 47.1363 16.5954C47.0718 16.5187 47.0366 16.3831 47.0366 16.1827V14.8682H46.5498V14.7149H47.0366V14.0547Z" stroke="#D9D9D9" stroke-width="0.134842"/>
<path d="M47.0366 14.0547H47.2302V14.7149H47.8695V14.8682H47.2302V16.2829C47.2302 16.3949 47.2595 16.4715 47.324 16.5069C47.3886 16.5423 47.4883 16.56 47.6173 16.56C47.6584 16.56 47.717 16.56 47.7991 16.5423C47.8285 16.5423 47.8578 16.5423 47.8871 16.5364V16.6897C47.805 16.7074 47.6994 16.7132 47.5587 16.7132C47.3416 16.7132 47.2009 16.672 47.1363 16.5954C47.0718 16.5187 47.0366 16.3831 47.0366 16.1827V14.8682H46.5498V14.7149H47.0366V14.0547Z" stroke="#040A45" stroke-width="0.134842"/>
<path d="M48.167 13.9414H48.3605V14.3481H48.167V13.9414ZM48.167 14.7136H48.3605V16.6766H48.167V14.7136Z" fill="#040A45"/>
<path d="M48.167 13.9414H48.3605V14.3481H48.167V13.9414ZM48.167 14.7136H48.3605V16.6766H48.167V14.7136Z" stroke="#D9D9D9" stroke-width="0.134842"/>
<path d="M48.167 13.9414H48.3605V14.3481H48.167V13.9414ZM48.167 14.7136H48.3605V16.6766H48.167V14.7136Z" stroke="#040A45" stroke-width="0.134842"/>
<path d="M48.8408 14.7152H49.0344V15.1043H49.0402C49.1165 14.9746 49.2279 14.8626 49.3804 14.78C49.5329 14.6975 49.7206 14.6562 49.9435 14.6562C50.1664 14.6562 50.3541 14.6857 50.4949 14.7447C50.6356 14.8036 50.7353 14.8744 50.794 14.9569C50.8526 15.0394 50.8937 15.1278 50.9054 15.2045C50.9172 15.287 50.9289 15.3695 50.9289 15.4697V16.6781H50.7353V15.4756C50.7353 15.3695 50.7236 15.2811 50.7001 15.1986C50.6767 15.116 50.6356 15.0512 50.577 14.9923C50.5183 14.9333 50.4362 14.8861 50.3306 14.8567C50.2251 14.8272 50.096 14.8095 49.9435 14.8095C49.791 14.8095 49.662 14.8272 49.5447 14.8685C49.4274 14.9097 49.3335 14.9628 49.2573 15.0335C49.181 15.1043 49.1282 15.1809 49.0872 15.2693C49.052 15.3577 49.0344 15.4461 49.0344 15.5346V16.6781H48.8408V14.7152Z" fill="#040A45"/>
<path d="M48.8408 14.7152H49.0344V15.1043H49.0402C49.1165 14.9746 49.2279 14.8626 49.3804 14.78C49.5329 14.6975 49.7206 14.6562 49.9435 14.6562C50.1664 14.6562 50.3541 14.6857 50.4949 14.7447C50.6356 14.8036 50.7353 14.8744 50.794 14.9569C50.8526 15.0394 50.8937 15.1278 50.9054 15.2045C50.9172 15.287 50.9289 15.3695 50.9289 15.4697V16.6781H50.7353V15.4756C50.7353 15.3695 50.7236 15.2811 50.7001 15.1986C50.6767 15.116 50.6356 15.0512 50.577 14.9923C50.5183 14.9333 50.4362 14.8861 50.3306 14.8567C50.2251 14.8272 50.096 14.8095 49.9435 14.8095C49.791 14.8095 49.662 14.8272 49.5447 14.8685C49.4274 14.9097 49.3335 14.9628 49.2573 15.0335C49.181 15.1043 49.1282 15.1809 49.0872 15.2693C49.052 15.3577 49.0344 15.4461 49.0344 15.5346V16.6781H48.8408V14.7152Z" stroke="#D9D9D9" stroke-width="0.134842"/>
<path d="M48.8408 14.7152H49.0344V15.1043H49.0402C49.1165 14.9746 49.2279 14.8626 49.3804 14.78C49.5329 14.6975 49.7206 14.6562 49.9435 14.6562C50.1664 14.6562 50.3541 14.6857 50.4949 14.7447C50.6356 14.8036 50.7353 14.8744 50.794 14.9569C50.8526 15.0394 50.8937 15.1278 50.9054 15.2045C50.9172 15.287 50.9289 15.3695 50.9289 15.4697V16.6781H50.7353V15.4756C50.7353 15.3695 50.7236 15.2811 50.7001 15.1986C50.6767 15.116 50.6356 15.0512 50.577 14.9923C50.5183 14.9333 50.4362 14.8861 50.3306 14.8567C50.2251 14.8272 50.096 14.8095 49.9435 14.8095C49.791 14.8095 49.662 14.8272 49.5447 14.8685C49.4274 14.9097 49.3335 14.9628 49.2573 15.0335C49.181 15.1043 49.1282 15.1809 49.0872 15.2693C49.052 15.3577 49.0344 15.4461 49.0344 15.5346V16.6781H48.8408V14.7152Z" stroke="#040A45" stroke-width="0.134842"/>
<path d="M53.4534 14.7153H53.647V16.578C53.647 16.7077 53.6294 16.8256 53.6 16.9317C53.5707 17.0378 53.512 17.138 53.424 17.2264C53.3419 17.3148 53.2188 17.3856 53.0663 17.4387C52.9079 17.4917 52.7144 17.5153 52.4739 17.5153C52.1278 17.5153 51.8697 17.4622 51.6879 17.362C51.506 17.2618 51.4005 17.0908 51.3653 16.8551H51.5589C51.5823 17.0201 51.6703 17.144 51.811 17.2324C51.9518 17.3208 52.1747 17.362 52.4797 17.362C52.6792 17.362 52.8434 17.3384 52.9724 17.2972C53.1015 17.25 53.207 17.1911 53.2716 17.1203C53.342 17.0437 53.3889 16.9671 53.4182 16.8727C53.4475 16.7843 53.4593 16.69 53.4593 16.5839V16.1772H53.4534C53.3596 16.3363 53.2305 16.4542 53.0545 16.5308C52.8785 16.6075 52.6791 16.6488 52.4445 16.6488C52.2451 16.6488 52.0691 16.6193 51.9225 16.5662C51.7758 16.5132 51.6527 16.4365 51.5589 16.3422C51.465 16.2479 51.3946 16.1418 51.3477 16.018C51.3008 15.8942 51.2832 15.7704 51.2832 15.6348C51.2832 15.4993 51.3066 15.3755 51.3535 15.2576C51.4005 15.1397 51.4708 15.0336 51.5647 14.9393C51.6585 14.845 51.7818 14.7742 51.9343 14.7212C52.0809 14.6681 52.2569 14.6445 52.4504 14.6445C52.6733 14.6445 52.861 14.674 53.0194 14.7388C53.1132 14.7742 53.1953 14.8214 53.2657 14.8804C53.342 14.9393 53.4006 15.0159 53.4475 15.0984H53.4534V14.7035V14.7153ZM52.075 14.8567C51.9577 14.8921 51.8521 14.9393 51.7642 15.01C51.6762 15.0807 51.5999 15.1633 51.5471 15.2694C51.4944 15.3755 51.4709 15.4934 51.4709 15.6348C51.4709 15.9119 51.5588 16.13 51.7289 16.2774C51.9049 16.4247 52.1454 16.5014 52.468 16.5014C52.7612 16.5014 53.0018 16.4247 53.1836 16.2774C53.3654 16.13 53.4593 15.9119 53.4593 15.629C53.4593 15.3696 53.3713 15.1692 53.1895 15.0219C53.0135 14.8745 52.7613 14.8037 52.4504 14.8037C52.3214 14.8037 52.1923 14.8214 52.0809 14.8508L52.075 14.8567Z" fill="#040A45"/>
<path d="M53.4534 14.7153H53.647V16.578C53.647 16.7077 53.6294 16.8256 53.6 16.9317C53.5707 17.0378 53.512 17.138 53.424 17.2264C53.3419 17.3148 53.2188 17.3856 53.0663 17.4387C52.9079 17.4917 52.7144 17.5153 52.4739 17.5153C52.1278 17.5153 51.8697 17.4622 51.6879 17.362C51.506 17.2618 51.4005 17.0908 51.3653 16.8551H51.5589C51.5823 17.0201 51.6703 17.144 51.811 17.2324C51.9518 17.3208 52.1747 17.362 52.4797 17.362C52.6792 17.362 52.8434 17.3384 52.9724 17.2972C53.1015 17.25 53.207 17.1911 53.2716 17.1203C53.342 17.0437 53.3889 16.9671 53.4182 16.8727C53.4475 16.7843 53.4593 16.69 53.4593 16.5839V16.1772H53.4534C53.3596 16.3363 53.2305 16.4542 53.0545 16.5308C52.8785 16.6075 52.6791 16.6488 52.4445 16.6488C52.2451 16.6488 52.0691 16.6193 51.9225 16.5662C51.7758 16.5132 51.6527 16.4365 51.5589 16.3422C51.465 16.2479 51.3946 16.1418 51.3477 16.018C51.3008 15.8942 51.2832 15.7704 51.2832 15.6348C51.2832 15.4993 51.3066 15.3755 51.3535 15.2576C51.4005 15.1397 51.4708 15.0336 51.5647 14.9393C51.6585 14.845 51.7818 14.7742 51.9343 14.7212C52.0809 14.6681 52.2569 14.6445 52.4504 14.6445C52.6733 14.6445 52.861 14.674 53.0194 14.7388C53.1132 14.7742 53.1953 14.8214 53.2657 14.8804C53.342 14.9393 53.4006 15.0159 53.4475 15.0984H53.4534V14.7035V14.7153ZM52.075 14.8567C51.9577 14.8921 51.8521 14.9393 51.7642 15.01C51.6762 15.0807 51.5999 15.1633 51.5471 15.2694C51.4944 15.3755 51.4709 15.4934 51.4709 15.6348C51.4709 15.9119 51.5588 16.13 51.7289 16.2774C51.9049 16.4247 52.1454 16.5014 52.468 16.5014C52.7612 16.5014 53.0018 16.4247 53.1836 16.2774C53.3654 16.13 53.4593 15.9119 53.4593 15.629C53.4593 15.3696 53.3713 15.1692 53.1895 15.0219C53.0135 14.8745 52.7613 14.8037 52.4504 14.8037C52.3214 14.8037 52.1923 14.8214 52.0809 14.8508L52.075 14.8567Z" stroke="#D9D9D9" stroke-width="0.134842"/>
<path d="M53.4534 14.7153H53.647V16.578C53.647 16.7077 53.6294 16.8256 53.6 16.9317C53.5707 17.0378 53.512 17.138 53.424 17.2264C53.3419 17.3148 53.2188 17.3856 53.0663 17.4387C52.9079 17.4917 52.7144 17.5153 52.4739 17.5153C52.1278 17.5153 51.8697 17.4622 51.6879 17.362C51.506 17.2618 51.4005 17.0908 51.3653 16.8551H51.5589C51.5823 17.0201 51.6703 17.144 51.811 17.2324C51.9518 17.3208 52.1747 17.362 52.4797 17.362C52.6792 17.362 52.8434 17.3384 52.9724 17.2972C53.1015 17.25 53.207 17.1911 53.2716 17.1203C53.342 17.0437 53.3889 16.9671 53.4182 16.8727C53.4475 16.7843 53.4593 16.69 53.4593 16.5839V16.1772H53.4534C53.3596 16.3363 53.2305 16.4542 53.0545 16.5308C52.8785 16.6075 52.6791 16.6488 52.4445 16.6488C52.2451 16.6488 52.0691 16.6193 51.9225 16.5662C51.7758 16.5132 51.6527 16.4365 51.5589 16.3422C51.465 16.2479 51.3946 16.1418 51.3477 16.018C51.3008 15.8942 51.2832 15.7704 51.2832 15.6348C51.2832 15.4993 51.3066 15.3755 51.3535 15.2576C51.4005 15.1397 51.4708 15.0336 51.5647 14.9393C51.6585 14.845 51.7818 14.7742 51.9343 14.7212C52.0809 14.6681 52.2569 14.6445 52.4504 14.6445C52.6733 14.6445 52.861 14.674 53.0194 14.7388C53.1132 14.7742 53.1953 14.8214 53.2657 14.8804C53.342 14.9393 53.4006 15.0159 53.4475 15.0984H53.4534V14.7035V14.7153ZM52.075 14.8567C51.9577 14.8921 51.8521 14.9393 51.7642 15.01C51.6762 15.0807 51.5999 15.1633 51.5471 15.2694C51.4944 15.3755 51.4709 15.4934 51.4709 15.6348C51.4709 15.9119 51.5588 16.13 51.7289 16.2774C51.9049 16.4247 52.1454 16.5014 52.468 16.5014C52.7612 16.5014 53.0018 16.4247 53.1836 16.2774C53.3654 16.13 53.4593 15.9119 53.4593 15.629C53.4593 15.3696 53.3713 15.1692 53.1895 15.0219C53.0135 14.8745 52.7613 14.8037 52.4504 14.8037C52.3214 14.8037 52.1923 14.8214 52.0809 14.8508L52.075 14.8567Z" stroke="#040A45" stroke-width="0.134842"/>
<path d="M34.0567 20.4335C34.1154 20.2684 34.2034 20.1152 34.3265 19.9678C34.4497 19.8204 34.6139 19.7026 34.8251 19.6082C35.0304 19.5139 35.2767 19.4727 35.5641 19.4727C35.8515 19.4727 36.0979 19.5198 36.3032 19.6082C36.5085 19.7026 36.6727 19.8204 36.7959 19.9678C36.919 20.1152 37.007 20.2684 37.0657 20.4335C37.1243 20.5986 37.1478 20.7518 37.1478 20.8992C37.1478 21.0466 37.1185 21.2057 37.0657 21.3649C37.007 21.5299 36.919 21.6832 36.7959 21.8306C36.6727 21.9779 36.5085 22.0958 36.3032 22.1901C36.0979 22.2844 35.8515 22.3257 35.5641 22.3257C35.2767 22.3257 35.0304 22.2786 34.8251 22.1842C34.6139 22.0899 34.4497 21.972 34.3265 21.8247C34.2034 21.6773 34.1154 21.524 34.0567 21.359C33.9981 21.1939 33.9746 21.0407 33.9746 20.8933C33.9746 20.7459 34.0039 20.5868 34.0567 20.4276V20.4335ZM34.2561 21.3767C34.3148 21.5299 34.4086 21.6655 34.526 21.7893C34.6433 21.9072 34.7958 22.0015 34.9659 22.0722C35.136 22.143 35.3354 22.1783 35.5524 22.1783C35.7694 22.1783 35.9688 22.143 36.1389 22.0722C36.309 22.0015 36.4615 21.9072 36.5788 21.7893C36.6961 21.6655 36.79 21.5299 36.8486 21.3767C36.9073 21.2234 36.9425 21.0642 36.9425 20.8992C36.9425 20.7341 36.9132 20.575 36.8486 20.4217C36.79 20.2684 36.6961 20.1329 36.5788 20.0091C36.4615 19.8912 36.309 19.7969 36.1389 19.7261C35.9688 19.6554 35.7694 19.62 35.5524 19.62C35.3354 19.62 35.136 19.6554 34.9659 19.7261C34.7958 19.7969 34.6433 19.8912 34.526 20.0091C34.4028 20.127 34.3148 20.2684 34.2561 20.4217C34.1975 20.575 34.1623 20.7341 34.1623 20.8992C34.1623 21.0642 34.1916 21.2234 34.2561 21.3767Z" fill="#040A45"/>
<path d="M34.0567 20.4335C34.1154 20.2684 34.2034 20.1152 34.3265 19.9678C34.4497 19.8204 34.6139 19.7026 34.8251 19.6082C35.0304 19.5139 35.2767 19.4727 35.5641 19.4727C35.8515 19.4727 36.0979 19.5198 36.3032 19.6082C36.5085 19.7026 36.6727 19.8204 36.7959 19.9678C36.919 20.1152 37.007 20.2684 37.0657 20.4335C37.1243 20.5986 37.1478 20.7518 37.1478 20.8992C37.1478 21.0466 37.1185 21.2057 37.0657 21.3649C37.007 21.5299 36.919 21.6832 36.7959 21.8306C36.6727 21.9779 36.5085 22.0958 36.3032 22.1901C36.0979 22.2844 35.8515 22.3257 35.5641 22.3257C35.2767 22.3257 35.0304 22.2786 34.8251 22.1842C34.6139 22.0899 34.4497 21.972 34.3265 21.8247C34.2034 21.6773 34.1154 21.524 34.0567 21.359C33.9981 21.1939 33.9746 21.0407 33.9746 20.8933C33.9746 20.7459 34.0039 20.5868 34.0567 20.4276V20.4335ZM34.2561 21.3767C34.3148 21.5299 34.4086 21.6655 34.526 21.7893C34.6433 21.9072 34.7958 22.0015 34.9659 22.0722C35.136 22.143 35.3354 22.1783 35.5524 22.1783C35.7694 22.1783 35.9688 22.143 36.1389 22.0722C36.309 22.0015 36.4615 21.9072 36.5788 21.7893C36.6961 21.6655 36.79 21.5299 36.8486 21.3767C36.9073 21.2234 36.9425 21.0642 36.9425 20.8992C36.9425 20.7341 36.9132 20.575 36.8486 20.4217C36.79 20.2684 36.6961 20.1329 36.5788 20.0091C36.4615 19.8912 36.309 19.7969 36.1389 19.7261C35.9688 19.6554 35.7694 19.62 35.5524 19.62C35.3354 19.62 35.136 19.6554 34.9659 19.7261C34.7958 19.7969 34.6433 19.8912 34.526 20.0091C34.4028 20.127 34.3148 20.2684 34.2561 20.4217C34.1975 20.575 34.1623 20.7341 34.1623 20.8992C34.1623 21.0642 34.1916 21.2234 34.2561 21.3767Z" stroke="#D9D9D9" stroke-width="0.134842"/>
<path d="M34.0567 20.4335C34.1154 20.2684 34.2034 20.1152 34.3265 19.9678C34.4497 19.8204 34.6139 19.7026 34.8251 19.6082C35.0304 19.5139 35.2767 19.4727 35.5641 19.4727C35.8515 19.4727 36.0979 19.5198 36.3032 19.6082C36.5085 19.7026 36.6727 19.8204 36.7959 19.9678C36.919 20.1152 37.007 20.2684 37.0657 20.4335C37.1243 20.5986 37.1478 20.7518 37.1478 20.8992C37.1478 21.0466 37.1185 21.2057 37.0657 21.3649C37.007 21.5299 36.919 21.6832 36.7959 21.8306C36.6727 21.9779 36.5085 22.0958 36.3032 22.1901C36.0979 22.2844 35.8515 22.3257 35.5641 22.3257C35.2767 22.3257 35.0304 22.2786 34.8251 22.1842C34.6139 22.0899 34.4497 21.972 34.3265 21.8247C34.2034 21.6773 34.1154 21.524 34.0567 21.359C33.9981 21.1939 33.9746 21.0407 33.9746 20.8933C33.9746 20.7459 34.0039 20.5868 34.0567 20.4276V20.4335ZM34.2561 21.3767C34.3148 21.5299 34.4086 21.6655 34.526 21.7893C34.6433 21.9072 34.7958 22.0015 34.9659 22.0722C35.136 22.143 35.3354 22.1783 35.5524 22.1783C35.7694 22.1783 35.9688 22.143 36.1389 22.0722C36.309 22.0015 36.4615 21.9072 36.5788 21.7893C36.6961 21.6655 36.79 21.5299 36.8486 21.3767C36.9073 21.2234 36.9425 21.0642 36.9425 20.8992C36.9425 20.7341 36.9132 20.575 36.8486 20.4217C36.79 20.2684 36.6961 20.1329 36.5788 20.0091C36.4615 19.8912 36.309 19.7969 36.1389 19.7261C35.9688 19.6554 35.7694 19.62 35.5524 19.62C35.3354 19.62 35.136 19.6554 34.9659 19.7261C34.7958 19.7969 34.6433 19.8912 34.526 20.0091C34.4028 20.127 34.3148 20.2684 34.2561 20.4217C34.1975 20.575 34.1623 20.7341 34.1623 20.8992C34.1623 21.0642 34.1916 21.2234 34.2561 21.3767Z" stroke="#040A45" stroke-width="0.134842"/>
<path d="M37.5166 20.3089H37.7102V20.7393H37.716C37.7747 20.6037 37.8861 20.4858 38.0445 20.3915C38.2029 20.2972 38.414 20.25 38.6662 20.25C38.848 20.25 39.0123 20.2795 39.1589 20.3325C39.2997 20.3856 39.4229 20.4622 39.5167 20.5624C39.6164 20.6567 39.6868 20.7687 39.7396 20.8984C39.7924 21.0281 39.8158 21.1578 39.8158 21.2993C39.8158 21.4525 39.7865 21.594 39.7278 21.7178C39.6692 21.8475 39.5929 21.9536 39.4874 22.0479C39.3818 22.1422 39.2645 22.2129 39.1237 22.2601C38.9829 22.3073 38.8304 22.3367 38.6721 22.3367C38.4316 22.3367 38.2322 22.2896 38.0738 22.1953C37.9154 22.1009 37.7981 21.9889 37.7219 21.8593H37.716V23.05H37.5225V20.3148L37.5166 20.3089ZM38.2087 20.4858C38.0738 20.5388 37.9741 20.6096 37.8979 20.698C37.8216 20.7864 37.7688 20.8807 37.7336 20.9751C37.7043 21.0753 37.6867 21.1755 37.6867 21.2698C37.6867 21.4348 37.716 21.5763 37.7747 21.6883C37.8333 21.8062 37.9096 21.9005 38.0093 21.9713C38.1031 22.042 38.2087 22.0951 38.326 22.1245C38.4375 22.154 38.5548 22.1717 38.6721 22.1717C38.7953 22.1717 38.9184 22.154 39.0299 22.1186C39.1413 22.0833 39.2469 22.0243 39.3349 21.9536C39.4229 21.8828 39.4932 21.7885 39.546 21.6765C39.5988 21.5645 39.6223 21.4348 39.6223 21.2934C39.6223 21.0163 39.5343 20.7982 39.3642 20.6391C39.1882 20.4799 38.9654 20.3974 38.6955 20.3974C38.5079 20.3974 38.3436 20.4268 38.2087 20.4799V20.4858Z" fill="#040A45"/>
<path d="M37.5166 20.3089H37.7102V20.7393H37.716C37.7747 20.6037 37.8861 20.4858 38.0445 20.3915C38.2029 20.2972 38.414 20.25 38.6662 20.25C38.848 20.25 39.0123 20.2795 39.1589 20.3325C39.2997 20.3856 39.4229 20.4622 39.5167 20.5624C39.6164 20.6567 39.6868 20.7687 39.7396 20.8984C39.7924 21.0281 39.8158 21.1578 39.8158 21.2993C39.8158 21.4525 39.7865 21.594 39.7278 21.7178C39.6692 21.8475 39.5929 21.9536 39.4874 22.0479C39.3818 22.1422 39.2645 22.2129 39.1237 22.2601C38.9829 22.3073 38.8304 22.3367 38.6721 22.3367C38.4316 22.3367 38.2322 22.2896 38.0738 22.1953C37.9154 22.1009 37.7981 21.9889 37.7219 21.8593H37.716V23.05H37.5225V20.3148L37.5166 20.3089ZM38.2087 20.4858C38.0738 20.5388 37.9741 20.6096 37.8979 20.698C37.8216 20.7864 37.7688 20.8807 37.7336 20.9751C37.7043 21.0753 37.6867 21.1755 37.6867 21.2698C37.6867 21.4348 37.716 21.5763 37.7747 21.6883C37.8333 21.8062 37.9096 21.9005 38.0093 21.9713C38.1031 22.042 38.2087 22.0951 38.326 22.1245C38.4375 22.154 38.5548 22.1717 38.6721 22.1717C38.7953 22.1717 38.9184 22.154 39.0299 22.1186C39.1413 22.0833 39.2469 22.0243 39.3349 21.9536C39.4229 21.8828 39.4932 21.7885 39.546 21.6765C39.5988 21.5645 39.6223 21.4348 39.6223 21.2934C39.6223 21.0163 39.5343 20.7982 39.3642 20.6391C39.1882 20.4799 38.9654 20.3974 38.6955 20.3974C38.5079 20.3974 38.3436 20.4268 38.2087 20.4799V20.4858Z" stroke="#D9D9D9" stroke-width="0.134842"/>
<path d="M37.5166 20.3089H37.7102V20.7393H37.716C37.7747 20.6037 37.8861 20.4858 38.0445 20.3915C38.2029 20.2972 38.414 20.25 38.6662 20.25C38.848 20.25 39.0123 20.2795 39.1589 20.3325C39.2997 20.3856 39.4229 20.4622 39.5167 20.5624C39.6164 20.6567 39.6868 20.7687 39.7396 20.8984C39.7924 21.0281 39.8158 21.1578 39.8158 21.2993C39.8158 21.4525 39.7865 21.594 39.7278 21.7178C39.6692 21.8475 39.5929 21.9536 39.4874 22.0479C39.3818 22.1422 39.2645 22.2129 39.1237 22.2601C38.9829 22.3073 38.8304 22.3367 38.6721 22.3367C38.4316 22.3367 38.2322 22.2896 38.0738 22.1953C37.9154 22.1009 37.7981 21.9889 37.7219 21.8593H37.716V23.05H37.5225V20.3148L37.5166 20.3089ZM38.2087 20.4858C38.0738 20.5388 37.9741 20.6096 37.8979 20.698C37.8216 20.7864 37.7688 20.8807 37.7336 20.9751C37.7043 21.0753 37.6867 21.1755 37.6867 21.2698C37.6867 21.4348 37.716 21.5763 37.7747 21.6883C37.8333 21.8062 37.9096 21.9005 38.0093 21.9713C38.1031 22.042 38.2087 22.0951 38.326 22.1245C38.4375 22.154 38.5548 22.1717 38.6721 22.1717C38.7953 22.1717 38.9184 22.154 39.0299 22.1186C39.1413 22.0833 39.2469 22.0243 39.3349 21.9536C39.4229 21.8828 39.4932 21.7885 39.546 21.6765C39.5988 21.5645 39.6223 21.4348 39.6223 21.2934C39.6223 21.0163 39.5343 20.7982 39.3642 20.6391C39.1882 20.4799 38.9654 20.3974 38.6955 20.3974C38.5079 20.3974 38.3436 20.4268 38.2087 20.4799V20.4858Z" stroke="#040A45" stroke-width="0.134842"/>
<path d="M40.3657 19.6484H40.5593V20.3086H41.1986V20.4619H40.5593V21.8766C40.5593 21.9886 40.5886 22.0653 40.6531 22.1006C40.7177 22.136 40.8174 22.1537 40.9464 22.1537C40.9875 22.1537 41.0461 22.1537 41.1282 22.136C41.1576 22.136 41.1869 22.136 41.2162 22.1301V22.2834C41.1341 22.3011 41.0285 22.307 40.8878 22.307C40.6707 22.307 40.53 22.2657 40.4654 22.1891C40.4009 22.1124 40.3657 21.9769 40.3657 21.7764V20.4619H39.8789V20.3086H40.3657V19.6484Z" fill="#040A45"/>
<path d="M40.3657 19.6484H40.5593V20.3086H41.1986V20.4619H40.5593V21.8766C40.5593 21.9886 40.5886 22.0653 40.6531 22.1006C40.7177 22.136 40.8174 22.1537 40.9464 22.1537C40.9875 22.1537 41.0461 22.1537 41.1282 22.136C41.1576 22.136 41.1869 22.136 41.2162 22.1301V22.2834C41.1341 22.3011 41.0285 22.307 40.8878 22.307C40.6707 22.307 40.53 22.2657 40.4654 22.1891C40.4009 22.1124 40.3657 21.9769 40.3657 21.7764V20.4619H39.8789V20.3086H40.3657V19.6484Z" stroke="#D9D9D9" stroke-width="0.134842"/>
<path d="M40.3657 19.6484H40.5593V20.3086H41.1986V20.4619H40.5593V21.8766C40.5593 21.9886 40.5886 22.0653 40.6531 22.1006C40.7177 22.136 40.8174 22.1537 40.9464 22.1537C40.9875 22.1537 41.0461 22.1537 41.1282 22.136C41.1576 22.136 41.1869 22.136 41.2162 22.1301V22.2834C41.1341 22.3011 41.0285 22.307 40.8878 22.307C40.6707 22.307 40.53 22.2657 40.4654 22.1891C40.4009 22.1124 40.3657 21.9769 40.3657 21.7764V20.4619H39.8789V20.3086H40.3657V19.6484Z" stroke="#040A45" stroke-width="0.134842"/>
<path d="M41.4893 19.5352H41.6828V19.9419H41.4893V19.5352ZM41.4893 20.3074H41.6828V22.2703H41.4893V20.3074Z" fill="#040A45"/>
<path d="M41.4893 19.5352H41.6828V19.9419H41.4893V19.5352ZM41.4893 20.3074H41.6828V22.2703H41.4893V20.3074Z" stroke="#D9D9D9" stroke-width="0.134842"/>
<path d="M41.4893 19.5352H41.6828V19.9419H41.4893V19.5352ZM41.4893 20.3074H41.6828V22.2703H41.4893V20.3074Z" stroke="#040A45" stroke-width="0.134842"/>
<path d="M42.1699 20.3089H42.3635V20.6449H42.3693C42.4515 20.5212 42.5688 20.4209 42.7154 20.3561C42.862 20.2854 43.0204 20.25 43.1964 20.25C43.4368 20.25 43.6245 20.2913 43.7536 20.3738C43.8826 20.4563 43.9706 20.5683 44.0175 20.7098C44.1759 20.4033 44.4516 20.2559 44.8504 20.2559C45.1495 20.2559 45.3783 20.3148 45.5249 20.4327C45.6716 20.5506 45.7478 20.7216 45.7478 20.9456V22.2719H45.5543V20.9986C45.5543 20.8218 45.4956 20.6803 45.3842 20.5683C45.2727 20.4563 45.0968 20.4033 44.8563 20.4033C44.5982 20.4033 44.3988 20.4622 44.2639 20.5801C44.129 20.698 44.0586 20.8572 44.0586 21.0694V22.2778H43.865V20.9692C43.865 20.7923 43.8064 20.6508 43.6949 20.5506C43.5835 20.4504 43.4075 20.4033 43.167 20.4033C42.9266 20.4033 42.733 20.4622 42.5864 20.586C42.4397 20.7098 42.3635 20.8807 42.3635 21.1047V22.2719H42.1699V20.3089Z" fill="#040A45"/>
<path d="M42.1699 20.3089H42.3635V20.6449H42.3693C42.4515 20.5212 42.5688 20.4209 42.7154 20.3561C42.862 20.2854 43.0204 20.25 43.1964 20.25C43.4368 20.25 43.6245 20.2913 43.7536 20.3738C43.8826 20.4563 43.9706 20.5683 44.0175 20.7098C44.1759 20.4033 44.4516 20.2559 44.8504 20.2559C45.1495 20.2559 45.3783 20.3148 45.5249 20.4327C45.6716 20.5506 45.7478 20.7216 45.7478 20.9456V22.2719H45.5543V20.9986C45.5543 20.8218 45.4956 20.6803 45.3842 20.5683C45.2727 20.4563 45.0968 20.4033 44.8563 20.4033C44.5982 20.4033 44.3988 20.4622 44.2639 20.5801C44.129 20.698 44.0586 20.8572 44.0586 21.0694V22.2778H43.865V20.9692C43.865 20.7923 43.8064 20.6508 43.6949 20.5506C43.5835 20.4504 43.4075 20.4033 43.167 20.4033C42.9266 20.4033 42.733 20.4622 42.5864 20.586C42.4397 20.7098 42.3635 20.8807 42.3635 21.1047V22.2719H42.1699V20.3089Z" stroke="#D9D9D9" stroke-width="0.134842"/>
<path d="M42.1699 20.3089H42.3635V20.6449H42.3693C42.4515 20.5212 42.5688 20.4209 42.7154 20.3561C42.862 20.2854 43.0204 20.25 43.1964 20.25C43.4368 20.25 43.6245 20.2913 43.7536 20.3738C43.8826 20.4563 43.9706 20.5683 44.0175 20.7098C44.1759 20.4033 44.4516 20.2559 44.8504 20.2559C45.1495 20.2559 45.3783 20.3148 45.5249 20.4327C45.6716 20.5506 45.7478 20.7216 45.7478 20.9456V22.2719H45.5543V20.9986C45.5543 20.8218 45.4956 20.6803 45.3842 20.5683C45.2727 20.4563 45.0968 20.4033 44.8563 20.4033C44.5982 20.4033 44.3988 20.4622 44.2639 20.5801C44.129 20.698 44.0586 20.8572 44.0586 21.0694V22.2778H43.865V20.9692C43.865 20.7923 43.8064 20.6508 43.6949 20.5506C43.5835 20.4504 43.4075 20.4033 43.167 20.4033C42.9266 20.4033 42.733 20.4622 42.5864 20.586C42.4397 20.7098 42.3635 20.8807 42.3635 21.1047V22.2719H42.1699V20.3089Z" stroke="#040A45" stroke-width="0.134842"/>
<path d="M46.2295 19.5352H46.4231V19.9419H46.2295V19.5352ZM46.2295 20.3074H46.4231V22.2703H46.2295V20.3074Z" fill="#040A45"/>
<path d="M46.2295 19.5352H46.4231V19.9419H46.2295V19.5352ZM46.2295 20.3074H46.4231V22.2703H46.2295V20.3074Z" stroke="#D9D9D9" stroke-width="0.134842"/>
<path d="M46.2295 19.5352H46.4231V19.9419H46.2295V19.5352ZM46.2295 20.3074H46.4231V22.2703H46.2295V20.3074Z" stroke="#040A45" stroke-width="0.134842"/>
<path d="M46.7197 22.0908L48.4676 20.458H46.8312V20.3047H48.7374V20.4344L46.9367 22.1144H48.796V22.2676H46.7197V22.0908Z" fill="#040A45"/>
<path d="M46.7197 22.0908L48.4676 20.458H46.8312V20.3047H48.7374V20.4344L46.9367 22.1144H48.796V22.2676H46.7197V22.0908Z" stroke="#D9D9D9" stroke-width="0.134842"/>
<path d="M46.7197 22.0908L48.4676 20.458H46.8312V20.3047H48.7374V20.4344L46.9367 22.1144H48.796V22.2676H46.7197V22.0908Z" stroke="#040A45" stroke-width="0.134842"/>
<path d="M49.0519 20.9161C49.0871 20.6685 49.1809 20.4976 49.3334 20.3974C49.4859 20.2972 49.7205 20.25 50.049 20.25C50.3774 20.25 50.6238 20.2913 50.788 20.3797C50.9522 20.4681 51.0344 20.6155 51.0344 20.8277V21.9241C51.0344 22.0125 51.0402 22.0715 51.0578 22.1068C51.0754 22.1422 51.1106 22.1599 51.1751 22.1599C51.2338 22.1599 51.2983 22.1481 51.3628 22.1304V22.2837C51.3042 22.3014 51.2221 22.3132 51.1282 22.3132C51.0109 22.3132 50.9346 22.2837 50.9053 22.2188C50.876 22.154 50.8643 22.042 50.8643 21.8828H50.8584C50.7997 21.9772 50.7294 22.0538 50.6472 22.1186C50.5593 22.1776 50.4713 22.2247 50.3774 22.2601C50.2836 22.2896 50.1897 22.3132 50.1018 22.3249C50.0138 22.3367 49.9258 22.3426 49.8378 22.3426C49.7498 22.3426 49.6677 22.3426 49.5856 22.3308C49.5035 22.3191 49.4096 22.3014 49.3099 22.2601C49.2102 22.2188 49.1281 22.1599 49.0577 22.0774C48.9873 21.9948 48.9521 21.8828 48.9521 21.7414C48.9521 21.6471 48.9756 21.5586 49.0167 21.4879C49.0577 21.4172 49.1164 21.3582 49.1926 21.3169C49.2689 21.2757 49.351 21.2403 49.4448 21.2167C49.5387 21.1932 49.6443 21.1814 49.7616 21.1755L50.5123 21.1283C50.6355 21.1224 50.7235 21.0988 50.7704 21.0694C50.8173 21.034 50.8408 20.9633 50.8408 20.8513C50.8408 20.7039 50.7821 20.5978 50.6648 20.5212C50.5475 20.4445 50.3422 20.4092 50.0431 20.4092C49.7674 20.4092 49.5739 20.4504 49.4624 20.5271C49.3451 20.6037 49.2747 20.7393 49.2454 20.922H49.0519V20.9161ZM50.8408 21.1755H50.8349C50.7763 21.2344 50.659 21.2698 50.4889 21.2816L49.7616 21.3287C49.5621 21.3405 49.4096 21.3759 49.3041 21.4407C49.1985 21.4997 49.1457 21.5999 49.1457 21.7414C49.1457 21.8357 49.1692 21.9123 49.2102 21.9713C49.2571 22.0302 49.3158 22.0774 49.3862 22.1068C49.4566 22.1363 49.5328 22.1599 49.6091 22.1658C49.6853 22.1717 49.7616 22.1835 49.8437 22.1835C49.961 22.1835 50.0724 22.1717 50.1897 22.1481C50.3071 22.1245 50.4126 22.0833 50.5123 22.0302C50.6121 21.9772 50.6883 21.9123 50.747 21.8298C50.8056 21.7473 50.8349 21.6529 50.8349 21.5409V21.1814L50.8408 21.1755Z" fill="#040A45"/>
<path d="M49.0519 20.9161C49.0871 20.6685 49.1809 20.4976 49.3334 20.3974C49.4859 20.2972 49.7205 20.25 50.049 20.25C50.3774 20.25 50.6238 20.2913 50.788 20.3797C50.9522 20.4681 51.0344 20.6155 51.0344 20.8277V21.9241C51.0344 22.0125 51.0402 22.0715 51.0578 22.1068C51.0754 22.1422 51.1106 22.1599 51.1751 22.1599C51.2338 22.1599 51.2983 22.1481 51.3628 22.1304V22.2837C51.3042 22.3014 51.2221 22.3132 51.1282 22.3132C51.0109 22.3132 50.9346 22.2837 50.9053 22.2188C50.876 22.154 50.8643 22.042 50.8643 21.8828H50.8584C50.7997 21.9772 50.7294 22.0538 50.6472 22.1186C50.5593 22.1776 50.4713 22.2247 50.3774 22.2601C50.2836 22.2896 50.1897 22.3132 50.1018 22.3249C50.0138 22.3367 49.9258 22.3426 49.8378 22.3426C49.7498 22.3426 49.6677 22.3426 49.5856 22.3308C49.5035 22.3191 49.4096 22.3014 49.3099 22.2601C49.2102 22.2188 49.1281 22.1599 49.0577 22.0774C48.9873 21.9948 48.9521 21.8828 48.9521 21.7414C48.9521 21.6471 48.9756 21.5586 49.0167 21.4879C49.0577 21.4172 49.1164 21.3582 49.1926 21.3169C49.2689 21.2757 49.351 21.2403 49.4448 21.2167C49.5387 21.1932 49.6443 21.1814 49.7616 21.1755L50.5123 21.1283C50.6355 21.1224 50.7235 21.0988 50.7704 21.0694C50.8173 21.034 50.8408 20.9633 50.8408 20.8513C50.8408 20.7039 50.7821 20.5978 50.6648 20.5212C50.5475 20.4445 50.3422 20.4092 50.0431 20.4092C49.7674 20.4092 49.5739 20.4504 49.4624 20.5271C49.3451 20.6037 49.2747 20.7393 49.2454 20.922H49.0519V20.9161ZM50.8408 21.1755H50.8349C50.7763 21.2344 50.659 21.2698 50.4889 21.2816L49.7616 21.3287C49.5621 21.3405 49.4096 21.3759 49.3041 21.4407C49.1985 21.4997 49.1457 21.5999 49.1457 21.7414C49.1457 21.8357 49.1692 21.9123 49.2102 21.9713C49.2571 22.0302 49.3158 22.0774 49.3862 22.1068C49.4566 22.1363 49.5328 22.1599 49.6091 22.1658C49.6853 22.1717 49.7616 22.1835 49.8437 22.1835C49.961 22.1835 50.0724 22.1717 50.1897 22.1481C50.3071 22.1245 50.4126 22.0833 50.5123 22.0302C50.6121 21.9772 50.6883 21.9123 50.747 21.8298C50.8056 21.7473 50.8349 21.6529 50.8349 21.5409V21.1814L50.8408 21.1755Z" stroke="#D9D9D9" stroke-width="0.134842"/>
<path d="M49.0519 20.9161C49.0871 20.6685 49.1809 20.4976 49.3334 20.3974C49.4859 20.2972 49.7205 20.25 50.049 20.25C50.3774 20.25 50.6238 20.2913 50.788 20.3797C50.9522 20.4681 51.0344 20.6155 51.0344 20.8277V21.9241C51.0344 22.0125 51.0402 22.0715 51.0578 22.1068C51.0754 22.1422 51.1106 22.1599 51.1751 22.1599C51.2338 22.1599 51.2983 22.1481 51.3628 22.1304V22.2837C51.3042 22.3014 51.2221 22.3132 51.1282 22.3132C51.0109 22.3132 50.9346 22.2837 50.9053 22.2188C50.876 22.154 50.8643 22.042 50.8643 21.8828H50.8584C50.7997 21.9772 50.7294 22.0538 50.6472 22.1186C50.5593 22.1776 50.4713 22.2247 50.3774 22.2601C50.2836 22.2896 50.1897 22.3132 50.1018 22.3249C50.0138 22.3367 49.9258 22.3426 49.8378 22.3426C49.7498 22.3426 49.6677 22.3426 49.5856 22.3308C49.5035 22.3191 49.4096 22.3014 49.3099 22.2601C49.2102 22.2188 49.1281 22.1599 49.0577 22.0774C48.9873 21.9948 48.9521 21.8828 48.9521 21.7414C48.9521 21.6471 48.9756 21.5586 49.0167 21.4879C49.0577 21.4172 49.1164 21.3582 49.1926 21.3169C49.2689 21.2757 49.351 21.2403 49.4448 21.2167C49.5387 21.1932 49.6443 21.1814 49.7616 21.1755L50.5123 21.1283C50.6355 21.1224 50.7235 21.0988 50.7704 21.0694C50.8173 21.034 50.8408 20.9633 50.8408 20.8513C50.8408 20.7039 50.7821 20.5978 50.6648 20.5212C50.5475 20.4445 50.3422 20.4092 50.0431 20.4092C49.7674 20.4092 49.5739 20.4504 49.4624 20.5271C49.3451 20.6037 49.2747 20.7393 49.2454 20.922H49.0519V20.9161ZM50.8408 21.1755H50.8349C50.7763 21.2344 50.659 21.2698 50.4889 21.2816L49.7616 21.3287C49.5621 21.3405 49.4096 21.3759 49.3041 21.4407C49.1985 21.4997 49.1457 21.5999 49.1457 21.7414C49.1457 21.8357 49.1692 21.9123 49.2102 21.9713C49.2571 22.0302 49.3158 22.0774 49.3862 22.1068C49.4566 22.1363 49.5328 22.1599 49.6091 22.1658C49.6853 22.1717 49.7616 22.1835 49.8437 22.1835C49.961 22.1835 50.0724 22.1717 50.1897 22.1481C50.3071 22.1245 50.4126 22.0833 50.5123 22.0302C50.6121 21.9772 50.6883 21.9123 50.747 21.8298C50.8056 21.7473 50.8349 21.6529 50.8349 21.5409V21.1814L50.8408 21.1755Z" stroke="#040A45" stroke-width="0.134842"/>
<path d="M51.7827 19.6484H51.9763V20.3086H52.6156V20.4619H51.9763V21.8766C51.9763 21.9886 52.0056 22.0653 52.0701 22.1006C52.1346 22.136 52.2344 22.1537 52.3634 22.1537C52.4045 22.1537 52.4631 22.1537 52.5452 22.136C52.5746 22.136 52.6039 22.136 52.6332 22.1301V22.2834C52.5511 22.3011 52.4455 22.307 52.3047 22.307C52.0877 22.307 51.947 22.2657 51.8824 22.1891C51.8179 22.1124 51.7827 21.9769 51.7827 21.7764V20.4619H51.2959V20.3086H51.7827V19.6484Z" fill="#040A45"/>
<path d="M51.7827 19.6484H51.9763V20.3086H52.6156V20.4619H51.9763V21.8766C51.9763 21.9886 52.0056 22.0653 52.0701 22.1006C52.1346 22.136 52.2344 22.1537 52.3634 22.1537C52.4045 22.1537 52.4631 22.1537 52.5452 22.136C52.5746 22.136 52.6039 22.136 52.6332 22.1301V22.2834C52.5511 22.3011 52.4455 22.307 52.3047 22.307C52.0877 22.307 51.947 22.2657 51.8824 22.1891C51.8179 22.1124 51.7827 21.9769 51.7827 21.7764V20.4619H51.2959V20.3086H51.7827V19.6484Z" stroke="#D9D9D9" stroke-width="0.134842"/>
<path d="M51.7827 19.6484H51.9763V20.3086H52.6156V20.4619H51.9763V21.8766C51.9763 21.9886 52.0056 22.0653 52.0701 22.1006C52.1346 22.136 52.2344 22.1537 52.3634 22.1537C52.4045 22.1537 52.4631 22.1537 52.5452 22.136C52.5746 22.136 52.6039 22.136 52.6332 22.1301V22.2834C52.5511 22.3011 52.4455 22.307 52.3047 22.307C52.0877 22.307 51.947 22.2657 51.8824 22.1891C51.8179 22.1124 51.7827 21.9769 51.7827 21.7764V20.4619H51.2959V20.3086H51.7827V19.6484Z" stroke="#040A45" stroke-width="0.134842"/>
<path d="M52.9062 19.5352H53.0998V19.9419H52.9062V19.5352ZM52.9062 20.3074H53.0998V22.2703H52.9062V20.3074Z" fill="#040A45"/>
<path d="M52.9062 19.5352H53.0998V19.9419H52.9062V19.5352ZM52.9062 20.3074H53.0998V22.2703H52.9062V20.3074Z" stroke="#D9D9D9" stroke-width="0.134842"/>
<path d="M52.9062 19.5352H53.0998V19.9419H52.9062V19.5352ZM52.9062 20.3074H53.0998V22.2703H52.9062V20.3074Z" stroke="#040A45" stroke-width="0.134842"/>
<path d="M53.5382 20.8906C53.591 20.7668 53.6731 20.6548 53.7786 20.5546C53.8842 20.4603 54.0133 20.3837 54.1658 20.3247C54.3183 20.2717 54.4884 20.2422 54.6702 20.2422C54.852 20.2422 55.028 20.2717 55.1805 20.3247C55.333 20.3778 55.4561 20.4544 55.5617 20.5546C55.6673 20.6489 55.7436 20.7609 55.8022 20.8906C55.8609 21.0203 55.8843 21.15 55.8843 21.2856C55.8843 21.4211 55.855 21.5567 55.8022 21.6805C55.7494 21.8043 55.6673 21.9163 55.5617 22.0165C55.4561 22.1108 55.3271 22.1874 55.1805 22.2464C55.028 22.2994 54.8579 22.3289 54.6702 22.3289C54.4825 22.3289 54.3183 22.2994 54.1658 22.2464C54.0133 22.1933 53.8842 22.1167 53.7786 22.0165C53.6731 21.9222 53.5968 21.8102 53.5382 21.6805C53.4795 21.5508 53.4561 21.4211 53.4561 21.2856C53.4561 21.15 53.4854 21.0144 53.5382 20.8906ZM53.7141 21.6157C53.7552 21.7218 53.8197 21.8161 53.9077 21.8986C53.9957 21.9811 54.1012 22.0519 54.2303 22.099C54.3593 22.1462 54.506 22.1698 54.6643 22.1698C54.8227 22.1698 54.9752 22.1462 55.1042 22.099C55.2333 22.0519 55.3388 21.9811 55.4268 21.8986C55.5148 21.8161 55.5735 21.7218 55.6204 21.6157C55.6614 21.5096 55.6849 21.3976 55.6849 21.2856C55.6849 21.1736 55.6614 21.0616 55.6204 20.9555C55.5793 20.8493 55.5148 20.755 55.4268 20.6725C55.3388 20.59 55.2333 20.5192 55.1042 20.4721C54.9752 20.4249 54.8286 20.4013 54.6643 20.4013C54.5001 20.4013 54.3535 20.4249 54.2244 20.4721C54.0954 20.5192 53.9898 20.59 53.9018 20.6725C53.8138 20.755 53.7552 20.8493 53.7083 20.9555C53.6672 21.0616 53.6437 21.1736 53.6437 21.2856C53.6437 21.3976 53.6672 21.5096 53.7083 21.6157H53.7141Z" fill="#040A45"/>
<path d="M53.5382 20.8906C53.591 20.7668 53.6731 20.6548 53.7786 20.5546C53.8842 20.4603 54.0133 20.3837 54.1658 20.3247C54.3183 20.2717 54.4884 20.2422 54.6702 20.2422C54.852 20.2422 55.028 20.2717 55.1805 20.3247C55.333 20.3778 55.4561 20.4544 55.5617 20.5546C55.6673 20.6489 55.7436 20.7609 55.8022 20.8906C55.8609 21.0203 55.8843 21.15 55.8843 21.2856C55.8843 21.4211 55.855 21.5567 55.8022 21.6805C55.7494 21.8043 55.6673 21.9163 55.5617 22.0165C55.4561 22.1108 55.3271 22.1874 55.1805 22.2464C55.028 22.2994 54.8579 22.3289 54.6702 22.3289C54.4825 22.3289 54.3183 22.2994 54.1658 22.2464C54.0133 22.1933 53.8842 22.1167 53.7786 22.0165C53.6731 21.9222 53.5968 21.8102 53.5382 21.6805C53.4795 21.5508 53.4561 21.4211 53.4561 21.2856C53.4561 21.15 53.4854 21.0144 53.5382 20.8906ZM53.7141 21.6157C53.7552 21.7218 53.8197 21.8161 53.9077 21.8986C53.9957 21.9811 54.1012 22.0519 54.2303 22.099C54.3593 22.1462 54.506 22.1698 54.6643 22.1698C54.8227 22.1698 54.9752 22.1462 55.1042 22.099C55.2333 22.0519 55.3388 21.9811 55.4268 21.8986C55.5148 21.8161 55.5735 21.7218 55.6204 21.6157C55.6614 21.5096 55.6849 21.3976 55.6849 21.2856C55.6849 21.1736 55.6614 21.0616 55.6204 20.9555C55.5793 20.8493 55.5148 20.755 55.4268 20.6725C55.3388 20.59 55.2333 20.5192 55.1042 20.4721C54.9752 20.4249 54.8286 20.4013 54.6643 20.4013C54.5001 20.4013 54.3535 20.4249 54.2244 20.4721C54.0954 20.5192 53.9898 20.59 53.9018 20.6725C53.8138 20.755 53.7552 20.8493 53.7083 20.9555C53.6672 21.0616 53.6437 21.1736 53.6437 21.2856C53.6437 21.3976 53.6672 21.5096 53.7083 21.6157H53.7141Z" stroke="#D9D9D9" stroke-width="0.134842"/>
<path d="M53.5382 20.8906C53.591 20.7668 53.6731 20.6548 53.7786 20.5546C53.8842 20.4603 54.0133 20.3837 54.1658 20.3247C54.3183 20.2717 54.4884 20.2422 54.6702 20.2422C54.852 20.2422 55.028 20.2717 55.1805 20.3247C55.333 20.3778 55.4561 20.4544 55.5617 20.5546C55.6673 20.6489 55.7436 20.7609 55.8022 20.8906C55.8609 21.0203 55.8843 21.15 55.8843 21.2856C55.8843 21.4211 55.855 21.5567 55.8022 21.6805C55.7494 21.8043 55.6673 21.9163 55.5617 22.0165C55.4561 22.1108 55.3271 22.1874 55.1805 22.2464C55.028 22.2994 54.8579 22.3289 54.6702 22.3289C54.4825 22.3289 54.3183 22.2994 54.1658 22.2464C54.0133 22.1933 53.8842 22.1167 53.7786 22.0165C53.6731 21.9222 53.5968 21.8102 53.5382 21.6805C53.4795 21.5508 53.4561 21.4211 53.4561 21.2856C53.4561 21.15 53.4854 21.0144 53.5382 20.8906ZM53.7141 21.6157C53.7552 21.7218 53.8197 21.8161 53.9077 21.8986C53.9957 21.9811 54.1012 22.0519 54.2303 22.099C54.3593 22.1462 54.506 22.1698 54.6643 22.1698C54.8227 22.1698 54.9752 22.1462 55.1042 22.099C55.2333 22.0519 55.3388 21.9811 55.4268 21.8986C55.5148 21.8161 55.5735 21.7218 55.6204 21.6157C55.6614 21.5096 55.6849 21.3976 55.6849 21.2856C55.6849 21.1736 55.6614 21.0616 55.6204 20.9555C55.5793 20.8493 55.5148 20.755 55.4268 20.6725C55.3388 20.59 55.2333 20.5192 55.1042 20.4721C54.9752 20.4249 54.8286 20.4013 54.6643 20.4013C54.5001 20.4013 54.3535 20.4249 54.2244 20.4721C54.0954 20.5192 53.9898 20.59 53.9018 20.6725C53.8138 20.755 53.7552 20.8493 53.7083 20.9555C53.6672 21.0616 53.6437 21.1736 53.6437 21.2856C53.6437 21.3976 53.6672 21.5096 53.7083 21.6157H53.7141Z" stroke="#040A45" stroke-width="0.134842"/>
<path d="M56.2256 20.3089H56.4191V20.698H56.425C56.5013 20.5683 56.6127 20.4563 56.7652 20.3738C56.9177 20.2913 57.1054 20.25 57.3283 20.25C57.5512 20.25 57.7389 20.2795 57.8796 20.3384C58.0204 20.3974 58.1201 20.4681 58.1788 20.5506C58.2374 20.6332 58.2785 20.7216 58.2902 20.7982C58.3019 20.8807 58.3137 20.9633 58.3137 21.0635V22.2719H58.1201V21.0694C58.1201 20.9633 58.1084 20.8748 58.0849 20.7923C58.0615 20.7098 58.0204 20.6449 57.9617 20.586C57.9031 20.5271 57.821 20.4799 57.7154 20.4504C57.6098 20.4209 57.4808 20.4033 57.3283 20.4033C57.1758 20.4033 57.0467 20.4209 56.9294 20.4622C56.8121 20.5035 56.7183 20.5565 56.642 20.6273C56.5658 20.698 56.513 20.7746 56.4719 20.8631C56.4367 20.9515 56.4191 21.0399 56.4191 21.1283V22.2719H56.2256V20.3089Z" fill="#040A45"/>
<path d="M56.2256 20.3089H56.4191V20.698H56.425C56.5013 20.5683 56.6127 20.4563 56.7652 20.3738C56.9177 20.2913 57.1054 20.25 57.3283 20.25C57.5512 20.25 57.7389 20.2795 57.8796 20.3384C58.0204 20.3974 58.1201 20.4681 58.1788 20.5506C58.2374 20.6332 58.2785 20.7216 58.2902 20.7982C58.3019 20.8807 58.3137 20.9633 58.3137 21.0635V22.2719H58.1201V21.0694C58.1201 20.9633 58.1084 20.8748 58.0849 20.7923C58.0615 20.7098 58.0204 20.6449 57.9617 20.586C57.9031 20.5271 57.821 20.4799 57.7154 20.4504C57.6098 20.4209 57.4808 20.4033 57.3283 20.4033C57.1758 20.4033 57.0467 20.4209 56.9294 20.4622C56.8121 20.5035 56.7183 20.5565 56.642 20.6273C56.5658 20.698 56.513 20.7746 56.4719 20.8631C56.4367 20.9515 56.4191 21.0399 56.4191 21.1283V22.2719H56.2256V20.3089Z" stroke="#D9D9D9" stroke-width="0.134842"/>
<path d="M56.2256 20.3089H56.4191V20.698H56.425C56.5013 20.5683 56.6127 20.4563 56.7652 20.3738C56.9177 20.2913 57.1054 20.25 57.3283 20.25C57.5512 20.25 57.7389 20.2795 57.8796 20.3384C58.0204 20.3974 58.1201 20.4681 58.1788 20.5506C58.2374 20.6332 58.2785 20.7216 58.2902 20.7982C58.3019 20.8807 58.3137 20.9633 58.3137 21.0635V22.2719H58.1201V21.0694C58.1201 20.9633 58.1084 20.8748 58.0849 20.7923C58.0615 20.7098 58.0204 20.6449 57.9617 20.586C57.9031 20.5271 57.821 20.4799 57.7154 20.4504C57.6098 20.4209 57.4808 20.4033 57.3283 20.4033C57.1758 20.4033 57.0467 20.4209 56.9294 20.4622C56.8121 20.5035 56.7183 20.5565 56.642 20.6273C56.5658 20.698 56.513 20.7746 56.4719 20.8631C56.4367 20.9515 56.4191 21.0399 56.4191 21.1283V22.2719H56.2256V20.3089Z" stroke="#040A45" stroke-width="0.134842"/>
<path d="M33.9805 24.4688H35.5407C35.658 24.4688 35.7694 24.4805 35.8691 24.5041C35.9747 24.5277 36.0686 24.5631 36.1565 24.622C36.2445 24.681 36.3149 24.7576 36.3677 24.8578C36.4205 24.958 36.4439 25.0818 36.4439 25.2292C36.4439 25.4709 36.3677 25.6595 36.2093 25.7951C36.0568 25.9306 35.8163 26.0014 35.5055 26.0014H34.1682V27.2039H33.9746V24.4688H33.9805ZM34.174 25.8481H35.5055C35.6052 25.8481 35.699 25.8363 35.787 25.8186C35.875 25.801 35.9571 25.7656 36.0275 25.7184C36.0979 25.6713 36.1565 25.6064 36.1976 25.5298C36.2386 25.4473 36.2621 25.353 36.2621 25.2351C36.2621 25.0936 36.2328 24.9757 36.18 24.8932C36.1272 24.8048 36.0568 24.7458 35.9747 24.7045C35.8926 24.6692 35.8105 24.6456 35.7342 24.6338C35.6521 24.622 35.5641 24.622 35.4703 24.622H34.1858V25.8481H34.174Z" fill="#040A45"/>
<path d="M33.9805 24.4688H35.5407C35.658 24.4688 35.7694 24.4805 35.8691 24.5041C35.9747 24.5277 36.0686 24.5631 36.1565 24.622C36.2445 24.681 36.3149 24.7576 36.3677 24.8578C36.4205 24.958 36.4439 25.0818 36.4439 25.2292C36.4439 25.4709 36.3677 25.6595 36.2093 25.7951C36.0568 25.9306 35.8163 26.0014 35.5055 26.0014H34.1682V27.2039H33.9746V24.4688H33.9805ZM34.174 25.8481H35.5055C35.6052 25.8481 35.699 25.8363 35.787 25.8186C35.875 25.801 35.9571 25.7656 36.0275 25.7184C36.0979 25.6713 36.1565 25.6064 36.1976 25.5298C36.2386 25.4473 36.2621 25.353 36.2621 25.2351C36.2621 25.0936 36.2328 24.9757 36.18 24.8932C36.1272 24.8048 36.0568 24.7458 35.9747 24.7045C35.8926 24.6692 35.8105 24.6456 35.7342 24.6338C35.6521 24.622 35.5641 24.622 35.4703 24.622H34.1858V25.8481H34.174Z" stroke="#D9D9D9" stroke-width="0.134842"/>
<path d="M33.9805 24.4688H35.5407C35.658 24.4688 35.7694 24.4805 35.8691 24.5041C35.9747 24.5277 36.0686 24.5631 36.1565 24.622C36.2445 24.681 36.3149 24.7576 36.3677 24.8578C36.4205 24.958 36.4439 25.0818 36.4439 25.2292C36.4439 25.4709 36.3677 25.6595 36.2093 25.7951C36.0568 25.9306 35.8163 26.0014 35.5055 26.0014H34.1682V27.2039H33.9746V24.4688H33.9805ZM34.174 25.8481H35.5055C35.6052 25.8481 35.699 25.8363 35.787 25.8186C35.875 25.801 35.9571 25.7656 36.0275 25.7184C36.0979 25.6713 36.1565 25.6064 36.1976 25.5298C36.2386 25.4473 36.2621 25.353 36.2621 25.2351C36.2621 25.0936 36.2328 24.9757 36.18 24.8932C36.1272 24.8048 36.0568 24.7458 35.9747 24.7045C35.8926 24.6692 35.8105 24.6456 35.7342 24.6338C35.6521 24.622 35.5641 24.622 35.4703 24.622H34.1858V25.8481H34.174Z" stroke="#040A45" stroke-width="0.134842"/>
<path d="M36.7764 24.4688H36.9699V27.2039H36.7764V24.4688Z" fill="#040A45"/>
<path d="M36.7764 24.4688H36.9699V27.2039H36.7764V24.4688Z" stroke="#D9D9D9" stroke-width="0.134842"/>
<path d="M36.7764 24.4688H36.9699V27.2039H36.7764V24.4688Z" stroke="#040A45" stroke-width="0.134842"/>
<path d="M37.4269 25.8497C37.4621 25.6021 37.5559 25.4312 37.7084 25.331C37.8609 25.2308 38.0955 25.1836 38.424 25.1836C38.7524 25.1836 38.9988 25.2249 39.163 25.3133C39.3272 25.4017 39.4094 25.5491 39.4094 25.7613V26.8577C39.4094 26.9461 39.4152 27.0051 39.4328 27.0404C39.4504 27.0758 39.4856 27.0935 39.5501 27.0935C39.6088 27.0935 39.6733 27.0817 39.7378 27.064V27.2173C39.6792 27.235 39.5971 27.2468 39.5032 27.2468C39.3859 27.2468 39.3096 27.2173 39.2803 27.1524C39.251 27.0876 39.2393 26.9756 39.2393 26.8164H39.2334C39.1747 26.9108 39.1044 26.9874 39.0222 27.0522C38.9343 27.1112 38.8463 27.1583 38.7524 27.1937C38.6586 27.2232 38.5647 27.2468 38.4768 27.2585C38.3888 27.2703 38.3008 27.2762 38.2128 27.2762C38.1248 27.2762 38.0427 27.2762 37.9606 27.2644C37.8785 27.2526 37.7847 27.235 37.6849 27.1937C37.5852 27.1524 37.5031 27.0935 37.4327 27.011C37.3623 26.9284 37.3271 26.8164 37.3271 26.675C37.3271 26.5806 37.3506 26.4922 37.3917 26.4215C37.4327 26.3508 37.4914 26.2918 37.5676 26.2505C37.6439 26.2093 37.726 26.1739 37.8198 26.1503C37.9137 26.1268 38.0193 26.115 38.1366 26.1091L38.8873 26.0619C39.0105 26.056 39.0985 26.0324 39.1454 26.003C39.1923 25.9676 39.2158 25.8969 39.2158 25.7849C39.2158 25.6375 39.1571 25.5314 39.0398 25.4548C38.9225 25.3781 38.7172 25.3428 38.4181 25.3428C38.1424 25.3428 37.9489 25.384 37.8374 25.4606C37.7201 25.5373 37.6497 25.6729 37.6204 25.8556H37.4269V25.8497ZM39.2158 26.1091H39.2099C39.1513 26.168 39.034 26.2034 38.8639 26.2152L38.1366 26.2623C37.9371 26.2741 37.7846 26.3095 37.6791 26.3743C37.5735 26.4333 37.5207 26.5335 37.5207 26.675C37.5207 26.7693 37.5442 26.8459 37.5852 26.9049C37.6321 26.9638 37.6908 27.011 37.7612 27.0404C37.8316 27.0699 37.9078 27.0935 37.9841 27.0994C38.0603 27.1053 38.1366 27.1171 38.2187 27.1171C38.336 27.1171 38.4474 27.1053 38.5647 27.0817C38.6821 27.0581 38.7876 27.0169 38.8873 26.9638C38.9871 26.9108 39.0633 26.8459 39.122 26.7634C39.1806 26.6809 39.2099 26.5865 39.2099 26.4745V26.115L39.2158 26.1091Z" fill="#040A45"/>
<path d="M37.4269 25.8497C37.4621 25.6021 37.5559 25.4312 37.7084 25.331C37.8609 25.2308 38.0955 25.1836 38.424 25.1836C38.7524 25.1836 38.9988 25.2249 39.163 25.3133C39.3272 25.4017 39.4094 25.5491 39.4094 25.7613V26.8577C39.4094 26.9461 39.4152 27.0051 39.4328 27.0404C39.4504 27.0758 39.4856 27.0935 39.5501 27.0935C39.6088 27.0935 39.6733 27.0817 39.7378 27.064V27.2173C39.6792 27.235 39.5971 27.2468 39.5032 27.2468C39.3859 27.2468 39.3096 27.2173 39.2803 27.1524C39.251 27.0876 39.2393 26.9756 39.2393 26.8164H39.2334C39.1747 26.9108 39.1044 26.9874 39.0222 27.0522C38.9343 27.1112 38.8463 27.1583 38.7524 27.1937C38.6586 27.2232 38.5647 27.2468 38.4768 27.2585C38.3888 27.2703 38.3008 27.2762 38.2128 27.2762C38.1248 27.2762 38.0427 27.2762 37.9606 27.2644C37.8785 27.2526 37.7847 27.235 37.6849 27.1937C37.5852 27.1524 37.5031 27.0935 37.4327 27.011C37.3623 26.9284 37.3271 26.8164 37.3271 26.675C37.3271 26.5806 37.3506 26.4922 37.3917 26.4215C37.4327 26.3508 37.4914 26.2918 37.5676 26.2505C37.6439 26.2093 37.726 26.1739 37.8198 26.1503C37.9137 26.1268 38.0193 26.115 38.1366 26.1091L38.8873 26.0619C39.0105 26.056 39.0985 26.0324 39.1454 26.003C39.1923 25.9676 39.2158 25.8969 39.2158 25.7849C39.2158 25.6375 39.1571 25.5314 39.0398 25.4548C38.9225 25.3781 38.7172 25.3428 38.4181 25.3428C38.1424 25.3428 37.9489 25.384 37.8374 25.4606C37.7201 25.5373 37.6497 25.6729 37.6204 25.8556H37.4269V25.8497ZM39.2158 26.1091H39.2099C39.1513 26.168 39.034 26.2034 38.8639 26.2152L38.1366 26.2623C37.9371 26.2741 37.7846 26.3095 37.6791 26.3743C37.5735 26.4333 37.5207 26.5335 37.5207 26.675C37.5207 26.7693 37.5442 26.8459 37.5852 26.9049C37.6321 26.9638 37.6908 27.011 37.7612 27.0404C37.8316 27.0699 37.9078 27.0935 37.9841 27.0994C38.0603 27.1053 38.1366 27.1171 38.2187 27.1171C38.336 27.1171 38.4474 27.1053 38.5647 27.0817C38.6821 27.0581 38.7876 27.0169 38.8873 26.9638C38.9871 26.9108 39.0633 26.8459 39.122 26.7634C39.1806 26.6809 39.2099 26.5865 39.2099 26.4745V26.115L39.2158 26.1091Z" stroke="#D9D9D9" stroke-width="0.134842"/>
<path d="M37.4269 25.8497C37.4621 25.6021 37.5559 25.4312 37.7084 25.331C37.8609 25.2308 38.0955 25.1836 38.424 25.1836C38.7524 25.1836 38.9988 25.2249 39.163 25.3133C39.3272 25.4017 39.4094 25.5491 39.4094 25.7613V26.8577C39.4094 26.9461 39.4152 27.0051 39.4328 27.0404C39.4504 27.0758 39.4856 27.0935 39.5501 27.0935C39.6088 27.0935 39.6733 27.0817 39.7378 27.064V27.2173C39.6792 27.235 39.5971 27.2468 39.5032 27.2468C39.3859 27.2468 39.3096 27.2173 39.2803 27.1524C39.251 27.0876 39.2393 26.9756 39.2393 26.8164H39.2334C39.1747 26.9108 39.1044 26.9874 39.0222 27.0522C38.9343 27.1112 38.8463 27.1583 38.7524 27.1937C38.6586 27.2232 38.5647 27.2468 38.4768 27.2585C38.3888 27.2703 38.3008 27.2762 38.2128 27.2762C38.1248 27.2762 38.0427 27.2762 37.9606 27.2644C37.8785 27.2526 37.7847 27.235 37.6849 27.1937C37.5852 27.1524 37.5031 27.0935 37.4327 27.011C37.3623 26.9284 37.3271 26.8164 37.3271 26.675C37.3271 26.5806 37.3506 26.4922 37.3917 26.4215C37.4327 26.3508 37.4914 26.2918 37.5676 26.2505C37.6439 26.2093 37.726 26.1739 37.8198 26.1503C37.9137 26.1268 38.0193 26.115 38.1366 26.1091L38.8873 26.0619C39.0105 26.056 39.0985 26.0324 39.1454 26.003C39.1923 25.9676 39.2158 25.8969 39.2158 25.7849C39.2158 25.6375 39.1571 25.5314 39.0398 25.4548C38.9225 25.3781 38.7172 25.3428 38.4181 25.3428C38.1424 25.3428 37.9489 25.384 37.8374 25.4606C37.7201 25.5373 37.6497 25.6729 37.6204 25.8556H37.4269V25.8497ZM39.2158 26.1091H39.2099C39.1513 26.168 39.034 26.2034 38.8639 26.2152L38.1366 26.2623C37.9371 26.2741 37.7846 26.3095 37.6791 26.3743C37.5735 26.4333 37.5207 26.5335 37.5207 26.675C37.5207 26.7693 37.5442 26.8459 37.5852 26.9049C37.6321 26.9638 37.6908 27.011 37.7612 27.0404C37.8316 27.0699 37.9078 27.0935 37.9841 27.0994C38.0603 27.1053 38.1366 27.1171 38.2187 27.1171C38.336 27.1171 38.4474 27.1053 38.5647 27.0817C38.6821 27.0581 38.7876 27.0169 38.8873 26.9638C38.9871 26.9108 39.0633 26.8459 39.122 26.7634C39.1806 26.6809 39.2099 26.5865 39.2099 26.4745V26.115L39.2158 26.1091Z" stroke="#040A45" stroke-width="0.134842"/>
<path d="M40.1441 24.5859H40.3376V25.2461H40.9769V25.3994H40.3376V26.8141C40.3376 26.9261 40.3669 27.0028 40.4315 27.0382C40.496 27.0735 40.5957 27.0912 40.7247 27.0912C40.7658 27.0912 40.8244 27.0912 40.9066 27.0735C40.9359 27.0735 40.9652 27.0735 40.9945 27.0676V27.2209C40.9124 27.2386 40.8068 27.2445 40.6661 27.2445C40.4491 27.2445 40.3083 27.2032 40.2438 27.1266C40.1792 27.0499 40.1441 26.9144 40.1441 26.7139V25.3994H39.6572V25.2461H40.1441V24.5859Z" fill="#040A45"/>
<path d="M40.1441 24.5859H40.3376V25.2461H40.9769V25.3994H40.3376V26.8141C40.3376 26.9261 40.3669 27.0028 40.4315 27.0382C40.496 27.0735 40.5957 27.0912 40.7247 27.0912C40.7658 27.0912 40.8244 27.0912 40.9066 27.0735C40.9359 27.0735 40.9652 27.0735 40.9945 27.0676V27.2209C40.9124 27.2386 40.8068 27.2445 40.6661 27.2445C40.4491 27.2445 40.3083 27.2032 40.2438 27.1266C40.1792 27.0499 40.1441 26.9144 40.1441 26.7139V25.3994H39.6572V25.2461H40.1441V24.5859Z" stroke="#D9D9D9" stroke-width="0.134842"/>
<path d="M40.1441 24.5859H40.3376V25.2461H40.9769V25.3994H40.3376V26.8141C40.3376 26.9261 40.3669 27.0028 40.4315 27.0382C40.496 27.0735 40.5957 27.0912 40.7247 27.0912C40.7658 27.0912 40.8244 27.0912 40.9066 27.0735C40.9359 27.0735 40.9652 27.0735 40.9945 27.0676V27.2209C40.9124 27.2386 40.8068 27.2445 40.6661 27.2445C40.4491 27.2445 40.3083 27.2032 40.2438 27.1266C40.1792 27.0499 40.1441 26.9144 40.1441 26.7139V25.3994H39.6572V25.2461H40.1441V24.5859Z" stroke="#040A45" stroke-width="0.134842"/>
<path d="M41.4829 25.3944H40.9785V25.2411H41.4829V24.9464C41.4829 24.7754 41.524 24.6516 41.6002 24.5691C41.6765 24.4866 41.8231 24.4453 42.0284 24.4453C42.0871 24.4453 42.1926 24.4512 42.3451 24.4689H42.3627V24.6222C42.3158 24.6163 42.2689 24.6104 42.2102 24.6045C42.1516 24.6045 42.1047 24.6045 42.0577 24.6045C42.0167 24.6045 41.9815 24.6045 41.9404 24.6045C41.9052 24.6045 41.8642 24.6222 41.8231 24.6398C41.7821 24.6575 41.7469 24.687 41.7176 24.7283C41.6882 24.7695 41.6765 24.8226 41.6765 24.8933V25.2411H42.2982V25.3944H41.6765V27.204H41.4829V25.3944Z" fill="#040A45"/>
<path d="M41.4829 25.3944H40.9785V25.2411H41.4829V24.9464C41.4829 24.7754 41.524 24.6516 41.6002 24.5691C41.6765 24.4866 41.8231 24.4453 42.0284 24.4453C42.0871 24.4453 42.1926 24.4512 42.3451 24.4689H42.3627V24.6222C42.3158 24.6163 42.2689 24.6104 42.2102 24.6045C42.1516 24.6045 42.1047 24.6045 42.0577 24.6045C42.0167 24.6045 41.9815 24.6045 41.9404 24.6045C41.9052 24.6045 41.8642 24.6222 41.8231 24.6398C41.7821 24.6575 41.7469 24.687 41.7176 24.7283C41.6882 24.7695 41.6765 24.8226 41.6765 24.8933V25.2411H42.2982V25.3944H41.6765V27.204H41.4829V25.3944Z" stroke="#D9D9D9" stroke-width="0.134842"/>
<path d="M41.4829 25.3944H40.9785V25.2411H41.4829V24.9464C41.4829 24.7754 41.524 24.6516 41.6002 24.5691C41.6765 24.4866 41.8231 24.4453 42.0284 24.4453C42.0871 24.4453 42.1926 24.4512 42.3451 24.4689H42.3627V24.6222C42.3158 24.6163 42.2689 24.6104 42.2102 24.6045C42.1516 24.6045 42.1047 24.6045 42.0577 24.6045C42.0167 24.6045 41.9815 24.6045 41.9404 24.6045C41.9052 24.6045 41.8642 24.6222 41.8231 24.6398C41.7821 24.6575 41.7469 24.687 41.7176 24.7283C41.6882 24.7695 41.6765 24.8226 41.6765 24.8933V25.2411H42.2982V25.3944H41.6765V27.204H41.4829V25.3944Z" stroke="#040A45" stroke-width="0.134842"/>
<path d="M42.462 25.8281C42.5148 25.7043 42.5969 25.5923 42.7025 25.4921C42.8081 25.3978 42.9371 25.3212 43.0896 25.2622C43.2421 25.2092 43.4122 25.1797 43.594 25.1797C43.7758 25.1797 43.9518 25.2092 44.1043 25.2622C44.2568 25.3153 44.38 25.3919 44.4856 25.4921C44.5911 25.5864 44.6674 25.6984 44.726 25.8281C44.7847 25.9578 44.8082 26.0875 44.8082 26.2231C44.8082 26.3586 44.7788 26.4942 44.726 26.618C44.6732 26.7418 44.5911 26.8538 44.4856 26.954C44.38 27.0483 44.2509 27.125 44.1043 27.1839C43.9518 27.237 43.7817 27.2664 43.594 27.2664C43.4063 27.2664 43.2421 27.237 43.0896 27.1839C42.9371 27.1308 42.8081 27.0542 42.7025 26.954C42.5969 26.8597 42.5207 26.7477 42.462 26.618C42.4033 26.4883 42.3799 26.3586 42.3799 26.2231C42.3799 26.0875 42.4092 25.9519 42.462 25.8281ZM42.638 26.5532C42.679 26.6593 42.7435 26.7536 42.8315 26.8361C42.9195 26.9186 43.0251 26.9894 43.1541 27.0365C43.2832 27.0837 43.4298 27.1073 43.5882 27.1073C43.7465 27.1073 43.899 27.0837 44.0281 27.0365C44.1571 26.9894 44.2627 26.9186 44.3507 26.8361C44.4386 26.7536 44.4973 26.6593 44.5442 26.5532C44.5853 26.4471 44.6087 26.3351 44.6087 26.2231C44.6087 26.1111 44.5853 25.9991 44.5442 25.893C44.5032 25.7868 44.4386 25.6925 44.3507 25.61C44.2627 25.5275 44.1571 25.4567 44.0281 25.4096C43.899 25.3624 43.7524 25.3388 43.5882 25.3388C43.4239 25.3388 43.2773 25.3624 43.1482 25.4096C43.0192 25.4567 42.9136 25.5275 42.8257 25.61C42.7377 25.6925 42.679 25.7868 42.6321 25.893C42.591 25.9991 42.5676 26.1111 42.5676 26.2231C42.5676 26.3351 42.591 26.4471 42.6321 26.5532H42.638Z" fill="#040A45"/>
<path d="M42.462 25.8281C42.5148 25.7043 42.5969 25.5923 42.7025 25.4921C42.8081 25.3978 42.9371 25.3212 43.0896 25.2622C43.2421 25.2092 43.4122 25.1797 43.594 25.1797C43.7758 25.1797 43.9518 25.2092 44.1043 25.2622C44.2568 25.3153 44.38 25.3919 44.4856 25.4921C44.5911 25.5864 44.6674 25.6984 44.726 25.8281C44.7847 25.9578 44.8082 26.0875 44.8082 26.2231C44.8082 26.3586 44.7788 26.4942 44.726 26.618C44.6732 26.7418 44.5911 26.8538 44.4856 26.954C44.38 27.0483 44.2509 27.125 44.1043 27.1839C43.9518 27.237 43.7817 27.2664 43.594 27.2664C43.4063 27.2664 43.2421 27.237 43.0896 27.1839C42.9371 27.1308 42.8081 27.0542 42.7025 26.954C42.5969 26.8597 42.5207 26.7477 42.462 26.618C42.4033 26.4883 42.3799 26.3586 42.3799 26.2231C42.3799 26.0875 42.4092 25.9519 42.462 25.8281ZM42.638 26.5532C42.679 26.6593 42.7435 26.7536 42.8315 26.8361C42.9195 26.9186 43.0251 26.9894 43.1541 27.0365C43.2832 27.0837 43.4298 27.1073 43.5882 27.1073C43.7465 27.1073 43.899 27.0837 44.0281 27.0365C44.1571 26.9894 44.2627 26.9186 44.3507 26.8361C44.4386 26.7536 44.4973 26.6593 44.5442 26.5532C44.5853 26.4471 44.6087 26.3351 44.6087 26.2231C44.6087 26.1111 44.5853 25.9991 44.5442 25.893C44.5032 25.7868 44.4386 25.6925 44.3507 25.61C44.2627 25.5275 44.1571 25.4567 44.0281 25.4096C43.899 25.3624 43.7524 25.3388 43.5882 25.3388C43.4239 25.3388 43.2773 25.3624 43.1482 25.4096C43.0192 25.4567 42.9136 25.5275 42.8257 25.61C42.7377 25.6925 42.679 25.7868 42.6321 25.893C42.591 25.9991 42.5676 26.1111 42.5676 26.2231C42.5676 26.3351 42.591 26.4471 42.6321 26.5532H42.638Z" stroke="#D9D9D9" stroke-width="0.134842"/>
<path d="M42.462 25.8281C42.5148 25.7043 42.5969 25.5923 42.7025 25.4921C42.8081 25.3978 42.9371 25.3212 43.0896 25.2622C43.2421 25.2092 43.4122 25.1797 43.594 25.1797C43.7758 25.1797 43.9518 25.2092 44.1043 25.2622C44.2568 25.3153 44.38 25.3919 44.4856 25.4921C44.5911 25.5864 44.6674 25.6984 44.726 25.8281C44.7847 25.9578 44.8082 26.0875 44.8082 26.2231C44.8082 26.3586 44.7788 26.4942 44.726 26.618C44.6732 26.7418 44.5911 26.8538 44.4856 26.954C44.38 27.0483 44.2509 27.125 44.1043 27.1839C43.9518 27.237 43.7817 27.2664 43.594 27.2664C43.4063 27.2664 43.2421 27.237 43.0896 27.1839C42.9371 27.1308 42.8081 27.0542 42.7025 26.954C42.5969 26.8597 42.5207 26.7477 42.462 26.618C42.4033 26.4883 42.3799 26.3586 42.3799 26.2231C42.3799 26.0875 42.4092 25.9519 42.462 25.8281ZM42.638 26.5532C42.679 26.6593 42.7435 26.7536 42.8315 26.8361C42.9195 26.9186 43.0251 26.9894 43.1541 27.0365C43.2832 27.0837 43.4298 27.1073 43.5882 27.1073C43.7465 27.1073 43.899 27.0837 44.0281 27.0365C44.1571 26.9894 44.2627 26.9186 44.3507 26.8361C44.4386 26.7536 44.4973 26.6593 44.5442 26.5532C44.5853 26.4471 44.6087 26.3351 44.6087 26.2231C44.6087 26.1111 44.5853 25.9991 44.5442 25.893C44.5032 25.7868 44.4386 25.6925 44.3507 25.61C44.2627 25.5275 44.1571 25.4567 44.0281 25.4096C43.899 25.3624 43.7524 25.3388 43.5882 25.3388C43.4239 25.3388 43.2773 25.3624 43.1482 25.4096C43.0192 25.4567 42.9136 25.5275 42.8257 25.61C42.7377 25.6925 42.679 25.7868 42.6321 25.893C42.591 25.9991 42.5676 26.1111 42.5676 26.2231C42.5676 26.3351 42.591 26.4471 42.6321 26.5532H42.638Z" stroke="#040A45" stroke-width="0.134842"/>
<path d="M45.1348 25.2425H45.3283V25.7082H45.3342C45.4046 25.5373 45.516 25.4076 45.6744 25.3192C45.8269 25.2308 46.0146 25.1836 46.2257 25.1836C46.2727 25.1836 46.3254 25.1895 46.3841 25.2072V25.384C46.3841 25.384 46.3313 25.3722 46.2961 25.3663C46.2609 25.3604 46.2199 25.3663 46.1612 25.3663C45.8973 25.3663 45.692 25.443 45.5453 25.5962C45.3987 25.7495 45.3225 25.9381 45.3225 26.1503V27.2114H45.1289V25.2484L45.1348 25.2425Z" fill="#040A45"/>
<path d="M45.1348 25.2425H45.3283V25.7082H45.3342C45.4046 25.5373 45.516 25.4076 45.6744 25.3192C45.8269 25.2308 46.0146 25.1836 46.2257 25.1836C46.2727 25.1836 46.3254 25.1895 46.3841 25.2072V25.384C46.3841 25.384 46.3313 25.3722 46.2961 25.3663C46.2609 25.3604 46.2199 25.3663 46.1612 25.3663C45.8973 25.3663 45.692 25.443 45.5453 25.5962C45.3987 25.7495 45.3225 25.9381 45.3225 26.1503V27.2114H45.1289V25.2484L45.1348 25.2425Z" stroke="#D9D9D9" stroke-width="0.134842"/>
<path d="M45.1348 25.2425H45.3283V25.7082H45.3342C45.4046 25.5373 45.516 25.4076 45.6744 25.3192C45.8269 25.2308 46.0146 25.1836 46.2257 25.1836C46.2727 25.1836 46.3254 25.1895 46.3841 25.2072V25.384C46.3841 25.384 46.3313 25.3722 46.2961 25.3663C46.2609 25.3604 46.2199 25.3663 46.1612 25.3663C45.8973 25.3663 45.692 25.443 45.5453 25.5962C45.3987 25.7495 45.3225 25.9381 45.3225 26.1503V27.2114H45.1289V25.2484L45.1348 25.2425Z" stroke="#040A45" stroke-width="0.134842"/>
<path d="M46.6221 25.2425H46.8156V25.5785H46.8215C46.9036 25.4548 47.0209 25.3545 47.1676 25.2897C47.3142 25.219 47.4726 25.1836 47.6485 25.1836C47.889 25.1836 48.0767 25.2249 48.2057 25.3074C48.3348 25.3899 48.4227 25.5019 48.4697 25.6434C48.628 25.3369 48.9037 25.1895 49.3026 25.1895C49.6017 25.1895 49.8304 25.2484 49.9771 25.3663C50.1237 25.4842 50.2 25.6552 50.2 25.8792V27.2055H50.0064V25.9322C50.0064 25.7554 49.9477 25.6139 49.8363 25.5019C49.7249 25.3899 49.5489 25.3369 49.3084 25.3369C49.0503 25.3369 48.8509 25.3958 48.716 25.5137C48.5811 25.6316 48.5107 25.7908 48.5107 26.003V27.2114H48.3172V25.9028C48.3172 25.7259 48.2585 25.5844 48.1471 25.4842C48.0356 25.384 47.8597 25.3369 47.6192 25.3369C47.3787 25.3369 47.1851 25.3958 47.0385 25.5196C46.8919 25.6434 46.8156 25.8143 46.8156 26.0383V27.2055H46.6221V25.2425Z" fill="#040A45"/>
<path d="M46.6221 25.2425H46.8156V25.5785H46.8215C46.9036 25.4548 47.0209 25.3545 47.1676 25.2897C47.3142 25.219 47.4726 25.1836 47.6485 25.1836C47.889 25.1836 48.0767 25.2249 48.2057 25.3074C48.3348 25.3899 48.4227 25.5019 48.4697 25.6434C48.628 25.3369 48.9037 25.1895 49.3026 25.1895C49.6017 25.1895 49.8304 25.2484 49.9771 25.3663C50.1237 25.4842 50.2 25.6552 50.2 25.8792V27.2055H50.0064V25.9322C50.0064 25.7554 49.9477 25.6139 49.8363 25.5019C49.7249 25.3899 49.5489 25.3369 49.3084 25.3369C49.0503 25.3369 48.8509 25.3958 48.716 25.5137C48.5811 25.6316 48.5107 25.7908 48.5107 26.003V27.2114H48.3172V25.9028C48.3172 25.7259 48.2585 25.5844 48.1471 25.4842C48.0356 25.384 47.8597 25.3369 47.6192 25.3369C47.3787 25.3369 47.1851 25.3958 47.0385 25.5196C46.8919 25.6434 46.8156 25.8143 46.8156 26.0383V27.2055H46.6221V25.2425Z" stroke="#D9D9D9" stroke-width="0.134842"/>
<path d="M46.6221 25.2425H46.8156V25.5785H46.8215C46.9036 25.4548 47.0209 25.3545 47.1676 25.2897C47.3142 25.219 47.4726 25.1836 47.6485 25.1836C47.889 25.1836 48.0767 25.2249 48.2057 25.3074C48.3348 25.3899 48.4227 25.5019 48.4697 25.6434C48.628 25.3369 48.9037 25.1895 49.3026 25.1895C49.6017 25.1895 49.8304 25.2484 49.9771 25.3663C50.1237 25.4842 50.2 25.6552 50.2 25.8792V27.2055H50.0064V25.9322C50.0064 25.7554 49.9477 25.6139 49.8363 25.5019C49.7249 25.3899 49.5489 25.3369 49.3084 25.3369C49.0503 25.3369 48.8509 25.3958 48.716 25.5137C48.5811 25.6316 48.5107 25.7908 48.5107 26.003V27.2114H48.3172V25.9028C48.3172 25.7259 48.2585 25.5844 48.1471 25.4842C48.0356 25.384 47.8597 25.3369 47.6192 25.3369C47.3787 25.3369 47.1851 25.3958 47.0385 25.5196C46.8919 25.6434 46.8156 25.8143 46.8156 26.0383V27.2055H46.6221V25.2425Z" stroke="#040A45" stroke-width="0.134842"/>
</g>
</g>
<defs>
<clipPath id="clip0_2054_93280">
<rect width="61" height="35.9579" fill="white" transform="translate(0 0.0195312)"/>
</clipPath>
</defs>
</svg>
