<svg width="118" height="38" viewBox="0 0 118 38" fill="none" xmlns="http://www.w3.org/2000/svg">
<g clip-path="url(#clip0_2054_93588)">
<path d="M0.413086 30.1296V24.4766H1.487V30.0587C1.50336 32.1575 2.60998 33.3405 4.46344 33.3405C6.3169 33.3405 7.37992 32.2556 7.39082 30.1296V24.4766H8.47019V30.0478C8.47019 32.8825 6.85113 34.3544 4.43073 34.3544C2.01033 34.3544 0.413086 32.8825 0.413086 30.1351V30.1296Z" fill="#A39890"/>
<path d="M18.566 24.4766V34.1854H17.7101L11.61 26.2428V34.1854H10.5361V24.4766H11.5446L17.4975 32.2338V24.4766H18.5714H18.566Z" fill="#A39890"/>
<path d="M20.749 24.4766H21.8229V34.1854H20.749V24.4766Z" fill="#A39890"/>
<path d="M58.6025 24.4766H59.6765V34.1854H58.6025V24.4766Z" fill="#A39890"/>
<path d="M22.7588 24.4766H23.9526L27.3325 32.7953L30.7232 24.4766H31.8789L27.7904 34.1854H26.8419L22.7588 24.4766Z" fill="#A39890"/>
<path d="M32.8105 24.4781H39.7665V25.4921H33.8845V28.7956H39.0633V29.8095H33.8845V33.1785H39.7665V34.1815H32.8105V24.4727V24.4781Z" fill="#A39890"/>
<path d="M55.8495 31.6758C55.8495 30.7763 55.3752 30.2585 53.38 29.8278C51.1995 29.3426 50.191 28.6231 50.191 27.0204C50.191 27.0204 50.1201 24.3438 53.3146 24.3438C54.6938 24.3438 55.686 24.7471 56.6509 25.5376L56.024 26.3826C55.1463 25.6466 54.2577 25.3577 53.2874 25.3577C51.1722 25.3577 51.2649 26.9277 51.2649 26.9277C51.2649 27.849 51.7555 28.3614 53.8434 28.8139C55.9585 29.2881 56.9343 30.0786 56.9343 31.5668C56.9343 31.5668 57.087 34.3524 53.6962 34.3524C52.1917 34.3524 50.9542 33.8291 49.8203 32.7879L50.4799 31.9811C51.4721 32.8969 52.4206 33.3439 53.7344 33.3439C55.9531 33.3439 55.8495 31.6758 55.8495 31.6758Z" fill="#A39890"/>
<path d="M63.8431 25.4983H60.834V24.4844H67.9425V25.4983H64.928V34.1932H63.8431V25.4983Z" fill="#A39890"/>
<path d="M71.4032 30.3555L67.8652 24.4844H69.1681L71.9592 29.347L74.783 24.4844H76.0368L72.4934 30.35V34.1932H71.4086V30.3555H71.4032Z" fill="#A39890"/>
<path d="M47.7846 34.1854H49.0657L46.6671 29.917C47.9154 29.6335 48.7931 28.8049 48.7931 27.2677C48.7931 25.3379 47.4248 24.4766 45.664 24.4766H41.5537V34.1854H42.6276V30.026H45.5223L47.7846 34.1854ZM42.6276 25.496H45.6531C46.9942 25.496 47.7083 26.0956 47.7083 27.2731C47.7083 28.4506 46.9887 29.0121 45.6531 29.0121H42.6276V25.496Z" fill="#A39890"/>
<path d="M66.1357 5.06014V20.3185H68.7415V17.0477C68.8233 16.9495 69.8481 15.832 70.1316 15.5158L72.9826 20.3185H76.0354L71.8433 13.6297L75.8664 9.21952H72.661L68.7415 13.6787V5.05469H66.1357V5.06014Z" fill="#A39890"/>
<path d="M47.7039 23.0469C49.1812 23.0469 50.375 22.6053 51.2472 21.7276C52.1195 20.8554 52.561 19.5961 52.561 18.217V9.22222H50.1515C50.1515 9.22222 50.037 9.7292 50.037 10.0508C49.3284 9.40757 48.4507 9.08594 47.3877 9.08594C46.2265 9.08594 45.2944 9.41847 44.6238 10.0726C43.7734 10.9121 43.3428 11.9752 43.3428 14.1175C43.3428 16.2599 43.7734 17.3229 44.6184 18.1624C45.2998 18.833 46.2211 19.1709 47.355 19.1709C48.3962 19.1709 49.2575 18.8384 49.9498 18.217C49.9498 18.6204 49.9498 18.5495 49.9498 18.5495C49.9498 19.2854 49.7754 19.8796 49.4156 20.3157C49.0122 20.8173 48.418 21.0626 47.6112 21.0626C46.063 21.0626 45.2507 20.0432 45.2507 20.0432L43.7898 21.5314C43.7898 21.5314 44.8528 23.0523 47.6984 23.0523L47.7039 23.0469ZM49.6118 15.8892C49.3011 16.5216 48.7669 16.8269 47.9655 16.8269C47.1642 16.8269 46.6245 16.5216 46.3192 15.8892C46.0794 15.4204 45.954 15.126 45.954 14.1175C45.954 13.109 46.0739 12.8092 46.3138 12.3295C46.6245 11.708 47.1587 11.4082 47.9655 11.4082C48.7723 11.4082 49.3066 11.708 49.6118 12.3295C49.8408 12.8092 49.9498 13.109 49.9498 14.1175C49.9498 15.126 49.8408 15.4204 49.6118 15.8892Z" fill="#A39890"/>
<path d="M37.0056 23.0469C38.4884 23.0469 39.6713 22.6053 40.549 21.7276C41.4212 20.8554 41.8573 19.5961 41.8573 18.217V9.22222H39.4478C39.4478 9.22222 39.3333 9.7292 39.3333 10.0508C38.6301 9.40757 37.747 9.08594 36.6894 9.08594C35.5228 9.08594 34.5961 9.41847 33.9311 10.0726C33.0806 10.9121 32.6445 11.9752 32.6445 14.1175C32.6445 16.2599 33.0752 17.3229 33.9256 18.1624C34.607 18.833 35.5228 19.1709 36.6622 19.1709C37.7034 19.1709 38.5647 18.8384 39.257 18.217C39.257 18.6204 39.257 18.5495 39.257 18.5495C39.257 19.2854 39.0771 19.8796 38.7228 20.3157C38.3194 20.8173 37.7306 21.0626 36.9184 21.0626C35.3702 21.0626 34.5634 20.0432 34.5634 20.0432L33.1024 21.5314C33.1024 21.5314 34.1655 23.0523 37.0111 23.0523L37.0056 23.0469ZM38.9081 15.8892C38.6029 16.5216 38.0632 16.8269 37.2618 16.8269C36.4605 16.8269 35.9208 16.5216 35.6155 15.8892C35.3702 15.4204 35.2503 15.126 35.2503 14.1175C35.2503 13.109 35.3702 12.8092 35.6101 12.3295C35.9208 11.708 36.455 11.4082 37.2618 11.4082C38.0686 11.4082 38.6029 11.708 38.9081 12.3295C39.1371 12.8092 39.2516 13.109 39.2516 14.1175C39.2516 15.126 39.1371 15.4204 38.9081 15.8892Z" fill="#A39890"/>
<path d="M15.6904 9.08594C14.3057 9.08594 13.1555 9.54385 12.2778 10.4379C11.4001 11.3264 10.9531 12.782 10.9531 14.7553C10.9531 16.7287 11.4001 18.2006 12.2778 19.1001C13.1555 19.9941 14.3057 20.4466 15.6904 20.4466C17.075 20.4466 18.2416 19.9941 19.1247 19.1001C19.9969 18.2006 20.4439 16.7451 20.4439 14.7553C20.4439 12.7656 19.9969 11.3319 19.1247 10.4379C18.2416 9.54385 17.0859 9.08594 15.6904 9.08594ZM17.1459 17.5519C16.7534 17.9389 16.2736 18.1297 15.6849 18.1297C15.0962 18.1297 14.6382 17.9444 14.2403 17.5519C13.7878 17.0994 13.5534 16.1618 13.5534 14.7553C13.5534 13.3489 13.7878 12.4113 14.2403 11.9588C14.6164 11.5881 15.0907 11.4082 15.6849 11.4082C16.2791 11.4082 16.7643 11.5881 17.1459 11.9588C17.6038 12.4113 17.8382 13.3543 17.8382 14.7553C17.8382 16.1563 17.6038 17.0994 17.1459 17.5519Z" fill="#A39890"/>
<path d="M61.3535 9.22184V15.9434C61.3535 16.6738 61.1627 17.2244 60.7866 17.5788C60.405 17.9495 59.9253 18.1239 59.3256 18.1239C58.726 18.1239 58.2844 17.9549 57.9355 17.6115C57.5539 17.2299 57.3577 16.6684 57.3577 15.9379V9.21639H54.752V16.2432C54.752 17.6006 55.139 18.669 55.8967 19.405C56.6 20.0864 57.5485 20.4353 58.6987 20.4353C59.7508 20.4353 60.634 20.0864 61.359 19.4649C61.359 19.7702 61.4735 20.3099 61.4735 20.3099H63.9702V9.21094H61.3644L61.3535 9.22184Z" fill="#A39890"/>
<path d="M27.1762 9.08594C26.1187 9.08594 25.2301 9.42937 24.4942 10.0508C24.4942 9.74555 24.3852 9.22222 24.3852 9.22222H21.9375V20.3212H24.4942V13.5942C24.4942 12.8637 24.6959 12.3022 25.0993 11.9206C25.4645 11.5772 25.9388 11.4082 26.5493 11.4082C27.1599 11.4082 27.6178 11.5718 27.9558 11.9152C28.3483 12.2913 28.5445 12.8474 28.5445 13.5942V20.3212H31.1557V13.278C31.1557 11.9206 30.7632 10.8576 30.0001 10.1162C29.2968 9.43482 28.3483 9.08594 27.1817 9.08594H27.1762Z" fill="#A39890"/>
<path d="M6.85178 10.0505C6.16491 9.44539 5.14551 9.0856 4.06614 9.0856C2.89955 9.0856 1.96192 9.42903 1.28595 10.0941C0.424637 10.9445 0.00488281 12.4654 0.00488281 14.755C0.00488281 17.0446 0.419186 18.5873 1.2805 19.4377C1.95647 20.1082 2.8941 20.4462 4.06614 20.4462C5.12915 20.4462 6.15401 20.1191 6.85723 19.4759C6.85723 19.7975 6.97171 20.3208 6.97171 20.3208H9.46298V5.0625H6.85723V10.0559L6.85178 10.0505ZM6.19762 17.5516C5.80512 17.9386 5.33085 18.1294 4.73666 18.1294C4.14246 18.1294 3.69 17.944 3.2975 17.5516C2.83959 17.0991 2.61063 16.1615 2.61063 14.755C2.61063 13.3486 2.83959 12.4109 3.2975 11.9585C3.67909 11.5878 4.14791 11.4079 4.73666 11.4079C5.3254 11.4079 5.81603 11.5878 6.19762 11.9585C6.65553 12.4109 6.88449 13.354 6.88449 14.755C6.88449 16.156 6.65553 17.0991 6.19762 17.5516Z" fill="#A39890"/>
<path d="M92.1 20.8147V18.4761L83.0126 7.50794C82.3421 6.71204 81.6116 6.84833 81.3009 7.84047L80.107 11.7654C79.8127 12.7249 79.9217 13.8533 80.8811 14.7909L88.2405 21.9159L91.9201 20.8365C91.9801 20.8201 92.0401 20.8147 92.1 20.8147Z" fill="#F29203"/>
<path d="M116.979 23.7188L99.7036 23.25C99.4965 23.9478 99.1531 24.5692 98.7061 25.0817C98.717 25.0871 98.7224 25.0926 98.7333 25.1035C98.7333 25.1035 99.9817 26.5154 101.246 27.9436L111.898 29.7644C113.228 29.9879 114.084 29.6335 114.88 28.6577L117.666 25.1907C118.309 24.4111 117.998 23.7461 116.979 23.7188Z" fill="#FBC400"/>
<path d="M115.35 16.2052L111.485 13.9102L100.086 23.1011L115.132 17.8678C116.113 17.4862 116.304 16.7394 115.35 16.2052Z" fill="#EA5515"/>
<path d="M98.7666 16.2657L102.228 6.88941C102.664 5.70646 102.463 4.89966 101.525 3.91297L98.494 0.882014C97.7581 0.146082 97.0058 0.435004 96.815 1.41625L96.0791 5.37938C96.1936 5.4448 96.2644 5.48296 96.2644 5.48296C97.2893 6.0499 97.7636 7.0584 97.6763 8.48665L97.0658 17.1598C97.2784 17.2415 97.4747 17.3396 97.6654 17.4487L98.7612 16.2657H98.7666Z" fill="#EA5515"/>
<path d="M88.7647 22.4266L79.432 25.1631C78.4562 25.4466 78.2818 26.2316 79.0395 26.8967L81.8851 29.4152C82.8882 30.2874 83.7876 30.391 84.9379 29.8568L92.1064 26.5096V21.4453L88.7756 22.4211L88.7647 22.4266Z" fill="#F29203"/>
<path d="M114.655 8.40566L113.51 3.79927C113.27 2.82348 112.502 2.62178 111.809 3.35771L98.1973 17.8038C98.4862 18.0328 98.7424 18.3053 98.9605 18.6051C99.571 19.4338 99.9199 20.5022 99.9199 21.6906C99.9199 21.9523 99.9035 22.203 99.8708 22.4538L113.668 11.333C114.709 10.4935 114.96 9.68128 114.655 8.40566Z" fill="#FBC400"/>
<path d="M90.9293 5.04471L92.1014 16.8523H95.4103C95.7756 16.8523 96.1245 16.8905 96.457 16.9668L97.0348 8.44091C97.1003 7.37244 96.8113 6.52203 95.9446 6.04776L92.3685 4.09073C91.4745 3.60011 90.8258 4.04712 90.9239 5.04471H90.9293Z" fill="#FBC400"/>
<path d="M92.9883 26.5319L100.266 37.0749C100.844 37.9035 101.678 37.9307 102.201 36.9822L103.7 34.2892C104.354 33.079 104.196 32.2013 103.373 31.3128L98.2488 25.5234C97.4965 26.1558 96.5262 26.5265 95.4141 26.5265H92.9883V26.5319Z" fill="#EA5515"/>
</g>
<defs>
<clipPath id="clip0_2054_93588">
<rect width="118" height="37.2273" fill="white" transform="translate(0 0.46875)"/>
</clipPath>
</defs>
</svg>
