<svg width="70" height="24" viewBox="0 0 70 24" fill="none" xmlns="http://www.w3.org/2000/svg">
<path d="M27.971 20.3516L20.6554 20.3516C20.4617 20.3516 20.3047 20.5156 20.3047 20.718L20.3047 22.6663C20.3047 22.8687 20.4617 23.0327 20.6554 23.0327L27.971 23.0327C28.1647 23.0327 28.3218 22.8687 28.3218 22.6663L28.3218 20.718C28.3218 20.5156 28.1647 20.3516 27.971 20.3516Z" fill="#754D2D"/>
<path d="M35.4821 1.69531L27.5861 1.69531C27.3924 1.69531 27.2354 1.85937 27.2354 2.06175L27.2354 4.04102C27.2354 4.24339 27.3924 4.40745 27.5861 4.40745L35.4821 4.40745C35.6758 4.40745 35.8328 4.24339 35.8328 4.04102L35.8328 2.06175C35.8328 1.85937 35.6758 1.69531 35.4821 1.69531Z" fill="#754D2D"/>
<path d="M47.181 1.69531L40.463 1.69531C40.2693 1.69531 40.1123 1.85937 40.1123 2.06175L40.1123 4.04102C40.1123 4.24339 40.2693 4.40745 40.463 4.40745L47.181 4.40745C47.3747 4.40745 47.5317 4.24339 47.5317 4.04102L47.5317 2.06175C47.5317 1.85937 47.3747 1.69531 47.181 1.69531Z" fill="#754D2D"/>
<path d="M69.6504 20.25L62.3644 20.25C62.1707 20.25 62.0137 20.4141 62.0137 20.6164L62.0137 22.5647C62.0137 22.7671 62.1707 22.9312 62.3644 22.9312L69.6504 22.9312C69.8441 22.9312 70.0011 22.7671 70.0011 22.5647L70.0011 20.6164C70.0011 20.4141 69.8441 20.25 69.6504 20.25Z" fill="#754D2D"/>
<path d="M25.1133 7.57813L20.922 7.57813C20.7283 7.57813 20.5713 7.74218 20.5713 7.94456L20.5713 9.89286C20.5713 10.0952 20.7283 10.2593 20.922 10.2593L25.1133 10.2593C25.307 10.2593 25.464 10.0952 25.464 9.89286L25.464 7.94456C25.464 7.74218 25.307 7.57813 25.1133 7.57813Z" fill="#754D2D"/>
<path d="M26.0488 21.2472L26.0488 7.94456C26.0488 7.74218 25.8918 7.57812 25.6981 7.57812L22.9887 7.57812C22.795 7.57812 22.638 7.74218 22.638 7.94456L22.638 21.2472C22.638 21.4496 22.795 21.6136 22.9887 21.6136L25.6981 21.6136C25.8918 21.6136 26.0488 21.4496 26.0488 21.2472Z" fill="#754D2D"/>
<path d="M66.7969 1.71094L62.6056 1.71094C62.4119 1.71094 62.2549 1.875 62.2549 2.07737L62.2549 4.02567C62.2549 4.22805 62.4119 4.39211 62.6056 4.39211L66.7969 4.39211C66.9906 4.39211 67.1476 4.22805 67.1476 4.02567L67.1476 2.07737C67.1476 1.875 66.9906 1.71094 66.7969 1.71094Z" fill="#754D2D"/>
<path d="M67.7324 21.8467L67.7324 2.06175C67.7324 1.85937 67.5754 1.69531 67.3817 1.69531L64.6723 1.69531C64.4786 1.69531 64.3216 1.85937 64.3216 2.06175L64.3216 21.8467C64.3216 22.0491 64.4786 22.2131 64.6723 22.2131L67.3817 22.2131C67.5754 22.2131 67.7324 22.0491 67.7324 21.8467Z" fill="#754D2D"/>
<path d="M7.66538 20.3516L0.34974 20.3516C0.156044 20.3516 -0.000976562 20.5156 -0.000976562 20.718L-0.000976562 22.6663C-0.000976562 22.8687 0.156044 23.0327 0.34974 23.0327L7.66538 23.0327C7.85908 23.0327 8.0161 22.8687 8.0161 22.6663L8.0161 20.718C8.0161 20.5156 7.85908 20.3516 7.66538 20.3516Z" fill="#754D2D"/>
<path d="M16.7145 20.3516L12.3478 20.3516C12.1541 20.3516 11.9971 20.5156 11.9971 20.718L11.9971 22.6663C11.9971 22.8687 12.1541 23.0327 12.3478 23.0327L16.7145 23.0327C16.9081 23.0327 17.0652 22.8687 17.0652 22.6663L17.0652 20.718C17.0652 20.5156 16.9081 20.3516 16.7145 20.3516Z" fill="#754D2D"/>
<path d="M7.66636 1.75L0.350716 1.75C0.157021 1.75 0 1.91406 0 2.11644L5.03375e-10 4.06474C5.47385e-10 4.26711 0.157021 4.43117 0.350716 4.43117L7.66636 4.43117C7.86006 4.43117 8.01708 4.26711 8.01708 4.06474L8.01708 2.11644C8.01708 1.91406 7.86006 1.75 7.66636 1.75Z" fill="#754D2D"/>
<path d="M9.1141 11.7422L2.90247 11.7422C2.70878 11.7422 2.55176 11.9062 2.55176 12.1086L2.55176 14.0569C2.55176 14.2593 2.70878 14.4234 2.90247 14.4234L9.1141 14.4234C9.3078 14.4234 9.46482 14.2593 9.46482 14.0569L9.46482 12.1086C9.46482 11.9062 9.3078 11.7422 9.1141 11.7422Z" fill="#754D2D"/>
<path d="M5.74219 21.2393L5.74219 2.24144C5.74219 2.03906 5.58517 1.875 5.39147 1.875L2.68207 1.875C2.48837 1.875 2.33135 2.03906 2.33135 2.24144L2.33135 21.2393C2.33135 21.4417 2.48837 21.6057 2.68207 21.6057L5.39147 21.6057C5.58517 21.6057 5.74219 21.4417 5.74219 21.2393Z" fill="#754D2D"/>
<path d="M7.32024 4.43375C7.32024 4.43375 8.46377 4.50601 9.05159 4.6789C9.63941 4.8518 11.4078 5.56403 11.4078 7.80135C11.4078 10.0387 10.4125 11.7418 7.15723 11.7418L7.15723 14.4282L7.85125 14.4282L12.0376 22.8484L14.9174 20.3556L11.3559 13.4579C11.3559 13.4579 14.9002 11.7212 14.9002 8.09811C14.9002 4.47504 13.8678 1.75 7.26837 1.75" fill="#754D2D"/>
<path d="M20.6829 6.13985C22.0579 6.13985 23.1725 4.97527 23.1725 3.53868C23.1725 2.10209 22.0579 0.9375 20.6829 0.9375C19.308 0.9375 18.1934 2.10209 18.1934 3.53868C18.1934 4.97527 19.308 6.13985 20.6829 6.13985Z" fill="#754D2D"/>
<path d="M29.5609 4.4073L35.2514 23.2478L39.1982 23.2478L45.6568 3.95313L42.5077 4.4073L37.7583 19.2505L33.5077 3.95313L29.4473 4.06151L29.5609 4.4073Z" fill="#754D2D"/>
<path d="M58.247 20.2745L58.247 10.9536C58.247 8.46852 56.318 6.45313 53.9396 6.45313L51.6402 6.45313C49.0616 6.45313 46.9697 8.63883 46.9697 11.3329L49.7655 11.3329C49.7655 11.3329 49.568 8.99495 52.4503 8.99495C54.473 8.99495 54.9695 10.4762 54.9695 11.6013C54.9695 12.2851 54.9744 12.8374 54.9744 12.8374C54.9744 12.8374 50.1879 12.8812 48.2836 14.3289C46.2287 15.8927 45.6162 18.1249 46.7252 20.6925C47.8341 23.2601 52.2872 23.6266 55.0806 20.9996C55.0806 20.9996 55.009 22.9324 56.7848 22.9324L59.2719 21.0073C59.1682 20.9944 59.0447 20.9712 58.9113 20.9712C58.5433 20.9712 58.247 20.6615 58.247 20.277L58.247 20.2745ZM55.0115 17.8333C55.0115 17.8333 54.9324 19.8254 52.6725 20.0345C50.4126 20.2435 49.768 19.7042 49.6124 18.5842C49.4692 17.5546 49.4963 15.8488 52.5639 15.2914C53.0183 15.2089 53.4826 15.1753 53.9445 15.1753L55.0115 15.1753L55.0115 17.8333Z" fill="#754D2D"/>
<path d="M59.2725 21.0083C59.4552 21.0315 59.5763 21.0186 59.5763 20.7734L59.2725 21.0083Z" fill="#754D2D"/>
<path d="M59.2303 20.25L56.7481 20.25C56.5572 20.25 56.4023 20.4117 56.4023 20.6113L56.4023 22.5699C56.4023 22.7694 56.5572 22.9312 56.7481 22.9312L59.2303 22.9312C59.4213 22.9312 59.5761 22.7694 59.5761 22.5699L59.5761 20.6113C59.5761 20.4117 59.4213 20.25 59.2303 20.25Z" fill="#754D2D"/>
</svg>
