<svg width="79" height="25" viewBox="0 0 79 25" fill="none" xmlns="http://www.w3.org/2000/svg">
<path d="M78.9994 7.43837C78.9994 8.93799 77.7467 10.1502 76.197 10.1502C74.6472 10.1502 73.3945 8.93799 73.3945 7.43837C73.3945 5.93875 74.6472 4.72656 76.197 4.72656C77.7467 4.72656 78.9994 5.93875 78.9994 7.43837Z" fill="#11BAD9"/>
<path d="M8.43588 5.01486C7.91931 5.70219 7.26067 6.08959 6.95072 5.87714C6.64078 5.66469 6.79575 4.92738 7.31233 4.22756C7.82891 3.54024 8.48754 3.15284 8.8104 3.36528C9.12035 3.57773 8.96538 4.31504 8.4488 5.01486M16.7399 21.8356C17.6051 20.6734 17.3468 19.0488 16.1458 18.2115C14.9448 17.3742 13.2659 17.6241 12.4006 18.7863C12.2456 18.9863 11.9874 19.2237 11.742 19.3237C10.7476 19.7111 9.9727 19.2862 9.64984 18.8988C9.28824 18.4489 9.10744 17.9241 9.10744 17.3367L9.10744 10.7634C9.93396 10.4135 10.7347 9.98859 11.4708 9.43873C13.3692 8.01409 14.6994 5.22731 13.1626 2.503C12.5168 1.37829 11.4062 0.603488 10.0373 0.328558C8.21634 -0.0338489 6.34375 0.516011 5.1427 1.75319C3.38634 3.57773 3.02474 5.92713 2.70187 8.01409C2.70187 8.06408 2.68896 8.11407 2.67605 8.16406C2.49524 8.22654 2.31444 8.28902 2.12073 8.31402C1.91409 8.35151 1.77204 8.389 1.68163 8.42649C0.403106 8.82639 -0.294274 10.1635 0.118988 11.4007C0.428934 12.338 1.2942 12.9503 2.24987 13.0253C2.43067 13.0378 2.62439 13.0253 2.8181 13.0003L2.8181 17.3367C2.8181 18.349 3.03765 19.3237 3.46383 20.2485C3.89 21.1732 4.48407 21.9855 5.2331 22.6853C5.98214 23.3852 6.84741 23.935 7.82891 24.3599C9.17201 24.9348 11.2254 25.2097 13.1755 24.5349C15.0997 23.7726 16.1587 22.6479 16.7657 21.8356M25.3925 3.04037C25.3925 1.54075 24.1398 0.328558 22.5901 0.328558C21.0404 0.328558 19.7877 1.54075 19.7877 3.04037C19.7877 4.53998 21.0404 5.75217 22.5901 5.75217C24.1398 5.75217 25.3925 4.53998 25.3925 3.04037ZM24.7468 23.4477C25.2892 22.8728 25.5604 22.223 25.5604 21.4607L25.5604 9.68867C25.5604 8.92636 25.2892 8.28902 24.7468 7.70167C24.2044 7.13932 23.5845 6.87689 22.758 6.87689C21.7765 6.87689 21.0275 7.15181 20.4721 7.71417C19.891 8.30152 19.6198 8.92636 19.6198 9.67617L19.6198 21.4607C19.6198 22.2105 19.9039 22.8478 20.4721 23.4227C21.0404 23.985 21.7894 24.2599 22.758 24.2599C23.5845 24.2599 24.2173 23.9975 24.7468 23.4352M52.8099 21.8481L52.8486 21.8481L52.8486 12.0881C52.8486 8.07658 49.478 4.81491 45.3324 4.81491C43.5761 4.81491 41.9618 5.40226 40.6832 6.37701C39.4047 5.40226 37.7904 4.81491 36.034 4.81491C31.8885 4.81491 28.5178 8.07658 28.5178 12.0881L28.5178 21.8731L28.5566 21.8731C28.7374 23.2352 29.9255 24.2974 31.3848 24.2974C32.8442 24.2974 34.0323 23.2352 34.2131 21.8731L34.2518 21.8731L34.2518 12.0881C34.2518 11.1383 35.0525 10.3635 36.034 10.3635C37.0155 10.3635 37.8033 11.1258 37.8162 12.0631C37.8162 12.0631 37.8162 12.0756 37.8162 12.0881L37.8162 21.8731L37.855 21.8731C38.0229 23.2477 39.2239 24.3224 40.6832 24.3224C42.1426 24.3224 43.3436 23.2477 43.5115 21.8731L43.5502 21.8731L43.5502 12.0881C43.5502 12.0881 43.5502 12.0756 43.5502 12.0631C43.5631 11.1258 44.3509 10.3635 45.3324 10.3635C46.3139 10.3635 47.1146 11.1383 47.1146 12.0881L47.1146 21.4857C47.1146 21.4857 47.1146 21.5231 47.1146 21.5481C47.1146 21.5731 47.1146 21.5856 47.1146 21.6106L47.1146 21.8606L47.1404 21.8606C47.2954 23.2477 48.4965 24.3349 49.9687 24.3349C51.4409 24.3349 52.642 23.2477 52.8099 21.8606M78.0189 14.7124C78.0189 14.0625 77.9026 13.5627 77.2182 12.8004C76.7145 12.2505 75.7717 12.138 75.2681 12.263C74.2737 12.5254 73.8475 13.1128 73.4988 14.0126C73.1114 15.0123 72.8143 16.0495 72.1686 16.9368C71.0451 18.4739 69.237 19.7111 67.3515 19.9735C66.1247 20.1485 64.9494 20.061 63.968 19.7236C63.4385 19.5486 63.0252 19.3112 62.4828 18.9988C62.2116 18.8488 61.7983 18.4989 61.54 18.2615C60.7393 17.4867 60.2357 16.6369 59.9386 15.5747C59.8612 15.2622 59.7966 14.9123 59.7708 14.5124C59.6674 13.0878 60.3132 11.2008 61.7596 10.351C62.2245 10.0761 62.6249 9.90111 62.9348 9.83863C63.6451 9.68867 64.3037 9.66367 64.872 9.78864C65.7114 9.9511 66.3829 10.3635 66.835 10.9758L66.8995 11.0633C67.0028 11.1883 67.0932 11.3757 67.1707 11.5757C67.3386 12.0256 67.3644 12.5004 67.2482 12.8878C67.1836 13.0753 67.0803 13.3252 66.8866 13.4877C66.8091 13.5502 66.6412 13.6377 66.4734 13.6627C66.383 13.6751 66.2925 13.6627 66.2538 13.6377C66.1763 13.5877 66.073 13.4377 66.0601 13.3502C65.9439 12.7379 65.6856 11.9881 64.7816 11.6257C64.3812 11.4632 63.9292 11.4132 63.503 11.4757C62.6636 11.5882 61.9404 12.138 61.6175 12.8878C61.1397 14.0126 61.4109 15.1623 61.8371 15.8746C62.2762 16.6244 63.0769 17.6616 64.9365 18.124C65.7372 18.324 66.3571 18.324 67.1062 18.224C67.9327 18.1115 69.1596 17.6991 70.1798 16.6369C73.3697 13.3377 71.962 9.73865 70.7222 8.22654C68.0747 4.68994 63.8388 4.98987 62.599 5.16482C61.8242 5.27729 61.1009 5.46475 60.4811 5.72718C59.0605 6.32703 57.5366 7.62669 56.8779 8.52646C55.1991 10.8384 54.605 13.5252 55.1345 16.3245C55.6511 19.0238 57.5237 21.6606 59.8999 23.0353L59.9903 23.0852C60.2228 23.2227 60.4681 23.3602 60.7135 23.4851C62.457 24.3599 64.3683 24.7723 66.3959 24.7348C66.8866 24.7348 67.3774 24.6848 67.8681 24.6099C67.9843 24.5974 68.1006 24.5724 68.2168 24.5599C69.547 24.3349 70.8513 23.885 72.2203 23.1977C73.77 22.4104 75.2164 20.9858 75.6943 20.2985C76.5079 19.1238 76.934 18.5364 77.4248 17.2492C77.7347 16.4244 78.0189 15.5497 78.0059 14.7374" fill="#11BAD9"/>
</svg>
