<svg width="135" height="24" viewBox="0 0 135 24" fill="none" xmlns="http://www.w3.org/2000/svg">
<g clip-path="url(#clip0_2054_93475)">
<path d="M11.0681 17.2853C6.97861 17.2853 3.65234 14.1956 3.65234 10.3976V1.35156H7.35851V10.3976C7.35851 12.2971 9.0225 13.8432 11.0681 13.8432C13.1137 13.8432 14.7777 12.2979 14.7777 10.3976V1.35156H18.4839V10.3976C18.4839 14.1956 15.1568 17.2853 11.0681 17.2853Z" fill="#002E8B"/>
<path d="M11.1329 23.2581C6.92218 23.2581 2.86362 21.1195 -0.00195312 18.0401L2.65906 15.5781C4.83961 17.9217 7.92866 19.6385 11.1329 19.6385C14.3371 19.6385 17.3015 17.9946 19.5053 15.6862L22.1353 18.1816C19.2397 21.2155 15.3324 23.2581 11.1337 23.2581H11.1329Z" fill="#002E8B"/>
<path d="M29.9638 6.68839C30.8362 6.33938 31.792 6.34967 32.6558 6.71841C33.5196 7.08714 34.1882 7.76888 34.5381 8.63927L37.0074 7.65054C35.7388 4.49569 32.1349 2.959 28.9719 4.22472C25.8098 5.49043 24.2696 9.0869 25.5382 12.2417C26.5052 14.6463 28.8293 16.1109 31.2806 16.1109C32.0447 16.1109 32.8216 15.9686 33.5737 15.6676C35.1053 15.0544 36.3061 13.8831 36.955 12.3687L34.508 11.3259C34.1384 12.1877 33.4551 12.8549 32.5827 13.2039C30.782 13.9251 28.7304 13.0495 28.0076 11.253C27.2856 9.45649 28.1623 7.40957 29.9629 6.68839H29.9638Z" fill="#242424"/>
<path d="M46.7404 10.8033C46.7404 12.2679 45.5457 13.4599 44.0777 13.4599C42.6096 13.4599 41.4149 12.2679 41.4149 10.8033V3.82812H38.7539V10.8041C38.7539 13.7326 41.1425 16.1156 44.0777 16.1156C47.0128 16.1156 49.4014 13.7326 49.4014 10.8041V3.82812H46.7404V10.8041V10.8033Z" fill="#242424"/>
<path d="M57.3299 3.72656C54.0062 3.72656 51.2876 6.35403 51.1475 9.63579H51.1406V19.7958H53.8016V14.9705C54.803 15.6668 56.0191 16.0767 57.3299 16.0767C60.743 16.0767 63.5192 13.3069 63.5192 9.90162C63.5192 6.49638 60.743 3.72656 57.3299 3.72656ZM57.3299 13.4218C55.3848 13.4218 53.8016 11.8431 53.8016 9.90162C53.8016 7.96018 55.384 6.38147 57.3299 6.38147C59.2758 6.38147 60.8581 7.96018 60.8581 9.90162C60.8581 11.8431 59.2758 13.4218 57.3299 13.4218Z" fill="#242424"/>
<path d="M73.8533 3.7191C72.5426 3.7191 71.3272 4.129 70.3251 4.82531V0H67.6641V10.16H67.6709C67.811 13.4418 70.5296 16.0692 73.8533 16.0692C77.177 16.0692 80.0426 13.2994 80.0426 9.89416C80.0426 6.48891 77.2664 3.7191 73.8533 3.7191ZM73.8533 13.4143C71.9083 13.4143 70.3251 11.8356 70.3251 9.89416C70.3251 7.95271 71.9074 6.37401 73.8533 6.37401C75.7992 6.37401 77.3816 7.95271 77.3816 9.89416C77.3816 11.8356 75.7992 13.4143 73.8533 13.4143Z" fill="#242424"/>
<path d="M92.4287 3.76562H89.7677V10.8154C89.7677 12.28 88.573 13.472 87.105 13.472C85.637 13.472 84.4423 12.28 84.4423 10.8154V3.76562H81.7812V10.8154C81.7812 13.7438 84.1698 16.1269 87.105 16.1269C88.0152 16.1269 88.8721 15.8979 89.6216 15.494C89.2039 17.1053 87.6757 17.8385 86.1587 17.8385C85.2175 17.8385 84.2686 17.5067 83.1711 16.7932V19.8717C84.1801 20.3219 85.1677 20.5432 86.1587 20.5432C89.8012 20.5432 92.4442 18.0358 92.4442 14.5808V11.3144L92.4279 3.76562H92.4287Z" fill="#242424"/>
<path d="M101.442 6.50089C102.315 6.15188 103.27 6.16217 104.134 6.53091C104.998 6.89964 105.667 7.58138 106.017 8.45177L108.486 7.46304C107.217 4.30819 103.613 2.7715 100.45 4.03722C97.2883 5.30293 95.7481 8.8994 97.0168 12.0542C97.9837 14.4588 100.308 15.9234 102.759 15.9234C103.523 15.9234 104.3 15.7811 105.052 15.4801C106.584 14.8669 107.785 13.6956 108.433 12.1812L105.986 11.1384C105.617 12.0002 104.934 12.6674 104.061 13.0164C102.261 13.7376 100.209 12.862 99.4861 11.0655C98.7641 9.26899 99.6408 7.22207 101.441 6.50089H101.442Z" fill="#242424"/>
<path d="M118.221 10.6088C118.221 12.0735 117.026 13.2654 115.558 13.2654C114.09 13.2654 112.895 12.0735 112.895 10.6088V3.63281H110.234V10.6088C110.234 13.5373 112.623 15.9203 115.558 15.9203C118.493 15.9203 120.882 13.5373 120.882 10.6088V3.63281H118.221V10.6088Z" fill="#242424"/>
<path d="M128.81 3.53125C125.487 3.53125 122.768 6.15872 122.628 9.44047H122.621V19.6005H125.282V14.7752C126.283 15.4715 127.5 15.8814 128.81 15.8814C132.223 15.8814 135 13.1116 135 9.70631C135 6.30107 132.223 3.53125 128.81 3.53125ZM128.81 13.2256C126.865 13.2256 125.282 11.6469 125.282 9.70545C125.282 7.76401 126.864 6.1853 128.81 6.1853C130.756 6.1853 132.339 7.76401 132.339 9.70545C132.339 11.6469 130.756 13.2256 128.81 13.2256Z" fill="#242424"/>
</g>
<defs>
<clipPath id="clip0_2054_93475">
<rect width="135" height="23.2536" fill="white"/>
</clipPath>
</defs>
</svg>
