<svg width="144" height="26" viewBox="0 0 144 26" fill="none" xmlns="http://www.w3.org/2000/svg">
<path d="M45.582 18.5554L42.8201 18.5554L38.4789 13.0833L38.4789 18.5554L36.2051 18.5554L36.2051 6.76984L38.4789 6.76984L38.4789 12.3928L42.5344 6.76984L45.1455 6.76984L40.7487 12.5793L45.582 18.5554ZM77.0936 11.9722L75.2761 11.9722L75.2761 15.0872C75.2761 16.0634 75.411 16.6348 76.5896 16.6348C76.7404 16.6348 76.9428 16.6189 77.0936 16.6031L77.0936 18.5554C76.8753 18.6229 76.6412 18.6745 76.2047 18.6745C74.0142 18.6745 73.1373 17.2102 73.1373 15.4404L73.1373 11.9722L71.9269 11.9722L71.9269 10.0198L73.1373 10.0198L73.1373 8.23411L75.2761 8.23411L75.2761 10.0198L77.0936 10.0198L77.0936 11.9722ZM89.4704 18.5554L89.4704 10.0198L91.6053 10.0198L91.6053 18.5554L89.4704 18.5554ZM90.5299 8.77379C89.9069 8.77379 89.403 8.26982 89.403 7.62697C89.403 6.98412 89.9069 6.5 90.5299 6.5C91.1529 6.5 91.6728 7.00396 91.6728 7.62697C91.6728 8.24998 91.1688 8.77379 90.5299 8.77379ZM108.45 8.3849C107.355 8.3849 106.986 8.9722 106.986 10.0198L108.819 10.0198L108.819 11.9722L106.986 11.9722L106.986 18.5554L104.847 18.5554L104.847 11.9722L103.653 11.9722L103.653 10.0198L104.847 10.0198C104.847 8.26982 105.621 6.55159 107.927 6.55159C108.351 6.55159 108.534 6.56746 108.819 6.61905L108.819 8.40474C108.704 8.40474 108.585 8.38887 108.45 8.38887L108.45 8.3849ZM126.553 10.0198L128.692 10.0198L128.692 18.5554L126.553 18.5554L126.553 17.5118C126.081 18.2181 125.323 18.7737 124.077 18.7737C121.922 18.7737 120.946 17.0237 120.946 15.2221L120.946 10.0198L123.085 10.0198L123.085 14.7698C123.085 15.865 123.538 16.6904 124.736 16.6904C126.014 16.6904 126.553 15.7658 126.553 14.7698L126.553 10.0198ZM141.319 6.76984L143.458 6.76984L143.458 18.5554L141.319 18.5554L141.319 6.76984Z" fill="black"/>
<path d="M65.1864 12.3867L51.377 12.3867L51.377 13.0415L65.1864 13.0415L65.1864 12.3867Z" fill="black"/>
<path d="M9.3251 12.687C11.0394 11.9251 12.9282 11.4926 14.9203 11.4807C9.72191 11.441 5.3291 7.96486 3.90848 3.21094C3.24182 3.87363 2.65057 4.61172 2.13867 5.40139C3.52755 8.63945 6.11085 11.2505 9.3251 12.687Z" fill="#EA4D1A"/>
<path d="M15.0059 13.9002C14.9779 13.8962 14.9499 13.9002 14.9219 13.9002C14.9499 13.9002 14.9779 13.9002 15.0059 13.9002Z" fill="#EA4D1A"/>
<path d="M15.0038 8.36413L15.0117 8.37206L15.0117 5.95939C11.7221 5.95939 9.04744 3.32053 8.96808 0.0546875C8.15062 0.336431 7.36889 0.69357 6.63477 1.12214C7.22603 5.2094 10.7538 8.36413 15.0038 8.36413Z" fill="#EA4D1A"/>
<path d="M14.9218 13.8938C12.9337 13.8819 11.0409 13.4494 9.32659 12.6875C6.13218 14.1121 3.56478 16.6994 2.16797 19.9057C2.67987 20.6874 3.27111 21.4176 3.9338 22.0723C5.37823 17.366 9.75123 13.9296 14.9178 13.8899L14.9218 13.8938Z" fill="#A12439"/>
<path d="M14.9233 13.897C14.9511 13.897 14.9789 13.897 15.0067 13.897L15.0067 11.4883C14.9789 11.4883 14.9511 11.4883 14.9233 11.4883C12.9352 11.5002 11.0424 11.9327 9.32812 12.6946C11.0424 13.4565 12.9313 13.889 14.9233 13.901L14.9233 13.897Z" fill="#A12439"/>
<path d="M15.0035 19.4283L15.0035 17.0156C10.7893 17.0156 7.2853 20.1148 6.65039 24.1544C7.38054 24.579 8.1583 24.9322 8.96781 25.214C9.11067 21.9997 11.7615 19.4323 15.0075 19.4323L15.0035 19.4283Z" fill="#A12439"/>
<path d="M17.4883 0L17.4883 25.2656C18.3335 24.9878 19.143 24.6228 19.9009 24.1902L19.9009 1.07539C19.139 0.638882 18.3335 0.277775 17.4883 0Z" fill="#6C4E49"/>
<path d="M25.19 18.6303L25.19 6.63836C24.563 5.39631 23.7456 4.2614 22.7773 3.28125L22.7773 21.9874C23.7456 21.0073 24.563 19.8763 25.19 18.6303Z" fill="#6C4E49"/>
<path d="M4.57933 12.6825C2.36507 11.3492 0.972241 9.36507 0.57542 8.75C0.53177 8.88889 0.492068 9.03174 0.456354 9.1746C0.158738 10.2778 -5.90076e-10 11.4365 -8.52428e-10 12.6309C-8.56786e-10 12.6508 -8.60273e-10 12.6666 -8.64631e-10 12.6865C0.00396821 13.865 0.162706 15.0039 0.456354 16.0912C0.500005 16.2579 0.547617 16.4245 0.599204 16.5912C2.17062 14.1269 4.49997 12.7341 4.57933 12.6865C4.57933 12.6865 4.57934 12.6865 4.58331 12.6865L4.57933 12.6825Z" fill="#F28544"/>
</svg>
