<svg width="324" height="157" viewBox="0 0 324 157" fill="none" xmlns="http://www.w3.org/2000/svg">
<circle cx="290.503" cy="21.8781" r="4.87811" fill="#D2FF52"/>
<path d="M108.372 122.846V122.064C109.333 121.751 109.981 121.126 110.338 120.165C110.696 119.204 110.852 117.484 110.852 114.981V87.4319C110.852 84.9518 110.673 83.209 110.338 82.2259C109.981 81.2428 109.333 80.6172 108.372 80.349V79.567C114.74 79.5223 119.052 79.5 121.264 79.5C124.28 79.5 126.895 79.8575 129.129 80.5501C131.363 81.2428 133.084 82.2036 134.29 83.4101C135.497 84.6166 136.413 85.8902 136.971 87.2755C137.53 88.6608 137.821 90.1578 137.821 91.7665C137.821 96.0118 136.301 99.3856 133.262 101.91C130.224 104.435 125.889 105.709 120.259 105.709H115.879V115.004C115.879 117.528 116.058 119.271 116.393 120.21C116.751 121.148 117.399 121.774 118.359 122.064V122.846H108.35H108.372ZM115.902 104.77H120.169C124.102 104.77 127.118 103.743 129.241 101.732C131.363 99.6984 132.413 96.8608 132.413 93.1965C132.413 91.4537 132.19 89.845 131.721 88.3927C131.252 86.9403 130.537 85.5997 129.553 84.3932C128.57 83.1867 127.207 82.2482 125.465 81.5779C123.722 80.9076 121.644 80.5501 119.253 80.5501H115.924V104.77H115.902Z" fill="black"/>
<path d="M147.405 114.534C147.405 117.058 147.584 118.824 147.964 119.807C148.344 120.79 148.992 121.438 149.953 121.728V122.51H140.01V121.728C141.015 121.415 141.686 120.79 141.998 119.829C142.311 118.868 142.49 117.103 142.49 114.534V88.66C142.49 86.5597 142.311 85.1521 141.931 84.4371C141.551 83.7221 140.926 83.2752 140.01 83.0965V82.1804L146.623 79.1641H147.405V114.534Z" fill="black"/>
<path d="M179.867 114.536C179.867 117.105 180.023 118.87 180.359 119.831C180.694 120.792 181.342 121.417 182.347 121.73V122.512H181.364C179.621 122.512 178.124 121.887 176.873 120.658C175.622 119.407 174.996 117.91 174.996 116.167V115.117C174.817 115.34 174.594 115.608 174.348 115.966C174.102 116.323 173.477 116.949 172.538 117.887C171.6 118.826 170.639 119.652 169.701 120.345C168.74 121.038 167.511 121.686 165.992 122.267C164.472 122.847 162.998 123.16 161.501 123.16C159.065 123.16 156.987 122.423 155.289 120.971C153.591 119.518 152.742 117.485 152.742 114.916C152.742 113.642 153.01 112.502 153.524 111.452C154.038 110.402 154.708 109.531 155.49 108.793C156.272 108.056 157.345 107.408 158.663 106.76C160.004 106.135 161.255 105.598 162.439 105.196C163.623 104.794 165.076 104.325 166.819 103.856L174.996 101.621C174.996 98.5155 174.237 96.1024 172.74 94.3596C171.243 92.6168 169.142 91.7455 166.483 91.7455C165.21 91.7455 164.07 92.0583 163.042 92.6839C162.015 93.3095 161.21 94.0692 160.629 94.9182C160.048 95.7673 159.49 96.6163 158.954 97.443C158.417 98.2697 157.881 98.873 157.278 99.2752C156.697 99.6774 156.049 99.722 155.356 99.4092C154.262 98.94 154.195 97.9346 155.155 96.3929C156.429 94.2926 158.596 92.7062 161.702 91.6114C163.579 91.0081 165.523 90.6953 167.534 90.6953C171.466 90.6953 174.505 91.6337 176.627 93.4882C178.772 95.3427 179.845 98.1803 179.845 101.956V114.536H179.867ZM175.041 113.687V102.493L167.109 104.66C165.746 105.017 164.584 105.397 163.579 105.799C162.573 106.224 161.568 106.76 160.562 107.431C159.557 108.101 158.797 108.928 158.261 109.888C157.747 110.849 157.479 111.944 157.479 113.173C157.479 115.228 158.105 116.971 159.333 118.401C160.585 119.853 162.104 120.568 163.892 120.568C165.21 120.568 166.483 120.323 167.757 119.853C169.031 119.384 170.081 118.803 170.907 118.111C171.734 117.44 172.471 116.748 173.142 116.077C173.812 115.407 174.281 114.826 174.572 114.335L175.041 113.687Z" fill="black"/>
<path d="M199.978 118.536C200.067 118.714 200.201 119.027 200.38 119.452C197.766 121.932 195.219 123.183 192.716 123.183C188.471 123.183 186.371 120.167 186.371 114.156V92.0141H182.371V91.098C183.421 91.098 184.427 90.8299 185.387 90.316C186.348 89.8021 187.13 89.1541 187.711 88.3721C188.292 87.6124 188.806 86.8528 189.208 86.1154C189.633 85.3781 189.946 84.7301 190.147 84.1492L190.415 83.3672H191.264V91.098H196.626V92.0141H191.264V114.156C191.264 118.134 192.738 120.122 195.71 120.122C197.14 120.122 198.57 119.608 199.955 118.558L199.978 118.536Z" fill="black"/>
<path d="M218.009 79.708C219.528 79.5293 221.025 79.708 222.5 80.2219C223.952 80.7358 225.047 81.4284 225.784 82.2775C226.499 83.1265 226.7 83.9086 226.343 84.6012C225.985 85.1598 225.516 85.4503 224.935 85.4279C224.354 85.4279 223.863 85.1598 223.461 84.6682C223.237 84.4448 222.88 83.9309 222.388 83.1042C221.874 82.2775 221.383 81.6295 220.891 81.1603C220.4 80.6911 219.774 80.4677 219.037 80.4677C218.031 80.4677 217.182 80.7581 216.512 81.3167C215.841 81.8753 215.35 82.7467 215.037 83.9086C214.724 85.0704 214.523 86.2323 214.411 87.4388C214.3 88.6454 214.255 90.1424 214.255 91.9298H220.869V92.7789H214.255V115.368C214.255 117.893 214.434 119.658 214.814 120.641C215.194 121.624 215.841 122.272 216.802 122.563V123.345H206.859V122.563C207.865 122.25 208.535 121.624 208.893 120.663C209.25 119.703 209.407 117.938 209.407 115.368L209.34 92.7789H204.826V91.9298H209.34C209.429 88.7794 210.256 86.0312 211.797 83.6851C213.339 81.3167 215.439 79.9985 218.053 79.6857L218.009 79.708Z" fill="black"/>
<path d="M235.815 91.5469C237.871 91.5469 239.837 91.8597 241.714 92.4853C243.59 93.1109 245.333 94.0493 246.942 95.2782C248.551 96.5071 249.847 98.1605 250.807 100.283C251.768 102.406 252.237 104.797 252.237 107.455C252.237 110.114 251.746 112.393 250.74 114.561C249.735 116.728 248.417 118.471 246.808 119.789C245.199 121.13 243.434 122.157 241.535 122.895C239.636 123.632 237.736 124.012 235.815 124.012C233.759 124.012 231.793 123.677 229.894 123.029C227.995 122.381 226.252 121.42 224.666 120.191C223.079 118.94 221.783 117.286 220.845 115.186C219.884 113.086 219.393 110.74 219.393 108.103C219.393 103.344 221.024 99.3894 224.308 96.2613C227.593 93.1109 231.413 91.5469 235.837 91.5469H235.815ZM237.714 122.649C240.909 122.649 243.322 121.554 244.976 119.364C246.629 117.175 247.456 114.449 247.456 111.187C247.456 108.394 246.875 105.579 245.713 102.719C244.551 99.8586 242.875 97.4455 240.663 95.4793C238.451 93.5131 236.061 92.597 233.491 92.7311C230.43 92.8651 228.129 94.027 226.542 96.239C224.978 98.451 224.196 101.199 224.196 104.528C224.196 107.277 224.71 110.025 225.76 112.773C226.811 115.521 228.397 117.867 230.542 119.767C232.687 121.688 235.055 122.649 237.669 122.649H237.714Z" fill="black"/>
<path d="M272.416 91.9465C273.332 92.1699 273.913 92.6168 274.159 93.2871C274.404 93.9574 274.337 94.583 273.958 95.1416C273.578 95.7001 273.064 95.9906 272.416 95.9906C272.014 95.9906 271.477 95.9012 270.807 95.7001C270.137 95.4991 269.556 95.365 269.064 95.298C268.573 95.2309 267.835 95.298 266.83 95.5214C264.998 96.013 263.613 97.5323 262.696 100.102V115.295C262.696 117.82 262.875 119.585 263.255 120.568C263.635 121.551 264.283 122.199 265.244 122.49V123.272H255.301V122.49C256.306 122.177 256.977 121.551 257.289 120.591C257.602 119.63 257.781 117.865 257.781 115.295V100.884C257.781 98.7835 257.602 97.3759 257.222 96.6609C256.842 95.9459 256.217 95.4991 255.301 95.3203V94.4042L261.914 91.9241H262.696V97.8898C263.657 95.9683 265.065 94.3819 266.942 93.153C268.819 91.9241 270.628 91.4996 272.371 91.9465H272.416Z" fill="black"/>
<path d="M320.856 115.385C320.856 117.955 321.035 119.72 321.37 120.68C321.705 121.641 322.375 122.267 323.336 122.58V123.362H313.393V122.58C314.399 122.267 315.069 121.641 315.427 120.68C315.784 119.72 315.94 117.955 315.94 115.385V102.627C315.94 99.4766 315.36 97.1976 314.175 95.7452C312.991 94.3153 311.248 93.5779 308.947 93.5779C307.897 93.5779 306.824 93.9131 305.73 94.561C304.635 95.209 303.83 95.8346 303.316 96.4155C302.803 96.9965 302.311 97.5997 301.864 98.2254C302.222 99.5883 302.378 100.996 302.378 102.471V115.363C302.378 117.932 302.557 119.697 302.892 120.658C303.249 121.619 303.897 122.245 304.858 122.557V123.339H294.96V122.557C295.921 122.245 296.569 121.619 296.926 120.658C297.284 119.697 297.44 117.932 297.44 115.363V102.605C297.44 99.4542 296.859 97.1752 295.675 95.7229C294.491 94.2929 292.748 93.5556 290.447 93.5556C289.665 93.5556 288.883 93.712 288.123 94.0471C287.363 94.3823 286.693 94.7621 286.157 95.1867C285.62 95.6335 285.129 96.0804 284.727 96.5273C284.302 96.9965 283.989 97.3763 283.766 97.6668L283.431 98.136V115.363C283.431 117.888 283.61 119.653 283.989 120.636C284.369 121.619 285.017 122.267 285.978 122.557V123.339H276.035V122.557C277.041 122.245 277.711 121.619 278.024 120.658C278.337 119.697 278.515 117.932 278.515 115.363V100.951C278.515 98.851 278.337 97.4433 277.957 96.6837C277.577 95.9463 276.951 95.4995 276.035 95.3654V94.4493L282.649 91.9022H283.431V96.6837C283.52 96.5496 283.654 96.3709 283.855 96.1251C284.056 95.8793 284.459 95.4771 285.107 94.8739C285.732 94.2929 286.403 93.7567 287.095 93.3098C287.788 92.8629 288.704 92.4384 289.821 92.0586C290.938 91.6787 292.055 91.5 293.195 91.5C297.351 91.5 300.099 93.3322 301.44 96.9965C302.088 96.2591 302.803 95.5442 303.562 94.8292C304.322 94.1365 305.484 93.3992 307.025 92.6395C308.567 91.8798 310.109 91.5 311.651 91.5C314.488 91.5 316.722 92.4161 318.354 94.2482C319.985 96.0804 320.811 98.8063 320.811 102.426V115.318L320.856 115.385Z" fill="black"/>
<path d="M12.1164 62.5967C13.0121 62.3118 13.6227 61.7214 13.9484 60.8258C14.2741 59.9301 14.437 58.322 14.437 56.0014V30.2919C14.437 27.9713 14.2741 26.3632 13.9484 25.4676C13.6227 24.5312 13.0121 23.9409 12.1164 23.6966V22.9638H25.9177C28.9711 22.9638 31.7599 23.3709 34.284 24.1851C36.8081 24.9587 38.9048 26.0172 40.574 27.3607C42.2431 28.6634 43.6477 30.2105 44.7876 32.0018C45.9276 33.7524 46.7418 35.5641 47.2303 37.4368C47.7596 39.2689 48.0446 41.1416 48.0853 43.0551C48.0853 49.1618 46.1922 54.0676 42.406 57.7724C38.6198 61.4772 33.5715 63.3296 27.2612 63.3296H12.1164V62.5967ZM19.1392 58.2609C19.1392 59.7266 19.3835 60.8054 19.872 61.4975C20.4013 62.1489 21.419 62.4746 22.9254 62.4746H27.1391C32.1466 62.4746 36.0142 60.7647 38.7419 57.3449C41.4696 53.9251 42.8335 49.1618 42.8335 43.0551C42.8335 40.2867 42.3449 37.7015 41.3678 35.2995C40.4315 32.8568 39.1694 30.8212 37.5816 29.1927C36.0346 27.5642 34.2229 26.3022 32.1466 25.4065C30.0703 24.4701 27.9329 24.0019 25.7345 24.0019H19.1392V58.2609ZM76.1011 55.574C76.1011 57.976 76.2436 59.6248 76.5285 60.5204C76.8542 61.4161 77.4853 62.0064 78.4216 62.2914V63.0242H77.5056C75.8772 63.0242 74.4726 62.4543 73.292 61.3143C72.152 60.1337 71.5821 58.7291 71.5821 57.1006V56.1236C71.4192 56.3271 71.2156 56.5918 70.9714 56.9174C70.7271 57.2431 70.1571 57.8538 69.2615 58.7495C68.4065 59.6044 67.5312 60.3576 66.6356 61.009C65.7399 61.6604 64.5796 62.271 63.1547 62.841C61.7705 63.3703 60.3863 63.6349 59.0021 63.6349C56.7222 63.6349 54.7884 62.9632 53.2007 61.6197C51.6129 60.2355 50.819 58.3424 50.819 55.9404C50.819 54.7597 51.0633 53.6809 51.5518 52.7038C52.0404 51.7267 52.6511 50.9125 53.3839 50.2611C54.1167 49.569 55.0938 48.9379 56.3151 48.368C57.5772 47.7573 58.7578 47.2687 59.857 46.9023C60.9563 46.4952 62.3201 46.0677 63.9486 45.6199L71.5821 43.5436C71.5821 40.6531 70.8696 38.3936 69.4447 36.7651C68.0605 35.1366 66.1267 34.3224 63.6432 34.3224C62.4626 34.3224 61.3837 34.6277 60.4067 35.2384C59.4703 35.8084 58.7171 36.5005 58.1472 37.3147C57.6179 38.0882 57.109 38.8618 56.6205 39.6353C56.1319 40.4088 55.6027 40.9788 55.0327 41.3452C54.5034 41.7116 53.9131 41.7523 53.2617 41.4673C52.2439 41.0195 52.1829 40.0831 53.0785 38.6582C54.2592 36.704 56.2948 35.218 59.1853 34.2002C60.9359 33.6303 62.7476 33.3453 64.6203 33.3453C68.2844 33.3453 71.1139 34.2206 73.1087 35.9712C75.1036 37.6811 76.1011 40.307 76.1011 43.849V55.574ZM71.5821 54.7801V44.3375L64.1929 46.3527C62.9308 46.6784 61.8316 47.0448 60.8952 47.4519C59.9588 47.8184 59.0225 48.3273 58.0861 48.9786C57.1497 49.5893 56.4373 50.3425 55.9487 51.2381C55.4602 52.1338 55.2159 53.1516 55.2159 54.2915C55.2159 56.205 55.7859 57.8335 56.9258 59.177C58.1064 60.5204 59.5314 61.1922 61.2005 61.1922C62.4219 61.1922 63.6229 60.9683 64.8035 60.5204C65.9842 60.0726 66.9613 59.5434 67.7348 58.9327C68.5083 58.2813 69.2004 57.6503 69.8111 57.0396C70.4218 56.3882 70.8696 55.8386 71.1546 55.3908L71.5821 54.7801ZM93.21 45.7421C93.3729 45.8235 93.6579 45.9253 94.065 46.0474C95.2049 46.4138 96.0599 46.6988 96.6298 46.9023C97.2405 47.1059 98.014 47.4723 98.9504 48.0016C99.9275 48.4901 100.66 48.999 101.149 49.5282C101.637 50.0168 102.065 50.6885 102.431 51.5435C102.838 52.3984 103.042 53.3552 103.042 54.4137C103.042 57.0192 102.085 59.1973 100.172 60.9479C98.299 62.6985 95.6731 63.5738 92.294 63.5738C88.2636 63.5738 85.0677 62.4339 82.7064 60.154C81.2408 58.7698 80.7319 57.6299 81.1797 56.7342C81.3018 56.5307 81.4443 56.3678 81.6072 56.2457C82.0957 55.8793 82.5843 55.7979 83.0728 56.0014C83.6021 56.1643 84.0295 56.49 84.3552 56.9785C84.7216 57.4671 85.1695 58.0574 85.6987 58.7495C86.2687 59.4009 86.8183 60.0523 87.3475 60.7036C87.8768 61.3143 88.5689 61.8436 89.4238 62.2914C90.3195 62.6985 91.2762 62.9021 92.294 62.9021C94.6146 62.9021 96.467 62.3728 97.8512 61.3143C99.2354 60.2151 99.9275 58.8309 99.9275 57.1617C99.9275 56.3475 99.7443 55.6147 99.3779 54.9633C99.0522 54.2712 98.6654 53.7216 98.2176 53.3144C97.8105 52.8666 97.1591 52.4391 96.2634 52.032C95.3678 51.5842 94.6146 51.2585 94.0039 51.0549C93.3933 50.8107 92.4976 50.5053 91.3169 50.1389C89.7699 49.6504 88.4264 49.1618 87.2865 48.6733C86.1465 48.144 85.0677 47.513 84.0499 46.7802C83.0321 46.0474 82.2993 45.1924 81.8515 44.2154C81.4443 43.1976 81.3426 42.078 81.5461 40.8566C81.8311 38.9432 82.8285 37.2333 84.5384 35.7269C86.2483 34.1799 88.6096 33.4064 91.6223 33.4064C92.9251 33.4064 94.1464 33.5692 95.2864 33.8949C96.4263 34.1799 97.3219 34.5463 97.9733 34.9941C98.6654 35.442 99.2558 35.9305 99.7443 36.4598C100.274 36.989 100.559 37.4979 100.599 37.9864C100.681 38.4343 100.681 38.8007 100.599 39.0857C100.274 39.7371 99.7443 39.961 99.0115 39.7574C98.3194 39.5539 97.7494 39.0042 97.3016 38.1086C95.9988 35.4216 93.8207 34.0781 90.7673 34.0781C89.261 34.0781 87.8972 34.5463 86.6758 35.4827C85.4544 36.419 84.8438 37.5997 84.8438 39.0246C84.8438 39.8795 85.027 40.6531 85.3934 41.3452C85.8005 42.0373 86.4315 42.6683 87.2865 43.2383C88.1821 43.7675 89.0371 44.2154 89.8513 44.5818C90.7063 44.9075 91.8258 45.2942 93.21 45.7421ZM131.452 55.574C131.452 57.976 131.615 59.6248 131.941 60.5204C132.267 61.4161 132.877 62.0064 133.773 62.2914V63.0242H124.552V62.2914C125.447 62.0064 126.058 61.4161 126.384 60.5204C126.709 59.6248 126.872 57.976 126.872 55.574V43.6657C126.872 40.7752 126.221 38.6582 124.918 37.3147C123.656 35.9305 121.926 35.2384 119.727 35.2384C118.547 35.2384 117.346 35.6048 116.124 36.3376C114.944 37.0297 114.048 37.7422 113.437 38.475L112.521 39.5131V55.574C112.521 57.9352 112.684 59.5841 113.01 60.5204C113.376 61.4161 114.007 62.0064 114.903 62.2914V63.0242H105.621V62.2914C106.557 62.0064 107.168 61.4161 107.453 60.5204C107.778 59.6248 107.941 57.976 107.941 55.574V30.9637C107.941 29.0502 107.758 27.7474 107.392 27.0553C107.066 26.3632 106.476 25.9357 105.621 25.7729V24.918L111.788 22.5974H112.521V38.1697C112.603 38.0475 112.725 37.8847 112.888 37.6811C113.091 37.4368 113.478 37.0501 114.048 36.5208C114.659 35.9509 115.29 35.4623 115.941 35.0552C116.633 34.6074 117.529 34.2206 118.628 33.8949C119.768 33.5285 120.949 33.3453 122.17 33.3453C125.101 33.3453 127.381 34.2002 129.01 35.9101C130.638 37.62 131.452 40.1645 131.452 43.5436V55.574ZM152.896 33.3453C156.6 33.3453 159.654 34.6888 162.056 37.3758C164.458 40.0628 165.659 43.4825 165.659 47.6351C165.659 50.4036 165.089 52.9888 163.949 55.3908C162.809 57.752 161.038 59.7062 158.636 61.2533C156.275 62.7596 153.527 63.5331 150.392 63.5738C148.56 63.5738 146.789 63.2481 145.079 62.5967C143.369 61.9046 141.924 61.0497 140.743 60.0319L138.239 63.0242H137.384V31.4522C137.384 29.498 137.201 28.1953 136.835 27.5439C136.509 26.8518 135.919 26.4243 135.064 26.2614V25.4065L141.232 22.5974H141.965V37.2536C145.873 34.6481 149.517 33.3453 152.896 33.3453ZM152.285 62.3525C155.257 62.3525 157.496 61.355 159.002 59.3602C160.549 57.3246 161.323 54.5358 161.323 50.9939C161.323 49.284 161.119 47.5537 160.712 45.8031C160.305 44.0525 159.674 42.363 158.819 40.7345C158.005 39.106 156.845 37.7829 155.338 36.7651C153.832 35.7473 152.102 35.2384 150.148 35.2384C147.542 35.2384 144.814 36.2155 141.965 38.1697V53.4977C142.127 55.6554 143.247 57.6706 145.323 59.5434C147.44 61.4161 149.761 62.3525 152.285 62.3525ZM183.99 33.3453C185.904 33.3453 187.736 33.6506 189.486 34.2613C191.237 34.8313 192.865 35.6862 194.372 36.8262C195.878 37.9661 197.079 39.5335 197.975 41.5284C198.87 43.4825 199.318 45.7013 199.318 48.1848C199.318 50.5868 198.85 52.8056 197.914 54.8411C196.977 56.836 195.756 58.4645 194.249 59.7266C192.743 60.9479 191.094 61.9046 189.303 62.5967C187.552 63.2888 185.781 63.6349 183.99 63.6349C182.077 63.6349 180.224 63.3296 178.433 62.7189C176.682 62.1082 175.054 61.2329 173.548 60.093C172.082 58.9123 170.901 57.3449 170.006 55.3908C169.11 53.4366 168.662 51.2381 168.662 48.7954C168.662 44.3578 170.189 40.6734 173.242 37.7422C176.296 34.8109 179.878 33.3453 183.99 33.3453ZM185.761 62.3525C188.733 62.3525 190.993 61.3347 192.54 59.2991C194.087 57.2635 194.86 54.719 194.86 51.6656C194.86 49.0601 194.311 46.4342 193.211 43.7879C192.153 41.1009 190.585 38.8414 188.509 37.0094C186.474 35.1773 184.255 34.3224 181.853 34.4445C179.003 34.5667 176.845 35.6659 175.38 37.7422C173.914 39.7778 173.181 42.3426 173.181 45.4367C173.181 48.0016 173.67 50.5664 174.647 53.1312C175.624 55.6961 177.11 57.8742 179.105 59.6655C181.1 61.4568 183.318 62.3525 185.761 62.3525ZM227.458 55.574C227.458 57.976 227.601 59.6248 227.886 60.5204C228.212 61.4161 228.843 62.0064 229.779 62.2914V63.0242H228.863C227.234 63.0242 225.83 62.4543 224.649 61.3143C223.509 60.1337 222.939 58.7291 222.939 57.1006V56.1236C222.777 56.3271 222.573 56.5918 222.329 56.9174C222.084 57.2431 221.514 57.8538 220.619 58.7495C219.764 59.6044 218.889 60.3576 217.993 61.009C217.097 61.6604 215.937 62.271 214.512 62.841C213.128 63.3703 211.744 63.6349 210.359 63.6349C208.08 63.6349 206.146 62.9632 204.558 61.6197C202.97 60.2355 202.176 58.3424 202.176 55.9404C202.176 54.7597 202.421 53.6809 202.909 52.7038C203.398 51.7267 204.008 50.9125 204.741 50.2611C205.474 49.569 206.451 48.9379 207.672 48.368C208.935 47.7573 210.115 47.2687 211.214 46.9023C212.314 46.4952 213.677 46.0677 215.306 45.6199L222.939 43.5436C222.939 40.6531 222.227 38.3936 220.802 36.7651C219.418 35.1366 217.484 34.3224 215.001 34.3224C213.82 34.3224 212.741 34.6277 211.764 35.2384C210.828 35.8084 210.074 36.5005 209.504 37.3147C208.975 38.0882 208.466 38.8618 207.978 39.6353C207.489 40.4088 206.96 40.9788 206.39 41.3452C205.861 41.7116 205.27 41.7523 204.619 41.4673C203.601 41.0195 203.54 40.0831 204.436 38.6582C205.616 36.704 207.652 35.218 210.543 34.2002C212.293 33.6303 214.105 33.3453 215.978 33.3453C219.642 33.3453 222.471 34.2206 224.466 35.9712C226.461 37.6811 227.458 40.307 227.458 43.849V55.574ZM222.939 54.7801V44.3375L215.55 46.3527C214.288 46.6784 213.189 47.0448 212.253 47.4519C211.316 47.8184 210.38 48.3273 209.443 48.9786C208.507 49.5893 207.795 50.3425 207.306 51.2381C206.817 52.1338 206.573 53.1516 206.573 54.2915C206.573 56.205 207.143 57.8335 208.283 59.177C209.464 60.5204 210.889 61.1922 212.558 61.1922C213.779 61.1922 214.98 60.9683 216.161 60.5204C217.342 60.0726 218.319 59.5434 219.092 58.9327C219.866 58.2813 220.558 57.6503 221.168 57.0396C221.779 56.3882 222.227 55.8386 222.512 55.3908L222.939 54.7801ZM248.231 33.7117C249.086 33.9153 249.616 34.3427 249.819 34.9941C250.063 35.6048 250.002 36.1748 249.636 36.704C249.31 37.2333 248.842 37.4979 248.231 37.4979C247.865 37.4979 247.356 37.4165 246.705 37.2536C246.094 37.0501 245.565 36.9279 245.117 36.8872C244.669 36.8058 243.977 36.8669 243.041 37.0704C241.331 37.5183 240.048 38.9432 239.193 41.3452V55.5129C239.193 57.8742 239.356 59.523 239.682 60.4594C240.048 61.355 240.679 61.9454 241.575 62.2303V62.9632H232.293V62.2303C233.229 61.9454 233.84 61.355 234.125 60.4594C234.45 59.5637 234.613 57.9149 234.613 55.5129V42.078C234.613 40.1238 234.43 38.821 234.064 38.1697C233.738 37.4776 233.148 37.0501 232.293 36.8872V36.0323L238.461 33.7117H239.193V39.2689C240.089 37.4776 241.412 36.0119 243.163 34.872C244.913 33.6914 246.603 33.3046 248.231 33.7117ZM277.559 55.574C277.559 57.9352 277.722 59.5841 278.048 60.5204C278.373 61.4161 279.004 62.0064 279.941 62.2914V63.0242H277.681C276.379 63.0242 275.259 62.5764 274.323 61.6807C273.427 60.7444 272.979 59.6248 272.979 58.322V58.1388C269.356 61.8843 265.875 63.7367 262.537 63.696C258.872 63.6553 255.799 62.2507 253.315 59.4823C250.832 56.6732 249.59 53.2127 249.59 49.1008C249.59 46.3324 250.181 43.7879 251.361 41.4673C252.542 39.106 254.333 37.1722 256.735 35.6659C259.178 34.1595 262.007 33.4064 265.224 33.4064C268.033 33.4064 270.618 34.1188 272.979 35.5437V31.4522C272.979 29.498 272.796 28.1953 272.43 27.5439C272.104 26.8518 271.514 26.4243 270.659 26.2614V25.4065L276.826 22.5974H277.559V55.574ZM272.979 55.574V41.7116C272.491 39.8388 271.31 38.1697 269.437 36.704C267.605 35.2384 265.59 34.5056 263.391 34.5056C260.42 34.5056 258.099 35.5437 256.43 37.62C254.801 39.6963 253.987 42.3426 253.987 45.5588C253.987 47.3502 254.191 49.1211 254.598 50.8717C255.046 52.5816 255.697 54.2101 256.552 55.7572C257.407 57.2635 258.567 58.4849 260.033 59.4212C261.539 60.3576 263.249 60.8258 265.162 60.8258C267.89 60.8258 270.496 59.5841 272.979 57.1006C272.979 56.775 272.979 56.2661 272.979 55.574Z" fill="black"/>
<path d="M250.194 14.3516L263.916 14.3516V13.4721L250.194 13.4721V14.3516Z" fill="black"/>
<path d="M256.008 13.9141H258.105V11.8164H256.008V13.9141Z" fill="black"/>
<path d="M261.125 4.53906H252.121V5.41852H261.125V4.53906Z" fill="black"/>
<path d="M250.566 1.16406L251.003 1.75157H252.956V1.16406H250.566Z" fill="black"/>
<path d="M252.955 1.52344H250.998V9.78814H252.955V1.52344Z" fill="black"/>
<path d="M260.695 1.16406L261.131 1.75157H263.085V1.16406H260.695Z" fill="black"/>
<path d="M263.084 1.52344H261.127V9.46014H263.084V1.52344Z" fill="black"/>
<path d="M263.084 9.13281H251.031V9.7888H263.084V9.13281Z" fill="black"/>
<path d="M228.676 1.28906L229.144 1.91982H231.238V1.28906H228.676Z" fill="black"/>
<path d="M231.244 1.92188H229.146V14.4901H231.244V1.92188Z" fill="black"/>
<path d="M231.705 1.28906L232.17 1.91982H234.268V1.28906H231.705Z" fill="black"/>
<path d="M234.266 1.92188H232.168V14.4901H234.266V1.92188Z" fill="black"/>
<path d="M232.898 7.54688H230.191V8.38668H232.898V7.54688Z" fill="black"/>
<path d="M223.908 1.29688H221.951V14.4887H223.908V1.29688Z" fill="black"/>
<path d="M227.801 1.28125H221.98V1.93724H227.801V1.28125Z" fill="black"/>
<path d="M227.801 13.8359H221.98V14.4919H227.801V13.8359Z" fill="black"/>
<path d="M264.814 14.3516L278.535 14.3516V13.4721L264.814 13.4721V14.3516Z" fill="black"/>
<path d="M267.574 1.32812H265.617V9.78746H267.574V1.32812Z" fill="black"/>
<path d="M277.701 1.09375H265.648V1.74974H277.701V1.09375Z" fill="black"/>
<path d="M277.701 9.13281H265.648V9.7888H277.701V9.13281Z" fill="black"/>
<path d="M245.498 1.28906L245.967 1.91982H248.061V1.28906H245.498Z" fill="black"/>
<path d="M248.059 1.92188H245.961V14.3568H248.059V1.92188Z" fill="black"/>
<path d="M242.94 14.2806C243.819 14.2806 244.532 13.5952 244.532 12.7497C244.532 11.9042 243.819 11.2188 242.94 11.2188C242.06 11.2188 241.348 11.9042 241.348 12.7497C241.348 13.5952 242.06 14.2806 242.94 14.2806Z" fill="black"/>
<path d="M241.827 1.28125H239.732V4.77383H241.827V1.28125Z" fill="black"/>
<path d="M239.733 4.77344C239.733 4.77344 239.992 12.4795 234.889 14.4871C234.889 14.4871 241.827 14.9592 241.827 4.77344" fill="black"/>
<g clip-path="url(#clip0_855_11027)">
<path d="M54.1018 90.0595C56.5712 88.1006 58.3956 86.782 60.8815 85.1186C63.9682 83.1269 66.5533 81.5401 69.4195 80.1175C72.2858 78.7058 74.9976 78 77.5717 78C80.1458 78 81.5954 78.5472 82.2348 79.6415C82.8632 80.7358 82.7585 82.1967 81.8986 84.0243C81.0001 85.9448 79.4182 88.1335 77.1638 90.5957C74.6394 93.43 71.8668 96.2534 68.8463 99.0822C65.8202 101.916 62.9981 104.647 60.3799 107.295C59.8508 107.842 59.013 108.69 57.883 109.828C56.7531 110.967 55.6341 112.22 54.5318 113.593C54.0522 114.233 53.5561 114.895 53.049 115.579C52.5419 116.263 52.1175 116.974 51.7758 117.697C51.3458 118.61 51.1529 119.459 51.2081 120.23C51.2577 121.012 51.8805 121.396 53.0711 121.396C54.631 121.396 56.3672 120.87 58.2799 119.82C60.198 118.775 61.9288 117.653 63.4997 116.466C66.6801 114.184 69.8164 111.651 72.9196 108.865C76.0118 106.086 79.1647 103.137 82.3616 100.034C82.8081 99.6731 83.0782 99.4871 83.1719 99.4871C83.5412 99.4871 83.5246 99.9029 83.1443 100.718C82.8907 101.265 82.6041 101.676 82.2955 101.949C79.2253 104.964 76.1055 107.902 72.9251 110.781C69.7392 113.653 66.195 116.422 62.2926 119.059C60.5453 120.246 58.6767 121.297 56.6869 122.205C54.6971 123.119 52.8837 123.382 50.8002 123.557C48.7883 123.726 47.2064 123.453 46.567 122.118C45.8229 120.476 46.5394 118.184 47.6969 115.721C48.2536 114.534 49.1907 112.969 50.3868 111.415C53.5561 107.399 56.8909 103.875 61.791 99.4214C66.2943 95.1043 69.9597 91.4219 73.6362 87.5042C74.8764 86.2239 75.648 84.7575 76.1276 83.7616C76.6016 82.7603 76.2985 81.8356 75.9402 81.3268C75.5764 80.8288 74.9866 80.5717 74.1598 80.5717C72.9692 80.5717 71.255 81.0532 69.0172 82.0107C66.7793 82.9682 63.8911 84.7684 60.3579 87.4167C60.3579 87.4167 51.4175 93.9936 38.751 106.622C29.5736 115.776 21.1293 122.796 16.0914 123.601C11.0535 124.405 10.0117 122.555 10.0117 122.555C10.0117 122.555 13.6496 123.497 16.3946 122.282C17.734 121.691 21.1238 120.318 26.4153 115.623C31.9879 110.682 39.8148 102.206 54.1128 90.0376L54.1018 90.0595Z" fill="black"/>
<path d="M94.9115 92.4208C93.0705 93.6683 91.0918 95.173 88.9917 96.9185C86.8806 98.6639 84.3562 101.077 81.4128 104.13C79.8308 105.755 78.1828 107.566 76.463 109.563C74.7378 111.561 73.1834 113.437 71.7999 115.183C70.4164 116.928 69.4518 118.307 68.9227 119.308C68.3053 120.496 68.0628 121.338 68.2061 121.836C68.3494 122.34 68.7353 122.586 69.3636 122.586C70.433 122.586 71.6235 122.214 72.9519 121.464C74.2748 120.715 75.504 119.938 76.6394 119.122C78.7505 117.563 80.8616 115.839 82.9671 113.974C85.0727 112.102 87.2169 110.1 89.4051 107.977C89.7083 107.73 89.9232 107.605 90.05 107.605C90.3035 107.605 90.3366 107.791 90.1658 108.168C90.0169 108.485 89.8405 108.732 89.6256 108.918C87.5255 110.981 85.3648 113.043 83.1435 115.101C80.9222 117.164 78.4749 119.095 75.8071 120.912C74.611 121.721 73.3157 122.444 71.9267 123.067C70.5322 123.691 69.1487 124.003 67.7707 124.003V124.014C66.0124 124.014 64.9927 123.439 64.7171 122.279C64.4415 121.125 64.706 119.702 65.4942 118.017C65.7258 117.519 66.0179 117.005 66.3596 116.469C66.7014 115.938 68.1951 113.881 68.5865 113.317C70.7196 110.51 74.6441 106.445 74.6441 106.445C77.5709 103.353 86.9247 94.3906 94.9171 92.4263M96.5817 87.1297C95.8596 87.1297 95.3801 86.8835 95.1486 86.3911C94.917 85.8986 94.9556 85.3241 95.2698 84.673C95.6997 83.7537 96.4383 82.9549 97.4911 82.2654C98.5384 81.576 99.5085 81.1985 100.396 81.1328C101.118 81.1328 101.609 81.3626 101.851 81.8222C102.099 82.2819 102.055 82.8728 101.713 83.595C101.316 84.4486 100.589 85.253 99.5416 86.008C98.4943 86.7631 97.5132 87.1407 96.5872 87.1407L96.5817 87.1297Z" fill="black"/>
<path d="M58.8423 105.797H38.7402V106.64H58.8423V105.797Z" fill="black"/>
</g>
<defs>
<clipPath id="clip0_855_11027">
<rect width="92" height="46" fill="white" transform="translate(10 78)"/>
</clipPath>
</defs>
</svg>
