<svg width="314" height="122" viewBox="0 0 314 122" fill="none" xmlns="http://www.w3.org/2000/svg">
<g clip-path="url(#clip0_1252_35944)">
<circle cx="68.837" cy="77.4815" r="4.08305" fill="#D2FF52"/>
<path d="M239.985 72.0249H236.042V70.9685H239.985V72.0249ZM244.556 66.8473C244.278 66.8473 243.966 66.8473 243.619 66.8473C243.281 66.8473 243.009 66.8473 242.8 66.8473H242.488V71.1024H244.288C245.052 71.1024 245.583 71.028 245.88 70.8793C246.188 70.7305 246.386 70.4875 246.475 70.1502H246.639V72.2629H246.475C246.386 71.9257 246.188 71.6827 245.88 71.5339C245.583 71.3851 245.052 71.3107 244.288 71.3107H242.488V74.688C242.488 75.2633 242.528 75.6601 242.607 75.8783C242.686 76.0866 242.835 76.2254 243.053 76.2949V76.4734H240.777V76.2949C240.995 76.2254 241.144 76.0816 241.223 75.8634C241.303 75.6452 241.342 75.2534 241.342 74.688V68.4244C241.342 67.859 241.303 67.4672 241.223 67.249C241.144 67.0209 240.995 66.8771 240.777 66.8175V66.639H244.378H247.308L247.472 68.4541L247.308 68.4988C247.07 67.8937 246.733 67.4672 246.297 67.2193C245.87 66.9713 245.29 66.8473 244.556 66.8473ZM254.196 75.2385C254.196 75.5658 254.231 75.8138 254.301 75.9824C254.38 76.1411 254.534 76.2205 254.762 76.2205V76.399H254.211C253.894 76.399 253.626 76.2899 253.408 76.0717C253.19 75.8535 253.081 75.5857 253.081 75.2683V75.1046C252.158 76.0667 251.231 76.5478 250.298 76.5478C248.84 76.5478 248.111 75.6799 248.111 73.9441V71.2958C248.111 70.8197 248.067 70.5023 247.977 70.3436C247.898 70.175 247.754 70.0709 247.546 70.0312V69.8229L249.049 69.2575H249.227V73.6912C249.227 74.5045 249.351 75.0997 249.599 75.4766C249.847 75.8535 250.254 76.0419 250.819 76.0419C251.563 76.0419 252.317 75.6402 253.081 74.8368V71.2958C253.081 70.8197 253.036 70.5023 252.947 70.3436C252.867 70.175 252.724 70.0709 252.515 70.0312V69.8229L254.003 69.2575H254.196V75.2385ZM261.716 74.5839C261.716 75.1691 261.755 75.5708 261.835 75.789C261.914 76.0072 262.063 76.151 262.281 76.2205V76.399H260.034V76.2205C260.253 76.151 260.401 76.0072 260.481 75.789C260.56 75.5708 260.6 75.1691 260.6 74.5839V71.6827C260.6 70.9784 260.441 70.4627 260.124 70.1354C259.816 69.7981 259.395 69.6295 258.859 69.6295C258.571 69.6295 258.279 69.7188 257.981 69.8973C257.694 70.0659 257.475 70.2395 257.327 70.418L257.103 70.671V74.5839C257.103 75.1592 257.143 75.5609 257.222 75.789C257.312 76.0072 257.466 76.151 257.684 76.2205V76.399H255.422V76.2205C255.65 76.151 255.799 76.0072 255.869 75.789C255.948 75.5708 255.988 75.1691 255.988 74.5839V71.3107C255.988 70.8346 255.943 70.5123 255.854 70.3436C255.774 70.175 255.631 70.0758 255.422 70.0461V69.8378L256.925 69.2575H257.103V70.3436C257.123 70.3139 257.153 70.2742 257.193 70.2246C257.242 70.1651 257.337 70.0709 257.475 69.9419C257.624 69.8031 257.778 69.6841 257.937 69.5849C258.105 69.4758 258.323 69.3815 258.591 69.3022C258.869 69.2129 259.157 69.1683 259.454 69.1683C260.168 69.1683 260.724 69.3766 261.121 69.7932C261.517 70.2097 261.716 70.8297 261.716 71.6529V74.5839ZM269.749 74.5839C269.749 75.1592 269.788 75.5609 269.868 75.789C269.947 76.0072 270.101 76.151 270.329 76.2205V76.399H269.779C269.461 76.399 269.188 76.2899 268.96 76.0717C268.742 75.8436 268.633 75.5708 268.633 75.2534V75.2088C267.75 76.1213 266.902 76.5726 266.089 76.5627C265.196 76.5528 264.447 76.2106 263.842 75.5361C263.237 74.8517 262.935 74.0086 262.935 73.0068C262.935 72.3323 263.078 71.7124 263.366 71.1471C263.654 70.5718 264.09 70.1006 264.675 69.7336C265.27 69.3667 265.96 69.1832 266.743 69.1832C267.428 69.1832 268.058 69.3567 268.633 69.7039V68.7071C268.633 68.231 268.588 67.9136 268.499 67.7549C268.42 67.5862 268.276 67.4821 268.068 67.4424V67.2341L269.57 66.5497H269.749V74.5839ZM268.633 74.5839V71.2066C268.514 70.7503 268.226 70.3436 267.77 69.9866C267.324 69.6295 266.833 69.451 266.297 69.451C265.573 69.451 265.008 69.7039 264.601 70.2097C264.204 70.7156 264.006 71.3603 264.006 72.1439C264.006 72.5803 264.055 73.0118 264.155 73.4383C264.264 73.8549 264.422 74.2516 264.631 74.6285C264.839 74.9955 265.122 75.2931 265.479 75.5212C265.846 75.7493 266.262 75.8634 266.729 75.8634C267.393 75.8634 268.028 75.5609 268.633 74.9558C268.633 74.8765 268.633 74.7525 268.633 74.5839ZM277.604 74.4054L277.738 74.5244C276.756 75.8733 275.63 76.5478 274.361 76.5478C273.964 76.5478 273.567 76.4734 273.171 76.3246C272.784 76.1758 272.422 75.9626 272.084 75.6849C271.757 75.4071 271.489 75.0402 271.281 74.5839C271.083 74.1177 270.984 73.6019 270.984 73.0366C270.984 71.9058 271.351 70.9784 272.084 70.2544C272.828 69.5303 273.711 69.1683 274.733 69.1683C275.606 69.1683 276.3 69.4113 276.816 69.8973C277.331 70.3833 277.599 70.9784 277.619 71.6827H272.04C272.01 71.9009 271.995 72.1241 271.995 72.3522C271.995 73.3341 272.273 74.1276 272.828 74.7327C273.394 75.3377 274.138 75.6402 275.06 75.6402C276.022 75.6402 276.87 75.2286 277.604 74.4054ZM274.272 69.4212C273.686 69.4113 273.205 69.5997 272.828 69.9866C272.451 70.3734 272.204 70.8793 272.084 71.5041H276.474C276.394 70.9685 276.156 70.4875 275.759 70.061C275.373 69.6345 274.877 69.4212 274.272 69.4212ZM285.208 74.5839C285.208 75.1592 285.248 75.5609 285.327 75.789C285.406 76.0072 285.56 76.151 285.788 76.2205V76.399H285.238C284.92 76.399 284.648 76.2899 284.419 76.0717C284.201 75.8436 284.092 75.5708 284.092 75.2534V75.2088C283.209 76.1213 282.361 76.5726 281.548 76.5627C280.655 76.5528 279.906 76.2106 279.301 75.5361C278.696 74.8517 278.394 74.0086 278.394 73.0068C278.394 72.3323 278.538 71.7124 278.825 71.1471C279.113 70.5718 279.549 70.1006 280.135 69.7336C280.73 69.3667 281.419 69.1832 282.203 69.1832C282.887 69.1832 283.517 69.3567 284.092 69.7039V68.7071C284.092 68.231 284.047 67.9136 283.958 67.7549C283.879 67.5862 283.735 67.4821 283.527 67.4424V67.2341L285.029 66.5497H285.208V74.5839ZM284.092 74.5839V71.2066C283.973 70.7503 283.685 70.3436 283.229 69.9866C282.783 69.6295 282.292 69.451 281.756 69.451C281.032 69.451 280.467 69.7039 280.06 70.2097C279.663 70.7156 279.465 71.3603 279.465 72.1439C279.465 72.5803 279.515 73.0118 279.614 73.4383C279.723 73.8549 279.882 74.2516 280.09 74.6285C280.298 74.9955 280.581 75.2931 280.938 75.5212C281.305 75.7493 281.722 75.8634 282.188 75.8634C282.852 75.8634 283.487 75.5609 284.092 74.9558C284.092 74.8765 284.092 74.7525 284.092 74.5839Z" fill="black"/>
<path d="M49.8812 43.3204H58.0698V43.9626C57.3206 44.1767 56.8032 44.6584 56.5178 45.4077C56.2323 46.1213 56.0717 47.3701 56.0361 49.1541L56.1431 60.0187H55.3938C55.3581 59.9474 55.3046 59.8403 55.2333 59.6976C55.1976 59.5192 55.1084 59.2516 54.9657 58.8948C54.8229 58.5023 54.6624 58.1634 54.484 57.8779C54.3056 57.5925 54.0737 57.3249 53.7882 57.0751C53.5028 56.8254 53.2173 56.7005 52.9319 56.7005C52.5394 56.7005 52.0042 56.8967 51.3263 57.2892C50.684 57.6817 49.9883 58.1277 49.239 58.6272C48.4897 59.1267 47.4014 59.5727 45.9742 59.9652C44.547 60.3577 42.9949 60.5539 41.3179 60.5539C37.8926 60.5539 34.7171 59.8582 31.7913 58.4667C28.9012 57.0751 26.5463 55.0057 24.7266 52.2583C22.9426 49.5109 22.0506 46.371 22.0506 42.8387C22.0506 40.234 22.5679 37.7721 23.6027 35.4528C24.6374 33.1336 25.9576 31.189 27.5632 29.6191C29.2045 28.0135 31.0063 26.729 32.9687 25.7656C34.9668 24.7666 36.9471 24.1957 38.9095 24.053C45.2249 23.5891 49.6315 24.9093 52.1291 28.0135C52.8784 29.0482 53.0211 29.9759 52.5572 30.7966C52.1291 31.6172 51.4511 32.0275 50.5235 32.0275C49.9526 32.0275 49.3995 31.7956 48.8643 31.3318C48.3648 30.8322 47.8653 30.2435 47.3658 29.5656C46.9019 28.852 46.3845 28.1562 45.8137 27.4783C45.2428 26.8004 44.4935 26.2295 43.5658 25.7656C42.6738 25.2661 41.6747 25.0164 40.5687 25.0164C36.3941 25.0164 32.9687 26.39 30.2927 29.1374C27.6167 31.8491 26.2787 35.7026 26.2787 40.6979C26.2787 43.0884 26.6355 45.3898 27.3491 47.602C28.0984 49.8142 29.1331 51.7944 30.4533 53.5428C31.7735 55.2911 33.4683 56.7005 35.5377 57.7709C37.6429 58.8056 39.9799 59.323 42.5489 59.323C43.8334 59.323 45.0822 59.1267 46.2953 58.7343C47.5442 58.3061 48.5432 57.8066 49.2925 57.2357C50.0775 56.6648 50.684 56.1653 51.1122 55.7371C51.576 55.2733 51.8615 54.9343 51.9685 54.7202L51.915 49.7428C51.915 47.6734 51.7723 46.2461 51.4868 45.4612C51.2014 44.6762 50.6662 44.1767 49.8812 43.9626V43.3204ZM73.4854 33.7402C75.1624 33.7402 76.768 34.0078 78.3023 34.543C79.8365 35.0425 81.2637 35.7918 82.5839 36.7909C83.9041 37.7899 84.9566 39.1636 85.7416 40.9119C86.5266 42.6246 86.9191 44.5692 86.9191 46.7457C86.9191 48.8508 86.5087 50.7954 85.6881 52.5794C84.8674 54.3277 83.797 55.7549 82.4769 56.861C81.1567 57.9314 79.7116 58.7699 78.1417 59.3765C76.6074 59.9831 75.0553 60.2863 73.4854 60.2863C71.8084 60.2863 70.185 60.0187 68.6151 59.4835C67.0808 58.9483 65.6536 58.1812 64.3334 57.1822C63.0489 56.1474 62.0142 54.7737 61.2292 53.0611C60.4443 51.3484 60.0518 49.4217 60.0518 47.2809C60.0518 43.3917 61.3898 40.1626 64.0658 37.5937C66.7418 35.0247 69.8817 33.7402 73.4854 33.7402ZM75.0375 59.1624C77.6422 59.1624 79.6224 58.2704 80.9783 56.4864C82.3341 54.7024 83.0121 52.4724 83.0121 49.7963C83.0121 47.5128 82.5304 45.2114 81.567 42.8922C80.6393 40.5373 79.2656 38.557 77.4459 36.9514C75.6619 35.3458 73.7173 34.5965 71.6122 34.7036C69.1146 34.8106 67.2235 35.774 65.939 37.5937C64.6545 39.3777 64.0123 41.6255 64.0123 44.3372C64.0123 46.5851 64.4405 48.833 65.2968 51.0808C66.1531 53.3287 67.4554 55.2376 69.2038 56.8075C70.9521 58.3775 72.8967 59.1624 75.0375 59.1624ZM105.205 34.0613H111.253V34.7571C109.576 34.7571 108.167 36.2557 107.025 39.2528C106.704 40.0734 105.901 42.1964 104.617 45.6217C103.368 49.0114 102.191 52.2226 101.084 55.2554L99.4253 59.7511H97.5521L90.2198 40.1626C90.1841 40.0556 90.0949 39.8415 89.9522 39.5204C89.8451 39.1636 89.7559 38.896 89.6846 38.7176C89.6132 38.5035 89.5062 38.2359 89.3634 37.9148C89.2207 37.5937 89.078 37.3261 88.9353 37.112C88.8282 36.8979 88.6855 36.666 88.5071 36.4162C88.3644 36.1308 88.2038 35.9167 88.0254 35.774C87.8827 35.5956 87.7221 35.4172 87.5437 35.2388C87.3653 35.0604 87.1691 34.9355 86.955 34.8641C86.7409 34.7928 86.5268 34.7571 86.3128 34.7571V34.0613H95.0366V34.7571C93.3953 34.7571 93.092 36.3092 94.1268 39.4134C94.662 40.9476 95.4291 43.0706 96.4281 45.7823C97.4272 48.494 98.3014 50.8311 99.0506 52.7935L100.121 55.6836C103.439 46.4424 105.473 40.9119 106.222 39.0922C106.829 37.5223 107.025 36.4162 106.811 35.774C106.597 35.096 106.08 34.7571 105.259 34.7571L105.205 34.0613ZM133.835 52.5794L134.316 53.0076C130.784 57.8601 126.734 60.2863 122.167 60.2863C120.74 60.2863 119.313 60.0187 117.886 59.4835C116.494 58.9483 115.192 58.1812 113.979 57.1822C112.801 56.1831 111.838 54.8629 111.089 53.2216C110.375 51.5447 110.018 49.6893 110.018 47.6555C110.018 43.588 111.338 40.2518 113.979 37.6472C116.655 35.0425 119.83 33.7402 123.505 33.7402C126.645 33.7402 129.143 34.6144 130.998 36.3627C132.854 38.111 133.817 40.2518 133.888 42.7852H113.818C113.711 43.5701 113.658 44.3729 113.658 45.1936C113.658 48.7259 114.657 51.5804 116.655 53.7568C118.688 55.9333 121.364 57.0216 124.683 57.0216C128.144 57.0216 131.194 55.5409 133.835 52.5794ZM121.846 34.65C119.741 34.6144 118.011 35.2923 116.655 36.6838C115.299 38.0753 114.407 39.895 113.979 42.1429H129.767C129.482 40.2162 128.625 38.4857 127.198 36.9514C125.807 35.4172 124.023 34.65 121.846 34.65ZM150.276 34.0613C151.025 34.2397 151.489 34.6144 151.667 35.1852C151.881 35.7204 151.828 36.22 151.507 36.6838C151.221 37.1477 150.811 37.3796 150.276 37.3796C149.954 37.3796 149.508 37.3082 148.938 37.1655C148.402 36.9871 147.939 36.8801 147.546 36.8444C147.154 36.773 146.547 36.8265 145.726 37.0049C144.228 37.3974 143.104 38.6462 142.355 40.7514V53.1681C142.355 55.2376 142.497 56.6826 142.783 57.5033C143.104 58.2882 143.657 58.8056 144.442 59.0554V59.6976H136.307V59.0554C137.127 58.8056 137.663 58.2882 137.912 57.5033C138.198 56.7183 138.341 55.2733 138.341 53.1681V41.3936C138.341 39.681 138.18 38.5392 137.859 37.9683C137.573 37.3617 137.056 36.9871 136.307 36.8444V36.0951L141.712 34.0613H142.355V38.9317C143.14 37.3617 144.299 36.0773 145.833 35.0782C147.368 34.0435 148.848 33.7045 150.276 34.0613ZM175.932 53.2216C175.932 55.3268 176.075 56.7718 176.361 57.5568C176.646 58.3418 177.181 58.8591 177.966 59.1089V59.7511H169.885V59.1089C170.67 58.8591 171.205 58.3418 171.49 57.5568C171.776 56.7718 171.918 55.3268 171.918 53.2216V42.7852C171.918 40.2518 171.347 38.3965 170.206 37.219C169.1 36.0059 167.583 35.3993 165.656 35.3993C164.622 35.3993 163.569 35.7204 162.499 36.3627C161.464 36.9693 160.679 37.5937 160.144 38.2359L159.341 39.1458V53.2216C159.341 55.2911 159.484 56.7362 159.769 57.5568C160.09 58.3418 160.643 58.8591 161.428 59.1089V59.7511H153.293V59.1089C154.114 58.8591 154.649 58.3418 154.899 57.5568C155.184 56.7718 155.327 55.3268 155.327 53.2216V41.4471C155.327 39.7345 155.166 38.5749 154.845 37.9683C154.56 37.3617 154.043 37.0049 153.293 36.8979V36.1486L158.699 34.0613H159.341V37.9683C159.412 37.8613 159.519 37.7185 159.662 37.5401C159.841 37.3261 160.18 36.9871 160.679 36.5233C161.214 36.0237 161.767 35.5956 162.338 35.2388C162.945 34.8463 163.73 34.5073 164.693 34.2219C165.692 33.9008 166.727 33.7402 167.797 33.7402C170.366 33.7402 172.364 34.4895 173.792 35.9881C175.219 37.4866 175.932 39.7166 175.932 42.6781V53.2216ZM216.818 53.2216C216.818 55.3268 216.961 56.7718 217.246 57.5568C217.532 58.3418 218.067 58.8591 218.852 59.1089V59.7511H210.717V59.1089C211.538 58.8591 212.091 58.3418 212.376 57.5568C212.661 56.7718 212.804 55.3268 212.804 53.2216V42.7852C212.804 40.2162 212.323 38.343 211.359 37.1655C210.396 35.9881 208.969 35.3993 207.078 35.3993C206.221 35.3993 205.347 35.6669 204.455 36.2021C203.563 36.7373 202.903 37.2547 202.475 37.7542C202.047 38.2181 201.654 38.6998 201.297 39.1993C201.583 40.3054 201.725 41.465 201.725 42.6781V53.2216C201.725 55.3268 201.868 56.7718 202.154 57.5568C202.439 58.3418 202.974 58.8591 203.759 59.1089V59.7511H195.678V59.1089C196.463 58.8591 196.998 58.3418 197.283 57.5568C197.569 56.7718 197.711 55.3268 197.711 53.2216V42.7852C197.711 40.2162 197.23 38.343 196.266 37.1655C195.303 35.9881 193.876 35.3993 191.985 35.3993C191.343 35.3993 190.7 35.542 190.058 35.8275C189.451 36.0773 188.916 36.3805 188.452 36.7373C188.024 37.0941 187.632 37.4688 187.275 37.8613C186.954 38.2181 186.704 38.5214 186.526 38.7711L186.258 39.1458V53.2216C186.258 55.2911 186.401 56.7362 186.686 57.5568C187.007 58.3418 187.56 58.8591 188.345 59.1089V59.7511H180.21V59.1089C181.031 58.8591 181.566 58.3418 181.816 57.5568C182.101 56.7718 182.244 55.3268 182.244 53.2216V41.4471C182.244 39.7345 182.083 38.5749 181.762 37.9683C181.477 37.3617 180.96 37.0049 180.21 36.8979V36.1486L185.616 34.0613H186.258V37.9683C186.329 37.8613 186.436 37.7185 186.579 37.5401C186.758 37.3261 187.097 36.9871 187.596 36.5233C188.131 36.0237 188.684 35.5956 189.255 35.2388C189.826 34.8463 190.558 34.5073 191.45 34.2219C192.377 33.9008 193.305 33.7402 194.233 33.7402C197.622 33.7402 199.87 35.2388 200.976 38.2359C201.511 37.6293 202.082 37.0406 202.689 36.4697C203.331 35.8989 204.277 35.3101 205.525 34.7036C206.81 34.0613 208.077 33.7402 209.325 33.7402C211.645 33.7402 213.464 34.4895 214.784 35.9881C216.14 37.4866 216.818 39.7166 216.818 42.6781V53.2216ZM244.952 52.5794L245.434 53.0076C241.902 57.8601 237.852 60.2863 233.285 60.2863C231.858 60.2863 230.431 60.0187 229.003 59.4835C227.612 58.9483 226.31 58.1812 225.096 57.1822C223.919 56.1831 222.956 54.8629 222.206 53.2216C221.493 51.5447 221.136 49.6893 221.136 47.6555C221.136 43.588 222.456 40.2518 225.096 37.6472C227.772 35.0425 230.948 33.7402 234.623 33.7402C237.763 33.7402 240.261 34.6144 242.116 36.3627C243.971 38.111 244.935 40.2518 245.006 42.7852H224.936C224.829 43.5701 224.775 44.3729 224.775 45.1936C224.775 48.7259 225.774 51.5804 227.772 53.7568C229.806 55.9333 232.482 57.0216 235.8 57.0216C239.261 57.0216 242.312 55.5409 244.952 52.5794ZM232.964 34.65C230.859 34.6144 229.128 35.2923 227.772 36.6838C226.417 38.0753 225.525 39.895 225.096 42.1429H240.885C240.599 40.2162 239.743 38.4857 238.316 36.9514C236.924 35.4172 235.14 34.65 232.964 34.65ZM270.064 53.2216C270.064 55.3268 270.206 56.7718 270.492 57.5568C270.777 58.3418 271.312 58.8591 272.097 59.1089V59.7511H264.016V59.1089C264.801 58.8591 265.336 58.3418 265.621 57.5568C265.907 56.7718 266.05 55.3268 266.05 53.2216V42.7852C266.05 40.2518 265.479 38.3965 264.337 37.219C263.231 36.0059 261.714 35.3993 259.788 35.3993C258.753 35.3993 257.7 35.7204 256.63 36.3627C255.595 36.9693 254.81 37.5937 254.275 38.2359L253.472 39.1458V53.2216C253.472 55.2911 253.615 56.7362 253.9 57.5568C254.222 58.3418 254.775 58.8591 255.56 59.1089V59.7511H247.424V59.1089C248.245 58.8591 248.78 58.3418 249.03 57.5568C249.316 56.7718 249.458 55.3268 249.458 53.2216V41.4471C249.458 39.7345 249.298 38.5749 248.977 37.9683C248.691 37.3617 248.174 37.0049 247.424 36.8979V36.1486L252.83 34.0613H253.472V37.9683C253.544 37.8613 253.651 37.7185 253.793 37.5401C253.972 37.3261 254.311 36.9871 254.81 36.5233C255.345 36.0237 255.899 35.5956 256.469 35.2388C257.076 34.8463 257.861 34.5073 258.824 34.2219C259.823 33.9008 260.858 33.7402 261.929 33.7402C264.497 33.7402 266.496 34.4895 267.923 35.9881C269.35 37.4866 270.064 39.7166 270.064 42.6781V53.2216ZM286.526 56.4864C286.597 56.6291 286.704 56.8789 286.847 57.2357C284.706 59.2695 282.619 60.2863 280.585 60.2863C277.124 60.2863 275.393 57.8244 275.393 52.9005V34.8106H272.129V34.0613C272.985 34.0613 273.806 33.8472 274.591 33.4191C275.376 32.9909 276 32.4735 276.464 31.867C276.963 31.2247 277.374 30.6003 277.695 29.9938C278.052 29.3872 278.319 28.852 278.498 28.3881L278.712 27.7459H279.408V34.0613H283.796V34.8106H279.408V52.9005C279.408 56.1474 280.621 57.7709 283.047 57.7709C284.224 57.7709 285.384 57.3427 286.526 56.4864Z" fill="black"/>
<path d="M302.381 117.365C301.682 118.734 299.966 119.517 297.431 119.743C294.9 119.969 291.569 119.638 287.668 118.797C279.868 117.115 269.801 113.397 259.318 108.042C248.834 102.686 239.921 96.7084 233.987 91.374C231.02 88.7065 228.799 86.202 227.499 84.0185C226.197 81.8323 225.825 79.9827 226.524 78.6136C227.224 77.2445 228.94 76.4616 231.475 76.2354C234.006 76.0094 237.337 76.3407 241.237 77.1816C249.037 78.8634 259.104 82.5809 269.588 87.9365C280.072 93.292 288.984 99.2699 294.919 104.604C297.886 107.272 300.106 109.776 301.407 111.96C302.709 114.146 303.081 115.996 302.381 117.365Z" stroke="black" stroke-width="0.105086"/>
<path d="M107.381 79H112.514V79.5693C111.154 80.0949 109.926 81.7592 108.785 84.5184L96.0635 116.972H94.5719L82.2452 86.0075C80.7537 82.3724 79.3061 80.2701 77.9023 79.7445V79.0438H86.6319V79.7445C85.9301 79.9197 85.5352 80.4015 85.5352 81.1899C85.5352 81.9782 85.7546 83.0293 86.3249 84.3432C86.3249 84.4746 87.2899 86.8396 89.0885 91.4383C90.8871 96.037 92.6857 100.636 94.4843 105.191L97.1163 112.023C104.135 93.6282 107.688 84.387 107.732 84.3432C108.215 82.9855 108.478 81.8906 108.434 81.1022C108.434 80.3139 108.083 79.8321 107.381 79.6132V79Z" fill="black"/>
<path d="M123.743 88.7246C125.542 88.7246 127.253 88.9874 128.876 89.5567C130.499 90.0823 132.034 90.9145 133.438 91.9656C134.842 93.0167 135.982 94.462 136.816 96.3453C137.649 98.1848 138.088 100.243 138.088 102.564C138.088 104.886 137.649 106.857 136.772 108.74C135.894 110.623 134.754 112.156 133.35 113.295C131.946 114.433 130.411 115.353 128.744 116.01C127.077 116.667 125.41 116.974 123.743 116.974C121.945 116.974 120.234 116.711 118.567 116.142C116.9 115.572 115.408 114.74 114.005 113.645C112.601 112.55 111.504 111.105 110.671 109.309C109.837 107.47 109.398 105.455 109.398 103.178C109.398 99.0607 110.846 95.6007 113.697 92.8853C116.549 90.1699 119.883 88.7684 123.743 88.7684V88.7246ZM125.41 115.747C128.174 115.747 130.279 114.784 131.727 112.901C133.175 111.017 133.877 108.652 133.877 105.805C133.877 103.397 133.35 100.9 132.385 98.4475C131.376 95.9511 129.928 93.8489 127.998 92.1408C126.068 90.4327 124.006 89.6443 121.769 89.7319C119.093 89.8633 117.075 90.8707 115.715 92.7977C114.355 94.7248 113.654 97.1336 113.654 99.9804C113.654 102.389 114.092 104.754 115.013 107.163C115.935 109.572 117.295 111.587 119.181 113.251C121.023 114.915 123.129 115.747 125.41 115.747Z" fill="black"/>
<path d="M165.986 111.936C165.986 113.206 166.118 114.126 166.425 114.739C166.732 115.352 167.302 115.659 168.179 115.659V116.36H166.074C164.846 116.36 163.837 115.966 163.003 115.09C162.17 114.258 161.731 113.25 161.731 112.024V111.411C158.178 115.09 154.624 116.929 151.071 116.929C145.5 116.929 142.692 113.601 142.692 106.987V96.8701C142.692 95.0306 142.517 93.8043 142.21 93.1911C141.903 92.578 141.333 92.1838 140.543 92.0086V91.2203L146.29 89.0742H146.991V106.024C146.991 109.133 147.474 111.411 148.439 112.856C149.404 114.301 150.94 115.002 153.133 115.002C155.984 115.002 158.88 113.469 161.819 110.403V96.8701C161.819 95.0306 161.643 93.8043 161.336 93.1911C161.029 92.578 160.459 92.1838 159.669 92.0086V91.2203L165.372 89.0742H166.118V111.98L165.986 111.936Z" fill="black"/>
<path d="M196.125 108.743L196.651 109.181C192.879 114.349 188.58 116.933 183.71 116.933C182.131 116.933 180.552 116.626 179.017 116.057C177.481 115.488 176.121 114.612 174.849 113.561C173.577 112.509 172.612 111.064 171.866 109.312C171.12 107.56 170.77 105.633 170.77 103.487C170.77 101.035 171.34 98.6258 172.48 96.3922C173.621 94.1147 175.2 92.2753 177.218 90.8738C179.236 89.4723 181.385 88.7715 183.71 88.7715C186.167 88.7715 188.36 89.3409 190.291 90.4358C192.221 91.5307 193.493 92.7132 194.151 94.0271C194.458 94.6403 194.37 95.1659 193.888 95.6038C193.405 96.0418 192.835 96.0856 192.177 95.7352C191.87 95.56 191.563 95.2096 191.256 94.7279C190.949 94.2461 190.598 93.7205 190.247 93.1512C189.896 92.6256 189.457 92.0563 188.975 91.4869C188.448 90.9613 187.79 90.4796 186.913 90.1292C186.079 89.7788 185.07 89.6036 183.93 89.6036C181.385 89.6036 179.192 90.7424 177.393 92.976C175.595 95.2097 174.674 97.8813 174.674 100.903C174.674 104.67 175.77 107.692 177.876 110.013C180.026 112.334 182.877 113.473 186.386 113.473C189.896 113.473 193.317 111.896 196.125 108.743Z" fill="black"/>
<path d="M221.877 109.441C221.877 111.674 222.053 113.207 222.316 114.039C222.623 114.872 223.193 115.441 224.027 115.704V116.405H215.429V115.704C216.262 115.441 216.832 114.872 217.139 114.039C217.447 113.207 217.578 111.674 217.578 109.441V98.3164C217.578 95.6009 216.964 93.6301 215.78 92.36C214.595 91.0898 212.972 90.4329 210.91 90.4329C209.814 90.4329 208.673 90.7833 207.576 91.4402C206.436 92.0972 205.602 92.7979 205.032 93.4549L204.199 94.4184V109.397C204.199 111.587 204.374 113.12 204.681 113.996C204.988 114.828 205.602 115.397 206.436 115.66V116.361H197.75V115.66C198.627 115.397 199.198 114.828 199.505 113.996C199.768 113.164 199.943 111.631 199.943 109.397V86.4474C199.943 84.6517 199.768 83.4692 199.461 82.8122C199.154 82.1553 198.583 81.7611 197.794 81.6297V80.8414L203.541 78.6953H204.242V93.1921C204.242 93.1921 204.418 92.9293 204.593 92.7103C204.769 92.4914 205.12 92.141 205.69 91.6154C206.26 91.0899 206.831 90.6519 207.445 90.2577C208.059 89.8635 208.892 89.5132 209.945 89.1628C210.998 88.8562 212.095 88.681 213.235 88.681C215.955 88.681 218.105 89.4694 219.64 91.0899C221.175 92.6666 221.921 95.0754 221.921 98.185V109.397L221.877 109.441Z" fill="black"/>
<path d="M251.879 108.74L252.405 109.178C248.633 114.346 244.334 116.93 239.464 116.93C237.929 116.93 236.437 116.667 234.946 116.098C233.454 115.528 232.051 114.696 230.779 113.645C229.506 112.594 228.497 111.149 227.708 109.397C226.918 107.645 226.523 105.674 226.523 103.528C226.523 99.1921 227.927 95.6445 230.779 92.8853C233.63 90.1261 237.008 88.7246 240.912 88.7246C244.246 88.7246 246.922 89.6443 248.896 91.5276C250.87 93.3671 251.879 95.6445 251.967 98.3599H230.559C230.428 99.1921 230.384 100.068 230.384 100.9C230.384 104.667 231.437 107.689 233.586 110.01C235.736 112.331 238.587 113.47 242.096 113.47C245.606 113.47 249.027 111.893 251.835 108.74H251.879ZM239.113 89.6881C236.876 89.6881 235.034 90.3889 233.586 91.8342C232.138 93.3233 231.173 95.2504 230.735 97.6592H247.58C247.273 95.6007 246.352 93.7613 244.86 92.1408C243.369 90.5203 241.438 89.6881 239.113 89.6881Z" fill="black"/>
<path d="M269.387 89.0775C270.176 89.2527 270.703 89.6469 270.878 90.2601C271.098 90.8294 271.054 91.3988 270.703 91.8806C270.396 92.3624 269.957 92.6251 269.387 92.6251C269.036 92.6251 268.597 92.5375 267.983 92.3623C267.413 92.1871 266.886 92.0558 266.491 92.012C266.053 91.9682 265.439 92.012 264.561 92.2309C262.982 92.6251 261.754 93.9828 260.964 96.2165V109.443C260.964 111.633 261.14 113.166 261.447 114.042C261.754 114.918 262.368 115.443 263.201 115.706V116.407H254.516V115.706C255.393 115.443 255.963 114.874 256.27 114.042C256.577 113.21 256.709 111.677 256.709 109.443V96.9172C256.709 95.0777 256.534 93.8514 256.226 93.2383C255.919 92.6251 255.349 92.2309 254.559 92.0557V91.2674L260.306 89.1214H261.008V94.2894C261.841 92.6251 263.07 91.2236 264.737 90.1725C266.36 89.0775 267.939 88.7272 269.474 89.1214L269.387 89.0775Z" fill="black"/>
<ellipse cx="76.3694" cy="53.4944" rx="83.706" ry="36.8019" transform="rotate(150.417 76.3694 53.4944)" stroke="black" stroke-width="0.153114"/>
</g>
<defs>
<clipPath id="clip0_1252_35944">
<rect width="313.431" height="122" fill="white" transform="translate(0.285156)"/>
</clipPath>
</defs>
</svg>
